<svg width="14" height="14" viewBox="0 0 14 14" fill="none" xmlns="http://www.w3.org/2000/svg">
<path d="M0 7C3.37976e-07 3.13401 3.13401 -3.37976e-07 7 0C10.866 3.37976e-07 14 3.13401 14 7C14 10.866 10.866 14 7 14C3.13401 14 -3.37976e-07 10.866 0 7Z" fill="#D4717F"/>
<path d="M8 7.5C8 8.05229 7.55228 8.5 7 8.5C6.44771 8.5 6 8.05229 6 7.5L6 3.5C6 2.94772 6.44772 2.5 7 2.5C7.55228 2.5 8 2.94772 8 3.5L8 7.5Z" fill="white"/>
<path d="M8 10.5C8 11.0523 7.55228 11.5 7 11.5C6.44771 11.5 6 11.0523 6 10.5C6 9.94772 6.44771 9.5 7 9.5C7.55228 9.5 8 9.94772 8 10.5Z" fill="white"/>
</svg>
