<svg width="32" height="32" viewBox="0 0 32 32" fill="none" xmlns="http://www.w3.org/2000/svg">
<path d="M5.6 4H26.4C27.0896 4 27.7509 4.31607 28.2385 4.87868C28.7261 5.44129 29 6.20435 29 7V16C29 19.9782 27.6304 23.7936 25.1924 26.6066C22.7544 29.4196 19.4478 31 16 31C14.2928 31 12.6023 30.612 11.0251 29.8582C9.44788 29.1044 8.01477 27.9995 6.80761 26.6066C4.36964 23.7936 3 19.9782 3 16V7C3 6.20435 3.27393 5.44129 3.76152 4.87868C4.24912 4.31607 4.91044 4 5.6 4V4Z" stroke="#25282B" stroke-width="2" stroke-linecap="round" stroke-linejoin="round"/>
<path d="M11.5 15.833L15.0002 19.3333C17.083 17.2505 19.2507 15.0828 21.3335 13" stroke="#25282B" stroke-width="2" stroke-linecap="round" stroke-linejoin="round"/>
</svg>
