<svg width="32" height="32" viewBox="0 0 32 32" fill="none" xmlns="http://www.w3.org/2000/svg">
<path d="M9.33329 29.3333H5.33329C4.62605 29.3333 3.94777 29.0524 3.44767 28.5523C2.94758 28.0522 2.66663 27.3739 2.66663 26.6667V17.3333C2.66663 16.6261 2.94758 15.9478 3.44767 15.4477C3.94777 14.9476 4.62605 14.6667 5.33329 14.6667H9.33329M18.6666 12V6.66666C18.6666 5.6058 18.2452 4.58838 17.4951 3.83824C16.7449 3.08809 15.7275 2.66666 14.6666 2.66666L9.33329 14.6667V29.3333H24.3733C25.0164 29.3406 25.6405 29.1152 26.1305 28.6987C26.6205 28.2821 26.9435 27.7025 27.04 27.0667L28.88 15.0667C28.938 14.6845 28.9122 14.2942 28.8044 13.923C28.6966 13.5518 28.5094 13.2084 28.2558 12.9167C28.0021 12.625 27.6881 12.3919 27.3354 12.2336C26.9827 12.0753 26.5998 11.9956 26.2133 12H18.6666Z" stroke="#25282B" stroke-width="2" stroke-linecap="round" stroke-linejoin="round"/>
</svg>
