<svg width="14" height="14" viewBox="0 0 14 14" fill="none" xmlns="http://www.w3.org/2000/svg">
<circle cx="7" cy="7" r="7" fill="#D0D0D0"/>
<path d="M6.37471 8.875L7.92037 8.40988C7.76581 8.27907 7.6534 8.03198 7.6534 7.79942C7.6534 6.57849 10 6.4186 10 4.29651C10 2.94477 8.88993 2 7.07728 2C5.86885 2 4.74473 2.49419 4 3.40988L5.13817 4.73256C5.57377 4.18023 6.16393 3.8314 6.86651 3.8314C7.63934 3.8314 7.97658 4.2093 7.97658 4.65988C7.97658 5.66279 5.91101 5.86628 5.91101 7.5814C5.91101 8.09012 6.07963 8.5407 6.37471 8.875ZM7.04918 12C7.66745 12 8.18735 11.4622 8.18735 10.8227C8.18735 10.1831 7.66745 9.64535 7.04918 9.64535C6.43091 9.64535 5.91101 10.1831 5.91101 10.8227C5.91101 11.4622 6.43091 12 7.04918 12Z" fill="white"/>
</svg>
