<svg style="display: none;" aria-hidden="true" xmlns="http://www.w3.org/2000/svg" xmlns:xlink="http://www.w3.org/1999/xlink"><symbol viewBox="0 0 24 24" id="svg-arrow-left"><path d="M9.27558 14.4742L7.94355 13.079L20 13.079L20 10.921L7.94355 10.921L9.27558 9.52576L7.81889 8L4 12L7.81889 16L9.27558 14.4742Z"/></symbol><symbol viewBox="0 0 24 24" id="svg-arrow-right"><path d="M14.7244 9.52576L16.0565 10.921H4V13.079H16.0565L14.7244 14.4742L16.1811 16L20 12L16.1811 8L14.7244 9.52576Z"/></symbol><symbol viewBox="0 0 38 38" fill="none" id="svg-calendar"><path fill-rule="evenodd" clip-rule="evenodd" d="M30.0833 6.33329H28.5V4.74996C28.5 3.87913 27.7875 3.16663 26.9167 3.16663C26.0458 3.16663 25.3333 3.87913 25.3333 4.74996V6.33329H12.6667V4.74996C12.6667 3.87913 11.9542 3.16663 11.0833 3.16663C10.2125 3.16663 9.5 3.87913 9.5 4.74996V6.33329H7.91667C6.15917 6.33329 4.76583 7.75829 4.76583 9.49996L4.75 31.6666C4.75 33.4083 6.15917 34.8333 7.91667 34.8333H30.0833C31.825 34.8333 33.25 33.4083 33.25 31.6666V9.49996C33.25 7.75829 31.825 6.33329 30.0833 6.33329ZM30.0833 30.0833C30.0833 30.9541 29.3708 31.6666 28.5 31.6666H9.5C8.62917 31.6666 7.91667 30.9541 7.91667 30.0833V14.25H30.0833V30.0833ZM17.4167 17.4166H12.6667C11.7958 17.4166 11.0833 18.1291 11.0833 19V23.75C11.0833 24.6208 11.7958 25.3333 12.6667 25.3333H17.4167C18.2875 25.3333 19 24.6208 19 23.75V19C19 18.1291 18.2875 17.4166 17.4167 17.4166Z" fill="#fff"/></symbol><symbol viewBox="0 0 28 28" id="svg-cart"><path fill-rule="evenodd" clip-rule="evenodd" d="M2 8L4 26H24L26 8H2ZM3.11726 9L4.89504 25H23.105L24.8827 9H3.11726Z"/><path fill-rule="evenodd" clip-rule="evenodd" d="M21.7714 8.47859L15.6464 2.35359 16.3535 1.64648 22.4785 7.77148 21.7714 8.47859zM6.35358 8.47859L12.4786 2.35359 11.7715 1.64648 5.64647 7.77148 6.35358 8.47859z"/></symbol><symbol viewBox="0 0 16 16" id="svg-clock"><path fill-rule="evenodd" clip-rule="evenodd" d="M8 14C11.3137 14 14 11.3137 14 8C14 4.68629 11.3137 2 8 2C4.68629 2 2 4.68629 2 8C2 11.3137 4.68629 14 8 14ZM8 15C11.866 15 15 11.866 15 8C15 4.13401 11.866 1 8 1C4.13401 1 1 4.13401 1 8C1 11.866 4.13401 15 8 15Z"/><path fill-rule="evenodd" clip-rule="evenodd" d="M8 3.5C8.27614 3.5 8.5 3.72386 8.5 4V7.5H12C12.2761 7.5 12.5 7.72386 12.5 8C12.5 8.27614 12.2761 8.5 12 8.5H8C7.72386 8.5 7.5 8.27614 7.5 8V4C7.5 3.72386 7.72386 3.5 8 3.5Z"/></symbol><symbol viewBox="0 0 30 30" id="svg-close"><path d="M25.7133 4.5L26.7739 5.56066L5.56073 26.7739L4.50007 25.7132L25.7133 4.5Z"/><path d="M4.5 5.56066L5.56066 4.5L26.7739 25.7132L25.7132 26.7739L4.5 5.56066Z"/></symbol><symbol viewBox="0 0 135 18" fill="none" id="svg-dev"><path d="M32.2314 11.388H27.8376L26.9994 13.3977H24.7551L28.9732 4.01917H31.1363L35.3679 13.3977H33.0696L32.2314 11.388zM31.5419 9.74007L30.0412 6.14944 28.5406 9.74007H31.5419zM42.3795 13.3977L40.5543 10.7851H40.4462 38.5399V13.3977H36.3498V4.01917H40.4462C41.2844 4.01917 42.0099 4.15762 42.6228 4.43451 43.2447 4.7114 43.7224 5.1044 44.0559 5.61352 44.3894 6.12264 44.5561 6.72555 44.5561 7.42224 44.5561 8.11893 44.3849 8.72183 44.0424 9.23095 43.7089 9.73114 43.2312 10.1152 42.6093 10.3832L44.7319 13.3977H42.3795zM42.3389 7.42224C42.3389 6.89525 42.1677 6.49332 41.8252 6.21643 41.4827 5.93061 40.9825 5.78769 40.3245 5.78769H38.5399V9.05678H40.3245C40.9825 9.05678 41.4827 8.91387 41.8252 8.62805 42.1677 8.34223 42.3389 7.94029 42.3389 7.42224zM48.1197 5.78769H45.0913V4.01917H53.3382V5.78769H50.3098V13.3977H48.1197V5.78769zM61.8442 11.656V13.3977H54.5166V4.01917H61.6684V5.7609H56.6932V7.79738H61.0871V9.48551H56.6932V11.656H61.8442zM72.1987 13.3977L72.1852 7.77058 69.4002 12.4063H68.4133L65.6418 7.89116V13.3977H63.5868V4.01917H65.3984L68.9405 9.84726 72.4286 4.01917H74.2266L74.2537 13.3977H72.1987zM84.9109 13.5585C83.9284 13.5585 83.0407 13.3486 82.2475 12.9288 81.4634 12.509 80.846 11.9329 80.3953 11.2004 79.9537 10.4591 79.7329 9.62842 79.7329 8.70844 79.7329 7.78845 79.9537 6.96224 80.3953 6.22982 80.846 5.48847 81.4634 4.9079 82.2475 4.4881 83.0407 4.0683 83.9284 3.8584 84.9109 3.8584 85.8933 3.8584 86.7765 4.0683 87.5607 4.4881 88.3448 4.9079 88.9622 5.48847 89.4128 6.22982 89.8635 6.96224 90.0888 7.78845 90.0888 8.70844 90.0888 9.62842 89.8635 10.4591 89.4128 11.2004 88.9622 11.9329 88.3448 12.509 87.5607 12.9288 86.7765 13.3486 85.8933 13.5585 84.9109 13.5585zM84.9109 11.7096C85.4697 11.7096 85.9744 11.5845 86.425 11.3344 86.8757 11.0754 87.2272 10.7181 87.4796 10.2626 87.7409 9.80706 87.8716 9.28901 87.8716 8.70844 87.8716 8.12786 87.7409 7.60981 87.4796 7.15428 87.2272 6.69875 86.8757 6.34594 86.425 6.09585 85.9744 5.83682 85.4697 5.70731 84.9109 5.70731 84.352 5.70731 83.8473 5.83682 83.3967 6.09585 82.946 6.34594 82.59 6.69875 82.3286 7.15428 82.0763 7.60981 81.9501 8.12786 81.9501 8.70844 81.9501 9.28901 82.0763 9.80706 82.3286 10.2626 82.59 10.7181 82.946 11.0754 83.3967 11.3344 83.8473 11.5845 84.352 11.7096 84.9109 11.7096zM95.8312 4.01917C96.6694 4.01917 97.395 4.15762 98.0079 4.43451 98.6298 4.7114 99.1074 5.1044 99.4409 5.61352 99.7744 6.12264 99.9411 6.72555 99.9411 7.42224 99.9411 8.11 99.7744 8.7129 99.4409 9.23095 99.1074 9.74007 98.6298 10.1331 98.0079 10.41 97.395 10.6779 96.6694 10.8119 95.8312 10.8119H93.925V13.3977H91.7348V4.01917H95.8312zM95.7095 9.04338C96.3675 9.04338 96.8677 8.90494 97.2102 8.62805 97.5527 8.34223 97.724 7.94029 97.724 7.42224 97.724 6.89525 97.5527 6.49332 97.2102 6.21643 96.8677 5.93061 96.3675 5.78769 95.7095 5.78769H93.925V9.04338H95.7095zM107.262 11.388H102.868L102.03 13.3977H99.7857L104.004 4.01917H106.167L110.398 13.3977H108.1L107.262 11.388zM106.572 9.74007L105.072 6.14944 103.571 9.74007H106.572zM117.41 13.3977L115.585 10.7851H115.477 113.57V13.3977H111.38V4.01917H115.477C116.315 4.01917 117.04 4.15762 117.653 4.43451 118.275 4.7114 118.753 5.1044 119.086 5.61352 119.42 6.12264 119.587 6.72555 119.587 7.42224 119.587 8.11893 119.415 8.72183 119.073 9.23095 118.739 9.73114 118.262 10.1152 117.64 10.3832L119.762 13.3977H117.41zM117.369 7.42224C117.369 6.89525 117.198 6.49332 116.856 6.21643 116.513 5.93061 116.013 5.78769 115.355 5.78769H113.57V9.05678H115.355C116.013 9.05678 116.513 8.91387 116.856 8.62805 117.198 8.34223 117.369 7.94029 117.369 7.42224zM121.322 4.01917H123.512V13.3977H121.322V4.01917zM134.438 4.01917V13.3977H132.639L127.921 7.70359V13.3977H125.758V4.01917H127.57L132.274 9.71328V4.01917H134.438z" fill="#000"/><path fill-rule="evenodd" clip-rule="evenodd" d="M9.013 16.3238C13.1325 16.3238 16.472 13.0144 16.472 8.93192C16.472 4.84946 13.1325 1.53999 9.013 1.53999C4.89349 1.53999 1.55397 4.84946 1.55397 8.93192C1.55397 13.0144 4.89349 16.3238 9.013 16.3238ZM9.013 17.8638C13.9907 17.8638 18.026 13.8649 18.026 8.93192C18.026 3.99895 13.9907 0 9.013 0C4.03526 0 0 3.99895 0 8.93192C0 13.8649 4.03526 17.8638 9.013 17.8638Z" fill="#000"/><path fill-rule="evenodd" clip-rule="evenodd" d="M9.01291.924157L4.70644 9.47108H13.3194L9.01291.924157zM9.01291 4.37137L7.2193 7.93109H10.8065L9.01291 4.37137zM3.87076 11.8579H14.155L15.3021 14.1315 13.9122 14.8202 13.1945 13.3979H4.83116L4.11353 14.8202 2.72362 14.1315 3.87076 11.8579z" fill="#000"/></symbol><symbol viewBox="0 0 28 28" id="svg-favorite"><path fill-rule="evenodd" clip-rule="evenodd" d="M14.6868 25.1213L23.1965 18.1287C25.2021 16.1603 26.3942 14.3896 26.8669 12.3492C27.104 11.3245 27.1592 10.4813 27.1068 9.84849C27.0996 9.76217 27.0915 9.696 27.0843 9.65057C26.717 5.72901 23.6661 2.625 19.7065 2.625C17.7712 2.625 15.9766 3.35359 14.6385 4.57791C14.3906 4.80478 14.1583 5.04867 13.9437 5.3081C13.7321 5.04438 13.5036 4.79706 13.26 4.56754C11.9599 3.34305 10.2265 2.625 8.30493 2.625C4.35887 2.625 1.31494 5.70799 0.923017 9.67285C0.915483 9.71906 0.907897 9.77531 0.900978 9.84148C0.833993 10.482 0.889703 11.3308 1.14857 12.365C1.69861 14.5622 2.98481 16.5635 4.79891 18.1143L13.2466 25.1183C13.658 25.4594 14.2738 25.4607 14.6868 25.1213ZM26.1102 9.93106C26.1045 9.86253 26.0991 9.82264 26.0968 9.80875L26.0917 9.77641L26.0886 9.74381C25.764 6.27745 23.093 3.625 19.7065 3.625C17.7119 3.625 15.8977 4.51471 14.7143 5.94547L13.932 6.89127L13.1638 5.93396C12.0107 4.497 10.2798 3.625 8.30493 3.625C4.93465 3.625 2.2658 6.25434 1.91817 9.77122L1.91506 9.80264L1.90998 9.83379C1.90593 9.85863 1.90076 9.8957 1.89556 9.94548C1.84327 10.4455 1.88149 11.1748 2.11864 12.1222C2.61343 14.0987 3.77608 15.9225 5.44312 17.3494L13.8849 24.3485L13.8849 24.3485C13.901 24.3619 13.9293 24.3749 13.9682 24.375C14.0071 24.3751 14.0355 24.3621 14.0519 24.3487L14.0519 24.3487L22.5272 17.3844C24.4437 15.4972 25.4822 13.8953 25.8926 12.1237M26.1102 9.93106C26.1524 10.4406 26.1114 11.1782 25.8927 12.1235Z"/></symbol><symbol viewBox="0 0 28 28" id="svg-favorite-fill"><path d="M26.5864 9.69719L26.588 9.71349L26.5905 9.72966C26.5953 9.75931 26.6021 9.81234 26.6085 9.88977C26.6558 10.4609 26.6077 11.2513 26.3798 12.2363C25.9383 14.1421 24.8233 15.8284 22.8619 17.7565L14.3694 24.735L14.3694 24.735C14.1414 24.9223 13.7927 24.9215 13.5657 24.7334L13.5657 24.7334L5.12097 17.7318C3.38041 16.2429 2.15601 14.3304 1.63361 12.2436C1.3856 11.2528 1.33863 10.4638 1.39827 9.89348C1.40433 9.83551 1.41071 9.78884 1.4165 9.75332L1.41904 9.73774L1.42059 9.72204C1.79037 5.98116 4.64676 3.125 8.30493 3.125C10.4332 3.125 12.3069 4.06723 13.5538 5.62103L13.9378 6.09968L14.329 5.62678C15.607 4.08167 17.5623 3.125 19.7065 3.125C23.3795 3.125 26.2405 6.00323 26.5864 9.69719Z"/></symbol><symbol viewBox="0 0 16 16" id="svg-flag"><path fill-rule="evenodd" clip-rule="evenodd" d="M1.5 0.5H7.16667L9.16667 2H14.5V11H8.83333L6.83333 9.5H2.5V15H1.5V0.5ZM2.5 8.5H6.5V1.5H2.5V8.5ZM7.5 2L8.5 2.75V9.5L7.5 8.75V2ZM9.5 10H13.5V3H9.5V10Z"/></symbol><symbol viewBox="0 0 370 176" fill="none" id="svg-has-question"><path fill-rule="evenodd" clip-rule="evenodd" d="M21.4182 0.539289C12.451 2.08525 5.84363 6.90961 1.5717 15.0295C0.267499 17.5086 0.0103525 18.9755 0.000462265 23.9745C-0.0100874 29.4835 0.14552 30.2071 1.97588 33.1685C4.4801 37.2199 7.28498 38.9049 11.5279 38.9049C17.0572 38.9049 21.3628 35.3609 21.5395 30.6651C21.6087 28.8245 21.0344 27.3273 19.27 24.7455C15.8915 19.8018 15.7583 17.5804 18.7478 16.0351C24.0088 13.3162 34.1265 16.0852 36.7435 20.9603C38.3516 23.9567 38.0173 29.6937 35.918 35.1237C34.0889 39.8525 28.9262 45.3167 23.2241 48.5596C16.8647 52.1754 13.1591 55.4953 11.2826 59.2587C8.35247 65.1361 9.13248 69.463 13.8726 73.6224L16.2845 75.7391L14.8827 79.1091C14.1119 80.9628 13.1677 84.5028 12.7833 86.9759C11.9123 92.5884 12.5961 94.9285 16.1117 98.3591C18.2322 100.429 19.2852 100.938 21.972 101.197C26.1226 101.595 29.8829 99.6507 31.9005 96.0625C33.959 92.4013 39.9347 87.2382 44.9933 84.7492C48.7213 82.9153 50.1375 82.5746 54.0422 82.5746C59.4693 82.5746 62.5749 83.9565 71.368 90.2846C78.6064 95.4938 83.3965 97.4062 89.1533 97.3851C95.557 97.3621 103.731 94.3288 108.134 90.3413C112.335 86.537 120.379 80.572 122.735 79.5137C124.243 78.8362 127.062 78.1845 128.999 78.0652C133.466 77.7904 142.302 79.6909 146.541 81.8379L149.806 83.4913L150.274 89.9519C150.842 97.8042 153.308 111.439 155.613 119.477C156.548 122.739 158.902 128.67 160.844 132.657C168.373 148.116 177.917 154.522 188.309 151.09C191.078 150.175 192.886 148.886 196.513 145.241C203.318 138.4 208.462 127.735 211.906 113.325C212.606 110.395 213.37 107.69 213.603 107.313C214.752 105.454 215.079 107.254 214.772 113.741C214.496 119.548 214.635 121.242 215.527 122.967C217.336 126.462 218.742 125.821 226.435 117.984C235.722 108.524 242.367 105.023 254.029 103.446L258.174 102.885L257.665 105.909C257.385 107.573 257.18 109.972 257.211 111.24C257.716 132.019 257.548 133.582 254.048 140.609C252.924 142.866 249.078 148.221 245.502 152.508C238.872 160.456 236.56 164.648 237.263 167.447C237.9 169.982 240.111 172.305 243.407 173.9C246.2 175.251 247.683 175.416 259.393 175.683C266.492 175.845 273.679 175.987 275.363 176C278.867 176.025 282.015 174.456 284.1 171.641C285.392 169.899 285.477 169.051 285.321 159.45C285.229 153.774 285.377 148.814 285.651 148.426C285.924 148.039 288.225 147.225 290.763 146.619C296.626 145.217 303.745 141.682 314.141 135.012C326.621 127.003 331.267 126.626 337.178 133.139C343.931 140.578 344.922 141.438 347.549 142.145C351.23 143.136 355.378 141.814 361.643 137.655C369.138 132.679 370.698 131.264 369.752 130.299C369.125 129.66 368.692 129.684 367.692 130.414C361.945 134.611 357.693 137.312 354.628 138.715C349.122 141.233 347.584 140.681 341.492 133.993C335.743 127.681 333.38 126.302 328.309 126.302C324.049 126.302 320.033 127.985 312.852 132.776C304.114 138.605 298.803 141.448 293.232 143.274C290.238 144.256 287.597 144.868 287.363 144.635C287.13 144.401 289.376 140.532 292.356 136.035C298.941 126.1 300.946 121.511 300.967 116.326C300.985 111.967 299.954 109.098 297.387 106.367L295.594 104.459L298.124 104.895C299.515 105.135 304.511 105.518 309.226 105.744C320.144 106.269 324.097 105.307 328.309 101.098C331.667 97.7423 333.061 94.0177 333.978 85.9558C335.358 73.8102 332.145 65.6534 324.409 61.6712C320.805 59.8162 320.427 59.7167 297.229 54.5424C271.54 48.8126 267.356 48.6294 267.356 53.235C267.356 55.0999 267.89 56.0007 273.032 62.8053C279.461 71.3153 279.898 74.9476 275.321 81.8379L272.772 85.6725L273.123 81.3054C273.45 77.2376 273.303 76.5898 270.976 71.8491C269.111 68.0488 267.208 65.5051 263.467 61.8096C257.788 56.2017 253.958 53.9981 239.993 48.3045C234.916 46.2347 229.717 44.0087 228.441 43.3576C224.557 41.3787 219.273 37.1026 217.157 34.2262C213.783 29.6417 211.742 31.1428 214.941 35.8552C220.515 44.0627 222.098 65.9579 218.63 86.858C215.871 103.483 216.064 102.826 213.39 104.696C211.145 106.266 210.856 106.865 209.418 112.933C206.223 126.407 199.791 139.537 193.815 144.78C186.618 151.096 179.275 151.062 171.982 144.679C165.97 139.419 159.666 126.341 156.339 112.229C154.967 106.407 152.665 90.3248 152.636 86.344C152.632 85.8748 154.754 86.9113 157.409 88.6748C163.111 92.4612 165.249 93.4477 167.757 93.4477C169.291 93.4477 170.025 94.056 171.767 96.7683C177.721 106.041 188.891 110.028 197.795 106.059C201.57 104.376 206.677 99.6467 209.014 95.6718C210.939 92.3953 212.794 85.772 214.552 75.8965C215.663 69.6527 215.762 67.5895 215.214 62.058C212.296 32.5807 202.95 11.133 190.077 4.37387C185.734 2.09381 179.744 2.26712 175.134 4.80682C165.327 10.2104 157.102 25.618 152.972 46.3263C151.119 55.6146 149.992 66.2808 149.992 74.5226C149.992 79.8847 149.889 80.3637 148.838 79.8979C142.325 77.0102 136.786 75.6824 131.2 75.6699C126.01 75.658 124.77 75.8932 121.31 77.546C119.134 78.5852 114.09 82.0764 110.101 85.3034C100.508 93.0642 97.4823 94.3887 89.3314 94.3953C82.246 94.4013 80.8231 93.8635 72.8166 88.1535C65.9758 83.2758 61.5753 80.9924 57.5948 80.257C50.8193 79.0056 43.2328 81.5216 36.8299 87.144L33.45 90.112L32.3206 87.1558C30.9814 83.6514 25.7903 77.7595 22.4639 75.969C21.1637 75.2692 20.0995 74.456 20.0995 74.1615C20.0995 72.7236 22.932 68.4488 25.4844 66.033C27.0556 64.5463 31.5735 61.1361 35.5243 58.4548C47.1995 50.5306 53.998 42.9095 56.733 34.6802C58.3597 29.7853 57.819 21.819 55.5192 16.8028C51.9949 9.11784 43.4273 3.04406 33.1039 0.912927C27.6959 -0.20338 26.0363 -0.256755 21.4182 0.539289ZM32.3252 3.22857C38.0984 4.29545 44.0128 7.24964 48.0909 11.1047C52.2462 15.0322 54.1754 18.584 55.0411 23.9C56.8979 35.3023 50.096 45.5204 32.7999 57.3108C24.2006 63.173 21.3311 65.9888 17.7219 72.1061C17.0421 73.2593 16.833 73.1816 14.5899 70.9397C12.5888 68.9397 12.1873 68.0758 12.1873 65.7714C12.1873 60.095 14.7033 57.117 25.6749 49.8064C33.5239 44.5767 36.0419 41.6798 38.5824 34.9563C42.6249 24.2572 39.8279 16.6183 30.686 13.3953C27.386 12.2315 21.6588 12.0852 18.9885 13.0967C13.4262 15.2028 12.7596 19.0051 16.8027 25.5731C18.2526 27.929 19.4395 30.3356 19.4395 30.9207C19.4401 32.8331 16.7882 35.411 14.0664 36.1431C6.66321 38.1359 0.552999 30.4153 2.25479 21.2173C3.11392 16.5709 5.27329 12.8055 9.09819 9.28127C15.4431 3.43615 22.9123 1.48953 32.3252 3.22857ZM187.984 6.12411C199.943 11.1178 209.663 32.7599 212.648 61.0393C214.045 74.2781 210.064 90.9871 203.747 98.3953C198.709 104.302 192.253 106.379 185.252 104.345C182.113 103.433 180.659 102.473 177.243 99.0589C174.947 96.765 173.069 94.6253 173.069 94.3044C173.069 93.9835 174.355 93.3772 175.926 92.9574C179.539 91.9914 183.182 88.9891 187.169 83.6936C190.91 78.7229 192.19 75.3872 192.19 70.6036C192.19 63.5585 187.844 58.8798 181.334 58.918C171.758 58.974 166.481 67.3872 167.384 81.1598C167.619 84.7499 167.989 88.3907 168.204 89.25C168.473 90.3202 168.314 90.8098 167.701 90.8052C166.042 90.7934 159.58 87.4464 155.999 84.7446L152.445 82.0639L152.824 70.4574C153.242 57.6726 154.313 50.0633 157.249 39.0024C163.777 14.414 176.148 1.18113 187.984 6.12411ZM228.241 45.9026C230.48 47.0274 236.117 49.4591 240.769 51.3068C254.016 56.5688 260.244 60.6676 265.249 67.4182C271.001 75.1756 272.181 81.1282 268.92 85.9314C266.859 88.9667 266.021 89.6744 261.968 91.8016C257.743 94.0184 254.848 94.6121 242.631 95.766C231.904 96.7795 223.767 98.5317 220.817 100.464C219.918 101.052 219.075 101.419 218.943 101.28C218.812 101.14 219.239 98.0606 219.893 94.4362C220.546 90.8118 221.479 85.6224 221.965 82.9041C223.273 75.6007 223.079 53.6871 221.652 47.3194C220.232 40.9879 220.22 41.071 222.356 42.578C223.352 43.2818 226.001 44.7777 228.241 45.9026ZM295.379 56.634C305.17 58.7763 315.056 61.0162 317.346 61.6119C328.967 64.634 333.265 72.1443 331.477 86.3044C330.39 94.91 328.191 99.0978 323.491 101.514C320.349 103.129 319.244 103.332 313.601 103.331C310.106 103.33 301.676 102.737 294.868 102.014C288.059 101.292 278.207 100.505 272.975 100.267C264.512 99.8833 263.53 99.7192 264.08 98.7835C264.419 98.2049 267.356 94.9317 270.606 91.5097C282.714 78.7611 283.697 72.8534 275.515 62.0112C270.476 55.3332 269.775 54.1114 270.261 52.8449C270.783 51.4867 274.228 52.006 295.379 56.634ZM185.396 62.4468C188.56 64.375 189.842 66.7671 189.791 70.6485C189.767 72.4962 189.36 74.8975 188.887 75.9848L188.028 77.9618L187.585 75.5473C186.684 70.6419 184.155 68.5496 180.1 69.3542C176.004 70.1667 173.728 73.2079 173.728 77.8682C173.728 81.8076 176.082 84.715 179.746 85.3001C182.285 85.7061 182.318 85.7456 181.168 87.0161C179.628 88.7189 175.861 90.6161 173.44 90.9087C171.626 91.1275 171.461 90.9463 170.65 87.8464C169.251 82.4982 169.435 73.971 171.04 69.6811C173.793 62.3289 180.038 59.1816 185.396 62.4468ZM183.901 72.7368C184.853 73.6883 185.32 76.6689 185.029 79.9387C184.876 81.6626 183.153 82.9041 180.914 82.9041C178.269 82.9041 175.463 79.3713 175.977 76.6886C176.735 72.7315 181.512 70.3493 183.901 72.7368ZM22.2476 78.916C25.1013 80.7255 28.6658 85.7647 27.7433 86.6866C27.5455 86.8843 27.1987 86.5654 26.9726 85.9769C26.3831 84.4415 22.5582 82.2451 20.4727 82.2451C19.4942 82.2451 18.1201 82.5522 17.4185 82.9272C16.717 83.3028 16.1434 83.3799 16.1434 83.0992C16.1434 82.2207 18.432 76.9786 18.8164 76.9759C19.0175 76.9746 20.5617 77.8478 22.2476 78.916ZM24.8798 88.6589C26.3923 90.021 26.3541 92.5706 24.8092 93.3976C23.1767 94.2708 19.3518 93.1934 17.7317 91.4049C16.5014 90.0461 16.51 90.0072 18.3852 88.3947C20.4562 86.6148 22.7118 86.7064 24.8798 88.6589ZM264.658 94.1278C264.087 94.4474 262.797 95.8945 261.793 97.3429C260.229 99.5973 259.524 100.037 256.903 100.395C250.197 101.308 242.383 103.504 237.685 105.797C233.679 107.751 231.381 109.572 225.582 115.388C220.273 120.711 218.231 122.373 217.681 121.823C216.831 120.974 216.76 115.624 217.511 109.03L218.024 104.513L222.363 102.548C227.382 100.273 233.142 99.1644 245.598 98.0751C254.103 97.3317 262.499 95.2711 264.281 93.4899C264.655 93.1163 265.126 92.9766 265.329 93.1789C265.531 93.3812 265.229 93.8082 264.658 94.1278ZM20.5577 96.6194C19.2964 96.8678 16.8027 95.6283 16.8027 94.7532C16.8027 94.4092 17.8834 94.6425 19.2047 95.2705C20.7232 95.9927 21.221 96.4889 20.5577 96.6194ZM28.7554 95.2672C27.5693 97.4826 23.3962 100.189 23.3962 98.7433C23.3962 98.4164 23.9428 97.9762 24.6108 97.764C25.2787 97.5525 26.5169 96.6424 27.3629 95.7429C29.1754 93.8148 29.6133 93.6652 28.7554 95.2672ZM272.015 104.988C266.618 107.894 264.442 109.998 262.296 114.382C260.789 117.46 260.624 118.438 260.955 122.31C261.413 127.656 262.633 130.723 266.416 136.04C270.59 141.906 275.669 145.707 280.754 146.771L282.614 147.16L282.908 157.547C283.378 174.136 283.655 173.93 261.752 173.254C245.583 172.755 243.53 172.337 240.832 168.994C238.304 165.861 239.317 163.732 248.643 152.586C258.497 140.808 260.242 135.49 259.983 118.038C259.863 110.002 260.058 105.726 260.599 104.486L261.389 102.673L268.823 102.689L276.258 102.703L272.015 104.988ZM289.121 104.713C295.445 106.068 299.73 112.221 298.61 118.334C297.876 122.339 295.542 126.929 290.246 134.782C287.503 138.851 285.059 142.807 284.815 143.575C284.433 144.778 284.044 144.909 281.994 144.525C278.05 143.785 275.03 141.855 270.979 137.481C264.319 130.292 261.729 121.785 264.315 115.598C266.326 110.789 273.155 106.043 280 104.696C284.062 103.898 285.326 103.9 289.121 104.713Z" fill="#000"/></symbol><symbol viewBox="0 0 38 38" fill="none" id="svg-hat"><path fill-rule="evenodd" clip-rule="evenodd" d="M3.26762 12.8507L16.6151 5.56738C17.5651 5.06071 18.7051 5.06071 19.6551 5.56738L34.7285 13.7849C35.2351 14.0699 35.5518 14.5924 35.5518 15.1782V25.3274C35.5518 26.1982 34.8393 26.9107 33.9685 26.9107C33.0976 26.9107 32.3851 26.1982 32.3851 25.3274V15.9699L19.6551 22.9207C18.7051 23.4432 17.5651 23.4432 16.6151 22.9207L3.26762 15.6374C2.17512 15.0357 2.17512 13.4524 3.26762 12.8507ZM7.05178 25.3115V20.8624L16.6151 26.0874C17.5651 26.6099 18.7051 26.6099 19.6551 26.0874L29.2184 20.8624V25.3115C29.2184 26.4674 28.5851 27.544 27.5718 28.0982L19.6551 32.4207C18.7051 32.9432 17.5651 32.9432 16.6151 32.4207L8.69845 28.0982C7.68512 27.544 7.05178 26.4674 7.05178 25.3115Z" fill="#fff"/></symbol><symbol viewBox="0 0 24 24" id="svg-insta"><path d="M3 8.4022C3.05965 7.98097 3.10509 7.55733 3.18091 7.13915C3.61066 4.77056 5.28753 3.15902 7.68518 3.07643C10.572 2.97724 13.4676 2.97199 16.354 3.07599C18.9636 3.16994 20.8535 5.10222 20.9349 7.71267C21.0217 10.4846 21.0217 13.2633 20.9349 16.0352C20.8535 18.6456 18.9642 20.5777 16.3542 20.6719C13.4678 20.7761 10.5716 20.7787 7.6854 20.6703C5.07538 20.5722 3.27114 18.6356 3.09657 16.0212C3.08149 15.7951 3.03299 15.5709 3 15.3459C3 13.0312 3 10.7166 3 8.4022ZM12.0024 19.1248C13.3234 19.1248 14.6457 19.1643 15.9649 19.1156C18.0333 19.0389 19.3055 17.8045 19.3538 15.738C19.4136 13.1632 19.4136 10.5849 19.3538 8.00981C19.3055 5.94382 18.0324 4.68054 15.9649 4.63663C13.3406 4.58113 10.7136 4.58157 8.08938 4.63663C6.03759 4.67967 4.76164 5.91738 4.70593 7.96065C4.63514 10.568 4.63514 13.18 4.70593 15.7874C4.76164 17.8305 6.03759 19.0396 8.08959 19.1156C9.3922 19.1641 10.6981 19.1248 12.0024 19.1248Z"/><path d="M12.0001 7.28857C9.46696 7.28857 7.41321 9.34211 7.41321 11.8752 7.41321 14.4085 9.46696 16.4621 12.0001 16.4621 14.5334 16.4621 16.5869 14.4085 16.5869 11.8752 16.5869 9.34211 14.5334 7.28857 12.0001 7.28857zM12.0001 14.8829C10.3389 14.8829 8.99241 13.5364 8.99241 11.8752 8.99241 10.2141 10.3389 8.86756 12.0001 8.86756 13.6612 8.86756 15.0077 10.2141 15.0077 11.8752 15.0077 13.5364 13.6612 14.8829 12.0001 14.8829zM17.9459 7.07961C17.9459 7.68219 17.4573 8.17072 16.8548 8.17072 16.2522 8.17072 15.7634 7.68219 15.7634 7.07961 15.7634 6.47681 16.2522 5.98828 16.8548 5.98828 17.4573 5.98828 17.9459 6.47681 17.9459 7.07961z"/></symbol><symbol viewBox="0 0 16 16" id="svg-marker"><path fill-rule="evenodd" clip-rule="evenodd" d="M11.6263 3.04048C9.62354 1.03777 6.37651 1.03777 4.3738 3.04048C2.37109 5.04319 2.37109 8.29023 4.3738 10.2929L8.00002 13.9192L11.6263 10.2929C13.629 8.29023 13.629 5.04319 11.6263 3.04048ZM8.00002 15.3334L3.66669 11C1.27346 8.60681 1.27346 4.72661 3.66669 2.33338C6.05992 -0.0598562 9.94012 -0.0598562 12.3334 2.33338C14.7266 4.72661 14.7266 8.60681 12.3334 11L8.00002 15.3334ZM11.6666 6.66667C11.6666 8.69171 10.025 10.3333 7.99998 10.3333C5.97494 10.3333 4.33331 8.69171 4.33331 6.66667C4.33331 4.64162 5.97494 3 7.99998 3C10.025 3 11.6666 4.64162 11.6666 6.66667ZM10.6666 6.66667C10.6666 8.13943 9.47274 9.33333 7.99998 9.33333C6.52722 9.33333 5.33331 8.13943 5.33331 6.66667C5.33331 5.19391 6.52722 4 7.99998 4C9.47274 4 10.6666 5.19391 10.6666 6.66667Z"/></symbol><symbol viewBox="0 0 17 16" fill="none" id="svg-one-click"><path d="M4.5 3L3 1.5M7.5 2.5V1M10 3.5L11.5 2M4 5.5H2M5 8.5L3.5 10M6.5 5L8.5 15L10.5 12L13.5 15L15.5 13L12.5 10L15.5 8L6.5 5Z" stroke="#fff" stroke-width="2" stroke-linecap="round" stroke-linejoin="round"/></symbol><symbol viewBox="0 0 16 16" id="svg-review"><path fill-rule="evenodd" clip-rule="evenodd" d="M2.66668 1.33337H13.3333C14.0667 1.33337 14.6667 1.93337 14.6667 2.66671V10.6667C14.6667 11.4 14.0667 12 13.3333 12H4.00001L1.33334 14.6667L1.34001 2.66671C1.34001 1.93337 1.93334 1.33337 2.66668 1.33337ZM11.3333 6.00004H4.66668C4.30001 6.00004 4.00001 6.30004 4.00001 6.66671C4.00001 7.03337 4.30001 7.33337 4.66668 7.33337H11.3333C11.7 7.33337 12 7.03337 12 6.66671C12 6.30004 11.7 6.00004 11.3333 6.00004ZM8.66668 9.33337H4.66668C4.30001 9.33337 4.00001 9.03337 4.00001 8.66671C4.00001 8.30004 4.30001 8.00004 4.66668 8.00004H8.66668C9.03334 8.00004 9.33334 8.30004 9.33334 8.66671C9.33334 9.03337 9.03334 9.33337 8.66668 9.33337ZM4.66668 5.33337H11.3333C11.7 5.33337 12 5.03337 12 4.66671C12 4.30004 11.7 4.00004 11.3333 4.00004H4.66668C4.30001 4.00004 4.00001 4.30004 4.00001 4.66671C4.00001 5.03337 4.30001 5.33337 4.66668 5.33337Z"/></symbol><symbol viewBox="0 0 28 28" id="svg-search"><path fill-rule="evenodd" clip-rule="evenodd" d="M12.6875 22.625C18.1758 22.625 22.625 18.1758 22.625 12.6875C22.625 7.19917 18.1758 2.75 12.6875 2.75C7.19917 2.75 2.75 7.19917 2.75 12.6875C2.75 18.1758 7.19917 22.625 12.6875 22.625ZM12.6875 23.625C18.7281 23.625 23.625 18.7281 23.625 12.6875C23.625 6.64689 18.7281 1.75 12.6875 1.75C6.64689 1.75 1.75 6.64689 1.75 12.6875C1.75 18.7281 6.64689 23.625 12.6875 23.625Z"/><path fill-rule="evenodd" clip-rule="evenodd" d="M25.8964 26.6036L19.7714 20.4786L20.4785 19.7715L26.6035 25.8965L25.8964 26.6036Z"/></symbol><symbol viewBox="0 0 16 16" id="svg-star"><path d="M8 1L10.4721 5.93769L16 6.72949L12 10.5729L12.9443 16L8 13.4377L3.05573 16L4 10.5729L0 6.72949L5.52786 5.93769L8 1Z"/></symbol><symbol viewBox="0 0 16 16" id="svg-telegram"><path d="M2.38736 7.644L5.06861 8.6307L6.10642 11.9215C6.17283 12.1323 6.43422 12.2102 6.60772 12.0703L8.10229 10.869C8.25896 10.7431 8.4821 10.7368 8.64583 10.854L11.3415 12.7837C11.5271 12.9167 11.7901 12.8165 11.8366 12.5953L13.8113 3.22966C13.8621 2.98811 13.6214 2.7866 13.3882 2.87556L2.38421 7.06104C2.11266 7.1643 2.11503 7.54338 2.38736 7.644ZM5.93917 8.10546L11.1793 4.92327C11.2735 4.86625 11.3704 4.9918 11.2895 5.06577L6.96488 9.0294C6.81287 9.16891 6.71481 9.35562 6.68704 9.55828L6.53972 10.6347C6.52021 10.7784 6.31545 10.7927 6.27523 10.6536L5.70865 8.69071C5.64376 8.46683 5.73832 8.22768 5.93917 8.10546Z"/></symbol><symbol viewBox="0 0 28 28" id="svg-user"><path fill-rule="evenodd" clip-rule="evenodd" d="M8.31534 7.41511C9.25026 5.54202 11.2058 4.5 13.9994 4.5C16.7935 4.5 18.7492 5.54193 19.684 7.41526C20.1566 8.36242 20.2796 9.32067 20.2144 10.2116V13.5404C20.2144 15.5102 19.3986 17.3842 17.9647 18.7183C18.0139 19.0764 18.1062 19.6875 18.2228 20.2788C18.2998 20.6694 18.3849 21.0374 18.4716 21.3145C18.5153 21.4543 18.5547 21.5555 18.587 21.6197C18.5891 21.6239 18.5911 21.6277 18.5929 21.6313L22.2339 23.5581L21.7661 24.4419L18.0566 22.4789C18.0565 22.4788 18.0567 22.4789 18.0566 22.4789C17.9436 22.419 17.8664 22.3345 17.8186 22.2723C17.7678 22.2063 17.7266 22.1348 17.6931 22.068C17.6263 21.9348 17.5682 21.776 17.5172 21.6131C17.4144 21.2845 17.3212 20.8752 17.2417 20.4723C17.0822 19.6637 16.9673 18.825 16.9384 18.58L16.9073 18.316L17.1088 18.1425C18.4468 16.991 19.2144 15.312 19.2144 13.5404V10.1738L19.2158 10.1548C19.273 9.40571 19.171 8.62678 18.7892 7.86175C18.0732 6.42674 16.5396 5.5 13.9994 5.5C11.4598 5.5 9.9263 6.42676 9.21007 7.8617C8.8268 8.62963 8.72623 9.40959 8.77738 10.0879C8.77906 10.1105 8.77914 10.149 8.77916 10.1621C8.77916 10.1636 8.77917 10.1647 8.77917 10.1655L8.77959 10.278L8.7805 10.6688C8.78112 10.9903 8.78177 11.4164 8.78236 11.8417L8.78447 13.5392L8.78447 13.5404C8.78447 15.3105 9.55184 16.9889 10.8903 18.1416L11.0914 18.3148L11.0606 18.5784C11.032 18.824 10.9173 19.663 10.758 20.4718C10.6787 20.8747 10.5856 21.2841 10.483 21.6126C10.4321 21.7755 10.3741 21.9343 10.3073 22.0675C10.2739 22.1343 10.2328 22.2058 10.182 22.2718C10.1343 22.3339 10.0574 22.4185 9.9442 22.4784C9.94412 22.4784 9.94429 22.4783 9.9442 22.4784L6.23386 24.4419L5.76611 23.558L9.40739 21.631C9.40921 21.6276 9.41115 21.6238 9.41321 21.6197C9.44539 21.5554 9.48477 21.4543 9.52847 21.3144C9.61504 21.0373 9.69995 20.6692 9.77687 20.2786C9.89338 19.6869 9.98544 19.0754 10.0344 18.7173C8.60051 17.3826 7.78455 15.5094 7.78447 13.5407M7.78447 13.5407L7.78236 11.8431C7.78177 11.4179 7.78112 10.9919 7.7805 10.6707L7.7796 10.281L7.77918 10.1706C7.77912 10.1589 7.77905 10.1513 7.77901 10.1469C7.7794 10.1523 7.7798 10.1577 7.78021 10.1631C7.77935 10.1516 7.77904 10.1419 7.77899 10.1419C7.77896 10.1419 7.77898 10.1434 7.77901 10.1469C7.71907 9.31839 7.8436 8.36027 8.31534 7.41511M18.5238 21.5947C18.5238 21.5947 18.5239 21.5948 18.5238 21.5947Z"/><path fill-rule="evenodd" clip-rule="evenodd" d="M14 26C20.6274 26 26 20.6274 26 14C26 7.37258 20.6274 2 14 2C7.37258 2 2 7.37258 2 14C2 20.6274 7.37258 26 14 26ZM14 27C21.1797 27 27 21.1797 27 14C27 6.8203 21.1797 1 14 1C6.8203 1 1 6.8203 1 14C1 21.1797 6.8203 27 14 27Z"/></symbol><symbol viewBox="0 0 24 24" id="svg-vk"><path d="M12.8708 18C6.2084 18 2.40834 13.4955 2.25 6H5.58729C5.69691 11.5015 8.15719 13.8318 10.106 14.3123V6H13.2485V10.7447C15.1729 10.5405 17.1945 8.37838 17.8766 6H21.0191C20.4953 8.93093 18.303 11.0931 16.7439 11.982C18.303 12.7027 20.8 14.5886 21.75 18H18.2908C17.5478 15.7177 15.6967 13.952 13.2485 13.7117V18H12.8708Z"/></symbol><symbol viewBox="0 0 16 16" id="svg-whatsapp"><path fill-rule="evenodd" clip-rule="evenodd" d="M8.10577 13.2628C11.2609 13.2628 13.8182 10.773 13.8182 7.70158C13.8182 4.63018 11.2612 2.14038 8.10577 2.14038C4.95076 2.14038 2.39322 4.63018 2.39322 7.70158C2.39322 8.75228 2.69279 9.73511 3.21293 10.5731L2.18182 13.5568L5.34446 12.5708C6.16314 13.0116 7.10414 13.2628 8.10577 13.2628ZM10.7756 9.12015C10.8789 9.17269 10.9486 9.20818 10.9787 9.26033C11.0153 9.32513 11.0153 9.63622 10.8927 9.99952C10.7692 10.3622 10.1664 10.7122 9.89598 10.7381C9.84962 10.7426 9.81119 10.7524 9.77181 10.7624C9.58125 10.8109 9.36821 10.8652 8.12441 10.3497C6.73753 9.77455 5.82339 8.34706 5.63447 8.05204C5.61896 8.02783 5.60834 8.01124 5.60275 8.00338L5.6025 8.00304C5.52758 7.89821 5 7.1601 5 6.39614C5 5.68068 5.33378 5.30545 5.48749 5.13266C5.49805 5.12078 5.50777 5.10986 5.51646 5.09985C5.65182 4.94438 5.81184 4.90547 5.91025 4.90547C5.96112 4.90547 6.01201 4.90895 6.0612 4.91231C6.10718 4.91545 6.15167 4.91849 6.19322 4.91849C6.20354 4.91849 6.21439 4.91775 6.22569 4.91698C6.30889 4.91129 6.41702 4.90391 6.52527 5.17766C6.56467 5.27742 6.62181 5.42377 6.68247 5.57916C6.81107 5.90857 6.95552 6.27858 6.98053 6.33135C7.0176 6.40931 7.04227 6.49999 6.9928 6.60368C6.98577 6.6186 6.97924 6.63271 6.973 6.6462C6.93579 6.72664 6.90869 6.78522 6.84531 6.863C6.82088 6.89305 6.79562 6.92541 6.77035 6.9578C6.71935 7.02315 6.66829 7.08858 6.62382 7.13519C6.55007 7.21256 6.47306 7.29659 6.55907 7.45207C6.64522 7.60783 6.94155 8.11634 7.38031 8.52823C7.85231 8.9713 8.26243 9.15862 8.47005 9.25345C8.51048 9.27191 8.54323 9.28687 8.56727 9.29953C8.71502 9.37734 8.80103 9.36432 8.88718 9.26033C8.97346 9.15664 9.25643 8.80679 9.35471 8.65117C9.45299 8.49569 9.55167 8.52173 9.68702 8.5735C9.82197 8.62513 10.5479 9.00131 10.6957 9.07897C10.7242 9.09399 10.7509 9.10755 10.7756 9.12015Z"/></symbol><symbol viewBox="0 0 24 24" id="svg-youtube"><path d="M20.7169 10.4655C20.7101 10.0973 20.6806 9.63187 20.629 9.06951C20.5772 8.50683 20.503 8.00397 20.4065 7.5609C20.2961 7.06323 20.0563 6.64387 19.6872 6.30296C19.3182 5.96198 18.8887 5.76431 18.3987 5.70969C16.8669 5.53936 14.5522 5.4541 11.4545 5.4541C8.35679 5.4541 6.04206 5.53936 4.5104 5.70969C4.02047 5.76428 3.59263 5.96198 3.22707 6.30296C2.86137 6.64376 2.62333 7.06312 2.51291 7.5609C2.40953 8.00411 2.33182 8.50694 2.28009 9.06951C2.22844 9.63187 2.19908 10.0972 2.19223 10.4655C2.18523 10.8336 2.18182 11.345 2.18182 11.9996C2.18182 12.6541 2.18523 13.1655 2.19226 13.5336C2.19911 13.902 2.22847 14.3672 2.28013 14.9296C2.33185 15.4922 2.40605 15.9951 2.50266 16.4382C2.61307 16.936 2.85278 17.3553 3.22189 17.6961C3.59108 18.037 4.02065 18.2347 4.51044 18.2893C6.0421 18.4598 8.35668 18.545 11.4545 18.545C14.5525 18.545 16.8669 18.4598 18.3987 18.2893C18.8887 18.2347 19.3164 18.037 19.6821 17.6961C20.0478 17.3553 20.2857 16.9358 20.3961 16.4382C20.4995 15.9951 20.5772 15.4922 20.629 14.9296C20.6806 14.3673 20.7099 13.9018 20.7169 13.5336C20.7238 13.1655 20.7273 12.6541 20.7273 11.9996C20.7273 11.345 20.7238 10.8336 20.7169 10.4655ZM15.1181 12.5518L9.81951 15.8245C9.72287 15.8926 9.60546 15.9267 9.46754 15.9267C9.36412 15.9267 9.25719 15.8993 9.14682 15.8448C8.91918 15.7222 8.8054 15.5312 8.8054 15.2722V8.72695C8.8054 8.468 8.91922 8.277 9.14682 8.15431C9.38145 8.03141 9.60561 8.03829 9.81951 8.17477L15.1182 11.4474C15.3251 11.5631 15.4285 11.7473 15.4285 11.9996C15.4285 12.2518 15.325 12.436 15.1181 12.5518Z"/></symbol></svg>