<svg style="display: none;" aria-hidden="true" xmlns="http://www.w3.org/2000/svg" xmlns:xlink="http://www.w3.org/1999/xlink"><symbol viewBox="0 0 8 10" id="svg-arrow-down"><path d="M3.29917 7.26721L3.29917 -2.0548e-07L4.70093 -1.44207e-07L4.70093 7.2671L7.00881 4.91658L8 5.92609L4 10L2.17799e-07 5.92609L0.991195 4.91658L3.29917 7.26721Z"/></symbol><symbol viewBox="0 0 24 24" id="svg-arrow-left"><path d="M9.27558 14.4742L7.94355 13.079L20 13.079L20 10.921L7.94355 10.921L9.27558 9.52576L7.81889 8L4 12L7.81889 16L9.27558 14.4742Z"/></symbol><symbol viewBox="0 0 24 24" id="svg-arrow-right"><path d="M14.7244 9.52576L16.0565 10.921H4V13.079H16.0565L14.7244 14.4742L16.1811 16L20 12L16.1811 8L14.7244 9.52576Z"/></symbol><symbol viewBox="0 0 10 4" fill="none" id="svg-arrow-right-2"><path fill-rule="evenodd" clip-rule="evenodd" d="M7.58579 0.232281L9.17678 1.82327C9.27441 1.9209 9.27441 2.07919 9.17678 2.17682L7.58579 3.76781C7.48816 3.86545 7.32986 3.86545 7.23223 3.76781C7.1346 3.67018 7.1346 3.51189 7.23223 3.41426L8.39645 2.25005H1C0.861929 2.25005 0.75 2.13812 0.75 2.00005C0.75 1.86198 0.861929 1.75005 1 1.75005H8.39645L7.23223 0.585834C7.1346 0.488203 7.1346 0.329912 7.23223 0.232281C7.32986 0.13465 7.48816 0.13465 7.58579 0.232281Z" fill="#676767"/></symbol><symbol viewBox="0 0 38 38" fill="none" id="svg-calendar"><path fill-rule="evenodd" clip-rule="evenodd" d="M30.0833 6.33329H28.5V4.74996C28.5 3.87913 27.7875 3.16663 26.9167 3.16663C26.0458 3.16663 25.3333 3.87913 25.3333 4.74996V6.33329H12.6667V4.74996C12.6667 3.87913 11.9542 3.16663 11.0833 3.16663C10.2125 3.16663 9.5 3.87913 9.5 4.74996V6.33329H7.91667C6.15917 6.33329 4.76583 7.75829 4.76583 9.49996L4.75 31.6666C4.75 33.4083 6.15917 34.8333 7.91667 34.8333H30.0833C31.825 34.8333 33.25 33.4083 33.25 31.6666V9.49996C33.25 7.75829 31.825 6.33329 30.0833 6.33329ZM30.0833 30.0833C30.0833 30.9541 29.3708 31.6666 28.5 31.6666H9.5C8.62917 31.6666 7.91667 30.9541 7.91667 30.0833V14.25H30.0833V30.0833ZM17.4167 17.4166H12.6667C11.7958 17.4166 11.0833 18.1291 11.0833 19V23.75C11.0833 24.6208 11.7958 25.3333 12.6667 25.3333H17.4167C18.2875 25.3333 19 24.6208 19 23.75V19C19 18.1291 18.2875 17.4166 17.4167 17.4166Z" fill="#fff"/></symbol><symbol viewBox="0 0 16 16" fill="none" id="svg-camera"><path fill-rule="evenodd" clip-rule="evenodd" d="M13.332 3.33333H11.2187L10.392 2.43333C10.1454 2.16 9.78537 2 9.41203 2H6.58536C6.21203 2 5.85203 2.16 5.5987 2.43333L4.7787 3.33333H2.66536C1.93203 3.33333 1.33203 3.93333 1.33203 4.66667V12.6667C1.33203 13.4 1.93203 14 2.66536 14H13.332C14.0654 14 14.6654 13.4 14.6654 12.6667V4.66667C14.6654 3.93333 14.0654 3.33333 13.332 3.33333ZM7.9987 6.66667C6.89413 6.66667 5.9987 7.5621 5.9987 8.66667C5.9987 9.77124 6.89413 10.6667 7.9987 10.6667C9.10327 10.6667 9.9987 9.77124 9.9987 8.66667C9.9987 7.5621 9.10327 6.66667 7.9987 6.66667ZM4.66536 8.66667C4.66536 10.5067 6.1587 12 7.9987 12C9.8387 12 11.332 10.5067 11.332 8.66667C11.332 6.82667 9.8387 5.33333 7.9987 5.33333C6.1587 5.33333 4.66536 6.82667 4.66536 8.66667Z" fill="#fff"/></symbol><symbol viewBox="0 0 28 28" id="svg-cart"><path fill-rule="evenodd" clip-rule="evenodd" d="M2 8L4 26H24L26 8H2ZM3.11726 9L4.89504 25H23.105L24.8827 9H3.11726Z"/><path fill-rule="evenodd" clip-rule="evenodd" d="M21.7714 8.47859L15.6464 2.35359 16.3535 1.64648 22.4785 7.77148 21.7714 8.47859zM6.35358 8.47859L12.4786 2.35359 11.7715 1.64648 5.64647 7.77148 6.35358 8.47859z"/></symbol><symbol viewBox="0 0 16 16" id="svg-clock"><path fill-rule="evenodd" clip-rule="evenodd" d="M8 14C11.3137 14 14 11.3137 14 8C14 4.68629 11.3137 2 8 2C4.68629 2 2 4.68629 2 8C2 11.3137 4.68629 14 8 14ZM8 15C11.866 15 15 11.866 15 8C15 4.13401 11.866 1 8 1C4.13401 1 1 4.13401 1 8C1 11.866 4.13401 15 8 15Z"/><path fill-rule="evenodd" clip-rule="evenodd" d="M8 3.5C8.27614 3.5 8.5 3.72386 8.5 4V7.5H12C12.2761 7.5 12.5 7.72386 12.5 8C12.5 8.27614 12.2761 8.5 12 8.5H8C7.72386 8.5 7.5 8.27614 7.5 8V4C7.5 3.72386 7.72386 3.5 8 3.5Z"/></symbol><symbol viewBox="0 0 30 30" id="svg-close"><path d="M25.7133 4.5L26.7739 5.56066L5.56073 26.7739L4.50007 25.7132L25.7133 4.5Z"/><path d="M4.5 5.56066L5.56066 4.5L26.7739 25.7132L25.7132 26.7739L4.5 5.56066Z"/></symbol><symbol viewBox="0 0 30 30" fill="none" id="svg-del-1"><path d="M24.1415 9.34955C24.4177 9.1692 24.5563 9.07862 24.9286 9.07862C25.3009 9.07862 25.4396 9.16914 25.7159 9.34955C26.0759 9.58457 26.5688 9.90648 27.4643 9.90648C28.3597 9.90648 28.8527 9.58457 29.2127 9.34955C29.4889 9.16914 29.6276 9.07862 30 9.07862V7.32081C29.1046 7.32081 28.6116 7.64272 28.2516 7.87774C27.9754 8.05815 27.8367 8.14868 27.4643 8.14868C27.0919 8.14868 26.9532 8.05815 26.6769 7.87774C26.3169 7.64272 25.824 7.32081 24.9286 7.32081C24.0332 7.32081 23.5402 7.64272 23.1803 7.87774C22.9041 8.05809 22.7655 8.14868 22.3932 8.14868C22.0209 8.14868 21.8823 8.05815 21.606 7.87774C21.3832 7.73225 21.1093 7.55372 20.7208 7.43858C18.5649 4.88303 15.3408 3.25659 11.7434 3.25659C5.26809 3.25665 0 8.52467 0 15C0 21.4754 5.26809 26.7434 11.7434 26.7434C15.461 26.7434 18.7802 25.0065 20.9334 22.3022C21.267 22.4942 21.7142 22.6792 22.3932 22.6792C23.2885 22.6792 23.7815 22.3573 24.1414 22.1223C24.4176 21.9419 24.5562 21.8513 24.9285 21.8513C25.3009 21.8513 25.4395 21.9419 25.7158 22.1223C26.0758 22.3573 26.5688 22.6792 27.4642 22.6792C28.3597 22.6792 28.8526 22.3573 29.2126 22.1223C29.4889 21.9419 29.6275 21.8513 29.9999 21.8513V20.0935C29.1045 20.0935 28.6116 20.4155 28.2516 20.6505C27.9753 20.8309 27.8367 20.9214 27.4642 20.9214C27.0918 20.9214 26.9531 20.8309 26.6769 20.6505C26.3169 20.4155 25.8239 20.0935 24.9285 20.0935C24.0331 20.0935 23.5402 20.4155 23.1802 20.6505C22.904 20.8308 22.7655 20.9214 22.3932 20.9214C22.1885 20.9214 22.0545 20.8939 21.9294 20.8393C22.3743 20.0664 22.7329 19.2378 22.9939 18.3676C23.5268 18.266 23.8715 18.041 24.1413 17.8647C24.4176 17.6844 24.5561 17.5938 24.9284 17.5938C25.3008 17.5938 25.4395 17.6843 25.7158 17.8647C26.0758 18.0997 26.5687 18.4216 27.4642 18.4216C28.3596 18.4216 28.8526 18.0997 29.2126 17.8647C29.4888 17.6843 29.6275 17.5938 29.9999 17.5938V15.836C29.1045 15.836 28.6115 16.1579 28.2515 16.3929C27.9752 16.5733 27.8366 16.6638 27.4642 16.6638C27.0918 16.6638 26.9531 16.5733 26.6768 16.3929C26.3168 16.1579 25.8239 15.836 24.9284 15.836C24.2167 15.836 23.7597 16.0394 23.4212 16.2409C23.4642 15.833 23.4867 15.4191 23.4867 15C23.4867 14.6574 23.4711 14.3185 23.4422 13.9832C23.7349 13.8719 23.9561 13.7281 24.1414 13.6071C24.4176 13.4267 24.5562 13.3361 24.9285 13.3361C25.3009 13.3361 25.4395 13.4267 25.7158 13.6071C26.0758 13.8421 26.5688 14.164 27.4642 14.164C28.3597 14.164 28.8526 13.8421 29.2126 13.6071C29.4889 13.4267 29.6275 13.3361 29.9999 13.3361V11.5783C29.1045 11.5783 28.6116 11.9002 28.2516 12.1353C27.9753 12.3157 27.8367 12.4062 27.4642 12.4062C27.0918 12.4062 26.9531 12.3157 26.6769 12.1353C26.3169 11.9002 25.8239 11.5783 24.9285 11.5783C24.0331 11.5783 23.5402 11.9002 23.1802 12.1353C23.1662 12.1445 23.1527 12.1532 23.1393 12.162C22.9433 11.3755 22.6687 10.62 22.3228 9.90484C22.3464 9.90531 22.3691 9.90642 22.3932 9.90642C23.2886 9.90654 23.7815 9.58457 24.1415 9.34955ZM19.0707 9.34961C19.3266 9.18244 19.4648 9.09262 19.7798 9.08031C20.4084 9.93144 20.9049 10.8855 21.2396 11.9121C20.9148 11.7365 20.4853 11.5784 19.8578 11.5784C19.8563 11.5784 19.855 11.5785 19.8536 11.5785C19.5498 10.861 19.1532 10.1921 18.6794 9.58633C18.8289 9.50734 18.9566 9.4242 19.0707 9.34961ZM11.7434 24.9856C6.23734 24.9856 1.75781 20.5062 1.75781 15C1.75781 9.49387 6.23734 5.01445 11.7434 5.01445C14.3425 5.01445 16.7126 6.013 18.4911 7.64618C18.3457 7.72364 18.2212 7.80491 18.1096 7.8778C17.8333 8.05815 17.6948 8.14874 17.3225 8.14874C17.3015 8.14874 17.2815 8.14833 17.2619 8.1478C15.7512 6.92876 13.8312 6.19763 11.7434 6.19763C6.88972 6.19763 2.94093 10.1464 2.94093 15.0001C2.94093 19.8537 6.88972 23.8025 11.7434 23.8025C13.4189 23.8025 14.9864 23.3318 16.321 22.5159C16.5881 22.6115 16.9128 22.6792 17.3225 22.6792C17.7203 22.6792 18.0383 22.6155 18.3009 22.5243C16.5453 24.0563 14.2509 24.9856 11.7434 24.9856ZM18.1095 16.393C17.8333 16.5734 17.6947 16.6639 17.3224 16.6639C16.9501 16.6639 16.8115 16.5734 16.5353 16.393C16.1754 16.1579 15.6825 15.8361 14.7871 15.8361V17.5939C15.1594 17.5939 15.298 17.6844 15.5742 17.8648C15.9341 18.0998 16.427 18.4218 17.3224 18.4218C17.5496 18.4218 17.7506 18.4009 17.9303 18.3661C17.4932 19.1664 16.9054 19.8728 16.2053 20.4473C15.8763 20.2639 15.4385 20.0935 14.7872 20.0935V21.3525C13.8654 21.796 12.8329 22.0447 11.7434 22.0447C7.85897 22.0447 4.69873 18.8845 4.69873 15.0001C4.69873 11.1157 7.85897 7.95544 11.7434 7.95544C12.8329 7.95544 13.8654 8.20417 14.7872 8.64766V9.07873C15.1595 9.07873 15.2981 9.16926 15.5743 9.34967C15.8023 9.49855 16.084 9.68207 16.4873 9.79674C17.1912 10.4391 17.7649 11.2219 18.1633 12.1005C18.1451 12.1122 18.1271 12.124 18.1096 12.1354C17.8333 12.3158 17.6948 12.4064 17.3225 12.4064C16.9502 12.4064 16.8116 12.3158 16.5354 12.1354C16.1754 11.9004 15.6826 11.5785 14.7872 11.5785V13.3363C15.1594 13.3363 15.2981 13.4268 15.5742 13.6072C15.9342 13.8423 16.427 14.1642 17.3225 14.1642C17.9416 14.1642 18.3681 14.0103 18.6915 13.8376C18.7546 14.2159 18.788 14.6042 18.788 15.0001C18.788 15.3594 18.7608 15.7124 18.7086 16.0573C18.4648 16.1616 18.2731 16.2861 18.1095 16.393ZM20.311 20.1237C20.1723 20.1046 20.0219 20.0935 19.8578 20.0935C19.407 20.0935 19.0584 20.1752 18.7772 20.2862C19.3764 19.4909 19.8442 18.5914 20.1477 17.62C20.3291 17.6586 20.4543 17.7403 20.6449 17.8647C20.8005 17.9663 20.9811 18.084 21.208 18.185C20.9779 18.8671 20.6757 19.5162 20.311 20.1237ZM21.6293 16.4081C21.6215 16.4031 21.614 16.3982 21.6061 16.393C21.3435 16.2215 21.0092 16.0043 20.5003 15.8991C20.5305 15.6035 20.5459 15.3036 20.5459 15.0001C20.5459 14.4757 20.4996 13.9619 20.4113 13.4625C20.4832 13.5017 20.5572 13.5499 20.6451 13.6072C20.8966 13.7715 21.2136 13.9778 21.687 14.0874C21.7142 14.3881 21.729 14.6923 21.729 15.0001C21.729 15.478 21.6945 15.9479 21.6293 16.4081Z" fill="#000"/></symbol><symbol viewBox="0 0 30 30" fill="none" id="svg-del-2"><path fill-rule="evenodd" clip-rule="evenodd" d="M15 26.625C21.4203 26.625 26.625 21.4203 26.625 15C26.625 14.2609 26.556 13.5379 26.4242 12.8371C21.5907 14.0799 17.5954 16.377 14.5695 18.7725C11.7421 21.0109 9.80013 23.3035 8.81909 24.8475C10.6095 25.9736 12.7287 26.625 15 26.625ZM6.69869 23.1381C6.72517 22.7565 6.76081 22.3931 6.80667 22.0418C6.62118 22.3311 6.47362 22.5756 6.35572 22.773C6.46744 22.8972 6.58179 23.0189 6.69869 23.1381ZM9.7107 18.3742L9.78677 18.4068C9.26162 19.6321 8.92901 20.6549 8.73583 21.8126C9.9044 20.4087 11.4737 18.8319 13.4057 17.3025C15.5955 15.5689 18.2726 13.8788 21.3941 12.5625H17.6449C14.2203 14.3107 11.7373 16.3161 9.97224 18.1053C9.88328 18.1954 9.7961 18.2851 9.7107 18.3742ZM22.024 10.6875C23.0631 10.3196 24.1657 9.97883 25.3351 9.67244C25.5053 10.0019 25.6602 10.3406 25.7988 10.6875H22.024ZM22.068 7.71041C22.7396 7.6948 23.3936 7.6796 24.022 7.66835C21.8904 5.04857 18.6407 3.375 15 3.375C11.7659 3.375 8.84021 4.69568 6.73289 6.82715C9.52872 7.51497 12.8214 7.7375 16.1082 7.77663C17.863 7.79752 19.6003 7.76621 21.244 7.72934C21.52 7.72314 21.7937 7.71678 22.0645 7.71049L22.0666 7.71044L22.068 7.71041H22.068ZM1.5 15C1.5 11.6998 2.68418 8.67621 4.65082 6.33092L4.63365 6.25367L4.70034 6.2722C7.17665 3.35281 10.872 1.5 15 1.5C22.4558 1.5 28.5 7.54416 28.5 15C28.5 22.4558 22.4558 28.5 15 28.5C7.54416 28.5 1.5 22.4558 1.5 15ZM6.80556 12.7479C5.77719 11.3377 5.37671 9.84019 5.16627 8.79731C4.03168 10.5923 3.375 12.7195 3.375 15C3.375 16.9193 3.84015 18.7301 4.66386 20.3255C4.79654 19.6604 4.95914 18.903 5.14382 18.1181C5.57956 16.2662 6.16532 14.1386 6.80556 12.7479ZM7.09706 8.83304C7.32331 9.81693 7.70952 10.96 8.62445 12.0274L9.05441 12.529L8.72663 13.1026C8.12985 14.147 7.48001 16.3756 6.96898 18.5475L6.93873 18.6767C7.422 18.0858 7.98515 17.4497 8.63743 16.7885C10.9861 14.4076 14.4744 11.7181 19.5194 9.63874C18.4023 9.65666 17.2493 9.66535 16.0859 9.6515C13.057 9.61544 9.91133 9.42692 7.09706 8.83304Z" fill="#000"/></symbol><symbol viewBox="0 0 30 30" fill="none" id="svg-del-3"><path d="M22.9102 9.66797V6.15234C22.9102 2.75986 20.1503 0 16.7578 0H13.2422C9.8497 0 7.08984 2.75986 7.08984 6.15234V9.66797C7.08984 14.0295 10.6384 17.5781 15 17.5781C19.3616 17.5781 22.9102 14.0295 22.9102 9.66797ZM13.2422 1.75781H16.7578C18.88 1.75781 20.6557 3.27003 21.064 5.27344H8.936C9.34433 3.27003 11.12 1.75781 13.2422 1.75781ZM21.0013 7.03125C20.6383 8.05412 19.6614 8.78906 18.5156 8.78906H11.4844C10.3386 8.78906 9.36172 8.05412 8.99872 7.03125H21.0013ZM15 15.8203C11.6075 15.8203 8.84766 13.0605 8.84766 9.66797V9.66568C9.5826 10.2187 10.4958 10.5469 11.4844 10.5469H18.5156C19.5042 10.5469 20.4174 10.2187 21.1523 9.66568V9.66797C21.1523 13.0605 18.3925 15.8203 15 15.8203Z" fill="#000"/><path d="M14.9999 12.3047C14.2956 12.3047 13.6335 12.0305 13.1354 11.5325L11.8926 12.7753C12.7225 13.6055 13.8262 14.0625 14.9999 14.0625 16.1736 14.0625 17.2773 13.6055 18.1072 12.7753L16.8643 11.5325C16.3663 12.0305 15.7041 12.3047 14.9999 12.3047zM22.0312 17.5781H7.96875C5.54558 17.5781 3.57422 19.5495 3.57422 21.9727V30H26.4258V21.9727C26.4258 19.5495 24.4544 17.5781 22.0312 17.5781zM14.1211 22.8516H15.8789V24.6094H14.1211V22.8516zM17.6367 26.3672V22.8516H21.1523V28.2422H8.84766V22.8516H12.3633V26.3672H17.6367zM24.668 28.2422H22.9102V21.0938H7.08984V28.2422H5.33203V21.9727C5.33203 20.5188 6.51489 19.3359 7.96875 19.3359H22.0312C23.4851 19.3359 24.668 20.5188 24.668 21.9727V28.2422z" fill="#000"/></symbol><symbol viewBox="0 0 30 30" fill="none" id="svg-del-4"><path fill-rule="evenodd" clip-rule="evenodd" d="M18.75 13.875H24C25.4497 13.875 26.625 15.0503 26.625 16.5V25.5C26.625 26.9497 25.4497 28.125 24 28.125H6C4.55025 28.125 3.375 26.9497 3.375 25.5V16.5C3.375 15.0503 4.55025 13.875 6 13.875H11.25V19.5C11.25 20.3284 11.9216 21 12.75 21H17.25C18.0784 21 18.75 20.3284 18.75 19.5V13.875ZM16.875 13.875H13.125V19.125H16.875V13.875ZM17.25 12H24C26.4853 12 28.5 14.0147 28.5 16.5V25.5C28.5 27.9853 26.4853 30 24 30H6C3.51472 30 1.5 27.9853 1.5 25.5V16.5C1.5 14.0147 3.51472 12 6 12H12.75H17.25Z" fill="#000"/><g clip-path="url(#amclip0_3938_15239)" fill-rule="evenodd" clip-rule="evenodd" fill="#000"><path d="M1.66992 9.5455H3.90855V5.0455H6.55419V9.5455H8.79282V3.20459C8.58931 3.20459 2.48397 3.20459 1.66992 3.20459V9.5455zM9.80996 3.20457C9.80996 3.40912 10.0135 4.63639 10.0135 4.84094 10.217 4.84094 10.8275 4.84094 11.031 4.84094 11.438 4.84094 11.8451 4.84094 12.2521 4.84094 12.6591 4.84094 14.2872 4.84094 14.4907 4.84094 14.4907 5.04548 14.4907 5.25003 14.4907 5.45457H11.6415V7.09094C11.8451 7.29548 13.8802 7.09094 14.4907 7.09094V7.70457C13.6766 8.11366 10.8275 7.70457 10.0135 7.90912L9.60645 9.54548C11.6415 9.75003 13.8802 9.75003 15.7117 9.54548 16.1188 9.54548 16.1188 9.54548 16.1188 9.54548 16.5258 9.13639 16.7293 6.88639 16.7293 6.27275 16.7293 5.65912 16.5258 3.61366 16.1188 3.20457 13.2696 2.79548 12.4556 3.00003 9.80996 3.20457zM17.5439 9.5455H19.7826V7.09095H20.5966L22.2247 9.13641C22.4282 9.34095 22.4282 9.5455 22.6317 9.5455H25.2773C25.0738 9.34095 22.6317 6.27277 22.6317 6.06823 23.0387 5.65914 25.0738 3.40914 25.0738 3.20459 24.4633 3.20459 23.6493 3.20459 22.8352 3.20459 22.4282 3.20459 22.4282 3.20459 22.0212 3.81823 21.8177 4.22732 21.4106 4.43186 21.2071 4.84095 21.0036 5.0455 20.8001 5.25004 20.8001 5.45459 20.5966 5.45459 20.1896 5.45459 19.7826 5.45459V3.20459H17.5439V9.5455zM26.0918 3.61365V5.04547C26.9059 5.04547 27.5164 5.04547 28.3305 5.04547V3.4091C28.3305 3.4091 28.3305 3.4091 28.3305 3.20456 27.9234 3.00001 27.3129 3.20456 26.9059 3.20456 25.8883 3.20456 26.0918 3.00001 26.0918 3.61365zM26.2952 9.34096C27.1092 9.5455 27.5162 9.34096 28.3303 9.34096 28.3303 9.13641 28.3303 8.11368 28.3303 7.70459 27.9233 7.70459 26.4987 7.70459 26.2952 7.70459 26.0917 8.11368 26.0917 8.93187 26.2952 9.34096z"/><path d="M26.2953 9.34095C26.0918 8.93186 26.0918 8.11368 26.2953 7.70459C26.4988 7.70459 27.9234 7.70459 28.3304 7.70459C28.3304 8.11368 28.3304 9.13641 28.3304 9.34095C27.5164 9.34095 27.1094 9.5455 26.2953 9.34095ZM28.3304 9.5455C28.3304 9.34095 28.3304 7.90914 28.3304 7.70459H26.0918V9.13641C26.0918 9.5455 26.0918 9.5455 26.2953 9.5455C26.7023 9.5455 27.1094 9.5455 27.3129 9.5455C27.5164 9.5455 27.7199 9.5455 27.9234 9.5455C27.9234 9.5455 28.1269 9.5455 28.3304 9.5455Z"/></g><defs><clipPath id="amclip0_3938_15239"><path fill="#fff" transform="translate(1.5 3)" d="M0 0H27V6.75H0z"/></clipPath></defs></symbol><symbol viewBox="0 0 18 18" id="svg-delete"><path fill-rule="evenodd" clip-rule="evenodd" d="M1.5 9C1.5 4.8525 4.8525 1.5 9 1.5C13.1475 1.5 16.5 4.8525 16.5 9C16.5 13.1475 13.1475 16.5 9 16.5C4.8525 16.5 1.5 13.1475 1.5 9ZM11.1675 12.225C11.46 12.5175 11.9325 12.5175 12.225 12.225C12.51 11.9325 12.51 11.4525 12.225 11.1675L10.0575 9L12.225 6.8325C12.5175 6.54 12.5175 6.0675 12.225 5.775C11.9325 5.4825 11.46 5.4825 11.1675 5.775L9 7.9425L6.8325 5.775C6.54 5.4825 6.0675 5.4825 5.775 5.775C5.63456 5.91512 5.55564 6.10536 5.55564 6.30375C5.55564 6.50214 5.63456 6.69238 5.775 6.8325L7.9425 9L5.775 11.1675C5.63456 11.3076 5.55564 11.4979 5.55564 11.6962C5.55564 11.8946 5.63456 12.0849 5.775 12.225C6.0675 12.5175 6.54 12.5175 6.8325 12.225L9 10.0575L11.1675 12.225Z"/></symbol><symbol viewBox="0 0 135 18" fill="none" id="svg-dev"><path d="M32.2314 11.388H27.8376L26.9994 13.3977H24.7551L28.9732 4.01917H31.1363L35.3679 13.3977H33.0696L32.2314 11.388zM31.5419 9.74007L30.0412 6.14944 28.5406 9.74007H31.5419zM42.3795 13.3977L40.5543 10.7851H40.4462 38.5399V13.3977H36.3498V4.01917H40.4462C41.2844 4.01917 42.0099 4.15762 42.6228 4.43451 43.2447 4.7114 43.7224 5.1044 44.0559 5.61352 44.3894 6.12264 44.5561 6.72555 44.5561 7.42224 44.5561 8.11893 44.3849 8.72183 44.0424 9.23095 43.7089 9.73114 43.2312 10.1152 42.6093 10.3832L44.7319 13.3977H42.3795zM42.3389 7.42224C42.3389 6.89525 42.1677 6.49332 41.8252 6.21643 41.4827 5.93061 40.9825 5.78769 40.3245 5.78769H38.5399V9.05678H40.3245C40.9825 9.05678 41.4827 8.91387 41.8252 8.62805 42.1677 8.34223 42.3389 7.94029 42.3389 7.42224zM48.1197 5.78769H45.0913V4.01917H53.3382V5.78769H50.3098V13.3977H48.1197V5.78769zM61.8442 11.656V13.3977H54.5166V4.01917H61.6684V5.7609H56.6932V7.79738H61.0871V9.48551H56.6932V11.656H61.8442zM72.1987 13.3977L72.1852 7.77058 69.4002 12.4063H68.4133L65.6418 7.89116V13.3977H63.5868V4.01917H65.3984L68.9405 9.84726 72.4286 4.01917H74.2266L74.2537 13.3977H72.1987zM84.9109 13.5585C83.9284 13.5585 83.0407 13.3486 82.2475 12.9288 81.4634 12.509 80.846 11.9329 80.3953 11.2004 79.9537 10.4591 79.7329 9.62842 79.7329 8.70844 79.7329 7.78845 79.9537 6.96224 80.3953 6.22982 80.846 5.48847 81.4634 4.9079 82.2475 4.4881 83.0407 4.0683 83.9284 3.8584 84.9109 3.8584 85.8933 3.8584 86.7765 4.0683 87.5607 4.4881 88.3448 4.9079 88.9622 5.48847 89.4128 6.22982 89.8635 6.96224 90.0888 7.78845 90.0888 8.70844 90.0888 9.62842 89.8635 10.4591 89.4128 11.2004 88.9622 11.9329 88.3448 12.509 87.5607 12.9288 86.7765 13.3486 85.8933 13.5585 84.9109 13.5585zM84.9109 11.7096C85.4697 11.7096 85.9744 11.5845 86.425 11.3344 86.8757 11.0754 87.2272 10.7181 87.4796 10.2626 87.7409 9.80706 87.8716 9.28901 87.8716 8.70844 87.8716 8.12786 87.7409 7.60981 87.4796 7.15428 87.2272 6.69875 86.8757 6.34594 86.425 6.09585 85.9744 5.83682 85.4697 5.70731 84.9109 5.70731 84.352 5.70731 83.8473 5.83682 83.3967 6.09585 82.946 6.34594 82.59 6.69875 82.3286 7.15428 82.0763 7.60981 81.9501 8.12786 81.9501 8.70844 81.9501 9.28901 82.0763 9.80706 82.3286 10.2626 82.59 10.7181 82.946 11.0754 83.3967 11.3344 83.8473 11.5845 84.352 11.7096 84.9109 11.7096zM95.8312 4.01917C96.6694 4.01917 97.395 4.15762 98.0079 4.43451 98.6298 4.7114 99.1074 5.1044 99.4409 5.61352 99.7744 6.12264 99.9411 6.72555 99.9411 7.42224 99.9411 8.11 99.7744 8.7129 99.4409 9.23095 99.1074 9.74007 98.6298 10.1331 98.0079 10.41 97.395 10.6779 96.6694 10.8119 95.8312 10.8119H93.925V13.3977H91.7348V4.01917H95.8312zM95.7095 9.04338C96.3675 9.04338 96.8677 8.90494 97.2102 8.62805 97.5527 8.34223 97.724 7.94029 97.724 7.42224 97.724 6.89525 97.5527 6.49332 97.2102 6.21643 96.8677 5.93061 96.3675 5.78769 95.7095 5.78769H93.925V9.04338H95.7095zM107.262 11.388H102.868L102.03 13.3977H99.7857L104.004 4.01917H106.167L110.398 13.3977H108.1L107.262 11.388zM106.572 9.74007L105.072 6.14944 103.571 9.74007H106.572zM117.41 13.3977L115.585 10.7851H115.477 113.57V13.3977H111.38V4.01917H115.477C116.315 4.01917 117.04 4.15762 117.653 4.43451 118.275 4.7114 118.753 5.1044 119.086 5.61352 119.42 6.12264 119.587 6.72555 119.587 7.42224 119.587 8.11893 119.415 8.72183 119.073 9.23095 118.739 9.73114 118.262 10.1152 117.64 10.3832L119.762 13.3977H117.41zM117.369 7.42224C117.369 6.89525 117.198 6.49332 116.856 6.21643 116.513 5.93061 116.013 5.78769 115.355 5.78769H113.57V9.05678H115.355C116.013 9.05678 116.513 8.91387 116.856 8.62805 117.198 8.34223 117.369 7.94029 117.369 7.42224zM121.322 4.01917H123.512V13.3977H121.322V4.01917zM134.438 4.01917V13.3977H132.639L127.921 7.70359V13.3977H125.758V4.01917H127.57L132.274 9.71328V4.01917H134.438z" fill="#000"/><path fill-rule="evenodd" clip-rule="evenodd" d="M9.013 16.3238C13.1325 16.3238 16.472 13.0144 16.472 8.93192C16.472 4.84946 13.1325 1.53999 9.013 1.53999C4.89349 1.53999 1.55397 4.84946 1.55397 8.93192C1.55397 13.0144 4.89349 16.3238 9.013 16.3238ZM9.013 17.8638C13.9907 17.8638 18.026 13.8649 18.026 8.93192C18.026 3.99895 13.9907 0 9.013 0C4.03526 0 0 3.99895 0 8.93192C0 13.8649 4.03526 17.8638 9.013 17.8638Z" fill="#000"/><path fill-rule="evenodd" clip-rule="evenodd" d="M9.01291.924157L4.70644 9.47108H13.3194L9.01291.924157zM9.01291 4.37137L7.2193 7.93109H10.8065L9.01291 4.37137zM3.87076 11.8579H14.155L15.3021 14.1315 13.9122 14.8202 13.1945 13.3979H4.83116L4.11353 14.8202 2.72362 14.1315 3.87076 11.8579z" fill="#000"/></symbol><symbol viewBox="0 0 28 28" id="svg-favorite"><path fill-rule="evenodd" clip-rule="evenodd" d="M14.6868 25.1213L23.1965 18.1287C25.2021 16.1603 26.3942 14.3896 26.8669 12.3492C27.104 11.3245 27.1592 10.4813 27.1068 9.84849C27.0996 9.76217 27.0915 9.696 27.0843 9.65057C26.717 5.72901 23.6661 2.625 19.7065 2.625C17.7712 2.625 15.9766 3.35359 14.6385 4.57791C14.3906 4.80478 14.1583 5.04867 13.9437 5.3081C13.7321 5.04438 13.5036 4.79706 13.26 4.56754C11.9599 3.34305 10.2265 2.625 8.30493 2.625C4.35887 2.625 1.31494 5.70799 0.923017 9.67285C0.915483 9.71906 0.907897 9.77531 0.900978 9.84148C0.833993 10.482 0.889703 11.3308 1.14857 12.365C1.69861 14.5622 2.98481 16.5635 4.79891 18.1143L13.2466 25.1183C13.658 25.4594 14.2738 25.4607 14.6868 25.1213ZM26.1102 9.93106C26.1045 9.86253 26.0991 9.82264 26.0968 9.80875L26.0917 9.77641L26.0886 9.74381C25.764 6.27745 23.093 3.625 19.7065 3.625C17.7119 3.625 15.8977 4.51471 14.7143 5.94547L13.932 6.89127L13.1638 5.93396C12.0107 4.497 10.2798 3.625 8.30493 3.625C4.93465 3.625 2.2658 6.25434 1.91817 9.77122L1.91506 9.80264L1.90998 9.83379C1.90593 9.85863 1.90076 9.8957 1.89556 9.94548C1.84327 10.4455 1.88149 11.1748 2.11864 12.1222C2.61343 14.0987 3.77608 15.9225 5.44312 17.3494L13.8849 24.3485L13.8849 24.3485C13.901 24.3619 13.9293 24.3749 13.9682 24.375C14.0071 24.3751 14.0355 24.3621 14.0519 24.3487L14.0519 24.3487L22.5272 17.3844C24.4437 15.4972 25.4822 13.8953 25.8926 12.1237M26.1102 9.93106C26.1524 10.4406 26.1114 11.1782 25.8927 12.1235Z"/></symbol><symbol viewBox="0 0 28 28" id="svg-favorite-fill"><path d="M26.5864 9.69719L26.588 9.71349L26.5905 9.72966C26.5953 9.75931 26.6021 9.81234 26.6085 9.88977C26.6558 10.4609 26.6077 11.2513 26.3798 12.2363C25.9383 14.1421 24.8233 15.8284 22.8619 17.7565L14.3694 24.735L14.3694 24.735C14.1414 24.9223 13.7927 24.9215 13.5657 24.7334L13.5657 24.7334L5.12097 17.7318C3.38041 16.2429 2.15601 14.3304 1.63361 12.2436C1.3856 11.2528 1.33863 10.4638 1.39827 9.89348C1.40433 9.83551 1.41071 9.78884 1.4165 9.75332L1.41904 9.73774L1.42059 9.72204C1.79037 5.98116 4.64676 3.125 8.30493 3.125C10.4332 3.125 12.3069 4.06723 13.5538 5.62103L13.9378 6.09968L14.329 5.62678C15.607 4.08167 17.5623 3.125 19.7065 3.125C23.3795 3.125 26.2405 6.00323 26.5864 9.69719Z"/></symbol><symbol viewBox="0 0 16 16" id="svg-flag"><path fill-rule="evenodd" clip-rule="evenodd" d="M1.5 0.5H7.16667L9.16667 2H14.5V11H8.83333L6.83333 9.5H2.5V15H1.5V0.5ZM2.5 8.5H6.5V1.5H2.5V8.5ZM7.5 2L8.5 2.75V9.5L7.5 8.75V2ZM9.5 10H13.5V3H9.5V10Z"/></symbol><symbol viewBox="0 0 370 176" fill="none" id="svg-has-question"><path fill-rule="evenodd" clip-rule="evenodd" d="M21.4182 0.539289C12.451 2.08525 5.84363 6.90961 1.5717 15.0295C0.267499 17.5086 0.0103525 18.9755 0.000462265 23.9745C-0.0100874 29.4835 0.14552 30.2071 1.97588 33.1685C4.4801 37.2199 7.28498 38.9049 11.5279 38.9049C17.0572 38.9049 21.3628 35.3609 21.5395 30.6651C21.6087 28.8245 21.0344 27.3273 19.27 24.7455C15.8915 19.8018 15.7583 17.5804 18.7478 16.0351C24.0088 13.3162 34.1265 16.0852 36.7435 20.9603C38.3516 23.9567 38.0173 29.6937 35.918 35.1237C34.0889 39.8525 28.9262 45.3167 23.2241 48.5596C16.8647 52.1754 13.1591 55.4953 11.2826 59.2587C8.35247 65.1361 9.13248 69.463 13.8726 73.6224L16.2845 75.7391L14.8827 79.1091C14.1119 80.9628 13.1677 84.5028 12.7833 86.9759C11.9123 92.5884 12.5961 94.9285 16.1117 98.3591C18.2322 100.429 19.2852 100.938 21.972 101.197C26.1226 101.595 29.8829 99.6507 31.9005 96.0625C33.959 92.4013 39.9347 87.2382 44.9933 84.7492C48.7213 82.9153 50.1375 82.5746 54.0422 82.5746C59.4693 82.5746 62.5749 83.9565 71.368 90.2846C78.6064 95.4938 83.3965 97.4062 89.1533 97.3851C95.557 97.3621 103.731 94.3288 108.134 90.3413C112.335 86.537 120.379 80.572 122.735 79.5137C124.243 78.8362 127.062 78.1845 128.999 78.0652C133.466 77.7904 142.302 79.6909 146.541 81.8379L149.806 83.4913L150.274 89.9519C150.842 97.8042 153.308 111.439 155.613 119.477C156.548 122.739 158.902 128.67 160.844 132.657C168.373 148.116 177.917 154.522 188.309 151.09C191.078 150.175 192.886 148.886 196.513 145.241C203.318 138.4 208.462 127.735 211.906 113.325C212.606 110.395 213.37 107.69 213.603 107.313C214.752 105.454 215.079 107.254 214.772 113.741C214.496 119.548 214.635 121.242 215.527 122.967C217.336 126.462 218.742 125.821 226.435 117.984C235.722 108.524 242.367 105.023 254.029 103.446L258.174 102.885L257.665 105.909C257.385 107.573 257.18 109.972 257.211 111.24C257.716 132.019 257.548 133.582 254.048 140.609C252.924 142.866 249.078 148.221 245.502 152.508C238.872 160.456 236.56 164.648 237.263 167.447C237.9 169.982 240.111 172.305 243.407 173.9C246.2 175.251 247.683 175.416 259.393 175.683C266.492 175.845 273.679 175.987 275.363 176C278.867 176.025 282.015 174.456 284.1 171.641C285.392 169.899 285.477 169.051 285.321 159.45C285.229 153.774 285.377 148.814 285.651 148.426C285.924 148.039 288.225 147.225 290.763 146.619C296.626 145.217 303.745 141.682 314.141 135.012C326.621 127.003 331.267 126.626 337.178 133.139C343.931 140.578 344.922 141.438 347.549 142.145C351.23 143.136 355.378 141.814 361.643 137.655C369.138 132.679 370.698 131.264 369.752 130.299C369.125 129.66 368.692 129.684 367.692 130.414C361.945 134.611 357.693 137.312 354.628 138.715C349.122 141.233 347.584 140.681 341.492 133.993C335.743 127.681 333.38 126.302 328.309 126.302C324.049 126.302 320.033 127.985 312.852 132.776C304.114 138.605 298.803 141.448 293.232 143.274C290.238 144.256 287.597 144.868 287.363 144.635C287.13 144.401 289.376 140.532 292.356 136.035C298.941 126.1 300.946 121.511 300.967 116.326C300.985 111.967 299.954 109.098 297.387 106.367L295.594 104.459L298.124 104.895C299.515 105.135 304.511 105.518 309.226 105.744C320.144 106.269 324.097 105.307 328.309 101.098C331.667 97.7423 333.061 94.0177 333.978 85.9558C335.358 73.8102 332.145 65.6534 324.409 61.6712C320.805 59.8162 320.427 59.7167 297.229 54.5424C271.54 48.8126 267.356 48.6294 267.356 53.235C267.356 55.0999 267.89 56.0007 273.032 62.8053C279.461 71.3153 279.898 74.9476 275.321 81.8379L272.772 85.6725L273.123 81.3054C273.45 77.2376 273.303 76.5898 270.976 71.8491C269.111 68.0488 267.208 65.5051 263.467 61.8096C257.788 56.2017 253.958 53.9981 239.993 48.3045C234.916 46.2347 229.717 44.0087 228.441 43.3576C224.557 41.3787 219.273 37.1026 217.157 34.2262C213.783 29.6417 211.742 31.1428 214.941 35.8552C220.515 44.0627 222.098 65.9579 218.63 86.858C215.871 103.483 216.064 102.826 213.39 104.696C211.145 106.266 210.856 106.865 209.418 112.933C206.223 126.407 199.791 139.537 193.815 144.78C186.618 151.096 179.275 151.062 171.982 144.679C165.97 139.419 159.666 126.341 156.339 112.229C154.967 106.407 152.665 90.3248 152.636 86.344C152.632 85.8748 154.754 86.9113 157.409 88.6748C163.111 92.4612 165.249 93.4477 167.757 93.4477C169.291 93.4477 170.025 94.056 171.767 96.7683C177.721 106.041 188.891 110.028 197.795 106.059C201.57 104.376 206.677 99.6467 209.014 95.6718C210.939 92.3953 212.794 85.772 214.552 75.8965C215.663 69.6527 215.762 67.5895 215.214 62.058C212.296 32.5807 202.95 11.133 190.077 4.37387C185.734 2.09381 179.744 2.26712 175.134 4.80682C165.327 10.2104 157.102 25.618 152.972 46.3263C151.119 55.6146 149.992 66.2808 149.992 74.5226C149.992 79.8847 149.889 80.3637 148.838 79.8979C142.325 77.0102 136.786 75.6824 131.2 75.6699C126.01 75.658 124.77 75.8932 121.31 77.546C119.134 78.5852 114.09 82.0764 110.101 85.3034C100.508 93.0642 97.4823 94.3887 89.3314 94.3953C82.246 94.4013 80.8231 93.8635 72.8166 88.1535C65.9758 83.2758 61.5753 80.9924 57.5948 80.257C50.8193 79.0056 43.2328 81.5216 36.8299 87.144L33.45 90.112L32.3206 87.1558C30.9814 83.6514 25.7903 77.7595 22.4639 75.969C21.1637 75.2692 20.0995 74.456 20.0995 74.1615C20.0995 72.7236 22.932 68.4488 25.4844 66.033C27.0556 64.5463 31.5735 61.1361 35.5243 58.4548C47.1995 50.5306 53.998 42.9095 56.733 34.6802C58.3597 29.7853 57.819 21.819 55.5192 16.8028C51.9949 9.11784 43.4273 3.04406 33.1039 0.912927C27.6959 -0.20338 26.0363 -0.256755 21.4182 0.539289ZM32.3252 3.22857C38.0984 4.29545 44.0128 7.24964 48.0909 11.1047C52.2462 15.0322 54.1754 18.584 55.0411 23.9C56.8979 35.3023 50.096 45.5204 32.7999 57.3108C24.2006 63.173 21.3311 65.9888 17.7219 72.1061C17.0421 73.2593 16.833 73.1816 14.5899 70.9397C12.5888 68.9397 12.1873 68.0758 12.1873 65.7714C12.1873 60.095 14.7033 57.117 25.6749 49.8064C33.5239 44.5767 36.0419 41.6798 38.5824 34.9563C42.6249 24.2572 39.8279 16.6183 30.686 13.3953C27.386 12.2315 21.6588 12.0852 18.9885 13.0967C13.4262 15.2028 12.7596 19.0051 16.8027 25.5731C18.2526 27.929 19.4395 30.3356 19.4395 30.9207C19.4401 32.8331 16.7882 35.411 14.0664 36.1431C6.66321 38.1359 0.552999 30.4153 2.25479 21.2173C3.11392 16.5709 5.27329 12.8055 9.09819 9.28127C15.4431 3.43615 22.9123 1.48953 32.3252 3.22857ZM187.984 6.12411C199.943 11.1178 209.663 32.7599 212.648 61.0393C214.045 74.2781 210.064 90.9871 203.747 98.3953C198.709 104.302 192.253 106.379 185.252 104.345C182.113 103.433 180.659 102.473 177.243 99.0589C174.947 96.765 173.069 94.6253 173.069 94.3044C173.069 93.9835 174.355 93.3772 175.926 92.9574C179.539 91.9914 183.182 88.9891 187.169 83.6936C190.91 78.7229 192.19 75.3872 192.19 70.6036C192.19 63.5585 187.844 58.8798 181.334 58.918C171.758 58.974 166.481 67.3872 167.384 81.1598C167.619 84.7499 167.989 88.3907 168.204 89.25C168.473 90.3202 168.314 90.8098 167.701 90.8052C166.042 90.7934 159.58 87.4464 155.999 84.7446L152.445 82.0639L152.824 70.4574C153.242 57.6726 154.313 50.0633 157.249 39.0024C163.777 14.414 176.148 1.18113 187.984 6.12411ZM228.241 45.9026C230.48 47.0274 236.117 49.4591 240.769 51.3068C254.016 56.5688 260.244 60.6676 265.249 67.4182C271.001 75.1756 272.181 81.1282 268.92 85.9314C266.859 88.9667 266.021 89.6744 261.968 91.8016C257.743 94.0184 254.848 94.6121 242.631 95.766C231.904 96.7795 223.767 98.5317 220.817 100.464C219.918 101.052 219.075 101.419 218.943 101.28C218.812 101.14 219.239 98.0606 219.893 94.4362C220.546 90.8118 221.479 85.6224 221.965 82.9041C223.273 75.6007 223.079 53.6871 221.652 47.3194C220.232 40.9879 220.22 41.071 222.356 42.578C223.352 43.2818 226.001 44.7777 228.241 45.9026ZM295.379 56.634C305.17 58.7763 315.056 61.0162 317.346 61.6119C328.967 64.634 333.265 72.1443 331.477 86.3044C330.39 94.91 328.191 99.0978 323.491 101.514C320.349 103.129 319.244 103.332 313.601 103.331C310.106 103.33 301.676 102.737 294.868 102.014C288.059 101.292 278.207 100.505 272.975 100.267C264.512 99.8833 263.53 99.7192 264.08 98.7835C264.419 98.2049 267.356 94.9317 270.606 91.5097C282.714 78.7611 283.697 72.8534 275.515 62.0112C270.476 55.3332 269.775 54.1114 270.261 52.8449C270.783 51.4867 274.228 52.006 295.379 56.634ZM185.396 62.4468C188.56 64.375 189.842 66.7671 189.791 70.6485C189.767 72.4962 189.36 74.8975 188.887 75.9848L188.028 77.9618L187.585 75.5473C186.684 70.6419 184.155 68.5496 180.1 69.3542C176.004 70.1667 173.728 73.2079 173.728 77.8682C173.728 81.8076 176.082 84.715 179.746 85.3001C182.285 85.7061 182.318 85.7456 181.168 87.0161C179.628 88.7189 175.861 90.6161 173.44 90.9087C171.626 91.1275 171.461 90.9463 170.65 87.8464C169.251 82.4982 169.435 73.971 171.04 69.6811C173.793 62.3289 180.038 59.1816 185.396 62.4468ZM183.901 72.7368C184.853 73.6883 185.32 76.6689 185.029 79.9387C184.876 81.6626 183.153 82.9041 180.914 82.9041C178.269 82.9041 175.463 79.3713 175.977 76.6886C176.735 72.7315 181.512 70.3493 183.901 72.7368ZM22.2476 78.916C25.1013 80.7255 28.6658 85.7647 27.7433 86.6866C27.5455 86.8843 27.1987 86.5654 26.9726 85.9769C26.3831 84.4415 22.5582 82.2451 20.4727 82.2451C19.4942 82.2451 18.1201 82.5522 17.4185 82.9272C16.717 83.3028 16.1434 83.3799 16.1434 83.0992C16.1434 82.2207 18.432 76.9786 18.8164 76.9759C19.0175 76.9746 20.5617 77.8478 22.2476 78.916ZM24.8798 88.6589C26.3923 90.021 26.3541 92.5706 24.8092 93.3976C23.1767 94.2708 19.3518 93.1934 17.7317 91.4049C16.5014 90.0461 16.51 90.0072 18.3852 88.3947C20.4562 86.6148 22.7118 86.7064 24.8798 88.6589ZM264.658 94.1278C264.087 94.4474 262.797 95.8945 261.793 97.3429C260.229 99.5973 259.524 100.037 256.903 100.395C250.197 101.308 242.383 103.504 237.685 105.797C233.679 107.751 231.381 109.572 225.582 115.388C220.273 120.711 218.231 122.373 217.681 121.823C216.831 120.974 216.76 115.624 217.511 109.03L218.024 104.513L222.363 102.548C227.382 100.273 233.142 99.1644 245.598 98.0751C254.103 97.3317 262.499 95.2711 264.281 93.4899C264.655 93.1163 265.126 92.9766 265.329 93.1789C265.531 93.3812 265.229 93.8082 264.658 94.1278ZM20.5577 96.6194C19.2964 96.8678 16.8027 95.6283 16.8027 94.7532C16.8027 94.4092 17.8834 94.6425 19.2047 95.2705C20.7232 95.9927 21.221 96.4889 20.5577 96.6194ZM28.7554 95.2672C27.5693 97.4826 23.3962 100.189 23.3962 98.7433C23.3962 98.4164 23.9428 97.9762 24.6108 97.764C25.2787 97.5525 26.5169 96.6424 27.3629 95.7429C29.1754 93.8148 29.6133 93.6652 28.7554 95.2672ZM272.015 104.988C266.618 107.894 264.442 109.998 262.296 114.382C260.789 117.46 260.624 118.438 260.955 122.31C261.413 127.656 262.633 130.723 266.416 136.04C270.59 141.906 275.669 145.707 280.754 146.771L282.614 147.16L282.908 157.547C283.378 174.136 283.655 173.93 261.752 173.254C245.583 172.755 243.53 172.337 240.832 168.994C238.304 165.861 239.317 163.732 248.643 152.586C258.497 140.808 260.242 135.49 259.983 118.038C259.863 110.002 260.058 105.726 260.599 104.486L261.389 102.673L268.823 102.689L276.258 102.703L272.015 104.988ZM289.121 104.713C295.445 106.068 299.73 112.221 298.61 118.334C297.876 122.339 295.542 126.929 290.246 134.782C287.503 138.851 285.059 142.807 284.815 143.575C284.433 144.778 284.044 144.909 281.994 144.525C278.05 143.785 275.03 141.855 270.979 137.481C264.319 130.292 261.729 121.785 264.315 115.598C266.326 110.789 273.155 106.043 280 104.696C284.062 103.898 285.326 103.9 289.121 104.713Z" fill="#000"/></symbol><symbol viewBox="0 0 38 38" fill="none" id="svg-hat"><path fill-rule="evenodd" clip-rule="evenodd" d="M3.26762 12.8507L16.6151 5.56738C17.5651 5.06071 18.7051 5.06071 19.6551 5.56738L34.7285 13.7849C35.2351 14.0699 35.5518 14.5924 35.5518 15.1782V25.3274C35.5518 26.1982 34.8393 26.9107 33.9685 26.9107C33.0976 26.9107 32.3851 26.1982 32.3851 25.3274V15.9699L19.6551 22.9207C18.7051 23.4432 17.5651 23.4432 16.6151 22.9207L3.26762 15.6374C2.17512 15.0357 2.17512 13.4524 3.26762 12.8507ZM7.05178 25.3115V20.8624L16.6151 26.0874C17.5651 26.6099 18.7051 26.6099 19.6551 26.0874L29.2184 20.8624V25.3115C29.2184 26.4674 28.5851 27.544 27.5718 28.0982L19.6551 32.4207C18.7051 32.9432 17.5651 32.9432 16.6151 32.4207L8.69845 28.0982C7.68512 27.544 7.05178 26.4674 7.05178 25.3115Z" fill="#fff"/></symbol><symbol viewBox="0 0 24 24" id="svg-insta"><path d="M3 8.4022C3.05965 7.98097 3.10509 7.55733 3.18091 7.13915C3.61066 4.77056 5.28753 3.15902 7.68518 3.07643C10.572 2.97724 13.4676 2.97199 16.354 3.07599C18.9636 3.16994 20.8535 5.10222 20.9349 7.71267C21.0217 10.4846 21.0217 13.2633 20.9349 16.0352C20.8535 18.6456 18.9642 20.5777 16.3542 20.6719C13.4678 20.7761 10.5716 20.7787 7.6854 20.6703C5.07538 20.5722 3.27114 18.6356 3.09657 16.0212C3.08149 15.7951 3.03299 15.5709 3 15.3459C3 13.0312 3 10.7166 3 8.4022ZM12.0024 19.1248C13.3234 19.1248 14.6457 19.1643 15.9649 19.1156C18.0333 19.0389 19.3055 17.8045 19.3538 15.738C19.4136 13.1632 19.4136 10.5849 19.3538 8.00981C19.3055 5.94382 18.0324 4.68054 15.9649 4.63663C13.3406 4.58113 10.7136 4.58157 8.08938 4.63663C6.03759 4.67967 4.76164 5.91738 4.70593 7.96065C4.63514 10.568 4.63514 13.18 4.70593 15.7874C4.76164 17.8305 6.03759 19.0396 8.08959 19.1156C9.3922 19.1641 10.6981 19.1248 12.0024 19.1248Z"/><path d="M12.0001 7.28857C9.46696 7.28857 7.41321 9.34211 7.41321 11.8752 7.41321 14.4085 9.46696 16.4621 12.0001 16.4621 14.5334 16.4621 16.5869 14.4085 16.5869 11.8752 16.5869 9.34211 14.5334 7.28857 12.0001 7.28857zM12.0001 14.8829C10.3389 14.8829 8.99241 13.5364 8.99241 11.8752 8.99241 10.2141 10.3389 8.86756 12.0001 8.86756 13.6612 8.86756 15.0077 10.2141 15.0077 11.8752 15.0077 13.5364 13.6612 14.8829 12.0001 14.8829zM17.9459 7.07961C17.9459 7.68219 17.4573 8.17072 16.8548 8.17072 16.2522 8.17072 15.7634 7.68219 15.7634 7.07961 15.7634 6.47681 16.2522 5.98828 16.8548 5.98828 17.4573 5.98828 17.9459 6.47681 17.9459 7.07961z"/></symbol><symbol viewBox="0 0 32 32" id="svg-insta2"><g clip-path="url(#avclip0_3956_15669)"><path d="M16 4C19.2604 4 19.6672 4.012 20.9464 4.072C22.2244 4.132 23.0944 4.3324 23.86 4.63C24.652 4.9348 25.3192 5.3476 25.9864 6.0136C26.5966 6.61348 27.0687 7.33911 27.37 8.14C27.6664 8.9044 27.868 9.7756 27.928 11.0536C27.9844 12.3328 28 12.7396 28 16C28 19.2604 27.988 19.6672 27.928 20.9464C27.868 22.2244 27.6664 23.0944 27.37 23.86C27.0696 24.6613 26.5973 25.3871 25.9864 25.9864C25.3864 26.5964 24.6608 27.0685 23.86 27.37C23.0956 27.6664 22.2244 27.868 20.9464 27.928C19.6672 27.9844 19.2604 28 16 28C12.7396 28 12.3328 27.988 11.0536 27.928C9.7756 27.868 8.9056 27.6664 8.14 27.37C7.33879 27.0694 6.61303 26.5971 6.0136 25.9864C5.40329 25.3866 4.93112 24.661 4.63 23.86C4.3324 23.0956 4.132 22.2244 4.072 20.9464C4.0156 19.6672 4 19.2604 4 16C4 12.7396 4.012 12.3328 4.072 11.0536C4.132 9.7744 4.3324 8.9056 4.63 8.14C4.93028 7.33862 5.40256 6.61279 6.0136 6.0136C6.61321 5.40308 7.33891 4.93088 8.14 4.63C8.9056 4.3324 9.7744 4.132 11.0536 4.072C12.3328 4.0156 12.7396 4 16 4ZM16 10C14.4087 10 12.8826 10.6321 11.7574 11.7574C10.6321 12.8826 10 14.4087 10 16C10 17.5913 10.6321 19.1174 11.7574 20.2426C12.8826 21.3679 14.4087 22 16 22C17.5913 22 19.1174 21.3679 20.2426 20.2426C21.3679 19.1174 22 17.5913 22 16C22 14.4087 21.3679 12.8826 20.2426 11.7574C19.1174 10.6321 17.5913 10 16 10ZM23.8 9.7C23.8 9.30218 23.642 8.92064 23.3607 8.63934C23.0794 8.35804 22.6978 8.2 22.3 8.2C21.9022 8.2 21.5206 8.35804 21.2393 8.63934C20.958 8.92064 20.8 9.30218 20.8 9.7C20.8 10.0978 20.958 10.4794 21.2393 10.7607C21.5206 11.042 21.9022 11.2 22.3 11.2C22.6978 11.2 23.0794 11.042 23.3607 10.7607C23.642 10.4794 23.8 10.0978 23.8 9.7ZM16 12.4C16.9548 12.4 17.8705 12.7793 18.5456 13.4544C19.2207 14.1295 19.6 15.0452 19.6 16C19.6 16.9548 19.2207 17.8705 18.5456 18.5456C17.8705 19.2207 16.9548 19.6 16 19.6C15.0452 19.6 14.1295 19.2207 13.4544 18.5456C12.7793 17.8705 12.4 16.9548 12.4 16C12.4 15.0452 12.7793 14.1295 13.4544 13.4544C14.1295 12.7793 15.0452 12.4 16 12.4Z"/></g><defs><clipPath id="avclip0_3956_15669"><path fill="#fff" d="M0 0H32V32H0z"/></clipPath></defs></symbol><symbol viewBox="0 0 16 16" id="svg-marker"><path fill-rule="evenodd" clip-rule="evenodd" d="M11.6263 3.04048C9.62354 1.03777 6.37651 1.03777 4.3738 3.04048C2.37109 5.04319 2.37109 8.29023 4.3738 10.2929L8.00002 13.9192L11.6263 10.2929C13.629 8.29023 13.629 5.04319 11.6263 3.04048ZM8.00002 15.3334L3.66669 11C1.27346 8.60681 1.27346 4.72661 3.66669 2.33338C6.05992 -0.0598562 9.94012 -0.0598562 12.3334 2.33338C14.7266 4.72661 14.7266 8.60681 12.3334 11L8.00002 15.3334ZM11.6666 6.66667C11.6666 8.69171 10.025 10.3333 7.99998 10.3333C5.97494 10.3333 4.33331 8.69171 4.33331 6.66667C4.33331 4.64162 5.97494 3 7.99998 3C10.025 3 11.6666 4.64162 11.6666 6.66667ZM10.6666 6.66667C10.6666 8.13943 9.47274 9.33333 7.99998 9.33333C6.52722 9.33333 5.33331 8.13943 5.33331 6.66667C5.33331 5.19391 6.52722 4 7.99998 4C9.47274 4 10.6666 5.19391 10.6666 6.66667Z"/></symbol><symbol viewBox="0 0 17 16" fill="none" id="svg-one-click"><path d="M4.5 3L3 1.5M7.5 2.5V1M10 3.5L11.5 2M4 5.5H2M5 8.5L3.5 10M6.5 5L8.5 15L10.5 12L13.5 15L15.5 13L12.5 10L15.5 8L6.5 5Z" stroke="#fff" stroke-width="2" stroke-linecap="round" stroke-linejoin="round"/></symbol><symbol viewBox="0 0 32 32" fill="none" id="svg-pay-1"><g clip-path="url(#ayclip0_3938_15252)" fill="#000"><path d="M28.5625 0H7.3125C5.41706 0 3.875 1.54206 3.875 3.4375V12.625H3.4375C1.54206 12.625 0 14.1671 0 16.0625V28.5625C0 30.4579 1.54206 32 3.4375 32H24.6875C26.5829 32 28.125 30.4579 28.125 28.5625V19.375H28.5625C30.4579 19.375 32 17.8329 32 15.9375V3.4375C32 1.54206 30.4579 0 28.5625 0ZM26.25 28.5625C26.25 29.4241 25.5491 30.125 24.6875 30.125H3.4375C2.57594 30.125 1.875 29.4241 1.875 28.5625V16.0625C1.875 15.2009 2.57594 14.5 3.4375 14.5H24.6875C25.5491 14.5 26.25 15.2009 26.25 16.0625V28.5625ZM30.125 15.9375C30.125 16.7991 29.4241 17.5 28.5625 17.5H28.125V16.0625C28.125 14.1671 26.5829 12.625 24.6875 12.625H5.75V9.375H30.125V15.9375ZM30.125 7.5H5.75V5.625H30.125V7.5ZM30.125 3.75H5.75V3.4375C5.75 2.57594 6.45094 1.875 7.3125 1.875H28.5625C29.4241 1.875 30.125 2.57594 30.125 3.4375V3.75Z"/><path d="M4.6875 23.25H9.6875C10.2052 23.25 10.625 22.8302 10.625 22.3125V17.3125C10.625 16.7947 10.2052 16.375 9.6875 16.375H4.6875C4.16975 16.375 3.75 16.7947 3.75 17.3125V22.3125C3.75 22.8302 4.16975 23.25 4.6875 23.25zM5.625 18.25H8.75V21.375H5.625V18.25zM6.5625 25.75H4.6875C4.16975 25.75 3.75 26.1697 3.75 26.6875 3.75 27.2053 4.16975 27.625 4.6875 27.625H6.5625C7.08025 27.625 7.5 27.2053 7.5 26.6875 7.5 26.1697 7.08025 25.75 6.5625 25.75zM17.8125 25.75H15.9375C15.4197 25.75 15 26.1697 15 26.6875 15 27.2053 15.4197 27.625 15.9375 27.625H17.8125C18.3303 27.625 18.75 27.2053 18.75 26.6875 18.75 26.1697 18.3303 25.75 17.8125 25.75zM23.4375 17H21.5625C21.0447 17 20.625 17.4197 20.625 17.9375 20.625 18.4553 21.0447 18.875 21.5625 18.875H23.4375C23.9553 18.875 24.375 18.4553 24.375 17.9375 24.375 17.4197 23.9553 17 23.4375 17zM12.1875 25.75H10.3125C9.79475 25.75 9.375 26.1697 9.375 26.6875 9.375 27.2053 9.79475 27.625 10.3125 27.625H12.1875C12.7053 27.625 13.125 27.2053 13.125 26.6875 13.125 26.1697 12.7053 25.75 12.1875 25.75z"/></g><defs><clipPath id="ayclip0_3938_15252"><path fill="#fff" d="M0 0H32V32H0z"/></clipPath></defs></symbol><symbol viewBox="0 0 32 32" fill="none" id="svg-pay-2"><g clip-path="url(#azclip0_3938_15266)" fill="#000"><path d="M31.9249 7.11338C31.7616 6.69613 31.3593 6.42188 30.9116 6.42188H23.2563V8.59875H28.1324L25.152 11.3561H17.8867V13.533H25.5782C25.8522 13.533 26.1163 13.4296 26.3173 13.2435L31.6506 8.30925C31.9793 8.00513 32.0881 7.53025 31.9249 7.11338zM13.2424 8.59869V6.42181H6.42157C6.14763 6.42181 5.8835 6.52519 5.6825 6.71131L.349241 11.6456C.0205529 11.9496-.0883223 12.4245.074928 12.8414.238178 13.2586.640179 13.5329 1.08824 13.5329H8.38069V11.356H3.86775L6.84788 8.59869H13.2424V8.59869zM8.1632 15.5651H1.08844C.487251 15.5651 0 16.0523 0 16.6534 0 17.2546.487251 17.7419 1.08844 17.7419H8.1632C8.76439 17.7419 9.25164 17.2546 9.25164 16.6534 9.25164 16.0523 8.76439 15.5651 8.1632 15.5651z"/><path d="M31.7664 11.7704C31.3938 11.298 30.7099 11.2175 30.2376 11.5901L25.2007 15.565H17.9957C17.3945 15.565 16.9072 16.0523 16.9072 16.6535 16.9072 17.2546 17.3945 17.7419 17.9957 17.7419H25.5784C25.8232 17.7419 26.0606 17.6591 26.2528 17.5079L31.5861 13.299C32.0581 12.9266 32.1387 12.2424 31.7664 11.7704zM8.1632 19.8094H1.08844C.487251 19.8094 0 20.2967 0 20.8979 0 21.4991.487251 21.9863 1.08844 21.9863H8.1632C8.76439 21.9863 9.25164 21.4991 9.25164 20.8979 9.25164 20.2967 8.76439 19.8094 8.1632 19.8094z"/><path d="M31.7941 16.4158C31.4429 15.9282 30.7633 15.8179 30.2746 16.1694L25.2265 19.8095H18.0679C17.4667 19.8095 16.9795 20.2968 16.9795 20.8979C16.9795 21.4991 17.4667 21.9864 18.0679 21.9864H25.5781C25.8066 21.9864 26.0294 21.9146 26.2144 21.781L31.5477 17.9352C32.0353 17.5837 32.1453 16.9034 31.7941 16.4158Z"/><path d="M31.8223 21.0281C31.4936 20.525 30.8188 20.3827 30.3159 20.7121L25.2541 24.018H1.08844C0.487251 24.018 0 24.5053 0 25.1065C0 25.7076 0.487251 26.1949 1.08844 26.1949H25.578C25.7895 26.1949 25.9959 26.1336 26.173 26.0178L31.5063 22.5345C32.0095 22.2058 32.151 21.5317 31.8223 21.0281Z"/><path d="M24.6313 6.49512C24.4676 6.07862 24.0656 5.80505 23.6183 5.80505H14.1128C13.8378 5.80505 13.5729 5.90918 13.3716 6.09674L7.63918 11.43C7.41787 11.6357 7.29199 11.9245 7.29199 12.2268V24.7437H9.46887V12.7009L14.5409 7.98187H20.8505L17.1444 11.43C16.9235 11.6357 16.7976 11.9245 16.7976 12.2268V24.7437H18.9745V12.7009L24.36 7.69018C24.6871 7.38581 24.7949 6.91162 24.6313 6.49512Z"/></g><defs><clipPath id="azclip0_3938_15266"><path fill="#fff" d="M0 0H32V32H0z"/></clipPath></defs></symbol><symbol viewBox="0 0 32 32" fill="none" id="svg-pay-3"><path d="M18.1632 23.5651H1.08844C.487251 23.5651 0 24.0523 0 24.6534 0 25.2546.487251 25.7419 1.08844 25.7419H18.1632C18.7644 25.7419 19.2516 25.2546 19.2516 24.6534 19.2516 24.0523 18.7644 23.5651 18.1632 23.5651zM23.1632 11H1.08844C.487251 11 0 11.4872 0 12.0884 0 12.6895.487251 13.1768 1.08844 13.1768H23.1632C23.7644 13.1768 24.2516 12.6896 24.2516 12.0884 24.2516 11.4872 23.7644 11 23.1632 11zM18.1632 2H1.08844C.487251 2 0 2.48725 0 3.08837 0 3.68949.487251 4.1768 1.08844 4.1768H18.1632C18.7644 4.1768 19.2516 3.68956 19.2516 3.08837 19.2516 2.48719 18.7644 2 18.1632 2zM18.1632 15H1.08844C.487251 15 0 15.4872 0 16.0884 0 16.6895.487251 17.1768 1.08844 17.1768H18.1632C18.7644 17.1768 19.2516 16.6896 19.2516 16.0884 19.2516 15.4872 18.7644 15 18.1632 15zM25.1632 15H22.0884C21.4873 15 21 15.4872 21 16.0884 21 16.6895 21.4873 17.1768 22.0884 17.1768H25.1632C25.7644 17.1768 26.2516 16.6896 26.2516 16.0884 26.2516 15.4872 25.7644 15 25.1632 15zM21.1632 19H17.0884C16.4873 19 16 19.4872 16 20.0884 16 20.6895 16.4873 21.1768 17.0884 21.1768H21.1632C21.7644 21.1768 22.2516 20.6896 22.2516 20.0884 22.2516 19.4872 21.7644 19 21.1632 19zM9.1632 27.8094H1.08844C.487251 27.8094 0 28.2967 0 28.8979 0 29.4991.487251 29.9863 1.08844 29.9863H9.1632C9.76439 29.9863 10.2516 29.4991 10.2516 28.8979 10.2516 28.2967 9.76439 27.8094 9.1632 27.8094zM13.1632 19H1.08844C.487251 19 0 19.4873 0 20.0884 0 20.6896.487251 21.1769 1.08844 21.1769H13.1632C13.7644 21.1769 14.2516 20.6896 14.2516 20.0884 14.2516 19.4873 13.7644 19 13.1632 19zM13.1632 6H1.08844C.487251 6 0 6.48725 0 7.08844 0 7.68963.487251 8.17688 1.08844 8.17688H13.1632C13.7644 8.17688 14.2516 7.68963 14.2516 7.08844 14.2516 6.48725 13.7644 6 13.1632 6z" fill="#000"/></symbol><symbol viewBox="0 0 21 20" id="svg-question"><path fill-rule="evenodd" clip-rule="evenodd" d="M10.5001 1.66663C6.59175 1.66663 3.41675 4.84163 3.41675 8.74996C3.41675 12.6583 6.59175 15.8333 10.5001 15.8333H10.9167V18.3333C14.9667 16.3833 17.5834 12.5 17.5834 8.74996C17.5834 4.84163 14.4084 1.66663 10.5001 1.66663ZM9.66675 13.75V12.0833H11.3334V13.75H9.66675ZM11.6417 9.80829C11.6501 9.79163 11.6584 9.77496 11.6667 9.76663C11.8935 9.434 12.2095 9.157 12.5298 8.87617C13.2687 8.22831 14.0309 7.5601 13.7751 6.14163C13.5334 4.73329 12.4084 3.57496 11.0001 3.36663C9.28341 3.11663 7.76675 4.17496 7.30841 5.69163C7.16675 6.17496 7.53341 6.66663 8.03341 6.66663H8.20008C8.54175 6.66663 8.81675 6.42496 8.93341 6.12496C9.20008 5.38329 9.98342 4.87496 10.8501 5.05829C11.6501 5.22496 12.2334 6.01663 12.1584 6.83329C12.102 7.46958 11.6474 7.82149 11.143 8.21201C10.8282 8.45569 10.4941 8.7144 10.2251 9.06663L10.2167 9.05829C10.2023 9.07274 10.1906 9.09274 10.1785 9.11349C10.1697 9.12866 10.1606 9.14422 10.1501 9.15829C10.1376 9.17913 10.123 9.19996 10.1084 9.22079C10.0938 9.24163 10.0792 9.26246 10.0667 9.28329C9.99175 9.39996 9.93341 9.51663 9.88341 9.64996C9.87925 9.66663 9.87091 9.67913 9.86258 9.69163C9.85425 9.70413 9.84591 9.71663 9.84175 9.73329C9.83342 9.74163 9.83342 9.74996 9.83342 9.75829C9.73341 10.0583 9.66675 10.4166 9.66675 10.8416H11.3417C11.3417 10.6333 11.3667 10.45 11.4251 10.275C11.4417 10.2166 11.4667 10.1583 11.4917 10.1L11.4918 10.0999C11.5001 10.0666 11.5084 10.0333 11.5251 10.0083C11.5584 9.94163 11.6001 9.87496 11.6417 9.80829Z"/></symbol><symbol viewBox="0 0 16 16" id="svg-review"><path fill-rule="evenodd" clip-rule="evenodd" d="M2.66668 1.33337H13.3333C14.0667 1.33337 14.6667 1.93337 14.6667 2.66671V10.6667C14.6667 11.4 14.0667 12 13.3333 12H4.00001L1.33334 14.6667L1.34001 2.66671C1.34001 1.93337 1.93334 1.33337 2.66668 1.33337ZM11.3333 6.00004H4.66668C4.30001 6.00004 4.00001 6.30004 4.00001 6.66671C4.00001 7.03337 4.30001 7.33337 4.66668 7.33337H11.3333C11.7 7.33337 12 7.03337 12 6.66671C12 6.30004 11.7 6.00004 11.3333 6.00004ZM8.66668 9.33337H4.66668C4.30001 9.33337 4.00001 9.03337 4.00001 8.66671C4.00001 8.30004 4.30001 8.00004 4.66668 8.00004H8.66668C9.03334 8.00004 9.33334 8.30004 9.33334 8.66671C9.33334 9.03337 9.03334 9.33337 8.66668 9.33337ZM4.66668 5.33337H11.3333C11.7 5.33337 12 5.03337 12 4.66671C12 4.30004 11.7 4.00004 11.3333 4.00004H4.66668C4.30001 4.00004 4.00001 4.30004 4.00001 4.66671C4.00001 5.03337 4.30001 5.33337 4.66668 5.33337Z"/></symbol><symbol viewBox="0 0 28 28" id="svg-search"><path fill-rule="evenodd" clip-rule="evenodd" d="M12.6875 22.625C18.1758 22.625 22.625 18.1758 22.625 12.6875C22.625 7.19917 18.1758 2.75 12.6875 2.75C7.19917 2.75 2.75 7.19917 2.75 12.6875C2.75 18.1758 7.19917 22.625 12.6875 22.625ZM12.6875 23.625C18.7281 23.625 23.625 18.7281 23.625 12.6875C23.625 6.64689 18.7281 1.75 12.6875 1.75C6.64689 1.75 1.75 6.64689 1.75 12.6875C1.75 18.7281 6.64689 23.625 12.6875 23.625Z"/><path fill-rule="evenodd" clip-rule="evenodd" d="M25.8964 26.6036L19.7714 20.4786L20.4785 19.7715L26.6035 25.8965L25.8964 26.6036Z"/></symbol><symbol viewBox="0 0 16 16" id="svg-star"><path d="M8 1L10.4721 5.93769L16 6.72949L12 10.5729L12.9443 16L8 13.4377L3.05573 16L4 10.5729L0 6.72949L5.52786 5.93769L8 1Z"/></symbol><symbol viewBox="0 0 16 16" id="svg-telegram"><path d="M2.38736 7.644L5.06861 8.6307L6.10642 11.9215C6.17283 12.1323 6.43422 12.2102 6.60772 12.0703L8.10229 10.869C8.25896 10.7431 8.4821 10.7368 8.64583 10.854L11.3415 12.7837C11.5271 12.9167 11.7901 12.8165 11.8366 12.5953L13.8113 3.22966C13.8621 2.98811 13.6214 2.7866 13.3882 2.87556L2.38421 7.06104C2.11266 7.1643 2.11503 7.54338 2.38736 7.644ZM5.93917 8.10546L11.1793 4.92327C11.2735 4.86625 11.3704 4.9918 11.2895 5.06577L6.96488 9.0294C6.81287 9.16891 6.71481 9.35562 6.68704 9.55828L6.53972 10.6347C6.52021 10.7784 6.31545 10.7927 6.27523 10.6536L5.70865 8.69071C5.64376 8.46683 5.73832 8.22768 5.93917 8.10546Z"/></symbol><symbol viewBox="0 0 28 28" id="svg-user"><path fill-rule="evenodd" clip-rule="evenodd" d="M8.31534 7.41511C9.25026 5.54202 11.2058 4.5 13.9994 4.5C16.7935 4.5 18.7492 5.54193 19.684 7.41526C20.1566 8.36242 20.2796 9.32067 20.2144 10.2116V13.5404C20.2144 15.5102 19.3986 17.3842 17.9647 18.7183C18.0139 19.0764 18.1062 19.6875 18.2228 20.2788C18.2998 20.6694 18.3849 21.0374 18.4716 21.3145C18.5153 21.4543 18.5547 21.5555 18.587 21.6197C18.5891 21.6239 18.5911 21.6277 18.5929 21.6313L22.2339 23.5581L21.7661 24.4419L18.0566 22.4789C18.0565 22.4788 18.0567 22.4789 18.0566 22.4789C17.9436 22.419 17.8664 22.3345 17.8186 22.2723C17.7678 22.2063 17.7266 22.1348 17.6931 22.068C17.6263 21.9348 17.5682 21.776 17.5172 21.6131C17.4144 21.2845 17.3212 20.8752 17.2417 20.4723C17.0822 19.6637 16.9673 18.825 16.9384 18.58L16.9073 18.316L17.1088 18.1425C18.4468 16.991 19.2144 15.312 19.2144 13.5404V10.1738L19.2158 10.1548C19.273 9.40571 19.171 8.62678 18.7892 7.86175C18.0732 6.42674 16.5396 5.5 13.9994 5.5C11.4598 5.5 9.9263 6.42676 9.21007 7.8617C8.8268 8.62963 8.72623 9.40959 8.77738 10.0879C8.77906 10.1105 8.77914 10.149 8.77916 10.1621C8.77916 10.1636 8.77917 10.1647 8.77917 10.1655L8.77959 10.278L8.7805 10.6688C8.78112 10.9903 8.78177 11.4164 8.78236 11.8417L8.78447 13.5392L8.78447 13.5404C8.78447 15.3105 9.55184 16.9889 10.8903 18.1416L11.0914 18.3148L11.0606 18.5784C11.032 18.824 10.9173 19.663 10.758 20.4718C10.6787 20.8747 10.5856 21.2841 10.483 21.6126C10.4321 21.7755 10.3741 21.9343 10.3073 22.0675C10.2739 22.1343 10.2328 22.2058 10.182 22.2718C10.1343 22.3339 10.0574 22.4185 9.9442 22.4784C9.94412 22.4784 9.94429 22.4783 9.9442 22.4784L6.23386 24.4419L5.76611 23.558L9.40739 21.631C9.40921 21.6276 9.41115 21.6238 9.41321 21.6197C9.44539 21.5554 9.48477 21.4543 9.52847 21.3144C9.61504 21.0373 9.69995 20.6692 9.77687 20.2786C9.89338 19.6869 9.98544 19.0754 10.0344 18.7173C8.60051 17.3826 7.78455 15.5094 7.78447 13.5407M7.78447 13.5407L7.78236 11.8431C7.78177 11.4179 7.78112 10.9919 7.7805 10.6707L7.7796 10.281L7.77918 10.1706C7.77912 10.1589 7.77905 10.1513 7.77901 10.1469C7.7794 10.1523 7.7798 10.1577 7.78021 10.1631C7.77935 10.1516 7.77904 10.1419 7.77899 10.1419C7.77896 10.1419 7.77898 10.1434 7.77901 10.1469C7.71907 9.31839 7.8436 8.36027 8.31534 7.41511M18.5238 21.5947C18.5238 21.5947 18.5239 21.5948 18.5238 21.5947Z"/><path fill-rule="evenodd" clip-rule="evenodd" d="M14 26C20.6274 26 26 20.6274 26 14C26 7.37258 20.6274 2 14 2C7.37258 2 2 7.37258 2 14C2 20.6274 7.37258 26 14 26ZM14 27C21.1797 27 27 21.1797 27 14C27 6.8203 21.1797 1 14 1C6.8203 1 1 6.8203 1 14C1 21.1797 6.8203 27 14 27Z"/></symbol><symbol viewBox="0 0 16 16" fill="none" id="svg-viewer-1"><g clip-path="url(#bhclip0_3962_15397)" fill="#000"><path d="M7.99994 8.5625C6.44916 8.5625 5.1875 9.82419 5.1875 11.375C5.1875 12.9258 6.44916 14.1875 7.99994 14.1875C9.55073 14.1875 10.8124 12.9258 10.8124 11.375C10.8124 9.82419 9.55073 8.5625 7.99994 8.5625ZM7.99994 12.9375C7.13838 12.9375 6.43747 12.2366 6.43747 11.375C6.43747 10.5134 7.13838 9.8125 7.99994 9.8125C8.86151 9.8125 9.56242 10.5134 9.56242 11.375C9.56242 12.2366 8.86151 12.9375 7.99994 12.9375Z"/><path d="M15.9328 9.89456C15.2435 8.52928 14.1511 7.37269 12.773 6.54828L14.4648 4.85647C14.7089 4.61241 14.7089 4.21669 14.4648 3.97259C14.2207 3.72853 13.825 3.72853 13.5809 3.97259L11.5962 5.95738C10.6608 5.57022 9.6567 5.33734 8.62499 5.27031V2.4375C8.62499 2.09231 8.34517 1.8125 7.99999 1.8125C7.6548 1.8125 7.37499 2.09231 7.37499 2.4375V5.27028C6.34327 5.33731 5.3392 5.57019 4.40377 5.95734L2.41905 3.97256C2.17495 3.72847 1.7792 3.72847 1.53514 3.97256C1.29111 4.21662 1.29111 4.61234 1.53517 4.85644L3.22695 6.54825C1.84889 7.37266 0.756517 8.52925 0.0672043 9.89453C-0.0883582 10.2027 0.0353293 10.5786 0.343454 10.7342C0.651486 10.8898 1.02752 10.7661 1.18305 10.4579C2.34236 8.16178 4.92592 6.5 8.00002 6.5C11.0764 6.5 13.6587 8.16378 14.817 10.458C14.9728 10.7666 15.3489 10.8895 15.6565 10.7342C15.9647 10.5786 16.0884 10.2027 15.9328 9.89456Z"/></g><defs><clipPath id="bhclip0_3962_15397"><path fill="#fff" d="M0 0H16V16H0z"/></clipPath></defs></symbol><symbol viewBox="0 0 16 16" fill="none" id="svg-viewer-2"><g clip-path="url(#biclip0_3962_15409)"><path d="M0.0672338 6.10544C0.756547 7.47072 1.84892 8.62731 3.22698 9.45172L1.5352 11.1435C1.29114 11.3876 1.29114 11.7833 1.53517 12.0274C1.77926 12.2715 2.17495 12.2715 2.41908 12.0274L4.4038 10.0426C5.33923 10.4298 6.3433 10.6627 7.37501 10.7297L7.37501 13.5625C7.37501 13.9077 7.65483 14.1875 8.00001 14.1875C8.3452 14.1875 8.62501 13.9077 8.62501 13.5625L8.62501 10.7297C9.65673 10.6627 10.6608 10.4298 11.5962 10.0427L13.581 12.0274C13.825 12.2715 14.2208 12.2715 14.4649 12.0274C14.7089 11.7834 14.7089 11.3877 14.4648 11.1436L12.773 9.45175C14.1511 8.62734 15.2435 7.47075 15.9328 6.10547C16.0884 5.79731 15.9647 5.42144 15.6565 5.26584C15.3485 5.11025 14.9725 5.23391 14.817 5.54206C13.6576 7.83822 11.0741 9.5 7.99998 9.5C4.92358 9.5 2.34133 7.83622 1.18305 5.54203C1.0272 5.23337 0.651109 5.11047 0.343452 5.26581C0.0352963 5.42141 -0.0883915 5.79731 0.0672338 6.10544Z" fill="#000"/></g><defs><clipPath id="biclip0_3962_15409"><path fill="#fff" transform="rotate(-180 8 8)" d="M0 0H16V16H0z"/></clipPath></defs></symbol><symbol viewBox="0 0 24 24" id="svg-vk"><path d="M12.8708 18C6.2084 18 2.40834 13.4955 2.25 6H5.58729C5.69691 11.5015 8.15719 13.8318 10.106 14.3123V6H13.2485V10.7447C15.1729 10.5405 17.1945 8.37838 17.8766 6H21.0191C20.4953 8.93093 18.303 11.0931 16.7439 11.982C18.303 12.7027 20.8 14.5886 21.75 18H18.2908C17.5478 15.7177 15.6967 13.952 13.2485 13.7117V18H12.8708Z"/></symbol><symbol viewBox="0 0 32 32" id="svg-vk2"><path fill-rule="evenodd" clip-rule="evenodd" d="M5.68707 5.68707C4 7.37413 4 10.0894 4 15.52V16.48C4 21.9106 4 24.6259 5.68707 26.313C7.37413 28 10.0894 28 15.52 28H16.48C21.9106 28 24.6259 28 26.313 26.313C28 24.6259 28 21.9106 28 16.48V15.52C28 10.0894 28 7.37413 26.313 5.68707C24.6259 4 21.9106 4 16.48 4H15.52C10.0894 4 7.37413 4 5.68707 5.68707ZM8.05078 11.3C8.18078 17.54 11.3007 21.29 16.7707 21.29H17.0808V17.72C19.0908 17.92 20.6107 19.39 21.2207 21.29H24.0608C23.2808 18.45 21.2307 16.88 19.9507 16.28C21.2307 15.54 23.0307 13.74 23.4607 11.3H20.8806C20.3206 13.28 18.6608 15.08 17.0808 15.25V11.3H14.5007V18.22C12.9007 17.82 10.8808 15.88 10.7908 11.3H8.05078Z"/></symbol><symbol viewBox="0 0 16 16" id="svg-whatsapp"><path fill-rule="evenodd" clip-rule="evenodd" d="M8.10577 13.2628C11.2609 13.2628 13.8182 10.773 13.8182 7.70158C13.8182 4.63018 11.2612 2.14038 8.10577 2.14038C4.95076 2.14038 2.39322 4.63018 2.39322 7.70158C2.39322 8.75228 2.69279 9.73511 3.21293 10.5731L2.18182 13.5568L5.34446 12.5708C6.16314 13.0116 7.10414 13.2628 8.10577 13.2628ZM10.7756 9.12015C10.8789 9.17269 10.9486 9.20818 10.9787 9.26033C11.0153 9.32513 11.0153 9.63622 10.8927 9.99952C10.7692 10.3622 10.1664 10.7122 9.89598 10.7381C9.84962 10.7426 9.81119 10.7524 9.77181 10.7624C9.58125 10.8109 9.36821 10.8652 8.12441 10.3497C6.73753 9.77455 5.82339 8.34706 5.63447 8.05204C5.61896 8.02783 5.60834 8.01124 5.60275 8.00338L5.6025 8.00304C5.52758 7.89821 5 7.1601 5 6.39614C5 5.68068 5.33378 5.30545 5.48749 5.13266C5.49805 5.12078 5.50777 5.10986 5.51646 5.09985C5.65182 4.94438 5.81184 4.90547 5.91025 4.90547C5.96112 4.90547 6.01201 4.90895 6.0612 4.91231C6.10718 4.91545 6.15167 4.91849 6.19322 4.91849C6.20354 4.91849 6.21439 4.91775 6.22569 4.91698C6.30889 4.91129 6.41702 4.90391 6.52527 5.17766C6.56467 5.27742 6.62181 5.42377 6.68247 5.57916C6.81107 5.90857 6.95552 6.27858 6.98053 6.33135C7.0176 6.40931 7.04227 6.49999 6.9928 6.60368C6.98577 6.6186 6.97924 6.63271 6.973 6.6462C6.93579 6.72664 6.90869 6.78522 6.84531 6.863C6.82088 6.89305 6.79562 6.92541 6.77035 6.9578C6.71935 7.02315 6.66829 7.08858 6.62382 7.13519C6.55007 7.21256 6.47306 7.29659 6.55907 7.45207C6.64522 7.60783 6.94155 8.11634 7.38031 8.52823C7.85231 8.9713 8.26243 9.15862 8.47005 9.25345C8.51048 9.27191 8.54323 9.28687 8.56727 9.29953C8.71502 9.37734 8.80103 9.36432 8.88718 9.26033C8.97346 9.15664 9.25643 8.80679 9.35471 8.65117C9.45299 8.49569 9.55167 8.52173 9.68702 8.5735C9.82197 8.62513 10.5479 9.00131 10.6957 9.07897C10.7242 9.09399 10.7509 9.10755 10.7756 9.12015Z"/></symbol><symbol viewBox="0 0 24 24" id="svg-youtube"><path d="M20.7169 10.4655C20.7101 10.0973 20.6806 9.63187 20.629 9.06951C20.5772 8.50683 20.503 8.00397 20.4065 7.5609C20.2961 7.06323 20.0563 6.64387 19.6872 6.30296C19.3182 5.96198 18.8887 5.76431 18.3987 5.70969C16.8669 5.53936 14.5522 5.4541 11.4545 5.4541C8.35679 5.4541 6.04206 5.53936 4.5104 5.70969C4.02047 5.76428 3.59263 5.96198 3.22707 6.30296C2.86137 6.64376 2.62333 7.06312 2.51291 7.5609C2.40953 8.00411 2.33182 8.50694 2.28009 9.06951C2.22844 9.63187 2.19908 10.0972 2.19223 10.4655C2.18523 10.8336 2.18182 11.345 2.18182 11.9996C2.18182 12.6541 2.18523 13.1655 2.19226 13.5336C2.19911 13.902 2.22847 14.3672 2.28013 14.9296C2.33185 15.4922 2.40605 15.9951 2.50266 16.4382C2.61307 16.936 2.85278 17.3553 3.22189 17.6961C3.59108 18.037 4.02065 18.2347 4.51044 18.2893C6.0421 18.4598 8.35668 18.545 11.4545 18.545C14.5525 18.545 16.8669 18.4598 18.3987 18.2893C18.8887 18.2347 19.3164 18.037 19.6821 17.6961C20.0478 17.3553 20.2857 16.9358 20.3961 16.4382C20.4995 15.9951 20.5772 15.4922 20.629 14.9296C20.6806 14.3673 20.7099 13.9018 20.7169 13.5336C20.7238 13.1655 20.7273 12.6541 20.7273 11.9996C20.7273 11.345 20.7238 10.8336 20.7169 10.4655ZM15.1181 12.5518L9.81951 15.8245C9.72287 15.8926 9.60546 15.9267 9.46754 15.9267C9.36412 15.9267 9.25719 15.8993 9.14682 15.8448C8.91918 15.7222 8.8054 15.5312 8.8054 15.2722V8.72695C8.8054 8.468 8.91922 8.277 9.14682 8.15431C9.38145 8.03141 9.60561 8.03829 9.81951 8.17477L15.1182 11.4474C15.3251 11.5631 15.4285 11.7473 15.4285 11.9996C15.4285 12.2518 15.325 12.436 15.1181 12.5518Z"/></symbol></svg>