<svg style="display: none;" aria-hidden="true" xmlns="http://www.w3.org/2000/svg" xmlns:xlink="http://www.w3.org/1999/xlink"><symbol viewBox="0 0 69 69" id="svg-action-arrow"><path d="M34.501 32.9522C34.4384 32.9522 34.3764 32.9399 34.3186 32.9159 34.2608 32.892 34.2082 32.8569 34.164 32.8126 34.1197 32.7684 34.0846 32.7158 34.0607 32.658 34.0367 32.6002 34.0244 32.5382 34.0244 32.4756V1.39111C34.0244 1.32853 34.0367 1.26656 34.0607 1.20874 34.0846 1.15092 34.1197 1.09839 34.164 1.05413 34.2082 1.00988 34.2608.974778 34.3186.950828 34.3764.926879 34.4384.914551 34.501.914551 34.5635.914551 34.6255.926879 34.6833.950828 34.7412.974778 34.7937 1.00988 34.8379 1.05413 34.8822 1.09839 34.9173 1.15092 34.9412 1.20874 34.9652 1.26656 34.9775 1.32853 34.9775 1.39111V32.4756C34.9775 32.5382 34.9652 32.6002 34.9412 32.658 34.9173 32.7158 34.8822 32.7684 34.8379 32.8126 34.7937 32.8569 34.7412 32.892 34.6833 32.9159 34.6255 32.9399 34.5635 32.9522 34.501 32.9522zM5.49021 60.0828C5.45515 60.0829 5.42018 60.0791 5.38594 60.0716 5.26208 60.0473 5.15292 59.9748 5.08242 59.8701 5.01192 59.7654 4.98583 59.637 5.00989 59.5131 7.74599 45.4981 20.0154 35.3832 34.3185 35.2606L34.3216 35.2599 34.3242 35.2586 34.3297 35.2567C34.3845 35.2364 34.4426 35.2263 34.501 35.2269 34.5529 35.2272 34.6083 35.236 34.6574 35.253 48.9707 35.3649 61.2547 45.4906 63.9922 59.5131 64.0163 59.637 63.9902 59.7654 63.9197 59.8701 63.8492 59.9748 63.74 60.0473 63.6162 60.0716 63.4923 60.0956 63.3639 60.0696 63.2592 59.9991 63.1545 59.9286 63.082 59.8194 63.0577 59.6955 60.3961 46.063 48.4385 36.216 34.5047 36.1802 20.5694 36.2143 8.60602 46.0617 5.94434 59.6956 5.92404 59.8022 5.86795 59.8987 5.78535 59.9691 5.70276 60.0395 5.5987 60.0796 5.49021 60.0828zM50.3169 37.1929C50.3948 37.2378 50.4839 37.2597 50.5738 37.2562 50.6543 37.2531 50.7328 37.2296 50.8018 37.1879 50.8709 37.1462 50.9282 37.0877 50.9684 37.0179L59.2338 22.7024C59.2652 22.6481 59.2855 22.5882 59.2937 22.5261 59.3019 22.464 59.2977 22.4008 59.2815 22.3403 59.2652 22.2798 59.2372 22.2231 59.199 22.1734 59.1608 22.1237 59.1131 22.0821 59.0588 22.0508 58.9496 21.9887 58.8202 21.9722 58.6989 22.005 58.5776 22.0378 58.4741 22.1171 58.411 22.2258L50.1456 36.5414C50.082 36.6505 50.0643 36.7804 50.0964 36.9026 50.1285 37.0247 50.2078 37.1292 50.3169 37.1929zM42.7961 34.0468C42.7597 34.046 42.7235 34.041 42.6882 34.032 42.5662 33.9989 42.4624 33.9187 42.3996 33.8091 42.3368 33.6995 42.32 33.5694 42.3531 33.4474L47.9638 12.5085C47.9962 12.3867 48.0755 12.2827 48.1843 12.2192 48.2932 12.1557 48.4227 12.1379 48.5447 12.1697 48.6054 12.1857 48.6623 12.2135 48.7122 12.2516 48.7622 12.2896 48.8041 12.3372 48.8355 12.3915 48.867 12.4458 48.8875 12.5058 48.8957 12.5681 48.9039 12.6303 48.8998 12.6936 48.8835 12.7542L43.2727 33.6931C43.245 33.7973 43.1827 33.889 43.0962 33.9532 43.0096 34.0175 42.9039 34.0504 42.7961 34.0468zM49.535 8.89698C49.4984 8.89493 49.4622 8.88867 49.427 8.87832 49.3059 8.84517 49.2028 8.76557 49.1401 8.65682 49.0773 8.54806 49.06 8.41894 49.092 8.29751L50.3988 3.42019C50.4311 3.2984 50.5104 3.19438 50.6192 3.13089 50.7281 3.06739 50.8577 3.04959 50.9796 3.08138 51.0403 3.09738 51.0972 3.12521 51.1472 3.16328 51.1971 3.20135 51.239 3.24891 51.2705 3.30323 51.302 3.35755 51.3224 3.41755 51.3306 3.47979 51.3389 3.54203 51.3347 3.60528 51.3184 3.66591L50.0116 8.54321C49.9838 8.64738 49.9216 8.73906 49.8351 8.8033 49.7485 8.86755 49.6427 8.90061 49.535 8.89698zM56.8696 42.2191C56.9532 42.3021 57.0647 42.3512 57.1824 42.3569 57.2488 42.3604 57.3153 42.35 57.3775 42.3263 57.4397 42.3025 57.4963 42.266 57.5435 42.2191L64.1186 35.6441C64.2079 35.5547 64.2581 35.4335 64.2581 35.3071 64.2581 35.1807 64.2079 35.0595 64.1186 34.9702 64.0292 34.8808 63.908 34.8306 63.7816 34.8306 63.6553 34.8306 63.5341 34.8808 63.4447 34.9702L56.8696 41.5452C56.7803 41.6346 56.7301 41.7558 56.7301 41.8822 56.7301 42.0086 56.7803 42.1297 56.8696 42.2191zM62.3203 49.0101C62.2353 49.0116 62.1515 48.9902 62.0775 48.9483 62.0035 48.9064 61.9421 48.8455 61.8996 48.7719 61.8359 48.6627 61.8182 48.5328 61.8504 48.4106 61.8825 48.2885 61.9618 48.184 62.0708 48.1203L63.9361 47.0443C63.9904 47.013 64.0503 46.9926 64.1124 46.9844 64.1746 46.9763 64.2377 46.9804 64.2982 46.9967 64.3587 47.0129 64.4155 47.041 64.4651 47.0792 64.5148 47.1174 64.5565 47.165 64.5877 47.2193 64.6498 47.3285 64.6663 47.4579 64.6336 47.5792 64.6008 47.7006 64.5214 47.804 64.4127 47.8671L62.5474 48.9468C62.4782 48.9866 62.4001 49.0084 62.3203 49.0101zM18.2093 37.1953C18.284 37.2372 18.3686 37.2583 18.4542 37.2562 18.534 37.2544 18.6121 37.2327 18.6813 37.1929 18.7356 37.1616 18.7833 37.12 18.8215 37.0703 18.8597 37.0206 18.8877 36.9639 18.9039 36.9034 18.9202 36.8429 18.9244 36.7797 18.9162 36.7176 18.908 36.6555 18.8877 36.5956 18.8563 36.5413L10.5909 22.2258C10.5597 22.1715 10.518 22.1239 10.4684 22.0857 10.4187 22.0475 10.362 22.0195 10.3014 22.0032 10.2409 21.987 10.1778 21.9828 10.1157 21.991 10.0535 21.9991 9.99363 22.0195 9.93938 22.0508 9.88506 22.0821 9.83744 22.1237 9.79923 22.1734 9.76103 22.2231 9.733 22.2798 9.71675 22.3403 9.70049 22.4008 9.69634 22.464 9.70451 22.5261 9.71268 22.5882 9.73303 22.6481 9.76439 22.7024L18.0298 37.0179C18.0726 37.0921 18.1346 37.1534 18.2093 37.1953zM26.1537 34.0468C26.0549 34.0393 25.961 34.0011 25.885 33.9377 25.8089 33.8744 25.7545 33.7889 25.7292 33.6931L20.1184 12.7542C20.0854 12.6322 20.1021 12.5021 20.165 12.3925 20.2278 12.2829 20.3316 12.2027 20.4535 12.1696 20.5142 12.1533 20.5774 12.1492 20.6397 12.1574 20.7019 12.1656 20.7619 12.1861 20.8162 12.2175 20.8705 12.249 20.9181 12.2909 20.9562 12.3408 20.9942 12.3908 21.0221 12.4477 21.0381 12.5084L26.6488 33.4474C26.6819 33.5693 26.6651 33.6994 26.6023 33.809 26.5395 33.9186 26.4357 33.9988 26.3138 34.0319 26.2616 34.0459 26.2075 34.051 26.1537 34.0468zM19.4148 8.89325C19.3165 8.88594 19.223 8.84836 19.147 8.78569 19.071 8.72301 19.0162 8.63832 18.9903 8.54327L17.6835 3.66595C17.6505 3.54401 17.6672 3.41393 17.73 3.30432 17.7929 3.1947 17.8967 3.11453 18.0186 3.08142 18.0792 3.06513 18.1425 3.06097 18.2047 3.06919 18.267 3.07741 18.327 3.09786 18.3813 3.12934 18.4356 3.16082 18.4832 3.20273 18.5212 3.25265 18.5593 3.30256 18.5871 3.35951 18.6031 3.42022L19.91 8.29755C19.9417 8.41948 19.9239 8.54904 19.8604 8.65789 19.797 8.76674 19.6929 8.84601 19.5711 8.87835 19.5202 8.89192 19.4674 8.89698 19.4148 8.89325zM11.4547 42.2191C11.5383 42.3021 11.6497 42.3512 11.7674 42.3569 11.8339 42.3604 11.9004 42.35 11.9626 42.3263 12.0248 42.3025 12.0813 42.266 12.1286 42.2191 12.2179 42.1297 12.2681 42.0085 12.2681 41.8822 12.2681 41.7558 12.2179 41.6346 12.1286 41.5452L5.55723 34.9701C5.46786 34.8808 5.34666 34.8306 5.22028 34.8306 5.09391 34.8306 4.97271 34.8808 4.88333 34.9701 4.79398 35.0595 4.74379 35.1807 4.74379 35.3071 4.74379 35.4335 4.79398 35.5547 4.88333 35.644L11.4547 42.2191zM6.70769 49.0101C6.6178 49.0137 6.52874 48.9918 6.45079 48.9469L4.58548 47.8671C4.47679 47.804 4.39741 47.7006 4.36464 47.5792 4.33186 47.4579 4.34834 47.3285 4.41049 47.2193 4.44174 47.165 4.48339 47.1174 4.53306 47.0792 4.58273 47.041 4.63945 47.0129 4.69997 46.9967 4.76048 46.9804 4.82361 46.9763 4.88574 46.9844 4.94787 46.9926 5.00777 47.013 5.06203 47.0443L6.92735 48.1203C6.98167 48.1515 7.02929 48.1932 7.06749 48.2429 7.1057 48.2925 7.13373 48.3493 7.14998 48.4098 7.16624 48.4703 7.17039 48.5334 7.16222 48.5956 7.15405 48.6577 7.1337 48.7176 7.10234 48.7719 7.06209 48.8417 7.00477 48.9002 6.93575 48.9419 6.86673 48.9836 6.78826 49.007 6.70769 49.0101z"/><path d="M33.6464 45.6465L30.4645 48.8284C30.2692 49.0237 30.2692 49.3403 30.4645 49.5355C30.6597 49.7308 30.9763 49.7308 31.1716 49.5355L33.5 47.2071V68C33.5 68.2762 33.7239 68.5 34 68.5C34.2761 68.5 34.5 68.2762 34.5 68V47.2071L36.8284 49.5355C37.0237 49.7308 37.3403 49.7308 37.5355 49.5355C37.7308 49.3403 37.7308 49.0237 37.5355 48.8284L34.3536 45.6465C34.1583 45.4512 33.8417 45.4512 33.6464 45.6465Z"/></symbol><symbol viewBox="0 0 21 21" id="svg-angle-left"><path d="M5.28401 10.9219C5.28401 11.2804 5.42087 11.6388 5.69401 11.912L14.2937 20.5116C14.8407 21.0586 15.7276 21.0586 16.2745 20.5116C16.8213 19.9648 16.8213 19.078 16.2745 18.5309L8.66502 10.9219L16.2742 3.31289C16.821 2.76585 16.821 1.87918 16.2742 1.3324C15.7274 0.785093 14.8404 0.785092 14.2934 1.3324L5.69375 9.93182C5.42056 10.2052 5.28401 10.5636 5.28401 10.9219Z"/><defs><clipPath id="bclip0_5_5979"><path fill="#fff" transform="matrix(0 -1 -1 0 20.984 20.922)" d="M0 0H20V20H0z"/></clipPath></defs></symbol><symbol viewBox="0 0 21 21" id="svg-angle-right"><path d="M15.716 10.9219C15.716 11.2804 15.5791 11.6388 15.306 11.912L6.70635 20.5116C6.15931 21.0586 5.27237 21.0586 4.72555 20.5116C4.17872 19.9648 4.17872 19.078 4.72555 18.5309L12.335 10.9219L4.72581 3.31289C4.17899 2.76585 4.17899 1.87918 4.72581 1.3324C5.27263 0.785093 6.15957 0.785092 6.70661 1.3324L15.3063 9.93182C15.5794 10.2052 15.716 10.5636 15.716 10.9219Z"/><defs><clipPath id="cclip0_5_5997"><path fill="#fff" transform="rotate(-90 10.469 10.453)" d="M0 0H20V20H0z"/></clipPath></defs></symbol><symbol viewBox="0 0 18 18" fill="none" id="svg-close"><path d="M1 1L17 17" stroke="#000" stroke-width="1.5" stroke-linecap="round"/><path d="M1 1L17 17" stroke="url(#dpaint0_linear_21_5007)" stroke-width="1.5" stroke-linecap="round"/><path d="M17 1L1 17" stroke="#000" stroke-width="1.5" stroke-linecap="round"/><path d="M17 1L1 17" stroke="url(#dpaint1_linear_21_5007)" stroke-width="1.5" stroke-linecap="round"/><defs><linearGradient id="dpaint0_linear_21_5007" x1="9" y1="1" x2="9" y2="17" gradientUnits="userSpaceOnUse"><stop stop-color="#232323"/><stop offset="1" stop-color="#2C4576"/></linearGradient><linearGradient id="dpaint1_linear_21_5007" x1="9" y1="1" x2="9" y2="17" gradientUnits="userSpaceOnUse"><stop stop-color="#232323"/><stop offset="1" stop-color="#2C4576"/></linearGradient></defs></symbol><symbol viewBox="0 0 437 172" fill="none" id="svg-dashed-line"><path d="M435.266 170.219L340.739 100.628C327.693 91.0243 311.918 85.8438 295.718 85.8438H134.109C116.95 85.8438 100.297 80.0324 86.8633 69.3568L1.4375 1.46875" stroke="#2579D3" stroke-width="2.813" stroke-dasharray="8.44 8.44"/></symbol><symbol viewBox="0 0 30 30" fill="none" id="svg-fbm"><g fill-rule="evenodd" clip-rule="evenodd"><path d="M15 0C6.55002 0 0 6.18961 0 14.55C0 18.923 1.79221 22.7019 4.71082 25.3119C4.95586 25.5312 5.10375 25.8384 5.11377 26.1672L5.19545 28.8354C5.22152 29.6865 6.10066 30.2403 6.87949 29.8965L9.85676 28.5821C10.1091 28.4708 10.392 28.4501 10.6579 28.5233C12.0261 28.8995 13.4822 29.0999 14.9999 29.0999C23.4499 29.0999 29.9999 22.9103 29.9999 14.5499C29.9999 6.18955 23.4499 0 15 0Z" fill="url(#paint0_radial_19_4837)"/><path d="M5.99255 18.8049L10.3988 11.8143C11.0997 10.7022 12.6006 10.4253 13.6522 11.214L17.1567 13.8424C17.4783 14.0836 17.9207 14.0823 18.2409 13.8393L22.9739 10.2473C23.6057 9.76787 24.4302 10.5239 24.0075 11.1948L19.6012 18.1854C18.9003 19.2975 17.3994 19.5745 16.3478 18.7857L12.8432 16.1572C12.5217 15.9161 12.0793 15.9174 11.7591 16.1604L7.02609 19.7524C6.39433 20.2318 5.56968 19.4758 5.99255 18.8049Z" fill="#fff"/></g></symbol><symbol viewBox="0 0 25 20" fill="none" id="svg-tg"><path fill-rule="evenodd" clip-rule="evenodd" d="M2.14935 8.60988C8.58963 5.7874 12.8842 3.92663 15.0329 3.02767C21.1682 0.460832 22.443 0.0149114 23.2739 0.000154495C23.4567 -0.00305731 23.8653 0.042516 24.13 0.258575C24.5226 0.579061 24.5249 1.27472 24.4813 1.73514C24.1488 5.24903 22.7102 13.7762 21.9783 17.7118C21.6686 19.3771 21.0588 19.9355 20.4685 19.9901C19.1857 20.1088 18.2114 19.1372 16.9688 18.318C15.0245 17.0358 13.926 16.2377 12.0386 14.9867C9.85743 13.5409 11.2714 12.7463 12.5144 11.4476C12.8398 11.1077 18.4923 5.93592 18.6018 5.46674C18.6155 5.40806 18.6282 5.18931 18.499 5.07385C18.3698 4.9584 18.1792 4.99781 18.0416 5.02923C17.8466 5.07377 14.7404 7.13896 8.72305 11.2247C7.84135 11.8337 7.04275 12.1305 6.32726 12.1149C5.53842 12.0978 4.02114 11.6663 2.89315 11.2975C1.50963 10.8451 0.410027 10.6059 0.505817 9.83765C0.555697 9.43739 1.10351 9.02819 2.14935 8.60988Z" fill="#fff"/></symbol><symbol viewBox="0 0 29 28" fill="none" id="svg-wu"><path d="M24.4568 4.11834C22.1071 1.76399 18.9867 0.320141 15.6585 0.0472355C12.3302 -0.22567 9.01318 0.690331 6.30573 2.63002C3.59828 4.5697 1.67862 7.40538 0.893023 10.6256C0.107422 13.8457 0.507594 17.2384 2.02136 20.1917L0.535409 27.3487C0.519991 27.4199 0.519554 27.4935 0.534127 27.5649C0.548699 27.6363 0.577967 27.704 0.6201 27.7637C0.681822 27.8542 0.769926 27.924 0.872647 27.9636C0.975368 28.0031 1.08782 28.0107 1.19497 27.9852L8.26541 26.3226C11.2339 27.7864 14.6295 28.1578 17.8481 27.3709C21.0668 26.584 23.8996 24.6898 25.8426 22.0253C27.7855 19.3607 28.7126 16.0988 28.4589 12.8198C28.2051 9.54075 26.787 6.4574 24.4568 4.11834ZM22.2523 21.5742C20.6265 23.1825 18.533 24.2442 16.2668 24.6096C14.0006 24.9751 11.676 24.6258 9.62047 23.611L8.63497 23.1273L4.30032 24.1457L4.31315 24.0922L5.21139 19.7639L4.72891 18.8193C3.67863 16.773 3.30814 14.4494 3.67049 12.1813C4.03284 9.91331 5.10946 7.81723 6.7461 6.19339C8.80257 4.15384 11.5914 3.00809 14.4992 3.00809C17.407 3.00809 20.1958 4.15384 22.2523 6.19339C22.2698 6.21331 22.2887 6.23203 22.3088 6.2494C24.3397 8.29421 25.4735 11.0526 25.4629 13.9233C25.4524 16.794 24.2983 19.5442 22.2523 21.5742Z" fill="#fff"/><path d="M21.8673 18.3992C21.3361 19.2293 20.4969 20.2451 19.4421 20.4972C17.5943 20.9402 14.7584 20.5125 11.2296 17.2484L11.186 17.2102C8.08319 14.3561 7.27734 11.9806 7.47239 10.0965C7.58018 9.02716 8.47842 8.05966 9.23551 7.42823C9.3552 7.32689 9.49714 7.25473 9.64997 7.21753C9.8028 7.18034 9.96228 7.17914 10.1157 7.21402C10.269 7.24891 10.4121 7.31892 10.5333 7.41845C10.6545 7.51798 10.7506 7.64427 10.8138 7.78723L11.9559 10.3333C12.0301 10.4984 12.0576 10.6804 12.0355 10.8598C12.0133 11.0392 11.9423 11.2093 11.8301 11.3517L11.2527 12.0952C11.1288 12.2487 11.054 12.4355 11.038 12.6315C11.022 12.8275 11.0655 13.0238 11.1629 13.1951C11.4862 13.7578 12.2613 14.5852 13.121 15.3516C14.086 16.2173 15.1562 17.0091 15.8337 17.279C16.015 17.3524 16.2143 17.3704 16.406 17.3304C16.5977 17.2905 16.7729 17.1945 16.909 17.0549L17.5789 16.3853C17.7081 16.2589 17.8689 16.1687 18.0447 16.124C18.2205 16.0792 18.4051 16.0816 18.5798 16.1307L21.2925 16.8945C21.4421 16.9401 21.5793 17.0189 21.6935 17.1251C21.8076 17.2313 21.8959 17.362 21.9513 17.5072C22.0068 17.6524 22.0281 17.8083 22.0135 17.9629C21.999 18.1175 21.949 18.2667 21.8673 18.3992Z" fill="#fff"/></symbol></svg>