<svg width="52" height="52" viewBox="0 0 52 52" fill="none" xmlns="http://www.w3.org/2000/svg">
<g clip-path="url(#clip0_290_5810)">
<path d="M41.0107 0H10.9894C4.92014 0 0 4.92009 0 10.9893V41.0107C0 47.0799 4.92014 52 10.9894 52H41.0107C47.0799 52 52 47.0799 52 41.0107V10.9893C52 4.92009 47.0799 0 41.0107 0Z" fill="#68B222"/>
<g clip-path="url(#clip1_290_5810)">
<path d="M17.822 18.6281L15.1475 17.6391C14.9137 17.5527 14.9146 17.2079 15.1488 17.1227L25.05 13.5234C25.495 13.3616 25.9792 13.3605 26.425 13.5202L29.2176 14.5205C29.4538 14.6052 29.4539 14.9532 29.2178 15.0381L19.2095 18.6345C18.7597 18.7962 18.2705 18.7939 17.822 18.6281Z" fill="white" stroke="white"/>
<path d="M25.2982 21.2202L21.9722 19.9686C21.7392 19.8809 21.7416 19.5366 21.9758 19.4525L31.9854 15.8556C32.4453 15.6903 32.9459 15.6965 33.4019 15.873L36.6089 17.1143C36.8396 17.2036 36.8363 17.5448 36.604 17.6293L26.7038 21.2282C26.2483 21.3938 25.752 21.391 25.2982 21.2202Z" fill="white" stroke="white"/>
<path d="M27.3125 37.8526V24.1372C27.3125 23.7796 27.5346 23.4632 27.8615 23.3548L37.8413 20.0457C38.3494 19.8772 38.8681 20.2724 38.8681 20.8281V34.3072C38.8681 34.6585 38.6535 34.9709 38.3344 35.0843L28.3546 38.6298C27.8435 38.8114 27.3125 38.4154 27.3125 37.8526Z" fill="white" stroke="white"/>
<path d="M13.1407 20.4558C13.1351 19.7952 13.7581 19.3272 14.3579 19.5412L16.9317 20.46C17.3298 20.602 17.5956 20.9791 17.5956 21.4018V26.0201C17.5956 26.1538 17.7237 26.2463 17.8438 26.1994L18.7366 25.8504L19.635 26.9572L19.6568 26.9801C19.7714 27.0829 19.9592 27.0008 19.9592 26.8334V22.9598C19.9592 22.2683 20.6442 21.7855 21.2954 22.018L24.4592 23.1475L24.5275 23.175C24.861 23.3259 25.0804 23.6698 25.0804 24.0535V37.8404C25.0804 38.4804 24.4923 38.9343 23.9119 38.7625L23.8558 38.7437L13.8711 35.0784C13.529 34.9528 13.2918 34.6304 13.2607 34.2584L13.2574 34.1833L13.1407 20.4558Z" fill="white"/>
</g>
</g>
<defs>
<clipPath id="clip0_290_5810">
<rect width="52" height="52" fill="white"/>
</clipPath>
<clipPath id="clip1_290_5810">
<rect width="26" height="26" fill="white" transform="translate(13 13)"/>
</clipPath>
</defs>
</svg>
