<svg width="52" height="52" viewBox="0 0 52 52" fill="none" xmlns="http://www.w3.org/2000/svg">
<g clip-path="url(#clip0_290_5813)">
<path d="M41.0107 0H10.9894C4.92014 0 0 4.92009 0 10.9893V41.0107C0 47.0799 4.92014 52 10.9894 52H41.0107C47.0799 52 52 47.0799 52 41.0107V10.9893C52 4.92009 47.0799 0 41.0107 0Z" fill="#68B222"/>
<g clip-path="url(#clip1_290_5813)">
<path d="M15.5394 29.8691C17.685 29.8691 19.4244 31.6707 19.4244 33.8929C19.4244 36.1152 17.685 37.9168 15.5394 37.9168C13.3937 37.9168 11.6543 36.1152 11.6543 33.8929C11.6543 31.6707 13.3937 29.8691 15.5394 29.8691ZM15.5394 32.3453C14.7141 32.3453 14.0451 33.0382 14.0451 33.8929C14.0451 34.7477 14.7141 35.4406 15.5394 35.4406C16.3646 35.4406 17.0336 34.7477 17.0336 33.8929C17.0336 33.0382 16.3646 32.3453 15.5394 32.3453Z" fill="white"/>
<path d="M37.0589 29.8691C39.2046 29.8691 40.9439 31.6707 40.9439 33.8929C40.9439 36.1152 39.2046 37.9168 37.0589 37.9168C34.9132 37.9168 33.1738 36.1152 33.1738 33.8929C33.1738 31.6707 34.9132 29.8691 37.0589 29.8691ZM37.0589 32.3453C36.2336 32.3453 35.5646 33.0382 35.5646 33.8929C35.5646 34.7477 36.2336 35.4406 37.0589 35.4406C37.8841 35.4406 38.5531 34.7477 38.5531 33.8929C38.5531 33.0382 37.8841 32.3453 37.0589 32.3453Z" fill="white"/>
<path d="M30.3336 33.8927H17.0348M30.3336 33.8927H35.4141M30.3336 33.8927V26.3868V18.8808M30.3336 18.8808V16.0951C30.3336 15.2404 29.6646 14.5475 28.8394 14.5475H10.6095C9.78424 14.5475 9.11523 15.2404 9.11523 16.0951V32.3451C9.11523 33.1998 9.78424 33.8927 10.6095 33.8927H13.8968M30.3336 18.8808H37.1208C37.8273 18.8808 38.486 19.2501 38.8724 19.8628L42.6944 25.9242C42.9164 26.2765 43.0348 26.6882 43.0348 27.109V32.3451C43.0348 33.1998 42.3657 33.8927 41.5405 33.8927H38.8509" stroke="white" stroke-width="2"/>
<path d="M36.8979 21.2025H33.4727C33.1426 21.2025 32.875 21.4797 32.875 21.8216V26.1549C32.875 26.4968 33.1426 26.7739 33.4727 26.7739H39.557C40.0286 26.7739 40.3143 26.235 40.0615 25.8228L37.4024 21.4895C37.2927 21.3108 37.1024 21.2025 36.8979 21.2025Z" fill="white"/>
<path d="M14.9437 17.1786H11.6563C11.3262 17.1786 11.0586 17.4557 11.0586 17.7976C11.0586 18.1395 11.3262 18.4167 11.6563 18.4167H14.9437C15.2738 18.4167 15.5414 18.1395 15.5414 17.7976C15.5414 17.4557 15.2738 17.1786 14.9437 17.1786Z" fill="white"/>
<path d="M17.9318 17.1786H16.7364C16.4063 17.1786 16.1387 17.4557 16.1387 17.7976C16.1387 18.1395 16.4063 18.4167 16.7364 18.4167H17.9318C18.2619 18.4167 18.5295 18.1395 18.5295 17.7976C18.5295 17.4557 18.2619 17.1786 17.9318 17.1786Z" fill="white"/>
<path d="M40.653 37.9166H11.1357C10.831 37.9166 10.584 38.1938 10.584 38.5357C10.584 38.8776 10.831 39.1547 11.1357 39.1547H40.653C40.9577 39.1547 41.2047 38.8776 41.2047 38.5357C41.2047 38.1938 40.9577 37.9166 40.653 37.9166Z" fill="white"/>
</g>
</g>
<defs>
<clipPath id="clip0_290_5813">
<rect width="52" height="52" fill="white"/>
</clipPath>
<clipPath id="clip1_290_5813">
<rect width="36.8333" height="27.0833" fill="white" transform="translate(7.58398 13)"/>
</clipPath>
</defs>
</svg>
