<svg width="52" height="52" viewBox="0 0 52 52" fill="none" xmlns="http://www.w3.org/2000/svg">
<g clip-path="url(#clip0_290_5816)">
<path d="M41.0107 0H10.9894C4.92014 0 0 4.92009 0 10.9893V41.0107C0 47.0799 4.92014 52 10.9894 52H41.0107C47.0799 52 52 47.0799 52 41.0107V10.9893C52 4.92009 47.0799 0 41.0107 0Z" fill="#68B222"/>
<path fill-rule="evenodd" clip-rule="evenodd" d="M26.6823 12.0805C26.5596 12.0296 26.4217 12.0296 26.299 12.0806L12.3082 17.8907C12.1216 17.9682 12 18.1504 12 18.3525V21.6958C12 21.972 12.2239 22.1958 12.5 22.1958H14.3531C14.6292 22.1958 14.8531 22.4197 14.8531 22.6958V41H17.6274V26.5786C17.6274 26.3024 17.8513 26.0786 18.1274 26.0786H34.8727C35.1488 26.0786 35.3727 26.3024 35.3727 26.5786V41H38.1469V22.6949C38.1469 22.4188 38.3708 22.1949 38.6469 22.1949H40.5C40.7761 22.1949 41 21.9711 41 21.6949V18.3517C41 18.1495 40.8783 17.9673 40.6915 17.8898L26.6823 12.0805ZM17.587 22.738C17.587 22.4619 17.8109 22.238 18.087 22.238H21.7781C22.0542 22.238 22.2781 22.4619 22.2781 22.738V23.6133C22.2781 23.8894 22.0542 24.1133 21.7781 24.1133H18.087C17.8109 24.1133 17.587 23.8894 17.587 23.6133V22.738ZM24.1545 22.738C24.1545 22.4619 24.3783 22.238 24.6545 22.238H28.3455C28.6217 22.238 28.8455 22.4619 28.8455 22.738V23.6133C28.8455 23.8894 28.6217 24.1133 28.3455 24.1133H24.6545C24.3783 24.1133 24.1545 23.8894 24.1545 23.6133V22.738ZM30.7219 22.738C30.7219 22.4619 30.9458 22.238 31.2219 22.238H34.913C35.1891 22.238 35.413 22.4619 35.413 22.738V23.6133C35.413 23.8894 35.1891 24.1133 34.913 24.1133H31.2219C30.9458 24.1133 30.7219 23.8894 30.7219 23.6133V22.738ZM21.8821 31.1549C21.6059 31.1549 21.3821 31.3788 21.3821 31.6549V34.8743C21.3821 35.1504 21.6059 35.3743 21.8821 35.3743H25.5731C25.8492 35.3743 26.0731 35.1504 26.0731 34.8743V31.6549C26.0731 31.3788 25.8492 31.1549 25.5731 31.1549H21.8821ZM21.8821 36.3119C21.6059 36.3119 21.3821 36.5357 21.3821 36.8119V40.5C21.3821 40.7762 21.6059 41 21.8821 41H25.5731C25.8492 41 26.0731 40.7762 26.0731 40.5V36.8119C26.0731 36.5357 25.8492 36.3119 25.5731 36.3119H21.8821ZM27.5113 36.3119C27.2352 36.3119 27.0113 36.5357 27.0113 36.8119V40.5C27.0113 40.7762 27.2352 41 27.5113 41H31.2023C31.4785 41 31.7023 40.7762 31.7023 40.5V36.8119C31.7023 36.5357 31.4785 36.3119 31.2023 36.3119H27.5113Z" fill="white"/>
</g>
<defs>
<clipPath id="clip0_290_5816">
<rect width="52" height="52" fill="white"/>
</clipPath>
</defs>
</svg>
