<svg width="52" height="52" viewBox="0 0 52 52" fill="none" xmlns="http://www.w3.org/2000/svg">
<g clip-path="url(#clip0_290_5824)">
<path d="M41.0107 0H10.9894C4.92014 0 0 4.92009 0 10.9893V41.0107C0 47.0799 4.92014 52 10.9894 52H41.0107C47.0799 52 52 47.0799 52 41.0107V10.9893C52 4.92009 47.0799 0 41.0107 0Z" fill="#68B222"/>
<path d="M12.6434 30.525C14.1775 30.525 15.6488 31.1344 16.7335 32.2192C17.8183 33.304 18.4277 34.7752 18.4277 36.3093" stroke="#F5F5FD" stroke-width="1.2" stroke-miterlimit="10" stroke-linecap="round" stroke-linejoin="round"/>
<path d="M18.4277 19.1426C18.4277 20.6767 17.8183 22.1479 16.7335 23.2327C15.6488 24.3175 14.1775 24.9269 12.6434 24.9269" stroke="#F5F5FD" stroke-width="1.2" stroke-miterlimit="10" stroke-linecap="round" stroke-linejoin="round"/>
<path d="M42.25 24.9269C40.7159 24.9269 39.2446 24.3175 38.1599 23.2327C37.0751 22.1479 36.4657 20.6767 36.4657 19.1426" stroke="#F5F5FD" stroke-width="1.2" stroke-miterlimit="10" stroke-linecap="round" stroke-linejoin="round"/>
<path d="M36.4657 36.3093C36.4657 35.5497 36.6153 34.7976 36.906 34.0958C37.1967 33.394 37.6227 32.7563 38.1599 32.2192C38.697 31.6821 39.3346 31.256 40.0364 30.9653C40.7382 30.6746 41.4904 30.525 42.25 30.525" stroke="#F5F5FD" stroke-width="1.2" stroke-miterlimit="10" stroke-linecap="round" stroke-linejoin="round"/>
<path d="M14.6445 18.543C13.2086 18.543 12.0449 19.7066 12.0449 21.1426V34.3096C12.0451 35.7453 13.2087 36.9092 14.6445 36.9092H40.25C41.6858 36.9092 42.8494 35.7453 42.8496 34.3096V21.1426C42.8496 19.7066 41.6859 18.543 40.25 18.543H14.6445ZM27.4473 21.8193C27.7786 21.8193 28.0469 22.0876 28.0469 22.4189V22.7725C28.2083 22.8078 28.3674 22.8561 28.5215 22.9199C29.0348 23.1326 29.4745 23.4931 29.7832 23.9551C30.0917 24.417 30.2558 24.9602 30.2559 25.5156C30.2559 25.8469 29.9875 26.1151 29.6562 26.1152C29.3249 26.1152 29.0566 25.847 29.0566 25.5156C29.0566 25.1973 28.962 24.8858 28.7852 24.6211C28.6083 24.3564 28.3566 24.1502 28.0625 24.0283C28.0574 24.0262 28.052 24.0245 28.0469 24.0225V27.1904C28.3888 27.2652 28.7159 27.4033 29.0098 27.5996C29.4716 27.9083 29.8313 28.3471 30.0439 28.8604C30.2566 29.3736 30.3124 29.9385 30.2041 30.4834C30.0957 31.0284 29.8285 31.5299 29.4355 31.9229C29.0549 32.3035 28.5721 32.5641 28.0469 32.6787V33.0332C28.0467 33.3644 27.7785 33.6328 27.4473 33.6328C27.116 33.6328 26.8479 33.3644 26.8477 33.0332V32.6777C26.6863 32.6424 26.5271 32.5951 26.373 32.5312C25.8598 32.3186 25.421 31.9589 25.1123 31.4971C24.8036 31.035 24.6387 30.4913 24.6387 29.9355C24.6388 29.6043 24.907 29.3359 25.2383 29.3359C25.5696 29.3359 25.8378 29.6043 25.8379 29.9355C25.8379 30.2539 25.9326 30.5654 26.1094 30.8301C26.2862 31.0948 26.5379 31.301 26.832 31.4229C26.8372 31.425 26.8425 31.4266 26.8477 31.4287V28.2598C26.5056 28.1852 26.1787 28.0481 25.8848 27.8516C25.4228 27.5427 25.0622 27.1042 24.8496 26.5908C24.6371 26.0774 24.5819 25.5118 24.6904 24.9668C24.799 24.4219 25.067 23.9211 25.46 23.5283C25.8407 23.1479 26.3225 22.886 26.8477 22.7715V22.4189C26.8477 22.0876 27.1159 21.8193 27.4473 21.8193ZM28.0469 31.4287C28.2479 31.3481 28.4323 31.2288 28.5869 31.0742C28.8119 30.8491 28.9652 30.5621 29.0273 30.25C29.0894 29.9377 29.0574 29.6135 28.9355 29.3193C28.8137 29.0253 28.6074 28.7735 28.3428 28.5967C28.2497 28.5345 28.1497 28.4855 28.0469 28.4443V31.4287ZM26.8477 24.0215C26.6464 24.102 26.4622 24.2225 26.3076 24.377C26.0826 24.602 25.9294 24.8891 25.8672 25.2012C25.805 25.5134 25.8373 25.8377 25.959 26.1318C26.0808 26.4259 26.2872 26.6776 26.5518 26.8545C26.6451 26.9168 26.7444 26.9684 26.8477 27.0098V24.0215Z" fill="white"/>
<path d="M12.6425 33.4147H11.75C10.6454 33.4147 9.75 32.5193 9.75 31.4147V18.25C9.75 17.1454 10.6454 16.25 11.75 16.25H37.3555C38.46 16.25 39.3555 17.1454 39.3555 18.25V19.1425" stroke="#F5F5FD" stroke-width="1.2" stroke-miterlimit="10" stroke-linecap="round" stroke-linejoin="round"/>
</g>
<defs>
<clipPath id="clip0_290_5824">
<rect width="52" height="52" fill="white"/>
</clipPath>
</defs>
</svg>
