<svg width="52" height="52" viewBox="0 0 52 52" fill="none" xmlns="http://www.w3.org/2000/svg">
<g clip-path="url(#clip0_290_5827)">
<path d="M41.0107 0H10.9894C4.92014 0 0 4.92009 0 10.9893V41.0107C0 47.0799 4.92014 52 10.9894 52H41.0107C47.0799 52 52 47.0799 52 41.0107V10.9893C52 4.92009 47.0799 0 41.0107 0Z" fill="#68B222"/>
<g clip-path="url(#clip1_290_5827)">
<path d="M33.4369 14.8249V20.5777L34.0518 19.9357H15.4742C14.8255 19.9357 14.2015 20.2567 13.8818 20.8635C13.6666 21.2679 13.6573 21.6885 13.6573 22.1283V30.7736L14.2722 30.1316H11.5054C11.4962 30.1316 11.3763 30.1316 11.3763 30.1251L11.4593 30.1348C11.4316 30.1284 11.407 30.122 11.3793 30.1156C11.3547 30.1091 11.3271 30.0994 11.3025 30.0898C11.241 30.0641 11.2533 30.0706 11.3363 30.1091C11.3363 30.1123 11.2379 30.0545 11.2318 30.0513C11.1057 29.9743 11.2318 30.0546 11.2256 30.0577C11.2195 30.0641 11.0535 29.8908 11.0596 29.8844C11.075 29.8684 11.1334 30.0031 11.0873 29.9133C11.0688 29.878 11.0473 29.8394 11.0289 29.8041C11.0627 29.939 10.9612 29.6821 11.0289 29.8041C11.0258 29.7913 10.9828 29.6404 10.9889 29.6404L10.9981 29.7271C10.9951 29.6982 10.992 29.6693 10.992 29.6404C10.9889 29.5858 10.992 29.6115 10.992 29.5955V29.5569C10.9858 28.4462 10.992 27.3322 10.992 26.2214V14.7831C10.992 14.7671 10.9951 14.7543 10.9951 14.7382C11.0012 14.6676 11.0012 14.6804 10.9889 14.7799C10.9858 14.7799 11.0258 14.6291 11.0289 14.6162C11.0627 14.4782 10.9612 14.735 11.0289 14.6162C11.0504 14.5809 11.0688 14.5456 11.0873 14.5071C11.1518 14.3851 10.992 14.6066 11.0873 14.5039C11.115 14.475 11.1395 14.4428 11.1703 14.414C11.2748 14.3112 11.1703 14.414 11.1672 14.4107C11.1641 14.4075 11.2594 14.3498 11.2687 14.3433C11.3978 14.2695 11.2656 14.3401 11.2656 14.3369C11.2656 14.3305 11.364 14.3016 11.3824 14.2984C11.3947 14.2952 11.4101 14.292 11.4224 14.2888C11.49 14.2759 11.4746 14.2759 11.3793 14.292C11.3793 14.2855 11.4962 14.2855 11.5054 14.2855H30.8238C31.5247 14.2855 32.2256 14.2759 32.9265 14.2855C32.9419 14.2855 33.0556 14.2823 33.0556 14.292C33.0588 14.308 32.9081 14.2502 33.0342 14.2952C33.0649 14.3048 33.0988 14.3144 33.1326 14.3241C33.2647 14.3594 33.0188 14.2534 33.1326 14.3241C33.1664 14.3465 33.2002 14.3658 33.2371 14.3851C33.3539 14.4525 33.1418 14.2855 33.2401 14.3851C33.2678 14.414 33.2985 14.4396 33.3263 14.4717C33.4246 14.5809 33.3263 14.4717 33.3293 14.4685C33.3323 14.4653 33.3877 14.5648 33.3939 14.5745C33.4646 14.7093 33.3969 14.5713 33.4 14.5713C33.4061 14.5713 33.4338 14.6836 33.4369 14.6933C33.44 14.7061 33.443 14.7221 33.4461 14.735C33.4584 14.8056 33.4584 14.7896 33.443 14.69C33.4369 14.6933 33.4369 14.8152 33.4369 14.8249C33.443 15.162 33.7166 15.483 34.0518 15.4669C34.3807 15.4509 34.6727 15.1844 34.6666 14.8249C34.6481 13.8233 33.8827 13.0175 32.9204 13.0014H12.1325C11.9204 13.0014 11.7114 12.9982 11.4992 13.0014C10.7338 13.0143 10.0789 13.5183 9.833 14.2727C9.75922 14.4942 9.75 14.7286 9.75 14.9597V29.5826C9.75922 30.3692 10.2234 31.0434 10.9274 31.313C11.281 31.4478 11.6775 31.4124 12.0464 31.4124H14.266C14.598 31.4124 14.8809 31.1171 14.8809 30.7705V24.4815C14.8809 23.5922 14.8778 22.7062 14.8809 21.8169V21.7334C14.8809 21.7046 14.8839 21.6757 14.887 21.6468C14.8901 21.5601 14.8532 21.7688 14.8839 21.6885C14.9024 21.6403 14.9178 21.5761 14.927 21.5248C14.9424 21.4445 14.8686 21.6307 14.9116 21.5633C14.9301 21.5344 14.9424 21.5023 14.9577 21.4734C14.9547 21.4798 15.0008 21.4028 15.0008 21.4028C15.0131 21.4092 14.9116 21.5055 14.9762 21.4349L15.0868 21.3193C15.1699 21.2358 15.0592 21.3482 15.0561 21.345C15.0561 21.345 15.1145 21.3065 15.1237 21.3001C15.1453 21.2872 15.1699 21.2744 15.1944 21.2583C15.3051 21.1909 15.0715 21.2936 15.1944 21.2583C15.2037 21.2551 15.3512 21.2102 15.3512 21.2166C15.3512 21.2262 15.1883 21.2262 15.3113 21.223C15.3389 21.223 15.3666 21.2198 15.3943 21.2198H15.4004C15.5203 21.2166 15.6402 21.2198 15.7601 21.2198H34.0486C34.3807 21.2198 34.6635 20.9244 34.6635 20.5777V14.8249C34.6635 14.4878 34.3807 14.1668 34.0486 14.1828C33.7197 14.1989 33.4369 14.4653 33.4369 14.8249Z" fill="white"/>
<path d="M37.916 18.9584C39.4118 18.9584 40.6244 20.1709 40.6244 21.6667V34.6667C40.6244 36.1625 39.4118 37.375 37.916 37.375H16.2493C14.7536 37.375 13.541 36.1625 13.541 34.6667V21.6667C13.541 20.1709 14.7536 18.9584 16.2493 18.9584H37.916ZM16.791 32.5C16.4919 32.5 16.2493 32.7426 16.2493 33.0417C16.2493 33.3408 16.4919 33.5834 16.791 33.5834H20.041C20.3402 33.5834 20.5827 33.3408 20.5827 33.0417C20.5827 32.7426 20.3402 32.5 20.041 32.5H16.791ZM22.2077 32.5C21.9086 32.5 21.666 32.7426 21.666 33.0417C21.666 33.3408 21.9086 33.5834 22.2077 33.5834H25.4577C25.7568 33.5834 25.9994 33.3408 25.9994 33.0417C25.9994 32.7426 25.7568 32.5 25.4577 32.5H22.2077ZM27.6244 32.5C27.3252 32.5 27.0827 32.7426 27.0827 33.0417C27.0827 33.3408 27.3252 33.5834 27.6244 33.5834H30.8744C31.1735 33.5834 31.416 33.3408 31.416 33.0417C31.416 32.7426 31.1735 32.5 30.8744 32.5H27.6244ZM33.041 32.5C32.7419 32.5 32.4994 32.7426 32.4994 33.0417C32.4994 33.3408 32.7419 33.5834 33.041 33.5834H36.291C36.5901 33.5834 36.8327 33.3408 36.8327 33.0417C36.8327 32.7426 36.5901 32.5 36.291 32.5H33.041ZM17.3327 21.6667C16.7344 21.6667 16.2493 22.1517 16.2493 22.75V26C16.2493 26.5984 16.7344 27.0834 17.3327 27.0834H20.5827C21.181 27.0834 21.666 26.5984 21.666 26V22.75C21.666 22.1517 21.181 21.6667 20.5827 21.6667H17.3327Z" fill="white"/>
<path d="M34.125 17.3334H10.2917C9.99251 17.3334 9.75 17.5759 9.75 17.875C9.75 18.1742 9.99251 18.4167 10.2917 18.4167H34.125C34.4242 18.4167 34.6667 18.1742 34.6667 17.875C34.6667 17.5759 34.4242 17.3334 34.125 17.3334Z" fill="white"/>
</g>
</g>
<defs>
<clipPath id="clip0_290_5827">
<rect width="52" height="52" fill="white"/>
</clipPath>
<clipPath id="clip1_290_5827">
<rect width="31.4167" height="24.9167" fill="white" transform="translate(9.75 13)"/>
</clipPath>
</defs>
</svg>
