<svg width="22" height="20" viewBox="0 0 22 20" fill="none" xmlns="http://www.w3.org/2000/svg">
<path d="M0 2V0H6V2H0Z" fill="#C4C4C4"/>
<path d="M21 4H4C4 4 3 4.5 3 5.5C3 6.5 4 7 4 7H21C21 7 22 6.5 22 5.5C22 4.5 21 4 21 4Z" fill="#C4C4C4"/>
<path d="M19 8H5C5 8 4 8.5 4 9.5C4 10.5 5 11 5 11H19C19 11 20 10.5 20 9.5C20 8.5 19 8 19 8Z" fill="#C4C4C4"/>
<path d="M17 12H6C6 12 5 12.5 5 13.5C5 14.5 6 15 6 15H17C17 15 18 14.5 18 13.5C18 12.5 17 12 17 12Z" fill="#C4C4C4"/>
<path d="M8 16C6.89543 16 6 16.8954 6 18C6 19.1046 6.89543 20 8 20C9.10457 20 10 19.1046 10 18C10 16.8954 9.10457 16 8 16Z" fill="#C4C4C4"/>
<path d="M14 16C12.8954 16 12 16.8954 12 18C12 19.1046 12.8954 20 14 20C15.1046 20 16 19.1046 16 18C16 16.8954 15.1046 16 14 16Z" fill="#C4C4C4"/>
</svg>
