<svg style="display: none;" aria-hidden="true" xmlns="http://www.w3.org/2000/svg" xmlns:xlink="http://www.w3.org/1999/xlink"><symbol id="svg-comments-navigation-leftarrow37x47" viewBox="0 0 37 47" xml:space="preserve"><style>.st0{fill:#1d1d1b}</style><path class="ast0" d="M15 23L15 22 16 22 16 21 17 21 17 21 17 21 17 20 18 20 18 20 18 20 18 19 19 19 19 18 20 18 20 17 21 17 21 17 21 17 21 16 22 16 22 16 22 16 22 15 23 15 23 14 24 14 24 13 25 13 25 13 25 13 25 12 26 12 26 12 26 12 26 11 27 11 27 10 28 10 28 9 29 9 29 9 29 9 29 8 30 8 30 8 30 8 30 7 31 7 31 6 32 6 32 5 33 5 33 5 33 5 33 4 34 4 34 4 34 4 34 3 35 3 35 2 36 2 36 1 37 1 37 0 34.5 0 34 0 33.75 0 31.5 0 31.25 0 30.75 0 28.5 0 28.25 0 26 0 25.5 0 23 0 23 1 22 1 22 2 21 2 21 3 20 3 20 3 20 3 20 4 19 4 19 4 19 4 19 5 18 5 18 6 17 6 17 7 16 7 16 7 16 7 16 8 15 8 15 8 15 8 15 9 14 9 14 10 13 10 13 11 12 11 12 11 12 11 12 12 11 12 11 12 11 12 11 13 10 13 10 14 9 14 9 15 8 15 8 15 8 15 8 16 7 16 7 16 7 16 7 17 6 17 6 18 5 18 5 19 4 19 4 19 4 19 4 20 3 20 3 20 3 20 3 21 2 21 2 22 1 22 1 23 0 23 0 24 1 24 1 25 2 25 2 26 3 26 3 27 3 27 3 27 4 27 4 28 4 28 5 28 5 29 5 29 5 29 6 29 6 30 6 30 6 30 7 30 7 31 7 31 7 31 8 31 8 32 8 32 9 32 9 33 9 33 9 33 10 33 10 34 10 34 10 34 11 34 11 35 11 35 11 35 12 35 12 36 12 36 13 36 13 37 13 37 13 37 14 37 14 38 14 38 14 38 15 38 15 39 15 39 15 39 16 39 16 40 16 40 17 40 17 41 17 41 17 41 18 41 18 42 18 42 18 42 19 42 19 43 19 43 19 43 20 43 20 44 20 44 21 44 21 45 21 45 21 45 22 45 22 46 22 46 22 46 23 46 23 47 25.5 47 26 47 28.25 47 28.5 47 30.75 47 31.25 47 31.5 47 33.75 47 34 47 34.5 47 37 47 37 46 36 46 36 45 36 45 36 45 35 45 35 44 35 44 35 44 34 44 34 43 34 43 33 43 33 42 33 42 33 42 32 42 32 41 32 41 32 41 31 41 31 40 31 40 31 40 30 40 30 39 30 39 29 39 29 38 29 38 29 38 28 38 28 37 28 37 28 37 27 37 27 36 27 36 27 36 26 36 26 35 26 35 25 35 25 34 25 34 25 34 24 34 24 33 24 33 24 33 23 33 23 32 23 32 23 32 22 32 22 31 22 31 21 31 21 30 21 30 21 30 20 30 20 29 20 29 20 29 19 29 19 28 19 28 19 28 18 28 18 27 18 27 17 27 17 26 17 26 17 26 16 26 16 25 15 25 15 24 14 24 14 23z"/></symbol><symbol id="svg-comments-navigation-rightarrow37x47" viewBox="0 0 37 47" xml:space="preserve"><style>.st0{fill:#1d1d1b}</style><path class="bst0" d="M22 24L22 25 21 25 21 26 20 26 20 26 20 26 20 27 19 27 19 27 19 27 19 28 18 28 18 29 17 29 17 30 16 30 16 30 16 30 16 31 15 31 15 31 15 31 15 32 14 32 14 33 13 33 13 34 12 34 12 34 12 34 12 35 11 35 11 35 11 35 11 36 10 36 10 37 9 37 9 38 8 38 8 38 8 38 8 39 7 39 7 39 7 39 7 40 6 40 6 41 5 41 5 42 4 42 4 42 4 42 4 43 3 43 3 43 3 43 3 44 2 44 2 45 1 45 1 46 0 46 0 47 2.5 47 3 47 3.25 47 5.5 47 5.75 47 6.25 47 8.5 47 8.75 47 11 47 11.5 47 14 47 14 46 15 46 15 45 16 45 16 44 17 44 17 44 17 44 17 43 18 43 18 43 18 43 18 42 19 42 19 41 20 41 20 40 21 40 21 40 21 40 21 39 22 39 22 39 22 39 22 38 23 38 23 37 24 37 24 36 25 36 25 36 25 36 25 35 26 35 26 35 26 35 26 34 27 34 27 33 28 33 28 32 29 32 29 32 29 32 29 31 30 31 30 31 30 31 30 30 31 30 31 29 32 29 32 28 33 28 33 28 33 28 33 27 34 27 34 27 34 27 34 26 35 26 35 25 36 25 36 24 37 24 37 23 36 23 36 22 35 22 35 21 34 21 34 20 34 20 34 20 33 20 33 19 33 19 32 19 32 18 32 18 32 18 31 18 31 17 31 17 31 17 30 17 30 16 30 16 30 16 29 16 29 15 29 15 28 15 28 14 28 14 28 14 27 14 27 13 27 13 27 13 26 13 26 12 26 12 26 12 25 12 25 11 25 11 24 11 24 10 24 10 24 10 23 10 23 9 23 9 23 9 22 9 22 8 22 8 22 8 21 8 21 7 21 7 20 7 20 6 20 6 20 6 19 6 19 5 19 5 19 5 18 5 18 4 18 4 18 4 17 4 17 3 17 3 16 3 16 2 16 2 16 2 15 2 15 1 15 1 15 1 14 1 14 0 11.5 0 11 0 8.75 0 8.5 0 6.25 0 5.75 0 5.5 0 3.25 0 3 0 2.5 0 0 0 0 1 1 1 1 2 1 2 1 2 2 2 2 3 2 3 2 3 3 3 3 4 3 4 4 4 4 5 4 5 4 5 5 5 5 6 5 6 5 6 6 6 6 7 6 7 6 7 7 7 7 8 7 8 8 8 8 9 8 9 8 9 9 9 9 10 9 10 9 10 10 10 10 11 10 11 10 11 11 11 11 12 11 12 12 12 12 13 12 13 12 13 13 13 13 14 13 14 13 14 14 14 14 15 14 15 14 15 15 15 15 16 15 16 16 16 16 17 16 17 16 17 17 17 17 18 17 18 17 18 18 18 18 19 18 19 18 19 19 19 19 20 19 20 20 20 20 21 20 21 20 21 21 21 21 22 22 22 22 23 23 23 23 24z"/></symbol></svg>