<svg style="display: none;" aria-hidden="true" xmlns="http://www.w3.org/2000/svg" xmlns:xlink="http://www.w3.org/1999/xlink"><symbol id="svg-seawolf-comments-navigation-leftarrow37x47" viewBox="0 0 37 47" xml:space="preserve"><style>.st0{fill:#1d1d1b}</style><path class="ast0" d="M15 23L15 22 16 22 16 21 17 21 17 21 17 21 17 20 18 20 18 20 18 20 18 19 19 19 19 18 20 18 20 17 21 17 21 17 21 17 21 16 22 16 22 16 22 16 22 15 23 15 23 14 24 14 24 13 25 13 25 13 25 13 25 12 26 12 26 12 26 12 26 11 27 11 27 10 28 10 28 9 29 9 29 9 29 9 29 8 30 8 30 8 30 8 30 7 31 7 31 6 32 6 32 5 33 5 33 5 33 5 33 4 34 4 34 4 34 4 34 3 35 3 35 2 36 2 36 1 37 1 37 0 34.5 0 34 0 33.75 0 31.5 0 31.25 0 30.75 0 28.5 0 28.25 0 26 0 25.5 0 23 0 23 1 22 1 22 2 21 2 21 3 20 3 20 3 20 3 20 4 19 4 19 4 19 4 19 5 18 5 18 6 17 6 17 7 16 7 16 7 16 7 16 8 15 8 15 8 15 8 15 9 14 9 14 10 13 10 13 11 12 11 12 11 12 11 12 12 11 12 11 12 11 12 11 13 10 13 10 14 9 14 9 15 8 15 8 15 8 15 8 16 7 16 7 16 7 16 7 17 6 17 6 18 5 18 5 19 4 19 4 19 4 19 4 20 3 20 3 20 3 20 3 21 2 21 2 22 1 22 1 23 0 23 0 24 1 24 1 25 2 25 2 26 3 26 3 27 3 27 3 27 4 27 4 28 4 28 5 28 5 29 5 29 5 29 6 29 6 30 6 30 6 30 7 30 7 31 7 31 7 31 8 31 8 32 8 32 9 32 9 33 9 33 9 33 10 33 10 34 10 34 10 34 11 34 11 35 11 35 11 35 12 35 12 36 12 36 13 36 13 37 13 37 13 37 14 37 14 38 14 38 14 38 15 38 15 39 15 39 15 39 16 39 16 40 16 40 17 40 17 41 17 41 17 41 18 41 18 42 18 42 18 42 19 42 19 43 19 43 19 43 20 43 20 44 20 44 21 44 21 45 21 45 21 45 22 45 22 46 22 46 22 46 23 46 23 47 25.5 47 26 47 28.25 47 28.5 47 30.75 47 31.25 47 31.5 47 33.75 47 34 47 34.5 47 37 47 37 46 36 46 36 45 36 45 36 45 35 45 35 44 35 44 35 44 34 44 34 43 34 43 33 43 33 42 33 42 33 42 32 42 32 41 32 41 32 41 31 41 31 40 31 40 31 40 30 40 30 39 30 39 29 39 29 38 29 38 29 38 28 38 28 37 28 37 28 37 27 37 27 36 27 36 27 36 26 36 26 35 26 35 25 35 25 34 25 34 25 34 24 34 24 33 24 33 24 33 23 33 23 32 23 32 23 32 22 32 22 31 22 31 21 31 21 30 21 30 21 30 20 30 20 29 20 29 20 29 19 29 19 28 19 28 19 28 18 28 18 27 18 27 17 27 17 26 17 26 17 26 16 26 16 25 15 25 15 24 14 24 14 23z"/></symbol><symbol id="svg-seawolf-comments-navigation-rightarrow37x47" viewBox="0 0 37 47" xml:space="preserve"><style>.st0{fill:#1d1d1b}</style><path class="bst0" d="M22 24L22 25 21 25 21 26 20 26 20 26 20 26 20 27 19 27 19 27 19 27 19 28 18 28 18 29 17 29 17 30 16 30 16 30 16 30 16 31 15 31 15 31 15 31 15 32 14 32 14 33 13 33 13 34 12 34 12 34 12 34 12 35 11 35 11 35 11 35 11 36 10 36 10 37 9 37 9 38 8 38 8 38 8 38 8 39 7 39 7 39 7 39 7 40 6 40 6 41 5 41 5 42 4 42 4 42 4 42 4 43 3 43 3 43 3 43 3 44 2 44 2 45 1 45 1 46 0 46 0 47 2.5 47 3 47 3.25 47 5.5 47 5.75 47 6.25 47 8.5 47 8.75 47 11 47 11.5 47 14 47 14 46 15 46 15 45 16 45 16 44 17 44 17 44 17 44 17 43 18 43 18 43 18 43 18 42 19 42 19 41 20 41 20 40 21 40 21 40 21 40 21 39 22 39 22 39 22 39 22 38 23 38 23 37 24 37 24 36 25 36 25 36 25 36 25 35 26 35 26 35 26 35 26 34 27 34 27 33 28 33 28 32 29 32 29 32 29 32 29 31 30 31 30 31 30 31 30 30 31 30 31 29 32 29 32 28 33 28 33 28 33 28 33 27 34 27 34 27 34 27 34 26 35 26 35 25 36 25 36 24 37 24 37 23 36 23 36 22 35 22 35 21 34 21 34 20 34 20 34 20 33 20 33 19 33 19 32 19 32 18 32 18 32 18 31 18 31 17 31 17 31 17 30 17 30 16 30 16 30 16 29 16 29 15 29 15 28 15 28 14 28 14 28 14 27 14 27 13 27 13 27 13 26 13 26 12 26 12 26 12 25 12 25 11 25 11 24 11 24 10 24 10 24 10 23 10 23 9 23 9 23 9 22 9 22 8 22 8 22 8 21 8 21 7 21 7 20 7 20 6 20 6 20 6 19 6 19 5 19 5 19 5 18 5 18 4 18 4 18 4 17 4 17 3 17 3 16 3 16 2 16 2 16 2 15 2 15 1 15 1 15 1 14 1 14 0 11.5 0 11 0 8.75 0 8.5 0 6.25 0 5.75 0 5.5 0 3.25 0 3 0 2.5 0 0 0 0 1 1 1 1 2 1 2 1 2 2 2 2 3 2 3 2 3 3 3 3 4 3 4 4 4 4 5 4 5 4 5 5 5 5 6 5 6 5 6 6 6 6 7 6 7 6 7 7 7 7 8 7 8 8 8 8 9 8 9 8 9 9 9 9 10 9 10 9 10 10 10 10 11 10 11 10 11 11 11 11 12 11 12 12 12 12 13 12 13 12 13 13 13 13 14 13 14 13 14 14 14 14 15 14 15 14 15 15 15 15 16 15 16 16 16 16 17 16 17 16 17 17 17 17 18 17 18 17 18 18 18 18 19 18 19 18 19 19 19 19 20 19 20 20 20 20 21 20 21 20 21 21 21 21 22 22 22 22 23 23 23 23 24z"/></symbol><symbol id="svg-seawolf-header-footersocial-fb32x32" viewBox="0 0 32 32" xml:space="preserve"><style>.st0{opacity:.2}.st0,.st1{fill:#fff}</style><path class="cst0" d="M1 1H31V31H1z"/><path class="cst1" d="M0,0v32h32V0H0z M31,31H1V1h30V31z"/><path class="cst1" d="M13.37,15.99h-2v-3.37h2c0,0,0-2.25,0-2.75c0-0.5-0.1-3.87,4.21-3.87c0.58,0,1.89,0,3.04,0 c0,1.46,0,3.05,0,3.5c-0.86,0-1.8,0-2.24,0c-0.44,0-0.89,0.46-0.89,0.81c0,0.34,0,2.3,0,2.3s2.77,0,3.12,0 c-0.12,1.77-0.38,3.38-0.38,3.38h-2.76V26h-4.11V15.99z"/></symbol><symbol id="svg-seawolf-header-footersocial-insta32x32" viewBox="0 0 32 32" xml:space="preserve"><style>.st0{opacity:.2}.st0,.st1{fill:#fff}</style><path class="dst0" d="M1 1H31V31H1z"/><path class="dst1" d="M0,0v32h32V0H0z M31,31H1V1h30V31z"/><path class="dst1" d="M16,7.8c2.67,0,2.99,0.01,4.04,0.06c0.98,0.04,1.5,0.21,1.86,0.34c0.47,0.18,0.8,0.4,1.15,0.75 c0.35,0.35,0.57,0.68,0.75,1.15c0.14,0.35,0.3,0.88,0.34,1.86c0.05,1.05,0.06,1.37,0.06,4.04s-0.01,2.99-0.06,4.04 c-0.04,0.97-0.21,1.5-0.34,1.86c-0.18,0.47-0.4,0.8-0.75,1.15c-0.35,0.35-0.68,0.57-1.15,0.75c-0.35,0.14-0.88,0.3-1.86,0.34 c-1.05,0.05-1.37,0.06-4.04,0.06c-2.67,0-2.99-0.01-4.04-0.06c-0.97-0.04-1.5-0.21-1.86-0.34c-0.47-0.18-0.8-0.4-1.15-0.75 C8.6,22.7,8.39,22.36,8.2,21.9c-0.14-0.35-0.3-0.88-0.34-1.86C7.81,18.99,7.8,18.67,7.8,16s0.01-2.99,0.06-4.04 c0.04-0.97,0.21-1.5,0.34-1.86c0.18-0.47,0.4-0.8,0.75-1.15C9.3,8.6,9.64,8.39,10.1,8.2c0.35-0.14,0.88-0.3,1.86-0.34 C13.01,7.81,13.33,7.8,16,7.8 M16,6c-2.72,0-3.06,0.01-4.12,0.06c-1.06,0.05-1.79,0.22-2.43,0.46c-0.66,0.26-1.22,0.6-1.77,1.15 c-0.56,0.56-0.9,1.11-1.15,1.77c-0.25,0.64-0.42,1.36-0.46,2.43C6.01,12.94,6,13.28,6,16s0.01,3.06,0.06,4.12 c0.05,1.06,0.22,1.79,0.46,2.43c0.26,0.66,0.6,1.22,1.15,1.77c0.56,0.56,1.11,0.9,1.77,1.15c0.64,0.25,1.36,0.42,2.43,0.46 C12.94,25.99,13.28,26,16,26c2.72,0,3.06-0.01,4.12-0.06c1.06-0.05,1.79-0.22,2.43-0.46c0.66-0.26,1.22-0.6,1.77-1.15 c0.56-0.56,0.9-1.11,1.15-1.77c0.25-0.64,0.42-1.36,0.46-2.43C25.99,19.06,26,18.72,26,16s-0.01-3.06-0.06-4.12 c-0.05-1.06-0.22-1.79-0.46-2.43c-0.26-0.66-0.6-1.22-1.15-1.77c-0.56-0.56-1.11-0.9-1.77-1.15c-0.64-0.25-1.36-0.42-2.43-0.46 C19.06,6.01,18.72,6,16,6L16,6z"/><path class="dst1" d="M16,10.86c-2.84,0-5.14,2.3-5.14,5.14s2.3,5.14,5.14,5.14c2.84,0,5.14-2.3,5.14-5.14S18.84,10.86,16,10.86z M16,19.33c-1.84,0-3.33-1.49-3.33-3.33c0-1.84,1.49-3.33,3.33-3.33c1.84,0,3.33,1.49,3.33,3.33C19.33,17.84,17.84,19.33,16,19.33 z"/><circle class="dst1" cx="21.34" cy="10.66" r="1.2"/></symbol><symbol id="svg-seawolf-header-footersocial-wa32x32" viewBox="0 0 32 32" xml:space="preserve"><style>.st0{opacity:.2}.st0,.st1{fill:#fff}</style><path class="est0" d="M1 1H31V31H1z"/><path class="est1" d="M0,0v32h32V0H0z M31,31H1V1h30V31z"/><path class="est1" d="M16.14,6c-5.38,0-9.75,4.36-9.75,9.75c0,2.67,1.41,5.06,1.41,5.06L6.11,26l5.34-1.71c0,0,1.98,1.2,4.7,1.2 c5.38,0,9.75-4.36,9.75-9.75S21.53,6,16.14,6z M16.14,23.94c-2.51,0-4.51-1.35-4.51-1.35l-3.08,1l1-2.98c0,0-1.6-2.21-1.6-4.86 c0-4.52,3.67-8.19,8.19-8.19c4.52,0,8.19,3.67,8.19,8.19S20.67,23.94,16.14,23.94z"/><path class="est1" d="M12.43,11.5c0,0,0.26-0.17,0.4-0.17c0.14,0,0.77,0,0.77,0s0.21,0.04,0.3,0.25c0.09,0.21,0.74,1.74,0.79,1.85 c0.05,0.12,0.17,0.41-0.03,0.67c-0.2,0.26-0.62,0.75-0.62,0.75s-0.17,0.15-0.02,0.39c0.14,0.24,0.65,1.03,1.32,1.63 c0.67,0.6,1.48,1.04,1.89,1.17c0.41,0.13,0.5-0.04,0.65-0.24c0.16-0.2,0.64-0.81,0.64-0.81s0.17-0.24,0.5-0.09 c0.33,0.15,1.93,0.92,1.93,0.92s0.19,0.03,0.21,0.25c0.01,0.22,0.14,0.87-0.43,1.49c-0.58,0.62-1.81,0.91-2.39,0.75 c-0.58-0.16-2.51-0.67-3.77-1.84c-1.26-1.17-2.27-2.41-2.69-3.32c-0.42-0.91-0.39-1.45-0.37-1.7 C11.51,13.19,11.64,12.01,12.43,11.5z"/></symbol><symbol id="svg-seawolf-header-footersocial-yt32x32" viewBox="0 0 32 32" xml:space="preserve"><style>.st0{opacity:.2}.st0,.st1{fill:#fff}</style><path class="fst0" d="M1 1H31V31H1z"/><path class="fst1" d="M0,0v32h32V0H0z M31,31H1V1h30V31z"/><path class="fst1" d="M25.58,11.19c-0.23-0.86-0.91-1.54-1.77-1.77C22.25,9,16,9,16,9S9.75,9,8.19,9.42 c-0.86,0.23-1.54,0.91-1.77,1.77C6,12.75,6,16,6,16s0,3.25,0.42,4.81c0.23,0.86,0.91,1.54,1.77,1.77C9.75,23,16,23,16,23 s6.25,0,7.81-0.42c0.86-0.23,1.54-0.91,1.77-1.77C26,19.25,26,16,26,16S26,12.75,25.58,11.19z M14,19v-6l5.2,3L14,19z"/></symbol><symbol id="svg-seawolf-searchbatton32x32" viewBox="0 0 32 32" xml:space="preserve"><style>.st0{opacity:.2}.st0{fill:#fff},.st1{fill:#fff}</style><path class="gst0" d="M0 0H32V32H0z"/><path class="gst1" d="M0,0v32h32V0H0z M31,31H1V1h30V31z"/><path class="gst1" d="M26.73,24.46l-5.01-5.01c1-1.45,1.59-3.21,1.59-5.11c0-4.98-4.04-9.02-9.02-9.02s-9.02,4.04-9.02,9.02	s4.04,9.02,9.02,9.02c1.95,0,3.75-0.62,5.22-1.67l5,5L26.73,24.46z M7.99,14.34c0-3.48,2.82-6.3,6.3-6.3s6.3,2.82,6.3,6.3	s-2.82,6.3-6.3,6.3S7.99,17.82,7.99,14.34z"/></symbol></svg>