<?xml version="1.0" encoding="utf-8"?>
<!-- Generator: Adobe Illustrator 24.3.0, SVG Export Plug-In . SVG Version: 6.00 Build 0)  -->
<svg version="1.1" id="Layer_1" xmlns="http://www.w3.org/2000/svg" xmlns:xlink="http://www.w3.org/1999/xlink" x="0px" y="0px"
	 width="37" height="47" viewBox="0 0 37 47" style="enable-background:new 0 0 37 47;" xml:space="preserve">
<style type="text/css">
	.st0{fill:#1D1D1B;}
</style>
<polygon class="st0" points="15,23 15,22 16,22 16,21 17,21 17,21 17,21 17,20 18,20 18,20 18,20 18,19 19,19 19,18 20,18 20,17 
	21,17 21,17 21,17 21,16 22,16 22,16 22,16 22,15 23,15 23,14 24,14 24,13 25,13 25,13 25,13 25,12 26,12 26,12 26,12 26,11 27,11 
	27,10 28,10 28,9 29,9 29,9 29,9 29,8 30,8 30,8 30,8 30,7 31,7 31,6 32,6 32,5 33,5 33,5 33,5 33,4 34,4 34,4 34,4 34,3 35,3 35,2 
	36,2 36,1 37,1 37,0 34.5,0 34,0 33.75,0 31.5,0 31.25,0 30.75,0 28.5,0 28.25,0 26,0 25.5,0 23,0 23,1 22,1 22,2 21,2 21,3 20,3 
	20,3 20,3 20,4 19,4 19,4 19,4 19,5 18,5 18,6 17,6 17,7 16,7 16,7 16,7 16,8 15,8 15,8 15,8 15,9 14,9 14,10 13,10 13,11 12,11 
	12,11 12,11 12,12 11,12 11,12 11,12 11,13 10,13 10,14 9,14 9,15 8,15 8,15 8,15 8,16 7,16 7,16 7,16 7,17 6,17 6,18 5,18 5,19 
	4,19 4,19 4,19 4,20 3,20 3,20 3,20 3,21 2,21 2,22 1,22 1,23 0,23 0,24 1,24 1,25 2,25 2,26 3,26 3,27 3,27 3,27 4,27 4,28 4,28 
	5,28 5,29 5,29 5,29 6,29 6,30 6,30 6,30 7,30 7,31 7,31 7,31 8,31 8,32 8,32 9,32 9,33 9,33 9,33 10,33 10,34 10,34 10,34 11,34 
	11,35 11,35 11,35 12,35 12,36 12,36 13,36 13,37 13,37 13,37 14,37 14,38 14,38 14,38 15,38 15,39 15,39 15,39 16,39 16,40 16,40 
	17,40 17,41 17,41 17,41 18,41 18,42 18,42 18,42 19,42 19,43 19,43 19,43 20,43 20,44 20,44 21,44 21,45 21,45 21,45 22,45 22,46 
	22,46 22,46 23,46 23,47 25.5,47 26,47 28.25,47 28.5,47 30.75,47 31.25,47 31.5,47 33.75,47 34,47 34.5,47 37,47 37,46 36,46 
	36,45 36,45 36,45 35,45 35,44 35,44 35,44 34,44 34,43 34,43 33,43 33,42 33,42 33,42 32,42 32,41 32,41 32,41 31,41 31,40 31,40 
	31,40 30,40 30,39 30,39 29,39 29,38 29,38 29,38 28,38 28,37 28,37 28,37 27,37 27,36 27,36 27,36 26,36 26,35 26,35 25,35 25,34 
	25,34 25,34 24,34 24,33 24,33 24,33 23,33 23,32 23,32 23,32 22,32 22,31 22,31 21,31 21,30 21,30 21,30 20,30 20,29 20,29 20,29 
	19,29 19,28 19,28 19,28 18,28 18,27 18,27 17,27 17,26 17,26 17,26 16,26 16,25 15,25 15,24 14,24 14,23 "/>
</svg>
