<?xml version="1.0" encoding="utf-8"?>
<!-- Generator: Adobe Illustrator 24.3.0, SVG Export Plug-In . SVG Version: 6.00 Build 0)  -->
<svg version="1.1" id="Layer_1" xmlns="http://www.w3.org/2000/svg" xmlns:xlink="http://www.w3.org/1999/xlink" x="0px" y="0px"
	 width="37" height="47" viewBox="0 0 37 47" style="enable-background:new 0 0 37 47;" xml:space="preserve">
<style type="text/css">
	.st0{fill:#1D1D1B;}
</style>
<polygon class="st0" points="22,24 22,25 21,25 21,26 20,26 20,26 20,26 20,27 19,27 19,27 19,27 19,28 18,28 18,29 17,29 17,30 
	16,30 16,30 16,30 16,31 15,31 15,31 15,31 15,32 14,32 14,33 13,33 13,34 12,34 12,34 12,34 12,35 11,35 11,35 11,35 11,36 10,36 
	10,37 9,37 9,38 8,38 8,38 8,38 8,39 7,39 7,39 7,39 7,40 6,40 6,41 5,41 5,42 4,42 4,42 4,42 4,43 3,43 3,43 3,43 3,44 2,44 2,45 
	1,45 1,46 0,46 0,47 2.5,47 3,47 3.25,47 5.5,47 5.75,47 6.25,47 8.5,47 8.75,47 11,47 11.5,47 14,47 14,46 15,46 15,45 16,45 
	16,44 17,44 17,44 17,44 17,43 18,43 18,43 18,43 18,42 19,42 19,41 20,41 20,40 21,40 21,40 21,40 21,39 22,39 22,39 22,39 22,38 
	23,38 23,37 24,37 24,36 25,36 25,36 25,36 25,35 26,35 26,35 26,35 26,34 27,34 27,33 28,33 28,32 29,32 29,32 29,32 29,31 30,31 
	30,31 30,31 30,30 31,30 31,29 32,29 32,28 33,28 33,28 33,28 33,27 34,27 34,27 34,27 34,26 35,26 35,25 36,25 36,24 37,24 37,23 
	36,23 36,22 35,22 35,21 34,21 34,20 34,20 34,20 33,20 33,19 33,19 32,19 32,18 32,18 32,18 31,18 31,17 31,17 31,17 30,17 30,16 
	30,16 30,16 29,16 29,15 29,15 28,15 28,14 28,14 28,14 27,14 27,13 27,13 27,13 26,13 26,12 26,12 26,12 25,12 25,11 25,11 24,11 
	24,10 24,10 24,10 23,10 23,9 23,9 23,9 22,9 22,8 22,8 22,8 21,8 21,7 21,7 20,7 20,6 20,6 20,6 19,6 19,5 19,5 19,5 18,5 18,4 
	18,4 18,4 17,4 17,3 17,3 16,3 16,2 16,2 16,2 15,2 15,1 15,1 15,1 14,1 14,0 11.5,0 11,0 8.75,0 8.5,0 6.25,0 5.75,0 5.5,0 3.25,0 
	3,0 2.5,0 0,0 0,1 1,1 1,2 1,2 1,2 2,2 2,3 2,3 2,3 3,3 3,4 3,4 4,4 4,5 4,5 4,5 5,5 5,6 5,6 5,6 6,6 6,7 6,7 6,7 7,7 7,8 7,8 8,8 
	8,9 8,9 8,9 9,9 9,10 9,10 9,10 10,10 10,11 10,11 10,11 11,11 11,12 11,12 12,12 12,13 12,13 12,13 13,13 13,14 13,14 13,14 14,14 
	14,15 14,15 14,15 15,15 15,16 15,16 16,16 16,17 16,17 16,17 17,17 17,18 17,18 17,18 18,18 18,19 18,19 18,19 19,19 19,20 19,20 
	20,20 20,21 20,21 20,21 21,21 21,22 22,22 22,23 23,23 23,24 "/>
</svg>
