<?xml version="1.0" encoding="utf-8"?>
<!-- Generator: Adobe Illustrator 24.3.0, SVG Export Plug-In . SVG Version: 6.00 Build 0)  -->
<svg version="1.1" id="Layer_1" xmlns="http://www.w3.org/2000/svg" xmlns:xlink="http://www.w3.org/1999/xlink" x="0px" y="0px"
	 width="32" height="32" viewBox="0 0 32 32" style="enable-background:new 0 0 32 32;" xml:space="preserve">
<style type="text/css">
	.st0{opacity:0.2;fill:#FFFFFF;}
	.st1{fill:#FFFFFF;}
</style>
<rect class="st0" width="32" height="32"/>
<path class="st1" d="M0,0v32h32V0H0z M31,31H1V1h30V31z"/>
<path class="st1" d="M26.73,24.46l-5.01-5.01c1-1.45,1.59-3.21,1.59-5.11c0-4.98-4.04-9.02-9.02-9.02s-9.02,4.04-9.02,9.02
	s4.04,9.02,9.02,9.02c1.95,0,3.75-0.62,5.22-1.67l5,5L26.73,24.46z M7.99,14.34c0-3.48,2.82-6.3,6.3-6.3s6.3,2.82,6.3,6.3
	s-2.82,6.3-6.3,6.3S7.99,17.82,7.99,14.34z"/>
</svg>
