<svg width="69" height="77" viewBox="0 0 69 77" fill="none" xmlns="http://www.w3.org/2000/svg">
<path d="M68.5012 54.0308C68.5012 60.6215 67.6795 66.8097 67.3273 73.0314C67.3345 73.4261 67.2022 73.8107 66.9537 74.1175C66.7052 74.4242 66.3565 74.6335 65.9689 74.7085C62.3416 75.9071 58.5354 76.4743 54.7162 76.3855C49.4671 76.1339 44.1677 76.5532 38.9354 75.6644C34.0825 75.1027 29.1946 74.9009 24.3118 75.0606C18.6771 74.9097 13.1597 73.6352 7.54168 73.5178C5.5628 73.5178 3.56716 73.3501 1.58828 73.283C0.0621938 73.283 -0.172587 72.7296 0.0957353 71.2035C0.61561 68.319 0.816844 65.3842 1.25287 62.4662C2.66156 53.0582 4.40566 43.7004 8.3131 34.9632C10.3926 30.3178 13.5622 26.2595 16.1112 21.8657C17.5177 19.1486 19.2039 16.5856 21.1423 14.2185C21.4043 13.8577 21.5734 13.438 21.6349 12.9963C21.6963 12.5547 21.6481 12.1048 21.4945 11.6862C20.9243 8.66755 20.4547 5.63215 19.8174 2.61352C19.5323 1.20483 20.0522 0.634647 21.4945 0.567566C23.3045 0.4715 25.1196 0.561412 26.9112 0.835888C30.433 1.33899 33.8541 0.316012 37.3087 0.0812299C40.1433 -0.172638 42.9997 0.170127 45.6938 1.08744C50.1211 2.68061 54.7832 2.56321 59.3279 3.20048C63.0342 3.70359 64.359 6.26942 62.095 9.10358C59.1435 12.8098 59.8478 16.147 62.095 19.7359C64.5751 23.4936 66.2851 27.7059 67.1261 32.129C67.5649 34.9071 67.8615 37.7058 68.0149 40.5141C68.4216 45.0075 68.5839 49.5198 68.5012 54.0308ZM49.1485 74.9432C55.0683 74.9432 59.8311 75.4128 64.4261 73.6184C65.4155 73.2494 66.0025 72.8973 66.1031 71.7569C66.4217 67.4805 66.9751 63.2209 67.1596 58.9445C67.4503 53.253 67.3382 47.5481 66.8242 41.8725C66.3714 37.093 66.3379 32.2464 64.7783 27.6178C63.473 24.18 61.868 20.8635 59.982 17.7067C59.7129 17.1877 59.2694 16.7804 58.7294 16.5564C58.1895 16.3325 57.5878 16.3063 57.0304 16.4824C55.6888 16.9352 56.4099 18.1595 56.5609 19.0986C56.9969 21.6141 57.6006 24.1296 58.1037 26.5781C58.4727 28.4899 58.8081 30.4017 59.1099 32.3135C59.1099 32.9172 59.1099 33.6216 58.3217 33.7557C57.5335 33.8899 57.5168 33.2191 57.3994 32.716C57.0304 31.1563 56.6783 29.5967 56.3932 28.0203C55.7559 24.6663 55.1689 21.1781 54.5652 17.757C54.5661 17.5601 54.5257 17.3653 54.4467 17.185C54.3677 17.0047 54.2517 16.843 54.1064 16.7103C53.961 16.5775 53.7894 16.4768 53.6027 16.4144C53.416 16.3521 53.2183 16.3295 53.0224 16.3483C46.4317 15.862 39.8242 15.2415 33.2336 14.6713C30.171 14.3388 27.0882 14.2323 24.01 14.3526C23.6186 14.3669 23.2367 14.4767 22.8976 14.6726C22.5585 14.8684 22.2725 15.1444 22.0646 15.4762C20.6392 17.5054 19.0628 19.4172 17.7044 21.48C14.3504 26.511 10.9963 31.3576 8.79944 36.875C4.92891 47.5176 2.56383 58.6488 1.77275 69.9457C1.62182 71.6227 2.25909 71.9917 3.63424 71.9581C7.27396 71.9628 10.9095 72.2037 14.5181 72.6793C19.3496 73.3823 24.2257 73.7354 29.1081 73.7358C36.2354 73.4171 43.1783 75.6644 49.1485 74.9432ZM53.4248 15.3085H56.7789C57.2988 15.3085 57.9528 15.3085 58.1037 14.688C58.9011 12.4312 60.0012 10.293 61.3739 8.33215C62.464 6.25265 61.5919 4.67626 59.2944 4.20669C58.1844 4.02267 57.0644 3.90507 55.9404 3.85452C53.0576 3.73514 50.1933 3.33638 47.3876 2.66384C44.0336 1.70794 40.7969 0.483715 37.1746 0.98682C32.4454 1.69117 27.6827 2.46259 22.8528 1.50669C21.6622 1.27191 21.2932 2.12719 21.3603 3.28433C21.5112 5.96756 22.333 8.55016 22.7019 11.1831C22.9535 12.9607 23.6578 13.4638 25.3851 13.5309C31.2044 13.7657 37.0069 14.1849 42.8261 14.5036C46.3646 14.7216 49.8696 15.4762 53.4248 15.3085Z" fill="#111111"/>
<path d="M34.1584 67.9327C31.5639 67.9082 29.0039 67.3368 26.6453 66.2557C25.6464 65.652 24.7825 64.849 24.1073 63.8969C23.4322 62.9448 22.9603 61.8639 22.7211 60.7215C21.0441 54.0134 23.8279 48.9824 28.6074 44.6892C29.0435 44.3035 29.5466 44.0687 29.7813 43.4147C30.4153 41.9604 31.5809 40.8032 33.0398 40.1797C34.4986 39.5563 36.1406 39.5137 37.6298 40.0607C37.8143 40.1445 38.0993 40.1948 38.1497 40.329C39.2397 43.2135 42.4428 43.683 44.3211 45.6619C50.1236 51.9339 48.0608 60.5203 41.7888 65.0147C38.2838 67.5302 36.6236 67.9662 34.1584 67.9327ZM34.1584 66.96C34.8326 66.8919 35.5 66.7685 36.154 66.5911C38.7032 65.8354 40.9995 64.4022 42.7981 62.4441C44.5967 60.486 45.8302 58.0765 46.367 55.4724C47.1888 52.1184 44.5391 45.7122 40.9838 44.3035C39.6422 43.7669 38.7869 43.5992 37.6298 44.7563C35.9528 46.4333 34.0242 47.5234 31.6093 45.9973C31.2776 45.7203 30.8591 45.5686 30.427 45.5686C29.9949 45.5686 29.5764 45.7203 29.2447 45.9973C24.7838 49.2172 22.3857 56.5457 24.3143 61.6271C24.5608 62.6095 25.0466 63.5157 25.7284 64.2648C26.4102 65.0139 27.2667 65.5826 28.2217 65.9203C30.1503 66.4234 32.1627 66.6246 34.1248 67.0271L34.1584 66.96Z" fill="#111111"/>
<path d="M34.25 45.8468C34.25 45.8468 31.1475 46.2158 31.0469 43.8847C31.0613 43.0069 31.3941 42.1642 31.9832 41.5133C32.5724 40.8625 33.3779 40.4477 34.25 40.3462C35.5077 40.0779 37.7885 40.1617 38.0903 42.1574C38.3922 44.153 34.6189 45.8133 34.25 45.8468Z" fill="#F1BE48"/>
</svg>
