<svg width="115" height="73" viewBox="0 0 115 73" fill="none" xmlns="http://www.w3.org/2000/svg">
<path d="M34.4322 37.4162C33.359 37.7282 33.1094 36.9669 32.9721 36.1682C32.7475 34.9203 33.0969 33.585 32.5977 32.3245C32.4355 31.9127 32.8723 31.6132 33.1219 31.3137C33.3715 31.0142 33.671 30.802 33.4713 30.5524C32.4979 29.3045 33.5462 28.6555 34.2825 28.1439C36.4789 26.5964 37.8766 24.2253 40.3475 22.8775C44.2296 20.6209 48.6134 19.3684 53.1016 19.2335C58.705 19.1461 62.6111 21.8916 65.8807 25.935C67.1287 27.4575 68.3766 29.0424 68.2768 31.2638C68.2768 32.2372 68.9507 32.8612 70.1238 33.248C77.3697 35.5219 84.2846 38.7402 90.6901 42.8198C96.1064 46.131 100.932 50.3236 104.967 55.2245C108.212 59.1408 111.133 63.3144 113.702 67.7041C113.964 68.1783 114.426 68.7274 113.777 69.1268C113.128 69.5261 112.966 68.7898 112.729 68.4029C109.24 62.4116 105.051 56.8566 100.249 51.855C96.1485 47.8286 91.4972 44.4042 86.4346 41.6842C81.4263 38.8896 76.2013 36.5025 70.8101 34.5459C70.2064 34.2537 69.5387 34.1189 68.8689 34.1538C68.1991 34.1887 67.549 34.3922 66.9789 34.7456C65.7222 35.3612 64.3471 35.6975 62.948 35.7315C62.5612 35.7315 62.0495 35.8687 61.9871 35.3196C61.9247 34.7705 62.4613 34.7705 62.8357 34.6707C64.0299 34.5661 65.2005 34.2756 66.305 33.8096C66.6937 33.5964 67.0578 33.3411 67.3907 33.0483C67.865 32.5616 67.6029 32.0125 67.3159 31.5258C67.0288 31.0391 66.642 31.2762 66.2676 31.4385C57.6068 35.1824 48.4468 35.8812 39.1744 35.9062C37.7276 35.8408 36.3037 35.5197 34.9688 34.9577C34.6569 34.8454 34.3199 34.5209 34.0329 34.9577C33.9387 35.1072 33.8886 35.2802 33.8886 35.4569C33.8886 35.6336 33.9387 35.8066 34.0329 35.9561C34.3276 36.361 34.5008 36.8415 34.5321 37.3413L34.4322 37.4162Z" fill="#111111"/>
<path d="M109.314 70.5995C109.314 71.0487 109.202 71.2983 108.915 71.3482C108.628 71.3982 108.378 71.1111 108.241 70.8491C107.18 69.0395 105.883 67.3922 104.747 65.6326C99.8924 58.07 93.0037 52.6039 86.0276 47.1254C79.0515 41.6469 70.9024 39.4754 62.3164 38.3897C58.7876 38.0339 55.2282 38.122 51.7213 38.6518C45.9182 39.2382 40.2094 40.5376 34.7241 42.5204C32.8163 43.2708 31.0095 44.2559 29.3454 45.4531C24.4416 48.944 19.8486 52.8521 15.6179 57.134C11.587 61.1774 8.94135 66.0319 5.63426 70.5246C5.48451 70.7243 5.37219 70.9489 5.22243 71.1486C4.83557 71.6353 4.43622 72.5213 3.7748 72.0221C3.11339 71.523 4.09927 71.0862 4.3863 70.7742C6.67006 67.8664 8.24249 64.5344 10.4389 61.5268C12.0488 59.3679 14.1828 57.783 15.8925 55.7862C20.2229 50.5698 25.7264 46.7885 31.3796 43.2068C34.2207 41.5221 37.3195 40.3163 40.5521 39.6377C45.1603 38.5601 49.8332 37.7806 54.5417 37.304C61.2182 36.5677 67.6202 37.8531 73.9973 39.6626C82.6456 42.1585 89.1475 47.7743 95.7117 53.5149C100.395 57.8501 104.475 62.7946 107.842 68.2159C108.491 69.027 108.915 69.8632 109.314 70.5995Z" fill="#111111"/>
<path d="M0 70.8992C0.166741 69.7718 0.507764 68.6772 1.01085 67.6545C2.35864 65.4456 3.50676 63.1369 4.97935 60.978C10.7199 52.2423 17.1594 44.1805 26.3319 38.7519C27.6006 37.955 28.9628 37.3179 30.3877 36.855C30.7746 36.7426 31.3362 36.3059 31.5483 36.855C31.7605 37.4041 31.0991 37.5788 30.7247 37.741C28.9469 38.5405 27.2286 39.4664 25.5831 40.5115C21.4224 43.2911 17.6821 46.6532 14.4763 50.4951C12.4929 52.7208 10.6227 55.045 8.87297 57.4587C5.64876 61.6592 3.00822 66.277 1.02332 71.1862C0.898528 71.5107 0.873569 71.9724 0.399346 71.8601C-0.0748778 71.7478 0.0124796 71.2611 0 70.8992Z" fill="#111111"/>
<path d="M66.4516 14.5411C66.2894 14.4537 66.0773 14.4038 65.9774 14.2665C65.8776 14.1292 65.9774 13.7923 66.1397 13.6051C68.1613 11.2839 70.183 8.95022 72.2297 6.65398C72.4668 6.37943 72.7788 5.94265 73.2156 6.36695C73.3393 6.49882 73.4081 6.67284 73.4081 6.85365C73.4081 7.03447 73.3393 7.20849 73.2156 7.34036C71.1689 9.6366 69.0973 11.9204 66.9758 14.2041C66.818 14.3408 66.6415 14.4542 66.4516 14.5411Z" fill="#F1BE48"/>
<path d="M59.5767 9.86123C59.3645 9.74892 59.1024 9.68652 58.9901 9.52428C58.8778 9.36205 58.9901 8.97519 59.1773 8.75055C61.6732 6.00505 64.1691 3.26786 66.665 0.539C66.9646 0.227011 67.3389 -0.297131 67.913 0.214531C67.9881 0.288806 68.0477 0.377236 68.0884 0.474702C68.1291 0.572168 68.15 0.676735 68.15 0.782351C68.15 0.887967 68.1291 0.992534 68.0884 1.09C68.0477 1.18747 67.9881 1.2759 67.913 1.35017C65.4171 4.07072 62.8796 6.77462 60.3005 9.46189C60.0755 9.62268 59.8326 9.75671 59.5767 9.86123Z" fill="#F1BE48"/>
<path d="M26.3437 25.261C26.307 25.3816 26.2299 25.4859 26.1254 25.5563C26.0208 25.6268 25.8952 25.6591 25.7697 25.6479C25.2192 25.6414 24.6837 25.4673 24.2347 25.1487C23.196 24.3594 21.9325 23.9222 20.6281 23.9008C20.3739 23.9135 20.1214 23.8532 19.9003 23.7272C19.6792 23.6012 19.4988 23.4146 19.3801 23.1894C19.3122 23.0837 19.2826 22.9579 19.2962 22.833C19.3098 22.7081 19.3659 22.5916 19.455 22.5031C19.9293 22.0538 20.391 22.4032 20.8403 22.5031C22.5139 22.9575 24.127 23.6111 25.6449 24.4499C25.9444 24.7494 26.3437 24.8243 26.3437 25.261Z" fill="#F1BE48"/>
<path d="M30.8876 19.5331C30.8117 19.6306 30.7051 19.6997 30.5851 19.7291C30.4651 19.7586 30.3386 19.7467 30.2262 19.6953C29.718 19.4916 29.283 19.1393 28.9783 18.6845C28.2822 17.5869 27.2552 16.739 26.0456 16.2635C25.8068 16.1811 25.5959 16.0333 25.437 15.837C25.2782 15.6406 25.1777 15.4035 25.147 15.1528C25.1176 15.0288 25.1342 14.8984 25.194 14.7858C25.2537 14.6733 25.3523 14.5864 25.4715 14.5413C26.058 14.2792 26.37 14.7784 26.7195 15.0904C28.104 16.1186 29.3609 17.3084 30.4633 18.6346C30.688 18.9091 31.0249 19.1088 30.8876 19.5331Z" fill="#F1BE48"/>
<path d="M28.6226 22.1164C28.4229 22.7903 27.9362 22.7029 27.5868 22.4034C26.3388 21.3052 24.679 20.9058 23.3437 19.9075C22.9069 19.583 22.3079 19.2461 22.6948 18.6595C23.0817 18.073 23.5808 18.5722 23.9428 18.7968C25.1907 19.558 26.4387 20.3443 27.7615 21.1305C27.9679 21.2226 28.1518 21.3585 28.3004 21.5287C28.4491 21.699 28.559 21.8995 28.6226 22.1164Z" fill="#F1BE48"/>
<path d="M69.0684 16.9875C68.6316 16.426 68.9935 16.0765 69.4428 15.9767C71.0776 15.6148 72.3754 14.5166 73.9354 14.0174C74.4471 13.8427 75.0835 13.5557 75.3581 14.2545C75.6326 14.9534 74.9088 15.0158 74.4845 15.1905C73.1242 15.777 71.739 16.3261 70.3538 16.8877C70.1582 16.9927 69.9429 17.0559 69.7216 17.0731C69.5003 17.0903 69.2778 17.0611 69.0684 16.9875Z" fill="#F1BE48"/>
<path d="M34.5162 37.2667C37.0292 36.986 39.5657 36.986 42.0788 37.2667C42.4033 37.2667 42.7152 37.3416 42.7277 37.716C42.7402 38.0904 42.4407 38.2401 42.1537 38.3025C41.8129 38.3708 41.4649 38.396 41.1179 38.3774C39.2834 38.2651 37.4489 38.1278 35.6269 38.003C35.157 37.993 34.7094 37.8005 34.3789 37.4664L34.5162 37.2667Z" fill="#111111"/>
<path d="M34.3655 33.4103C36.4528 34.4426 38.7859 34.8747 41.1045 34.6583C44.9606 34.2839 54.3827 34.4212 60.1358 32.1624C65.8889 29.9036 68.3723 30.1781 68.0977 28.3436C67.8232 26.5091 62.1575 18.4598 53.4467 18.0355C44.736 17.6112 38.1343 24.1006 35.4013 26.0599C32.6683 28.0191 33.2673 28.8678 33.0427 29.3919C32.829 29.7112 32.6919 30.0755 32.6421 30.4565C32.5924 30.8375 32.6312 31.2248 32.7556 31.5883C32.8694 31.9936 33.0733 32.368 33.3521 32.6835C33.6308 32.999 33.9773 33.2474 34.3655 33.4103Z" fill="#F1BE48"/>
<path d="M47.5586 29.7041C48.3032 30.4011 49.2727 30.8083 50.2916 30.8522C51.3545 30.7881 52.3689 30.3858 53.1869 29.7041" stroke="#111111" stroke-width="0.5" stroke-miterlimit="10" stroke-linecap="round"/>
<path d="M42.7344 25.5233C42.7344 25.5233 47.2145 26.6215 48.5499 24.9243" stroke="#111111" stroke-width="0.5" stroke-miterlimit="10" stroke-linecap="round"/>
<path d="M54.3438 24.3125C54.3438 24.3125 55.5917 25.1611 58.9487 24.924" stroke="#111111" stroke-width="0.5" stroke-miterlimit="10" stroke-linecap="round"/>
<path d="M50.3301 25.3486C50.3301 25.3486 49.3942 27.8445 49.9932 28.2065C50.2126 28.3065 50.4509 28.3582 50.6921 28.3582C50.9332 28.3582 51.1715 28.3065 51.3909 28.2065" stroke="#111111" stroke-width="0.5" stroke-miterlimit="10" stroke-linecap="round"/>
</svg>
