<svg width="141" height="75" viewBox="0 0 141 75" fill="none" xmlns="http://www.w3.org/2000/svg">
<path d="M62.8847 22.2752C62.6985 34.8931 58.5369 42.4186 49.4823 46.9127C46.7687 48.0842 43.7159 48.2027 40.9197 47.2451C39.5901 46.9127 38.3801 46.434 37.0771 46.1681C35.306 45.7918 33.649 45.0018 32.2417 43.8625C30.8344 42.7233 29.7167 41.2671 28.9799 39.6131C28.1688 38.0575 27.504 36.4354 26.786 34.8399C25.0177 30.8511 26.0149 26.9554 27.1051 23.1527C28.2929 19.4981 30.2261 16.1296 32.7825 13.2605C36.5187 8.79303 41.7839 7.94208 47.2619 8.208C49.2897 8.15194 51.3051 8.5423 53.1653 9.35146C59.3612 12.6888 62.6852 17.8742 62.8847 22.2752ZM61.6482 25.054C61.7678 15.2017 53.4312 6.90499 42.6349 9.23179C38.6461 10.1093 35.0163 11.6251 32.7028 15.2549C31.7056 16.8238 30.6286 18.3528 29.7909 20.0016C27.411 24.7615 26.0681 29.7342 27.9827 34.9994C29.3123 38.6027 30.6419 42.2724 34.3781 44.187C37.0873 45.4021 39.93 46.2947 42.8476 46.8462C43.992 47.0857 45.1735 47.0857 46.3179 46.8462C49.7216 46.3276 52.2213 44.187 54.6279 42.0729C59.8665 37.3661 61.3822 31.2234 61.6482 25.054Z" fill="#111111"/>
<path d="M62.6896 47.8435C62.8093 46.6735 62.9023 45.6763 63.0087 44.6658C63.7267 37.9114 70.2417 34.029 76.5972 35.2921C78.7735 35.7675 80.8818 36.5135 82.8729 37.5125C83.8682 38.0296 84.7356 38.7622 85.4118 39.657C86.088 40.5517 86.5561 41.5861 86.7819 42.6847C87.8126 46.6208 87.7159 50.7674 86.5027 54.6511C86.0668 56.0874 85.1577 57.3339 83.9233 58.1878C81.3773 60.3051 78.2262 61.5619 74.9219 61.7777C72.5354 61.7034 70.1755 61.2548 67.9282 60.4481C67.2116 60.2125 66.5939 59.7447 66.1731 59.1185C64.7372 56.9779 62.0381 51.0878 62.6896 47.8435ZM74.5363 60.8071C78.206 60.9268 81.0115 58.9989 83.6973 56.8183C84.5687 56.1607 85.1844 55.2207 85.439 54.1591C86.0241 51.0878 86.7686 48.0297 86.1304 44.8519C85.4922 41.6742 84.5083 38.7358 81.1577 37.4328C79.4414 36.7531 77.659 36.2541 75.8393 35.9436C70.4146 35.0661 64.6042 39.4671 64.2851 44.4265C64.192 45.8624 63.9128 47.2851 63.9394 48.7211C63.9394 51.1941 65.1493 53.4146 65.8939 55.7281C66.3061 57.0577 66.5853 58.6133 68.0878 59.2648C70.0967 60.2498 72.2991 60.7765 74.5363 60.8071Z" fill="#111111"/>
<path d="M33.931 65.4609C34.4535 63.4824 35.3995 61.641 36.7034 60.0639C38.0073 58.4868 39.6381 57.2116 41.4832 56.3265C42.87 55.5204 44.4722 55.1628 46.0703 55.3028C48.2774 55.5687 50.4846 55.941 52.7183 56.2734C53.0773 56.3398 53.5559 56.3664 53.4761 56.8717C53.3964 57.3769 52.931 57.2839 52.572 57.3105C51.2189 57.3612 49.8676 57.1676 48.5832 56.7387C45.1794 55.6883 42.3474 56.885 39.6882 58.906C38.368 59.8192 37.2573 61.0028 36.4297 62.3782C35.6022 63.7537 35.0767 65.2895 34.8883 66.8836C34.8883 67.1894 34.8883 67.575 34.4629 67.668C34.0374 67.7611 33.7449 67.442 33.5853 67.1229C33.0535 66.0326 32.535 64.9158 32.043 63.7989C29.5301 58.1747 26.0199 55.5953 20.4888 56.1537C10.8093 57.1243 4.69314 61.6317 1.22288 71.0851C0.96757 72.1555 0.895638 73.2615 1.01014 74.3559C-0.040239 73.9836 -0.026943 73.1859 0.012945 72.428C0.336365 69.6711 1.36184 67.0433 2.99125 64.7961C6.4615 59.2384 11.7001 56.4329 17.9891 55.3028C19.673 54.8921 21.4233 54.8312 23.1316 55.1239C24.84 55.4166 26.4701 56.0568 27.9212 57.0046C30.5804 58.8395 31.91 61.6449 33.2396 64.3839C33.4923 64.703 33.479 65.1684 33.931 65.4609Z" fill="#111111"/>
<path d="M96.5859 55.6611C100.575 54.398 103.54 55.7542 106.199 58.2272C109.253 61.0403 111.674 64.4714 113.299 68.2923C113.685 69.2097 114.097 69.4092 114.948 68.8241C117.155 67.2685 119.375 65.7262 121.702 64.3301C124.76 62.5495 128.334 61.8648 131.834 62.3889C134.493 62.6947 135.583 64.7423 136.66 66.8032C136.899 67.2552 136.86 67.9732 137.764 67.9067C138.216 67.9067 138.202 68.412 138.149 68.7843C138.146 68.9457 138.088 69.1011 137.983 69.2245C137.879 69.348 137.736 69.4319 137.577 69.4624C137.417 69.4829 137.254 69.4497 137.115 69.3679C136.975 69.2861 136.867 69.1603 136.806 69.0103C136.208 67.9599 135.623 66.8829 135.038 65.8193C134.601 65.0196 133.941 64.364 133.139 63.9321C132.336 63.5001 131.426 63.3105 130.517 63.3861C127.42 63.3049 124.366 64.1273 121.729 65.7528C119.561 67.0824 117.421 68.412 115.293 69.8878C113.804 70.8717 113.498 70.7122 112.754 69.0768C110.653 64.4365 107.941 60.2216 103.593 57.3098C101.359 55.8074 101.107 55.7542 96.5859 55.6611Z" fill="#111111"/>
<path d="M81.5484 21.1585C81.9473 24.2963 78.6366 26.2774 75.9641 26.3572C74.598 26.3019 73.3077 25.7147 72.3686 24.721C71.4296 23.7273 70.9162 22.4058 70.9382 21.0388C70.9201 19.6017 71.4676 18.2151 72.4625 17.1779C73.4573 16.1408 74.82 15.5361 76.2566 15.4944C79.4476 15.4678 81.4819 17.6616 81.5484 21.1585ZM80.4182 21.1585C80.4182 18.3131 78.8493 16.3586 76.4294 16.3453C75.2886 16.4061 74.2138 16.8991 73.4235 17.724C72.6331 18.5489 72.1866 19.6438 72.1747 20.7862C72.1747 22.8338 74.1691 25.5727 75.7513 25.5993C76.9538 25.6107 78.1134 25.1534 78.9846 24.3245C79.8557 23.4955 80.3699 22.36 80.4182 21.1585Z" fill="#111111"/>
<path d="M136.143 5.09684C135.532 5.18991 135.279 5.62868 134.947 5.96108C133.976 6.94498 133.019 7.94218 132.035 8.91279C131.782 9.16541 131.357 9.41804 131.064 9.03245C130.772 8.64687 131.224 8.50061 131.437 8.27458C132.421 7.2242 133.338 6.12063 134.375 5.13673C135.199 4.35226 135.013 3.80713 134.202 3.24869C133.391 2.69026 132.554 1.91909 131.756 1.2277C131.556 1.06815 131.29 0.842117 131.49 0.562901C131.54 0.499335 131.603 0.447927 131.676 0.412572C131.748 0.377217 131.828 0.358842 131.909 0.358842C131.989 0.358842 132.069 0.377217 132.142 0.412572C132.214 0.447927 132.278 0.499335 132.328 0.562901C133.096 1.1296 133.833 1.73768 134.535 2.38445C134.703 2.62484 134.929 2.81884 135.192 2.94843C135.456 3.07803 135.747 3.13902 136.04 3.12576C136.334 3.1125 136.619 3.0254 136.869 2.87257C137.119 2.71973 137.327 2.50609 137.473 2.25149C138.065 1.56886 138.695 0.920723 139.361 0.310278C139.574 0.110838 139.88 -0.181674 140.172 0.150726C140.465 0.483126 140.172 0.749046 139.973 0.988374C139.317 1.75271 138.615 2.47646 137.872 3.15562C136.928 3.95338 137.127 4.48522 138.018 5.15002C138.909 5.81482 139.733 6.57269 140.571 7.29068C140.864 7.5433 141.156 7.83581 140.77 8.2214C140.385 8.60698 140.106 8.2214 139.826 8.04855L136.861 5.58879C136.635 5.45583 136.356 5.24309 136.143 5.09684Z" fill="#DC582A"/>
<path d="M58.9921 70.2339C58.649 70.2591 58.3043 70.2155 57.9783 70.1055C57.6523 69.9955 57.3516 69.8214 57.0938 69.5934C56.8361 69.3654 56.6267 69.0882 56.4777 68.7781C56.3288 68.4679 56.2434 68.1311 56.2266 67.7874C56.271 66.9374 56.6411 66.1371 57.2601 65.5528C57.8791 64.9685 58.6994 64.645 59.5506 64.6496C59.9348 64.6317 60.3186 64.6915 60.6792 64.8255C61.0397 64.9594 61.3695 65.1647 61.6489 65.4292C61.9282 65.6936 62.1513 66.0116 62.3048 66.3643C62.4583 66.717 62.539 67.097 62.5422 67.4816C62.5555 68.758 60.6674 70.2206 58.9921 70.2339ZM57.4764 67.947C57.4515 68.1241 57.4694 68.3045 57.5288 68.4732C57.5881 68.6419 57.6871 68.7939 57.8174 68.9163C57.9477 69.0388 58.1055 69.1282 58.2775 69.177C58.4496 69.2258 58.6308 69.2326 58.806 69.1968C60.0425 69.1968 61.4652 68.0534 61.3588 67.0695C61.3678 66.8556 61.3288 66.6425 61.2449 66.4457C61.1609 66.2488 61.0339 66.0732 60.8733 65.9318C60.7127 65.7903 60.5226 65.6865 60.3167 65.628C60.1108 65.5695 59.8945 65.5577 59.6835 65.5936C59.0873 65.637 58.5292 65.9032 58.1203 66.3392C57.7114 66.7752 57.4815 67.3492 57.4764 67.947Z" fill="#111111"/>
<path d="M29.3566 29.9603C29.5857 25.3706 31.2822 20.9756 34.1963 17.4222C34.4727 17.1036 34.8008 16.8339 35.1669 16.6245C35.3046 16.5406 35.4699 16.5144 35.6268 16.5518C35.7837 16.5891 35.9194 16.6869 36.0046 16.8239C36.204 17.1164 35.9115 17.3158 35.7386 17.4754C32.2152 20.9457 31.218 25.453 30.3006 30.08C30.2075 30.5321 30.5133 31.2368 29.7289 31.4096C29.4496 31.4229 29.3433 30.9708 29.3566 29.9603Z" fill="#111111"/>
</svg>
