<svg width="164" height="67" viewBox="0 0 164 67" fill="none" xmlns="http://www.w3.org/2000/svg">
<path d="M0.617188 64.0353C3.17817 63.7756 5.75687 63.7388 8.32421 63.9254C14.9639 64.051 21.6035 63.1406 28.2432 63.4859C43.5944 64.2865 58.9771 64.0039 74.3283 64.3022C81.9883 64.4591 89.6168 64.3022 97.2454 64.3022C98.6886 64.3228 100.13 64.4224 101.562 64.6004C102.111 64.6004 103.132 64.3806 102.912 65.3852C102.692 66.3898 101.923 66.0602 101.342 65.9817C98.7306 65.7646 96.1055 65.7646 93.4939 65.9817C79.8221 66.3898 66.1661 65.8404 52.4944 65.7619C42.9352 65.7619 33.3603 65.1498 23.7853 64.93C20.5361 64.93 17.2713 65.244 14.0064 65.291C9.94103 65.3513 5.87532 65.1994 1.82583 64.8358C1.33923 64.6789 0.805546 64.7417 0.617188 64.0353Z" fill="#111111"/>
<path d="M60.2461 43.5985C64.0107 42.0448 68.0023 41.1118 72.0656 40.8359C81.0127 40.3493 89.9754 40.0825 98.9382 39.9098C109.204 39.7058 119.469 40.4435 129.719 40.3336C136.218 40.3336 142.763 40.3336 149.261 39.7999C150.44 39.6166 151.643 39.6539 152.809 39.9098C153.437 40.0825 153.782 40.5377 153.076 40.9144C151.129 41.988 149.122 42.9471 147.064 43.7869C147.645 42.5939 149.277 42.7509 149.905 41.3225C145.918 41.3225 142.057 41.1812 138.117 41.3225C130.923 41.7384 123.712 41.7384 116.518 41.3225C109.094 40.8202 101.732 41.2283 94.3548 41.3225C87.9506 41.3225 81.5464 41.7463 75.1578 41.4952C70.9002 41.5353 66.6706 42.1909 62.6006 43.4415C61.8573 43.7635 61.0256 43.819 60.2461 43.5985Z" fill="#111111"/>
<path d="M32.5588 51.0381C33.5205 49.2173 34.173 47.2493 34.4895 45.2146C35.1032 42.7687 36.3669 40.5342 38.1468 38.7476C39.9833 36.9739 41.8669 37.4448 42.8558 39.8621C43.3351 41.092 43.5697 42.4037 43.5464 43.7235C43.5464 44.5397 43.8289 44.9635 44.6923 44.4926C46.5034 43.6289 48.4035 42.9657 50.3587 42.5148C51.359 42.1063 52.1593 41.3219 52.5878 40.33C53.0163 39.3381 53.0387 38.2177 52.6504 37.2094C52.054 35.9694 50.9866 36.2676 50.0762 36.7385C49.2531 37.2019 48.4661 37.7266 47.7217 38.3081C47.7436 37.8674 47.8533 37.4354 48.0444 37.0377C48.2355 36.6399 48.5042 36.2844 48.8347 35.9919C49.1652 35.6994 49.5508 35.476 49.9688 35.3346C50.3869 35.1933 50.829 35.1369 51.2691 35.1688C51.6494 35.1601 52.0274 35.229 52.38 35.3715C52.7326 35.5139 53.0525 35.7269 53.3199 35.9973C53.5874 36.2676 53.7968 36.5898 53.9354 36.944C54.074 37.2982 54.1388 37.6769 54.1259 38.057C54.2434 40.2183 54.1329 42.3859 53.7963 44.524C53.5776 47.7996 53.1053 51.0533 52.3836 54.2559C52.3218 54.5634 52.2432 54.8673 52.1481 55.1663C51.9441 55.6529 51.6145 56.1238 51.0337 55.9354C50.4529 55.747 50.6727 55.182 50.7825 54.8053C51.1436 53.471 50.6099 53.4867 49.5425 53.7693C47.6118 54.2559 45.9951 55.6686 43.8917 55.5744C44.4896 54.7621 45.3486 54.1802 46.3247 53.9262C47.7531 53.3141 49.1972 52.7019 50.657 52.1368C50.9527 52.0294 51.2035 51.8252 51.3687 51.5574C51.534 51.2896 51.604 50.9739 51.5674 50.6614C51.5674 50.1591 51.2063 49.9864 50.7982 50.1277C48.4751 50.8811 45.9637 50.8968 43.6877 51.8857C42.3849 52.4508 42.7616 53.6908 42.6046 54.664C42.4476 55.6372 43.2953 55.5116 43.9074 55.5587C43.0441 56.2807 42.1337 56.94 42.118 58.2428C42.118 58.6038 42.0081 59.0276 41.5059 59.0433C41.0036 59.059 40.8466 58.5724 40.8152 58.1329C40.7665 55.8787 40.9241 53.6246 41.2861 51.3991C41.7435 48.3658 41.9431 45.2993 41.8826 42.2323C41.8826 41.055 41.8826 39.5796 40.5954 39.093C39.3083 38.6064 38.5706 40.0348 37.8799 40.9766C36.2002 43.5482 35.0527 46.4303 34.5052 49.4527C34.1912 50.7241 33.7517 51.195 32.5117 51.0224L32.5588 51.0381ZM43.1226 48.8562C43.1226 49.8451 42.7773 50.8183 44.0801 50.4259C46.2619 49.9079 48.4594 49.3271 50.6099 48.6679C51.5988 48.354 52.5876 44.367 51.9284 43.6293C51.5517 43.2055 51.1122 43.488 50.7041 43.6293C48.88 44.1016 47.1038 44.7427 45.3986 45.5443C43.7505 46.2349 42.8558 47.2395 43.1226 48.8562Z" fill="#111111"/>
<path d="M136.827 49.2334C130.077 52.8279 124.05 57.6625 116.829 60.378C114.598 61.3584 112.437 62.4912 110.362 63.7684C108.698 64.6945 106.799 64.9457 105.088 65.7305C104.696 65.9189 104.162 65.966 104.021 65.3695C104.003 65.2766 104.004 65.181 104.023 65.0884C104.043 64.9958 104.081 64.9081 104.135 64.8305C104.189 64.7529 104.258 64.687 104.339 64.6367C104.419 64.5864 104.508 64.5527 104.602 64.5376C110.519 63.0621 115.322 59.1222 121.036 57.2073C122.493 56.6302 123.887 55.9043 125.195 55.0411C128.848 52.6849 132.748 50.7373 136.827 49.2334Z" fill="#111111"/>
<path d="M32.5277 51.0234C31.1307 52.907 28.7605 52.8285 26.877 53.6448C21.917 55.715 16.8317 57.4713 11.6513 58.9031C8.52654 60.0114 5.47527 61.3169 2.51585 62.8116C2.17053 62.9528 1.8566 63.1883 1.51127 63.3139C1.16595 63.4394 0.302636 63.7063 0.0514906 62.9999C-0.199655 62.2936 0.52239 62.1366 1.04038 61.9483C5.18428 60.4885 9.13981 58.5578 13.2523 57.1137C16.8782 55.8266 20.6454 54.822 24.3655 53.7389C27.1281 52.9384 29.6239 51.3688 32.5591 51.0862L32.5277 51.0234Z" fill="#111111"/>
<path d="M81.2497 45.7017C82.6072 45.8468 83.9045 46.3387 85.0169 47.13C86.6634 48.4475 88.7149 49.1547 90.8235 49.1318C92.9321 49.109 94.9678 48.3573 96.5853 47.0045C96.7893 46.8632 96.9777 46.7062 97.1974 46.565C97.4172 46.4237 98.0765 45.8743 98.4846 46.565C98.8927 47.2556 98.359 47.4597 97.998 47.8207C94.8586 51.0542 91.0758 51.0542 86.6807 49.3904C86.4924 49.3904 86.3511 49.202 86.1784 49.1235C84.6088 48.4015 83.3844 46.6121 81.4695 47.0359C79.0266 47.5909 76.7407 48.6909 74.7827 50.2537C74.6545 50.3924 74.5182 50.5234 74.3746 50.6461C73.9351 50.9757 73.4328 51.5722 72.9305 51.0071C72.4282 50.442 73.1503 50.1124 73.4642 49.7985C75.6833 47.8138 78.3573 46.4067 81.2497 45.7017Z" fill="#111111"/>
<path d="M114.259 55.7787C112.995 55.5858 111.75 55.2811 110.539 54.8683C106.882 53.2986 103.413 54.4287 99.897 55.3862C99.1279 55.606 98.3274 55.8257 97.5425 55.9984C97.2443 55.9984 96.8676 55.9984 96.8833 55.5589C96.899 55.1194 97.1501 55.1351 97.3542 55.0723C101.655 53.8166 105.752 51.4778 110.571 53.5026C112.019 54.2139 113.629 54.5304 115.238 54.4202C116.848 54.3099 118.4 53.7768 119.738 52.8748C120.036 52.6707 120.475 52.4667 120.711 52.8748C120.946 53.2829 120.601 53.5654 120.318 53.8323C118.592 55.1764 116.446 55.8659 114.259 55.7787Z" fill="#111111"/>
<path d="M154.476 1.82946C155.732 2.03351 156.25 3.27354 157.207 3.9171C157.347 4.05557 157.514 4.16329 157.698 4.23334C157.882 4.3034 158.079 4.33424 158.275 4.32389C158.472 4.31355 158.664 4.26224 158.839 4.17327C159.015 4.0843 159.17 3.95962 159.295 3.80723C160.393 2.84973 161.131 1.6097 162.183 0.66791C162.544 0.322585 162.999 -0.368064 163.564 0.244103C164.129 0.856269 163.486 1.1702 163.172 1.54692C162.261 2.58289 161.382 3.63456 160.425 4.68623C159.467 5.73791 159.875 6.25589 160.802 6.89945C161.728 7.54301 163.156 7.98252 163.941 9.59927C162.506 9.22716 161.188 8.49822 160.111 7.48023C159.216 6.80527 158.541 6.6954 157.709 7.65289C156.877 8.61038 155.779 9.78762 154.774 10.7922C154.444 11.1375 154.005 11.5927 153.503 11.1375C153 10.6823 153.503 10.2428 153.801 9.8818C154.583 8.90288 155.422 7.97 156.312 7.08781C157.474 6.02044 157.725 5.15713 156.202 4.19964C155.433 3.69735 154.743 3.05379 154.021 2.47302L154.476 1.82946Z" fill="#DC582A"/>
</svg>
