<svg width="139" height="65" viewBox="0 0 139 65" fill="none" xmlns="http://www.w3.org/2000/svg">
<path d="M85.4671 1.11816C87.1538 1.74695 88.771 2.54832 90.2929 3.50952C93.0936 5.10375 95.9697 6.59027 98.7704 8.19528C101.043 9.49867 102.896 11.4268 105.233 12.741C108.548 14.6771 111.536 17.1236 114.088 19.9905C116.092 22.2095 118.774 23.6206 121.003 25.5703C122.081 26.4967 122.081 26.906 120.885 27.5846C116.458 30.1483 112.063 32.7767 107.582 35.2542C105.091 36.5675 102.47 37.618 99.7614 38.3888C92.0721 40.7648 84.6976 44.0596 77.7975 48.202C72.2893 51.5749 67.072 55.4015 62.1999 59.6417C60.7241 60.8912 59.2269 62.1084 57.7296 63.3257C57.4387 63.5519 57.2233 63.7134 57.2987 64.1551C57.4495 65.1246 56.7924 64.9845 56.3723 64.6291C54.6273 63.1425 52.4944 62.4747 50.4801 61.5052C47.0742 59.7372 43.9812 57.4229 41.324 54.6543C37.2166 50.7769 32.6257 47.446 27.6653 44.7442C25.2868 43.3759 22.7561 42.2914 20.125 41.5126C20.481 41.3276 20.8764 41.231 21.2776 41.231C21.6788 41.231 22.0742 41.3276 22.4302 41.5126C25.9014 42.7994 29.2268 44.4495 32.3511 46.4354C36.4286 49.0207 40.2168 52.0361 43.6507 55.4299C46.5368 58.2138 49.9501 60.3929 53.6901 61.8391C54.095 61.9876 54.4876 62.1677 54.8642 62.3777C56.5985 63.358 56.5877 63.3688 58.0958 61.9469C62.1623 58.0585 66.4804 54.4421 71.022 51.1211C74.746 48.6354 78.5968 46.3451 82.5587 44.2595C87.7171 41.4846 93.1549 39.264 98.7811 37.6348C103.485 36.0828 107.993 33.9898 112.214 31.3979C114.465 30.0514 116.759 28.7695 119.021 27.4338C120.422 26.6152 120.519 26.2812 119.215 25.3656C112.946 20.9599 107.948 15.0354 101.356 10.9852C97.5855 8.65847 93.7614 6.43946 89.9374 4.19892C88.7525 3.50952 87.5676 2.79858 86.3935 2.04454C86.0057 1.80756 85.521 1.64599 85.3163 1.11816H85.4671Z" fill="#111111"/>
<path d="M85.4041 1.15082C83.4006 1.87253 81.7525 3.22978 79.889 4.2208C75.0382 6.83538 69.9116 8.90194 64.6037 10.3823C60.2465 11.6908 55.9791 13.2812 51.8283 15.1435C46.357 17.4817 41.1944 20.4845 36.4568 24.0841C31.4379 27.6515 27.0384 32.0182 23.4336 37.0103C22.6257 38.1845 21.6778 39.2509 20.773 40.3388C20.5037 40.6728 20.0728 41.0929 19.6958 40.7805C19.3188 40.4681 19.8143 40.0372 20.0405 39.7033C22.1195 37.1288 23.8106 34.242 26.0943 31.8291C31.5574 26.1155 37.8639 21.273 44.7942 17.4702C51.9068 13.6873 59.4083 10.686 67.1674 8.51877C72.4749 6.87777 77.5448 4.54923 82.248 1.59246C83.0882 1.07541 83.9607 0.60145 84.844 0.13826C85.1995 -0.0448615 85.6303 -0.098721 85.9212 0.31061C86.212 0.71994 85.6842 0.870746 85.4795 1.1185L85.4041 1.15082Z" fill="#111111"/>
<path d="M11.1193 44.0981C11.0331 44.669 10.5807 44.6798 10.236 44.7767L3.02964 46.748C2.70649 46.8342 2.30793 47.0388 2.14635 46.5756C1.98477 46.1124 2.38333 45.8539 2.74958 45.7354C4.02066 45.3369 5.29174 44.9491 6.57359 44.6582C7.85544 44.3674 8.99725 44.055 10.2037 43.7749C10.6023 43.6349 10.9793 43.6457 11.1193 44.0981Z" fill="#111111"/>
<path d="M137.513 27.251C138.17 27.3372 138.806 27.3048 138.838 27.9942C138.87 28.6836 138.213 28.6082 137.761 28.6405C135.607 28.856 133.452 29.0176 131.362 29.2115C131.093 29.2115 130.824 29.2115 130.748 28.9098C130.673 28.6082 130.91 28.3605 131.212 28.2635C131.66 28.1115 132.117 27.9857 132.58 27.8865C134.282 27.6172 136.048 28.0696 137.513 27.251Z" fill="#111111"/>
<path d="M129.626 24.773C129.421 24.773 129.141 24.8591 129.076 24.6114C128.958 24.1913 129.356 24.1266 129.615 24.0405C131.327 23.4803 133.137 23.2864 134.828 22.6294C135.787 22.2631 136.778 21.983 137.769 21.6814C138.114 21.5737 138.491 21.5845 138.588 22.0369C138.601 22.1122 138.6 22.1894 138.582 22.264C138.565 22.3385 138.533 22.4087 138.487 22.4703C138.442 22.5319 138.385 22.5835 138.318 22.6219C138.252 22.6604 138.179 22.6849 138.103 22.694C135.281 23.3942 132.62 24.6437 129.626 24.773Z" fill="#111111"/>
<path d="M2.80185 39.3477L7.73536 39.8755C8.03698 39.8755 8.41399 39.8755 8.41399 40.3064C8.41399 40.7372 8.03698 40.7372 7.74614 40.7265C5.34401 40.6511 2.95266 40.5541 0.550532 40.4464C0.292007 40.4464 0.0227104 40.3387 0.0011667 40.0263C-0.020377 39.7139 0.259692 39.4877 0.572076 39.4554C1.20762 39.4015 1.85393 39.3907 2.80185 39.3477Z" fill="#111111"/>
<path d="M128.447 21.0457C128.048 21.0995 127.8 21.1211 127.693 20.8949C127.665 20.8359 127.65 20.7718 127.649 20.7067C127.647 20.6416 127.66 20.5769 127.685 20.5169C127.711 20.4569 127.748 20.403 127.796 20.3586C127.844 20.3142 127.9 20.2804 127.962 20.2593C129.513 19.6453 131.086 19.0637 132.572 18.2989C132.632 18.2717 132.698 18.2583 132.764 18.2599C132.83 18.2614 132.895 18.2778 132.954 18.3078C133.013 18.3378 133.064 18.3806 133.105 18.4331C133.145 18.4856 133.173 18.5465 133.186 18.6112C133.235 18.757 133.225 18.9161 133.159 19.0548C133.092 19.1935 132.975 19.3009 132.831 19.3545C131.424 20.0516 129.957 20.6178 128.447 21.0457Z" fill="#111111"/>
</svg>
