<svg width="146" height="88" viewBox="0 0 146 88" fill="none" xmlns="http://www.w3.org/2000/svg">
<path d="M63.4355 87.1338L64.5775 86.8769C62.6432 86.6643 60.6932 86.6356 58.7536 86.7912C57.6715 86.8261 56.5935 86.6416 55.5847 86.2488C55.1648 86.0894 54.8034 85.8061 54.5484 85.4364C54.2934 85.0667 54.157 84.6281 54.1572 84.179C53.9288 77.1275 52.7298 70.1189 53.158 63.0388C53.7433 53.9318 53.3722 44.8106 54.2857 35.7036C54.897 29.6809 54.8156 23.6079 54.043 17.6038C53.9788 17.3109 53.9744 17.0081 54.03 16.7135C54.0857 16.4189 54.2002 16.1385 54.3669 15.8892C54.5335 15.64 54.7487 15.4269 54.9997 15.2629C55.2506 15.0988 55.5322 14.9871 55.8273 14.9345C59.5323 13.8135 63.3762 13.2177 67.2468 13.1645C69.6306 13.1645 71.9573 12.1796 74.3839 12.8933C74.548 12.9318 74.7152 12.9557 74.8835 12.9646C79.6939 13.764 80.5932 15.0487 80.0936 19.8734C79.6844 24.1808 79.5604 28.5106 79.7225 32.8344C79.9651 39.8288 79.123 46.8232 78.866 53.8176C78.6091 60.812 78.295 67.3639 77.9239 74.1299C77.6955 78.4122 77.2958 82.5375 77.0246 86.7341C77.0373 86.8917 77.0159 87.0502 76.9617 87.1987C76.9076 87.3472 76.8221 87.4823 76.7109 87.5948C76.5998 87.7073 76.4658 87.7944 76.3179 87.8504C76.1701 87.9063 76.0119 87.9297 75.8541 87.9189C71.6985 88.0993 67.5354 87.8361 63.4355 87.1338ZM54.771 50.8629C54.771 52.7899 54.8995 54.7455 54.771 56.6725C54.0716 65.6225 54.9851 74.5296 55.4276 83.4368C55.4017 83.7325 55.438 84.0303 55.5341 84.3112C55.6303 84.592 55.7841 84.8497 55.9858 85.0675C56.1875 85.2853 56.4325 85.4585 56.7051 85.5759C56.9778 85.6933 57.272 85.7523 57.5688 85.7492C59.8955 86.1203 62.1937 85.1925 64.5346 85.8491C67.6814 86.8061 70.9709 87.207 74.2554 87.0339C75.3403 86.9482 75.7828 86.6342 75.6828 85.5065C75.6443 84.0775 75.6919 82.6475 75.8256 81.2242C76.9247 70.1617 76.9247 59.0277 77.7098 47.9366C78.395 38.2729 77.8811 28.5664 78.6947 18.9027C79.023 15.063 78.4663 14.6205 74.6123 13.9353C74.1269 13.8508 73.6346 13.8126 73.142 13.8211C68.5328 13.8872 63.9343 14.2831 59.3816 15.0059C55.9558 15.6339 55.2849 16.2477 55.5847 19.7735C55.8844 23.2992 55.7702 26.5966 55.8273 30.0224C56.0129 36.9883 54.5855 43.8827 54.771 50.8629Z" fill="#111111"/>
<path d="M105.538 12.694C105.409 13.108 105.095 12.9367 104.838 12.9081C103.501 12.5197 102.068 12.6333 100.809 13.2274C99.5499 13.8215 98.5512 14.8552 98.0008 16.1341C97.2358 17.5979 96.6419 19.145 96.2308 20.7447C96.107 21.1875 96.129 21.6583 96.2935 22.0876C96.458 22.5169 96.7563 22.8819 97.1444 23.1285C98.1334 23.9038 99.3348 24.3599 100.589 24.4364C101.843 24.5129 103.091 24.2061 104.167 23.5567C105.025 22.9992 105.854 22.399 106.651 21.7582C107.022 21.4727 107.408 21.1158 107.807 21.6154C108.207 22.115 107.95 22.4576 107.665 22.8573C106.542 24.1085 105.065 24.9878 103.431 25.378C101.796 25.7682 100.081 25.6507 98.5147 25.0412L97.0016 24.2562C96.2126 23.9012 95.5809 23.2695 95.2259 22.4805C94.8708 21.6915 94.817 20.7998 95.0746 19.9739C95.6616 16.991 97.2111 14.2832 99.4853 12.2658C99.9104 11.8955 100.404 11.6128 100.939 11.4339C101.473 11.2549 102.038 11.1833 102.6 11.2231C103.163 11.2629 103.712 11.4133 104.216 11.6657C104.72 11.9181 105.169 12.2676 105.538 12.694Z" fill="#111111"/>
<path d="M90.2696 10.3255C90.6802 10.2701 91.0979 10.308 91.4918 10.4364C91.8857 10.5648 92.2456 10.7804 92.5447 11.0671C92.8437 11.3538 93.0743 11.7042 93.2191 12.0924C93.364 12.4805 93.4195 12.8963 93.3814 13.3089C93.4813 15.8925 92.1966 17.3913 89.7985 17.4912C88.7964 17.4793 87.8278 17.1286 87.0503 16.4962C86.2728 15.8639 85.7321 14.987 85.5163 14.0083C85.4734 12.0527 87.6146 10.3826 90.2696 10.3255ZM90.4409 11.753C88.5281 11.753 87.0293 12.7379 87.1578 13.8798C87.2863 15.0218 87.5575 16.2779 89.199 16.2779C89.5782 16.2941 89.9567 16.2313 90.3104 16.0935C90.664 15.9558 90.9853 15.7461 91.2536 15.4777C91.522 15.2093 91.7318 14.8881 91.8695 14.5344C92.0073 14.1807 92.07 13.8023 92.0539 13.4231C92.0967 12.1526 91.697 11.4818 90.4552 11.6816L90.4409 11.753Z" fill="#111111"/>
<path d="M38.2978 67.5349L35.7428 67.3636C35.286 67.3636 34.9862 67.0924 35.0005 66.6071C35.0148 66.1217 35.3716 65.9076 35.8141 65.9647C39.0972 66.3644 42.3803 65.5365 45.6634 65.8077C46.2058 65.8077 47.0908 65.8077 47.0908 66.4358C47.0908 67.0638 46.2914 67.0781 45.7918 67.1067C43.3224 67.2779 40.8958 67.3921 38.2978 67.5349Z" fill="#111111"/>
<path d="M41.5808 51.121C40.2818 51.2066 38.9828 51.3208 37.6696 51.3637C37.0986 51.3637 36.3707 51.2637 36.2422 50.6071C36.2422 49.7078 37.0415 49.9648 37.5269 49.9505C40.0721 49.7222 42.6327 49.7222 45.1779 49.9505C45.6489 49.9505 46.3769 49.9505 46.3341 50.6499C46.2913 51.3494 45.549 51.1353 45.0922 51.1638C43.9788 51.1495 42.7798 51.121 41.5808 51.121Z" fill="#111111"/>
<path d="M42.216 85.1219H37.9337C37.5055 85.1219 37.1201 84.9648 37.0773 84.4795C37.0345 83.9942 37.4484 83.7658 37.8624 83.8229C40.3033 84.1369 42.7584 83.4232 45.1993 83.8229C45.6447 83.8913 46.0805 84.0111 46.4983 84.1797C46.6269 84.2434 46.7305 84.3482 46.7926 84.4776C46.8547 84.6069 46.8717 84.7533 46.8409 84.8935C46.741 85.2646 46.4127 85.2075 46.1272 85.2075H42.216V85.1219Z" fill="#111111"/>
<path d="M68.8584 38.6308C68.4873 43.898 67.9306 49.1509 67.7308 54.4467C67.5024 60.9986 67.6166 67.5505 67.5167 74.0881C67.5167 74.8732 68.0448 75.3157 68.4873 75.8295C68.7911 76.0974 69.0344 76.4269 69.201 76.7961C69.3677 77.1653 69.4538 77.5657 69.4538 77.9707C69.4538 78.3757 69.3677 78.7761 69.201 79.1453C69.0344 79.5144 68.7911 79.8439 68.4873 80.1118C67.9025 80.8223 67.0738 81.2892 66.163 81.4212C65.2523 81.5532 64.3251 81.3408 63.5627 80.8255C62.9135 80.286 62.5052 79.5107 62.4276 78.6702C62.3499 77.8297 62.6093 76.9927 63.1487 76.3434C63.8592 75.3195 64.2151 74.0913 64.1622 72.8462C64.933 61.9978 64.6761 51.0779 66.132 40.258C66.389 38.4024 66.132 36.5039 66.4604 34.634C66.5888 33.8774 66.7601 33.2065 67.6308 33.2065C68.5016 33.2065 68.5729 34.0059 68.6015 34.634C68.7917 35.9574 68.8776 37.2938 68.8584 38.6308Z" fill="#DC582A"/>
<path d="M134 2.75283C135.427 2.66718 136.198 3.69493 137.098 4.35155C139.381 6.05019 139.367 6.09301 140.723 3.56646C141.223 2.65291 141.68 1.73936 142.151 0.840076C142.379 0.411847 142.55 -0.287592 143.221 0.126362C143.892 0.540316 143.464 1.08274 143.221 1.55379C142.44 2.71777 141.748 3.93935 141.151 5.20801C140.666 6.40705 141.08 6.83527 142.079 7.24923C143.058 7.69566 144.011 8.19603 144.934 8.74803C145.22 8.91932 145.791 9.10488 145.448 9.61876C145.105 10.1326 144.82 9.79005 144.506 9.61876C143.484 9.11261 142.488 8.55521 141.523 7.94867C140.523 7.24923 139.881 7.47761 139.339 8.47681C138.796 9.47601 138.125 10.6608 137.483 11.7314C137.255 12.131 137.169 12.9447 136.498 12.5735C135.827 12.2024 136.384 11.6172 136.584 11.1461C136.963 10.2033 137.441 9.30371 138.011 8.46254C139.067 7.03511 138.668 6.17866 137.24 5.3793C136.177 4.71614 135.157 3.98671 134.186 3.19533C134.114 3.20961 134.1 3.00976 134 2.75283Z" fill="#DC582A"/>
<mask id="mask0_2816_47725" style="mask-type:alpha" maskUnits="userSpaceOnUse" x="0" y="0" width="146" height="88">
<rect width="146" height="88" fill="#D9D9D9"/>
</mask>
<g mask="url(#mask0_2816_47725)">
</g>
</svg>
