<svg width="51" height="50" viewBox="0 0 51 50" fill="none" xmlns="http://www.w3.org/2000/svg">
<circle cx="25.0234" cy="25" r="24.5" stroke="url(#paint0_linear_2280_6210)"/>
<g clip-path="url(#clip0_2280_6210)">
<path d="M34.1875 16.6782C32.5937 15.9595 30.8854 15.4282 29.0989 15.1261C29.083 15.1231 29.0666 15.125 29.0518 15.1318C29.0371 15.1385 29.0248 15.1496 29.0166 15.1636C28.7979 15.548 28.5541 16.049 28.3833 16.4449C26.4886 16.1618 24.5624 16.1618 22.6677 16.4449C22.4774 16.0062 22.2628 15.5784 22.025 15.1636C22.0169 15.1494 22.0047 15.138 21.99 15.131C21.9753 15.1239 21.9588 15.1215 21.9427 15.124C20.1573 15.4261 18.4489 15.9574 16.8541 16.6772C16.8404 16.6829 16.8288 16.6927 16.8208 16.7053C13.5791 21.4709 12.6906 26.1188 13.1271 30.7084C13.1283 30.7197 13.1318 30.7305 13.1373 30.7404C13.1429 30.7502 13.1504 30.7588 13.1594 30.7657C15.0514 32.1432 17.1618 33.1926 19.4021 33.8699C19.4177 33.8747 19.4344 33.8747 19.45 33.8698C19.4656 33.865 19.4794 33.8556 19.4896 33.8428C19.9716 33.1981 20.3988 32.5141 20.7666 31.798C20.7718 31.7882 20.7747 31.7774 20.7753 31.7664C20.7759 31.7554 20.7741 31.7444 20.77 31.7341C20.766 31.7238 20.7597 31.7145 20.7518 31.7069C20.7439 31.6992 20.7344 31.6933 20.7239 31.6897C20.051 31.4363 19.399 31.1305 18.7739 30.7751C18.7627 30.7687 18.7532 30.7596 18.7464 30.7486C18.7395 30.7376 18.7355 30.7251 18.7347 30.7122C18.7339 30.6993 18.7363 30.6864 18.7417 30.6746C18.7471 30.6629 18.7553 30.6527 18.7656 30.6449C18.8969 30.548 19.0281 30.447 19.1531 30.3459C19.1644 30.3368 19.1779 30.331 19.1923 30.3292C19.2066 30.3274 19.2212 30.3295 19.2344 30.3355C23.325 32.173 27.7552 32.173 31.7979 30.3355C31.8111 30.3292 31.8258 30.3267 31.8404 30.3284C31.8549 30.33 31.8687 30.3358 31.8802 30.3449C32.0052 30.447 32.1354 30.548 32.2677 30.6449C32.2781 30.6525 32.2865 30.6626 32.292 30.6742C32.2976 30.6859 32.3002 30.6988 32.2996 30.7117C32.299 30.7246 32.2951 30.7371 32.2885 30.7482C32.2818 30.7592 32.2725 30.7685 32.2614 30.7751C31.6385 31.1334 30.9906 31.4365 30.3104 31.6886C30.2999 31.6924 30.2904 31.6984 30.2825 31.7062C30.2745 31.7139 30.2683 31.7233 30.2643 31.7336C30.2602 31.744 30.2585 31.7551 30.259 31.7662C30.2596 31.7773 30.2626 31.7881 30.2677 31.798C30.6427 32.5136 31.0719 33.1949 31.5437 33.8417C31.5535 33.855 31.5672 33.8649 31.5829 33.8702C31.5985 33.8754 31.6154 33.8756 31.6312 33.8709C33.8753 33.1955 35.9891 32.1457 37.8833 30.7657C37.8926 30.7592 37.9003 30.7509 37.9061 30.7412C37.9118 30.7315 37.9154 30.7207 37.9166 30.7095C38.4375 25.4032 37.0437 20.7928 34.2198 16.7074C34.2128 16.6941 34.2014 16.6837 34.1875 16.6782ZM21.3781 27.9136C20.1469 27.9136 19.1312 26.8001 19.1312 25.4345C19.1312 24.0678 20.1271 22.9553 21.3781 22.9553C22.6385 22.9553 23.6448 24.0772 23.625 25.4345C23.625 26.8011 22.6291 27.9136 21.3781 27.9136ZM29.6854 27.9136C28.4531 27.9136 27.4385 26.8001 27.4385 25.4345C27.4385 24.0678 28.4333 22.9553 29.6854 22.9553C30.9458 22.9553 31.9521 24.0772 31.9323 25.4345C31.9323 26.8011 30.9469 27.9136 29.6854 27.9136Z" fill="url(#paint1_linear_2280_6210)"/>
</g>
<defs>
<linearGradient id="paint0_linear_2280_6210" x1="50.6306" y1="50" x2="0.0234375" y2="0" gradientUnits="userSpaceOnUse">
<stop stop-color="#4D74FD"/>
<stop offset="1" stop-color="#4DFDF2"/>
</linearGradient>
<linearGradient id="paint1_linear_2280_6210" x1="16.8697" y1="16.8539" x2="31.8085" y2="38.2201" gradientUnits="userSpaceOnUse">
<stop stop-color="#2698EA"/>
<stop offset="1" stop-color="#5A82F6" stop-opacity="0.8"/>
</linearGradient>
<clipPath id="clip0_2280_6210">
<rect width="25" height="25" fill="white" transform="translate(13.0234 12)"/>
</clipPath>
</defs>
</svg>
