<svg style="display: none;" aria-hidden="true" xmlns="http://www.w3.org/2000/svg" xmlns:xlink="http://www.w3.org/1999/xlink"><symbol viewBox="0 0 20 20" fill="none" id="svg-close"><circle cx="10" cy="10" r="10" fill="#2E3036"/><path d="M6 14L14 6M14 14L6 6" stroke="#010303" stroke-width="2" stroke-miterlimit="10" stroke-linecap="round" stroke-linejoin="round"/></symbol><symbol viewBox="0 0 51 50" fill="none" id="svg-dc"><circle cx="25.023" cy="25" r="24.5" stroke="url(#bpaint0_linear_2280_6210)"/><g clip-path="url(#bclip0_2280_6210)"><path d="M34.1875 16.6782C32.5937 15.9595 30.8854 15.4282 29.0989 15.1261C29.083 15.1231 29.0666 15.125 29.0518 15.1318C29.0371 15.1385 29.0248 15.1496 29.0166 15.1636C28.7979 15.548 28.5541 16.049 28.3833 16.4449C26.4886 16.1618 24.5624 16.1618 22.6677 16.4449C22.4774 16.0062 22.2628 15.5784 22.025 15.1636C22.0169 15.1494 22.0047 15.138 21.99 15.131C21.9753 15.1239 21.9588 15.1215 21.9427 15.124C20.1573 15.4261 18.4489 15.9574 16.8541 16.6772C16.8404 16.6829 16.8288 16.6927 16.8208 16.7053C13.5791 21.4709 12.6906 26.1188 13.1271 30.7084C13.1283 30.7197 13.1318 30.7305 13.1373 30.7404C13.1429 30.7502 13.1504 30.7588 13.1594 30.7657C15.0514 32.1432 17.1618 33.1926 19.4021 33.8699C19.4177 33.8747 19.4344 33.8747 19.45 33.8698C19.4656 33.865 19.4794 33.8556 19.4896 33.8428C19.9716 33.1981 20.3988 32.5141 20.7666 31.798C20.7718 31.7882 20.7747 31.7774 20.7753 31.7664C20.7759 31.7554 20.7741 31.7444 20.77 31.7341C20.766 31.7238 20.7597 31.7145 20.7518 31.7069C20.7439 31.6992 20.7344 31.6933 20.7239 31.6897C20.051 31.4363 19.399 31.1305 18.7739 30.7751C18.7627 30.7687 18.7532 30.7596 18.7464 30.7486C18.7395 30.7376 18.7355 30.7251 18.7347 30.7122C18.7339 30.6993 18.7363 30.6864 18.7417 30.6746C18.7471 30.6629 18.7553 30.6527 18.7656 30.6449C18.8969 30.548 19.0281 30.447 19.1531 30.3459C19.1644 30.3368 19.1779 30.331 19.1923 30.3292C19.2066 30.3274 19.2212 30.3295 19.2344 30.3355C23.325 32.173 27.7552 32.173 31.7979 30.3355C31.8111 30.3292 31.8258 30.3267 31.8404 30.3284C31.8549 30.33 31.8687 30.3358 31.8802 30.3449C32.0052 30.447 32.1354 30.548 32.2677 30.6449C32.2781 30.6525 32.2865 30.6626 32.292 30.6742C32.2976 30.6859 32.3002 30.6988 32.2996 30.7117C32.299 30.7246 32.2951 30.7371 32.2885 30.7482C32.2818 30.7592 32.2725 30.7685 32.2614 30.7751C31.6385 31.1334 30.9906 31.4365 30.3104 31.6886C30.2999 31.6924 30.2904 31.6984 30.2825 31.7062C30.2745 31.7139 30.2683 31.7233 30.2643 31.7336C30.2602 31.744 30.2585 31.7551 30.259 31.7662C30.2596 31.7773 30.2626 31.7881 30.2677 31.798C30.6427 32.5136 31.0719 33.1949 31.5437 33.8417C31.5535 33.855 31.5672 33.8649 31.5829 33.8702C31.5985 33.8754 31.6154 33.8756 31.6312 33.8709C33.8753 33.1955 35.9891 32.1457 37.8833 30.7657C37.8926 30.7592 37.9003 30.7509 37.9061 30.7412C37.9118 30.7315 37.9154 30.7207 37.9166 30.7095C38.4375 25.4032 37.0437 20.7928 34.2198 16.7074C34.2128 16.6941 34.2014 16.6837 34.1875 16.6782ZM21.3781 27.9136C20.1469 27.9136 19.1312 26.8001 19.1312 25.4345C19.1312 24.0678 20.1271 22.9553 21.3781 22.9553C22.6385 22.9553 23.6448 24.0772 23.625 25.4345C23.625 26.8011 22.6291 27.9136 21.3781 27.9136ZM29.6854 27.9136C28.4531 27.9136 27.4385 26.8001 27.4385 25.4345C27.4385 24.0678 28.4333 22.9553 29.6854 22.9553C30.9458 22.9553 31.9521 24.0772 31.9323 25.4345C31.9323 26.8011 30.9469 27.9136 29.6854 27.9136Z" fill="url(#bpaint1_linear_2280_6210)"/></g><defs><linearGradient id="bpaint0_linear_2280_6210" x1="50.631" y1="50" x2=".023" y2="0" gradientUnits="userSpaceOnUse"><stop stop-color="#4D74FD"/><stop offset="1" stop-color="#4DFDF2"/></linearGradient><linearGradient id="bpaint1_linear_2280_6210" x1="16.87" y1="16.854" x2="31.808" y2="38.22" gradientUnits="userSpaceOnUse"><stop stop-color="#2698EA"/><stop offset="1" stop-color="#5A82F6" stop-opacity=".8"/></linearGradient><clipPath id="bclip0_2280_6210"><path fill="#fff" transform="translate(13.023 12)" d="M0 0H25V25H0z"/></clipPath></defs></symbol><symbol viewBox="0 0 306 306" fill="none" id="svg-rings"><g clip-path="url(#cclip0_165_69246)"><path fill="url(#cpaint0_radial_165_69246)" fill-opacity=".2" d="M0 0H306V306H0z"/><path d="M166.32 98.83L168.434 89.5905C174.993 91.0465 181.305 93.4487 187.173 96.7216L182.58 104.935C177.49 102.11 172.011 100.053 166.32 98.83V98.83Z" fill="url(#cpaint1_linear_165_69246)"/><path d="M160.194 95.9147L160.819 90.2901C163.219 90.5574 165.603 90.9546 167.961 91.48L166.721 96.9873C164.568 96.5024 162.389 96.1443 160.194 95.9147Z" fill="url(#cpaint2_linear_165_69246)"/><path d="M155.018 97.4375L155.272 88.0301C156.179 88.0528 157.115 88.0833 158.025 88.154L157.384 97.5363C156.611 97.4864 155.819 97.4473 155.018 97.4375Z" fill="url(#cpaint3_linear_165_69246)"/><path d="M138.073 97.2418L136.77 92.2338C141.904 90.9092 147.177 90.1983 152.479 90.1162L152.54 95.295C147.657 95.3679 142.801 96.0214 138.073 97.2418V97.2418Z" fill="url(#cpaint4_linear_165_69246)"/><path d="M135.076 96.612L134.359 94.2949C135.267 94.0189 136.186 93.7615 137.086 93.5148L137.667 95.8111C136.836 96.0921 135.966 96.3467 135.076 96.612Z" fill="url(#cpaint5_linear_165_69246)"/><path d="M128.565 102.878L124.623 94.3295C127.462 93.025 130.384 91.91 133.371 90.9919L136.089 99.9993C133.518 100.786 131.004 101.748 128.565 102.878V102.878Z" fill="url(#cpaint6_linear_165_69246)"/><path d="M117.823 99.1973C118.4 98.8641 118.996 98.5201 119.573 98.1868C121.435 97.1118 123.167 96.1121 125.075 95.3329L128.132 101.96C126.463 102.725 124.819 103.575 123.218 104.499C122.696 104.8 122.175 105.101 121.635 105.413L117.823 99.1973Z" fill="url(#cpaint7_linear_165_69246)"/><path d="M105.718 111.548C109.62 107.446 114.039 103.868 118.863 100.905L120.508 103.754C115.924 106.579 111.723 109.981 108.006 113.877L105.718 111.548Z" fill="url(#cpaint8_linear_165_69246)"/><path d="M95.8876 118.989C97.4181 116.66 99.0886 114.427 100.89 112.302L108.056 118.393C106.472 120.252 105.007 122.21 103.669 124.253L95.8876 118.989Z" fill="url(#cpaint9_linear_165_69246)"/><path d="M88.4176 139.936C90.0022 133.786 92.4503 127.892 95.6889 122.43L101.055 125.489C98.0953 130.462 95.8524 135.827 94.3926 141.427L88.4176 139.936Z" fill="url(#cpaint10_linear_165_69246)"/><path d="M86.4893 145.496C86.8167 143.569 87.2401 141.636 87.7466 139.805L95.0167 141.69C94.5976 143.372 94.2186 145.081 93.9169 146.794L86.4893 145.496Z" fill="url(#cpaint11_linear_165_69246)"/><path d="M87.732 163.992C87.1037 157.922 87.3257 151.794 88.3917 145.785L92.1015 146.449C91.104 152.15 90.9084 157.962 91.5203 163.717L87.732 163.992Z" fill="url(#cpaint12_linear_165_69246)"/><path d="M86.7508 167.885C86.5612 166.653 86.3903 165.411 86.2488 164.177L93.0245 163.443C93.1496 164.563 93.3362 165.746 93.4848 166.777L86.7508 167.885Z" fill="url(#cpaint13_linear_165_69246)"/><path d="M95.2319 190.523C92.075 185.074 89.6993 179.207 88.1747 173.097L94.1071 171.633C96.1532 179.72 99.8099 187.312 104.858 193.953L99.9948 197.655C98.2595 195.38 96.6687 192.998 95.2319 190.523V190.523Z" fill="url(#cpaint14_linear_165_69246)"/><path d="M98.6629 198.746L106.152 193.056C107.796 195.206 109.579 197.245 111.489 199.161L104.868 205.839C102.637 203.622 100.564 201.252 98.6629 198.746V198.746Z" fill="url(#cpaint15_linear_165_69246)"/><path d="M107.494 203.207L109.087 201.667C110.68 203.214 112.353 204.676 114.099 206.048L112.792 207.696C110.944 206.299 109.176 204.8 107.494 203.207V203.207Z" fill="url(#cpaint16_linear_165_69246)"/><path d="M111.583 209.086L114.948 204.809C120.991 209.66 127.898 213.322 135.305 215.6L133.749 220.818C125.685 218.345 118.163 214.364 111.583 209.086V209.086Z" fill="url(#cpaint17_linear_165_69246)"/><path d="M133.27 222.391L135.9 214.045C137.066 214.389 138.252 214.723 139.405 215L137.36 223.455C135.938 223.184 134.595 222.793 133.27 222.391Z" fill="url(#cpaint18_linear_165_69246)"/><path d="M141.05 220.951L141.446 218.885C145.746 219.705 150.12 220.076 154.497 219.99L154.528 222.107C150.008 222.182 145.492 221.795 141.05 220.951Z" fill="url(#cpaint19_linear_165_69246)"/><path d="M154.48 224.866L154.374 217.33C158.829 217.264 163.263 216.711 167.597 215.679L169.336 222.992C164.47 224.173 159.487 224.801 154.48 224.866Z" fill="url(#cpaint20_linear_165_69246)"/><path d="M174.019 220.216L172.556 215.747C176.674 214.393 180.641 212.619 184.395 210.452C187.058 208.92 189.604 207.193 192.012 205.285L194.948 208.952C192.359 211.014 189.618 212.879 186.749 214.53C182.712 216.858 178.447 218.763 174.019 220.216V220.216Z" fill="url(#cpaint21_linear_165_69246)"/><path d="M193.123 206.651C193.804 206.109 194.492 205.538 195.151 204.959L195.936 205.846C195.259 206.436 194.552 207.018 193.853 207.57L193.123 206.651Z" fill="url(#cpaint22_linear_165_69246)"/><path d="M195.691 202.114C197.572 200.374 199.346 198.521 201.002 196.565L204.602 199.576C202.832 201.696 200.932 203.705 198.914 205.591L195.691 202.114Z" fill="url(#cpaint23_linear_165_69246)"/><path d="M200.868 192.893C201.332 192.277 201.785 191.643 202.257 190.999L210.001 196.458C209.506 197.191 208.981 197.916 208.446 198.622L200.868 192.893Z" fill="url(#cpaint24_linear_165_69246)"/><path d="M204.593 189.58C207.457 185.093 209.718 180.248 211.318 175.171L218.053 177.29C216.26 182.962 213.736 188.376 210.543 193.394L204.593 189.58Z" fill="url(#cpaint25_linear_165_69246)"/><path d="M213.304 172.034C214.672 166.612 215.299 161.03 215.169 155.44L220.075 155.338C220.208 161.385 219.517 167.422 218.022 173.282L213.304 172.034Z" fill="url(#cpaint26_linear_165_69246)"/><path d="M216.832 155.397C216.696 149.614 215.765 143.878 214.064 138.349L215.644 137.86C217.386 143.538 218.339 149.428 218.477 155.366L216.832 155.397Z" fill="url(#cpaint27_linear_165_69246)"/><path d="M209.367 136.792C209.04 135.839 208.665 134.888 208.282 133.967L216.944 130.307C217.394 131.388 217.826 132.48 218.22 133.593L209.367 136.792Z" fill="url(#cpaint28_linear_165_69246)"/><path d="M194.164 111.108L198.08 106.711C203.431 111.507 207.977 117.131 211.545 123.368C212.222 124.541 212.91 125.733 213.465 126.952L208.21 129.589C207.597 128.527 207.085 127.383 206.462 126.303C203.204 120.611 199.052 115.48 194.164 111.108V111.108Z" fill="url(#cpaint29_linear_165_69246)"/><path d="M185.591 103.097L187.147 100.461C190.688 102.56 194.021 104.992 197.1 107.724L195.07 110.013C192.143 107.405 188.968 105.088 185.591 103.097V103.097Z" fill="url(#cpaint30_linear_165_69246)"/><path d="M88.3858 108.206C93.2184 101.843 98.9559 96.2222 105.416 91.521L112.838 101.71C107.371 105.691 102.516 110.451 98.4286 115.839L88.3858 108.206Z" fill="url(#cpaint31_linear_165_69246)"/><path d="M87.7122 118.131C89.1456 115.759 90.7056 113.466 92.3857 111.262L94.4248 112.816C92.8056 114.945 91.2987 117.158 89.9103 119.444L87.7122 118.131Z" fill="url(#cpaint32_linear_165_69246)"/><path d="M80.7982 121.897C81.2792 120.924 81.7788 119.941 82.3 118.994L92.0389 124.296C91.5973 125.122 91.1664 125.966 90.7355 126.811L80.7982 121.897Z" fill="url(#cpaint33_linear_165_69246)"/><path d="M76.7533 143.871C77.8684 137.769 79.7 131.819 82.2101 126.147L86.694 128.151C84.3414 133.46 82.6322 139.031 81.6028 144.746L76.7533 143.871Z" fill="#003252"/><path d="M71.9939 157.815C71.9906 154.112 72.2351 150.412 72.7257 146.742L84.5098 148.404C84.0865 151.54 83.8708 154.7 83.8641 157.864L71.9939 157.815Z" fill="url(#cpaint34_linear_165_69246)"/><path d="M81.6825 186.509C79.2225 180.335 77.5745 173.867 76.78 167.268L80.3756 166.831C81.1389 173.139 82.7147 179.323 85.0636 185.227L81.6825 186.509Z" fill="url(#cpaint35_linear_165_69246)"/><path d="M84.1947 197.871C83.0013 195.804 81.808 193.737 80.9047 191.528L89.0589 187.763C90.2834 190.407 91.6727 192.972 93.2189 195.442L85.5865 200.196L84.1947 197.871Z" fill="#E3E9ED"/><path d="M89.0048 202.071L93.3996 199.062C97.3014 204.737 101.989 209.83 107.321 214.189L103.929 218.332C98.2131 213.642 93.1886 208.168 89.0048 202.071V202.071Z" fill="url(#cpaint36_linear_165_69246)"/><path d="M110.225 221.153L111.592 219.222C117.246 223.148 123.417 226.27 129.931 228.496L129.159 230.729C122.434 228.43 116.062 225.208 110.225 221.153V221.153Z" fill="url(#cpaint37_linear_165_69246)"/><path d="M138.858 235.703L140.205 228.62C146.797 229.83 153.525 230.124 160.197 229.491C163.262 229.209 166.305 228.737 169.311 228.077L170.89 235.111C167.572 235.858 164.209 236.382 160.821 236.678C153.491 237.375 146.099 237.046 138.858 235.703V235.703Z" fill="url(#cpaint38_linear_165_69246)"/><path d="M180.546 229.907L179.663 227.561C182.112 226.644 184.534 225.593 186.873 224.441L187.99 226.676C185.567 227.882 183.082 228.961 180.546 229.907Z" fill="url(#cpaint39_linear_165_69246)"/><path d="M188.325 227.379L186.517 223.731C194.833 219.606 202.28 213.924 208.456 206.993L211.49 209.71C204.961 217.018 197.099 223.015 188.325 227.379Z" fill="url(#cpaint40_linear_165_69246)"/><path d="M206.171 204.934C207.119 203.866 208.044 202.76 208.922 201.658L216.951 207.996C215.93 209.281 214.869 210.539 213.786 211.76L206.171 204.934Z" fill="url(#cpaint41_linear_165_69246)"/><path d="M213.429 200.817C216.393 196.699 218.93 192.29 220.999 187.657L224.775 189.251C222.581 194.156 219.881 198.818 216.719 203.163L213.429 200.817Z" fill="url(#cpaint42_linear_165_69246)"/><path d="M218.794 186.672C220.94 181.873 222.535 176.846 223.548 171.687L232.245 173.419C231.088 179.217 229.299 184.871 226.909 190.279L218.794 186.672Z" fill="url(#cpaint43_linear_165_69246)"/><path d="M225.201 166.337C225.795 161.348 225.873 156.311 225.434 151.305C225.109 147.734 224.516 144.192 223.662 140.71L230.723 138.966C231.658 142.801 232.308 146.7 232.667 150.631C233.182 156.166 233.114 161.739 232.461 167.26L225.201 166.337Z" fill="url(#cpaint44_linear_165_69246)"/><path d="M225.707 140.127C225.454 139.13 225.191 138.116 224.891 137.122L227.77 136.304C228.062 137.327 228.379 138.435 228.603 139.423L225.707 140.127Z" fill="url(#cpaint45_linear_165_69246)"/><path d="M222.936 135.023C221.998 132.15 220.873 129.341 219.571 126.613L224.464 124.21C225.853 127.144 227.064 130.16 228.089 133.24L222.936 135.023Z" fill="#C6D3DB"/><path d="M215.923 124.647C215.472 123.865 215.009 123.064 214.558 122.282L223.439 117.154C223.955 118.048 224.515 119.016 224.998 119.854L215.923 124.647Z" fill="#001523"/><path d="M203.329 103.169L205.786 100.459C210.824 105.031 215.237 110.246 218.912 115.971L215.852 117.936C212.342 112.487 208.132 107.522 203.329 103.169V103.169Z" fill="#002B47"/><path d="M181.771 92.7488L185.614 83.9257C192.294 86.8335 198.551 90.6281 204.218 95.2071L198.184 102.688C193.184 98.6529 187.663 95.3098 181.771 92.7488V92.7488Z" fill="url(#cpaint46_linear_165_69246)"/><path d="M163.695 83.7653L163.956 81.852C170.885 82.7852 177.652 84.6676 184.067 87.4462L183.307 89.2257C177.052 86.5134 170.452 84.6759 163.695 83.7653V83.7653Z" fill="url(#cpaint47_linear_165_69246)"/><path d="M156.086 88.8089L156.626 75.512C158.016 75.5539 159.408 75.6437 160.793 75.7629L159.679 88.969C158.433 88.9185 157.273 88.8437 156.086 88.8089Z" fill="url(#cpaint48_linear_165_69246)"/><path d="M124.641 91.4956L122.003 85.4214C129.733 82.0625 137.952 79.966 146.347 79.2119C147.947 79.0581 149.549 78.9524 151.146 78.924L151.352 85.5583C149.909 85.5967 148.422 85.686 146.966 85.8311C139.269 86.5098 131.731 88.4224 124.641 91.4956V91.4956Z" fill="url(#cpaint49_linear_165_69246)"/><path d="M110.33 94.5715C114.31 91.8516 118.536 89.5114 122.953 87.5817L123.724 89.3465C119.415 91.2213 115.298 93.507 111.428 96.1721L110.33 94.5715Z" fill="url(#cpaint50_linear_165_69246)"/><g opacity=".43"><path d="M111.27 43.871L101.049 14.8149L101.161 14.7504C115.033 9.86553 129.542 7.02538 144.232 6.31921L144.344 6.25471L144.408 6.36643L145.863 37.0081L145.77 37.0618C134.066 37.6318 122.507 39.9056 111.459 43.8115L111.27 43.871ZM101.367 14.9788L111.453 43.5422C122.443 39.6728 133.937 37.4192 145.574 36.852L144.132 6.57568C129.545 7.29173 115.14 10.1223 101.367 14.9788V14.9788Z" fill="url(#cpaint51_linear_165_69246)"/><path d="M93.7007 37.1347L91.6169 32.7515L91.7286 32.687C96.2017 30.5389 100.789 28.6365 105.469 26.9884L105.581 26.9239L107.185 31.5092L107.074 31.5737C102.557 33.1644 98.13 34.9992 93.8124 37.0702L93.7007 37.1347ZM91.9722 32.894L93.8244 36.7901C98.0809 34.7585 102.442 32.9534 106.889 31.3825L105.409 27.2714C100.832 28.9032 96.3471 30.7801 91.9722 32.894V32.894Z" fill="url(#cpaint52_linear_165_69246)"/><path d="M74.857 26.9837L74.9687 26.9192C76.7003 25.9195 78.4692 24.8982 80.2008 23.8985L80.3125 23.834L94.8138 51.015L94.7021 51.0795C93.3242 51.875 91.9278 52.6812 90.5313 53.4875L90.4196 53.552L74.857 26.9837ZM80.2611 24.2609C78.6039 25.2177 76.9096 26.1959 75.2524 27.1526L90.5678 53.2926C91.8898 52.5294 93.2118 51.7661 94.5151 51.0136L80.2611 24.2609Z" fill="url(#cpaint53_linear_165_69246)"/><path d="M47.2035 57.9929L47.3152 57.9284C55.1766 49.6604 63.9962 42.3597 73.5871 36.181L73.6988 36.1165L82.5934 49.9744L82.4817 50.0389C73.9892 55.4949 66.179 61.9462 59.2173 69.2555L59.1056 69.32L47.2035 57.9929ZM73.6152 36.4876C64.1153 42.5989 55.3723 49.8135 47.5688 57.9807L59.1334 68.9812C66.0529 61.7232 73.8139 55.317 82.2518 49.8986L73.6152 36.4876Z" fill="url(#cpaint54_linear_165_69246)"/><path d="M26.1312 74.8548C29.8631 69.1654 33.9783 63.7368 38.4483 58.6069L38.56 58.5424L38.6245 58.6541L60.1446 77.438L60.0328 77.5025C56.4279 81.6617 53.1134 86.064 50.1127 90.6782V90.6782L50.0482 90.5665L26.1312 74.8548ZM38.6224 58.7795C34.2153 63.8088 30.1421 69.1213 26.4291 74.6828L49.9743 90.1374C52.9782 85.5967 56.28 81.2602 59.8579 77.1566L38.6224 58.7795Z" fill="url(#cpaint55_linear_165_69246)"/><path d="M12.8935 128.727L12.8397 128.634C15.3153 116.709 19.326 105.155 24.7716 94.2611L35.2167 99.4527L35.105 99.5172C30.1477 109.506 26.497 120.092 24.243 131.013V131.013L12.8935 128.727ZM24.9192 94.4738C19.5751 105.283 15.6399 116.734 13.21 128.545L24.1433 130.798C26.4044 119.955 30.05 109.447 34.9904 99.5337L24.9192 94.4738Z" fill="url(#cpaint56_linear_165_69246)"/><path d="M-0.0243336 153.389C0.152304 147.167 0.715879 140.963 1.66313 134.812V134.812L33.1739 139.51C32.4446 144.349 32.0202 149.23 31.9033 154.122V154.122L-0.0243336 153.389ZM1.7599 134.979C0.876269 141.036 0.355081 147.141 0.199105 153.26L31.5401 154.009C31.6669 149.199 32.08 144.401 32.7771 139.64L1.7599 134.979Z" fill="url(#cpaint57_linear_165_69246)"/><path d="M12.4298 200.421L12.3653 200.309C8.27131 187.162 6.05971 173.502 5.79637 159.735V159.735L25.9716 159.334L26.0361 159.445C26.2376 171.283 28.1074 183.033 31.5903 194.349L31.6548 194.461L12.4298 200.421ZM6.08219 159.843C6.34226 173.505 8.52809 187.062 12.5751 200.114L31.3338 194.249C27.8509 182.982 25.9681 171.282 25.7403 159.492L6.08219 159.843Z" fill="url(#cpaint58_linear_165_69246)"/><path d="M22.8154 232.166C19.3079 226.092 16.2345 219.777 13.6182 213.269L13.543 213.139L38.4488 203.129L38.5133 203.241C42.7447 213.687 48.4071 223.494 55.3382 232.382L55.4027 232.494L55.2909 232.558L34.1235 249L34.0482 248.87C29.9306 243.562 26.1778 237.981 22.8154 232.166V232.166ZM13.9169 213.27C16.5151 219.731 19.5697 225.999 23.0575 232.026C26.3895 237.791 30.1009 243.329 34.1671 248.603L54.9492 232.482C48.0685 223.639 42.4395 213.889 38.2211 203.509L13.9169 213.27Z" fill="url(#cpaint59_linear_165_69246)"/><path d="M46.5689 265.054L46.6806 264.989L67.4093 243.488L67.4738 243.599C75.5528 251.404 84.6826 258.041 94.5983 263.319C99.1615 265.758 103.875 267.904 108.711 269.745L108.764 269.838L98.161 297.783L98.1073 297.69C92.0701 295.407 86.1884 292.732 80.4998 289.682C68.1198 283.097 56.7243 274.809 46.6462 265.059L46.5689 265.054ZM67.451 243.861L46.9342 265.041C56.9744 274.732 68.3174 282.974 80.6351 289.529C86.2786 292.544 92.1068 295.199 98.085 297.48L108.557 269.908C103.748 268.071 99.0578 265.936 94.5139 263.516C84.627 258.248 75.5191 251.633 67.451 243.861V243.861Z" fill="url(#cpaint60_linear_165_69246)"/><path d="M120.478 291.375L121.541 286.765L121.687 286.804C126.244 287.846 130.851 288.65 135.491 289.213V289.213L134.925 293.909C130.119 293.326 125.345 292.493 120.625 291.414L120.478 291.375ZM121.753 287.089L120.814 291.182C125.441 292.233 130.12 293.045 134.831 293.616L135.332 289.453C130.767 288.906 126.234 288.117 121.753 287.089V287.089Z" fill="url(#cpaint61_linear_165_69246)"/><path d="M134.234 299.028L136.028 283.989C152.009 285.908 168.208 284.786 183.771 280.682L183.882 280.617L183.947 280.729L187.756 295.239L187.644 295.303C170.253 299.916 152.147 301.205 134.277 299.102L134.234 299.028ZM136.254 284.38L134.506 298.896C152.296 301.015 170.325 299.754 187.647 295.178L183.919 281.068C168.382 285.169 152.209 286.293 136.254 284.38V284.38Z" fill="url(#cpaint62_linear_165_69246)"/><path d="M189.297 301.524L189.233 301.412L182.179 274.574L182.29 274.509C184.661 273.886 187.037 273.184 189.369 272.409L189.481 272.344L189.546 272.456L198.238 298.82L198.126 298.884C195.274 299.836 192.35 300.705 189.417 301.43L189.297 301.524ZM182.508 274.757L189.491 301.213C192.306 300.457 195.126 299.623 198.013 298.775L189.459 272.779C187.102 273.469 184.793 274.157 182.508 274.757V274.757Z" fill="url(#cpaint63_linear_165_69246)"/><path d="M200.962 287.116L198.266 280.082L198.396 280.007C206.868 276.773 214.982 272.671 222.609 267.766L222.721 267.701L226.8 274.036L226.614 274.143C218.54 279.323 209.957 283.663 200.999 287.095L200.962 287.116ZM198.621 280.225L201.115 286.78C209.992 283.378 218.497 279.075 226.496 273.938L222.723 268.048C215.124 272.917 207.049 276.997 198.621 280.225Z" fill="url(#cpaint64_linear_165_69246)"/><path d="M216.241 258.062L216.353 257.997C223.793 253.211 230.677 247.613 236.879 241.305L236.991 241.24L258.95 262.849L258.839 262.914C251.02 270.846 242.346 277.886 232.974 283.905L232.862 283.969L232.798 283.857L216.241 258.062ZM236.974 241.598C230.807 247.847 223.973 253.399 216.594 258.156L232.967 283.635C242.233 277.655 250.819 270.683 258.574 262.843L236.974 241.598Z" fill="url(#cpaint65_linear_165_69246)"/><path d="M247.431 238.214L247.543 238.15C253.187 231.403 258.116 224.089 262.251 216.325C265.176 210.816 267.682 205.095 269.748 199.211V199.211L288.026 205.714L287.933 205.768C282.084 222.172 273.356 237.4 262.16 250.739L262.048 250.804L247.431 238.214ZM270.082 199.316C265.011 213.476 257.475 226.627 247.823 238.162L262.278 250.299C273.404 237.073 282.087 221.971 287.92 205.701L270.082 199.316Z" fill="url(#cpaint66_linear_165_69246)"/><path d="M276.325 201.523C276.962 199.789 277.531 198.021 278.08 196.264L278.173 196.21L283.533 197.883C282.96 199.728 282.357 201.566 281.733 203.366L276.325 201.523ZM278.307 196.356C277.792 198.044 277.229 199.735 276.644 201.388L281.428 203.095C282.047 201.372 282.626 199.623 283.175 197.866L278.307 196.356Z" fill="url(#cpaint67_linear_165_69246)"/><path d="M267.403 188.352C268.692 183.541 269.686 178.656 270.378 173.724L270.324 173.631L300.457 177.834C299.587 184.024 298.334 190.154 296.704 196.188V196.188L267.403 188.352ZM270.661 173.784C269.98 178.635 268.998 183.44 267.72 188.169L296.711 195.985C298.307 190.047 299.534 184.015 300.385 177.925L270.661 173.784Z" fill="url(#cpaint68_linear_165_69246)"/><path d="M276.967 168.802C277.112 167.203 277.235 165.568 277.321 163.954L277.267 163.861L277.361 163.807L295.827 164.79L295.881 164.883C295.791 166.747 295.578 168.658 295.485 170.474L295.538 170.568L276.967 168.802ZM277.583 163.977C277.491 165.495 277.391 167.042 277.251 168.563L295.268 170.227C295.422 168.475 295.566 166.703 295.706 165.009L277.583 163.977Z" fill="url(#cpaint69_linear_165_69246)"/><path d="M277.777 158.676L277.724 158.583C277.807 147.494 276.435 136.441 273.64 125.71L273.576 125.598L291.068 121.11L291.133 121.221C294.284 133.51 295.811 146.159 295.675 158.845L295.729 158.938L277.777 158.676ZM274.101 125.692C276.843 136.375 278.183 147.369 278.088 158.397L295.583 158.6C295.706 146.034 294.189 133.505 291.072 121.331L274.101 125.692Z" fill="url(#cpaint70_linear_165_69246)"/><path d="M263.993 121.253L263.929 121.141C260.671 110.907 256.038 101.161 250.158 92.173L250.083 92.0427L250.194 91.9782L279.007 73.0837L279.082 73.2141C286.657 84.787 292.63 97.3318 296.84 110.507L296.904 110.619L296.793 110.683L263.993 121.253ZM253.852 97.7118C258.082 105.044 261.521 112.803 264.114 120.861L296.493 110.508C292.314 97.4376 286.389 84.9908 278.878 73.5057L250.424 92.1185C251.681 93.9504 252.766 95.8311 253.852 97.7118Z" fill="url(#cpaint71_linear_165_69246)"/><path d="M222.705 56.2791L236.546 36.6935L236.61 36.8052C238.579 38.1513 240.762 39.6964 242.62 41.2803L242.684 41.3921L227.917 60.147L227.863 60.0539C226.225 58.7651 224.521 57.4898 222.812 56.2919L222.705 56.2791ZM236.617 37.0745L223.067 56.2188C224.696 57.3637 226.321 58.586 227.897 59.8111L242.404 41.38C240.515 39.9135 238.578 38.45 236.617 37.0745V37.0745Z" fill="url(#cpaint72_linear_165_69246)"/><path d="M172.332 33.9184L175.929 12.9727C191.386 15.6223 206.312 20.7545 220.13 28.1706C222.718 29.5566 225.312 31.0386 227.812 32.5743L216.816 50.7659L216.751 50.6542C214.633 49.3941 212.46 48.1663 210.23 46.9707C198.435 40.6539 185.703 36.2694 172.519 33.9843L172.332 33.9184ZM176.141 13.2971L172.638 33.7171C185.813 36.0001 198.534 40.3924 210.312 46.725C212.523 47.9313 214.696 49.1591 216.795 50.43L227.621 32.7592C225.161 31.2499 222.607 29.7944 220.134 28.3919C206.36 21.0403 191.494 15.9509 176.104 13.3186L176.141 13.2971Z" fill="url(#cpaint73_linear_165_69246)"/><path d="M148.735 25.1739L148.594 18.0059L148.705 17.9414C157.415 17.7965 166.118 18.4741 174.7 19.9653L174.793 19.9116L173.579 26.9682L173.486 27.022C165.319 25.6276 157.038 25.0052 148.754 25.1632L148.735 25.1739ZM148.87 18.2687L148.998 24.8981C157.214 24.7526 165.426 25.3725 173.528 26.7498L174.693 20.168C166.163 18.7329 157.518 18.0971 148.87 18.2687V18.2687Z" fill="url(#cpaint74_linear_165_69246)"/></g><g opacity=".35"><path d="M41.8789 177.783C39.8505 166.802 39.4202 155.586 40.6016 144.482L42.1918 144.656C41.0138 155.606 41.438 166.669 43.4511 177.496L41.8789 177.783Z" fill="url(#cpaint75_linear_165_69246)"/><path d="M43.6326 190.153C42.4534 186.166 41.4775 182.122 40.7088 178.036L44.4898 177.318C45.2313 181.271 46.1799 185.182 47.3318 189.035L43.6326 190.153Z" fill="url(#cpaint76_linear_165_69246)"/><path d="M42.5387 200.987C41.948 199.491 41.3759 197.984 40.8518 196.474L53.249 192.147C53.7244 193.487 54.2291 194.834 54.7847 196.226L42.5387 200.987Z" fill="url(#cpaint77_linear_165_69246)"/><path d="M55.2139 214.126C53.1705 210.587 51.3151 206.943 49.6554 203.209L51.1192 202.562C54.7327 210.757 59.3204 218.487 64.7832 225.584L63.5128 226.566C60.4806 222.603 57.7085 218.448 55.2139 214.126V214.126Z" fill="url(#cpaint78_linear_165_69246)"/><path d="M66.2914 230.694L68.1618 229.118C71.4493 233.027 74.9948 236.711 78.7745 240.146L77.1291 241.94C73.2654 238.442 69.6444 234.684 66.2914 230.694Z" fill="url(#cpaint79_linear_165_69246)"/><path d="M87.7282 251.091L89.7342 248.245C97.5986 253.84 106.158 258.388 115.196 261.773L113.962 264.968C104.662 261.48 95.8459 256.816 87.7282 251.091V251.091Z" fill="url(#cpaint80_linear_165_69246)"/><path d="M119.071 269.694L121.779 261.054C126.046 262.389 130.392 263.454 134.792 264.242L133.178 273.144C128.408 272.29 123.697 271.138 119.071 269.694Z" fill="url(#cpaint81_linear_165_69246)"/><path d="M138.587 271.459L139.13 267.496C149.562 268.925 160.143 268.884 170.563 267.373L171.146 271.307C160.354 272.89 149.393 272.941 138.587 271.459V271.459Z" fill="url(#cpaint82_linear_165_69246)"/><path d="M180.951 269.07L180.157 265.63C190.228 263.314 199.926 259.603 208.971 254.606L210.734 257.66C201.386 262.83 191.361 266.67 180.951 269.07Z" fill="url(#cpaint83_linear_165_69246)"/><path d="M222.137 246.755C234.389 237.486 244.622 225.817 252.212 212.459L254.067 213.523C246.326 227.117 235.903 238.996 223.433 248.441L222.137 246.755Z" fill="url(#cpaint84_linear_165_69246)"/><path d="M258.145 198.309C259.602 194.661 260.867 190.939 261.935 187.158L265.551 188.174C264.446 192.082 263.137 195.929 261.629 199.699L258.145 198.309Z" fill="url(#cpaint85_linear_165_69246)"/><path d="M263.092 187.485C266.954 173.772 268.18 159.449 266.703 145.279L268.015 145.142C269.52 159.478 268.282 173.97 264.366 187.842L263.092 187.485Z" fill="url(#cpaint86_linear_165_69246)"/><path d="M261.743 145.808C261.517 143.655 261.222 141.466 260.871 139.31L271.85 137.515C272.253 139.889 272.581 142.307 272.821 144.701L261.743 145.808Z" fill="url(#cpaint87_linear_165_69246)"/><path d="M264.007 133.429C262.379 125.884 259.972 118.529 256.823 111.483L259.506 110.281C262.708 117.543 265.158 125.114 266.816 132.875L264.007 133.429Z" fill="url(#cpaint88_linear_165_69246)"/><path d="M242.704 91.33L248.679 86.8872C253.797 93.8325 258.124 101.327 261.58 109.232L254.831 112.334C251.575 104.907 247.508 97.8631 242.704 91.33V91.33Z" fill="url(#cpaint89_linear_165_69246)"/><path d="M207.906 57.8435L208.911 55.9722C213.942 58.7083 218.759 61.8197 223.322 65.28C229.746 70.1107 235.651 75.5965 240.94 81.6489L239.282 83.0777C230.403 72.8905 219.776 64.3711 207.901 57.9208L207.906 57.8435Z" fill="url(#cpaint90_linear_165_69246)"/><path d="M203.198 56.7375L205.172 52.7177C206.62 53.4207 208.061 54.1531 209.475 54.9256L207.333 58.8687C205.969 58.1414 204.588 57.4247 203.198 56.7375Z" fill="url(#cpaint91_linear_165_69246)"/><path d="M186.556 49.9797L187.72 46.1049C192.31 47.4934 196.808 49.1667 201.189 51.1151L199.568 54.7573C195.335 52.8933 190.99 51.2976 186.556 49.9797V49.9797Z" fill="url(#cpaint92_linear_165_69246)"/><path d="M176.432 52.4308L179.289 38.8889C180.81 39.2022 182.356 39.6008 183.822 39.9463L180.447 53.3651C179.125 53.0109 177.758 52.7076 176.432 52.4308Z" fill="url(#cpaint93_linear_165_69246)"/><path d="M143.533 45.2044L143.262 42.2827C153.318 41.3111 163.459 41.658 173.425 43.3147L172.945 46.2238C163.228 44.5952 153.339 44.2525 143.533 45.2044V45.2044Z" fill="url(#cpaint94_linear_165_69246)"/><path d="M108.682 56.2636L105.997 50.3656C115.639 45.9997 125.83 42.9643 136.289 41.3429L137.275 47.6511C127.398 49.2142 117.779 52.1116 108.682 56.2636V56.2636Z" fill="url(#cpaint95_linear_165_69246)"/><path d="M80.2178 68.7488C88.2513 61.9773 97.1802 56.346 106.752 52.014L107.961 54.6675C98.6048 58.8979 89.8756 64.3972 82.02 71.0103L80.2178 68.7488Z" fill="url(#cpaint96_linear_165_69246)"/><path d="M67.3335 72.1907C68.767 70.7176 70.2592 69.2602 71.7464 67.8802L82.2696 79.184C80.9657 80.4085 79.6647 81.681 78.4117 82.9507L67.3335 72.1907Z" fill="url(#cpaint97_linear_165_69246)"/><path d="M43.8032 119.668C47.8096 107.866 53.6953 96.7881 61.2331 86.8626C62.6327 84.9869 64.0646 83.1671 65.6405 81.3386L70.1165 85.1352C68.62 86.8433 67.1774 88.6445 65.913 90.3675C58.777 99.844 53.2061 110.403 49.4123 121.643L43.8032 119.668Z" fill="url(#cpaint98_linear_165_69246)"/><path d="M40.24 141.189C41.2187 134.014 42.8746 126.948 45.1857 120.086L47.8993 121.002C45.6527 127.683 44.0467 134.562 43.1031 141.547L40.24 141.189Z" fill="url(#cpaint99_linear_165_69246)"/></g><path d="M76.3691 236.208L76.4808 236.143L96.0923 215.287L96.1676 215.417C102.029 220.919 108.66 225.537 115.851 229.129V229.129L102.995 254.849L102.931 254.738C93.2629 249.9 84.3518 243.678 76.4787 236.269L76.3691 236.208ZM96.0703 215.722L76.748 236.262C84.542 243.59 93.3576 249.749 102.919 254.546L115.639 229.276C108.496 225.726 101.905 221.16 96.0703 215.722V215.722Z" fill="url(#cpaint100_linear_165_69246)"/><path d="M108.401 243.36L110.003 240.2L110.057 240.294C113.138 241.822 116.297 243.189 119.521 244.388L119.575 244.481L118.339 247.802L118.285 247.709C114.96 246.448 111.703 245.013 108.529 243.41L108.401 243.36ZM110.111 240.56L108.779 243.241C111.855 244.77 115.008 246.14 118.225 247.346L119.279 244.528C116.168 243.399 113.122 242.099 110.154 240.634L110.111 240.56Z" fill="url(#cpaint101_linear_165_69246)"/><path d="M120.557 254.269L125.039 240.533L125.093 240.626C126.223 240.992 127.39 241.336 128.517 241.654L124.64 255.536C123.308 255.163 121.964 254.772 120.648 254.34L120.557 254.269ZM125.233 240.868L120.959 254.062C122.191 254.476 123.427 254.854 124.668 255.197L128.323 241.791C127.298 241.563 126.237 241.232 125.177 240.901L125.233 240.868Z" fill="#C6D3DB"/><path d="M129.406 253.381L131.217 245.681C138.368 247.381 145.698 248.209 153.048 248.148L153.141 248.094L153.203 256.028C145.251 256.134 137.315 255.281 129.566 253.487L129.406 253.381ZM131.429 246.006L129.741 253.187C137.396 254.99 145.239 255.872 153.104 255.812L153.025 248.409C145.757 248.466 138.507 247.659 131.429 246.006V246.006Z" fill="url(#cpaint102_linear_165_69246)"/><path d="M157.798 262.011L156.791 242.208L156.903 242.144C160.807 241.962 164.694 241.509 168.535 240.791V240.791L172.302 260.216L172.191 260.28C167.473 261.156 162.702 261.712 157.909 261.946L157.798 262.011ZM157.129 242.535L158.114 261.828C162.846 261.583 167.555 261.02 172.211 260.144L168.702 241.166C164.843 241.823 160.944 242.224 157.032 242.367L157.129 242.535Z" fill="url(#cpaint103_linear_165_69246)"/><path d="M183.253 252.606L179.998 242.668L180.109 242.603C187.614 240.257 194.784 236.952 201.443 232.77L201.554 232.705L207.151 241.54L207.04 241.604C199.644 246.292 191.672 250.002 183.323 252.641L183.253 252.606ZM180.43 242.815L183.406 252.27C191.668 249.645 199.56 245.973 206.889 241.344L201.579 232.964C194.974 237.127 187.868 240.438 180.43 242.815V242.815Z" fill="url(#cpaint104_linear_165_69246)"/><path d="M201.913 224.9L202.024 224.836C204.859 222.819 207.565 220.626 210.126 218.271L210.256 218.196L225.768 235.086L225.656 235.151C222.404 238.154 218.976 240.962 215.392 243.56L215.261 243.635L215.186 243.505L201.913 224.9ZM210.21 218.546C207.697 220.844 205.046 222.988 202.273 224.965L215.283 243.2C218.823 240.66 222.213 237.915 225.434 234.981L210.21 218.546Z" fill="url(#cpaint105_linear_165_69246)"/><path d="M218.297 221.372L218.409 221.308C224.628 215.081 229.927 208 234.148 200.279L234.259 200.214L240.448 203.494C235.905 211.811 230.205 219.441 223.516 226.155L223.405 226.219L218.297 221.372ZM234.303 200.462C230.085 208.112 224.828 215.141 218.681 221.349L223.313 225.974C229.907 219.336 235.537 211.807 240.04 203.605L234.303 200.462Z" fill="url(#cpaint106_linear_165_69246)"/><path d="M236.925 192.839C240.414 185.059 242.799 176.83 244.01 168.389L243.956 168.296L252.362 169.526L252.416 169.619C251.078 178.827 248.476 187.807 244.685 196.304V196.304L236.925 192.839ZM244.312 168.439C243.093 176.809 240.731 184.973 237.292 192.701L244.558 195.955C248.292 187.556 250.864 178.687 252.203 169.593L244.312 168.439Z" fill="url(#cpaint107_linear_165_69246)"/><path d="M238.409 155.888L238.344 155.777C238.341 144.064 235.957 132.475 231.338 121.711L231.273 121.6L231.385 121.535L251.05 113.111L251.114 113.223C252.934 117.453 254.473 121.798 255.72 126.231C258.473 135.844 259.866 145.796 259.855 155.796L259.92 155.908L259.826 155.962L238.409 155.888ZM231.671 121.643C233.109 124.997 234.326 128.441 235.315 131.953C237.513 139.629 238.632 147.573 238.639 155.557L259.619 155.56C259.576 145.63 258.16 135.753 255.41 126.211C254.164 121.839 252.648 117.548 250.872 113.363L231.671 121.643Z" fill="url(#cpaint108_linear_165_69246)"/><path d="M196.929 82.1115L208.088 63.7271C219.668 70.7313 229.814 79.8703 237.986 90.6587L238.05 90.7704L221.044 103.841L220.98 103.73C214.448 95.1043 206.337 87.7979 197.079 82.1988L196.929 82.1115ZM208.177 64.0974L197.3 82.0218C206.505 87.6031 214.576 94.8709 221.088 103.444L237.8 90.7662C229.687 80.0958 219.638 71.0485 208.177 64.0974V64.0974Z" fill="url(#cpaint109_linear_165_69246)"/><path d="M173.908 64.1698L175.159 58.8544C181.817 60.4332 188.295 62.6914 194.492 65.5936L194.545 65.6867L192.466 70.6856C186.61 67.9457 180.488 65.8146 174.197 64.3259L173.908 64.1698ZM175.352 59.1896L174.232 63.9577C180.451 65.4434 186.504 67.5557 192.296 70.2624L194.37 65.8128C188.272 62.9638 181.9 60.7445 175.352 59.1896V59.1896Z" fill="url(#cpaint110_linear_165_69246)"/><path d="M153.304 68.4687L153.474 49.5009C161.36 49.5726 169.212 50.5363 176.881 52.3737V52.3737L172.568 70.7038C166.283 69.2249 159.853 68.4571 153.397 68.415L153.304 68.4687ZM153.742 49.7931L153.62 68.286C159.965 68.3563 166.284 69.1207 172.463 70.5655L176.62 52.5242C169.114 50.7731 161.439 49.8511 153.732 49.7745L153.742 49.7931Z" fill="url(#cpaint111_linear_165_69246)"/><path d="M116.008 75.551L108.86 59.8159L108.99 59.7406C120.518 54.5776 132.869 51.4982 145.472 50.6452L145.565 50.5914L146.743 67.8118L146.65 67.8655C140.499 68.2853 134.409 69.3545 128.482 71.0555C124.293 72.2818 120.199 73.8152 116.235 75.6434L116.008 75.551ZM109.245 59.9662L116.151 75.1957C120.117 73.3724 124.21 71.8391 128.397 70.6078C134.287 68.9359 140.335 67.8822 146.443 67.4637L145.267 50.7634C132.805 51.6482 120.599 54.7285 109.21 59.8623L109.245 59.9662Z" fill="url(#cpaint112_linear_165_69246)"/><path d="M109.74 71.274L107.883 67.6285L107.995 67.564C109.279 66.9219 110.525 66.327 111.731 65.7794L111.843 65.7149L113.532 69.4571L113.439 69.5108C112.238 70.0548 111.049 70.6175 109.881 71.2174L109.74 71.274ZM108.246 67.7416L109.853 70.9108C110.914 70.298 112.051 69.8157 113.176 69.3146L111.711 66.0888C110.548 66.6113 109.377 67.1632 108.246 67.7416Z" fill="url(#cpaint113_linear_165_69246)"/><path d="M89.8207 69.6666L89.9325 69.6021C93.5024 67.0157 97.2269 64.6497 101.085 62.5175L101.197 62.453L110.642 79.5434L110.53 79.6079C107.388 81.3444 104.358 83.2764 101.457 85.3926L101.345 85.4571L89.8207 69.6666ZM101.092 62.7868C97.3254 64.8778 93.6882 67.1934 90.1997 69.7209L101.37 85.0702C104.218 83.0042 107.19 81.1145 110.268 79.4117L101.092 62.7868Z" fill="url(#cpaint114_linear_165_69246)"/><path d="M84.7985 77.606L84.9103 77.5415C85.9278 76.6809 86.9453 75.8203 87.9736 74.9784L88.0853 74.9139L96.5482 85.272L96.4179 85.3473C95.5108 86.0696 94.6208 86.8069 93.7476 87.5593L93.6359 87.6238L93.5607 87.4934L84.7985 77.606ZM88.0389 75.2634C87.0743 76.0438 86.1205 76.8427 85.1853 77.6309L93.5893 87.328C94.4049 86.6336 95.2577 85.9178 96.0468 85.2636L88.0389 75.2634Z" fill="url(#cpaint115_linear_165_69246)"/><path d="M67.6061 103.426C72.1911 95.97 77.7336 89.1475 84.092 83.1324L84.2037 83.0679L88.4721 87.5801L88.3604 87.6446C82.3988 93.2795 77.1997 99.6699 72.8955 106.653L72.7838 106.718L67.6061 103.426ZM84.1916 83.348C77.9201 89.2852 72.4502 96.0155 67.9205 103.368L72.7607 106.334C77.0417 99.4255 82.2059 93.1054 88.1226 87.5336L84.1916 83.348Z" fill="url(#cpaint116_linear_165_69246)"/><path d="M48.7969 132.255C50.9329 122.864 54.3289 113.804 58.8927 105.323L58.9858 105.269L76.0759 114.445L75.9642 114.51C72.2378 121.432 69.4675 128.828 67.729 136.495V136.495L48.7969 132.255ZM59.1041 105.474C54.605 113.856 51.2546 122.805 49.1428 132.081L67.6587 136.287C69.3939 128.684 72.1378 121.347 75.8173 114.47L59.1041 105.474Z" fill="url(#cpaint117_linear_165_69246)"/><path d="M53.5858 160.799L53.5213 160.688C53.0562 151.654 53.8349 142.6 55.8355 133.779L55.7817 133.686L60.7524 134.813C58.8798 143.192 58.1708 151.789 58.6455 160.361L58.71 160.473L53.5858 160.799ZM56.1242 133.935C54.1601 142.653 53.3945 151.598 53.8486 160.524L58.4241 160.365C57.9935 151.858 58.726 143.333 60.6013 135.025L56.1242 133.935Z" fill="url(#cpaint118_linear_165_69246)"/><path d="M44.3741 172.151L44.3096 172.039C44.0267 170.216 43.789 168.342 43.6021 166.514L43.5376 166.402L69.1673 163.795L69.2318 163.907C69.3741 165.314 69.5644 166.719 69.7841 168.131L69.8486 168.243L44.3741 172.151ZM43.9252 166.6C44.1063 168.333 44.3275 170.092 44.4929 171.884L69.4238 168.066C69.2392 166.758 69.0626 165.42 68.926 164.108L43.9252 166.6Z" fill="url(#cpaint119_linear_165_69246)"/><path d="M61.4343 208.235C57.0861 200.702 53.6789 192.663 51.2891 184.299C50.6609 182.179 50.1746 180.176 49.7334 178.122L49.6689 178.01L66.6183 174.257L66.6828 174.369C67.0558 176.09 67.4984 177.846 67.9861 179.55C70.5986 188.666 74.6625 197.302 80.0214 205.126V205.126L79.9097 205.191L65.6484 214.889L65.5839 214.777C64.1105 212.698 62.7244 210.47 61.4343 208.235ZM50.0808 178.293C50.5192 180.3 51.0456 182.33 51.5986 184.319C53.9676 192.629 57.3458 200.618 61.6578 208.106C62.9264 210.303 64.2057 212.519 65.7163 214.577L79.616 205.112C74.3395 197.318 70.3383 188.732 67.7627 179.679C67.2893 178 66.8604 176.311 66.4759 174.613L50.0808 178.293Z" fill="url(#cpaint120_linear_165_69246)"/><path d="M71.5443 210.612L73.8015 209.061L73.866 209.172C77.2453 214.117 81.0763 218.737 85.3098 222.974L85.3743 223.085L83.4575 225.011L83.393 224.9C79.0287 220.556 75.089 215.806 71.6274 210.713L71.5443 210.612ZM73.6855 209.376L71.8988 210.581C75.3096 215.576 79.1824 220.24 83.4659 224.51L85.0483 222.951C80.8617 218.814 77.0719 214.294 73.7285 209.45L73.6855 209.376Z" fill="url(#cpaint121_linear_165_69246)"/></g><defs><linearGradient id="cpaint1_linear_165_69246" x1="184.491" y1="92.076" x2="167.938" y2="101.632" gradientUnits="userSpaceOnUse"><stop stop-color="#00D764"/><stop offset="1" stop-color="#2698EA"/></linearGradient><linearGradient id="cpaint2_linear_165_69246" x1="167.848" y1="91.284" x2="160.102" y2="95.756" gradientUnits="userSpaceOnUse"><stop stop-color="#00D764"/><stop offset="1" stop-color="#2698EA"/></linearGradient><linearGradient id="cpaint3_linear_165_69246" x1="155.709" y1="98.634" x2="159.967" y2="87.938" gradientUnits="userSpaceOnUse"><stop stop-color="#4D74FD"/><stop offset="1" stop-color="#4DFDF2"/></linearGradient><linearGradient id="cpaint4_linear_165_69246" x1="140.91" y1="102.157" x2="141.831" y2="84.504" gradientUnits="userSpaceOnUse"><stop stop-color="#4D74FD"/><stop offset="1" stop-color="#4DFDF2"/></linearGradient><linearGradient id="cpaint5_linear_165_69246" x1="137.484" y1="94.204" x2="134.635" y2="95.849" gradientUnits="userSpaceOnUse"><stop stop-color="#00D764"/><stop offset="1" stop-color="#2698EA"/></linearGradient><linearGradient id="cpaint6_linear_165_69246" x1="135.29" y1="94.316" x2="126.539" y2="99.368" gradientUnits="userSpaceOnUse"><stop stop-color="#00D764"/><stop offset="1" stop-color="#2698EA"/></linearGradient><linearGradient id="cpaint7_linear_165_69246" x1="121.642" y1="105.813" x2="124.011" y2="94.89" gradientUnits="userSpaceOnUse"><stop stop-color="#4D74FD"/><stop offset="1" stop-color="#4DFDF2"/></linearGradient><linearGradient id="cpaint8_linear_165_69246" x1="120.315" y1="103.419" x2="105.847" y2="111.772" gradientUnits="userSpaceOnUse"><stop stop-color="#00D764"/><stop offset="1" stop-color="#2698EA"/></linearGradient><linearGradient id="cpaint9_linear_165_69246" x1="106.562" y1="115.805" x2="97.178" y2="121.223" gradientUnits="userSpaceOnUse"><stop stop-color="#00D764"/><stop offset="1" stop-color="#2698EA"/></linearGradient><linearGradient id="cpaint10_linear_165_69246" x1="102.34" y1="127.714" x2="86.606" y2="136.798" gradientUnits="userSpaceOnUse"><stop stop-color="#00D764"/><stop offset="1" stop-color="#2698EA"/></linearGradient><linearGradient id="cpaint11_linear_165_69246" x1="94.667" y1="141.085" x2="86.624" y2="145.729" gradientUnits="userSpaceOnUse"><stop stop-color="#00D764"/><stop offset="1" stop-color="#2698EA"/></linearGradient><linearGradient id="cpaint12_linear_165_69246" x1="88.664" y1="165.606" x2="96.755" y2="146.881" gradientUnits="userSpaceOnUse"><stop stop-color="#4D74FD"/><stop offset="1" stop-color="#4DFDF2"/></linearGradient><linearGradient id="cpaint13_linear_165_69246" x1="93.116" y1="163.601" x2="86.487" y2="167.428" gradientUnits="userSpaceOnUse"><stop stop-color="#00D764"/><stop offset="1" stop-color="#2698EA"/></linearGradient><linearGradient id="cpaint14_linear_165_69246" x1="99.676" y1="198.22" x2="110.723" y2="186.161" gradientUnits="userSpaceOnUse"><stop stop-color="#4D74FD"/><stop offset="1" stop-color="#4DFDF2"/></linearGradient><linearGradient id="cpaint15_linear_165_69246" x1="110.119" y1="196.787" x2="100.679" y2="202.237" gradientUnits="userSpaceOnUse"><stop stop-color="#00D764"/><stop offset="1" stop-color="#2698EA"/></linearGradient><linearGradient id="cpaint16_linear_165_69246" x1="112.718" y1="203.655" x2="108.994" y2="205.805" gradientUnits="userSpaceOnUse"><stop stop-color="#00D764"/><stop offset="1" stop-color="#2698EA"/></linearGradient><linearGradient id="cpaint17_linear_165_69246" x1="131.359" y1="208.766" x2="116.389" y2="217.409" gradientUnits="userSpaceOnUse"><stop stop-color="#00D764"/><stop offset="1" stop-color="#2698EA"/></linearGradient><linearGradient id="cpaint18_linear_165_69246" x1="140.335" y1="216.611" x2="132.534" y2="221.115" gradientUnits="userSpaceOnUse"><stop stop-color="#00D764"/><stop offset="1" stop-color="#2698EA"/></linearGradient><linearGradient id="cpaint19_linear_165_69246" x1="144.977" y1="227.752" x2="146.851" y2="213.013" gradientUnits="userSpaceOnUse"><stop stop-color="#4D74FD"/><stop offset="1" stop-color="#4DFDF2"/></linearGradient><linearGradient id="cpaint20_linear_165_69246" x1="168.102" y1="216.554" x2="154.286" y2="224.531" gradientUnits="userSpaceOnUse"><stop stop-color="#00D764"/><stop offset="1" stop-color="#2698EA"/></linearGradient><linearGradient id="cpaint21_linear_165_69246" x1="193.803" y1="206.969" x2="173.229" y2="218.847" gradientUnits="userSpaceOnUse"><stop stop-color="#00D764"/><stop offset="1" stop-color="#2698EA"/></linearGradient><linearGradient id="cpaint22_linear_165_69246" x1="195.759" y1="205.539" x2="193.301" y2="206.958" gradientUnits="userSpaceOnUse"><stop stop-color="#00D764"/><stop offset="1" stop-color="#2698EA"/></linearGradient><linearGradient id="cpaint23_linear_165_69246" x1="204.092" y1="198.692" x2="196.309" y2="203.185" gradientUnits="userSpaceOnUse"><stop stop-color="#00D764"/><stop offset="1" stop-color="#2698EA"/></linearGradient><linearGradient id="cpaint24_linear_165_69246" x1="208.125" y1="193.209" x2="202.819" y2="196.272" gradientUnits="userSpaceOnUse"><stop stop-color="#00D764"/><stop offset="1" stop-color="#2698EA"/></linearGradient><linearGradient id="cpaint25_linear_165_69246" x1="207.825" y1="195.18" x2="212.096" y2="172.162" gradientUnits="userSpaceOnUse"><stop stop-color="#4D74FD"/><stop offset="1" stop-color="#4DFDF2"/></linearGradient><linearGradient id="cpaint26_linear_165_69246" x1="223.112" y1="160.599" x2="210.805" y2="167.704" gradientUnits="userSpaceOnUse"><stop stop-color="#00D764"/><stop offset="1" stop-color="#2698EA"/></linearGradient><linearGradient id="cpaint27_linear_165_69246" x1="219.697" y1="144.88" x2="212.994" y2="148.75" gradientUnits="userSpaceOnUse"><stop stop-color="#00D764"/><stop offset="1" stop-color="#2698EA"/></linearGradient><linearGradient id="cpaint28_linear_165_69246" x1="217.524" y1="131.313" x2="209.034" y2="136.215" gradientUnits="userSpaceOnUse"><stop stop-color="#00D764"/><stop offset="1" stop-color="#2698EA"/></linearGradient><linearGradient id="cpaint29_linear_165_69246" x1="207.272" y1="115.966" x2="199.545" y2="120.428" gradientUnits="userSpaceOnUse"><stop stop-color="#00D764"/><stop offset="1" stop-color="#2698EA"/></linearGradient><linearGradient id="cpaint30_linear_165_69246" x1="194.525" y1="103.264" x2="187.897" y2="107.091" gradientUnits="userSpaceOnUse"><stop stop-color="#00D764"/><stop offset="1" stop-color="#2698EA"/></linearGradient><linearGradient id="cpaint31_linear_165_69246" x1="110.962" y1="98.461" x2="89.81" y2="110.673" gradientUnits="userSpaceOnUse"><stop stop-color="#00D764"/><stop offset="1" stop-color="#2698EA"/></linearGradient><linearGradient id="cpaint32_linear_165_69246" x1="94.704" y1="113.3" x2="87.368" y2="117.535" gradientUnits="userSpaceOnUse"><stop stop-color="#00D764"/><stop offset="1" stop-color="#2698EA"/></linearGradient><linearGradient id="cpaint33_linear_165_69246" x1="85.477" y1="130.001" x2="90.526" y2="117.391" gradientUnits="userSpaceOnUse"><stop stop-color="#4D74FD"/><stop offset="1" stop-color="#4DFDF2"/></linearGradient><linearGradient id="cpaint34_linear_165_69246" x1="84.644" y1="148.637" x2="71.182" y2="156.409" gradientUnits="userSpaceOnUse"><stop stop-color="#00D764"/><stop offset="1" stop-color="#2698EA"/></linearGradient><linearGradient id="cpaint35_linear_165_69246" x1="84.59" y1="174.13" x2="77.049" y2="178.484" gradientUnits="userSpaceOnUse"><stop stop-color="#00D764"/><stop offset="1" stop-color="#2698EA"/></linearGradient><linearGradient id="cpaint36_linear_165_69246" x1="102.779" y1="206.321" x2="94.289" y2="211.223" gradientUnits="userSpaceOnUse"><stop stop-color="#00D764"/><stop offset="1" stop-color="#2698EA"/></linearGradient><linearGradient id="cpaint37_linear_165_69246" x1="126.017" y1="221.718" x2="114.417" y2="228.415" gradientUnits="userSpaceOnUse"><stop stop-color="#00D764"/><stop offset="1" stop-color="#2698EA"/></linearGradient><linearGradient id="cpaint38_linear_165_69246" x1="146.737" y1="249.35" x2="149.423" y2="214.88" gradientUnits="userSpaceOnUse"><stop stop-color="#4D74FD"/><stop offset="1" stop-color="#4DFDF2"/></linearGradient><linearGradient id="cpaint39_linear_165_69246" x1="187.271" y1="225.13" x2="180.159" y2="229.237" gradientUnits="userSpaceOnUse"><stop stop-color="#00D764"/><stop offset="1" stop-color="#2698EA"/></linearGradient><linearGradient id="cpaint40_linear_165_69246" x1="211.489" y1="209.709" x2="186.465" y2="224.157" gradientUnits="userSpaceOnUse"><stop stop-color="#00D764"/><stop offset="1" stop-color="#2698EA"/></linearGradient><linearGradient id="cpaint41_linear_165_69246" x1="214.994" y1="204.607" x2="208.236" y2="208.509" gradientUnits="userSpaceOnUse"><stop stop-color="#00D764"/><stop offset="1" stop-color="#2698EA"/></linearGradient><linearGradient id="cpaint42_linear_165_69246" x1="215.336" y1="204.12" x2="217.111" y2="185.835" gradientUnits="userSpaceOnUse"><stop stop-color="#4D74FD"/><stop offset="1" stop-color="#4DFDF2"/></linearGradient><linearGradient id="cpaint43_linear_165_69246" x1="233.766" y1="176.054" x2="217.939" y2="185.192" gradientUnits="userSpaceOnUse"><stop stop-color="#00D764"/><stop offset="1" stop-color="#2698EA"/></linearGradient><linearGradient id="cpaint44_linear_165_69246" x1="236.561" y1="149.077" x2="220.567" y2="158.311" gradientUnits="userSpaceOnUse"><stop stop-color="#00D764"/><stop offset="1" stop-color="#2698EA"/></linearGradient><linearGradient id="cpaint45_linear_165_69246" x1="228.366" y1="137.337" x2="225.164" y2="139.186" gradientUnits="userSpaceOnUse"><stop stop-color="#00D764"/><stop offset="1" stop-color="#2698EA"/></linearGradient><linearGradient id="cpaint46_linear_165_69246" x1="200.315" y1="88.448" x2="184.544" y2="97.553" gradientUnits="userSpaceOnUse"><stop stop-color="#00D764"/><stop offset="1" stop-color="#2698EA"/></linearGradient><linearGradient id="cpaint47_linear_165_69246" x1="180.633" y1="81.497" x2="166.947" y2="89.398" gradientUnits="userSpaceOnUse"><stop stop-color="#00D764"/><stop offset="1" stop-color="#2698EA"/></linearGradient><linearGradient id="cpaint48_linear_165_69246" x1="162.938" y1="79.478" x2="153.758" y2="84.778" gradientUnits="userSpaceOnUse"><stop stop-color="#00D764"/><stop offset="1" stop-color="#2698EA"/></linearGradient><linearGradient id="cpaint49_linear_165_69246" x1="150.372" y1="77.583" x2="125.05" y2="92.203" gradientUnits="userSpaceOnUse"><stop stop-color="#00D764"/><stop offset="1" stop-color="#2698EA"/></linearGradient><linearGradient id="cpaint50_linear_165_69246" x1="123.311" y1="88.203" x2="110.818" y2="95.416" gradientUnits="userSpaceOnUse"><stop stop-color="#00D764"/><stop offset="1" stop-color="#2698EA"/></linearGradient><linearGradient id="cpaint51_linear_165_69246" x1="147.633" y1="11.953" x2="106.54" y2="35.678" gradientUnits="userSpaceOnUse"><stop stop-color="#00D764"/><stop offset="1" stop-color="#2698EA"/></linearGradient><linearGradient id="cpaint52_linear_165_69246" x1="106.29" y1="28.153" x2="92.959" y2="35.85" gradientUnits="userSpaceOnUse"><stop stop-color="#00D764"/><stop offset="1" stop-color="#2698EA"/></linearGradient><linearGradient id="cpaint53_linear_165_69246" x1="88.01" y1="37.166" x2="82.555" y2="40.316" gradientUnits="userSpaceOnUse"><stop stop-color="#00D764"/><stop offset="1" stop-color="#2698EA"/></linearGradient><linearGradient id="cpaint54_linear_165_69246" x1="79.734" y1="45.021" x2="49.719" y2="62.35" gradientUnits="userSpaceOnUse"><stop stop-color="#00D764"/><stop offset="1" stop-color="#2698EA"/></linearGradient><linearGradient id="cpaint55_linear_165_69246" x1="54.968" y1="68.472" x2="30.577" y2="82.555" gradientUnits="userSpaceOnUse"><stop stop-color="#00D764"/><stop offset="1" stop-color="#2698EA"/></linearGradient><linearGradient id="cpaint56_linear_165_69246" x1="38.248" y1="104.704" x2="8.83" y2="121.689" gradientUnits="userSpaceOnUse"><stop stop-color="#00D764"/><stop offset="1" stop-color="#2698EA"/></linearGradient><linearGradient id="cpaint57_linear_165_69246" x1="31.223" y1="136.13" x2=".314" y2="153.975" gradientUnits="userSpaceOnUse"><stop stop-color="#00D764"/><stop offset="1" stop-color="#2698EA"/></linearGradient><linearGradient id="cpaint58_linear_165_69246" x1="31.852" y1="169.519" x2="3.904" y2="185.655" gradientUnits="userSpaceOnUse"><stop stop-color="#00D764"/><stop offset="1" stop-color="#2698EA"/></linearGradient><linearGradient id="cpaint59_linear_165_69246" x1="46.894" y1="217.755" x2="22.595" y2="231.784" gradientUnits="userSpaceOnUse"><stop stop-color="#00D764"/><stop offset="1" stop-color="#2698EA"/></linearGradient><linearGradient id="cpaint60_linear_165_69246" x1="102.615" y1="259.187" x2="58.04" y2="284.922" gradientUnits="userSpaceOnUse"><stop stop-color="#00D764"/><stop offset="1" stop-color="#2698EA"/></linearGradient><linearGradient id="cpaint61_linear_165_69246" x1="134.163" y1="286.913" x2="121.967" y2="293.954" gradientUnits="userSpaceOnUse"><stop stop-color="#00D764"/><stop offset="1" stop-color="#2698EA"/></linearGradient><linearGradient id="cpaint62_linear_165_69246" x1="182.281" y1="277.843" x2="137.072" y2="303.944" gradientUnits="userSpaceOnUse"><stop stop-color="#00D764"/><stop offset="1" stop-color="#2698EA"/></linearGradient><linearGradient id="cpaint63_linear_165_69246" x1="195.878" y1="283.424" x2="183.105" y2="290.798" gradientUnits="userSpaceOnUse"><stop stop-color="#00D764"/><stop offset="1" stop-color="#2698EA"/></linearGradient><linearGradient id="cpaint64_linear_165_69246" x1="224.581" y1="270.192" x2="199.538" y2="284.651" gradientUnits="userSpaceOnUse"><stop stop-color="#00D764"/><stop offset="1" stop-color="#2698EA"/></linearGradient><linearGradient id="cpaint65_linear_165_69246" x1="252.838" y1="252.263" x2="222.88" y2="269.56" gradientUnits="userSpaceOnUse"><stop stop-color="#00D764"/><stop offset="1" stop-color="#2698EA"/></linearGradient><linearGradient id="cpaint66_linear_165_69246" x1="290.848" y1="210.602" x2="246.329" y2="236.305" gradientUnits="userSpaceOnUse"><stop stop-color="#00D764"/><stop offset="1" stop-color="#2698EA"/></linearGradient><linearGradient id="cpaint67_linear_165_69246" x1="283.463" y1="197.762" x2="276.481" y2="201.793" gradientUnits="userSpaceOnUse"><stop stop-color="#00D764"/><stop offset="1" stop-color="#2698EA"/></linearGradient><linearGradient id="cpaint68_linear_165_69246" x1="299.285" y1="175.804" x2="269.941" y2="192.746" gradientUnits="userSpaceOnUse"><stop stop-color="#00D764"/><stop offset="1" stop-color="#2698EA"/></linearGradient><linearGradient id="cpaint69_linear_165_69246" x1="294.521" y1="162.527" x2="278.639" y2="171.697" gradientUnits="userSpaceOnUse"><stop stop-color="#00D764"/><stop offset="1" stop-color="#2698EA"/></linearGradient><linearGradient id="cpaint70_linear_165_69246" x1="298.626" y1="134.2" x2="272.391" y2="149.347" gradientUnits="userSpaceOnUse"><stop stop-color="#00D764"/><stop offset="1" stop-color="#2698EA"/></linearGradient><linearGradient id="cpaint71_linear_165_69246" x1="289.579" y1="90.914" x2="257.252" y2="109.578" gradientUnits="userSpaceOnUse"><stop stop-color="#00D764"/><stop offset="1" stop-color="#2698EA"/></linearGradient><linearGradient id="cpaint72_linear_165_69246" x1="243.115" y1="42.137" x2="221.683" y2="54.51" gradientUnits="userSpaceOnUse"><stop stop-color="#00D764"/><stop offset="1" stop-color="#2698EA"/></linearGradient><linearGradient id="cpaint73_linear_165_69246" x1="219.647" y1="18.432" x2="177.455" y2="42.791" gradientUnits="userSpaceOnUse"><stop stop-color="#00D764"/><stop offset="1" stop-color="#2698EA"/></linearGradient><linearGradient id="cpaint74_linear_165_69246" x1="172.482" y1="15.908" x2="150.66" y2="28.507" gradientUnits="userSpaceOnUse"><stop stop-color="#00D764"/><stop offset="1" stop-color="#2698EA"/></linearGradient><linearGradient id="cpaint75_linear_165_69246" x1="49.223" y1="156.834" x2="34.644" y2="165.251" gradientUnits="userSpaceOnUse"><stop stop-color="#00D764"/><stop offset="1" stop-color="#2698EA"/></linearGradient><linearGradient id="cpaint76_linear_165_69246" x1="47.065" y1="181.778" x2="40.864" y2="185.358" gradientUnits="userSpaceOnUse"><stop stop-color="#00D764"/><stop offset="1" stop-color="#2698EA"/></linearGradient><linearGradient id="cpaint77_linear_165_69246" x1="53.711" y1="192.948" x2="41.851" y2="199.796" gradientUnits="userSpaceOnUse"><stop stop-color="#00D764"/><stop offset="1" stop-color="#2698EA"/></linearGradient><linearGradient id="cpaint78_linear_165_69246" x1="58.102" y1="214.011" x2="55.886" y2="215.29" gradientUnits="userSpaceOnUse"><stop stop-color="#00D764"/><stop offset="1" stop-color="#2698EA"/></linearGradient><linearGradient id="cpaint79_linear_165_69246" x1="75.243" y1="234.029" x2="69.974" y2="237.072" gradientUnits="userSpaceOnUse"><stop stop-color="#00D764"/><stop offset="1" stop-color="#2698EA"/></linearGradient><linearGradient id="cpaint80_linear_165_69246" x1="109.622" y1="252.119" x2="93.647" y2="261.342" gradientUnits="userSpaceOnUse"><stop stop-color="#00D764"/><stop offset="1" stop-color="#2698EA"/></linearGradient><linearGradient id="cpaint81_linear_165_69246" x1="134.2" y1="263.218" x2="120.05" y2="271.388" gradientUnits="userSpaceOnUse"><stop stop-color="#00D764"/><stop offset="1" stop-color="#2698EA"/></linearGradient><linearGradient id="cpaint82_linear_165_69246" x1="167.585" y1="262.215" x2="141.834" y2="277.082" gradientUnits="userSpaceOnUse"><stop stop-color="#00D764"/><stop offset="1" stop-color="#2698EA"/></linearGradient><linearGradient id="cpaint83_linear_165_69246" x1="208.637" y1="254.029" x2="181.36" y2="269.777" gradientUnits="userSpaceOnUse"><stop stop-color="#00D764"/><stop offset="1" stop-color="#2698EA"/></linearGradient><linearGradient id="cpaint84_linear_165_69246" x1="257.335" y1="219.184" x2="218.998" y2="241.318" gradientUnits="userSpaceOnUse"><stop stop-color="#00D764"/><stop offset="1" stop-color="#2698EA"/></linearGradient><linearGradient id="cpaint85_linear_165_69246" x1="266.884" y1="190.483" x2="256.941" y2="196.224" gradientUnits="userSpaceOnUse"><stop stop-color="#00D764"/><stop offset="1" stop-color="#2698EA"/></linearGradient><linearGradient id="cpaint86_linear_165_69246" x1="276.669" y1="160.132" x2="254.642" y2="172.849" gradientUnits="userSpaceOnUse"><stop stop-color="#00D764"/><stop offset="1" stop-color="#2698EA"/></linearGradient><linearGradient id="cpaint87_linear_165_69246" x1="272.544" y1="138.716" x2="261.372" y2="145.166" gradientUnits="userSpaceOnUse"><stop stop-color="#00D764"/><stop offset="1" stop-color="#2698EA"/></linearGradient><linearGradient id="cpaint88_linear_165_69246" x1="265.236" y1="120.206" x2="258.589" y2="124.044" gradientUnits="userSpaceOnUse"><stop stop-color="#00D764"/><stop offset="1" stop-color="#2698EA"/></linearGradient><linearGradient id="cpaint89_linear_165_69246" x1="255.753" y1="97.7" x2="248.725" y2="101.758" gradientUnits="userSpaceOnUse"><stop stop-color="#00D764"/><stop offset="1" stop-color="#2698EA"/></linearGradient><linearGradient id="cpaint90_linear_165_69246" x1="231.479" y1="65.263" x2="216.975" y2="73.637" gradientUnits="userSpaceOnUse"><stop stop-color="#00D764"/><stop offset="1" stop-color="#2698EA"/></linearGradient><linearGradient id="cpaint91_linear_165_69246" x1="209.045" y1="54.181" x2="203.552" y2="57.352" gradientUnits="userSpaceOnUse"><stop stop-color="#00D764"/><stop offset="1" stop-color="#2698EA"/></linearGradient><linearGradient id="cpaint92_linear_165_69246" x1="199.007" y1="47.335" x2="188.524" y2="53.387" gradientUnits="userSpaceOnUse"><stop stop-color="#00D764"/><stop offset="1" stop-color="#2698EA"/></linearGradient><linearGradient id="cpaint93_linear_165_69246" x1="185.509" y1="42.87" x2="174.561" y2="49.191" gradientUnits="userSpaceOnUse"><stop stop-color="#00D764"/><stop offset="1" stop-color="#2698EA"/></linearGradient><linearGradient id="cpaint94_linear_165_69246" x1="170.001" y1="37.384" x2="146.764" y2="50.8" gradientUnits="userSpaceOnUse"><stop stop-color="#00D764"/><stop offset="1" stop-color="#2698EA"/></linearGradient><linearGradient id="cpaint95_linear_165_69246" x1="135.945" y1="40.747" x2="108.779" y2="56.431" gradientUnits="userSpaceOnUse"><stop stop-color="#00D764"/><stop offset="1" stop-color="#2698EA"/></linearGradient><linearGradient id="cpaint96_linear_165_69246" x1="107.635" y1="53.543" x2="80.487" y2="69.216" gradientUnits="userSpaceOnUse"><stop stop-color="#00D764"/><stop offset="1" stop-color="#2698EA"/></linearGradient><linearGradient id="cpaint97_linear_165_69246" x1="78.84" y1="73.244" x2="70.666" y2="77.963" gradientUnits="userSpaceOnUse"><stop stop-color="#00D764"/><stop offset="1" stop-color="#2698EA"/></linearGradient><linearGradient id="cpaint98_linear_165_69246" x1="74.051" y1="91.95" x2="39.363" y2="111.978" gradientUnits="userSpaceOnUse"><stop stop-color="#00D764"/><stop offset="1" stop-color="#2698EA"/></linearGradient><linearGradient id="cpaint99_linear_165_69246" x1="51.211" y1="126.737" x2="36.725" y2="135.1" gradientUnits="userSpaceOnUse"><stop stop-color="#00D764"/><stop offset="1" stop-color="#2698EA"/></linearGradient><linearGradient id="cpaint100_linear_165_69246" x1="114.346" y1="226.522" x2="81.669" y2="245.388" gradientUnits="userSpaceOnUse"><stop stop-color="#00D764"/><stop offset="1" stop-color="#2698EA"/></linearGradient><linearGradient id="cpaint101_linear_165_69246" x1="118.016" y1="241.781" x2="110.121" y2="246.339" gradientUnits="userSpaceOnUse"><stop stop-color="#00D764"/><stop offset="1" stop-color="#2698EA"/></linearGradient><linearGradient id="cpaint102_linear_165_69246" x1="151.604" y1="245.431" x2="131.513" y2="257.03" gradientUnits="userSpaceOnUse"><stop stop-color="#00D764"/><stop offset="1" stop-color="#2698EA"/></linearGradient><linearGradient id="cpaint103_linear_165_69246" x1="172.051" y1="246.88" x2="154.809" y2="256.834" gradientUnits="userSpaceOnUse"><stop stop-color="#00D764"/><stop offset="1" stop-color="#2698EA"/></linearGradient><linearGradient id="cpaint104_linear_165_69246" x1="204.023" y1="236.121" x2="181.307" y2="249.236" gradientUnits="userSpaceOnUse"><stop stop-color="#00D764"/><stop offset="1" stop-color="#2698EA"/></linearGradient><linearGradient id="cpaint105_linear_165_69246" x1="220.709" y1="226.325" x2="207.229" y2="234.108" gradientUnits="userSpaceOnUse"><stop stop-color="#00D764"/><stop offset="1" stop-color="#2698EA"/></linearGradient><linearGradient id="cpaint106_linear_165_69246" x1="241.754" y1="205.756" x2="217.4" y2="219.817" gradientUnits="userSpaceOnUse"><stop stop-color="#00D764"/><stop offset="1" stop-color="#2698EA"/></linearGradient><linearGradient id="cpaint107_linear_165_69246" x1="240.515" y1="199.057" x2="249.168" y2="164.822" gradientUnits="userSpaceOnUse"><stop stop-color="#4D74FD"/><stop offset="1" stop-color="#4DFDF2"/></linearGradient><linearGradient id="cpaint108_linear_165_69246" x1="244.062" y1="165.68" x2="264.91" y2="117.454" gradientUnits="userSpaceOnUse"><stop stop-color="#4D74FD"/><stop offset="1" stop-color="#4DFDF2"/></linearGradient><linearGradient id="cpaint109_linear_165_69246" x1="229.154" y1="75.362" x2="202.063" y2="91.003" gradientUnits="userSpaceOnUse"><stop stop-color="#00D764"/><stop offset="1" stop-color="#2698EA"/></linearGradient><linearGradient id="cpaint110_linear_165_69246" x1="191.465" y1="60.352" x2="176.644" y2="68.909" gradientUnits="userSpaceOnUse"><stop stop-color="#00D764"/><stop offset="1" stop-color="#2698EA"/></linearGradient><linearGradient id="cpaint111_linear_165_69246" x1="176.762" y1="52.169" x2="152.11" y2="66.402" gradientUnits="userSpaceOnUse"><stop stop-color="#00D764"/><stop offset="1" stop-color="#2698EA"/></linearGradient><linearGradient id="cpaint112_linear_165_69246" x1="146.849" y1="52.817" x2="113.874" y2="71.855" gradientUnits="userSpaceOnUse"><stop stop-color="#00D764"/><stop offset="1" stop-color="#2698EA"/></linearGradient><linearGradient id="cpaint113_linear_165_69246" x1="112.784" y1="67.344" x2="108.799" y2="69.645" gradientUnits="userSpaceOnUse"><stop stop-color="#00D764"/><stop offset="1" stop-color="#2698EA"/></linearGradient><linearGradient id="cpaint114_linear_165_69246" x1="106.191" y1="71.103" x2="94.535" y2="77.833" gradientUnits="userSpaceOnUse"><stop stop-color="#00D764"/><stop offset="1" stop-color="#2698EA"/></linearGradient><linearGradient id="cpaint115_linear_165_69246" x1="91.429" y1="89.091" x2="98.11" y2="79.559" gradientUnits="userSpaceOnUse"><stop stop-color="#4D74FD"/><stop offset="1" stop-color="#4DFDF2"/></linearGradient><linearGradient id="cpaint116_linear_165_69246" x1="89.144" y1="88.744" x2="66.633" y2="101.741" gradientUnits="userSpaceOnUse"><stop stop-color="#00D764"/><stop offset="1" stop-color="#2698EA"/></linearGradient><linearGradient id="cpaint117_linear_165_69246" x1="55.556" y1="143.963" x2="66.288" y2="99.788" gradientUnits="userSpaceOnUse"><stop stop-color="#4D74FD"/><stop offset="1" stop-color="#4DFDF2"/></linearGradient><linearGradient id="cpaint118_linear_165_69246" x1="65.187" y1="142.494" x2="48.56" y2="152.094" gradientUnits="userSpaceOnUse"><stop stop-color="#00D764"/><stop offset="1" stop-color="#2698EA"/></linearGradient><linearGradient id="cpaint119_linear_165_69246" x1="67.576" y1="161.039" x2="45.363" y2="173.864" gradientUnits="userSpaceOnUse"><stop stop-color="#00D764"/><stop offset="1" stop-color="#2698EA"/></linearGradient><linearGradient id="cpaint120_linear_165_69246" x1="73.988" y1="187.022" x2="55.387" y2="197.761" gradientUnits="userSpaceOnUse"><stop stop-color="#00D764"/><stop offset="1" stop-color="#2698EA"/></linearGradient><linearGradient id="cpaint121_linear_165_69246" x1="81.069" y1="215.628" x2="76.097" y2="218.498" gradientUnits="userSpaceOnUse"><stop stop-color="#00D764"/><stop offset="1" stop-color="#2698EA"/></linearGradient><radialGradient id="cpaint0_radial_165_69246" cx="0" cy="0" r="1" gradientUnits="userSpaceOnUse" gradientTransform="rotate(90 0 153) scale(153)"><stop offset=".505" stop-color="#010303"/><stop offset="1" stop-color="#010303" stop-opacity="0"/></radialGradient><clipPath id="cclip0_165_69246"><path fill="#fff" d="M0 0H306V306H0z"/></clipPath></defs></symbol></svg>