<svg width="51" height="50" viewBox="0 0 51 50" fill="none" xmlns="http://www.w3.org/2000/svg">
<circle cx="25.0234" cy="25" r="24.5" stroke="url(#paint0_linear_2280_6218)"/>
<g clip-path="url(#clip0_2280_6218)">
<path d="M37.0234 25.6479C37.0234 24.169 35.7754 22.9859 34.2153 23.1338C33.5913 23.1338 32.8113 23.4296 32.3433 23.8732C30.1592 22.5423 27.6631 21.6549 25.011 21.6549L26.259 16.0352L30.3152 16.9225C30.3152 17.9577 31.2512 18.6972 32.3433 18.6972C33.4353 18.6972 34.2153 17.8099 34.2153 16.7746C34.2153 15.7394 33.2793 15 32.1872 15C31.4072 15 30.7832 15.4437 30.4712 16.0352L26.103 15H25.791C25.635 15 25.635 15.1479 25.635 15.2958L24.0749 21.6549C21.4228 21.6549 18.9267 22.3944 16.7426 23.8732C15.6506 22.838 13.9345 22.838 12.8425 23.8732C11.7504 24.9084 11.7504 26.5352 12.8425 27.5704C12.9985 27.7183 13.3105 28.0141 13.6225 28.0141V28.7535C13.6225 32.7465 18.4587 36 24.5429 36C30.6272 36 35.4634 32.7465 35.4634 28.7535V28.0141C36.3994 27.5704 37.0234 26.6831 37.0234 25.6479ZM18.3027 27.5704C18.3027 26.5352 19.2387 25.7958 20.1748 25.7958C21.2668 25.7958 22.0468 26.6831 22.0468 27.5704C22.0468 28.4577 21.1108 29.3451 20.1748 29.3451C19.0827 29.3451 18.3027 28.6056 18.3027 27.5704ZM29.2231 32.4507C27.8191 33.338 26.259 33.9296 24.5429 33.7817C22.8269 33.7817 21.2668 33.338 19.8628 32.4507C19.7067 32.3028 19.7067 32.007 19.8628 31.7113C20.0188 31.5634 20.3308 31.5634 20.4868 31.7113C21.5788 32.4507 22.9829 32.8944 24.3869 32.7465C25.791 32.8944 27.195 32.4507 28.2871 31.7113C28.4431 31.5634 28.7551 31.5634 29.0671 31.7113C29.3791 31.8592 29.3791 32.1549 29.2231 32.4507ZM28.7551 29.3451C27.6631 29.3451 26.883 28.4577 26.883 27.5704C26.883 26.6831 27.8191 25.7958 28.7551 25.7958C29.8471 25.7958 30.6272 26.6831 30.6272 27.5704C30.7832 28.6056 29.8471 29.3451 28.7551 29.3451Z" fill="url(#paint1_linear_2280_6218)"/>
</g>
<defs>
<linearGradient id="paint0_linear_2280_6218" x1="50.6306" y1="50" x2="0.0234375" y2="0" gradientUnits="userSpaceOnUse">
<stop stop-color="#4D74FD"/>
<stop offset="1" stop-color="#4DFDF2"/>
</linearGradient>
<linearGradient id="paint1_linear_2280_6218" x1="15.8696" y1="16.9385" x2="33.1629" y2="39.023" gradientUnits="userSpaceOnUse">
<stop stop-color="#2698EA"/>
<stop offset="1" stop-color="#5A82F6" stop-opacity="0.8"/>
</linearGradient>
<clipPath id="clip0_2280_6218">
<rect width="25" height="25" fill="white" transform="translate(12.0234 13)"/>
</clipPath>
</defs>
</svg>
