<svg width="6" height="7" viewBox="0 0 6 7" fill="none" xmlns="http://www.w3.org/2000/svg">
<path fill-rule="evenodd" clip-rule="evenodd" d="M3 0.657227C3.79565 0.657227 4.55871 0.973297 5.12132 1.53591C5.68393 2.09852 6 2.86158 6 3.65723C6 4.45288 5.68393 5.21594 5.12132 5.77855C4.55871 6.34116 3.79565 6.65723 3 6.65723C2.20435 6.65723 1.44129 6.34116 0.878679 5.77855C0.31607 5.21594 0 4.45288 0 3.65723C0 2.86158 0.31607 2.09852 0.878679 1.53591C1.44129 0.973297 2.20435 0.657227 3 0.657227ZM3 2.65723C3.26522 2.65723 3.51957 2.76258 3.70711 2.95012C3.89464 3.13766 4 3.39201 4 3.65723C4 3.92244 3.89464 4.1768 3.70711 4.36433C3.51957 4.55187 3.26522 4.65723 3 4.65723C2.73478 4.65723 2.48043 4.55187 2.29289 4.36433C2.10536 4.1768 2 3.92244 2 3.65723C2 3.39201 2.10536 3.13766 2.29289 2.95012C2.48043 2.76258 2.73478 2.65723 3 2.65723Z" fill="url(#paint0_linear_165_29449)"/>
<defs>
<linearGradient id="paint0_linear_165_29449" x1="6.07286" y1="6.65723" x2="0" y2="0.657227" gradientUnits="userSpaceOnUse">
<stop stop-color="#4D74FD"/>
<stop offset="1" stop-color="#4DFDF2"/>
</linearGradient>
</defs>
</svg>
