<svg width="12" height="28" viewBox="0 0 12 28" fill="none" xmlns="http://www.w3.org/2000/svg">
<path class="scroll-arrows" d="M2.93727 21.131C2.54687 20.7404 1.9138 20.7403 1.52319 21.1306L1.05136 21.6021C0.660597 21.9926 0.660485 22.6259 1.05111 23.0166L6.00108 27.9665L10.9511 23.0166C11.3417 22.6259 11.3416 21.9926 10.9508 21.6021L10.479 21.1306C10.0884 20.7403 9.4553 20.7404 9.06489 21.131L6.00108 24.1959L2.93727 21.131ZM9.06489 6.86901C9.45532 7.25944 10.0883 7.25955 10.4789 6.86926L10.9508 6.39764C11.3416 6.00716 11.3417 5.3738 10.9511 4.98318L6.00108 0.0332031L1.05111 4.98318C0.660485 5.3738 0.660597 6.00716 1.05136 6.39764L1.52331 6.86926C1.91387 7.25955 2.54685 7.25944 2.93727 6.86901L6.00108 3.8052L9.06489 6.86901Z" fill="url(#paint0_linear_2375_3165)"/>
<path fill-rule="evenodd" clip-rule="evenodd" d="M6 10C7.06087 10 8.07828 10.4214 8.82843 11.1716C9.57857 11.9217 10 12.9391 10 14C10 15.0609 9.57857 16.0783 8.82843 16.8284C8.07828 17.5786 7.06087 18 6 18C4.93913 18 3.92172 17.5786 3.17157 16.8284C2.42143 16.0783 2 15.0609 2 14C2 12.9391 2.42143 11.9217 3.17157 11.1716C3.92172 10.4214 4.93913 10 6 10ZM6 12.6667C6.35362 12.6667 6.69276 12.8071 6.94281 13.0572C7.19286 13.3072 7.33333 13.6464 7.33333 14C7.33333 14.3536 7.19286 14.6928 6.94281 14.9428C6.69276 15.1929 6.35362 15.3333 6 15.3333C5.64638 15.3333 5.30724 15.1929 5.05719 14.9428C4.80714 14.6928 4.66667 14.3536 4.66667 14C4.66667 13.6464 4.80714 13.3072 5.05719 13.0572C5.30724 12.8071 5.64638 12.6667 6 12.6667Z" fill="url(#paint1_linear_2375_3165)"/>
<defs>
<linearGradient id="paint0_linear_2375_3165" x1="11.7958" y1="27.9665" x2="-7.71097" y2="20.1599" gradientUnits="userSpaceOnUse">
<stop stop-color="#4D74FD"/>
<stop offset="1" stop-color="#4DFDF2"/>
</linearGradient>
<linearGradient id="paint1_linear_2375_3165" x1="10.0971" y1="18" x2="2" y2="10" gradientUnits="userSpaceOnUse">
<stop stop-color="#4D74FD"/>
<stop offset="1" stop-color="#4DFDF2"/>
</linearGradient>
</defs>
</svg>
