<svg width="51" height="50" viewBox="0 0 51 50" fill="none" xmlns="http://www.w3.org/2000/svg">
<circle cx="25.0234" cy="25" r="24.5" stroke="url(#paint0_linear_2280_6206)"/>
<path d="M35.0923 16.1554C34.7173 15.8492 34.1283 15.8053 33.5193 16.0408H33.5183C32.8778 16.2883 15.3878 23.5124 14.6758 23.8076C14.5463 23.8509 13.4153 24.2573 13.5318 25.1625C13.6358 25.9786 14.5448 26.3166 14.6558 26.3556L19.1023 27.8217C19.3973 28.7673 20.4848 32.2561 20.7253 33.0015C20.8753 33.4661 21.1198 34.0766 21.5483 34.2023C21.9243 34.3419 22.2983 34.2143 22.5403 34.0313L25.2588 31.6032L29.6473 34.899L29.7518 34.9592C30.0498 35.0863 30.3353 35.1498 30.6078 35.1498C30.8183 35.1498 31.0203 35.1118 31.2133 35.0357C31.8708 34.7757 32.1338 34.1724 32.1613 34.1041L35.4393 17.6966C35.6393 16.8203 35.3613 16.3745 35.0923 16.1554ZM23.0238 28.4081L21.5238 32.26L20.0238 27.4452L31.5238 19.26L23.0238 28.4081Z" fill="url(#paint1_linear_2280_6206)"/>
<defs>
<linearGradient id="paint0_linear_2280_6206" x1="50.6306" y1="50" x2="0.0234375" y2="0" gradientUnits="userSpaceOnUse">
<stop stop-color="#4D74FD"/>
<stop offset="1" stop-color="#4DFDF2"/>
</linearGradient>
<linearGradient id="paint1_linear_2280_6206" x1="16.9056" y1="17.6684" x2="32.9126" y2="37.269" gradientUnits="userSpaceOnUse">
<stop stop-color="#2698EA"/>
<stop offset="1" stop-color="#5A82F6" stop-opacity="0.8"/>
</linearGradient>
</defs>
</svg>
