<svg width="51" height="53" viewBox="0 0 51 53" fill="none" xmlns="http://www.w3.org/2000/svg">
<circle cx="25.0234" cy="25" r="24.5" stroke="url(#paint0_linear_2280_6214)"/>
<path d="M37.084 17.4102C36.1602 17.8203 35.1699 18.0957 34.1289 18.2207C35.1914 17.584 36.0078 16.5762 36.3906 15.377C35.3984 15.9648 34.2949 16.3926 33.125 16.623C32.1875 15.623 30.8516 15 29.373 15C26.5332 15 24.2305 17.3008 24.2305 20.1406C24.2305 20.543 24.2773 20.9355 24.3652 21.3125C20.0918 21.0977 16.3047 19.0508 13.7676 15.9395C13.3242 16.7012 13.0723 17.584 13.0723 18.5254C13.0723 20.3086 13.9785 21.8828 15.3594 22.8066C14.5156 22.7793 13.7227 22.5469 13.0293 22.1621C13.0293 22.1836 13.0293 22.2051 13.0293 22.2266C13.0293 24.7188 14.8027 26.7949 17.1523 27.2695C16.7227 27.3867 16.2676 27.4492 15.7988 27.4492C15.4668 27.4492 15.1445 27.418 14.8301 27.3555C15.4863 29.3965 17.3848 30.8867 19.6328 30.9277C17.875 32.3066 15.6582 33.127 13.248 33.127C12.832 33.127 12.4238 33.1035 12.0234 33.0547C14.2969 34.5156 17 35.3652 19.9043 35.3652C29.3613 35.3652 34.5332 27.5312 34.5332 20.7383C34.5332 20.5156 34.5273 20.291 34.5195 20.0723C35.5234 19.3477 36.3945 18.4414 37.084 17.4102Z" fill="url(#paint1_linear_2280_6214)"/>
<defs>
<linearGradient id="paint0_linear_2280_6214" x1="50.6306" y1="50" x2="0.0234375" y2="0" gradientUnits="userSpaceOnUse">
<stop stop-color="#4D74FD"/>
<stop offset="1" stop-color="#4DFDF2"/>
</linearGradient>
<linearGradient id="paint1_linear_2280_6214" x1="15.8789" y1="16.8799" x2="32.5083" y2="38.8315" gradientUnits="userSpaceOnUse">
<stop stop-color="#2698EA"/>
<stop offset="1" stop-color="#5A82F6" stop-opacity="0.8"/>
</linearGradient>
</defs>
</svg>
