<svg width="43" height="30" viewBox="0 0 43 30" fill="none" xmlns="http://www.w3.org/2000/svg">
<path d="M12.6359 0.605076C12.7938 0.23793 13.155 0 13.5546 0H22.2899C22.9665 0 23.4478 0.657978 23.2429 1.30285L14.3452 29.3029C14.2133 29.718 13.8278 30 13.3922 30H1.51835C0.799961 30 0.315925 29.2651 0.599633 28.6051L12.6359 0.605076Z" fill="#68B222"/>
<path d="M31.9805 0.609219C32.1373 0.239859 32.4997 0 32.901 0H41.6399C42.3145 0 42.7956 0.654308 42.5944 1.29823L33.8459 29.2982C33.7154 29.7157 33.3288 30 32.8914 30H21.0139C20.2974 30 19.8134 29.2687 20.0934 28.6092L31.9805 0.609219Z" fill="#68B222"/>
</svg>
