<svg width="18" height="19" viewBox="0 0 18 19" fill="none" xmlns="http://www.w3.org/2000/svg">
<path d="M2.58063 17.4915V16.5221V14.2008V11.3949V8.96226C2.58063 8.57084 2.59032 8.17589 2.58063 7.78465V7.76855C2.58063 7.58011 2.40221 7.40052 2.19286 7.4095C1.9835 7.41848 1.80509 7.56743 1.80509 7.76855V8.73791V11.0592V13.8652V16.2978C1.80509 16.6892 1.79539 17.0842 1.80509 17.4754V17.4915C1.80509 17.6799 1.9835 17.8595 2.19286 17.8506C2.40237 17.8416 2.58063 17.6925 2.58063 17.4915Z" fill="white"/>
<path d="M2.58022 4.4275V1.87999V1.52636C2.58022 1.33793 2.40181 1.15833 2.19246 1.16732C1.9831 1.1763 1.80469 1.32524 1.80469 1.52636V4.07387V4.4275C1.80469 4.61593 1.9831 4.79553 2.19246 4.78654C2.40196 4.77756 2.58022 4.62862 2.58022 4.4275Z" fill="white"/>
<path d="M3.99693 6.09691C3.99693 7.01898 3.18954 7.76642 2.1937 7.76642C1.19786 7.76642 0.390625 7.01898 0.390625 6.09691C0.390625 5.17472 1.19786 4.42725 2.1937 4.42725C3.18954 4.42725 3.99693 5.17469 3.99693 6.09691Z" fill="white"/>
<path d="M3.60812 6.09729C3.60812 6.13862 3.60611 6.18167 3.60227 6.22301C3.60027 6.24453 3.59842 6.26434 3.59642 6.28401C3.59257 6.33789 3.61381 6.1925 3.59842 6.27503C3.58287 6.35585 3.56347 6.43296 3.53638 6.51207C3.52283 6.54969 3.50144 6.58747 3.49174 6.62524C3.51314 6.53901 3.50344 6.60015 3.48974 6.62709C3.48204 6.64149 3.47419 6.65589 3.46649 6.67014C3.42586 6.74369 3.37736 6.81382 3.32887 6.88195C3.30178 6.91957 3.32302 6.92685 3.33657 6.87482C3.33457 6.8838 3.31132 6.90361 3.30547 6.91074C3.27838 6.94124 3.24929 6.97003 3.22019 6.99869C3.1911 7.02748 3.16016 7.05427 3.12906 7.08121C3.11736 7.09204 3.10382 7.10273 3.09027 7.11171C3.07672 7.12255 2.99714 7.16559 3.04963 7.14222C3.10397 7.11884 3.03793 7.14934 3.02639 7.15661C3.01284 7.16559 2.99929 7.17457 2.98375 7.18355C2.9488 7.20507 2.91201 7.22489 2.87522 7.24456C2.83843 7.26437 2.79964 7.28219 2.76085 7.29844C2.75115 7.302 2.67556 7.32538 2.7356 7.30927C2.79764 7.29131 2.69681 7.32181 2.68527 7.32538C2.61153 7.34875 2.53594 7.36842 2.45836 7.38467C2.43312 7.39009 2.40602 7.39365 2.38078 7.39907C2.32644 7.40805 2.38847 7.4099 2.40402 7.39722C2.38262 7.41517 2.27025 7.40805 2.24316 7.40805C2.16172 7.4099 2.08029 7.40448 1.99886 7.39907C1.90572 7.39194 2.08799 7.41517 1.99686 7.39907C1.97946 7.3955 1.96191 7.39365 1.94452 7.39009C1.89218 7.38111 1.84169 7.36857 1.79135 7.35602C1.75456 7.34519 1.71761 7.3345 1.68082 7.32196C1.66912 7.31839 1.62464 7.30941 1.62079 7.30043C1.63434 7.32552 1.69052 7.33094 1.63049 7.304C1.54905 7.26637 1.47147 7.2286 1.39589 7.1837C1.38234 7.17472 1.36679 7.16574 1.35325 7.15676C1.34555 7.15134 1.3397 7.14778 1.33185 7.14236C1.29891 7.11899 1.30476 7.1244 1.34925 7.15676C1.32015 7.14963 1.28336 7.10644 1.26196 7.08848C1.19608 7.0329 1.13404 6.9736 1.07585 6.91074C1.072 6.90533 1.04676 6.88195 1.04476 6.87482C1.05445 6.88737 1.06415 6.8982 1.07385 6.91074C1.06415 6.8982 1.05445 6.88566 1.04476 6.87312C1.02336 6.84432 1.00212 6.81382 0.982721 6.78332C0.963325 6.75282 0.943928 6.72231 0.926532 6.68996C0.914833 6.66844 0.903288 6.64691 0.891589 6.62539C0.88774 6.61827 0.883892 6.611 0.879889 6.60387C0.862494 6.56795 0.866343 6.57508 0.887586 6.62368C0.870191 6.6147 0.848794 6.52676 0.842945 6.51051C0.829398 6.47288 0.817699 6.43325 0.808001 6.39377C0.798303 6.35785 0.790606 6.32193 0.784756 6.28602C0.778907 6.25551 0.786758 6.21062 0.784756 6.29685C0.784756 6.27347 0.778907 6.24654 0.777059 6.2233C0.769363 6.13892 0.77121 6.0564 0.777059 5.97201C0.779061 5.95591 0.780908 5.93966 0.780908 5.9217C0.788605 5.83917 0.769208 5.98456 0.778907 5.93068C0.788605 5.88578 0.796302 5.84273 0.808001 5.79969C0.817699 5.76021 0.829398 5.72244 0.842945 5.68296C0.850642 5.66143 0.86819 5.57876 0.887586 5.56978C0.87404 5.57691 0.854643 5.6362 0.879889 5.58959C0.891589 5.56807 0.901287 5.54655 0.912832 5.52503C0.932228 5.48911 0.95347 5.45504 0.974868 5.42083C0.996266 5.38677 1.01951 5.35441 1.0446 5.32206C1.0523 5.31308 1.08524 5.25022 1.06015 5.30053C1.0349 5.349 1.06785 5.29156 1.07754 5.28072C1.13188 5.21972 1.19007 5.16399 1.25396 5.11011C1.27536 5.09215 1.32185 5.04012 1.35094 5.03471C1.29475 5.04725 1.30245 5.06706 1.34324 5.04183C1.36064 5.031 1.37818 5.01846 1.39558 5.00777C1.46731 4.96472 1.54105 4.92524 1.61848 4.89289C1.64757 4.88034 1.71346 4.87136 1.62048 4.89103C1.63603 4.88747 1.65342 4.87849 1.66897 4.87307C1.70961 4.85868 1.7504 4.84613 1.79304 4.83545C1.83568 4.82461 1.87833 4.81392 1.92097 4.80665C1.93836 4.80309 1.95591 4.79953 1.9733 4.79767C1.9907 4.79411 2.00825 4.79226 2.02564 4.79055C1.9713 4.79768 1.95775 4.79767 1.98885 4.79596C2.07413 4.78884 2.15941 4.78342 2.2467 4.78699C2.29134 4.78884 2.33583 4.7924 2.38047 4.79596C2.45805 4.80138 2.35722 4.7924 2.35722 4.7924C2.36892 4.78527 2.43281 4.80494 2.44835 4.8068C2.54718 4.82476 2.64232 4.8534 2.73529 4.88405C2.78378 4.90016 2.73914 4.87151 2.71389 4.87507C2.73329 4.87322 2.77793 4.90201 2.79533 4.91099C2.83797 4.9308 2.87876 4.95047 2.9194 4.97385C2.96404 4.99894 3.00468 5.02588 3.04732 5.0511C3.08227 5.07263 3.07057 5.04754 3.02993 5.03671C3.04932 5.04212 3.07257 5.06906 3.08812 5.08161C3.16185 5.1409 3.23159 5.20362 3.29362 5.27374C3.30532 5.28629 3.33041 5.30425 3.33426 5.31864C3.30316 5.27916 3.29547 5.27204 3.31286 5.29356C3.32056 5.30254 3.32841 5.31337 3.33426 5.32235C3.36335 5.36183 3.39045 5.40132 3.41569 5.44265C3.43709 5.47672 3.45633 5.51264 3.47573 5.54684C3.48158 5.55939 3.51067 5.59887 3.50867 5.61141C3.48727 5.56651 3.48342 5.55582 3.49512 5.58091C3.49897 5.59174 3.50482 5.60243 3.50867 5.61497C3.54161 5.6975 3.56686 5.78374 3.58626 5.87168C3.58826 5.88251 3.60565 5.93625 3.5998 5.94352C3.5978 5.92741 3.59595 5.91302 3.59395 5.89691C3.59595 5.91302 3.5978 5.92927 3.5998 5.94723C3.60611 5.99669 3.60812 6.04697 3.60812 6.09729C3.61012 6.28572 3.78453 6.46534 3.99588 6.45636C4.20524 6.44738 4.38565 6.29843 4.38365 6.09732C4.37595 5.23556 3.78839 4.48155 2.91984 4.18351C2.08612 3.89801 1.07597 4.15301 0.515632 4.79386C0.216994 5.13495 0.0425778 5.53178 0.0056525 5.97147C-0.0272903 6.37186 0.0850832 6.79006 0.308141 7.13484C0.789037 7.87801 1.72927 8.2479 2.64062 8.08272C3.64892 7.90141 4.37395 7.03607 4.38183 6.09721C4.38383 5.90878 4.20157 5.72918 3.99406 5.73816C3.78455 5.74729 3.60999 5.89623 3.60814 6.09735L3.60812 6.09729Z" fill="white"/>
<path d="M9.33803 17.4913V15.2652V14.9492C9.33803 14.7608 9.15962 14.5812 8.95027 14.5902C8.74091 14.5992 8.5625 14.7481 8.5625 14.9492V17.1753V17.4913C8.5625 17.6798 8.74091 17.8594 8.95027 17.8504C9.15962 17.8414 9.33803 17.6923 9.33803 17.4913Z" fill="white"/>
<path d="M9.33844 11.6087V10.6015V8.20121V5.28038V2.77063C9.33844 2.36126 9.34814 1.95204 9.33844 1.54442V1.52831C9.33844 1.33988 9.16003 1.16029 8.95067 1.16927C8.74132 1.17825 8.5629 1.3272 8.5629 1.52831V2.53548V4.93576V7.85659V10.3663C8.5629 10.7757 8.55321 11.1849 8.5629 11.5925V11.6087C8.5629 11.7971 8.74132 11.9767 8.95067 11.9677C9.16003 11.9587 9.33844 11.8098 9.33844 11.6087Z" fill="white"/>
<path d="M10.7547 13.2781C10.7547 14.2001 9.94751 14.9476 8.95167 14.9476C7.95571 14.9476 7.14844 14.2001 7.14844 13.2781C7.14844 12.3559 7.95567 11.6084 8.95167 11.6084C9.94751 11.6084 10.7547 12.3558 10.7547 13.2781Z" fill="white"/>
<path d="M10.3659 13.278C10.3659 13.3193 10.3639 13.3623 10.3601 13.4037C10.3581 13.4252 10.3562 13.445 10.3542 13.4647C10.3504 13.5186 10.3716 13.3732 10.3562 13.4557C10.3407 13.5365 10.3213 13.6136 10.2942 13.6927C10.2806 13.7304 10.2592 13.7681 10.2496 13.8059C10.2709 13.7197 10.2613 13.7808 10.2476 13.8078C10.2399 13.8222 10.232 13.8366 10.2243 13.8508C10.1837 13.9244 10.1352 13.9945 10.0867 14.0626C10.0596 14.1002 10.0808 14.1075 10.0944 14.0555C10.0924 14.0645 10.0691 14.0843 10.0633 14.0914C10.0362 14.1219 10.0071 14.1507 9.978 14.1793C9.94891 14.2081 9.91797 14.2349 9.88687 14.2619C9.87517 14.2727 9.86163 14.2834 9.84808 14.2924C9.83453 14.3032 9.75495 14.3463 9.80744 14.3229C9.86178 14.2995 9.79574 14.33 9.7842 14.3373C9.77065 14.3463 9.75711 14.3552 9.74156 14.3642C9.70661 14.3857 9.66982 14.4056 9.63303 14.4252C9.59624 14.445 9.55745 14.4629 9.51866 14.4791C9.50896 14.4827 9.43338 14.506 9.49341 14.4899C9.55545 14.472 9.45462 14.5025 9.44308 14.506C9.36934 14.5294 9.29376 14.5491 9.21617 14.5653C9.19093 14.5708 9.16384 14.5743 9.13859 14.5797C9.08425 14.5887 9.14628 14.5906 9.16183 14.5779C9.14043 14.5958 9.02806 14.5887 9.00097 14.5887C8.91954 14.5906 8.8381 14.5851 8.75667 14.5797C8.66354 14.5726 8.8458 14.5958 8.75467 14.5797C8.73727 14.5762 8.71972 14.5743 8.70233 14.5708C8.64999 14.5618 8.5995 14.5492 8.54916 14.5367C8.51237 14.5259 8.47543 14.5152 8.43864 14.5026C8.42694 14.4991 8.38245 14.4901 8.3786 14.4811C8.39215 14.5062 8.44833 14.5116 8.3883 14.4847C8.30687 14.447 8.22928 14.4093 8.1537 14.3644C8.14015 14.3554 8.12461 14.3464 8.11106 14.3374C8.10336 14.332 8.09751 14.3284 8.08966 14.323C8.05672 14.2997 8.06257 14.3051 8.10706 14.3374C8.07796 14.3303 8.04117 14.2871 8.01978 14.2691C7.95389 14.2136 7.89185 14.1543 7.83366 14.0914C7.82982 14.086 7.80457 14.0626 7.80257 14.0555C7.81227 14.068 7.82197 14.0789 7.83166 14.0914C7.82197 14.0789 7.81227 14.0663 7.80257 14.0538C7.78117 14.025 7.75993 13.9945 7.74053 13.964C7.72114 13.9335 7.70174 13.903 7.68435 13.8706C7.67265 13.8491 7.6611 13.8276 7.6494 13.8061C7.64555 13.7989 7.6417 13.7917 7.6377 13.7845C7.62031 13.7486 7.62416 13.7557 7.6454 13.8043C7.628 13.7954 7.60661 13.7074 7.60076 13.6912C7.58721 13.6535 7.57551 13.6139 7.56581 13.5744C7.55612 13.5385 7.54842 13.5026 7.54257 13.4667C7.53672 13.4362 7.54457 13.3913 7.54257 13.4775C7.54257 13.4541 7.53672 13.4272 7.53487 13.404C7.52718 13.3196 7.52902 13.2371 7.53487 13.1527C7.53687 13.1366 7.53872 13.1203 7.53872 13.1024C7.54642 13.0198 7.52702 13.1652 7.53672 13.1113C7.54642 13.0664 7.55411 13.0234 7.56581 12.9804C7.57551 12.9409 7.58721 12.9031 7.60076 12.8636C7.60845 12.8421 7.626 12.7594 7.6454 12.7504C7.63185 12.7576 7.61246 12.8169 7.6377 12.7703C7.6494 12.7487 7.6591 12.7272 7.67064 12.7057C7.69004 12.6698 7.71128 12.6357 7.73268 12.6015C7.75408 12.5674 7.77732 12.5351 7.80241 12.5027C7.81011 12.4937 7.84305 12.4309 7.81796 12.4812C7.79272 12.5297 7.82566 12.4722 7.83536 12.4614C7.8897 12.4004 7.94789 12.3447 8.01177 12.2908C8.03317 12.2728 8.07966 12.2208 8.10875 12.2154C8.05256 12.2279 8.06026 12.2477 8.10105 12.2225C8.11845 12.2117 8.136 12.1991 8.15339 12.1884C8.22513 12.1454 8.29886 12.1059 8.37629 12.0735C8.40538 12.061 8.47127 12.052 8.37829 12.0717C8.39384 12.0681 8.41123 12.0592 8.42678 12.0537C8.46742 12.0393 8.50822 12.0268 8.55086 12.0161C8.5935 12.0053 8.63614 11.9946 8.67878 11.9873C8.69617 11.9838 8.71372 11.9802 8.73112 11.9783C8.74851 11.9748 8.76606 11.9729 8.78345 11.9712C8.72911 11.9783 8.71556 11.9783 8.74666 11.9766C8.83194 11.9695 8.91722 11.9641 9.00451 11.9676C9.04915 11.9695 9.09364 11.9731 9.13828 11.9766C9.21587 11.982 9.11504 11.9731 9.11504 11.9731C9.12674 11.9659 9.19062 11.9856 9.20617 11.9875C9.30499 12.0054 9.40013 12.0341 9.4931 12.0647C9.5416 12.0808 9.49695 12.0522 9.47171 12.0557C9.4911 12.0539 9.53575 12.0827 9.55314 12.0917C9.59578 12.1115 9.63657 12.1311 9.67721 12.1545C9.72185 12.1796 9.7625 12.2065 9.80514 12.2318C9.84008 12.2533 9.82838 12.2282 9.78774 12.2174C9.80714 12.2228 9.83038 12.2497 9.84593 12.2623C9.91967 12.3216 9.9894 12.3843 10.0514 12.4544C10.0631 12.467 10.0882 12.4849 10.0921 12.4993C10.061 12.4598 10.0533 12.4527 10.0707 12.4742C10.0784 12.4832 10.0862 12.494 10.0921 12.503C10.1212 12.5425 10.1483 12.582 10.1735 12.6233C10.1949 12.6574 10.2141 12.6933 10.2335 12.7275C10.2394 12.7401 10.2685 12.7795 10.2665 12.7921C10.2451 12.7472 10.2412 12.7365 10.2529 12.7616C10.2568 12.7724 10.2626 12.7831 10.2665 12.7956C10.2994 12.8782 10.3247 12.9644 10.3441 13.0523C10.3461 13.0632 10.3635 13.1169 10.3576 13.1242C10.3556 13.1081 10.3538 13.0937 10.3518 13.0776C10.3538 13.0937 10.3556 13.1099 10.3576 13.1279C10.3641 13.1774 10.3659 13.2276 10.3659 13.278C10.3679 13.4664 10.5423 13.646 10.7537 13.637C10.9631 13.628 11.1435 13.4791 11.1415 13.278C11.1338 12.4162 10.5462 11.6622 9.67765 11.3642C8.84393 11.0787 7.83379 11.3337 7.27344 11.9745C6.97481 12.3156 6.80039 12.7124 6.76346 13.1521C6.73052 13.5525 6.8429 13.9707 7.06595 14.3155C7.54685 15.0587 8.48709 15.4286 9.39844 15.2634C10.4067 15.0821 11.1318 14.2167 11.1396 13.2779C11.1416 13.0894 10.9594 12.9098 10.7519 12.9188C10.5424 12.928 10.368 13.0769 10.366 13.278L10.3659 13.278Z" fill="white"/>
<path d="M16.0954 17.4916V16.865V15.3589V13.5367V11.9604C16.0954 11.7037 16.1031 11.447 16.0954 11.192V11.1811C16.0954 10.9927 15.9169 10.8131 15.7076 10.8221C15.4982 10.8311 15.3198 10.98 15.3198 11.1811V11.8077V13.3139V15.1361V16.7124C15.3198 16.9691 15.3121 17.2258 15.3198 17.4808V17.4916C15.3198 17.68 15.4982 17.8596 15.7076 17.8507C15.9169 17.8417 16.0954 17.6926 16.0954 17.4916Z" fill="white"/>
<path d="M16.0954 7.83829V7.2117V5.70555V3.88336V2.30708C16.0954 2.05037 16.1031 1.79368 16.0954 1.53866V1.52782C16.0954 1.33939 15.9169 1.1598 15.7076 1.16878C15.4982 1.17776 15.3198 1.32671 15.3198 1.52782V2.15441V3.66057V5.48275V7.05904C15.3198 7.31574 15.3121 7.57244 15.3198 7.82746V7.83829C15.3198 8.02672 15.4982 8.20632 15.7076 8.19733C15.9169 8.18835 16.0954 8.03941 16.0954 7.83829Z" fill="white"/>
<path d="M17.5088 9.50804C17.5088 10.4301 16.7014 11.1776 15.7056 11.1776C14.7097 11.1776 13.9023 10.4301 13.9023 9.50804C13.9023 8.58585 14.7097 7.83838 15.7056 7.83838C16.7014 7.83838 17.5088 8.58582 17.5088 9.50804Z" fill="white"/>
<path d="M17.1237 9.50793C17.1237 9.54927 17.1217 9.59231 17.1179 9.63365C17.1159 9.65517 17.114 9.67498 17.112 9.69465C17.1082 9.74853 17.1294 9.60315 17.114 9.68568C17.0985 9.76649 17.0791 9.8436 17.052 9.92271C17.0385 9.96034 17.0171 9.99811 17.0074 10.0359C17.0288 9.94965 17.0191 10.0108 17.0054 10.0377C16.9977 10.0521 16.9898 10.0665 16.9821 10.0808C16.9415 10.1543 16.893 10.2245 16.8445 10.2926C16.8174 10.3302 16.8386 10.3375 16.8522 10.2855C16.8502 10.2944 16.827 10.3143 16.8211 10.3214C16.794 10.3519 16.7649 10.3807 16.7358 10.4093C16.7067 10.4381 16.6758 10.4649 16.6447 10.4919C16.633 10.5027 16.6194 10.5134 16.6059 10.5224C16.5923 10.5332 16.5128 10.5762 16.5653 10.5529C16.6196 10.5295 16.5536 10.56 16.542 10.5673C16.5285 10.5762 16.5149 10.5852 16.4994 10.5942C16.4644 10.6157 16.4276 10.6355 16.3908 10.6552C16.3541 10.675 16.3153 10.6928 16.2765 10.7091C16.2668 10.7126 16.1912 10.736 16.2512 10.7199C16.3133 10.702 16.2124 10.7325 16.2009 10.736C16.1272 10.7594 16.0516 10.7791 15.974 10.7953C15.9487 10.8007 15.9217 10.8043 15.8964 10.8097C15.8421 10.8187 15.9041 10.8205 15.9196 10.8079C15.8982 10.8258 15.7859 10.8187 15.7588 10.8187C15.6773 10.8205 15.5959 10.8151 15.5145 10.8097C15.4214 10.8026 15.6036 10.8258 15.5125 10.8097C15.4951 10.8061 15.4775 10.8043 15.4601 10.8007C15.4078 10.7918 15.3573 10.7792 15.307 10.7667C15.2702 10.7558 15.2332 10.7451 15.1964 10.7326C15.1847 10.729 15.1403 10.7201 15.1364 10.7111C15.15 10.7362 15.2061 10.7416 15.1461 10.7146C15.0647 10.677 14.9871 10.6392 14.9115 10.5943C14.898 10.5854 14.8824 10.5764 14.8689 10.5674C14.8612 10.562 14.8553 10.5584 14.8475 10.553C14.8145 10.5296 14.8204 10.535 14.8649 10.5674C14.8358 10.5603 14.799 10.5171 14.7776 10.4991C14.7117 10.4435 14.6497 10.3842 14.5915 10.3214C14.5876 10.316 14.5624 10.2926 14.5604 10.2855C14.5701 10.298 14.5798 10.3088 14.5895 10.3214C14.5798 10.3088 14.5701 10.2963 14.5604 10.2838C14.539 10.255 14.5177 10.2245 14.4983 10.194C14.479 10.1635 14.4596 10.133 14.4422 10.1006C14.4305 10.0791 14.4189 10.0576 14.4072 10.036C14.4034 10.0289 14.3995 10.0216 14.3955 10.0145C14.3781 9.9786 14.382 9.98572 14.4032 10.0343C14.3858 10.0253 14.3644 9.9374 14.3586 9.92115C14.345 9.88352 14.3333 9.8439 14.3236 9.80442C14.3139 9.7685 14.3062 9.73258 14.3004 9.69666C14.2945 9.66616 14.3024 9.62126 14.3004 9.70749C14.3004 9.68412 14.2945 9.65718 14.2927 9.63395C14.285 9.54957 14.2868 9.46704 14.2927 9.38266C14.2947 9.36655 14.2965 9.3503 14.2965 9.33234C14.3042 9.24982 14.2848 9.3952 14.2945 9.34132C14.3042 9.29642 14.3119 9.25338 14.3236 9.21034C14.3333 9.17085 14.345 9.13308 14.3586 9.0936C14.3663 9.07208 14.3838 8.98941 14.4032 8.98043C14.3897 8.98755 14.3703 9.04685 14.3955 9.00024C14.4072 8.97871 14.4169 8.95719 14.4285 8.93567C14.4479 8.89975 14.4691 8.86568 14.4905 8.83148C14.5119 8.79741 14.5351 8.76506 14.5602 8.7327C14.5679 8.72372 14.6009 8.66086 14.5758 8.71118C14.5505 8.75964 14.5835 8.7022 14.5932 8.69137C14.6475 8.63036 14.7057 8.57463 14.7696 8.52075C14.791 8.50279 14.8375 8.45077 14.8666 8.44535C14.8104 8.45789 14.8181 8.47771 14.8589 8.45248C14.8763 8.44164 14.8938 8.4291 14.9112 8.41841C14.9829 8.37537 15.0567 8.33588 15.1341 8.30353C15.1632 8.29099 15.2291 8.28201 15.1361 8.30168C15.1517 8.29811 15.169 8.28913 15.1846 8.28372C15.2252 8.26932 15.266 8.25678 15.3087 8.24609C15.3513 8.23526 15.394 8.22457 15.4366 8.2173C15.454 8.21373 15.4715 8.21017 15.4889 8.20832C15.5063 8.20475 15.5239 8.2029 15.5413 8.20119C15.4869 8.20832 15.4734 8.20832 15.5045 8.20661C15.5898 8.19948 15.675 8.19406 15.7623 8.19763C15.807 8.19948 15.8515 8.20304 15.8961 8.20661C15.9737 8.21202 15.8728 8.20304 15.8728 8.20304C15.8845 8.19592 15.9484 8.21559 15.964 8.21744C16.0628 8.2354 16.1579 8.26405 16.2509 8.2947C16.2994 8.3108 16.2548 8.28215 16.2295 8.28572C16.2489 8.28386 16.2936 8.31265 16.311 8.32163C16.3536 8.34145 16.3944 8.36112 16.435 8.38449C16.4797 8.40958 16.5203 8.43652 16.5629 8.46175C16.5979 8.48327 16.5862 8.45819 16.5456 8.44735C16.565 8.45277 16.5882 8.47971 16.6037 8.49225C16.6775 8.55155 16.7472 8.61426 16.8093 8.68439C16.8209 8.69693 16.846 8.71489 16.8499 8.72929C16.8188 8.68981 16.8111 8.68268 16.8285 8.7042C16.8362 8.71318 16.844 8.72401 16.8499 8.73299C16.879 8.77247 16.9061 8.81196 16.9313 8.85329C16.9527 8.88736 16.972 8.92328 16.9914 8.95749C16.9972 8.97003 17.0263 9.00951 17.0243 9.02206C17.0029 8.97716 16.9991 8.96647 17.0107 8.99155C17.0146 9.00239 17.0204 9.01308 17.0243 9.02562C17.0572 9.10815 17.0825 9.19438 17.1019 9.28233C17.1039 9.29316 17.1213 9.34689 17.1154 9.35417C17.1134 9.33806 17.1116 9.32366 17.1096 9.30756C17.1116 9.32366 17.1134 9.33991 17.1154 9.35787C17.1217 9.40733 17.1237 9.45762 17.1237 9.50793C17.1257 9.69637 17.3002 9.87599 17.5115 9.86701C17.7209 9.85803 17.9013 9.70908 17.8993 9.50796C17.8916 8.6462 17.304 7.8922 16.4355 7.59415C15.6017 7.30866 14.5916 7.56365 14.0313 8.2045C13.7326 8.54559 13.5582 8.94242 13.5213 9.38211C13.4883 9.78251 13.6007 10.2007 13.8238 10.5455C14.3047 11.2887 15.2449 11.6585 16.1563 11.4934C17.1645 11.3121 17.8896 10.4467 17.8975 9.50785C17.8995 9.31942 17.7172 9.13983 17.5097 9.14881C17.3002 9.15793 17.1256 9.30688 17.1238 9.508L17.1237 9.50793Z" fill="white"/>
</svg>
