<svg width="22" height="22" viewBox="0 0 22 22" fill="none" xmlns="http://www.w3.org/2000/svg">
<path d="M0.393479 20.1924C0.00295486 20.583 0.00295486 21.2161 0.393479 21.6066C0.784003 21.9972 1.41717 21.9972 1.80769 21.6066L0.393479 20.1924ZM21.8996 1.10055C21.8996 0.548262 21.4519 0.100546 20.8996 0.100546L11.8996 0.100547C11.3473 0.100547 10.8996 0.548262 10.8996 1.10055C10.8996 1.65283 11.3473 2.10055 11.8996 2.10055L19.8996 2.10055L19.8996 10.1005C19.8996 10.6528 20.3473 11.1005 20.8996 11.1005C21.4519 11.1005 21.8996 10.6528 21.8996 10.1005L21.8996 1.10055ZM1.10059 20.8995L1.80769 21.6066L21.6067 1.80765L20.8996 1.10055L20.1925 0.39344L0.393479 20.1924L1.10059 20.8995Z" fill="white"/>
</svg>
