<svg width="19" height="19" viewBox="0 0 19 19" fill="none" xmlns="http://www.w3.org/2000/svg">
<path d="M16.625 4.73433C13.9888 4.47308 11.3367 4.3385 8.6925 4.3385C7.125 4.3385 5.5575 4.41767 3.99 4.576L2.375 4.73433" stroke="#646464" stroke-width="1.5" stroke-linecap="round" stroke-linejoin="round"/>
<path d="M6.73047 3.93438L6.90464 2.8973C7.0313 2.14521 7.1263 1.58313 8.46422 1.58313H10.5384C11.8763 1.58313 11.9792 2.17688 12.098 2.90521L12.2721 3.93438" stroke="#646464" stroke-width="1.5" stroke-linecap="round" stroke-linejoin="round"/>
<path d="M14.924 7.23566L14.4094 15.2077C14.3223 16.4507 14.251 17.4165 12.0423 17.4165H6.95979C4.75104 17.4165 4.67979 16.4507 4.59271 15.2077L4.07812 7.23566" stroke="#646464" stroke-width="1.5" stroke-linecap="round" stroke-linejoin="round"/>
<path d="M8.17969 13.0625H10.8159" stroke="#646464" stroke-width="1.5" stroke-linecap="round" stroke-linejoin="round"/>
<path d="M7.51953 9.89563H11.4779" stroke="#646464" stroke-width="1.5" stroke-linecap="round" stroke-linejoin="round"/>
</svg>
