<svg width="16" height="16" viewBox="0 0 16 16" fill="none" xmlns="http://www.w3.org/2000/svg">
<path d="M14.4738 13.5266L12.0004 11.0733C12.9605 9.87621 13.4254 8.3568 13.2996 6.82747C13.1738 5.29814 12.4669 3.87512 11.3241 2.85103C10.1813 1.82694 8.68963 1.27961 7.15571 1.32158C5.62178 1.36356 4.16224 1.99164 3.07719 3.0767C1.99213 4.16175 1.36405 5.6213 1.32207 7.15522C1.2801 8.68914 1.82743 10.1808 2.85152 11.3236C3.87561 12.4664 5.29863 13.1733 6.82796 13.2991C8.35729 13.4249 9.8767 12.96 11.0738 11.9999L13.5271 14.4533C13.5891 14.5158 13.6628 14.5654 13.744 14.5992C13.8253 14.633 13.9124 14.6505 14.0004 14.6505C14.0884 14.6505 14.1756 14.633 14.2568 14.5992C14.338 14.5654 14.4118 14.5158 14.4738 14.4533C14.5939 14.329 14.6611 14.1628 14.6611 13.9899C14.6611 13.817 14.5939 13.6509 14.4738 13.5266ZM7.33376 11.9999C6.41078 11.9999 5.50853 11.7262 4.7411 11.2135C3.97367 10.7007 3.37553 9.97185 3.02232 9.11913C2.66911 8.2664 2.5767 7.32809 2.75676 6.42285C2.93682 5.5176 3.38128 4.68608 4.03393 4.03344C4.68657 3.38079 5.51809 2.93634 6.42334 2.75627C7.32858 2.57621 8.26689 2.66862 9.11961 3.02183C9.97234 3.37504 10.7012 3.97318 11.214 4.74061C11.7267 5.50804 12.0004 6.41029 12.0004 7.33327C12.0004 8.57095 11.5088 9.75793 10.6336 10.6331C9.75842 11.5083 8.57144 11.9999 7.33376 11.9999Z" fill="#111111"/>
</svg>
