<svg width="19" height="20" viewBox="0 0 19 20" fill="none" xmlns="http://www.w3.org/2000/svg">
<path d="M16.625 5.23433C13.9888 4.97308 11.3367 4.8385 8.6925 4.8385C7.125 4.8385 5.5575 4.91767 3.99 5.076L2.375 5.23433" stroke="white" stroke-width="1.5" stroke-linecap="round" stroke-linejoin="round"/>
<path d="M6.73047 4.43438L6.90464 3.3973C7.0313 2.64521 7.1263 2.08313 8.46422 2.08313H10.5384C11.8763 2.08313 11.9792 2.67688 12.098 3.40521L12.2721 4.43438" stroke="white" stroke-width="1.5" stroke-linecap="round" stroke-linejoin="round"/>
<path d="M14.924 7.73566L14.4094 15.7077C14.3223 16.9507 14.251 17.9165 12.0423 17.9165H6.95979C4.75104 17.9165 4.67979 16.9507 4.59271 15.7077L4.07812 7.73566" stroke="white" stroke-width="1.5" stroke-linecap="round" stroke-linejoin="round"/>
<path d="M8.17969 13.5625H10.8159" stroke="white" stroke-width="1.5" stroke-linecap="round" stroke-linejoin="round"/>
<path d="M7.51953 10.3956H11.4779" stroke="white" stroke-width="1.5" stroke-linecap="round" stroke-linejoin="round"/>
</svg>
