<svg width="20" height="20" viewBox="0 0 20 20" fill="none" xmlns="http://www.w3.org/2000/svg">
<path d="M18.293 0.292893C18.6835 -0.0976309 19.3166 -0.0976309 19.7071 0.292893C20.0976 0.683417 20.0976 1.31643 19.7071 1.70696L11.4141 9.99992L19.7071 18.2929L19.7754 18.3691C20.0958 18.7618 20.0732 19.3408 19.7071 19.707C19.341 20.0731 18.762 20.0957 18.3692 19.7753L18.293 19.707L10 11.414L1.70708 19.707C1.31655 20.0975 0.683539 20.0975 0.293015 19.707C-0.0975089 19.3164 -0.0975089 18.6834 0.293015 18.2929L8.58598 9.99992L0.293015 1.70696L0.224656 1.63078C-0.0956948 1.23801 -0.073101 0.659009 0.293015 0.292893C0.659131 -0.0732231 1.23813 -0.0958169 1.63091 0.224533L1.70708 0.292893L10 8.58586L18.293 0.292893Z" fill="#68B322"/>
</svg>
