<svg width="18" height="18" viewBox="0 0 18 18" fill="none" xmlns="http://www.w3.org/2000/svg">
<path d="M16.2929 0.292954C16.6834 -0.0975701 17.3164 -0.0975699 17.707 0.292954C18.0975 0.683478 18.0975 1.31649 17.707 1.70702L10.414 8.99999L17.707 16.293L17.7753 16.3691C18.0957 16.7619 18.0731 17.3409 17.707 17.707C17.3408 18.0731 16.7618 18.0957 16.3691 17.7754L16.2929 17.707L8.99992 10.414L1.70696 17.707C1.31643 18.0975 0.683417 18.0975 0.292893 17.707C-0.0976309 17.3165 -0.0976312 16.6835 0.292893 16.293L7.58586 8.99999L0.292893 1.70702L0.224534 1.63084C-0.0958167 1.23807 -0.0732229 0.65907 0.292893 0.292954C0.659009 -0.0731619 1.23801 -0.0957557 1.63078 0.224595L1.70696 0.292954L8.99992 7.58592L16.2929 0.292954Z" fill="white"/>
</svg>
