<svg width="24" height="24" viewBox="0 0 24 24" fill="none" xmlns="http://www.w3.org/2000/svg">
<path d="M3 3L5.08 3.36L6.043 14.833C6.12 15.77 6.903 16.489 7.843 16.486H18.752C19.649 16.488 20.41 15.828 20.537 14.94L21.486 8.382C21.592 7.649 21.083 6.969 20.351 6.863C20.3098 6.85721 14.1458 6.85308 9.75 6.85087" stroke="#252525" stroke-width="2" stroke-linecap="round" stroke-linejoin="round"/>
<path d="M14.375 10.5449H17.148" stroke="#252525" stroke-width="2" stroke-linecap="round" stroke-linejoin="round"/>
<path fill-rule="evenodd" clip-rule="evenodd" d="M7.40338 19.9526C7.70438 19.9526 7.94738 20.1966 7.94738 20.4966C7.94738 20.7976 7.70438 21.0416 7.40338 21.0416C7.10238 21.0416 6.85938 20.7976 6.85938 20.4966C6.85938 20.1966 7.10238 19.9526 7.40338 19.9526Z" fill="#252525" stroke="#252525" stroke-width="2" stroke-linecap="round" stroke-linejoin="round"/>
<path fill-rule="evenodd" clip-rule="evenodd" d="M18.6846 19.9526C18.9856 19.9526 19.2296 20.1966 19.2296 20.4966C19.2296 20.7976 18.9856 21.0416 18.6846 21.0416C18.3836 21.0416 18.1406 20.7976 18.1406 20.4966C18.1406 20.1966 18.3836 19.9526 18.6846 19.9526Z" fill="#252525" stroke="#252525" stroke-width="2" stroke-linecap="round" stroke-linejoin="round"/>
</svg>
