<svg width="20" height="21" viewBox="0 0 20 21" fill="none" xmlns="http://www.w3.org/2000/svg">
<path d="M2.91927 5.5C2.75445 5.5 2.59334 5.54887 2.4563 5.64044C2.31926 5.73201 2.21244 5.86216 2.14937 6.01443C2.0863 6.1667 2.0698 6.33426 2.10195 6.49591C2.1341 6.65756 2.21347 6.80605 2.33002 6.92259C2.44656 7.03913 2.59505 7.1185 2.7567 7.15065C2.91835 7.18281 3.0859 7.16631 3.23817 7.10323C3.39045 7.04016 3.52059 6.93335 3.61216 6.79631C3.70373 6.65927 3.7526 6.49815 3.7526 6.33333C3.7526 6.11232 3.66481 5.90036 3.50853 5.74408C3.35225 5.5878 3.14029 5.5 2.91927 5.5ZM6.2526 7.16667H17.9193C18.1403 7.16667 18.3522 7.07887 18.5085 6.92259C18.6648 6.76631 18.7526 6.55435 18.7526 6.33333C18.7526 6.11232 18.6648 5.90036 18.5085 5.74408C18.3522 5.5878 18.1403 5.5 17.9193 5.5H6.2526C6.03159 5.5 5.81963 5.5878 5.66335 5.74408C5.50707 5.90036 5.41927 6.11232 5.41927 6.33333C5.41927 6.55435 5.50707 6.76631 5.66335 6.92259C5.81963 7.07887 6.03159 7.16667 6.2526 7.16667ZM6.2526 9.66667C6.08779 9.66667 5.92667 9.71554 5.78963 9.80711C5.65259 9.89868 5.54578 10.0288 5.4827 10.1811C5.41963 10.3334 5.40313 10.5009 5.43528 10.6626C5.46744 10.8242 5.54681 10.9727 5.66335 11.0893C5.77989 11.2058 5.92838 11.2852 6.09003 11.3173C6.25168 11.3495 6.41924 11.333 6.57151 11.2699C6.72378 11.2068 6.85393 11.1 6.9455 10.963C7.03706 10.8259 7.08594 10.6648 7.08594 10.5C7.08594 10.279 6.99814 10.067 6.84186 9.91074C6.68558 9.75446 6.47362 9.66667 6.2526 9.66667ZM9.58594 13.8333C9.42112 13.8333 9.26 13.8822 9.12296 13.9738C8.98592 14.0653 8.87911 14.1955 8.81604 14.3478C8.75297 14.5 8.73646 14.6676 8.76862 14.8292C8.80077 14.9909 8.88014 15.1394 8.99668 15.2559C9.11323 15.3725 9.26171 15.4518 9.42336 15.484C9.58501 15.5161 9.75257 15.4996 9.90484 15.4366C10.0571 15.3735 10.1873 15.2667 10.2788 15.1296C10.3704 14.9926 10.4193 14.8315 10.4193 14.6667C10.4193 14.4457 10.3315 14.2337 10.1752 14.0774C10.0189 13.9211 9.80695 13.8333 9.58594 13.8333ZM17.9193 9.66667H9.58594C9.36492 9.66667 9.15296 9.75446 8.99668 9.91074C8.8404 10.067 8.7526 10.279 8.7526 10.5C8.7526 10.721 8.8404 10.933 8.99668 11.0893C9.15296 11.2455 9.36492 11.3333 9.58594 11.3333H17.9193C18.1403 11.3333 18.3522 11.2455 18.5085 11.0893C18.6648 10.933 18.7526 10.721 18.7526 10.5C18.7526 10.279 18.6648 10.067 18.5085 9.91074C18.3522 9.75446 18.1403 9.66667 17.9193 9.66667ZM17.9193 13.8333H12.9193C12.6983 13.8333 12.4863 13.9211 12.33 14.0774C12.1737 14.2337 12.0859 14.4457 12.0859 14.6667C12.0859 14.8877 12.1737 15.0996 12.33 15.2559C12.4863 15.4122 12.6983 15.5 12.9193 15.5H17.9193C18.1403 15.5 18.3522 15.4122 18.5085 15.2559C18.6648 15.0996 18.7526 14.8877 18.7526 14.6667C18.7526 14.4457 18.6648 14.2337 18.5085 14.0774C18.3522 13.9211 18.1403 13.8333 17.9193 13.8333Z" fill="white"/>
</svg>
