<svg width="59" height="59" viewBox="0 0 59 59" fill="none" xmlns="http://www.w3.org/2000/svg">
<g clip-path="url(#clip0_422_1707)">
<path fill-rule="evenodd" clip-rule="evenodd" d="M22.5833 7.375C23.4996 7.375 26.9996 9 29.5 10.2433C32.4996 9 34.9996 7.375 36.4166 7.375H49.1666C51.882 7.375 54.0833 9.57627 54.0833 12.2917V44.25C54.0833 46.9654 51.882 49.1667 49.1666 49.1667H31.9583V50.1667C31.9583 51.5244 30.852 52.625 29.5 52.625C28.1479 52.625 27.0416 51.5187 27.0416 50.1667V49.1667H9.83329C7.11789 49.1667 4.91663 46.9654 4.91663 44.25V12.2917C4.91663 9.57627 7.11789 7.375 9.83329 7.375H22.5833ZM22.5833 12.2917H9.83329V44.25H27.0416V14.3648C24.9996 13 23.5968 12.2917 22.5833 12.2917ZM49.1666 12.2917H36.4166C35.3074 12.2917 33.4996 13.5 31.9583 14.5V44.25H49.1666V12.2917Z" fill="#171717"/>
</g>
<defs>
<clipPath id="clip0_422_1707">
<rect width="59" height="59" fill="white"/>
</clipPath>
</defs>
</svg>
