<svg width="50" height="50" viewBox="0 0 50 50" fill="none" xmlns="http://www.w3.org/2000/svg">
<path d="M22.618 1.85921L2.27568 12.5121C0.574774 13.403 0.574774 15.9717 2.27568 16.8626L22.618 27.5155C24.1094 28.2967 25.8906 28.2967 27.382 27.5155L47.7243 16.8626C49.4252 15.9717 49.4252 13.403 47.7243 12.5121L27.382 1.85921C25.7213 1.04015 24.1718 1.06421 22.618 1.85921ZM26.3709 3.78786L46.7131 14.4408C46.9675 14.5742 46.9675 14.8009 46.7131 14.934L26.3709 25.5869C25.5111 26.037 24.4889 26.037 23.6292 25.5869L3.28686 14.934C3.03251 14.8005 3.03251 14.5738 3.28686 14.4408L23.6292 3.78786C24.6089 3.28702 25.4782 3.31436 26.3709 3.78786Z" fill="black" stroke="black" stroke-width="2"/>
<path d="M8 30.4993L2.27568 33.5222C0.574774 34.4067 0.574774 36.9569 2.27568 37.8414L22.618 48.4177C24.1094 49.1932 25.8906 49.1932 27.382 48.4177L47.7243 37.8414C49.4252 36.9569 49.4252 34.4067 47.7243 33.5222L43.5134 31.0846C42.9802 30.8077 42.3215 31.0118 42.0424 31.5405C41.7629 32.0689 41.9679 32.7214 42.5 32.9993L46.7136 35.437C46.9679 35.5694 46.9679 35.7945 46.7136 35.9266L26.3713 46.5029C25.5115 46.9498 24.4893 46.9498 23.6296 46.5029L3.28727 35.9266C3.03292 35.7942 3.03292 35.5691 3.28727 35.437L9.01384 32.4141C9.54626 32.1365 9.75098 31.4836 9.47145 30.9553C9.14886 30.3897 8.55102 30.2152 8 30.4993Z" fill="black" stroke="black" stroke-width="2"/>
<path d="M8 20.1341L2.27568 23.157C0.574774 24.0415 0.574774 26.5917 2.27568 27.4762L22.618 38.0524C24.1094 38.828 25.8906 38.828 27.382 38.0524L47.7243 27.4762C49.4252 26.5917 49.4252 24.0415 47.7243 23.157L43.5134 20.7193C42.9802 20.4425 42.3215 20.6466 42.0424 21.1753C41.7629 21.7037 41.9679 22.3561 42.5 22.6341L46.7136 25.0718C46.9679 25.2042 46.9679 25.4293 46.7136 25.5614L26.3713 36.1377C25.5115 36.5846 24.4893 36.5846 23.6296 36.1377L3.28727 25.5614C3.03292 25.429 3.03292 25.2039 3.28727 25.0718L9.01384 22.0488C9.54626 21.7713 9.75098 21.1184 9.47145 20.5901C9.14886 20.0244 8.55102 19.85 8 20.1341Z" fill="black" stroke="black" stroke-width="2"/>
</svg>
