<svg style="display: none;" aria-hidden="true" xmlns="http://www.w3.org/2000/svg" xmlns:xlink="http://www.w3.org/1999/xlink"><symbol viewBox="0 0 30 30" fill="none" id="svg-check"><circle cx="15" cy="15" r="14.578" stroke="#93DCD2" stroke-width=".843"/><path d="M8.43347 15.6717L12.8982 20.2398L23.6136 9.27637" stroke="#93DCD2" stroke-width="1.687"/></symbol><symbol viewBox="0 0 52 52" fill="none" id="svg-fb"><circle opacity=".3" cx="26" cy="26" r="26" fill="#F5F5F5"/><path d="M31.5417 22.969H28.0356V20.6695C28.0356 19.8059 28.608 19.6046 29.0111 19.6046C29.4133 19.6046 31.4853 19.6046 31.4853 19.6046V15.8082L28.0778 15.7949C24.2952 15.7949 23.4344 18.6264 23.4344 20.4384V22.969H21.2468V26.8809H23.4344C23.4344 31.9013 23.4344 37.9504 23.4344 37.9504H28.0356C28.0356 37.9504 28.0356 31.8417 28.0356 26.8809H31.1404L31.5417 22.969Z" fill="#fff"/></symbol><symbol viewBox="0 0 52 52" id="svg-in"><circle class="ccircle-svg" opacity=".3" cx="26" cy="26" r="26"/><g clip-path="url(#cclip0_542_3278)"><path d="M26 17.1262C28.8904 17.1262 29.2327 17.1373 30.3742 17.1893C31.4296 17.2375 32.0028 17.4138 32.3842 17.5621C32.8544 17.7356 33.2797 18.0123 33.6289 18.3718C33.9884 18.721 34.2651 19.1463 34.4386 19.6164C34.5869 19.9979 34.7632 20.571 34.8113 21.6264C34.8634 22.7679 34.8744 23.1102 34.8744 26.0006C34.8744 28.8911 34.8634 29.2333 34.8113 30.3749C34.7632 31.4303 34.5868 32.0034 34.4386 32.3849C34.2585 32.8517 33.9827 33.2757 33.6289 33.6295C33.2751 33.9833 32.8511 34.2591 32.3842 34.4392C32.0028 34.5875 31.4296 34.7638 30.3742 34.8119C29.233 34.864 28.8907 34.8751 26 34.8751C23.1094 34.8751 22.7672 34.864 21.6258 34.8119C20.5704 34.7638 19.9973 34.5874 19.6158 34.4392C19.1456 34.2657 18.7203 33.989 18.3712 33.6295C18.0117 33.2803 17.735 32.855 17.5614 32.3849C17.4132 32.0034 17.2368 31.4303 17.1887 30.3749C17.1366 29.2334 17.1256 28.8911 17.1256 26.0006C17.1256 23.1102 17.1366 22.768 17.1887 21.6264C17.2369 20.571 17.4132 19.9979 17.5614 19.6164C17.735 19.1462 18.0117 18.7209 18.3713 18.3718C18.7204 18.0122 19.1457 17.7355 19.6159 17.562C19.9973 17.4138 20.5705 17.2374 21.6259 17.1893C22.7674 17.1372 23.1097 17.1262 26.0001 17.1262M26.0001 15.1758C23.0603 15.1758 22.6915 15.1882 21.5371 15.2409C20.3849 15.2935 19.5981 15.4765 18.9095 15.7441C18.1873 16.0159 17.533 16.442 16.9923 16.9926C16.4415 17.5333 16.0153 18.1876 15.7434 18.9099C15.476 19.5985 15.293 20.3853 15.2406 21.5375C15.1878 22.6919 15.1753 23.0607 15.1753 26.0005C15.1753 28.9403 15.1878 29.3091 15.2406 30.4635C15.2932 31.6157 15.4762 32.4026 15.7438 33.0911C16.0156 33.8134 16.4417 34.4677 16.9924 35.0084C17.533 35.559 18.1873 35.9851 18.9096 36.2569C19.5982 36.5245 20.385 36.7075 21.5372 36.7601C22.6918 36.8127 23.0604 36.8252 26.0002 36.8252C28.94 36.8252 29.3088 36.8127 30.4632 36.7601C31.6154 36.7075 32.4022 36.5245 33.0908 36.2569C33.8098 35.9788 34.4629 35.5535 35.008 35.0084C35.5532 34.4632 35.9785 33.8102 36.2566 33.0911C36.5242 32.4025 36.7071 31.6157 36.7597 30.4635C36.8124 29.3089 36.8249 28.9403 36.8249 26.0005C36.8249 23.0607 36.8124 22.6919 36.7597 21.5375C36.7071 20.3853 36.5242 19.5985 36.2566 18.9099C35.9848 18.1877 35.5587 17.5334 35.008 16.9927C34.4673 16.4419 33.813 16.0157 33.0906 15.7439C32.4021 15.4765 31.6152 15.2935 30.463 15.2411C29.3086 15.1882 28.9399 15.1758 26 15.1758H26.0001Z"/><path d="M26.0001 20.4414C24.9007 20.4414 23.826 20.7674 22.9118 21.3782 21.9977 21.989 21.2853 22.8571 20.8645 23.8729 20.4438 24.8886 20.3337 26.0062 20.5482 27.0845 20.7627 28.1628 21.2921 29.1532 22.0695 29.9306 22.8469 30.708 23.8373 31.2374 24.9156 31.4519 25.9939 31.6664 27.1116 31.5563 28.1273 31.1356 29.143 30.7149 30.0111 30.0024 30.6219 29.0883 31.2327 28.1742 31.5587 27.0995 31.5587 26.0001 31.5587 24.5258 30.9731 23.1119 29.9306 22.0695 28.8882 21.027 27.4743 20.4414 26.0001 20.4414zM26.0001 29.6083C25.2864 29.6083 24.5888 29.3966 23.9955 29.0002 23.4021 28.6037 22.9396 28.0401 22.6665 27.3808 22.3934 26.7215 22.322 25.996 22.4612 25.2961 22.6005 24.5962 22.9441 23.9533 23.4487 23.4487 23.9533 22.944 24.5963 22.6004 25.2962 22.4612 25.9961 22.322 26.7216 22.3934 27.3809 22.6665 28.0402 22.9396 28.6038 23.4021 29.0002 23.9954 29.3967 24.5888 29.6083 25.2864 29.6083 26.0001 29.6083 26.957 29.2281 27.8748 28.5515 28.5515 27.8748 29.2281 26.957 29.6083 26.0001 29.6083zM31.7782 21.5217C32.4956 21.5217 33.0771 20.9402 33.0771 20.2228 33.0771 19.5054 32.4956 18.9238 31.7782 18.9238 31.0608 18.9238 30.4792 19.5054 30.4792 20.2228 30.4792 20.9402 31.0608 21.5217 31.7782 21.5217z"/></g><defs><clipPath id="cclip0_542_3278"><path fill="#fff" transform="translate(15 15)" d="M0 0H22V22H0z"/></clipPath></defs></symbol><symbol viewBox="0 0 52 52" fill="none" id="svg-li"><circle cx="26" cy="26" r="26" fill="#B6F2EA"/><g clip-path="url(#dclip0_541_3270)" fill-rule="evenodd" clip-rule="evenodd" fill="#171717"><path d="M20.9881 35V20.8306H16.2784V35H20.9881zM18.6332 18.896C20.2756 18.896 21.2978 17.808 21.2978 16.4482 21.2672 15.0579 20.2756 14 18.6644 14 17.0533 14 16 15.0579 16 16.4482 16 17.808 17.022 18.896 18.6025 18.896H18.6332zM23.594 35H28.3036V27.0872C28.3036 26.6637 28.3342 26.2407 28.4586 25.9379 28.799 25.0918 29.574 24.2155 30.875 24.2155 32.5792 24.2155 33.2609 25.5149 33.2609 27.4197V35H37.9701V26.8755C37.9701 22.5233 35.6467 20.4981 32.5481 20.4981 30.0074 20.4981 28.892 21.9182 28.2723 22.8855H28.3037V20.8306H23.5941C23.6559 22.1602 23.594 35 23.594 35z"/></g><defs><clipPath id="dclip0_541_3270"><path fill="#fff" transform="translate(16 14)" d="M0 0H21.97V21H0z"/></clipPath></defs></symbol><symbol viewBox="0 0 11 9" id="svg-triangle"><path d="M5.5 9L0.73686 0.75L10.2631 0.750001L5.5 9Z"/></symbol></svg>