<svg width="58" height="51" viewBox="0 0 58 51" fill="none" xmlns="http://www.w3.org/2000/svg">
<path d="M20.8519 47.319L20.853 47.3186L27.0566 44.8381V9.17087H11.0896C10.8639 9.17087 10.634 9.20548 10.3874 9.25084C10.3492 9.25786 10.3087 9.26557 10.2667 9.27358C10.0678 9.31147 9.83276 9.35624 9.63019 9.36818C9.38959 9.38236 8.98352 9.36831 8.67469 9.0509C8.37699 8.74493 8.33418 8.324 8.35091 7.96938L20.8519 47.319ZM20.8519 47.319C20.0645 47.6355 19.6769 48.5307 19.9948 49.3222C20.2366 49.9279 20.8167 50.2916 21.4258 50.2916C21.6144 50.2916 21.8099 50.257 21.9997 50.18C22.0004 50.1797 22.0011 50.1795 22.0018 50.1792L28.5979 47.5416L35.194 50.1792C35.1948 50.1795 35.1956 50.1798 35.1963 50.1801C35.3853 50.2567 35.5784 50.2916 35.77 50.2916C36.3782 50.2916 36.9594 49.927 37.2011 49.3218C37.5186 48.5312 37.1314 47.6344 36.3425 47.3187L36.3423 47.3186M20.8519 47.319L36.3423 47.3186M36.3423 47.3186L30.1391 44.8381V9.17087H45.8616H45.8639L45.8682 9.1709L45.8915 9.17086C45.9109 9.17075 45.9379 9.17043 45.9714 9.16962C46.0382 9.168 46.1318 9.16441 46.2434 9.15651C46.4638 9.14092 46.7676 9.10769 47.0796 9.03479C47.382 8.96414 47.7451 8.84445 48.0465 8.62675C48.3665 8.39556 48.6495 8.02386 48.6495 7.5C48.6495 7.15208 48.5611 6.7771 48.2978 6.48227M36.3423 47.3186L48.2978 6.48227M48.2978 6.48227C48.0241 6.1758 47.6446 6.04853 47.256 6.04853M48.2978 6.48227L47.256 6.04853M47.256 6.04853L30.1395 6.04799M47.256 6.04853L30.1395 6.04799M30.1395 6.04799V2.89078C30.1395 2.03965 29.4498 1.35 28.5987 1.35C27.7476 1.35 27.0579 2.03965 27.0579 2.89078V6.04797H27.0418H27.0231H27.0042H26.9851H26.9658H26.9462H26.9264H26.9063H26.8861H26.8656H26.8448H26.8239H26.8027H26.7813H26.7597H26.7379H26.7158H26.6935H26.6711H26.6483H26.6254H26.6023H26.5789H26.5553H26.5316H26.5076H26.4834H26.4589H26.4343H26.4095H26.3844H26.3592H26.3338H26.3081H26.2823H26.2562H26.2299H26.2035H26.1768H26.15H26.1229H26.0957H26.0682H26.0406H26.0128H25.9848H25.9566H25.9282H25.8996H25.8708H25.8418H25.8127H25.7833H25.7538H25.7241H25.6942H25.6642H25.6339H25.6035H25.5729H25.5421H25.5112H25.48H25.4487H25.4172H25.3856H25.3538H25.3218H25.2896H25.2573H25.2248H25.1921H25.1593H25.1263H25.0931H25.0598H25.0263H24.9927H24.9589H24.9249H24.8908H24.8565H24.8221H24.7875H24.7528H24.7179H24.6828H24.6476H24.6123H24.5768H24.5411H24.5053H24.4694H24.4333H24.3971H24.3607H24.3242H24.2876H24.2508H24.2139H24.1768H24.1396H24.1022H24.0648H24.0271H23.9894H23.9515H23.9135H23.8754H23.8371H23.7987H23.7602H23.7215H23.6828H23.6439H23.6048H23.5657H23.5264H23.487H23.4475H23.4079H23.3682H23.3283H23.2883H23.2482H23.208H23.1677H23.1273H23.0867H23.0461H23.0053H22.9645H22.9235H22.8824H22.8412H22.7999H22.7585H22.717H22.6754H22.6337H22.592H22.5501H22.5081H22.466H22.4238H22.3815H22.3392H22.2967H22.2541H22.2115H22.1688H22.126H22.083H22.0401H21.997H21.9538H21.9106H21.8672H21.8238H21.7803H21.7368H21.6931H21.6494H21.6056H21.5617H21.5178H21.4737H21.4296H21.3855H21.3412H21.2969H21.2525H21.2081H21.1636H21.119H21.0743H21.0296H20.9848H20.94H20.8951H20.8502H20.8051H20.7601H20.7149H20.6698H20.6245H20.5792H20.5339H20.4885H20.443H20.3975H20.352H20.3064H20.2607H20.215H20.1693H20.1235H20.0777H20.0318H19.9859H19.9399H19.8939H19.8479H19.8019H19.7557H19.7096H19.6634H19.6172H19.571H19.5247H19.4784H19.4321H19.3857H19.3393H19.2929H19.2465H19.2H19.1535H19.107H19.0605H19.0139H18.9673H18.9208H18.8741H18.8275H18.7809H18.7342H18.6875H18.6408H18.5941H18.5474H18.5007H18.454H18.4073H18.3605H18.3138H18.267H18.2202H18.1735H18.1267H18.0799H18.0332H17.9864H17.9396H17.8929H17.8461H17.7994H17.7526H17.7059H17.6591H17.6124H17.5657H17.519H17.4723H17.4256H17.3789H17.3323H17.2856H17.239H17.1924H17.1458H17.0992H17.0527H17.0061H16.9596H16.9131H16.8667H16.8202H16.7738H16.7275H16.6811H16.6348H16.5885H16.5422H16.496H16.4498H16.4036H16.3575H16.3114H16.2653H16.2193H16.1733H16.1274H16.0815H16.0356H15.9898H15.944H15.8983H15.8526H15.807H15.7614H15.7158H15.6703H15.6249H15.5795H15.5342H15.4889H15.4436H15.3985H15.3533H15.3083H15.2633H15.2183H15.1734H15.1286H15.0839H15.0392H14.9945H14.95H14.9055H14.861H14.8167H14.7724H14.7281H14.684H14.6399H14.5959H14.5519H14.5081H14.4643H14.4206H14.3769H14.3334H14.2899H14.2465H14.2032H14.16H14.1168H14.0737H14.0308H13.9879H13.9451H13.9024H13.8597H13.8172H13.7748H13.7324H13.6901H13.648H13.6059H13.5639H13.5221H13.4803H13.4386H13.397H13.3556H13.3142H13.2729H13.2318H13.1907H13.1497H13.1089H13.0682H13.0275H12.987H12.9466H12.9063H12.8661H12.826H12.7861H12.7462H12.7065H12.6669H12.6274H12.5881H12.5488H12.5097H12.4707H12.4318H12.3931H12.3544H12.3159H12.2776H12.2393H12.2012H12.1632H12.1254H12.0876H12.0501H12.0126H11.9753H11.9381H11.9011H11.8642H11.8274H11.7908H11.7543H11.7179H11.6817H11.6457H11.6098H11.574H11.5384H11.5029H11.4676H11.4324H11.3974H11.3626H11.3279H11.2933H11.2589H11.2246H11.1906H11.1566H11.1228H11.0892H11.0558H11.0225H10.9894H10.9564H10.9236H10.891H10.8585H10.8262H10.7941H10.7621H10.7303H10.6987H10.6672H10.636H10.6049H10.5739H10.5432H10.5126H10.4822H10.452H10.422H10.3921H10.3625H10.333H10.3037H10.2746H10.2456H10.2169H10.1883H10.16H10.1318H10.1038H10.076H10.0484H10.021H9.99382H9.96681H9.93999C9.4044 6.04797 8.97666 6.29466 8.70643 6.703C8.46204 7.07229 8.37153 7.5324 8.35092 7.96936L30.1395 6.04799Z" fill="black" stroke="black" stroke-width="1.3"/>
<path d="M9.79423 8L17.5885 28.25C17.5885 28.25 15.2939 34 9.79395 34C3.79395 34 2 28.25 2 28.25L9.79423 8Z" stroke="black" stroke-width="4" stroke-linejoin="round"/>
<path d="M47.5882 8L55.3824 28.25C55.3824 28.25 53.0879 34 47.5879 34C41.5879 34 39.7939 28.25 39.7939 28.25L47.5882 8Z" stroke="black" stroke-width="4" stroke-linejoin="round"/>
</svg>
