<svg width="58" height="51" viewBox="0 0 58 51" fill="none" xmlns="http://www.w3.org/2000/svg">
<rect width="58" height="51" fill="#D0D0D0"/>
<g clip-path="url(#clip0_138_58)">
<rect width="1600" height="3450" transform="translate(-1053 -560)" fill="#F2F2F2"/>
<rect x="-37" y="-53" width="356" height="358" rx="34" fill="white"/>
<mask id="path-2-outside-1_138_58" maskUnits="userSpaceOnUse" x="6.9978" y="0" width="43" height="51" fill="black">
<rect fill="white" x="6.9978" width="43" height="51"/>
<path d="M47.9995 7.5C47.9995 7.00926 47.7498 6.69853 47.256 6.69853L29.4895 6.69797V2.89078C29.4895 2.39864 29.0908 2 28.5987 2C28.1065 2 27.7079 2.39864 27.7079 2.89078V6.69797C27.7079 6.69797 14.4998 6.69797 9.93999 6.69797C9.3129 6.69797 9.03633 7.23396 9.00019 8C8.94244 9.22367 9.93946 8.52087 11.0896 8.52087H27.7066V44.9731C27.7066 45.0733 27.7329 45.1657 27.7625 45.2559L21.0943 47.9221C20.6374 48.1058 20.4146 48.6242 20.5982 49.0805C20.7376 49.4305 21.0725 49.6416 21.4258 49.6416C21.5355 49.6416 21.648 49.6214 21.7566 49.5772L28.5979 46.8415L35.4391 49.5772C35.5478 49.6214 35.6581 49.6416 35.77 49.6416C36.1222 49.6416 36.4582 49.4299 36.5976 49.0805C36.7812 48.6248 36.5584 48.1052 36.1009 47.9221L29.4331 45.2559C29.4628 45.1668 29.4891 45.0739 29.4891 44.9731V8.52087H45.8639C45.8639 8.52087 47.9995 8.54375 47.9995 7.5Z"/>
</mask>
<path d="M47.9995 7.5C47.9995 7.00926 47.7498 6.69853 47.256 6.69853L29.4895 6.69797V2.89078C29.4895 2.39864 29.0908 2 28.5987 2C28.1065 2 27.7079 2.39864 27.7079 2.89078V6.69797C27.7079 6.69797 14.4998 6.69797 9.93999 6.69797C9.3129 6.69797 9.03633 7.23396 9.00019 8C8.94244 9.22367 9.93946 8.52087 11.0896 8.52087H27.7066V44.9731C27.7066 45.0733 27.7329 45.1657 27.7625 45.2559L21.0943 47.9221C20.6374 48.1058 20.4146 48.6242 20.5982 49.0805C20.7376 49.4305 21.0725 49.6416 21.4258 49.6416C21.5355 49.6416 21.648 49.6214 21.7566 49.5772L28.5979 46.8415L35.4391 49.5772C35.5478 49.6214 35.6581 49.6416 35.77 49.6416C36.1222 49.6416 36.4582 49.4299 36.5976 49.0805C36.7812 48.6248 36.5584 48.1052 36.1009 47.9221L29.4331 45.2559C29.4628 45.1668 29.4891 45.0739 29.4891 44.9731V8.52087H45.8639C45.8639 8.52087 47.9995 8.54375 47.9995 7.5Z" fill="black"/>
<path d="M47.9995 7.5C47.9995 7.00926 47.7498 6.69853 47.256 6.69853L29.4895 6.69797V2.89078C29.4895 2.39864 29.0908 2 28.5987 2C28.1065 2 27.7079 2.39864 27.7079 2.89078V6.69797C27.7079 6.69797 14.4998 6.69797 9.93999 6.69797C9.3129 6.69797 9.03633 7.23396 9.00019 8C8.94244 9.22367 9.93946 8.52087 11.0896 8.52087H27.7066V44.9731C27.7066 45.0733 27.7329 45.1657 27.7625 45.2559L21.0943 47.9221C20.6374 48.1058 20.4146 48.6242 20.5982 49.0805C20.7376 49.4305 21.0725 49.6416 21.4258 49.6416C21.5355 49.6416 21.648 49.6214 21.7566 49.5772L28.5979 46.8415L35.4391 49.5772C35.5478 49.6214 35.6581 49.6416 35.77 49.6416C36.1222 49.6416 36.4582 49.4299 36.5976 49.0805C36.7812 48.6248 36.5584 48.1052 36.1009 47.9221L29.4331 45.2559C29.4628 45.1668 29.4891 45.0739 29.4891 44.9731V8.52087H45.8639C45.8639 8.52087 47.9995 8.54375 47.9995 7.5Z" stroke="black" stroke-width="2.6" mask="url(#path-2-outside-1_138_58)"/>
<path d="M9.79423 8L17.5885 28.25C17.5885 28.25 15.2939 34 9.79395 34C3.79395 34 2 28.25 2 28.25L9.79423 8Z" stroke="black" stroke-width="4" stroke-linejoin="round"/>
<path d="M47.5882 8L55.3824 28.25C55.3824 28.25 53.0879 34 47.5879 34C41.5879 34 39.7939 28.25 39.7939 28.25L47.5882 8Z" stroke="black" stroke-width="4" stroke-linejoin="round"/>
</g>
<defs>
<clipPath id="clip0_138_58">
<rect width="1600" height="3450" fill="white" transform="translate(-1053 -560)"/>
</clipPath>
</defs>
</svg>
