<svg width="59" height="54" viewBox="0 0 59 54" fill="none" xmlns="http://www.w3.org/2000/svg">
<path d="M21.0049 52H20.2065L20.1775 51.9108L20.1768 51.9115C19.4935 51.7544 18.8706 51.4021 18.3833 50.8965C17.8968 50.3916 17.5674 49.7563 17.4354 49.0677C16.7705 45.7327 15.1325 42.6699 12.7276 40.2662C10.3233 37.8625 7.26089 36.225 3.92631 35.5614C2.81757 35.3433 1.87347 34.6211 1.37412 33.6075C0.873898 32.5932 0.875421 31.4051 1.37794 30.3922C1.88045 29.3794 2.82601 28.6595 3.93558 28.4445C7.26939 27.7787 10.3311 26.1397 12.7345 23.7345C15.1373 21.3292 16.7736 18.2664 17.4371 14.9314C17.6529 13.8218 18.3743 12.8769 19.3877 12.3758C20.4003 11.8747 21.5891 11.8747 22.6018 12.3758C23.6152 12.8768 24.3366 13.8217 24.5524 14.9314C25.2173 18.2671 26.8561 21.3313 29.2619 23.7368C31.6676 26.1413 34.7322 27.7787 38.0684 28.4415C39.1779 28.6581 40.1226 29.3796 40.6237 30.3924C41.1254 31.4059 41.1254 32.5948 40.6237 33.6077C40.1227 34.6204 39.1779 35.3419 38.0684 35.5585C34.733 36.2227 31.6692 37.8608 29.2648 40.2661C26.8598 42.6714 25.2226 45.7358 24.5585 49.0715C24.3991 49.8975 23.9576 50.641 23.3087 51.1756C22.6605 51.7102 21.8453 52.0023 21.0049 52ZM20.9935 14.1872V14.1879C20.3049 14.1895 19.7139 14.6783 19.582 15.354C18.8347 19.1146 16.9894 22.5685 14.2793 25.2797C11.5692 27.9917 8.11572 29.8388 4.35636 30.5877C3.68 30.7166 3.18967 31.3076 3.18739 31.997C3.18586 32.6864 3.67313 33.2798 4.34949 33.4125C8.10963 34.1606 11.5639 36.0069 14.2755 38.7189C16.9864 41.4301 18.8333 44.8848 19.5806 48.6462C19.7079 49.3241 20.3004 49.8153 20.9905 49.8122H21.05C21.718 49.7924 22.2815 49.3112 22.4058 48.6553C23.1516 44.8918 24.9976 41.434 27.7093 38.7197C30.4217 36.0063 33.8775 34.1584 37.6406 33.4095C38.3154 33.2776 38.8027 32.685 38.8027 31.9964C38.8027 31.3085 38.3154 30.7159 37.6406 30.5832C33.8805 29.8358 30.427 27.9903 27.7153 25.2799C25.0044 22.5695 23.1576 19.1156 22.4087 15.3558C22.276 14.6786 21.6828 14.1897 20.9935 14.1882V14.1872Z" fill="black" stroke="black" stroke-width="2"/>
<path d="M47.5026 22H47.0834L47.0682 21.9531L47.0678 21.9536C46.7091 21.8711 46.382 21.6861 46.1262 21.4206C45.8708 21.1556 45.6979 20.8221 45.6286 20.4605C45.2795 18.7097 44.4196 17.1017 43.157 15.8397C41.8948 14.5778 40.287 13.7181 38.5363 13.3697C37.9542 13.2552 37.4586 12.8761 37.1964 12.344C36.9338 11.8114 36.9346 11.1877 37.1984 10.6559C37.4622 10.1242 37.9587 9.74626 38.5412 9.63335C40.2914 9.28381 41.8988 8.42336 43.1606 7.16059C44.4221 5.89783 45.2811 4.28984 45.6295 2.53898C45.7428 1.95642 46.1215 1.4604 46.6535 1.19729C47.1852 0.934238 47.8093 0.934238 48.341 1.19729C48.873 1.46034 49.2517 1.9564 49.365 2.53898C49.7141 4.29025 50.5744 5.89895 51.8375 7.16182C53.1005 8.42418 54.7094 9.28383 56.4609 9.63181C57.0434 9.74552 57.5394 10.1243 57.8024 10.656C58.0659 11.1881 58.0659 11.8123 57.8024 12.344C57.5394 12.8757 57.0434 13.2545 56.4609 13.3682C54.7098 13.7169 53.1013 14.5769 51.839 15.8397C50.5764 17.1025 49.7168 18.7113 49.3682 20.4626C49.2845 20.8962 49.0527 21.2865 48.712 21.5672C48.3718 21.8478 47.9438 22.0012 47.5026 22ZM47.4966 2.14827V2.14867C47.1351 2.14947 46.8248 2.40612 46.7555 2.76086C46.3632 4.73517 45.3944 6.54845 43.9716 7.97184C42.5488 9.39563 40.7358 10.3654 38.7621 10.7585C38.407 10.8262 38.1496 11.1365 38.1484 11.4984C38.1476 11.8604 38.4034 12.1719 38.7585 12.2416C40.7326 12.6343 42.546 13.6036 43.9697 15.0274C45.3929 16.4508 46.3625 18.2645 46.7548 20.2392C46.8217 20.5952 47.1327 20.853 47.495 20.8514H47.5263C47.8769 20.841 48.1728 20.5884 48.238 20.244C48.6296 18.2682 49.5987 16.4529 51.0224 15.0278C52.4464 13.6033 54.2607 12.6332 56.2363 12.24C56.5906 12.1707 56.8464 11.8596 56.8464 11.4981C56.8464 11.137 56.5906 10.8259 56.2363 10.7562C54.2622 10.3638 52.4492 9.39492 51.0255 7.97195C49.6023 6.54897 48.6327 4.73569 48.2396 2.76179C48.1699 2.40625 47.8585 2.14961 47.4966 2.14881V2.14827Z" fill="black" stroke="black" stroke-width="2"/>
</svg>
