<svg width="58" height="58" viewBox="0 0 58 58" fill="none" xmlns="http://www.w3.org/2000/svg">
<g clip-path="url(#clip0_422_1727)">
<path d="M19.6286 8.37037C21.2363 6.7627 23.9395 7.79148 24.1531 9.97168L24.1666 10.2501V48.3333C24.1666 49.6681 23.0846 50.75 21.75 50.75C20.5106 50.75 19.4891 49.8171 19.3495 48.6152L19.3333 48.3333V15.501L13.7921 21.0422C12.8484 21.9859 11.3182 21.9859 10.3744 21.0422C9.50328 20.171 9.43627 18.8002 10.1734 17.8522L10.3744 17.6245L19.6286 8.37037ZM36.25 7.25C37.4893 7.25 38.5108 8.18294 38.6504 9.38483L38.6666 9.66667V42.499L44.2078 36.9578C45.1515 36.0141 46.6817 36.0141 47.6254 36.9578C48.4966 37.829 48.5636 39.1998 47.8265 40.1478L47.6254 40.3755L38.3713 49.6296C36.7635 51.2374 34.0605 50.2086 33.8468 48.0284L33.8333 47.75V9.66667C33.8333 8.33199 34.9152 7.25 36.25 7.25Z" fill="#171717"/>
</g>
<defs>
<clipPath id="clip0_422_1727">
<rect width="58" height="58" fill="white"/>
</clipPath>
</defs>
</svg>
