<svg width="34" height="20" viewBox="0 0 34 20" fill="none" xmlns="http://www.w3.org/2000/svg">
<path d="M33.3334 10C33.3334 15.4872 28.8718 20 23.3334 20C17.8462 20 13.3334 15.4872 13.3334 10C13.3334 4.51282 17.7949 0 23.2821 0C28.8718 0 33.3334 4.51282 33.3334 10Z" fill="#F9B50B"/>
<path d="M19.9487 10.0513C19.9487 9.33333 19.8462 8.61539 19.7436 7.94872H13.5897C13.641 7.58974 13.7436 7.28205 13.8462 6.8718H19.3333C19.2308 6.51282 19.0769 6.15385 18.9231 5.79487H14.2564C14.4103 5.4359 14.6154 5.12821 14.8205 4.71795H18.359C18.1538 4.35897 17.8974 4 17.5897 3.64103H15.641C15.9487 3.28205 16.2564 2.97436 16.6667 2.61538C14.9231 0.974359 12.5641 0 9.94872 0C4.51282 0.153846 0 4.51282 0 10C0 15.4872 4.46154 20 10 20C12.6154 20 14.9231 18.9744 16.7179 17.3846C17.0769 17.0769 17.3846 16.7179 17.7436 16.3077H15.6923C15.4359 16 15.1795 15.641 14.9744 15.2821H18.4615C18.6667 14.9744 18.8718 14.6154 19.0256 14.2051H14.359C14.2051 13.8974 14.0513 13.5385 13.9487 13.1282H19.4359C19.7436 12.2051 19.9487 11.1795 19.9487 10.0513Z" fill="#C8191C"/>
<path d="M13.5386 12.5646L13.6925 11.6415C13.6412 11.6415 13.5386 11.6928 13.4361 11.6928C13.0771 11.6928 13.0258 11.4877 13.0771 11.3851L13.3848 9.53898H13.9489L14.1027 8.51333H13.5899L13.6925 7.89795H12.6156C12.6156 7.89795 12.0002 11.3851 12.0002 11.7954C12.0002 12.4108 12.3592 12.7185 12.872 12.7185C13.1797 12.7185 13.4361 12.6159 13.5386 12.5646Z" fill="white"/>
<path d="M13.8972 10.8718C13.8972 12.359 14.9228 12.718 15.7433 12.718C16.5125 12.718 16.8715 12.5642 16.8715 12.5642L17.0766 11.5385C17.0766 11.5385 16.5125 11.7949 15.9484 11.7949C14.769 11.7949 14.9741 10.9231 14.9741 10.9231H17.1279C17.1279 10.9231 17.2818 10.2565 17.2818 9.94877C17.2818 9.2821 16.9228 8.4103 15.7433 8.4103C14.7177 8.35902 13.8972 9.53851 13.8972 10.8718ZM15.7433 9.33338C16.3074 9.33338 16.2048 10 16.2048 10.0513H15.0254C15.0766 10 15.1792 9.33338 15.7433 9.33338Z" fill="white"/>
<path d="M22.4613 12.5638L22.6665 11.3843C22.6665 11.3843 22.1537 11.6407 21.7434 11.6407C21.0255 11.6407 20.6665 11.0766 20.6665 10.4099C20.6665 9.12787 21.2819 8.4612 22.0511 8.4612C22.5639 8.4612 23.0255 8.76889 23.0255 8.76889L23.1793 7.64069C23.1793 7.64069 22.5639 7.38428 21.9485 7.38428C20.7178 7.38428 19.5383 8.4612 19.5383 10.4612C19.5383 11.7945 20.1537 12.6663 21.4357 12.6663C21.8972 12.7176 22.4613 12.5638 22.4613 12.5638Z" fill="white"/>
<path d="M7.74329 8.35938C7.02534 8.35938 6.46124 8.5645 6.46124 8.5645L6.30739 9.48758C6.30739 9.48758 6.76893 9.28245 7.48688 9.28245C7.84585 9.28245 8.15354 9.33373 8.15354 9.64143C8.15354 9.84655 8.10226 9.89784 8.10226 9.89784H7.64072C6.71765 9.89784 5.74329 10.2568 5.74329 11.4876C5.74329 12.4619 6.35867 12.6671 6.76893 12.6671C7.48688 12.6671 7.84585 12.2055 7.89713 12.2055L7.84585 12.6158H8.71765L9.1279 9.69271C9.1279 8.41066 8.10226 8.35938 7.74329 8.35938ZM7.94841 10.7183C7.94841 10.8722 7.84585 11.744 7.23047 11.744C6.92277 11.744 6.82021 11.4876 6.82021 11.3337C6.82021 11.0773 6.97406 10.7183 7.79457 10.7183C7.89713 10.7183 7.94841 10.7183 7.94841 10.7183Z" fill="white"/>
<path d="M10.1542 12.6671C10.4107 12.6671 11.744 12.7184 11.744 11.2825C11.744 9.94913 10.4619 10.2055 10.4619 9.69272C10.4619 9.43631 10.6671 9.33375 11.026 9.33375C11.1799 9.33375 11.744 9.38503 11.744 9.38503L11.8978 8.41067C11.8978 8.41067 11.5389 8.30811 10.8722 8.30811C10.103 8.30811 9.28245 8.6158 9.28245 9.69272C9.28245 10.9235 10.6158 10.8209 10.6158 11.2825C10.6158 11.5902 10.2568 11.6414 10.0004 11.6414C9.53886 11.6414 9.02604 11.4876 9.02604 11.4876L8.87219 12.462C8.97476 12.5645 9.28245 12.6671 10.1542 12.6671Z" fill="white"/>
<path d="M31.2817 7.53906L31.0766 8.97496C31.0766 8.97496 30.6664 8.46214 30.051 8.46214C29.0766 8.46214 28.2561 9.64163 28.2561 11.0262C28.2561 11.898 28.6664 12.7698 29.5894 12.7698C30.2048 12.7698 30.6151 12.3596 30.6151 12.3596L30.5638 12.7185H31.6407L32.41 7.64163L31.2817 7.53906ZM30.7689 10.3083C30.7689 10.8724 30.5125 11.6416 29.8971 11.6416C29.5382 11.6416 29.333 11.3339 29.333 10.7698C29.333 9.89804 29.692 9.38522 30.2048 9.38522C30.5638 9.4365 30.7689 9.69291 30.7689 10.3083Z" fill="white"/>
<path d="M1.94916 12.616L2.56455 8.82111L2.66711 12.616H3.38506L4.76968 8.82111L4.20557 12.616H5.33378L6.20557 7.53906H4.46198L3.38506 10.6673L3.33378 7.53906H1.79532L0.923523 12.616H1.94916Z" fill="white"/>
<path d="M18.3589 12.6158C18.6666 10.8722 18.7179 9.43627 19.4871 9.69268C19.5897 9.02602 19.7435 8.71832 19.8461 8.46191H19.641C19.1794 8.46191 18.7692 9.0773 18.7692 9.0773L18.8718 8.5132H17.8461L17.1794 12.6158H18.3589Z" fill="white"/>
<path d="M24.9226 8.35938C24.2047 8.35938 23.6406 8.5645 23.6406 8.5645L23.4867 9.48758C23.4867 9.48758 23.9482 9.28245 24.6662 9.28245C25.0252 9.28245 25.3329 9.33373 25.3329 9.64143C25.3329 9.84655 25.2816 9.89784 25.2816 9.89784H24.82C23.897 9.89784 22.9226 10.2568 22.9226 11.4876C22.9226 12.4619 23.538 12.6671 23.9482 12.6671C24.6662 12.6671 25.0252 12.2055 25.0765 12.2055L25.0252 12.6158H25.9995L26.4098 9.69271C26.4098 8.41066 25.2816 8.35938 24.9226 8.35938ZM25.179 10.7183C25.179 10.8722 25.0765 11.744 24.4611 11.744C24.1534 11.744 24.0508 11.4876 24.0508 11.3337C24.0508 11.0773 24.2047 10.7183 25.0252 10.7183C25.1277 10.7183 25.1277 10.7183 25.179 10.7183Z" fill="white"/>
<path d="M27.2311 12.6158C27.5388 10.8722 27.5901 9.43627 28.3593 9.69268C28.4619 9.02602 28.6157 8.71832 28.7183 8.46191H28.5132C28.0516 8.46191 27.6414 9.0773 27.6414 9.0773L27.7439 8.5132H26.7183L26.0516 12.6158H27.2311Z" fill="white"/>
</svg>
