<svg width="43" height="12" viewBox="0 0 43 12" fill="none" xmlns="http://www.w3.org/2000/svg">
<path fill-rule="evenodd" clip-rule="evenodd" d="M4.72768 0.360812C5.09719 0.358601 6.19535 0.259695 6.6605 1.82961C6.97384 2.88711 7.47297 4.61936 8.15788 7.02635H8.43682C9.17133 4.48874 9.6759 2.75649 9.95053 1.82961C10.4205 0.243342 11.5955 0.360843 12.0656 0.360843L15.6917 0.360848V11.6409H11.9958V4.99338H11.748L9.6877 11.6409H6.907L4.84671 4.98846H4.59887V11.6409H0.902954V0.360848L4.72768 0.360812ZM20.999 0.360848V7.01333H21.2938L23.8 1.54304C24.2865 0.454438 25.3234 0.360848 25.3234 0.360848H28.8999V11.6409H25.1268V4.98846H24.8319L22.3749 10.4587C21.8884 11.5424 20.8024 11.6409 20.8024 11.6409H17.2259V0.360848H20.999ZM41.9414 5.72122C41.4151 7.21265 39.7623 8.28078 37.9324 8.28078H33.9756V11.6409H30.3876V5.72122H41.9414Z" fill="#0F754E"/>
<path fill-rule="evenodd" clip-rule="evenodd" d="M38.1048 0.361328H30.1987C30.3869 2.87266 32.5496 5.02252 34.7884 5.02252H42.1901C42.6172 2.93531 41.1468 0.361328 38.1048 0.361328Z" fill="url(#paint0_linear_1364_73221)"/>
<defs>
<linearGradient id="paint0_linear_1364_73221" x1="42.2626" y1="3.29342" x2="30.1987" y2="3.29342" gradientUnits="userSpaceOnUse">
<stop stop-color="#1F5CD7"/>
<stop offset="1" stop-color="#02AEFF"/>
</linearGradient>
</defs>
</svg>
