<svg width="61" height="18" viewBox="0 0 61 18" fill="none" xmlns="http://www.w3.org/2000/svg">
<g clip-path="url(#clip0_1364_73206)">
<path d="M15.0042 3.87207C15.3973 4.38718 15.7302 4.9468 15.9959 5.5397L8.45733 11.1716L5.30676 9.17004V6.76209L8.45733 8.76363L15.0042 3.87207Z" fill="#21A038"/>
<path d="M2.09162 8.99993C2.09162 8.89188 2.09422 8.78455 2.09942 8.67783L0.190086 8.58301C0.183587 8.72132 0.17969 8.86096 0.17969 9.00188C0.178877 10.103 0.392587 11.1934 0.808564 12.2106C1.22454 13.2278 1.83459 14.1518 2.60372 14.9295L3.95806 13.5576C3.36601 12.96 2.89633 12.2497 2.57603 11.4675C2.25572 10.6854 2.0911 9.84675 2.09162 8.99993Z" fill="url(#paint0_linear_1364_73206)"/>
<path d="M8.45554 2.55012C8.56211 2.55012 8.668 2.55407 8.77329 2.55934L8.86882 0.623655C8.73195 0.617068 8.59416 0.613776 8.45554 0.613776C7.36852 0.612432 6.292 0.828705 5.28773 1.25018C4.28344 1.67165 3.37121 2.29002 2.60339 3.06978L3.95773 4.44234C4.54742 3.84212 5.24836 3.36596 6.02026 3.04122C6.79216 2.71649 7.61975 2.54959 8.45554 2.55012Z" fill="url(#paint1_linear_1364_73206)"/>
<path d="M8.45619 15.4501C8.34962 15.4501 8.24367 15.4501 8.13777 15.4416L8.04224 17.3766C8.17957 17.3836 8.31757 17.3872 8.45619 17.3872C9.54275 17.3883 10.6187 17.1719 11.6225 16.7503C12.6262 16.3287 13.5379 15.7102 14.3051 14.9305L12.9534 13.5586C12.3636 14.1585 11.6627 14.6344 10.891 14.959C10.1192 15.2836 9.29178 15.4505 8.45619 15.4501Z" fill="url(#paint2_linear_1364_73206)"/>
<path d="M12.0427 3.67588L13.6518 2.4739C12.1811 1.26695 10.3452 0.609931 8.45276 0.613294V2.5503C9.73425 2.54869 10.986 2.94117 12.0427 3.67588Z" fill="url(#paint3_linear_1364_73206)"/>
<path d="M16.7314 9.00004C16.7325 8.49615 16.689 7.99312 16.6014 7.49707L14.8201 8.82748C14.8201 8.88481 14.8201 8.9421 14.8201 9.00004C14.8206 9.90122 14.6342 10.7925 14.2731 11.6159C13.9119 12.4394 13.384 13.1768 12.7236 13.7803L14.0085 15.2194C14.867 14.4339 15.553 13.4744 16.0221 12.403C16.4912 11.3316 16.7329 10.1722 16.7314 9.00004Z" fill="#21A038"/>
<path d="M8.45587 15.4499C7.56659 15.4502 6.68715 15.2612 5.87449 14.8952C5.06186 14.5292 4.33412 13.9943 3.73842 13.3252L2.31909 14.6266C3.09404 15.4968 4.04081 16.1922 5.09801 16.6678C6.15521 17.1432 7.2992 17.3883 8.45587 17.3869V15.4499Z" fill="url(#paint4_linear_1364_73206)"/>
<path d="M4.18812 4.21985L2.90397 2.78076C2.04521 3.56608 1.35891 4.52557 0.889585 5.597C0.420268 6.66841 0.178408 7.82785 0.179693 9.00011H2.09163C2.09123 8.09898 2.27766 7.20775 2.63881 6.38426C2.99997 5.5608 3.52781 4.82339 4.18812 4.21985Z" fill="url(#paint5_linear_1364_73206)"/>
<path d="M28.2855 11.8996C27.7014 12.2166 27.047 12.3807 26.3829 12.3768C24.395 12.3768 22.9529 10.9548 22.9529 8.99666C22.9529 7.0385 24.395 5.61342 26.3829 5.61342C27.0997 5.60122 27.8017 5.81903 28.3863 6.23507L29.968 5.06794L29.861 4.99179C28.9384 4.17901 27.7056 3.74854 26.2945 3.74854C24.764 3.74854 23.3762 4.26448 22.3853 5.20315C21.8843 5.68645 21.4881 6.26804 21.2213 6.91163C20.9545 7.55522 20.8229 8.24697 20.8347 8.94379C20.8241 9.64768 20.9551 10.3465 21.22 10.9986C21.4848 11.6506 21.8779 12.2425 22.3761 12.7389C23.3715 13.7148 24.7563 14.2525 26.2759 14.2525C27.8637 14.2525 29.2516 13.6977 30.1913 12.6876L28.7755 11.6308L28.2855 11.8996Z" fill="#21A038"/>
<path d="M36.741 7.84605H33.9896V5.50136H38.3807L40.7473 3.74805H31.7296V14.252H36.45C39.0964 14.252 40.6153 13.0502 40.6153 10.9542C40.6153 8.94902 39.2396 7.84605 36.741 7.84605ZM36.3482 12.5035H33.9896V9.59297H36.3482C37.7796 9.59297 38.4507 10.0807 38.4507 11.0483C38.4507 12.0157 37.7366 12.5035 36.3482 12.5035Z" fill="#21A038"/>
<path d="M47.8436 5.49605L50.2115 3.74805H42.2865V14.252H50.2115V12.504H44.5478V9.81343H49.3792V8.06543H44.5478V5.49605H47.8436Z" fill="#21A038"/>
<path d="M56.0635 3.74805H51.7496V14.252H54.0107V11.2764H56.0635C58.8158 11.2764 60.5184 9.82529 60.5184 7.50662C60.5184 5.18802 58.8158 3.74805 56.0635 3.74805ZM56.0158 9.52708H54.0107V5.49739H56.0158C57.4635 5.49739 58.2625 6.21339 58.2625 7.51303C58.2625 8.81267 57.4635 9.52708 56.0158 9.52708Z" fill="#21A038"/>
</g>
<defs>
<linearGradient id="paint0_linear_1364_73206" x1="2.9904" y1="14.6878" x2="0.851298" y2="8.58619" gradientUnits="userSpaceOnUse">
<stop offset="0.14" stop-color="#F1E813"/>
<stop offset="0.3" stop-color="#E6E418"/>
<stop offset="0.58" stop-color="#C9DA26"/>
<stop offset="0.89" stop-color="#A2CC39"/>
</linearGradient>
<linearGradient id="paint1_linear_1364_73206" x1="3.14929" y1="3.41226" x2="8.54764" y2="1.38233" gradientUnits="userSpaceOnUse">
<stop offset="0.06" stop-color="#0FA7DF"/>
<stop offset="0.54" stop-color="#0098F8"/>
<stop offset="0.92" stop-color="#0290EA"/>
</linearGradient>
<linearGradient id="paint2_linear_1364_73206" x1="7.91619" y1="16.2181" x2="14.0081" y2="14.8601" gradientUnits="userSpaceOnUse">
<stop offset="0.12" stop-color="#A2CC39"/>
<stop offset="0.28" stop-color="#86C239"/>
<stop offset="0.87" stop-color="#219F38"/>
</linearGradient>
<linearGradient id="paint3_linear_1364_73206" x1="8.05507" y1="1.26204" x2="13.2686" y2="2.84955" gradientUnits="userSpaceOnUse">
<stop offset="0.06" stop-color="#0290EA"/>
<stop offset="0.79" stop-color="#0C89CA"/>
</linearGradient>
<linearGradient id="paint4_linear_1364_73206" x1="2.7987" y1="14.3908" x2="8.47879" y2="16.4855" gradientUnits="userSpaceOnUse">
<stop offset="0.13" stop-color="#F1E813"/>
<stop offset="0.3" stop-color="#EAE616"/>
<stop offset="0.53" stop-color="#D8DF1F"/>
<stop offset="0.8" stop-color="#BAD52D"/>
<stop offset="0.98" stop-color="#A2CC39"/>
</linearGradient>
<linearGradient id="paint5_linear_1364_73206" x1="0.891954" y1="9.23457" x2="3.21804" y2="3.26395" gradientUnits="userSpaceOnUse">
<stop offset="0.07" stop-color="#A2CC39"/>
<stop offset="0.26" stop-color="#81C45E"/>
<stop offset="0.92" stop-color="#0FA7DF"/>
</linearGradient>
<clipPath id="clip0_1364_73206">
<rect width="60.3387" height="16.7737" fill="white" transform="translate(0.179688 0.613281)"/>
</clipPath>
</defs>
</svg>
