<svg width="36" height="12" viewBox="0 0 36 12" fill="none" xmlns="http://www.w3.org/2000/svg">
<path d="M33.4361 0.769043H31.231C30.5643 0.769043 30.0515 0.974171 29.7438 1.64084L25.5387 11.2306H28.5131C28.5131 11.2306 29.0259 9.94853 29.1284 9.64084C29.4361 9.64084 32.3592 9.64084 32.7695 9.64084C32.872 9.99981 33.1284 11.1793 33.1284 11.1793H35.7951L33.4361 0.769043ZM29.949 7.48699C30.2054 6.87161 31.0772 4.56392 31.0772 4.56392C31.0772 4.6152 31.3336 3.94853 31.4361 3.58956L31.6413 4.51263C31.6413 4.51263 32.2054 7.02545 32.3079 7.53827H29.949V7.48699Z" fill="#3362AB"/>
<path d="M25.7439 7.79472C25.7439 9.94857 23.7952 11.3845 20.7696 11.3845C19.4875 11.3845 18.2568 11.1281 17.5901 10.8204L18.0003 8.46139L18.3593 8.61523C19.2824 9.02549 19.8978 9.17934 21.026 9.17934C21.8465 9.17934 22.7183 8.87164 22.7183 8.1537C22.7183 7.69216 22.3593 7.38447 21.2311 6.87164C20.1542 6.35882 18.7183 5.53831 18.7183 4.05113C18.7183 1.99985 20.7183 0.615234 23.5388 0.615234C24.6157 0.615234 25.5388 0.820363 26.1029 1.07677L25.6927 3.33318L25.4875 3.12806C24.9747 2.92293 24.308 2.7178 23.3337 2.7178C22.2568 2.76908 21.7439 3.23062 21.7439 3.64088C21.7439 4.10241 22.3593 4.46139 23.3337 4.92293C24.9747 5.69216 25.7439 6.56395 25.7439 7.79472Z" fill="#3362AB"/>
<path d="M0.717957 0.87212L0.769239 0.666992H5.17949C5.79488 0.666992 6.25642 0.87212 6.41026 1.53879L7.38462 6.15417C6.41026 3.69263 4.15385 1.69263 0.717957 0.87212Z" fill="#F9B50B"/>
<path d="M13.5897 0.769055L9.1282 11.1793H6.10255L3.53845 2.46136C5.38461 3.64085 6.92307 5.487 7.48717 6.76906L7.79486 7.84598L10.5641 0.717773H13.5897V0.769055Z" fill="#3362AB"/>
<path d="M14.7695 0.717773H17.59L15.7951 11.1793H12.9746L14.7695 0.717773Z" fill="#3362AB"/>
</svg>
