<svg width="125" height="43" viewBox="0 0 125 43" fill="none" xmlns="http://www.w3.org/2000/svg">
<path d="M103.57 1.0363C107.635 1.28602 111.715 1.02518 115.717 0.259728C118.186 -0.314261 120.639 0.259729 123.092 0.141555C125.011 0.0571445 125.061 2.08299 124.977 3.34914C124.86 5.57757 124.977 7.80599 124.76 10.0175C124.477 12.7018 124.443 15.4029 124.377 18.0871C124.377 19.3027 124.01 20.0117 122.591 19.7754C117.357 19.1845 112.075 19.1845 106.841 19.7754C98.8159 20.5292 90.7526 20.7773 82.6974 20.5182C71.6186 19.8766 61.3072 23.0673 51.096 26.9333C45.0534 29.4542 38.7083 31.1571 32.2252 31.9979C27.7278 32.6707 23.3671 34.0731 19.311 36.1509L13.9718 38.5482C11.7242 39.2254 9.70772 40.5233 8.14876 42.296C7.39794 43.3764 6.61374 43.1738 6.38015 41.9583C5.34567 36.5223 2.22557 31.9811 0.206687 26.9502C-0.0602736 26.258 -0.193751 25.5659 0.60713 25.262C3.67717 24.0971 6.0965 21.7337 9.13318 20.5182C18.8346 16.388 28.8293 13.002 39.0327 10.3889C46.4857 8.90848 54.0369 7.9887 61.6243 7.63717C63.6155 7.42062 65.582 7.01363 67.4974 6.42167C74.1714 4.61529 81.0123 4.02442 87.6863 2.40374C92.9003 1.25525 98.2395 0.795602 103.57 1.0363ZM7.81506 40.4052C9.86732 38.0586 12.6871 37.434 15.2065 36.2184C21.6752 32.8353 28.6859 30.6404 35.9126 29.7357C38.6364 29.4437 41.3115 28.7968 43.8714 27.8112C52.3808 24.688 60.79 21.1934 69.8333 19.8766C72.9868 19.4039 76.0067 18.1884 79.2937 18.5767C85.7326 19.1254 92.2042 19.1592 98.6483 18.678C106.307 18.3573 113.932 17.1924 121.607 17.8339C122.808 17.9352 122.975 17.4456 123.025 16.5171C123.259 12.0771 123.509 7.65406 123.759 3.21408C123.759 2.48816 123.759 1.74535 122.792 1.77911C120.336 1.66101 117.875 1.7457 115.433 2.03234C112.737 2.48201 110.007 2.69664 107.274 2.67386C102.836 2.85956 98.348 2.26869 93.9265 2.99461C85.584 4.36206 77.3916 5.89833 69.1826 7.73847C66.7522 8.44694 64.2692 8.95507 61.7577 9.25785C49.3441 10.0513 37.0639 11.5032 25.3176 16.0107C17.8594 18.8806 10.0342 20.822 3.15994 25.2114C1.6416 26.1905 1.34127 26.8996 2.12547 28.5878C4.01087 32.4369 5.62932 36.421 7.81506 40.4052Z" fill="#111111"/>
</svg>
