<svg width="74" height="116" viewBox="0 0 74 116" fill="none" xmlns="http://www.w3.org/2000/svg">
<path d="M30.682 33.934C29.7795 34.4764 30.1683 35.3247 30.2377 36.0479C30.682 41.1935 31.2929 46.3114 31.4595 51.4709C31.4595 53.1815 31.4595 54.8921 31.4595 56.6027C31.4595 57.1451 31.4595 57.9934 30.7931 57.9934C29.9184 57.9934 30.557 57.2146 30.5432 56.8252C30.3509 50.558 29.8319 44.3052 28.9881 38.0922C28.9744 37.9256 28.9744 37.7582 28.9881 37.5916C28.8909 32.5294 29.1547 33.8367 24.7117 32.5711C23.3233 32.1956 22.0459 31.8479 20.7269 31.4585C19.4079 31.0691 18.8386 31.1943 18.9358 32.7797C19.2968 38.8015 19.5051 44.8511 19.8938 50.859C20.2826 56.8669 21.2823 62.9583 22.1709 68.9383C22.3096 69.8136 22.3096 70.7054 22.1709 71.5807C22.0042 72.6376 21.7404 73.6111 20.5741 73.8476C20.048 73.9183 19.5125 73.8459 19.0239 73.6379C18.5353 73.4299 18.1116 73.094 17.7973 72.6655C15.6452 70.4264 14.9093 67.5059 13.9652 64.7245C12.953 61.1566 11.6863 57.6662 10.1747 54.2802C10.0616 53.9714 9.99147 53.6485 9.96646 53.3206C10.7995 53.4736 11.0494 54.1689 11.3549 54.8087C13.1876 58.3828 14.0207 62.3185 15.5202 66.0178C16.1732 68.2577 17.2529 70.3499 18.6998 72.1787C19.1579 72.6655 19.6717 73.3191 20.3381 73.0966C21.0046 72.8741 21.0879 71.9284 21.0184 71.2191C20.5464 66.588 20.0049 61.9708 19.5328 57.3119C19.1996 54.002 18.8941 50.6782 18.6859 47.3544C18.3526 42.1531 18.1027 36.924 17.8806 31.7089C17.8806 30.8327 17.4224 30.5963 16.7282 30.3181C13.507 29.3307 10.2997 28.2599 7.00908 27.3281C5.73171 26.9804 5.8289 26.4798 6.41205 25.5897C7.80049 23.3367 8.1476 23.156 10.744 23.9487C12.549 24.491 14.3123 25.1725 16.0756 25.84C17.5474 26.4102 17.8528 26.2712 17.8667 24.6996C17.8034 19.419 18.1516 14.1414 18.908 8.91502C19.1459 6.79978 20.0617 4.81872 21.5183 3.26871C23.3233 1.44687 25.2393 1.79455 26.475 4.08923C27.11 5.69446 27.4624 7.39782 27.5164 9.12362C27.4689 9.76606 27.6456 10.4051 28.0162 10.9316C28.3238 8.82301 28.7502 6.73359 29.2936 4.67333C29.635 3.66401 30.1015 2.70155 30.682 1.80845C32.1537 -0.458415 34.3752 -0.611394 36.2358 1.44687C37.7632 3.4541 38.6445 5.87941 38.7627 8.40045C39.2764 12.0302 39.0543 15.7295 39.9429 19.3732C40.1928 16.5222 40.4289 13.6574 40.6788 10.8064C40.7163 9.02111 41.1932 7.27271 42.0672 5.71637C43.9694 2.75414 47.26 2.8654 49.0094 5.9806C49.8384 7.6197 50.3116 9.41602 50.3979 11.2514C50.8005 16.3832 51.0088 21.5427 51.7863 27.1195C52.3417 24.6579 52.425 22.5997 53.0359 20.6527C53.3227 19.6961 53.7484 18.7871 54.2994 17.9547C55.4934 16.0494 57.3123 16.0494 58.7702 17.8573C60.5196 19.999 60.7279 22.5023 60.9639 25.0473C61.2694 28.2738 61.2832 28.2877 64.1851 27.1056C66.6982 26.0904 69.1835 25.0195 71.7104 24.0599C72.2936 23.8513 73.0989 22.9056 73.6543 24.0599C74.2096 25.2142 74.1263 27.2168 73.1822 27.6202C70.1799 29.0493 67.1076 30.3257 63.9768 31.4446C62.5884 31.8479 61.4915 32.2512 62.0052 34.2261C63.5325 39.9419 62.9355 45.7968 62.9771 51.61C62.9771 57.9517 63.0604 64.2794 62.9771 70.6072C62.9771 74.4734 62.394 78.3396 62.3107 82.178C62.1441 89.7157 62.4634 97.2533 62.5467 104.791C62.5467 107.823 62.5467 110.868 62.5467 113.9C62.5467 114.234 62.5467 114.568 62.5467 114.902C62.5467 115.235 63.4909 115.819 62.4495 115.986C61.7692 116.098 61.4915 115.513 61.4776 114.902C61.4776 112.913 61.4776 110.91 61.3804 108.921C61.3804 101.481 61.2832 94.0408 61.1583 86.67C61.1583 83.4991 61.5193 80.3561 61.6998 77.1992C62.1024 70.2456 61.9219 63.2086 61.9219 56.2133C61.9219 51.7074 61.9219 47.2153 61.9219 42.7094C61.9121 39.7625 61.5863 36.8251 60.95 33.9479C60.8251 33.2804 60.6446 32.9744 59.867 33.183C57.6439 33.7924 55.4932 34.641 53.4524 35.7141C52.9943 35.9645 52.9526 36.1313 53.1748 36.6042C53.4523 37.2058 53.596 37.8606 53.596 38.5234C53.596 39.1861 53.4523 39.8409 53.1748 40.4426C52.8957 41.7458 52.9434 43.098 53.3136 44.3783C53.4802 45.8664 53.7996 47.3405 54.0217 48.8286C54.0217 49.218 54.3272 49.7882 53.6746 49.9133C53.022 50.0385 53.022 49.4683 52.8832 49.065C52.3127 46.6393 51.955 44.1684 51.8141 41.6803C51.6336 40.373 51.0782 39.9697 49.8703 40.0392C49.4359 40.1406 48.984 40.1394 48.5502 40.0356C48.1165 39.9318 47.7128 39.7283 47.3711 39.4412C46.9823 39.0518 46.5658 39.1909 46.1492 39.4412C45.7327 39.6916 45.5939 39.8167 45.3023 39.9697C41.7618 41.7637 41.8034 41.7498 42.2755 45.7551C42.6156 48.1743 42.7965 50.6133 42.817 53.0564C42.817 53.4458 42.817 53.8213 42.5393 54.0994C41.8312 53.9881 41.97 53.4179 41.9284 53.0564C41.0308 48.0868 40.3959 43.0732 40.0262 38.0366C40.0393 37.8046 40.0066 37.5723 39.9299 37.3529C39.8532 37.1336 39.7341 36.9316 39.5793 36.7585C39.4245 36.5853 39.2371 36.4445 39.0279 36.3441C38.8187 36.2436 38.5918 36.1855 38.3601 36.1731C35.751 35.7098 33.1966 34.9781 30.7375 33.9896C30.9222 33.8214 31.1511 33.7096 31.3972 33.6677C31.6433 33.6258 31.8962 33.6555 32.126 33.7532C35.2916 34.5181 38.4573 35.1439 41.6229 35.9366C42.1302 36.1043 42.669 36.1539 43.1983 36.0816C43.7276 36.0093 44.2335 35.817 44.6775 35.5194L26.3639 30.2764C22.3652 29.136 18.4221 27.8473 14.5344 26.4102C12.7433 25.7844 10.9523 25.2281 9.17505 24.6162C8.07818 24.2268 7.78661 25.1169 7.49504 25.7705C7.20346 26.4241 8.07818 26.4798 8.45306 26.7579C8.74479 26.912 9.0586 27.0199 9.38332 27.0778C15.9923 28.8996 22.4624 31.3473 29.2103 32.5433C29.5739 32.5812 29.915 32.7379 30.181 32.9893C30.447 33.2406 30.623 33.5726 30.682 33.934ZM28.9603 17.4401C28.7243 21.4176 29.4463 24.9917 29.599 28.5658C29.5707 29.1169 29.7531 29.6581 30.109 30.0792C30.465 30.5003 30.9678 30.7698 31.5151 30.8327C33.2784 31.2916 35.0695 31.695 36.7911 32.293C39.7346 33.3221 39.6652 33.6837 39.568 29.9705C39.332 23.4202 38.0824 16.9673 37.8741 10.4031C38.0152 7.48636 37.2434 4.59832 35.6665 2.14222C34.2781 0.348201 32.8896 0.320387 31.7233 2.22567C30.3565 4.47937 29.5604 7.03365 29.4046 9.666C29.0867 12.2448 28.9383 14.8418 28.9603 17.4401ZM40.6927 25.0056C40.6927 25.9513 40.6927 26.897 40.6927 27.787C40.6927 28.6771 40.8037 29.7897 40.7898 30.791C40.7898 32.5572 41.2758 33.7949 43.3585 33.8784C44.1825 33.992 44.9923 34.1924 45.7744 34.4764C47.6765 35.0049 49.1344 33.8367 50.5506 33.0022C51.5364 32.4181 50.9116 31.0552 50.8283 30.0539C50.3146 23.6844 49.4398 17.3567 49.2593 10.9594C49.2252 9.05835 48.6522 7.20622 47.6071 5.61902C47.4206 5.23453 47.1342 4.9075 46.7778 4.67231C46.4215 4.43712 46.0084 4.30248 45.5822 4.28256C45.1559 4.26263 44.7321 4.35816 44.3555 4.55908C43.9788 4.76 43.6632 5.0589 43.4418 5.42432C42.471 6.65297 41.8906 8.1451 41.7757 9.70772C41.3175 14.8534 40.7621 19.9156 40.6927 25.0195V25.0056ZM18.9497 20.3606C18.9497 22.0851 18.9497 23.7957 18.9497 25.5202C18.8816 25.9588 18.9893 26.4067 19.2494 26.7661C19.5094 27.1256 19.9007 27.3676 20.3381 27.4394C22.3652 27.9956 24.3785 28.5797 26.3917 29.1778C28.405 29.7758 28.3911 29.7758 28.2106 27.787C27.6691 21.8209 27.1831 15.8547 26.5722 9.91633C26.5728 8.19116 26.2769 6.47875 25.6975 4.85412C24.6978 2.75414 23.5176 2.61507 22.0459 4.47863C20.7863 6.1802 20.0005 8.18631 19.7689 10.2918C19.269 13.6156 19.1441 16.9951 18.9497 20.3606ZM41.6784 38.8571C41.6784 40.4287 41.9145 40.5677 43.3029 39.8167C45.0524 38.871 46.8018 37.9254 48.5373 36.938C53.508 34.1565 58.9784 32.4738 64.2545 30.3877C66.8231 29.3725 69.3223 28.1625 71.877 27.0917C72.724 26.744 72.724 26.1043 72.5435 25.4645C72.2797 24.5189 71.6271 25.1447 71.1551 25.3116C67.6701 26.7023 64.2129 28.093 60.7279 29.595C54.6743 32.293 48.7178 35.1578 42.4976 37.536C41.9006 37.7863 41.5674 38.1896 41.6784 38.8571ZM54.2994 20.903C55.4518 20.152 55.9794 18.3997 57.4928 19.6235C57.9979 20.1016 58.3425 20.7248 58.4793 21.4072C58.616 22.0897 58.5382 22.7978 58.2564 23.4341C57.4095 24.8248 56.146 24.9361 53.3691 23.8791C52.9478 26.2828 52.6972 28.7134 52.6194 31.1526C52.6194 31.8618 52.8693 32.0704 53.5219 31.7784C54.827 31.1943 56.146 30.6241 57.4511 30.0122C60.228 28.7049 60.228 28.691 59.9503 25.6036C59.9503 25.1586 59.9503 24.7136 59.9503 24.2129C59.9967 22.597 59.598 20.9996 58.7979 19.5957C58.1037 18.65 57.826 17.009 56.3265 17.2593C54.827 17.5096 54.6743 19.2063 54.2994 20.903Z" fill="#111111"/>
<path d="M9.94853 53.4228C8.9849 51.5283 7.76252 49.7709 6.315 48.199C5.66773 47.4927 4.80782 47.0062 3.85953 46.8096C2.86599 46.6846 2.44018 47.2959 2.15631 48.0878C1.87244 48.8797 2.52534 48.9353 3.0505 49.0881C3.83114 49.3104 4.01566 50.0051 4.12921 50.658C4.54082 53.1171 4.98082 55.5762 5.2363 58.0492C5.4492 60.1332 4.75372 61.064 2.68147 61.6475C1.70212 61.9254 1.94341 62.5367 2.07115 63.0368C2.6247 65.357 3.19244 67.6632 3.85953 69.9834C5.25049 74.7997 6.70296 79.6067 8.21693 84.4044C10.2396 91.0673 12.7781 97.5696 15.8104 103.855C16.9459 106.147 17.5278 108.662 18.8053 110.913C18.9756 111.218 19.1885 111.677 18.6917 111.927C18.1949 112.177 18.0104 111.732 17.8401 111.413C17.4539 110.795 17.117 110.15 16.8324 109.482C14.3201 102.535 10.7434 96.0191 8.62854 88.9197C6.34339 81.2646 3.87372 73.6373 1.5318 66.0099C-0.047397 60.9211 -0.411594 55.5452 0.467289 50.2968C0.68601 49.29 1.00941 48.3077 1.43245 47.3654C1.78524 46.7566 2.36609 46.3061 3.05215 46.109C3.73821 45.912 4.47567 45.9839 5.10856 46.3095C7.81951 47.5043 9.23886 49.8245 10.4595 52.3113C10.715 52.8393 10.3459 53.131 9.99111 53.4367L9.94853 53.4228ZM1.03503 55.5345H1.17696C1.17696 56.5904 1.17696 57.6463 1.17696 58.6883C1.17696 59.3551 1.27632 60.2304 2.26986 60.3138C3.26341 60.3971 3.80276 59.7858 3.98727 58.8411C4.48404 56.1458 3.41953 53.5895 3.24921 50.9637C3.20754 50.7098 3.07142 50.4799 2.86705 50.3184C2.66267 50.1568 2.40447 50.0749 2.14212 50.0884C1.47503 50.0884 1.50341 50.7692 1.46083 51.2415C1.33309 52.6864 1.19116 54.1174 1.03503 55.5345Z" fill="#111111"/>
</svg>
