<svg width="79" height="115" viewBox="0 0 79 115" fill="none" xmlns="http://www.w3.org/2000/svg">
<path d="M1.46287 63.6386C-0.80569 58.3227 -0.026727 52.9104 1.06656 47.5257C1.135 47.1276 1.29898 46.7523 1.54423 46.4326C1.78948 46.1129 2.10856 45.8585 2.47368 45.6915C2.8388 45.5245 3.2389 45.45 3.63914 45.4744C4.03937 45.4989 4.42761 45.6216 4.77005 45.8318C6.05066 46.4447 7.16903 47.3545 8.03365 48.4867C8.89827 49.6189 9.48454 50.9414 9.74449 52.3458C9.93582 53.3374 10.7148 53.902 11.0291 54.7834C12.6827 59.4658 14.4046 64.1207 16.1265 68.7755C16.6771 70.1904 17.6274 71.4114 18.8597 72.2873C19.502 72.7831 20.0487 72.6178 20.3903 71.7915C20.6041 71.2207 20.6653 70.6034 20.568 70.0012C20.076 65.7595 19.5021 61.5178 19.0374 57.2623C18.5728 53.0069 18.1764 48.8478 18.0125 44.6199C17.8348 40.1716 17.5478 35.7233 17.3701 31.275C17.3701 30.3661 16.7962 30.2008 16.1539 30.008C13.038 29.044 9.92215 28.0111 6.77896 27.1573C5.41236 26.7992 5.50802 26.2346 6.10932 25.3256C7.58526 23.1221 7.62626 23.1359 10.2091 23.9484C12.1589 24.4597 14.072 25.1039 15.9352 25.8765C17.0148 26.3723 17.3018 25.9591 17.3838 24.7885C17.4658 20.3402 17.4931 15.892 17.9851 11.4575C18.3131 8.59293 18.7914 5.78349 20.7183 3.51115C22.6452 1.23881 24.7225 1.80345 25.8568 4.32369C26.3058 5.61974 26.5681 6.97396 26.6357 8.34504C26.786 9.46055 27.0184 10.5761 27.2644 12.0772C27.579 9.10023 28.2019 6.16463 29.1229 3.31835C29.4124 2.50483 29.8427 1.74947 30.3939 1.08732C30.6487 0.762718 30.9703 0.497615 31.3365 0.310266C31.7028 0.122916 32.1049 0.0177695 32.5153 0.00206336C32.9258 -0.0136427 33.3347 0.0604651 33.714 0.219285C34.0932 0.378106 34.4338 0.617866 34.7124 0.92206C36.5327 2.85926 37.5832 5.40295 37.6642 8.0696C38.1152 11.9119 38.0605 15.8093 38.8805 19.6379C39.2358 16.1674 39.5911 12.752 39.9191 9.22643C40.019 7.90785 40.4314 6.63268 41.1217 5.50806C41.4255 4.89872 41.8943 4.3886 42.474 4.03681C43.0537 3.68501 43.7204 3.50595 44.3969 3.52036C45.0734 3.53478 45.732 3.74208 46.2964 4.11825C46.8608 4.49441 47.3078 5.02405 47.5858 5.64577C48.3501 7.04835 48.8156 8.59624 48.9524 10.1905C49.6083 15.4237 49.4717 20.7396 50.4146 25.9453C50.4395 26.2285 50.5658 26.4928 50.77 26.689C51.0023 25.3118 51.2209 23.9347 51.4669 22.5575C51.7208 20.8687 52.2764 19.2402 53.1068 17.7511C54.1455 15.9884 56.0724 16.0848 57.4116 17.641C59.4069 19.9546 59.4342 22.7365 59.7075 25.5184C59.9809 28.3003 60.0629 28.2728 62.5911 27.1573C65.4199 25.904 68.3172 24.7747 71.187 23.5766C71.761 23.3287 71.9797 23.3976 72.212 24.0724C73.0046 26.4824 72.7996 26.8267 70.5857 27.8872C67.6612 29.2643 64.6547 30.3661 61.6481 31.5091C60.7598 31.8534 60.2815 32.363 60.6232 33.3959C61.9898 38.6704 61.5798 44.0965 61.5935 49.4537C61.5652 50.2638 61.7147 51.0701 62.0312 51.8152C62.3478 52.5603 62.8236 53.2258 63.4247 53.7643C66.7729 56.9869 70.2577 60.058 73.8382 63.0189C75.2048 64.2033 76.8311 65.1949 78.348 66.2553C78.9493 66.6822 79.2227 66.9852 78.7853 67.839C78.3785 68.9139 77.8217 69.9248 77.1317 70.8413C76.5168 71.5023 75.9838 71.461 75.3415 70.8413C71.1597 66.8567 66.9642 62.895 62.7551 58.9563C62.5364 58.7497 62.1811 58.4742 61.9351 58.5293C61.4431 58.612 61.5935 59.1491 61.5798 59.4934C61.5798 63.0189 61.6891 66.5307 61.5798 70.0425C61.4295 74.174 61.2108 78.2092 60.8692 82.2856C60.7692 85.1187 60.8194 87.9551 61.0195 90.7828C61.0833 95.4927 61.1334 100.198 61.1698 104.899C61.1698 107.736 61.1698 110.587 61.1698 113.424C61.2287 113.98 61.421 114.514 61.7301 114.98C60.3635 115.145 60.3635 114.264 60.3635 113.603C60.3635 110.6 60.3635 107.584 60.3635 104.582C60.2815 97.5034 60.1449 90.4109 60.1039 83.3323C60.1039 81.3078 60.3498 79.2007 60.5002 77.2451C60.9512 70.7311 60.6642 64.2171 60.6915 57.6892C60.6915 56.6288 59.8852 56.1606 59.3249 55.6097C55.7307 52.4284 51.9726 49.4124 48.5287 46.0797C47.1621 44.8127 46.5881 42.8295 45.6725 41.1631C45.6291 41.1082 45.5988 41.0439 45.5841 40.9753C45.5695 40.9066 45.5708 40.8355 45.588 40.7674C45.6052 40.6994 45.6379 40.6363 45.6834 40.5831C45.7288 40.5299 45.7859 40.488 45.8502 40.4608C46.1003 40.3866 46.3691 40.4112 46.6018 40.5296C47.4764 40.9979 48.3101 41.5074 49.1574 42.017C49.622 42.2924 50.1003 42.7193 50.647 42.3337C51.1936 41.9481 50.8656 41.4248 50.852 40.9566C50.8383 40.4883 50.6196 39.841 49.9773 39.7446C48.6107 39.5243 47.2441 39.9237 46.0962 38.877C44.7296 40.0752 42.707 39.7446 41.4361 41.0667C41.2227 41.3521 41.0783 41.6836 41.0143 42.035C40.9502 42.3864 40.9683 42.748 41.0671 43.0912L41.887 52.7314C41.887 53.0619 42.0374 53.3925 41.641 53.6128C41.2037 53.6128 41.1491 53.241 41.1081 52.9242C40.5341 47.746 39.3178 42.6367 39.1812 37.4172C39.1812 36.4532 38.7848 36.164 37.8145 35.9574C35.301 35.3174 32.8238 34.5405 30.3939 33.63C34.931 33.63 39.1675 36.2191 43.7593 35.5856V35.0347C38.6345 33.6575 33.4687 32.4456 28.3986 30.9032C22.1123 28.9614 15.9079 26.7717 9.67616 24.6095C8.6922 24.279 7.76292 23.8107 7.06595 25.1741C6.73796 25.8489 6.71063 26.1244 7.43493 26.3585C9.60783 27.0609 11.7534 27.8458 13.94 28.4931C17.6981 29.6086 21.4836 30.5864 25.2281 31.7433C26.5947 32.1702 28.5626 31.5642 29.3279 32.9414C29.9019 34.0431 29.3279 35.6958 29.5056 37.0729C29.9156 41.7691 30.5169 46.4515 30.5715 51.1752C30.5715 52.8691 30.5715 54.5768 30.5715 56.2708C30.5715 56.7115 30.5715 57.2899 29.9019 57.4964C29.5329 54.3978 29.7516 51.3129 29.5466 48.2418C29.2323 43.5319 28.303 38.8633 28.262 34.1258C28.2815 33.8188 28.1831 33.5161 27.9872 33.2803C27.7913 33.0444 27.5129 32.8935 27.2097 32.8588C24.537 32.3977 21.9014 31.7395 19.3244 30.8894C18.2584 30.6002 18.2174 31.0409 18.2584 31.8259C18.6001 38.0783 18.9144 44.3306 19.2834 50.5693C19.7239 56.5712 20.4674 62.5467 21.511 68.4725C21.6291 69.728 21.5085 70.9947 21.1556 72.2047C20.9096 73.4441 19.4611 73.7609 18.1901 72.8795C16.9745 71.9283 16.0313 70.6689 15.4569 69.23C14.2583 66.4097 13.2359 63.5165 12.3957 60.5675C11.2162 56.1675 9.29805 52.0034 6.7243 48.2556C6.12975 47.5155 5.37156 46.926 4.5104 46.5341C3.45811 46.0246 2.51515 46.0797 1.98218 47.4017C1.73619 48.049 1.65419 48.4622 2.47416 48.5723C2.82723 48.6007 3.15872 48.7549 3.40917 49.0073C3.65962 49.2597 3.81264 49.5937 3.84076 49.9495C4.20974 52.4284 4.64706 54.9074 4.90671 57.3863C5.12537 59.5071 4.45573 60.3747 2.2965 60.9532C1.17588 61.2561 1.85919 62.0136 1.77719 62.5507C1.69519 63.0878 2.13251 63.4321 1.4492 63.6249L1.46287 63.6386ZM52.7652 22.103C51.3986 24.9813 51.7676 28.0937 51.4806 31.1098C51.3986 31.9774 52.0409 31.757 52.4782 31.5642C54.5281 30.6553 56.578 29.705 58.5869 28.8099C58.9696 28.6446 59.2976 28.4105 59.2019 27.9698C58.6006 24.6646 59.2019 21.0839 56.9333 18.1505C56.455 17.517 55.9767 16.8973 55.1157 16.9662C54.2548 17.035 53.7492 17.8889 53.5442 18.6601C53.2025 19.8169 52.9975 21.0151 52.7379 22.1857L52.7652 22.103ZM28.1663 17.0075C28.1479 20.9018 28.3762 24.7933 28.8496 28.6584C28.8284 29.1085 28.9751 29.5504 29.2609 29.897C29.5467 30.2436 29.9509 30.4699 30.3939 30.5313C32.8329 31.0752 35.2305 31.7932 37.5686 32.6797C38.5252 32.9965 38.9352 32.6797 38.8532 31.6882C38.7575 29.829 38.6892 27.9698 38.5388 26.1795C38.1152 20.8773 37.1722 15.6165 37.0629 10.2869C36.9672 7.28461 36.7076 4.24105 34.644 1.76214C34.4704 1.4773 34.2273 1.24207 33.9378 1.07889C33.6483 0.915703 33.3221 0.830022 32.9904 0.830022C32.6587 0.830022 32.3326 0.915703 32.0431 1.07889C31.7536 1.24207 31.5104 1.4773 31.3368 1.76214C30.5909 2.63408 30.0408 3.65822 29.7243 4.76438C28.262 8.67556 28.2893 12.8484 28.1527 17.0075H28.1663ZM39.7961 25.2705C39.7381 26.9617 39.7929 28.6548 39.9601 30.3385C40.0694 33.0929 40.0831 33.0929 42.83 33.7677C43.2931 33.8493 43.7498 33.9643 44.1966 34.112C46.2875 34.9521 47.8591 33.6162 49.5673 32.8725C49.95 32.7073 50.0047 32.3079 49.9637 31.881C49.8543 30.5038 49.8407 29.1266 49.6903 27.7494C49.1027 22.4611 48.5834 17.159 48.3237 11.8155C48.3922 9.54053 47.7518 7.30107 46.4925 5.41165C46.2874 5.07653 46.0043 4.79681 45.6678 4.59668C45.3314 4.39655 44.9516 4.28204 44.5613 4.26306C44.171 4.24407 43.7821 4.32118 43.428 4.48772C43.074 4.65425 42.7655 4.9052 42.5293 5.21885C41.699 6.17465 41.1583 7.35046 40.9714 8.6067C40.2469 14.1187 39.8499 19.6695 39.7825 25.2292L39.7961 25.2705ZM18.3131 22.9982C18.3474 23.4336 18.3474 23.8711 18.3131 24.3065C18.1953 24.6716 18.1623 25.059 18.2166 25.4389C18.2709 25.8189 18.4111 26.1812 18.6263 26.4979C18.8416 26.8146 19.1261 27.0772 19.458 27.2656C19.7899 27.4539 20.1603 27.5629 20.5407 27.5842C22.2763 28.0111 24.0118 28.4931 25.7201 29.044C27.4284 29.5949 27.606 29.7188 27.524 27.8183C27.2234 21.1803 26.4581 14.5836 25.7474 7.98697C25.6464 6.77328 25.3702 5.58093 24.9275 4.44763C24.1622 2.60221 22.9186 2.43695 21.5929 3.9243C20.2584 5.4832 19.3952 7.39494 19.1057 9.43301C18.5622 13.9338 18.2975 18.4643 18.3131 22.9982ZM60.6778 43.8073C60.8587 40.4062 60.5782 36.996 59.8442 33.6713C59.6392 32.8175 59.4616 32.2941 58.3409 32.7486C57.2203 33.2031 55.7444 33.4923 54.4871 34.0018C53.5741 34.3342 52.7373 34.8495 52.0272 35.5167C51.5626 35.9987 52.4099 36.646 52.4235 37.307C52.4178 38.1017 52.2934 38.8909 52.0546 39.6482C51.7519 40.3536 51.6554 41.1314 51.7765 41.8902C51.8975 42.6489 52.2311 43.357 52.7379 43.9313C54.8698 46.0797 57.6303 47.5395 59.5709 49.9908C59.6667 50.1287 59.8009 50.235 59.9565 50.2962C60.1122 50.3575 60.2823 50.371 60.4455 50.3351C60.8555 50.225 60.7462 49.8118 60.7872 49.5088C60.8522 47.5985 60.8157 45.6861 60.6778 43.7798V43.8073ZM45.7409 37.6651C47.3544 36.6513 49.0244 35.7317 50.7426 34.9108C55.5121 32.9414 60.3089 31.1373 65.1603 29.223C66.9779 28.4931 68.7271 27.598 70.5311 26.8267C70.7023 26.7747 70.8604 26.686 70.9945 26.5668C71.1287 26.4476 71.2357 26.3006 71.3084 26.1359C71.381 25.9712 71.4175 25.7926 71.4155 25.6124C71.4134 25.4321 71.3728 25.2545 71.2963 25.0915C70.9684 24.1412 70.3534 24.7885 69.8204 24.8987C69.1058 25.1528 68.4114 25.4612 67.7432 25.8214C60.5958 28.3003 53.9951 32.06 46.9435 34.773C46.6469 34.8413 46.3707 34.9798 46.1378 35.1771C45.9049 35.3744 45.7221 35.6248 45.6046 35.9076C45.487 36.1904 45.438 36.4973 45.4617 36.803C45.4854 37.1086 45.5811 37.4042 45.7409 37.6651ZM1.01189 55.2379C1.01189 56.2294 0.929895 57.2072 1.01189 58.185C1.09389 59.1628 1.18955 59.8652 2.3785 59.7688C3.56744 59.6724 3.7451 58.9012 3.84076 57.9647C3.90232 56.9253 3.81952 55.8823 3.59477 54.866C3.32145 53.3098 3.13013 51.7536 2.87047 50.1974C2.87047 49.7567 2.61082 49.3298 2.07784 49.2747C1.54487 49.2196 1.54487 49.8807 1.4492 50.2112C1.01052 51.8477 0.862472 53.5494 1.01189 55.2379Z" fill="#111111"/>
<path d="M1.0462 63.014C2.22425 63.4885 2.01636 64.6888 2.29355 65.582C3.67949 70.0342 4.85754 74.5282 6.17419 78.9944C7.24136 82.6091 8.26696 86.2658 9.55589 89.8108C11.081 94.3286 12.8816 98.7473 14.9472 103.042C16.1391 105.359 16.6519 107.968 17.8993 110.285C18.0379 110.536 18.0794 110.83 17.7191 110.969C17.3587 111.109 17.1509 110.746 16.9845 110.467C16.0625 108.58 15.2617 106.636 14.5869 104.647C12.286 99.6502 10.2731 94.5242 8.55801 89.2944C6.90874 83.614 5.05157 77.9895 3.31914 72.3231C2.54301 69.769 1.9332 67.187 1.12936 64.6329C0.956881 64.1025 0.956881 63.5305 1.12936 63L1.0462 63.014Z" fill="#111111"/>
</svg>
