<svg width="121" height="91" viewBox="0 0 121 91" fill="none" xmlns="http://www.w3.org/2000/svg">
<path d="M11.9527 42.2197C12.3236 42.4218 12.6075 42.7529 12.7506 43.1503C12.8937 43.5477 12.8859 43.9838 12.7289 44.3759C12.1252 47.3082 12.8496 50.2751 12.4184 53.2074C12.2459 54.3286 13.0566 54.0181 13.6086 53.9664C16.7652 53.6731 19.9218 53.4662 23.0784 53.0694C28.2531 52.414 33.4278 52.8624 38.6025 52.4312C44.0924 51.9987 49.5346 51.0926 54.8685 49.7231C59.7745 48.6567 64.7313 47.8392 69.7199 47.2737C72.2042 46.7117 74.7453 46.4396 77.2923 46.463C78.3962 46.5665 78.5515 46.0145 78.4652 45.1003C78.2237 42.4322 78.2237 39.7477 78.4652 37.0795C78.5687 35.8721 78.31 35.1476 76.7403 35.3546C70.368 35.9446 64.0336 36.889 57.7663 38.1835C52.9111 39.1579 47.9845 39.7348 43.0356 39.9084C35.308 40.4776 27.5114 38.8217 19.8355 40.6846C18.2987 41.0618 16.7935 41.5577 15.3335 42.168C14.954 42.3232 14.54 42.9442 14.1261 42.2887C13.7121 41.6333 14.2813 41.3055 14.7643 41.0296C17.5607 39.6788 20.5981 38.8989 23.6993 38.7354C27.1927 38.4307 30.7038 38.3846 34.204 38.5974C40.3059 38.9365 46.4264 38.6533 52.4708 37.7522C60.6124 36.4758 68.6677 34.8544 76.861 33.8712C85.4856 32.8535 93.9377 31.646 102.476 30.6111C107.305 29.9037 112.234 30.3711 116.844 31.9738C118.119 32.5039 119.348 33.1385 120.519 33.8712C121.208 34.2507 121.019 34.9234 120.794 35.5098C119.836 37.8584 119.299 40.3575 119.208 42.8925C119.208 45.1693 118.052 46.0663 115.758 46.1008C113.208 46.1641 110.661 45.8857 108.185 45.2728C106.102 44.8092 103.994 44.4636 101.872 44.2379C98.8731 43.9127 95.8391 44.2002 92.9544 45.0831C88.6594 46.1525 84.4679 48.0499 79.9831 47.8085C74.4634 47.5152 69.2369 49.1194 63.8552 49.5334C58.0078 49.9818 52.5053 52 46.7614 52.8797C39.8264 53.9256 32.8159 54.3872 25.8037 54.2596C21.3362 54.1734 16.8859 54.9323 12.4184 55.0876C10.5555 55.0876 10.4865 54.6046 11.142 53.3627C11.4694 52.6022 11.6056 51.7731 11.5387 50.9478C11.4046 48.0319 11.5432 45.1099 11.9527 42.2197ZM114.947 44.7899C117.155 44.7899 118.224 43.9447 118.259 41.685C118.215 39.9179 118.519 38.1594 119.156 36.5103C119.313 36.2633 119.407 35.9821 119.431 35.6906C119.456 35.3992 119.409 35.1061 119.296 34.8366C119.182 34.5671 119.005 34.329 118.779 34.1429C118.554 33.9568 118.286 33.828 118 33.7677C113.924 31.8966 109.425 31.135 104.96 31.5598C98.0602 32.405 91.1605 33.2847 84.1229 34.1299C82.398 34.3369 81.2251 34.9061 81.2596 36.9933C81.4052 39.8068 81.1673 42.627 80.5524 45.3763C80.2764 46.4803 80.8801 46.532 81.6908 46.3595C83.4157 46.0145 85.1406 45.7903 86.7448 45.3073C92.782 43.5824 98.8192 41.8575 105.201 43.3582C108.4 44.1271 111.662 44.6063 114.947 44.7899Z" fill="#111111"/>
<path d="M35.068 9.80961C35.3275 9.26441 35.5021 8.68271 35.5855 8.0847C35.7326 6.80558 36.2917 5.609 37.1785 4.67554C38.0652 3.74207 39.2316 3.12237 40.5015 2.90997C41.8069 2.55444 43.188 2.59054 44.473 3.01377C45.758 3.437 46.8902 4.22868 47.7289 5.29035C47.9014 5.51459 48.2119 5.73882 48.2119 5.96306C48.2119 9.74061 51.3512 8.72292 53.3866 9.27489C58.8718 10.8273 64.3915 12.604 68.0483 17.0887C70.7808 20.2813 72.7719 24.0397 73.8785 28.0937C73.9651 28.2773 74.0121 28.4771 74.0165 28.6801C73.913 29.5771 75.4137 30.3015 74.534 31.0605C73.6543 31.8195 72.5676 31.509 71.5326 31.4572L69.7042 31.302C69.2385 31.302 68.8245 31.095 68.928 30.5775C69.6352 27.1277 67.4446 24.9716 65.4782 22.7637C60.7174 17.589 54.5078 15.6916 46.8319 15.2258C41.8124 15.8295 35.9477 16.5368 30.7903 19.8313C26.7131 22.1193 23.0176 25.0291 19.8371 28.4559C18.4847 30.1756 17.3761 32.0736 16.5425 34.0963C16.5425 34.2861 16.5425 34.5103 16.3873 34.7001C16.1113 35.3555 17.7844 36.218 16.3873 36.425C14.7718 36.8309 13.0657 36.6664 11.5575 35.9592C11.0228 35.6833 11.3333 35.1313 11.4023 34.6656C12.1693 29.8796 14.4127 25.453 17.8189 22.0047C21.2688 18.2789 24.7186 14.3634 29.7381 12.3625C30.7187 11.8788 31.7559 11.5195 32.8256 11.293C33.2931 11.2512 33.7429 11.0937 34.1343 10.8348C34.5258 10.5758 34.8467 10.2235 35.068 9.80961ZM36.0167 11.5345H35.6545C33.4773 12.1425 31.3495 12.9152 29.2896 13.8459C24.8221 15.8813 21.7517 19.5553 18.5089 22.9707C15.6918 25.9194 13.7198 29.5715 12.7994 33.5444C12.6615 34.1653 12.1785 34.9415 13.2824 35.1658C14.3864 35.39 14.9038 35.321 15.2143 34.2171C16.8404 29.2861 20.0632 25.0375 24.3736 22.1427C30.628 17.1987 38.2806 14.3501 46.2455 14.0011C50.7433 13.9286 55.1926 14.9403 59.2168 16.9507C64.3915 19.6243 68.514 23.3674 70.2907 29.1286C70.6357 30.2498 71.4291 30.129 72.2571 30.0773C73.085 30.0256 72.8953 29.3528 72.8091 28.8526C71.9309 24.2933 69.7291 20.0937 66.4786 16.7782C62.2526 12.3625 56.3017 10.7928 50.3507 9.70611C49.7439 9.48322 49.0759 9.49397 48.4765 9.73626C47.8772 9.97855 47.3894 10.4351 47.1079 11.017C46.8151 11.4934 46.4109 11.8914 45.9302 12.1769C45.4494 12.4624 44.9064 12.6267 44.348 12.6557C42.2384 13.0762 40.0512 12.8538 38.0694 12.0175C37.4607 11.6539 36.7598 11.4742 36.0512 11.5" fill="#111111"/>
<path d="M26.1406 62.7114C26.2269 61.8662 26.8306 61.8316 27.4861 61.7627C34.1787 60.9692 40.8541 60.0377 47.5985 59.7963C57.5167 59.4513 67.3142 57.7609 77.2152 57.2951C86.0812 56.8812 94.8265 55.2942 103.71 55.1562C106.625 55.1562 109.419 55.9842 112.334 56.036C113.645 56.036 113.766 57.2434 113.628 58.2093C113.369 60.1067 112.973 61.9869 112.628 63.867C111.61 63.6773 111.8 62.8666 111.869 62.1421C111.989 60.9174 112.214 59.71 112.421 58.4853C112.524 57.8644 112.714 57.0192 111.8 57.1054C108.798 57.3469 105.969 56.2429 102.985 56.2947C100.881 56.2947 99.8288 56.7604 100.312 59.0201C100.373 59.2063 100.365 59.4085 100.289 59.5893C100.213 59.7701 100.074 59.9172 99.8978 60.0032C99.1388 59.6928 99.3113 58.9338 99.3285 58.2783C99.3285 57.1054 99.0008 56.3637 97.6036 56.5534C96.5859 56.7259 95.3958 56.7604 95.8787 58.2783C95.904 58.4152 95.904 58.5555 95.8787 58.6923C95.7407 59.3478 96.172 60.5207 95.137 60.4172C94.1021 60.3137 94.6368 59.2615 94.6885 58.6923C94.8438 57.2261 94.1021 56.8122 92.8601 56.9674C86.3572 57.8989 87.0644 56.0532 87.6854 62.7459C87.9614 65.1355 87.9614 67.549 87.6854 69.9387C87.6854 70.5079 87.5819 71.3704 86.7022 71.1979C85.8225 71.0254 86.34 70.301 86.3572 69.8007C86.4551 66.4355 86.3803 63.0675 86.133 59.71C86.0295 57.9851 85.2533 57.5884 83.7699 57.7781L80.4925 58.1403C79.2678 58.2611 78.0949 58.4163 78.2501 60.1067C78.2501 60.4172 78.2502 60.8312 77.7327 60.8312C77.663 60.8319 77.594 60.8176 77.5304 60.7891C77.4668 60.7606 77.4101 60.7187 77.3642 60.6663C77.3184 60.6139 77.2844 60.5521 77.2646 60.4853C77.2448 60.4185 77.2397 60.3482 77.2497 60.2792C77.6809 57.3124 75.5248 58.7268 74.4036 58.6923C72.5235 58.6923 73.2824 60.1412 73.2307 61.1244C73.2307 61.4522 73.2307 61.8144 72.7649 62.0731C72.075 61.5212 72.3855 60.745 72.351 60.055C72.3165 59.365 72.351 58.8821 71.523 58.8648C70.695 58.8476 70.0741 58.8648 69.9188 59.7963C69.7636 60.7277 69.5738 62.1249 69.3669 63.6083C68.9985 63.2235 68.7427 62.7451 68.6271 62.2251C68.5116 61.7051 68.5407 61.1633 68.7114 60.6587C68.9529 59.2098 68.3492 58.9338 67.1072 59.1925C65.5548 59.4513 63.9679 59.6065 62.3982 59.779C61.208 59.8998 60.6733 60.469 60.8803 61.6937C61.1735 64.281 61.415 66.8684 61.6048 69.473C61.6048 70.232 62.0187 71.1979 60.8286 71.8189C59.9316 69.473 60.4318 67.0236 59.9316 64.7295C59.8772 64.2184 59.8887 63.7024 59.9661 63.1943C60.1041 61.1072 59.3451 60.262 57.12 60.5725C54.8949 60.883 54.8949 60.7105 54.7051 64.7295C53.4114 64.4535 53.7219 63.3496 53.6184 62.5734C53.4632 61.4522 53.1527 60.8485 51.8935 60.9692C50.6343 61.0899 50.1686 61.3314 50.1686 62.6941C50.1686 63.3496 50.6516 64.5743 49.7374 64.626C48.8232 64.6778 48.8749 63.2806 48.8749 62.5734C48.8749 60.2275 47.15 61.5729 46.1496 61.2452C45.1491 60.9174 44.7179 61.5384 44.7697 62.6251C44.6857 63.7874 44.8084 64.9554 45.1319 66.0749C44.8252 66.0133 44.5346 65.8887 44.2785 65.709C44.0225 65.5292 43.8065 65.2983 43.6444 65.0307C43.4822 64.7632 43.3774 64.4649 43.3365 64.1547C43.2957 63.8445 43.3197 63.5292 43.407 63.2288C43.5795 61.9524 43.131 61.5039 41.8373 61.5039C40.5436 61.5039 39.8709 61.7454 40.1124 63.2288C40.3548 64.0625 40.3548 64.948 40.1124 65.7817C38.905 65.2815 39.2499 64.1603 39.1809 63.3668C39.0602 62.2111 38.6635 61.9006 37.456 61.9696C30.5564 62.4009 32.0916 61.8317 32.2813 67.8861C32.3749 69.291 32.5419 70.6901 32.7815 72.0776C31.1774 71.2669 31.4706 69.8352 31.2464 68.7485C31.0476 67.5229 30.9955 66.2779 31.0911 65.04C31.0911 63.3151 30.3494 62.7459 28.6935 62.9356C27.8744 63.1122 27.02 63.0152 26.2614 62.6596L26.1406 62.7114Z" fill="#111111"/>
<path d="M112.69 63.8688C112.811 64.1103 113.052 64.369 113.018 64.576C112.38 68.3535 113.018 72.2346 112.207 76.0121C112.139 76.5469 111.898 77.0447 111.521 77.4306C111.145 77.8164 110.653 78.0693 110.12 78.151C101.003 80.5695 91.6253 81.8727 82.1938 82.0321C73.3968 82.4461 64.6515 83.2913 55.889 84.0502C46.5745 84.8609 37.3462 86.3444 28.0144 86.8791C20.6491 87.3103 13.4217 88.7592 6.12533 89.6562C4.74937 89.726 3.37863 89.8758 2.02005 90.1047C0.450377 90.4496 -0.291335 89.7597 0.105394 88.3797C1.15759 84.8264 0.364134 81.1179 1.22659 77.5646C1.5934 76.2326 1.65239 74.8346 1.39908 73.4765C0.674615 70.0267 1.20933 66.5769 1.17484 62.9028C1.50522 63.0344 1.77568 63.2829 1.93472 63.601C2.09376 63.919 2.13026 64.2845 2.03729 64.6277C1.48532 68.7503 3.07224 72.8728 2.31328 76.9263C1.64056 80.5142 1.95105 84.1537 1.29558 87.7243C1.12309 88.7247 1.29558 88.7765 2.31328 88.6902C9.66139 88.19 16.837 86.2236 24.1851 85.8441C29.3599 85.5681 34.5346 85.0852 39.7093 84.4642C48.3339 83.4293 56.8032 82.7393 65.376 81.8768C78.3818 80.6867 91.5429 81.1006 104.393 78.2545C106.118 77.8578 107.981 77.2886 109.775 76.8401C110.114 76.7918 110.428 76.6315 110.665 76.3845C110.903 76.1376 111.051 75.8183 111.086 75.4774C111.396 73.8291 111.488 72.1475 111.362 70.4752C111.067 68.1814 111.534 65.8543 112.69 63.8515V63.8688Z" fill="#111111"/>
<path d="M27.8551 31.6472C27.9414 32.32 28.8728 32.5442 28.4244 33.1824C27.9759 33.8206 27.3377 33.4412 26.9409 33.1824C26.0095 32.5442 24.2846 33.0272 24.0776 31.5782C23.8706 30.1293 25.4058 29.8533 26.2682 29.1289C26.6132 28.8529 26.7857 27.8697 27.4757 28.4562C28.1656 29.0426 27.4757 29.4221 27.1652 29.8533C26.9957 30.118 26.8458 30.3947 26.7167 30.6813C38.6487 28.8165 50.7464 28.2382 62.8018 28.9564C62.6121 27.9559 61.5254 27.68 61.9049 26.5933C63.0767 26.8381 64.1435 27.4408 64.958 28.3182C65.0899 28.4161 65.199 28.5414 65.2779 28.6854C65.3569 28.8295 65.4037 28.989 65.4151 29.1528C65.4266 29.3167 65.4025 29.4811 65.3444 29.6348C65.2863 29.7885 65.1957 29.9278 65.0787 30.0431C64.3025 30.8538 63.1295 31.5782 62.1463 30.9745C60.0764 29.7326 57.8858 30.1638 55.7297 30.0603C49.763 29.8933 43.7919 30.1411 37.8596 30.802C34.512 30.9031 31.1723 31.1853 27.8551 31.6472Z" fill="#111111"/>
<path d="M26.1189 62.6624C25.7567 63.3179 26.1189 64.0251 26.0154 64.6978C25.9119 65.3705 26.2569 66.0605 25.3772 66.8194C24.739 65.0945 25.636 61.9724 22.1344 63.0419C21.3237 63.2834 21.2892 63.1799 20.5302 67.0437C19.5125 66.5435 19.8748 65.6465 19.8748 64.9393C19.8748 63.8871 19.8748 63.0591 18.3913 63.0936C16.9079 63.1281 16.4767 63.6456 16.5284 64.9393C16.5546 65.1397 16.5546 65.3426 16.5284 65.543C16.5284 65.9742 16.5284 66.6814 15.9075 66.5779C15.2865 66.4745 15.3727 65.8535 15.4245 65.3878C15.528 64.3701 15.9592 63.3524 14.1653 63.3351C12.3714 63.3179 11.9919 64.0768 12.1299 65.5775C12.1299 66.1985 12.1299 66.8194 12.1299 67.4232C12.1299 68.0269 12.3369 68.2856 11.7504 68.3374C11.5408 68.3519 11.3337 68.2845 11.1729 68.1494C11.012 68.0142 10.9098 67.8219 10.888 67.6129C10.8271 66.8667 10.8271 66.1167 10.888 65.3705C10.888 64.4391 11.2675 63.3524 9.62879 63.4386C8.28336 63.4386 6.93793 63.3351 7.09317 65.405C7.30016 68.2166 7.33466 71.0282 7.43816 73.8226C7.43816 74.3055 7.88663 75.0645 7.07593 75.1508C6.26522 75.237 6.35147 74.4608 6.31697 73.9261C6.17898 71.1145 5.92024 68.3029 5.98923 65.5085C5.98923 63.9388 5.76499 63.3006 4.10908 63.7836C3.62611 63.9388 3.00514 64.0596 2.66016 63.2144C5.49455 62.5947 8.38372 62.2595 11.2847 62.2139C15.6142 61.9207 19.9093 61.9207 24.2733 61.7482C24.6446 61.7097 25.0192 61.7786 25.3525 61.9468C25.6858 62.115 25.9638 62.3753 26.1534 62.6969L26.1189 62.6624Z" fill="#111111"/>
<path d="M39.5194 11.7755C39.5194 11.7755 35.2416 10.637 35.0691 9.30883C34.8966 7.98065 35.9143 3.78912 39.2951 2.71967C42.676 1.65023 45.8843 1.78822 48.6269 5.28979C48.9342 6.25176 49.1197 7.24849 49.1789 8.25663C49.0303 8.59424 48.7898 8.88326 48.4848 9.09067C48.1797 9.29808 47.8225 9.41552 47.454 9.42957C46.4363 9.41232 48.0922 13.1726 39.5194 11.7755Z" fill="#F1BE48"/>
<path d="M30.2969 5.72119L33.7812 6.66989" stroke="#111111" stroke-width="0.5" stroke-linecap="round" stroke-linejoin="bevel"/>
<path d="M30.2969 3.15137L35.1439 4.4623" stroke="#111111" stroke-width="0.5" stroke-linecap="round" stroke-linejoin="bevel"/>
<path d="M51.5791 1.15137L48.457 2.94527" stroke="#111111" stroke-width="0.5" stroke-linecap="round" stroke-linejoin="bevel"/>
<path d="M54.3819 1.70215L50.0352 4.20327" stroke="#111111" stroke-width="0.5" stroke-linecap="round" stroke-linejoin="bevel"/>
</svg>
