<svg style="display: none;" aria-hidden="true" xmlns="http://www.w3.org/2000/svg" xmlns:xlink="http://www.w3.org/1999/xlink"><symbol viewBox="0 0 32 32" fill="none" id="svg-instagram"><path fill-rule="evenodd" clip-rule="evenodd" d="M15.0128 0.0299443C12.7668 0.149319 10.67 0.729194 8.61364 1.79963C4.89788 3.73382 2.04495 7.10276 0.74682 11.0893C-0.0303683 13.4759 -0.205931 16.1637 0.243444 18.7944C0.677945 21.3376 1.85838 23.9049 3.55863 26.0044C5.76326 28.7267 8.79532 30.6419 12.2389 31.4871C14.1253 31.9502 16.2521 32.0491 18.2702 31.7679C20.856 31.4074 23.8043 30.1307 25.8573 28.4822C29.2175 25.7842 31.4115 21.8281 31.829 17.7143C32.2662 13.4059 31.0651 9.28732 28.4116 5.9955C26.8998 4.12013 25.1442 2.70757 23.0202 1.65763C21.0706 0.693882 19.0953 0.152944 17.1765 0.0573193C16.7983 0.0385068 16.3483 0.0144443 16.1765 0.00388185C16.0046 -0.00668065 15.481 0.00506935 15.0128 0.0299443ZM22.2881 6.93132C23.4471 7.17688 24.4366 8.04388 24.8926 9.21332L25.0515 9.6205V15.9643V22.308L24.8816 22.7317C24.4513 23.8059 23.7094 24.5291 22.6452 24.9119L22.239 25.058L16.1765 25.0759C11.963 25.0883 9.9877 25.0727 9.70001 25.0247C8.69295 24.8567 7.70714 24.0984 7.2047 23.1053C6.81976 22.3444 6.82638 22.48 6.84607 15.7455L6.86395 9.6205L7.03176 9.20194C7.50245 8.02813 8.45776 7.17988 9.5827 6.93694C10.1929 6.80513 21.6688 6.80007 22.2881 6.93132ZM20.5983 9.01094L19.8952 9.03088V10.5288V12.0268H21.3952H22.8952V10.4955V8.96425L22.0983 8.97763C21.6601 8.98494 20.9851 8.99994 20.5983 9.01094ZM15.4577 12.8146C14.6118 12.9708 13.6968 13.5914 13.256 14.308C12.6524 15.2893 12.6531 16.684 13.2578 17.6205C14.5322 19.5942 17.2731 19.6384 18.5936 17.7065C18.9509 17.1838 19.103 16.6659 19.1055 15.9643C19.1079 15.2824 18.9723 14.8076 18.6193 14.2615C18.0486 13.3786 17.17 12.8675 16.129 12.8128C15.8457 12.7979 15.5436 12.7988 15.4577 12.8146ZM8.65901 18.0424L8.67645 21.933L8.82495 22.2616C8.98639 22.6186 9.2502 22.8841 9.66257 23.1045L9.92645 23.2455H15.9577C21.7496 23.2455 21.9976 23.2408 22.2077 23.1276C22.6051 22.9132 22.868 22.6653 23.0546 22.3283L23.239 21.9955L23.2568 18.0736L23.2746 14.1518H21.9526H20.6306L20.671 14.2924C20.6931 14.3698 20.7596 14.6018 20.8188 14.808C20.9655 15.319 20.9626 16.6462 20.8136 17.2143C20.4536 18.5868 19.4143 19.8392 18.114 20.4672C17.4823 20.7723 17.0136 20.8951 16.2964 20.9434C13.7308 21.1164 11.4192 19.2836 11.017 16.7572C10.9176 16.1324 10.9733 15.186 11.141 14.6518C11.2112 14.4283 11.2689 14.2244 11.2694 14.1986C11.2698 14.1729 10.6788 14.1518 9.95589 14.1518H8.64157L8.65901 18.0424Z" fill="#000"/></symbol><symbol viewBox="0 0 32 32" fill="none" id="svg-vk"><path fill-rule="evenodd" clip-rule="evenodd" d="M15.0612 0.0299699C11.7591 0.196282 8.48455 1.46785 5.84249 3.60997C5.23336 4.10385 4.09511 5.24197 3.61536 5.83678C0.416177 9.80372 -0.740761 14.9299 0.469864 19.7743C1.46861 23.771 3.84224 27.1046 7.29443 29.359C9.34443 30.6977 11.7745 31.5603 14.28 31.8387C15.4904 31.9732 17.369 31.9155 18.655 31.7043C19.1586 31.6216 20.3722 31.3232 20.8737 31.1588C24.9088 29.8361 28.2746 26.9666 30.1751 23.229C31.3626 20.8938 31.9075 18.626 31.9138 15.993C31.9186 14.0022 31.6431 12.3595 31.0059 10.5817C30.8027 10.0147 30.2552 8.74685 30.1579 8.61803C30.1319 8.58366 30.0058 8.36235 29.8776 8.12622C29.6724 7.74816 29.3241 7.1956 28.9859 6.71178C28.8579 6.52866 28.2584 5.76335 28.0313 5.49303C27.4582 4.8111 26.0745 3.56122 25.155 2.89491C24.9032 2.71247 24.1981 2.26866 23.8567 2.07778C23.7286 2.00616 23.5112 1.88191 23.3737 1.80172C22.9908 1.57828 21.713 1.04335 21.0066 0.810595C19.662 0.367657 18.371 0.113845 17.155 0.0532824C16.7941 0.0352824 16.3722 0.0127824 16.2175 0.00328236C16.0628 -0.00628014 15.5425 0.00578236 15.0612 0.0299699ZM16.3194 10.7707C17.1822 10.8335 17.3869 10.9111 17.6021 11.2572L17.7487 11.493L17.7288 13.4156C17.7157 14.6878 17.733 15.4542 17.7801 15.6812C17.9025 16.2705 18.1238 16.3586 18.5094 15.9715C19.4549 15.0223 20.2742 13.698 20.9977 11.9497C21.0929 11.7195 21.2398 11.4664 21.3242 11.3872L21.4776 11.243H23.5305C25.5294 11.243 25.5881 11.2465 25.7598 11.3764C25.917 11.4952 25.9355 11.5463 25.9292 11.8452C25.9183 12.3702 25.5072 13.1602 24.6112 14.3783C22.6364 17.0629 22.6465 17.0458 22.808 17.4324C22.8562 17.5478 23.3144 18.0587 23.8262 18.5677C25.7007 20.432 26.2464 21.3081 25.8805 21.8665C25.6537 22.2127 25.5059 22.2413 23.8413 22.2625C21.4031 22.2935 21.3252 22.2634 19.8633 20.7272C18.9058 19.7209 18.6392 19.5239 18.3664 19.6207C18.1158 19.7097 17.9783 20.0424 17.8106 20.9651C17.5956 22.1488 17.5143 22.2108 16.1788 22.2114C13.5722 22.2127 11.5452 21.1133 9.77536 18.7385C8.53868 17.079 7.48293 15.2215 6.16368 12.3835C5.94774 11.9189 5.91393 11.5661 6.0648 11.3507C6.1613 11.2129 6.17593 11.2118 7.86968 11.2118C9.7448 11.2118 9.87924 11.2333 10.1721 11.5814C10.2585 11.684 10.4026 11.9593 10.4924 12.193C10.729 12.8095 11.2101 13.7438 11.6519 14.4448C12.3751 15.5922 12.6959 15.9882 13.0628 16.1857C13.2666 16.2955 13.2779 16.2955 13.3992 16.1858C13.4755 16.1167 13.5646 15.8928 13.6265 15.6146C13.7669 14.9837 13.7355 12.6111 13.5823 12.2682C13.4743 12.0264 13.1367 11.7803 12.8261 11.7168C12.5292 11.6561 12.4784 11.5138 12.6588 11.2488C12.9396 10.8362 13.3498 10.7344 14.78 10.7222C15.2097 10.7186 15.9024 10.7404 16.3194 10.7707Z" fill="#000"/></symbol><symbol viewBox="0 0 32 32" fill="none" id="svg-whatsup"><path fill-rule="evenodd" clip-rule="evenodd" d="M15.0503 0.0299699C12.5529 0.15572 10.1941 0.870157 7.83477 2.21535C6.05409 3.23066 4.16502 4.97053 2.91877 6.74303C1.6734 8.51428 0.716147 10.725 0.307084 12.7743C-0.0917907 14.773 -0.102666 17.082 0.277834 18.993C1.13433 23.2946 3.6129 26.962 7.28346 29.359C9.33346 30.6977 11.7635 31.5603 14.269 31.8387C15.0683 31.9275 16.8492 31.9265 17.6498 31.8368C19.6669 31.6109 21.4146 31.0893 23.2046 30.1792C27.6475 27.92 30.7572 23.7333 31.6755 18.7743C31.8378 17.8984 31.9048 17.0696 31.905 15.9363C31.9055 13.9935 31.6198 12.3161 30.9933 10.5817C30.7842 10.0029 30.2403 8.74053 30.1471 8.61803C30.1211 8.58366 29.9948 8.36235 29.8667 8.12622C29.6615 7.74816 29.3132 7.1956 28.9749 6.71178C28.8469 6.52866 28.2475 5.76335 28.0203 5.49303C27.4473 4.8111 26.0635 3.56122 25.144 2.89491C24.8923 2.71247 24.1871 2.26866 23.8457 2.07778C23.7176 2.00616 23.5003 1.88191 23.3628 1.80172C22.9798 1.57828 21.702 1.04334 20.9956 0.810595C19.651 0.367657 18.36 0.113845 17.144 0.0532824C16.7831 0.0352824 16.3612 0.0127824 16.2065 0.00328236C16.0518 -0.00628014 15.5315 0.00578236 15.0503 0.0299699ZM17.769 7.7041C18.7466 7.92897 19.7462 8.35135 20.5815 8.89241C21.0148 9.1731 21.886 9.89716 22.1435 10.1906C23.2328 11.4321 23.915 12.767 24.2463 14.3055C24.3796 14.9247 24.4261 16.3132 24.3363 16.993C23.9613 19.8295 22.2731 22.2315 19.7638 23.499C18.6144 24.0797 17.6225 24.3268 16.2378 24.3776C14.6837 24.4346 13.5413 24.1817 12.1301 23.468L11.2725 23.0343L10.4205 23.3104C8.85265 23.8185 8.13365 24.0348 8.10552 24.0066C8.09015 23.9912 8.30746 23.2914 8.5884 22.4515L9.09927 20.9243L8.84077 20.515C7.75871 18.8017 7.32084 16.7443 7.61234 14.743C7.74596 13.826 8.01384 12.9749 8.43234 12.1382C9.64384 9.71566 12.0582 7.98997 14.8003 7.5866C15.4208 7.49528 17.1608 7.56416 17.769 7.7041ZM12.6753 11.3705C12.3498 11.536 11.428 12.5397 11.344 12.8197C11.0563 13.7798 11.6603 15.3388 12.9485 16.9614C14.2755 18.6327 16.3535 20.1757 17.8003 20.564C18.2194 20.6764 18.9066 20.6718 19.187 20.5547C19.3115 20.5027 19.6735 20.2 19.9914 19.882C20.5149 19.3585 20.5736 19.276 20.614 19.007C20.6435 18.81 20.6308 18.642 20.5764 18.5078C20.4676 18.2397 19.1161 16.8587 18.8078 16.7004C18.375 16.4783 17.9384 16.6753 17.6471 17.2242C17.4583 17.58 17.2516 17.7258 16.8863 17.7609C15.9566 17.8502 14.2475 16.2595 14.1012 15.1686C14.0442 14.7437 14.2323 14.476 14.7943 14.1825C15.2775 13.93 15.411 13.3607 15.0894 12.9243C14.8113 12.547 13.6265 11.4133 13.4334 11.3398C13.1896 11.2472 12.8941 11.2591 12.6753 11.3705Z" fill="#000"/></symbol><symbol viewBox="0 0 32 32" fill="none" id="svg-youtube"><path fill-rule="evenodd" clip-rule="evenodd" d="M15.0435 0.0299699C11.7413 0.196282 8.46681 1.46785 5.82475 3.60997C5.21562 4.10385 4.07738 5.24197 3.59763 5.83678C1.23906 8.76141 -0.00162341 12.2314 1.59421e-06 15.8993C0.00112659 18.5668 0.500814 20.713 1.67244 23.0825C2.717 25.195 4.16787 26.9775 6.10675 28.5303C7.57862 29.7093 9.72094 30.798 11.606 31.325C13.0877 31.7393 14.4004 31.9138 15.9867 31.9072C18.6377 31.8962 20.876 31.3598 23.1978 30.1792C27.4309 28.0267 30.4765 24.0995 31.5334 19.4305C32.0725 17.0487 32.0284 14.3597 31.4104 11.9305C31.1852 11.0454 30.3733 8.92872 30.1399 8.61803C30.1141 8.58366 29.9881 8.36235 29.8599 8.12622C29.6547 7.74816 29.3064 7.1956 28.9681 6.71178C28.8401 6.52866 28.2407 5.76335 28.0136 5.49303C27.4405 4.8111 26.0567 3.56122 25.1372 2.89491C24.8855 2.71247 24.1804 2.26866 23.8389 2.07778C23.7108 2.00616 23.4935 1.88191 23.356 1.80172C22.9731 1.57828 21.6952 1.04334 20.9888 0.810595C19.6442 0.367657 18.3532 0.113845 17.1372 0.0532824C16.7763 0.0352824 16.3544 0.0127824 16.1997 0.00328236C16.0451 -0.00628014 15.5247 0.00578236 15.0435 0.0299699ZM21.8425 9.99128C22.9696 10.2302 23.8322 10.9973 24.2457 12.1288C24.3462 12.4038 24.356 12.7433 24.356 15.9618V19.493L24.2117 19.8644C23.8321 20.8419 23.1231 21.5372 22.1964 21.8407L21.731 21.993H15.9497H10.1685L9.70312 21.8407C9.3995 21.7412 9.09544 21.5805 8.82831 21.3783C8.36962 21.0311 8.35056 21.0108 8.01412 20.5073C7.53631 19.7924 7.5435 19.8618 7.5435 15.9618C7.5435 12.0618 7.53631 12.1312 8.01412 11.4162C8.32112 10.9568 8.36044 10.9122 8.69975 10.6375C9.08181 10.3282 9.56369 10.095 10.03 9.99366C10.6214 9.86516 21.2371 9.86303 21.8425 9.99128ZM13.7622 15.9618C13.7622 18.3133 13.7686 18.4554 13.8716 18.4161C13.9318 18.3931 14.1919 18.2488 14.4497 18.0955C14.7076 17.9422 15.1857 17.6628 15.5122 17.4748C15.8388 17.2867 16.2747 17.0345 16.481 16.9143C16.8707 16.6874 17.1957 16.4993 17.7491 16.1805C17.9281 16.0774 18.0742 15.979 18.0736 15.9618C18.0727 15.935 16.4261 14.9648 15.5154 14.4545C15.3549 14.3645 15.1062 14.2168 14.9629 14.1263C14.8195 14.0358 14.6882 13.9618 14.6709 13.9618C14.6537 13.9618 14.4915 13.8681 14.3103 13.7537C13.7029 13.3698 13.7622 13.1309 13.7622 15.9618Z" fill="#000"/></symbol></svg>