<svg width="32" height="32" viewBox="0 0 32 32" fill="none" xmlns="http://www.w3.org/2000/svg">
<path fill-rule="evenodd" clip-rule="evenodd" d="M15.0128 0.0299443C12.7668 0.149319 10.67 0.729194 8.61364 1.79963C4.89788 3.73382 2.04495 7.10276 0.74682 11.0893C-0.0303683 13.4759 -0.205931 16.1637 0.243444 18.7944C0.677945 21.3376 1.85838 23.9049 3.55863 26.0044C5.76326 28.7267 8.79532 30.6419 12.2389 31.4871C14.1253 31.9502 16.2521 32.0491 18.2702 31.7679C20.856 31.4074 23.8043 30.1307 25.8573 28.4822C29.2175 25.7842 31.4115 21.8281 31.829 17.7143C32.2662 13.4059 31.0651 9.28732 28.4116 5.9955C26.8998 4.12013 25.1442 2.70757 23.0202 1.65763C21.0706 0.693882 19.0953 0.152944 17.1765 0.0573193C16.7983 0.0385068 16.3483 0.0144443 16.1765 0.00388185C16.0046 -0.00668065 15.481 0.00506935 15.0128 0.0299443ZM22.2881 6.93132C23.4471 7.17688 24.4366 8.04388 24.8926 9.21332L25.0515 9.6205V15.9643V22.308L24.8816 22.7317C24.4513 23.8059 23.7094 24.5291 22.6452 24.9119L22.239 25.058L16.1765 25.0759C11.963 25.0883 9.9877 25.0727 9.70001 25.0247C8.69295 24.8567 7.70714 24.0984 7.2047 23.1053C6.81976 22.3444 6.82638 22.48 6.84607 15.7455L6.86395 9.6205L7.03176 9.20194C7.50245 8.02813 8.45776 7.17988 9.5827 6.93694C10.1929 6.80513 21.6688 6.80007 22.2881 6.93132ZM20.5983 9.01094L19.8952 9.03088V10.5288V12.0268H21.3952H22.8952V10.4955V8.96425L22.0983 8.97763C21.6601 8.98494 20.9851 8.99994 20.5983 9.01094ZM15.4577 12.8146C14.6118 12.9708 13.6968 13.5914 13.256 14.308C12.6524 15.2893 12.6531 16.684 13.2578 17.6205C14.5322 19.5942 17.2731 19.6384 18.5936 17.7065C18.9509 17.1838 19.103 16.6659 19.1055 15.9643C19.1079 15.2824 18.9723 14.8076 18.6193 14.2615C18.0486 13.3786 17.17 12.8675 16.129 12.8128C15.8457 12.7979 15.5436 12.7988 15.4577 12.8146ZM8.65901 18.0424L8.67645 21.933L8.82495 22.2616C8.98639 22.6186 9.2502 22.8841 9.66257 23.1045L9.92645 23.2455H15.9577C21.7496 23.2455 21.9976 23.2408 22.2077 23.1276C22.6051 22.9132 22.868 22.6653 23.0546 22.3283L23.239 21.9955L23.2568 18.0736L23.2746 14.1518H21.9526H20.6306L20.671 14.2924C20.6931 14.3698 20.7596 14.6018 20.8188 14.808C20.9655 15.319 20.9626 16.6462 20.8136 17.2143C20.4536 18.5868 19.4143 19.8392 18.114 20.4672C17.4823 20.7723 17.0136 20.8951 16.2964 20.9434C13.7308 21.1164 11.4192 19.2836 11.017 16.7572C10.9176 16.1324 10.9733 15.186 11.141 14.6518C11.2112 14.4283 11.2689 14.2244 11.2694 14.1986C11.2698 14.1729 10.6788 14.1518 9.95589 14.1518H8.64157L8.65901 18.0424Z" fill="black"/>
</svg>
