<svg width="32" height="32" viewBox="0 0 32 32" fill="none" xmlns="http://www.w3.org/2000/svg">
<path fill-rule="evenodd" clip-rule="evenodd" d="M15.0612 0.0299699C11.7591 0.196282 8.48455 1.46785 5.84249 3.60997C5.23336 4.10385 4.09511 5.24197 3.61536 5.83678C0.416177 9.80372 -0.740761 14.9299 0.469864 19.7743C1.46861 23.771 3.84224 27.1046 7.29443 29.359C9.34443 30.6977 11.7745 31.5603 14.28 31.8387C15.4904 31.9732 17.369 31.9155 18.655 31.7043C19.1586 31.6216 20.3722 31.3232 20.8737 31.1588C24.9088 29.8361 28.2746 26.9666 30.1751 23.229C31.3626 20.8938 31.9075 18.626 31.9138 15.993C31.9186 14.0022 31.6431 12.3595 31.0059 10.5817C30.8027 10.0147 30.2552 8.74685 30.1579 8.61803C30.1319 8.58366 30.0058 8.36235 29.8776 8.12622C29.6724 7.74816 29.3241 7.1956 28.9859 6.71178C28.8579 6.52866 28.2584 5.76335 28.0313 5.49303C27.4582 4.8111 26.0745 3.56122 25.155 2.89491C24.9032 2.71247 24.1981 2.26866 23.8567 2.07778C23.7286 2.00616 23.5112 1.88191 23.3737 1.80172C22.9908 1.57828 21.713 1.04335 21.0066 0.810595C19.662 0.367657 18.371 0.113845 17.155 0.0532824C16.7941 0.0352824 16.3722 0.0127824 16.2175 0.00328236C16.0628 -0.00628014 15.5425 0.00578236 15.0612 0.0299699ZM16.3194 10.7707C17.1822 10.8335 17.3869 10.9111 17.6021 11.2572L17.7487 11.493L17.7288 13.4156C17.7157 14.6878 17.733 15.4542 17.7801 15.6812C17.9025 16.2705 18.1238 16.3586 18.5094 15.9715C19.4549 15.0223 20.2742 13.698 20.9977 11.9497C21.0929 11.7195 21.2398 11.4664 21.3242 11.3872L21.4776 11.243H23.5305C25.5294 11.243 25.5881 11.2465 25.7598 11.3764C25.917 11.4952 25.9355 11.5463 25.9292 11.8452C25.9183 12.3702 25.5072 13.1602 24.6112 14.3783C22.6364 17.0629 22.6465 17.0458 22.808 17.4324C22.8562 17.5478 23.3144 18.0587 23.8262 18.5677C25.7007 20.432 26.2464 21.3081 25.8805 21.8665C25.6537 22.2127 25.5059 22.2413 23.8413 22.2625C21.4031 22.2935 21.3252 22.2634 19.8633 20.7272C18.9058 19.7209 18.6392 19.5239 18.3664 19.6207C18.1158 19.7097 17.9783 20.0424 17.8106 20.9651C17.5956 22.1488 17.5143 22.2108 16.1788 22.2114C13.5722 22.2127 11.5452 21.1133 9.77536 18.7385C8.53868 17.079 7.48293 15.2215 6.16368 12.3835C5.94774 11.9189 5.91393 11.5661 6.0648 11.3507C6.1613 11.2129 6.17593 11.2118 7.86968 11.2118C9.7448 11.2118 9.87924 11.2333 10.1721 11.5814C10.2585 11.684 10.4026 11.9593 10.4924 12.193C10.729 12.8095 11.2101 13.7438 11.6519 14.4448C12.3751 15.5922 12.6959 15.9882 13.0628 16.1857C13.2666 16.2955 13.2779 16.2955 13.3992 16.1858C13.4755 16.1167 13.5646 15.8928 13.6265 15.6146C13.7669 14.9837 13.7355 12.6111 13.5823 12.2682C13.4743 12.0264 13.1367 11.7803 12.8261 11.7168C12.5292 11.6561 12.4784 11.5138 12.6588 11.2488C12.9396 10.8362 13.3498 10.7344 14.78 10.7222C15.2097 10.7186 15.9024 10.7404 16.3194 10.7707Z" fill="black"/>
</svg>
