<svg width="32" height="32" viewBox="0 0 32 32" fill="none" xmlns="http://www.w3.org/2000/svg">
<path fill-rule="evenodd" clip-rule="evenodd" d="M15.0503 0.0299699C12.5529 0.15572 10.1941 0.870157 7.83477 2.21535C6.05409 3.23066 4.16502 4.97053 2.91877 6.74303C1.6734 8.51428 0.716147 10.725 0.307084 12.7743C-0.0917907 14.773 -0.102666 17.082 0.277834 18.993C1.13433 23.2946 3.6129 26.962 7.28346 29.359C9.33346 30.6977 11.7635 31.5603 14.269 31.8387C15.0683 31.9275 16.8492 31.9265 17.6498 31.8368C19.6669 31.6109 21.4146 31.0893 23.2046 30.1792C27.6475 27.92 30.7572 23.7333 31.6755 18.7743C31.8378 17.8984 31.9048 17.0696 31.905 15.9363C31.9055 13.9935 31.6198 12.3161 30.9933 10.5817C30.7842 10.0029 30.2403 8.74053 30.1471 8.61803C30.1211 8.58366 29.9948 8.36235 29.8667 8.12622C29.6615 7.74816 29.3132 7.1956 28.9749 6.71178C28.8469 6.52866 28.2475 5.76335 28.0203 5.49303C27.4473 4.8111 26.0635 3.56122 25.144 2.89491C24.8923 2.71247 24.1871 2.26866 23.8457 2.07778C23.7176 2.00616 23.5003 1.88191 23.3628 1.80172C22.9798 1.57828 21.702 1.04334 20.9956 0.810595C19.651 0.367657 18.36 0.113845 17.144 0.0532824C16.7831 0.0352824 16.3612 0.0127824 16.2065 0.00328236C16.0518 -0.00628014 15.5315 0.00578236 15.0503 0.0299699ZM17.769 7.7041C18.7466 7.92897 19.7462 8.35135 20.5815 8.89241C21.0148 9.1731 21.886 9.89716 22.1435 10.1906C23.2328 11.4321 23.915 12.767 24.2463 14.3055C24.3796 14.9247 24.4261 16.3132 24.3363 16.993C23.9613 19.8295 22.2731 22.2315 19.7638 23.499C18.6144 24.0797 17.6225 24.3268 16.2378 24.3776C14.6837 24.4346 13.5413 24.1817 12.1301 23.468L11.2725 23.0343L10.4205 23.3104C8.85265 23.8185 8.13365 24.0348 8.10552 24.0066C8.09015 23.9912 8.30746 23.2914 8.5884 22.4515L9.09927 20.9243L8.84077 20.515C7.75871 18.8017 7.32084 16.7443 7.61234 14.743C7.74596 13.826 8.01384 12.9749 8.43234 12.1382C9.64384 9.71566 12.0582 7.98997 14.8003 7.5866C15.4208 7.49528 17.1608 7.56416 17.769 7.7041ZM12.6753 11.3705C12.3498 11.536 11.428 12.5397 11.344 12.8197C11.0563 13.7798 11.6603 15.3388 12.9485 16.9614C14.2755 18.6327 16.3535 20.1757 17.8003 20.564C18.2194 20.6764 18.9066 20.6718 19.187 20.5547C19.3115 20.5027 19.6735 20.2 19.9914 19.882C20.5149 19.3585 20.5736 19.276 20.614 19.007C20.6435 18.81 20.6308 18.642 20.5764 18.5078C20.4676 18.2397 19.1161 16.8587 18.8078 16.7004C18.375 16.4783 17.9384 16.6753 17.6471 17.2242C17.4583 17.58 17.2516 17.7258 16.8863 17.7609C15.9566 17.8502 14.2475 16.2595 14.1012 15.1686C14.0442 14.7437 14.2323 14.476 14.7943 14.1825C15.2775 13.93 15.411 13.3607 15.0894 12.9243C14.8113 12.547 13.6265 11.4133 13.4334 11.3398C13.1896 11.2472 12.8941 11.2591 12.6753 11.3705Z" fill="black"/>
</svg>
