<svg width="32" height="32" viewBox="0 0 32 32" fill="none" xmlns="http://www.w3.org/2000/svg">
<path fill-rule="evenodd" clip-rule="evenodd" d="M15.0435 0.0299699C11.7413 0.196282 8.46681 1.46785 5.82475 3.60997C5.21562 4.10385 4.07738 5.24197 3.59763 5.83678C1.23906 8.76141 -0.00162341 12.2314 1.59421e-06 15.8993C0.00112659 18.5668 0.500814 20.713 1.67244 23.0825C2.717 25.195 4.16787 26.9775 6.10675 28.5303C7.57862 29.7093 9.72094 30.798 11.606 31.325C13.0877 31.7393 14.4004 31.9138 15.9867 31.9072C18.6377 31.8962 20.876 31.3598 23.1978 30.1792C27.4309 28.0267 30.4765 24.0995 31.5334 19.4305C32.0725 17.0487 32.0284 14.3597 31.4104 11.9305C31.1852 11.0454 30.3733 8.92872 30.1399 8.61803C30.1141 8.58366 29.9881 8.36235 29.8599 8.12622C29.6547 7.74816 29.3064 7.1956 28.9681 6.71178C28.8401 6.52866 28.2407 5.76335 28.0136 5.49303C27.4405 4.8111 26.0567 3.56122 25.1372 2.89491C24.8855 2.71247 24.1804 2.26866 23.8389 2.07778C23.7108 2.00616 23.4935 1.88191 23.356 1.80172C22.9731 1.57828 21.6952 1.04334 20.9888 0.810595C19.6442 0.367657 18.3532 0.113845 17.1372 0.0532824C16.7763 0.0352824 16.3544 0.0127824 16.1997 0.00328236C16.0451 -0.00628014 15.5247 0.00578236 15.0435 0.0299699ZM21.8425 9.99128C22.9696 10.2302 23.8322 10.9973 24.2457 12.1288C24.3462 12.4038 24.356 12.7433 24.356 15.9618V19.493L24.2117 19.8644C23.8321 20.8419 23.1231 21.5372 22.1964 21.8407L21.731 21.993H15.9497H10.1685L9.70312 21.8407C9.3995 21.7412 9.09544 21.5805 8.82831 21.3783C8.36962 21.0311 8.35056 21.0108 8.01412 20.5073C7.53631 19.7924 7.5435 19.8618 7.5435 15.9618C7.5435 12.0618 7.53631 12.1312 8.01412 11.4162C8.32112 10.9568 8.36044 10.9122 8.69975 10.6375C9.08181 10.3282 9.56369 10.095 10.03 9.99366C10.6214 9.86516 21.2371 9.86303 21.8425 9.99128ZM13.7622 15.9618C13.7622 18.3133 13.7686 18.4554 13.8716 18.4161C13.9318 18.3931 14.1919 18.2488 14.4497 18.0955C14.7076 17.9422 15.1857 17.6628 15.5122 17.4748C15.8388 17.2867 16.2747 17.0345 16.481 16.9143C16.8707 16.6874 17.1957 16.4993 17.7491 16.1805C17.9281 16.0774 18.0742 15.979 18.0736 15.9618C18.0727 15.935 16.4261 14.9648 15.5154 14.4545C15.3549 14.3645 15.1062 14.2168 14.9629 14.1263C14.8195 14.0358 14.6882 13.9618 14.6709 13.9618C14.6537 13.9618 14.4915 13.8681 14.3103 13.7537C13.7029 13.3698 13.7622 13.1309 13.7622 15.9618Z" fill="black"/>
</svg>
