<svg width="29" height="29" viewBox="0 0 29 29" fill="none" xmlns="http://www.w3.org/2000/svg">
<path fill-rule="evenodd" clip-rule="evenodd" d="M13.0789 2C10.1406 2 7.32265 3.16724 5.24495 5.24495C3.16724 7.32265 2 10.1406 2 13.0789C2 16.0173 3.16724 18.8352 5.24495 20.9129C7.32265 22.9907 10.1406 24.1579 13.0789 24.1579C16.0173 24.1579 18.8352 22.9907 20.9129 20.9129C22.9907 18.8352 24.1579 16.0173 24.1579 13.0789C24.1579 10.1406 22.9907 7.32265 20.9129 5.24495C18.8352 3.16724 16.0173 2 13.0789 2ZM3.83073 3.83073C6.28351 1.37796 9.6102 0 13.0789 0C16.5477 0 19.8744 1.37796 22.3272 3.83073C24.7799 6.28351 26.1579 9.6102 26.1579 13.0789C26.1579 16.2104 25.0349 19.2261 23.0119 21.5875L28.7077 27.2935L27.2923 28.7065L21.5985 23.0025C19.2354 25.0314 16.2152 26.1579 13.0789 26.1579C9.6102 26.1579 6.28351 24.7799 3.83073 22.3272C1.37796 19.8744 0 16.5477 0 13.0789C0 9.6102 1.37796 6.28351 3.83073 3.83073Z" fill="white"/>
<path fill-rule="evenodd" clip-rule="evenodd" d="M14 8V12H18V14H14V18H12V14H8V12H12V8H14Z" fill="white"/>
</svg>
