<svg width="180" height="180" viewBox="0 0 180 180" fill="none" xmlns="http://www.w3.org/2000/svg">
<path d="M148.48 83.6106L144.958 69.8554C145.921 69.6556 146.643 68.8214 146.643 67.8222V65.6044C146.643 60.789 142.631 56.8718 137.7 56.8718H121.658V52.297C121.658 49.9276 119.684 48 117.257 48H35.4864C33.0596 48 31.0854 49.9276 31.0854 52.297V90.0004C31.0854 91.1486 32.0388 92.0796 33.215 92.0796C34.391 92.0796 35.3444 91.1488 35.3444 90.0004V52.297C35.3444 52.2206 35.408 52.1586 35.4864 52.1586H117.257C117.335 52.1586 117.399 52.2206 117.399 52.297V90.001C117.399 91.1492 118.352 92.0802 119.528 92.0802C120.704 92.0802 121.658 91.1494 121.658 90.001V87.6438H146.778C146.78 87.6438 146.781 87.6444 146.783 87.6444C146.785 87.6444 146.787 87.644 146.789 87.644C149.88 87.6462 152.505 89.6272 153.406 92.357H146.785C145.609 92.357 144.655 93.2878 144.655 94.4362V98.8718C144.655 102.464 147.648 105.387 151.327 105.387H153.741V114.535H148.173C146.344 109.378 141.323 105.664 135.428 105.664C129.532 105.664 124.511 109.378 122.682 114.535H121.657V98.8716C121.657 97.7234 120.704 96.7922 119.528 96.7922C118.352 96.7922 117.398 97.7232 117.398 98.8716V114.535H73.2172C71.388 109.378 66.3674 105.663 60.4718 105.663C54.5764 105.663 49.5554 109.378 47.7266 114.535H35.4864C35.408 114.535 35.3444 114.473 35.3444 114.396V109.822H44.572C45.748 109.822 46.7016 108.891 46.7016 107.743C46.7016 106.594 45.7482 105.663 44.572 105.663H24.1296C22.9536 105.663 22 106.594 22 107.743C22 108.891 22.9534 109.822 24.1296 109.822H31.0858V114.396C31.0858 116.766 33.0598 118.693 35.4866 118.693H46.9892C46.9888 118.739 46.9856 118.785 46.9856 118.832C46.9856 126.093 53.0356 132 60.4718 132C67.908 132 73.9582 126.093 73.9582 118.832C73.9582 118.785 73.955 118.739 73.9544 118.693H121.945C121.945 118.739 121.941 118.785 121.941 118.832C121.941 126.093 127.991 132 135.428 132C142.864 132 148.914 126.093 148.914 118.832C148.914 118.785 148.911 118.739 148.91 118.693H155.87C157.046 118.693 158 117.762 158 116.614V94.4358C158 88.96 153.863 84.4106 148.48 83.6106ZM121.658 61.03H137.7C140.283 61.03 142.384 63.082 142.384 65.6044V65.7428H121.658V61.03ZM121.658 83.4856V69.9012H140.58L144.058 83.4856H121.658ZM60.4718 127.842C55.3838 127.842 51.2444 123.801 51.2444 118.832C51.2444 113.864 55.3838 109.822 60.4718 109.822C65.56 109.822 69.6994 113.864 69.6994 118.832C69.6994 123.801 65.56 127.842 60.4718 127.842ZM135.428 127.842C130.34 127.842 126.201 123.801 126.201 118.832C126.201 113.864 130.34 109.822 135.428 109.822C140.516 109.822 144.656 113.864 144.656 118.832C144.656 123.801 140.516 127.842 135.428 127.842ZM153.742 101.228H151.328C149.997 101.228 148.915 100.171 148.915 98.8716V96.515H153.741V101.228H153.742Z" fill="#3E5D57"/>
<path d="M60.4712 114.535C58.0444 114.535 56.0704 116.463 56.0704 118.833C56.0704 121.203 58.0444 123.131 60.4712 123.131C62.898 123.131 64.8722 121.203 64.8722 118.833C64.8722 116.463 62.898 114.535 60.4712 114.535Z" fill="#3E5D57"/>
<path d="M135.428 114.535C133.001 114.535 131.027 116.463 131.027 118.833C131.027 121.203 133.001 123.131 135.428 123.131C137.855 123.131 139.829 121.203 139.829 118.833C139.829 116.463 137.855 114.535 135.428 114.535Z" fill="#3E5D57"/>
<path d="M110.441 105.664H78.6412C77.4654 105.664 76.5118 106.595 76.5118 107.744C76.5118 108.893 77.465 109.824 78.6412 109.824H110.441C111.617 109.824 112.57 108.893 112.57 107.744C112.57 106.595 111.617 105.664 110.441 105.664Z" fill="#3E5D57"/>
<path d="M55.9294 96.793H28.6724C27.4966 96.793 26.543 97.7232 26.543 98.871C26.543 100.019 27.4962 100.949 28.6724 100.949H55.9294C57.1054 100.949 58.059 100.019 58.059 98.871C58.059 97.7232 57.1054 96.793 55.9294 96.793Z" fill="#3E5D57"/>
<path d="M96.048 68.5736C95.2166 67.7618 93.868 67.7618 93.0366 68.574L74.0996 87.0634L64.2484 77.4448C63.4168 76.6328 62.0684 76.6328 61.237 77.4448C60.4054 78.2568 60.4054 79.573 61.237 80.385L72.594 91.474C73.0098 91.88 73.5548 92.0828 74.0996 92.0828C74.6444 92.0828 75.1898 91.88 75.6052 91.474L96.0476 71.5142C96.8794 70.7018 96.8794 69.3856 96.048 68.5736Z" fill="#3E5D57"/>
</svg>
