<svg width="180" height="180" viewBox="0 0 180 180" fill="none" xmlns="http://www.w3.org/2000/svg">
<path d="M139.337 95.5178H118.934C117.578 95.5178 116.478 96.567 116.478 97.8616C116.478 99.156 117.578 100.205 118.934 100.205H139.337C140.272 100.205 141.032 100.931 141.032 101.824V112.116H74.739V101.824C74.739 100.931 75.4996 100.205 76.4344 100.205H96.8374C98.1932 100.205 99.2926 99.156 99.2926 97.8616C99.2926 96.567 98.1932 95.5178 96.8374 95.5178H89.5116L95.0578 37.6236C95.2448 35.6726 94.5586 33.7238 93.1752 32.277C91.792 30.83 89.8214 30 87.7692 30H39.319C37.2668 30 35.2964 30.83 33.9128 32.277C32.5294 33.724 31.8432 35.6726 32.0302 37.6236L40.471 125.732V141.89C40.471 146.362 44.2818 150 48.9662 150H132.581C139.949 150 145.943 144.278 145.943 137.245V119.268C145.943 118.149 145.672 117.09 145.19 116.146C145.653 115.72 145.943 115.123 145.943 114.46V101.824C145.942 98.3466 142.979 95.5178 139.337 95.5178ZM76.4344 95.5178C72.792 95.5178 69.8286 98.3466 69.8286 101.824V114.46C69.8286 115.122 70.1182 115.72 70.5814 116.146C70.0998 117.09 69.8286 118.149 69.8286 119.268V123.281H45.167L37.7024 45.3634H89.3856L84.581 95.518H76.4344V95.5178ZM37.5398 35.4368C38.0016 34.9538 38.6336 34.6874 39.319 34.6874H87.7692C88.4548 34.6874 89.0864 34.9536 89.5484 35.4368C90.0106 35.92 90.2304 36.5452 90.1682 37.1964L89.8348 40.6758H37.2534L36.92 37.1964C36.8576 36.5452 37.0778 35.92 37.5398 35.4368ZM45.3812 141.89V127.969H69.8288V135.939C69.8156 135.939 69.8032 135.937 69.7898 135.937H57.299C54.5698 135.937 52.3496 138.057 52.3496 140.662V145.312H48.966C46.9894 145.312 45.3812 143.777 45.3812 141.89ZM57.2596 145.312V140.662C57.2596 140.641 57.277 140.625 57.2986 140.625H69.7896C69.8112 140.625 69.8286 140.641 69.8286 140.662V145.312H57.2596ZM141.032 137.244C141.032 141.693 137.241 145.312 132.581 145.312H83.1904C78.5304 145.312 74.7392 141.693 74.7392 137.244V119.268C74.7392 117.909 75.8972 116.803 77.3208 116.803H138.451C139.875 116.803 141.033 117.909 141.033 119.268V137.244H141.032Z" fill="#3E5D57"/>
<path d="M121.881 123.555H93.8926C92.537 123.555 91.4376 124.604 91.4376 125.898V136.211C91.4376 137.505 92.537 138.554 93.8926 138.554H121.881C123.237 138.554 124.336 137.505 124.336 136.211V125.898C124.336 124.604 123.237 123.555 121.881 123.555ZM119.426 133.867H96.3478V128.242H119.426V133.867Z" fill="#3E5D57"/>
<path d="M147.207 55.9071C143.302 52.4793 138.467 50.3485 133.223 49.7445C126.49 48.9681 119.848 50.7477 114.521 54.7537C109.22 58.7395 105.871 64.4427 105.092 70.8123C104.772 73.4301 104.895 76.0413 105.451 78.5791C104.505 80.7177 103.862 82.9897 103.572 85.3355C103.413 86.6207 104.375 87.7859 105.722 87.9379C105.82 87.9489 105.917 87.9543 106.013 87.9543C107.24 87.9543 108.301 87.0775 108.448 85.8855C108.637 84.3597 108.998 82.8851 109.515 81.4787C111.215 82.0471 112.977 82.4433 114.785 82.6559C115.811 82.7767 116.833 82.8357 117.847 82.8357C128.504 82.8355 138.264 76.3271 141.753 66.5241C142.733 63.7705 144.567 61.3345 147.056 59.4795C147.624 59.0557 147.969 58.4147 147.998 57.7267C148.027 57.0385 147.737 56.3731 147.207 55.9071ZM137.103 65.0159C134.026 73.6597 124.892 79.1215 115.384 78.0037C114.123 77.8553 112.889 77.5953 111.692 77.2317C113.487 74.5811 115.938 72.3395 118.92 70.6963C120.094 70.0491 120.497 68.6157 119.818 67.4947C119.141 66.3737 117.639 65.9897 116.465 66.6369C113.984 68.0043 111.783 69.7465 109.926 71.7659C109.94 71.6293 109.953 71.4929 109.969 71.3561C110.596 66.2335 113.291 61.6447 117.559 58.4359C121.853 55.2065 127.208 53.7735 132.634 54.3979C135.949 54.7799 139.062 55.9213 141.768 57.7325C139.662 59.8217 138.07 62.2981 137.103 65.0159Z" fill="#3E5D57"/>
<path d="M107.887 100.196C109.243 100.196 110.342 99.1462 110.342 97.8518C110.342 96.5572 109.243 95.5078 107.887 95.5078C106.531 95.5078 105.432 96.5572 105.432 97.8518C105.432 99.1462 106.531 100.196 107.887 100.196Z" fill="#3E5D57"/>
<path d="M66.5212 69.7255C65.7786 68.8871 64.6932 68.4062 63.5432 68.4062C62.3934 68.4062 61.308 68.8873 60.5654 69.7255L55.6834 75.2387C52.2574 79.1077 52.5132 84.9449 56.266 88.5271C58.2098 90.3825 60.7942 91.4045 63.5432 91.4045C66.2924 91.4045 68.8768 90.3825 70.8206 88.5271C74.5734 84.9447 74.8296 79.1079 71.4034 75.2387L66.5212 69.7255ZM67.3486 85.2129C66.332 86.1831 64.9808 86.7175 63.5432 86.7175C62.106 86.7175 60.7548 86.1831 59.7384 85.2129C57.776 83.3399 57.6422 80.2877 59.4336 78.2647L63.5432 73.6236L67.653 78.2647C69.4446 80.2877 69.3108 83.3399 67.3486 85.2129Z" fill="#3E5D57"/>
</svg>
