<svg width="180" height="180" viewBox="0 0 180 180" fill="none" xmlns="http://www.w3.org/2000/svg">
<path d="M43.7896 118.82L34.1226 114.187C33.065 113.68 31.795 114.12 31.2846 115.17C30.7742 116.219 31.2174 117.48 32.2744 117.987L41.9416 122.62C42.2394 122.763 42.5542 122.83 42.8638 122.83C43.6538 122.83 44.4128 122.391 44.7792 121.637C45.2898 120.588 44.8466 119.327 43.7896 118.82Z" fill="#3E5D57"/>
<path d="M52.6868 113.073L34.1358 104.183C33.0786 103.676 31.8082 104.116 31.2978 105.166C30.7878 106.215 31.231 107.476 32.288 107.983L50.8388 116.872C51.1366 117.015 51.4516 117.083 51.7612 117.083C52.5512 117.083 53.3102 116.643 53.6766 115.89C54.1868 114.84 53.7436 113.579 52.6868 113.073Z" fill="#3E5D57"/>
<path d="M156.799 49.7732L90.924 18.2097C90.34 17.9301 89.66 17.9301 89.0762 18.2097L23.2012 49.7732C22.4668 50.125 22 50.8634 22 51.6728V128.327C22 129.137 22.4668 129.875 23.2012 130.227L89.076 161.79C89.3678 161.93 89.684 162 90 162C90.316 162 90.632 161.93 90.924 161.79L156.799 130.227C157.533 129.875 158 129.137 158 128.327V51.673C158 50.863 157.533 50.1254 156.799 49.7732ZM90 22.4518L150.986 51.6728L133.308 60.1434C133.196 60.0588 133.078 59.9806 132.948 59.9184L72.3758 30.8962L90 22.4518ZM67.576 33.2812L128.474 62.4598L116.001 68.436L55.1286 39.2694L67.576 33.2812ZM129.898 66.4614V88.5524L118.248 94.1348V72.0436L129.898 66.4614ZM153.749 127.004L92.1252 156.53V84.5602L106.825 77.517C107.882 77.0106 108.325 75.7498 107.814 74.7004C107.304 73.6516 106.034 73.2112 104.976 73.718L90 80.894L84.107 78.0704C83.0498 77.5632 81.7794 78.0036 81.269 79.0528C80.7588 80.1018 81.2018 81.3628 82.2588 81.8694L87.8748 84.5602V156.53L26.2506 127.003V55.0334L73.1768 77.518C73.4746 77.6608 73.7894 77.7284 74.0992 77.7284C74.8892 77.7284 75.6482 77.289 76.0146 76.5356C76.5248 75.4864 76.0816 74.2254 75.0246 73.7188L29.0138 51.6728L50.1262 41.5568L113.968 72.1464C113.977 72.1592 113.988 72.1708 113.998 72.1834V97.4956C113.998 98.2216 114.374 98.8962 114.993 99.2824C115.337 99.4968 115.73 99.605 116.123 99.605C116.438 99.605 116.754 99.5356 117.047 99.3952L132.948 91.7764C133.682 91.4246 134.149 90.6866 134.149 89.8768V64.4252L153.749 55.0336V127.004Z" fill="#3E5D57"/>
</svg>
