<svg width="180" height="180" viewBox="0 0 180 180" fill="none" xmlns="http://www.w3.org/2000/svg">
<path d="M148.308 82.133L148.29 82.069C148.102 81.2914 147.525 80.653 146.749 80.3958C146.461 80.3002 139.584 78.0638 129.766 78.7526C120.726 79.3864 107.365 82.7276 95.0402 95.0476C82.716 107.368 79.3738 120.725 78.7402 129.76C78.0518 139.576 80.289 146.45 80.3848 146.737C80.6178 147.44 81.169 147.99 81.8712 148.223C82.1208 148.306 87.323 149.999 95.1026 149.999C96.2954 149.999 97.5492 149.959 98.8544 149.867C107.893 149.234 121.254 145.893 133.579 133.573C155.386 111.774 149.674 86.8982 148.308 82.133ZM124.23 84.1956C126.083 83.8378 127.971 83.5858 129.893 83.443C134.642 83.0904 138.665 83.502 141.405 83.9684C141.288 84.0488 141.175 84.1394 141.072 84.2432L124.23 101.079V84.1956ZM119.541 85.353V105.767L103.825 121.477V93.7732C103.825 93.6964 103.821 93.621 103.813 93.5462C108.677 89.7824 113.932 87.0456 119.541 85.353ZM83.4176 130.088C84.258 118.105 89.2838 107.431 98.356 98.3622C98.6146 98.104 98.8746 97.8496 99.1358 97.5976V126.06C99.1358 126.093 99.1394 126.126 99.1408 126.159L83.9446 141.35C83.4884 138.661 83.0914 134.744 83.4176 130.088ZM98.7272 145.177C94.0072 145.527 90.004 145.122 87.2654 144.659L94.5894 137.338C94.5974 137.338 94.6048 137.339 94.6128 137.339H121.645C114.703 141.93 107.031 144.56 98.7272 145.177ZM130.263 130.258C129.431 131.09 128.585 131.888 127.725 132.652H99.2774L112.885 119.048H138.939C136.784 122.787 133.955 126.567 130.263 130.258ZM141.317 114.361H117.574L144.387 87.5574C144.487 87.4574 144.574 87.3496 144.652 87.2376C145.625 92.8924 146.239 103.172 141.317 114.361Z" fill="#3E5D57"/>
<path d="M84.9596 95.0474C72.635 82.7274 59.2734 79.3862 50.2344 78.7524C40.416 78.0642 33.5386 80.3002 33.2506 80.3956C32.475 80.653 31.8982 81.2914 31.7102 82.0692L31.692 82.133C30.3256 86.8984 24.6144 111.774 46.421 133.573C53.3396 140.489 61.2636 145.296 69.9724 147.86C70.1936 147.926 70.4168 147.956 70.6362 147.956C71.649 147.956 72.5834 147.295 72.8842 146.275C73.2502 145.033 72.5398 143.73 71.2978 143.364C63.3492 141.023 56.095 136.614 49.737 130.258C44.1952 124.718 40.5922 118.975 38.305 113.477H61.5414L72.8578 124.789C73.3156 125.247 73.9156 125.476 74.5156 125.476C75.1156 125.476 75.7158 125.247 76.1734 124.789C77.089 123.874 77.089 122.39 76.1734 121.475L73.5886 118.891V91.656C76.3968 93.5676 79.0842 95.804 81.6436 98.3622C82.5592 99.2774 84.0438 99.2774 84.9596 98.3622C85.8754 97.447 85.875 95.9628 84.9596 95.0474ZM49.9064 83.4288C50.933 83.5006 51.9496 83.6056 52.9568 83.739V98.2668L38.7942 84.1092C38.7402 84.0552 38.6838 84.0048 38.626 83.9572C41.3162 83.5004 45.2414 83.1014 49.9064 83.4288ZM36.6402 108.79V108.79C33.9868 99.8546 34.5366 91.9762 35.3416 87.2724C35.3848 87.324 35.4296 87.3752 35.4782 87.4238L56.8516 108.79H36.6402V108.79ZM68.8996 114.204L57.6458 102.954V84.595C61.5636 85.5164 65.3186 86.9286 68.8996 88.826V114.204Z" fill="#3E5D57"/>
<path d="M74.2614 135.371C69.7306 134.036 65.4292 131.897 61.4764 129.013C60.4304 128.25 58.9638 128.479 58.2004 129.525C57.437 130.571 57.6662 132.037 58.7122 132.8C63.1012 136.003 67.8868 138.381 72.936 139.868C73.157 139.933 73.3802 139.964 73.5998 139.964C74.6126 139.964 75.547 139.302 75.8478 138.282C76.2138 137.04 75.5036 135.736 74.2614 135.371Z" fill="#3E5D57"/>
<path d="M55.8368 124.18L55.8286 124.172C54.913 123.258 53.4328 123.262 52.5166 124.176C51.601 125.091 51.6052 126.579 52.5208 127.494C52.9788 127.951 53.5788 128.18 54.1788 128.18C54.7788 128.18 55.379 127.951 55.8368 127.494C56.7524 126.579 56.7524 125.095 55.8368 124.18Z" fill="#3E5D57"/>
<path d="M60.0246 59.7644H47.3292V49.5696H56.0746C57.3696 49.5696 58.4192 48.5204 58.4192 47.2258C58.4192 45.9314 57.3696 44.8822 56.0746 44.8822H47.3292V34.6874H60.0244C61.3194 34.6874 62.369 33.6382 62.369 32.3436C62.369 31.0492 61.3194 30 60.0244 30H44.9848C43.6898 30 42.6402 31.0492 42.6402 32.3436V62.1078C42.6402 63.4022 43.6898 64.4516 44.9848 64.4516H60.0246C61.3196 64.4516 62.3692 63.4022 62.3692 62.1078C62.3692 60.8134 61.3196 59.7644 60.0246 59.7644Z" fill="#3E5D57"/>
<path d="M120.01 30C110.508 30 102.778 37.7274 102.778 47.2258C102.778 56.7242 110.508 64.4516 120.01 64.4516C129.512 64.4516 137.242 56.7242 137.242 47.2258C137.242 37.7274 129.512 30 120.01 30ZM120.01 59.7644C113.094 59.7644 107.467 54.1396 107.467 47.2258C107.467 40.3118 113.094 34.6872 120.01 34.6872C126.927 34.6872 132.553 40.3118 132.553 47.2258C132.553 54.1396 126.926 59.7644 120.01 59.7644Z" fill="#3E5D57"/>
<path d="M93.6416 56.0918C88.7514 60.9806 80.7934 60.9806 75.9032 56.0918C71.0126 51.2032 71.0126 43.2484 75.9032 38.3596C80.7934 33.4708 88.7512 33.4708 93.6416 38.3596C94.5572 39.2748 96.0418 39.2748 96.9576 38.3596C97.8732 37.4444 97.8732 35.9604 96.9576 35.045C90.2388 28.3288 79.3066 28.3288 72.5876 35.045C65.8688 41.7614 65.8688 52.6898 72.5876 59.406C75.947 62.7644 80.3596 64.4434 84.7726 64.4434C89.1856 64.4434 93.5982 62.7642 96.9578 59.4062C97.8734 58.491 97.8734 57.007 96.9578 56.0916C96.042 55.1766 94.5574 55.1766 93.6416 56.0918Z" fill="#3E5D57"/>
<path d="M90.0174 69.9297C88.7224 69.9297 87.6728 70.9791 87.6728 72.2737V78.9017C87.6728 80.1963 88.7224 81.2457 90.0174 81.2457C91.3122 81.2457 92.3618 80.1963 92.3618 78.9017V72.2737C92.3616 70.9791 91.312 69.9297 90.0174 69.9297Z" fill="#3E5D57"/>
<path d="M103.698 76.3858C102.782 75.4702 101.298 75.4704 100.382 76.3858L95.6012 81.165C94.6858 82.0802 94.6856 83.5644 95.6012 84.4798C96.0592 84.9376 96.6592 85.1662 97.2592 85.1662C97.859 85.1662 98.4592 84.9372 98.917 84.4798L103.697 79.7006C104.613 78.785 104.613 77.3008 103.698 76.3858Z" fill="#3E5D57"/>
<path d="M84.4066 81.0948L79.6178 76.3076C78.702 75.392 77.2176 75.3926 76.302 76.3076C75.3864 77.2228 75.3862 78.707 76.302 79.6222L81.0908 84.4096C81.5486 84.8674 82.1486 85.0962 82.7486 85.0962C83.3486 85.0962 83.9488 84.8672 84.4066 84.4096C85.3222 83.4944 85.3224 82.0102 84.4066 81.0948Z" fill="#3E5D57"/>
</svg>
