<svg width="180" height="180" viewBox="0 0 180 180" fill="none" xmlns="http://www.w3.org/2000/svg">
<path d="M131.31 70.9457C140.554 62.0085 147.664 50.9961 151.87 39.0985C152.168 38.2535 151.944 37.3175 151.291 36.6859C150.637 36.0541 149.669 35.8373 148.795 36.1257C139.088 39.3331 130.125 44.1623 122.157 50.4799C121.122 51.2997 120.971 52.7749 121.819 53.7747C122.667 54.7747 124.194 54.9211 125.228 54.1007C131.372 49.2297 138.141 45.2967 145.407 42.3703C137.207 61.3297 121.363 76.6469 101.751 84.5745C104.702 77.7281 108.644 71.3337 113.509 65.5125C114.35 64.5067 114.188 63.0327 113.147 62.2201C112.106 61.4069 110.582 61.5637 109.741 62.5699C103.401 70.1559 98.5396 78.6613 95.2914 87.8493C95.2574 87.9459 95.2318 88.0441 95.211 88.1427C94.4086 88.9023 93.6036 89.6591 92.7952 90.4121C95.176 83.3615 96.4152 75.9093 96.4152 68.4605C96.4152 57.9623 93.9566 47.4567 89.3052 38.0791C88.9022 37.2669 88.053 36.7503 87.1214 36.7503C86.1896 36.7503 85.3402 37.2669 84.9376 38.0791C80.2858 47.4567 77.8274 57.9623 77.8274 68.4605C77.8274 78.6201 80.1302 88.7863 84.4948 97.9307C79.8046 102.061 75.0182 106.081 70.142 109.988C72.653 102.457 73.9598 94.5083 73.9598 86.5627C73.9598 75.2319 71.3062 63.8939 66.2858 53.7729C65.8828 52.9607 65.0338 52.4439 64.102 52.4439C63.1704 52.4439 62.321 52.9607 61.9182 53.7729C56.898 63.8939 54.2444 75.2319 54.2444 86.5627C54.2444 97.0911 56.537 107.626 60.8892 117.184C55.859 120.979 50.741 124.655 45.5422 128.206C47.664 121.809 48.77 115.062 48.77 108.317C48.77 98.6533 46.5066 88.9819 42.2242 80.3491C41.8214 79.5369 40.9724 79.0203 40.0404 79.0203C39.1086 79.0203 38.2594 79.5369 37.8566 80.3491C33.5744 88.9819 31.3108 98.6533 31.3108 108.317C31.3108 117.143 33.2042 125.972 36.7934 134.014C34.2544 135.652 31.6986 137.263 29.1244 138.842C27.9952 139.535 27.6606 140.981 28.3772 142.073C28.8384 142.776 29.6228 143.16 30.4244 143.16C30.8684 143.16 31.3174 143.043 31.72 142.796C34.3722 141.169 37.0052 139.508 39.6206 137.819C48.467 141.861 58.347 144 68.2214 144C78.2182 144 88.2224 141.812 97.1524 137.672C97.9926 137.283 98.527 136.462 98.527 135.561C98.527 134.66 97.9926 133.839 97.1524 133.45C88.2224 129.31 78.2184 127.122 68.2214 127.122C63.0864 127.122 57.9504 127.704 52.9576 128.826C56.6526 126.227 60.3058 123.565 63.9138 120.842C73.3942 125.085 83.9414 127.325 94.4812 127.325C105.34 127.325 116.207 124.948 125.908 120.451C126.748 120.061 127.282 119.241 127.282 118.34C127.282 117.439 126.748 116.618 125.908 116.228C116.208 111.732 105.34 109.355 94.4812 109.355C88.064 109.355 81.644 110.185 75.4638 111.792C79.3332 108.648 83.1456 105.432 86.8974 102.146C93.5018 105.08 100.526 107.03 107.796 107.944C107.902 107.957 108.007 107.963 108.111 107.963C109.31 107.963 110.351 107.103 110.51 105.923C110.682 104.641 109.747 103.467 108.42 103.3C103.115 102.633 97.9496 101.376 93.0042 99.5519C108.517 93.8497 125.982 93.8497 141.495 99.5519C136.627 101.348 131.546 102.594 126.327 103.268C125.001 103.44 124.07 104.618 124.248 105.899C124.425 107.181 125.644 108.078 126.969 107.91C134.54 106.931 141.843 104.828 148.676 101.661C149.516 101.272 150.051 100.451 150.051 99.5499C150.051 98.6489 149.516 97.8281 148.676 97.4387C138.976 92.9419 128.109 90.5651 117.249 90.5651C110.223 90.5651 103.194 91.5617 96.4792 93.4821C97.6012 92.4347 98.7184 91.3821 99.8286 90.3219C111.575 86.2049 122.433 79.5279 131.31 70.9457ZM40.041 129.279C34.894 115.841 34.894 100.795 40.041 87.3573C45.1878 100.795 45.1878 115.841 40.041 129.279ZM89.904 135.562C76.0034 140.537 60.4402 140.537 46.5398 135.562C60.4402 130.586 76.0036 130.586 89.904 135.562ZM64.1026 112.453C57.458 95.9153 57.458 77.2107 64.1026 60.6725C70.747 77.2107 70.747 95.9153 64.1026 112.453ZM118.721 118.34C103.211 124.041 85.752 124.041 70.2418 118.34C85.7522 112.639 103.211 112.639 118.721 118.34ZM87.1218 91.8941C81.2256 76.9011 81.2262 60.0205 87.1218 45.0271C93.0174 60.0209 93.018 76.9013 87.1218 91.8941Z" fill="#3E5D57"/>
</svg>
