<svg width="180" height="180" viewBox="0 0 180 180" fill="none" xmlns="http://www.w3.org/2000/svg">
<path d="M33.3602 96.1022C31.4044 94.1606 31.4044 91.0016 33.3602 89.061L81.0868 41.68C81.8476 40.9246 81.8476 39.7 81.0868 38.9458C80.326 38.1894 79.0924 38.1904 78.3326 38.9458L30.605 86.3268C27.1316 89.775 27.1316 95.3872 30.605 98.8364L42.6266 110.77C43.006 111.147 43.5052 111.336 44.0032 111.336C44.5024 111.336 45.0004 111.148 45.3808 110.77C46.1416 110.015 46.1416 108.79 45.3808 108.036L33.3602 96.1022Z" fill="#3E5D57"/>
<path d="M71.6486 62.511L42.176 91.7704C41.4152 92.5256 41.4152 93.7502 42.176 94.5056C42.5564 94.8822 43.0546 95.0714 43.5536 95.0714C44.0518 95.0714 44.5498 94.8832 44.9302 94.5056L74.4028 65.2462C75.1636 64.491 75.1636 63.2664 74.4028 62.511C73.643 61.7568 72.4094 61.7568 71.6486 62.511Z" fill="#3E5D57"/>
<path d="M89.4708 59.4169C91.4896 59.4169 93.5082 58.6545 95.045 57.1287L100.941 51.2751C104.014 48.2235 104.014 43.2585 100.941 40.2067C97.867 37.1551 92.866 37.1551 89.7924 40.2067L83.8966 46.0603C82.4076 47.5387 81.5878 49.5037 81.5878 51.5945C81.5878 53.6843 82.4076 55.6501 83.8966 57.1287C85.4336 58.6545 87.4522 59.4169 89.4708 59.4169ZM86.6508 48.7947L92.5466 42.9411C94.1016 41.3973 96.6316 41.3973 98.1856 42.9411C99.7406 44.4851 99.7406 46.9969 98.1856 48.5399L92.2898 54.3933C90.7358 55.9373 88.2058 55.9373 86.6508 54.3933C85.8982 53.6459 85.4832 52.6519 85.4832 51.5945C85.4832 50.5369 85.8982 49.5419 86.6508 48.7947Z" fill="#3E5D57"/>
<path d="M143.09 88.5952H124.341L138.786 74.2544C142.261 70.805 142.261 65.1926 138.786 61.7434L103.378 26.5912C101.695 24.9204 99.457 24 97.0772 24C94.6974 24 92.4598 24.9204 90.7758 26.5912L83.8374 33.4796C83.0776 34.235 83.0776 35.4586 83.8374 36.2138C84.5982 36.9692 85.8316 36.9692 86.5914 36.2138L93.531 29.3254C94.4774 28.3848 95.7372 27.8672 97.0772 27.8672C98.4162 27.8672 99.6762 28.3848 100.624 29.3254L136.031 64.4776C137.987 66.4192 137.987 69.5774 136.031 71.519L118.832 88.5942H69.6124L83.7694 74.5394C84.5302 73.785 84.5302 72.5604 83.7694 71.805C83.0086 71.0498 81.775 71.0498 81.0152 71.805L64.1042 88.5952H57.9964C53.0826 88.5952 49.086 92.563 49.086 97.4404V147.154C49.086 152.031 53.0826 156 57.9964 156H143.09C148.003 156 152 152.031 152 147.154V140.008C152 138.939 151.129 138.074 150.052 138.074C148.977 138.074 148.105 138.939 148.105 140.008V147.154C148.105 149.899 145.856 152.133 143.09 152.133H57.9964C55.2312 152.133 52.9812 149.899 52.9812 147.154V120.022H148.105V132.273C148.105 133.341 148.976 134.207 150.052 134.207C151.129 134.207 152 133.341 152 132.273V97.4414C152 92.563 148.003 88.5952 143.09 88.5952ZM57.9964 92.4624H143.09C145.855 92.4624 148.105 94.696 148.105 97.4414V104.213H52.9812V97.4414C52.9812 94.696 55.2312 92.4624 57.9964 92.4624ZM52.9812 116.155V108.08H148.105V116.155H52.9812Z" fill="#3E5D57"/>
<path d="M126.754 134.203C125.108 134.203 123.768 135.534 123.768 137.168V144.535C123.768 146.171 125.108 147.501 126.754 147.501H138.556C140.202 147.501 141.542 146.171 141.542 144.535V137.168C141.542 135.534 140.202 134.203 138.556 134.203H126.754ZM137.647 143.633H127.663V138.071H137.647V143.633Z" fill="#3E5D57"/>
<path d="M91.172 134.203C89.5256 134.203 88.1856 135.534 88.1856 137.168V144.535C88.1856 146.171 89.5256 147.501 91.172 147.501H116.133C117.78 147.501 119.12 146.171 119.12 144.535V137.168C119.12 135.534 117.78 134.203 116.133 134.203H91.172ZM115.225 143.633H92.0808V138.071H115.225V143.633Z" fill="#3E5D57"/>
<path d="M67.5218 143.633C66.4466 143.633 65.5742 144.499 65.5742 145.566C65.5742 146.634 66.4466 147.499 67.5218 147.499H79.9584C81.0338 147.499 81.9062 146.634 81.9062 145.566C81.9062 144.499 81.0338 143.633 79.9584 143.633H67.5218Z" fill="#3E5D57"/>
</svg>
