<svg width="32" height="32" viewBox="0 0 32 32" fill="none" xmlns="http://www.w3.org/2000/svg">
<path fill-rule="evenodd" clip-rule="evenodd" d="M25.3333 8.66667H22.6667C22.6667 4.98667 19.68 2 16 2C12.32 2 9.33333 4.98667 9.33333 8.66667H6.66667C5.2 8.66667 4 9.86667 4 11.3333V27.3333C4 28.8 5.2 30 6.66667 30H25.3333C26.8 30 28 28.8 28 27.3333V11.3333C28 9.86667 26.8 8.66667 25.3333 8.66667ZM16 4.66667C18.2133 4.66667 20 6.45333 20 8.66667H12C12 6.45333 13.7867 4.66667 16 4.66667ZM9.54667 13C10.28 15.88 12.8933 18 16 18C19.1067 18 21.72 15.88 22.4533 13C22.6667 12.16 22.0267 11.3333 21.16 11.3333C20.5333 11.3333 20.0267 11.7867 19.8533 12.4C19.3867 14.0933 17.84 15.3333 16 15.3333C14.16 15.3333 12.6133 14.0933 12.1467 12.4C11.9733 11.7867 11.4667 11.3333 10.84 11.3333C9.97333 11.3333 9.32 12.16 9.54667 13Z" fill="#3E5D57"/>
</svg>
