<svg width="24" height="24" viewBox="0 0 24 24" fill="none" xmlns="http://www.w3.org/2000/svg">
<path fill-rule="evenodd" clip-rule="evenodd" d="M12.3487 0.0240477C12.0934 0.129874 11.6858 0.774038 11.5538 1.28053C11.4507 1.67603 11.4625 2.38985 11.5782 2.7644C11.7266 3.24459 12.2512 4.40032 12.4608 4.70873C12.8097 5.22231 13.3778 5.65398 13.9981 5.87686C14.1274 5.92331 14.2416 5.96779 14.2519 5.97573C14.2623 5.98367 14.171 6.09687 14.0489 6.22726C13.7143 6.58485 13.6227 6.82168 13.6224 7.33029L13.6221 7.75303L14.2725 9.26654C14.6452 10.1338 14.99 10.8679 15.0801 10.9859C15.3386 11.3243 15.7348 11.5362 16.242 11.6074L16.4649 11.6388L16.3304 11.8096C16.0296 12.1917 15.9718 12.364 15.9736 12.8729L15.9752 13.3426L16.5258 14.6096C16.8286 15.3064 17.0764 15.8963 17.0764 15.9203C17.0764 15.9444 17.0393 15.9316 16.9941 15.8918C16.719 15.6501 16.1191 15.4968 15.7341 15.5699C15.386 15.636 15.3162 15.6694 14.2974 16.2584C13.7795 16.5578 13.3454 16.7924 13.3327 16.7798C13.3201 16.7671 13.4406 16.2634 13.6005 15.6605C13.8632 14.6703 13.8894 14.5301 13.8709 14.2106C13.8544 13.9256 13.8205 13.8009 13.6966 13.5686C13.511 13.2204 13.5066 13.2162 12.6822 12.594C11.9189 12.0178 11.6817 11.91 11.1775 11.91C10.728 11.91 10.6342 11.9491 9.47473 12.6198C8.95133 12.9226 8.52306 13.1472 8.52306 13.1189C8.52306 13.0907 8.65216 12.5904 8.80987 12.0073C9.07395 11.0312 9.09514 10.9173 9.07648 10.5713C9.05609 10.1928 8.97497 9.96453 8.74474 9.63808C8.59684 9.4284 7.20702 8.41194 6.94713 8.32345C6.64147 8.21931 6.13931 8.22378 5.85132 8.33317C5.72542 8.38099 4.70353 8.9508 3.58051 9.59942C2.45744 10.2481 1.50426 10.7919 1.46229 10.808C1.35815 10.8479 1.08068 10.4607 0.976494 10.1301C0.912344 9.92649 0.902804 9.78214 0.9279 9.39435C0.958025 8.92877 0.955111 8.90726 0.844482 8.7787C0.750254 8.66925 0.692214 8.64548 0.519221 8.64548C0.133147 8.64548 0.00151017 8.89551 6.29069e-06 9.63188C-0.0014036 10.3312 0.234189 10.9315 0.695504 11.4037C1.03797 11.7543 2.25277 12.6372 2.62451 12.8056C3.11825 13.0294 3.49079 13.0975 4.05841 13.0678C4.32982 13.0536 4.60869 13.0281 4.67815 13.0112L4.80443 12.9805L4.73746 13.232C4.60897 13.7146 4.68036 14.1653 4.95247 14.5891C5.08439 14.7945 5.33267 15.0018 6.42933 15.822C7.15439 16.3643 7.84279 16.8509 7.9591 16.9034C8.08745 16.9613 8.30918 17.0069 8.52306 17.0193C8.85993 17.0389 9.02742 17.0037 9.4705 16.8205C9.5401 16.7917 9.54344 16.8101 9.50157 16.9912C9.40461 17.4104 9.53442 17.9491 9.82368 18.3282C9.96279 18.5104 12.369 20.3307 12.7147 20.5151C12.8891 20.6081 12.9857 20.6232 13.4107 20.6232C13.8582 20.6232 13.9269 20.6111 14.1493 20.494C14.2841 20.4229 14.4163 20.3648 14.443 20.3648C14.4697 20.3648 14.4916 20.466 14.4916 20.5898C14.4916 21.1239 14.8313 21.9346 15.2523 22.4054C15.5532 22.7419 16.5675 23.51 16.9589 23.6978C17.5772 23.9945 18.4101 24.0823 19.0502 23.9184C19.4505 23.8159 20.1003 23.4954 20.2224 23.3402C20.3733 23.1486 20.3527 22.8909 20.1745 22.741C19.9797 22.5772 19.8063 22.5866 19.4573 22.7798C19.069 22.9948 18.7246 23.0892 18.3281 23.0892C17.9704 23.0892 17.4529 22.9676 17.4515 22.8833C17.449 22.7291 18.514 18.8737 18.5397 18.9441C18.5561 18.9892 18.5904 19.1635 18.6157 19.3315C18.6691 19.6847 18.8158 20.0769 19.1782 20.8345C19.4106 21.3203 19.4775 21.415 19.8426 21.7752C20.4769 22.4008 21.1227 22.67 22.0214 22.6832C22.4612 22.6897 22.4831 22.6851 22.6078 22.5607C22.787 22.382 22.7885 22.1069 22.6111 21.9297C22.4966 21.8153 22.4402 21.8004 22.0012 21.7692C21.7352 21.7503 21.4535 21.7147 21.3752 21.6902C20.9991 21.5723 20.4906 21.2313 20.3334 20.9914L20.2578 20.8762L22.021 19.1057C23.6627 17.4572 23.7917 17.3157 23.8923 17.0533C23.9707 16.849 24.0003 16.6746 24 16.4192C23.9995 16.0355 23.9584 15.9096 23.4902 14.8598C23.1421 14.079 22.9006 13.8232 22.3468 13.6483C22.0808 13.5643 21.9191 13.554 20.869 13.554H19.6899L20.5853 12.6498C21.3888 11.8382 21.4913 11.7167 21.5858 11.4638C21.6735 11.2289 21.6875 11.1155 21.6699 10.7827C21.6504 10.4128 21.6242 10.3267 21.3135 9.61168C21.129 9.18721 20.9226 8.75986 20.8547 8.66202C20.6946 8.43097 20.4608 8.25544 20.1349 8.12143C19.8844 8.01842 19.817 8.01353 18.6319 8.0125L17.3911 8.01137L18.2356 7.15321C19.2634 6.10885 19.3508 5.96488 19.3538 5.31052L19.3557 4.88778L18.9857 4.02783C18.6773 3.31086 18.5796 3.13082 18.3983 2.94524C17.9978 2.53541 17.5563 2.40371 16.6699 2.42968C16.167 2.44443 16.1316 2.45199 16.0135 2.57017C15.8392 2.74448 15.8385 3.03782 16.0119 3.21105C16.1184 3.31753 16.1861 3.33764 16.5126 3.35943L16.8901 3.3847L16.0005 4.27255L15.1108 5.16036L14.8365 5.13133C14.2962 5.07416 13.7935 4.82855 13.4185 4.43846C13.1993 4.21041 13.0138 3.86968 12.6531 3.03242C12.4026 2.45087 12.4002 2.44081 12.4015 1.97556C12.403 1.44629 12.4838 1.2019 12.7744 0.84736C12.9644 0.615651 13.0104 0.467691 12.9454 0.296951C12.8646 0.0845467 12.55 -0.0593733 12.3487 0.0240477ZM14.0216 2.47966C13.957 2.51282 13.8662 2.61743 13.8197 2.71212C13.7448 2.86496 13.7427 2.90179 13.8007 3.04054C13.891 3.25642 14.0023 3.33562 14.2155 3.33562C14.7574 3.33562 14.8148 2.54321 14.2801 2.44518C14.2026 2.431 14.0862 2.4465 14.0216 2.47966ZM18.1482 4.40633C18.5037 5.25045 18.5016 5.24265 18.4379 5.48436C18.3912 5.66159 18.1884 5.88301 16.7798 7.29506C15.897 8.17991 15.1612 8.90383 15.1445 8.90383C15.1142 8.90383 14.5714 7.65852 14.5159 7.46176C14.4999 7.40493 14.5107 7.26754 14.5399 7.15645C14.5867 6.97923 14.7894 6.7578 16.1981 5.34575C17.0808 4.46091 17.8172 3.73699 17.8347 3.73699C17.8521 3.73699 17.9932 4.03817 18.1482 4.40633ZM18.3218 9.79628L17.4298 10.6887H16.8043C15.9884 10.6887 15.8539 10.6203 15.6166 10.0841L15.5224 9.87139L16.0049 9.38763L16.4872 8.90383H17.8505H19.2138L18.3218 9.79628ZM7.43881 9.73569C7.73422 9.96275 8.01597 10.2032 8.06494 10.2701C8.25297 10.5267 8.23492 10.6356 7.62914 12.8964C7.31422 14.0718 7.04282 15.0481 7.02609 15.0658C6.97533 15.1197 5.7859 14.201 5.6874 14.0319C5.63739 13.946 5.59669 13.798 5.59693 13.7031C5.59721 13.6081 5.85386 12.5752 6.16732 11.4077C6.48074 10.2402 6.7372 9.27246 6.7372 9.25715C6.7372 9.20914 6.88505 9.30994 7.43881 9.73569ZM20.5003 10.0361C20.6591 10.4134 20.7886 10.7833 20.788 10.8581C20.7875 10.9328 20.7473 11.0786 20.6989 11.1819C20.5863 11.4218 17.5206 14.4886 17.4602 14.4216C17.3757 14.328 16.8414 12.9993 16.8414 12.8828C16.8414 12.8161 16.8635 12.7021 16.8906 12.6294C16.9476 12.476 20.1373 9.26471 20.1817 9.31586C20.1981 9.33469 20.3414 9.65875 20.5003 10.0361ZM5.71992 9.54968C5.70225 9.6207 5.55717 10.165 5.39757 10.7592L5.10732 11.8395L4.92357 11.9441C4.82253 12.0016 4.58407 12.0835 4.39368 12.1262C3.68348 12.2852 3.04635 12.1048 2.32322 11.54C2.2132 11.4541 2.2124 11.4493 2.29972 11.3958C2.65731 11.1767 5.68726 9.42892 5.71592 9.42521C5.7358 9.42263 5.73759 9.47866 5.71992 9.54968ZM12.1949 13.3721C12.8059 13.8317 12.9242 13.9582 12.9697 14.2008C13.0119 14.426 11.8708 18.7351 11.7783 18.6996C11.6184 18.6383 10.5736 17.8023 10.4942 17.6721C10.4426 17.5875 10.4032 17.4379 10.4031 17.326C10.403 17.2176 10.6567 16.1843 10.9669 15.0297C11.277 13.8751 11.5308 12.9215 11.5308 12.9106C11.5308 12.8779 11.6237 12.9424 12.1949 13.3721ZM10.525 13.1665C10.5112 13.2117 10.3819 13.6925 10.2377 14.2351C10.0935 14.7776 9.95522 15.2859 9.93026 15.3646C9.89337 15.4811 9.78965 15.5626 9.37482 15.801C9.09425 15.9623 8.79075 16.1063 8.70037 16.1209C8.50698 16.1523 8.20348 16.0297 7.96958 15.8256L7.81558 15.6912L7.98401 15.0806C8.07664 14.7447 8.16856 14.4536 8.1883 14.4338C8.24183 14.3798 10.4672 13.0897 10.5118 13.0868C10.5329 13.0854 10.5389 13.1213 10.525 13.1665ZM21.494 14.4812C21.494 14.5003 21.1083 14.9019 20.6368 15.3737L19.7796 16.2313H19.1533C18.7827 16.2313 18.4852 16.2098 18.4244 16.1786C18.2275 16.0775 18.0687 15.889 17.9646 15.6327L17.8598 15.3745L18.3303 14.9105L18.8008 14.4464H20.1474C20.888 14.4464 21.494 14.4621 21.494 14.4812ZM22.8008 15.562C23.1075 16.2877 23.1488 16.5047 23.0245 16.7386C22.9874 16.8084 22.248 17.5727 21.3813 18.437L19.8056 20.0085L19.6863 19.7388C19.3887 19.0664 19.4001 18.3483 19.7184 17.7109C19.7995 17.5483 22.4047 14.8692 22.4816 14.8692C22.4961 14.8692 22.6397 15.1809 22.8008 15.562ZM16.9885 17.0359C17.2892 17.262 17.5794 17.5033 17.6335 17.572C17.8386 17.8326 17.8307 17.8815 17.215 20.18C16.8971 21.3667 16.6187 22.3376 16.5962 22.3376C16.495 22.3376 16.0066 21.9128 15.8254 21.6671C15.5116 21.2415 15.4162 20.9441 15.4152 20.3883C15.4144 19.9415 15.4356 19.8406 15.8478 18.3216C16.0862 17.4432 16.2925 16.6872 16.3062 16.6416C16.3366 16.5411 16.3113 16.5265 16.9885 17.0359ZM15.2212 17.159C15.161 17.3851 15.0224 17.9082 14.9133 18.3216C14.8041 18.7349 14.691 19.098 14.6619 19.1284C14.6328 19.1588 14.3976 19.3067 14.1391 19.457C13.7191 19.7014 13.6413 19.7304 13.4067 19.7305C13.1952 19.7307 13.1083 19.7054 12.9602 19.6005C12.5705 19.3249 12.5898 19.4201 12.7812 18.7152L12.9519 18.0867L14.1095 17.4186C14.7461 17.0511 15.2814 16.75 15.2989 16.7493C15.3164 16.7486 15.2814 16.933 15.2212 17.159ZM18.9456 17.1938C18.9527 17.1997 18.8979 17.3325 18.8238 17.4892L18.689 17.7739L18.6001 17.5076C18.5513 17.3611 18.5045 17.2173 18.4964 17.188C18.4861 17.1514 18.5517 17.1424 18.7071 17.159C18.8312 17.1724 18.9386 17.188 18.9456 17.1938Z" fill="#3E5D57"/>
</svg>
