<svg width="32" height="32" viewBox="0 0 32 32" fill="none" xmlns="http://www.w3.org/2000/svg">
<path fill-rule="evenodd" clip-rule="evenodd" d="M23.4397 7.44008L29.8797 13.8801C30.3863 14.3867 30.6663 15.0667 30.6663 15.7734V18.6667C30.6663 20.1334 29.4663 21.3334 27.9997 21.3334C27.9997 23.5467 26.213 25.3334 23.9997 25.3334C21.7863 25.3334 19.9997 23.5467 19.9997 21.3334H11.9997C11.9997 23.5467 10.213 25.3334 7.99967 25.3334C5.78634 25.3334 3.99967 23.5467 3.99967 21.3334C2.53301 21.3334 1.33301 20.1334 1.33301 18.6667V9.33341C1.33301 7.85341 2.53301 6.66675 3.99967 6.66675H21.5597C22.2663 6.66675 22.9463 6.94675 23.4397 7.44008ZM3.99967 10.6667V13.3334C3.99967 14.0667 4.59967 14.6667 5.33301 14.6667H9.33301V9.33341H5.33301C4.59967 9.33341 3.99967 9.93341 3.99967 10.6667ZM7.99967 23.0001C7.07967 23.0001 6.33301 22.2534 6.33301 21.3334C6.33301 20.4134 7.07967 19.6667 7.99967 19.6667C8.91967 19.6667 9.66634 20.4134 9.66634 21.3334C9.66634 22.2534 8.91967 23.0001 7.99967 23.0001ZM11.9997 14.6667H17.333V9.33341H11.9997V14.6667ZM23.9997 23.0001C23.0797 23.0001 22.333 22.2534 22.333 21.3334C22.333 20.4134 23.0797 19.6667 23.9997 19.6667C24.9197 19.6667 25.6663 20.4134 25.6663 21.3334C25.6663 22.2534 24.9197 23.0001 23.9997 23.0001ZM19.9997 9.33341V14.6667H26.6663L21.333 9.33341H19.9997Z" fill="#3E5D57"/>
</svg>
