<svg width="16" height="16" viewBox="0 0 16 16" fill="none" xmlns="http://www.w3.org/2000/svg">
<path fill-rule="evenodd" clip-rule="evenodd" d="M5.98729 0.0966547C5.85916 0.136405 5.72332 0.276905 5.68713 0.407154C5.67016 0.468279 5.6562 0.626685 5.6561 0.759154L5.65591 1.00003L4.39254 1.00915C3.17273 1.018 3.12619 1.02053 3.04291 1.08275C2.99548 1.11819 2.92766 1.186 2.89222 1.23344C2.82919 1.31781 2.82738 1.36309 2.80935 3.32525C2.79782 4.57887 2.77704 6.33989 2.75394 6.51571C2.58916 7.77033 2.32679 8.78436 1.92154 9.73286C1.48769 10.7483 1.00041 11.5054 0.370973 12.142C0.150441 12.365 0.0515351 12.4891 0.0288789 12.5711C-0.0353087 12.8036 0.110035 13.0581 0.345567 13.1257C0.406848 13.1433 0.954255 13.1563 1.63029 13.1563H2.80819L2.81801 14.4197C2.82876 15.2767 2.82851 15.2755 3.04294 15.4356L3.12926 15.5H9.40592H15.6826L15.7689 15.4356C15.8164 15.4001 15.8842 15.3323 15.9196 15.2848L15.984 15.1985V8.46883V1.31978L15.9196 1.23347C15.8842 1.186 15.8164 1.11819 15.7689 1.08275C15.6857 1.02059 15.6389 1.018 14.4385 1.00915L13.1943 1.00003L13.1819 0.689717C13.1685 0.356686 13.137 0.280092 12.9588 0.14703C12.844 0.0613735 12.5928 0.0613735 12.478 0.14703C12.2997 0.280217 12.2684 0.356561 12.2549 0.691029L12.2424 1.00269H11.0622H9.88195L9.86942 0.691029C9.85598 0.356561 9.82467 0.280217 9.64629 0.14703C9.53154 0.0613735 9.28029 0.0613735 9.16554 0.14703C8.98717 0.280217 8.95586 0.356561 8.94242 0.691029L8.92989 1.00269H7.76529H6.6007L6.58817 0.691029C6.57807 0.439686 6.56338 0.362998 6.51229 0.29453C6.37729 0.113717 6.17645 0.0380298 5.98729 0.0966547ZM5.66116 2.25184C5.6746 2.58631 5.70591 2.66265 5.88429 2.79584C5.99904 2.8815 6.25029 2.8815 6.36504 2.79584C6.54342 2.66265 6.57473 2.58631 6.58817 2.25184L6.6007 1.94018H7.76529H8.92989L8.94242 2.25184C8.95586 2.58631 8.98717 2.66265 9.16554 2.79584C9.28029 2.8815 9.53154 2.8815 9.64629 2.79584C9.82467 2.66265 9.85598 2.58631 9.86942 2.25184L9.88195 1.94018H11.0622H12.2424L12.2549 2.25184C12.2684 2.58631 12.2997 2.66265 12.478 2.79584C12.5928 2.8815 12.844 2.8815 12.9588 2.79584C13.1372 2.66265 13.1685 2.58631 13.1819 2.25184L13.1945 1.94018H14.1283H15.0622V2.87768V4.71883H9.40592H3.74966V2.87768V1.94018H4.69916H5.64863L5.66116 2.25184ZM15.0622 5.76068C15.0622 5.96111 14.9686 6.83127 14.9063 7.21139C14.5976 9.09158 13.7865 10.8918 12.7445 12.0092L12.5465 12.2214L7.0432 12.2123L1.53985 12.2032L1.75329 11.9063C2.87673 10.3435 3.60041 8.17817 3.70769 6.05821L3.72804 5.65633H9.39511H15.0622V5.76068ZM15.0622 12.0626V14.5781H9.40592H3.74966V13.6251V13.1563L8.24185 13.1561C11.3522 13.156 12.7713 13.1456 12.8552 13.1224C12.9937 13.0839 13.3617 12.7344 13.6835 12.3357C14.117 11.7985 14.6833 10.8708 14.9419 10.2741C14.9994 10.1412 15.0501 10.0323 15.0544 10.0319C15.0586 10.0316 15.0622 10.9454 15.0622 12.0626Z" fill="black"/>
</svg>
