<svg width="140" height="140" viewBox="0 0 140 140" fill="none" xmlns="http://www.w3.org/2000/svg">
<path d="M10 25.8576C10 12.7989 12.7989 10 25.8576 10H28.1424C41.2011 10 44 12.7989 44 25.8576V28.1424C44 41.2011 41.2011 44 28.1424 44H25.8576C12.7989 44 10 41.2011 10 28.1424V25.8576Z" stroke="black" stroke-width="2"/>
<path d="M10 69.8576C10 56.7989 12.7989 54 25.8576 54H28.1424C41.2011 54 44 56.7989 44 69.8576V72.1424C44 85.2011 41.2011 88 28.1424 88H25.8576C12.7989 88 10 85.2011 10 72.1424V69.8576Z" stroke="black" stroke-width="2"/>
<path d="M54 25.8576C54 12.7989 56.7165 10 69.3912 10H71.6088C84.2835 10 87 12.7989 87 25.8576V28.1424C87 41.2011 84.2835 44 71.6088 44H69.3912C56.7165 44 54 41.2011 54 28.1424V25.8576Z" stroke="black" stroke-width="2"/>
<path d="M54 69.8576C54 56.7989 56.7165 54 69.3912 54H71.6088C84.2835 54 87 56.7989 87 69.8576V72.1424C87 85.2011 84.2835 88 71.6088 88H69.3912C56.7165 88 54 85.2011 54 72.1424V69.8576Z" stroke="black" stroke-width="2"/>
<path d="M54 113.858C54 100.799 56.7165 98 69.3912 98H71.6088C84.2835 98 87 100.799 87 113.858V116.142C87 129.201 84.2835 132 71.6088 132H69.3912C56.7165 132 54 129.201 54 116.142V113.858Z" stroke="black" stroke-width="2"/>
<path d="M96 25.8576C96 12.7989 98.7989 10 111.858 10H114.142C127.201 10 130 12.7989 130 25.8576V28.1424C130 41.2011 127.201 44 114.142 44H111.858C98.7989 44 96 41.2011 96 28.1424V25.8576Z" stroke="black" stroke-width="2"/>
<path d="M96 69.8576C96 56.7989 98.7989 54 111.858 54H114.142C127.201 54 130 56.7989 130 69.8576V72.1424C130 85.2011 127.201 88 114.142 88H111.858C98.7989 88 96 85.2011 96 72.1424V69.8576Z" stroke="black" stroke-width="2"/>
</svg>
