<svg width="116" height="138" viewBox="0 0 116 138" fill="none" xmlns="http://www.w3.org/2000/svg">
<path d="M51.5 136.5C53.4953 132.302 55.7269 126.185 57.6923 118.5M54.5 16C56.3229 22.0765 57.8091 28.0548 59 33.9063M62.9945 69.5C63.061 72.4956 63.0583 75.4281 62.9945 78.2919M62.9945 69.5C62.748 58.4069 61.5524 46.448 59 33.9063M62.9945 69.5C61.9842 66.4659 58.9986 60.9648 53.5 55.5885M39.5 46C45.3192 48.6737 49.9371 52.1049 53.5 55.5885M62.9945 78.2919C62.7764 88.0696 61.845 97.0462 60.5197 105M62.9945 78.2919C63.4229 74.1707 65.8509 67.0387 71.9616 61.5M86 54.5C79.9666 55.7929 75.3859 58.3963 71.9616 61.5M60.5197 105C59.7021 109.907 58.7346 114.424 57.6923 118.5M60.5197 105C60.2073 101.398 58.0062 96.0503 52.5 91.2163M18 80C35.3669 80.7325 46.139 85.6318 52.5 91.2163M57.6923 118.5C59.3692 116.56 63.1051 113.22 69 109.275M98 94.5C85.3854 99.4176 75.7692 104.745 69 109.275M59 33.9063C66 29.6042 74.1 17 50.5 1C39.5 22.5 47 33.9063 59 33.9063ZM53.5 55.5885C55.6667 47.3924 53 32.2 25 37C32 62.5 42 62.1771 53.5 55.5885ZM71.9616 61.5C69.9744 53.8038 73 40.1292 101 47C92 72 76.9232 68.5 71.9616 61.5ZM52.5 91.2163C53.5 77.3109 43 56.5 1.5 75.5C25 114.5 47.3077 101.433 52.5 91.2163ZM69 109.275C67.1667 97.6832 73.7 77.2 114.5 88C101 125 77.4803 120.05 69 109.275Z" stroke="black" stroke-width="2" stroke-linecap="round" stroke-linejoin="round"/>
</svg>
