<svg width="140" height="140" viewBox="0 0 140 140" fill="none" xmlns="http://www.w3.org/2000/svg">
<path d="M112 24.5C98.883 33.1232 75.5701 51.96 62.0294 73M62.0294 73C56.9886 80.8324 53.3021 88.9702 52 97C45 67 19.5 27.5 12 22.5C7.6 26.5 3.16667 31.1667 1.5 33C13.3333 46.3334 38.5 85.5 44.5 135.5C48.5 135.5 52.8333 135.5 54.5 135.5C56.5 124.667 63.3 98.2 74.5 79C108.5 79 119 58.5 122 39C124.4 23.4 134 10.5 138.5 6.00002C124.5 1.66669 91.3 -2.39998 70.5 16C49.7 34.4 56.1863 61.6667 62.0294 73Z" stroke="black" stroke-width="2" stroke-linecap="round" stroke-linejoin="round"/>
</svg>
