<svg width="140" height="140" viewBox="0 0 140 140" fill="none" xmlns="http://www.w3.org/2000/svg">
<path d="M40.75 39.7499L70 68.9999L99.25 39.7499C106.844 32.156 106.844 19.8438 99.25 12.2499C91.6561 4.65596 79.3439 4.65597 71.75 12.2499L70 13.9999L68.25 12.2499C60.6561 4.65596 48.3439 4.65596 40.75 12.2499C33.1561 19.8438 33.1561 32.156 40.75 39.7499Z" stroke="black" stroke-width="2" stroke-linecap="round" stroke-linejoin="round"/>
<path d="M46.603 34C41.799 29.4247 41.799 22.0067 46.603 17.4315M60 14.8849C57.4555 13.8848 54.6301 13.7324 52 14.4277" stroke="black" stroke-width="2" stroke-linecap="round" stroke-linejoin="round"/>
<path d="M63 120.5C41.6667 124.667 1.09999 118 9.49999 58C21 66.5 30.5 65.5 43 68.5C55.5 71.5 66.5 83.5 67.5 91M63 120.5C63 110 63 102.5 67.5 91M63 120.5C60.3333 113.333 50 96.2 30 85M67.5 91C71 84.3333 78.5 72 99.5 68.5C114.376 66.0207 124 61.5 129.5 56C135.833 82.3333 133.3 134.6 72.5 133C75.7 109.8 97.8333 94.3333 108.5 89.5" stroke="black" stroke-width="2" stroke-linecap="round" stroke-linejoin="round"/>
</svg>
