<svg width="140" height="140" viewBox="0 0 140 140" fill="none" xmlns="http://www.w3.org/2000/svg">
<path d="M73.331 26.4454L50.3501 3.46447C48.3974 1.51185 45.2316 1.51185 43.279 3.46447L5.80232 40.9411C3.84969 42.8938 3.84969 46.0596 5.80231 48.0122L23.8335 66.0434M97.5494 50.6639L111.868 64.9828C113.821 66.9354 113.821 70.1012 111.868 72.0538L111.515 72.4074M60.0728 102.283L67.3206 109.531C69.2732 111.483 72.439 111.483 74.3917 109.531L75.4523 108.47M75.4523 108.47L105.151 138.168M75.4523 108.47L88.1803 95.7419M88.1803 95.7419L111.868 119.43M88.1803 95.7419L99.8475 84.0747M99.8475 84.0747L110.808 95.0348M99.8475 84.0747L111.515 72.4074M111.515 72.4074L132.021 92.9135" stroke="black" stroke-width="2" stroke-linecap="round"/>
<path d="M55.6535 44.8306L64.4955 35.9886M64.4955 35.9886C66.445 34.0357 66.4439 30.8722 64.4924 28.9207L63.7853 28.2136C61.8326 26.2609 58.6668 26.2609 56.7142 28.2136L31.9654 52.9622C23.1266 61.801 25.1038 69.4913 16.7627 76.6503C13.243 79.6712 8.19182 82.3749 5.11207 83.9156C3.89122 84.5264 3.61719 86.1323 4.58247 87.0976L35.9469 118.462C37.0204 119.536 38.8564 119.067 39.467 117.677C40.5502 115.211 42.4453 112.09 45.7539 109.884C52.1178 105.642 57.4212 105.288 63.0781 99.6313L82.17 80.5395C84.1226 78.5868 84.1226 75.421 82.17 73.4684L81.4629 72.7613C79.5118 70.8101 76.3492 70.8087 74.3963 72.7569M64.4955 35.9886L54.2393 46.2448M64.4955 35.9886L75.099 25.3851C77.0516 23.4325 80.2174 23.4325 82.17 25.3851L82.8771 26.0922C84.8298 28.0449 84.8298 31.2107 82.8771 33.1633M82.8771 33.1633L62.0175 54.023M82.8771 33.1633L89.2411 26.7993C91.1937 24.8467 94.3595 24.8467 96.3122 26.7994L97.0193 27.5065C98.9719 29.4591 98.9719 32.6249 97.0193 34.5775L90.6553 40.9415M90.6553 40.9415L69.7956 61.8011M90.6553 40.9415C92.6079 38.9889 95.7738 38.9889 97.7264 40.9415L98.4335 41.6486C100.386 43.6012 100.386 46.767 98.4335 48.7197L74.3963 72.7569M74.3963 72.7569L63.7852 83.3679" stroke="black" stroke-width="2"/>
<path d="M120.354 104.581L125.657 109.885M130.96 115.188L136.264 120.491" stroke="black" stroke-width="2" stroke-linecap="round" stroke-linejoin="round"/>
<path d="M110.871 42.6057L118.371 42.6057M125.872 42.6057L133.371 42.6057" stroke="black" stroke-width="2" stroke-linecap="round" stroke-linejoin="round"/>
<path d="M120.354 120.137L125.657 114.834M130.96 109.531L136.264 104.227" stroke="black" stroke-width="2" stroke-linecap="round" stroke-linejoin="round"/>
<path d="M121.871 53.6057L121.871 46.1057M121.871 38.6056L121.871 31.1056" stroke="black" stroke-width="2" stroke-linecap="round" stroke-linejoin="round"/>
</svg>
