<svg width="140" height="140" viewBox="0 0 140 140" fill="none" xmlns="http://www.w3.org/2000/svg">
<path d="M91 138H51C48.2386 138 46 135.761 46 133V118.5M91 138C102.5 139 123 128.5 121.5 102M91 138C80.3112 138 75.3687 128.535 76.4505 118.5M46 82V72.5398C46 69.9483 47.006 67.4581 48.806 65.5938L51.597 62.7031C52.497 61.771 53 60.5258 53 59.2301V53H89V59.2301C89 60.5258 89.503 61.771 90.403 62.7031L93.194 65.5938C94.994 67.4581 96 69.9483 96 72.5397V82M46 82H96M46 82V116M96 82V93.5M46 116C36.1667 115.833 16.6 109 17 83C36 83 46 90.5 46 116ZM46 116C44.6667 113 39.5 104.6 29.5 95M46 116V118.5M96 93.5C91.5 95.6667 81.6 102.4 78 112C77.2 114.133 76.6844 116.33 76.4505 118.5M96 93.5C98.5 92.5 105.3 90.8 112.5 92M121.5 102C126.5 99 127 93.5 123.5 90.5C120.7 88.1 115.5 88.25 112.5 92M121.5 102C112.5 109.2 103 117 89 126C89 126 101 106.375 112.5 92M46 118.5H76.4505" stroke="black" stroke-width="2" stroke-linecap="round" stroke-linejoin="round"/>
<path d="M47 41C47 37.6863 49.6863 35 53 35H89C92.3137 35 95 37.6863 95 41V53H47V41Z" stroke="black" stroke-width="2" stroke-linejoin="round"/>
<path d="M61 13C61 7.47715 65.4772 3 71 3V3C76.5228 3 81 7.47715 81 13V21V21C81 24.9458 81.9187 28.8374 83.6833 32.3666L85 35H57L58.3167 32.3666C60.0813 28.8374 61 24.9458 61 21V21V13Z" stroke="black" stroke-width="2"/>
</svg>
