<svg width="16" height="16" viewBox="0 0 16 16" fill="none" xmlns="http://www.w3.org/2000/svg">
<path fill-rule="evenodd" clip-rule="evenodd" d="M7.38461 0.0192077C6.94726 0.0532759 6.40912 0.147245 5.94071 0.2714C3.74578 0.853128 1.85611 2.40198 0.835729 4.45569C-0.693422 7.53335 -0.0874099 11.2086 2.35273 13.6557C3.58357 14.8901 5.12208 15.6621 6.88135 15.928C7.51661 16.024 8.49131 16.024 9.12657 15.928C10.8892 15.6616 12.4086 14.899 13.656 13.6549C14.8917 12.4225 15.6618 10.8872 15.928 9.12569C16.024 8.49036 16.024 7.51553 15.928 6.8802C15.7366 5.61335 15.314 4.53002 14.607 3.49392C13.5006 1.87242 11.8146 0.697785 9.92945 0.235046C9.14664 0.0429114 8.15753 -0.0410066 7.38461 0.0192077ZM8.8493 0.971302C10.078 1.11835 11.2386 1.58572 12.2619 2.34565C12.6441 2.62944 13.3768 3.36222 13.6605 3.74442C14.598 5.00713 15.0797 6.45281 15.0797 8.00295C15.0797 9.55365 14.5959 11.0046 13.6598 12.2615C13.3725 12.6472 12.6407 13.3796 12.2619 13.6605C10.9982 14.5975 9.55177 15.0796 8.00396 15.0796C6.4517 15.0796 5.01103 14.5987 3.74597 13.6581C3.36497 13.3748 2.63467 12.6448 2.34879 12.2615C1.40949 11.0019 0.930124 9.56298 0.930124 8.00295C0.930124 6.44245 1.4052 5.01474 2.34713 3.74442C2.62803 3.36557 3.3604 2.63363 3.74597 2.34637C4.75117 1.59749 5.9177 1.12398 7.12731 0.97387C7.56633 0.919385 8.40493 0.918133 8.8493 0.971302ZM7.85844 1.93019C7.7157 1.97296 7.574 2.14869 7.54926 2.31358C7.53793 2.38917 7.53345 2.67763 7.53931 2.95459C7.55092 3.50234 7.56379 3.54486 7.76313 3.69372C7.8781 3.77955 8.12982 3.77955 8.24479 3.69372C8.45296 3.53825 8.45794 3.51828 8.45794 2.83635C8.45794 2.25731 8.45352 2.20875 8.39338 2.12821C8.25534 1.94328 8.05825 1.87032 7.85844 1.93019ZM3.81541 3.60861C3.39262 3.81703 3.5461 4.46461 4.01829 4.46461C4.29021 4.46461 4.46573 4.29148 4.46595 4.02304C4.46623 3.68204 4.11732 3.45979 3.81541 3.60861ZM11.7929 3.60962C11.3707 3.82859 11.5099 4.46398 11.9802 4.4643C12.2255 4.46445 12.408 4.30539 12.4405 4.06309C12.4866 3.71937 12.1015 3.44964 11.7929 3.60962ZM7.86633 4.74664C7.73796 4.78647 7.60186 4.92726 7.56561 5.05777C7.524 5.2076 7.52406 7.98319 7.56567 8.12832C7.58987 8.21274 7.9374 8.57819 9.09197 9.73351C10.3194 10.9617 10.6079 11.2351 10.7043 11.2613C11.0249 11.3484 11.3305 11.061 11.2722 10.7274C11.2559 10.634 11.045 10.4088 9.86429 9.22414L8.47556 7.83073L8.46677 6.43174C8.45819 5.07474 8.456 5.03015 8.39338 4.94633C8.257 4.76368 8.05643 4.68771 7.86633 4.74664ZM2.23075 7.56454C1.89731 7.66887 1.80608 8.11057 2.07008 8.34241C2.20871 8.46415 2.32759 8.48097 2.95624 8.46766C3.50392 8.45604 3.54644 8.44317 3.69528 8.2438C3.7811 8.12882 3.7811 7.87707 3.69528 7.76209C3.54275 7.55777 3.51247 7.54951 2.89062 7.54256C2.57756 7.53905 2.28063 7.54894 2.23075 7.56454ZM12.5626 7.56454C12.2292 7.66887 12.138 8.11057 12.402 8.34241C12.5406 8.46415 12.6595 8.48097 13.2881 8.46766C13.8358 8.45604 13.8783 8.44317 14.0272 8.2438C14.113 8.12882 14.113 7.87707 14.0272 7.76209C13.8746 7.55777 13.8444 7.54951 13.2225 7.54256C12.9094 7.53905 12.6125 7.54894 12.5626 7.56454ZM3.7868 11.6025C3.41068 11.8319 3.53786 12.3952 3.97581 12.4396C4.13974 12.4562 4.29826 12.3782 4.395 12.2334C4.53401 12.0253 4.45809 11.6975 4.24544 11.5875C4.11983 11.5225 3.90655 11.5295 3.7868 11.6025ZM11.7391 11.6027C11.545 11.721 11.4796 12.0181 11.6031 12.2206C11.8324 12.5968 12.3956 12.4696 12.44 12.0316C12.4768 11.6689 12.0543 11.4104 11.7391 11.6027ZM7.85844 12.2634C7.7157 12.3062 7.574 12.4819 7.54926 12.6468C7.53793 12.7224 7.53345 13.0108 7.53931 13.2878C7.55092 13.8355 7.56379 13.8781 7.76313 14.0269C7.8781 14.1127 8.12982 14.1127 8.24479 14.0269C8.45296 13.8714 8.45794 13.8515 8.45794 13.1695C8.45794 12.5905 8.45352 12.5419 8.39338 12.4614C8.25534 12.2765 8.05825 12.2035 7.85844 12.2634Z" fill="black"/>
</svg>
