<svg width="32" height="32" viewBox="0 0 32 32" fill="none" xmlns="http://www.w3.org/2000/svg">
<path d="M8.51299 7.02504L8.37167 6.81881L8.51299 7.02504ZM22.9473 28.4268L22.806 28.2205L22.9473 28.4268ZM1.192 19.189C1.0781 19.2671 1.04904 19.4227 1.12708 19.5366C1.20513 19.6505 1.36073 19.6795 1.47463 19.6015L1.192 19.189ZM6.38871 15.9312L6.2474 15.7249L6.38871 15.9312ZM10.433 13.1599L10.6403 13.0201C10.603 12.9649 10.5453 12.9268 10.4798 12.9143C10.4144 12.9018 10.3467 12.916 10.2917 12.9536L10.433 13.1599ZM17.6502 23.8607L17.7915 24.067C17.9048 23.9893 17.9342 23.8348 17.8574 23.7209L17.6502 23.8607ZM8.40916 29.8899C8.29526 29.9679 8.2662 30.1235 8.34424 30.2374C8.42229 30.3513 8.57789 30.3804 8.69178 30.3024L8.40916 29.8899ZM13.1026 8.35033L13.3526 8.34809L13.1026 8.35033ZM13.892 1.84894L14.0445 1.65082V1.65082L13.892 1.84894ZM17.5106 8.31013L17.2628 8.34312C17.2742 8.42922 17.3296 8.50319 17.4089 8.53852C17.4883 8.57384 17.5802 8.56545 17.6519 8.51636L17.5106 8.31013ZM22.566 4.84606L22.7073 5.05228L22.7073 5.05228L22.566 4.84606ZM24.7899 7.04747L24.9312 7.2537L24.7899 7.04747ZM22.1209 8.57329C22.007 8.65134 21.9779 8.80694 22.056 8.92084C22.134 9.03473 22.2896 9.0638 22.4035 8.98575L22.1209 8.57329ZM26.5083 9.59529L26.6496 9.80152L26.5083 9.59529ZM23.8393 11.1211C23.7254 11.1992 23.6963 11.3548 23.7744 11.4687C23.8524 11.5826 24.008 11.6116 24.1219 11.5336L23.8393 11.1211ZM28.2267 12.1431L28.368 12.3493L28.2267 12.1431ZM26.71 13.1823L26.8513 13.3886L26.71 13.1823ZM25.0521 14.0154C24.9382 14.0934 24.9091 14.249 24.9872 14.3629C25.0652 14.4768 25.2208 14.5059 25.3347 14.4278L25.0521 14.0154ZM28.4284 15.7302L28.5697 15.9364L28.4284 15.7302ZM22.3619 19.8871L22.2206 19.6809L22.3619 19.8871ZM16.6192 22.3321L16.4119 22.4719L16.6192 22.3321ZM8.6543 7.23126C9.76487 6.47027 10.9526 5.91264 12.1742 5.54973L12.0319 5.07043C10.7607 5.44803 9.52565 6.02806 8.37167 6.81881L8.6543 7.23126ZM16.3685 5.05209C17.9269 5.13307 19.463 5.50465 20.8919 6.15051L21.0978 5.69489C19.6121 5.02332 18.0149 4.63697 16.3944 4.55276L16.3685 5.05209ZM28.1708 15.7754C28.8913 20.4675 26.9583 25.3753 22.806 28.2205L23.0886 28.633C27.4063 25.6744 29.4134 20.573 28.665 15.6995L28.1708 15.7754ZM3.15436 18.3075C2.96478 14.0516 4.9047 9.8006 8.6543 7.23126L8.37167 6.81881C4.47273 9.49048 2.45796 13.9096 2.65486 18.3298L3.15436 18.3075ZM22.806 28.2205C18.8521 30.9299 13.9145 31.0645 9.94461 28.9983L9.71377 29.4418C13.841 31.5899 18.9765 31.4507 23.0886 28.633L22.806 28.2205ZM1.47463 19.6015L6.53002 16.1374L6.2474 15.7249L1.192 19.189L1.47463 19.6015ZM6.53002 16.1374L10.5743 13.3661L10.2917 12.9536L6.2474 15.7249L6.53002 16.1374ZM17.5089 23.6545L13.4646 26.4258L13.7472 26.8382L17.7915 24.067L17.5089 23.6545ZM13.4646 26.4258L8.40916 29.8899L8.69178 30.3024L13.7472 26.8382L13.4646 26.4258ZM6.18144 16.071L13.3986 26.7718L13.8131 26.4922L6.59597 15.7914L6.18144 16.071ZM10.2258 13.2997L11.2568 14.8284L11.6713 14.5488L10.6403 13.0201L10.2258 13.2997ZM11.6959 14.782C11.9751 14.089 12.3917 12.9405 12.7369 11.7404C13.0801 10.5473 13.361 9.27573 13.3526 8.34809L12.8527 8.35258C12.8603 9.20215 12.5983 10.4136 12.2564 11.6022C11.9165 12.7838 11.5058 13.9159 11.2322 14.5951L11.6959 14.782ZM13.3526 8.34809C13.3421 7.16897 12.8378 6.14271 12.3397 5.26635C12.0851 4.8185 11.8413 4.4252 11.6413 4.04381C11.4427 3.66528 11.308 3.33514 11.2685 3.03843L10.7728 3.10442C10.8242 3.49049 10.9927 3.8839 11.1985 4.27608C11.4027 4.66539 11.6643 5.08993 11.905 5.51343C12.3974 6.37976 12.8433 7.31018 12.8527 8.35258L13.3526 8.34809ZM11.2685 3.03843C11.1914 2.4593 11.4728 1.96076 11.9265 1.72689C12.3743 1.49605 13.0342 1.50425 13.7396 2.04707L14.0445 1.65082C13.2133 1.01114 12.3466 0.947813 11.6974 1.28246C11.0541 1.61407 10.6681 2.31802 10.7728 3.10442L11.2685 3.03843ZM13.7396 2.04707C14.2186 2.41567 15.0136 3.3205 15.7368 4.48304C16.4583 5.64287 17.0875 7.02652 17.2628 8.34312L17.7584 8.27714C17.5701 6.86269 16.9022 5.40988 16.1614 4.21894C15.4222 3.03072 14.5898 2.07048 14.0445 1.65082L13.7396 2.04707ZM17.6519 8.51636L22.7073 5.05228L22.4247 4.63983L17.3693 8.1039L17.6519 8.51636ZM22.7073 5.05228C23.626 4.42277 24.5534 4.62459 25.0187 5.08519C25.2514 5.31555 25.3655 5.60405 25.3316 5.89511C25.2978 6.185 25.1112 6.52424 24.6486 6.84124L24.9312 7.2537C25.4797 6.87788 25.7735 6.42232 25.8282 5.95303C25.8828 5.48491 25.6937 5.04985 25.3704 4.72985C24.7238 4.08973 23.5282 3.88366 22.4247 4.63983L22.7073 5.05228ZM24.6486 6.84124L22.1209 8.57329L22.4035 8.98575L24.9312 7.2537L24.6486 6.84124ZM24.9312 7.2537C25.3925 6.93763 25.8154 6.85892 26.1567 6.91305C26.4997 6.96747 26.781 7.15889 26.9585 7.42194C27.1359 7.68504 27.2096 8.02019 27.1332 8.36348C27.0572 8.70495 26.8282 9.07304 26.367 9.38906L26.6496 9.80152C27.1995 9.42472 27.5139 8.95472 27.6213 8.47206C27.7283 7.99122 27.6251 7.51621 27.373 7.14236C27.1208 6.76845 26.7198 6.49612 26.235 6.41923C25.7486 6.34206 25.1984 6.46448 24.6486 6.84124L24.9312 7.2537ZM26.367 9.38906L23.8393 11.1211L24.1219 11.5336L26.6496 9.80152L26.367 9.38906ZM26.6496 9.80152C27.1112 9.48523 27.4937 9.4337 27.7831 9.50535C28.0759 9.57787 28.3177 9.78742 28.4744 10.0784C28.7952 10.674 28.7141 11.506 28.0853 11.9369L28.368 12.3493C29.2558 11.741 29.3266 10.6063 28.9146 9.84132C28.705 9.45208 28.3592 9.13293 27.9032 9.02001C27.4438 8.90623 26.9165 9.01253 26.367 9.38906L26.6496 9.80152ZM28.0853 11.9369L26.5687 12.9761L26.8513 13.3886L28.368 12.3493L28.0853 11.9369ZM26.5687 12.9761L25.0521 14.0154L25.3347 14.4278L26.8513 13.3886L26.5687 12.9761ZM26.8513 13.3886C27.3126 13.0725 27.7356 12.9938 28.0768 13.0479C28.4198 13.1023 28.7012 13.2938 28.8786 13.5568C29.056 13.8199 29.1297 14.1551 29.0533 14.4984C28.9774 14.8398 28.7483 15.2079 28.2871 15.5239L28.5697 15.9364C29.1196 15.5596 29.434 15.0896 29.5414 14.6069C29.6484 14.1261 29.5452 13.6511 29.2931 13.2772C29.0409 12.9033 28.6399 12.631 28.1552 12.5541C27.6687 12.4769 27.1185 12.5994 26.5687 12.9761L26.8513 13.3886ZM28.2871 15.5239L22.2206 19.6809L22.5032 20.0933L28.5697 15.9364L28.2871 15.5239ZM11.2568 14.8284L16.4119 22.4719L16.8264 22.1923L11.6713 14.5488L11.2568 14.8284ZM16.4119 22.4719L17.4429 24.0005L17.8574 23.7209L16.8264 22.1923L16.4119 22.4719ZM22.2206 19.6809C20.9909 20.5235 20.0924 20.7792 19.2391 20.9973C18.3739 21.2183 17.5297 21.4051 16.4779 22.1258L16.7605 22.5383C17.7308 21.8734 18.4941 21.7037 19.3629 21.4817C20.2434 21.2567 21.2052 20.9828 22.5032 20.0933L22.2206 19.6809Z" fill="black"/>
</svg>
