<svg style="display: none;" aria-hidden="true" xmlns="http://www.w3.org/2000/svg" xmlns:xlink="http://www.w3.org/1999/xlink"><symbol viewBox="0 0 24 24" fill="none" id="svg-belki"><path fill-rule="evenodd" clip-rule="evenodd" d="M12.3487 0.0240477C12.0934 0.129874 11.6858 0.774038 11.5538 1.28053C11.4507 1.67603 11.4625 2.38985 11.5782 2.7644C11.7266 3.24459 12.2512 4.40032 12.4608 4.70873C12.8097 5.22231 13.3778 5.65398 13.9981 5.87686C14.1274 5.92331 14.2416 5.96779 14.2519 5.97573C14.2623 5.98367 14.171 6.09687 14.0489 6.22726C13.7143 6.58485 13.6227 6.82168 13.6224 7.33029L13.6221 7.75303L14.2725 9.26654C14.6452 10.1338 14.99 10.8679 15.0801 10.9859C15.3386 11.3243 15.7348 11.5362 16.242 11.6074L16.4649 11.6388L16.3304 11.8096C16.0296 12.1917 15.9718 12.364 15.9736 12.8729L15.9752 13.3426L16.5258 14.6096C16.8286 15.3064 17.0764 15.8963 17.0764 15.9203C17.0764 15.9444 17.0393 15.9316 16.9941 15.8918C16.719 15.6501 16.1191 15.4968 15.7341 15.5699C15.386 15.636 15.3162 15.6694 14.2974 16.2584C13.7795 16.5578 13.3454 16.7924 13.3327 16.7798C13.3201 16.7671 13.4406 16.2634 13.6005 15.6605C13.8632 14.6703 13.8894 14.5301 13.8709 14.2106C13.8544 13.9256 13.8205 13.8009 13.6966 13.5686C13.511 13.2204 13.5066 13.2162 12.6822 12.594C11.9189 12.0178 11.6817 11.91 11.1775 11.91C10.728 11.91 10.6342 11.9491 9.47473 12.6198C8.95133 12.9226 8.52306 13.1472 8.52306 13.1189C8.52306 13.0907 8.65215 12.5904 8.80987 12.0073C9.07395 11.0312 9.09514 10.9173 9.07648 10.5713C9.05609 10.1928 8.97497 9.96453 8.74474 9.63808C8.59684 9.4284 7.20702 8.41194 6.94713 8.32345C6.64147 8.21931 6.13931 8.22378 5.85132 8.33317C5.72542 8.38099 4.70353 8.9508 3.58051 9.59943C2.45744 10.2481 1.50426 10.7919 1.46229 10.808C1.35815 10.8479 1.08068 10.4607 0.976494 10.1301C0.912344 9.92649 0.902804 9.78214 0.9279 9.39435C0.958025 8.92877 0.955111 8.90726 0.844482 8.7787C0.750254 8.66925 0.692214 8.64548 0.519221 8.64548C0.133147 8.64548 0.00151017 8.89551 6.29069e-06 9.63188C-0.0014036 10.3312 0.234189 10.9315 0.695504 11.4037C1.03797 11.7543 2.25277 12.6372 2.62451 12.8056C3.11825 13.0294 3.49079 13.0975 4.05841 13.0678C4.32982 13.0536 4.60869 13.0281 4.67815 13.0112L4.80443 12.9805L4.73746 13.232C4.60897 13.7146 4.68036 14.1653 4.95247 14.5891C5.08439 14.7945 5.33267 15.0018 6.42933 15.822C7.15439 16.3643 7.84279 16.8509 7.9591 16.9034C8.08745 16.9613 8.30918 17.0069 8.52306 17.0193C8.85993 17.0389 9.02742 17.0037 9.4705 16.8205C9.5401 16.7917 9.54344 16.8101 9.50156 16.9912C9.40461 17.4104 9.53442 17.9491 9.82368 18.3282C9.96279 18.5104 12.369 20.3307 12.7147 20.5151C12.8891 20.6081 12.9857 20.6232 13.4107 20.6232C13.8582 20.6232 13.9269 20.6111 14.1493 20.494C14.2841 20.4229 14.4163 20.3648 14.443 20.3648C14.4697 20.3648 14.4916 20.466 14.4916 20.5898C14.4916 21.1239 14.8313 21.9346 15.2523 22.4054C15.5532 22.7419 16.5675 23.51 16.9589 23.6978C17.5772 23.9945 18.4101 24.0823 19.0502 23.9184C19.4505 23.8159 20.1003 23.4954 20.2224 23.3402C20.3733 23.1486 20.3527 22.8909 20.1745 22.741C19.9797 22.5772 19.8063 22.5866 19.4573 22.7798C19.069 22.9948 18.7246 23.0892 18.3281 23.0892C17.9704 23.0892 17.4529 22.9676 17.4515 22.8833C17.449 22.7291 18.514 18.8737 18.5397 18.9441C18.5561 18.9892 18.5904 19.1635 18.6157 19.3315C18.6691 19.6847 18.8158 20.0769 19.1782 20.8345C19.4106 21.3203 19.4775 21.415 19.8426 21.7752C20.4769 22.4008 21.1227 22.67 22.0214 22.6832C22.4612 22.6897 22.4831 22.6851 22.6078 22.5607C22.787 22.382 22.7885 22.1069 22.6111 21.9297C22.4966 21.8153 22.4402 21.8004 22.0012 21.7692C21.7352 21.7503 21.4535 21.7147 21.3752 21.6902C20.9991 21.5723 20.4906 21.2313 20.3334 20.9914L20.2578 20.8762L22.021 19.1057C23.6627 17.4572 23.7917 17.3157 23.8923 17.0533C23.9707 16.849 24.0003 16.6746 24 16.4192C23.9995 16.0355 23.9584 15.9096 23.4902 14.8598C23.1421 14.079 22.9006 13.8232 22.3468 13.6483C22.0808 13.5643 21.9191 13.554 20.869 13.554H19.6899L20.5853 12.6498C21.3888 11.8382 21.4913 11.7167 21.5858 11.4638C21.6735 11.2289 21.6875 11.1155 21.6699 10.7827C21.6504 10.4128 21.6242 10.3267 21.3135 9.61168C21.129 9.18721 20.9226 8.75986 20.8547 8.66202C20.6946 8.43097 20.4608 8.25544 20.1349 8.12143C19.8844 8.01842 19.817 8.01353 18.6319 8.0125L17.3911 8.01137L18.2356 7.15321C19.2634 6.10885 19.3508 5.96488 19.3538 5.31052L19.3557 4.88778L18.9857 4.02783C18.6773 3.31086 18.5796 3.13082 18.3983 2.94524C17.9978 2.53541 17.5563 2.40371 16.6699 2.42968C16.167 2.44443 16.1316 2.45199 16.0135 2.57017C15.8392 2.74448 15.8385 3.03782 16.0119 3.21105C16.1184 3.31753 16.1861 3.33764 16.5126 3.35943L16.8901 3.3847L16.0005 4.27255L15.1108 5.16036L14.8365 5.13133C14.2962 5.07416 13.7935 4.82855 13.4185 4.43846C13.1993 4.21041 13.0138 3.86968 12.6531 3.03242C12.4026 2.45087 12.4002 2.44081 12.4015 1.97556C12.403 1.44629 12.4838 1.2019 12.7744 0.84736C12.9644 0.615651 13.0104 0.467691 12.9454 0.296951C12.8646 0.0845467 12.55 -0.0593733 12.3487 0.0240477ZM14.0216 2.47966C13.957 2.51282 13.8662 2.61743 13.8197 2.71212C13.7448 2.86496 13.7427 2.90179 13.8007 3.04054C13.891 3.25642 14.0023 3.33562 14.2155 3.33562C14.7574 3.33562 14.8148 2.54321 14.2801 2.44518C14.2026 2.431 14.0862 2.4465 14.0216 2.47966ZM18.1482 4.40633C18.5037 5.25045 18.5016 5.24265 18.4379 5.48436C18.3912 5.66159 18.1884 5.88301 16.7798 7.29506C15.897 8.17991 15.1612 8.90383 15.1445 8.90383C15.1142 8.90383 14.5714 7.65852 14.5159 7.46176C14.4999 7.40493 14.5107 7.26754 14.5399 7.15645C14.5867 6.97923 14.7894 6.7578 16.1981 5.34575C17.0808 4.46091 17.8172 3.73699 17.8347 3.73699C17.8521 3.73699 17.9932 4.03817 18.1482 4.40633ZM18.3218 9.79628L17.4298 10.6887H16.8043C15.9884 10.6887 15.8539 10.6203 15.6166 10.0841L15.5224 9.87139L16.0049 9.38763L16.4872 8.90383H17.8505H19.2138L18.3218 9.79628ZM7.43881 9.73569C7.73422 9.96275 8.01597 10.2032 8.06494 10.2701C8.25297 10.5267 8.23492 10.6356 7.62914 12.8964C7.31422 14.0718 7.04282 15.0481 7.02609 15.0658C6.97533 15.1197 5.7859 14.201 5.6874 14.0319C5.63739 13.946 5.59669 13.798 5.59693 13.7031C5.59721 13.6081 5.85386 12.5752 6.16732 11.4077C6.48074 10.2402 6.7372 9.27246 6.7372 9.25714C6.7372 9.20914 6.88505 9.30994 7.43881 9.73569ZM20.5003 10.0361C20.6591 10.4134 20.7886 10.7833 20.788 10.8581C20.7875 10.9328 20.7473 11.0786 20.6989 11.1819C20.5863 11.4218 17.5206 14.4886 17.4602 14.4216C17.3757 14.328 16.8414 12.9993 16.8414 12.8828C16.8414 12.8161 16.8635 12.7021 16.8906 12.6294C16.9476 12.476 20.1373 9.26471 20.1817 9.31586C20.1981 9.33469 20.3414 9.65875 20.5003 10.0361ZM5.71992 9.54968C5.70225 9.6207 5.55717 10.165 5.39757 10.7592L5.10732 11.8395L4.92357 11.9441C4.82253 12.0016 4.58407 12.0835 4.39368 12.1262C3.68348 12.2852 3.04635 12.1048 2.32322 11.54C2.2132 11.4541 2.2124 11.4493 2.29972 11.3958C2.65731 11.1767 5.68726 9.42892 5.71592 9.42521C5.7358 9.42263 5.73759 9.47866 5.71992 9.54968ZM12.1949 13.3721C12.8059 13.8317 12.9242 13.9582 12.9697 14.2008C13.0119 14.426 11.8708 18.7351 11.7783 18.6996C11.6184 18.6383 10.5736 17.8023 10.4942 17.6721C10.4426 17.5875 10.4032 17.4379 10.4031 17.326C10.403 17.2176 10.6567 16.1843 10.9669 15.0297C11.277 13.8751 11.5308 12.9215 11.5308 12.9106C11.5308 12.8779 11.6237 12.9424 12.1949 13.3721ZM10.525 13.1665C10.5112 13.2117 10.3819 13.6925 10.2377 14.2351C10.0935 14.7776 9.95522 15.2859 9.93026 15.3646C9.89337 15.4811 9.78965 15.5626 9.37482 15.801C9.09425 15.9623 8.79075 16.1063 8.70037 16.1209C8.50698 16.1523 8.20348 16.0297 7.96958 15.8256L7.81558 15.6912L7.98401 15.0806C8.07664 14.7447 8.16856 14.4536 8.1883 14.4338C8.24183 14.3798 10.4672 13.0897 10.5118 13.0868C10.5329 13.0854 10.5389 13.1213 10.525 13.1665ZM21.494 14.4812C21.494 14.5003 21.1083 14.9019 20.6368 15.3737L19.7796 16.2313H19.1533C18.7827 16.2313 18.4852 16.2098 18.4244 16.1786C18.2275 16.0775 18.0687 15.889 17.9646 15.6327L17.8598 15.3745L18.3303 14.9105L18.8008 14.4464H20.1474C20.8881 14.4464 21.494 14.4621 21.494 14.4812ZM22.8008 15.562C23.1075 16.2877 23.1488 16.5047 23.0245 16.7386C22.9874 16.8084 22.248 17.5727 21.3813 18.437L19.8056 20.0085L19.6863 19.7388C19.3887 19.0664 19.4001 18.3483 19.7184 17.7109C19.7995 17.5483 22.4047 14.8692 22.4816 14.8692C22.4961 14.8692 22.6397 15.1809 22.8008 15.562ZM16.9885 17.0359C17.2892 17.262 17.5794 17.5033 17.6335 17.572C17.8386 17.8326 17.8307 17.8815 17.215 20.18C16.8971 21.3667 16.6187 22.3376 16.5962 22.3376C16.495 22.3376 16.0065 21.9128 15.8254 21.6671C15.5116 21.2415 15.4162 20.9441 15.4152 20.3883C15.4144 19.9415 15.4356 19.8406 15.8478 18.3216C16.0862 17.4432 16.2925 16.6873 16.3062 16.6416C16.3366 16.5411 16.3113 16.5265 16.9885 17.0359ZM15.2212 17.159C15.161 17.3851 15.0224 17.9082 14.9133 18.3216C14.8041 18.7349 14.691 19.098 14.6619 19.1284C14.6328 19.1588 14.3976 19.3067 14.1391 19.457C13.7191 19.7014 13.6413 19.7304 13.4067 19.7305C13.1952 19.7307 13.1083 19.7054 12.9602 19.6005C12.5705 19.3249 12.5898 19.4201 12.7812 18.7152L12.9519 18.0867L14.1095 17.4186C14.7461 17.0511 15.2814 16.75 15.2989 16.7493C15.3164 16.7486 15.2814 16.933 15.2212 17.159ZM18.9456 17.1938C18.9527 17.1997 18.8979 17.3325 18.8238 17.4892L18.689 17.7739L18.6001 17.5076C18.5513 17.3611 18.5045 17.2173 18.4964 17.188C18.4861 17.1514 18.5517 17.1424 18.7071 17.159C18.8312 17.1724 18.9386 17.188 18.9456 17.1938Z" fill="#3E5D57"/></symbol><symbol viewBox="0 0 16 16" fill="none" id="svg-box"><path fill-rule="evenodd" clip-rule="evenodd" d="M6.15598 0.0779167C6.05015 0.128745 4.65751 0.787873 3.06123 1.54263C1.46495 2.29738 0.123148 2.94904 0.0794692 2.99076C0.0206851 3.04682 0 3.10008 0 3.19532C0 3.32045 0.0205889 3.34463 0.736646 4.06116L1.47326 4.79825L0.736646 5.53534C0.0205889 6.25187 0 6.27604 0 6.40117C0 6.49658 0.0205889 6.54943 0.0794692 6.60519C0.123148 6.64659 0.479253 6.83057 0.870794 7.01406L1.58271 7.34767L1.59237 9.98456L1.60205 12.6214L1.68223 12.6984C1.72632 12.7407 3.14061 13.5008 4.82508 14.3874C7.16054 15.6167 7.91441 15.9996 8 16C8.08675 16.0004 8.80755 15.6344 11.1749 14.3879C12.8594 13.501 14.2737 12.7407 14.3178 12.6984L14.3979 12.6214L14.414 9.98604L14.43 7.35068L15.1456 7.00957C15.5391 6.82197 15.8923 6.63723 15.9305 6.59903C15.9787 6.55093 16 6.49013 16 6.40101C16 6.27611 15.9791 6.25154 15.2634 5.53534L14.5267 4.79825L15.2634 4.06116C15.9794 3.34463 16 3.32045 16 3.19532C16 3.10021 15.9792 3.04666 15.9205 2.99034C15.8769 2.9484 14.4629 2.26079 12.7784 1.46233C10.507 0.38561 9.68454 0.00990015 9.595 0.0080402C9.47929 0.00563509 9.44363 0.0361319 8.73713 0.742112L8 1.47868L7.27041 0.75C6.72769 0.207953 6.51619 0.0167307 6.44461 0.00339033C6.37685 -0.00921245 6.29148 0.0128184 6.15598 0.0779167ZM6.90998 1.25828C7.21846 1.56889 7.45642 1.82877 7.43878 1.83576C7.42114 1.84279 6.18888 2.42562 4.70042 3.13096C3.21193 3.83633 1.98513 4.41343 1.97413 4.41343C1.9445 4.41343 0.83292 3.29522 0.849917 3.28252C0.888273 3.25385 6.28849 0.699557 6.31668 0.696767C6.33451 0.694972 6.6015 0.947669 6.90998 1.25828ZM12.3976 1.97606C13.8858 2.68146 15.1179 3.26437 15.1356 3.27136C15.1532 3.27835 14.9124 3.54083 14.6005 3.85458L14.0333 4.42507L11.2973 3.13061C9.79245 2.41867 8.55468 1.83108 8.5467 1.82489C8.52967 1.81165 9.64115 0.693529 9.67129 0.693529C9.68252 0.693529 10.9094 1.27066 12.3976 1.97606ZM10.6698 3.52072C12.1294 4.21179 13.3236 4.7867 13.3236 4.79825C13.3236 4.80979 12.1261 5.38647 10.6624 6.07972L8.00125 7.34016L5.33884 6.07895C3.87449 5.38529 2.67639 4.80941 2.67639 4.79921C2.67639 4.77946 7.92983 2.27381 7.98397 2.26775C8.0016 2.2658 9.21022 2.82962 10.6698 3.52072ZM4.70042 6.46554C6.18888 7.17087 7.42114 7.75374 7.43878 7.7608C7.45642 7.76785 7.21563 8.03036 6.90369 8.34412L6.33653 8.91461L3.60049 7.62015C2.09567 6.9082 0.857902 6.32062 0.849917 6.31443C0.833048 6.30131 1.94424 5.18307 1.97413 5.18307C1.98513 5.18307 3.21193 5.76016 4.70042 6.46554ZM14.6068 5.74782C14.9152 6.05843 15.1532 6.31828 15.1356 6.32524C15.1179 6.3322 13.8858 6.91503 12.3976 7.62044C10.9094 8.32584 9.68252 8.90297 9.67129 8.90297C9.64115 8.90297 8.52967 7.78485 8.5467 7.77164C8.5829 7.74351 13.9847 5.18861 14.0135 5.18599C14.0313 5.18438 14.2983 5.43721 14.6068 5.74782ZM4.2848 8.63485C5.74654 9.32976 6.31671 9.58615 6.40491 9.58817C6.51972 9.59083 6.55365 9.56293 7.10243 9.01482L7.6793 8.43865V11.7974C7.6793 13.6448 7.66949 15.1563 7.65749 15.1563C7.6455 15.1563 6.41934 14.5177 4.93267 13.7372L2.22969 12.3182L2.22857 9.98338C2.2279 8.60236 2.23925 7.65584 2.25638 7.66642C2.27228 7.67627 3.18509 8.11204 4.2848 8.63485ZM13.7718 9.98527L13.7709 12.3182L11.0676 13.7372C9.58076 14.5177 8.35447 15.1563 8.34247 15.1563C8.33051 15.1563 8.3207 13.6448 8.3207 11.7974V8.43865L8.89757 9.01482C9.44571 9.56232 9.48044 9.59086 9.59509 9.58852C9.68396 9.58669 10.2481 9.33204 11.7361 8.62215C12.8474 8.092 13.7602 7.6569 13.7646 7.65526C13.769 7.65366 13.7722 8.70216 13.7718 9.98527Z" fill="#000"/></symbol><symbol viewBox="0 0 16 16" fill="none" id="svg-cap"><path fill-rule="evenodd" clip-rule="evenodd" d="M7.63972 0.013658C6.62388 0.0942073 5.62918 0.559809 4.91319 1.28992L4.68258 1.52508L4.4641 1.48898C4.34394 1.46915 4.11443 1.45315 3.95413 1.45343C2.95911 1.45531 1.98401 1.85082 1.25434 2.54855C0.511536 3.25881 0.103434 4.10567 0.0152811 5.11986C-0.0836127 6.25783 0.300094 7.3479 1.09087 8.1756C1.41132 8.51098 1.68561 8.73243 1.99513 8.90568L2.17519 9.00646L2.17545 11.7829C2.17557 13.5462 2.1875 14.6337 2.20814 14.7629C2.29767 15.3245 2.72566 15.7978 3.28689 15.9559C3.41829 15.9929 4.18091 16 8.03117 16H12.6189L12.8042 15.9294C13.3443 15.7237 13.7066 15.2956 13.7916 14.7629C13.8122 14.6337 13.8241 13.5462 13.8243 11.7829L13.8245 9.00646L14.0046 8.90568C14.4879 8.63516 15.0863 8.06088 15.3856 7.58016C16.0667 6.48635 16.1878 5.16831 15.7174 3.9679C15.3118 2.93291 14.4124 2.06319 13.3607 1.68878C12.7588 1.47454 12.0758 1.39975 11.5356 1.48898L11.3171 1.52508L11.0865 1.28992C10.1975 0.383396 8.924 -0.0881561 7.63972 0.013658ZM8.53234 0.746525C9.49168 0.891151 10.3528 1.41009 10.9333 2.19337C11.3664 2.77795 11.5856 3.39494 11.6487 4.20789C11.6724 4.51405 11.7304 4.62313 11.8991 4.67881C12.0447 4.72686 12.2042 4.67396 12.294 4.54784C12.357 4.45931 12.3603 4.42815 12.3427 4.08816C12.3122 3.49951 12.1746 2.97535 11.9111 2.4436C11.8439 2.30812 11.789 2.19015 11.789 2.18144C11.789 2.13725 12.5781 2.20077 12.8224 2.26465C13.1228 2.3432 13.5753 2.54714 13.8464 2.72612C14.4738 3.14052 14.9873 3.8705 15.1951 4.64358C15.2665 4.90922 15.276 5.00405 15.2754 5.44591C15.2747 5.88405 15.2644 5.9852 15.1937 6.25097C14.946 7.18104 14.3322 7.94332 13.48 8.37898C13.0724 8.58737 13.1043 8.40215 13.1043 10.5585L13.1043 12.3828H7.99985H2.89545L2.89532 10.5429C2.8952 8.41365 2.91912 8.57374 2.57647 8.41005C2.25878 8.25825 2.00547 8.0798 1.72382 7.80937C1.27303 7.37656 0.967675 6.85812 0.806025 6.25097C0.735252 5.9852 0.724981 5.88405 0.724323 5.44591C0.723697 5.00405 0.733154 4.90922 0.804585 4.64358C1.01242 3.8705 1.5259 3.14052 2.15334 2.72612C2.4244 2.54714 2.87691 2.3432 3.17729 2.26465C3.42164 2.20077 4.21069 2.13725 4.21069 2.18144C4.21069 2.19015 4.15577 2.30812 4.08863 2.4436C3.82511 2.97535 3.68754 3.49951 3.65701 4.08816C3.63938 4.42815 3.64269 4.45931 3.7057 4.54784C3.79551 4.67396 3.95497 4.72686 4.10056 4.67881C4.26925 4.62313 4.32728 4.51405 4.35105 4.20789C4.41415 3.39494 4.63326 2.77795 5.06645 2.19337C5.87413 1.10339 7.20751 0.54678 8.53234 0.746525ZM3.84906 7.32203C3.79658 7.3449 3.72966 7.4002 3.70031 7.44496C3.53187 7.70208 3.77679 8.50215 4.25798 9.26668C4.48981 9.63501 4.82973 10.0905 4.90145 10.1289C4.93264 10.1456 5.01684 10.1592 5.08859 10.1592C5.19518 10.1592 5.23853 10.1398 5.32552 10.0528C5.41123 9.96704 5.43199 9.92179 5.43199 9.8206C5.43199 9.71556 5.40014 9.65198 5.23827 9.43382C4.70673 8.71743 4.41669 8.14187 4.34914 7.66947C4.32124 7.47424 4.25842 7.37562 4.12702 7.32072C4.0026 7.26873 3.9711 7.26889 3.84906 7.32203ZM7.85743 7.32203C7.65385 7.41073 7.65538 7.40014 7.65538 8.71959C7.65538 9.5367 7.6664 9.93438 7.69036 9.98123C7.75183 10.1014 7.85069 10.1579 7.99985 10.1579C8.149 10.1579 8.24787 10.1014 8.30934 9.98123C8.33329 9.93438 8.34432 9.5367 8.34432 8.71959C8.34432 7.39435 8.34648 7.40891 8.13538 7.32072C8.01097 7.26873 7.97946 7.26889 7.85743 7.32203ZM11.8658 7.32203C11.7406 7.37656 11.678 7.47756 11.6504 7.66947C11.5807 8.15383 11.3184 8.6645 10.6933 9.53288C10.528 9.76253 10.5229 9.90143 10.6742 10.0528C10.7612 10.1398 10.8045 10.1592 10.9111 10.1592C10.9829 10.1592 11.0671 10.1456 11.0983 10.1289C11.17 10.0905 11.5099 9.63501 11.7417 9.26668C12.223 8.50199 12.4678 7.70208 12.2993 7.44486C12.2482 7.36685 12.0859 7.27666 12.0014 7.27922C11.9793 7.27991 11.9183 7.29917 11.8658 7.32203ZM13.1036 13.8939C13.1029 14.6216 13.0978 14.6959 13.0391 14.8256C12.9534 15.0148 12.8384 15.1317 12.6502 15.2207L12.4936 15.2947L7.99985 15.2943C3.54631 15.294 3.50484 15.2934 3.36518 15.2302C3.17594 15.1445 3.05904 15.0294 2.97007 14.8412C2.89839 14.6896 2.89604 14.6599 2.89576 13.8939L2.89545 13.1031H7.99985H13.1043L13.1036 13.8939Z" fill="#000"/></symbol><symbol viewBox="0 0 8 12" id="svg-chevronLeft"><path d="M7.00002 0.705083C6.81319 0.517831 6.55954 0.412598 6.29502 0.412598C6.0305 0.412598 5.77685 0.517831 5.59002 0.705083L1.00002 5.29508C0.61002 5.68508 0.61002 6.31508 1.00002 6.70508L5.59002 11.2951C5.98002 11.6851 6.61002 11.6851 7.00002 11.2951C7.39002 10.9051 7.39002 10.2751 7.00002 9.88508L3.12002 5.99508L7.00002 2.11508C7.39002 1.72508 7.38002 1.08508 7.00002 0.705083Z"/></symbol><symbol viewBox="0 0 8 12" id="svg-chevronRight"><path d="M1.00002 0.71051C0.61002 1.10051 0.61002 1.73051 1.00002 2.12051L4.88002 6.00051L1.00002 9.88051C0.61002 10.2705 0.61002 10.9005 1.00002 11.2905C1.39002 11.6805 2.02002 11.6805 2.41002 11.2905L7.00002 6.70051C7.39002 6.31051 7.39002 5.68051 7.00002 5.29051L2.41002 0.70051C2.03002 0.32051 1.39002 0.32051 1.00002 0.71051Z"/></symbol><symbol viewBox="0 0 16 16" fill="none" id="svg-clock"><path fill-rule="evenodd" clip-rule="evenodd" d="M7.38461 0.0192077C6.94726 0.0532759 6.40912 0.147245 5.94071 0.2714C3.74578 0.853128 1.85611 2.40198 0.835729 4.45569C-0.693422 7.53335 -0.0874099 11.2086 2.35273 13.6557C3.58357 14.8901 5.12208 15.6621 6.88135 15.928C7.51661 16.024 8.49131 16.024 9.12657 15.928C10.8892 15.6616 12.4086 14.899 13.656 13.6549C14.8917 12.4225 15.6618 10.8872 15.928 9.12569C16.024 8.49036 16.024 7.51553 15.928 6.8802C15.7366 5.61335 15.314 4.53002 14.607 3.49392C13.5006 1.87242 11.8146 0.697785 9.92945 0.235046C9.14664 0.0429114 8.15753 -0.0410066 7.38461 0.0192077ZM8.8493 0.971302C10.078 1.11835 11.2386 1.58572 12.2619 2.34565C12.6441 2.62944 13.3768 3.36222 13.6605 3.74442C14.598 5.00713 15.0797 6.45281 15.0797 8.00295C15.0797 9.55365 14.5959 11.0046 13.6598 12.2615C13.3725 12.6472 12.6407 13.3796 12.2619 13.6605C10.9982 14.5975 9.55177 15.0796 8.00396 15.0796C6.4517 15.0796 5.01103 14.5987 3.74597 13.6581C3.36497 13.3748 2.63467 12.6448 2.34879 12.2615C1.40949 11.0019 0.930124 9.56298 0.930124 8.00295C0.930124 6.44245 1.4052 5.01474 2.34713 3.74442C2.62803 3.36557 3.3604 2.63363 3.74597 2.34637C4.75117 1.59749 5.9177 1.12398 7.12731 0.97387C7.56633 0.919385 8.40493 0.918133 8.8493 0.971302ZM7.85844 1.93019C7.7157 1.97296 7.574 2.14869 7.54926 2.31358C7.53793 2.38917 7.53345 2.67763 7.53931 2.95459C7.55092 3.50234 7.56379 3.54486 7.76313 3.69372C7.8781 3.77955 8.12982 3.77955 8.24479 3.69372C8.45296 3.53825 8.45794 3.51828 8.45794 2.83635C8.45794 2.25731 8.45352 2.20875 8.39338 2.12821C8.25534 1.94328 8.05825 1.87032 7.85844 1.93019ZM3.81541 3.60861C3.39262 3.81703 3.5461 4.46461 4.01829 4.46461C4.29021 4.46461 4.46573 4.29148 4.46595 4.02304C4.46623 3.68204 4.11732 3.45979 3.81541 3.60861ZM11.7929 3.60962C11.3707 3.82859 11.5099 4.46398 11.9802 4.4643C12.2255 4.46445 12.408 4.30539 12.4405 4.06309C12.4866 3.71937 12.1015 3.44964 11.7929 3.60962ZM7.86633 4.74664C7.73796 4.78647 7.60186 4.92726 7.56561 5.05777C7.524 5.2076 7.52406 7.98319 7.56567 8.12832C7.58987 8.21274 7.9374 8.57819 9.09197 9.73351C10.3194 10.9617 10.6079 11.2351 10.7043 11.2613C11.0249 11.3484 11.3305 11.061 11.2722 10.7274C11.2559 10.634 11.045 10.4088 9.86429 9.22414L8.47556 7.83073L8.46677 6.43174C8.45819 5.07474 8.456 5.03015 8.39338 4.94633C8.257 4.76368 8.05643 4.68771 7.86633 4.74664ZM2.23075 7.56454C1.89731 7.66887 1.80608 8.11057 2.07008 8.34241C2.20871 8.46415 2.32759 8.48097 2.95624 8.46766C3.50392 8.45604 3.54644 8.44317 3.69528 8.2438C3.7811 8.12882 3.7811 7.87707 3.69528 7.76209C3.54275 7.55777 3.51247 7.54951 2.89062 7.54256C2.57756 7.53905 2.28063 7.54894 2.23075 7.56454ZM12.5626 7.56454C12.2292 7.66887 12.138 8.11057 12.402 8.34241C12.5406 8.46415 12.6595 8.48097 13.2881 8.46766C13.8358 8.45604 13.8783 8.44317 14.0272 8.2438C14.113 8.12882 14.113 7.87707 14.0272 7.76209C13.8746 7.55777 13.8444 7.54951 13.2225 7.54256C12.9094 7.53905 12.6125 7.54894 12.5626 7.56454ZM3.7868 11.6025C3.41068 11.8319 3.53786 12.3952 3.97581 12.4396C4.13974 12.4562 4.29826 12.3782 4.395 12.2334C4.53401 12.0253 4.45809 11.6975 4.24544 11.5875C4.11983 11.5225 3.90655 11.5295 3.7868 11.6025ZM11.7391 11.6027C11.545 11.721 11.4796 12.0181 11.6031 12.2206C11.8324 12.5968 12.3956 12.4696 12.44 12.0316C12.4768 11.6689 12.0543 11.4104 11.7391 11.6027ZM7.85844 12.2634C7.7157 12.3062 7.574 12.4819 7.54926 12.6468C7.53793 12.7224 7.53345 13.0108 7.53931 13.2878C7.55092 13.8355 7.56379 13.8781 7.76313 14.0269C7.8781 14.1127 8.12982 14.1127 8.24479 14.0269C8.45296 13.8714 8.45794 13.8515 8.45794 13.1695C8.45794 12.5905 8.45352 12.5419 8.39338 12.4614C8.25534 12.2765 8.05825 12.2035 7.85844 12.2634Z" fill="#000"/></symbol><symbol viewBox="0 0 16 16" fill="none" id="svg-clock-fill"><path fill-rule="evenodd" clip-rule="evenodd" d="M1.33203 8.00016C1.33203 4.3335 4.33203 1.3335 7.9987 1.3335C11.6654 1.3335 14.6654 4.3335 14.6654 8.00016C14.6654 11.6668 11.6654 14.6668 7.9987 14.6668C4.33203 14.6668 1.33203 11.6668 1.33203 8.00016ZM7.64536 8.86016L10.3654 10.5335C10.6054 10.6802 10.9187 10.6068 11.0654 10.3735C11.212 10.1335 11.132 9.82016 10.892 9.6735L8.33203 8.1335V5.16683C8.33203 4.8935 8.10536 4.66683 7.83203 4.66683C7.5587 4.66683 7.33203 4.8935 7.32536 5.16683V8.2935C7.32536 8.52683 7.44536 8.74016 7.64536 8.86016Z" fill="#3E5D57"/></symbol><symbol viewBox="0 0 24 24" id="svg-close"><path fill-rule="evenodd" clip-rule="evenodd" d="M2.90006 2.90024C3.50754 2.29275 4.49246 2.29275 5.09994 2.90024L21.4994 19.2997C22.1069 19.9072 22.1069 20.8921 21.4994 21.4996C20.8919 22.107 19.907 22.107 19.2995 21.4996L2.90006 5.10012C2.29257 4.49264 2.29257 3.50772 2.90006 2.90024Z"/><path fill-rule="evenodd" clip-rule="evenodd" d="M2.90005 21.4998C2.29257 20.8924 2.29257 19.9074 2.90005 19.3L19.2995 2.90053C19.907 2.29305 20.8919 2.29305 21.4994 2.90053C22.1069 3.50801 22.1069 4.49293 21.4994 5.10042L5.09994 21.4998C4.49246 22.1073 3.50754 22.1073 2.90005 21.4998Z"/></symbol><symbol viewBox="0 0 20 18" id="svg-favorite"><path d="M18.3492 1.68905C16.0437 -0.563013 12.3056 -0.563017 10 1.68904C7.69447 -0.562998 3.95635 -0.562921 1.65079 1.68913C-3.74323 6.95799 5.4189 14.4 9.99998 18C14.5811 14.4 23.7432 6.95789 18.3492 1.68905Z"/></symbol><symbol viewBox="0 0 32 32" fill="none" id="svg-guarantee"><path d="M8.51299 7.02504L8.37167 6.81881L8.51299 7.02504ZM22.9473 28.4268L22.806 28.2205L22.9473 28.4268ZM1.192 19.189C1.0781 19.2671 1.04904 19.4227 1.12708 19.5366C1.20513 19.6505 1.36073 19.6795 1.47463 19.6015L1.192 19.189ZM6.38871 15.9312L6.2474 15.7249L6.38871 15.9312ZM10.433 13.1599L10.6403 13.0201C10.603 12.9649 10.5453 12.9268 10.4798 12.9143C10.4144 12.9018 10.3467 12.916 10.2917 12.9536L10.433 13.1599ZM17.6502 23.8607L17.7915 24.067C17.9048 23.9893 17.9342 23.8348 17.8574 23.7209L17.6502 23.8607ZM8.40916 29.8899C8.29526 29.9679 8.2662 30.1235 8.34424 30.2374C8.42229 30.3513 8.57789 30.3804 8.69178 30.3024L8.40916 29.8899ZM13.1026 8.35033L13.3526 8.34809L13.1026 8.35033ZM13.892 1.84894L14.0445 1.65082V1.65082L13.892 1.84894ZM17.5106 8.31013L17.2628 8.34312C17.2742 8.42922 17.3296 8.50319 17.4089 8.53852C17.4883 8.57384 17.5802 8.56545 17.6519 8.51636L17.5106 8.31013ZM22.566 4.84606L22.7073 5.05228L22.7073 5.05228L22.566 4.84606ZM24.7899 7.04747L24.9312 7.2537L24.7899 7.04747ZM22.1209 8.57329C22.007 8.65134 21.9779 8.80694 22.056 8.92084C22.134 9.03473 22.2896 9.0638 22.4035 8.98575L22.1209 8.57329ZM26.5083 9.59529L26.6496 9.80152L26.5083 9.59529ZM23.8393 11.1211C23.7254 11.1992 23.6963 11.3548 23.7744 11.4687C23.8524 11.5826 24.008 11.6116 24.1219 11.5336L23.8393 11.1211ZM28.2267 12.1431L28.368 12.3493L28.2267 12.1431ZM26.71 13.1823L26.8513 13.3886L26.71 13.1823ZM25.0521 14.0154C24.9382 14.0934 24.9091 14.249 24.9872 14.3629C25.0652 14.4768 25.2208 14.5059 25.3347 14.4278L25.0521 14.0154ZM28.4284 15.7302L28.5697 15.9364L28.4284 15.7302ZM22.3619 19.8871L22.2206 19.6809L22.3619 19.8871ZM16.6192 22.3321L16.4119 22.4719L16.6192 22.3321ZM8.6543 7.23126C9.76487 6.47027 10.9526 5.91264 12.1742 5.54973L12.0319 5.07043C10.7607 5.44803 9.52565 6.02806 8.37167 6.81881L8.6543 7.23126ZM16.3685 5.05209C17.9269 5.13307 19.463 5.50465 20.8919 6.15051L21.0978 5.69489C19.6121 5.02332 18.0149 4.63697 16.3944 4.55276L16.3685 5.05209ZM28.1708 15.7754C28.8913 20.4675 26.9583 25.3753 22.806 28.2205L23.0886 28.633C27.4063 25.6744 29.4134 20.573 28.665 15.6995L28.1708 15.7754ZM3.15436 18.3075C2.96478 14.0516 4.9047 9.8006 8.6543 7.23126L8.37167 6.81881C4.47273 9.49048 2.45796 13.9096 2.65486 18.3298L3.15436 18.3075ZM22.806 28.2205C18.8521 30.9299 13.9145 31.0645 9.94461 28.9983L9.71377 29.4418C13.841 31.5899 18.9765 31.4507 23.0886 28.633L22.806 28.2205ZM1.47463 19.6015L6.53002 16.1374L6.2474 15.7249L1.192 19.189L1.47463 19.6015ZM6.53002 16.1374L10.5743 13.3661L10.2917 12.9536L6.2474 15.7249L6.53002 16.1374ZM17.5089 23.6545L13.4646 26.4258L13.7472 26.8382L17.7915 24.067L17.5089 23.6545ZM13.4646 26.4258L8.40916 29.8899L8.69178 30.3024L13.7472 26.8382L13.4646 26.4258ZM6.18144 16.071L13.3986 26.7718L13.8131 26.4922L6.59597 15.7914L6.18144 16.071ZM10.2258 13.2997L11.2568 14.8284L11.6713 14.5488L10.6403 13.0201L10.2258 13.2997ZM11.6959 14.782C11.9751 14.089 12.3917 12.9405 12.7369 11.7404C13.0801 10.5473 13.361 9.27573 13.3526 8.34809L12.8527 8.35258C12.8603 9.20215 12.5983 10.4136 12.2564 11.6022C11.9165 12.7838 11.5058 13.9159 11.2322 14.5951L11.6959 14.782ZM13.3526 8.34809C13.3421 7.16897 12.8378 6.14271 12.3397 5.26635C12.0851 4.8185 11.8413 4.4252 11.6413 4.04381C11.4427 3.66528 11.308 3.33514 11.2685 3.03843L10.7728 3.10442C10.8242 3.49049 10.9927 3.8839 11.1985 4.27608C11.4027 4.66539 11.6643 5.08993 11.905 5.51343C12.3974 6.37976 12.8433 7.31018 12.8527 8.35258L13.3526 8.34809ZM11.2685 3.03843C11.1914 2.4593 11.4728 1.96076 11.9265 1.72689C12.3743 1.49605 13.0342 1.50425 13.7396 2.04707L14.0445 1.65082C13.2133 1.01114 12.3466 0.947813 11.6974 1.28246C11.0541 1.61407 10.6681 2.31802 10.7728 3.10442L11.2685 3.03843ZM13.7396 2.04707C14.2186 2.41567 15.0136 3.3205 15.7368 4.48304C16.4583 5.64287 17.0875 7.02652 17.2628 8.34312L17.7584 8.27714C17.5701 6.86269 16.9022 5.40988 16.1614 4.21894C15.4222 3.03072 14.5898 2.07048 14.0445 1.65082L13.7396 2.04707ZM17.6519 8.51636L22.7073 5.05228L22.4247 4.63983L17.3693 8.1039L17.6519 8.51636ZM22.7073 5.05228C23.626 4.42277 24.5534 4.62459 25.0187 5.08519C25.2514 5.31555 25.3655 5.60405 25.3316 5.89511C25.2978 6.185 25.1112 6.52424 24.6486 6.84124L24.9312 7.2537C25.4797 6.87788 25.7735 6.42232 25.8282 5.95303C25.8828 5.48491 25.6937 5.04985 25.3704 4.72985C24.7238 4.08973 23.5282 3.88366 22.4247 4.63983L22.7073 5.05228ZM24.6486 6.84124L22.1209 8.57329L22.4035 8.98575L24.9312 7.2537L24.6486 6.84124ZM24.9312 7.2537C25.3925 6.93763 25.8154 6.85892 26.1567 6.91305C26.4997 6.96747 26.781 7.15889 26.9585 7.42194C27.1359 7.68504 27.2096 8.02019 27.1332 8.36348C27.0572 8.70495 26.8282 9.07304 26.367 9.38906L26.6496 9.80152C27.1995 9.42472 27.5139 8.95472 27.6213 8.47206C27.7283 7.99122 27.6251 7.51621 27.373 7.14236C27.1208 6.76845 26.7198 6.49612 26.235 6.41923C25.7486 6.34206 25.1984 6.46448 24.6486 6.84124L24.9312 7.2537ZM26.367 9.38906L23.8393 11.1211L24.1219 11.5336L26.6496 9.80152L26.367 9.38906ZM26.6496 9.80152C27.1112 9.48523 27.4937 9.4337 27.7831 9.50535C28.0759 9.57787 28.3177 9.78742 28.4744 10.0784C28.7952 10.674 28.7141 11.506 28.0853 11.9369L28.368 12.3493C29.2558 11.741 29.3266 10.6063 28.9146 9.84132C28.705 9.45208 28.3592 9.13293 27.9032 9.02001C27.4438 8.90623 26.9165 9.01253 26.367 9.38906L26.6496 9.80152ZM28.0853 11.9369L26.5687 12.9761L26.8513 13.3886L28.368 12.3493L28.0853 11.9369ZM26.5687 12.9761L25.0521 14.0154L25.3347 14.4278L26.8513 13.3886L26.5687 12.9761ZM26.8513 13.3886C27.3126 13.0725 27.7356 12.9938 28.0768 13.0479C28.4198 13.1023 28.7012 13.2938 28.8786 13.5568C29.056 13.8199 29.1297 14.1551 29.0533 14.4984C28.9774 14.8398 28.7483 15.2079 28.2871 15.5239L28.5697 15.9364C29.1196 15.5596 29.434 15.0896 29.5414 14.6069C29.6484 14.1261 29.5452 13.6511 29.2931 13.2772C29.0409 12.9033 28.6399 12.631 28.1552 12.5541C27.6687 12.4769 27.1185 12.5994 26.5687 12.9761L26.8513 13.3886ZM28.2871 15.5239L22.2206 19.6809L22.5032 20.0933L28.5697 15.9364L28.2871 15.5239ZM11.2568 14.8284L16.4119 22.4719L16.8264 22.1923L11.6713 14.5488L11.2568 14.8284ZM16.4119 22.4719L17.4429 24.0005L17.8574 23.7209L16.8264 22.1923L16.4119 22.4719ZM22.2206 19.6809C20.9909 20.5235 20.0924 20.7792 19.2391 20.9973C18.3739 21.2183 17.5297 21.4051 16.4779 22.1258L16.7605 22.5383C17.7308 21.8734 18.4941 21.7037 19.3629 21.4817C20.2434 21.2567 21.2052 20.9828 22.5032 20.0933L22.2206 19.6809Z" fill="#000"/></symbol><symbol viewBox="0 0 24 24" id="svg-help"><path fill-rule="evenodd" clip-rule="evenodd" d="M11.3899 0.00768294C9.14062 0.15951 7.21404 0.808486 5.40047 2.02526C3.02348 3.62006 1.26887 6.11548 0.561034 8.90789C0.29933 9.94028 0.237603 10.4838 0.235912 11.7699C0.234409 12.947 0.255031 13.1981 0.42687 14.0952C0.728082 15.6675 1.46843 17.3661 2.42707 18.6841L2.66035 19.0049L1.87327 20.8483C1.44033 21.8623 1.05687 22.7909 1.02107 22.9119C0.861823 23.4502 1.28451 24.0046 1.85058 24C1.96858 23.999 3.42503 23.7598 5.08705 23.4683L8.10898 22.9384L8.68073 23.1058C9.88346 23.4579 10.7059 23.5722 12.0476 23.5738C13.1327 23.5751 13.9058 23.4818 14.916 23.2275C16.4689 22.8367 18.0587 22.0442 19.3759 21.0042C19.9315 20.5655 20.9623 19.5013 21.4042 18.9102C22.5982 17.3131 23.3098 15.6443 23.6596 13.6209C23.7497 13.0993 23.7644 12.8443 23.7644 11.7934C23.7644 10.4808 23.705 9.95226 23.4402 8.90789C22.2413 4.17804 18.1915 0.628567 13.3629 0.0756105C12.8934 0.0218228 11.759 -0.0172144 11.3899 0.00768294ZM12.9939 1.81288C17.2675 2.2429 20.8681 5.43766 21.7884 9.6161C21.9613 10.4015 22.0199 10.9524 22.0199 11.7934C22.0199 12.6343 21.9613 13.1852 21.7884 13.9706C20.9538 17.7599 17.8766 20.8109 14.0896 21.6039C12.3375 21.9707 10.469 21.8656 8.83265 21.3081C8.60176 21.2295 8.32047 21.1651 8.20763 21.1651C8.09479 21.1651 6.97145 21.3448 5.71127 21.5644C4.45113 21.784 3.39774 21.9637 3.37049 21.9637C3.3432 21.9637 3.58405 21.3453 3.90569 20.5896C4.22738 19.8339 4.51291 19.131 4.54025 19.0277C4.61264 18.754 4.53113 18.521 4.22804 18.1351C2.73598 16.2355 1.98939 14.134 1.98333 11.8168C1.98108 10.956 2.03801 10.4103 2.2129 9.6161C2.8686 6.63884 4.89543 4.10133 7.70231 2.74353C9.31011 1.96579 11.2037 1.63273 12.9939 1.81288ZM7.41326 7.63864C7.30592 7.69177 7.15832 7.82156 7.08523 7.92707C6.97469 8.08655 6.95214 8.16778 6.95149 8.40914C6.95083 8.64797 6.97361 8.73407 7.07992 8.89487C7.151 9.0024 7.29286 9.13304 7.39513 9.18523C7.57782 9.27843 7.65942 9.28012 12.0006 9.28012C16.3418 9.28012 16.4234 9.27843 16.6061 9.18523C16.7084 9.13304 16.8503 9.0024 16.9213 8.89487C17.0276 8.73407 17.0504 8.64797 17.0498 8.40914C17.0491 8.1674 17.0266 8.0866 16.9153 7.92604C16.8396 7.81677 16.6961 7.69177 16.5842 7.6376C16.3899 7.54356 16.316 7.54201 11.9975 7.54205C7.66322 7.5421 7.60591 7.54327 7.41326 7.63864ZM7.52168 11.1807C7.18388 11.3012 6.92927 11.6553 6.92927 12.0047C6.92927 12.369 7.22071 12.75 7.57458 12.8482C7.81524 12.9151 16.186 12.9151 16.4267 12.8482C16.7805 12.75 17.072 12.369 17.072 12.0047C17.072 11.6405 16.7805 11.2595 16.4267 11.1612C16.3121 11.1294 14.7791 11.1133 11.9771 11.1145C8.47887 11.116 7.66952 11.128 7.52168 11.1807ZM7.38512 14.8266C7.28817 14.8778 7.15076 15.0075 7.07978 15.1148C6.97361 15.2754 6.95083 15.3616 6.95149 15.6003C6.95214 15.8421 6.97465 15.9229 7.08593 16.0835C7.16161 16.1927 7.30512 16.3177 7.41702 16.3719C7.61136 16.4659 7.68526 16.4675 12.0006 16.4675C16.316 16.4675 16.3899 16.4659 16.5842 16.3719C16.6961 16.3177 16.8396 16.1927 16.9153 16.0835C17.0266 15.9229 17.0491 15.8421 17.0498 15.6003C17.0504 15.3615 17.0276 15.2754 16.9213 15.1146C16.8503 15.0071 16.7084 14.8764 16.6061 14.8243C16.4233 14.731 16.344 14.7294 11.9908 14.7314C7.66834 14.7334 7.5571 14.7358 7.38512 14.8266Z"/></symbol><symbol viewBox="0 0 16 17" fill="none" id="svg-list"><path fill-rule="evenodd" clip-rule="evenodd" d="M7.72018 0.00800689C7.15508 0.0949581 6.6638 0.437064 6.41103 0.919664L6.29211 1.14667H5.68223C5.03375 1.14667 4.89447 1.17138 4.8264 1.29853C4.8078 1.33329 4.79259 1.52322 4.79259 1.72064V2.07953L3.9237 2.09377C2.97153 2.1094 2.87422 2.12486 2.53818 2.31405C2.15672 2.52881 1.8365 2.98041 1.75778 3.41467C1.70963 3.68015 1.71063 14.6057 1.75882 14.836C1.86565 15.3466 2.28663 15.7684 2.86695 15.9463C3.04596 16.0011 3.28893 16.0038 8.01764 16.0038C12.7463 16.0038 12.9893 16.0011 13.1683 15.9463C13.76 15.7649 14.1795 15.3371 14.2786 14.814C14.3045 14.677 14.3116 13.1061 14.3049 9.00579L14.2955 3.38542L14.2118 3.17003C14.0601 2.77958 13.8247 2.50113 13.4814 2.30606C13.1645 2.12596 13.0569 2.1093 12.1116 2.09377L11.2427 2.07953V1.70702C11.2427 1.15268 11.2333 1.14695 10.3248 1.14604L9.69278 1.14542L9.58664 0.919602C9.3972 0.516532 8.98891 0.187451 8.53214 0.06969C8.33172 0.0180265 7.87871 -0.0163845 7.72018 0.00800689ZM8.30113 0.740094C8.60785 0.822662 8.90465 1.13374 9.01731 1.49072C9.08669 1.71059 9.164 1.80893 9.31126 1.86473C9.36179 1.88389 9.63933 1.89814 9.96153 1.89814H10.5237L10.5153 2.65744L10.5069 3.41673H8.01764H5.5284L5.52001 2.65744L5.51162 1.89814H6.04243C6.34246 1.89814 6.61158 1.88361 6.66139 1.86473C6.80539 1.81019 6.88445 1.71293 6.95353 1.50534C7.06881 1.15891 7.23379 0.962153 7.53964 0.80638C7.79254 0.677566 8.00145 0.659374 8.30113 0.740094ZM4.79259 3.3812C4.79259 3.88518 4.79738 3.93099 4.85796 4.00805C5.00331 4.19281 4.84325 4.18386 8.00142 4.18386C11.1483 4.18386 11.0341 4.19006 11.1748 4.01121C11.2385 3.93021 11.2427 3.89154 11.2427 3.3812V2.83748H12.0219C12.957 2.83748 13.048 2.85642 13.2959 3.10281C13.5845 3.38968 13.5598 2.82408 13.559 9.12878C13.5584 14.4739 13.5561 14.6936 13.5003 14.814C13.4259 14.9749 13.302 15.0898 13.1057 15.1802L12.9491 15.2524H8.01764H3.08613L2.922 15.1782C2.72696 15.09 2.55515 14.9108 2.50728 14.7455C2.48248 14.6599 2.47531 13.0475 2.48195 9.0371L2.49122 3.44804L2.5771 3.30195C2.68882 3.11189 2.89162 2.9404 3.0695 2.88557C3.17411 2.85332 3.41906 2.84126 4.00198 2.83967L4.79259 2.83748V3.3812ZM5.52624 5.92946C5.2068 6.23512 4.91079 6.51285 4.86839 6.5466L4.79133 6.60797L4.50233 6.32304C4.34337 6.16633 4.18255 6.02248 4.14495 6.00335C3.97743 5.91825 3.76677 5.99584 3.68236 6.17378C3.58238 6.38444 3.62089 6.45542 4.12306 6.9864C4.37264 7.25026 4.59833 7.47442 4.62463 7.4845C4.65094 7.49458 4.73466 7.50285 4.81068 7.50285C4.94614 7.50285 4.95954 7.49286 5.47229 7.0097C5.76013 6.73848 6.14072 6.37564 6.31807 6.20343C6.63998 5.89082 6.64051 5.89007 6.64023 5.73846C6.63998 5.6077 6.62517 5.57182 6.53349 5.48014C6.44018 5.38684 6.40724 5.37368 6.26703 5.37368H6.107L5.52624 5.92946ZM7.38997 6.39913C7.20768 6.56204 7.24143 6.87628 7.453 6.98568C7.53266 7.02685 7.84906 7.03318 9.83368 7.03318C12.3614 7.03318 12.2514 7.04188 12.35 6.83413C12.4135 6.70034 12.4146 6.61759 12.3544 6.50123C12.2514 6.30209 12.3983 6.31302 9.8272 6.31302H7.48635L7.38997 6.39913ZM6.12331 8.44059C6.0693 8.46279 5.61472 8.88223 4.97115 9.5037L4.78964 9.67898L4.48145 9.35804L4.17325 9.0371H4.01748C3.76088 9.0371 3.59731 9.23652 3.65142 9.48338C3.68132 9.61986 4.57053 10.5275 4.70279 10.5566C4.89197 10.5981 4.95628 10.552 5.73571 9.81603C6.15556 9.41956 6.53067 9.05748 6.56934 9.01136C6.65497 8.90919 6.66437 8.69643 6.58834 8.58039C6.4936 8.4358 6.28644 8.37352 6.12331 8.44059ZM7.45006 9.40259C7.2068 9.55455 7.20743 9.86594 7.45128 10.0303L7.55724 10.1017H9.80801C12.2883 10.1017 12.2146 10.1073 12.3395 9.90786C12.4299 9.76367 12.4059 9.59096 12.2777 9.46271L12.1808 9.36586L9.85657 9.35854C7.74798 9.3519 7.52467 9.35597 7.45006 9.40259ZM5.52624 12.0351C5.2068 12.3408 4.91079 12.6185 4.86839 12.6523L4.79133 12.7137L4.50233 12.4287C4.34337 12.272 4.18255 12.1282 4.14495 12.109C3.97743 12.0239 3.76677 12.1015 3.68236 12.2795C3.58279 12.4893 3.62177 12.5621 4.11151 13.0812C4.3547 13.339 4.57832 13.5631 4.60845 13.5792C4.63857 13.5954 4.72752 13.6085 4.80608 13.6085C4.94742 13.6085 4.95443 13.6034 5.47335 13.1154C5.76176 12.8441 6.14229 12.4813 6.31891 12.3091C6.63913 11.9969 6.64007 11.9956 6.64001 11.8441C6.63995 11.7132 6.62526 11.6776 6.53349 11.5858C6.44018 11.4925 6.40724 11.4794 6.26703 11.4794H6.107L5.52624 12.0351ZM7.42952 12.4676C7.20968 12.6215 7.2229 12.9724 7.453 13.0914C7.58839 13.1614 12.0755 13.1632 12.2107 13.0933C12.4147 12.9878 12.449 12.6808 12.276 12.5079L12.1868 12.4187H9.84304C7.76987 12.4187 7.49123 12.4243 7.42952 12.4676Z" fill="#000"/></symbol><symbol viewBox="0 0 24 24" fill="none" id="svg-list_bullet"><path fill-rule="evenodd" clip-rule="evenodd" d="M2.75 6C2.75 5.17 3.42 4.5 4.25 4.5C5.08 4.5 5.75 5.17 5.75 6C5.75 6.83 5.08 7.5 4.25 7.5C3.42 7.5 2.75 6.83 2.75 6ZM2.75 12C2.75 11.17 3.42 10.5 4.25 10.5C5.08 10.5 5.75 11.17 5.75 12C5.75 12.83 5.08 13.5 4.25 13.5C3.42 13.5 2.75 12.83 2.75 12ZM4.25 16.5C3.42 16.5 2.75 17.18 2.75 18C2.75 18.82 3.43 19.5 4.25 19.5C5.07 19.5 5.75 18.82 5.75 18C5.75 17.18 5.08 16.5 4.25 16.5ZM20.25 19H8.25C7.7 19 7.25 18.55 7.25 18C7.25 17.45 7.7 17 8.25 17H20.25C20.8 17 21.25 17.45 21.25 18C21.25 18.55 20.8 19 20.25 19ZM8.25 13H20.25C20.8 13 21.25 12.55 21.25 12C21.25 11.45 20.8 11 20.25 11H8.25C7.7 11 7.25 11.45 7.25 12C7.25 12.55 7.7 13 8.25 13ZM8.25 7C7.7 7 7.25 6.55 7.25 6C7.25 5.45 7.7 5 8.25 5H20.25C20.8 5 21.25 5.45 21.25 6C21.25 6.55 20.8 7 20.25 7H8.25Z" fill="#3E5D57"/></symbol><symbol viewBox="0 0 16 17" fill="none" id="svg-location"><path fill-rule="evenodd" clip-rule="evenodd" d="M12.7142 1.95299C10.1107 -0.650508 5.88961 -0.650508 3.28612 1.95299C0.682623 4.55648 0.682622 8.77758 3.28612 11.3811L8.00016 16.0951L12.7142 11.3811C15.3177 8.77758 15.3177 4.55648 12.7142 1.95299ZM8.00033 7.99967C8.7367 7.99967 9.33366 7.40272 9.33366 6.66634C9.33366 5.92996 8.7367 5.33301 8.00033 5.33301C7.26395 5.33301 6.66699 5.92996 6.66699 6.66634C6.66699 7.40272 7.26395 7.99967 8.00033 7.99967Z" fill="#3E5D57"/></symbol><symbol viewBox="0 0 24 24" fill="none" id="svg-map"><path fill-rule="evenodd" clip-rule="evenodd" d="M9.65488 3.22999L14.6549 4.97999C14.8849 5.05999 15.1249 5.04999 15.3449 4.96999L18.2749 3.82999C19.5849 3.31999 20.9949 4.27999 20.9949 5.68999V17.54C20.9949 18.4 20.4449 19.17 19.6349 19.44L15.6449 20.78C15.2249 20.92 14.7649 20.92 14.3449 20.77L9.34488 19.02C9.12488 18.94 8.87488 18.94 8.65488 19.03L5.72488 20.17C4.41488 20.68 3.00488 19.72 3.00488 18.31V6.45999C3.00488 5.59999 3.55488 4.83999 4.36488 4.55999L8.35488 3.21999C8.77488 3.07999 9.23488 3.07999 9.65488 3.22999ZM9.00488 16.78L15.0049 18.89V7.21999L9.00488 5.10999V16.78Z" fill="#3E5D57"/></symbol><symbol viewBox="0 0 16 16" fill="none" id="svg-phone"><path fill-rule="evenodd" clip-rule="evenodd" d="M10.668 0.666504H5.33464C4.41464 0.666504 3.66797 1.41317 3.66797 2.33317V13.6665C3.66797 14.5865 4.41464 15.3332 5.33464 15.3332H10.668C11.588 15.3332 12.3346 14.5865 12.3346 13.6665V2.33317C12.3346 1.41317 11.588 0.666504 10.668 0.666504ZM8.0013 14.6665C7.44797 14.6665 7.0013 14.2198 7.0013 13.6665C7.0013 13.1132 7.44797 12.6665 8.0013 12.6665C8.55464 12.6665 9.0013 13.1132 9.0013 13.6665C9.0013 14.2198 8.55464 14.6665 8.0013 14.6665ZM5.0013 11.9998H11.0013V2.6665H5.0013V11.9998Z" fill="#3E5D57"/></symbol><symbol viewBox="0 0 16 15" id="svg-star"><path d="M7.05544 0.71739C7.36673 -0.17817 8.63327 -0.178173 8.94456 0.717387L10.1227 4.10665C10.26 4.50172 10.6287 4.76959 11.0469 4.77811L14.6343 4.85122C15.5822 4.87053 15.9736 6.07508 15.2181 6.64788L12.3587 8.81567C12.0254 9.06835 11.8846 9.50178 12.0057 9.90211L13.0448 13.3366C13.3193 14.2441 12.2947 14.9885 11.5164 14.447L8.57118 12.3975C8.22786 12.1586 7.77214 12.1586 7.42882 12.3975L4.48356 14.447C3.70532 14.9885 2.68067 14.2441 2.95522 13.3366L3.99427 9.90212C4.11539 9.50178 3.97456 9.06835 3.64126 8.81567L0.78194 6.64788C0.0264076 6.07508 0.417786 4.87053 1.36571 4.85122L4.95314 4.77811C5.37131 4.76959 5.74 4.50172 5.87733 4.10665L7.05544 0.71739Z"/></symbol><symbol viewBox="0 0 40 200" fill="none" id="svg-tab-shape-1"><path d="M0 0C3.52143 6.4026 9.44331 11.143 16.4615 13.1773L29.1759 16.8626C35.588 18.7211 40 24.5936 40 31.2696V168.73C40 175.406 35.588 181.279 29.1759 183.137L16.4615 186.823C9.44331 188.857 3.52143 193.597 0 200V0Z" fill="url(#rpaint0_linear_1506_30544)"/><defs><linearGradient id="rpaint0_linear_1506_30544" x1="0" y1="100" x2="40" y2="100" gradientUnits="userSpaceOnUse"><stop stop-color="#3F9983"/><stop offset=".36" stop-color="#33CFB3"/><stop offset="1" stop-color="#34CFB3"/></linearGradient></defs></symbol><symbol viewBox="0 0 40 200" fill="none" id="svg-tab-shape-2"><path d="M0 0C3.52143 6.4026 9.44331 11.143 16.4615 13.1773L29.1759 16.8626C35.588 18.7211 40 24.5936 40 31.2696V168.73C40 175.406 35.588 181.279 29.1759 183.137L16.4615 186.823C9.44331 188.857 3.52143 193.597 0 200V0Z" fill="url(#spaint0_linear_1506_30541)"/><defs><linearGradient id="spaint0_linear_1506_30541" x1="0" y1="100" x2="40" y2="100" gradientUnits="userSpaceOnUse"><stop stop-color="#415A14"/><stop offset=".36" stop-color="#5C7A28"/><stop offset="1" stop-color="#5C7A28"/></linearGradient></defs></symbol><symbol viewBox="0 0 40 40" id="svg-telegram"><path d="M5.96891 19.4783L12.672 21.9926L15.2666 30.3781C15.4326 30.9151 16.0861 31.1136 16.5198 30.7573L20.2562 27.6961C20.6479 27.3754 21.2058 27.3594 21.6151 27.658L28.3543 32.5751C28.8183 32.9141 29.4757 32.6585 29.592 32.0951L34.5288 8.22988C34.6559 7.61437 34.0541 7.10089 33.4709 7.32757L5.96106 17.9928C5.28217 18.256 5.28808 19.2219 5.96891 19.4783ZM14.8484 20.6542L27.9489 12.5455C28.1843 12.4002 28.4265 12.7201 28.2244 12.9086L17.4127 23.0085C17.0327 23.364 16.7875 23.8398 16.7181 24.3562L16.3498 27.0991C16.301 27.4653 15.7891 27.5017 15.6886 27.1472L14.2721 22.1455C14.1099 21.575 14.3463 20.9656 14.8484 20.6542Z"/></symbol><symbol viewBox="0 0 40 40" id="svg-vk"><path d="M34.3918 25.899C34.3566 25.823 34.3237 25.7601 34.2932 25.7096C33.7885 24.8006 32.824 23.6848 31.4002 22.362L31.3702 22.3317L31.3551 22.3169L31.3399 22.3016H31.3246C30.6784 21.6857 30.2693 21.2715 30.0979 21.0594C29.7844 20.6555 29.7141 20.2466 29.8855 19.8324C30.0065 19.5194 30.4613 18.8584 31.2487 17.8484C31.6628 17.3132 31.9909 16.8842 32.2331 16.561C33.9801 14.2385 34.7375 12.7543 34.5052 12.108L34.4149 11.9569C34.3543 11.866 34.1978 11.7828 33.9456 11.707C33.6929 11.6313 33.3699 11.6187 32.976 11.6692L28.6139 11.6993C28.5432 11.6743 28.4423 11.6766 28.3109 11.707C28.1796 11.7373 28.1139 11.7525 28.1139 11.7525L28.038 11.7905L27.9777 11.836C27.9272 11.8662 27.8717 11.9192 27.811 11.9949C27.7507 12.0704 27.7003 12.159 27.6599 12.26C27.185 13.4818 26.6451 14.6178 26.0391 15.6679C25.6654 16.294 25.3223 16.8367 25.0089 17.2962C24.696 17.7555 24.4334 18.0939 24.2215 18.3108C24.0093 18.528 23.8178 18.7019 23.6458 18.8333C23.4741 18.9648 23.343 19.0203 23.2523 19C23.1613 18.9797 23.0756 18.9595 22.9945 18.9394C22.8532 18.8484 22.7396 18.7248 22.6539 18.5683C22.5678 18.4118 22.5099 18.2148 22.4796 17.9775C22.4495 17.74 22.4317 17.5358 22.4266 17.3641C22.4218 17.1926 22.424 16.95 22.4343 16.6369C22.4448 16.3238 22.4495 16.1119 22.4495 16.0008C22.4495 15.617 22.457 15.2005 22.472 14.7512C22.4873 14.3019 22.4996 13.9458 22.51 13.6835C22.5203 13.421 22.525 13.1432 22.525 12.8504C22.525 12.5575 22.5072 12.3279 22.472 12.1612C22.4372 11.9947 22.3838 11.8331 22.3134 11.6765C22.2425 11.52 22.1389 11.3989 22.0028 11.313C21.8666 11.2271 21.6971 11.159 21.4955 11.1084C20.9602 10.9873 20.2787 10.9218 19.4505 10.9116C17.5725 10.8914 16.3657 11.0127 15.8305 11.2752C15.6185 11.3862 15.4266 11.5377 15.255 11.7295C15.0732 11.9517 15.0479 12.073 15.1791 12.0929C15.7851 12.1837 16.214 12.4008 16.4665 12.7441L16.5575 12.926C16.6283 13.0573 16.6989 13.2896 16.7696 13.6228C16.8402 13.956 16.8858 14.3245 16.9059 14.7282C16.9563 15.4655 16.9563 16.0966 16.9059 16.6216C16.8553 17.1468 16.8076 17.5556 16.762 17.8485C16.7164 18.1413 16.6483 18.3786 16.5575 18.5603C16.4665 18.7421 16.406 18.8532 16.3756 18.8935C16.3453 18.9338 16.3201 18.9592 16.3 18.9692C16.1688 19.0195 16.0323 19.0451 15.891 19.0451C15.7495 19.0451 15.5779 18.9743 15.376 18.8329C15.1742 18.6915 14.9647 18.4972 14.7475 18.2498C14.5304 18.0023 14.2855 17.6564 14.0128 17.2122C13.7403 16.7679 13.4575 16.2429 13.1647 15.637L12.9224 15.1977C12.7709 14.915 12.564 14.5034 12.3015 13.9633C12.0388 13.423 11.8066 12.9004 11.6047 12.3955C11.524 12.1834 11.4028 12.022 11.2412 11.9109L11.1654 11.8653C11.115 11.825 11.0341 11.7822 10.9231 11.7366C10.812 11.691 10.696 11.6583 10.5748 11.6382L6.42464 11.6684C6.00055 11.6684 5.7128 11.7644 5.56129 11.9563L5.50065 12.0471C5.47036 12.0976 5.45508 12.1784 5.45508 12.2895C5.45508 12.4006 5.48537 12.537 5.54601 12.6984C6.15185 14.1223 6.81069 15.4955 7.52253 16.8183C8.23437 18.1411 8.85294 19.2066 9.37788 20.0139C9.90293 20.8218 10.4381 21.5843 10.9834 22.301C11.5287 23.018 11.8897 23.4775 12.0663 23.6794C12.2431 23.8816 12.382 24.0328 12.483 24.1337L12.8617 24.4972C13.104 24.7396 13.4599 25.0299 13.9294 25.3681C14.3991 25.7065 14.9191 26.0397 15.4896 26.3681C16.0602 26.696 16.724 26.9636 17.4814 27.1705C18.2387 27.3777 18.9758 27.4608 19.6928 27.4207H21.4347C21.7879 27.3902 22.0556 27.2791 22.2375 27.0874L22.2978 27.0115C22.3383 26.9512 22.3762 26.8576 22.4112 26.7316C22.4467 26.6054 22.4643 26.4663 22.4643 26.3151C22.4539 25.881 22.487 25.4897 22.5625 25.1414C22.638 24.7932 22.7241 24.5306 22.8203 24.3538C22.9165 24.1771 23.025 24.0281 23.1458 23.9072C23.2669 23.7861 23.3532 23.7127 23.4038 23.6875C23.4541 23.6621 23.4942 23.6448 23.5245 23.6345C23.7668 23.5537 24.052 23.6319 24.3805 23.8694C24.7088 24.1067 25.0166 24.3997 25.3046 24.748C25.5924 25.0965 25.9382 25.4876 26.342 25.9217C26.7461 26.3559 27.0994 26.6788 27.4022 26.8911L27.705 27.0729C27.9073 27.1942 28.1698 27.3052 28.493 27.4062C28.8156 27.5071 29.0983 27.5324 29.341 27.4819L33.2183 27.4214C33.6018 27.4214 33.9002 27.3579 34.1119 27.2319C34.324 27.1057 34.45 26.9667 34.4906 26.8154C34.5312 26.664 34.5333 26.4922 34.4983 26.3002C34.4624 26.1086 34.427 25.9747 34.3918 25.899Z"/></symbol><symbol viewBox="0 0 40 40" id="svg-youtube"><path d="M34.5285 17.4429C34.5172 16.8293 34.4681 16.0535 34.3821 15.1163C34.2956 14.1785 34.172 13.3404 34.0111 12.6019C33.8271 11.7725 33.4275 11.0735 32.8124 10.5053C32.1974 9.93703 31.4815 9.6076 30.6648 9.51655C28.1118 9.23267 24.254 9.09058 19.0912 9.09058C13.9283 9.09058 10.0704 9.23267 7.51768 9.51655C6.70113 9.60754 5.98807 9.93703 5.3788 10.5053C4.76929 11.0733 4.37255 11.7723 4.18854 12.6019C4.01624 13.3406 3.88671 14.1786 3.8005 15.1163C3.71441 16.0535 3.66548 16.829 3.65406 17.4429C3.6424 18.0565 3.63672 18.9087 3.63672 19.9997C3.63672 21.0905 3.6424 21.943 3.65412 22.5565C3.66554 23.1705 3.71447 23.9458 3.80056 24.883C3.88677 25.8208 4.01044 26.6589 4.17144 27.3974C4.35546 28.2271 4.75497 28.9259 5.37016 29.4939C5.98547 30.0621 6.70143 30.3916 7.51774 30.4825C10.0705 30.7667 13.9281 30.9088 19.0913 30.9088C24.2546 30.9088 28.1119 30.7667 30.6648 30.4825C31.4815 30.3916 32.1943 30.0621 32.8038 29.4939C33.4133 28.9259 33.8098 28.2267 33.9938 27.3974C34.1662 26.6589 34.2956 25.8208 34.3821 24.883C34.4681 23.9459 34.5169 23.1701 34.5285 22.5565C34.54 21.943 34.5458 21.0905 34.5458 19.9997C34.5458 18.9087 34.5401 18.0565 34.5285 17.4429ZM25.1972 20.9202L16.3662 26.3745C16.2051 26.4881 16.0095 26.5449 15.7796 26.5449C15.6072 26.5449 15.429 26.4993 15.245 26.4084C14.8656 26.2041 14.676 25.8858 14.676 25.4541V14.5453C14.676 14.1137 14.8657 13.7954 15.245 13.5909C15.6361 13.3861 16.0097 13.3976 16.3662 13.625L25.1973 19.0794C25.5422 19.2723 25.7146 19.5792 25.7146 19.9997C25.7146 20.42 25.5421 20.7271 25.1972 20.9202Z"/></symbol></svg>