<svg width="32" height="32" viewBox="0 0 32 32" fill="none" xmlns="http://www.w3.org/2000/svg">
<path fill-rule="evenodd" clip-rule="evenodd" d="M25.3337 22.3332L27.0537 24.0532C27.8937 24.8932 27.3071 26.3332 26.1071 26.3332H5.88039C4.69373 26.3332 4.10706 24.8932 4.94706 24.0532L6.66706 22.3332V14.3332C6.66706 9.8665 9.81373 6.13317 14.0004 5.2265V3.6665C14.0004 2.55984 14.8937 1.6665 16.0004 1.6665C17.1071 1.6665 18.0004 2.55984 18.0004 3.6665V5.2265C22.1871 6.13317 25.3337 9.8665 25.3337 14.3332V22.3332ZM18.6537 27.6798C18.6537 29.1465 17.4671 30.3332 16.0004 30.3332C14.5337 30.3332 13.3471 29.1465 13.3471 27.6798H18.6537ZM17.3337 18.3332V20.9998H14.6671V18.3332H17.3337ZM16.0004 15.6665C16.7337 15.6665 17.3337 15.0665 17.3337 14.3332V11.6665C17.3337 10.9332 16.7337 10.3332 16.0004 10.3332C15.2671 10.3332 14.6671 10.9332 14.6671 11.6665V14.3332C14.6671 15.0665 15.2671 15.6665 16.0004 15.6665Z" fill="#FF0000"/>
</svg>
