<svg width="24" height="24" viewBox="0 0 24 24" fill="none" xmlns="http://www.w3.org/2000/svg">
<path fill-rule="evenodd" clip-rule="evenodd" d="M20.057 0.0330347C20.0053 0.0559796 18.9328 1.10642 17.6735 2.36731C15.4894 4.55416 15.3839 4.66776 15.3839 4.83109C15.3839 5.18352 15.7712 5.43366 16.071 5.27479C16.2294 5.1908 20.5629 0.858205 20.6392 0.707539C20.8257 0.339013 20.4216 -0.129081 20.057 0.0330347ZM22.8984 0.539276C22.8064 0.574374 16.0033 7.29839 15.9397 7.41706C15.7479 7.77507 16.0953 8.20741 16.4876 8.09907C16.5861 8.07185 17.6718 7.0254 20.0944 4.62276C23.5037 1.24165 23.5604 1.18244 23.5581 1.00474C23.5541 0.675866 23.1984 0.424927 22.8984 0.539276ZM21.0781 5.53741C19.855 6.75682 18.811 7.82387 18.7581 7.90871C18.565 8.21778 18.8037 8.62253 19.179 8.62253C19.3428 8.62253 19.4559 8.51733 21.6752 6.30135C23.9939 3.98621 24 3.97969 24 3.78623C24 3.51953 23.7856 3.32034 23.4986 3.32034H23.3019L21.0781 5.53741ZM12.4296 4.14481C11.9614 4.53849 11.3008 5.70652 11.0781 6.5345C10.9633 6.96177 10.952 7.07917 10.9522 7.84832C10.9523 8.56843 10.9673 8.74706 11.0537 9.06031C11.3138 10.0029 11.7533 10.7743 12.3931 11.4112C13.8119 12.8236 15.8749 13.2947 17.7825 12.6422C18.3385 12.452 18.8317 12.1761 19.3361 11.7729C20.0981 11.1637 20.0886 10.912 19.2806 10.3134C18.6213 9.82505 17.8738 9.50133 17.0512 9.34781C16.4414 9.23402 15.4287 9.27259 14.8203 9.43278C14.5749 9.49739 14.3713 9.54736 14.3678 9.54389C14.3643 9.54037 14.4156 9.33692 14.4819 9.09175C14.5902 8.69099 14.6024 8.56073 14.6025 7.8014C14.6026 7.03352 14.5913 6.91448 14.4772 6.49091C14.2528 5.65729 13.7139 4.72838 13.1619 4.22359C12.8918 3.9766 12.6595 3.95163 12.4296 4.14481ZM12.9756 5.58433C13.2223 5.9507 13.4301 6.39636 13.5389 6.79257C13.6039 7.02911 13.6225 7.27137 13.6216 7.87178C13.6203 8.73233 13.5704 8.99523 13.2957 9.58988C13.1412 9.92438 12.8486 10.4056 12.7998 10.4056C12.7424 10.4056 12.3497 9.75373 12.2071 9.42175C11.9704 8.87122 11.8922 8.38966 11.9216 7.66443C11.9473 7.03263 12.0174 6.70614 12.2399 6.18259C12.3596 5.90101 12.7099 5.29107 12.7519 5.29107C12.7663 5.29107 12.8669 5.42306 12.9756 5.58433ZM9.18214 7.50832C8.96149 7.65688 8.43801 8.36197 8.20694 8.8219C7.79355 9.64473 7.62029 10.384 7.62696 11.2971C7.63833 12.8623 8.29881 14.2331 9.5069 15.1987C10.501 15.9935 11.547 16.3713 12.7538 16.3718C14.0453 16.3723 15.1903 15.954 16.1449 15.1332C16.7215 14.6374 16.738 14.434 16.2392 13.9644C15.0225 12.8187 13.2098 12.393 11.4663 12.8434C11.2618 12.8963 11.0874 12.9324 11.0787 12.9237C11.07 12.9151 11.1045 12.7456 11.1553 12.5471C11.402 11.5834 11.3681 10.5792 11.056 9.60789C10.7478 8.64867 9.83623 7.40256 9.44275 7.40256C9.38583 7.40256 9.26855 7.45014 9.18214 7.50832ZM9.69862 8.98148C9.96881 9.39205 10.1537 9.84077 10.2715 10.3718C10.35 10.7261 10.3632 10.9106 10.3439 11.3909C10.3195 12.0004 10.2546 12.3146 10.0446 12.8402C9.91048 13.1757 9.56336 13.784 9.50601 13.784C9.38141 13.784 8.90382 12.8659 8.73197 12.296C8.6247 11.9403 8.60732 11.7966 8.60563 11.2502C8.60342 10.5546 8.66039 10.241 8.9017 9.62023C9.04429 9.2534 9.38414 8.66945 9.45505 8.66945C9.47609 8.66945 9.58566 8.80989 9.69862 8.98148ZM17.0277 10.3901C17.516 10.4914 17.9273 10.6522 18.3532 10.9083C18.7727 11.1606 18.7728 11.1595 18.2964 11.4375C17.0092 12.1886 15.5272 12.253 14.2332 11.614C13.8919 11.4455 13.5524 11.2376 13.5523 11.197C13.5523 11.1807 13.6844 11.0814 13.8458 10.9764C14.8094 10.3496 15.8808 10.1522 17.0277 10.3901ZM5.69766 11.023C5.40027 11.3395 4.99824 11.9466 4.79484 12.3864C3.76539 14.6125 4.40136 17.189 6.34301 18.6585C6.99043 19.1485 7.91904 19.5245 8.78523 19.6476C10.0982 19.8341 11.5462 19.4612 12.6052 18.664C13.1555 18.2497 13.3174 18.0535 13.3174 17.801C13.3174 17.6093 13.2976 17.5768 13.0229 17.3202C12.4626 16.7966 11.7433 16.4072 10.9318 16.1883C10.5132 16.0754 10.4011 16.0654 9.56016 16.0655C8.72361 16.0656 8.60573 16.0761 8.19816 16.1863C7.95276 16.2527 7.74649 16.3022 7.73973 16.2963C7.73301 16.2903 7.75875 16.197 7.79698 16.0888C8.0094 15.4872 8.07595 14.3277 7.93928 13.608C7.75316 12.6278 7.24809 11.6592 6.60208 11.0436C6.35555 10.8086 6.30535 10.7809 6.1258 10.7809C5.94484 10.7809 5.90271 10.8048 5.69766 11.023ZM6.38749 12.3256C6.83559 12.999 7.04487 13.723 7.03975 14.5816C7.03472 15.4302 6.83366 16.1401 6.40764 16.8141L6.20869 17.1288L6.0971 16.9931C5.93037 16.7902 5.49073 15.8681 5.39487 15.5201C5.33034 15.286 5.31169 15.0515 5.31451 14.5112C5.3178 13.8894 5.33283 13.7593 5.44357 13.3946C5.51252 13.1676 5.63496 12.8509 5.71564 12.6908C5.85659 12.4112 6.11715 12.0009 6.15379 12.0009C6.16351 12.0009 6.26867 12.147 6.38749 12.3256ZM13.8575 13.7579C14.0125 13.7991 14.2556 13.8772 14.3976 13.9315C14.6867 14.0419 15.3839 14.4402 15.3839 14.4949C15.3839 14.5582 14.9628 14.8216 14.56 15.0102C13.9231 15.3084 13.5375 15.3921 12.8008 15.3921C12.1023 15.3921 11.7319 15.3184 11.1179 15.0574C10.7669 14.9082 10.2646 14.6073 10.2646 14.5462C10.2646 14.4966 10.6818 14.2274 11.0078 14.0666C11.3427 13.9015 11.6586 13.7935 12.0493 13.7105C12.4411 13.6273 13.4673 13.6542 13.8575 13.7579ZM2.65203 14.1799C2.49201 14.2698 1.97426 14.9279 1.75212 15.3236C1.29965 16.1297 1.09422 16.927 1.09098 17.8896C1.08708 19.0289 1.35197 19.9198 1.96712 20.8362L2.17997 21.1533L1.12846 22.1895C-0.0153444 23.3166 -0.0794996 23.4065 0.0456171 23.7056C0.127384 23.9011 0.386165 24.0389 0.580415 23.9901C0.645416 23.9738 1.07064 23.5975 1.52532 23.1539C1.97999 22.7102 2.47388 22.2439 2.62291 22.1174L2.8938 21.8877L2.99807 21.9834C3.36858 22.3234 4.22561 22.7531 4.90164 22.9378C5.41234 23.0773 6.56211 23.1143 7.12236 23.0091C8.15133 22.8162 9.0473 22.3669 9.736 21.6985C10.2251 21.2239 10.104 20.9188 9.16095 20.249C8.40955 19.7154 7.28031 19.3682 6.29605 19.3682C5.90947 19.3682 5.15793 19.4749 4.78849 19.5822C4.64516 19.6238 4.52126 19.6507 4.51323 19.6418C4.5052 19.633 4.5524 19.4252 4.61815 19.18C4.72434 18.784 4.73782 18.6425 4.7389 17.9131C4.73998 17.1726 4.728 17.0472 4.61721 16.6365C4.38957 15.7929 3.93123 14.9801 3.37145 14.4276C3.0672 14.1273 2.86774 14.0586 2.65203 14.1799ZM3.07091 15.6022C3.28944 15.9434 3.58415 16.5883 3.67672 16.9277C3.79681 17.3681 3.79381 18.5145 3.67137 18.9688C3.52784 19.5014 3.05668 20.4469 2.93485 20.4469C2.91268 20.4469 2.80682 20.3178 2.69955 20.16C2.0264 19.1697 1.84252 17.9165 2.19434 16.7166C2.3398 16.2206 2.777 15.3793 2.88934 15.3793C2.91071 15.3793 2.99243 15.4796 3.07091 15.6022ZM9.96571 17.0214C10.4474 17.0722 11.0424 17.2446 11.4591 17.4544C11.7841 17.618 12.0963 17.8182 12.0963 17.8631C12.0963 17.9226 11.3673 18.3307 11.0118 18.4701C10.1116 18.8233 9.1153 18.8555 8.19816 18.561C7.84089 18.4464 7.4128 18.2394 7.12541 18.0424L6.92154 17.9027L7.1489 17.7378C7.64274 17.3798 8.38057 17.1014 9.04354 17.0231C9.4791 16.9716 9.49192 16.9716 9.96571 17.0214ZM7.25884 20.4729C7.67834 20.585 8.21441 20.8162 8.54519 21.0279L8.82177 21.2048L8.59215 21.3689C7.23963 22.3357 5.31972 22.357 3.86026 21.4213L3.62886 21.2729L3.78639 21.1416C4.12755 20.857 4.83635 20.5456 5.42718 20.4206C5.83545 20.3343 6.84803 20.3632 7.25884 20.4729Z" fill="#3E5D57"/>
</svg>
