<svg width="24" height="24" viewBox="0 0 24 24" fill="none" xmlns="http://www.w3.org/2000/svg">
<path d="M15.5355 18.6655C13.5829 20.4448 10.4171 20.4448 8.46446 18.6655C6.51184 16.8861 6.51184 14.0012 8.46447 12.2218L11.3264 9.61379C11.7081 9.26597 12.2919 9.26597 12.6736 9.61379L15.5355 12.2218C17.4882 14.0012 17.4882 16.8861 15.5355 18.6655Z" stroke="#3E5D57"/>
<path d="M12 18C12.5121 18 13.0243 17.6967 13.415 17.0901C13.7883 16.5106 13.9833 15.7591 14 15" stroke="#3E5D57" stroke-linecap="round"/>
<circle cx="12" cy="6" r="1" fill="#3E5D57"/>
<circle r="1.5" transform="matrix(-1 0 0 1 21.5 12.5)" fill="#3E5D57"/>
<circle cx="2.5" cy="12.5" r="1.5" fill="#3E5D57"/>
<circle r="1.5" transform="matrix(-1 0 0 1 21.5 4.5)" fill="#3E5D57"/>
<circle cx="2.5" cy="4.5" r="1.5" fill="#3E5D57"/>
<circle r="1.5" transform="matrix(-1 0 0 1 17.5 8.5)" fill="#3E5D57"/>
<circle cx="6.5" cy="8.5" r="1.5" fill="#3E5D57"/>
<path d="M22 4L18 8" stroke="#3E5D57"/>
<path d="M2 4L6 8" stroke="#3E5D57"/>
<path d="M22 13L18 9" stroke="#3E5D57"/>
<path d="M2 13L6 9" stroke="#3E5D57"/>
</svg>
