<svg style="display: none;" aria-hidden="true" xmlns="http://www.w3.org/2000/svg" xmlns:xlink="http://www.w3.org/1999/xlink"><symbol viewBox="0 0 24 24" id="svg-angle-down"><path d="M7 10L17 10L12 15L7 10Z"/></symbol><symbol viewBox="0 0 18 18" id="svg-arrow-left"><path d="M8.83924 0.0444191L0.197266 8.68639L8.83924 17.3284L10.3786 15.816L4.32921 9.76664L17.4812 9.76664L17.4812 7.60615L4.32921 7.60615L10.3786 1.55676L8.83924 0.0444191Z"/></symbol><symbol viewBox="0 0 18 18" id="svg-arrow-right"><path d="M9.16076 0.0444191L17.8027 8.68639L9.16076 17.3284L7.62141 15.816L13.6708 9.76664L0.518783 9.76664L0.518783 7.60615L13.6708 7.60615L7.62141 1.55676L9.16076 0.0444191Z"/></symbol><symbol viewBox="0 0 24 25" id="svg-cube"><path d="M5 16.6145L11 20.2343V13.0989L5 9.47909V16.6145ZM13 20.2343L19 16.6145V9.47909L13 13.0989V20.2343ZM6.075 7.73429L12 11.302L17.925 7.73429L12 4.16659L6.075 7.73429ZM3 17.8385V7.16138L12 1.77075L21 7.16138V17.8385L12 23.2291L3 17.8385Z"/></symbol><symbol viewBox="0 0 34 34" id="svg-instagram"><path d="M16.9997 13.4868C16.3048 13.4868 15.6255 13.6929 15.0478 14.0789C14.47 14.465 14.0197 15.0137 13.7538 15.6557C13.4879 16.2976 13.4183 17.0041 13.5538 17.6856C13.6894 18.3671 14.024 18.9931 14.5154 19.4845C15.0067 19.9758 15.6327 20.3104 16.3143 20.446C16.9958 20.5816 17.7022 20.512 18.3442 20.2461C18.9861 19.9801 19.5349 19.5298 19.9209 18.9521C20.307 18.3743 20.513 17.695 20.513 17.0002C20.513 16.5388 20.4221 16.0819 20.2456 15.6557C20.069 15.2294 19.8102 14.8421 19.484 14.5159C19.1577 14.1896 18.7704 13.9308 18.3442 13.7543C17.9179 13.5777 17.4611 13.4868 16.9997 13.4868ZM31.0672 10.016C31.0597 8.92199 30.8583 7.83797 30.4722 6.81433C30.1878 6.06528 29.7479 5.38505 29.1813 4.81851C28.6148 4.25197 27.9346 3.81201 27.1855 3.52766C26.1619 3.14157 25.0779 2.94012 23.9838 2.93266C22.1563 2.8335 21.618 2.8335 16.9997 2.8335C12.3813 2.8335 11.843 2.8335 10.0155 2.93266C8.9215 2.94012 7.83748 3.14157 6.81384 3.52766C6.06479 3.81201 5.38456 4.25197 4.81802 4.81851C4.25148 5.38505 3.81152 6.06528 3.52717 6.81433C3.14108 7.83797 2.93963 8.92199 2.93217 10.016C2.83301 11.8435 2.83301 12.3818 2.83301 17.0002C2.83301 21.6185 2.83301 22.1568 2.93217 23.9843C2.94742 25.0822 3.1486 26.1695 3.52717 27.2002C3.81026 27.9458 4.24986 28.6221 4.81634 29.1835C5.38045 29.7534 6.06214 30.1934 6.81384 30.4727C7.83748 30.8588 8.9215 31.0602 10.0155 31.0677C11.843 31.1668 12.3813 31.1668 16.9997 31.1668C21.618 31.1668 22.1563 31.1668 23.9838 31.0677C25.0779 31.0602 26.1619 30.8588 27.1855 30.4727C27.9372 30.1934 28.6189 29.7534 29.183 29.1835C29.7495 28.6221 30.1891 27.9458 30.4722 27.2002C30.8579 26.1715 31.0593 25.0829 31.0672 23.9843C31.1663 22.1568 31.1663 21.6185 31.1663 17.0002C31.1663 12.3818 31.1663 11.8435 31.0672 10.016ZM27.4688 21.3493C27.4234 22.2236 27.2368 23.0847 26.9163 23.8993C26.6413 24.5789 26.2325 25.1962 25.7141 25.7146C25.1957 26.233 24.5784 26.6418 23.8988 26.9168C23.0765 27.2194 22.2106 27.3869 21.3347 27.4127H12.6647C11.7888 27.3869 10.9229 27.2194 10.1005 26.9168C9.39799 26.6558 8.76357 26.2393 8.24467 25.6985C7.73137 25.1903 7.33495 24.5763 7.08301 23.8993C6.77921 23.0778 6.61637 22.2109 6.60134 21.3352V12.6652C6.61637 11.7894 6.77921 10.9225 7.08301 10.101C7.34407 9.39848 7.76056 8.76406 8.30134 8.24516C8.81181 7.73463 9.42513 7.33863 10.1005 7.0835C10.9229 6.7809 11.7888 6.61346 12.6647 6.58766H21.3347C22.2106 6.61346 23.0765 6.7809 23.8988 7.0835C24.6014 7.34456 25.2358 7.76105 25.7547 8.30183C26.268 8.81006 26.6644 9.42402 26.9163 10.101C27.2189 10.9234 27.3864 11.7893 27.4122 12.6652V17.0002C27.4122 19.9185 27.5113 20.216 27.4688 21.3352V21.3493ZM25.2022 10.8093C25.0335 10.3517 24.7676 9.93616 24.4227 9.5913C24.0778 9.24644 23.6623 8.9805 23.2047 8.81183C22.5763 8.59403 21.9146 8.48853 21.2497 8.50016H12.7497C12.0814 8.50669 11.4195 8.63139 10.7947 8.8685C10.3441 9.02951 9.93291 9.28459 9.5885 9.61678C9.2441 9.94897 8.97434 10.3507 8.79717 10.7952C8.59144 11.4261 8.49093 12.0866 8.49967 12.7502V21.2502C8.51372 21.9177 8.63818 22.5783 8.86801 23.2052C9.03668 23.6628 9.30262 24.0783 9.64748 24.4232C9.99233 24.7681 10.4079 25.034 10.8655 25.2027C11.47 25.425 12.106 25.5493 12.7497 25.571H21.2497C21.918 25.5645 22.5798 25.4398 23.2047 25.2027C23.6623 25.034 24.0778 24.7681 24.4227 24.4232C24.7676 24.0783 25.0335 23.6628 25.2022 23.2052C25.4393 22.5803 25.564 21.9185 25.5705 21.2502V12.7502C25.5709 12.0812 25.446 11.4181 25.2022 10.7952V10.8093ZM16.9997 22.4118C16.2897 22.4118 15.5866 22.2718 14.9309 21.9996C14.2751 21.7275 13.6794 21.3286 13.178 20.8259C12.6767 20.3232 12.2794 19.7265 12.009 19.07C11.7385 18.4136 11.6003 17.7102 11.6022 17.0002C11.6022 15.9292 11.9199 14.8824 12.5152 13.9921C13.1105 13.1019 13.9565 12.4083 14.9462 11.9991C15.9358 11.5899 17.0247 11.4836 18.0748 11.6935C19.125 11.9035 20.0892 12.4203 20.8455 13.1786C21.6017 13.9368 22.116 14.9024 22.3232 15.9531C22.5305 17.0038 22.4213 18.0924 22.0095 19.081C21.5977 20.0696 20.9019 20.9138 20.0101 21.5067C19.1183 22.0996 18.0706 22.4146 16.9997 22.4118ZM22.6663 12.651C22.3532 12.6178 22.0634 12.47 21.8527 12.2359C21.6421 12.0018 21.5256 11.698 21.5256 11.3831C21.5256 11.0682 21.6421 10.7644 21.8527 10.5303C22.0634 10.2962 22.3532 10.1483 22.6663 10.1152C22.9795 10.1483 23.2693 10.2962 23.48 10.5303C23.6906 10.7644 23.8071 11.0682 23.8071 11.3831C23.8071 11.698 23.6906 12.0018 23.48 12.2359C23.2693 12.47 22.9795 12.6178 22.6663 12.651Z"/></symbol><symbol viewBox="0 0 70 70" id="svg-phone"><path d="M19.3083 31.4708C23.5083 39.725 30.275 46.4625 38.5292 50.6917L44.9458 44.275C45.7333 43.4875 46.9 43.225 47.9208 43.575C51.1875 44.6542 54.7167 45.2375 58.3333 45.2375C59.9375 45.2375 61.25 46.55 61.25 48.1542V58.3333C61.25 59.9375 59.9375 61.25 58.3333 61.25C30.9458 61.25 8.75 39.0542 8.75 11.6667C8.75 10.0625 10.0625 8.75 11.6667 8.75H21.875C23.4792 8.75 24.7917 10.0625 24.7917 11.6667C24.7917 15.3125 25.375 18.8125 26.4542 22.0792C26.775 23.1 26.5417 24.2375 25.725 25.0542L19.3083 31.4708Z"/></symbol><symbol viewBox="0 0 50 50" id="svg-round-arrow-down"><path fill-rule="evenodd" clip-rule="evenodd" d="M25 48.8889C38.1935 48.8889 48.8889 38.1935 48.8889 25C48.8889 11.8065 38.1935 1.11111 25 1.11111C11.8065 1.11111 1.11111 11.8065 1.11111 25C1.11111 38.1935 11.8065 48.8889 25 48.8889ZM25 50C38.8071 50 50 38.8071 50 25C50 11.1929 38.8071 0 25 0C11.1929 0 0 11.1929 0 25C0 38.8071 11.1929 50 25 50Z"/><path d="M32.9558 27.1608L24.3139 35.8027L15.6719 27.1608L17.1842 25.6214L23.2336 31.6708L23.2336 18.5188L25.3941 18.5188L25.3941 31.6708L31.4435 25.6214L32.9558 27.1608Z"/></symbol></svg>