<svg width="146" height="146" viewBox="0 0 146 146" fill="none" xmlns="http://www.w3.org/2000/svg">
<path d="M97.445 46.1602V130.63H31.0759C24.439 130.63 19.0088 125.2 19.0088 118.563V46.1602H97.445Z" fill="#143952"/>
<path d="M43.1433 15.9923V118.563C43.1433 125.2 37.7131 130.63 31.0762 130.63H118.563C125.2 130.63 130.63 125.2 130.63 118.563V15.9923H43.1433Z" fill="#0067AA"/>
<path d="M61.2441 31.0763H115.546V43.1434H61.2441V31.0763ZM61.2441 52.1937H85.3784V58.2273H61.2441V52.1937ZM91.4119 52.1937H115.546V58.2273H91.4119V52.1937ZM61.2441 64.2609H85.3784V70.2944H61.2441V64.2609ZM91.4119 64.2609H115.546V70.2944H91.4119V64.2609ZM61.2441 76.328H85.3784V82.3615H61.2441V76.328ZM91.4119 76.328H115.546V82.3615H91.4119V76.328ZM61.2441 88.3951H85.3784V94.4286H61.2441V88.3951ZM91.4119 88.3951H115.546V94.4286H91.4119V88.3951ZM61.2441 100.462H85.3784V106.496H61.2441V100.462ZM91.4119 100.462H115.546V106.496H91.4119V100.462ZM61.2441 112.529H85.3784V118.563H61.2441V112.529ZM91.4119 112.529H115.546V118.563H91.4119V112.529Z" fill="#143952"/>
</svg>
