<svg width="17" height="19" viewBox="0 0 17 19" fill="none" xmlns="http://www.w3.org/2000/svg">
<path d="M2.10992 9.5034C2.10992 6.82279 3.76921 4.52274 6.11445 3.57554L7.31112 1.17188C3.2317 1.75141 0.0842285 5.26642 0.0842285 9.5034C0.0842285 13.3582 2.68958 16.6158 6.23175 17.6084L6.46192 15.5603C3.93468 14.7076 2.10992 12.3146 2.10992 9.5034Z" fill="url(#paint0_linear)"/>
<path d="M16.9159 9.50277C16.9159 5.64871 14.3117 2.39178 10.7707 1.39844L10.5353 3.44502C13.064 4.29688 14.8902 6.69055 14.8902 9.50277C14.8902 12.1678 13.2502 14.4565 10.9266 15.4139L9.69678 17.8332C13.7724 17.2503 16.9159 13.737 16.9159 9.50277Z" fill="url(#paint1_linear)"/>
<path d="M13.3171 8.48352C13.3969 8.32659 13.3893 8.15422 13.2972 8.00419C13.2052 7.8541 13.0417 7.79428 12.8656 7.79428H9.0155L9.84433 0.588715C9.87256 0.34443 9.72114 0.0913459 9.48527 0.021333C9.43659 0.0069 9.38728 0 9.3386 0C9.1516 0 8.97486 0.106412 8.88782 0.281191L3.68098 10.7436C3.60287 10.9005 3.61147 11.1095 3.70377 11.2586C3.79613 11.4077 3.95894 11.5291 4.13436 11.5291H7.93372L7.15485 18.4635C7.12763 18.7068 7.27835 18.9115 7.51295 18.9816C7.56112 18.9961 7.60993 19 7.6581 19C7.84472 19 8.02146 18.8964 8.10964 18.7229L13.3171 8.48352Z" fill="url(#paint2_linear)"/>
<defs>
<linearGradient id="paint0_linear" x1="3.69767" y1="1.17187" x2="3.69767" y2="17.6084" gradientUnits="userSpaceOnUse">
<stop stop-color="#E13347"/>
<stop offset="1" stop-color="#D31D32"/>
</linearGradient>
<linearGradient id="paint1_linear" x1="13.3063" y1="1.39844" x2="13.3063" y2="17.8332" gradientUnits="userSpaceOnUse">
<stop stop-color="#E13347"/>
<stop offset="1" stop-color="#D31D32"/>
</linearGradient>
<linearGradient id="paint2_linear" x1="8.49998" y1="0" x2="8.49998" y2="19" gradientUnits="userSpaceOnUse">
<stop stop-color="#E13347"/>
<stop offset="1" stop-color="#D31D32"/>
</linearGradient>
</defs>
</svg>
