<svg width="16" height="16" viewBox="0 0 16 16" fill="none" xmlns="http://www.w3.org/2000/svg">
<path d="M6.28557 10.8569C6.28557 11.488 5.7739 11.9997 5.14272 11.9997C4.51154 11.9997 3.99986 11.488 3.99986 10.8569V1.14258H0.571289V10.8569C0.571289 13.3816 2.61799 15.4283 5.14272 15.4283C7.66745 15.4283 9.71415 13.3816 9.71415 10.8569V10.2854H6.28557V10.8569ZM1.71415 7.71401C1.71415 7.8718 1.58623 7.99972 1.42843 7.99972C1.27064 7.99972 1.14272 7.8718 1.14272 7.71401V3.71401C1.14272 3.55621 1.27064 3.42829 1.42843 3.42829C1.58623 3.42829 1.71415 3.55621 1.71415 3.71401V7.71401ZM1.71415 2.57115C1.71415 2.72895 1.58623 2.85686 1.42843 2.85686C1.27064 2.85686 1.14272 2.72895 1.14272 2.57115V1.99972C1.14272 1.84193 1.27064 1.71401 1.42843 1.71401C1.58623 1.71401 1.71415 1.84193 1.71415 1.99972V2.57115Z" fill="url(#paint0_linear)"/>
<path d="M4.57143 0.285714C4.57143 0.127919 4.44351 0 4.28571 0H0.285714C0.127919 0 0 0.127919 0 0.285714C0 0.44351 0.127919 0.571429 0.285714 0.571429H4.28571C4.44351 0.571429 4.57143 0.44351 4.57143 0.285714Z" fill="url(#paint1_linear)"/>
<path d="M10.0001 6.28516H6.00007C5.84227 6.28516 5.71436 6.41307 5.71436 6.57087V9.42801C5.71436 9.5858 5.84227 9.71372 6.00007 9.71372H10.0001C10.1579 9.71372 10.2858 9.5858 10.2858 9.42801V6.57087C10.2858 6.41307 10.1579 6.28516 10.0001 6.28516Z" fill="url(#paint2_linear)"/>
<path d="M15.7144 15.4277H11.7144C11.5566 15.4277 11.4287 15.5557 11.4287 15.7135C11.4287 15.8713 11.5566 15.9992 11.7144 15.9992H15.7144C15.8722 15.9992 16.0002 15.8713 16.0002 15.7135C16.0002 15.5557 15.8722 15.4277 15.7144 15.4277Z" fill="url(#paint3_linear)"/>
<path d="M11.9999 5.14369V14.858H15.4285V5.14369C15.4285 2.61896 13.3818 0.572266 10.8571 0.572266C8.33234 0.572266 6.28564 2.61896 6.28564 5.14369V5.71512H9.71422V5.14369C9.71422 4.51251 10.2259 4.00084 10.8571 4.00084C11.4883 4.00084 11.9999 4.51251 11.9999 5.14369Z" fill="url(#paint4_linear)"/>
<defs>
<linearGradient id="paint0_linear" x1="5.14272" y1="1.14258" x2="5.14272" y2="15.4283" gradientUnits="userSpaceOnUse">
<stop stop-color="#E13347"/>
<stop offset="1" stop-color="#D31D32"/>
</linearGradient>
<linearGradient id="paint1_linear" x1="2.28571" y1="0" x2="2.28571" y2="0.571429" gradientUnits="userSpaceOnUse">
<stop stop-color="#E13347"/>
<stop offset="1" stop-color="#D31D32"/>
</linearGradient>
<linearGradient id="paint2_linear" x1="8.00007" y1="6.28516" x2="8.00007" y2="9.71372" gradientUnits="userSpaceOnUse">
<stop stop-color="#E13347"/>
<stop offset="1" stop-color="#D31D32"/>
</linearGradient>
<linearGradient id="paint3_linear" x1="13.7144" y1="15.4277" x2="13.7144" y2="15.9992" gradientUnits="userSpaceOnUse">
<stop stop-color="#E13347"/>
<stop offset="1" stop-color="#D31D32"/>
</linearGradient>
<linearGradient id="paint4_linear" x1="10.8571" y1="0.572266" x2="10.8571" y2="14.858" gradientUnits="userSpaceOnUse">
<stop stop-color="#E13347"/>
<stop offset="1" stop-color="#D31D32"/>
</linearGradient>
</defs>
</svg>
