<svg width="19" height="19" viewBox="0 0 19 19" fill="none" xmlns="http://www.w3.org/2000/svg">
<path d="M7.27392 0.815553C7.106 0.56165 6.99512 0.393916 6.99512 0H5.88184C5.88184 0.728643 6.13878 1.11729 6.34522 1.42956C6.51314 1.68347 6.62402 1.8512 6.62402 2.24512C6.62402 2.63903 6.5131 2.80677 6.34522 3.06067C6.13878 3.37295 5.88184 3.76159 5.88184 4.49023H6.99512C6.99512 4.09632 7.106 3.92858 7.27392 3.67468C7.48036 3.36241 7.7373 2.97376 7.7373 2.24512C7.7373 1.51647 7.48036 1.12783 7.27392 0.815553Z" fill="url(#paint0_linear)"/>
<path d="M5.04736 0.815553C4.87944 0.56165 4.76855 0.393916 4.76855 0H3.65527C3.65527 0.728643 3.91222 1.11729 4.11866 1.42956C4.28658 1.68347 4.39746 1.8512 4.39746 2.24512C4.39746 2.63903 4.28654 2.80677 4.11866 3.06067C3.91222 3.37295 3.65527 3.76159 3.65527 4.49023H4.76855C4.76855 4.09632 4.87944 3.92858 5.04736 3.67468C5.2538 3.36241 5.51074 2.97376 5.51074 2.24512C5.51074 1.51647 5.2538 1.12783 5.04736 0.815553Z" fill="url(#paint1_linear)"/>
<path d="M9.50048 0.815553C9.33256 0.56165 9.22168 0.393916 9.22168 0H8.1084C8.1084 0.728643 8.36534 1.11729 8.57178 1.42956C8.7397 1.68347 8.85059 1.8512 8.85059 2.24512C8.85059 2.63903 8.73967 2.80677 8.57178 3.06067C8.36534 3.37295 8.1084 3.76159 8.1084 4.49023H9.22168C9.22168 4.09632 9.33256 3.92858 9.50048 3.67468C9.70692 3.36241 9.96387 2.97376 9.96387 2.24512C9.96387 1.51647 9.70692 1.12783 9.50048 0.815553Z" fill="url(#paint2_linear)"/>
<path d="M11.727 0.815553C11.5591 0.56165 11.4482 0.393916 11.4482 0H10.335C10.335 0.728643 10.5919 1.11729 10.7983 1.42956C10.9663 1.68347 11.0771 1.8512 11.0771 2.24512C11.0771 2.63903 10.9662 2.80677 10.7983 3.06067C10.5919 3.37295 10.335 3.76159 10.335 4.49023H11.4482C11.4482 4.09632 11.5591 3.92858 11.727 3.67468C11.9335 3.36241 12.1904 2.97376 12.1904 2.24512C12.1904 1.51647 11.9335 1.12783 11.727 0.815553Z" fill="url(#paint3_linear)"/>
<path d="M13.9536 0.815553C13.7857 0.56165 13.6748 0.393916 13.6748 0H12.5615C12.5615 0.728643 12.8185 1.11729 13.0249 1.42956C13.1928 1.68347 13.3037 1.8512 13.3037 2.24512C13.3037 2.63903 13.1928 2.80677 13.0249 3.06067C12.8185 3.37295 12.5615 3.76159 12.5615 4.49023H13.6748C13.6748 4.09632 13.7857 3.92858 13.9536 3.67468C14.16 3.36241 14.417 2.97376 14.417 2.24512C14.417 1.51647 14.16 1.12783 13.9536 0.815553Z" fill="url(#paint4_linear)"/>
<path d="M11.207 5.60352C10.3872 5.60352 9.72266 6.26811 9.72266 7.08789V17.5156C9.72266 18.3354 10.3872 19 11.207 19C12.0268 19 12.6914 18.3354 12.6914 17.5156V7.08789C12.6914 6.26811 12.0268 5.60352 11.207 5.60352Z" fill="url(#paint5_linear)"/>
<path d="M2.7832 5.60352C1.96342 5.60352 1.29883 6.26811 1.29883 7.08789V7.64453H0V8.75781H1.29883V17.5156C1.29883 18.3354 1.96342 19 2.7832 19C3.60299 19 4.26758 18.3354 4.26758 17.5156V7.08789C4.26758 6.26811 3.60299 5.60352 2.7832 5.60352Z" fill="url(#paint6_linear)"/>
<path d="M7.125 5.60352C6.30522 5.60352 5.64062 6.26811 5.64062 7.08789V17.5156C5.64062 18.3354 6.30522 19 7.125 19C7.94478 19 8.60938 18.3354 8.60938 17.5156V7.08789C8.60938 6.26811 7.94478 5.60352 7.125 5.60352Z" fill="url(#paint7_linear)"/>
<path d="M17.8867 6.30859V7.64453H16.7734V7.08789C16.7734 6.26811 16.1088 5.60352 15.2891 5.60352C14.4693 5.60352 13.8047 6.26811 13.8047 7.08789V17.5156C13.8047 18.3354 14.4693 19 15.2891 19C16.1088 19 16.7734 18.3354 16.7734 17.5156V8.75781H19V6.30859H17.8867Z" fill="url(#paint8_linear)"/>
<defs>
<linearGradient id="paint0_linear" x1="6.80957" y1="0" x2="6.80957" y2="4.49023" gradientUnits="userSpaceOnUse">
<stop stop-color="#E13347"/>
<stop offset="1" stop-color="#D31D32"/>
</linearGradient>
<linearGradient id="paint1_linear" x1="4.58301" y1="0" x2="4.58301" y2="4.49023" gradientUnits="userSpaceOnUse">
<stop stop-color="#E13347"/>
<stop offset="1" stop-color="#D31D32"/>
</linearGradient>
<linearGradient id="paint2_linear" x1="9.03613" y1="0" x2="9.03613" y2="4.49023" gradientUnits="userSpaceOnUse">
<stop stop-color="#E13347"/>
<stop offset="1" stop-color="#D31D32"/>
</linearGradient>
<linearGradient id="paint3_linear" x1="11.2627" y1="0" x2="11.2627" y2="4.49023" gradientUnits="userSpaceOnUse">
<stop stop-color="#E13347"/>
<stop offset="1" stop-color="#D31D32"/>
</linearGradient>
<linearGradient id="paint4_linear" x1="13.4893" y1="0" x2="13.4893" y2="4.49023" gradientUnits="userSpaceOnUse">
<stop stop-color="#E13347"/>
<stop offset="1" stop-color="#D31D32"/>
</linearGradient>
<linearGradient id="paint5_linear" x1="11.207" y1="5.60352" x2="11.207" y2="19" gradientUnits="userSpaceOnUse">
<stop stop-color="#E13347"/>
<stop offset="1" stop-color="#D31D32"/>
</linearGradient>
<linearGradient id="paint6_linear" x1="2.13379" y1="5.60352" x2="2.13379" y2="19" gradientUnits="userSpaceOnUse">
<stop stop-color="#E13347"/>
<stop offset="1" stop-color="#D31D32"/>
</linearGradient>
<linearGradient id="paint7_linear" x1="7.125" y1="5.60352" x2="7.125" y2="19" gradientUnits="userSpaceOnUse">
<stop stop-color="#E13347"/>
<stop offset="1" stop-color="#D31D32"/>
</linearGradient>
<linearGradient id="paint8_linear" x1="16.4023" y1="5.60352" x2="16.4023" y2="19" gradientUnits="userSpaceOnUse">
<stop stop-color="#E13347"/>
<stop offset="1" stop-color="#D31D32"/>
</linearGradient>
</defs>
</svg>
