<svg width="19" height="19" viewBox="0 0 19 19" fill="none" xmlns="http://www.w3.org/2000/svg">
<path d="M1.24738 6.9605C1.34725 7.30292 1.48585 7.63312 1.66114 7.94293L1.16177 8.57274C0.998715 8.77861 1.01706 9.07211 1.2005 9.25759L2.06064 10.1177C2.24611 10.3032 2.53962 10.3195 2.74548 10.1564L3.37122 9.66114C3.69326 9.84664 4.03569 9.99133 4.39238 10.0932L4.48614 10.8983C4.51671 11.1592 4.73684 11.3549 4.99773 11.3549H6.21456C6.47545 11.3549 6.69558 11.1592 6.72616 10.8983L6.81584 10.1218C7.19903 10.0219 7.56591 9.87312 7.91037 9.67949L8.51573 10.1585C8.72159 10.3215 9.01509 10.3032 9.20057 10.1197L10.0607 9.25961C10.2462 9.07413 10.2625 8.78062 10.0994 8.57476L9.6286 7.97756C9.82427 7.63919 9.97714 7.27844 10.0791 6.90137L10.8047 6.8178C11.0656 6.78723 11.2612 6.5671 11.2612 6.30621V5.08938C11.2612 4.82849 11.0656 4.60836 10.8047 4.57778L10.0892 4.49422C9.99139 4.12122 9.84466 3.76453 9.65716 3.43026L10.0974 2.87382C10.2605 2.66796 10.2421 2.37445 10.0587 2.18897L9.20059 1.33087C9.01511 1.14539 8.72161 1.12909 8.51575 1.29215L7.97561 1.72018C7.62504 1.51431 7.24998 1.35737 6.85662 1.25138L6.77509 0.552268C6.74452 0.291374 6.52439 0.0957031 6.2635 0.0957031H5.04667C4.78578 0.0957031 4.56565 0.291374 4.53507 0.552268L4.45354 1.25138C4.04997 1.35941 3.66475 1.52247 3.30602 1.73648L2.7455 1.29215C2.53964 1.12909 2.24614 1.14743 2.06066 1.33087L1.20052 2.19101C1.01504 2.37649 0.998735 2.66999 1.16179 2.87586L1.63059 3.46898C1.44307 3.80733 1.30039 4.1681 1.20664 4.54313L0.456565 4.62874C0.195671 4.65931 0 4.87944 0 5.14034V6.35716C0 6.61806 0.195671 6.83818 0.456565 6.86876L1.24738 6.9605ZM5.65608 3.66875C6.76488 3.66875 7.66782 4.57169 7.66782 5.68049C7.66782 6.78929 6.76488 7.69223 5.65608 7.69223C4.5473 7.69223 3.64434 6.78929 3.64434 5.68049C3.64434 4.57169 4.54728 3.66875 5.65608 3.66875Z" fill="url(#paint0_linear)"/>
<path d="M17.6858 7.261L17.0438 6.71883C16.8461 6.55169 16.5546 6.55984 16.3671 6.73717L16.0124 7.0694C15.7128 6.92469 15.3949 6.82278 15.0667 6.76367L14.9669 6.27449C14.9159 6.02175 14.6815 5.84646 14.4247 5.86684L13.5869 5.93818C13.3301 5.9606 13.1283 6.17054 13.1202 6.4294L13.1039 6.92673C12.7818 7.04291 12.4781 7.20189 12.2009 7.40163L11.777 7.12036C11.5609 6.97768 11.2735 7.01845 11.1064 7.21616L10.5643 7.86228C10.3971 8.05998 10.4052 8.35145 10.5826 8.53897L10.9535 8.93437C10.8251 9.2238 10.7334 9.52751 10.6804 9.83934L10.1505 9.94737C9.89773 9.99833 9.72244 10.2327 9.74282 10.4896L9.81416 11.3273C9.83658 11.5841 10.0465 11.7859 10.3054 11.794L10.8781 11.8124C10.9821 12.0855 11.1187 12.3444 11.2837 12.5869L10.9637 13.0699C10.8211 13.286 10.8618 13.5734 11.0595 13.7405L11.7016 14.2827C11.8993 14.4498 12.1907 14.4417 12.3783 14.2644L12.7982 13.871C13.0733 13.9994 13.3627 14.0952 13.6603 14.1522L13.7765 14.727C13.8275 14.9798 14.0619 15.1551 14.3187 15.1347L15.1564 15.0633C15.4132 15.0409 15.615 14.831 15.6232 14.5721L15.6415 14.0096C15.9472 13.9015 16.2366 13.7548 16.5037 13.5734L16.9664 13.8791C17.1824 14.0218 17.4698 13.981 17.6369 13.7833L18.1791 13.1413C18.3462 12.9436 18.3381 12.6521 18.1608 12.4646L17.7877 12.0692C17.9243 11.7798 18.0242 11.474 18.0812 11.1601L18.5908 11.0562C18.8435 11.0052 19.0188 10.7708 18.9985 10.514L18.9271 9.67626C18.9047 9.41945 18.6948 9.21766 18.4359 9.20951L17.9243 9.1932C17.8183 8.89562 17.6756 8.61436 17.4983 8.35345L17.7775 7.93357C17.9243 7.71756 17.8835 7.42813 17.6858 7.261ZM14.5286 12.1038C13.6236 12.1813 12.8246 11.5066 12.7492 10.6017C12.6717 9.69669 13.3464 8.89768 14.2514 8.82226C15.1564 8.74481 15.9554 9.41949 16.0308 10.3244C16.1083 11.2294 15.4336 12.0284 14.5286 12.1038Z" fill="url(#paint1_linear)"/>
<path d="M4.17832 14.3565C3.9215 14.383 3.72379 14.599 3.72175 14.8579L3.71564 15.3736C3.71156 15.6325 3.90316 15.8526 4.15998 15.8852L4.53909 15.9341C4.60227 16.1645 4.69195 16.3846 4.80813 16.5925L4.56355 16.8941C4.40049 17.0959 4.41272 17.3854 4.59412 17.5708L4.95489 17.9398C5.13629 18.1252 5.42572 18.1456 5.63158 17.9866L5.93526 17.7522C6.14927 17.8786 6.37554 17.9785 6.61195 18.0478L6.65272 18.4391C6.67921 18.6959 6.89527 18.8937 7.15412 18.8957L7.66982 18.9018C7.92865 18.9059 8.1488 18.7143 8.18141 18.4575L8.22829 18.0865C8.48513 18.0233 8.72972 17.9275 8.96206 17.8012L9.24741 18.0315C9.4492 18.1945 9.73865 18.1823 9.92413 18.0009L10.293 17.6401C10.4785 17.4588 10.4989 17.1693 10.3399 16.9634L10.1218 16.6801C10.2563 16.4559 10.3603 16.2174 10.4316 15.9667L10.77 15.9321C11.0268 15.9056 11.2245 15.6895 11.2266 15.4307L11.2327 14.915C11.2368 14.6561 11.0452 14.436 10.7883 14.4034L10.4581 14.3606C10.3949 14.1119 10.3012 13.8714 10.1789 13.6472L10.3848 13.3944C10.5478 13.1927 10.5356 12.9032 10.3542 12.7178L9.99345 12.3488C9.81204 12.1633 9.52257 12.1429 9.31673 12.302L9.07009 12.4915C8.83775 12.3509 8.58906 12.2428 8.32819 12.1695L8.29556 11.8495C8.26906 11.5926 8.05303 11.3949 7.79415 11.3929L7.27848 11.3868C7.01962 11.3827 6.79949 11.5743 6.76686 11.8311L6.72609 12.1491C6.45707 12.2184 6.19821 12.3244 5.9577 12.463L5.70292 12.2551C5.50113 12.092 5.21168 12.1043 5.02621 12.2856L4.65525 12.6485C4.46977 12.8299 4.44938 13.1193 4.60837 13.3251L4.82646 13.6064C4.70009 13.8307 4.60021 14.0691 4.53499 14.3198L4.17832 14.3565ZM7.50676 13.7736C8.24664 13.7817 8.83974 14.3912 8.83161 15.131C8.82346 15.8709 8.21401 16.464 7.47413 16.4559C6.73425 16.4477 6.14114 15.8383 6.14927 15.0984C6.15745 14.3586 6.76688 13.7654 7.50676 13.7736Z" fill="url(#paint2_linear)"/>
<defs>
<linearGradient id="paint0_linear" x1="5.63061" y1="0.0957031" x2="5.63061" y2="11.3549" gradientUnits="userSpaceOnUse">
<stop stop-color="#E13347"/>
<stop offset="1" stop-color="#D31D32"/>
</linearGradient>
<linearGradient id="paint1_linear" x1="14.3706" y1="5.86523" x2="14.3706" y2="15.1363" gradientUnits="userSpaceOnUse">
<stop stop-color="#E13347"/>
<stop offset="1" stop-color="#D31D32"/>
</linearGradient>
<linearGradient id="paint2_linear" x1="7.47415" y1="11.3867" x2="7.47415" y2="18.9019" gradientUnits="userSpaceOnUse">
<stop stop-color="#E13347"/>
<stop offset="1" stop-color="#D31D32"/>
</linearGradient>
</defs>
</svg>
