<svg width="16" height="16" viewBox="0 0 16 16" fill="none" xmlns="http://www.w3.org/2000/svg">
<path d="M15.068 3.69515C9.33541 3.69515 11.2031 0 7.0922 0C4.49074 0 4.01719 1.32419 3.60283 2.56824C3.23718 3.66495 0.286105 11.4116 0.286105 11.4116C0.286105 11.4116 0.294737 11.3992 0.307686 11.382C0.102973 11.8104 0 12.2494 0 12.6439C0 14.3115 1.16477 16 3.39133 16C5.89167 16 6.78266 14.7264 6.78266 13.5341C6.78266 12.123 5.31144 11.0682 3.99622 11.0682C2.51328 11.0682 1.84982 11.8425 1.84982 12.6094C1.84982 13.4879 2.64524 14.1506 3.69963 14.1506C4.04 14.1506 4.31624 13.875 4.31624 13.5341C4.31624 13.1932 4.04 12.9176 3.69963 12.9176C3.37098 12.9176 3.08303 12.774 3.08303 12.6094C3.08303 12.4836 3.40798 12.3011 3.99622 12.3011C4.68065 12.3011 5.54945 12.8813 5.54945 13.5341C5.54945 14.6068 4.19723 14.767 3.39133 14.767C1.90038 14.767 1.23321 13.7012 1.23321 12.6439C1.23321 12.0749 1.77027 10.4517 4.15592 10.4517C6.07171 10.4517 6.7432 11.4486 7.59288 12.7105C8.57945 14.1758 9.80711 16 13.3236 16C13.6399 16 13.8903 15.7596 13.926 15.4532C13.9285 15.4532 13.931 15.4532 13.9334 15.4532C13.9334 15.4532 15.8424 5.25668 15.9541 4.76844C16.2439 3.50651 15.068 3.69515 15.068 3.69515Z" fill="url(#paint0_linear)"/>
<defs>
<linearGradient id="paint0_linear" x1="8" y1="0" x2="8" y2="16" gradientUnits="userSpaceOnUse">
<stop stop-color="#E13347"/>
<stop offset="1" stop-color="#D31D32"/>
</linearGradient>
</defs>
</svg>
