<svg width="17" height="18" viewBox="0 0 17 18" fill="none" xmlns="http://www.w3.org/2000/svg">
<path d="M10.5193 15.4801V15.9976C10.5193 16.4095 10.2168 16.7521 9.82311 16.8105L9.69554 17.2807C9.62629 17.5358 9.39665 17.7144 9.13057 17.7144H7.86578C7.5997 17.7144 7.37007 17.5358 7.30081 17.2807L7.17689 16.8105C6.77959 16.7485 6.47706 16.4095 6.47706 15.994V15.4764C6.47706 15.1994 6.6994 14.9771 6.97641 14.9771H10.0199C10.297 14.9807 10.5193 15.203 10.5193 15.4801ZM12.863 8.50365C12.863 9.68096 12.3964 10.7489 11.6383 11.5326C11.0624 12.1304 10.6906 12.8922 10.5667 13.705C10.512 14.0549 10.2095 14.3137 9.85227 14.3137H7.14408C6.79052 14.3137 6.48435 14.0585 6.43332 13.7086C6.30575 12.8958 5.93032 12.1231 5.35442 11.5289C4.61085 10.7562 4.14794 9.70648 4.13701 8.55103C4.11149 6.1235 6.04331 4.15888 8.47084 4.14065C10.8947 4.12243 12.863 6.08341 12.863 8.50365ZM8.99207 5.86106C8.99207 5.59134 8.77337 5.369 8.5 5.369C6.76501 5.369 5.35077 6.77959 5.35077 8.51823C5.35077 8.78795 5.56947 9.01029 5.84284 9.01029C6.11256 9.01029 6.33491 8.7916 6.33491 8.51823C6.33491 7.32269 7.3081 6.35313 8.5 6.35313C8.77337 6.35313 8.99207 6.13444 8.99207 5.86106ZM8.5 2.70819C8.76972 2.70819 8.99207 2.48949 8.99207 2.21612V0.492067C8.99207 0.222341 8.77337 0 8.5 0C8.22663 0 8.00793 0.218696 8.00793 0.492067V2.21612C8.00793 2.48949 8.23027 2.70819 8.5 2.70819ZM2.70819 8.5C2.70819 8.23028 2.48949 8.00793 2.21612 8.00793H0.492067C0.222341 8.00793 0 8.22663 0 8.5C0 8.76973 0.218696 8.99207 0.492067 8.99207H2.21612C2.48949 8.99207 2.70819 8.77337 2.70819 8.5ZM16.5079 8.00793H14.7839C14.5142 8.00793 14.2918 8.22663 14.2918 8.5C14.2918 8.76973 14.5105 8.99207 14.7839 8.99207H16.5079C16.7777 8.99207 17 8.77337 17 8.5C17 8.23028 16.7813 8.00793 16.5079 8.00793ZM3.71055 12.5969L2.48949 13.818C2.29631 14.0112 2.29631 14.321 2.48949 14.5142C2.58426 14.6089 2.71184 14.6563 2.83576 14.6563C2.95969 14.6563 3.08726 14.6089 3.18203 14.5142L4.40309 13.2931C4.59627 13.0999 4.59627 12.7901 4.40309 12.5969C4.21355 12.4037 3.90009 12.4037 3.71055 12.5969ZM12.9432 4.54889C13.0671 4.54889 13.1947 4.5015 13.2895 4.40673L14.5105 3.18568C14.7037 2.9925 14.7037 2.68268 14.5105 2.48949C14.3173 2.29631 14.0075 2.29631 13.8143 2.48949L12.5933 3.71055C12.4001 3.90373 12.4001 4.21355 12.5933 4.40673C12.6917 4.5015 12.8156 4.54889 12.9432 4.54889ZM3.71055 4.40309C3.80532 4.49786 3.93289 4.54524 4.05682 4.54524C4.18075 4.54524 4.30832 4.49786 4.40309 4.40309C4.59627 4.20991 4.59627 3.90009 4.40309 3.7069L3.18203 2.48585C2.98885 2.29267 2.67903 2.29267 2.48585 2.48585C2.29267 2.67903 2.29267 2.98885 2.48585 3.18203L3.71055 4.40309ZM13.2895 12.5969C13.0963 12.4037 12.7864 12.4037 12.5933 12.5969C12.4001 12.7901 12.4001 13.0999 12.5933 13.2931L13.8143 14.5142C13.9091 14.6089 14.0367 14.6563 14.1606 14.6563C14.2845 14.6563 14.4121 14.6089 14.5069 14.5142C14.7 14.321 14.7 14.0112 14.5069 13.818L13.2895 12.5969Z" fill="url(#paint0_linear)"/>
<defs>
<linearGradient id="paint0_linear" x1="8.5" y1="0" x2="8.5" y2="17.7144" gradientUnits="userSpaceOnUse">
<stop stop-color="#E13347"/>
<stop offset="1" stop-color="#D31D32"/>
</linearGradient>
</defs>
</svg>
