<svg width="251" height="28" viewBox="0 0 251 28" fill="none" xmlns="http://www.w3.org/2000/svg">
<path d="M13.036 24.1753H11.512C10.6769 24.1753 10 24.8522 10 25.6872C10 26.5223 10.6769 27.1992 11.512 27.1992H238C239.105 27.1992 240 26.3038 240 25.1992V22.2187C240 21.5525 239.668 20.93 239.115 20.5585L235.936 18.4227C235.65 18.2306 235.419 17.968 235.264 17.6602L232.13 11.4208C231.752 10.6675 230.942 10.2323 230.105 10.3326L224.819 10.9661C224.294 11.0289 223.816 11.2968 223.488 11.7111L222.133 13.4249C221.312 14.4624 219.728 14.4316 218.949 13.363L214.289 6.97735C213.442 5.81702 211.685 5.90098 210.953 7.13673L208.202 11.779C207.573 12.8415 206.14 13.0852 205.195 12.2905L200.777 8.57716C200.289 8.1666 199.634 8.01372 199.014 8.16566L192.923 9.65895C192.339 9.80217 191.721 9.6749 191.242 9.3124L182.408 2.64061C181.414 1.88953 179.982 2.22087 179.419 3.33245L173.865 14.2928C173.217 15.5701 171.476 15.7732 170.552 14.679L169.331 13.2328C168.526 12.2797 166.989 12.5709 166.589 13.7523C166.277 14.6714 165.227 15.1049 164.358 14.673L160.88 12.9448C160.629 12.8203 160.408 12.6446 160.229 12.4291L157.751 9.43471C157.068 8.61023 155.837 8.51892 155.04 9.23371C154.056 10.1164 152.493 9.73858 152.021 8.50396L150.709 5.07186C150.572 4.71508 150.337 4.40483 150.03 4.17779L147.52 2.32301C146.667 1.6924 145.472 1.83598 144.787 2.6462C141.211 6.87714 135.569 13.2476 134.5 13.2476C133.715 13.2476 132.031 11.7288 130.541 10.1815C129.543 9.14543 127.786 9.36155 127.146 10.65L124.75 15.4756C124.317 16.3479 123.318 16.7813 122.385 16.5021L120.472 15.9297C119.604 15.67 118.67 16.0264 118.195 16.7983L116.586 19.4163C116.222 20.0082 115.577 20.3688 114.882 20.3688H114.675C113.655 20.3688 112.798 19.6013 112.687 18.5874L112.029 12.6033C111.929 11.6972 111.229 10.973 110.327 10.8425L106.741 10.3235C106.061 10.2252 105.479 9.78479 105.2 9.1572L102.605 3.32527C102.107 2.20668 100.73 1.79382 99.6991 2.45401L91.2925 7.83669C91.2018 7.89474 91.116 7.96003 91.0358 8.03191L85.3933 13.0909C85.0264 13.4199 84.551 13.6018 84.0582 13.6018H77.0781L71.3438 13.2748C71.0305 13.2569 70.7257 13.1656 70.4542 13.0081L66.0842 10.4734C65.4581 10.1102 64.6846 10.1137 64.0617 10.4825L58.6457 13.6894C58.5126 13.7682 58.3707 13.8313 58.223 13.8775L53.0625 15.4892L47.5036 16.8148C47.0418 16.9249 46.5559 16.8672 46.1328 16.6519L42.8524 14.9831C42.2031 14.6528 41.4257 14.7016 40.8228 15.1105L37.7383 17.2027C37.1627 17.5932 36.4254 17.6565 35.7916 17.3699L26.9532 13.3732C26.1441 13.0073 25.1907 13.2187 24.6121 13.8922L20.4712 18.7123C20.3916 18.8049 20.3037 18.8901 20.2086 18.9667L14.2904 23.7329C13.935 24.0192 13.4923 24.1753 13.036 24.1753Z" fill="url(#paint0_linear_5324_212559)"/>
<path d="M10 24.1753H13.036C13.4923 24.1753 13.935 24.0192 14.2904 23.7329L20.2086 18.9667C20.3037 18.8901 20.3916 18.8049 20.4712 18.7123L24.6121 13.8922C25.1907 13.2187 26.1441 13.0073 26.9532 13.3732L35.7916 17.3699C36.4254 17.6565 37.1627 17.5932 37.7383 17.2027L40.8228 15.1105C41.4257 14.7016 42.2031 14.6528 42.8524 14.9831L46.1328 16.6519C46.5559 16.8672 47.0418 16.9249 47.5036 16.8148L53.0625 15.4892L58.223 13.8775C58.3707 13.8313 58.5126 13.7682 58.6457 13.6894L64.0617 10.4825C64.6846 10.1137 65.4581 10.1102 66.0842 10.4734L70.4542 13.0081C70.7257 13.1656 71.0305 13.2569 71.3438 13.2748L77.0781 13.6018H84.0582C84.551 13.6018 85.0264 13.4199 85.3933 13.0909L91.0358 8.03191C91.116 7.96003 91.2018 7.89475 91.2925 7.83669L99.6991 2.45401C100.73 1.79382 102.107 2.20668 102.605 3.32527L105.2 9.1572C105.479 9.78479 106.061 10.2252 106.741 10.3235L110.327 10.8425C111.229 10.973 111.929 11.6972 112.029 12.6033L112.686 18.5874C112.798 19.6013 113.655 20.3688 114.675 20.3688H114.882C115.577 20.3688 116.222 20.0082 116.586 19.4163L118.195 16.7983C118.67 16.0264 119.604 15.67 120.472 15.9297L122.385 16.5021C123.318 16.7813 124.317 16.3479 124.75 15.4756L127.146 10.65C127.786 9.36155 129.543 9.14543 130.541 10.1815C132.031 11.7288 133.715 13.2476 134.5 13.2476C135.569 13.2476 141.211 6.87714 144.787 2.6462C145.472 1.83598 146.667 1.6924 147.52 2.32301L150.03 4.17779C150.337 4.40483 150.572 4.71508 150.709 5.07186L152.021 8.50396C152.493 9.73858 154.056 10.1164 155.04 9.23371V9.23371C155.837 8.51892 157.068 8.61023 157.751 9.43471L160.229 12.4291C160.408 12.6446 160.629 12.8203 160.88 12.9448L164.358 14.673C165.227 15.1049 166.277 14.6714 166.589 13.7523V13.7523C166.989 12.5709 168.526 12.2797 169.331 13.2328L170.552 14.679C171.476 15.7732 173.217 15.5701 173.865 14.2928L179.419 3.33245C179.982 2.22087 181.414 1.88953 182.408 2.64061L191.242 9.3124C191.721 9.6749 192.339 9.80216 192.923 9.65895L199.014 8.16566C199.634 8.01372 200.289 8.1666 200.777 8.57716L205.195 12.2905C206.14 13.0852 207.573 12.8415 208.202 11.779L210.953 7.13673C211.685 5.90098 213.442 5.81702 214.289 6.97735L218.949 13.363C219.728 14.4316 221.312 14.4624 222.133 13.4249L223.488 11.7111C223.816 11.2968 224.294 11.0289 224.819 10.9661L230.069 10.3369C230.924 10.2345 231.748 10.6903 232.116 11.4685L235.206 18.0114C235.397 18.4146 235.716 18.7426 236.115 18.9432L239.5 20.649" stroke="#25B85A" stroke-width="1.6" stroke-linecap="round" stroke-linejoin="round"/>
<defs>
<linearGradient id="paint0_linear_5324_212559" x1="124.582" y1="-40.3447" x2="124.445" y2="23.901" gradientUnits="userSpaceOnUse">
<stop stop-color="#45B36B"/>
<stop offset="1" stop-color="#45B36B" stop-opacity="0"/>
</linearGradient>
</defs>
</svg>
