<svg width="141" height="140" viewBox="0 0 141 140" fill="none" xmlns="http://www.w3.org/2000/svg">
<path fill-rule="evenodd" clip-rule="evenodd" d="M141 87.8102C131.862 115.534 105.751 135.545 74.9671 135.545C36.5764 135.545 5.45451 104.423 5.45451 66.032C5.45451 35.2486 25.4644 9.13879 53.1869 -0.00012207C23.0899 8.3516 0.998535 35.9488 0.998535 68.7057C0.998535 108.081 32.9184 140.001 72.2935 140.001C105.051 140.001 132.649 117.908 141 87.8102Z" fill="#FBFBFB"/>
<path fill-rule="evenodd" clip-rule="evenodd" d="M138.291 76.2705C130.627 99.5227 108.728 116.306 82.9088 116.306C50.7102 116.306 24.6081 90.2042 24.6081 58.0056C24.6081 32.1866 41.3915 10.2875 64.6436 2.62329C39.4 9.62727 20.8708 32.7737 20.8708 60.2479C20.8708 93.2721 47.6423 120.044 80.6665 120.044C108.141 120.044 131.287 101.514 138.291 76.2705Z" fill="#8DD951"/>
<path fill-rule="evenodd" clip-rule="evenodd" d="M88.9225 3.22378C91.4906 3.73268 99.6297 7.82919 101.781 9.69583C103.448 11.1419 103.736 11.9531 103.688 15.0572C103.651 17.3474 103.725 17.8589 104.234 18.8557C105.549 21.4299 107.002 22.3025 110.808 22.805C113.973 23.2228 114.752 23.4918 115.866 24.5506C117.002 25.6308 117.156 26.6509 116.48 28.6233C115.73 30.8127 115.764 31.7422 116.618 32.4042C116.994 32.696 117.491 32.9353 117.721 32.9359C118.428 32.9374 119.805 33.9083 120.35 34.7884C120.934 35.7325 121 36.91 120.578 38.8491L120.289 40.1807L121.224 40.9735C122.635 42.1687 123.039 43.3892 122.825 45.8108L122.647 47.8183L124.447 49.528C127.58 52.5051 127.807 54.727 125.25 57.3923C123.676 59.0327 121.29 60.6321 118.011 62.2445C110.903 65.7405 108.224 68.04 105.535 72.9523C102.625 78.2696 101.673 82.8535 100.476 97.3148C100.021 102.805 99.6058 105.085 98.7124 107C99.1522 103.708 99.7255 101.45 100.219 95.139C100.939 85.9363 101.607 81.7177 102.989 77.6481C104.433 73.398 106.101 70.5545 108.776 67.7827C110.722 65.7668 112.176 64.7826 116.972 62.2355C120.815 60.1946 123.856 58.3208 123.651 58.1191C123.589 58.0574 123.25 58.1145 122.9 58.2458C122.55 58.3771 121.277 58.6715 120.072 58.9001C117.857 59.3204 116.461 59.6913 108.012 62.1045C102.28 63.7418 99.5268 64.3264 95.7466 64.7104C92.4591 65.0445 88.434 64.7363 86.5918 64.0098C85.442 63.5562 83.7071 61.784 82.911 60.2496C81.6176 57.7566 79.6458 56.5251 76.8455 56.4611C73.7588 56.3904 70.4307 55.1545 68.1535 53.2333C66.8126 52.1022 64.8829 49.4455 64.3785 48.0366C63.9338 46.7943 63.8713 45.1501 64.2424 44.4664C64.3816 44.2102 64.9086 43.7604 65.4132 43.4668C66.5895 42.7828 67.0388 41.8743 66.6339 40.9983C66.4466 40.5934 66.4336 40.3584 66.5986 40.3584C66.7419 40.3584 66.9687 40.642 67.1024 40.9889C67.4702 41.9424 66.957 43.0339 65.7797 43.8019C64.4735 44.6538 64.1718 45.403 64.519 46.931C64.88 48.5184 65.8732 50.1185 67.6761 52.0182C69.744 54.1969 72.0646 55.3821 74.9423 55.7289C80.8834 56.4449 81.0073 56.5094 83.3759 60.1068C84.2857 61.4888 85.316 62.8041 85.6651 63.0296C87.4961 64.212 92.4599 64.7219 96.8437 64.178C99.7777 63.8139 104.407 62.7437 108.573 61.4666C114.698 59.5884 116.89 59.026 122.032 58.0113C123.006 57.819 123.598 57.4922 124.432 56.6856C126.43 54.7524 126.294 52.9164 123.968 50.4526C123.12 49.5538 122.426 48.7101 122.426 48.5775C122.426 48.2373 120.081 47.7822 118.323 47.7809C115.884 47.7794 114.552 46.6013 115 44.8427C115.173 44.1618 116.334 43.4302 117.241 43.4302C117.546 43.4302 118.54 43.6258 119.45 43.8646C121.035 44.2808 121.126 44.2793 121.633 43.8267C122.161 43.3557 122.16 43.3526 121.078 42.1766C120.481 41.5285 119.67 40.8563 119.275 40.6827C118.733 40.4449 118.516 40.1295 118.393 39.4028C118.141 37.9083 118.072 37.7985 117.38 37.7985C116.619 37.7985 115.787 38.5949 115.548 39.5518C115.028 41.6332 112.838 43.6795 111.928 42.9346C111.3 42.4213 111.434 41.6275 112.383 40.2271C112.859 39.5249 113.641 38.2199 114.121 37.3268C115.091 35.5208 116.225 34.5166 117.532 34.3074C118.692 34.1221 119.723 34.9231 120.1 36.3023C120.426 37.4988 120.746 37.4647 120.478 36.2619C120.206 35.0408 118.943 33.7939 117.499 33.3214C116.803 33.0933 116.102 32.7505 115.941 32.5596C115.366 31.8776 115.355 30.5283 115.909 28.9727C116.553 27.1673 116.584 26.504 116.069 25.5233C115.415 24.2751 114.094 23.6874 111.076 23.2996C109.571 23.1066 107.855 22.7372 107.264 22.4794C105.821 21.8505 104.551 20.5511 103.802 18.9379C103.257 17.7647 103.193 17.2965 103.257 14.9409C103.326 12.3622 103.304 12.237 102.579 11.2059C101.419 9.55683 97.0442 6.91021 91.9454 4.77351C87.6854 2.98827 84.112 3.06481 79.9546 5.03051C76.5004 6.66369 74.2341 9.36714 73.6229 12.5841C73.3388 14.0796 73.5422 15.3577 74.5185 18.2157C75.142 20.0404 75.2002 20.5007 75.0535 22.4403C74.8478 25.1562 75.1581 25.7673 76.7432 25.7673C78.8646 25.7673 80.384 24.3409 82.4165 20.441C84.9654 15.5502 88.7352 12.9775 93.4676 12.9C96.143 12.8562 98.8866 14.2482 98.4311 15.4181C98.2867 15.7893 97.9322 15.8179 95.4544 15.6585C93.2679 15.5177 92.2864 15.5671 91.0457 15.8804C87.7312 16.7172 85.0288 18.6502 83.8484 21.0282C83.2326 22.2685 83.1926 22.5114 83.4673 23.3321C83.6362 23.8366 84.0626 24.4356 84.4145 24.663C85.1376 25.1299 84.7327 25.4158 89.0523 21.3869C92.3516 18.3099 93.9909 17.4859 95.5651 18.1134C95.9827 18.2797 96.7136 18.3901 97.1891 18.3586C98.9884 18.2388 99.6881 20.1187 98.4038 21.6229C97.3935 22.8066 95.9367 23.3234 90.4237 24.4541C84.874 25.5924 84.494 25.5863 83.5024 24.344C82.2885 22.8227 82.983 20.6345 85.3926 18.3885C88.0311 15.929 91.8916 14.7223 95.5453 15.2148C98.1542 15.5666 98.7659 15.2038 97.1733 14.2493C94.9192 12.8982 91.8443 13.0054 88.6628 14.5465C86.1573 15.7598 84.3135 17.7133 82.7199 20.8432C81.9945 22.2682 81.0198 23.862 80.5538 24.385C78.6285 26.5462 75.3483 26.9059 74.6886 25.028C74.5595 24.6601 74.5094 23.4225 74.5774 22.2777C74.6875 20.4251 74.6083 19.9211 73.8582 17.7022C72.816 14.6187 72.8386 12.4282 73.9375 10.0627C76.1279 5.34666 83.2453 2.09847 88.9225 3.22378ZM93.4312 18.6133C92.6149 18.9192 89.0822 21.6585 89.2679 21.8415C89.47 22.0404 92.3768 20.4932 93.1736 19.7629C93.5839 19.3869 94.0881 19.1442 94.2963 19.223C94.7758 19.4043 95.7399 18.9102 95.5373 18.5869C95.3355 18.2652 94.3262 18.2779 93.4312 18.6133ZM96.8998 19.4619C97.0104 19.7621 97.1013 20.495 97.1024 21.0907L97.1037 22.1738L97.7989 21.4747C98.8209 20.4472 98.8908 19.2266 97.9477 18.881C97.0925 18.5677 96.6588 18.8081 96.8998 19.4619ZM95.5822 19.9738C95.8492 20.7746 95.7557 21.4155 95.2991 21.9129C94.601 22.6732 95.5549 23.0334 96.3061 22.2933C96.7671 21.8387 96.8476 20.3478 96.4505 19.6162C96.083 18.9394 95.3391 19.2458 95.5822 19.9738ZM93.4938 20.4072C93.2385 20.6415 93.9746 21.9275 94.3641 21.9275C94.7077 21.9275 95.4155 21.1744 95.4155 20.8086C95.4155 19.9838 94.2262 19.7355 93.4938 20.4072ZM89.4463 22.6517C89.7188 22.7441 93.3865 22.2206 93.5424 22.067C93.5954 22.0148 93.4523 21.6912 93.2242 21.3482L92.8097 20.7244L91.0036 21.6459C90.0102 22.1528 89.3095 22.6054 89.4463 22.6517ZM90.5925 22.9968C87.9813 23.265 87.5164 23.3871 86.7772 23.9979C86.3144 24.3804 85.9942 24.7403 86.0656 24.7974C86.137 24.8544 88.1574 24.4897 90.5551 23.9867C94.0566 23.252 94.8503 23.0088 94.588 22.7503C94.4083 22.5731 94.1049 22.4874 93.9135 22.5598C93.7224 22.6322 92.2279 22.8288 90.5925 22.9968ZM116.056 35.5356C115.541 35.9805 114.821 36.9307 114.455 37.6475C114.088 38.364 113.395 39.5385 112.913 40.257C111.498 42.3681 111.885 43.4018 113.568 42.0061C114.048 41.6083 114.582 40.7472 114.926 39.8185C115.529 38.1881 116.403 37.2866 117.382 37.2866C118.114 37.2866 118.79 38.1746 118.79 39.1355C118.79 40.2148 119.202 39.9859 119.567 38.7047C120.466 35.5364 118.307 33.5873 116.056 35.5356ZM119.569 39.9895C119.569 40.2089 119.686 40.3174 119.829 40.2304C119.972 40.1433 120.089 39.9639 120.089 39.8313C120.089 39.6987 119.972 39.5904 119.829 39.5904C119.686 39.5904 119.569 39.7701 119.569 39.9895ZM120.868 41.4706C120.868 41.5193 121.119 41.7783 121.425 42.0466C121.98 42.5317 121.981 42.5312 121.676 41.9583C121.423 41.4827 120.868 41.1478 120.868 41.4706ZM119.471 44.3233C117.355 43.7804 116.538 43.8351 115.792 44.5706C114.981 45.369 114.991 45.613 115.87 46.479C116.492 47.092 116.858 47.2054 118.662 47.3455C119.804 47.434 121.089 47.5769 121.517 47.6631L122.296 47.8198L122.38 45.8912L122.464 43.9629L121.71 44.3338C121.05 44.6584 120.77 44.6571 119.471 44.3233Z" fill="black"/>
</svg>
