<svg width="140" height="140" viewBox="0 0 140 140" fill="none" xmlns="http://www.w3.org/2000/svg">
<path fill-rule="evenodd" clip-rule="evenodd" d="M140 87.81C130.862 115.533 104.752 135.544 73.968 135.544C35.5776 135.544 4.45594 104.422 4.45594 66.0319C4.45594 35.2487 24.4657 9.13909 52.188 0.000244141C22.0912 8.3519 0 35.9489 0 68.7056C0 108.08 31.9196 140 71.2945 140C104.052 140 131.649 117.908 140 87.81Z" fill="#FBFBFB"/>
<path fill-rule="evenodd" clip-rule="evenodd" d="M137.29 76.3568C129.626 99.6088 107.727 116.392 81.9083 116.392C49.71 116.392 23.608 90.2903 23.608 58.092C23.608 32.2731 40.3913 10.3743 63.6432 2.71008C38.3999 9.71401 19.8708 32.8603 19.8708 60.3343C19.8708 93.3582 46.6421 120.129 79.666 120.129C107.14 120.129 130.286 101.6 137.29 76.3568Z" fill="#8DD951"/>
<path fill-rule="evenodd" clip-rule="evenodd" d="M80.2827 15.3335C78.388 11.413 80.2997 5.78351 84.223 3.73073C86.5947 2.48977 88.7466 2.825 90.8964 4.77011C92.233 5.9795 92.9898 7.43104 92.9898 8.78577C92.9898 10.5365 91.8024 12.3044 88.2395 15.8591L84.9454 19.1452L85.7237 19.4512C87.1776 20.0233 90.8347 20.0777 92.725 19.5557C95.3695 18.8253 96.9348 18.7832 97.9472 19.4157C99.0149 20.0824 100.314 21.8557 100.714 23.1911C100.974 24.0615 101.127 24.2092 101.771 24.2092C102.641 24.2092 103.494 24.9579 103.739 25.9361C103.833 26.3098 103.86 27.3075 103.799 28.1533C103.627 30.5286 102.562 32.3941 99.7006 35.3317C97.9028 37.1773 97.2317 38.0486 97.2356 38.531C97.2431 39.3977 99.0465 43.9202 99.9564 45.3537C100.756 46.6132 101.473 47.1503 102.697 47.4052C103.394 47.5505 103.646 47.4561 104.219 46.8373C104.597 46.4292 104.907 45.8223 104.907 45.489C104.907 45.0904 105.128 44.7989 105.554 44.6363C106.002 44.4658 106.254 44.1133 106.37 43.4935C106.592 42.3074 107.572 41.1126 108.37 41.0548C108.995 41.0097 109.015 40.9373 109.15 38.2448C109.279 35.6685 109.249 35.4359 108.706 34.8179C107.946 33.9547 107.665 32.8052 108.087 32.2949C108.27 32.074 108.852 31.9006 109.409 31.9006C109.955 31.9006 110.526 31.7512 110.677 31.569C111.017 31.1569 111.742 28.3885 112.036 26.3803L112.257 24.8723L112.289 26.209C112.322 27.5642 111.774 30.1167 111.184 31.3545C110.927 31.8947 110.618 32.0602 109.671 32.1658C108.635 32.2814 108.472 32.3854 108.403 32.976C108.357 33.3691 108.565 33.9602 108.898 34.3846L109.472 35.1155L110.053 34.5689C110.76 33.9043 111.602 33.839 111.48 34.458C111.395 34.8949 111.002 35.1858 110.137 35.4534C109.74 35.5765 109.673 35.9433 109.673 38.0096C109.673 40.7161 109.421 41.4484 108.488 41.4484C107.738 41.4484 107.125 42.2255 106.736 43.6661C106.562 44.3082 106.269 44.74 105.948 44.8241C105.649 44.9023 105.432 45.1938 105.426 45.524C105.42 45.8351 105.07 46.4939 104.648 46.988C103.934 47.8242 103.796 47.8767 102.652 47.7476C101.158 47.5789 100.245 46.7822 99.1262 44.6681C97.9014 42.3544 96.5993 38.3939 96.8917 37.8709C97.0265 37.6295 98.157 36.3891 99.4037 35.1142C102.797 31.6454 104.155 28.4723 103.324 25.9533C103.04 25.0911 102.283 24.4731 101.513 24.4747C101.413 24.475 101.317 25.5791 101.3 26.928C101.253 30.4514 100.325 32.6962 98.9133 32.6962C97.607 32.6962 96.8554 30.0655 97.5015 27.7541C97.8729 26.4267 99.4975 24.4745 100.231 24.4745C100.822 24.4745 100.785 24.1546 100.022 22.6468C99.0759 20.7768 98.113 19.7493 96.991 19.4128C96.1573 19.1624 95.6653 19.2104 93.899 19.7135C91.4123 20.4217 87.7376 20.4975 85.7722 19.8814L84.5132 19.4865L83.5888 20.5681C81.2443 23.3109 80.934 25.1701 82.1539 29.1579C83.5215 33.6274 83.258 35.8656 81.0701 38.3612C78.982 40.7432 76.8877 41.0023 71.8464 39.503C68.2046 38.4199 66.3658 38.2867 64.1492 38.9461C62.3468 39.4821 60.0729 41.6178 59.6496 43.1723C59.3306 44.344 59.2574 46.8291 59.534 47.106C59.6309 47.2031 60.0442 46.6968 60.4526 45.9807C61.6395 43.8995 63.2249 43.0373 66.7696 42.5453C70.6052 42.0128 73.5473 42.9527 78.5646 46.3127L81.1815 48.0655L82.0118 46.0168C83.8724 41.4243 86.0828 37.7666 89.3628 33.8525C91.1403 31.7313 94.5787 28.4068 94.5787 28.8092C94.5787 28.8882 94.3496 29.3476 94.0694 29.83C92.6331 32.305 92.1922 36.9134 93.0978 39.9897C93.805 42.3915 95.0771 44.5923 96.6992 46.2207C97.835 47.3609 99.0362 48.1353 102.128 49.7202C106.683 52.055 108.026 53.0944 108.988 55.0273C109.552 56.16 109.673 56.7774 109.673 58.5024C109.673 59.6561 109.497 61.2737 109.282 62.0972C108.627 64.5989 106.069 70.817 103.702 75.6614C100.38 82.4592 99.6206 85.7524 100.551 89.3308C101.637 93.5063 103.92 95.6422 111.443 99.5175C113.845 100.755 115.642 101.908 117 103.143C115.122 101.912 111.607 100.011 109.847 99.0852C104.155 96.0901 102.265 94.4415 100.756 91.1581C100.183 89.9129 100.01 89.0846 99.9244 87.1809C99.784 84.0635 100.373 81.8715 102.693 76.8809C105.633 70.5547 108.366 63.9561 108.9 61.894C109.886 58.0857 109.397 55.4662 107.312 53.3826C106.458 52.5297 104.883 51.5473 102 50.0693C98.6513 48.3531 97.6096 47.6752 96.3061 46.366C93.4477 43.4951 92.0314 39.5786 92.274 35.2158C92.3469 33.9029 92.5987 32.3029 92.8334 31.6602C93.0682 31.0176 93.211 30.4424 93.1505 30.3819C93.0902 30.3214 91.9571 31.495 90.6324 32.9901C86.9355 37.1625 84.2166 41.4749 82.3843 46.0724C81.9313 47.2094 81.6686 47.7856 81.8199 48.2188C81.996 48.7231 82.7329 49.0337 84.3832 49.8096C88.1799 51.5951 90.6234 51.9197 96.4412 51.411C99.4249 51.1503 101.16 51.5362 103.21 52.9166C105.128 54.2077 106.068 55.9109 106.189 58.3109C106.313 60.7697 105.656 62.8405 103.735 66.0383C99.5554 72.9981 98.0625 77.1106 97.434 83.3965C97.0349 87.3854 97.4041 91.1228 98.7134 96.3508C98.9363 97.2412 99.8536 101.502 99.4516 103.143C99.4201 101.174 99.2232 100.026 98.4803 97.0114C97.1906 91.7787 96.9663 90.2076 96.9653 86.4027C96.9632 79.4005 98.6098 73.7497 102.53 67.3071C103.595 65.5566 104.738 63.4567 105.069 62.6406C107.844 55.8086 103.235 50.6634 95.3531 51.7948C90.9733 52.4236 87.4207 51.8102 83.2654 49.708C82.3592 49.2495 81.5597 48.8745 81.489 48.8745C81.2821 48.8745 80.3484 52.2507 79.8384 54.8419C79.1877 58.1489 79.1962 66.3128 79.854 69.694C81.4114 77.6983 83.0165 81.1891 90.4637 92.768C92.8288 96.4453 94.7116 100.118 95.8073 103.143C92.7438 96.5765 89.4123 91.819 88.493 90.381C82.2583 80.6292 80.7168 76.8929 79.0813 67.5723C78.9791 66.9888 78.908 64.5873 78.9234 62.2356C78.9537 57.6892 79.5206 53.4137 80.5182 50.212C80.8116 49.2702 81.0267 48.4841 80.9961 48.465C80.9655 48.4461 79.8084 47.6502 78.4247 46.6962C73.836 43.5325 71.29 42.6071 67.832 42.8461C63.584 43.1397 61.309 44.4276 60.282 47.1206C60.1353 47.5054 60.0221 47.7589 59.9801 48.0236C59.8689 48.7232 60.2548 49.5008 61.8325 52.9853C63.6614 57.0241 63.9333 58.7453 63.9246 66.2253C63.9177 72.3383 63.9413 72.6329 64.5732 74.3144C65.638 77.1482 67.6575 80.8708 71.2794 86.6757C73.1517 89.6763 74.8855 92.7401 75.132 93.4838C75.8279 95.5823 75.6785 106.884 74.6154 112C75.7711 102.56 75.0615 94.0576 74.6154 93.1605C73.7231 91.3663 65.7275 78.2158 64.339 74.9589L64.0167 74.2028L63.917 75.1249C63.8621 75.632 63.9434 79.4556 64.0978 83.6217C64.3746 91.0966 65.6923 105.72 67.9231 111.551C68.1164 112.663 66.1385 106.169 65.581 103.143C65.128 100.684 63.6421 88.1546 63.5703 78.2226L63.5319 72.9599L61.8654 68.1295C59.093 60.094 58.9097 58.8273 59.0247 48.4767C59.0392 47.1638 59.052 45.5298 59.0528 44.8458C59.0554 42.5713 60.5911 40.2042 62.8005 39.0686C65.3737 37.7462 67.7306 37.8067 72.7561 39.3242C74.1991 39.7597 75.9077 40.1175 76.5536 40.1194C79.7282 40.1273 82.6619 36.8787 82.6619 33.3553C82.6619 32.7485 82.3057 31.0691 81.8703 29.6231C80.5891 25.3666 80.8751 23.2807 83.1158 20.5423L84.0795 19.3645L83.3046 18.8147C82.0226 17.9053 80.9016 16.6139 80.2827 15.3335ZM92.4716 7.80792C92.1334 6.55052 90.5813 4.71415 89.3202 4.07948C86.9691 2.89634 84.6825 3.32733 82.6905 5.32892C80.9252 7.10297 80.2206 8.74043 80.0702 11.4183C79.9544 13.4772 79.9991 13.7186 80.7987 15.3449C81.4135 16.5964 81.9932 17.3298 82.8843 17.9848C83.5631 18.4837 84.2431 18.8948 84.396 18.8982C84.8188 18.9083 91.5437 11.9877 91.9922 11.081C92.6228 9.80633 92.7589 8.87674 92.4716 7.80792ZM100.128 31.102C100.67 30.1204 100.804 29.4576 100.891 27.3255C100.949 25.9032 100.893 24.7402 100.767 24.7407C100.64 24.7413 100.155 24.9752 99.6871 25.2608C97.9099 26.3461 97.094 29.6374 98.1194 31.5855C98.7271 32.7405 99.2993 32.6026 100.128 31.102ZM110.667 34.8522C110.994 34.6771 111.262 34.4785 111.262 34.4108C111.262 34.13 110.772 34.318 110.434 34.7288C110.105 35.1288 110.126 35.1405 110.667 34.8522ZM63.4975 64.9C63.4262 59.7158 63.3324 58.5271 62.8605 56.831C62.5563 55.737 61.7171 53.555 60.9957 51.9823C59.4505 48.6124 59.333 48.7225 59.3273 53.5436C59.3231 56.9047 59.4542 58.0902 60.1833 61.2917C60.7624 63.8349 62.914 70.3117 63.3124 70.7106C63.4942 70.8928 63.5541 69.014 63.4975 64.9Z" fill="black"/>
</svg>
