<svg width="140" height="140" viewBox="0 0 140 140" fill="none" xmlns="http://www.w3.org/2000/svg">
<path fill-rule="evenodd" clip-rule="evenodd" d="M140 87.8098C130.862 115.533 104.752 135.544 73.9678 135.544C35.5775 135.544 4.45594 104.422 4.45594 66.0317C4.45594 35.2486 24.4656 9.13906 52.1878 0.000244141C22.0911 8.35188 0 35.9488 0 68.7054C0 108.08 31.9195 140 71.2943 140C104.052 140 131.649 117.908 140 87.8098Z" fill="#FBFBFB"/>
<path fill-rule="evenodd" clip-rule="evenodd" d="M137.29 77.2601C129.626 100.512 107.727 117.295 81.9081 117.295C49.7099 117.295 23.608 91.1933 23.608 58.995C23.608 33.1763 40.3913 11.2775 63.6432 3.61328C38.3998 10.6172 19.8708 33.7634 19.8708 61.2373C19.8708 94.2612 46.642 121.032 79.6658 121.032C107.14 121.032 130.286 102.503 137.29 77.2601Z" fill="#8DD951"/>
<path fill-rule="evenodd" clip-rule="evenodd" d="M81.0225 16.9983C80.3098 18.4331 80.3152 19.3055 81.0533 21.9726C81.348 23.038 81.5652 23.9613 81.5357 24.0246C81.5064 24.0878 79.6719 25.0005 77.459 26.0526C74.151 27.6256 73.117 28.2329 71.6433 29.4677C70.4286 30.486 69.1181 31.3162 67.5759 32.0447C65.3129 33.1139 65.2975 33.1169 64.6313 32.6546C63.6685 31.986 61.2825 31.6067 60.3508 31.9743C59.3491 32.3695 59.0918 33.3202 59.2978 35.8672C59.5735 39.2737 60.354 42.0413 62.5598 47.4326C63.7935 50.4477 64.7262 53.0576 64.8765 53.9155C65.0152 54.7052 65.0109 56.9216 64.867 58.8408C64.7234 60.7598 64.7063 63.7042 64.8294 65.3838C64.9525 67.0631 64.9889 68.6331 64.9106 68.8722C64.8323 69.1114 64.7207 70.0576 64.6625 70.9752C64.4779 73.8852 64.0344 74.6737 60.3086 78.7162C56.485 82.8645 54.8102 85.0382 55.0253 85.573C55.212 86.037 55.2611 86.0118 56.0055 85.0707C57.6214 83.0275 60.7494 81.0732 61.8549 81.4164C62.7384 81.6909 64.0044 82.6622 64.2392 83.2459C65.2508 85.7602 72.6436 92.7219 73.8123 92.2608C74.5425 91.9727 72.3332 89.481 67.702 85.3689L63.9763 82.0611L63.7763 80.7686C63.4206 78.474 64.2989 76.2456 67.6975 70.8179C69.0251 68.6977 69.385 67.771 69.5586 66.0252C69.8405 63.191 68.9675 57.0161 66.9583 47.6332C65.4396 40.5418 64.7679 34.5181 65.4338 33.9637C65.5572 33.8611 66.1117 34.3229 66.6666 34.9899C67.4245 35.901 68.1943 37.3637 69.7613 40.8711C71.2499 44.2032 72.1028 45.8408 72.741 46.5911C73.7958 47.8313 75.5857 48.5744 76.5747 48.1826C77.2955 47.8971 78.313 46.6998 78.9136 45.4309L79.2954 44.6237L82.1644 45.4525C83.7424 45.9085 85.1976 46.4132 85.3987 46.5745C85.6153 46.7484 85.795 47.2483 85.8406 47.804C85.9513 49.1485 86.4923 49.61 89.5704 50.9865C93.6957 52.8312 96.2958 55.0015 97.2644 57.409C97.5332 58.0771 97.801 58.5129 97.8597 58.3778C97.9184 58.2427 97.9285 57.1864 97.882 56.0301L97.7976 53.9283L94.6156 52.5213C92.8654 51.7474 90.8722 50.735 90.1863 50.2715C88.495 49.1286 86.653 47.3556 86.7268 46.9413C86.8361 46.3273 88.993 45.9802 91.4384 46.183C97.4581 46.6821 102.617 49.7239 103.162 53.0948C103.409 54.6218 103.385 60.0742 103.122 62.5175C103.007 63.5805 102.727 65.0594 102.5 65.804L102.088 67.1582L101.149 66.3077C99.9953 65.2632 97.8517 64.1365 97.693 64.4911C97.6289 64.6345 98.3148 65.3886 99.2176 66.1671C100.12 66.9454 100.835 67.7134 100.807 67.8735C100.778 68.0337 100.25 68.3017 99.6325 68.4688C98.657 68.7331 98.4914 68.8668 98.368 69.4899C98.2899 69.8845 98.3156 70.6484 98.4249 71.1872C98.678 72.4342 98.0659 73.8534 96.7918 74.9741C94.5947 76.9064 91.1466 80.5845 89.9479 82.2744C89.2486 83.2604 87.9635 85.6067 87.0924 87.4887C86.2213 89.3704 84.8283 91.9496 83.9967 93.2198C82.2581 95.8756 81.7257 97.2552 81.0276 100.912C80.5667 103.327 80.4749 103.536 79.8697 103.546C74.4266 103.631 65.5016 100.075 62.1915 96.5022C61.4286 95.6788 61.0164 94.8801 59.9376 92.1342L58.6174 88.7736L59.4739 88.1392C60.4809 87.3933 60.2651 87.0972 58.907 87.3616C58.3728 87.4655 57.5451 87.449 57.0678 87.3249C56.469 87.169 55.8251 87.2469 54.991 87.576C52.7587 88.4567 53.3072 88.9945 55.8786 88.4464C57.9609 88.0023 58.64 88.3253 57.557 89.2444C55.8709 90.6753 57.0538 88.9326 52.6853 95.2392C49.8151 99.3827 51.1903 98.0425 52.564 96.0637C56.8464 89.8971 56.378 90.7192 57.9483 89.4596L58.4428 89.0627L59.523 92.2207C60.5035 95.088 60.7013 95.4851 61.6704 96.5336C64.0265 99.0827 69.0798 101.768 74.0646 103.119C76.727 103.841 80.3987 104.237 80.799 103.846C80.9284 103.719 81.2424 102.399 81.4968 100.911C82.0434 97.7141 82.8231 95.6828 84.3721 93.4184C84.9962 92.5064 86.2012 90.2981 87.05 88.5114C87.899 86.7247 89.0303 84.5259 89.5646 83.6254C90.57 81.9307 94.9056 77.1031 96.8649 75.4971C98.4104 74.2303 99.0311 72.7787 98.8435 70.8708L98.6913 69.3258L100.023 68.8005C101.353 68.2759 101.354 68.2742 101.051 67.5207C100.884 67.1056 100.353 66.4766 99.8704 66.1225C99.3882 65.7685 99.1581 65.5075 99.3591 65.5427C99.817 65.6225 101.397 66.9787 101.589 67.4571C101.911 68.2574 102.316 67.8138 102.844 66.0841C103.544 63.7883 103.8 61.3833 103.799 57.1223C103.797 52.7743 103.321 51.1467 101.601 49.6017C98.3542 46.6864 90.9489 44.796 87.4713 45.9944C86.3223 46.3902 86.0005 46.3876 85.2258 45.9765C84.7284 45.7124 83.3161 45.2203 82.0876 44.8824C80.8589 44.5448 79.8011 44.1378 79.737 43.9783C79.6728 43.8189 80.0089 42.8946 80.484 41.9239C81.483 39.8828 82.0878 39.5161 84.4803 39.5006C86.644 39.4866 89.0633 39.6615 89.7181 39.8791C90.0313 39.9833 90.256 39.9896 90.2172 39.8932C90.1041 39.6121 93.3722 40.114 95.8032 40.751C98.7557 41.5245 99.1673 41.9449 99.7024 44.734C100.074 46.6718 100.282 47.2374 100.465 46.8149C100.526 46.6761 100.304 44.8838 99.9766 42.8589C99.9183 42.4981 100.105 40.7544 100.391 38.9841C100.953 35.5113 100.839 33.6346 99.9783 32.2057C99.2019 30.9165 98.2551 30.1687 94.4777 27.8613C91.0196 25.749 87.8408 24.367 85.8073 24.092C84.7939 23.9551 84.5941 23.8257 84.4026 23.183L84.1795 22.4336L88.4021 20.4885C90.7246 19.4187 92.6572 18.5934 92.697 18.6545C92.7368 18.7156 93.2638 19.7894 93.8681 21.0411C95.1229 23.64 95.2265 23.3334 92.6335 24.7C91.834 25.1215 91.2218 25.5713 91.2735 25.6997C91.3297 25.8394 91.9074 25.6558 92.711 25.2431C93.45 24.8633 97.8341 22.7808 102.454 20.6151L110.853 16.6774L111.125 15.5374C111.396 14.401 112.281 13.5054 112.774 13.8679C112.945 13.9931 113.784 13.6945 115.241 12.99C117.638 11.8314 119.42 10.5827 119.815 9.78501C119.995 9.42307 121.169 8.76282 123.973 7.4472C132.06 3.65405 133.792 2.90277 133.736 3.2147C133.707 3.3819 133.918 3.66407 134.207 3.84155C134.627 4.10001 134.769 4.08021 134.919 3.74129C135.069 3.40146 135.022 3.28323 134.679 3.13827C134.336 2.99361 134.323 3.03982 134.617 3.37203C134.925 3.72083 134.909 3.75698 134.514 3.60195C134.117 3.44537 134.106 3.31143 134.444 2.70891L134.841 2L132.73 3.00336C122.723 7.75768 119.932 8.95472 119.198 8.80657C118.649 8.69589 117.581 8.978 114.929 9.93386C111.828 11.0513 111.393 11.2644 111.398 11.6602C111.408 12.4335 110.368 12.6187 109.719 11.9588C108.486 10.7045 108.822 10.6129 100.438 14.49C96.254 16.4246 91.9525 18.4257 90.8787 18.937L88.9265 19.8663L88.6856 19.2676C88.2237 18.1195 86.1106 15.8947 84.9933 15.3797C84.0485 14.9447 83.7281 14.9354 82.7636 15.3159C81.8141 15.6905 81.5407 15.9547 81.0225 16.9983ZM84.4112 15.493C85.7483 15.8844 88.7859 19.2674 88.2087 19.7227C88.0721 19.8302 87.0406 20.3541 85.9159 20.8868C84.0111 21.7894 83.8493 21.8261 83.5506 21.4248C83.0224 20.7148 82.6881 21.1334 82.9301 22.2022C83.1112 23.0022 83.0456 23.2729 82.6035 23.5523L82.0503 23.902L81.4793 21.9986C80.8461 19.8872 80.7748 18.5349 81.2345 17.3579C81.8121 15.8795 83.116 15.1141 84.4112 15.493ZM108.343 12.063C108.541 12.5564 108.465 12.7155 107.921 12.9423C107.556 13.0944 105.07 14.2472 102.396 15.5035L97.5358 17.7883L96.749 17.4377C96.3163 17.245 95.9903 17.0655 96.0246 17.0388C96.1927 16.9091 105.51 12.5598 106.716 12.0482C108.042 11.4856 108.111 11.4863 108.343 12.063ZM84.0595 23.3842C84.1509 23.7725 84.0061 23.5488 83.7377 22.8871C83.4694 22.2253 83.3946 21.9075 83.5715 22.1811C83.7484 22.4546 83.9679 22.9961 84.0595 23.3842ZM109.505 12.2262C109.923 12.584 109.934 12.6527 109.575 12.6573C109.34 12.6602 109.058 12.4393 108.948 12.1663C108.725 11.6103 108.792 11.6175 109.505 12.2262ZM94.9904 19.2152C95.4083 20.01 96.0183 21.1507 96.3465 21.7506C96.9392 22.8341 96.9386 22.843 96.2254 23.1243C95.5171 23.4038 95.4974 23.3873 94.6986 21.8425C94.2533 20.9818 93.7031 19.8174 93.4755 19.2546C93.1036 18.3344 93.1208 18.2082 93.6463 18.0008C94.1846 17.7885 94.2909 17.8844 94.9904 19.2152ZM95.9304 18.0457C97.0308 18.7147 97.8556 20.8602 97.4086 21.8893L97.0869 22.6293L96.7353 21.7988C96.542 21.3422 95.9874 20.2125 95.5026 19.2886C94.5538 17.4798 94.6311 17.2556 95.9304 18.0457ZM96.8936 17.8544C97.4259 18.2188 97.4456 18.2116 103.006 15.6175C106.074 14.1859 108.686 13.0292 108.809 13.0472C109.007 13.0757 110.468 16.3694 110.323 16.4582C109.975 16.6713 97.943 22.354 97.8798 22.3351C97.8327 22.3211 97.8332 21.9298 97.8809 21.466C97.9906 20.4016 97.3779 18.8535 96.5767 18.1706C95.861 17.5606 96.1066 17.3154 96.8936 17.8544ZM118.669 9.21348C119.192 9.29048 117.909 9.9082 113.625 11.6423C112.289 12.1831 111.685 11.8265 112.832 11.1746C114.058 10.4774 118.079 9.12643 118.669 9.21348ZM62.6644 32.3567C63.3187 32.4916 64.1256 32.7907 64.4577 33.0212C65.0109 33.4053 65.048 33.5233 64.9042 34.4408C64.5351 36.7953 65.2477 41.9191 67.2802 51.5266C69.2275 60.7319 69.6768 65.6411 68.7907 68.0368C68.6165 68.5077 67.5343 70.4228 66.3859 72.2925C63.5952 76.8364 62.7389 79.4545 63.4497 81.2682L63.6841 81.866L62.692 81.3898C62.1464 81.1278 61.3184 80.9757 60.8519 81.0517C59.9196 81.2035 58.2187 82.2997 56.7955 83.6657C54.8255 85.5564 56.6009 83.3313 60.2629 79.3193C62.6493 76.7046 64.1418 74.8502 64.4299 74.1408C64.8975 72.9891 65.2773 70.4088 65.0591 69.8663C64.9897 69.6938 65.0656 69.3906 65.2278 69.1926C65.3922 68.9921 65.401 67.5899 65.2478 66.0305C65.0964 64.4896 65.084 61.3634 65.2201 59.0836C65.3565 56.8036 65.3882 54.4045 65.2907 53.7521C65.1932 53.0997 64.1198 50.0689 62.9054 47.0169C61.691 43.9649 60.5256 40.7191 60.3158 39.804C59.5177 36.3212 59.3748 33.1733 59.9879 32.5781C60.404 32.1744 61.3866 32.0932 62.6644 32.3567ZM110.743 13.8473C110.911 14.2748 110.977 14.8752 110.892 15.1811C110.746 15.7031 110.714 15.7072 110.368 15.2483C110.165 14.9793 109.833 14.3495 109.629 13.8486C109.289 13.0123 109.307 12.9435 109.849 13.004C110.256 13.0493 110.534 13.3121 110.743 13.8473ZM111.795 12.9342C111.937 13.2864 111.898 13.5916 111.701 13.6692C111.516 13.7423 111.203 13.5517 111.005 13.2457C110.727 12.8135 110.748 12.6495 111.1 12.5106C111.42 12.3841 111.623 12.5076 111.795 12.9342ZM82.1215 25.683C82.3074 26.4127 82.4398 27.0552 82.4158 27.1105C82.3918 27.1658 78.9224 28.8315 74.706 30.8124C67.3493 34.2684 67.0199 34.4014 66.5483 34.1087C65.574 33.5036 65.7573 33.2716 68.0321 32.2304C69.5514 31.5349 70.7215 30.8025 71.8046 29.8686C73.0101 28.8291 74.2752 28.0701 77.2554 26.5979C79.3899 25.5434 81.2816 24.6075 81.4597 24.5182C81.7157 24.3899 81.8537 24.6327 82.1215 25.683ZM83.5281 23.9682C83.5855 24.1108 83.4349 24.6825 83.1933 25.2384L82.7541 26.2491L82.5123 25.648C82.3792 25.3173 82.2679 24.8492 82.2648 24.6076C82.2585 24.1188 83.3636 23.5594 83.5281 23.9682ZM119.274 9.79973C119.413 10.1452 116.967 11.8373 114.918 12.8123L112.966 13.7416L112.725 13.1427C112.488 12.5537 112.52 12.5279 114.702 11.5763C115.923 11.0444 117.432 10.3813 118.057 10.103C118.682 9.82444 119.229 9.68819 119.274 9.79973ZM86.0481 24.5874C88.4845 25.0559 90.6097 25.9805 93.9354 28.0187C98.1798 30.6199 99.0832 31.4314 99.8077 33.2952C100.416 34.8601 100.403 36.4557 99.7533 40.1202C99.4683 41.7251 99.362 41.9446 99.0132 41.6501C97.8413 40.6604 95.4102 39.9388 91.8441 39.5227L90.3055 39.3431L91.7591 36.3674L90.7462 35.5625C90.1892 35.1199 88.5655 33.8431 87.1377 32.7254C84.6219 30.7555 84.5212 30.6411 83.8597 28.9942C83.1045 27.1143 83.1443 25.6781 83.9734 24.8957C84.617 24.2884 84.5475 24.2988 86.0481 24.5874ZM82.8756 27.9527C83.2015 28.7626 82.6096 29.2208 78.8727 31.0513C75.5592 32.6743 74.906 32.9211 73.15 33.2128C72.0598 33.3936 70.3256 33.8986 69.2966 34.3347C68.2674 34.771 67.3262 35.0856 67.2047 35.0339C67.0834 34.9824 67.1357 34.8699 67.3209 34.7843C67.5064 34.6988 70.372 33.3332 73.6892 31.7498C81.656 27.9473 82.6998 27.5157 82.8756 27.9527ZM73.7965 33.5015C75.4218 33.222 76.0501 32.975 78.985 31.4601C80.8216 30.5119 82.4584 29.681 82.6221 29.6134C82.9668 29.471 82.6384 32.6507 82.0628 35.0308C81.8517 35.9029 81.709 37.1037 81.7453 37.6992L81.8114 38.7822L80.5142 38.8069C77.6055 38.8622 75.6818 39.7752 75.522 41.1762C75.4109 42.1512 76.1292 43.0709 77.5989 43.8354C78.2878 44.1936 78.8248 44.6369 78.792 44.8204C78.6654 45.5322 77.0321 47.4449 76.3068 47.7311C75.4089 48.0853 74.4273 47.7039 73.2715 46.552C72.6611 45.944 71.9673 44.63 70.3452 41.0111C69.1759 38.4019 68.0679 36.1071 67.8831 35.9113C67.5783 35.5882 67.751 35.4749 69.7475 34.6872C70.9575 34.2098 72.7797 33.6763 73.7965 33.5015ZM84.5496 31.0902C84.9015 31.4834 86.4948 32.7973 88.0902 34.0102C89.6857 35.2231 91.0406 36.3377 91.1014 36.4873C91.162 36.6367 90.8919 37.3317 90.5008 38.0317L89.7896 39.3047L88.6042 39.0993C87.9521 38.9865 86.3654 38.9085 85.0784 38.9261C83.7911 38.9438 82.6327 38.8453 82.5042 38.7073C82.2259 38.409 82.4246 35.8011 82.7738 35.1665C82.9804 34.7915 83.1943 34.8621 84.1476 35.619C84.7685 36.1124 85.5378 36.7091 85.8566 36.945C86.978 37.7744 86.7056 36.7974 85.0939 34.2084C83.52 31.6804 83.0337 30.4255 83.6152 30.3923C83.777 30.3831 84.1974 30.6971 84.5496 31.0902ZM84.8447 34.5666C85.4369 35.4701 85.8985 36.2622 85.8703 36.3267C85.8422 36.3913 85.305 36.021 84.6763 35.5039C84.0475 34.9869 83.3343 34.5378 83.0912 34.5061C82.718 34.4574 82.6802 34.2225 82.8484 32.991C83.0458 31.5462 83.0505 31.5396 83.4076 32.2288C83.6057 32.6112 84.2526 33.6632 84.8447 34.5666ZM79.8578 39.3732C81.8006 39.3377 82.1053 39.4637 81.3167 39.9767C80.9639 40.2063 80.3464 41.191 79.9097 42.2206L79.1313 44.0554L77.7559 43.3494C76.2166 42.5594 75.7596 41.809 76.2005 40.7946C76.5839 39.9123 77.8786 39.409 79.8578 39.3732ZM88.9572 49.9866C89.7597 50.6168 89.7345 50.6153 88.3599 49.9542C86.8554 49.2309 86.1774 48.5716 86.2894 47.9418C86.3335 47.6941 86.6559 47.8661 87.2379 48.4477C87.7229 48.9321 88.4964 49.6249 88.9572 49.9866ZM97.4184 55.1666C97.5041 56.2094 97.2065 56.5643 96.8951 55.7903C96.787 55.5217 96.1109 54.7872 95.3926 54.1581C94.6742 53.529 94.0568 52.9285 94.0204 52.8234C93.9839 52.718 94.716 52.988 95.6471 53.4229C97.2843 54.1878 97.3426 54.2452 97.4184 55.1666ZM71.1779 89.1022C71.9843 89.9416 72.86 90.9039 73.124 91.2411C73.5898 91.8355 73.5851 91.8469 72.9667 91.6188C71.4774 91.07 65.5815 85.2604 65.0465 83.8145C64.8461 83.2736 69.1122 86.9525 71.1779 89.1022ZM56.5556 87.6244C57.0736 87.6381 57.07 87.6607 56.5143 87.8724C56.1782 88.0005 55.5945 88.1264 55.2173 88.1524C54.5483 88.1983 54.5496 88.1923 55.2585 87.9045C55.6584 87.7422 56.2421 87.6161 56.5556 87.6244ZM59.3146 87.8247C59.335 87.8753 59.1328 88.0033 58.8651 88.1089C58.5975 88.2145 58.3389 88.2027 58.2906 88.0827C58.2423 87.9625 58.4446 87.8346 58.7401 87.7982C59.0357 87.762 59.2942 87.7738 59.3146 87.8247Z" fill="black"/>
</svg>
