<svg width="140" height="141" viewBox="0 0 140 141" fill="none" xmlns="http://www.w3.org/2000/svg">
<path fill-rule="evenodd" clip-rule="evenodd" d="M140 88.8098C130.862 116.533 104.752 136.544 73.9678 136.544C35.5775 136.544 4.45594 105.422 4.45594 67.0317C4.45594 36.2486 24.4656 10.1391 52.1878 1.00024C22.0911 9.35188 0 36.9488 0 69.7054C0 109.08 31.9195 141 71.2943 141C104.052 141 131.649 118.908 140 88.8098Z" fill="#F9F9F9"/>
<path fill-rule="evenodd" clip-rule="evenodd" d="M137.29 79.162C129.626 102.414 107.727 119.198 81.9081 119.198C49.7099 119.198 23.608 93.0963 23.608 60.8981C23.608 35.0802 40.3902 13.1819 63.6409 5.51709C38.3987 12.5218 19.8708 35.6674 19.8708 63.1405C19.8708 96.1643 46.642 122.935 79.6658 122.935C107.14 122.935 130.287 104.406 137.29 79.162Z" fill="#8DD951"/>
<path fill-rule="evenodd" clip-rule="evenodd" d="M55.5299 104.215C61.2539 98.8369 65.6308 93.4938 72.1435 83.9338C74.2637 80.8221 77.6155 76.1291 79.5919 73.505C81.5687 70.881 84.7291 66.2642 86.6151 63.2455C90.3421 57.2809 91.2349 55.2186 93.0089 48.4737C93.5039 46.5916 94.2779 44.4245 94.7291 43.6581C95.1803 42.8917 95.8014 41.1965 96.1092 39.8909C96.4166 38.5851 97.5086 35.3931 98.5351 32.7972C100.052 28.9628 100.428 27.58 100.541 25.4279C100.755 21.3288 101.084 20.4261 103.388 17.6123C104.489 16.2679 106 14.1155 106.747 12.829C108.351 10.0652 109.389 9.38655 110.781 10.1903C112.374 11.1102 112.158 12.3636 109.805 15.8453C107.667 19.0084 107.387 19.8012 108.474 19.6153C109.277 19.4782 111.411 15.9076 112.065 13.6065C112.443 12.2782 112.669 11.947 113.475 11.5399C114.585 10.9802 115.326 11.2328 115.601 12.2601C116.248 13.8425 111.847 18.7794 112.149 20.0267C112.437 21.2127 113.454 19.0292 114.306 17.0997C115.091 15.3235 115.601 13.1231 116.464 13.1231C117.327 13.1231 117.472 13.2362 117.87 14.0266C119.053 16.1434 113.91 21.9326 114.738 22.1841C115.331 22.3641 118.311 15.7846 118.648 16.0515C119.618 16.8228 119.668 18.7639 118.75 20.0641C117.277 22.1508 115.883 24.6834 115.989 25.0795C116.219 25.9341 117.304 24.7977 118.516 22.4356C119.634 20.2546 119.853 19.9921 120.324 20.2638C120.977 20.6411 120.857 22.6651 120.06 24.7015C119.737 25.5274 119.391 27.0899 119.292 28.1737C118.925 32.19 116.54 36.764 108.456 48.9545C106.597 51.7575 106.444 52.1105 106.56 53.3224C106.74 55.2054 106.221 56.4338 104.259 58.7679L102.536 60.8199L103.488 58.3443C104.571 55.5302 104.546 54.7057 103.384 54.9042C102.754 55.0117 102.456 55.4035 101.668 57.1605C101.144 58.33 100.55 60.2335 100.349 61.3906C100.147 62.5483 99.4133 64.7533 98.7178 66.2914C98.0219 67.8294 96.5438 71.6436 95.433 74.7676C92.1297 84.0579 83.6484 104.591 81.7713 107.843C81.4479 108.403 81.3233 108.942 81.4944 109.041C81.8812 109.264 81.4181 110.202 85.358 101.212C89.0749 92.7308 93.4358 81.8525 97.1813 71.718L99.6184 65.1239L102.141 62.1343C106.281 57.2275 107.122 55.7686 107.107 53.5193L107.095 51.6061L109.72 47.8421C116.843 37.6288 119.331 32.8949 119.791 28.6758C119.92 27.4914 120.271 25.7601 120.57 24.8284C121.504 21.9233 121.536 20.5608 120.689 19.8055C120.241 19.4056 119.898 18.5686 119.862 17.7834C119.828 17.0466 119.56 16.2359 119.266 15.9818C118.973 15.7272 118.661 15.026 118.575 14.4229C118.45 13.5564 118.142 13.1776 117.105 12.6158C116.383 12.2253 115.479 11.5981 115.095 11.223C114.544 10.6839 114.185 10.6297 113.392 10.9665C112.45 11.3657 112.352 11.3339 111.847 10.4633C111.172 9.30053 109.843 8.89172 108.711 9.49848C108.181 9.78251 106.917 11.3728 105.368 13.7035C103.998 15.7651 102.325 18.1896 101.651 19.0913C100.504 20.6241 100.402 20.9829 100.075 24.6129C99.7948 27.7365 99.4438 29.2055 98.2781 32.1314C96.4613 36.6924 96.324 36.9389 96.0363 36.1616C95.9149 35.833 96.1024 34.714 96.4528 33.6745C97.2699 31.2531 97.1759 28.5766 96.2423 27.672C95.3997 26.8561 93.75 26.7397 92.7167 27.4235C92.0902 27.8381 91.9713 27.8035 91.6678 27.1167C91.1518 25.9479 90.3874 25.6758 89.0166 26.1723C88.3355 26.4192 87.479 26.574 87.1133 26.516C86.7477 26.458 86.1195 26.7849 85.7174 27.2428C85.315 27.7005 84.7982 27.9668 84.5689 27.8344C84.0247 27.5201 82.9368 28.2106 82.3357 29.2519C82.0578 29.7333 81.4298 30.1462 80.831 30.2411C79.4898 30.4534 78.3376 32.4801 78.2181 34.835C78.1708 35.7686 77.8203 37.0727 77.4391 37.7331C76.3988 39.5348 75.8668 42.1357 74.8861 50.2137C74.2173 55.725 73.808 57.8338 73.2388 58.7017C72.3899 59.9961 72.0045 60.6765 69.8144 64.7481C68.3714 67.4305 68.0755 67.77 64.761 70.5436C54.1752 79.4021 44.9861 87.9742 45.2044 88.7877C45.2972 89.1342 45.3515 89.0855 48.3497 85.9629C51.34 82.8482 58.4486 76.4299 62.6449 73.056C64.4619 71.5949 66.9849 69.3269 68.2513 68.0159C70.2952 65.9008 70.6216 65.4175 71.1525 63.7225C71.5192 62.5505 72.2723 61.0966 73.1006 59.9617C74.4455 58.118 74.4537 58.0829 75.3705 50.4369C76.3734 42.071 76.6926 40.4733 77.7146 38.6975C78.0871 38.05 78.522 36.4862 78.681 35.2226C78.8401 33.9589 79.2457 32.448 79.5824 31.8648C80.2103 30.7773 81.3772 30.2818 81.7368 30.9503C81.8624 31.1834 82.2437 30.7716 82.7446 29.8622C83.5114 28.4702 84.4436 27.935 84.8346 28.662C84.9225 28.8252 85.1595 28.6728 85.361 28.3236C85.8594 27.4604 89.8714 26.3318 90.7137 26.8181C91.642 27.354 91.6008 28.6513 90.5516 31.9109C89.5215 35.1108 89.4154 36.0263 90.0334 36.3831C90.8876 36.8762 91.2047 36.2063 91.5339 33.212C91.7172 31.5449 92.0451 29.6302 92.2628 28.9572L92.6582 27.7333L92.8453 28.9823C93.0561 30.3873 94.3542 31.3965 95.4354 30.9963C95.7967 30.8627 96.2015 30.8163 96.335 30.8934C96.6527 31.0768 96.2442 33.1885 95.7132 34.1083C95.4843 34.5048 95.4411 35.5512 95.6171 36.4336C96.0359 38.5338 95.303 40.6598 92.259 46.1736C90.1418 50.009 89.6802 51.1369 88.6891 54.9001C86.6998 62.4534 86.862 62.1035 83.397 66.3337C81.6825 68.4274 78.6304 72.681 76.6153 75.7861C73.1249 81.1646 70.8579 84.0758 63.0498 93.2053C58.5177 98.5047 56.5139 101.159 55.4149 103.319L54.4359 105.243L55.5299 104.215ZM59.2552 98.6646C63.0859 93.8938 70.2701 85.3935 70.53 85.3236C70.955 85.2098 69.9514 86.5837 65.5253 92.1746C61.153 97.6965 59.685 99.4264 57.542 101.581C55.6731 103.46 56.4043 102.215 59.2552 98.6646ZM80.6662 70.6093C81.6404 69.2059 82.4654 68.162 82.5 68.2898C82.534 68.4178 81.7649 69.6707 80.7909 71.0746C79.8168 72.478 78.9917 73.5219 78.9572 73.3941C78.9232 73.2662 79.6922 72.0132 80.6662 70.6093ZM89.6218 53.5715C90.2544 51.5286 91.3017 48.9787 91.9631 47.8698C92.8985 46.3022 93.0944 46.0979 92.8598 46.9354C92.6947 47.5247 92.1076 49.6129 91.5552 51.576C91.0027 53.539 90.0117 56.2342 89.3534 57.5656C88.1749 59.9489 88.1588 59.9653 88.3167 58.6267C88.4049 57.8789 88.9922 55.6041 89.6218 53.5715ZM100.997 60.4928C101.583 58.3176 103.245 55.2133 103.686 55.468C103.987 55.6419 103.546 56.8191 101.706 60.7422C100.486 63.3451 100.25 63.2624 100.997 60.4928ZM90.1959 35.1285C90.2764 34.6613 90.4939 33.8068 90.6795 33.2294C91.0166 32.1806 91.0171 32.1812 90.998 33.6207C90.9797 34.9876 90.5672 36.2763 90.2127 36.0717C90.1231 36.02 90.1154 35.5956 90.1959 35.1285ZM93.4378 29.4335C93.2563 28.3703 94.1064 27.9471 95.1788 28.5662C96.3482 29.2413 96.3108 30.3259 95.1132 30.4555C94.0536 30.5703 93.5826 30.283 93.4378 29.4335ZM93.7127 27.5123C94.0741 27.3786 94.5193 27.3556 94.7023 27.4613C94.8849 27.5667 94.6442 27.702 94.1668 27.7612C93.0454 27.9013 92.8911 27.8163 93.7127 27.5123ZM109.678 17.0221L110.766 15.7831L110.051 17.0997C109.292 18.4992 108.075 19.7446 108.41 18.7794C108.509 18.4943 109.08 17.7035 109.678 17.0221ZM117.989 22.3388C118.24 22.0845 118.163 22.3664 117.817 22.9654C117.471 23.5644 117.265 23.7723 117.36 23.4279C117.455 23.0832 117.738 22.5928 117.989 22.3388Z" fill="black"/>
</svg>
