<svg width="200" height="200" viewBox="0 0 200 200" fill="none" xmlns="http://www.w3.org/2000/svg">
<path fill-rule="evenodd" clip-rule="evenodd" d="M200 125.444C186.945 165.048 149.645 193.634 105.669 193.634C50.8253 193.634 6.36576 149.175 6.36576 94.331C6.36576 50.3551 34.951 13.0556 74.5541 0C31.5588 11.931 0 51.3553 0 98.1505C0 154.4 45.5995 200 101.849 200C148.645 200 188.07 168.44 200 125.444Z" fill="#FBFBFB"/>
<path fill-rule="evenodd" clip-rule="evenodd" d="M196.132 108.96C185.183 142.176 153.899 166.151 117.016 166.151C71.0181 166.151 33.7296 128.863 33.7296 82.8648C33.7296 45.9804 57.7062 14.6961 90.9236 3.74744C54.8611 13.7528 28.3906 46.8192 28.3906 86.0681C28.3906 133.245 66.6353 171.49 113.812 171.49C153.06 171.49 186.126 145.021 196.132 108.96Z" fill="#8DD951"/>
<path fill-rule="evenodd" clip-rule="evenodd" d="M91.9288 16.339C77.3837 17.3321 73.0849 18.0022 71.782 19.4791C70.2475 21.2188 70.6609 22.9081 75.8526 36.1038C77.6851 40.7623 79.1848 44.73 79.1848 44.9212C79.1848 45.112 78.6281 45.2683 77.9478 45.2683C76.4088 45.2683 75.8117 45.8334 75.8095 47.2917C75.808 48.2328 76.3455 48.926 78.9955 51.3989C82.2238 54.4121 82.6556 55.1847 81.5964 56.0553C80.5105 56.9478 79.9344 58.5832 79.9427 60.7499C79.9528 63.3962 80.7099 65.1066 83.261 68.2453L85.1891 70.6172L84.9855 74.5567C84.7929 78.2908 84.8311 78.5737 85.7176 79.9812C86.2318 80.7979 87.3428 82.7827 88.1858 84.3917C89.0291 86.0008 90.3369 88.2562 91.0918 89.4038C91.8471 90.5513 92.7391 92.0765 93.075 92.793C93.7744 94.2862 96.0447 96.3946 97.2768 96.6961C100.813 97.5607 101.366 96.5249 98.3008 94.7774C93.0221 91.7679 92.41 90.8528 93.6039 87.7565C94.2815 85.9986 95.4776 85.0994 95.087 86.6416C94.8438 87.6017 95.9787 89.077 96.96 89.077C97.779 89.077 99.6494 87.3637 100.158 86.1482C100.511 85.3017 100.513 84.8677 100.164 84.1916L99.715 83.3225L100.601 84.1675C101.346 84.8788 101.486 85.3793 101.485 87.3232C101.485 88.594 101.247 90.6445 100.958 91.8801C100.312 94.6315 100.521 95.5492 102.206 97.3721C103.657 98.9411 104.298 98.8887 104.298 97.201C104.298 95.8874 104.856 96.0671 105.219 97.4972C105.709 99.433 106.855 100.586 108.289 100.586C111.653 100.586 131.593 95.782 135.407 94.0523C140.791 91.6113 140.695 90.8817 132.788 74.041C132.213 72.8158 128.188 64.4376 123.845 55.4227C119.501 46.4081 115.75 38.2537 115.507 37.3018C115.182 36.0217 115.176 35.336 115.485 34.6655C116.09 33.3494 117.176 33.5116 117.719 35C118.678 37.627 121.54 39.9207 121.54 38.0629C121.54 37.7993 122.787 38.7698 124.312 40.2196C126.683 42.4746 127.332 43.3849 128.807 46.5228C129.788 48.6111 133.414 54.5261 137.229 60.2594C140.913 65.7972 144.967 72.0533 146.237 74.1617C150.902 81.9095 153.56 84.7403 166.855 96.1243C176.479 104.365 180.012 107.575 180.012 108.079C180.012 108.601 178.223 107.267 171.954 102.07C160.764 92.796 156.548 89.8359 153.123 88.8498C148.28 87.455 145.969 89.5363 142.172 98.7131C141.119 101.256 139.968 103.655 139.614 104.043C138.796 104.938 136.786 105.959 134.793 106.491C133.323 106.883 132.929 106.781 126.995 104.475C118.565 101.201 115.917 100.653 115.917 102.183C115.917 103.119 118.707 105.504 121.165 106.67C123.521 107.787 123.774 107.826 128.849 107.853C134.416 107.881 135.01 108.017 142.461 110.948C148.983 113.515 156.379 120.317 167.004 133.52C169.503 136.625 171.624 139.09 171.718 138.997C171.966 138.752 170.631 136.982 165.528 130.794C159.517 123.505 155.482 119.273 151.153 115.716C147.213 112.479 143.807 110.636 138.303 108.761C136.287 108.074 134.769 107.394 134.93 107.249C135.09 107.105 135.868 106.782 136.659 106.532C137.449 106.281 138.637 105.606 139.298 105.031C140.509 103.978 140.826 103.38 143.674 96.7803C148.504 85.5857 151.825 86.1459 169.978 101.218C177.649 107.587 180.416 109.616 180.848 109.189C181.695 108.35 179.262 105.939 166.983 95.4523C158.652 88.336 153.735 83.7264 151.472 80.9093C150.734 79.9904 148.194 76.1479 145.828 72.3703C143.463 68.5928 139.17 61.9899 136.288 57.6977C133.407 53.4052 130.596 48.9364 130.043 47.7665C129.489 46.5967 128.617 44.7508 128.105 43.6645C127.467 42.3116 126.637 41.3081 125.473 40.4798C124.529 39.8082 122.941 38.0495 121.902 36.5255C120.874 35.0163 119.708 33.6093 119.312 33.3991C118.116 32.7654 116.101 32.9432 115.366 33.7474C114.067 35.1693 114.706 37.7837 118.055 44.7411C119.717 48.1961 123.551 56.2019 126.573 62.5319C129.596 68.8619 132.509 74.9599 133.048 76.0829C135.884 81.9908 138.268 87.7795 138.611 89.5931C138.834 90.7685 138.725 91.0592 137.71 91.9985C136.221 93.3759 132.658 94.6682 125.351 96.4811C115.233 98.9915 107.756 100.376 107.124 99.8558C106.307 99.1846 105.048 95.57 105.048 93.8982C105.048 92.7874 105.25 92.3066 105.891 91.9005C106.955 91.2252 114.968 89.4297 118.073 89.1706L120.415 88.9753V90.3501C120.415 91.7546 120.952 93.1316 121.69 93.6194C122.508 94.1611 124.143 93.8856 125.137 93.0388C125.953 92.3438 126.101 91.9781 125.897 91.171C125.633 90.1273 123.719 88.7095 122.571 88.7073C120.819 88.7036 122.899 86.8183 125.591 85.9689C127.286 85.4342 129.905 84.8814 132.898 84.4263C133.682 84.3071 134.408 83.99 134.513 83.7212C134.704 83.2271 133.797 81.0864 128.838 70.3284C127.332 67.0613 122.106 55.6191 117.224 44.9011C112.342 34.1836 108.107 24.953 107.813 24.389C107.428 23.6517 106.991 23.3632 106.256 23.3614C103.498 23.3539 78.919 26.823 78.1098 27.3338C76.4144 28.4031 76.2563 27.9732 87.5542 52.972L94.4753 68.2865H92.2069C90.07 68.2865 89.8605 68.3678 88.591 69.6898C87.0186 71.3278 85.9533 74.2957 85.8847 77.2294L85.8379 79.2386L85.5586 77.568C85.4053 76.6491 85.4158 74.9201 85.5823 73.7262C85.9451 71.1255 85.6404 70.1817 83.6995 67.8966C82.2816 66.2267 80.6841 63.6038 80.6841 62.9459C80.6841 62.7591 81.165 63.2637 81.7527 64.0675C83.3 66.1829 85.0759 67.5439 86.2892 67.5439C87.8788 67.5439 88.3196 66.7899 87.7776 64.999C87.4365 63.8711 87.4309 63.1096 87.7544 61.8373C88.3961 59.3131 88.2814 57.7471 87.3705 56.6003C86.6513 55.6944 86.3754 55.6012 84.9023 55.7657C83.6961 55.9005 82.8749 56.2914 81.8917 57.1995C80.5251 58.4614 80.5859 58.2958 82.4277 55.7397C83.2587 54.5862 82.7898 53.8441 79.4486 51.0221C76.4785 48.5131 75.6348 46.9576 76.7904 46.1196C77.1798 45.8375 77.9677 45.6559 78.5416 45.7161C79.4561 45.8118 79.7451 46.1898 80.8771 48.7749C82.2879 51.9963 82.9926 52.9304 83.6909 52.5027C84.3 52.13 83.897 49.2705 83.0297 47.8107C82.6672 47.2011 81.8543 46.3854 81.2231 45.9982C80.2376 45.3934 79.6882 44.3094 77.3324 38.3202C71.336 23.0762 70.7246 20.6653 72.5538 19.478C73.0294 19.1695 74.3368 18.744 75.4586 18.5331C78.9647 17.8738 89.1907 17.0407 96.6141 16.8094C104.855 16.5528 105.046 16.6148 106.474 20.017C107.38 22.1774 106.905 22.1737 105.792 20.0115C104.723 17.9365 103.235 17.6091 97.3956 18.1633C93.1035 18.5702 88.1164 19.4175 87.3893 19.8626C86.8297 20.2049 87.016 20.7024 87.7956 20.9474C88.6749 21.224 94.4971 20.4518 95.3022 19.9521C95.6721 19.7223 95.2235 19.6822 93.9903 19.834C92.9595 19.961 91.1885 20.1384 90.0547 20.229C88.314 20.3675 88.1682 20.3352 89.1176 20.0222C90.7901 19.4706 98.3589 18.5376 101.16 18.5376C103.348 18.5376 103.712 18.6467 104.608 19.5741C105.159 20.1444 105.905 21.1605 106.266 21.8325C106.952 23.11 107.949 23.2414 107.735 22.0259C107.667 21.6387 107.17 20.3393 106.631 19.1379C105.871 17.4464 105.374 16.8394 104.424 16.4463C103.077 15.889 99.0317 15.8541 91.9288 16.339ZM107.863 25.87C108.411 27.0439 113.576 38.3629 119.34 51.0229C125.106 63.6828 130.648 75.8123 131.657 77.9775C132.667 80.1423 133.6 82.3379 133.731 82.8566C133.964 83.7747 133.908 83.8063 131.597 84.0498C127.406 84.492 123.186 85.9614 121.602 87.5304C121.162 87.9662 119.794 88.3323 117.444 88.6423C112.589 89.2823 105.939 90.8743 105.392 91.527C105.019 91.9721 104.689 91.3495 103.56 88.0672C102.802 85.866 96.8146 72.1197 90.2541 57.5199C78.9775 32.4257 77.3335 28.308 78.3433 27.6895C78.5468 27.5651 84.3431 26.7164 91.2245 25.8031C104.995 23.9762 105.785 23.8715 106.426 23.7909C106.668 23.7601 107.315 24.696 107.863 25.87ZM120.184 35.6423C120.518 36.201 120.79 37.0289 120.79 37.4819C120.79 38.1888 120.707 38.2367 120.201 37.8205C119.561 37.2948 118.166 34.7728 118.166 34.142C118.166 33.5105 119.508 34.5073 120.184 35.6423ZM82.9315 48.9776C83.1703 49.5482 83.3104 50.4923 83.243 51.0759C83.1287 52.0639 83.0533 51.9967 82.1418 50.0947C81.6039 48.9716 81.0345 47.6351 80.8771 47.1246L80.5911 46.1965L81.5443 47.0686C82.0687 47.5482 82.6931 48.4073 82.9315 48.9776ZM86.7225 56.8182C87.4271 57.5162 87.4864 57.8693 87.2675 60.0668C86.9118 63.6335 86.908 64.2527 87.2326 65.5948C87.5171 66.7706 87.4931 66.8014 86.2892 66.8014C85.3225 66.8014 84.7172 66.4539 83.5095 65.2054C81.861 63.5013 80.6841 61.4096 80.6841 60.1841C80.6841 58.6901 83.6725 56.105 85.4631 56.0494C85.7209 56.0416 86.2873 56.3872 86.7225 56.8182ZM93.5503 69.4578C94.1436 70.3897 93.4963 71.9686 92.1998 72.7516C90.7387 73.6341 89.3635 73.6961 89.0527 72.8934C88.6701 71.9055 89.9538 69.7789 91.2762 69.2109C92.6619 68.615 93.0398 68.6559 93.5503 69.4578ZM94.9274 70.6915C94.9274 71.3772 94.337 73.1589 93.6155 74.6499C92.1492 77.6805 92.027 78.8592 92.9119 81.4317C93.4191 82.906 93.4404 83.3485 93.0394 84.0906C92.1349 85.7647 91.178 85.6503 89.3702 83.6522C87.2412 81.2991 86.5898 79.7465 86.5845 77.0111C86.5793 74.4501 87.7589 70.9933 89.0059 69.9148L89.8155 69.2146L89.1854 70.1327C88.3912 71.29 88.3717 73.2424 89.1483 73.8806C89.6393 74.2845 90.0044 74.2764 91.2698 73.8335C93.0761 73.2012 94.3025 71.721 94.3025 70.1732C94.3025 69.5617 94.4431 69.1478 94.6151 69.2529C94.7868 69.3579 94.9274 70.0054 94.9274 70.6915ZM98.2153 76.8255C101.263 83.6689 101.2 83.3908 99.6809 83.2152C98.0362 83.0251 95.1414 84.3865 94.0173 85.8783C93.5383 86.5146 92.9314 87.6978 92.6687 88.5083L92.1915 89.9814L91.5918 89.1056C90.5367 87.566 88.8942 84.5339 89.0381 84.3914C89.1146 84.3156 89.5726 84.6706 90.0562 85.1803C91.1356 86.3186 91.8107 86.3464 92.9356 85.2998C93.9487 84.3568 94.039 83.0058 93.2586 80.459C92.9138 79.3333 92.8321 78.3406 93.0293 77.6745C93.4513 76.2489 95.6789 71.5053 95.8468 71.6753C95.9218 71.7514 96.9874 74.0688 98.2153 76.8255ZM99.7255 85.2204C99.9005 86.4352 98.0407 88.3991 96.845 88.2618C95.4161 88.0973 95.3247 86.5569 96.665 85.2293C97.9061 84.0001 99.5489 83.9952 99.7255 85.2204ZM103.311 88.8647C103.916 90.6731 104.165 96.19 103.695 97.4007C103.516 97.864 103.238 97.7022 102.383 96.6374C101.115 95.0562 101.003 93.6228 101.885 90.2146C102.207 88.9694 102.357 87.5779 102.218 87.1216C101.712 85.4636 102.7 87.0388 103.311 88.8647ZM124.448 90.0338C126.362 91.2764 124.309 94.2316 122.279 93.1553C121.309 92.6411 120.677 91.0573 120.975 89.8842C121.172 89.1075 121.355 89.0217 122.382 89.2252C123.031 89.354 123.961 89.7178 124.448 90.0338ZM99.6591 96.3946C99.2659 96.7837 96.6396 95.9483 95.6418 95.1163C93.2564 93.1282 93.804 92.8706 96.8217 94.5609C98.4687 95.4839 99.7453 96.3088 99.6591 96.3946ZM119.104 102.247C119.722 102.382 122.842 103.515 126.038 104.767L131.848 107.041L130.348 107.37C126.64 108.184 121.304 106.793 118.392 104.255C116.637 102.725 116.097 101.497 117.323 101.826C117.684 101.923 118.485 102.112 119.104 102.247Z" fill="black"/>
</svg>
