<svg width="200" height="200" viewBox="0 0 200 200" fill="none" xmlns="http://www.w3.org/2000/svg">
<path fill-rule="evenodd" clip-rule="evenodd" d="M200 125.445C186.945 165.048 149.645 193.634 105.669 193.634C50.8253 193.634 6.36576 149.175 6.36576 94.3311C6.36576 50.3552 34.951 13.0558 74.5541 0.000148184C31.5588 11.9312 0 51.3555 0 98.1507C0 154.401 45.5995 200 101.849 200C148.645 200 188.07 168.441 200 125.445Z" fill="#FBFBFB"/>
<path fill-rule="evenodd" clip-rule="evenodd" d="M196.132 108.96C185.183 142.176 153.899 166.151 117.016 166.151C71.0181 166.151 33.7296 128.863 33.7296 82.8648C33.7296 45.9804 57.7062 14.6961 90.9236 3.74744C54.8611 13.7528 28.3906 46.8192 28.3906 86.0681C28.3906 133.245 66.6353 171.49 113.812 171.49C153.06 171.49 186.126 145.021 196.132 108.96Z" fill="#8DD951"/>
<path fill-rule="evenodd" clip-rule="evenodd" d="M85.5842 10.4665C85.0463 11 85.0538 11.4146 85.6577 14.3548C86.0295 16.165 86.5504 18.4437 86.8158 19.4189C87.0807 20.3941 87.5563 22.1673 87.8721 23.3592C89.2781 28.6637 90.5469 33.1497 91.438 35.9682C91.7467 36.9435 91.9982 38.1051 91.997 38.5491C91.9958 38.9936 92.1551 39.5256 92.3506 39.7312C92.546 39.9373 92.894 40.9035 93.124 41.8787C93.9206 45.2563 94.4736 47.2013 94.8383 47.9074C95.0397 48.2971 95.3619 49.361 95.5542 50.2716C96.0233 52.4923 97.9211 58.7161 98.6001 60.2607C98.9004 60.9435 99.1459 61.8691 99.1459 62.3171C99.1459 63.0662 97.7122 66.2437 97.1671 66.7027C97.0388 66.8111 96.3146 68.1114 95.5578 69.5921C94.8013 71.0729 93.9583 72.4686 93.6846 72.6939C93.4109 72.9193 93.186 73.3035 93.1852 73.5478C93.184 73.7925 92.6485 74.7902 91.995 75.7654C90.771 77.5918 90.4603 78.9177 91.2561 78.9177C91.5056 78.9177 92.4439 78.5469 93.3418 78.0938C95.2276 77.1422 97.3788 74.6424 99.2341 71.2471C100.372 69.1638 100.531 68.5125 100.518 65.9781L100.503 63.0867L105.486 63.3424C108.226 63.4827 110.826 63.7557 111.263 63.9488C111.7 64.1419 114.113 64.4847 116.626 64.7101C124.49 65.4162 130.316 66.1014 130.729 66.369C130.948 66.5104 133.004 66.7543 135.298 66.9107C137.592 67.0672 139.648 67.306 139.866 67.4415C140.085 67.5771 142.051 67.9041 144.236 68.1689C146.421 68.4333 150.086 68.9203 152.381 69.2509C154.675 69.5815 158.25 70.0744 160.326 70.3459C162.402 70.6178 164.279 70.9547 164.497 71.0946C164.716 71.2345 166.459 71.4772 168.371 71.6336C170.283 71.79 171.847 72.0745 171.847 72.2656C171.847 72.4567 172.377 72.6132 173.025 72.6132C174.787 72.6132 175.158 73.6266 174.657 77.063C173.193 87.0958 172.31 98.3639 171.856 112.804C171.545 122.669 171.102 126.478 170.118 127.72C169.799 128.122 169.059 128.189 167.096 127.99C165.667 127.846 162.978 127.606 161.121 127.457L157.744 127.187L157.853 125.138C157.913 124.011 158.405 121.745 158.946 120.102C160.049 116.749 160.173 114.124 159.474 108.909C159.21 106.94 159.14 104.398 159.307 102.855C159.572 100.403 159.668 100.195 160.533 100.195C161.049 100.195 161.581 100.373 161.716 100.589C161.852 100.806 163.022 100.983 164.318 100.983C166.825 100.983 168.271 100.24 168.271 98.9514C168.271 98.5802 168.483 97.7772 168.741 97.1673C169.483 95.415 170.239 90.6188 170.722 84.6012C171.19 78.7691 170.99 76.1595 170.074 76.1595C169.775 76.1595 169.47 75.9908 169.397 75.7847C169.324 75.5783 168.013 75.2859 166.484 75.135C164.954 74.9837 163.613 74.7335 163.504 74.5786C163.395 74.4238 161.518 74.0888 159.333 73.8347C152.327 73.0186 147.017 72.32 147.017 72.2136C147.017 72.1565 144.872 71.8629 142.25 71.5611C139.628 71.2593 135.516 70.7857 133.113 70.5086C130.709 70.2313 128.475 69.8936 128.147 69.7584C127.588 69.5271 125.564 69.3096 113.646 68.1984C111.024 67.9541 108.79 67.6334 108.68 67.4852C108.571 67.3375 106.974 67.1038 105.132 66.9663C102.478 66.7681 101.883 66.8174 102.267 67.2019C102.54 67.4746 104.97 67.9013 107.802 68.1744C118.133 69.1705 122.397 69.6646 122.784 69.9117C123.002 70.0516 125.147 70.2943 127.551 70.4511C129.954 70.6083 132.1 70.8487 132.318 70.9854C132.537 71.1222 134.682 71.4524 137.086 71.7191C147.777 72.9059 150.22 73.22 150.593 73.4552C150.811 73.5931 152.688 73.8343 154.764 73.9915C156.84 74.1483 158.717 74.4147 158.936 74.5833C159.154 74.752 160.809 75.0168 162.613 75.172C164.416 75.3269 165.991 75.6125 166.112 75.8068C166.233 76.0007 166.813 76.1618 167.401 76.165C171.039 76.1831 171.162 77.0476 169.472 90.7386C169.134 93.4803 168.2 97.2248 167.383 99.1212L166.881 100.286L163.596 100.062C161.789 99.9393 160.136 99.7312 159.921 99.5996C159.707 99.4684 159.531 98.055 159.531 96.4588C159.531 93.0898 158.809 89.5593 158.062 89.2748C157.777 89.1664 157.103 89.1869 156.565 89.3209C155.315 89.6322 154.682 91.7907 154.845 95.1837L154.963 97.6342L156.328 97.763C157.533 97.8769 157.632 97.819 157.173 97.2705C156.887 96.9289 156.318 96.6491 155.908 96.6491C155.321 96.6491 155.161 96.3567 155.161 95.2822C155.161 94.2294 155.298 93.9677 155.757 94.1423C156.085 94.2672 156.353 94.5276 156.353 94.7211C156.353 94.9146 156.711 95.073 157.148 95.073C157.585 95.073 157.942 94.8957 157.942 94.6789C157.942 94.4622 158.121 94.2849 158.34 94.2849C158.592 94.2849 158.737 97.3394 158.737 102.661C158.737 107.282 158.921 111.653 159.148 112.413C159.609 113.957 159.085 117.942 158.111 120.291C157.208 122.47 156.668 128.422 156.49 138.162C156.367 144.853 156.448 147.315 156.807 147.744C157.213 148.229 157.406 148.082 158.029 146.816C159.374 144.082 159.416 133.469 158.1 129.011L157.825 128.077L164.161 128.362L170.497 128.648L171.177 127.129C171.881 125.558 172.204 121.192 173.025 102.166C173.369 94.1884 173.544 92.13 174.665 82.858C174.914 80.7992 175.204 77.7833 175.308 76.1559C175.543 72.4902 175.057 71.8878 171.59 71.5505C170.311 71.426 169.086 71.1868 168.867 71.0185C168.649 70.8503 166.951 70.5859 165.093 70.431C163.236 70.2762 161.538 70.0126 161.319 69.8451C161.101 69.6776 159.313 69.4128 157.346 69.2568C155.38 69.1008 153.592 68.8352 153.374 68.6662C153.155 68.4975 151.231 68.2311 149.097 68.0747C146.963 67.9183 145.13 67.6492 145.022 67.4766C144.915 67.304 142.861 67.0364 140.46 66.882C138.058 66.7275 136.092 66.4643 136.092 66.2968C136.092 66.1294 134.034 65.865 131.517 65.709C129.001 65.5529 126.857 65.2869 126.751 65.1179C126.646 64.9489 124.5 64.6829 121.984 64.5269C119.467 64.3708 117.322 64.1052 117.217 63.9366C117.112 63.768 114.746 63.5028 111.959 63.3475C109.173 63.1919 106.706 62.9161 106.477 62.7348C106.248 62.5532 104.639 62.3518 102.901 62.288L99.7418 62.1713L99.3172 60.5952C99.084 59.7283 98.6815 58.5198 98.4233 57.9099C98.1655 57.2999 97.9541 56.558 97.9541 56.2616C97.9541 55.9649 97.4126 53.9818 96.7512 51.8544C95.1934 46.8459 94.6238 44.9632 93.7931 42.0757C93.4188 40.7754 92.8797 38.9136 92.5953 37.9384C92.3104 36.9632 91.7848 35.1014 91.4269 33.8011C91.069 32.5008 90.514 30.5345 90.1938 29.432C89.8736 28.3295 89.6114 27.0793 89.6114 26.6541C89.6114 26.229 89.4465 25.7128 89.2447 25.5067C89.0429 25.301 88.6956 24.2458 88.4728 23.1622C88.0362 21.0384 87.4772 18.829 86.5623 15.6114C86.2441 14.4927 86.0403 12.8969 86.109 12.0651L86.2345 10.5532L90.4059 10.5902C96.1549 10.6411 115.636 11.4792 122.386 11.9658C125.445 12.1865 132.507 12.5312 138.079 12.7318C158.187 13.4568 168.55 13.9233 172.84 14.2977C185.928 15.4388 184.965 15.018 184.25 19.2798C183.801 21.9541 183.025 27.3977 182.713 30.0578C182.559 31.3687 181.96 35.2062 180.96 41.2877C180.711 42.8047 180.43 44.6665 180.337 45.425C180.16 46.8628 179.453 51.0919 178.415 56.9228C178.08 58.8035 177.807 60.754 177.809 61.2572C177.81 61.76 177.514 63.7092 177.151 65.5892C176.603 68.4282 176.35 69.0444 175.659 69.2292C174.599 69.5118 168.6 69.0594 168.073 68.6571C167.854 68.49 165.665 68.2252 163.206 68.0684C160.748 67.9116 158.737 67.6503 158.737 67.4872C158.737 67.3245 156.681 67.0636 154.167 66.908C151.654 66.7523 149.512 66.4864 149.407 66.3173C149.301 66.1483 147.156 65.8823 144.639 65.7263C142.123 65.5703 139.975 65.3003 139.866 65.1266C139.758 64.9528 137.61 64.6829 135.094 64.5269C132.577 64.3708 130.433 64.1068 130.329 63.9401C130.225 63.7735 128.127 63.5095 125.667 63.353C123.208 63.197 121.016 62.9326 120.797 62.7651C120.579 62.5977 118.445 62.3321 116.055 62.1745C113.665 62.0173 111.43 61.7383 111.089 61.5547C110.747 61.3711 108.559 61.1082 106.226 60.9707C103.004 60.7804 101.844 60.5633 101.401 60.0668C100.877 59.4805 100.031 56.8038 99.1372 52.9116C98.8269 51.5597 98.0073 48.1592 96.953 43.8489C96.28 41.0981 95.2642 36.8426 94.5538 33.8011C93.1336 27.718 92.8618 26.5919 92.4141 24.9354C92.1507 23.9601 91.6939 22.187 91.3991 20.995C91.1043 19.8031 90.6625 18.0705 90.4174 17.145C90.1723 16.2198 90.0905 15.2721 90.2355 15.0396C90.5449 14.5424 108.113 14.8537 116.626 15.507C119.576 15.7335 127.352 16.0799 133.907 16.2773C151.344 16.8021 165.483 17.4097 170.456 17.8479C172.86 18.0595 176.012 18.3341 177.46 18.4583C179.945 18.6706 180.133 18.7573 180.808 19.9997C181.492 21.2598 181.493 21.4986 180.837 25.5883C180.459 27.9383 179.882 31.5452 179.554 33.604C179.226 35.6629 178.706 38.7659 178.398 40.4996C178.091 42.2333 177.737 44.3611 177.611 45.228C177.485 46.0948 177.216 47.602 177.012 48.5772C176.808 49.5525 176.44 51.4143 176.194 52.7146C175.793 54.8356 175.14 58.0494 174.433 61.3833C174.295 62.0334 174.097 62.9791 173.992 63.485C173.775 64.5308 174.279 64.5371 162.908 63.3534C159.631 63.0122 154.446 62.5181 151.387 62.2553C148.328 61.9924 145.647 61.6642 145.428 61.5263C145.21 61.388 142.618 61.1465 139.668 60.9892C136.718 60.832 134.126 60.5905 133.907 60.4522C133.689 60.3143 131.007 59.9821 127.948 59.7142C116.022 58.67 111.239 58.181 110.667 57.9481C110.339 57.8149 108.497 57.6104 106.574 57.4934C103.55 57.3102 102.976 57.1589 102.335 56.3771C101.526 55.3904 100.984 52.7496 101.288 51.2783C101.393 50.7681 101.584 49.863 101.711 49.2668C102.041 47.7198 102.901 47.918 104.821 49.9831C109.385 54.8908 109.883 55.2978 110.751 54.8368C111.516 54.431 111.554 54.1725 111.311 51.0328C111.167 49.1805 110.798 46.7619 110.491 45.6583C109.81 43.2133 109.316 38.5129 109.679 37.9301C109.951 37.4935 110.662 38.1449 112.737 40.7325C114.165 42.5123 118.215 48.1844 118.215 48.4043C118.215 48.4992 118.528 48.9051 118.91 49.3054C119.292 49.7061 120.404 50.9473 121.379 52.0636C122.355 53.1803 123.383 54.0937 123.664 54.0937C123.945 54.0937 124.174 54.271 124.174 54.4877C124.174 55.0535 126.521 54.9747 127.11 54.3892C128.21 53.2938 128.63 50.1912 128.804 41.8787C128.983 33.3282 129.264 31.6303 130.498 31.6378C131.782 31.6457 136.432 37.7303 138.928 42.6668C139.422 43.642 140.058 44.6744 140.342 44.9604C140.627 45.2469 140.86 45.6583 140.86 45.8746C140.86 46.0909 141.396 47.0413 142.051 47.9862C142.707 48.9311 143.243 49.8941 143.243 50.1258C143.243 50.3579 143.41 50.5474 143.614 50.5474C143.818 50.5474 144.085 50.8575 144.207 51.237C144.519 52.2027 147.004 54.8983 148.095 55.4547C150.36 56.6096 151.92 51.7185 151.437 44.9683C150.812 36.222 150.685 28.6266 151.149 27.7665C151.668 26.8054 152.778 26.599 152.778 27.4639C152.778 27.7708 152.924 28.0809 153.103 28.1534C153.574 28.3433 158.737 39.0886 158.737 39.8778C158.737 40.0764 158.995 40.7407 159.31 41.3543C159.624 41.9678 160.792 44.3316 161.905 46.6071C164.669 52.2599 165.446 53.3608 167.391 54.3754C170.214 55.8479 172.68 48.4815 173.223 36.9533C173.346 34.3527 173.556 30.4963 173.691 28.3831C173.865 25.6489 173.806 24.5413 173.487 24.5413C173.183 24.5413 173.034 25.9019 173.024 28.7772C173.005 34.7999 171.857 46.0704 170.929 49.3653C169.093 55.881 166.729 54.9992 162.377 46.1744C161.03 43.4442 159.929 40.9531 159.929 40.6383C159.929 40.3235 159.769 39.8979 159.574 39.6918C159.379 39.4861 158.552 37.7217 157.737 35.7712C155.192 29.685 154.097 27.6991 152.612 26.4737C151.919 25.9023 151.783 25.9015 151.122 26.4626C150.444 27.0383 150.393 27.9828 150.381 40.2915C150.368 53.9841 150.266 54.8817 148.716 54.8817C148.388 54.8817 147.648 54.4144 147.072 53.8435C145.958 52.7382 142.581 47.8203 142.161 46.691C142.024 46.3198 141.807 45.9274 141.68 45.819C141.332 45.5231 138.476 40.8117 138.476 40.5347C138.476 40.0122 133.674 33.1403 132.652 32.2013C131.882 31.4936 131.211 31.2359 130.353 31.3191C128.39 31.5098 128.041 33.156 127.778 43.4548C127.53 53.1622 127.324 54.0937 125.43 54.0937C124.216 54.0937 121.63 51.8371 119.899 49.2668C119.352 48.4543 118.749 47.7892 118.559 47.7892C118.37 47.7892 118.215 47.5378 118.215 47.2308C118.215 46.9239 118.081 46.6138 117.917 46.5413C117.753 46.4692 116.659 45.0207 115.486 43.3228C111.127 37.0132 109.026 35.6432 108.744 38.9266C108.62 40.3774 108.975 42.3933 110.492 48.8389C110.807 50.1746 111.064 51.9037 111.064 52.6807C111.064 54.5898 109.934 54.5791 108.194 52.6535C107.478 51.8611 105.944 50.2519 104.785 49.0773C102.437 46.6981 101.99 46.7221 100.911 49.2837C100.145 51.1026 100.188 53.5279 101.021 55.5276C101.901 57.6384 102.88 57.9804 110.071 58.6912C113.13 58.9935 118.225 59.5081 121.393 59.8343C124.561 60.1606 129.746 60.6626 132.914 60.9494C136.082 61.2363 138.675 61.5216 138.675 61.5834C138.675 61.6453 141.267 61.9322 144.435 62.221C147.603 62.5094 152.788 63.0102 155.956 63.3337C159.124 63.6572 163.594 64.1115 165.888 64.3428C168.182 64.5745 171.029 64.7124 172.213 64.6498L174.367 64.5355L174.854 62.5654C175.492 59.9829 176.422 55.5004 177.186 51.3355C177.523 49.4934 177.983 47.011 178.207 45.819C178.431 44.6271 178.788 42.4106 179 40.8936C179.212 39.3766 179.558 37.3375 179.768 36.3623C180.374 33.5544 181.359 26.969 181.634 23.892C182.163 17.9736 181.635 17.686 169.066 17.0476C154.857 16.3262 135.434 15.5495 120.599 15.1098C113.06 14.8864 105.683 14.5235 104.204 14.3028C102.725 14.0825 98.8201 13.9025 95.5264 13.9025H89.5379L89.7377 15.9711C89.9439 18.1001 90.9355 22.6149 91.3395 23.2635C91.4646 23.4644 91.7459 24.5878 91.9648 25.7597C92.399 28.0868 93.4351 32.4956 94.9658 38.5294C96.2371 43.5392 96.4826 44.5294 96.775 45.819C97.0841 47.1828 97.9156 50.679 98.9306 54.8817C99.6572 57.8914 100.667 60.5054 101.243 60.8687C101.51 61.0365 102.388 61.1768 103.195 61.1803C104.001 61.1835 104.759 61.3439 104.879 61.5366C104.999 61.7292 107.289 62.0153 109.968 62.1721C112.646 62.3289 115.017 62.5701 115.235 62.7084C115.454 62.8463 117.689 63.1797 120.201 63.4488C128.835 64.3732 134.305 65.0253 134.305 65.1305C134.305 65.2318 138.728 65.7673 148.11 66.8012C150.568 67.0723 152.758 67.408 152.976 67.5475C153.195 67.6874 155.34 67.9297 157.744 68.0865C160.147 68.243 162.293 68.5097 162.511 68.6788C162.73 68.8478 164.833 69.1142 167.185 69.271C169.537 69.4278 171.559 69.7119 171.678 69.9026C171.796 70.0929 172.751 70.249 173.799 70.249C176.676 70.249 177.613 69.204 177.912 65.6593C178.041 64.1332 178.336 61.8372 178.566 60.5578C178.797 59.278 179.253 56.5465 179.579 54.4877C179.906 52.4289 180.376 49.5919 180.623 48.1832C180.871 46.7745 181.214 44.3698 181.387 42.8394C181.559 41.3089 181.896 39.3585 182.135 38.505C182.373 37.6515 182.569 36.4214 182.569 35.7712C182.568 35.1211 182.829 33.082 183.147 31.2399C185.079 20.0746 185.471 15.2028 184.46 14.9218C180.618 13.8524 181.745 13.9316 150.394 12.5265C143.73 12.2278 133.004 11.7979 126.558 11.5718C120.112 11.3456 113.319 10.9862 111.461 10.7731C109.604 10.5599 103.158 10.2695 97.1353 10.1276C87.6465 9.90383 86.1058 9.94915 85.5842 10.4665ZM99.9405 66.0853C99.9405 67.0207 99.6795 68.5192 99.3604 69.4156C98.7808 71.0461 96.4969 74.6641 95.8914 74.9116C95.7151 74.9841 95.5705 75.2942 95.5705 75.6011C95.5705 75.9085 95.4191 76.1595 95.234 76.1595C95.0488 76.1595 94.4851 76.5141 93.9814 76.9475C92.9576 77.8282 91.3645 78.0484 91.8444 77.243C92.0057 76.9723 92.5865 76.0413 93.1348 75.1744C94.4172 73.1479 95.9614 70.3834 97.8039 66.8166C98.6112 65.2535 99.422 64.067 99.606 64.1801C99.7899 64.2928 99.9405 65.1502 99.9405 66.0853ZM101.53 76.9475C101.53 77.1642 101.328 77.3416 101.081 77.3416C100.834 77.3416 99.4486 78.4906 98.0018 79.8949C94.1311 83.6528 94.1383 83.6461 93.8157 83.6461C93.2246 83.6461 90.9823 86.2821 90.1135 87.9989C88.8732 90.449 89.0103 89.1889 90.4139 85.2411C91.065 83.4092 91.5977 81.5991 91.5977 81.2176C91.5977 80.4256 89.9717 78.7644 89.6352 79.2128C89.5128 79.3755 89.0671 79.6979 88.6448 79.9292C88.2225 80.1604 87.6862 80.6924 87.453 81.1112C87.2198 81.5301 86.8058 82.0148 86.5325 82.1881C86.2596 82.3615 86.0359 82.7477 86.0359 83.0463C86.0359 83.3454 85.8126 83.8269 85.5393 84.1165C85.2664 84.4061 84.709 85.3499 84.3014 86.2132C83.8938 87.0769 83.3126 88.2539 83.0103 88.8291C82.7079 89.4044 82.4604 90.5018 82.4604 91.2674C82.4604 92.2293 81.4982 94.5257 79.3486 98.6933C73.5937 109.851 73.3164 110.237 70.7818 110.612C69.7119 110.77 68.5499 111.051 68.1995 111.237C67.8491 111.421 66.6688 111.983 65.5763 112.484C63.5026 113.435 63.0103 113.854 63 114.676C62.9929 115.254 67.579 115.386 67.9329 114.818C68.0529 114.626 68.5928 114.358 69.1327 114.223C70.4346 113.899 77.6932 107.159 77.6932 106.275C77.6932 105.996 77.918 105.534 78.1925 105.247C79.8782 103.49 81.6893 98.6492 83.1791 91.9207L83.9204 88.5714L85.6263 88.4477C87.2635 88.3291 87.298 88.3004 86.4848 87.7353C86.0184 87.4114 85.4587 87.2562 85.2406 87.3898C84.5564 87.809 84.8067 86.5978 85.7773 84.7915C86.6024 83.256 86.8499 83.0688 87.9182 83.1728C88.8383 83.2627 89.3253 83.0389 89.9645 82.2331C91.2128 80.6589 91.0694 82.0069 89.6102 85.5587C88.9273 87.2207 88.4255 89.1526 88.4338 90.09L88.4482 91.7237L89.4318 90.5416C89.9733 89.8915 90.7873 88.6057 91.241 87.6849C92.1086 85.9236 92.1797 85.8849 94.3588 86.0075C95.5717 86.0753 95.669 86.0118 95.2042 85.4562C94.915 85.1107 94.3961 84.8282 94.0505 84.8282C93.5849 84.8282 93.6576 84.65 94.331 84.1386C94.8307 83.7595 95.8732 82.8749 96.6475 82.1732C97.7646 81.1605 98.3684 80.9095 99.5746 80.9564C100.41 80.9891 101.375 80.7842 101.719 80.5017C102.062 80.2188 102.446 80.0895 102.572 80.2144C102.926 80.5655 102.344 81.2819 101.705 81.2819C101.39 81.2819 101.132 81.4474 101.132 81.6495C101.132 81.8516 100.766 82.1322 100.318 82.2732C98.8221 82.7441 95.843 86.1844 94.1812 89.3595C93.9543 89.793 93.3696 90.3225 92.8817 90.5365C92.3943 90.7505 91.995 91.0609 91.995 91.226C91.995 91.3915 91.728 91.5267 91.4023 91.5267C90.7329 91.5267 88.7664 93.5686 88.3329 94.7132C87.9337 95.7688 88.6913 95.6581 89.2411 94.5804C89.8287 93.4291 91.9489 91.5267 92.6449 91.5267C92.9429 91.5267 93.1868 91.3494 93.1868 91.1327C93.1868 90.9159 93.3906 90.7386 93.6397 90.7386C94.2042 90.7386 95.0234 89.7248 95.7194 88.1644C96.0126 87.5068 96.7841 86.3921 97.4337 85.6864C98.5158 84.511 98.7538 84.4254 100.271 84.6662C101.675 84.8888 101.927 84.8258 101.927 84.2505C101.927 83.8773 101.569 83.4794 101.132 83.3663C100.695 83.2528 100.344 83.0479 100.352 82.9104C100.371 82.5841 105.551 80.0923 106.203 80.0966C106.479 80.0982 107.066 80.3216 107.506 80.5923C108.067 80.9367 108.393 80.9576 108.593 80.6621C108.75 80.4296 109.183 80.1281 109.554 79.9926C110.917 79.4945 109.838 80.7259 108.075 81.681C107.097 82.211 106.297 82.7812 106.297 82.9482C106.297 83.1153 106.017 83.252 105.674 83.252C104.9 83.252 102.618 85.6127 101.755 87.3058C100.87 89.0419 100.222 90.0554 99.6898 90.5325C98.9819 91.1673 97.8306 93.1028 98.1607 93.1028C98.7498 93.1028 100.956 90.3426 101.389 89.064C101.517 88.6849 101.778 88.3744 101.968 88.3744C102.158 88.3744 102.58 87.7424 102.905 86.9697C103.49 85.5823 103.519 85.5685 105.299 85.8333C106.825 86.0599 107.066 86.0083 106.867 85.4952C106.738 85.1619 106.378 84.7923 106.068 84.6741C105.182 84.3372 105.404 83.6855 106.495 83.414C107.042 83.278 107.489 83.0085 107.489 82.8154C107.489 82.622 107.744 82.464 108.056 82.464C108.368 82.464 108.903 82.187 109.244 81.8489C109.585 81.5104 110.268 81.2464 110.762 81.2626C113.275 81.3437 113.975 81.2712 114.449 80.8811C115.536 79.9867 115.454 81.2925 114.362 82.265C110.363 85.8282 108.742 87.5111 108.479 88.3744C108.313 88.9162 107.211 91.36 106.029 93.8054C104.291 97.4017 103.841 98.7572 103.673 100.898C103.559 102.353 103.392 103.911 103.303 104.359C103.106 105.346 101.981 106.659 101.033 107.007C100.651 107.148 100.338 107.446 100.338 107.67C100.338 108.166 101.795 108.213 102.098 107.727C102.217 107.535 102.943 107.26 103.71 107.118C104.477 106.975 105.105 106.689 105.105 106.482C105.105 106.275 105.298 106.106 105.535 106.106C105.771 106.106 106.797 105.441 107.815 104.628C108.833 103.816 109.846 103.014 110.067 102.848C110.287 102.681 110.857 102.229 111.332 101.842C111.807 101.456 112.88 100.794 113.716 100.372C114.552 99.9499 115.295 99.4704 115.369 99.3064C115.442 99.1425 115.678 99.1165 115.895 99.2489C116.113 99.3829 115.922 99.7434 115.463 100.062C113.804 101.215 114.862 104.53 116.89 104.53C117.407 104.53 117.352 104.693 116.626 105.318C116.122 105.751 115.484 106.106 115.208 106.106C114.932 106.106 114.646 106.239 114.573 106.401C114.408 106.77 111.986 108.47 111.625 108.47C111.48 108.47 109.901 109.957 108.118 111.774C104.961 114.99 102.463 116.745 101.039 116.745C100.653 116.745 100.338 116.902 100.338 117.093C100.338 117.285 99.3573 117.563 98.1591 117.712C96.9605 117.861 95.8775 118.147 95.752 118.348C95.6265 118.55 95.2212 118.716 94.8518 118.717C94.4823 118.719 93.7005 118.968 93.1141 119.271C92.5281 119.575 91.5 119.942 90.8298 120.088C90.1596 120.234 89.6114 120.503 89.6114 120.685C89.6114 120.867 89.075 121.133 88.4195 121.276C87.764 121.419 87.2277 121.685 87.2277 121.867C87.2277 122.05 86.6914 122.316 86.0359 122.458C85.3804 122.601 84.8441 122.881 84.8441 123.08C84.8441 123.28 84.5584 123.443 84.2088 123.443C83.8596 123.443 82.9209 123.725 82.1232 124.07C79.0757 125.388 77.0794 126.365 76.6146 126.768C75.2964 127.91 74.9162 128.172 74.5742 128.172C74.2683 128.172 73.7204 129.054 73.7204 129.546C73.7204 129.617 74.078 129.581 74.515 129.468C74.952 129.355 75.3095 129.119 75.3095 128.945C75.3095 128.771 75.8458 128.511 76.5013 128.369C77.1568 128.226 77.6932 127.949 77.6932 127.754C77.6932 127.559 78.1401 127.287 78.6863 127.151C79.2326 127.016 79.6795 126.758 79.6795 126.579C79.6795 126.401 80.082 126.128 80.5734 125.973C81.0648 125.819 82.1577 125.26 83.0019 124.732C83.9077 124.165 85.4134 123.681 86.6767 123.552C87.8538 123.431 88.8168 123.201 88.8168 123.039C88.8168 122.878 89.8001 122.624 91.0018 122.475C92.2036 122.326 93.1868 122.04 93.1868 121.839C93.1868 121.638 93.4999 121.467 93.882 121.46C94.2642 121.452 95.2924 121.104 96.1664 120.685C97.0404 120.266 98.0685 119.918 98.4507 119.91C98.8329 119.903 99.1459 119.734 99.1459 119.534C99.1459 119.335 99.6822 119.055 100.338 118.912C100.993 118.769 101.53 118.497 101.53 118.307C101.53 118.118 102.157 117.846 102.924 117.703C103.692 117.56 104.417 117.286 104.537 117.094C104.818 116.643 109.758 116.636 110.039 117.087C110.156 117.275 111.503 117.552 113.033 117.701C114.562 117.85 115.904 118.119 116.015 118.297C116.127 118.476 117.38 118.745 118.801 118.896C120.222 119.047 121.476 119.317 121.587 119.495C121.698 119.674 122.875 119.944 124.202 120.097C126.451 120.356 126.694 120.486 127.791 122.007C128.439 122.905 129.231 123.953 129.551 124.334C129.871 124.716 130.133 125.204 130.133 125.418C130.133 125.632 130.287 125.807 130.474 125.807C130.907 125.807 133.704 129.961 133.721 130.628C133.728 130.903 133.996 131.471 134.317 131.892C134.894 132.648 134.901 132.648 134.901 131.883C134.901 130.996 132.358 126.576 131.027 125.149C130.536 124.622 130.133 124.022 130.133 123.817C130.133 123.611 129.993 123.443 129.822 123.443C129.65 123.443 129.187 122.9 128.791 122.236L128.073 121.029L129.599 121.308C130.439 121.461 131.186 121.738 131.259 121.923C131.332 122.109 131.618 122.261 131.896 122.261C132.572 122.261 134.108 123.708 135.464 125.623C136.482 127.06 136.552 127.097 136.318 126.077C136.06 124.948 133.878 122.261 133.219 122.261C133.02 122.261 132.589 121.995 132.261 121.67C131.934 121.345 131.331 121.079 130.923 121.079C130.514 121.079 130.07 120.902 129.935 120.685C129.8 120.468 129.263 120.291 128.742 120.291C127.639 120.291 126.558 118.957 126.558 117.595C126.558 116.575 125.571 110.948 124.888 108.076C123.866 103.776 123.872 103.618 125.101 102.589C126.254 101.623 126.372 100.568 125.556 98.5208C125.391 98.1058 125.463 97.8312 125.737 97.8312C126.981 97.8312 128.941 101.19 128.941 103.321C128.941 104 129.21 105.192 129.537 105.97C130.244 107.648 130.3 108.935 129.692 109.538C129.191 110.035 128.127 114.229 128.426 114.526C128.827 114.924 129.745 114.263 130.523 113.014C131.083 112.115 131.329 111.027 131.339 109.409C131.347 108.134 131.609 106.648 131.921 106.106C132.339 105.382 132.494 103.608 132.508 99.4073C132.533 92.1079 132.584 91.9207 134.526 91.9207C135.362 91.9207 136.168 91.7237 136.318 91.4826C136.761 90.7733 135.61 90.3005 134.007 90.5325C132.592 90.737 132.517 90.6933 132.522 89.6598C132.534 87.2877 132.855 86.8657 134.484 87.082C135.734 87.2483 136.093 87.1281 136.634 86.3613C137.277 85.4503 137.284 85.4594 137.284 87.2057C137.284 88.1766 137.47 89.59 137.697 90.3474C137.924 91.1043 138.282 93.7549 138.494 96.2377C138.705 98.7205 139.043 100.915 139.244 101.115C140.203 102.065 140.984 94.7778 140.269 91.5511C140.004 90.356 140.017 90.3446 141.656 90.3446C143.618 90.3446 143.701 89.4304 141.757 89.2385C141.082 89.172 140.425 88.8477 140.298 88.5179C139.99 87.7211 140.47 84.8282 140.91 84.8282C141.101 84.8282 141.257 85.0173 141.257 85.2482C141.257 86.0902 143.418 85.4306 143.923 84.4341C144.366 83.5613 144.424 83.8104 144.429 86.6178C144.438 91.2453 145.534 98.9333 146.343 100.038C147.251 101.277 147.723 101.219 147.463 99.8999C147.346 99.3041 147.132 97.4427 146.988 95.7637L146.726 92.7112L148.614 92.9677C150.135 93.1745 150.465 93.117 150.316 92.671C150.215 92.3668 149.386 91.9597 148.475 91.7663L146.819 91.4148V88.7125V86.0102H148.408C149.379 86.0102 149.997 85.8262 149.997 85.5374C149.997 85.1922 150.115 85.182 150.436 85.5004C150.678 85.7399 151.112 88.036 151.4 90.6031C151.967 95.6396 153.003 101.571 153.438 102.269C153.587 102.507 154.03 101.739 154.423 100.562C155.266 98.0436 155.291 97.8312 154.754 97.8312C154.53 97.8312 154.237 98.3742 154.104 99.0377C153.585 101.611 153.069 99.3234 151.83 88.9655C151.57 86.7983 151.061 84.3604 150.698 83.5475C150.112 82.237 149.877 82.0699 148.614 82.0699C146.605 82.0699 146.493 82.5219 146.451 90.8371C146.433 94.4295 146.27 96.6491 146.024 96.6491C145.799 96.6491 145.624 95.4954 145.621 93.9894C145.61 89.7914 144.919 82.5735 144.443 81.6913C143.765 80.4335 141.547 80.5959 140.613 81.9714C139.985 82.8966 139.848 84.1205 139.673 90.3446L139.469 97.6342L138.948 93.8909C138.075 87.627 137.219 83.5251 136.67 82.9809C135.658 81.9769 134.231 82.3682 133.267 83.914C132.505 85.1375 132.337 86.0575 132.192 89.813L132.021 94.2625L129.587 94.0225C128.249 93.8905 126.975 93.6478 126.756 93.4827C126.538 93.3176 124.792 93.0547 122.877 92.8987C120.962 92.7423 119.308 92.4743 119.201 92.3029C119.094 92.1315 117.485 91.8656 115.625 91.7119C113.766 91.5582 112.147 91.2765 112.028 91.0854C111.909 90.8947 111.107 90.7386 110.246 90.7386C109.077 90.7386 108.68 90.579 108.68 90.1097C108.68 89.3036 109.893 87.1289 110.667 86.5477C112.62 85.0803 115.825 81.7118 115.885 81.062C116.064 79.1596 115.881 78.9177 114.266 78.9177C113.404 78.9177 112.59 79.095 112.455 79.3117C111.97 80.0887 111.115 79.6852 110.991 78.6222C110.879 77.6524 110.714 77.5429 109.421 77.5796C108.449 77.6071 107.605 77.9618 106.843 78.6631C106.219 79.2365 105.498 79.7057 105.241 79.7057C104.983 79.7057 104.52 79.8019 104.211 79.9197C103.781 80.0832 103.69 79.8507 103.827 78.9311C103.924 78.2695 103.783 77.4641 103.513 77.141C102.961 76.4806 101.53 76.3411 101.53 76.9475ZM103.305 77.7159C103.433 77.9216 103.135 78.3042 102.642 78.5662C102.148 78.8278 101.505 79.2802 101.211 79.571C100.578 80.1995 100.078 80.2456 99.7422 79.7065C99.4312 79.2073 101.507 77.3707 102.4 77.3542C102.769 77.3471 103.177 77.5098 103.305 77.7159ZM110.27 78.1009C110.27 78.3991 108.118 79.7057 107.626 79.7057C107.551 79.7057 107.489 79.4398 107.489 79.1147C107.489 78.7865 107.842 78.5237 108.283 78.5237C108.72 78.5237 109.078 78.3463 109.078 78.1296C109.078 77.9129 109.346 77.7356 109.674 77.7356C110.001 77.7356 110.27 77.8999 110.27 78.1009ZM114.342 79.9666C114.069 80.0761 113.622 80.0761 113.348 79.9666C113.076 79.8574 113.299 79.768 113.845 79.768C114.391 79.768 114.615 79.8574 114.342 79.9666ZM90.4035 80.3953C90.4019 80.558 89.8656 80.993 89.2117 81.3619C87.9953 82.0483 87.6286 81.6921 88.5189 80.6892C89.0405 80.1017 90.4079 79.8882 90.4035 80.3953ZM143.243 83.5188C143.243 84.708 143.129 84.8668 142.349 84.7572C141.697 84.665 141.42 84.3238 141.324 83.492C141.252 82.8651 141.415 82.2165 141.686 82.0506C142.583 81.5005 143.243 82.1227 143.243 83.5188ZM136.296 83.6539C136.434 83.8746 136.337 84.6827 136.082 85.4491C135.718 86.5445 135.435 86.8172 134.763 86.7223C134.153 86.636 133.87 86.2766 133.777 85.4696C133.599 83.929 134.255 83.343 135.155 84.2363C135.662 84.7395 135.904 84.7966 136.024 84.4412C136.115 84.1705 135.944 83.795 135.644 83.6067C135.284 83.3801 135.26 83.2619 135.572 83.2579C135.833 83.2548 136.158 83.4329 136.296 83.6539ZM149.346 83.8431C149.472 84.1682 149.472 84.7001 149.346 85.0252C148.863 86.2723 147.158 85.3282 147.507 84.007C147.743 83.1121 149.019 82.9987 149.346 83.8431ZM157.744 92.3203C157.744 93.6289 157.589 94.0879 157.148 94.0879C156.717 94.0879 156.518 93.5595 156.43 92.1828C156.323 90.5235 156.4 90.2957 157.025 90.4151C157.591 90.5231 157.744 90.9282 157.744 92.3203ZM134.901 91.1327C134.901 91.3494 134.632 91.5267 134.305 91.5267C133.977 91.5267 133.709 91.3494 133.709 91.1327C133.709 90.9159 133.977 90.7386 134.305 90.7386C134.632 90.7386 134.901 90.9159 134.901 91.1327ZM114.838 92.3148C115.057 92.4834 116.748 92.7513 118.596 92.9105C120.445 93.0693 122.233 93.3487 122.569 93.5311C122.906 93.7136 124.611 94.0386 126.359 94.253C131.444 94.8771 132.12 95.0714 132.12 95.9083C132.12 96.5951 131.891 96.6345 129.239 96.4013C127.655 96.2618 126.18 96.0108 125.962 95.8433C125.743 95.6758 123.907 95.4107 121.881 95.2542C119.855 95.0978 118.112 94.8318 118.006 94.6628C117.901 94.4938 116.293 94.2297 114.433 94.0761C112.574 93.9224 110.955 93.6407 110.836 93.4496C110.514 92.9322 108.692 93.0311 108.154 93.5954C107.897 93.8664 107.351 94.7971 106.942 95.664C106.534 96.5309 105.953 97.7421 105.652 98.3557C105.351 98.9692 105.105 99.8116 105.105 100.227C105.105 100.643 104.926 100.983 104.708 100.983C104.489 100.983 104.29 101.294 104.264 101.673C104.221 102.318 104.207 102.318 104.038 101.682C103.826 100.879 105.349 96.1711 106.368 94.4819C106.76 93.8318 107.265 92.8826 107.489 92.3727C107.886 91.4715 107.989 91.4534 111.169 91.7269C112.969 91.8817 114.62 92.1461 114.838 92.3148ZM113.646 94.6888C113.865 94.8523 115.563 95.1136 117.42 95.27C119.278 95.4264 120.976 95.6924 121.195 95.861C121.413 96.0297 123.246 96.2949 125.267 96.4501C127.288 96.6058 128.941 96.8914 128.941 97.0849C128.941 97.2788 129.675 97.4372 130.571 97.4372H132.201L131.981 100.688C131.513 107.577 130.664 108.876 129.79 104.037C129.051 99.9515 128.086 98.1303 126.228 97.317C122.716 95.7803 121.852 96.9675 122.764 102.078C123.084 103.872 123.433 105.479 123.539 105.65C123.909 106.243 125.366 113.728 125.366 115.034C125.366 116.229 125.258 116.351 124.198 116.351C123.555 116.351 122.925 116.184 122.798 115.979C122.671 115.775 121.319 115.487 119.795 115.338C118.271 115.189 117.023 114.927 117.023 114.757C117.023 114.587 115.68 114.323 114.038 114.17C112.396 114.018 110.955 113.737 110.836 113.546C110.717 113.355 110.094 113.198 109.452 113.198C108.809 113.198 108.283 113.027 108.283 112.818C108.283 112.182 112.304 108.47 112.993 108.47C113.284 108.47 113.735 108.147 115.663 106.555C115.899 106.361 116.454 106.088 116.898 105.948C118.208 105.536 120.996 102.753 120.996 101.858C120.996 100.452 120.228 98.9463 119.402 98.7323C118.968 98.6196 118.612 98.3706 118.612 98.1791C118.612 97.7256 117.135 97.7268 116.852 98.1807C116.733 98.3726 116.007 98.6468 115.24 98.7895C114.473 98.9321 113.845 99.2182 113.845 99.4251C113.845 99.6319 113.604 99.8014 113.31 99.8014C113.016 99.8014 112.406 100.112 111.956 100.491C111.506 100.87 110.738 101.446 110.248 101.772C109.759 102.097 108.842 102.85 108.211 103.446C107.58 104.042 106.964 104.53 106.842 104.53C106.72 104.53 106.166 104.884 105.611 105.318C103.483 106.978 103.22 106.098 104.788 102.56C105.22 101.584 105.718 100.432 105.894 99.9984C106.071 99.5649 106.611 98.2351 107.096 97.0431C108.372 93.9051 108.436 93.8574 111.012 94.1434C112.242 94.2806 113.428 94.5257 113.646 94.6888ZM124.646 98.7178C124.794 100.244 124.163 102.227 123.589 102.039C123.364 101.966 123.127 100.901 123.062 99.6717C122.955 97.6653 123.023 97.4372 123.732 97.4372C124.332 97.4372 124.551 97.7441 124.646 98.7178ZM80.745 98.942C80.6683 99.0897 79.8424 100.762 78.9088 102.658C77.9756 104.555 77.0524 106.106 76.8569 106.106C76.6614 106.106 76.5013 106.344 76.5013 106.636C76.5013 106.927 76.1362 107.494 75.6897 107.894C74.8983 108.605 74.8848 108.604 75.1554 107.857C75.3079 107.436 75.6238 106.848 75.8574 106.55C76.3206 105.96 77.9089 103.028 79.3375 100.125C79.8364 99.111 80.3887 98.3698 80.5647 98.4778C80.7403 98.5854 80.8217 98.7946 80.745 98.942ZM119.583 100.049C119.727 100.619 119.733 101.588 119.597 102.204C119.399 103.101 119.072 103.374 117.95 103.583C116.836 103.79 116.382 103.675 115.72 103.018C115.004 102.308 114.956 102.066 115.378 101.284C115.918 100.283 117.652 99.1055 118.669 99.0491C119.057 99.0279 119.427 99.4317 119.583 100.049ZM130.928 110.074C130.928 110.672 129.256 114.035 129.056 113.838C128.762 113.546 130.301 109.314 130.628 109.515C130.793 109.616 130.928 109.867 130.928 110.074ZM71.7341 111.173C71.7341 111.359 71.2673 111.847 70.6968 112.257C70.1263 112.666 69.4068 113.24 69.0973 113.532C68.7883 113.824 67.426 114.163 66.0701 114.285C63.8037 114.488 63.6563 114.455 64.2447 113.872C64.5966 113.523 65.3546 113.12 65.9295 112.977C66.5039 112.834 67.0661 112.57 67.1785 112.389C67.2906 112.209 68.1828 111.943 69.1609 111.797C70.139 111.652 70.9395 111.376 70.9395 111.183C70.9395 110.991 71.1183 110.834 71.3368 110.834C71.5553 110.834 71.7341 110.987 71.7341 111.173ZM113.447 114.763C113.557 114.934 114.943 115.202 116.527 115.358C118.111 115.515 119.407 115.784 119.407 115.957C119.407 116.129 120.693 116.399 122.264 116.555C125.35 116.863 125.88 117.16 126.3 118.817C126.528 119.719 126.445 119.897 125.794 119.897C125.366 119.897 124.914 119.733 124.789 119.534C124.665 119.334 123.403 119.047 121.985 118.897C120.567 118.746 119.407 118.491 119.407 118.33C119.407 118.17 118.2 117.848 116.725 117.616C115.251 117.384 113.239 117.012 112.256 116.79C111.273 116.567 109.172 116.377 107.588 116.368C104.838 116.351 103.844 115.887 105.466 115.377C105.882 115.246 106.333 114.857 106.466 114.512C106.673 113.977 107.184 113.927 109.977 114.169C111.775 114.324 113.337 114.592 113.447 114.763ZM99.7418 118.321C99.8769 118.538 99.7534 118.716 99.4673 118.717C99.1813 118.719 98.4678 118.968 97.8814 119.271C97.2954 119.575 96.2673 119.942 95.5971 120.088C94.9269 120.234 94.3786 120.497 94.3786 120.672C94.3786 120.847 93.5742 121.109 92.5909 121.256C91.6077 121.402 90.8032 121.669 90.8032 121.848C90.8032 122.028 90.1862 122.246 89.4322 122.334C88.3596 122.458 88.1522 122.384 88.4787 121.993C88.7087 121.719 89.5045 121.381 90.247 121.243C90.9899 121.104 91.5977 120.834 91.5977 120.641C91.5977 120.449 91.9108 120.29 92.293 120.289C92.6751 120.287 93.5035 120.02 94.1331 119.694C94.7632 119.368 95.9697 118.992 96.8147 118.858C97.6601 118.724 98.3514 118.46 98.3514 118.27C98.3514 117.797 99.4399 117.837 99.7418 118.321ZM136.921 129.157C136.933 129.59 137.096 130.299 137.284 130.733C137.597 131.455 137.627 131.438 137.647 130.536C137.66 129.994 137.496 129.285 137.284 128.96C136.966 128.472 136.903 128.506 136.921 129.157ZM158.485 137.431C158.518 140.386 158.324 143.026 157.967 144.47C157.088 148.03 156.864 146.274 157.071 137.431C157.247 129.923 157.283 129.625 157.843 131.127C158.226 132.153 158.45 134.354 158.485 137.431ZM137.29 134.204C137.287 135.368 137.438 136.005 137.681 135.855C138.187 135.546 138.187 133.675 137.681 132.9C137.403 132.473 137.294 132.835 137.29 134.204ZM134.932 135.836C134.909 136.978 135.018 137.275 135.342 136.954C135.656 136.643 135.665 136.191 135.374 135.397C134.968 134.292 134.963 134.296 134.932 135.836ZM137.038 138.425C136.898 139.297 136.627 140.105 136.438 140.221C136.248 140.338 136.092 140.847 136.092 141.353C136.092 141.859 135.848 142.365 135.549 142.479C135.127 142.64 135.034 142.276 135.136 140.847C135.246 139.302 135.213 139.197 134.932 140.19C134.362 142.203 134.435 143.933 135.09 143.933C135.884 143.933 137.147 141.23 137.482 138.814C137.807 136.475 137.409 136.127 137.038 138.425Z" fill="black"/>
</svg>
