<svg width="200" height="200" viewBox="0 0 200 200" fill="none" xmlns="http://www.w3.org/2000/svg">
<path fill-rule="evenodd" clip-rule="evenodd" d="M200 125.445C186.945 165.048 149.645 193.634 105.669 193.634C50.8253 193.634 6.36576 149.175 6.36576 94.3311C6.36576 50.3552 34.951 13.0558 74.5541 0.000148184C31.5588 11.9312 0 51.3555 0 98.1507C0 154.401 45.5995 200 101.849 200C148.645 200 188.07 168.441 200 125.445Z" fill="#FBFBFB"/>
<path fill-rule="evenodd" clip-rule="evenodd" d="M196.132 108.96C185.183 142.176 153.899 166.151 117.016 166.151C71.0181 166.151 33.7296 128.863 33.7296 82.8648C33.7296 45.9804 57.7062 14.6961 90.9236 3.74744C54.8611 13.7528 28.3906 46.8192 28.3906 86.0681C28.3906 133.245 66.6353 171.49 113.812 171.49C153.06 171.49 186.126 145.021 196.132 108.96Z" fill="#8DD951"/>
<path fill-rule="evenodd" clip-rule="evenodd" d="M106.083 13.2757C86.9695 15.2718 71.9216 25.7998 63.6157 42.9875C60.7015 49.0178 59.0557 54.7162 58.2413 61.5955C57.7457 65.7803 58.0453 73.7353 58.85 77.7554C62.5931 96.4616 75.3926 109.662 94.387 114.406C100.341 115.893 103.907 116.291 111.264 116.291C117.373 116.292 118.236 116.226 121.657 115.501C123.709 115.066 126.573 114.301 128.022 113.801C131.853 112.479 137.346 109.684 140.574 107.413C145.793 103.742 151.619 97.4373 154.816 92.0001C155.475 90.88 156.721 89.2759 157.586 88.4355C159.1 86.9628 162.359 84.7741 162.632 85.0458C163.008 85.4193 160.12 91.6834 157.911 95.2877C153.479 102.516 148.806 107.207 139.834 113.437C138.959 114.045 137.144 116.499 132.877 122.845C127.105 131.427 125.504 133.628 122.684 136.848C120.824 138.974 117.425 141.734 115.571 142.625C114.305 143.234 114.132 143.254 113.712 142.836C112.727 141.858 112.715 137.076 113.682 131.031C113.864 129.891 114.028 127.525 114.045 125.773C114.076 122.66 114.059 122.574 113.275 121.902C112.682 121.394 111.989 121.175 110.611 121.063C101.062 120.286 98.5925 119.795 92.2746 117.417C88.6854 116.066 88.551 116.04 85.2112 116.043C82.3717 116.045 81.5246 116.156 80.1089 116.713C59.3062 128.37 58.85 130.886 74.7798 120.627C79.4943 117.79 81.3867 117.04 84.323 116.843C86.891 116.671 88.2816 116.972 93.945 118.928C98.7142 120.575 102.714 121.39 108.28 121.848C112.403 122.187 112.599 122.233 112.956 122.933C113.471 123.946 113.431 125.307 112.722 130.886C111.909 137.288 111.878 141.001 112.627 142.498C113.518 144.279 113.927 144.376 116.067 143.315C121.034 140.854 125.26 136.025 133.914 122.926C136.317 119.289 138.607 115.929 139.004 115.458C139.401 114.988 140.883 113.81 142.297 112.841C151.826 106.307 158.802 97.7319 162.814 87.6206L164.098 84.3847L165.585 83.9607C199.195 76.3207 211.047 72.9571 169.309 82.2022C166.794 82.7592 164.684 83.1623 164.619 83.0982C164.554 83.0344 164.778 81.8961 165.116 80.5693C166.354 75.7067 166.71 72.0406 166.541 65.8814C166.415 61.2817 166.234 59.445 165.626 56.5982C162.079 39.9798 151.427 26.3224 136.013 18.6279C127.142 14.1994 116.117 12.228 106.083 13.2757ZM116.446 14.1379C140.443 16.3854 159.704 33.4834 164.778 57.0425C165.506 60.4233 165.574 61.2944 165.578 67.3518C165.583 74.2802 165.338 76.3401 163.905 81.4668L163.289 83.6722L161.186 84.7015C158.36 86.0841 155.693 88.751 153.391 92.4941C147.639 101.846 138.413 109.185 127.726 112.91C119.536 115.764 109.179 116.293 98.5824 114.398C80.5701 111.176 67.227 100.328 61.5501 84.2903C61.0405 82.8509 60.266 80.0059 59.8285 77.968C59.0966 74.5581 59.0332 73.7226 59.0332 67.4988C59.0332 61.2361 59.0936 60.4522 59.8498 56.9125C60.9005 51.9926 62.5851 46.9976 64.5361 43.0181C69.613 32.6618 78.5877 23.6591 88.4681 19.0108C97.0255 14.9851 106.979 13.2513 116.446 14.1379Z" fill="black"/>
</svg>
