<svg width="200" height="200" viewBox="0 0 200 200" fill="none" xmlns="http://www.w3.org/2000/svg">
<path fill-rule="evenodd" clip-rule="evenodd" d="M200 125.444C186.945 165.048 149.645 193.634 105.669 193.634C50.8253 193.634 6.36576 149.175 6.36576 94.331C6.36576 50.3551 34.951 13.0556 74.5541 0C31.5588 11.931 0 51.3553 0 98.1505C0 154.4 45.5995 200 101.849 200C148.645 200 188.07 168.44 200 125.444Z" fill="#FBFBFB"/>
<path fill-rule="evenodd" clip-rule="evenodd" d="M196.132 108.96C185.183 142.176 153.899 166.151 117.016 166.151C71.0181 166.151 33.7296 128.863 33.7296 82.8648C33.7296 45.9804 57.7062 14.6961 90.9236 3.74744C54.8611 13.7528 28.3906 46.8192 28.3906 86.0681C28.3906 133.245 66.6353 171.49 113.812 171.49C153.06 171.49 186.126 145.021 196.132 108.96Z" fill="#8DD951"/>
<path fill-rule="evenodd" clip-rule="evenodd" d="M65.9996 45.4327C64.98 46.3588 64.7575 47.2096 65.0614 49.0233C65.2393 50.0863 70.7745 67.0872 80.0403 95.0292C93.7551 136.389 94.7833 139.393 95.4328 139.997C96.7733 141.246 95.7552 141.517 122.484 132.788C149.714 123.896 148.443 124.399 148.597 122.44C148.66 121.632 148.178 119.925 146.135 113.731L143.593 106.027L142.728 105.593C141.973 105.214 141.711 105.226 140.655 105.69C138.7 106.549 138.589 107.001 139.587 110.027C140.052 111.438 140.931 114.355 141.539 116.509C142.495 119.896 142.601 120.512 142.318 121.071C142.004 121.691 141.603 121.84 132.31 124.798C126.726 126.575 122.344 127.856 121.956 127.824C121.293 127.77 121.294 127.754 122.073 126.725C123.647 124.645 123.064 122.227 120.681 120.949C118.535 119.798 116.703 120.467 115.678 122.777C114.688 125.007 115.48 127.086 117.675 128.015C118.31 128.283 118.777 128.607 118.713 128.734C118.649 128.861 114.608 130.321 109.732 131.978C100.719 135.043 99.1498 135.428 98.5703 134.721C98.4195 134.536 91.9757 115.267 84.251 91.8992C70.7516 51.0619 70.22 49.3943 70.5564 48.9252C70.8431 48.5258 74.8161 47.1619 92.4651 41.4046C104.322 37.5367 114.149 34.435 114.303 34.5117C114.457 34.5886 115.335 36.7401 116.254 39.2931C117.544 42.8751 118.011 43.9347 118.303 43.935C118.612 43.9351 118.378 43.0721 116.997 39.1255C115.383 34.5174 115.283 34.3046 114.605 34.0494C113.944 33.8006 112.555 34.2123 93.4872 40.3076C82.2612 43.8961 72.4088 47.107 71.5927 47.443C70.6161 47.8453 69.9853 48.2707 69.7469 48.6885C69.3857 49.3219 69.4047 49.3821 83.4123 91.8468C92.1258 118.262 97.6101 134.58 97.8898 134.924C98.9339 136.207 99.0916 136.179 109.096 132.909C115.811 130.714 118.507 129.738 119.2 129.251C119.984 128.7 120.41 128.569 121.695 128.486C122.84 128.412 125.655 127.642 132.46 125.54C142.765 122.358 143.308 122.112 143.335 120.609C143.344 120.082 142.59 117.433 141.428 113.911C139.201 107.157 139.189 106.947 140.997 106.35C141.587 106.155 142.251 106.087 142.473 106.199C143.024 106.476 147.94 121.322 147.825 122.364C147.656 123.885 148.218 123.67 122.595 132.024C109.279 136.365 98.3702 139.81 97.8193 139.849C97.2781 139.886 96.5391 139.749 96.1772 139.544C95.5356 139.182 95.1484 138.053 80.5949 94.1498C68.7642 58.4598 65.6709 48.9063 65.6725 48.0621C65.6739 47.3434 65.9071 46.7338 66.3889 46.1882C67.0978 45.3858 67.2868 45.3196 91.273 37.4948C105.819 32.7496 115.787 29.6041 116.307 29.5942C116.795 29.5854 117.389 29.8128 117.671 30.117C118.248 30.7401 122.829 44.3742 122.671 44.9981C122.618 45.2074 118.274 49.1343 113.017 53.7247C107.761 58.315 103.2 62.3367 102.88 62.6616C102.561 62.9864 102.322 63.5259 102.347 63.8603C102.373 64.1949 105.814 74.7295 109.995 87.2705C116.037 105.395 117.69 110.13 118.05 110.355C118.3 110.511 118.89 110.58 119.363 110.509C119.835 110.438 133.438 106.058 149.593 100.776L178.966 91.1715L179.672 89.9835C181.008 87.7349 181.245 88.9203 176.47 73.9758L172.15 60.4548L173.819 58.7718C174.737 57.8461 175.722 56.6722 176.008 56.1635C176.913 54.5539 176.582 54.1088 165.3 41.7623C152.29 27.5258 151.525 26.7343 150.509 26.464C149.149 26.1027 147.862 26.7946 144.455 29.7187C137.498 35.6891 106.395 62.8311 105.304 63.8837C103.811 65.3238 103.63 66.1469 104.514 67.4855C105.393 68.8177 107.532 69.8973 108.596 69.5462C109.281 69.3204 117.648 62.1666 144.832 38.5647C148.225 35.6194 151.307 33.1089 151.682 32.9858C152.775 32.6268 154.289 33.1306 155.227 34.166C156.276 35.3223 156.465 36.4555 155.82 37.7126C155.476 38.3831 150.719 42.419 137.439 53.3093C125.618 63.0015 119.49 68.1802 119.429 68.5272C119.284 69.3511 120.207 69.3482 122.722 68.5167C127.732 66.8602 128.367 66.415 142.146 54.8991C149.095 49.091 155.073 44.157 155.429 43.9349C156.385 43.3396 158.452 43.6126 159.306 44.4472C160.275 45.3934 160.396 46.685 159.618 47.779C159.28 48.2542 155.285 51.7744 150.739 55.6021L142.474 62.5614L125.781 68.068C113.913 71.9829 108.933 73.7168 108.555 74.066C107.777 74.7826 107.791 76.0588 108.604 78.5438C109.243 80.4986 109.408 80.7846 110.088 81.1272C110.817 81.4939 111.09 81.4424 115.762 80.0548C120.767 78.5682 121.595 78.4302 121.8 79.0493C121.892 79.3309 121.275 79.6115 118.666 80.4719C113.745 82.0952 113.415 82.5253 114.519 85.8727C114.996 87.3177 115.278 87.8179 115.809 88.1582C116.456 88.5736 116.656 88.5424 120.153 87.4744C125.011 85.9902 125.025 85.9719 123.95 82.4614C123.362 80.5424 123.267 79.9519 123.542 79.9266C124.341 79.853 124.811 80.5307 125.582 82.8665C126.284 84.9958 126.321 85.2984 125.965 86.0013C125.487 86.9459 123.28 87.9797 118.78 89.3658C114.531 90.6747 114.479 90.7008 113.927 91.7914C112.88 93.8611 114.649 95.9993 117.091 95.6165C117.647 95.5295 129.515 91.6949 143.464 87.0953C160.458 81.4916 169.016 78.7653 169.401 78.8318C170.105 78.9537 170.474 79.9386 170.061 80.5954C169.809 80.9959 165.243 82.5921 143.482 89.886C123.561 96.563 117.102 98.8094 116.773 99.1746C115.659 100.413 116.405 102.739 118.139 103.43L119.166 103.839L134.54 98.58C144.913 95.0318 150.065 93.3643 150.379 93.4545C150.738 93.5578 150.813 93.7104 150.711 94.1286C150.586 94.6347 149.566 95.0117 134.669 100.056C123.293 103.909 118.706 105.552 118.568 105.824C118.261 106.431 118.868 107.318 119.671 107.437C120.245 107.522 125.018 106.026 141.372 100.635C160.981 94.1706 162.378 93.7415 162.971 94.0032C163.483 94.2289 164.076 94.1276 166.044 93.4785C169.196 92.4386 169.28 91.8814 166.145 92.8061C164.879 93.1794 163.817 93.404 163.784 93.3053C163.751 93.2069 165.074 92.7224 166.723 92.229C170.69 91.0421 173.168 89.9529 173.67 89.1756C173.95 88.7415 173.977 88.1715 173.764 87.2278C173.048 84.0662 172.449 83.9627 166.402 85.9573C161.296 87.6415 160.825 87.9713 160.924 89.7884C160.959 90.4272 161.202 91.415 161.463 91.9835L161.939 93.0168L140.891 99.9596C122.565 106.005 119.787 106.868 119.407 106.631C119.059 106.413 119.032 106.311 119.274 106.119C119.441 105.987 126.637 103.517 135.267 100.631C150.291 95.605 150.972 95.3546 151.33 94.727C151.804 93.8947 151.609 93.3021 150.732 92.9154C149.948 92.5694 149.89 92.587 130.402 99.1799C124.508 101.174 119.483 102.863 119.236 102.933C117.941 103.301 116.524 101.291 117.173 100.008C117.467 99.4264 118.501 99.0469 135.863 93.1442C145.972 89.7076 157.746 85.7399 162.029 84.3272C168.496 82.1934 169.919 81.6523 170.431 81.1312C171.442 80.101 170.983 78.397 169.619 78.1211C169.112 78.0181 163.019 79.9178 142.574 86.5539L116.183 95.1194L115.446 94.7496C114.481 94.265 114.077 93.0403 114.564 92.0761C114.919 91.3741 115.191 91.2501 120.525 89.3571C127.205 86.9867 127.32 86.9011 126.872 84.6206C126.716 83.8251 126.284 82.402 125.912 81.4586C125.185 79.6141 124.464 78.9435 123.41 79.1324C123.064 79.1945 122.742 79.0327 122.586 78.7192C122.445 78.4359 122.028 78.0707 121.659 77.9076C121.067 77.6466 120.388 77.7923 115.953 79.132C112.078 80.3029 110.791 80.6022 110.359 80.4329C109.885 80.2477 109.696 79.8591 109.145 77.9448C108.327 75.0983 108.492 74.7461 111.199 73.5641C112.226 73.1153 119.721 70.6346 127.853 68.0515L142.64 63.3546L149.183 57.8304C159.295 49.2944 160.059 48.6063 160.524 47.6197C160.763 47.1139 160.916 46.3784 160.865 45.9853C160.586 43.8385 157.965 42.3659 155.734 43.102C155.093 43.3133 150.593 46.9085 141.801 54.2313C134.659 60.1809 128.441 65.2553 127.985 65.5076C126.341 66.4165 121.972 68.1614 121.077 68.2669C120.101 68.3818 118.943 69.3594 147.804 45.7076C156.962 38.2023 157.247 37.8777 156.721 35.5529C156.475 34.4665 156.247 34.0849 155.394 33.3365C154.371 32.4374 152.41 31.9063 151.376 32.2476C150.904 32.403 149.018 34.0041 135.48 45.7395C108.707 68.9479 108.601 69.0371 107.912 68.9627C106.989 68.863 105.067 67.4172 104.813 66.6317C104.556 65.8377 104.649 65.4435 105.234 64.8393C107.022 62.9919 147.856 27.7606 148.668 27.3637C149.598 26.9099 149.799 26.9126 150.68 27.3927C151.961 28.0911 174.527 52.7131 175.173 54.1182C175.559 54.9558 175.563 55.262 175.201 55.9773C174.754 56.862 173.156 58.659 172.257 59.2895L171.744 59.6487L170.585 56.1353C169.757 53.6254 169.313 52.5803 169.028 52.4767C168.792 52.3906 164.904 53.4963 159.482 55.1913C149.926 58.1785 148.529 58.7541 146.307 60.6186C145.392 61.3865 145.273 62.0076 146.035 62.0432C146.264 62.0539 150.944 60.6571 156.434 58.9392C161.924 57.2216 166.688 55.7834 167.022 55.7437C167.608 55.6737 167.662 55.7699 168.566 58.4996C169.082 60.0551 169.656 61.453 169.843 61.6057C170.074 61.7953 170.415 61.752 170.915 61.4686L171.647 61.0538L175.845 73.779C179.669 85.3734 180.03 86.6005 179.909 87.5868C179.779 88.6384 179.652 88.3061 175.476 76.0596C171.47 64.3116 171.135 63.4293 170.569 63.1512C169.986 62.8644 169.947 62.89 169.56 63.8105L169.157 64.7683L173.271 76.8705C177.028 87.9229 177.443 89.0186 178.057 89.5064C178.428 89.8002 178.68 90.1407 178.617 90.2632C178.555 90.3858 165.164 94.8492 148.859 100.182C120.009 109.619 119.199 109.87 118.644 109.532C118.13 109.22 117.324 106.978 110.626 87.241C106.53 75.1718 103.138 64.9064 103.09 64.4285C103.032 63.8642 103.206 63.3511 103.587 62.9635C103.909 62.6354 108.463 58.6242 113.707 54.0497C118.951 49.4754 123.324 45.5707 123.424 45.3724C123.543 45.1377 122.83 42.5691 121.376 37.9986C118.925 30.2952 118.525 29.476 116.96 28.9604C116.074 28.6683 116.007 28.6888 91.3594 36.7565C71.161 43.3675 66.5285 44.9526 65.9996 45.4327ZM166.444 53.778L168.899 53.1465L170.138 56.6702L171.378 60.194L170.835 60.6948C170.192 61.2884 170.3 61.4673 169.246 58.0606C168.687 56.2558 168.319 55.4261 167.966 55.1797C167.507 54.8591 166.782 55.049 158.207 57.7345C153.112 59.3299 148.462 60.7064 147.874 60.7931L146.805 60.9508L148.316 60.0091C149.516 59.262 151.288 58.5871 156.909 56.7385C160.803 55.4575 165.094 54.1253 166.444 53.778ZM174.793 76.2052C178.85 87.978 179.467 90.1733 178.309 88.7248C177.632 87.8791 170.048 65.707 170.067 64.6327C170.076 64.1462 170.199 63.8138 170.342 63.8937C170.484 63.9735 172.487 69.5138 174.793 76.2052ZM121.593 80.3344L122.417 80.0727L123.182 82.4044C123.603 83.6869 123.9 84.9219 123.843 85.149C123.707 85.6848 117.008 87.9049 116.328 87.6392C115.817 87.4395 114.555 83.903 114.737 83.1799C114.87 82.6549 116.521 81.8555 118.981 81.1262C119.964 80.8348 121.139 80.4784 121.593 80.3344ZM171.837 85.4219C172.775 85.8353 173.413 87.8259 172.899 88.7296C172.558 89.3272 172.088 89.5291 167.558 91.0234L162.591 92.6618L162.019 91.1739C161.016 88.5665 161.527 88.1051 167.427 86.2884C170.624 85.304 171.278 85.1757 171.837 85.4219ZM119.606 121.196C120.614 121.43 121.851 122.543 122.165 123.5C122.652 124.986 120.989 127.735 119.537 127.842C118.507 127.918 116.458 126.592 116.147 125.647C115.601 123.993 116.588 121.67 118.04 121.189C118.387 121.074 119.092 121.077 119.606 121.196Z" fill="black"/>
</svg>
