<svg width="200" height="200" viewBox="0 0 200 200" fill="none" xmlns="http://www.w3.org/2000/svg">
<path fill-rule="evenodd" clip-rule="evenodd" d="M200 125.444C186.945 165.048 149.645 193.634 105.669 193.634C50.8253 193.634 6.36576 149.175 6.36576 94.331C6.36576 50.3551 34.951 13.0556 74.5541 0C31.5588 11.931 0 51.3553 0 98.1505C0 154.4 45.5995 200 101.849 200C148.645 200 188.07 168.44 200 125.444Z" fill="#FBFBFB"/>
<path fill-rule="evenodd" clip-rule="evenodd" d="M196.132 108.96C185.183 142.176 153.899 166.151 117.016 166.151C71.0181 166.151 33.7296 128.863 33.7296 82.8648C33.7296 45.9804 57.7062 14.6961 90.9236 3.74744C54.8611 13.7528 28.3906 46.8192 28.3906 86.0681C28.3906 133.245 66.6353 171.49 113.812 171.49C153.06 171.49 186.126 145.021 196.132 108.96Z" fill="#8DD951"/>
<path fill-rule="evenodd" clip-rule="evenodd" d="M87.0793 31.5721C86.6863 32.1033 83.346 37.8262 79.656 44.2889C75.9661 50.7517 72.5555 56.7165 72.0765 57.5435C71.1541 59.1363 71.233 60.3002 72.3406 61.4437C72.693 61.8075 75.885 63.9028 79.4345 66.1002L85.8878 70.0954L93.5206 66.1832C97.719 64.0316 102.55 61.5766 104.256 60.7277L107.359 59.1843L106.599 58.0355L105.838 56.8869L107.075 56.2984L108.313 55.7098L105.737 51.7279C104.32 49.5377 102.978 47.5647 102.754 47.3438C101.824 46.4229 102.433 45.5166 105.421 43.3777C111.42 39.0836 125.367 29.7786 126.019 29.6352C126.821 29.4591 127.053 29.7269 131.458 35.9202C136.796 43.4252 136.722 43.3403 137.481 42.8958C139.364 41.7926 139.391 41.5376 137.862 39.3363L136.447 37.2999L137.457 36.9888C141.001 35.8977 144.172 35.0573 144.874 35.0229C146.573 34.9396 147.797 35.4347 148.378 36.4399C148.797 37.1659 149.32 37.501 150.307 37.6763C151.052 37.8089 151.862 37.8763 152.106 37.826C152.361 37.7739 152.545 37.9591 152.536 38.2591C152.524 38.669 152.348 38.7464 151.73 38.6134C151.296 38.5201 150.096 38.5341 149.065 38.645C146.981 38.8691 148.26 38.2192 125.577 50.583C98.5865 65.2948 81.7365 73.4548 75.2041 74.9778C70.6777 76.0334 67.6692 72.6988 70.0993 69.3201C71.0201 68.04 74.1503 66.2098 75.7376 66.0231C76.7014 65.91 76.166 65.156 74.2196 63.8861C72.6757 62.8785 72.5452 62.8657 70.9273 63.5607C69.242 64.2847 67.2361 65.8094 66.0453 67.2718C65.0892 68.446 64.2922 71.1348 64.3518 72.9842L64.4051 74.633L78.9033 100.1C86.8773 114.106 93.7678 125.984 94.2157 126.494C95.6008 128.071 97.1782 128.241 99.5439 127.069L101.589 126.056L102.363 127.004C103.609 128.531 105.263 129.038 108.329 128.834C111.801 128.603 117.094 126.982 123.735 124.116C129.906 121.452 150.914 109.451 158.434 104.295C168.994 97.053 176.562 91.173 178.364 88.8102C179.673 87.0935 179.165 84.5148 176.37 78.69C174.924 75.6765 174.915 75.6319 175.685 75.0605C176.741 74.2774 177.379 74.9494 180.167 79.7789C182.181 83.2666 182.398 83.8077 182.503 85.6009C182.686 88.7227 181.475 90.286 174.748 95.6126C170 99.3726 163.053 104.269 155.508 109.174C138.421 120.28 110.808 134.496 105.765 134.782C102.868 134.946 100.273 133.747 98.3791 131.368C97.6865 130.498 97.2602 130.186 97.1791 130.488C96.9698 131.27 99.5729 133.887 101.349 134.68C103.271 135.539 105.61 135.727 107.565 135.179C110.041 134.485 116.095 131.883 122.188 128.895C130.157 124.986 154.059 111.202 160.651 106.714C172.404 98.7126 180.358 92.3881 182.295 89.5036C183.109 88.2925 183.262 87.5969 183.145 85.6474C183.011 83.4183 182.874 83.0468 180.96 79.7314C179.837 77.7857 178.426 75.6013 177.824 74.8767C176.768 73.6043 176.695 73.5804 175.673 74.1704C174.669 74.75 174.584 74.7261 173.994 73.7045C173.491 72.833 173.49 72.5602 173.988 72.2726C174.451 72.0052 174.485 71.707 174.126 71.0649C173.863 70.5963 172.348 67.3643 170.759 63.8831C169.169 60.402 167.728 57.5183 167.557 57.475C166.912 57.3131 159.396 60.5185 155.049 62.8101C146.107 67.5239 143.463 71.2623 145.985 75.6295C146.873 77.1672 147.114 77.3545 148.8 77.806C150.068 78.146 151.057 78.142 151.971 77.7939C152.702 77.5156 154.107 77.0885 155.094 76.8446C158.49 76.0055 160.336 75.2361 165.59 72.4683L170.858 69.6931L171.619 71.0115L172.38 72.33L171.133 73.3234C169.319 74.7676 159.241 79.6929 156.558 80.4458C153.385 81.3365 150.978 81.4105 148.736 80.6861C146.338 79.9115 145.002 78.9001 143.935 77.0517C140.437 70.993 145.899 64.6695 160.123 58.31C163.054 56.9992 165.47 55.8587 165.491 55.7748C165.596 55.3594 162.489 48.6332 160.808 45.6346C159.042 42.4858 158.745 42.1196 156.903 40.8201C155.807 40.0463 154.629 39.3654 154.286 39.3069C153.385 39.153 152.885 38.1066 153.54 37.7444C153.839 37.5791 155.056 37.3838 156.244 37.3111C158.668 37.1625 159.669 37.6599 162.434 40.3891C166.338 44.242 181.036 71.978 184.402 81.8456C184.755 82.8821 185.008 84.4396 184.964 85.3063C184.88 86.9392 185.059 87.6184 185.505 87.3611C186.135 86.9974 185.602 82.9843 184.559 80.2405C182.035 73.5985 174.331 57.9556 169.255 49.1658C165.249 42.2294 163.214 39.5514 160.648 37.8337C158.509 36.4025 158.035 36.3099 154.935 36.7163L153.066 36.9614L151.854 34.9315C149.824 31.532 148.4 31.2853 140.538 32.9711C137.875 33.5425 135.35 34.0639 134.927 34.1303C134.252 34.2361 133.775 33.7478 130.983 30.0877C128.561 26.913 127.607 25.882 126.963 25.7432C126.18 25.5749 125.11 26.2546 112.387 35.0039C101.835 42.2605 98.5494 44.6567 98.1958 45.3534C97.7361 46.2586 97.7389 46.2656 100.359 50.3353C101.802 52.577 103.369 54.8806 103.839 55.4545C104.599 56.3798 104.623 56.5398 104.059 56.8657C103.543 57.1639 103.247 57.0056 102.493 56.0267C100.683 53.6773 94.8246 44.9709 94.989 44.8756C95.0808 44.8222 97.1421 43.2634 99.5693 41.4113C101.996 39.5592 104.017 38.0238 104.059 37.9992C104.428 37.7842 102.87 36.892 97.1988 34.0696C88.2209 29.6017 88.4873 29.6674 87.0793 31.5721ZM89.1893 31.1008C89.5804 31.1572 91.398 31.9994 93.2291 32.9724C95.06 33.9456 97.9551 35.3916 99.6624 36.1864C101.37 36.9808 102.712 37.7947 102.645 37.9946C102.578 38.1944 100.654 39.7426 98.3686 41.4351C96.0836 43.1272 94.18 44.668 94.1385 44.8589C94.0971 45.0493 96.0363 48.0345 98.448 51.4921C100.86 54.9497 102.899 57.8792 102.979 58.002C103.059 58.1246 103.54 57.9857 104.048 57.6926C104.875 57.2151 105.028 57.2589 105.522 58.1153L106.074 59.0707L103.274 60.4383C101.735 61.1902 97.3445 63.4165 93.5186 65.3855C89.6924 67.3542 86.3751 69.0065 86.1464 69.0565C85.9182 69.1066 82.8013 67.3276 79.2207 65.1027C74.6294 62.2501 72.5983 60.7966 72.3305 60.1723C71.9937 59.3865 72.7278 57.9229 78.8757 47.1273C85.3681 35.7264 87.9287 31.3823 88.3154 31.1123C88.4052 31.0498 88.7985 31.0446 89.1893 31.1008ZM127.246 26.5603C127.504 26.8059 128.935 28.6097 130.425 30.5694C133.947 35.2016 134.136 35.3991 134.727 35.0578C135.002 34.899 137.797 34.2421 140.938 33.5982C147.954 32.1596 149.192 32.3022 150.963 34.7537C151.661 35.7197 152.056 36.5287 151.937 36.7494C151.574 37.4253 149.431 36.8427 148.9 35.9239C147.606 33.6829 144.294 33.9072 135.767 36.8129C135.532 36.8932 135.528 37.213 135.758 37.5388C135.985 37.859 136.646 38.8615 137.228 39.7663C138.181 41.2484 138.226 41.4586 137.683 41.8876C136.955 42.4617 136.972 42.4807 131.98 35.4137C127.839 29.5525 126.924 28.5821 125.833 28.8933C125.071 29.1104 110.816 38.6309 104.918 42.8611C102.959 44.2668 101.802 45.3036 101.675 45.7687C101.465 46.5372 102.026 47.558 105.47 52.6672C107.173 55.1937 107.269 55.4224 106.741 55.7211C105.621 56.3557 105.16 56.0075 102.887 52.8116C99.8274 48.5092 98.5743 46.2854 98.8259 45.6052C99.008 45.1129 121.175 29.5418 125.205 27.0753C126.46 26.3069 126.869 26.2036 127.246 26.5603ZM71.838 63.9844C72.3818 63.6704 72.8426 63.7772 73.6732 64.4103C74.2829 64.8753 74.7959 65.2801 74.8132 65.3099C74.8302 65.3395 73.9257 65.8186 72.8028 66.3751C70.2311 67.6494 69.0814 68.9309 68.6727 70.978C68.0057 74.3203 70.7516 76.4173 74.8892 75.7261C81.2661 74.6603 98.6926 66.1257 135.952 45.8196C147.855 39.3324 148.796 38.9397 151.37 39.3869L152.821 39.6387L153.164 41.5412L153.507 43.4434L152.228 43.2164C149.097 42.6597 143.745 45.1494 121.077 57.7071C92.966 73.2799 81.9312 78.671 76.8221 79.3276C76.1128 79.4189 75.4525 79.6414 75.3555 79.8221C75.2579 80.0027 75.9558 81.4905 76.9061 83.128C77.8561 84.7656 81.2748 91.2248 84.5031 97.482C89.5228 107.211 91.0822 109.964 95.2695 116.49C97.9624 120.688 100.429 124.385 100.751 124.707C101.308 125.263 101.251 125.341 99.5851 126.303C98.0806 127.172 97.6439 127.263 96.4866 126.953C95.1542 126.596 93.0114 124.466 93.0397 123.526C93.0464 123.299 86.8554 112.378 79.2815 99.2588C64.1189 72.9928 64.5409 73.8566 65.3226 70.686C65.9685 68.0658 67.9374 65.6593 70.1514 64.7834C70.6792 64.5746 71.4384 64.2151 71.838 63.9844ZM79.0094 79.5122C85.3356 77.8244 99.2048 70.8235 127.287 55.1424C145.19 45.1454 150.613 42.8426 152.902 44.2644C153.458 44.6096 153.651 45.306 153.907 47.8845C154.416 53.0244 155.98 54.8151 158.087 52.671L158.946 51.7968L156.524 47.7803C154.351 44.1766 154.082 43.565 153.907 41.8311L153.711 39.8989L154.74 40.3245C157.659 41.5312 160.215 45.1169 163.252 52.2661L164.662 55.5865L163.294 56.1476C156.911 58.7657 149.232 62.9465 147.026 65.0045C145.246 66.6654 144.302 67.8085 143.349 69.4571C140.447 74.4763 143.512 80.4589 149.614 81.6844C153.743 82.5136 158.519 81.0767 167.292 76.365L172.798 73.4084L173.366 74.3936C173.917 75.3466 173.891 75.4088 172.569 76.2902L171.204 77.2012L172.081 79.1674C173.746 82.9024 174.44 85.9201 173.947 87.2806C173.068 89.7085 172.169 90.3528 160.255 97.0994C149.885 102.972 145.044 105.43 144.269 105.219C143.743 105.075 144.682 103.102 147.335 98.7776C150.56 93.5202 152.471 89.7047 152.153 89.154C151.585 88.1706 150.117 89.7705 141.074 101.233C137.62 105.61 134.438 109.529 134.003 109.942L133.211 110.692L133.56 109.165C133.752 108.325 135.014 104.757 136.364 101.236C139.205 93.8275 139.408 93.1655 138.93 92.9084C138.176 92.5021 136.827 93.8695 130.068 101.89C121.865 111.623 115.277 118.51 113.901 118.792C113.648 118.844 114.215 117.072 115.162 114.855C117.136 110.231 118.455 106.09 118.132 105.531C117.779 104.92 116.786 105.255 115.689 106.354C115.131 106.913 112.717 110.305 110.324 113.891C107.931 117.477 105.076 121.4 103.979 122.609C102.117 124.662 101.951 124.779 101.464 124.385C101.177 124.154 98.8446 120.727 96.2806 116.77C92.4883 110.918 90.7102 107.824 86.7478 100.186C84.0683 95.0211 81.632 90.2906 81.3332 89.6736C81.0344 89.0566 79.741 86.712 78.459 84.463C77.1767 82.2142 76.1956 80.3353 76.2784 80.2875C76.3611 80.2398 77.5899 79.8909 79.0094 79.5122ZM156.437 48.9783L158.124 51.9006L157.234 52.4144C156.084 53.0786 155.521 52.5957 155.125 50.6047C154.671 48.3198 154.426 46.2428 154.6 46.1425C154.683 46.0949 155.509 47.371 156.437 48.9783ZM163.28 59.7641C165.125 59.0537 166.811 58.4427 167.027 58.4061C167.294 58.3606 168.284 60.2295 170.147 64.2943C171.647 67.5693 173.045 70.5658 173.254 70.9532C174.015 72.3698 173.019 71.9482 172.024 70.4328L170.999 68.8715L165.966 71.5211C161.549 73.8468 157.964 75.4055 155.873 75.91C155.304 76.0474 155.28 75.9433 155.66 74.9929C156.187 73.6753 156.132 71.8937 155.533 70.8549C154.907 69.7715 152.552 69.086 151.058 69.5528C148.935 70.2162 148.08 71.5229 148.364 73.6722L148.608 75.5174L149.96 76.3393C151.591 77.3304 151.329 77.5862 149.131 77.1473C147.652 76.8524 147.403 76.6659 146.574 75.229C145.172 72.8014 145.658 70.7173 148.241 68.0672C149.984 66.2789 158.339 61.6661 163.28 59.7641ZM152.634 70.0198C153.601 69.8876 154.834 70.8261 155.155 71.9374C155.577 73.3954 154.971 75.4588 153.95 76.0488C152.917 76.645 150.542 76.1984 149.663 75.2424C148.801 74.3052 148.746 71.9589 149.566 71.177C150.183 70.5904 151.161 70.221 152.634 70.0198ZM117.069 107.63C116.799 108.706 115.709 111.648 114.647 114.166C112.296 119.74 112.266 120.622 114.471 119.349C116.27 118.31 122.322 112.1 127.705 105.768C130.593 102.372 134.036 98.3257 135.357 96.7768C136.678 95.2277 137.912 93.9294 138.099 93.8913C138.286 93.8534 137.248 96.908 135.794 100.68C132.19 110.022 131.774 112.23 133.842 111.036C134.254 110.798 137.499 106.918 141.053 102.413C144.607 97.9086 148.339 93.2619 149.347 92.0875L151.178 89.9519L150.705 91.2308C150.445 91.9342 148.849 94.8234 147.158 97.6512C143.529 103.723 142.985 104.949 143.673 105.506C144.631 106.282 146.25 105.602 156.28 100.21C174.449 90.4418 176.083 88.9078 174.328 83.2632C173.925 81.9676 173.276 80.1404 172.886 79.2026C172.206 77.5649 172.216 77.4691 173.149 76.7753L174.119 76.0528L175.126 77.7963C176.423 80.0428 178.279 85.1135 178.348 86.5982C178.389 87.4719 178.076 88.0875 177.057 89.1419C172.264 94.0991 159.919 102.838 144.96 111.862C123.846 124.599 108.513 130.411 103.873 127.437C102.039 126.262 102.139 125.723 104.728 122.813C106.026 121.353 108.968 117.337 111.264 113.887C116.866 105.472 117.885 104.374 117.069 107.63Z" fill="black"/>
</svg>
