<svg style="display: none;" aria-hidden="true" xmlns="http://www.w3.org/2000/svg" xmlns:xlink="http://www.w3.org/1999/xlink"><symbol viewBox="0 0 15 15" id="svg-angle-left"><g clip-path="url(#aclip0_2_32)"><path d="M4.56397 7.49961L11.3382 0.725363C11.5048 0.558757 11.5048 0.29156 11.3382 0.124954C11.1716 -0.0416514 10.9044 -0.0416514 10.7378 0.124954L3.66179 7.20097C3.49518 7.36758 3.49518 7.63478 3.66179 7.80138L10.7378 14.8743C10.8195 14.956 10.9296 15 11.0364 15C11.1433 15 11.2533 14.9591 11.3351 14.8743C11.5017 14.7077 11.5017 14.4405 11.3351 14.2739L4.56397 7.49961Z"/></g><defs><clipPath id="aclip0_2_32"><path fill="#fff" d="M0 0H15V15H0z"/></clipPath></defs></symbol><symbol viewBox="0 0 15 15" id="svg-angle-right"><path d="M10.436 7.50039L3.66175 14.2746C3.49515 14.4412 3.49515 14.7084 3.66175 14.875C3.82836 15.0417 4.09555 15.0417 4.26216 14.875L11.3382 7.79903C11.5048 7.63242 11.5048 7.36522 11.3382 7.19862L4.26216 0.125741C4.18043 0.0440098 4.0704 6.46293e-07 3.96352 6.55637e-07C3.85665 6.6498e-07 3.74662 0.0408666 3.66489 0.125741C3.49829 0.292346 3.49829 0.559543 3.66489 0.726148L10.436 7.50039Z"/></symbol><symbol viewBox="0 0 17 17" id="svg-clock"><path d="M8.5 0C3.80558 0 0 3.80558 0 8.5C0 13.1944 3.80558 17 8.5 17C13.1944 17 17 13.1944 17 8.5C16.994 3.80809 13.1919 0.00601673 8.5 0ZM8.86465 16.2525V14.7574C8.86465 14.556 8.70138 14.3928 8.5 14.3928C8.29862 14.3928 8.13535 14.556 8.13535 14.7574V16.2525C4.13691 16.0616 0.938428 12.8631 0.747533 8.86465H2.2426C2.44398 8.86465 2.60725 8.70138 2.60725 8.5C2.60725 8.29862 2.44398 8.13535 2.2426 8.13535H0.747533C0.938428 4.13691 4.13691 0.938428 8.13535 0.747533V2.2426C8.13535 2.44398 8.29862 2.60725 8.5 2.60725C8.70138 2.60725 8.86465 2.44398 8.86465 2.2426V0.747533C12.8631 0.938428 16.0616 4.13691 16.2525 8.13535H14.7574C14.556 8.13535 14.3928 8.29862 14.3928 8.5C14.3928 8.70138 14.556 8.86465 14.7574 8.86465H14.761H16.2561C16.0651 12.8644 12.8645 16.0634 8.86465 16.2525Z"/><path d="M12.3471 11.8913L8.86465 8.35049V4.67117C8.86465 4.46979 8.70137 4.30652 8.5 4.30652C8.29862 4.30652 8.13535 4.46979 8.13535 4.67117V8.5C8.13576 8.59568 8.17373 8.68734 8.24109 8.75526L11.8256 12.4018C11.9666 12.5458 12.1976 12.5482 12.3416 12.4072C12.4856 12.2662 12.488 12.0352 12.3471 11.8913Z"/></symbol><symbol viewBox="0 0 23 17" id="svg-mail"><path d="M19.6115 0H2.73165C1.22485 0 0 1.22485 0 2.73165V14.2684C0 15.7752 1.22485 17 2.73165 17H19.6069C21.1137 17 22.3385 15.7752 22.3385 14.2684V2.73627C22.3431 1.22947 21.1183 0 19.6115 0ZM21.0952 14.2684C21.0952 15.0865 20.4296 15.752 19.6115 15.752H2.73165C1.91354 15.752 1.24796 15.0865 1.24796 14.2684V2.73627C1.24796 1.91816 1.91354 1.25258 2.73165 1.25258H19.6069C20.425 1.25258 21.0905 1.91816 21.0905 2.73627V14.2684H21.0952Z"/><path d="M14.088 8.35673L19.5513 3.45733C19.8055 3.22623 19.8287 2.83335 19.5975 2.57451C19.3664 2.3203 18.9736 2.29719 18.7147 2.52829L11.1807 9.29039L9.71093 7.97772C9.7063 7.9731 9.70168 7.96848 9.70168 7.96386C9.66933 7.9315 9.63697 7.90377 9.59999 7.87604L3.61903 2.52367C3.36019 2.29257 2.96731 2.31568 2.73621 2.57451C2.50511 2.83335 2.52822 3.22623 2.78705 3.45733L8.31506 8.39833L2.81016 13.552C2.56057 13.7877 2.54671 14.1806 2.78243 14.4348C2.90723 14.5642 3.07362 14.6335 3.24002 14.6335C3.39255 14.6335 3.54507 14.5781 3.66525 14.4671L9.25334 9.23955L10.7694 10.5938C10.8896 10.7001 11.0375 10.751 11.1854 10.751C11.3333 10.751 11.4858 10.6955 11.6014 10.5892L13.159 9.19333L18.7147 14.4717C18.8349 14.5873 18.9921 14.6428 19.1446 14.6428C19.311 14.6428 19.4728 14.5781 19.5975 14.4486C19.8333 14.199 19.824 13.8015 19.5744 13.5658L14.088 8.35673Z"/></symbol><symbol viewBox="0 0 17 17" id="svg-marker"><path d="M8.4882 0C5.05271 0 2.25781 2.7949 2.25781 6.23038C2.25781 7.80857 3.25222 10.0384 5.21354 12.8579C6.64711 14.919 8.05708 16.5139 8.11648 16.5808L8.4882 17L8.86005 16.5808C8.91932 16.5139 10.3293 14.919 11.763 12.8579C13.7242 10.0384 14.7187 7.80857 14.7187 6.23038C14.7187 2.7949 11.9237 0 8.4882 0ZM10.9525 12.2823C9.98351 13.6763 9.00414 14.876 8.4882 15.4881C7.97355 14.8777 6.99782 13.6825 6.02948 12.2903C4.21226 9.67793 3.2517 7.58237 3.2517 6.23038C3.2517 3.34301 5.60082 0.993889 8.4882 0.993889C11.3757 0.993889 13.7247 3.34301 13.7247 6.23038C13.7247 7.58095 12.7661 9.67365 10.9525 12.2823Z"/><path d="M8.48821 2.30267C6.46062 2.30267 4.8111 3.95219 4.8111 5.97979C4.8111 8.00739 6.46062 9.65704 8.48821 9.65704C10.5159 9.65704 12.1655 8.00739 12.1655 5.97979C12.1655 3.95219 10.5159 2.30267 8.48821 2.30267ZM8.48821 8.66315C7.00873 8.66315 5.80499 7.4594 5.80499 5.97979C5.80499 4.50031 7.00873 3.29656 8.48821 3.29656C9.96783 3.29656 11.1716 4.50031 11.1716 5.97979C11.1716 7.4594 9.96783 8.66315 8.48821 8.66315Z"/></symbol><symbol viewBox="0 0 17 9" id="svg-phone"><path d="M15.0234 0H1.97659C0.889632 0 0 0.263398 0 0.58577V8.08655C0 8.40892 0.889632 8.67257 1.97659 8.67257H15.0234C16.1104 8.67257 17 8.40942 17 8.0868V0.58577C17 0.263398 16.1104 0 15.0234 0ZM6.41304 0.42223H10.587C10.7191 0.42223 10.8261 0.453947 10.8261 0.493345C10.8261 0.532496 10.7191 0.564213 10.587 0.564213H6.41304C6.28094 0.564213 6.17391 0.532496 6.17391 0.493345C6.17391 0.453947 6.28094 0.42223 6.41304 0.42223ZM8.5 8.37968C7.95401 8.37968 7.51171 8.2486 7.51171 8.08655C7.51171 7.9245 7.95401 7.79367 8.5 7.79367C9.04599 7.79367 9.48829 7.9245 9.48829 8.08655C9.48829 8.2486 9.04599 8.37968 8.5 8.37968ZM15.6246 7.5885H1.37542V0.928956H15.6246V7.5885Z"/></symbol></svg>