<svg width="400" height="289" viewBox="0 0 400 289" fill="none" xmlns="http://www.w3.org/2000/svg">
<path d="M30.447 288.106C21.8163 288.106 14.5709 285.363 8.71055 279.879C2.90351 274.341 0 267.297 0 258.748C0 250.145 2.93016 243.102 8.79047 237.617C14.5975 232.133 22.0028 229.391 31.0064 229.391C36.8134 229.391 42.2475 230.735 47.3087 233.423V247.054C42.1409 244.204 37.0532 242.779 32.0452 242.779C26.9841 242.779 22.8286 244.284 19.5788 247.295C16.3822 250.307 14.784 254.205 14.784 258.99C14.784 263.991 16.3023 267.943 19.339 270.846C22.3757 273.75 26.0784 275.201 30.447 275.201C34.1763 275.201 37.1331 274.314 39.3173 272.54V254.07H53.7817V279.153C51.5441 281.627 48.3209 283.75 44.1121 285.525C39.7968 287.245 35.2418 288.106 30.447 288.106Z" fill="white"/>
<path d="M105.861 286.977H62.7076V230.52H105.221V243.263H77.092V250.925H99.4677V263.184H77.092V274.233H105.861V286.977Z" fill="white"/>
<path d="M128.125 286.977H113.98V230.52H126.287L150.74 261.571V230.52H164.805V286.977H152.898L128.125 255.764V286.977Z" fill="white"/>
<path d="M189.86 286.977H175.476V230.52H189.86V250.602H210.957V230.52H225.342V286.977H210.957V263.507H189.86V286.977Z" fill="white"/>
<path d="M246.664 286.977H231.48L254.975 230.197H268.8L292.294 286.977H276.871L272.156 275.04H251.379L246.664 286.977ZM261.767 248.344L255.934 263.426H267.601L261.767 248.344Z" fill="white"/>
<path d="M297.748 263.345V230.52H312.133V264.071C312.133 267.512 313.065 270.147 314.93 271.975C316.794 273.803 319.245 274.717 322.282 274.717C325.372 274.717 327.822 273.83 329.634 272.056C331.498 270.228 332.431 267.566 332.431 264.071V230.52H346.815V263.345C346.815 271.196 344.498 277.298 339.863 281.653C335.174 285.955 329.314 288.106 322.282 288.106C315.249 288.106 309.389 285.955 304.701 281.653C300.066 277.298 297.748 271.196 297.748 263.345Z" fill="white"/>
<path d="M376.58 288.106C367.95 288.106 360.731 286.089 354.924 282.057V267.217C357.161 269.314 360.358 271.142 364.513 272.701C368.509 274.207 372.345 274.959 376.021 274.959C381.721 274.959 384.572 273.481 384.572 270.523C384.572 269.341 383.852 268.238 382.414 267.217C382.094 266.948 380.896 266.464 378.818 265.765L373.783 264.233L369.708 263.023L366.032 261.571C364.38 260.926 363.155 260.334 362.356 259.797C359.479 257.646 357.667 255.925 356.922 254.635C355.59 252.054 354.924 249.285 354.924 246.328C354.924 240.951 356.868 236.784 360.757 233.827C364.7 230.869 370.081 229.391 376.9 229.391C383.719 229.391 390.032 230.95 395.839 234.068V248.021C393.335 246.462 390.379 245.172 386.969 244.15C383.453 243.075 380.15 242.537 377.06 242.537C372.158 242.537 369.708 243.774 369.708 246.247C369.708 247.322 370.48 248.183 372.025 248.828L374.582 249.715C375.169 249.93 376.421 250.307 378.338 250.844C380.256 251.382 381.562 251.758 382.254 251.973C387.582 253.748 391.79 255.979 394.88 258.667C397.917 261.302 399.436 265.066 399.436 269.959C399.436 275.443 397.305 279.852 393.042 283.186C388.834 286.466 383.346 288.106 376.58 288.106Z" fill="white"/>
<path d="M282.416 74.3252L200.297 0L118.178 74.3252H131.282V161.767H181.514V188.573L196.625 137.182H166.226L193.339 74.3252H231.544L205.663 116.919H235.241L201.699 161.767H269.312V74.3252H282.416Z" fill="#FFD12E"/>
<path d="M181.514 188.756L181.923 188.208L181.514 188.874V188.756Z" fill="#FFD12E"/>
</svg>
