<svg width="77" height="32" viewBox="0 0 77 32" fill="none" xmlns="http://www.w3.org/2000/svg">
<path d="M7.94077 7.1961L13.6151 0.585369C13.7681 0.406913 13.9574 0.264246 14.1701 0.167224C14.3828 0.0702026 14.6137 0.0211373 14.8469 0.0234165L75.3674 0C75.7997 0.00327928 76.2138 0.1768 76.5222 0.483902C76.6742 0.637365 76.7946 0.819852 76.8766 1.02081C76.9585 1.22176 77.0003 1.43719 76.9996 1.65463V30.3454C76.9965 30.7832 76.8235 31.2023 76.5181 31.5119C76.2126 31.8215 75.7993 31.9968 75.3674 32L14.8162 31.9922C14.5829 31.9945 14.352 31.9454 14.1393 31.8484C13.9266 31.7514 13.7373 31.6087 13.5843 31.4303L1.26558 17.0849C1.00906 16.7813 0.868714 16.3944 0.870128 15.9946C0.871541 15.5949 1.01462 15.209 1.27328 14.9073L5.7696 9.67805L7.94077 7.1961Z" fill="#FFA800"/>
</svg>
