<svg width="94" height="94" viewBox="0 0 94 94" fill="none" xmlns="http://www.w3.org/2000/svg">
<rect width="94" height="94" rx="47" fill="white"/>
<path fill-rule="evenodd" clip-rule="evenodd" d="M17.5765 53.2972C16.4189 47.4778 17.013 41.4458 19.2836 35.964C21.5543 30.4822 25.3994 25.7969 30.3329 22.5004C35.2664 19.204 41.0666 17.4445 47 17.4445C52.9334 17.4445 58.7336 19.204 63.6671 22.5005C68.6006 25.7969 72.4457 30.4822 74.7164 35.964C76.987 41.4458 77.5811 47.4778 76.4235 53.2972C75.266 59.1167 72.4088 64.4621 68.2132 68.6577L58.4708 58.9154C60.7396 56.6466 62.2846 53.7561 62.9105 50.6093C63.5364 47.4625 63.2152 44.2008 61.9874 41.2365C60.7596 38.2723 58.6803 35.7388 56.0126 33.9562C53.3448 32.1737 50.2084 31.2223 47 31.2223C43.7916 31.2223 40.6551 32.1737 37.9874 33.9562C35.3197 35.7388 33.2405 38.2723 32.0126 41.2365C30.7848 44.2008 30.4636 47.4625 31.0895 50.6093C31.7154 53.7561 33.2604 56.6466 35.5292 58.9154L25.7868 68.6577C21.5912 64.4621 18.734 59.1167 17.5765 53.2972Z" fill="black"/>
<path d="M40.2178 39.9563L40.2178 76.0863C45.9955 77.1974 50.334 76.7778 55.8895 75L49.8916 52.5323L55.6959 56.4019L44.0873 9.0001L44.0873 41.8911L40.2178 39.9563Z" fill="url(#paint0_radial_1408_17863)"/>
<path d="M40.2178 39.9568L40.2178 76.0967C45.9955 77.2078 50.334 76.7783 55.8895 75.0005L49.8916 52.5328L55.6959 56.4024L40.2178 39.9568Z" fill="url(#paint1_linear_1408_17863)"/>
<defs>
<radialGradient id="paint0_radial_1408_17863" cx="0" cy="0" r="1" gradientUnits="userSpaceOnUse" gradientTransform="translate(52.7938 35.1195) rotate(135) scale(12.3128 13.938)">
<stop stop-color="#F0C101"/>
<stop offset="0.325441" stop-color="#EFB502"/>
<stop offset="0.599319" stop-color="#ED8C07"/>
<stop offset="0.813206" stop-color="#EB5F0D"/>
<stop offset="1" stop-color="#E65808"/>
</radialGradient>
<linearGradient id="paint1_linear_1408_17863" x1="48.334" y1="76.7783" x2="48.334" y2="36.3339" gradientUnits="userSpaceOnUse">
<stop stop-color="#FF5E03"/>
<stop offset="1" stop-color="#FFE600"/>
</linearGradient>
</defs>
</svg>
