<svg width="67" height="32" viewBox="0 0 67 32" fill="none" xmlns="http://www.w3.org/2000/svg">
<path d="M7.07066 7.1961L12.745 0.585369C12.8979 0.406913 13.0873 0.264246 13.3 0.167224C13.5127 0.0702026 13.7436 0.0211373 13.9768 0.0234165L64.4972 0C64.9296 0.00327928 65.3437 0.1768 65.6521 0.483902C65.8041 0.637365 65.9245 0.819852 66.0065 1.02081C66.0884 1.22176 66.1302 1.43719 66.1295 1.65463V30.3454C66.1264 30.7832 65.9534 31.2023 65.6479 31.5119C65.3425 31.8215 64.9292 31.9968 64.4972 32L13.946 31.9922C13.7128 31.9945 13.4819 31.9454 13.2692 31.8484C13.0565 31.7514 12.8671 31.6087 12.7142 31.4303L0.395459 17.0849C0.138942 16.7813 -0.00140269 16.3944 1.05704e-05 15.9946C0.00142383 15.5949 0.144501 15.209 0.403158 14.9073L4.89948 9.67805L7.07066 7.1961Z" fill="#0DCAF0"/>
</svg>
