<svg width="244" height="44" viewBox="0 0 244 44" fill="none" xmlns="http://www.w3.org/2000/svg">
<path d="M64.2663 34.3357C60.0623 34.3357 56.533 33 53.6785 30.3286C50.8499 27.631 49.4356 24.2 49.4356 20.0357C49.4356 15.8452 50.8629 12.4143 53.7174 9.74286C56.546 7.07143 60.1531 5.73571 64.5387 5.73571C67.3673 5.73571 70.0143 6.39048 72.4796 7.7V14.3393C69.9624 12.9512 67.4841 12.2571 65.0448 12.2571C62.5795 12.2571 60.5553 12.9905 58.9724 14.4571C57.4153 15.9238 56.6368 17.8226 56.6368 20.1536C56.6368 22.5893 57.3764 24.5143 58.8556 25.9286C60.3348 27.3429 62.1383 28.05 64.2663 28.05C66.0828 28.05 67.523 27.6179 68.587 26.7536V17.7571H75.6326V29.975C74.5426 31.1798 72.9726 32.2143 70.9225 33.0786C68.8206 33.9167 66.6018 34.3357 64.2663 34.3357Z" fill="black"/>
<path d="M101 33.7857H79.9804V6.28571H100.689V12.4929H86.987V16.225H97.8862V22.1964H86.987V27.5786H101V33.7857Z" fill="black"/>
<path d="M111.845 33.7857H104.955V6.28571H110.95L122.861 21.4107V6.28571H129.712V33.7857H123.912L111.845 18.5821V33.7857Z" fill="black"/>
<path d="M141.916 33.7857H134.91V6.28571H141.916V16.0679H152.193V6.28571H159.199V33.7857H152.193V22.3536H141.916V33.7857Z" fill="black"/>
<path d="M169.585 33.7857H162.189L173.633 6.12857H180.368L191.812 33.7857H184.299L182.002 27.9714H171.882L169.585 33.7857ZM176.942 14.9679L174.1 22.3143H179.784L176.942 14.9679Z" fill="black"/>
<path d="M194.468 22.275V6.28571H201.475V22.6286C201.475 24.3048 201.929 25.5881 202.837 26.4786C203.746 27.369 204.939 27.8143 206.419 27.8143C207.924 27.8143 209.117 27.3821 210 26.5179C210.908 25.6274 211.362 24.331 211.362 22.6286V6.28571H218.369V22.275C218.369 26.0988 217.24 29.0714 214.982 31.1929C212.699 33.2881 209.844 34.3357 206.419 34.3357C202.993 34.3357 200.138 33.2881 197.855 31.1929C195.597 29.0714 194.468 26.0988 194.468 22.275Z" fill="black"/>
<path d="M232.867 34.3357C228.663 34.3357 225.147 33.3536 222.318 31.3893V24.1607C223.408 25.1821 224.965 26.0726 226.989 26.8321C228.936 27.5655 230.804 27.9321 232.595 27.9321C235.371 27.9321 236.76 27.2119 236.76 25.7714C236.76 25.1952 236.41 24.6583 235.709 24.1607C235.553 24.0298 234.969 23.794 233.957 23.4536L231.505 22.7071L229.52 22.1179L227.729 21.4107C226.925 21.0964 226.328 20.8083 225.938 20.5464C224.537 19.4988 223.655 18.6607 223.292 18.0321C222.643 16.775 222.318 15.4262 222.318 13.9857C222.318 11.3667 223.266 9.3369 225.16 7.89643C227.08 6.45595 229.701 5.73571 233.023 5.73571C236.345 5.73571 239.42 6.49524 242.248 8.01429V14.8107C241.029 14.0512 239.588 13.4226 237.928 12.925C236.215 12.4012 234.606 12.1393 233.101 12.1393C230.713 12.1393 229.52 12.7417 229.52 13.9464C229.52 14.4702 229.896 14.8893 230.649 15.2036L231.894 15.6357C232.18 15.7405 232.789 15.9238 233.724 16.1857C234.658 16.4476 235.294 16.631 235.631 16.7357C238.226 17.6 240.276 18.6869 241.781 19.9964C243.26 21.2798 244 23.1131 244 25.4964C244 28.1679 242.962 30.3155 240.886 31.9393C238.836 33.5369 236.163 34.3357 232.867 34.3357Z" fill="black"/>
<path d="M37.9525 17.3148L18.9763 0L0 17.3148H3.02813V37.6852H14.6359V43.93L18.1279 31.958H11.1031L17.3685 17.3148H26.1969L20.2163 27.2374H27.0513L19.3003 37.6852H34.9244V17.3148H37.9525Z" fill="#FFD12E"/>
<path d="M14.6359 43.9725L14.7304 43.845L14.6359 44V43.9725Z" fill="#FFD12E"/>
</svg>
