<svg width="127" height="32" viewBox="0 0 127 32" fill="none" xmlns="http://www.w3.org/2000/svg">
<path d="M7.07066 7.1961L12.745 0.585369C12.8979 0.406913 13.0873 0.264246 13.3 0.167224C13.5127 0.0702026 13.7436 0.0211373 13.9768 0.0234165L124.497 0C124.93 0.00327928 125.344 0.1768 125.652 0.483902C125.804 0.637365 125.925 0.819851 126.006 1.02081C126.088 1.22176 126.13 1.43719 126.129 1.65463V30.3454C126.126 30.7832 125.953 31.2023 125.648 31.5119C125.343 31.8215 124.929 31.9968 124.497 32L13.946 31.9922C13.7128 31.9945 13.4819 31.9454 13.2692 31.8484C13.0565 31.7514 12.8671 31.6087 12.7142 31.4303L0.395459 17.0849C0.138942 16.7813 -0.00140269 16.3944 1.05704e-05 15.9946C0.00142383 15.5949 0.144501 15.209 0.403158 14.9073L4.89948 9.67805L7.07066 7.1961Z" fill="black"/>
</svg>
