<svg width="20" height="20" viewBox="0 0 20 20" fill="none" xmlns="http://www.w3.org/2000/svg">
<path d="M2 8.79855C2.66667 11.8641 4.1 17.9953 4.5 17.9953H15C16 14.607 18 8.38251 18 7.99528C18 7.82334 16.0444 7.75171 13.5 7.99525C10.9673 8.23768 7.85125 8.14544 5.5 8.41353C3.56338 8.63435 2.14561 8.79855 2 8.79855Z" fill="#111111"/>
<path d="M4.5 17.9953C4.1 17.9953 2.66667 11.8641 2 8.79855C2.14561 8.79855 3.56338 8.63435 5.5 8.41353C7.85125 8.14544 10.9673 8.23768 13.5 7.99525C16.0444 7.75171 18 7.82334 18 7.99528C18 8.38251 16 14.607 15 17.9953M4.5 17.9953C4.9 17.9953 11.6667 17.9953 15 17.9953M4.5 17.9953H15" stroke="#111111" stroke-width="1.25" stroke-linecap="round" stroke-linejoin="round"/>
<path d="M8.50151 2.02812C5.30151 2.41535 5.16818 6.45047 5.50151 8.41962C7.85276 8.15153 10.9688 8.24377 13.5015 8.00134C13.1682 5.99685 11.7015 1.64089 8.50151 2.02812Z" stroke="black" stroke-width="1.2" stroke-linecap="round" stroke-linejoin="round"/>
</svg>
