<svg width="20" height="20" viewBox="0 0 20 20" fill="none" xmlns="http://www.w3.org/2000/svg">
<path fill-rule="evenodd" clip-rule="evenodd" d="M11.5453 4.4456C10.7901 3.23939 9.81985 2.49407 8.57509 2.6447C7.30647 2.79822 6.62211 3.6468 6.27356 4.80663C5.98621 5.76285 5.95835 6.85994 6.04103 7.73385C7.09555 7.64265 8.25802 7.60613 9.41364 7.57223C9.46946 7.57059 9.52527 7.56896 9.58106 7.56733C10.6661 7.53562 11.7434 7.50413 12.7468 7.43271C12.5301 6.52876 12.138 5.39242 11.5453 4.4456ZM14.005 7.32545C13.7748 6.2946 13.3272 4.93618 12.6048 3.78229C11.7432 2.4062 10.3802 1.16715 8.42492 1.40376C6.49354 1.63747 5.51124 3.00007 5.07645 4.44688C4.73002 5.59969 4.70235 6.87049 4.7981 7.86678C4.77974 7.86887 4.76143 7.87096 4.74319 7.87305C4.0639 7.95061 3.47268 8.01812 3.00901 8.06991C2.70201 8.10419 2.45292 8.13136 2.27218 8.14991C2.11781 8.16575 2.03814 8.17245 2.01088 8.17475C2.00238 8.17546 2.00001 8.17575 2.00001 8.17575C1.81093 8.17575 1.63201 8.26135 1.51337 8.40857C1.39472 8.55579 1.3491 8.7488 1.38928 8.93356C1.72352 10.4705 2.25034 12.7779 2.74462 14.7041C2.99128 15.6653 3.23256 16.5423 3.43961 17.1836C3.54214 17.5012 3.64219 17.7797 3.73592 17.9863C3.78121 18.0861 3.83712 18.1965 3.90487 18.2913C3.93821 18.338 3.99125 18.4049 4.06657 18.4658C4.13674 18.5225 4.28648 18.6225 4.50001 18.6225H15C15.277 18.6225 15.521 18.4401 15.5994 18.1744C15.9849 16.8685 16.5193 15.1399 17.0314 13.4837C17.1817 12.9975 17.3301 12.5174 17.4723 12.0562C17.7848 11.0422 18.0671 10.1184 18.2715 9.42314C18.3735 9.07604 18.4575 8.7815 18.5163 8.55937C18.5456 8.44883 18.5701 8.35081 18.5877 8.27067C18.6 8.21456 18.625 8.10102 18.625 7.99748C18.625 7.66359 18.3896 7.48987 18.3228 7.44558C18.2344 7.38692 18.1458 7.35642 18.0944 7.34063C17.9827 7.30635 17.853 7.28518 17.73 7.27025C17.4742 7.23918 17.1244 7.22129 16.7111 7.2167C16.0024 7.20883 15.065 7.23976 14.005 7.32545Z" fill="#111111"/>
</svg>
