<svg width="20" height="20" viewBox="0 0 20 20" fill="none" xmlns="http://www.w3.org/2000/svg">
<g id="basket-drawn">
<path id="Vector 30 (Stroke)" fill-rule="evenodd" clip-rule="evenodd" d="M11.5453 4.44798C10.7901 3.24177 9.81985 2.49645 8.57509 2.64708C7.30647 2.8006 6.62211 3.64918 6.27356 4.80901C5.98621 5.76523 5.95835 6.86232 6.04103 7.73623C7.09555 7.64503 8.25802 7.60851 9.41364 7.57461C9.46946 7.57298 9.52527 7.57134 9.58106 7.56971C10.6661 7.538 11.7434 7.50651 12.7468 7.43509C12.5301 6.53114 12.138 5.3948 11.5453 4.44798ZM14.005 7.32783C13.7748 6.29698 13.3272 4.93856 12.6048 3.78467C11.7432 2.40858 10.3802 1.16953 8.42492 1.40614C6.49354 1.63985 5.51124 3.00245 5.07645 4.44926C4.73002 5.60207 4.70235 6.87287 4.7981 7.86916C4.77974 7.87125 4.76143 7.87334 4.74319 7.87543C4.0639 7.95299 3.47268 8.0205 3.00901 8.07229C2.70201 8.10657 2.45292 8.13374 2.27218 8.15229C2.11781 8.16813 2.03814 8.17483 2.01088 8.17713C2.00238 8.17784 1.99898 8.17813 2.00001 8.17813C1.81093 8.17813 1.63201 8.26373 1.51337 8.41095C1.39472 8.55817 1.3491 8.75118 1.38928 8.93594C1.72352 10.4729 2.25034 12.7803 2.74462 14.7064C2.99128 15.6676 3.23256 16.5447 3.43961 17.186C3.54214 17.5035 3.64219 17.782 3.73592 17.9886C3.78121 18.0885 3.83712 18.1989 3.90487 18.2937C3.93821 18.3403 3.99125 18.4073 4.06657 18.4682C4.13674 18.5249 4.28648 18.6249 4.50001 18.6249H15C15.277 18.6249 15.521 18.4425 15.5994 18.1768C15.9849 16.8708 16.5193 15.1423 17.0314 13.4861C17.1817 12.9998 17.3301 12.5198 17.4723 12.0585C17.7848 11.0446 18.0671 10.1208 18.2715 9.42552C18.3735 9.07842 18.4575 8.78388 18.5163 8.56175C18.5456 8.45121 18.5701 8.35319 18.5877 8.27305C18.6 8.21694 18.625 8.1034 18.625 7.99986C18.625 7.66597 18.3896 7.49225 18.3228 7.44796C18.2344 7.3893 18.1458 7.3588 18.0944 7.34301C17.9827 7.30873 17.853 7.28756 17.73 7.27263C17.4742 7.24156 17.1244 7.22367 16.7111 7.21908C16.0024 7.21121 15.065 7.24214 14.005 7.32783ZM16.6972 8.469C15.9154 8.46032 14.8128 8.50202 13.5596 8.62199C12.3253 8.74012 10.9597 8.78 9.63411 8.8187C9.57275 8.82049 9.51147 8.82228 9.45029 8.82407C8.05534 8.86499 6.71558 8.90856 5.57081 9.03908C5.33454 9.06602 5.10586 9.09214 4.88621 9.11722C4.20647 9.19484 3.61306 9.2626 3.14775 9.31456C3.0074 9.33024 2.87829 9.34452 2.76166 9.35724C3.08963 10.8357 3.53511 12.7579 3.95539 14.3957C4.2004 15.3505 4.43412 16.1978 4.62915 16.8019C4.70742 17.0444 4.77574 17.2358 4.83252 17.3749H14.5337C14.9065 16.127 15.3829 14.5861 15.8391 13.1106C15.9889 12.6259 16.1366 12.1483 16.2777 11.6904C16.5903 10.6763 16.8704 9.75956 17.0723 9.07296C17.1379 8.84975 17.1947 8.65271 17.2413 8.48567C17.0881 8.4772 16.9061 8.47132 16.6972 8.469Z" fill="#111111"/>
</g>
</svg>
