<svg width="14" height="17" viewBox="0 0 14 17" fill="none" xmlns="http://www.w3.org/2000/svg">
<g clip-path="url(#clip0_284_47086)">
<path fill-rule="evenodd" clip-rule="evenodd" d="M7.00705 1.60123C7.31007 1.3773 7.66876 1.3581 7.99289 1.45617C8.4565 1.59645 8.84486 1.83839 9.08225 2.21838C9.32137 2.60116 9.3495 3.03122 9.27663 3.428C9.16359 4.04355 8.78682 4.69982 8.32022 5.31717C8.82249 6.33766 9.62115 7.45522 10.7588 8.42912C11.3473 8.19583 11.9037 8.05093 12.3735 8.0087C12.7309 7.97658 13.1221 7.99559 13.4415 8.15983C13.6123 8.24768 13.7764 8.38492 13.8839 8.58673C13.9918 8.78946 14.0163 9.00799 13.9906 9.21221C13.9308 9.68767 13.7151 10.0813 13.3314 10.313C12.9752 10.5281 12.568 10.5457 12.2261 10.4996C11.6462 10.4215 11.0351 10.1323 10.5842 9.81606C10.4867 9.8644 10.3879 9.91564 10.2882 9.96981C9.14384 10.5917 7.97279 11.5444 7.18127 12.7744C7.48774 13.3835 7.74303 13.9874 7.88489 14.5094C7.96355 14.7988 8.01615 15.0942 8.00873 15.3669C8.00151 15.6323 7.93379 15.9662 7.67497 16.216C7.20123 16.6734 6.48281 16.6883 5.96517 16.4379C5.68925 16.3045 5.4356 16.083 5.27554 15.7689C5.11367 15.4513 5.06788 15.0791 5.14372 14.6824C5.27704 13.9851 5.51213 13.3395 5.81972 12.7472C5.16853 11.5689 4.34794 10.3925 3.76181 9.77367C3.69283 9.70084 3.56737 9.58699 3.4048 9.45419C2.55563 9.82576 1.78969 9.95285 1.18568 9.83438C0.831412 9.76489 0.494603 9.60141 0.264576 9.30828C0.0262452 9.00458 -0.0428598 8.63054 0.0244205 8.26351L0.0244214 8.26351C0.0791119 7.96517 0.200227 7.68745 0.419132 7.47649C0.64109 7.26258 0.911282 7.1677 1.1703 7.14323C1.65057 7.09785 2.16472 7.28622 2.58126 7.49054C2.90379 7.64876 3.22868 7.84785 3.52492 8.05197C4.42722 7.51449 5.88575 6.33427 6.93599 5.12863C6.85004 4.90925 6.77631 4.69515 6.7145 4.48824C6.48167 3.70883 6.39763 2.9632 6.52682 2.40055C6.59173 2.11785 6.72837 1.80717 7.00705 1.60123ZM7.80074 3.95527C7.96488 3.67059 8.06862 3.41872 8.1069 3.21026C8.14289 3.01429 8.11094 2.91306 8.0753 2.85601C8.04014 2.79973 7.9486 2.70223 7.69959 2.61876C7.69511 2.63312 7.69043 2.65018 7.68581 2.67029C7.62974 2.91451 7.64321 3.35781 7.80074 3.95527ZM7.48854 6.29606C6.55416 7.29299 5.41256 8.2417 4.51459 8.83944C4.55587 8.87873 4.59209 8.91486 4.62267 8.94714C5.19741 9.55391 5.91733 10.5606 6.54098 11.6102C7.40772 10.4655 8.53011 9.58559 9.59368 8.98752C8.68632 8.13452 7.99063 7.19992 7.48854 6.29606ZM2.15836 8.61681C2.12561 8.59977 2.09289 8.58321 2.06023 8.56719C1.68481 8.38304 1.42035 8.3225 1.28144 8.33563C1.25852 8.33779 1.24609 8.34128 1.2403 8.34352C1.23301 8.35346 1.21087 8.39007 1.19422 8.48087C1.18668 8.52204 1.18989 8.54418 1.19158 8.55193C1.19301 8.55846 1.19466 8.56162 1.19796 8.56582C1.20469 8.5744 1.25337 8.6275 1.41315 8.65884C1.58398 8.69235 1.83423 8.68962 2.15836 8.61681ZM1.23615 8.34564C1.23604 8.34557 1.23681 8.345 1.23877 8.34415C1.23723 8.34529 1.23626 8.34571 1.23615 8.34564ZM6.508 14.1628C6.42683 14.404 6.36078 14.6528 6.31184 14.9088C6.27981 15.0763 6.30805 15.1715 6.33389 15.2222C6.36155 15.2764 6.4093 15.3241 6.48025 15.3584C6.55402 15.3941 6.64041 15.4085 6.71772 15.4007C6.76219 15.3962 6.79465 15.3856 6.81712 15.3746C6.81823 15.364 6.81917 15.3506 6.81962 15.3341C6.82255 15.2267 6.80089 15.0587 6.73751 14.8255C6.6836 14.6271 6.60583 14.404 6.508 14.1628ZM6.81105 15.4087C6.81101 15.4086 6.81126 15.4077 6.81192 15.406C6.81141 15.4079 6.81108 15.4087 6.81105 15.4087ZM12.1253 9.25584C12.2143 9.28202 12.3013 9.30146 12.3838 9.31256C12.5865 9.33986 12.685 9.3068 12.7195 9.28598C12.7197 9.28583 12.72 9.28565 12.7204 9.28544C12.7272 9.28154 12.7549 9.26574 12.7795 9.1997C12.7117 9.19231 12.6138 9.1895 12.4793 9.20159C12.3718 9.21125 12.2533 9.22928 12.1253 9.25584Z" fill="#298FC2"/>
</g>
<defs>
<clipPath id="clip0_284_47086">
<rect width="14" height="16" fill="white" transform="translate(0 1)"/>
</clipPath>
</defs>
</svg>
