<svg width="16" height="16" viewBox="0 0 16 16" fill="none" xmlns="http://www.w3.org/2000/svg">
<path d="M8 1.5C4.41797 1.5 1.5 4.41797 1.5 8C1.5 11.582 4.41797 14.5 8 14.5C11.582 14.5 14.5 11.582 14.5 8C14.5 4.41797 11.582 1.5 8 1.5ZM8 2.5C11.043 2.5 13.5 4.95703 13.5 8C13.5 11.043 11.043 13.5 8 13.5C4.95703 13.5 2.5 11.043 2.5 8C2.5 4.95703 4.95703 2.5 8 2.5ZM6 5.29297L5.29297 6L5.64844 6.35156L7.29297 8L5.64844 9.64844L5.29297 10L6 10.707L6.35156 10.3516L8 8.70703L9.64844 10.3516L10 10.707L10.707 10L10.3516 9.64844L8.70703 8L10.3516 6.35156L10.707 6L10 5.29297L9.64844 5.64844L8 7.29297L6.35156 5.64844L6 5.29297Z" fill="#888888"/>
</svg>
