<svg width="20" height="20" viewBox="0 0 20 20" fill="none" xmlns="http://www.w3.org/2000/svg">
<path d="M3.125 3.75C2.09473 3.75 1.25 4.59473 1.25 5.625V14.375C1.25 15.4004 2.09473 16.25 3.125 16.25H16.875C17.9053 16.25 18.75 15.4053 18.75 14.375V5.625C18.75 4.59473 17.9004 3.75 16.875 3.75H3.125ZM3.125 5H16.875C17.2266 5 17.5 5.27344 17.5 5.625V6.25H2.5V5.625C2.5 5.26855 2.76855 5 3.125 5ZM2.5 7.5H17.5V14.375C17.5 14.7266 17.2266 15 16.875 15H3.125C2.77344 15 2.5 14.7266 2.5 14.375V7.5Z" fill="#111111"/>
</svg>
