<svg width="20" height="20" viewBox="0 0 20 20" fill="none" xmlns="http://www.w3.org/2000/svg">
<g clip-path="url(#clip0_2808_102690)">
<path opacity="0.08" d="M17.5 0H2.5C1.11929 0 0 1.11929 0 2.5V17.5C0 18.8807 1.11929 20 2.5 20H17.5C18.8807 20 20 18.8807 20 17.5V2.5C20 1.11929 18.8807 0 17.5 0Z" fill="#6F99C6"/>
<path fill-rule="evenodd" clip-rule="evenodd" d="M11.5 10C11.5 9.72381 11.7239 9.5 12 9.5C12.8261 9.5 13.5 10.1738 13.5 11C13.5 11.8261 12.8261 12.5 12 12.5C11.7239 12.5 11.5 12.2761 11.5 12C11.5 11.7238 11.7239 11.5 12 11.5C12.2739 11.5 12.5 11.2738 12.5 11C12.5 10.7261 12.2739 10.5 12 10.5C11.7239 10.5 11.5 10.2761 11.5 10Z" fill="#6F99C6"/>
<path fill-rule="evenodd" clip-rule="evenodd" d="M14.6673 12.9997V6.99969C14.6673 6.63151 14.3688 6.33301 14.0006 6.33301H6.00065C5.63246 6.33301 5.33398 6.63151 5.33398 6.99969V12.9997C5.33398 13.3679 5.63246 13.6663 6.00065 13.6663H14.0006C14.3688 13.6663 14.6673 13.3679 14.6673 12.9997ZM6.00065 5.33301C5.08018 5.33301 4.33398 6.0792 4.33398 6.99969V12.9997C4.33398 13.9201 5.08018 14.6663 6.00065 14.6663H14.0006C14.9211 14.6663 15.6673 13.9201 15.6673 12.9997V6.99969C15.6673 6.0792 14.9211 5.33301 14.0006 5.33301H6.00065Z" fill="black"/>
<path fill-rule="evenodd" clip-rule="evenodd" d="M4.66602 7.83301C4.66602 7.55688 4.88988 7.33301 5.16602 7.33301H13.166C13.4422 7.33301 13.666 7.55688 13.666 7.83301C13.666 8.10913 13.4422 8.33301 13.166 8.33301H5.16602C4.88988 8.33301 4.66602 8.10913 4.66602 7.83301Z" fill="black"/>
</g>
<defs>
<clipPath id="clip0_2808_102690">
<rect width="20" height="20" fill="white"/>
</clipPath>
</defs>
</svg>
