<svg width="20" height="20" viewBox="0 0 20 20" fill="none" xmlns="http://www.w3.org/2000/svg">
<g clip-path="url(#clip0_2808_102684)">
<path opacity="0.08" d="M17.5 0H2.5C1.11929 0 0 1.11929 0 2.5V17.5C0 18.8807 1.11929 20 2.5 20H17.5C18.8807 20 20 18.8807 20 17.5V2.5C20 1.11929 18.8807 0 17.5 0Z" fill="#B182BC"/>
<path fill-rule="evenodd" clip-rule="evenodd" d="M8.66666 7.1665C8.86584 7.1665 9.04603 7.28469 9.12534 7.46744L10.1565 9.84338L12.5324 10.8744C12.7151 10.9538 12.8333 11.1339 12.8333 11.3331C12.8333 11.5323 12.7151 11.7125 12.5324 11.7918L10.1565 12.8229L9.12534 15.1989C9.04603 15.3816 8.86584 15.4998 8.66666 15.4998C8.46747 15.4998 8.28728 15.3816 8.20797 15.1989L7.17691 12.8229L4.80094 11.7918C4.61822 11.7125 4.5 11.5323 4.5 11.3331C4.5 11.1339 4.61822 10.9538 4.80094 10.8744L7.17691 9.84338L8.20797 7.46744C8.28728 7.28469 8.46747 7.1665 8.66666 7.1665ZM8.66666 8.92244L8.01566 10.4225C7.96516 10.5388 7.87234 10.6316 7.75603 10.6821L6.25597 11.3331L7.75603 11.9841C7.87234 12.0346 7.96516 12.1274 8.01566 12.2438L8.66666 13.7439L9.31766 12.2438C9.36816 12.1274 9.46097 12.0346 9.57728 11.9841L11.0774 11.3331L9.57728 10.6821C9.46097 10.6316 9.36816 10.5388 9.31766 10.4225L8.66666 8.92244Z" fill="black"/>
<path fill-rule="evenodd" clip-rule="evenodd" d="M12.8327 4.1665C13.0319 4.1665 13.2121 4.28473 13.2913 4.46745L13.8685 5.79735L15.1984 6.3745C15.3811 6.45382 15.4993 6.634 15.4993 6.83319C15.4993 7.03238 15.3811 7.21257 15.1984 7.29182L13.8685 7.869L13.2913 9.19888C13.2121 9.38163 13.0319 9.49982 12.8327 9.49982C12.6335 9.49982 12.4533 9.38163 12.374 9.19888L11.7969 7.869L10.467 7.29182C10.2843 7.21257 10.166 7.03238 10.166 6.83319C10.166 6.634 10.2843 6.45382 10.467 6.3745L11.7969 5.79735L12.374 4.46745C12.4533 4.28473 12.6335 4.1665 12.8327 4.1665ZM12.8327 5.92244L12.6356 6.3765C12.5851 6.49282 12.4923 6.58563 12.376 6.63613L11.922 6.83319L12.376 7.03025C12.4923 7.08069 12.5851 7.1735 12.6356 7.28982L12.8327 7.74388L13.0298 7.28982C13.0802 7.1735 13.173 7.08069 13.2893 7.03025L13.7434 6.83319L13.2893 6.63613C13.173 6.58563 13.0802 6.49282 13.0298 6.3765L12.8327 5.92244Z" fill="#B182BC"/>
</g>
<defs>
<clipPath id="clip0_2808_102684">
<rect width="20" height="20" fill="white"/>
</clipPath>
</defs>
</svg>
