<svg width="20" height="20" viewBox="0 0 20 20" fill="none" xmlns="http://www.w3.org/2000/svg">
<path d="M17.0075 9.67545C17.0088 9.67545 17.0098 9.67545 17.0111 9.67545C17.1003 9.67545 17.1855 9.63801 17.2459 9.57241C17.3074 9.50585 17.3378 9.41657 17.3298 9.32633C17.0085 5.79257 14.2107 2.99385 10.6767 2.67193C10.5871 2.66489 10.4968 2.69401 10.4303 2.75577C10.3637 2.81721 10.3266 2.90393 10.3275 2.99449C10.3832 7.69081 11.0027 9.60985 17.0075 9.67545ZM17.0075 10.3244C11.0027 10.39 10.3835 12.309 10.3279 17.0054C10.3269 17.0959 10.364 17.1826 10.4306 17.2441C10.4901 17.2988 10.5679 17.3292 10.6479 17.3292C10.6575 17.3292 10.6674 17.3289 10.677 17.3279C14.2111 17.006 17.0088 14.2076 17.3298 10.6735C17.3378 10.5833 17.3077 10.494 17.2459 10.4274C17.1842 10.3609 17.0981 10.3279 17.0075 10.3244ZM9.30481 2.67353C5.78193 3.00473 2.99313 5.80281 2.67345 9.32697C2.66545 9.41721 2.69553 9.50649 2.75729 9.57305C2.81777 9.63865 2.90321 9.67577 2.99217 9.67577C2.99345 9.67577 2.99473 9.67577 2.99601 9.67577C8.98097 9.60697 9.59889 7.68889 9.65521 2.99577C9.65617 2.90521 9.61873 2.81817 9.55217 2.75673C9.48497 2.69529 9.39505 2.66521 9.30481 2.67353ZM2.99569 10.3241C2.89617 10.3129 2.81809 10.3602 2.75697 10.4268C2.69553 10.4934 2.66513 10.5826 2.67313 10.6729C2.99281 14.197 5.78193 16.9951 9.30481 17.3263C9.31473 17.3273 9.32497 17.3276 9.33489 17.3276C9.41489 17.3276 9.49233 17.2975 9.55185 17.2428C9.61841 17.1814 9.65585 17.0943 9.65489 17.0038C9.59857 12.311 8.98097 10.3929 2.99569 10.3241Z" fill="white"/>
</svg>
