<svg width="16" height="16" viewBox="0 0 16 16" fill="none" xmlns="http://www.w3.org/2000/svg">
<path fill-rule="evenodd" clip-rule="evenodd" d="M5.16368 1.60146C5.00438 1.59438 4.83663 1.61545 4.70182 1.6503C4.65783 1.66167 4.62955 1.68362 4.60437 1.72592C4.57424 1.77653 4.54994 1.85849 4.54994 1.96182C4.54994 2.20902 4.63297 2.43382 4.7846 2.68035C4.89376 2.85782 5.01371 3.01182 5.15036 3.18725C5.22213 3.27939 5.29851 3.37744 5.38034 3.4879C5.66876 3.87724 5.94834 4.19701 6.30394 4.50664C6.51016 4.68619 6.72963 4.85486 6.95822 5.01705C6.95663 4.69145 6.92327 4.35822 6.83904 4.09696C6.76813 3.87699 6.70759 3.65288 6.65109 3.44368C6.63332 3.37792 6.61596 3.31362 6.59879 3.2514C6.52467 2.98269 6.45013 2.73571 6.35089 2.49808C6.22268 2.19108 5.91128 1.94233 5.50184 1.68255C5.44155 1.64429 5.32889 1.6088 5.16368 1.60146ZM5.97217 5.52211C5.86736 5.43945 5.76382 5.35404 5.66218 5.26554C5.23959 4.89759 4.91237 4.52046 4.59257 4.08876C4.54133 4.01959 4.48193 3.94314 4.41867 3.8617C4.26419 3.66285 4.08665 3.43432 3.94855 3.20979C3.73905 2.86916 3.56444 2.46012 3.56444 1.96182C3.56444 1.48848 3.79017 0.854017 4.45854 0.681248C4.67875 0.624327 4.94308 0.590699 5.2068 0.60242C5.4646 0.613878 5.7659 0.670689 6.02433 0.834663C6.42656 1.08987 6.99656 1.48122 7.25828 2.1079C7.38283 2.40612 7.47089 2.70297 7.54782 2.98185C7.56812 3.05544 7.58743 3.12691 7.60635 3.19691C7.61263 3.22016 7.61887 3.24325 7.62509 3.2662C7.70438 3.10725 7.77957 2.95573 7.8499 2.80121C8.08541 2.28375 8.58234 1.69542 9.04165 1.37881C9.32293 1.18492 9.7088 0.958201 10.1894 0.958201C10.2009 0.958201 10.2138 0.958125 10.2282 0.958041C10.3629 0.957253 10.6188 0.955757 10.8525 1.00981C11.099 1.06685 11.5414 1.24379 11.6134 1.76476C11.7987 3.10556 11.1674 4.23753 10.279 5.01999C10.2423 5.05237 10.2055 5.08497 10.1685 5.1177C10.0592 5.21452 9.94872 5.31243 9.83436 5.40883C11.0458 5.39137 12.1411 5.39846 12.9545 5.445C13.3872 5.46976 13.7605 5.50668 14.034 5.56246C14.1663 5.58944 14.3078 5.62703 14.4277 5.68655C14.5029 5.72394 14.7992 5.88185 14.7992 6.23983C14.7992 6.87474 14.4971 12.1807 14.3478 14.7298C14.3324 14.9939 14.1167 15.2001 13.8559 15.2001H1.69197C1.41983 15.2001 1.19922 14.9762 1.19922 14.7001V6.23983C1.19922 5.97534 1.40222 5.7566 1.66242 5.74073C2.85596 5.66796 4.3883 5.58689 5.97217 5.52211ZM7.36567 6.47068C5.53276 6.53236 3.65672 6.62526 2.18473 6.71129V9.98514C2.20665 9.98175 2.22906 9.97982 2.25185 9.97945L7.36095 9.89809V6.54014C7.36095 6.51657 7.36256 6.49338 7.36567 6.47068ZM7.36696 10.8981L2.26732 10.9793C2.23921 10.9798 2.21162 10.9778 2.18473 10.9737V14.2001H7.41605C7.39671 14.0765 7.42428 13.9508 7.49054 13.8479C7.49273 13.8313 7.49488 13.8115 7.49685 13.7881C7.50765 13.6598 7.50873 13.4798 7.50354 13.2785C7.49845 13.0808 7.4878 12.8778 7.47816 12.7083C7.47653 12.6796 7.47485 12.6507 7.47319 12.6224C7.46596 12.4982 7.45926 12.3831 7.45926 12.3261C7.45926 12.0735 7.43695 11.8142 7.41201 11.5269L7.41155 11.5215C7.39442 11.3243 7.37615 11.1138 7.36696 10.8981ZM8.42042 14.2001C8.42492 14.1862 8.42877 14.1731 8.43209 14.161C8.45819 14.0664 8.47119 13.9634 8.47879 13.8732C8.49438 13.6878 8.49414 13.4629 8.48871 13.2524C8.4832 13.0382 8.47179 12.8224 8.46203 12.6507C8.46001 12.6151 8.45809 12.582 8.45631 12.5513C8.45369 12.5062 8.45137 12.466 8.44942 12.4303C8.44781 12.4007 8.44659 12.3765 8.44578 12.3574L8.44495 12.3346C8.44478 12.3286 8.44477 12.3261 8.44477 12.3261C8.44477 12.0271 8.41884 11.7285 8.39497 11.4536L8.39371 11.4391C8.37684 11.2448 8.36112 11.0613 8.35275 10.8824L13.5258 10.8C13.5461 10.7997 13.566 10.7981 13.5856 10.7954C13.5185 11.9989 13.448 13.2293 13.3915 14.2001H8.42042ZM13.6398 9.81548C13.5985 9.8048 13.555 9.79945 13.5103 9.80016L8.34646 9.8824V6.54014C8.34646 6.50618 8.34312 6.47301 8.33676 6.44095C8.76136 6.42932 9.17916 6.4198 9.58432 6.41289C10.8954 6.3905 12.0635 6.3956 12.899 6.44341C13.2975 6.46621 13.6023 6.49784 13.8058 6.53618C13.7836 7.12645 13.7178 8.39254 13.6398 9.81548ZM7.98155 5.33538C8.11626 5.29372 8.24167 5.24647 8.27957 5.23124C8.75439 5.04031 9.08653 4.74713 9.54456 4.34282C9.57351 4.31726 9.60297 4.29126 9.633 4.26481C10.3279 3.65276 10.7372 2.8646 10.6476 1.98828C10.6433 1.98714 10.6385 1.98597 10.6334 1.98479C10.5171 1.95789 10.375 1.95803 10.2236 1.95818C10.2123 1.95819 10.2009 1.9582 10.1894 1.9582C10.0178 1.9582 9.83983 2.03753 9.59543 2.206C9.28145 2.42243 8.90372 2.87087 8.7446 3.22048C8.66149 3.4031 8.5722 3.58196 8.48766 3.75131C8.47557 3.77553 8.46358 3.79955 8.45172 3.82336C8.35506 4.01737 8.26526 4.20067 8.18598 4.38632C8.0908 4.60921 8.06338 4.78428 8.01854 5.07067C8.01147 5.11582 8.00397 5.16372 7.9957 5.21502C7.99582 5.21431 7.99476 5.22157 7.99224 5.24263C7.98995 5.26177 7.98728 5.28516 7.98418 5.31233L7.98391 5.31467C7.98315 5.32137 7.98236 5.32829 7.98155 5.33538Z" fill="#111111"/>
</svg>
