<svg width="20" height="20" viewBox="0 0 20 20" fill="none" xmlns="http://www.w3.org/2000/svg">
<path fill-rule="evenodd" clip-rule="evenodd" d="M6.14449 2.68535C5.71356 2.56218 5.23581 2.6086 4.67797 3.00706C3.03162 4.18303 2.64146 5.18406 2.62551 5.94594C2.60959 6.70611 2.94663 7.37312 3.28036 8.03358C3.31161 8.09541 3.34282 8.15718 3.37372 8.21897C3.6172 8.70595 4.98133 11.3103 6.52836 13.7237C7.30385 14.9334 8.10983 16.0707 8.83243 16.8678C9.19558 17.2684 9.51519 17.5577 9.77928 17.7293C9.97066 17.8537 10.0817 17.8836 10.1315 17.8904C11.4967 17.1816 12.8966 15.9043 14.1022 14.5781C15.3274 13.2304 16.3085 11.8811 16.7946 11.1518C16.9835 10.8685 17.2126 10.2971 17.3938 9.52721C17.5712 8.77302 17.6897 7.88362 17.6897 6.99849C17.6897 5.15942 17.1895 3.6347 16.0351 3.05749C15.6253 2.85258 15.2043 2.85885 14.7411 3.04757C14.2587 3.24418 13.7489 3.63488 13.2423 4.16692C12.2308 5.22941 11.3653 6.71364 10.8822 7.76039C10.7748 7.99314 10.5361 8.1367 10.2801 8.12252C10.0242 8.10835 9.80284 7.93931 9.72177 7.69612C9.3179 6.4845 8.55091 4.82289 7.58317 3.72406C7.09929 3.17463 6.61119 2.81875 6.14449 2.68535ZM10.3973 5.98192C9.93564 4.93011 9.29789 3.77977 8.52123 2.8979C7.95927 2.25982 7.27862 1.70946 6.48803 1.48348C5.66166 1.24728 4.79358 1.38835 3.95142 1.98989C2.09778 3.31393 1.40253 4.64207 1.37578 5.91978C1.35291 7.01222 1.83734 7.95902 2.1595 8.58864C2.19365 8.65539 2.22597 8.71857 2.25568 8.77798C2.51219 9.29101 3.89805 11.9366 5.47602 14.3983C6.26303 15.626 7.1133 16.8325 7.90633 17.7073C8.30099 18.1427 8.70404 18.5213 9.09816 18.7774C9.47317 19.0211 9.95973 19.2315 10.4663 19.1048C10.5105 19.0938 10.5534 19.0779 10.5942 19.0575C12.1987 18.2552 13.7611 16.8115 15.0272 15.4189C16.302 14.0166 17.3209 12.6159 17.8347 11.8452C18.1458 11.3785 18.4167 10.6374 18.6106 9.81351C18.8081 8.97396 18.9397 7.98835 18.9397 6.99848C18.9397 5.08755 18.4398 2.86227 16.5942 1.93946C15.804 1.54437 15.0001 1.59226 14.2694 1.89C13.5582 2.17984 12.9055 2.70789 12.337 3.30502C11.579 4.10126 10.9114 5.08367 10.3973 5.98192Z" fill="#111111"/>
</svg>
