<svg style="display: none;" aria-hidden="true" xmlns="http://www.w3.org/2000/svg" xmlns:xlink="http://www.w3.org/1999/xlink"><symbol viewBox="0 0 16 16" id="svg-arrow-left"><path d="M5.80078 3.52734L1.46484 8L5.80078 12.4727L6.51953 11.7774L3.35156 8.50782H14.5352V7.50782H3.33203L6.51953 4.22266L5.80078 3.52734Z"/></symbol><symbol viewBox="0 0 16 16" id="svg-arrow-right"><path d="M10.2109 3.55078L9.49608 4.25L12.668 7.5H1.45312V8.5H12.668L9.4961 11.75L10.2109 12.4492L14.5508 8L10.2109 3.55078Z"/></symbol><symbol viewBox="0 0 20 20" id="svg-basket"><path d="M2 8.79855C2.66667 11.8641 4.1 17.9953 4.5 17.9953H15C16 14.607 18 8.38251 18 7.99528C18 7.82334 16.0444 7.75171 13.5 7.99525C10.9673 8.23768 7.85125 8.14544 5.5 8.41353C3.56338 8.63435 2.14561 8.79855 2 8.79855Z"/><path d="M4.5 17.9953C4.1 17.9953 2.66667 11.8641 2 8.79855C2.14561 8.79855 3.56338 8.63435 5.5 8.41353C7.85125 8.14544 10.9673 8.23768 13.5 7.99525C16.0444 7.75171 18 7.82334 18 7.99528C18 8.38251 16 14.607 15 17.9953M4.5 17.9953C4.9 17.9953 11.6667 17.9953 15 17.9953M4.5 17.9953H15" stroke="#111" stroke-width="1.25" stroke-linecap="round" stroke-linejoin="round"/><path d="M8.50151 2.02812C5.30151 2.41535 5.16818 6.45047 5.50151 8.41962C7.85276 8.15153 10.9688 8.24377 13.5015 8.00134C13.1682 5.99685 11.7015 1.64089 8.50151 2.02812Z" fill="#fff" stroke="#111" stroke-width="1.25" stroke-linecap="round" stroke-linejoin="round"/></symbol><symbol viewBox="0 0 16 16" fill="none" id="svg-gift"><path fill-rule="evenodd" clip-rule="evenodd" d="M5.16368 1.60146C5.00438 1.59438 4.83663 1.61545 4.70182 1.6503C4.65783 1.66167 4.62955 1.68362 4.60437 1.72592C4.57424 1.77653 4.54994 1.85849 4.54994 1.96182C4.54994 2.20902 4.63297 2.43382 4.7846 2.68035C4.89376 2.85782 5.01371 3.01182 5.15036 3.18725C5.22213 3.27939 5.29851 3.37744 5.38034 3.4879C5.66876 3.87724 5.94834 4.19701 6.30394 4.50664C6.51016 4.68619 6.72963 4.85486 6.95822 5.01705C6.95663 4.69145 6.92327 4.35822 6.83904 4.09696C6.76813 3.87699 6.70759 3.65288 6.65109 3.44368C6.63332 3.37792 6.61596 3.31362 6.59879 3.2514C6.52467 2.98269 6.45013 2.73571 6.35089 2.49808C6.22268 2.19108 5.91128 1.94233 5.50184 1.68255C5.44155 1.64429 5.32889 1.6088 5.16368 1.60146ZM5.97217 5.52211C5.86736 5.43945 5.76382 5.35404 5.66218 5.26554C5.23959 4.89759 4.91237 4.52046 4.59257 4.08876C4.54133 4.01959 4.48193 3.94314 4.41867 3.8617C4.26419 3.66285 4.08665 3.43432 3.94855 3.20979C3.73905 2.86916 3.56444 2.46012 3.56444 1.96182C3.56444 1.48848 3.79017 0.854017 4.45854 0.681248C4.67875 0.624327 4.94308 0.590699 5.2068 0.60242C5.4646 0.613878 5.7659 0.670689 6.02433 0.834663C6.42656 1.08987 6.99656 1.48122 7.25828 2.1079C7.38283 2.40612 7.47089 2.70297 7.54782 2.98185C7.56812 3.05544 7.58743 3.12691 7.60635 3.19691C7.61263 3.22016 7.61887 3.24325 7.62509 3.2662C7.70438 3.10725 7.77957 2.95573 7.8499 2.80121C8.08541 2.28375 8.58234 1.69542 9.04165 1.37881C9.32293 1.18492 9.7088 0.958201 10.1894 0.958201C10.2009 0.958201 10.2138 0.958125 10.2282 0.958041C10.3629 0.957253 10.6188 0.955757 10.8525 1.00981C11.099 1.06685 11.5414 1.24379 11.6134 1.76476C11.7987 3.10556 11.1674 4.23753 10.279 5.01999C10.2423 5.05237 10.2055 5.08497 10.1685 5.1177C10.0592 5.21452 9.94872 5.31243 9.83436 5.40883C11.0458 5.39137 12.1411 5.39846 12.9545 5.445C13.3872 5.46976 13.7605 5.50668 14.034 5.56246C14.1663 5.58944 14.3078 5.62702 14.4277 5.68655C14.5029 5.72394 14.7992 5.88185 14.7992 6.23983C14.7992 6.87474 14.4971 12.1807 14.3478 14.7298C14.3324 14.9939 14.1167 15.2001 13.8559 15.2001H1.69197C1.41983 15.2001 1.19922 14.9762 1.19922 14.7001V6.23983C1.19922 5.97534 1.40222 5.7566 1.66242 5.74073C2.85596 5.66796 4.3883 5.58689 5.97217 5.52211ZM7.36567 6.47068C5.53276 6.53236 3.65672 6.62526 2.18473 6.71129V9.98514C2.20665 9.98175 2.22906 9.97982 2.25185 9.97946L7.36095 9.89809V6.54014C7.36095 6.51657 7.36256 6.49338 7.36567 6.47068ZM7.36696 10.8981L2.26732 10.9793C2.23921 10.9798 2.21162 10.9778 2.18473 10.9737V14.2001H7.41605C7.39671 14.0765 7.42428 13.9508 7.49054 13.8479C7.49273 13.8313 7.49488 13.8115 7.49685 13.7881C7.50765 13.6598 7.50873 13.4798 7.50354 13.2785C7.49845 13.0808 7.4878 12.8778 7.47816 12.7083C7.47653 12.6796 7.47485 12.6507 7.47319 12.6224C7.46596 12.4982 7.45926 12.3831 7.45926 12.3261C7.45926 12.0735 7.43695 11.8142 7.41201 11.5269L7.41155 11.5215C7.39442 11.3243 7.37615 11.1138 7.36696 10.8981ZM8.42042 14.2001C8.42492 14.1862 8.42877 14.1731 8.43209 14.161C8.45819 14.0664 8.47119 13.9634 8.47879 13.8732C8.49438 13.6878 8.49414 13.4629 8.48871 13.2524C8.4832 13.0382 8.47179 12.8224 8.46203 12.6507C8.46001 12.6151 8.45809 12.582 8.45631 12.5513C8.45369 12.5062 8.45137 12.466 8.44942 12.4303C8.44781 12.4007 8.44659 12.3765 8.44578 12.3574L8.44495 12.3346C8.44478 12.3286 8.44477 12.3261 8.44477 12.3261C8.44477 12.0271 8.41884 11.7285 8.39497 11.4536L8.39371 11.4391C8.37684 11.2448 8.36112 11.0613 8.35275 10.8824L13.5258 10.8C13.5461 10.7997 13.566 10.7981 13.5856 10.7954C13.5185 11.9989 13.448 13.2293 13.3915 14.2001H8.42042ZM13.6398 9.81548C13.5985 9.8048 13.5551 9.79945 13.5103 9.80016L8.34646 9.8824V6.54014C8.34646 6.50618 8.34312 6.47301 8.33676 6.44095C8.76136 6.42932 9.17916 6.4198 9.58432 6.41289C10.8954 6.3905 12.0635 6.3956 12.899 6.44341C13.2975 6.46621 13.6023 6.49784 13.8058 6.53618C13.7836 7.12645 13.7178 8.39254 13.6398 9.81548ZM7.98155 5.33538C8.11626 5.29372 8.24167 5.24647 8.27957 5.23123C8.75439 5.04031 9.08653 4.74713 9.54456 4.34282C9.57351 4.31726 9.60297 4.29126 9.633 4.26481C10.3279 3.65276 10.7372 2.8646 10.6476 1.98828C10.6433 1.98714 10.6385 1.98597 10.6334 1.98479C10.5171 1.95789 10.375 1.95803 10.2236 1.95818C10.2123 1.95819 10.2009 1.9582 10.1894 1.9582C10.0178 1.9582 9.83983 2.03753 9.59543 2.206C9.28145 2.42243 8.90372 2.87087 8.7446 3.22048C8.66149 3.4031 8.5722 3.58196 8.48766 3.75131C8.47557 3.77553 8.46358 3.79955 8.45172 3.82336C8.35506 4.01737 8.26526 4.20067 8.18598 4.38632C8.0908 4.60921 8.06338 4.78428 8.01854 5.07067C8.01147 5.11582 8.00397 5.16372 7.9957 5.21502C7.99582 5.21431 7.99476 5.22157 7.99224 5.24263C7.98995 5.26177 7.98728 5.28516 7.98418 5.31233L7.98391 5.31467C7.98315 5.32137 7.98236 5.32829 7.98155 5.33538Z" fill="#298FC2"/></symbol><symbol viewBox="0 0 20 20" id="svg-heart"><path d="M10.3147 18.4984C8.3147 18.9984 3.31471 9.49841 2.81472 8.4984C2.14391 7.15675 0.814716 4.9984 4.31472 2.4984C7.11472 0.498399 9.48138 4.9984 10.3147 7.4984C11.3147 5.33173 13.9147 1.29839 16.3147 2.4984C19.3147 3.99841 18.3147 9.9984 17.3147 11.4984C16.3147 12.9984 13.3147 16.9984 10.3147 18.4984Z" stroke="#111" stroke-width="1.25" stroke-linecap="round" stroke-linejoin="round"/></symbol><symbol viewBox="0 0 16 17" fill="none" id="svg-info"><path d="M8 2C4.41797 2 1.5 4.91797 1.5 8.5C1.5 12.082 4.41797 15 8 15C11.582 15 14.5 12.082 14.5 8.5C14.5 4.91797 11.582 2 8 2ZM8 3C11.043 3 13.5 5.45703 13.5 8.5C13.5 11.543 11.043 14 8 14C4.95703 14 2.5 11.543 2.5 8.5C2.5 5.45703 4.95703 3 8 3ZM7.5 5V6H8.5V5H7.5ZM7.5 7V12H8.5V7H7.5Z" fill="#298FC2"/></symbol><symbol viewBox="0 0 20 20" id="svg-search"><path fill-rule="evenodd" clip-rule="evenodd" d="M8.41301 2.53559C7.08885 2.27235 5.41645 2.45671 3.75094 3.66298C2.52901 4.54798 2.21285 5.82662 2.30311 7.05419C2.34839 7.67016 2.49681 8.256 2.67592 8.73488C2.85993 9.22688 3.05801 9.55777 3.17189 9.68948L3.18075 9.69972L3.18063 9.69981C3.23723 9.76821 3.29306 9.83589 3.34826 9.9028C3.7347 10.3712 4.08995 10.8019 4.45775 11.1771C4.87532 11.6031 5.27486 11.9207 5.69325 12.111C6.45888 12.4591 7.47854 12.4635 9.14277 11.3318C11.2039 9.9302 11.7578 8.44891 11.7847 7.2031C11.8127 5.90201 11.2716 4.75273 10.9212 4.01987C10.8139 3.79535 10.5471 3.49061 10.0968 3.19913C9.65654 2.91419 9.08014 2.66821 8.41301 2.53559ZM10.776 2.14976C11.3427 2.51657 11.8087 2.97811 12.049 3.48069L12.0594 3.5026C12.4073 4.23005 13.0692 5.614 13.0344 7.23001C13.0076 8.47316 12.5724 9.79937 11.4005 11.054C11.5073 11.1265 11.6015 11.2021 11.6803 11.2691C11.8045 11.3746 11.92 11.4849 12.0178 11.5801C12.0428 11.6044 12.0661 11.6271 12.088 11.6486C12.1576 11.7166 12.2133 11.771 12.2649 11.8178C12.5757 12.0996 12.883 12.3846 13.1873 12.667L13.2128 12.6908C13.5093 12.9659 13.803 13.2385 14.0992 13.5077C14.5384 13.9071 14.9736 14.3488 15.3937 14.7751C15.6511 15.0363 15.9027 15.2917 16.1461 15.5281C16.3189 15.6958 16.4836 15.8625 16.644 16.0248C17.1504 16.5373 17.6144 17.0069 18.1544 17.3309C18.4504 17.5085 18.5464 17.8924 18.3688 18.1884C18.1912 18.4843 17.8073 18.5803 17.5113 18.4027C16.8215 17.9889 16.2035 17.3614 15.679 16.829C15.5375 16.6854 15.4028 16.5486 15.2753 16.4248C14.9862 16.1441 14.7191 15.8725 14.4578 15.6067C14.0632 15.2055 13.6819 14.8178 13.2583 14.4327C12.9572 14.1589 12.6593 13.8824 12.3641 13.6084L12.3369 13.5832C12.032 13.3002 11.7299 13.02 11.4252 12.7437C11.3546 12.6797 11.2759 12.6027 11.2028 12.5313C11.1835 12.5124 11.1646 12.4939 11.1463 12.4762C11.0525 12.3849 10.9618 12.2988 10.8711 12.2218C10.667 12.0484 10.5525 12.001 10.5157 11.9959C10.4736 11.9901 10.433 11.9802 10.3944 11.9667C10.2217 12.1011 10.0389 12.234 9.84567 12.3655C7.97044 13.6407 6.47942 13.8417 5.1758 13.2488C4.55957 12.9686 4.03484 12.5313 3.56508 12.0521C3.15678 11.6355 2.7642 11.1594 2.38188 10.6957C2.3282 10.6306 2.27472 10.5658 2.22143 10.5014C1.9725 10.2111 1.71321 9.72911 1.50513 9.17277C1.29078 8.59966 1.1117 7.89707 1.05647 7.14584C0.945689 5.63903 1.33645 3.8683 3.01772 2.65061C4.98122 1.22853 7.01158 0.982531 8.65673 1.30958C9.47426 1.4721 10.1992 1.77641 10.776 2.14976Z"/></symbol><symbol viewBox="0 0 20 20" id="svg-user"><path fill-rule="evenodd" clip-rule="evenodd" d="M10.7611 2.99191C10.0494 2.63261 9.26377 2.62501 8.72839 2.62501C8.61801 2.62501 8.40108 2.67746 8.12128 2.84915C7.85174 3.01454 7.56294 3.26753 7.31131 3.60393C6.81422 4.2685 6.46688 5.25098 6.69828 6.51657C6.85887 7.39485 7.45578 7.89605 8.16344 8.17264C8.51932 8.31173 8.88789 8.3858 9.20495 8.4138C9.53598 8.44303 9.75947 8.41783 9.83511 8.39714L9.84817 8.39357L9.8482 8.39371C9.90519 8.37945 9.96129 8.36549 10.0165 8.35174C10.4045 8.25521 10.7503 8.16917 11.0672 8.06081C11.4256 7.93828 11.699 7.80216 11.9015 7.63227C12.2466 7.34273 12.5348 6.82845 12.3424 5.56588C12.1055 4.01055 11.4234 3.32628 10.7611 2.99191ZM11.3244 1.87604C12.3813 2.4096 13.2862 3.4612 13.5782 5.37759C13.809 6.89241 13.5028 7.92053 12.7049 8.58992C12.3358 8.89949 11.9005 9.09695 11.4716 9.24359C11.2005 9.33628 10.9127 9.41462 10.6287 9.48704C11.1584 9.42832 11.6038 9.39499 11.981 9.38176C13.0005 9.346 13.5792 9.4542 14.0014 9.65008C14.0369 9.66659 14.0793 9.68517 14.1273 9.70616C14.3286 9.79435 14.6269 9.92505 14.9231 10.1232C15.3095 10.3817 15.7068 10.7567 16.0741 11.3455C16.7958 12.5022 17.3881 14.4623 17.6236 17.958C17.6468 18.3024 17.3864 18.6004 17.042 18.6236C16.6976 18.6468 16.3996 18.3864 16.3764 18.042C16.1459 14.6195 15.5733 12.9043 15.0136 12.0072C14.7403 11.5691 14.4677 11.3225 14.228 11.1621C14.0329 11.0316 13.8643 10.9572 13.6732 10.8729C13.6102 10.8451 13.5448 10.8163 13.4752 10.784C13.308 10.7064 12.9548 10.5984 12.0248 10.631C11.0959 10.6636 9.64765 10.8336 7.32898 11.2639C5.74152 11.5585 4.79217 12.6526 4.24104 14.0087C3.6841 15.3791 3.57203 16.9432 3.64474 17.9552C3.66947 18.2995 3.41042 18.5987 3.06613 18.6234C2.72184 18.6481 2.42269 18.3891 2.39795 18.0448C2.31534 16.8949 2.43625 15.1295 3.08302 13.5381C3.73561 11.9323 4.96071 10.4321 7.10088 10.0349C7.9106 9.88463 8.62195 9.76445 9.24834 9.67004C9.19759 9.6672 9.1464 9.66349 9.095 9.65895C8.67772 9.62211 8.1906 9.52533 7.70841 9.33687C6.73995 8.95835 5.73127 8.17759 5.46867 6.74139C5.17109 5.11387 5.61722 3.78186 6.31034 2.85522C6.65382 2.39602 7.05931 2.03422 7.46753 1.78373C7.86549 1.53954 8.3098 1.37501 8.72839 1.37501C8.73587 1.37501 8.74346 1.375 8.75115 1.375C9.28147 1.37489 10.3313 1.37468 11.3244 1.87604Z"/></symbol></svg>