<svg width="20" height="20" viewBox="0 0 20 20" fill="none" xmlns="http://www.w3.org/2000/svg">
<path fill-rule="evenodd" clip-rule="evenodd" d="M1.50229 4.07377C1.53089 3.72904 1.82886 3.47317 2.16783 3.50225C3.49771 3.61637 5.06072 3.571 6.38487 3.53257C6.96845 3.51563 7.50564 3.50004 7.95603 3.50004H17.884C18.2242 3.50004 18.4999 3.78048 18.4999 4.12643C18.4999 4.47238 18.2242 4.75283 17.884 4.75283H7.95603C7.56832 4.75283 7.0743 4.76704 6.51991 4.78299C5.17131 4.82178 3.46556 4.87085 2.06426 4.75061C1.72529 4.72153 1.47369 4.41849 1.50229 4.07377ZM18.4958 9.56651C18.5351 9.91015 18.2929 10.2211 17.955 10.2609C13.6712 10.7666 5.75358 10.9339 2.08827 10.7656C1.74845 10.75 1.4854 10.4572 1.50074 10.1116C1.51608 9.766 1.804 9.49849 2.14382 9.51409C5.75603 9.67991 13.6064 9.51307 17.813 9.01651C18.1509 8.97662 18.4566 9.22286 18.4958 9.56651ZM6.39347 15.1015C8.35686 15.1083 10.5423 15.1638 12.0059 15.2481C12.3455 15.2677 12.6052 15.5635 12.586 15.9089C12.5667 16.2543 12.2758 16.5185 11.9362 16.4989C10.5012 16.4162 8.33888 16.361 6.38926 16.3542C5.41503 16.3509 4.49864 16.3596 3.75627 16.3827C2.99614 16.4064 2.46464 16.4443 2.22969 16.4891C1.89536 16.553 1.57345 16.3291 1.51069 15.9891C1.44792 15.6491 1.66807 15.3217 2.0024 15.2578C2.34716 15.192 2.97506 15.1537 3.71854 15.1305C4.47978 15.1068 5.4112 15.098 6.39347 15.1015Z" fill="#111111"/>
</svg>
