<svg width="20" height="20" viewBox="0 0 20 20" fill="none" xmlns="http://www.w3.org/2000/svg">
<path d="M11.25 5C11.25 4.31152 10.6885 3.75 10 3.75C9.31152 3.75 8.75 4.31152 8.75 5C8.75 5.68847 9.31152 6.25 10 6.25C10.6885 6.25 11.25 5.68848 11.25 5ZM11.25 10C11.25 9.31152 10.6885 8.75 10 8.75C9.31152 8.75 8.75 9.31152 8.75 10C8.75 10.6885 9.31152 11.25 10 11.25C10.6885 11.25 11.25 10.6885 11.25 10ZM11.25 15C11.25 14.3115 10.6885 13.75 10 13.75C9.31152 13.75 8.75 14.3115 8.75 15C8.75 15.6885 9.31152 16.25 10 16.25C10.6885 16.25 11.25 15.6885 11.25 15Z" fill="#111111"/>
</svg>
