<svg width="20" height="20" viewBox="0 0 20 20" fill="none" xmlns="http://www.w3.org/2000/svg">
<path d="M8.84689 0L8.78281 9.073L11.2827 10.5962V4.37091L8.84689 0Z" fill="#FAB719"/>
<path d="M8.84535 11.2581V20L11.2811 15.4966V12.8476L8.84535 11.2581Z" fill="#61B42C"/>
<path d="M17.6922 14.1738L2.30859 4.37229L4.61614 8.61079L13.3335 14.1738H17.6922Z" fill="#208BC9"/>
<path d="M8.84535 0L17.6909 5.56298H13.3322L11.2811 4.37091L8.84535 0Z" fill="#F77C1C"/>
<path d="M11.2833 6.99354L13.3344 5.56305H17.6932L11.2833 9.93396V6.99354Z" fill="#D60B4C"/>
<path d="M11.2811 15.4948L13.3322 14.1703H17.6909L8.84535 19.9982L11.2811 15.4948Z" fill="#097F2D"/>
<path d="M2.30859 4.37229V15.4983L4.48792 11.3923L4.61614 8.61079L2.30859 4.37229Z" fill="#5B59A1"/>
<path d="M6.69292 9.93534L4.48792 11.3923L2.30859 15.4983L8.84663 11.2599L6.69292 9.93534Z" fill="#9F4393"/>
</svg>
