<svg width="24" height="24" viewBox="0 0 24 24" fill="none" xmlns="http://www.w3.org/2000/svg">
<path fill-rule="evenodd" clip-rule="evenodd" d="M10.0987 3.04231C8.50975 2.72643 6.50287 2.94767 4.50426 4.39519C3.03794 5.45719 2.65855 6.99156 2.76685 8.46464C2.82119 9.2038 2.9993 9.90681 3.21423 10.4815C3.43505 11.0719 3.67274 11.4689 3.8094 11.627L3.82002 11.6393L3.81988 11.6394C3.8878 11.7215 3.9548 11.8027 4.02103 11.883C4.48477 12.4451 4.91107 12.9618 5.35242 13.4121C5.85351 13.9233 6.33296 14.3044 6.83503 14.5328C7.75378 14.9506 8.97737 14.9558 10.9745 13.5978C13.4478 11.9159 14.1125 10.1383 14.1447 8.64333C14.1783 7.08203 13.5291 5.70289 13.1086 4.82345C12.9798 4.55403 12.6596 4.18834 12.1192 3.83856C11.591 3.49664 10.8993 3.20146 10.0987 3.04231ZM12.9343 2.57932C13.6144 3.0195 14.1735 3.57334 14.4619 4.17644L14.4745 4.20273C14.8919 5.07567 15.6861 6.7364 15.6444 8.67563C15.6122 10.1674 15.0899 11.7589 13.6837 13.2644C13.8119 13.3514 13.9249 13.4421 14.0195 13.5225C14.1686 13.6491 14.3071 13.7815 14.4245 13.8957C14.4545 13.9249 14.4824 13.9522 14.5087 13.9779C14.5923 14.0595 14.6591 14.1248 14.721 14.1809C15.094 14.5192 15.4627 14.8611 15.8278 15.2L15.8585 15.2285C16.2143 15.5587 16.5667 15.8858 16.9221 16.2089C17.4492 16.6881 17.9715 17.2182 18.4756 17.7298C18.7844 18.0432 19.0864 18.3497 19.3785 18.6333C19.5858 18.8346 19.7834 19.0346 19.976 19.2294C20.5837 19.8444 21.1404 20.4078 21.7884 20.7966C22.1436 21.0098 22.2588 21.4704 22.0457 21.8256C21.8326 22.1808 21.3719 22.296 21.0167 22.0829C20.189 21.5863 19.4473 20.8333 18.818 20.1945C18.6481 20.022 18.4865 19.8579 18.3335 19.7094C17.9866 19.3725 17.666 19.0466 17.3525 18.7277C16.879 18.2462 16.4214 17.7809 15.9131 17.3188C15.5518 16.9903 15.1942 16.6585 14.84 16.3297L14.8074 16.2995C14.4415 15.9599 14.079 15.6236 13.7134 15.2921C13.6286 15.2153 13.5342 15.1229 13.4465 15.0372C13.4233 15.0145 13.4006 14.9923 13.3787 14.971C13.2661 14.8615 13.1572 14.7582 13.0484 14.6657C12.8035 14.4577 12.6661 14.4008 12.622 14.3947C12.5714 14.3877 12.5227 14.3759 12.4763 14.3597C12.2691 14.5209 12.0499 14.6805 11.8179 14.8382C9.56765 16.3684 7.77843 16.6096 6.21409 15.8982C5.4746 15.5619 4.84493 15.0372 4.28122 14.4621C3.79126 13.9623 3.32016 13.3909 2.86138 12.8345C2.79696 12.7564 2.73279 12.6785 2.66884 12.6012C2.37012 12.2529 2.05897 11.6745 1.80928 11.0069C1.55206 10.3192 1.33717 9.47609 1.27089 8.57462C1.13795 6.76644 1.60687 4.64157 3.62439 3.18035C5.98059 1.47384 8.41702 1.17865 10.3912 1.5711C11.3722 1.76613 12.2421 2.13131 12.9343 2.57932Z" fill="#111111"/>
</svg>
