<svg width="20" height="20" viewBox="0 0 20 20" xmlns="http://www.w3.org/2000/svg">
<path fill-rule="evenodd" clip-rule="evenodd" d="M8.41301 2.53559C7.08885 2.27235 5.41645 2.45671 3.75094 3.66298C2.52901 4.54798 2.21285 5.82662 2.30311 7.05419C2.34839 7.67016 2.49681 8.256 2.67592 8.73488C2.85993 9.22688 3.05801 9.55777 3.17189 9.68948L3.18075 9.69972L3.18063 9.69981C3.23723 9.76821 3.29306 9.83589 3.34826 9.9028C3.7347 10.3712 4.08995 10.8019 4.45775 11.1771C4.87532 11.6031 5.27486 11.9207 5.69325 12.111C6.45888 12.4591 7.47854 12.4635 9.14277 11.3318C11.2039 9.9302 11.7578 8.44891 11.7847 7.2031C11.8127 5.90201 11.2716 4.75273 10.9212 4.01987C10.8139 3.79535 10.5471 3.49061 10.0968 3.19913C9.65654 2.91419 9.08014 2.66821 8.41301 2.53559ZM10.776 2.14976C11.3427 2.51657 11.8087 2.97811 12.049 3.48069L12.0594 3.5026C12.4073 4.23005 13.0692 5.614 13.0344 7.23001C13.0076 8.47316 12.5724 9.79937 11.4005 11.054C11.5073 11.1265 11.6015 11.2021 11.6803 11.2691C11.8045 11.3746 11.92 11.4849 12.0178 11.5801C12.0428 11.6044 12.0661 11.6271 12.088 11.6486C12.1576 11.7166 12.2133 11.771 12.2649 11.8178C12.5757 12.0996 12.883 12.3846 13.1873 12.667L13.2128 12.6908C13.5093 12.9659 13.803 13.2385 14.0992 13.5077C14.5384 13.9071 14.9736 14.3488 15.3937 14.7751C15.6511 15.0363 15.9027 15.2917 16.1461 15.5281C16.3189 15.6958 16.4836 15.8625 16.644 16.0248C17.1504 16.5373 17.6144 17.0069 18.1544 17.3309C18.4504 17.5085 18.5464 17.8924 18.3688 18.1884C18.1912 18.4843 17.8073 18.5803 17.5113 18.4027C16.8215 17.9889 16.2035 17.3614 15.679 16.829C15.5375 16.6854 15.4028 16.5486 15.2753 16.4248C14.9862 16.1441 14.7191 15.8725 14.4578 15.6067C14.0632 15.2055 13.6819 14.8178 13.2583 14.4327C12.9572 14.1589 12.6593 13.8824 12.3641 13.6084L12.3369 13.5832C12.032 13.3002 11.7299 13.02 11.4252 12.7437C11.3546 12.6797 11.2759 12.6027 11.2028 12.5313C11.1835 12.5124 11.1646 12.4939 11.1463 12.4762C11.0525 12.3849 10.9618 12.2988 10.8711 12.2218C10.667 12.0484 10.5525 12.001 10.5157 11.9959C10.4736 11.9901 10.433 11.9802 10.3944 11.9667C10.2217 12.1011 10.0389 12.234 9.84567 12.3655C7.97044 13.6407 6.47942 13.8417 5.1758 13.2488C4.55957 12.9686 4.03484 12.5313 3.56508 12.0521C3.15678 11.6355 2.7642 11.1594 2.38188 10.6957C2.3282 10.6306 2.27472 10.5658 2.22143 10.5014C1.9725 10.2111 1.71321 9.72911 1.50513 9.17277C1.29078 8.59966 1.1117 7.89707 1.05647 7.14584C0.945689 5.63903 1.33645 3.8683 3.01772 2.65061C4.98122 1.22853 7.01158 0.982531 8.65673 1.30958C9.47426 1.4721 10.1992 1.77641 10.776 2.14976Z"/>
</svg>
