<svg width="20" height="20" viewBox="0 0 20 20" fill="none" xmlns="http://www.w3.org/2000/svg">
<path d="M3.37188 9.10588C8.08488 7.03251 14.1839 4.50463 15.0258 4.15476C17.2341 3.23901 17.9118 3.41451 17.5739 5.44251C17.3313 6.90013 16.6311 11.726 16.0731 14.7298C15.742 16.511 14.9991 16.7221 13.831 15.9515C13.2693 15.5806 10.4339 13.7056 9.81851 13.2654C9.25676 12.8641 8.48201 12.3815 9.45363 11.4309C9.79938 11.0923 12.0659 8.92813 13.8318 7.24363C14.0631 7.02238 13.7725 6.659 13.5055 6.83638C11.1254 8.41475 7.82538 10.6055 7.40538 10.8909C6.77088 11.3218 6.16151 11.5194 5.06763 11.2051C4.24113 10.9678 3.43376 10.6846 3.11951 10.5766C1.90938 10.1611 2.19663 9.623 3.37188 9.10588Z" fill="white"/>
</svg>
