<svg width="20" height="20" viewBox="0 0 20 20"  xmlns="http://www.w3.org/2000/svg">
<path fill-rule="evenodd" clip-rule="evenodd" d="M10.7611 2.99191C10.0494 2.63261 9.26377 2.62501 8.72839 2.62501C8.61801 2.62501 8.40108 2.67746 8.12128 2.84915C7.85174 3.01454 7.56294 3.26753 7.31131 3.60393C6.81422 4.2685 6.46688 5.25098 6.69828 6.51657C6.85887 7.39485 7.45578 7.89605 8.16344 8.17264C8.51932 8.31173 8.88789 8.3858 9.20495 8.4138C9.53598 8.44303 9.75947 8.41783 9.83511 8.39714L9.84817 8.39357L9.8482 8.39371C9.90519 8.37945 9.96129 8.36549 10.0165 8.35174C10.4045 8.25521 10.7503 8.16917 11.0672 8.06081C11.4256 7.93828 11.699 7.80216 11.9015 7.63227C12.2466 7.34273 12.5348 6.82845 12.3424 5.56588C12.1055 4.01055 11.4234 3.32628 10.7611 2.99191ZM11.3244 1.87604C12.3813 2.4096 13.2862 3.4612 13.5782 5.37759C13.809 6.89241 13.5028 7.92053 12.7049 8.58992C12.3358 8.89949 11.9005 9.09695 11.4716 9.24359C11.2005 9.33628 10.9127 9.41462 10.6287 9.48704C11.1584 9.42832 11.6038 9.39499 11.981 9.38176C13.0005 9.346 13.5792 9.4542 14.0014 9.65008C14.0369 9.66659 14.0793 9.68517 14.1273 9.70616C14.3286 9.79435 14.6269 9.92505 14.9231 10.1232C15.3095 10.3817 15.7068 10.7567 16.0741 11.3455C16.7958 12.5022 17.3881 14.4623 17.6236 17.958C17.6468 18.3024 17.3864 18.6004 17.042 18.6236C16.6976 18.6468 16.3996 18.3864 16.3764 18.042C16.1459 14.6195 15.5733 12.9043 15.0136 12.0072C14.7403 11.5691 14.4677 11.3225 14.228 11.1621C14.0329 11.0316 13.8643 10.9572 13.6732 10.8729C13.6102 10.8451 13.5448 10.8163 13.4752 10.784C13.308 10.7064 12.9548 10.5984 12.0248 10.631C11.0959 10.6636 9.64765 10.8336 7.32898 11.2639C5.74152 11.5585 4.79217 12.6526 4.24104 14.0087C3.6841 15.3791 3.57203 16.9432 3.64474 17.9552C3.66947 18.2995 3.41042 18.5987 3.06613 18.6234C2.72184 18.6481 2.42269 18.3891 2.39795 18.0448C2.31534 16.8949 2.43625 15.1295 3.08302 13.5381C3.73561 11.9323 4.96071 10.4321 7.10088 10.0349C7.9106 9.88463 8.62195 9.76445 9.24834 9.67004C9.19759 9.6672 9.1464 9.66349 9.095 9.65895C8.67772 9.62211 8.1906 9.52533 7.70841 9.33687C6.73995 8.95835 5.73127 8.17759 5.46867 6.74139C5.17109 5.11387 5.61722 3.78186 6.31034 2.85522C6.65382 2.39602 7.05931 2.03422 7.46753 1.78373C7.86549 1.53954 8.3098 1.37501 8.72839 1.37501C8.73587 1.37501 8.74346 1.375 8.75115 1.375C9.28147 1.37489 10.3313 1.37468 11.3244 1.87604Z"/>
</svg>
