<svg width="16" height="17" viewBox="0 0 16 17" fill="none" xmlns="http://www.w3.org/2000/svg">
<path fill-rule="evenodd" clip-rule="evenodd" d="M8.60728 2.89362C8.03792 2.60619 7.40945 2.6001 6.98115 2.6001C6.89284 2.6001 6.7193 2.64206 6.49546 2.77942C6.27983 2.91173 6.04879 3.11412 5.84748 3.38324C5.44981 3.9149 5.17194 4.70088 5.35706 5.71335C5.48553 6.41598 5.96306 6.81693 6.52919 7.03821C6.81389 7.14948 7.10875 7.20874 7.3624 7.23114C7.62722 7.25452 7.80602 7.23436 7.86653 7.21781L7.87697 7.21495L7.877 7.21507C7.92259 7.20365 7.96747 7.19249 8.01167 7.18149C8.32202 7.10427 8.59866 7.03543 8.85222 6.94874C9.13892 6.85073 9.35762 6.74182 9.51963 6.60591C9.79575 6.37428 10.0263 5.96286 9.87239 4.9528C9.68281 3.70853 9.13715 3.16112 8.60728 2.89362ZM9.05795 2.00093C9.90346 2.42778 10.6274 3.26906 10.861 4.80217C11.0456 6.01402 10.8007 6.83652 10.1623 7.37203C9.86711 7.61969 9.51885 7.77766 9.17572 7.89497C8.95882 7.96912 8.72862 8.03179 8.50137 8.08973C8.92519 8.04276 9.28145 8.01609 9.58325 8.00551C10.3988 7.9769 10.8618 8.06345 11.1995 8.22016C11.228 8.23337 11.2619 8.24823 11.3002 8.26503C11.4613 8.33558 11.7 8.44014 11.9369 8.59865C12.246 8.80546 12.5639 9.10546 12.8577 9.57651C13.4351 10.5019 13.9089 12.0699 14.0973 14.8665C14.1158 15.142 13.9075 15.3804 13.632 15.399C13.3565 15.4175 13.1181 15.2092 13.0995 14.9337C12.9151 12.1957 12.4571 10.8235 12.0093 10.1058C11.7907 9.75535 11.5726 9.5581 11.3809 9.42981C11.2247 9.32535 11.0899 9.26585 10.937 9.1984C10.8866 9.17618 10.8343 9.1531 10.7786 9.12727C10.6449 9.0652 10.3623 8.9788 9.6183 9.00489C8.87513 9.03095 7.71656 9.16697 5.86162 9.51123C4.59165 9.74693 3.83217 10.6222 3.39127 11.7071C2.94571 12.8034 2.85606 14.0546 2.91423 14.8643C2.93402 15.1397 2.72677 15.379 2.45134 15.3988C2.17591 15.4186 1.93659 15.2114 1.9168 14.9359C1.85071 14.016 1.94744 12.6037 2.46485 11.3306C2.98693 10.046 3.96701 8.84578 5.67914 8.52802C6.32692 8.4078 6.896 8.31166 7.39711 8.23613C7.35651 8.23385 7.31556 8.23089 7.27444 8.22726C6.94061 8.19778 6.55091 8.12036 6.16516 7.96959C5.3904 7.66678 4.58345 7.04217 4.37337 5.89321C4.13531 4.5912 4.49222 3.52559 5.04671 2.78427C5.3215 2.41691 5.64589 2.12748 5.97246 1.92708C6.29083 1.73173 6.64627 1.6001 6.98115 1.6001C6.98713 1.6001 6.9932 1.6001 6.99936 1.6001C7.42362 1.60001 8.26346 1.59984 9.05795 2.00093Z" fill="#298FC2"/>
</svg>
