<svg width="20" height="20" viewBox="0 0 20 20" fill="none" xmlns="http://www.w3.org/2000/svg">
<g clip-path="url(#clip0_67_38740)">
<path d="M19.894 14.5997C19.8698 14.5475 19.8472 14.5042 19.8262 14.4696C19.4792 13.8446 18.8161 13.0775 17.8373 12.1681L17.8166 12.1472L17.8063 12.137L17.7958 12.1266H17.7853C17.341 11.7031 17.0597 11.4183 16.9419 11.2726C16.7264 10.9949 16.6781 10.7138 16.7959 10.429C16.8791 10.2138 17.1918 9.75932 17.7331 9.06499C18.0178 8.69702 18.2433 8.4021 18.4099 8.17991C19.611 6.58314 20.1317 5.56279 19.9719 5.11844L19.9099 5.01461C19.8682 4.95209 19.7606 4.8949 19.5872 4.84275C19.4135 4.7907 19.1914 4.78209 18.9206 4.81678L15.9217 4.8375C15.8731 4.82028 15.8037 4.82189 15.7134 4.84275C15.6231 4.86361 15.5779 4.87408 15.5779 4.87408L15.5257 4.90016L15.4843 4.93149C15.4496 4.9522 15.4114 4.98864 15.3697 5.04072C15.3282 5.09262 15.2936 5.15353 15.2658 5.22294C14.9393 6.06294 14.5681 6.84392 14.1515 7.56586C13.8946 7.99634 13.6587 8.36942 13.4433 8.68531C13.2281 9.00109 13.0476 9.23375 12.9019 9.38288C12.756 9.53217 12.6244 9.65176 12.5061 9.7421C12.3881 9.83248 12.298 9.87067 12.2355 9.8567C12.173 9.84273 12.1141 9.82887 12.0583 9.81501C11.9612 9.7525 11.8831 9.66748 11.8242 9.55988C11.765 9.45229 11.7252 9.31687 11.7044 9.15373C11.6836 8.99048 11.6714 8.85006 11.6679 8.732C11.6646 8.61408 11.6661 8.44729 11.6732 8.2321C11.6804 8.01681 11.6836 7.87113 11.6836 7.79476C11.6836 7.53092 11.6888 7.24457 11.6991 6.93565C11.7096 6.62673 11.7181 6.38196 11.7252 6.20164C11.7323 6.02114 11.7356 5.83017 11.7356 5.62884C11.7356 5.42751 11.7233 5.26962 11.6991 5.15503C11.6752 5.04057 11.6385 4.92948 11.5901 4.82178C11.5414 4.71418 11.4701 4.63095 11.3766 4.57187C11.2829 4.51285 11.1664 4.46602 11.0278 4.43123C10.6598 4.34796 10.1912 4.30292 9.62185 4.29592C8.33069 4.28206 7.50105 4.36543 7.13311 4.54593C6.98733 4.6222 6.85541 4.7264 6.73746 4.85821C6.61247 5.011 6.59504 5.09437 6.68527 5.10809C7.10186 5.17049 7.39677 5.31977 7.57035 5.55579L7.6329 5.68085C7.68155 5.77108 7.73013 5.93083 7.77875 6.15988C7.8273 6.38893 7.85863 6.6423 7.87241 6.91986C7.90706 7.42672 7.90706 7.86059 7.87241 8.22153C7.83765 8.5826 7.80483 8.8637 7.7735 9.06503C7.74217 9.26635 7.69534 9.42949 7.6329 9.55441C7.57035 9.67937 7.52873 9.75574 7.50787 9.78346C7.48704 9.81118 7.46968 9.82865 7.4559 9.83551C7.36566 9.87008 7.27182 9.8877 7.17469 9.8877C7.07742 9.8877 6.95947 9.83905 6.82065 9.74181C6.68188 9.64457 6.53785 9.51101 6.38856 9.3409C6.23928 9.17076 6.07093 8.93299 5.88342 8.62757C5.69606 8.32215 5.50166 7.96118 5.30033 7.54467L5.13376 7.2426C5.02963 7.04828 4.88739 6.76532 4.70689 6.394C4.52628 6.02252 4.36664 5.6632 4.22786 5.31609C4.17238 5.17031 4.08904 5.05932 3.97799 4.98295L3.92587 4.95162C3.89122 4.9239 3.8356 4.89447 3.7593 4.8631C3.68289 4.83177 3.60316 4.8093 3.51978 4.79548L0.666572 4.8162C0.375011 4.8162 0.177184 4.88225 0.073018 5.01417L0.0313299 5.07657C0.0105041 5.11133 0 5.16684 0 5.24325C0 5.31963 0.0208258 5.41336 0.0625139 5.52435C0.47903 6.50327 0.931983 7.44736 1.42137 8.35677C1.91076 9.26617 2.33603 9.99872 2.69692 10.5538C3.05789 11.1092 3.42583 11.6334 3.80073 12.1262C4.17563 12.6191 4.42379 12.935 4.54521 13.0738C4.66677 13.2128 4.76225 13.3167 4.83166 13.3861L5.09204 13.636C5.25865 13.8027 5.5033 14.0022 5.82612 14.2347C6.14901 14.4674 6.50648 14.6965 6.89871 14.9223C7.291 15.1477 7.74739 15.3317 8.2681 15.4739C8.78875 15.6164 9.2955 15.6735 9.78842 15.6459H10.986C11.2288 15.625 11.4128 15.5486 11.5379 15.4168L11.5793 15.3646C11.6072 15.3232 11.6333 15.2588 11.6573 15.1722C11.6817 15.0854 11.6938 14.9898 11.6938 14.8858C11.6867 14.5874 11.7094 14.3184 11.7614 14.0789C11.8133 13.8395 11.8724 13.659 11.9386 13.5374C12.0047 13.416 12.0793 13.3135 12.1624 13.2304C12.2456 13.1471 12.3049 13.0967 12.3397 13.0793C12.3743 13.0619 12.4019 13.05 12.4227 13.0429C12.5893 12.9874 12.7854 13.0411 13.0112 13.2044C13.2369 13.3676 13.4486 13.569 13.6465 13.8084C13.8444 14.048 14.0821 14.3169 14.3597 14.6153C14.6376 14.9139 14.8805 15.1358 15.0886 15.2818L15.2968 15.4068C15.4359 15.4902 15.6164 15.5665 15.8386 15.636C16.0604 15.7053 16.2547 15.7227 16.4215 15.688L19.0872 15.6464C19.3509 15.6464 19.556 15.6028 19.7015 15.5161C19.8474 15.4294 19.934 15.3338 19.9619 15.2298C19.9898 15.1257 19.9913 15.0076 19.9672 14.8756C19.9425 14.7439 19.9182 14.6518 19.894 14.5997Z" fill="white"/>
</g>
<defs>
<clipPath id="clip0_67_38740">
<rect width="20" height="20" fill="white"/>
</clipPath>
</defs>
</svg>
