<svg width="86" height="20" viewBox="0 0 86 20" fill="none" xmlns="http://www.w3.org/2000/svg">
<path d="M5.57546 14.7369H7.24183V5.16699H4.80932C2.3768 5.16699 1.0935 6.41357 1.0935 8.27384C1.0935 9.75055 1.80219 10.6136 3.04718 11.5149L0.882812 14.7369H2.68326L5.09662 11.1122L4.25386 10.556C3.23871 9.86562 2.74072 9.32864 2.74072 8.17795C2.74072 7.16151 3.4494 6.4711 4.80932 6.4711H5.55631V14.7369H5.57546ZM27.4298 14.2574V12.9149C26.9127 13.2601 26.0699 13.567 25.2654 13.567C24.0779 13.567 23.6182 13.0108 23.5416 11.841H27.4873V10.978C27.4873 8.56151 26.4338 7.66014 24.7866 7.66014C22.7946 7.66014 21.8369 9.19439 21.8369 11.2848C21.8369 13.7012 23.0245 14.8711 25.1122 14.8711C26.1848 14.8711 26.951 14.6026 27.4298 14.2574ZM37.677 14.8711C38.4432 14.8711 38.9795 14.7369 39.3625 14.4492V13.1067C38.9412 13.3944 38.4623 13.567 37.7728 13.567C36.6044 13.567 36.1256 12.6656 36.1256 11.2273C36.1256 9.73138 36.7193 8.94507 37.7919 8.94507C38.424 8.94507 39.0369 9.15603 39.3817 9.36699V7.96699C39.0369 7.77521 38.424 7.64096 37.6196 7.64096C35.5318 7.64096 34.44 9.13686 34.44 11.2464C34.4209 13.5862 35.4743 14.8711 37.677 14.8711ZM12.4325 7.81357V10.556H10.249V7.81357H8.6209V14.7369H10.249V11.841H12.4325V14.7369H14.0605V7.81357H12.4325ZM21.4539 13.4327H20.726V7.81357H15.9568V8.40809C15.9568 10.0958 15.8418 12.3012 15.2672 13.4519H14.7501V16.3286H16.2824V14.7369H19.9599V16.3286H21.473V13.4327H21.4539ZM32.6588 14.7369H34.5167L31.8926 10.9971L34.2102 7.79439H32.563L30.2454 10.9971V7.81357H28.6173V14.7369H30.2454V11.3232L32.6588 14.7369ZM24.7866 8.96425C25.591 8.96425 25.84 9.63549 25.84 10.4985V10.6327H23.5608C23.5991 9.5396 24.0013 8.96425 24.7866 8.96425ZM19.098 13.4327H16.7804C17.24 12.378 17.355 10.4985 17.355 9.30946V9.0985H19.098V13.4327Z" fill="white"/>
<path d="M46.6026 14.7369H48.0392L49.9928 7.50672V14.7369H51.6209V5.16699H49.3991L47.4646 12.2629L45.53 5.16699H43.2891V14.7369H44.649V7.50672L46.6026 14.7369Z" fill="white"/>
<path d="M53.8777 16.8657C55.41 16.8657 55.9654 15.7725 56.4443 14.3533L58.6086 7.79443H57.0189L55.4866 13.0109L53.9543 7.79443H52.2305L54.6055 15.0246C54.4331 15.3506 54.165 15.5616 53.7053 15.5616C53.3988 15.5616 53.1498 15.4657 52.9583 15.2931V16.6355C52.9775 16.6355 53.2265 16.8657 53.8777 16.8657Z" fill="white"/>
<path d="M60.9858 13.5674C60.143 13.5674 59.3194 13.2605 58.8789 12.9345V14.2769C59.2045 14.5454 59.9898 14.8715 61.1773 14.8715C62.9203 14.8715 63.8397 14.0852 63.8397 12.7043C63.8397 11.8989 63.3226 11.3427 62.4223 11.1509C63.2843 10.8824 63.629 10.2687 63.629 9.50161C63.629 8.33174 62.7096 7.67969 61.2157 7.67969C60.1431 7.67969 59.4344 8.00571 59.0513 8.25503V9.5975C59.4918 9.30982 60.1047 8.9838 60.9858 8.9838C61.5987 8.9838 61.9818 9.27147 61.9818 9.78928C61.9818 10.3263 61.6562 10.6139 60.9858 10.6139H59.9515V11.8222H60.9858C61.8286 11.8222 62.1542 12.0715 62.1542 12.6852C62.1542 13.2413 61.752 13.5674 60.9858 13.5674Z" fill="white"/>
<path d="M64.9492 7.81348V14.7368H67.4392C69.0481 14.7368 70.1973 13.9121 70.1973 12.282C70.1973 10.7477 69.1822 9.92306 67.4775 9.92306H66.5964V7.81348H64.9492ZM70.7911 7.81348V14.7368H72.4192V7.81348H70.7911ZM67.3434 13.4327H66.5773V11.2272H67.3817C68.0904 11.2272 68.4926 11.5532 68.4926 12.3395C68.4926 13.1258 68.033 13.4327 67.3434 13.4327Z" fill="white"/>
<path d="M77.8578 14.7369H79.7157L77.0917 10.9972L79.4093 7.79443H77.7621L75.4445 10.9972V7.81361H73.8164V14.7369H75.4445V11.3232L77.8578 14.7369Z" fill="white"/>
<path d="M85.2897 10.0002C85.2897 8.31256 84.4278 7.67969 82.7039 7.67969C81.6122 7.67969 80.7694 8.02489 80.2714 8.31256V9.67421C80.712 9.34818 81.6696 8.9838 82.5124 8.9838C83.2977 8.9838 83.6616 9.25229 83.6616 10.0002V10.3838H83.3935C80.8843 10.3838 79.7734 11.2085 79.7734 12.6085C79.7734 14.0085 80.6354 14.7948 81.8995 14.7948C82.8572 14.7948 83.2786 14.4687 83.585 14.1427H83.6616C83.6808 14.3153 83.7382 14.5646 83.7766 14.6989H85.3663C85.3089 14.1427 85.2897 13.5674 85.2897 13.0112V10.0002ZM83.6425 13.0879C83.4318 13.3948 83.0487 13.6441 82.4741 13.6441C81.7846 13.6441 81.4398 13.2222 81.4398 12.6085C81.4398 11.803 81.9953 11.5153 83.4126 11.5153H83.6425V13.0879Z" fill="white"/>
</svg>
