<svg width="20" height="20" viewBox="0 0 20 20" fill="none" xmlns="http://www.w3.org/2000/svg">
<path d="M17.9586 5.8001C17.7992 4.92041 17.0398 4.27979 16.1586 4.07979C14.8398 3.8001 12.3992 3.6001 9.75859 3.6001C7.11953 3.6001 4.63984 3.8001 3.31953 4.07979C2.43984 4.27979 1.67891 4.87979 1.51953 5.8001C1.35859 6.8001 1.19922 8.2001 1.19922 10.0001C1.19922 11.8001 1.35859 13.2001 1.55859 14.2001C1.71953 15.0798 2.47891 15.7204 3.35859 15.9204C4.75859 16.2001 7.15859 16.4001 9.79922 16.4001C12.4398 16.4001 14.8398 16.2001 16.2398 15.9204C17.1195 15.7204 17.8789 15.1204 18.0398 14.2001C18.1992 13.2001 18.3992 11.7595 18.4398 10.0001C18.3586 8.2001 18.1586 6.8001 17.9586 5.8001ZM7.59922 12.8001V7.2001L12.4789 10.0001L7.59922 12.8001Z" fill="white"/>
</svg>
