<svg width="89" height="18" viewBox="0 0 89 18" fill="none" xmlns="http://www.w3.org/2000/svg">
<path d="M0 18C7.69254 18 11.5388 18 15.1402 17.2902C18.3325 16.661 21.3728 15.6242 24.1405 14.2208C27.2629 12.6375 29.8972 10.4273 35.1659 6.00705L38.639 3.09323C40.6779 1.38262 41.6974 0.52731 42.8874 0.209491C43.9333 -0.06983 45.0667 -0.06983 46.1126 0.209491C47.3026 0.52731 48.3221 1.38262 50.361 3.09323L53.8341 6.00703C59.1027 10.4273 61.7371 12.6375 64.8595 14.2208C67.6272 15.6242 70.6675 16.661 73.8598 17.2902C77.4612 18 81.3075 18 89 18H0Z" fill="white"/>
</svg>
