<svg width="18" height="46" viewBox="0 0 18 46" fill="none" xmlns="http://www.w3.org/2000/svg">
<path d="M0.53125 45.0312C0.53125 41.1418 0.531252 39.197 1.19668 37.3761C1.78652 35.762 2.75857 34.2248 4.0743 32.8254C5.55862 31.2466 7.63063 29.9147 11.7746 27.2507L14.5064 25.4947C16.11 24.4638 16.9119 23.9483 17.2099 23.3466C17.4717 22.8178 17.4717 22.2447 17.2099 21.7159C16.9119 21.1142 16.11 20.5987 14.5064 19.5678L11.7747 17.8118C7.63065 15.1478 5.55862 13.8159 4.0743 12.2371C2.75857 10.8377 1.78652 9.3005 1.19668 7.68641C0.531251 5.86549 0.531248 3.92074 0.531248 0.0312531L0.53125 45.0312Z" fill="white"/>
</svg>
