<svg width="354" height="174" viewBox="0 0 354 174" fill="none" xmlns="http://www.w3.org/2000/svg">
<path d="M4.52228 154.791C0.84375 147.571 0.84375 138.121 0.84375 91.0937V86.5938C0.84375 67.692 0.84375 58.2411 4.52228 51.0216C7.75801 44.6711 12.9211 39.508 19.2716 36.2723C26.4911 32.5938 35.942 32.5938 54.8437 32.5938H204.529C215.287 32.5938 220.667 32.5938 225.704 31.335C230.168 30.2192 234.42 28.3804 238.291 25.8916C242.658 23.0837 246.343 19.1642 253.711 11.3252L258.569 6.15777C261.42 3.12415 262.846 1.60734 264.51 1.04371C265.973 0.548359 267.558 0.548359 269.021 1.04371C270.685 1.60734 272.111 3.12415 274.963 6.15778L279.82 11.3252C285.015 16.8514 287.612 19.6145 290.676 21.8778C294.377 24.6121 295.219 25.0898 299.465 26.8654C302.979 28.3351 311.626 30.2327 328.921 34.0279C331.332 34.5569 333.439 35.2811 335.385 36.2723C341.735 39.508 346.898 44.6711 350.134 51.0216C353.812 58.2411 353.812 67.692 353.812 86.5938V91.0937C353.812 138.121 353.812 147.571 350.134 154.791C346.898 161.141 341.735 166.304 335.385 169.54C328.165 173.219 318.714 173.219 299.813 173.219H54.8438C35.942 173.219 26.4911 173.219 19.2716 169.54C12.9211 166.304 7.75801 161.141 4.52228 154.791Z" fill="white"/>
</svg>
