<svg width="251" height="123" viewBox="0 0 251 123" fill="none" xmlns="http://www.w3.org/2000/svg">
<path d="M2.61584 13.1042C0 18.2381 0 24.9587 0 58.4V61.6C0 75.0413 0 81.7619 2.61584 86.8958C4.9168 91.4117 8.58834 95.0832 13.1042 97.3842C18.2381 100 24.9587 100 38.4 100H81.2427C88.8933 100 92.7186 100 96.3003 100.895C99.4752 101.689 102.499 102.996 105.252 104.766C108.357 106.763 110.977 109.55 116.217 115.124L119.671 118.799C121.699 120.956 122.713 122.035 123.896 122.436C124.936 122.788 126.064 122.788 127.104 122.436C128.287 122.035 129.301 120.956 131.329 118.799L134.783 115.124C140.023 109.55 142.643 106.763 145.748 104.766C148.501 102.996 151.525 101.689 154.7 100.895C158.281 100 162.107 100 169.757 100H212.6C226.041 100 232.762 100 237.896 97.3842C242.412 95.0832 246.083 91.4117 248.384 86.8958C251 81.7619 251 75.0413 251 61.6V58.4C251 24.9587 251 18.2381 248.384 13.1042C246.083 8.58834 242.412 4.9168 237.896 2.61584C232.762 2.38419e-07 226.041 0 212.6 0H38.4C24.9587 0 18.2381 2.38419e-07 13.1042 2.61584C8.58834 4.9168 4.9168 8.58834 2.61584 13.1042Z" fill="white"/>
</svg>
