<svg width="354" height="173" viewBox="0 0 354 173" fill="none" xmlns="http://www.w3.org/2000/svg">
<path d="M4.33478 18.5841C0.65625 25.8036 0.65625 35.2545 0.65625 82.2813V86.7812C0.65625 105.683 0.65625 115.134 4.33478 122.353C7.57051 128.704 12.7336 133.867 19.0841 137.103C26.3036 140.781 35.7545 140.781 54.6562 140.781H204.341C215.1 140.781 220.479 140.781 225.516 142.04C229.981 143.156 234.233 144.995 238.104 147.483C242.471 150.291 246.155 154.211 253.524 162.05L258.381 167.217C261.233 170.251 262.658 171.768 264.323 172.331C265.786 172.827 267.371 172.827 268.833 172.331C270.498 171.768 271.924 170.251 274.775 167.217L279.633 162.05C284.827 156.524 287.425 153.76 290.488 151.497C294.19 148.763 295.032 148.285 299.277 146.51C302.792 145.04 311.439 143.142 328.734 139.347C331.144 138.818 333.252 138.094 335.197 137.103C341.548 133.867 346.711 128.704 349.946 122.353C353.625 115.134 353.625 105.683 353.625 86.7812V82.2813C353.625 35.2545 353.625 25.8036 349.946 18.5841C346.711 12.2336 341.548 7.07051 335.197 3.83478C327.978 0.15625 318.527 0.15625 299.625 0.15625H54.6563C35.7545 0.15625 26.3036 0.15625 19.0841 3.83478C12.7336 7.07051 7.57051 12.2336 4.33478 18.5841Z" fill="white"/>
</svg>
