<svg width="440" height="340" viewBox="0 0 440 340" fill="none" xmlns="http://www.w3.org/2000/svg">
<mask id="mask0_2808_104220" style="mask-type:alpha" maskUnits="userSpaceOnUse" x="0" y="0" width="440" height="340">
<rect width="440" height="340" fill="#FEF9ED"/>
</mask>
<g mask="url(#mask0_2808_104220)">
<path d="M372.784 164.176C372.649 164.977 372.334 165.661 372.973 166.561C375.661 170.297 377.948 174.306 379.794 178.521C380.46 180.069 381.405 181.446 382.035 183.021C384.001 187.721 385.131 192.728 385.374 197.816C385.418 198.739 385.348 199.664 385.167 200.57C385.059 201.065 384.924 201.722 385.923 201.47C388.02 201.002 388.074 202.667 388.047 203.9C387.975 207.355 387.48 210.802 387.561 214.249C387.642 218.002 386.904 221.719 387.228 225.462C390.696 217.67 391.373 208.92 389.145 200.687C388.605 198.518 388.101 196.331 387.552 194.162C387.426 193.64 387.057 193.037 387.777 192.758C388.677 192.417 388.821 193.217 388.974 193.784C389.523 195.899 390.018 198.086 390.567 200.156C391.486 203.416 391.967 206.785 391.997 210.172C391.993 214.793 391.32 219.388 390 223.815C388.119 230.043 385.203 235.839 383.304 242.03C382.593 244.343 380.514 245.954 380.046 248.402C380.03 248.502 379.994 248.599 379.939 248.685C379.885 248.771 379.813 248.845 379.729 248.902C379.644 248.96 379.549 248.999 379.449 249.018C379.349 249.037 379.246 249.036 379.146 249.014C378.138 248.834 378.984 247.772 378.462 247.286C377.22 248.114 377.031 249.554 376.185 250.526C375.601 251.201 374.98 251.786 373.999 251.534C373.162 251.309 373 250.634 373.099 249.887C373.198 249.14 372.883 248.753 372.199 249.068C371.209 249.527 370.228 246.89 369.193 249.203C368.432 251.056 367.447 252.809 366.259 254.422C365.147 255.998 363.542 257.157 361.696 257.716C364.364 253.539 366.728 249.175 368.77 244.658C371.187 239.146 372.953 233.372 374.035 227.451C374.827 223.392 375.691 219.352 376.221 215.239C376.698 211.54 376.221 207.85 376.5 204.17C376.662 202.262 374.701 201.677 373.801 200.309C375.115 204.809 374.377 209.353 374.251 213.853C374.249 217.994 373.797 222.122 372.901 226.164C371.605 231.42 369.994 236.541 368.248 241.634C366.502 246.728 364.351 251.84 360.662 256.033C360.356 256.384 360.077 256.843 359.681 257.014C354.479 259.282 353.12 264.367 350.915 268.83C350.285 270.117 349.889 271.53 348.809 272.574C347.009 274.374 346.748 274.374 345.489 271.953C344.139 273.366 344.31 275.283 343.689 276.894C343.146 278.341 342.388 279.697 341.439 280.917C341.311 281.157 341.108 281.35 340.862 281.467C340.616 281.584 340.338 281.618 340.071 281.565C339.414 281.412 339.297 280.881 339.288 280.305C339.293 276.5 340.083 272.738 341.61 269.253C341.79 268.821 341.997 268.02 342.717 268.434C343.437 268.848 342.951 269.334 342.663 269.811C341.322 272.214 341.034 274.932 340.449 277.551C340.341 278.019 340.206 278.766 340.935 278.892C341.403 278.973 341.718 278.442 341.835 277.992C342.672 275.499 343.635 273.042 344.256 270.486C345.327 266.068 346.604 261.667 347.441 257.239C348.341 252.406 349.916 247.673 350.186 242.723C350.225 242.028 350.13 241.331 349.907 240.671C349.367 239.132 348.413 237.836 349.628 236.001C350.249 235.056 349.007 233.625 349.232 232.05C350.132 225.642 351.734 219.289 351.464 212.764C351.194 206.24 351.149 199.643 349.016 193.163C347.171 187.566 347.216 181.464 346.721 175.552C346.496 172.852 345.822 170.269 345.354 167.623C345.065 166.88 345.043 166.059 345.291 165.301C347.09 167.353 346.433 169.945 347.468 172.24C347.506 171.707 347.506 171.171 347.468 170.638C346.262 162.296 345.048 153.953 343.662 145.593C343.932 147.393 342.699 148.733 342.231 150.389C341.396 148.793 340.993 147.006 341.061 145.206C341.104 138.385 340.26 131.587 338.55 124.984C337.272 120.322 337.605 115.211 335.508 110.954C332.925 105.707 333.267 100.272 332.7 94.836C332.502 92.9011 330.649 91.9472 329.371 90.8223C325.62 87.3255 321.178 84.6551 316.331 82.9838C315.892 82.8263 315.463 82.646 315.044 82.4438C314.225 82.0659 313.334 80.9769 312.596 81.4809C311.579 82.1739 312.875 83.0648 313.01 83.9107C313.118 84.5947 313.082 85.2157 312.308 85.3776C311.534 85.5396 310.643 85.2066 310.616 84.5227C310.508 82.4708 308.609 81.2379 308.51 79.123C308.438 77.4582 306.485 76.9812 305 76.1533C304.586 76.8102 304.928 78.1151 303.74 78.2231C302.552 78.3311 302.444 77.0712 301.841 76.4232C301.72 76.323 301.627 76.1927 301.571 76.0453C301.041 73.0665 298.872 73.3454 296.73 73.6244C296.085 73.7678 295.413 73.7402 294.782 73.5445C294.15 73.3488 293.581 72.9917 293.13 72.5085C289.728 67.3788 288.144 61.2593 284.527 56.0396C282.916 58.1545 284.122 59.6394 285.004 60.9803C286.237 63.0169 287.358 65.12 288.36 67.2799C289.368 69.2957 289.809 72.4095 293.148 72.4995C293.148 72.8865 293.22 73.2735 293.301 73.6514C293.396 73.9499 293.392 74.2713 293.288 74.5669C293.184 74.8625 292.986 75.1161 292.725 75.2893C292.032 75.7393 291.591 75.2173 291.069 74.8843C287.226 72.4275 285.076 68.5848 282.853 64.805C281.643 62.8382 280.607 60.7695 279.757 58.6224C279.415 57.7225 278.938 56.6966 277.516 57.4435C276.094 58.1905 276.868 58.9644 277.363 59.8553C279.586 63.9411 282.385 67.6398 284.833 71.5546C284.994 71.9036 285.246 72.2029 285.563 72.4213C285.88 72.6398 286.249 72.7693 286.632 72.7965C287.658 72.7965 287.964 73.4264 287.955 74.3174C287.955 74.9293 288.063 75.6223 287.352 75.9373C286.641 76.2523 285.94 75.7213 285.553 75.2353C283.383 72.7303 281.466 70.0173 279.829 67.1359C278.363 64.6771 277.029 62.1416 275.833 59.5404C275.203 58.0285 273.556 57.9115 272.071 57.3175C273.628 60.4403 275.194 63.5451 276.733 66.6679C278.272 69.7907 279.856 72.6435 282.799 74.5694C283.51 75.0373 283.933 75.7213 283.384 76.5492C281.728 79.0781 282.214 81.8409 282.412 84.5857C282.52 86.1066 282.574 87.6455 282.727 89.1664C283.457 95.5758 283.554 102.042 283.015 108.47C282.772 110.945 283.312 113.492 283.33 116.012C283.33 118.756 283.231 121.51 283.096 124.255C282.727 131.851 281.728 139.383 281.008 146.943C280.495 152.342 279.667 157.679 279.37 163.078C279.316 164.149 279.568 164.446 280.405 164.212C283.105 163.456 285.967 164.158 288.711 163.609C291.006 163.245 293.348 163.3 295.623 163.771C296.658 163.942 297.801 164.77 298.62 163.339C298.676 163.287 298.743 163.248 298.816 163.225C298.889 163.201 298.967 163.194 299.043 163.204C301.193 165.58 303.74 162.305 305.882 163.951C306.584 161.252 305.99 158.867 305.765 156.428C305.36 152.063 305.405 147.654 305.297 143.262C305.297 142.74 305.405 141.948 305.99 141.93C306.89 141.93 306.638 142.785 306.71 143.361C306.784 145.258 307.312 147.109 308.249 148.76C309.428 150.605 309.203 153.179 309.086 155.33C308.897 158.885 310.571 161.936 311.048 165.283C311.498 168.415 311.84 171.583 312.362 174.697C312.659 176.497 312.776 178.251 314.108 179.826C315.44 181.401 315.116 183.678 315.323 185.649C315.82 189.479 316.551 193.274 317.509 197.015C317.743 198.05 318.166 198.968 317.32 200.057C316.474 201.146 317.662 200.264 317.815 200.417C318.976 201.569 319.183 203.117 319.408 204.602C320.128 209.506 318.985 214.321 318.715 219.172C318.337 225.759 314.63 230.826 311.633 236.271C309.175 241.019 305.56 245.07 301.122 248.051C298.827 249.536 297.567 252.101 296.073 254.35C295.47 255.25 294.921 256.195 294.273 257.05C294.012 257.419 293.607 257.86 293.13 257.473C293.014 257.329 292.934 257.159 292.896 256.977C292.859 256.796 292.865 256.608 292.914 256.429C293.864 253.852 295.07 251.377 296.514 249.041C299.484 244.334 304.073 240.788 306.251 235.623C307.682 232.248 308.366 228.558 310.04 225.237C310.148 225.03 310.274 224.697 310.184 224.571C307.862 221.368 310.247 218.173 310.337 215.005C310.607 206.078 311.759 197.222 309.671 188.259C308.447 182.976 307.529 177.576 306.377 172.249C306.053 170.755 305.846 168.937 303.416 170.008C303.153 170.063 302.881 170.053 302.622 169.979C302.363 169.905 302.126 169.77 301.931 169.585C299.322 166.435 295.632 167.362 292.311 166.993C291.239 166.848 290.175 166.644 289.125 166.381C286.203 165.856 283.202 165.979 280.333 166.741C279.019 167.02 278.533 167.803 278.38 169.198C277.966 174.049 277.48 178.908 276.832 183.732C276.103 189.069 275.347 194.36 275.734 199.787C275.869 201.587 274.762 203.279 274.492 205.124C273.709 210.685 272.593 216.202 271.792 221.764C270.722 229.17 269.588 236.541 266.798 243.569C265.604 246.726 264.63 249.961 263.882 253.252C263.036 256.531 262.003 259.758 260.786 262.918C259.931 265.267 259.742 267.849 258.311 270.045C255.45 274.401 255.207 279.819 252.579 284.282C248.079 291.887 244.479 300.004 238.405 306.646C235.422 309.798 232.167 312.68 228.676 315.258C224.627 318.345 219.632 318.966 214.574 317.85C212.99 317.508 211.407 317.148 209.85 316.716C208.178 316.311 206.727 315.276 205.8 313.827C204.549 311.883 202.146 311.389 200.481 309.841C196.93 306.475 193.692 302.795 190.807 298.843C188.317 295.469 186.176 291.851 184.417 288.044C181.631 282.231 179.156 276.274 177.002 270.198C175.499 265.906 173.681 261.73 172.196 257.428C170.372 252.384 168.869 247.229 167.696 241.994C166.572 236.667 165.42 231.33 164.439 225.984C163.17 219.145 161.937 212.269 160.506 205.475C158.274 194.828 157.428 184.002 155.385 173.347C155.026 171.292 154.78 169.219 154.647 167.137C154.548 165.868 153.954 165.265 152.739 165.337C147.034 165.805 141.337 166.336 135.641 166.777C134.651 166.858 134.795 167.551 134.687 168.091C133.25 175.371 132.721 182.801 133.112 190.212C133.22 192.506 132.932 194.783 132.878 197.06C132.725 203.594 133.67 210.001 134.489 216.427C134.841 219.573 135.421 222.689 136.226 225.75C136.999 228.495 137.521 231.33 138.727 233.922C139.933 236.514 140.752 238.934 141.796 241.427C142.696 243.596 144.019 245.522 147.097 245.783C143.371 248.069 146.728 249.941 147.007 251.858C146.934 251.912 146.852 251.951 146.764 251.973C146.676 251.996 146.585 252 146.495 251.987C146.406 251.973 146.32 251.942 146.242 251.895C146.165 251.849 146.097 251.787 146.044 251.714C142.678 247.646 138.295 244.676 134.345 241.337C130.394 237.998 127.946 233.625 126.245 229.017C124.793 224.687 124.066 220.148 124.094 215.581C123.878 207.176 125.795 199.004 126.326 190.689C126.669 183.108 128.293 175.641 131.132 168.604C131.429 167.902 132.527 166.714 130.367 166.282C129.467 166.102 130.448 164.689 131.132 164.482C132.536 163.978 132.581 162.925 132.806 161.783C134.07 154.821 134.972 147.798 135.506 140.742C135.668 137.714 136.206 134.719 137.107 131.824C137.855 133.642 138.101 135.628 137.818 137.574C137.629 141.588 137.17 145.593 137.305 149.624C137.319 150.87 137.045 152.102 136.505 153.224C135.326 155.924 135.146 158.777 134.804 161.612C134.669 162.754 135.038 163.825 136.685 163.411C141.58 162.161 146.584 162.296 151.606 162.125C153.603 162.053 154.125 161.639 153.774 159.596C152.811 153.98 152.676 148.283 152.334 142.596C152.046 137.754 151.435 132.912 151.435 128.053C151.372 122.311 151.435 116.579 151.732 110.828C151.956 106.436 151.875 101.964 152.073 97.5448C152.37 91.1462 151.812 84.7657 152.001 78.3671C152.046 77.1702 152.118 76.0183 153.603 76.1533C154.953 76.2612 154.755 77.3592 154.773 78.4571C154.708 81.8505 154.822 85.2451 155.115 88.6264C155.574 92.3252 155.232 96.1409 155.115 99.9027C154.998 104.87 154.89 109.802 154.962 114.815C154.962 116.894 154.359 118.963 154.359 121.114C154.359 129.475 155.853 137.745 155.79 146.061C155.79 151.001 156.924 155.762 156.861 160.64C156.861 162.026 157.653 161.828 158.535 161.864C161.577 161.972 164.754 161.261 167.651 163.447C168.335 160.469 166.626 158.21 166.239 155.726C165.591 151.541 164.439 147.438 163.638 143.28C163.071 140.463 162.477 137.601 161.946 134.775C160.992 129.754 159.867 124.768 158.751 119.791C157.239 113.087 157.446 106.292 157.194 99.5337C157.077 96.4649 156.123 93.4681 156.132 90.3633C156.132 84.4597 156.132 78.5561 156.132 72.5895C155.178 72.8595 155.232 73.7414 154.773 74.2274C154.314 74.7134 153.72 75.4243 152.973 74.8483C151.804 73.8944 150.931 74.2274 149.995 75.1543C149.617 75.5233 148.915 75.5323 148.879 74.9833C148.735 72.6525 147.358 71.0146 145.909 69.3497C144.91 70.0517 144.622 71.3296 143.956 72.3465C143.443 73.1384 142.588 73.8584 141.976 72.8415C141.184 71.5276 140.365 71.9415 139.474 72.3195C138.583 72.6975 137.908 73.2195 137.341 72.0135C137.179 71.6716 136.891 71.6265 136.613 71.8965C134.696 73.6964 132.239 72.2025 130.052 72.9135C128.756 73.3364 128.864 71.6176 129.269 70.7086C129.674 69.7997 130.115 69.2687 128.846 68.3778C127.577 67.4868 128.441 65.768 129.044 64.571C130.772 61.1063 132.644 57.7135 134.444 54.3027C135.093 53.3237 135.389 52.1519 135.281 50.9819C133.121 54.4287 130.862 57.8215 128.855 61.3582C127.73 63.3381 126.101 65.12 126.479 67.8558C126.641 69.0257 125.462 70.4026 124.499 71.4556C123.968 72.0225 123.194 72.5625 122.456 72.0315C121.719 71.5006 122.096 70.6816 122.384 70.0877C123.815 67.1719 125.309 64.292 126.794 61.4122C127.343 60.5336 127.702 59.5494 127.847 58.5234C126.218 61.0163 124.562 63.5001 122.96 66.0109C122.366 66.9109 121.979 68.0178 120.513 67.1629C119.991 66.8569 119.226 66.8659 119.127 67.8018C118.911 69.8447 117.192 70.7536 115.833 71.7526C111.594 74.8663 106.959 77.5032 102.964 80.8869C99.868 83.5058 98.0141 87.3035 96.1422 90.9663C93.1724 96.7799 93.5594 103.052 93.3074 109.253C93.1364 113.492 92.9924 117.739 92.7224 121.969C92.3625 127.738 91.9665 133.497 91.8225 139.284C91.5527 145.771 90.8219 152.231 89.6357 158.615C88.6637 164.257 87.7728 169.909 87.1158 175.606C86.4139 181.167 85.3069 186.567 84.614 192.12C83.831 198.419 82.8141 204.647 82.3641 211.018C81.8062 219.82 82.2291 228.612 81.8602 237.404C81.6802 241.904 82.6881 246.332 83.4891 250.742C84.125 254.215 84.824 257.671 85.5859 261.109C85.9369 262.684 86.4859 264.196 87.0078 265.735C87.2328 266.455 87.6648 267.165 87.0078 268.065C86.3149 267.3 86.4679 266.113 85.2979 265.249C86.4769 270.99 88.3487 276.228 88.8977 281.871C88.5529 281.864 88.224 281.724 87.9793 281.481C87.7346 281.238 87.593 280.91 87.5838 280.566C87.3138 277.596 85.1989 275.166 85.2619 272.07C85.2619 271.566 85.4779 269.721 83.822 271.17C83.1111 271.8 83.0031 270.747 82.8681 270.342C82.3191 268.713 81.8512 267.057 81.3832 265.411C81.3202 265.204 81.4552 264.934 81.3832 264.736C81.3112 264.538 80.6632 264.34 80.6452 264.466C80.3213 267.165 77.3155 263.053 77.0455 265.87C77.0455 266.464 77.3335 267.264 76.6225 267.552C75.7226 267.894 75.4706 267.013 75.0566 266.5C74.2287 265.492 73.3737 264.502 72.6358 263.422C71.6099 261.91 73.3107 263.026 73.6887 262.522C68.856 260.722 67.7311 255.925 65.1213 252.388C64.7343 251.858 64.4103 251.156 64.0144 250.544C62.8174 248.672 61.3955 246.872 61.6115 244.406C61.6272 243.234 61.3155 242.081 60.7116 241.076C59.3347 238.304 58.9117 235.209 57.8318 231.915C57.2738 234.192 58.8307 236.568 56.2839 237.881C56.1309 237.953 56.1759 238.862 56.4099 239.159C57.6338 240.68 57.0308 243.047 58.8847 244.307C59.0871 244.539 59.2369 244.812 59.3239 245.107C59.4109 245.402 59.433 245.712 59.3887 246.017C59.2807 247.061 59.6497 247.466 60.5946 247.88C62.3945 248.654 62.0795 250.688 63.3394 252.478C60.9636 251.579 59.6946 250.103 57.8048 248.312C58.3447 251.21 60.2346 252.964 60.2076 255.34C57.7418 252.002 56.0949 248.24 54.268 244.541C54.16 244.325 54.385 243.947 54.457 243.641C54.4849 243.621 54.5076 243.595 54.5232 243.564C54.5389 243.534 54.5471 243.5 54.5471 243.466C54.5471 243.431 54.5389 243.397 54.5232 243.367C54.5076 243.336 54.4849 243.31 54.457 243.29C54.457 243.11 54.457 242.921 54.457 242.732C54.466 242.585 54.466 242.438 54.457 242.291C54.7425 241.658 54.8961 240.973 54.9085 240.278C54.9209 239.584 54.7917 238.894 54.529 238.25C53.1521 233.499 52.7291 228.567 51.9102 223.698C51.5052 221.224 51.1362 218.74 50.7492 216.256C49.5973 221.278 50.3623 226.155 51.5592 230.961C52.2161 233.571 53.1161 236.064 53.1161 238.691C52.8423 238.672 52.582 238.565 52.3731 238.387C52.1643 238.209 52.0178 237.969 51.9552 237.701C50.7582 232.797 49.2553 228.027 48.9854 222.843C48.8504 219.91 49.1564 216.886 48.5174 213.934C48.0944 211.954 48.7424 209.938 48.8054 207.94C48.9202 202.885 49.4196 197.846 50.2993 192.866C51.5142 186.351 52.1891 179.736 53.998 173.338C55.6899 167.338 57.5918 161.387 59.7036 155.483C59.957 154.756 60.3809 154.1 60.94 153.571C61.499 153.042 62.1767 152.654 62.9164 152.441C61.1796 152.351 60.9636 151.829 61.6385 150.533C63.6544 146.655 65.0043 142.479 67.1911 138.636C70.044 133.641 72.6538 128.53 75.6776 123.607C77.5012 120.759 79.053 117.746 80.3123 114.608C82.0042 110.108 84.587 106.076 86.3869 101.658C86.6119 101.109 89.0867 99.5787 86.0359 99.0747C85.4869 98.9757 85.8469 97.7068 86.1079 97.1579C87.7818 93.6751 89.3477 90.0933 91.9935 87.2585C92.5784 86.6286 92.1915 85.8996 92.8934 85.2066C95.3233 82.9208 97.8341 80.707 100.228 78.3761C102.766 75.9283 106.204 74.3264 109.002 72.0765C114.105 67.9188 118.902 63.4641 122.672 57.9925C123.761 56.4086 124.67 54.7167 125.804 53.1868C127.046 51.4949 128.954 50.487 130.061 48.5341C132.878 43.5124 136.945 39.2917 139.699 34.1891C140.851 32.0382 142.552 30.1933 143.38 27.8895C144.55 29.5094 143.443 30.7063 142.48 31.7952C141.113 33.4356 140.074 35.3238 139.42 37.3568C146.431 31.7502 151.453 10.6826 147.088 5.14801C147.165 6.68293 147.165 8.22078 147.088 9.75569C146.773 12.8785 147.556 16.1183 146.188 19.1331C146.188 15.5333 146.062 11.9335 146.188 8.38779C146.2 7.546 146.158 6.70432 146.062 5.86796C145.99 5.35419 146.106 4.83167 146.389 4.39671C146.671 3.96176 147.102 3.64369 147.601 3.50111C144.901 2.93415 145.459 0.702301 145.405 -0.791603C145.326 -1.97298 145.172 -3.14822 144.946 -4.31037C144.136 -9.42203 143.641 -14.5877 143.056 -19.7263C143.056 -19.9063 143.263 -20.1133 143.389 -20.3293C144.361 -20.0593 143.758 -18.8354 144.892 -18.4124C141.657 -25.8692 141.156 -34.2284 143.479 -42.0178C144.055 -41.1179 143.785 -39.552 145.657 -40.218C146.35 -40.4519 146.377 -39.399 146.323 -38.7871C145.945 -33.9634 146.926 -29.2927 148.015 -24.649C148.463 -23.1055 149.034 -21.6007 149.725 -20.1493C149.76 -20.0579 149.814 -19.9751 149.884 -19.9065C149.954 -19.838 150.038 -19.7853 150.131 -19.752C150.223 -19.7187 150.321 -19.7056 150.419 -19.7136C150.516 -19.7216 150.611 -19.7505 150.697 -19.7983C151.057 -19.9873 150.913 -20.3113 150.796 -20.6083C149.329 -24.46 148.789 -28.5547 147.736 -32.5145C147.286 -34.1884 147.502 -35.8982 147.169 -37.5721C147.07 -38.0671 147.457 -39.066 147.889 -38.6791C149.689 -37.0412 150.292 -38.6791 151.228 -40.02C151.956 -36.6002 152.613 -33.4864 153.27 -30.3816L153.693 -30.3276C153.693 -32.0645 153.693 -33.7924 153.693 -35.5293C153.693 -36.7622 153.567 -37.9951 153.639 -39.228C153.636 -39.506 153.729 -39.7766 153.903 -39.9934C154.077 -40.2101 154.321 -40.3595 154.593 -40.4159C155.331 -40.4789 155.376 -39.723 155.493 -39.246C155.997 -35.8142 156.468 -32.3735 156.906 -28.9237C157.503 -24.6251 158.999 -20.5005 161.298 -16.8195C161.454 -16.5558 161.659 -16.3238 161.901 -16.1356C162.063 -16.0096 162.315 -16.0186 162.801 -15.8926C162.09 -18.0164 161.559 -20.0053 160.776 -21.8772C159.264 -25.4769 158.697 -29.3107 157.752 -33.0454C157.446 -34.2424 157.338 -36.2222 158.652 -36.4652C159.966 -36.7082 159.669 -34.6653 160.047 -33.6484C160.425 -32.6315 160.299 -31.5245 160.947 -30.4536C161.298 -32.2535 160.56 -34.1704 162.252 -35.4933C162.342 -35.5563 163.692 -38.1121 161.028 -37.2932C160.38 -37.0952 160.2 -37.8961 160.128 -38.4271C159.887 -39.7969 159.847 -41.1946 160.011 -42.5758C160.182 -43.3947 160.479 -44.2497 159.705 -44.9606C159.57 -44.9606 159.354 -44.9606 159.318 -44.8436C158.886 -43.7817 159.057 -41.8469 157.419 -42.2338C156.168 -42.5398 157.257 -44.1057 157.194 -45.1046C157.095 -46.4725 158.607 -48.7044 155.448 -48.6594C154.836 -48.6594 154.899 -49.6133 154.845 -50.2433C154.692 -51.8902 155.7 -53.3571 155.565 -55.085C155.286 -55.031 155.034 -55.085 154.899 -54.95C154.152 -54.356 153.702 -52.8621 152.568 -53.4921C151.291 -54.212 152.019 -55.6519 152.37 -56.6419C152.992 -58.311 153.43 -60.0432 153.675 -61.8075C152.271 -59.5217 150.526 -57.4068 149.995 -54.689C149.833 -53.843 149.545 -53.6181 148.825 -53.7081C148.105 -53.798 147.403 -54.239 147.736 -54.887C149.023 -57.3438 146.836 -59.9266 148.096 -62.4105C146.035 -58.6937 143.893 -55.058 142.75 -50.9092C142.449 -52.2106 142.52 -53.5706 142.957 -54.833C145.765 -64.1294 151.498 -71.6889 157.293 -79.2034C158.599 -80.7276 160.065 -82.1065 161.667 -83.3161C162.306 -83.847 163.359 -84.288 164.025 -83.6851C164.691 -83.0821 163.719 -82.4971 163.413 -81.8852C163.107 -81.2732 162.513 -80.9852 163.143 -80.4993C163.773 -80.0133 163.953 -80.5893 164.286 -80.9042C164.772 -81.3632 165.384 -81.6602 165.942 -81.1472C166.5 -80.6343 166.131 -80.0043 165.834 -79.4463C165.537 -78.8884 165.195 -78.2044 164.889 -77.5745C164.583 -76.9445 164.43 -75.8556 164.889 -75.6126C167.39 -74.4157 165.384 -73.2278 165.051 -72.0128C164.196 -68.854 162.981 -65.7133 162.927 -62.4375C162.873 -59.5667 161.793 -56.8308 162.027 -53.915C162.022 -52.7376 162.373 -51.5862 163.035 -50.6123C163.224 -53.3121 163.638 -56.0119 164.016 -58.7117C164.169 -59.8097 164.313 -60.8446 165.438 -61.4115C166.563 -61.9785 166.041 -63.0584 166.041 -63.9314C166.041 -64.8043 165.645 -65.8842 166.437 -66.8562C167.219 -64.0934 168.641 -61.6365 168.065 -58.7567C169.37 -61.7895 169.172 -65.3353 171.863 -67.8461C170.963 -61.4745 168.155 -55.3369 169.289 -48.6684C172.349 -53.4471 172.403 -59.4047 175.355 -64.1924C175.913 -60.1066 173.78 -56.5159 173.555 -52.6011C176.543 -56.1109 176.939 -60.7816 179.324 -64.8223C179.609 -64.4129 179.783 -63.9364 179.829 -63.4394C179.875 -62.9425 179.791 -62.4421 179.585 -61.9875C178.037 -56.8129 176.453 -51.6472 174.869 -46.4905C174.801 -46.0151 174.581 -45.5743 174.242 -45.2339C173.903 -44.8934 173.463 -44.6713 172.988 -44.6007C171.665 -44.3037 171.818 -42.3238 171.422 -41.0459C170.522 -38.1571 171.953 -35.8802 173.699 -33.6484C171.17 -33.3514 170.216 -34.9623 168.911 -36.4652C169.361 -34.0084 169.739 -31.5335 170.315 -29.1037C170.399 -28.4971 170.52 -27.8961 170.675 -27.3038C171.17 -25.9899 170.765 -24.073 172.529 -23.5601C173.69 -23.172 174.944 -23.1643 176.109 -23.5382C177.275 -23.9121 178.29 -24.648 179.009 -25.6389C182.563 -30.8046 186.136 -35.9432 187.918 -42.0718C188.071 -42.6028 188.242 -43.3137 188.989 -43.4487C189.313 -43.5117 189.565 -43.0888 190.114 -41.6489C192.813 -45.9868 194.627 -50.8164 195.451 -55.8589L196.693 -62.4735C196.773 -62.9414 196.863 -63.4994 197.439 -63.4724C198.015 -63.4454 197.862 -62.8064 197.952 -62.3925C199.68 -54.626 197.502 -47.6605 193.867 -40.8569C191.662 -36.7262 188.647 -33.2614 185.83 -29.5987C185.29 -28.8967 184.354 -28.1948 184.633 -26.7549C187.333 -28.7707 188.782 -31.5065 190.582 -33.9094C194.515 -39.183 197.943 -44.7536 199.383 -51.3232C199.662 -52.5921 201.138 -53.5371 200.373 -55.121C200.338 -55.2121 200.326 -55.3107 200.339 -55.4076C200.352 -55.5044 200.39 -55.5964 200.449 -55.6747C200.507 -55.753 200.585 -55.8152 200.674 -55.8553C200.763 -55.8954 200.861 -55.9121 200.958 -55.9039C201.426 -55.8589 201.471 -55.4089 201.507 -55.004C201.75 -52.0792 200.868 -49.3793 199.86 -46.7065C198.717 -43.558 197.368 -40.4885 195.82 -37.5181C197.381 -38.5751 198.539 -40.1293 199.104 -41.9278C200.4 -45.5996 203.055 -48.7854 203.073 -52.9251C203.073 -53.6811 203.856 -54.041 204.333 -54.536C204.531 -54.32 204.936 -54.086 204.909 -53.915C204.027 -49.1541 202.357 -44.5736 199.968 -40.362C199.225 -39.0457 198.934 -37.5218 199.14 -36.0242C201.759 -37.9231 203.712 -39.885 204.81 -42.6028C205.971 -45.4646 207.186 -48.3084 208.194 -51.2242C210.606 -58.1538 213.494 -64.9213 213.242 -72.5618C213.017 -79.4823 213.485 -86.4299 213.575 -93.3684C213.575 -96.0682 213.746 -98.885 212.9 -101.576C212.306 -98.0391 211.937 -94.5113 211.578 -90.9836C210.777 -83.0281 211.245 -74.8476 208.356 -67.2341C207.303 -64.5556 206.52 -61.7792 206.016 -58.9457C205.851 -57.3498 205.274 -55.8242 204.342 -54.518C204.107 -56.6364 204.309 -58.7805 204.936 -60.8176C205.343 -62.3769 205.576 -63.9766 205.629 -65.5873C205.674 -69.718 206.061 -73.7677 207.708 -77.6285C208.356 -79.1494 208.896 -80.7333 208.221 -82.4521C208.293 -79.7523 206.61 -77.7455 205.521 -75.4596C205.314 -82.4341 209.418 -88.7607 208.752 -96.1582C207.321 -94.7093 207.159 -93.1164 206.835 -91.6585C205.674 -86.2589 204.135 -81.0482 201.174 -76.3595C200.274 -74.9556 200.031 -73.1288 198.42 -72.1568C197.772 -71.7608 197.241 -70.9239 196.441 -71.6259C195.793 -72.1928 196.27 -72.9398 196.549 -73.5607C199.14 -79.4103 201.813 -85.2599 204.324 -91.1276C205.084 -93.2271 205.73 -95.366 206.259 -97.5351C203.914 -95.4789 202.392 -92.6435 201.975 -89.5527C201.66 -87.6628 200.328 -85.9529 199.59 -84.153C198.609 -81.7142 197.79 -79.2213 196.89 -76.7465C196.576 -75.8466 196.198 -75.1086 195.091 -75.4866C193.831 -75.9006 194.794 -76.7375 194.767 -77.4035C194.713 -78.8974 196.324 -79.9143 195.919 -81.6692C194.605 -81.0482 194.893 -78.5014 193.138 -79.0504C191.725 -79.5003 192.535 -81.2102 192.292 -82.5061C190.492 -81.1382 189.646 -78.9604 187.792 -77.7454C187.252 -77.3855 186.892 -76.3955 186.109 -76.9715C185.326 -77.5475 185.623 -78.4204 185.947 -79.1134C186.857 -80.9465 187.668 -82.8271 188.377 -84.747C187.153 -83.3791 185.938 -82.0472 184.705 -80.6433C184.282 -80.1843 183.805 -79.7433 183.373 -79.3473C182.941 -78.9514 182.347 -78.1774 181.574 -78.7354C180.8 -79.2934 181.097 -80.0763 181.34 -80.8502C182.383 -84.189 184.894 -86.5829 186.739 -89.3637C188.584 -92.1445 190.798 -94.9343 192.625 -97.8771C189.925 -95.1143 187.225 -92.3965 185.155 -89.1027C183.085 -85.8089 180.593 -82.5871 178.658 -79.1044C178.271 -78.4204 177.569 -77.5475 176.588 -78.1054C175.607 -78.6634 176.147 -79.5363 176.426 -80.3553C177.351 -82.6465 178.484 -84.8485 179.81 -86.9338C177.839 -86.1779 176.885 -84.234 175.265 -83.1631C174.635 -82.7401 174.203 -81.9932 173.546 -81.6512C173.078 -81.4172 172.565 -80.3373 171.836 -81.3812C171.703 -81.5249 171.601 -81.6937 171.534 -81.8776C171.467 -82.0616 171.438 -82.257 171.448 -82.4524C171.458 -82.6478 171.507 -82.8392 171.593 -83.0153C171.678 -83.1915 171.797 -83.3488 171.944 -83.4781C173.141 -84.675 174.284 -85.9529 175.589 -87.0778C179.284 -90.206 182.735 -93.6117 185.911 -97.2651C187.886 -99.3304 189.466 -101.74 190.573 -104.375C187.693 -101.315 184.876 -98.1921 181.924 -95.2133C179.225 -92.5135 176.813 -89.6697 174.293 -86.8618C173.636 -86.1329 172.619 -84.81 171.404 -85.9619C170.189 -87.1138 171.314 -88.0588 172.043 -88.9767C172.772 -89.8946 173.978 -90.2726 174.275 -91.7845C172.637 -91.1636 171.53 -89.8676 169.964 -89.4807C169.478 -89.3547 169.019 -88.7067 168.533 -89.2467C168.047 -89.7866 168.47 -90.4076 168.893 -90.8756C170.693 -92.9634 172.664 -94.9793 174.437 -97.1212C176.993 -100.193 179.483 -103.313 181.906 -106.481C184.498 -109.873 186.91 -113.455 190.501 -115.876C194.644 -118.807 199.776 -119.988 204.783 -119.161C206.088 -118.954 206.934 -117.721 207.996 -116.965C208.078 -116.91 208.146 -116.837 208.196 -116.752C208.245 -116.666 208.274 -116.571 208.28 -116.472C208.286 -116.374 208.269 -116.275 208.231 -116.184C208.193 -116.093 208.134 -116.012 208.059 -115.948C207.836 -115.78 207.562 -115.694 207.283 -115.705C207.004 -115.717 206.737 -115.825 206.529 -116.011C204.594 -117.892 202.164 -117.019 199.941 -117.271C197.097 -117.595 195.82 -115.741 194.677 -113.338C196.27 -113.698 197.763 -113.77 197.475 -111.484C200.787 -112.744 200.787 -112.744 201.021 -109.387C201.921 -110.503 202.686 -111.538 204.072 -111.871C204.585 -109.288 200.787 -108.856 201.534 -106.157C202.65 -107.506 203.532 -109.027 204.9 -110.089C206.799 -111.574 207.519 -111.331 208.293 -109.054C209.193 -108.919 209.193 -110.098 209.976 -110.143C210.651 -109.666 210.336 -109.027 210.174 -108.478C209.958 -107.704 209.094 -106.841 210.174 -106.238C211.254 -105.635 211.335 -106.805 211.802 -107.371C212.27 -107.938 213.287 -108.271 213.791 -107.83C214.817 -106.931 216.032 -106.193 216.311 -104.447C217.05 -98.8854 217.426 -93.2819 217.436 -87.6718C217.49 -87.0069 217.583 -86.3458 217.715 -85.6919C221.135 -88.0768 219.452 -91.0916 219.092 -93.7914C218.516 -98.1471 217.238 -102.404 217.427 -106.859C217.427 -107.299 217.328 -107.758 218.147 -108.226C219.875 -97.9671 221.594 -87.8068 223.34 -77.4845C224.726 -78.2494 224.519 -79.2124 224.339 -80.1843C223.142 -86.7269 221.639 -93.2244 221.153 -99.884C220.946 -102.503 220.829 -105.131 220.757 -107.758C220.757 -108.397 220.127 -109.36 221.387 -109.621C221.866 -109.768 222.384 -109.733 222.839 -109.522C223.294 -109.311 223.655 -108.939 223.853 -108.478C224.393 -107.317 224.753 -106.076 225.374 -104.366C225.878 -105.914 224.861 -106.904 225.374 -107.893C225.662 -108.487 225.635 -109.459 226.499 -109.468C227.362 -109.477 227.398 -108.568 227.542 -107.902C228.001 -105.527 228.19 -103.079 229.342 -100.874C229.567 -100.424 229.639 -99.641 230.296 -99.731C230.953 -99.821 231.061 -100.631 231.061 -101.225C231.061 -102.467 231.061 -103.709 230.908 -104.933C230.728 -106.733 231.259 -107.974 233.419 -108.127C232.573 -109.54 231.745 -110.746 231.7 -112.492C233.5 -111.754 233.5 -110.026 234.31 -108.739C234.382 -112.618 231.673 -116.722 228.478 -117.739C225.284 -118.756 222.692 -117.973 220.919 -115.552C220.019 -117.028 220.091 -117.703 221.522 -118.396C225.059 -120.106 228.496 -121.096 232.042 -117.955C232.49 -117.593 233.016 -117.34 233.579 -117.218C234.141 -117.097 234.725 -117.108 235.282 -117.253C239.782 -117.937 243.597 -116.164 247.332 -114.085C253.947 -110.404 257.231 -104.258 259.76 -97.4811C260.813 -94.6643 261.947 -91.8655 263.225 -89.1297C264.102 -87.1563 265.591 -85.5183 267.473 -84.459C265.565 -83.2531 264.08 -83.937 262.667 -84.9C262.118 -83.5951 263.441 -81.7412 261.767 -81.3002C260.093 -80.8592 259.229 -82.5691 258.428 -83.7481C256.934 -85.9529 255.612 -88.2477 254.046 -90.4796C255.225 -87.7168 253.416 -84.522 255.594 -81.9302C253.155 -82.8841 253.65 -85.9529 251.391 -86.9878C250.923 -86.4299 251.319 -85.8539 251.463 -85.3499C251.868 -83.982 252.264 -82.6501 249.996 -83.3161C249.861 -83.3687 249.712 -83.3703 249.576 -83.3206C249.44 -83.2709 249.327 -83.1733 249.258 -83.0461C247.935 -81.4082 246.882 -82.5691 246.036 -83.5321C243.705 -86.1689 242.355 -89.4177 240.754 -92.5315C239.793 -94.4939 238.714 -96.3962 237.523 -98.2281C239.035 -94.3493 240.52 -90.4886 241.878 -86.5289C242.107 -86.0406 242.288 -85.5313 242.418 -85.008C242.507 -84.6229 242.457 -84.2189 242.278 -83.8668C242.099 -83.5146 241.801 -83.2369 241.438 -83.0821C240.358 -82.8031 240.682 -83.982 240.484 -84.504C238.684 -89.1837 236.965 -93.8634 235.273 -98.5701C234.643 -100.316 234.184 -102.116 233.644 -103.889C233.482 -104.42 233.806 -105.383 232.843 -105.239C231.88 -105.095 232.042 -104.285 232.087 -103.547C232.375 -98.831 232.573 -94.1064 234.472 -89.6697C235.498 -87.2668 235.444 -84.693 235.597 -82.1462C235.597 -81.2912 235.741 -80.2293 234.562 -80.1843C233.572 -80.1843 233.221 -80.9942 233.122 -81.9842C232.824 -85.212 232.215 -88.4035 231.304 -91.5145C230.737 -93.3144 229.594 -94.8893 229.198 -96.7702L228.64 -96.6442C229.081 -94.5563 229.423 -92.4595 229.972 -90.4076C230.737 -87.5728 231.646 -84.783 232.483 -81.9752C232.744 -81.0752 232.87 -80.1753 231.754 -79.8873C230.854 -79.6533 230.26 -80.2473 230.107 -81.1202C229.495 -84.522 227.686 -87.5998 227.407 -91.0826C227.374 -91.7686 227.073 -92.4144 226.571 -92.8824C225.289 -94.2197 224.543 -95.981 224.474 -97.8321C224.321 -100.289 223.412 -102.701 222.674 -105.113C222.53 -98.5071 223.889 -92.1175 225.374 -85.7549C225.708 -87.122 225.723 -88.5476 225.419 -89.9216C225.365 -90.2996 225.284 -90.8216 225.752 -90.8936C225.866 -90.9078 225.981 -90.8973 226.091 -90.8629C226.2 -90.8285 226.301 -90.7709 226.387 -90.6941C226.472 -90.6173 226.54 -90.523 226.585 -90.4177C226.631 -90.3124 226.654 -90.1984 226.652 -90.0836C227.029 -85.9439 228.451 -81.9842 228.802 -77.8714C228.919 -76.4495 229.909 -75.3516 229.702 -73.8667C229.495 -72.3818 229.288 -71.3019 227.254 -73.1738C227.461 -71.2659 228.532 -70.6899 229.585 -70.7619C230.638 -70.8339 230.737 -70.3389 230.548 -69.754C229.819 -67.5311 231.295 -65.0653 229.72 -62.9594C229.643 -62.7659 229.643 -62.55 229.72 -62.3565C231.574 -56.6779 233.122 -50.9182 234.634 -45.1496C235.237 -42.8638 238.126 -39.03 240.79 -36.9692C239.08 -36.0692 237.919 -37.2212 236.632 -37.9861C237.811 -35.7183 240.52 -34.6743 241.59 -32.9374C243.219 -30.2376 245.874 -30.9486 247.791 -29.5987C243.669 -27.0158 234.409 -33.7114 230.773 -41.7569C230.278 -41.5409 230.476 -41.1269 230.512 -40.7849C230.566 -40.218 230.656 -39.606 229.918 -39.507C229.18 -39.408 229.018 -40.002 228.829 -40.5239C227.929 -43.0708 227.029 -45.6356 226.13 -48.1644C225.608 -49.5323 224.933 -50.8642 224.33 -52.1782C224.141 -52.5921 223.943 -53.0781 223.43 -53.0781C222.917 -53.0781 222.791 -52.5381 222.575 -52.1782C220.301 -47.6482 217.439 -43.439 214.061 -39.66C213.485 -39.048 213.008 -38.3371 212.459 -37.6891C211.91 -37.0412 210.912 -35.9612 210.174 -36.4202C208.59 -37.3921 207.051 -36.5912 205.125 -36.6542L210.039 -42.6748C208.514 -42.3567 207.145 -41.524 206.162 -40.3163C205.179 -39.1086 204.641 -37.5995 204.639 -36.0422C204.674 -35.851 204.637 -35.6536 204.536 -35.4877C204.435 -35.3217 204.276 -35.1988 204.09 -35.1423C202.218 -34.3773 200.157 -33.7744 198.258 -34.2424C196.792 -34.5753 196.36 -34.0894 195.703 -33.1444C192.544 -28.6447 189.016 -24.442 184.39 -21.3102C183.752 -20.7412 182.987 -20.3338 182.158 -20.1223C180.863 -19.9873 180.503 -19.3934 180.521 -18.1334C180.521 -17.1165 180.125 -16.2346 179.117 -17.6565C178.883 -17.9894 178.703 -18.3584 178.289 -17.8005C177.972 -17.4561 177.534 -17.2484 177.067 -17.2215C176.6 -17.1947 176.141 -17.3506 175.787 -17.6565C173.987 -19.4563 172.493 -17.8455 171.62 -16.9725C170.135 -15.4876 168.119 -14.3537 167.363 -12.2388C167.057 -11.3389 165.744 -11.5099 165.915 -9.97997C166.185 -7.59513 166.68 -4.97632 168.236 -3.6264C171.836 -0.530617 174.536 3.57311 178.757 5.84996C179.226 6.12 179.758 6.26212 180.3 6.26212C180.842 6.26212 181.374 6.12 181.843 5.84996C183.22 5.16601 183.931 5.74196 184.093 7.10987C184.993 14.6334 187.972 21.5089 191.914 27.7365C194.893 32.4972 197.466 37.6358 202.317 41.1456C205.161 43.2065 207.834 45.4113 211.074 46.8242C212.756 47.5622 213.638 49.596 215.834 49.587C215.483 49.9971 214.996 50.2667 214.462 50.3461C213.927 50.4254 213.383 50.3093 212.927 50.019C210.408 48.7591 210.228 48.8941 209.517 51.5669C208.293 50.9279 208.023 49.506 206.979 48.6781C205.107 47.1842 203.379 45.6543 200.913 45.0783C200.183 44.9271 199.505 44.59 198.944 44.0997C198.383 43.6093 197.957 42.9824 197.709 42.2795C197.655 42.0823 197.561 41.8981 197.434 41.7377C197.307 41.5773 197.149 41.4441 196.969 41.3459C196.79 41.2478 196.592 41.1866 196.388 41.1661C196.185 41.1456 195.979 41.1662 195.784 41.2266C195.91 42.8375 198.015 43.6564 197.583 45.4833C196.369 45.4833 196.369 44.2234 195.235 43.7464C195.037 46.8602 194.335 49.821 193.975 52.7458C193.931 54.4975 193.234 56.1697 192.022 57.4345C190.429 58.9104 191.446 59.7474 192.526 60.4403C195.694 62.4832 198.915 64.3911 202.722 65.138C209.373 66.4519 215.942 67.5138 222.827 66.5689C228.527 65.8576 234.062 64.1679 239.188 61.5742C239.748 61.3248 240.264 60.9876 240.718 60.5753C241.456 59.7654 243.417 59.5044 242.886 58.2984C242.516 57.7127 242.016 57.2204 241.424 56.8598C240.833 56.4992 240.166 56.2801 239.476 56.2196C236.398 55.9406 233.176 54.8697 230.314 55.2747C229.115 55.4686 227.888 55.4087 226.712 55.0986C225.537 54.7886 224.441 54.2354 223.493 53.4748C222.503 52.7908 220.964 52.9168 219.686 52.6378C219.227 52.5388 218.786 52.3228 218.786 51.7379C218.786 51.1529 219.29 51.1799 219.686 51.1439C220.678 50.9663 221.592 50.4889 222.305 49.776C222.891 49.2027 223.603 48.774 224.384 48.524C225.165 48.274 225.994 48.2097 226.804 48.3361C229.273 48.6564 231.782 48.3276 234.085 47.3822C237.082 46.2572 240.511 45.3123 242.607 42.6665C246.207 38.1128 250.122 33.7571 251.859 27.9795C253.38 22.9218 254.964 17.8642 256.701 12.9145C257.798 9.79169 257.6 6.61491 258.581 3.61811C258.725 3.18614 258.626 2.64617 259.22 2.55618C259.661 2.49318 259.859 2.89815 260.12 3.18613C261.839 5.166 263.846 5.36399 265.817 3.7981C266.231 3.46512 266.717 2.61918 267.077 3.89709C267.194 4.27506 267.635 4.14907 267.824 3.89709C270.614 0.405327 274.699 -2.40249 275.338 -7.06418C275.662 -9.37702 276.877 -12.3108 274.699 -14.5967C273.466 -15.8926 272.539 -17.5395 270.2 -17.1615C268.688 -16.9185 267.194 -16.3246 265.439 -16.8645C264.476 -17.1615 263.504 -15.5686 263.504 -14.1647C263.504 -12.6168 263.576 -11.0599 263.504 -9.52101C263.459 -8.87305 263.324 -7.92812 262.487 -7.90112C261.506 -7.90112 261.668 -8.80106 261.587 -9.50301C261.002 -13.8767 259.202 -17.7195 257.402 -21.6342C254.757 -27.3128 250.041 -31.4525 247.233 -36.9332C245.282 -40.8969 243.86 -45.0995 243.003 -49.4333C241.833 -54.3651 241.003 -59.3716 240.52 -64.4173C240.286 -67.6031 240.241 -70.9059 240.331 -74.6677C240.837 -74.3703 241.254 -73.9433 241.541 -73.4308C241.827 -72.9183 241.972 -72.3388 241.959 -71.7519C242.004 -63.5534 243.579 -55.5529 245.712 -47.7145C246.382 -44.626 247.355 -41.6115 248.619 -38.7151C248.943 -38.0581 249.033 -37.1942 250.185 -36.9152C249.591 -39.957 249.024 -42.8728 248.466 -45.7796C247.701 -49.7843 246.918 -53.7621 247.26 -57.9108C247.458 -60.3226 248.394 -62.5725 248.484 -64.9843C248.483 -65.1428 248.517 -65.2995 248.583 -65.4435C248.649 -65.5874 248.746 -65.7151 248.867 -65.8173C248.989 -65.9195 249.131 -65.9938 249.284 -66.0349C249.437 -66.076 249.597 -66.083 249.753 -66.0552C250.572 -65.9742 250.464 -65.3353 250.653 -64.7053C251.364 -62.0055 250.887 -59.4677 250.113 -56.8129C249.501 -54.761 250.293 -52.5831 250.851 -50.4593C252.552 -44.0067 255.27 -37.9501 257.798 -31.8125C258.47 -30.3396 259.663 -29.1667 261.146 -28.5187C256.557 -38.5531 255.594 -49.3523 254.343 -60.1516C255.006 -58.5127 255.529 -56.8208 255.909 -55.094C256.925 -47.7061 258.695 -40.4417 261.191 -33.4144C262.07 -31.2759 263.108 -29.2062 264.296 -27.2228C264.548 -26.8261 264.886 -26.4909 265.285 -26.2417C265.683 -25.9926 266.133 -25.8358 266.6 -25.7829C267.131 -25.6839 267.653 -25.5489 268.184 -25.4679C268.904 -25.3599 269.084 -23.857 270.029 -24.568C270.974 -25.279 270.668 -26.2779 270.578 -27.1868C270.479 -28.2398 269.381 -29.8147 270.902 -30.0666C271.801 -30.2106 271.712 -28.3298 271.747 -27.1688C271.893 -25.1014 272.151 -23.0434 272.521 -21.0042C272.728 -19.5643 274.321 -19.7533 275.221 -18.3674C274.843 -22.5971 274.528 -26.3139 274.159 -30.0666C274.105 -30.6156 273.916 -31.1376 274.276 -31.6235C277.48 -35.9792 276.319 -41.0909 276.778 -45.9236C276.816 -46.0973 276.816 -46.2772 276.779 -46.4511C276.742 -46.6249 276.668 -46.7889 276.562 -46.932C276.457 -47.075 276.322 -47.1939 276.167 -47.2808C276.011 -47.3676 275.839 -47.4203 275.662 -47.4355C273.7 -47.6875 273.448 -49.2803 273.259 -50.6843C272.908 -53.3211 271.622 -55.6699 271.19 -58.2618C271.135 -58.4544 271.041 -58.6337 270.914 -58.7885C270.787 -58.9434 270.63 -59.0704 270.452 -59.1617C270.569 -55.31 270.389 -51.4402 271.811 -47.7505C272.297 -46.6869 272.601 -45.5491 272.71 -44.3847C272.71 -43.6107 272.827 -42.7198 271.927 -42.3868C270.857 -41.9998 270.461 -42.9808 269.939 -43.6197C269.039 -44.7267 269.813 -46.4185 268.508 -47.5975C268.139 -46.4545 269.273 -45.6446 268.886 -44.6637C268.661 -44.1057 268.67 -43.3048 267.932 -43.2058C267.194 -43.1068 266.951 -43.8987 266.843 -44.4747C266.195 -47.9394 265.7 -51.4402 264.944 -54.878C263.729 -60.4216 263.009 -66.0822 260.993 -71.4369C260.435 -72.9308 260.408 -72.9308 261.083 -74.6857C263.34 -72.3689 265.25 -69.7378 266.753 -66.8742C267.5 -67.5311 267.059 -68.3591 267.248 -69.142C270.344 -68.7101 270.173 -65.7673 271.451 -63.9404C271.396 -68.7821 271.343 -73.5787 268.697 -77.8714C268.426 -78.2494 268.205 -78.6608 268.04 -79.0954C267.842 -79.7163 267.14 -80.4363 267.869 -80.9942C268.598 -81.5522 269.021 -80.6163 269.507 -80.2113C270.974 -78.9964 272.764 -78.3484 274.213 -76.9715C279.333 -72.0386 283.442 -66.154 286.309 -59.6477C287.915 -56.0669 289.093 -52.3092 289.818 -48.4524C289.941 -47.1873 289.965 -45.9145 289.89 -44.6457C291.582 -46.8325 291.618 -49.4693 291.537 -51.9622C291.564 -56.0776 290.391 -60.1116 288.162 -63.5714C286.363 -66.2712 285.319 -69.529 283.663 -72.4178C282.232 -74.9106 280.819 -77.2775 278.065 -79.1584C278.805 -79.3336 279.579 -79.2993 280.301 -79.0593C281.023 -78.8193 281.663 -78.383 282.151 -77.7994C284.293 -75.1539 286.092 -72.2481 287.505 -69.151C288.478 -67.1577 289.566 -65.2226 290.763 -63.3554C295.992 -55.094 294.561 -44.9696 289.548 -37.5721C288.306 -35.7723 288.351 -33.8194 288.144 -31.8485C288.115 -31.7352 288.111 -31.617 288.131 -31.5018C288.151 -31.3865 288.195 -31.2768 288.26 -31.1799C288.326 -31.083 288.411 -31.001 288.511 -30.9394C288.61 -30.8778 288.721 -30.838 288.837 -30.8226C290.718 -30.4086 290.898 -28.9687 290.889 -27.4118C290.889 -23.4971 291.294 -19.5913 290.313 -15.7126C289.921 -13.9669 290.153 -12.1388 290.97 -10.5469C292.068 -8.20709 291.222 -5.51628 291.411 -2.97845C291.915 3.92409 292.311 10.7906 293.787 17.6392C294.798 22.5232 296.387 27.2694 298.521 31.7772C300.534 35.7743 302.895 39.5867 305.576 43.1705C307.027 45.4084 308.174 47.8295 308.987 50.37C304.628 45.0559 300.715 39.391 297.288 33.4331C297.054 34.2341 296.937 34.711 296.775 35.17C296.397 36.1959 294.66 36.5919 295.272 38.0408C296.064 39.9217 296.325 41.9735 297.918 43.6024C301.949 47.7242 304.541 52.9078 307.727 57.6505C307.853 57.8395 307.997 58.0195 308.393 58.5504C307.241 52.9258 302.903 49.0561 302.093 43.5304C309.491 51.6299 311.993 62.1052 316.825 71.4286C317.977 70.4566 316.375 69.1967 317.617 68.2068C319.723 72.3195 323.548 74.9473 326.167 78.6461C328.408 81.6649 331.024 84.3866 333.951 86.7455C336.601 88.9426 338.597 91.8252 339.72 95.079C340.62 97.7788 341.619 100.389 342.285 103.178C343.097 106.331 343.618 109.551 343.842 112.799C344.004 116.048 346.001 118.351 347.612 120.898C350.726 125.758 353.912 130.582 357.071 135.405C362.704 143.964 368.374 152.504 374.44 160.766C379.556 167.541 383.742 174.972 386.886 182.859C387.858 185.415 387.291 188.367 388.245 191.004C388.279 191.073 388.299 191.149 388.303 191.226C388.307 191.303 388.295 191.38 388.268 191.453C388.241 191.525 388.199 191.591 388.146 191.647C388.092 191.703 388.028 191.747 387.957 191.778C387.774 191.855 387.569 191.86 387.383 191.794C387.196 191.727 387.041 191.593 386.949 191.418C386.402 190.569 385.95 189.664 385.599 188.718C383.863 183.13 381.3 177.833 377.994 173.005C376.995 171.556 377.157 169.684 376.014 168.343L375.601 167.956C375.025 166.579 374.593 165.103 373.279 164.176C373.087 163.512 372.782 162.885 372.379 162.323C369.418 159.569 367.69 155.924 365.368 152.711C363.568 150.209 361.768 147.689 359.969 145.179C361.058 149.678 361.939 151.19 364.666 153.917C365.082 154.266 365.419 154.698 365.656 155.186C366.646 158.237 368.995 160.334 370.84 162.79C371.281 163.474 371.803 164.167 372.784 164.176ZM288.648 49.605C289.935 50.577 289.62 52.6558 291.204 53.5378C291.442 53.1114 291.567 52.6312 291.567 52.1429C291.567 51.6545 291.442 51.1743 291.204 50.748C290.175 47.9286 288.973 45.1755 287.604 42.5045C286.524 40.5336 285.805 38.4368 284.905 36.4119C284.005 34.387 281.881 34.612 280.477 34.972C278.758 35.404 280.117 37.0059 280.432 37.8788C281.665 41.2716 283.06 44.6104 284.536 47.9041C285.661 50.415 287.001 52.8178 288.252 55.2657L288.783 55.0767C288.441 53.3308 286.668 51.6209 288.45 49.821L288.648 49.605ZM382.035 206.924C382.494 207.014 383.277 207.185 383.133 207.553C382.422 209.353 383.835 211.153 383.385 212.764C382.485 215.941 382.422 219.136 382.053 222.349C381.241 230.239 378.996 237.915 375.43 245C375.095 245.485 374.867 246.037 374.763 246.618C374.659 247.198 374.681 247.794 374.827 248.366C376.856 245.927 378.289 243.049 379.011 239.96C382.143 228.918 385.608 217.912 385.725 206.258C385.725 204.845 385.599 203.639 383.646 204.458C383.126 204.614 382.593 204.719 382.053 204.773C382.053 203.945 381.486 203.351 381.216 202.631C380.946 201.911 381 201.02 381.873 200.984C384.168 200.867 383.628 199.265 383.547 197.996C383.159 192.508 381.854 187.124 379.686 182.067C378.372 178.917 376.671 175.93 374.899 172.366C374.778 172.782 374.706 173.211 374.683 173.644C374.779 174.018 374.918 174.381 375.097 174.724C377.626 179.78 379.547 185.118 380.82 190.626C381.324 193.037 382.494 195.287 382.485 197.825C382.485 198.725 382.539 199.805 381.585 199.967C380.631 200.129 379.569 200.3 378.813 199.4C378.372 198.887 378.003 198.32 377.427 197.555C377.258 198.066 377.228 198.613 377.341 199.14C377.453 199.667 377.703 200.154 378.066 200.552C378.442 200.948 378.734 201.416 378.924 201.928C379.114 202.44 379.199 202.985 379.173 203.531C379.047 208.615 380.019 213.691 379.173 218.83C378.966 220.144 377.994 220.846 377.832 222.133C377.103 227.658 375.349 232.932 373.702 238.25C372.955 240.617 371.713 242.903 372.316 245.576C372.579 245.547 372.822 245.422 372.998 245.224C373.175 245.026 373.271 244.77 373.27 244.505C373.396 242.291 374.521 240.608 375.835 238.934C376.416 238.129 376.818 237.209 377.013 236.235C377.913 232.14 379.713 228.288 380.019 224.031C380.217 220.945 381.432 217.867 380.919 214.825C380.541 211.918 381.261 209.47 382.035 206.924ZM220.748 315.42C221.232 315.199 221.735 315.022 222.251 314.889C225.437 314.304 227.65 312.1 230.107 310.273C233.518 307.735 236.848 305.026 239.107 301.399C241.132 298.168 243.417 295.1 245.181 291.707C247.719 286.784 250.68 282.042 252.183 276.687C253.65 271.503 256.404 266.859 257.771 261.586C258.806 257.563 260.975 253.765 262.073 249.68C263.414 244.703 265.511 239.897 266.438 234.876C267.914 226.866 269.399 218.848 270.542 210.766C271.514 203.864 272.683 196.997 273.196 190.023C273.709 183.048 274.6 176.263 275.329 169.378C275.419 168.478 275.113 167.911 274.168 168.226C272.071 168.937 269.894 168.838 267.743 169.027C267.117 169.073 266.517 169.296 266.013 169.671C265.51 170.045 265.123 170.556 264.899 171.142C262.91 175.642 260.993 180.186 258.914 184.641C257.298 188.389 255.459 192.037 253.407 195.566C251.042 199.322 248.391 202.891 245.478 206.24C240.214 212.359 234.769 218.137 227.119 221.251C224.942 222.151 222.53 223.788 220.316 222.717C217.724 221.458 214.916 221.548 212.36 220.657C207.505 219.116 202.887 216.912 198.636 214.105C195.136 211.657 192.148 208.462 188.935 205.619C183.535 200.858 179.936 194.819 176.903 188.664C174.05 182.85 171.017 176.965 170.063 170.296C169.984 169.06 169.442 167.899 168.544 167.044C167.647 166.19 166.46 165.706 165.222 165.688C163.422 165.544 161.541 165.904 159.822 165.598C157.671 165.22 157.473 165.994 157.815 167.731C158.661 172.033 159.111 176.407 159.885 180.735C160.659 185.064 161.217 189.33 161.595 193.694C162.063 199.229 163.899 204.629 164.718 210.145C166.041 218.992 168.47 227.604 169.802 236.433C170.036 237.998 170.981 239.285 171.125 240.86C171.764 247.799 174.392 254.179 176.786 260.659C178.406 265.06 180.098 269.433 181.762 273.816C182.662 276.039 183.895 278.037 184.642 280.269C185.894 284.153 187.566 287.889 189.628 291.41C193.468 297.709 198.207 303.415 203.694 308.347C208.347 312.673 214.399 315.183 220.748 315.42ZM267.347 75.7303C267.347 75.4873 267.248 74.8753 267.248 74.2634C267.248 73.3634 266.663 72.4635 265.997 72.6165C265.609 72.7548 265.275 73.012 265.043 73.3514C264.81 73.6908 264.69 74.095 264.701 74.5064C264.35 83.9198 261.83 93.0361 260.768 102.405C260.354 105.354 259.655 108.256 258.68 111.071C257.51 114.671 255.828 118.027 254.721 121.627C253.398 125.929 250.914 129.727 248.7 133.56C246.963 136.593 244.578 139.212 242.661 142.155C241.108 144.543 239.271 146.734 237.19 148.679C234.566 151.125 231.516 153.068 228.19 154.412C224.015 156.122 219.875 157.895 215.069 157.625C213.017 157.508 212.09 155.924 210.426 155.636C203.325 154.421 198.573 149.336 193.993 144.657C190.762 141.327 188.683 136.764 186.316 132.588C183.869 128.26 181.646 123.808 179.657 119.251C178.134 115.854 177.005 112.294 176.291 108.641C175.391 103.601 174.068 98.6338 173.321 93.5671C172.556 88.3654 170.621 83.3978 170.315 78.1151C170.315 77.2602 169.919 76.4682 168.965 76.5672C167.858 76.6932 167.867 77.8002 167.804 78.5831C167.501 83.2127 167.822 87.8622 168.758 92.4062C170.189 99.8487 170.639 107.444 172.592 114.833C173.852 119.611 174.581 124.588 175.715 129.448C176.471 132.705 178.235 135.558 179.09 138.78C179.712 141.085 180.59 143.313 181.709 145.422C184.939 151.46 188.242 157.427 192.769 162.718C195.257 165.529 198.21 167.891 201.498 169.702C205.476 172.015 210.021 173.041 214.412 174.382C215.85 174.915 217.382 175.144 218.912 175.057C223.15 174.653 227.233 173.253 230.827 170.971C234.769 168.478 239.08 166.255 241.536 162.188C244.164 157.832 247.98 154.277 249.942 149.507C250.205 148.698 250.584 147.931 251.067 147.231C254.73 142.677 255.981 136.98 258.005 131.743C259.877 126.937 261.713 121.969 262.397 116.732C262.964 112.313 264.062 107.921 264.287 103.493C264.499 98.5735 265.037 93.6731 265.898 88.8244C266.618 84.6127 266.843 80.374 267.347 75.7303ZM219.605 220.36C220.311 220.376 221.017 220.316 221.711 220.18C226.688 218.299 231.556 216.247 235.624 212.638C237.244 211.198 238.387 209.362 240.025 207.904C243.238 205.098 245.955 201.769 248.061 198.059C250.932 192.83 254.55 188.007 256.664 182.346C257.951 178.89 260.264 175.858 261.092 172.186C261.245 171.547 261.884 170.386 260.39 170.755C256.674 171.763 251.778 171.133 251.148 176.875C251.083 177.097 250.966 177.301 250.806 177.469C248.151 181.158 244.641 184.083 241.869 187.656C241.571 188.008 241.218 188.312 240.826 188.556C235.087 192.287 229.049 195.535 222.773 198.266C222.484 198.369 222.179 198.418 221.873 198.41C218.414 198.531 214.955 198.153 211.605 197.285C205.179 195.602 198.951 193.019 193.741 188.556C192.139 187.188 191.14 185.361 189.745 183.867C187.945 181.968 187.567 179.241 185.632 177.568C184.432 176.471 183.487 175.126 182.86 173.626C181.214 170.026 179.693 166.228 174.545 166.984C174.232 166.977 173.925 166.9 173.645 166.759C172.529 166.327 172.223 166.813 172.421 167.839C172.725 169.669 173.164 171.474 173.735 173.239C175.643 178.692 177.992 183.975 180.332 189.249C182.016 192.969 184.209 196.436 186.847 199.553C189.943 203.252 193.876 206.132 197.376 209.452C201.948 213.754 207.276 216.418 212.963 218.533C215.249 219.379 217.688 219.865 219.605 220.36ZM172.628 72.1215C172.532 77.0183 173.139 81.9036 174.428 86.6286C176.066 92.3522 177.047 98.1928 178.1 104.006C178.96 109.488 180.471 114.847 182.599 119.971C185.853 127.004 189.723 133.735 194.164 140.085C194.597 140.901 195.081 141.688 195.613 142.443C200.058 147.36 205.651 151.1 211.892 153.332C215.564 154.7 219.002 154.394 222.692 153.332C229.963 151.163 234.841 145.746 240.187 140.94C240.508 140.604 240.751 140.202 240.898 139.761C241.546 138.274 242.397 136.884 243.426 135.63C245.226 133.191 247.323 130.852 248.691 128.161C250.383 124.813 251.697 121.231 253.191 117.811C256.548 110.261 258.284 102.386 259.409 94.314C259.562 93.1621 259.967 91.7852 259.202 90.5073C258.365 91.1103 258.869 91.8752 258.707 92.4872C257.582 96.9149 255.027 100.713 253.146 104.771C250.85 109.522 248.054 114.015 244.803 118.171C242.256 121.537 239.08 124.156 235.903 126.775C233.005 129.169 229.603 130.798 226.364 132.759C224.815 133.656 223.021 134.035 221.243 133.839C220.1 133.802 218.955 133.823 217.814 133.902C213.831 133.907 209.876 133.241 206.115 131.932C202.515 130.798 200.085 128.107 197.25 125.884C191.481 121.333 186.968 115.386 184.138 108.605C182.842 105.59 181.852 102.486 180.719 99.4257C178.865 94.458 176.696 89.6344 175.526 84.3787C174.608 80.464 174.608 76.3692 172.628 72.1215ZM253.749 65.669C253.155 68.4498 251.688 70.7716 250.455 73.1475C249.114 75.7123 247.881 78.3311 245.748 80.491C242.841 83.4428 239.539 85.8906 236.389 88.4824C235.048 89.6074 233.599 91.1823 232.033 91.3802C227.902 91.9922 223.817 93.5671 219.506 92.5502C218.163 92.1877 216.789 91.9527 215.402 91.8482C210.48 91.6412 206.349 89.1484 202.038 87.2495C197.971 85.5302 194.491 82.6663 192.022 79.0061C189.457 75.2173 185.506 72.4455 183.859 67.9458C183.661 67.4058 183.391 66.6229 182.608 66.8209C181.826 67.0189 180.611 67.3518 180.647 68.1078C180.701 69.1517 180.152 69.1877 179.603 69.1877C177.461 69.1877 177.704 70.1596 178.541 71.4736C180.431 74.4254 181.016 77.8901 182.23 81.0939C182.779 82.5428 182.77 84.1717 183.382 85.7376C184.282 88.0775 186.01 89.6254 187.495 91.4612C189.574 94.0351 191.266 96.9059 193.345 99.4797C194.38 100.767 195.235 102.18 196.827 103.079C200.94 105.383 204.81 107.858 209.427 109.442C216.257 111.782 222.332 110.819 228.415 108.209C232.078 106.634 236.038 105.869 239.359 103.043C241.609 101.017 243.444 98.572 244.758 95.8439C245.847 93.7831 246.486 91.0652 247.629 89.1664C250.644 84.1627 251.229 78.3671 253.758 73.2375C254.892 71.1136 255.504 68.2158 253.749 65.669ZM258.392 67.9278C257.249 72.2475 255.459 76.2883 254.145 80.527C252.401 85.7006 250.333 90.7592 247.953 95.673C245.343 101.37 241.959 106.472 236.56 109.847C234.301 111.26 231.943 112.718 229.009 111.431C228.603 111.295 228.169 111.262 227.747 111.334C227.325 111.406 226.927 111.582 226.589 111.845C223.646 113.699 220.514 113.96 216.995 113.87C211.425 113.717 206.421 112.07 201.561 109.739C198.131 108.237 195.083 105.982 192.643 103.142C189.583 99.3537 186.703 95.43 183.643 91.6322C181.66 89.0999 180.334 86.1166 179.783 82.9478C179.144 79.537 177.083 76.6482 176.849 73.1565C176.803 74.5182 176.866 75.8815 177.038 77.2332C177.259 81.7213 178.239 86.1395 179.936 90.3003C182.131 95.313 183.697 100.551 185.839 105.599C187.387 109.199 188.728 113.078 191.338 115.94C196.216 121.285 201.363 126.415 208.374 129.205C216.068 132.265 223.178 130.888 229.972 126.829C234.589 124.048 238.972 120.898 242.157 116.363C245.055 112.223 248.556 108.515 250.626 103.763C251.292 102.252 251.481 100.614 252.48 99.1467C254.433 96.0343 255.857 92.6191 256.691 89.0404C258.023 84.2527 257.591 79.24 258.347 74.3714C258.662 72.3375 259.148 70.1057 258.392 67.9278ZM221.189 89.7153C225.293 89.1754 229.234 88.8874 232.888 86.8625C234.794 85.733 236.582 84.4155 238.225 82.9298C241.824 79.933 245.361 77.0892 247.161 72.4455C248.158 69.9512 249.403 67.5633 250.878 65.318C252.678 62.6181 252.948 61.0523 251.328 58.4424C251.076 58.0456 250.719 57.7268 250.296 57.5217C249.873 57.3167 249.401 57.2335 248.934 57.2815C247.719 57.3445 248.124 58.0645 248.412 58.7484C248.466 58.8744 248.205 59.2974 248.151 59.2884C246.117 58.8834 245.541 60.8003 244.344 61.6912C240.245 64.6202 235.646 66.7764 230.773 68.0538C225.255 69.5889 219.494 70.0562 213.8 69.4307C209.877 69.0347 205.971 68.0898 201.966 68.3508C201.351 68.3059 200.754 68.1212 200.22 67.8108C196.567 66.1639 192.958 64.436 190.078 61.5112C189.412 60.8363 188.584 60.4133 187.891 61.3042C186.991 62.5192 184.498 63.2391 185.308 65.003C188.21 70.9861 192.37 76.2722 197.502 80.5C201.413 83.8941 206.114 86.252 211.173 87.3575C214.565 88.1045 217.913 88.9504 221.189 89.7153ZM248.682 173.761C245.415 174.661 242.382 175.633 239.377 176.398C234.465 177.717 229.427 178.508 224.348 178.755C218.273 178.962 212.378 177.397 206.745 175.21C200.166 172.663 193.525 170.494 186.496 169.684C185.875 169.612 185.02 169.216 184.579 169.972C184.138 170.728 184.849 171.358 185.209 171.835C186.394 173.398 187.461 175.047 188.404 176.767C190.202 180.252 192.592 183.398 195.469 186.063C200.69 190.539 206.899 193.712 213.584 195.323C214.97 195.683 216.608 196.07 217.886 195.665C222.314 194.252 226.975 193.568 231.106 191.166C233.838 189.625 236.471 187.914 238.99 186.045C240.767 184.704 242.354 183.126 243.705 181.356C245.46 179.025 248.142 177.262 248.682 173.761ZM231.097 174.661C231.862 174.562 232.627 174.481 233.383 174.355C239.019 173.33 244.565 171.861 249.969 169.963C250.82 169.648 251.562 169.091 252.102 168.361C254.649 165.364 255.126 161.432 257.024 158.093C259.652 153.476 260.624 148.031 262.316 142.956C263.387 139.779 263.387 136.404 264.269 133.182C265.214 129.7 265.646 126.073 266.636 122.608C267.338 120.16 267.482 117.632 268.202 115.193C269.228 111.737 270.515 108.218 270.902 104.726C271.523 99.1737 273.025 93.7291 272.998 88.1045C272.998 85.0986 273.835 82.1738 273.709 79.1051C273.601 76.4052 272.242 75.3433 269.822 74.9024C269.815 79.3124 269.412 83.7129 268.616 88.0505C267.356 95.196 267.5 102.449 266.312 109.649C265.691 113.411 265.178 117.227 264.512 121.006C263.981 123.805 262.235 126.199 261.812 129.034C261.546 131.174 261.002 133.271 260.192 135.27C259.553 136.8 258.158 137.817 257.744 139.446C255.666 147.483 250.653 153.917 246.099 160.577C242.095 166.228 236.992 171.015 231.097 174.652V174.661ZM192.994 166.948C192.125 166.197 191.295 165.401 190.51 164.563C185.11 158.129 181.268 150.695 177.524 143.226C177.17 142.621 176.955 141.944 176.894 141.246C176.773 139.009 176.236 136.815 175.31 134.775C173.537 130.485 172.181 126.033 171.26 121.483C170.531 117.299 169.343 113.213 168.83 108.965C168.245 104.087 166.68 99.3177 166.131 94.431C165.375 87.4025 165.177 80.311 164.727 73.2375C164.682 72.5175 164.907 71.5636 163.656 71.6086C162.594 71.6086 162.171 72.1755 162.207 73.2464C162.279 75.5413 162.153 77.8361 162.315 80.113C162.729 85.8906 163.287 91.6592 163.926 97.4188C164.871 105.842 166.185 114.203 167.696 122.5C168.686 127.9 169.172 133.461 170.828 138.789C172.061 142.749 173.528 146.655 174.797 150.587C175.778 153.539 177.38 156.329 178.685 159.2C179.585 161.108 179.99 163.78 181.933 164.644C185.435 166.123 189.193 166.903 192.994 166.939V166.948ZM279.55 88.6084C278.812 94.0081 277.813 99.4077 277.435 104.807C277.21 107.93 276.94 111.053 276.616 114.158C276.288 118.456 275.732 122.734 274.951 126.973C274.201 130.183 273.636 133.435 273.259 136.71C272.827 141.03 271.307 145.08 270.353 149.309C269.453 153.332 267.806 157.193 266.825 161.207C265.439 166.831 265.574 166.867 271.433 165.967C271.818 165.983 272.203 165.962 272.584 165.904C274.276 165.292 275.842 164.626 276.256 162.484C277.426 156.383 277.696 150.182 278.38 144.027C278.857 139.815 279.082 135.576 279.658 131.428C280.306 126.694 281.008 121.933 280.468 117.2C280.09 113.843 280.423 110.558 280.513 107.3C280.684 100.956 280.801 94.773 279.55 88.5994V88.6084ZM255.495 168.568C255.999 168.523 256.287 168.496 256.574 168.487C260.912 168.325 263.351 166.687 263.99 161.801C265.043 153.872 269.183 146.646 269.966 138.573C270.488 133.173 272.242 128.035 272.413 122.617C272.432 122.008 272.526 121.404 272.692 120.817C274.024 116.147 273.592 111.323 273.952 106.535C272.809 108.974 271.46 111.341 271.253 114.014C270.938 117.919 269.768 121.627 268.895 125.389C267.68 130.573 266.285 135.72 265.367 140.967C264.443 145.961 263.069 150.862 261.263 155.609C259.634 159.938 257.492 164.068 255.495 168.568ZM158.733 72.7695C158.733 77.4672 158.535 81.7689 158.733 86.0346C159.084 92.4692 160.11 98.8947 160.164 105.329C160.176 111.251 160.935 117.147 162.423 122.878C164.484 130.627 165.231 138.636 167.309 146.385C168.461 150.668 169.109 155.096 170.234 159.389C171.44 163.888 171.584 163.888 176.435 164.005C176.818 163.98 177.2 163.932 177.578 163.861C176.003 161.342 175.211 158.696 174.221 156.167C173.06 153.206 171.593 150.362 170.693 147.249C169.559 143.343 168.29 139.464 167.147 135.549C166.565 133.038 166.141 130.492 165.879 127.927C165.537 125.875 164.232 123.913 164.889 121.681C164.928 121.135 164.832 120.588 164.61 120.088C163.352 115.814 162.571 111.413 162.279 106.967C162 102.422 161.073 97.9678 160.605 93.4681C160.101 88.6174 159.858 83.7848 159.66 78.9251C159.624 76.9992 160.137 74.9113 158.733 72.7695ZM362.83 239.402C364.729 236.388 364.864 232.986 365.917 229.89C367.834 224.283 368.284 218.38 368.905 212.53C369.086 209.834 369.119 207.13 369.004 204.431C369.004 203.918 369.004 203.27 368.23 203.234C368.033 203.215 367.837 203.271 367.68 203.392C367.523 203.512 367.417 203.687 367.384 203.882C367.231 205.439 366.016 206.807 366.07 208.21C366.241 213.138 366.133 218.072 365.746 222.987C365.512 226.317 364.432 229.485 364.279 232.797C364.286 232.956 364.255 233.114 364.191 233.259C364.127 233.405 364.03 233.533 363.909 233.636C363.787 233.738 363.644 233.812 363.49 233.85C363.336 233.889 363.175 233.892 363.019 233.859C362.191 233.706 362.623 233.031 362.587 232.527C362.425 230.394 363.424 228.486 363.838 226.479C365.026 220.657 364.792 214.78 364.738 208.93C364.706 206.573 363.853 204.301 362.326 202.505C366.952 222.42 359.861 240.302 353.057 258.301C356.052 253.323 358.364 247.966 359.933 242.372C360.554 240.158 361.219 237.962 361.894 235.776C362.02 235.344 362.173 234.804 362.794 235.038C362.908 235.074 363.013 235.133 363.103 235.21C363.193 235.288 363.267 235.383 363.321 235.489C363.375 235.595 363.406 235.711 363.415 235.83C363.423 235.949 363.408 236.068 363.37 236.181C362.963 237.204 362.779 238.302 362.83 239.402ZM68.4151 237.863L69.09 237.602L79.7273 258.562C80.3843 255.916 78.8274 254.539 78.4134 252.865C77.3965 248.366 75.2636 244.37 73.4277 240.266C72.5728 238.349 72.5278 235.497 69.072 236.343C68.856 236.397 68.5411 236.073 68.2621 235.929C68.1014 235.822 67.9105 235.769 67.7177 235.779C67.5248 235.788 67.3402 235.86 67.1911 235.983C66.3452 236.649 65.8142 241.526 66.5702 242.381C68.3935 244.304 69.727 246.638 70.4579 249.185C71.6728 254.08 75.0206 257.635 77.5495 261.712C77.8194 262.153 78.3234 262.612 78.9084 262.324C79.4933 262.036 79.0794 261.343 79.0164 260.848C78.8094 259.192 77.2795 258.346 76.6135 256.942C74.6696 252.829 72.5368 248.843 70.6019 244.703C69.585 242.516 68.3161 240.356 68.4151 237.863ZM162.306 12.4555C162.162 16.9552 159.795 20.9149 162.666 24.8927C162.875 25.3066 162.944 25.777 162.864 26.2336C162.442 31.0585 161.657 35.8448 160.515 40.5516C159.615 43.8904 159.111 47.3282 158.463 50.7299C158.382 51.1529 158.22 51.7379 158.697 52.0169C159.174 52.2959 159.669 51.7559 160.083 51.4589C161.19 50.685 160.983 49.344 161.253 48.2821C162.828 42.3875 166.545 37.0509 165.339 30.3913C164.664 26.6656 165.285 22.7148 164.16 19.0161C163.548 17.0002 164.241 14.6784 162.306 12.4555ZM369.895 200.462C371.695 216.895 368.554 232.401 362.281 247.439C363.658 247.133 364.081 246.242 364.567 245.387C365.548 243.758 365.8 241.895 366.448 240.167C367.997 236.226 369.34 232.207 370.471 228.126C371.995 221.739 372.837 215.208 372.982 208.642C373.054 205.7 372.757 202.667 369.895 200.462ZM363.865 201.569C362.714 188.841 359.778 176.339 355.145 164.428C355.649 169.828 356.144 175.156 356.99 180.456C357.782 185.415 358.898 190.356 359.951 195.242C360.446 197.735 362.164 199.526 363.82 201.569H363.865ZM68.766 218.902C69.135 218.641 69.054 218.263 69.072 217.894C69.2498 213.196 69.7581 208.517 70.5929 203.891C70.7279 203.144 70.5929 200.912 72.5188 202.991C73.0498 203.558 74.7866 203.261 75.1106 201.722C75.3716 200.471 75.5786 199.211 75.8216 197.906C74.7236 197.906 73.8867 199.634 73.2657 198.5C72.5368 197.168 70.5659 196.799 70.6559 194.855C70.6559 194.144 69.756 193.055 69.009 193.577C68.1091 194.225 66.9752 194.621 66.3092 196.034C65.1213 198.545 64.8423 200.777 66.0212 203.279C66.283 202.719 66.5143 202.145 66.7142 201.56C66.8492 201.11 66.8672 200.525 67.4521 200.552C68.0371 200.579 67.8931 201.209 67.9561 201.641C68.1712 203.089 68.2825 204.551 68.2891 206.015C68.2891 209.776 67.6141 213.52 68.0641 217.282C68.1271 217.867 68.0191 218.542 68.766 218.902ZM147.061 51.4589C149.137 49.0339 150.825 46.3016 152.064 43.3595C153.477 39.9847 154.404 36.5199 155.493 33.0731C155.79 32.1732 155.808 31.3362 154.845 30.9133C153.882 30.4903 152.676 30.3643 151.893 31.3903C151.554 31.9889 151.288 32.6265 151.102 33.2891C150.202 35.557 149.725 37.9688 148.555 40.1827C147.016 43.1165 145.585 46.1043 143.902 48.9661C143.668 49.371 143.407 49.866 143.902 50.181C144.397 50.496 144.802 50.01 145.027 49.641C145.594 48.8131 146.125 47.9491 146.665 47.1122C146.89 46.7612 147.187 46.5002 147.619 46.6532C148.213 46.8602 148.114 47.3282 147.979 47.8051C147.718 48.8761 146.926 49.722 147.052 51.4589H147.061ZM277.48 72.2745C276.121 69.8627 275.338 67.2168 274.159 64.733C272.881 62.0332 270.479 59.5584 271.289 56.1116C271.397 55.6886 271.199 55.5986 270.857 55.5176C268.229 54.8697 267.041 52.7548 266.15 50.532C264.98 47.5982 264.035 44.5744 262.982 41.5956C262.775 41.0286 262.982 39.9577 261.956 40.1827C260.93 40.4076 261.056 41.1546 261.2 42.0365C261.839 46.2842 263.846 50.055 265.268 54.0237C265.736 55.3376 266.744 56.7236 268.139 56.7686C270.488 56.7686 270.164 57.7945 269.165 58.9104C268.166 60.0263 268.526 60.8723 269.237 61.7542C269.643 62.3184 269.993 62.9213 270.281 63.5541C272.089 66.9289 274.195 70.0877 277.48 72.2745ZM74.9936 149.804C73.3467 151.055 72.7528 152.099 72.6088 153.494C72.4924 154.796 72.2757 156.086 71.9608 157.355C70.8899 161.576 69.333 165.724 68.748 169.999C68.0011 175.399 66.2192 180.555 65.5263 185.964C65.1573 188.835 64.5183 191.688 64.2843 194.594C64.2843 195.08 64.0504 195.737 64.8603 195.719C68.4871 180.681 70.5299 165.328 74.9756 149.84L74.9936 149.804ZM253.803 -103.547C253.769 -103.787 253.708 -104.022 253.623 -104.249C250.023 -110.719 244.128 -113.86 237.334 -115.777C236.965 -115.885 236.479 -115.939 236.263 -115.57C235.948 -115.021 236.506 -114.751 236.821 -114.472C239.515 -111.976 241.894 -109.159 243.903 -106.085C244.209 -105.653 244.515 -105.356 245.055 -105.869C244.974 -106.058 244.902 -106.265 244.803 -106.454C244.299 -107.416 243.903 -108.514 244.848 -109.306C246.18 -110.386 247.215 -109.594 247.863 -108.334C248.664 -106.778 250.212 -105.689 250.482 -103.772C251.796 -105.221 251.796 -105.221 253.803 -103.547ZM372.505 173.446C371.389 177.99 376.366 194.306 379.92 196.97C379.425 188.304 375.169 181.167 372.505 173.446ZM279.568 -24.199C279.676 -25.8999 281.251 -27.5378 279.91 -29.1577C279.358 -29.7766 279.073 -30.5886 279.118 -31.4165C279.118 -35.5113 280.171 -39.516 279.73 -43.6557C279.523 -45.6086 279.838 -47.7235 278.182 -49.9553C278.182 -47.1835 278.083 -45.0686 278.182 -42.9628C278.371 -39.363 278.344 -35.6463 276.499 -32.6045C275.113 -30.3366 275.734 -28.6807 276.364 -26.1519L277.264 -28.8517C278.422 -27.5265 279.216 -25.9233 279.568 -24.199ZM287.748 -7.38815C287.089 -5.28956 286.844 -3.08265 287.028 -0.890594C287.217 4.86902 287.253 10.6466 287.118 16.4062C287.118 18.1341 287.487 20.006 286.659 21.6439C285.67 23.6418 286.344 27.3585 288.297 29.3114C288.153 26.1256 288.027 23.2188 287.901 20.312C287.82 18.5121 286.767 16.4693 288.936 15.0473C289.116 14.9304 289.08 14.3094 288.99 13.9674C288.09 10.7906 288.441 7.52384 288.351 4.31106C288.243 0.396317 288.369 -3.51842 287.748 -7.38815ZM63.6634 232.509C62.2595 222.214 61.8635 211.81 60.8106 201.524C59.4157 208.732 61.2155 228.945 63.6814 232.509H63.6634ZM71.6369 149.12C66.3149 161.752 62.9757 175.13 61.7375 188.781C63.9445 175.31 67.2616 162.045 71.6549 149.12H71.6369ZM73.7337 207.266C72.6569 215.208 72.533 223.25 73.3647 231.222C75.0566 223.302 74.4717 215.365 73.7337 207.266ZM273.718 104.87C274.681 104.87 274.744 104.375 274.798 104.033C275.698 98.0128 276.823 92.0282 277.255 85.9356C277.453 83.2358 276.616 80.581 277.255 77.8991C277.292 77.7663 277.299 77.6267 277.273 77.4911C277.248 77.3555 277.192 77.2275 277.109 77.117C277.027 77.0066 276.92 76.9166 276.797 76.854C276.674 76.7914 276.538 76.758 276.4 76.7562C275.644 76.7562 275.959 77.3772 275.95 77.7912C275.95 79.2491 275.824 80.725 275.95 82.1829C276.228 86.7152 275.837 91.2637 274.789 95.682C274.015 98.8047 275.113 101.865 273.718 104.87ZM140.797 49.0201C141.427 48.7321 141.607 48.7051 141.697 48.6061C145.387 43.3504 147.997 37.5188 150.283 31.5882C150.625 30.6883 150.832 29.0414 149.563 28.7894C148.294 28.5374 147.988 30.2113 147.817 31.1023C146.797 36.0684 145.022 40.8487 142.552 45.2763C141.976 46.3652 141.508 47.4992 140.797 49.0201ZM165.78 -56.2729C164.484 -47.7684 164.286 -39.381 168.344 -31.4255C166.419 -39.588 166.347 -47.9574 165.78 -56.2639V-56.2729ZM290.277 13.6344C289.973 14.6626 289.917 15.7484 290.115 16.8022C290.863 21.6123 291.851 26.382 293.076 31.0933C293.265 31.9302 293.625 32.7942 293.193 33.5591C292.761 34.3241 292.545 34.792 293.301 35.359C293.52 35.5244 293.784 35.6205 294.058 35.6349C294.332 35.6494 294.605 35.5815 294.84 35.44C295.605 35.008 295.047 34.3241 295.002 33.7751C294.444 26.8276 291.465 20.456 290.277 13.6434V13.6344ZM221.297 -61.3395C218.534 -55.5709 217.193 -50.5943 217.742 -48.3894C222.242 -52.2861 223.412 -56.4169 221.297 -61.3305V-61.3395ZM297.792 69.6737C297.333 68.4498 298.602 67.4058 297.945 66.1189C296.658 63.5991 295.506 61.0073 294.3 58.4424C293.94 57.6865 293.679 56.7056 292.5 57.2455C291.321 57.7855 291.6 58.7574 292.077 59.5944C293.832 62.9781 295.092 66.6319 297.756 69.6827L297.792 69.6737ZM274.159 -64.6873C274.041 -64.3786 273.954 -64.0591 273.898 -63.7334C273.919 -63.4308 273.961 -63.1301 274.024 -62.8334C274.546 -59.4497 273.124 -55.4809 277.003 -53.0871C277.201 -52.9701 277.201 -52.5291 277.309 -52.2411C277.507 -51.7372 277.201 -50.7293 278.209 -50.9632C279.217 -51.1972 278.587 -52.0792 278.533 -52.6821C278.101 -56.9208 276.373 -60.7006 274.123 -64.6783L274.159 -64.6873ZM160.533 16.5592C160.866 14.0394 161.388 12.2215 161.775 10.3857C162.423 7.35285 161.919 6.5969 159.075 4.98601C158.496 4.57133 157.957 4.1044 157.464 3.5911C157.855 8.03932 158.889 12.4074 160.533 16.5592ZM154.071 19.2591C153.702 16.0823 154.791 13.5354 154.26 10.7996C153.927 9.04474 153.216 7.25387 154.026 5.34599C154.323 4.64404 153.279 4.13107 152.658 3.7081C152.483 3.55 152.256 3.46249 152.019 3.46249C151.783 3.46249 151.556 3.55 151.381 3.7081C150.832 4.25706 151.273 4.86902 151.381 5.45398C151.92 9.10774 152.523 12.7525 152.937 16.4152C153.009 17.2342 152.613 18.1431 154.071 19.2411V19.2591ZM54.313 205.178C53.2331 209.965 54.313 214.735 54.583 219.505C54.709 222.16 56.7068 224.724 54.925 227.496C54.8816 227.583 54.8588 227.678 54.8583 227.775C54.8579 227.872 54.8799 227.968 54.9226 228.055C54.9653 228.142 55.0275 228.218 55.1044 228.278C55.1813 228.337 55.2708 228.377 55.3659 228.396C56.6619 228.513 56.6889 229.881 57.8948 231.033C55.7079 222.124 55.4019 213.619 54.313 205.178ZM371.092 177.055C371.139 171.268 369.262 165.63 365.755 161.027C367.069 166.651 367.627 172.042 371.092 177.055ZM351.383 149.363C351.959 147.509 353.273 145.629 352.031 144.18C350.015 141.858 349.331 139.032 348.125 136.404C347.963 136.044 347.765 135.36 346.901 135.423C347.9 140.184 348.845 144.891 351.383 149.363ZM278.488 32.6052C279.748 28.5914 278.488 24.9377 278.488 21.3199C278.488 19.664 278.614 17.6572 277.777 15.9203C277.543 15.4343 277.507 14.7234 276.832 14.8224C276.157 14.9214 276.346 15.6053 276.427 16.1363C276.529 16.7305 276.572 17.3335 276.553 17.9361C276.301 22.8768 277.768 27.5025 278.524 32.6052H278.488ZM155.916 0.423325C156.987 -0.539612 156.456 -1.37656 156.285 -2.00652C155.385 -5.29129 154.323 -8.51307 153.747 -11.9058C153.602 -12.5098 153.369 -13.0891 153.054 -13.6247C152.802 -14.1197 152.397 -14.6147 151.794 -14.4437C151.039 -14.2277 151.39 -13.5437 151.471 -13.0578C151.65 -11.9239 151.992 -10.8259 152.154 -9.674C152.676 -6.02024 155.052 -3.19444 155.952 0.423325H155.916ZM352.193 174.778C352.481 180.636 352.481 186.531 355.136 191.985C355.243 186.115 354.245 180.278 352.193 174.778ZM86.0899 173.878C86.9088 167.713 87.6558 161.54 88.5647 155.384C89.1047 151.712 88.2497 147.824 90.1666 144.36C90.3016 144.099 90.2296 143.883 89.9956 143.811C89.7616 143.739 89.4287 143.766 89.3837 143.856C89.21 144.273 89.0803 144.707 88.9967 145.152C87.9978 150.47 87.5298 155.843 87.0078 161.216C86.5939 165.445 85.3969 169.576 86.0899 173.896V173.878ZM221.252 -76.4315C222.656 -70.3659 221.252 -64.5073 224.267 -59.3327C223.52 -64.8493 225.059 -70.7259 221.252 -76.4315ZM359.096 223.617C359.663 222.771 360.482 222.078 360.365 221.656C359.411 218.263 361.121 215.005 360.734 211.666C360.653 210.991 361.408 209.866 360.239 209.74C359.213 209.65 358.673 210.82 358.7 211.702C358.862 215.545 358.304 219.406 359.096 223.617ZM159.552 34.999C159.327 35.2802 159.128 35.5815 158.958 35.899C157.572 40.5486 156.195 45.2103 154.827 49.884C154.674 50.406 153.927 51.0539 154.755 51.4679C155.457 51.8099 155.808 51.0359 156.15 50.568C156.535 49.9 156.786 49.1633 156.888 48.3991C157.203 47.0582 157.536 45.6993 157.95 44.4034C159.003 41.3794 159.545 38.201 159.552 34.999ZM366.799 191.652C366.493 186.504 364.684 181.752 363.199 176.893C362.956 176.065 362.839 174.409 362.065 174.643C360.68 175.066 362.362 176.11 362.182 176.938C362.155 177.17 362.174 177.405 362.236 177.63C363.245 182.456 364.775 187.157 366.799 191.652ZM282.709 9.7467C283.081 6.03027 283.186 2.29193 283.024 -1.43956C283.024 -2.09651 283.456 -3.01446 282.34 -3.01446C281.224 -3.01446 281.116 -2.11452 281.233 -1.31357C281.638 1.44925 281.305 4.22106 281.323 6.98388C281.323 8.0728 281.305 9.10774 282.709 9.7467ZM270.236 53.9247C270.404 52.6099 270.165 51.2749 269.552 50.1C268.463 47.4002 267.419 44.6194 266.33 41.8925C266.132 41.4066 266.447 40.3716 265.43 40.6326C264.413 40.8936 264.368 41.6946 264.809 42.4955C265.781 44.2954 266.06 46.3113 266.816 48.1651C267.695 50.2281 268.845 52.165 270.236 53.9247ZM198.105 -101.531C193.906 -95.8852 189.727 -90.2486 185.569 -84.621C191.266 -89.1657 194.794 -95.2673 198.105 -101.531ZM259.904 87.8255L260.264 87.9335C261.164 82.9568 262.163 78.0341 263.018 73.0035C263.006 72.2326 262.844 71.4715 262.541 70.7626C262.442 70.3846 262.199 70.0157 261.731 70.0966C261.263 70.1776 261.416 70.6816 261.389 70.9966L259.904 87.8255ZM242.103 -101.954C242.103 -101.45 241.986 -101.189 242.103 -101.054C244.164 -97.3191 246.945 -94.0164 248.682 -90.0746C248.808 -89.7776 249.258 -89.3817 249.636 -89.6247C250.167 -89.9666 250.068 -90.5246 249.861 -91.0916C248.241 -95.2763 245.451 -98.6421 242.103 -101.954ZM294.939 70.5556C292.896 66.1999 292.158 61.0613 287.568 58.2175C290.169 62.2582 291.726 66.8749 294.966 70.5556H294.939ZM158.49 26.3776C160.047 20.978 157.941 16.1003 156.474 11.0786C156.555 16.2623 158.04 21.2479 158.49 26.3776ZM64.8153 207.616C63.3574 210.91 64.2213 223.878 65.6343 226.614C65.3463 220.189 65.0763 213.907 64.8153 207.616Z" fill="#888888"/>
<path d="M234.228 25.6221C229.728 25.9101 225.786 27.638 221.629 28.6819C219.406 29.2489 217.48 27.782 215.329 27.548C213.457 27.35 211.666 26.5671 209.686 26.882C209.074 26.981 208.093 26.882 208.066 25.9821C208.066 25.2622 208.966 25.0822 209.488 25.0822C211.873 25.0192 213.988 23.1833 216.544 24.1822C217.336 24.4792 218.137 23.7503 218.857 23.2823C220.041 22.3927 221.479 21.9041 222.96 21.8874C223.5 21.8874 224.319 21.8334 224.427 22.3464C225.021 25.0462 227.01 23.7413 228.549 23.9662C229.602 24.1282 231.591 21.8064 231.771 25.0642C231.825 25.6041 233.364 24.3622 234.228 25.6221Z" fill="#888888"/>
<path d="M246.604 -5.84863C250.852 -5.57865 252.094 -3.93176 250.33 0.0189791C249.89 1.08334 249.228 2.04166 248.389 2.83C247.549 3.61834 246.551 4.21858 245.461 4.59066C243.617 5.26562 242.717 4.59066 242.474 2.6108C242.177 0.225956 242.915 -1.98789 243.653 -4.15674C244.084 -5.43466 245.56 -5.56065 246.604 -5.84863ZM249.7 -2.59085C249.742 -2.73403 249.753 -2.88429 249.733 -3.03201C249.713 -3.17973 249.662 -3.32166 249.584 -3.44872C249.506 -3.57578 249.403 -3.68518 249.28 -3.76991C249.158 -3.85464 249.019 -3.91283 248.872 -3.94076C248.053 -4.15675 247.072 -4.45373 246.577 -3.49079C245.677 -1.79891 244.57 -0.215013 244.363 1.78285C244.255 2.79979 244.543 3.09677 245.506 2.7458C247.36 2.07984 249.637 -0.898968 249.691 -2.59085H249.7Z" fill="#888888"/>
<path d="M217.133 10.5752C219.238 12.78 221.434 14.6429 224.332 15.4799C224.532 15.5213 224.709 15.6375 224.826 15.8048C224.943 15.9721 224.991 16.1778 224.962 16.3798C224.908 16.8118 224.575 16.9828 224.188 17.1088C223.257 17.4026 222.264 17.4447 221.311 17.2309C220.358 17.0171 219.479 16.555 218.762 15.8915C218.046 15.2279 217.518 14.3866 217.231 13.4529C216.945 12.5192 216.911 11.5263 217.133 10.5752Z" fill="#888888"/>
<path d="M193.727 0.611278C192.579 -0.223155 191.483 -1.12467 190.442 -2.08854C189.605 -2.94348 189.038 -3.49244 187.742 -2.65549C186.446 -1.81855 186.653 -0.801629 187.067 0.314296C187.3 0.805386 187.571 1.27776 187.877 1.72721C186.005 1.72721 185.528 0.926265 185.492 -1.95354C185.492 -3.24946 187.292 -4.72536 188.813 -4.70736C191.252 -4.65336 193.727 -2.13354 193.727 0.611278Z" fill="#888888"/>
<path d="M191.219 255.413C194.468 254.972 197.707 254.45 200.965 254.135C201.875 254.112 202.758 253.821 203.503 253.298C205.717 251.624 208.516 250.931 210.702 249.131C211.186 248.887 211.73 248.787 212.268 248.843C217.137 248.644 222.014 248.719 226.874 249.068C229.916 249.356 232.67 251.093 235.874 251.039C237.812 250.976 239.741 251.313 241.543 252.029C242.164 252.281 242.776 252.506 242.668 253.244C242.56 253.982 241.768 253.73 241.327 253.748C235.814 254.004 230.291 253.932 224.786 253.532C223.644 253.532 222.503 253.626 221.376 253.811C214.977 254.288 208.444 253.73 202.288 256.241C201.739 256.475 201.01 256.916 200.488 255.656C200.074 254.666 198.787 255.539 197.977 255.755C195.839 256.39 193.581 256.504 191.39 256.088L191.219 255.413Z" fill="#888888"/>
<path d="M288.465 49.8205C287.259 50.2165 286.864 49.4246 286.423 48.5246C284.713 45.0149 284.236 41.0011 282.013 37.7253C281.929 37.6159 281.872 37.4888 281.845 37.3537C281.819 37.2186 281.823 37.0792 281.859 36.9462C281.894 36.8132 281.96 36.6901 282.051 36.5865C282.141 36.4828 282.255 36.4014 282.382 36.3484C283.228 35.9795 283.444 36.7714 283.687 37.2484C285.594 41.2623 287.247 45.3922 288.636 49.6135L288.465 49.8205Z" fill="#888888"/>
<path d="M211.07 62.7811H212.123L212.158 63.0502C212.217 63.4362 212.415 64.6413 213.866 64.6413C215.562 64.6413 215.726 63.4246 215.726 62.9098C215.726 62.0089 215.153 61.4357 214.229 61.4357H213.386V60.5465H213.714C214.065 60.5465 215.504 60.5348 215.504 59.1309C215.504 58.4758 215.176 57.7153 213.889 57.7153C213.503 57.7153 212.298 57.7621 212.298 59.5755H211.281C211.281 58.8619 211.409 56.8379 213.925 56.8379C216.206 56.8379 216.522 58.4407 216.522 59.0841C216.522 59.985 215.972 60.6752 215.176 60.8975V60.9209C216.007 61.0379 216.756 61.7516 216.756 62.9917C216.756 64.5945 215.562 65.5187 213.936 65.5187C211.561 65.5187 211.105 63.8691 211.07 62.7811Z" fill="#111111"/>
<path d="M217.927 63.1789H219.003C219.061 63.717 219.424 64.6413 220.688 64.6413C221.238 64.6413 222.595 64.536 222.595 62.6173C222.595 61.1666 221.682 60.6869 220.793 60.6869C220.255 60.6869 219.471 60.9326 219.19 61.4006H218.161L218.734 57.0836H223.156V58.0078H219.541L219.214 60.4296C219.728 59.9733 220.313 59.8095 221.062 59.8095C222.571 59.8095 223.624 60.8624 223.624 62.6056C223.624 64.2435 222.712 65.5187 220.688 65.5187C218.582 65.5187 218.02 64.1148 217.927 63.1789Z" fill="#111111"/>
<path d="M214.732 84.1027H210.871V83.1785L214.72 77.8086H215.832V83.1785H217.118V84.1027H215.832V85.998H214.732V84.1027ZM211.924 83.1785H214.732V79.2476L211.924 83.1785Z" fill="#111111"/>
<path d="M220.781 86.2437C220.173 86.2437 217.915 86.1033 217.915 81.9033C217.915 77.7033 220.173 77.5629 220.781 77.5629C221.39 77.5629 223.648 77.7033 223.648 81.9033C223.648 86.1033 221.39 86.2437 220.781 86.2437ZM220.781 85.3195C222.092 85.3195 222.56 83.7635 222.56 81.9033C222.56 80.0431 222.092 78.4871 220.781 78.4871C219.471 78.4871 219.003 80.0431 219.003 81.9033C219.003 83.7635 219.471 85.3195 220.781 85.3195Z" fill="#111111"/>
<path d="M214.732 104.837H210.871V103.913L214.72 98.5432H215.832V103.913H217.118V104.837H215.832V106.733H214.732V104.837ZM211.924 103.913H214.732V99.9822L211.924 103.913Z" fill="#111111"/>
<path d="M217.927 104.639H219.003C219.061 105.177 219.424 106.101 220.688 106.101C221.238 106.101 222.595 105.996 222.595 104.077C222.595 102.626 221.682 102.147 220.793 102.147C220.255 102.147 219.471 102.392 219.19 102.86H218.161L218.734 98.5432H223.156V99.4674H219.541L219.214 101.889C219.728 101.433 220.313 101.269 221.062 101.269C222.571 101.269 223.624 102.322 223.624 104.065C223.624 105.703 222.712 106.978 220.688 106.978C218.582 106.978 218.02 105.574 217.927 104.639Z" fill="#111111"/>
<path d="M211.14 125.373H212.217C212.275 125.911 212.638 126.836 213.901 126.836C214.451 126.836 215.808 126.73 215.808 124.812C215.808 123.361 214.896 122.881 214.006 122.881C213.468 122.881 212.684 123.127 212.404 123.595H211.374L211.947 119.278H216.37V120.202H212.755L212.427 122.624C212.942 122.168 213.527 122.004 214.276 122.004C215.785 122.004 216.838 123.057 216.838 124.8C216.838 126.438 215.925 127.713 213.901 127.713C211.795 127.713 211.234 126.309 211.14 125.373Z" fill="#111111"/>
<path d="M220.781 127.713C220.173 127.713 217.915 127.573 217.915 123.373C217.915 119.173 220.173 119.032 220.781 119.032C221.39 119.032 223.648 119.173 223.648 123.373C223.648 127.573 221.39 127.713 220.781 127.713ZM220.781 126.789C222.092 126.789 222.56 125.233 222.56 123.373C222.56 121.512 222.092 119.956 220.781 119.956C219.471 119.956 219.003 121.512 219.003 123.373C219.003 125.233 219.471 126.789 220.781 126.789Z" fill="#111111"/>
<path d="M211.14 148.124H212.217C212.275 148.662 212.638 149.586 213.901 149.586C214.451 149.586 215.808 149.481 215.808 147.562C215.808 146.112 214.896 145.632 214.006 145.632C213.468 145.632 212.684 145.878 212.404 146.346H211.374L211.947 142.029H216.37V142.953H212.755L212.427 145.375C212.942 144.918 213.527 144.755 214.276 144.755C215.785 144.755 216.838 145.807 216.838 147.551C216.838 149.188 215.925 150.464 213.901 150.464C211.795 150.464 211.234 149.06 211.14 148.124Z" fill="#111111"/>
<path d="M217.927 148.124H219.003C219.061 148.662 219.424 149.586 220.688 149.586C221.238 149.586 222.595 149.481 222.595 147.562C222.595 146.112 221.682 145.632 220.793 145.632C220.255 145.632 219.471 145.878 219.19 146.346H218.161L218.734 142.029H223.156V142.953H219.541L219.214 145.375C219.728 144.918 220.313 144.755 221.062 144.755C222.571 144.755 223.624 145.807 223.624 147.551C223.624 149.188 222.712 150.464 220.688 150.464C218.582 150.464 218.02 149.06 217.927 148.124Z" fill="#111111"/>
<path d="M216.744 165.609H215.761C215.481 164.439 214.533 164.439 214.194 164.439C212.474 164.439 212.205 166.194 212.205 167.469H212.228C212.708 166.826 213.48 166.603 214.229 166.603C215.726 166.603 216.861 167.621 216.861 169.353C216.861 171.049 215.832 172.242 214.053 172.242C212.24 172.242 211.117 171.295 211.117 168.007C211.117 163.62 213.48 163.562 214.205 163.562C214.662 163.562 216.405 163.62 216.744 165.609ZM212.275 169.376C212.275 170.394 212.848 171.365 214.1 171.365C215.305 171.365 215.808 170.371 215.808 169.341C215.808 168.347 215.247 167.481 214.077 167.481C212.918 167.481 212.275 168.253 212.275 169.376Z" fill="#111111"/>
<path d="M220.781 172.242C220.173 172.242 217.915 172.102 217.915 167.902C217.915 163.702 220.173 163.562 220.781 163.562C221.39 163.562 223.648 163.702 223.648 167.902C223.648 172.102 221.39 172.242 220.781 172.242ZM220.781 171.318C222.092 171.318 222.56 169.762 222.56 167.902C222.56 166.042 222.092 164.486 220.781 164.486C219.471 164.486 219.003 166.042 219.003 167.902C219.003 169.762 219.471 171.318 220.781 171.318Z" fill="#111111"/>
<path d="M216.744 186.55H215.761C215.481 185.38 214.533 185.38 214.194 185.38C212.474 185.38 212.205 187.135 212.205 188.41H212.228C212.708 187.767 213.48 187.545 214.229 187.545C215.726 187.545 216.861 188.562 216.861 190.294C216.861 191.99 215.832 193.184 214.053 193.184C212.24 193.184 211.117 192.236 211.117 188.949C211.117 184.561 213.48 184.503 214.205 184.503C214.662 184.503 216.405 184.561 216.744 186.55ZM212.275 190.317C212.275 191.335 212.848 192.306 214.1 192.306C215.305 192.306 215.808 191.312 215.808 190.282C215.808 189.288 215.247 188.422 214.077 188.422C212.918 188.422 212.275 189.194 212.275 190.317Z" fill="#111111"/>
<path d="M217.927 190.844H219.003C219.061 191.382 219.424 192.306 220.688 192.306C221.238 192.306 222.595 192.201 222.595 190.282C222.595 188.832 221.682 188.352 220.793 188.352C220.255 188.352 219.471 188.598 219.19 189.066H218.161L218.734 184.748H223.156V185.673H219.541L219.214 188.094C219.728 187.638 220.313 187.474 221.062 187.474C222.571 187.474 223.624 188.527 223.624 190.271C223.624 191.908 222.712 193.184 220.688 193.184C218.582 193.184 218.02 191.78 217.927 190.844Z" fill="#111111"/>
<path d="M211.234 307.859H212.217C212.497 309.029 213.433 309.029 213.784 309.029C215.504 309.029 215.773 307.285 215.773 305.998H215.75C215.27 306.642 214.498 306.864 213.749 306.864C212.252 306.864 211.117 305.846 211.117 304.115C211.117 302.419 212.146 301.225 213.925 301.225C215.328 301.225 216.861 301.728 216.861 305.46C216.861 309.356 215.048 309.906 213.773 309.906C213.316 309.906 211.573 309.848 211.234 307.859ZM215.703 304.091C215.703 303.074 215.13 302.103 213.878 302.103C212.673 302.103 212.17 303.097 212.17 304.127C212.17 305.133 212.731 305.987 213.901 305.987C215.059 305.987 215.703 305.215 215.703 304.091Z" fill="#111111"/>
<path d="M220.781 309.906C220.173 309.906 217.915 309.766 217.915 305.566C217.915 301.366 220.173 301.225 220.781 301.225C221.39 301.225 223.648 301.366 223.648 305.566C223.648 309.766 221.39 309.906 220.781 309.906ZM220.781 308.982C222.092 308.982 222.56 307.426 222.56 305.566C222.56 303.705 222.092 302.149 220.781 302.149C219.471 302.149 219.003 303.705 219.003 305.566C219.003 307.426 219.471 308.982 220.781 308.982Z" fill="#111111"/>
<path d="M211 206.615V205.691H216.978V206.439C215.89 207.656 215.27 208.732 214.708 210.113C214.182 211.376 213.96 212.418 213.808 213.88H212.638C212.79 212.698 213.059 211.528 213.62 210.206C214.123 209.048 214.907 207.703 215.902 206.615H211Z" fill="#111111"/>
<path d="M220.781 214.126C220.173 214.126 217.915 213.985 217.915 209.785C217.915 205.585 220.173 205.445 220.781 205.445C221.39 205.445 223.648 205.585 223.648 209.785C223.648 213.985 221.39 214.126 220.781 214.126ZM220.781 213.201C222.092 213.201 222.56 211.645 222.56 209.785C222.56 207.925 222.092 206.369 220.781 206.369C219.471 206.369 219.003 207.925 219.003 209.785C219.003 211.645 219.471 213.201 220.781 213.201Z" fill="#111111"/>
</g>
</svg>
