<svg width="440" height="340" viewBox="0 0 440 340" fill="none" xmlns="http://www.w3.org/2000/svg">
<mask id="mask0_2808_104273" style="mask-type:alpha" maskUnits="userSpaceOnUse" x="0" y="0" width="440" height="340">
<rect width="440" height="340" fill="#FEF9ED"/>
</mask>
<g mask="url(#mask0_2808_104273)">
<path d="M182.266 -34.3018C179.256 -35.1455 179.922 -38.0519 178.909 -40.0301C178.984 -36.28 178.319 -32.4267 180.578 -28.8922C181.459 -27.5234 183.166 -25.8639 180.363 -24.4483C179.678 -24.1014 179.894 -23.0232 180.166 -22.3013C181.506 -18.7387 181.694 -14.8573 183.278 -11.3415C184.754 -7.77298 185.942 -4.09241 186.832 -0.334854C187.488 2.12149 190.132 4.27782 188.707 7.24981C190.741 9.39677 191.294 12.3313 192.616 14.8532C194.576 18.5565 197.632 21.6597 198.691 25.8505C198.785 26.188 198.907 27.0037 199.395 26.5162C200.848 25.0724 200.398 27.2475 201.026 27.2943C200.81 30.2194 204.204 30.6132 204.973 32.9195C205.338 34.054 206.539 34.8977 207.27 35.9384C207.739 36.6134 208.339 37.4947 207.364 38.1697C206.576 38.7229 205.957 38.1697 205.423 37.5135C204.888 36.8572 204.27 36.2853 203.698 35.6384C201.476 33.2383 201.588 33.2852 200.351 36.5197C198.644 40.9636 196.413 45.1075 192.597 48.1639C189.991 50.2452 189.616 53.0859 189.728 56.1423C189.728 56.9392 190.235 57.0798 190.666 57.4455C191.097 57.8111 191.857 57.9799 191.2 58.4768C190.366 59.1143 190.479 59.2456 191.36 59.4799C197.923 61.2519 204.335 63.6051 211.348 63.7738C215.623 63.877 219.833 64.1864 224.127 63.6801C227.802 63.2394 235.377 61.73 238.012 60.2768C238.475 60.0491 238.845 59.6676 239.059 59.1975C239.273 58.7273 239.317 58.1976 239.184 57.6986C238.799 56.6673 237.758 57.2767 237.037 57.6986C235.49 58.5799 233.727 58.2517 231.908 58.758C231.974 57.258 233.202 57.0423 233.999 56.433C234.383 56.1423 234.936 55.9548 234.786 55.2892C234.755 55.1424 234.695 55.0033 234.61 54.88C234.524 54.7568 234.415 54.6519 234.288 54.5715C234.162 54.4912 234.02 54.437 233.872 54.4121C233.724 54.3872 233.573 54.3921 233.427 54.4266C232.257 54.6371 231.072 54.7562 229.883 54.7829C226.733 54.586 223.583 54.3047 220.461 53.8453C218.436 53.5735 217.948 52.4015 218.858 50.564C219.27 49.7389 219.439 48.8577 218.708 48.2483C216.955 46.7951 216.43 44.2543 214.198 43.2418C214.048 43.1762 214.039 42.8293 213.814 42.1918C216.357 43.0846 218.717 44.4315 220.78 46.1669C221.837 47.0917 223.093 47.7598 224.451 48.1192C225.809 48.4786 227.232 48.5195 228.608 48.2389C230.924 47.8732 233.296 47.5451 235.574 46.9545C242.634 45.1356 249.309 42.4543 254.118 36.6416C257.081 33.0789 259.978 29.4225 261.834 25.0817C263.1 22.1098 265.022 19.4565 266.635 16.6908C268.603 13.2969 269.138 9.55614 269.494 6.00288C269.916 1.80273 271.369 -2.13493 271.66 -6.31633C272.147 -12.8135 273.404 -19.2356 273.469 -25.7702C273.503 -27.2122 273.66 -28.6488 273.938 -30.0641C274.688 -33.9643 273.985 -35.4831 270.253 -37.0112C264.394 -39.402 260.091 -43.574 256.312 -48.4773C255.835 -49.0748 255.458 -49.7462 255.197 -50.4649C254.906 -51.3087 255.047 -52.4056 255.862 -52.6962C256.912 -53.0806 256.865 -51.8431 257.175 -51.2243C259.05 -47.5773 261.994 -44.8959 265.144 -42.3739C264.927 -44.2411 264.285 -46.0338 263.269 -47.6148C261.797 -50.4274 261.394 -53.5962 260.522 -56.5964C260.362 -57.1214 260.119 -57.9277 260.859 -58.1714C261.956 -58.5371 261.694 -57.4683 261.966 -56.9433C263.213 -54.5338 263.625 -51.8431 264.384 -49.218C265.763 -49.7149 265.406 -51.1962 266.569 -52.1712C268.294 -47.1835 272.513 -43.6021 273.132 -38.1082C273.502 -39.4551 273.502 -40.877 273.132 -42.2239C271.763 -46.6679 271.116 -51.3274 269.203 -55.6213C268.932 -56.2401 269.053 -57.2151 269.588 -57.0933C272.55 -56.3901 270.91 -58.4714 271.022 -59.3902C271.172 -60.5903 270.085 -62.0434 272.204 -62.7091C272.993 -63.013 273.861 -63.0452 274.671 -62.8008C275.481 -62.5563 276.186 -62.049 276.676 -61.359C277.472 -60.4215 277.66 -58.9777 279.038 -58.2839C279.244 -58.8933 279.479 -59.4652 279.629 -60.0746C279.727 -60.5367 279.982 -60.9503 280.352 -61.2445C280.721 -61.5388 281.182 -61.6953 281.654 -61.6872C282.128 -61.7573 282.612 -61.6483 283.011 -61.3814C283.409 -61.1145 283.694 -60.7089 283.81 -60.2434C284.223 -58.884 284.813 -58.2558 286.323 -58.6777C286.97 -58.8558 287.56 -58.3308 288.151 -57.9745C289.089 -57.4026 289.895 -55.6213 291.423 -57.7214C292.126 -58.659 293.298 -57.7964 293.617 -56.3807C294.629 -52.4243 294.779 -48.3554 295.492 -44.0896C296.983 -46.1616 296.167 -48.2992 296.242 -50.268C296.326 -52.4712 297.93 -54.0181 298.201 -56.2495C298.342 -57.3464 299.355 -56.0901 299.589 -55.5088C300.273 -53.8025 299.72 -51.9743 299.983 -50.2024C300.6 -46.3433 300.66 -42.4156 300.161 -38.5394C299.88 -36.5987 299.223 -35.0612 296.758 -35.5393C295.867 -35.7081 295.604 -34.9862 295.286 -34.4143C295.109 -33.9801 294.842 -33.5885 294.503 -33.2652C294.163 -32.942 293.759 -32.6945 293.317 -32.5392C292.698 -32.3892 291.807 -32.6329 292.295 -33.3642C293.973 -35.8956 293.739 -38.6894 293.673 -41.4552C293.606 -45.9504 293.043 -50.4245 291.995 -54.7963C290.71 -53.4744 290.748 -51.9837 290.795 -50.5774C290.926 -46.2835 291.545 -42.0083 291.114 -37.6957C290.795 -34.4893 290.664 -31.2923 289.473 -28.2265C288.639 -26.0702 287.092 -27.4109 285.873 -27.289C285.245 -25.4139 285.704 -24.3639 287.523 -23.4357C288.709 -22.9316 289.746 -22.1302 290.533 -21.1087C291.319 -20.0873 291.829 -18.8803 292.014 -17.6043C292.058 -17.3585 292.161 -17.1271 292.314 -16.9292C292.389 -16.8261 292.604 -16.8167 292.651 -16.8074C294.32 -20.7825 292.37 -25.6483 295.858 -29.3797C298.22 -24.4201 296.411 -19.5543 296.008 -14.7542C295.792 -12.1666 296.12 -10.0665 297.976 -8.24766C299.214 -7.03823 299.439 -5.43504 299.655 -3.85998C299.711 -3.46622 299.786 -2.92245 299.28 -2.75369C298.773 -2.58494 298.539 -2.95995 298.248 -3.29747C297.554 -4.13187 296.823 -4.92877 296.12 -5.73505C295.829 -5.49129 295.586 -5.35066 295.604 -5.28504C296.542 -1.79741 294.507 -0.65361 291.686 0.490189C289.323 1.42772 288.254 5.1216 288.582 7.69045C289.098 11.7312 287.832 15.5658 286.66 19.3534C286.465 19.8512 286.1 20.2638 285.63 20.5178C285.16 20.7719 284.615 20.8509 284.091 20.741C285.17 17.4314 285.029 13.9813 285.807 10.6718C285.892 10.2968 285.807 9.92179 285.395 9.86554C284.748 9.76241 284.588 10.2218 284.457 10.8031C283.81 13.5219 283.023 16.2127 282.498 18.9503C282.17 20.6753 281.776 22.091 279.732 22.3441C278.794 22.4566 278.644 23.5067 277.791 23.938C278.082 21.3129 279.666 19.0065 279.488 16.1002C278.494 16.9908 278.372 18.0408 277.922 18.9128C277.472 19.7847 277.801 21.1722 276.404 21.2847C275.007 21.3972 275.569 19.6253 274.716 19.1096C271.66 22.5035 271.904 25.1755 273.469 28.5413C273.61 28.8413 273.854 29.4225 273.929 29.4038C278.044 28.3631 275.541 34.0915 278.832 33.904C276.816 34.1758 275.082 33.979 273.891 32.3383C273.066 33.2758 273.769 33.9977 273.779 34.7102C273.779 35.5821 273.666 37.0353 273.066 36.9603C269.635 36.5478 271.022 39.576 270.178 40.898C269.475 42.0043 269.072 43.2418 267.506 43.9543C272.935 43.9543 275.813 47.8732 279.282 50.8171C281.157 52.4015 283.454 53.1797 285.535 54.3328C287.298 55.2704 288.085 56.2079 287.335 58.3268C286.493 60.8398 286.274 63.52 286.698 66.1364C287.242 70.1584 284.982 73.6367 284.954 77.6212C284.926 82.7524 284.531 87.875 283.773 92.95C282.713 100.085 281.166 107.144 279.854 114.241C279.01 118.798 278.307 123.392 277.369 127.929C275.597 136.517 274.36 145.236 271.06 153.43C270.828 154.239 270.699 155.074 270.675 155.915C269.972 160.349 267.3 163.931 265.669 167.962C264.012 171.894 262.049 175.69 259.8 179.316C257.423 183.183 254.337 186.567 250.706 189.291C248.671 190.876 246.346 192.104 244.574 194.035C244.397 194.221 244.179 194.362 243.937 194.448C236.362 197.035 228.936 200.542 220.611 197.213C216.439 195.544 211.798 194.569 208.423 191.701C202.798 187.013 197.032 182.241 193.835 175.219C192.635 172.575 190.357 170.409 189.147 167.718C185.678 159.749 181.45 152.146 178.909 143.717C177.034 137.399 175.44 131.005 173.772 124.639C172.008 118.154 171.162 111.454 171.259 104.735C171.334 101.678 170.378 98.7533 169.825 95.8282C168.887 90.7936 169.225 85.6934 168.418 80.687C168.015 78.2025 167.368 75.7555 167.031 73.2617C166.524 69.5116 166.243 65.7614 165.765 62.0113C165.362 58.7955 164.912 58.7487 162.231 60.4456C160.389 61.4664 158.444 62.2867 156.427 62.8925C152.265 64.3739 148.299 66.3802 144.239 67.899C141.858 68.7803 139.552 69.8678 137.067 70.646C134.236 71.5474 131.523 72.7844 128.986 74.3305C128.526 74.6118 127.954 74.8368 127.626 74.3305C127.298 73.8242 127.936 73.393 128.301 73.2148C130.12 72.1367 131.986 71.1335 133.814 70.0647C134.395 69.7272 135.136 69.399 135.408 68.8553C136.083 67.5333 136.345 66.8677 138.277 67.7021C139.533 68.2459 142.43 66.849 142.824 65.2926C143.349 63.2957 144.577 62.8925 145.917 62.48C154.018 60.2393 161.668 56.7329 169.609 54.0422C171.362 53.4516 172.422 51.7452 174.128 50.8452C177.683 48.8718 181.753 48.025 185.8 48.417C188.247 48.6514 192.147 46.4763 193.235 44.3106C193.488 43.8043 194.022 43.1949 193.282 42.7637C192.841 42.5105 192.719 41.6949 191.866 42.0324C189.053 43.1387 189.85 40.7198 189.916 39.6886C190.155 38.2767 190.561 36.8982 191.125 35.5821C190.254 35.3571 189.494 36.3884 188.857 35.5259C188.219 34.6634 188.725 33.8758 189.25 33.2102C190.357 31.7851 190.188 31.007 188.313 30.7351C186.438 30.4632 186.494 28.6913 186.081 27.3975C185.919 26.4686 185.835 25.5278 185.828 24.5848C185.369 21.1535 182.866 19.8222 180.109 21.7722C179.723 22.1197 179.253 22.361 178.745 22.4727C178.237 22.5844 177.709 22.5628 177.212 22.4098C176.791 22.2973 176.087 22.1004 175.825 22.6535C174.456 25.5318 173.012 23.0379 172.581 22.3441C169.853 18.2471 166.562 14.4876 164.884 9.72491C163.965 6.74525 163.297 3.69385 162.887 0.602684C162.015 1.76523 161.696 3.12466 160.196 4.10908C160.037 0.227676 162.127 -3.03496 162.071 -6.62572C160.906 -4.89073 159.869 -3.07337 158.968 -1.18801C157.637 1.15583 156.015 -0.550484 154.852 -0.859871C153.849 -1.12238 154.271 -2.73495 154.852 -3.73811C155.171 -4.25375 156.249 -4.56314 155.508 -5.33192C154.627 -6.26945 154.252 -5.08815 153.727 -4.66626C152.909 -4.06888 152.126 -3.424 151.383 -2.73494C150.905 -2.26617 150.446 -1.89116 149.864 -2.32242C149.086 -2.84744 149.377 -3.57872 149.789 -4.11312C152.18 -7.23512 153.727 -10.8353 155.508 -14.2948C157.038 -17.3555 157.709 -20.7739 157.449 -24.1858C157.468 -25.5442 157.67 -26.8939 158.049 -28.1984C158.143 -28.6672 158.255 -29.361 158.865 -29.3422C159.634 -29.3422 159.68 -28.5734 159.727 -28.0015C159.915 -25.4702 160.065 -22.9388 160.243 -20.4075C160.243 -19.9012 159.802 -19.0762 160.806 -19.0481C161.809 -19.0199 162.081 -19.5543 162.221 -20.4919C162.362 -21.4294 161.499 -22.3107 162.559 -23.3045C164.303 -20.0043 161.856 -15.5886 165.484 -12.9916C167.359 -14.426 168.709 -15.9542 166.468 -18.2793C165.934 -18.8324 166.187 -18.8512 167.05 -19.7418C167.912 -20.6325 167.05 -21.4763 166.431 -21.8888C160.243 -26.3233 158.809 -33.3455 156.812 -39.9457C154.758 -46.7897 154.862 -53.9525 154.862 -61.0215C154.862 -62.4466 154.29 -65.3061 157.674 -64.3685C158.424 -64.1529 158.218 -65.0529 158.321 -65.4748C158.687 -67.0499 159.015 -68.6343 159.343 -70.2188C159.54 -71.1563 159.671 -72.0938 160.806 -72.4595C161.241 -71.1703 161.241 -69.7735 160.806 -68.4843C160.402 -66.5342 159.437 -64.6404 160.262 -62.5403C160.646 -61.5466 159.043 -61.4528 159.127 -60.234C159.441 -56.8255 159.441 -53.3953 159.127 -49.9867C158.715 -46.5366 159.765 -43.424 160.187 -40.1145C160.199 -39.6757 160.339 -39.2499 160.588 -38.8888C160.838 -38.5277 161.187 -38.2467 161.593 -38.08C160.065 -42.3177 161.012 -46.5179 160.206 -50.5868C160.046 -51.3931 159.905 -52.265 161.143 -52.5743C162.24 -52.8369 161.837 -53.915 161.94 -54.6744C162.043 -55.4338 161.987 -56.1932 162.099 -56.9433C162.109 -57.0919 162.151 -57.2366 162.222 -57.3675C162.293 -57.4984 162.392 -57.6123 162.512 -57.7014C162.631 -57.7905 162.768 -57.8526 162.914 -57.8836C163.06 -57.9146 163.21 -57.9136 163.356 -57.8808C164.106 -57.712 163.609 -57.0464 163.656 -56.6057C163.937 -54.0275 163.768 -51.393 164.668 -48.3554C165.023 -49.5415 165.311 -50.7466 165.531 -51.9649C165.56 -52.5875 165.781 -53.1857 166.164 -53.6775C166.546 -54.1693 167.072 -54.5307 167.668 -54.7119C168.971 -55.1713 169.196 -53.6713 169.993 -52.9681C170.931 -53.6244 170.931 -54.7119 171.362 -55.5838C171.793 -56.4557 171.859 -57.6839 173.125 -57.2714C173.655 -57.0823 174.1 -56.7103 174.38 -56.2221C174.66 -55.734 174.757 -55.1619 174.653 -54.6088C174.475 -53.4369 173.894 -52.4525 175.412 -51.543C175.872 -51.2618 175.412 -49.4898 175.412 -48.4117C175.453 -47.8741 175.522 -47.3389 175.619 -46.8085C176.354 -47.6937 176.737 -48.8182 176.697 -49.968C176.781 -50.6524 176.912 -51.4868 177.803 -51.3743C178.516 -51.2805 178.422 -50.4368 178.45 -49.8836C178.43 -49.1702 178.538 -48.4589 178.769 -47.7835C180.109 -51.0368 180.747 -54.5619 182.95 -57.6933C183.226 -57.2398 183.372 -56.7193 183.372 -56.1885C183.372 -55.6578 183.226 -55.1373 182.95 -54.6838C180.216 -48.682 179.815 -41.877 181.825 -35.5956C181.891 -35.3799 182.172 -35.2393 182.35 -35.0706C182.331 -34.808 182.303 -34.5549 182.266 -34.3018ZM279.948 86.1247C280.312 85.8279 280.603 85.451 280.798 85.0233C280.993 84.5957 281.087 84.1288 281.073 83.659C280.782 80.9214 281.391 78.2962 281.841 75.6243C282.62 70.9928 283.454 66.3427 282.826 61.3362C281.56 63.1082 282.47 65.3114 280.951 66.6896C279.563 66.1833 279.169 65.4989 279.61 63.877C280.122 61.4058 280.435 58.8978 280.548 56.3767C280.595 56.1665 280.598 55.9487 280.556 55.7373C280.515 55.5258 280.429 55.3255 280.306 55.1489C280.182 54.9724 280.023 54.8236 279.839 54.7122C279.654 54.6007 279.449 54.529 279.235 54.5016C278.485 54.3985 278.119 55.2423 278.213 55.7017C278.738 58.2705 277.913 60.6987 277.407 63.0988C276.957 65.1989 277.613 67.7865 275.297 69.2866C273.994 67.8615 274.819 66.4083 275.297 65.0395C276.572 61.5238 275.897 57.933 275.86 54.3516C272.832 60.08 273.807 66.2958 273.516 72.3617C274.304 71.4241 274.397 70.1303 275.26 69.2584C277.135 70.5428 275.644 72.0148 275.391 73.3273C274.36 78.7932 275.054 84.4277 273.722 89.8654C271.678 98.1908 271.069 106.929 266.569 114.57C263.972 118.976 261.825 123.626 258.009 127.273C254.193 130.92 250.715 134.483 246.571 137.455C244.068 139.255 241.977 141.786 238.93 142.696C231.43 144.936 224.07 144.196 216.73 141.758C213.917 140.821 211.695 139.077 209.229 137.689C204.486 134.97 200.399 131.241 197.257 126.767C194.388 122.801 192.691 118.198 190.891 113.726C187.638 105.672 184.328 97.6657 182.453 89.0685C181.197 83.1996 179.087 77.5275 178.703 71.4616C178.469 67.8427 176.931 64.3926 177.241 60.6706C177.297 60.0424 176.95 59.1705 176.097 59.3018C175.037 59.4706 175.253 60.4549 175.375 61.1768C176.312 66.4739 176.716 71.8554 177.372 77.1806C178.797 88.6467 182.172 99.5408 185.472 110.482C187.138 116.27 189.136 121.958 191.454 127.517C192.907 130.892 195.288 133.77 196.554 137.117C198.123 140.959 200.551 144.39 203.651 147.149C209.632 152.774 216.636 156.974 224.895 158.521C228.203 159.28 231.619 159.442 234.983 158.999C241.387 157.921 246.103 153.702 251.325 150.412C252.372 149.867 253.293 149.107 254.025 148.18C256.837 143.577 260.766 139.817 263.4 134.923C266.118 129.881 268.383 124.607 270.169 119.163C272.983 110.798 274.961 102.174 276.076 93.4187C276.066 92.8926 276.166 92.3703 276.372 91.8857C276.577 91.4011 276.882 90.9651 277.266 90.6061L278.448 91.1968C278.148 96.6634 277.278 102.084 275.851 107.369C274.716 111.944 272.925 116.37 272.025 120.982C270.703 127.686 267.338 133.423 264.122 139.227C262.294 142.546 259.528 145.264 257.156 148.218C254.137 151.968 250.303 154.621 246.459 157.002C240.662 160.699 233.746 162.233 226.93 161.334C221.499 160.637 216.257 158.885 211.498 156.177C207.754 153.932 204.292 151.247 201.185 148.18C198.598 145.761 196.019 143.061 194.772 139.874C193.329 136.198 191.21 132.889 189.569 129.354C187.338 124.536 186.081 119.445 184.141 114.57C182.599 110.716 181.41 106.731 180.588 102.663C179.781 98.5845 177.944 94.8438 177.344 90.6717C176.912 87.7185 176.678 84.5403 175.065 81.7652C175.778 84.7934 175.825 87.8966 176.425 90.9249C177.691 97.3751 178.844 103.844 180.175 110.285C181.525 116.951 182.856 123.626 185.697 129.889C188.135 135.27 190.385 140.755 192.888 146.099C194.763 150.121 196.179 154.293 199.019 157.987C201.335 160.996 203.895 163.828 206.342 166.678C209.717 170.615 213.608 174.244 218.886 175.687C221.211 176.334 223.677 177.516 225.964 176.953C229.536 176.072 233.202 175.519 236.68 174.309C239.605 173.297 242.587 172.631 245.118 170.456C247.649 168.281 250.34 165.9 253.031 163.743C255.689 161.665 258.008 159.185 259.903 156.393C262.313 152.765 264.816 149.136 266.335 145.039C267.928 140.746 270.535 136.845 271.435 132.308C272.204 128.426 273.179 124.592 274.041 120.739C274.677 117.455 275.589 114.23 276.769 111.101C277.791 108.626 277.51 105.475 278.307 102.785C279.451 98.9314 279.404 94.9281 279.994 91.0092C280.257 89.3217 280.669 87.6997 279.948 86.0591V86.1247ZM273.104 134.745C272.273 137.679 271.223 140.547 269.963 143.324C266.147 151.883 261.609 160.012 254.1 166.106C250.79 168.797 247.424 171.422 244.19 174.225C240.149 177.722 234.74 178.388 229.574 179.109C225.236 179.855 220.778 179.451 216.645 177.938C213.579 176.738 210.654 175.434 208.582 172.987C206.51 170.54 204.176 168.393 202.02 166.181C196.542 160.774 192.474 154.108 190.169 146.764C189.316 143.952 187.769 141.58 186.719 138.927C184.844 134.239 182.444 129.758 180.963 124.864C179.35 119.604 178.591 114.176 177.372 108.851C175.797 101.941 174.869 94.9188 173.472 87.9904C172.384 82.6089 171.887 77.1431 170.659 71.7898C169.61 67.7092 169.265 63.4797 169.637 59.283C169.693 58.7299 170.134 58.083 169.553 57.6142C169.365 57.4642 168.878 57.5673 168.615 57.6986C167.884 58.0267 167.781 58.6362 167.903 59.3956C168.228 61.1326 168.466 62.8848 168.615 64.6457C169.14 72.821 171.915 80.7526 171.522 89.0217C171.315 93.4843 173.2 97.5157 173.397 101.922C173.8 108.164 174.561 114.377 175.675 120.532C176.669 126.898 178.844 133.086 180.616 139.283C181.094 140.98 182.491 142.527 182.594 144.214C182.959 148.761 185.144 152.652 187.019 156.543C188.997 160.612 191.163 164.662 193.469 168.609C195.457 171.994 196.901 176.016 199.648 178.556C203.079 181.725 205.142 185.888 209.107 188.785C214.104 192.441 219.72 193.848 225.205 195.741C230.352 197.523 235.518 195.31 240.205 193.323C250.753 188.832 257.662 180.572 262.228 170.212C263.344 167.69 264.178 164.99 265.641 162.712C268.669 158.024 268.885 152.455 270.544 147.355C271.482 144.327 272.129 141.13 273.169 138.092C273.418 137.567 273.542 136.992 273.531 136.411C273.519 135.83 273.373 135.26 273.104 134.745ZM264.488 63.4176C264.684 60.83 264.094 60.5112 262.313 61.3175C260.126 62.4248 257.793 63.2171 255.384 63.6707C249.403 64.5051 243.337 64.702 237.383 65.6395C233.785 66.1084 230.155 66.2933 226.527 66.1927C224.042 66.1927 221.539 65.3958 219.092 65.5551C211.986 66.0052 205.029 65.7052 198.204 63.4551C196.427 62.9394 194.617 62.5508 192.785 62.2925C191.8 62.1144 191.332 62.4894 191.782 63.5488C192.607 65.4802 192.991 67.5708 194.257 69.3615C196.854 72.9992 199.273 76.7681 202.095 80.2557C205.545 84.5215 209.52 88.3654 214.386 90.7092C220.016 93.3208 226.196 94.5272 232.396 94.225C234.955 94.1312 237.468 93.8969 239.577 92.153C240.374 91.5061 241.799 90.7936 242.343 91.2155C244.087 92.6312 245.24 91.2624 246.712 90.9061C248.915 90.3624 249.806 88.3279 251.54 87.3529C254.354 85.8809 256.52 83.4145 257.615 80.4338C258.994 76.6837 259.978 72.6992 262.116 69.1834C263.334 67.2521 264.628 65.2926 264.488 63.4176ZM271.369 73.0367C270.853 75.9524 268.922 77.8744 268.097 80.3495C266.471 85.7379 263.907 90.797 260.522 95.2938C255.506 101.65 249.796 106.938 242.334 110.229C240.406 111.118 238.315 111.6 236.193 111.644C234.908 111.644 234.168 110.126 232.911 110.529C228.552 111.888 224.427 109.882 220.17 109.722C215.483 109.544 211.732 106.647 207.617 104.622C203.154 102.41 199.732 98.9408 196.648 95.35C191.107 88.8998 188.603 80.8089 186.025 72.8492C184.881 69.2959 184.225 65.6395 183.391 62.0206C183.166 60.9987 182.997 59.8362 181.375 60.0799C181.928 62.5925 182.313 65.0676 182.969 67.5802C185.444 76.9556 187.357 86.5372 190.244 95.8375C192.382 102.747 196.807 108.176 201.804 113.116C204.446 115.715 207.289 118.101 210.307 120.251C214.573 123.27 219.101 126.186 224.464 126.401C228.981 126.425 233.494 126.112 237.965 125.464C238.977 125.351 239.943 125.811 240.946 125.37C244.242 123.881 247.313 121.937 250.068 119.595C256.181 114.504 260.578 108.035 264.272 101.05C266.524 96.9992 268.074 92.5962 268.857 88.0279C269.414 84.1437 270.324 80.3184 271.575 76.5993C271.796 76.0298 271.892 75.4194 271.856 74.8096C271.821 74.1999 271.655 73.6048 271.369 73.0648V73.0367ZM186.25 61.2612C186.28 62.6909 186.471 64.1126 186.822 65.4989C189.025 71.4241 190.629 77.5368 192.907 83.4433C196.469 92.6968 203.304 98.8658 211.451 103.769C214.699 105.756 218.294 107.108 222.045 107.754C224.295 108.138 226.733 107.754 228.767 108.766C231.458 110.06 234.393 109.413 236.812 109.151C240.345 108.66 243.672 107.196 246.421 104.922C250.171 101.838 254.147 98.9877 257.212 94.8531C260.413 90.6423 262.943 85.9618 264.713 80.9776C265.271 79.2011 266.066 77.5078 267.075 75.943C267.624 75.2151 267.97 74.3546 268.078 73.4492C268.557 69.0803 269.213 64.7395 269.822 60.3893C269.888 59.8737 270.657 59.4049 269.935 58.833C269.858 58.7983 269.775 58.7804 269.691 58.7804C269.607 58.7804 269.524 58.7983 269.447 58.833C268.744 59.1237 268.772 59.7706 268.847 60.3518C269.203 63.2113 268.003 65.7989 267.085 68.2928C265.575 72.3992 262.931 76.1024 261.637 80.2557C259.641 86.631 254.578 89.528 249.506 92.6968C246.693 94.4406 243.431 94.5719 240.562 95.9126C236.228 97.939 231.343 98.4667 226.677 97.4126C223.52 96.9208 220.402 96.2033 217.348 95.2657C214.536 94.3281 211.817 93.3906 209.511 91.3936C205.76 88.1404 201.907 85.0371 199.198 80.6964C198.121 79.0315 196.961 77.4231 195.719 75.8774C192.92 72.4257 190.807 68.47 189.494 64.2238C189.035 62.9207 188.744 60.7456 186.25 61.2894V61.2612ZM190.422 103.235C190.244 103.368 190.12 103.559 190.07 103.775C190.02 103.992 190.049 104.219 190.15 104.416C191.735 110.126 194.838 115.179 197.107 120.626C198.316 123.589 199.723 126.654 202.31 128.961C205.413 131.773 208.376 134.698 212.22 136.414C215.164 137.727 217.63 140.239 220.817 140.68C225.946 141.402 231.13 142.311 236.352 141.064C237.655 140.755 239.165 140.952 240.205 139.967C244.809 135.777 249.871 132.158 254.39 127.779C261.703 120.748 265.585 111.935 268.978 102.785C270.113 99.7002 270.328 96.2688 271.022 92.7437C270.675 92.8725 270.368 93.09 270.131 93.3746C269.894 93.6592 269.736 94.0009 269.672 94.3656C267.075 101.932 263.113 108.958 257.981 115.095C252.759 121.414 246.046 125.051 238.696 127.929C237.801 128.18 236.878 128.316 235.949 128.333C234.688 128.336 233.431 128.474 232.199 128.745C229.086 129.823 226.011 129.214 222.964 128.745C219.441 128.353 216.051 127.174 213.045 125.295C209.548 122.97 205.545 121.245 202.666 118.179C199.479 114.766 196.104 111.494 193.291 107.697C192.26 106.272 192.044 104.332 190.422 103.263V103.235ZM179.884 -0.437981C179.143 -0.781693 178.437 -1.19612 177.775 -1.67552C177.156 -2.20992 176.781 -3.03495 176.181 -3.55059C173.865 -5.72568 173.865 -7.93827 175.553 -10.5915C176.359 -11.8665 178.366 -12.3822 178.244 -13.8072C178.084 -15.4667 178.244 -17.3511 177.128 -18.8793C177.022 -18.7407 176.939 -18.5855 176.884 -18.4199C176.851 -18.1647 176.851 -17.9063 176.884 -17.6511C177.156 -14.7354 176.556 -14.2573 173.931 -15.3167C173.35 -15.5511 172.637 -16.1886 172.44 -14.9792C172.281 -14.0416 171.653 -14.126 171.156 -14.4729C169.553 -15.5698 169.103 -14.4729 168.737 -13.2635C168.371 -12.054 168.306 -11.0978 167.912 -10.0852C166.403 -6.15694 169.468 -3.52248 170.603 -0.353607C170.753 0.0401611 171.634 0.133926 172.131 0.433937C174.934 2.06525 177.222 -0.953629 179.884 -0.437981ZM282.226 -34.8643C281.476 -34.1049 281.701 -33.4767 281.645 -32.9048C281.466 -31.0298 282.507 -29.0234 281.42 -27.1484C281.016 -26.4546 280.866 -25.3671 279.704 -25.6577C278.541 -25.9483 278.682 -26.8765 278.673 -27.7296C278.759 -32.4477 278.549 -37.1665 278.044 -41.8583C277.894 -43.0208 278.223 -44.6709 277.051 -45.0365C275.879 -45.4022 276.629 -43.349 275.982 -43.3021C273.019 -43.0771 275.297 -41.6895 275.391 -40.8364C275.391 -40.5645 275.991 -40.3114 275.982 -40.0676C275.701 -35.3237 277.979 -30.8704 277.491 -26.0983C277.388 -25.0858 277.229 -23.6982 278.598 -23.3326C279.966 -22.967 282.676 -25.0483 282.695 -26.1452C282.741 -28.9953 283.079 -31.8736 282.226 -34.8643ZM179.462 2.63714C180.006 7.03418 182.125 10.9156 183.841 14.8813C184.375 16.1095 185.716 17.0658 185.603 18.7253C185.592 18.8315 185.602 18.939 185.634 19.041C185.666 19.1429 185.719 19.2371 185.79 19.3174C185.861 19.3976 185.947 19.4623 186.044 19.5073C186.141 19.5522 186.246 19.5765 186.353 19.5784C186.878 19.5784 187.085 19.2503 187.15 18.7909C187.235 18.1534 187.619 17.6283 187.347 16.8502C185.631 11.9375 183.963 7.00605 182.388 2.03712C182.097 1.14645 181.956 0.696434 180.916 1.09958C180.091 1.28709 179.2 1.38084 179.462 2.59026V2.63714ZM267.769 27.1724C270.638 20.6097 273.347 14.3657 276.029 8.15922C276.449 6.85038 276.423 5.43877 275.954 4.14657C275.785 3.47154 275.897 2.32775 275.016 2.2715C274.135 2.21525 274.172 3.38716 273.994 4.05281C272.354 10.4187 271.097 16.9064 268.041 22.8035C267.643 23.4458 267.41 24.1764 267.362 24.9304C267.315 25.6845 267.455 26.4385 267.769 27.1256V27.1724ZM168.531 12.7906C166.487 4.81222 165.99 -3.21308 165.578 -11.2478C163.421 -1.65678 164.837 9.43427 168.531 12.7906ZM259.641 54.3235C260.522 55.1485 261.337 54.6422 262.134 54.5391C262.931 54.436 263.503 54.3985 263.822 55.2516C263.952 55.5697 263.966 55.9236 263.862 56.251C263.757 56.5785 263.541 56.8587 263.25 57.0423C262.691 57.417 262.112 57.7612 261.516 58.0736C258.461 59.8025 255.254 61.2461 251.934 62.3863C256.406 62.2644 260.241 60.2581 264.028 58.2799C264.692 57.8867 265.218 57.2986 265.535 56.5957C265.852 55.8927 265.945 55.1091 265.8 54.3516C265.66 53.2453 265.491 52.1484 265.266 50.6015C263.644 52.6547 260.972 52.3547 259.641 54.3235ZM287.007 -8.63205C287.18 -9.11947 287.309 -9.62152 287.392 -10.1321C287.392 -13.7979 284.813 -16.8824 285.132 -20.6981C285.254 -22.0763 283.426 -22.1513 282.254 -22.0201C280.941 -21.87 281.616 -20.745 281.476 -19.995C281.073 -17.9699 283.229 -17.6793 283.82 -16.3761C284.86 -14.0229 285.77 -11.5853 286.988 -8.63205H287.007ZM174.606 77.1525C174.719 76.1399 174.794 75.8118 174.794 75.4743C174.719 70.7116 173.2 66.0989 173.368 61.2987C173.459 60.7503 173.333 60.188 173.016 59.7312C172.699 59.2743 172.217 58.9589 171.672 58.8518C171.84 64.9458 171.737 70.9647 174.587 77.1525H174.606ZM278.673 -48.8523C279.46 -52.2931 277.735 -55.1526 276.591 -58.0964C276.419 -58.7096 276.108 -59.2749 275.682 -59.7481C275.256 -60.2213 274.727 -60.5898 274.135 -60.8247C274.031 -60.8547 273.923 -60.8639 273.816 -60.8518C273.709 -60.8398 273.606 -60.8066 273.511 -60.7543C273.417 -60.702 273.334 -60.6316 273.268 -60.5471C273.201 -60.4627 273.151 -60.3658 273.122 -60.2621C272.663 -58.7621 273.319 -57.4495 273.938 -56.1651C274.078 -55.9559 274.268 -55.7851 274.491 -55.6682C276.901 -54.0463 277.866 -51.5712 278.691 -48.8523H278.673Z" fill="#888888"/>
<path d="M113.867 93.3059C113.257 92.9871 112.235 93.0152 112.788 91.8058C113.163 90.9808 112.788 90.1745 112.498 89.1057C111.442 90.4504 110.153 91.5937 108.691 92.4808C107.829 93.0134 107.08 93.712 106.49 94.536C105.899 95.36 105.478 96.293 105.251 97.281C105.016 98.3311 103.591 97.7217 102.991 98.7436C102.054 100.366 101.36 102.091 100.535 103.75C99.1285 106.609 96.5878 108.578 94.5815 110.913C93.4855 112.224 92.5419 113.655 91.7689 115.179C89.2809 119.622 87.1552 124.259 85.4124 129.045C84.8217 130.798 85.2436 132.795 83.903 134.426C83.6686 134.717 83.4811 135.457 82.9654 135.851C81.9594 136.65 81.2497 137.762 80.9497 139.011C77.7434 151.199 74.6307 163.387 72.9057 175.903C71.9681 182.409 71.0306 188.916 69.5118 195.347C69.0805 197.222 69.643 199.322 68.743 201.151C67.7398 201.085 68.4617 199.922 67.4492 199.894C66.5211 203.42 65.8041 206.999 65.3022 210.61C68.2555 208.876 66.3335 205.426 68.8555 203.11C68.2086 206.588 68.0867 209.438 66.5773 211.96C65.0364 214.474 64.1291 217.325 63.9334 220.267C63.8488 223.373 63.5354 226.469 62.9959 229.53C61.7115 235.924 61.1302 242.487 59.9395 249.049C59.4892 250.926 59.6535 252.898 60.4083 254.675C60.9427 255.837 60.4083 257.262 59.9208 258.368C59.152 259.981 59.9958 261.931 58.5895 263.412C58.1113 263.909 59.0301 264.097 59.527 264.153C65.246 264.894 70.5149 267.312 76.1402 268.484C83.9967 270.134 91.9189 271.719 99.2223 275.328C100.16 275.807 101.472 275.732 102.354 276.266C104.229 277.522 106.188 278.45 107.041 281.197C108.195 284.948 111.729 286.616 115.592 286.719C116.614 286.719 117.101 287.038 117.279 287.713C117.504 288.711 118.008 289.625 118.731 290.349C119.455 291.072 120.369 291.576 121.367 291.801C122.157 292.145 122.791 292.77 123.148 293.554C121.956 293.532 120.789 293.21 119.754 292.617C117.195 291.557 116.06 292.317 116.098 295.035C116.098 298.561 115.16 301.898 114.457 305.283C114.335 305.864 114.195 306.473 113.323 306.651C112.545 305.77 112.967 304.664 113.22 303.839C114.373 300.164 113.942 296.339 114.682 292.588C114.821 292.064 114.783 291.508 114.572 291.007C114.362 290.507 113.992 290.09 113.52 289.823C110.857 287.751 107.763 286.194 105.766 283.316C105.335 282.688 104.679 282.21 104.594 281.441C104.369 279.454 102.916 278.507 101.332 277.888C96.7472 276.135 92.1345 274.447 87.4843 272.872C86.0197 272.473 84.5181 272.225 83.0029 272.131C82.8537 272.096 82.6986 272.093 82.548 272.122C82.3974 272.151 82.2548 272.212 82.1297 272.301C82.0046 272.39 81.8998 272.504 81.8224 272.637C81.7451 272.769 81.6968 272.916 81.681 273.069C81.0406 275.835 80.7259 278.667 80.7435 281.507C80.7435 287.591 80.8747 293.695 81.006 299.761C81.006 302.198 81.306 304.636 81.3622 307.073C81.3622 307.833 81.7654 309.061 80.5841 309.164C79.5903 309.248 79.6465 308.039 79.5809 307.373C78.8309 301.054 77.9402 294.754 77.5371 288.416C77.1965 284.113 77.2216 279.787 77.6121 275.488C77.734 274.372 77.2183 273.153 76.2058 273.031C70.7681 272.356 65.9773 269.684 60.7927 268.259C59.1145 267.791 57.7082 266.741 55.805 266.647C54.1643 266.562 53.4424 263.544 54.6893 261.734C55.1381 261.115 55.4531 260.41 55.6145 259.662C55.7759 258.915 55.7801 258.142 55.6269 257.393C54.7649 252.429 55.4626 247.319 57.6238 242.768C58.9254 239.645 59.527 236.276 59.3864 232.896C59.2833 227.767 60.5396 222.808 61.3833 217.792C62.7522 209.673 65.4335 201.854 66.8117 193.753C67.2617 191.119 68.1524 188.55 68.7993 185.944C70.4306 179.381 69.6337 172.65 70.6743 166.059C71.04 163.687 71.7619 161.371 72.3431 158.924C73.2807 159.449 72.7838 160.377 73.7588 160.583C74.1871 159.818 74.437 158.965 74.4901 158.09C75.3433 151.114 78.7653 144.852 80.0028 138.045C80.8185 133.545 83.8936 129.664 83.6873 125.06C83.4623 119.913 86.5749 116.229 88.7031 112.178C89.7288 110.602 90.9547 109.165 92.3502 107.903C93.7565 106.45 92.6408 104.575 94.2252 103.009C98.2379 98.9311 101.622 94.2809 106.169 90.6339C108.766 88.5526 111.692 85.9931 112.732 83.0492C114.354 78.3616 118.911 78.099 121.639 75.3052C120.167 78.2022 117.214 79.4585 114.879 81.4554C115.029 81.8398 115.395 81.5117 115.676 81.5398C116.445 81.6148 117.645 80.6866 117.898 81.7929C118.151 82.8992 116.66 82.5148 116.023 82.9273C114.213 84.0899 114.298 86.1431 114.242 87.8588C114.242 89.1995 114.242 90.9245 116.117 91.7027C116.839 92.0027 116.117 92.4715 115.639 92.6965C114.767 92.4808 114.317 92.9121 113.867 93.3059Z" fill="#888888"/>
<path d="M366.09 282.07C364.553 284.01 361.993 282.923 360.849 285.051C360.746 285.239 358.581 285.117 357.343 285.539C350.849 287.764 344.33 289.917 337.786 291.998C335.058 292.87 332.161 293.226 330.005 295.458C329.526 295.964 328.664 296.17 328.298 295.317C327.933 294.464 327.464 294.858 326.892 294.951C322.082 295.73 322.101 295.72 321.661 300.624C321.276 305.002 321.323 309.399 321.107 313.749C321.149 316.263 320.61 318.753 319.532 321.024C317.31 319.037 318.398 316.571 318.37 314.462C318.295 309.249 318.567 304.036 318.764 298.833C318.764 297.839 318.332 297.727 317.563 297.333C316.795 296.939 315.482 297.155 315.688 295.458C315.754 294.83 314.451 294.276 313.87 295.458C313.412 296.174 313.139 296.992 313.073 297.839C313.485 302.236 312.051 306.493 312.379 310.965C312.557 313.327 312.379 315.802 312.557 318.23C312.641 319.168 312.951 320.584 311.563 320.678C311.261 320.69 310.96 320.642 310.677 320.535C310.394 320.428 310.136 320.265 309.918 320.055C309.7 319.846 309.526 319.595 309.408 319.316C309.289 319.038 309.229 318.739 309.229 318.437C308.994 314.902 308.291 311.396 308.535 307.824C308.826 302.864 308.732 297.867 309.313 292.945C309.866 288.314 309.941 283.635 310.607 279.023C311.46 273.051 311.807 267.022 312.801 261.05C313.795 255.078 314.357 248.806 315.116 242.675C315.108 242.247 315.218 241.825 315.435 241.456C319.401 237.021 317.31 231.48 318.173 226.455C318.585 224.11 318.708 221.724 318.538 219.349C318.538 218.795 317.995 217.774 319.054 217.708C320.114 217.642 319.692 218.72 319.992 219.292C320.657 220.783 320.057 222.33 320.207 223.821C321.21 233.515 319.167 243.003 318.445 252.594C317.976 258.772 316.288 264.725 315.838 270.857C315.627 273.715 315.722 276.588 316.12 279.426C316.485 281.91 315.998 284.329 316.073 286.786C316.232 291.736 322.636 295.608 326.967 292.87C329.33 291.379 331.992 291.286 334.467 290.395C339.005 288.754 343.796 287.807 348.333 286.186C352.396 284.888 356.294 283.123 359.949 280.926C361.581 279.857 364.572 280.101 364.9 277.176C364.9 277.035 365.312 276.876 365.537 276.848C369.212 276.416 372.784 275.395 376.413 274.907C377.856 274.719 379.516 274.626 381.1 274.569C383.125 274.494 383.735 273.444 383.266 271.504C381.709 265.196 380.498 258.808 379.638 252.369C378.953 246.997 377.163 241.849 376.938 236.374C376.844 234.002 375.775 231.621 374.875 229.352C373.497 225.902 374.444 222.171 373.366 218.711C373.333 218.608 373.325 218.499 373.343 218.393C373.361 218.286 373.403 218.186 373.467 218.099C373.531 218.012 373.615 217.942 373.711 217.893C373.808 217.845 373.914 217.82 374.022 217.82C374.107 217.804 374.194 217.806 374.278 217.827C374.362 217.848 374.44 217.888 374.507 217.942C374.574 217.997 374.628 218.065 374.666 218.143C374.704 218.221 374.724 218.306 374.725 218.392C375.1 223.568 379.094 227.43 379.675 232.587C380.472 239.524 381.55 246.434 382.666 253.316C383.707 259.578 384.175 265.935 385.891 272.066C386.547 274.448 384.185 277.11 381.466 276.754C377.969 276.276 375.034 277.691 372.006 278.901C371.426 279.236 370.791 279.464 370.131 279.576C368.856 279.576 368.425 280.513 368.256 281.592C367.637 284.939 367.047 288.304 366.381 291.651C365.322 297.052 364.328 302.471 363.109 307.843C362.528 310.393 361.496 312.83 360.662 315.343C360.456 315.971 360.062 316.43 359.359 316.28C358.656 316.13 358.796 315.54 358.721 315.043C358.565 312.925 358.959 310.803 359.865 308.883C361.159 305.593 361.15 302.067 361.74 298.664C362.762 293.217 364.965 288.182 366.09 282.07Z" fill="#888888"/>
<path d="M346.381 99.3345C347.914 100.637 349.352 102.047 350.685 103.553C351.36 104.407 353.103 105.203 351.81 106.947C351.65 107.163 352.513 108.672 353.15 108.447C355.025 107.763 354.603 109.094 355.025 110.06C356.507 113.716 357.182 117.748 359.779 120.917C360.163 121.385 360.716 121.854 360.069 122.426C359.422 122.998 358.832 122.632 358.279 122.182C356.197 120.476 355.532 117.954 354.528 115.619C354.352 115.057 354.126 114.511 353.853 113.988C353.497 113.444 352.757 113.051 352.532 113.932C352.307 114.813 351.435 115.329 351.35 116.06C350.75 121.62 346.709 125.435 344.45 130.179C341.103 137.155 337.212 143.839 333.884 150.805C330.442 158.375 327.434 166.135 324.874 174.047C324.724 174.487 324.63 175.059 323.768 175.228C323.543 172.415 324.574 169.837 325.23 167.221C325.409 166.5 326.318 165.656 324.509 165.478C323.505 165.384 323.505 164.015 323.843 163.087C325.539 158.108 327.647 153.279 330.143 148.649C331.165 146.868 331.756 144.899 332.628 143.089C333.903 140.389 335.787 138.064 337.156 135.448C339.34 131.258 341.844 127.282 343.55 122.763C344.581 119.951 347.084 117.701 348.941 115.198C349.438 114.513 350 113.876 350.478 113.173C351.594 111.522 351.753 110.191 350.478 108.175C348.847 105.522 346.728 103.216 345.397 100.366L346.381 99.3345Z" fill="#888888"/>
<path d="M140.031 255.884C139.468 261.51 136.28 266.544 136.749 272.291C136.88 273.969 135.502 274.166 134.34 274.26C133.505 274.26 132.699 274.101 132.062 274.916C131.358 273.594 132.502 272.788 132.737 271.794C134.302 265.147 136.402 258.613 136.421 251.684C136.446 251.15 136.593 250.629 136.852 250.16C137.11 249.692 137.473 249.29 137.912 248.984C139.524 247.606 139.374 245.234 139.356 243.265C139.356 240.837 140.349 238.624 140.377 236.243C140.377 235.559 140.668 234.79 141.493 234.78C142.318 234.771 142.431 235.605 142.609 236.262C143.396 240.302 144.953 244.324 142.871 248.45C142.75 248.75 142.75 249.086 142.871 249.387C145.018 253.784 144.746 258.584 144.475 263.15C144.081 269.15 144.221 275.179 143.481 281.151C142.89 285.839 143.303 290.629 143.265 295.364C143.265 297.733 143.196 300.102 143.059 302.47C143.059 303.408 142.918 304.617 141.624 304.43C140.574 304.28 140.687 303.07 140.771 302.302C141.343 296.386 140.696 290.461 141.221 284.488C141.499 280.445 141.468 276.386 141.128 272.347C140.884 268.597 141.793 264.941 141.709 261.209C141.671 259.269 140.387 257.778 140.031 255.884Z" fill="#888888"/>
<path d="M113.863 93.3062C114.313 92.9124 114.801 92.5093 115.438 92.7437C114.895 94.8906 115.86 96.9063 116.179 98.922C117.192 105.344 118.457 111.729 119.423 118.17C119.985 121.92 121.514 125.595 122.47 129.336C124.347 136.451 125.469 143.745 125.817 151.096C125.817 152.033 126.042 153.215 124.701 153.262C123.361 153.308 123.445 152.08 123.248 151.208C121.157 141.739 120.023 132.111 118.56 122.539C117.623 116.726 116.301 110.979 115.335 105.175C114.651 101.247 114.313 97.272 113.863 93.3062Z" fill="#888888"/>
<path d="M368.388 165.065C366.935 169.322 368.2 174.215 368.444 179.128C368.388 180.151 368.723 181.156 369.382 181.941C370.844 183.544 369.25 185.072 368.978 186.628C368.875 187.238 368.041 186.628 367.882 186.216C367.524 185.347 367.309 184.425 367.244 183.488C367.075 175.987 365.425 168.572 364.928 161.081C364.703 157.724 363.991 154.433 364.188 150.993C364.338 148.058 363.409 145.049 362.894 142.086C362.05 137.258 361.141 132.439 360.278 127.62C360.194 127.202 360.194 126.772 360.278 126.354C360.428 125.726 360.175 124.723 360.972 124.601C361.984 124.442 362.05 125.539 362.209 126.204C363.222 130.836 363.775 135.58 364.788 140.183C366.26 146.943 367.778 153.721 368.163 160.668C368.228 161.859 368.303 163.143 368.388 165.065Z" fill="#888888"/>
<path d="M223.598 26.8536C224.732 26.1598 225.679 25.2691 227.198 25.3348C227.677 25.3608 228.15 25.2265 228.544 24.9531C228.938 24.6798 229.23 24.2829 229.373 23.8253C229.526 23.2932 229.833 22.818 230.255 22.4594C230.677 22.1008 231.195 21.8748 231.745 21.8096C234.613 21.0402 237.569 20.6462 240.539 20.6377C242.273 20.6846 242.939 21.3034 241.786 23.2253C243.342 22.8409 244.598 22.4846 245.93 22.2034C246.867 22.0065 247.88 21.894 248.142 23.1972C248.405 24.5004 247.439 24.6504 246.586 24.6972C244.223 24.8379 242.451 26.441 240.286 27.1348C235.776 28.588 231.332 28.1755 226.813 27.7442C225.726 27.6505 224.404 28.4192 223.598 26.8536Z" fill="#888888"/>
<path d="M294.966 60.7175C296.122 60.6519 297.26 61.0159 298.163 61.7394C302.851 64.6083 307.417 67.5803 311.383 71.5273C313.258 73.4024 315.93 74.6118 318.086 76.3462C321.771 79.3089 325.314 82.4496 329.411 84.8684C329.927 85.1685 330.433 85.6935 330.03 86.3404C329.627 86.9873 328.99 86.3404 328.455 86.2935C325.23 85.7591 323.608 82.8996 321.349 81.0808C313.633 74.6725 305.44 68.8617 296.842 63.6989C296.268 63.4452 295.782 63.0259 295.448 62.4947C295.114 61.9636 294.946 61.3447 294.966 60.7175Z" fill="#888888"/>
<path d="M196.641 4.35256C198.769 2.98376 200.578 3.94005 202.397 5.07447C205.922 7.25893 207.085 9.62152 206.41 13.5967C205.847 17.0843 204.057 18.0406 200.7 16.8499C198.478 16.053 197.288 14.1498 195.703 12.6591C195.595 12.5862 195.506 12.4878 195.445 12.3725C195.384 12.2573 195.352 12.1287 195.352 11.9982C195.352 11.8676 195.384 11.7391 195.445 11.6238C195.506 11.5086 195.595 11.4101 195.703 11.3372C196.106 11.0559 196.463 11.4403 196.8 11.7028C198.207 12.7716 199.003 14.5155 200.738 15.228C202.988 16.2124 204.769 15.378 205.229 12.9404C205.439 12.1537 205.44 11.3259 205.233 10.5384C205.026 9.751 204.617 9.03108 204.047 8.44959C201.975 6.48077 199.81 4.58695 196.641 4.35256Z" fill="#888888"/>
<path d="M123.127 293.554C124.112 292.673 125.527 292.326 126.137 290.939C126.493 290.123 127.074 290.376 127.44 291.042C128.724 293.264 129.249 291.923 129.737 290.554C130.815 287.535 131.893 284.517 132.906 281.488C133.105 280.594 133.588 279.788 134.284 279.191C133.421 284.217 133.037 288.961 130.534 293.17C129.418 295.045 125.049 295.242 123.09 293.564L123.127 293.554Z" fill="#888888"/>
<path d="M236.76 13.5031C233.495 12.9538 230.445 11.5133 227.947 9.34046C227.581 9.03108 227.113 8.58105 227.403 8.0279C227.694 7.47476 228.463 7.54039 228.978 7.79352C230.272 8.43104 231.632 8.91857 232.907 9.52797C235.025 10.5499 236.807 10.1374 238.701 9.15294C239.263 8.86231 240.041 8.32791 240.576 8.81543C241.316 9.49046 240.182 9.94048 240.088 10.5218C239.788 12.4437 239.01 13.7281 236.76 13.5031Z" fill="#888888"/>
<path d="M346.379 99.3347L345.442 100.375C344.285 98.148 342.657 96.1996 340.67 94.6657C338.364 92.9782 336.198 91.0469 333.582 89.7812C333.025 89.5604 332.527 89.2122 332.128 88.7645C331.729 88.3168 331.44 87.7821 331.285 87.203C333.301 86.7342 334.726 87.4092 336.263 88.7218C338.992 91.0469 342.536 92.4719 343.876 96.2221C344.354 97.5534 345.836 98.1065 346.379 99.3347Z" fill="#888888"/>
<path d="M258.562 5.99337C260.462 5.61989 262.198 4.66169 263.526 3.2529C264.854 1.84411 265.708 0.055263 265.969 -1.86319C266.11 -2.97886 265.828 -3.73826 264.61 -3.79451C264.966 -4.85392 265.294 -6.10085 266.738 -5.77271C268.182 -5.44457 267.469 -4.09452 267.516 -3.19449C267.732 0.977547 265.8 4.0433 262.416 6.29338C261.066 7.16529 259.753 7.32467 258.562 5.99337Z" fill="#888888"/>
<path d="M279.947 86.0966C278.644 87.5686 279.694 89.7437 278.438 91.2343L277.256 90.6062C277.481 86.3498 276.769 82.0746 277.875 77.8088C278.569 75.1556 278.578 72.3336 279.01 69.6054C279.206 68.396 278.869 66.6709 280.969 66.6709C281.446 67.6714 281.588 68.7993 281.372 69.8866C280.06 74.3774 280.435 79.0839 279.638 83.6403C279.469 84.4748 279.581 85.3419 279.956 86.106L279.947 86.0966Z" fill="#888888"/>
<path d="M221.803 88.7256H217.781V87.7627L221.791 82.1685H222.949V87.7627H224.29V88.7256H222.949V90.7H221.803V88.7256ZM218.878 87.7627H221.803V83.6676L218.878 87.7627Z" fill="#111111"/>
<path d="M225.132 88.5184H226.253C226.314 89.079 226.692 90.0419 228.008 90.0419C228.581 90.0419 229.995 89.9322 229.995 87.9334C229.995 86.4221 229.044 85.9224 228.118 85.9224C227.557 85.9224 226.74 86.1783 226.448 86.6658H225.375L225.973 82.1685H230.58V83.1313H226.813L226.472 85.6542C227.008 85.1789 227.618 85.0083 228.398 85.0083C229.97 85.0083 231.067 86.1052 231.067 87.9212C231.067 89.6275 230.116 90.956 228.008 90.956C225.814 90.956 225.229 89.4934 225.132 88.5184Z" fill="#111111"/>
<path d="M218.059 104.597H219.18C219.241 105.157 219.619 106.12 220.935 106.12C221.508 106.12 222.922 106.01 222.922 104.012C222.922 102.5 221.971 102.001 221.045 102.001C220.484 102.001 219.667 102.257 219.375 102.744H218.302L218.9 98.2467H223.507V99.2095H219.741L219.399 101.732C219.936 101.257 220.545 101.086 221.325 101.086C222.897 101.086 223.994 102.183 223.994 103.999C223.994 105.706 223.043 107.034 220.935 107.034C218.741 107.034 218.156 105.572 218.059 104.597Z" fill="#111111"/>
<path d="M228.102 107.034C227.469 107.034 225.116 106.888 225.116 102.512C225.116 98.137 227.469 97.9907 228.102 97.9907C228.736 97.9907 231.088 98.137 231.088 102.512C231.088 106.888 228.736 107.034 228.102 107.034ZM228.102 106.071C229.467 106.071 229.955 104.45 229.955 102.512C229.955 100.575 229.467 98.9536 228.102 98.9536C226.737 98.9536 226.25 100.575 226.25 102.512C226.25 104.45 226.737 106.071 228.102 106.071Z" fill="#111111"/>
<path d="M218.059 120.676H219.18C219.241 121.236 219.619 122.199 220.935 122.199C221.508 122.199 222.922 122.089 222.922 120.091C222.922 118.579 221.971 118.08 221.045 118.08C220.484 118.08 219.667 118.336 219.375 118.823H218.302L218.9 114.326H223.507V115.289H219.741L219.399 117.811C219.936 117.336 220.545 117.165 221.325 117.165C222.897 117.165 223.994 118.262 223.994 120.078C223.994 121.785 223.043 123.113 220.935 123.113C218.741 123.113 218.156 121.651 218.059 120.676Z" fill="#111111"/>
<path d="M225.129 120.676H226.25C226.311 121.236 226.689 122.199 228.005 122.199C228.578 122.199 229.992 122.089 229.992 120.091C229.992 118.579 229.041 118.08 228.115 118.08C227.554 118.08 226.737 118.336 226.445 118.823H225.372L225.97 114.326H230.577V115.289H226.811L226.469 117.811C227.006 117.336 227.615 117.165 228.395 117.165C229.967 117.165 231.064 118.262 231.064 120.078C231.064 121.785 230.113 123.113 228.005 123.113C225.811 123.113 225.226 121.651 225.129 120.676Z" fill="#111111"/>
<path d="M223.905 131.897H222.882C222.589 130.678 221.602 130.678 221.248 130.678C219.457 130.678 219.176 132.506 219.176 133.834H219.201C219.701 133.164 220.505 132.933 221.285 132.933C222.845 132.933 224.027 133.993 224.027 135.797C224.027 137.564 222.955 138.807 221.102 138.807C219.213 138.807 218.043 137.82 218.043 134.395C218.043 129.825 220.505 129.764 221.261 129.764C221.736 129.764 223.552 129.825 223.905 131.897ZM219.25 135.821C219.25 136.881 219.847 137.893 221.151 137.893C222.406 137.893 222.93 136.857 222.93 135.785C222.93 134.749 222.345 133.847 221.127 133.847C219.92 133.847 219.25 134.651 219.25 135.821Z" fill="#111111"/>
<path d="M228.111 138.807C227.477 138.807 225.125 138.661 225.125 134.285C225.125 129.91 227.477 129.764 228.111 129.764C228.745 129.764 231.097 129.91 231.097 134.285C231.097 138.661 228.745 138.807 228.111 138.807ZM228.111 137.844C229.476 137.844 229.964 136.223 229.964 134.285C229.964 132.348 229.476 130.727 228.111 130.727C226.746 130.727 226.259 132.348 226.259 134.285C226.259 136.223 226.746 137.844 228.111 137.844Z" fill="#111111"/>
<path d="M223.905 149.195H222.882C222.589 147.976 221.602 147.976 221.248 147.976C219.457 147.976 219.176 149.804 219.176 151.133H219.201C219.701 150.462 220.505 150.231 221.285 150.231C222.845 150.231 224.027 151.291 224.027 153.095C224.027 154.862 222.955 156.105 221.102 156.105C219.213 156.105 218.043 155.118 218.043 151.693C218.043 147.123 220.505 147.062 221.261 147.062C221.736 147.062 223.552 147.123 223.905 149.195ZM219.25 153.119C219.25 154.18 219.847 155.191 221.151 155.191C222.406 155.191 222.93 154.155 222.93 153.083C222.93 152.047 222.345 151.145 221.127 151.145C219.92 151.145 219.25 151.949 219.25 153.119Z" fill="#111111"/>
<path d="M225.137 153.668H226.259C226.32 154.229 226.697 155.191 228.014 155.191C228.587 155.191 230 155.082 230 153.083C230 151.572 229.05 151.072 228.123 151.072C227.563 151.072 226.746 151.328 226.454 151.815H225.381L225.978 147.318H230.585V148.281H226.819L226.478 150.804C227.014 150.328 227.624 150.158 228.404 150.158C229.976 150.158 231.073 151.255 231.073 153.071C231.073 154.777 230.122 156.105 228.014 156.105C225.82 156.105 225.235 154.643 225.137 153.668Z" fill="#111111"/>
<path d="M217.914 165.569V164.606H224.142V165.386C223.009 166.654 222.363 167.775 221.778 169.213C221.229 170.529 220.998 171.614 220.839 173.138H219.62C219.779 171.907 220.059 170.688 220.644 169.311C221.168 168.104 221.985 166.702 223.021 165.569H217.914Z" fill="#111111"/>
<path d="M228.104 173.394C227.47 173.394 225.118 173.247 225.118 168.872C225.118 164.496 227.47 164.35 228.104 164.35C228.738 164.35 231.09 164.496 231.09 168.872C231.09 173.247 228.738 173.394 228.104 173.394ZM228.104 172.431C229.469 172.431 229.957 170.81 229.957 168.872C229.957 166.934 229.469 165.313 228.104 165.313C226.739 165.313 226.252 166.934 226.252 168.872C226.252 170.81 226.739 172.431 228.104 172.431Z" fill="#111111"/>
<path d="M217.914 185.444V184.481H224.142V185.261C223.009 186.529 222.363 187.65 221.778 189.088C221.229 190.405 220.998 191.49 220.839 193.013H219.62C219.779 191.782 220.059 190.563 220.644 189.186C221.168 187.979 221.985 186.578 223.021 185.444H217.914Z" fill="#111111"/>
<path d="M225.13 190.831H226.252C226.313 191.392 226.69 192.355 228.007 192.355C228.579 192.355 229.993 192.245 229.993 190.246C229.993 188.735 229.043 188.235 228.116 188.235C227.556 188.235 226.739 188.491 226.447 188.979H225.374L225.971 184.481H230.578V185.444H226.812L226.471 187.967C227.007 187.492 227.617 187.321 228.397 187.321C229.969 187.321 231.066 188.418 231.066 190.234C231.066 191.94 230.115 193.269 228.007 193.269C225.813 193.269 225.228 191.806 225.13 190.831Z" fill="#111111"/>
</g>
</svg>
