<svg width="518" height="578" viewBox="0 0 518 578" fill="none" xmlns="http://www.w3.org/2000/svg">
<g opacity="0.3">
<ellipse cx="441.546" cy="495.507" rx="2.6127" ry="2.92094" fill="#464646"/>
<ellipse cx="478.124" cy="495.507" rx="2.6127" ry="2.92094" fill="#464646"/>
<ellipse cx="514.703" cy="495.507" rx="2.6127" ry="2.92094" fill="#464646"/>
<ellipse cx="441.546" cy="534.94" rx="2.6127" ry="2.92094" fill="#464646"/>
<ellipse cx="478.124" cy="534.94" rx="2.6127" ry="2.92094" fill="#464646"/>
<ellipse cx="514.703" cy="534.94" rx="2.6127" ry="2.92094" fill="#464646"/>
<ellipse cx="441.546" cy="574.372" rx="2.6127" ry="2.92094" fill="#464646"/>
<ellipse cx="478.124" cy="574.372" rx="2.6127" ry="2.92094" fill="#464646"/>
<ellipse cx="514.703" cy="574.372" rx="2.6127" ry="2.92094" fill="#464646"/>
<ellipse cx="441.546" cy="375.747" rx="2.6127" ry="2.92094" fill="#464646"/>
<ellipse cx="478.124" cy="375.747" rx="2.6127" ry="2.92094" fill="#464646"/>
<ellipse cx="514.703" cy="375.747" rx="2.6127" ry="2.92094" fill="#464646"/>
<ellipse cx="441.546" cy="415.179" rx="2.6127" ry="2.92094" fill="#464646"/>
<ellipse cx="478.124" cy="415.179" rx="2.6127" ry="2.92094" fill="#464646"/>
<ellipse cx="514.703" cy="415.179" rx="2.6127" ry="2.92094" fill="#464646"/>
<ellipse cx="441.546" cy="454.612" rx="2.6127" ry="2.92094" fill="#464646"/>
<ellipse cx="478.124" cy="454.612" rx="2.6127" ry="2.92094" fill="#464646"/>
<ellipse cx="514.703" cy="454.612" rx="2.6127" ry="2.92094" fill="#464646"/>
<ellipse cx="441.546" cy="255.989" rx="2.6127" ry="2.92094" fill="#464646"/>
<ellipse cx="478.124" cy="255.989" rx="2.6127" ry="2.92094" fill="#464646"/>
<ellipse cx="514.703" cy="255.989" rx="2.6127" ry="2.92094" fill="#464646"/>
<ellipse cx="441.546" cy="295.423" rx="2.6127" ry="2.92094" fill="#464646"/>
<ellipse cx="478.124" cy="295.423" rx="2.6127" ry="2.92094" fill="#464646"/>
<ellipse cx="514.703" cy="295.423" rx="2.6127" ry="2.92094" fill="#464646"/>
<ellipse cx="441.546" cy="334.855" rx="2.6127" ry="2.92094" fill="#464646"/>
<ellipse cx="478.124" cy="334.855" rx="2.6127" ry="2.92094" fill="#464646"/>
<ellipse cx="514.703" cy="334.855" rx="2.6127" ry="2.92094" fill="#464646"/>
<ellipse cx="331.816" cy="495.507" rx="2.6127" ry="2.92094" fill="#464646"/>
<ellipse cx="368.394" cy="495.507" rx="2.6127" ry="2.92094" fill="#464646"/>
<ellipse cx="404.972" cy="495.507" rx="2.6127" ry="2.92094" fill="#464646"/>
<ellipse cx="331.816" cy="534.94" rx="2.6127" ry="2.92094" fill="#464646"/>
<ellipse cx="368.394" cy="534.94" rx="2.6127" ry="2.92094" fill="#464646"/>
<ellipse cx="404.972" cy="534.94" rx="2.6127" ry="2.92094" fill="#464646"/>
<ellipse cx="331.816" cy="574.372" rx="2.6127" ry="2.92094" fill="#464646"/>
<ellipse cx="368.394" cy="574.372" rx="2.6127" ry="2.92094" fill="#464646"/>
<ellipse cx="404.972" cy="574.372" rx="2.6127" ry="2.92094" fill="#464646"/>
<ellipse cx="331.816" cy="375.747" rx="2.6127" ry="2.92094" fill="#464646"/>
<ellipse cx="368.394" cy="375.747" rx="2.6127" ry="2.92094" fill="#464646"/>
<ellipse cx="404.972" cy="375.747" rx="2.6127" ry="2.92094" fill="#464646"/>
<ellipse cx="331.816" cy="415.181" rx="2.6127" ry="2.92094" fill="#464646"/>
<ellipse cx="368.394" cy="415.181" rx="2.6127" ry="2.92094" fill="#464646"/>
<ellipse cx="404.972" cy="415.181" rx="2.6127" ry="2.92094" fill="#464646"/>
<ellipse cx="331.816" cy="454.612" rx="2.6127" ry="2.92094" fill="#464646"/>
<ellipse cx="368.394" cy="454.612" rx="2.6127" ry="2.92094" fill="#464646"/>
<ellipse cx="404.972" cy="454.612" rx="2.6127" ry="2.92094" fill="#464646"/>
<ellipse cx="331.816" cy="255.989" rx="2.6127" ry="2.92094" fill="#464646"/>
<ellipse cx="368.394" cy="255.989" rx="2.6127" ry="2.92094" fill="#464646"/>
<ellipse cx="404.972" cy="255.989" rx="2.6127" ry="2.92094" fill="#464646"/>
<ellipse cx="331.816" cy="295.423" rx="2.6127" ry="2.92094" fill="#464646"/>
<ellipse cx="368.394" cy="295.423" rx="2.6127" ry="2.92094" fill="#464646"/>
<ellipse cx="404.972" cy="295.423" rx="2.6127" ry="2.92094" fill="#464646"/>
<ellipse cx="331.816" cy="334.855" rx="2.6127" ry="2.92094" fill="#464646"/>
<ellipse cx="368.394" cy="334.855" rx="2.6127" ry="2.92094" fill="#464646"/>
<ellipse cx="404.972" cy="334.855" rx="2.6127" ry="2.92094" fill="#464646"/>
<ellipse cx="222.079" cy="495.507" rx="2.6127" ry="2.92094" fill="#464646"/>
<ellipse cx="258.658" cy="495.507" rx="2.6127" ry="2.92094" fill="#464646"/>
<ellipse cx="295.236" cy="495.507" rx="2.6127" ry="2.92094" fill="#464646"/>
<ellipse cx="222.079" cy="534.939" rx="2.6127" ry="2.92094" fill="#464646"/>
<ellipse cx="258.658" cy="534.939" rx="2.6127" ry="2.92094" fill="#464646"/>
<ellipse cx="295.236" cy="534.939" rx="2.6127" ry="2.92094" fill="#464646"/>
<ellipse cx="222.079" cy="574.372" rx="2.6127" ry="2.92094" fill="#464646"/>
<ellipse cx="258.658" cy="574.372" rx="2.6127" ry="2.92094" fill="#464646"/>
<ellipse cx="295.236" cy="574.372" rx="2.6127" ry="2.92094" fill="#464646"/>
<ellipse cx="222.079" cy="375.747" rx="2.6127" ry="2.92094" fill="#464646"/>
<ellipse cx="258.658" cy="375.747" rx="2.6127" ry="2.92094" fill="#464646"/>
<ellipse cx="295.236" cy="375.747" rx="2.6127" ry="2.92094" fill="#464646"/>
<ellipse cx="222.079" cy="415.179" rx="2.6127" ry="2.92094" fill="#464646"/>
<ellipse cx="258.658" cy="415.179" rx="2.6127" ry="2.92094" fill="#464646"/>
<ellipse cx="295.236" cy="415.179" rx="2.6127" ry="2.92094" fill="#464646"/>
<ellipse cx="222.079" cy="454.612" rx="2.6127" ry="2.92094" fill="#464646"/>
<ellipse cx="258.658" cy="454.612" rx="2.6127" ry="2.92094" fill="#464646"/>
<ellipse cx="295.236" cy="454.612" rx="2.6127" ry="2.92094" fill="#464646"/>
<ellipse cx="222.079" cy="255.989" rx="2.6127" ry="2.92094" fill="#464646"/>
<ellipse cx="258.658" cy="255.989" rx="2.6127" ry="2.92094" fill="#464646"/>
<ellipse cx="295.236" cy="255.989" rx="2.6127" ry="2.92094" fill="#464646"/>
<ellipse cx="222.079" cy="295.423" rx="2.6127" ry="2.92094" fill="#464646"/>
<ellipse cx="258.658" cy="295.423" rx="2.6127" ry="2.92094" fill="#464646"/>
<ellipse cx="295.236" cy="295.423" rx="2.6127" ry="2.92094" fill="#464646"/>
<ellipse cx="222.079" cy="334.855" rx="2.6127" ry="2.92094" fill="#464646"/>
<ellipse cx="258.658" cy="334.855" rx="2.6127" ry="2.92094" fill="#464646"/>
<ellipse cx="295.236" cy="334.855" rx="2.6127" ry="2.92094" fill="#464646"/>
<ellipse cx="112.347" cy="495.507" rx="2.6127" ry="2.92094" fill="#464646"/>
<ellipse cx="148.925" cy="495.507" rx="2.6127" ry="2.92094" fill="#464646"/>
<ellipse cx="185.503" cy="495.507" rx="2.6127" ry="2.92094" fill="#464646"/>
<ellipse cx="112.347" cy="534.94" rx="2.6127" ry="2.92094" fill="#464646"/>
<ellipse cx="148.925" cy="534.94" rx="2.6127" ry="2.92094" fill="#464646"/>
<ellipse cx="185.503" cy="534.94" rx="2.6127" ry="2.92094" fill="#464646"/>
<ellipse cx="112.347" cy="574.372" rx="2.6127" ry="2.92094" fill="#464646"/>
<ellipse cx="148.925" cy="574.372" rx="2.6127" ry="2.92094" fill="#464646"/>
<ellipse cx="185.503" cy="574.372" rx="2.6127" ry="2.92094" fill="#464646"/>
<ellipse cx="112.347" cy="375.747" rx="2.6127" ry="2.92094" fill="#464646"/>
<ellipse cx="148.925" cy="375.747" rx="2.6127" ry="2.92094" fill="#464646"/>
<ellipse cx="185.503" cy="375.747" rx="2.6127" ry="2.92094" fill="#464646"/>
<ellipse cx="112.347" cy="415.181" rx="2.6127" ry="2.92094" fill="#464646"/>
<ellipse cx="148.925" cy="415.181" rx="2.6127" ry="2.92094" fill="#464646"/>
<ellipse cx="185.503" cy="415.181" rx="2.6127" ry="2.92094" fill="#464646"/>
<ellipse cx="112.347" cy="454.612" rx="2.6127" ry="2.92094" fill="#464646"/>
<ellipse cx="148.925" cy="454.612" rx="2.6127" ry="2.92094" fill="#464646"/>
<ellipse cx="185.503" cy="454.612" rx="2.6127" ry="2.92094" fill="#464646"/>
<ellipse cx="112.347" cy="255.989" rx="2.6127" ry="2.92094" fill="#464646"/>
<ellipse cx="148.925" cy="255.989" rx="2.6127" ry="2.92094" fill="#464646"/>
<ellipse cx="185.503" cy="255.989" rx="2.6127" ry="2.92094" fill="#464646"/>
<ellipse cx="112.347" cy="295.423" rx="2.6127" ry="2.92094" fill="#464646"/>
<ellipse cx="148.925" cy="295.423" rx="2.6127" ry="2.92094" fill="#464646"/>
<ellipse cx="185.503" cy="295.423" rx="2.6127" ry="2.92094" fill="#464646"/>
<ellipse cx="112.347" cy="334.855" rx="2.6127" ry="2.92094" fill="#464646"/>
<ellipse cx="148.925" cy="334.855" rx="2.6127" ry="2.92094" fill="#464646"/>
<ellipse cx="185.503" cy="334.855" rx="2.6127" ry="2.92094" fill="#464646"/>
<ellipse cx="2.6127" cy="495.507" rx="2.6127" ry="2.92094" fill="#464646"/>
<ellipse cx="39.1908" cy="495.507" rx="2.6127" ry="2.92094" fill="#464646"/>
<ellipse cx="75.7689" cy="495.507" rx="2.6127" ry="2.92094" fill="#464646"/>
<ellipse cx="2.6127" cy="534.94" rx="2.6127" ry="2.92094" fill="#464646"/>
<ellipse cx="39.1908" cy="534.94" rx="2.6127" ry="2.92094" fill="#464646"/>
<ellipse cx="75.7689" cy="534.94" rx="2.6127" ry="2.92094" fill="#464646"/>
<ellipse cx="2.6127" cy="574.372" rx="2.6127" ry="2.92094" fill="#464646"/>
<ellipse cx="39.1908" cy="574.372" rx="2.6127" ry="2.92094" fill="#464646"/>
<ellipse cx="75.7689" cy="574.372" rx="2.6127" ry="2.92094" fill="#464646"/>
<ellipse cx="2.6127" cy="375.747" rx="2.6127" ry="2.92094" fill="#464646"/>
<ellipse cx="39.1908" cy="375.747" rx="2.6127" ry="2.92094" fill="#464646"/>
<ellipse cx="75.7689" cy="375.747" rx="2.6127" ry="2.92094" fill="#464646"/>
<ellipse cx="2.6127" cy="415.181" rx="2.6127" ry="2.92094" fill="#464646"/>
<ellipse cx="39.1908" cy="415.181" rx="2.6127" ry="2.92094" fill="#464646"/>
<ellipse cx="75.7689" cy="415.181" rx="2.6127" ry="2.92094" fill="#464646"/>
<ellipse cx="2.6127" cy="454.612" rx="2.6127" ry="2.92094" fill="#464646"/>
<ellipse cx="39.1908" cy="454.612" rx="2.6127" ry="2.92094" fill="#464646"/>
<ellipse cx="75.7689" cy="454.612" rx="2.6127" ry="2.92094" fill="#464646"/>
<ellipse cx="2.6127" cy="255.989" rx="2.6127" ry="2.92094" fill="#464646"/>
<ellipse cx="39.1908" cy="255.989" rx="2.6127" ry="2.92094" fill="#464646"/>
<ellipse cx="75.7689" cy="255.989" rx="2.6127" ry="2.92094" fill="#464646"/>
<ellipse cx="2.6127" cy="295.423" rx="2.6127" ry="2.92094" fill="#464646"/>
<ellipse cx="39.1908" cy="295.423" rx="2.6127" ry="2.92094" fill="#464646"/>
<ellipse cx="75.7689" cy="295.423" rx="2.6127" ry="2.92094" fill="#464646"/>
<ellipse cx="2.6127" cy="334.855" rx="2.6127" ry="2.92094" fill="#464646"/>
<ellipse cx="39.1908" cy="334.855" rx="2.6127" ry="2.92094" fill="#464646"/>
<ellipse cx="75.7689" cy="334.855" rx="2.6127" ry="2.92094" fill="#464646"/>
<ellipse cx="441.546" cy="136.231" rx="2.6127" ry="2.92094" fill="#464646"/>
<ellipse cx="478.124" cy="136.231" rx="2.6127" ry="2.92094" fill="#464646"/>
<ellipse cx="514.703" cy="136.231" rx="2.6127" ry="2.92094" fill="#464646"/>
<ellipse cx="441.546" cy="175.665" rx="2.6127" ry="2.92094" fill="#464646"/>
<ellipse cx="478.124" cy="175.665" rx="2.6127" ry="2.92094" fill="#464646"/>
<ellipse cx="514.703" cy="175.665" rx="2.6127" ry="2.92094" fill="#464646"/>
<ellipse cx="441.546" cy="215.097" rx="2.6127" ry="2.92094" fill="#464646"/>
<ellipse cx="478.124" cy="215.097" rx="2.6127" ry="2.92094" fill="#464646"/>
<ellipse cx="514.703" cy="215.097" rx="2.6127" ry="2.92094" fill="#464646"/>
<ellipse cx="441.546" cy="16.4717" rx="2.6127" ry="2.92094" fill="#464646"/>
<ellipse cx="478.124" cy="16.4717" rx="2.6127" ry="2.92094" fill="#464646"/>
<ellipse cx="514.703" cy="16.4717" rx="2.6127" ry="2.92094" fill="#464646"/>
<ellipse cx="441.546" cy="55.9034" rx="2.6127" ry="2.92094" fill="#464646"/>
<ellipse cx="478.124" cy="55.9034" rx="2.6127" ry="2.92094" fill="#464646"/>
<ellipse cx="514.703" cy="55.9034" rx="2.6127" ry="2.92094" fill="#464646"/>
<ellipse cx="441.546" cy="95.337" rx="2.6127" ry="2.92094" fill="#464646"/>
<ellipse cx="478.124" cy="95.337" rx="2.6127" ry="2.92094" fill="#464646"/>
<ellipse cx="514.703" cy="95.337" rx="2.6127" ry="2.92094" fill="#464646"/>
<ellipse cx="331.816" cy="136.231" rx="2.6127" ry="2.92094" fill="#464646"/>
<ellipse cx="368.394" cy="136.231" rx="2.6127" ry="2.92094" fill="#464646"/>
<ellipse cx="404.972" cy="136.231" rx="2.6127" ry="2.92094" fill="#464646"/>
<ellipse cx="331.816" cy="175.665" rx="2.6127" ry="2.92094" fill="#464646"/>
<ellipse cx="368.394" cy="175.665" rx="2.6127" ry="2.92094" fill="#464646"/>
<ellipse cx="404.972" cy="175.665" rx="2.6127" ry="2.92094" fill="#464646"/>
<ellipse cx="331.816" cy="215.097" rx="2.6127" ry="2.92094" fill="#464646"/>
<ellipse cx="368.394" cy="215.097" rx="2.6127" ry="2.92094" fill="#464646"/>
<ellipse cx="404.972" cy="215.097" rx="2.6127" ry="2.92094" fill="#464646"/>
<ellipse cx="331.816" cy="16.4717" rx="2.6127" ry="2.92094" fill="#464646"/>
<ellipse cx="368.394" cy="16.4717" rx="2.6127" ry="2.92094" fill="#464646"/>
<ellipse cx="404.972" cy="16.4717" rx="2.6127" ry="2.92094" fill="#464646"/>
<ellipse cx="331.816" cy="55.9034" rx="2.6127" ry="2.92094" fill="#464646"/>
<ellipse cx="368.394" cy="55.9034" rx="2.6127" ry="2.92094" fill="#464646"/>
<ellipse cx="404.972" cy="55.9034" rx="2.6127" ry="2.92094" fill="#464646"/>
<ellipse cx="331.816" cy="95.337" rx="2.6127" ry="2.92094" fill="#464646"/>
<ellipse cx="368.394" cy="95.337" rx="2.6127" ry="2.92094" fill="#464646"/>
<ellipse cx="404.972" cy="95.337" rx="2.6127" ry="2.92094" fill="#464646"/>
<ellipse cx="222.079" cy="136.231" rx="2.6127" ry="2.92094" fill="#464646"/>
<ellipse cx="258.658" cy="136.231" rx="2.6127" ry="2.92094" fill="#464646"/>
<ellipse cx="295.236" cy="136.231" rx="2.6127" ry="2.92094" fill="#464646"/>
<ellipse cx="222.079" cy="175.663" rx="2.6127" ry="2.92094" fill="#464646"/>
<ellipse cx="258.658" cy="175.663" rx="2.6127" ry="2.92094" fill="#464646"/>
<ellipse cx="295.236" cy="175.663" rx="2.6127" ry="2.92094" fill="#464646"/>
<ellipse cx="222.079" cy="215.097" rx="2.6127" ry="2.92094" fill="#464646"/>
<ellipse cx="258.658" cy="215.097" rx="2.6127" ry="2.92094" fill="#464646"/>
<ellipse cx="295.236" cy="215.097" rx="2.6127" ry="2.92094" fill="#464646"/>
<ellipse cx="222.079" cy="16.4717" rx="2.6127" ry="2.92094" fill="#464646"/>
<ellipse cx="258.658" cy="16.4717" rx="2.6127" ry="2.92094" fill="#464646"/>
<ellipse cx="295.236" cy="16.4717" rx="2.6127" ry="2.92094" fill="#464646"/>
<ellipse cx="222.079" cy="55.9034" rx="2.6127" ry="2.92094" fill="#464646"/>
<ellipse cx="258.658" cy="55.9034" rx="2.6127" ry="2.92094" fill="#464646"/>
<ellipse cx="295.236" cy="55.9034" rx="2.6127" ry="2.92094" fill="#464646"/>
<ellipse cx="222.079" cy="95.337" rx="2.6127" ry="2.92094" fill="#464646"/>
<ellipse cx="258.658" cy="95.337" rx="2.6127" ry="2.92094" fill="#464646"/>
<ellipse cx="295.236" cy="95.337" rx="2.6127" ry="2.92094" fill="#464646"/>
<ellipse cx="112.347" cy="136.231" rx="2.6127" ry="2.92094" fill="#464646"/>
<ellipse cx="148.925" cy="136.231" rx="2.6127" ry="2.92094" fill="#464646"/>
<ellipse cx="185.503" cy="136.231" rx="2.6127" ry="2.92094" fill="#464646"/>
<ellipse cx="112.347" cy="175.665" rx="2.6127" ry="2.92094" fill="#464646"/>
<ellipse cx="148.925" cy="175.665" rx="2.6127" ry="2.92094" fill="#464646"/>
<ellipse cx="185.503" cy="175.665" rx="2.6127" ry="2.92094" fill="#464646"/>
<ellipse cx="112.347" cy="215.097" rx="2.6127" ry="2.92094" fill="#464646"/>
<ellipse cx="148.925" cy="215.097" rx="2.6127" ry="2.92094" fill="#464646"/>
<ellipse cx="185.503" cy="215.097" rx="2.6127" ry="2.92094" fill="#464646"/>
<ellipse cx="112.347" cy="16.4717" rx="2.6127" ry="2.92094" fill="#464646"/>
<ellipse cx="148.925" cy="16.4717" rx="2.6127" ry="2.92094" fill="#464646"/>
<ellipse cx="185.503" cy="16.4717" rx="2.6127" ry="2.92094" fill="#464646"/>
<ellipse cx="112.347" cy="55.9034" rx="2.6127" ry="2.92094" fill="#464646"/>
<ellipse cx="148.925" cy="55.9034" rx="2.6127" ry="2.92094" fill="#464646"/>
<ellipse cx="185.503" cy="55.9034" rx="2.6127" ry="2.92094" fill="#464646"/>
<ellipse cx="112.347" cy="95.337" rx="2.6127" ry="2.92094" fill="#464646"/>
<ellipse cx="148.925" cy="95.337" rx="2.6127" ry="2.92094" fill="#464646"/>
<ellipse cx="185.503" cy="95.337" rx="2.6127" ry="2.92094" fill="#464646"/>
<ellipse cx="2.6127" cy="136.231" rx="2.6127" ry="2.92094" fill="#464646"/>
<ellipse cx="39.1908" cy="136.231" rx="2.6127" ry="2.92094" fill="#464646"/>
<ellipse cx="75.7689" cy="136.231" rx="2.6127" ry="2.92094" fill="#464646"/>
<ellipse cx="2.6127" cy="175.665" rx="2.6127" ry="2.92094" fill="#464646"/>
<ellipse cx="39.1908" cy="175.665" rx="2.6127" ry="2.92094" fill="#464646"/>
<ellipse cx="75.7689" cy="175.665" rx="2.6127" ry="2.92094" fill="#464646"/>
<ellipse cx="2.6127" cy="215.097" rx="2.6127" ry="2.92094" fill="#464646"/>
<ellipse cx="39.1908" cy="215.097" rx="2.6127" ry="2.92094" fill="#464646"/>
<ellipse cx="75.7689" cy="215.097" rx="2.6127" ry="2.92094" fill="#464646"/>
<ellipse cx="2.6127" cy="16.4717" rx="2.6127" ry="2.92094" fill="#464646"/>
<ellipse cx="39.1908" cy="16.4717" rx="2.6127" ry="2.92094" fill="#464646"/>
<ellipse cx="75.7689" cy="16.4717" rx="2.6127" ry="2.92094" fill="#464646"/>
<ellipse cx="2.6127" cy="55.9034" rx="2.6127" ry="2.92094" fill="#464646"/>
<ellipse cx="39.1908" cy="55.9034" rx="2.6127" ry="2.92094" fill="#464646"/>
<ellipse cx="75.7689" cy="55.9034" rx="2.6127" ry="2.92094" fill="#464646"/>
<ellipse cx="2.6127" cy="95.337" rx="2.6127" ry="2.92094" fill="#464646"/>
<ellipse cx="39.1908" cy="95.337" rx="2.6127" ry="2.92094" fill="#464646"/>
<ellipse cx="75.7689" cy="95.337" rx="2.6127" ry="2.92094" fill="#464646"/>
</g>
</svg>
