<svg width="518" height="612" viewBox="0 0 518 612" fill="none" xmlns="http://www.w3.org/2000/svg">
<circle cx="441.546" cy="538.215" r="2.6127" fill="#1C1C1C"/>
<circle cx="478.124" cy="538.215" r="2.6127" fill="#1C1C1C"/>
<circle cx="514.703" cy="538.215" r="2.6127" fill="#1C1C1C"/>
<circle cx="441.546" cy="573.487" r="2.6127" fill="#1C1C1C"/>
<circle cx="478.124" cy="573.487" r="2.6127" fill="#1C1C1C"/>
<circle cx="514.703" cy="573.487" r="2.6127" fill="#1C1C1C"/>
<circle cx="441.546" cy="608.758" r="2.6127" fill="#1C1C1C"/>
<circle cx="478.124" cy="608.758" r="2.6127" fill="#1C1C1C"/>
<circle cx="514.703" cy="608.757" r="2.6127" fill="#1C1C1C"/>
<circle cx="441.546" cy="431.094" r="2.6127" fill="#1C1C1C"/>
<circle cx="478.124" cy="431.094" r="2.6127" fill="#1C1C1C"/>
<circle cx="514.703" cy="431.094" r="2.6127" fill="#1C1C1C"/>
<circle cx="441.546" cy="466.366" r="2.6127" fill="#1C1C1C"/>
<circle cx="478.124" cy="466.366" r="2.6127" fill="#1C1C1C"/>
<circle cx="514.703" cy="466.365" r="2.6127" fill="#1C1C1C"/>
<circle cx="441.546" cy="501.637" r="2.6127" fill="#1C1C1C"/>
<circle cx="478.124" cy="501.637" r="2.6127" fill="#1C1C1C"/>
<circle cx="514.703" cy="501.637" r="2.6127" fill="#1C1C1C"/>
<circle cx="441.546" cy="323.974" r="2.6127" fill="#1C1C1C"/>
<circle cx="478.124" cy="323.974" r="2.6127" fill="#1C1C1C"/>
<circle cx="514.703" cy="323.974" r="2.6127" fill="#1C1C1C"/>
<circle cx="441.546" cy="359.246" r="2.6127" fill="#1C1C1C"/>
<circle cx="478.124" cy="359.246" r="2.6127" fill="#1C1C1C"/>
<circle cx="514.703" cy="359.246" r="2.6127" fill="#1C1C1C"/>
<circle cx="441.546" cy="394.517" r="2.6127" fill="#1C1C1C"/>
<circle cx="478.124" cy="394.517" r="2.6127" fill="#1C1C1C"/>
<circle cx="514.703" cy="394.517" r="2.6127" fill="#1C1C1C"/>
<circle cx="331.816" cy="538.215" r="2.6127" fill="#1C1C1C"/>
<circle cx="368.394" cy="538.215" r="2.6127" fill="#1C1C1C"/>
<circle cx="404.972" cy="538.215" r="2.6127" fill="#1C1C1C"/>
<circle cx="331.816" cy="573.487" r="2.6127" fill="#1C1C1C"/>
<circle cx="368.394" cy="573.487" r="2.6127" fill="#1C1C1C"/>
<circle cx="404.972" cy="573.487" r="2.6127" fill="#1C1C1C"/>
<circle cx="331.816" cy="608.758" r="2.6127" fill="#1C1C1C"/>
<circle cx="368.394" cy="608.758" r="2.6127" fill="#1C1C1C"/>
<circle cx="404.972" cy="608.757" r="2.6127" fill="#1C1C1C"/>
<circle cx="331.816" cy="431.095" r="2.6127" fill="#1C1C1C"/>
<circle cx="368.394" cy="431.095" r="2.6127" fill="#1C1C1C"/>
<circle cx="404.972" cy="431.095" r="2.6127" fill="#1C1C1C"/>
<circle cx="331.816" cy="466.367" r="2.6127" fill="#1C1C1C"/>
<circle cx="368.394" cy="466.367" r="2.6127" fill="#1C1C1C"/>
<circle cx="404.972" cy="466.367" r="2.6127" fill="#1C1C1C"/>
<circle cx="331.816" cy="501.638" r="2.6127" fill="#1C1C1C"/>
<circle cx="368.394" cy="501.638" r="2.6127" fill="#1C1C1C"/>
<circle cx="404.972" cy="501.638" r="2.6127" fill="#1C1C1C"/>
<circle cx="331.816" cy="323.974" r="2.6127" fill="#1C1C1C"/>
<circle cx="368.394" cy="323.974" r="2.6127" fill="#1C1C1C"/>
<circle cx="404.972" cy="323.974" r="2.6127" fill="#1C1C1C"/>
<circle cx="331.816" cy="359.246" r="2.6127" fill="#1C1C1C"/>
<circle cx="368.394" cy="359.246" r="2.6127" fill="#1C1C1C"/>
<circle cx="404.972" cy="359.246" r="2.6127" fill="#1C1C1C"/>
<circle cx="331.816" cy="394.517" r="2.6127" fill="#1C1C1C"/>
<circle cx="368.394" cy="394.517" r="2.6127" fill="#1C1C1C"/>
<circle cx="404.972" cy="394.517" r="2.6127" fill="#1C1C1C"/>
<circle cx="222.078" cy="538.215" r="2.6127" fill="#1C1C1C"/>
<circle cx="258.656" cy="538.215" r="2.6127" fill="#1C1C1C"/>
<circle cx="295.234" cy="538.215" r="2.6127" fill="#1C1C1C"/>
<circle cx="222.078" cy="573.487" r="2.6127" fill="#1C1C1C"/>
<circle cx="258.656" cy="573.487" r="2.6127" fill="#1C1C1C"/>
<circle cx="295.234" cy="573.487" r="2.6127" fill="#1C1C1C"/>
<circle cx="222.078" cy="608.758" r="2.6127" fill="#1C1C1C"/>
<circle cx="258.656" cy="608.757" r="2.6127" fill="#1C1C1C"/>
<circle cx="295.234" cy="608.757" r="2.6127" fill="#1C1C1C"/>
<circle cx="222.078" cy="431.094" r="2.6127" fill="#1C1C1C"/>
<circle cx="258.656" cy="431.094" r="2.6127" fill="#1C1C1C"/>
<circle cx="295.234" cy="431.094" r="2.6127" fill="#1C1C1C"/>
<circle cx="222.078" cy="466.365" r="2.6127" fill="#1C1C1C"/>
<circle cx="258.656" cy="466.365" r="2.6127" fill="#1C1C1C"/>
<circle cx="295.234" cy="466.365" r="2.6127" fill="#1C1C1C"/>
<circle cx="222.078" cy="501.637" r="2.6127" fill="#1C1C1C"/>
<circle cx="258.656" cy="501.637" r="2.6127" fill="#1C1C1C"/>
<circle cx="295.234" cy="501.637" r="2.6127" fill="#1C1C1C"/>
<circle cx="222.078" cy="323.974" r="2.6127" fill="#1C1C1C"/>
<circle cx="258.656" cy="323.974" r="2.6127" fill="#1C1C1C"/>
<circle cx="295.234" cy="323.974" r="2.6127" fill="#1C1C1C"/>
<circle cx="222.078" cy="359.246" r="2.6127" fill="#1C1C1C"/>
<circle cx="258.656" cy="359.246" r="2.6127" fill="#1C1C1C"/>
<circle cx="295.234" cy="359.246" r="2.6127" fill="#1C1C1C"/>
<circle cx="222.078" cy="394.517" r="2.6127" fill="#1C1C1C"/>
<circle cx="258.656" cy="394.517" r="2.6127" fill="#1C1C1C"/>
<circle cx="295.234" cy="394.517" r="2.6127" fill="#1C1C1C"/>
<circle cx="112.347" cy="538.215" r="2.6127" fill="#1C1C1C"/>
<circle cx="148.925" cy="538.215" r="2.6127" fill="#1C1C1C"/>
<circle cx="185.503" cy="538.215" r="2.6127" fill="#1C1C1C"/>
<circle cx="112.347" cy="573.487" r="2.6127" fill="#1C1C1C"/>
<circle cx="148.925" cy="573.487" r="2.6127" fill="#1C1C1C"/>
<circle cx="185.503" cy="573.487" r="2.6127" fill="#1C1C1C"/>
<circle cx="112.347" cy="608.758" r="2.6127" fill="#1C1C1C"/>
<circle cx="148.925" cy="608.758" r="2.6127" fill="#1C1C1C"/>
<circle cx="185.503" cy="608.757" r="2.6127" fill="#1C1C1C"/>
<circle cx="112.347" cy="431.094" r="2.6127" fill="#1C1C1C"/>
<circle cx="148.925" cy="431.094" r="2.6127" fill="#1C1C1C"/>
<circle cx="185.503" cy="431.094" r="2.6127" fill="#1C1C1C"/>
<circle cx="112.347" cy="466.366" r="2.6127" fill="#1C1C1C"/>
<circle cx="148.925" cy="466.366" r="2.6127" fill="#1C1C1C"/>
<circle cx="185.503" cy="466.366" r="2.6127" fill="#1C1C1C"/>
<circle cx="112.347" cy="501.637" r="2.6127" fill="#1C1C1C"/>
<circle cx="148.925" cy="501.637" r="2.6127" fill="#1C1C1C"/>
<circle cx="185.503" cy="501.637" r="2.6127" fill="#1C1C1C"/>
<circle cx="112.347" cy="323.974" r="2.6127" fill="#1C1C1C"/>
<circle cx="148.925" cy="323.974" r="2.6127" fill="#1C1C1C"/>
<circle cx="185.503" cy="323.974" r="2.6127" fill="#1C1C1C"/>
<circle cx="112.347" cy="359.246" r="2.6127" fill="#1C1C1C"/>
<circle cx="148.925" cy="359.246" r="2.6127" fill="#1C1C1C"/>
<circle cx="185.503" cy="359.246" r="2.6127" fill="#1C1C1C"/>
<circle cx="112.347" cy="394.517" r="2.6127" fill="#1C1C1C"/>
<circle cx="148.925" cy="394.517" r="2.6127" fill="#1C1C1C"/>
<circle cx="185.503" cy="394.517" r="2.6127" fill="#1C1C1C"/>
<circle cx="2.6127" cy="538.215" r="2.6127" fill="#1C1C1C"/>
<circle cx="39.1908" cy="538.215" r="2.6127" fill="#1C1C1C"/>
<circle cx="75.7689" cy="538.215" r="2.6127" fill="#1C1C1C"/>
<circle cx="2.6127" cy="573.487" r="2.6127" fill="#1C1C1C"/>
<circle cx="39.1908" cy="573.487" r="2.6127" fill="#1C1C1C"/>
<circle cx="75.7689" cy="573.487" r="2.6127" fill="#1C1C1C"/>
<circle cx="2.6127" cy="608.758" r="2.6127" fill="#1C1C1C"/>
<circle cx="39.1908" cy="608.758" r="2.6127" fill="#1C1C1C"/>
<circle cx="75.7689" cy="608.757" r="2.6127" fill="#1C1C1C"/>
<circle cx="2.6127" cy="431.094" r="2.6127" fill="#1C1C1C"/>
<circle cx="39.1908" cy="431.094" r="2.6127" fill="#1C1C1C"/>
<circle cx="75.7689" cy="431.094" r="2.6127" fill="#1C1C1C"/>
<circle cx="2.6127" cy="466.366" r="2.6127" fill="#1C1C1C"/>
<circle cx="39.1908" cy="466.366" r="2.6127" fill="#1C1C1C"/>
<circle cx="75.7689" cy="466.366" r="2.6127" fill="#1C1C1C"/>
<circle cx="2.6127" cy="501.637" r="2.6127" fill="#1C1C1C"/>
<circle cx="39.1908" cy="501.637" r="2.6127" fill="#1C1C1C"/>
<circle cx="75.7689" cy="501.637" r="2.6127" fill="#1C1C1C"/>
<circle cx="2.6127" cy="323.974" r="2.6127" fill="#1C1C1C"/>
<circle cx="39.1908" cy="323.974" r="2.6127" fill="#1C1C1C"/>
<circle cx="75.7689" cy="323.974" r="2.6127" fill="#1C1C1C"/>
<circle cx="2.6127" cy="359.246" r="2.6127" fill="#1C1C1C"/>
<circle cx="39.1908" cy="359.246" r="2.6127" fill="#1C1C1C"/>
<circle cx="75.7689" cy="359.246" r="2.6127" fill="#1C1C1C"/>
<circle cx="2.6127" cy="394.517" r="2.6127" fill="#1C1C1C"/>
<circle cx="39.1908" cy="394.517" r="2.6127" fill="#1C1C1C"/>
<circle cx="75.7689" cy="394.517" r="2.6127" fill="#1C1C1C"/>
<circle cx="441.546" cy="216.854" r="2.6127" fill="#1C1C1C"/>
<circle cx="478.124" cy="216.854" r="2.6127" fill="#1C1C1C"/>
<circle cx="514.703" cy="216.854" r="2.6127" fill="#1C1C1C"/>
<circle cx="441.546" cy="252.125" r="2.6127" fill="#1C1C1C"/>
<circle cx="478.124" cy="252.125" r="2.6127" fill="#1C1C1C"/>
<circle cx="514.703" cy="252.125" r="2.6127" fill="#1C1C1C"/>
<circle cx="441.546" cy="287.397" r="2.6127" fill="#1C1C1C"/>
<circle cx="478.124" cy="287.397" r="2.6127" fill="#1C1C1C"/>
<circle cx="514.703" cy="287.396" r="2.6127" fill="#1C1C1C"/>
<circle cx="441.546" cy="109.734" r="2.6127" fill="#1C1C1C"/>
<circle cx="478.124" cy="109.734" r="2.6127" fill="#1C1C1C"/>
<circle cx="514.703" cy="109.734" r="2.6127" fill="#1C1C1C"/>
<circle cx="441.546" cy="145.005" r="2.6127" fill="#1C1C1C"/>
<circle cx="478.124" cy="145.005" r="2.6127" fill="#1C1C1C"/>
<circle cx="514.703" cy="145.005" r="2.6127" fill="#1C1C1C"/>
<circle cx="441.546" cy="180.277" r="2.6127" fill="#1C1C1C"/>
<circle cx="478.124" cy="180.277" r="2.6127" fill="#1C1C1C"/>
<circle cx="514.703" cy="180.277" r="2.6127" fill="#1C1C1C"/>
<circle cx="441.546" cy="2.6127" r="2.6127" fill="#1C1C1C"/>
<circle cx="478.124" cy="2.6127" r="2.6127" fill="#1C1C1C"/>
<circle cx="514.703" cy="2.6127" r="2.6127" fill="#1C1C1C"/>
<circle cx="441.546" cy="37.8842" r="2.6127" fill="#1C1C1C"/>
<circle cx="478.124" cy="37.8842" r="2.6127" fill="#1C1C1C"/>
<circle cx="514.703" cy="37.8842" r="2.6127" fill="#1C1C1C"/>
<circle cx="441.546" cy="73.1557" r="2.6127" fill="#1C1C1C"/>
<circle cx="478.124" cy="73.1557" r="2.6127" fill="#1C1C1C"/>
<circle cx="514.703" cy="73.1557" r="2.6127" fill="#1C1C1C"/>
<circle cx="331.816" cy="216.854" r="2.6127" fill="#1C1C1C"/>
<circle cx="368.394" cy="216.854" r="2.6127" fill="#1C1C1C"/>
<circle cx="404.972" cy="216.854" r="2.6127" fill="#1C1C1C"/>
<circle cx="331.816" cy="252.125" r="2.6127" fill="#1C1C1C"/>
<circle cx="368.394" cy="252.125" r="2.6127" fill="#1C1C1C"/>
<circle cx="404.972" cy="252.125" r="2.6127" fill="#1C1C1C"/>
<circle cx="331.816" cy="287.397" r="2.6127" fill="#1C1C1C"/>
<circle cx="368.394" cy="287.397" r="2.6127" fill="#1C1C1C"/>
<circle cx="404.972" cy="287.397" r="2.6127" fill="#1C1C1C"/>
<circle cx="331.816" cy="109.734" r="2.6127" fill="#1C1C1C"/>
<circle cx="368.394" cy="109.734" r="2.6127" fill="#1C1C1C"/>
<circle cx="404.972" cy="109.734" r="2.6127" fill="#1C1C1C"/>
<circle cx="331.816" cy="145.005" r="2.6127" fill="#1C1C1C"/>
<circle cx="368.394" cy="145.005" r="2.6127" fill="#1C1C1C"/>
<circle cx="404.972" cy="145.005" r="2.6127" fill="#1C1C1C"/>
<circle cx="331.816" cy="180.277" r="2.6127" fill="#1C1C1C"/>
<circle cx="368.394" cy="180.277" r="2.6127" fill="#1C1C1C"/>
<circle cx="404.972" cy="180.277" r="2.6127" fill="#1C1C1C"/>
<circle cx="331.816" cy="2.6127" r="2.6127" fill="#1C1C1C"/>
<circle cx="368.394" cy="2.6127" r="2.6127" fill="#1C1C1C"/>
<circle cx="404.972" cy="2.6127" r="2.6127" fill="#1C1C1C"/>
<circle cx="331.816" cy="37.8842" r="2.6127" fill="#1C1C1C"/>
<circle cx="368.394" cy="37.8842" r="2.6127" fill="#1C1C1C"/>
<circle cx="404.972" cy="37.8842" r="2.6127" fill="#1C1C1C"/>
<circle cx="331.816" cy="73.1557" r="2.6127" fill="#1C1C1C"/>
<circle cx="368.394" cy="73.1557" r="2.6127" fill="#1C1C1C"/>
<circle cx="404.972" cy="73.1557" r="2.6127" fill="#1C1C1C"/>
<circle cx="222.078" cy="216.854" r="2.6127" fill="#1C1C1C"/>
<circle cx="258.656" cy="216.854" r="2.6127" fill="#1C1C1C"/>
<circle cx="295.234" cy="216.854" r="2.6127" fill="#1C1C1C"/>
<circle cx="222.078" cy="252.125" r="2.6127" fill="#1C1C1C"/>
<circle cx="258.656" cy="252.125" r="2.6127" fill="#1C1C1C"/>
<circle cx="295.234" cy="252.125" r="2.6127" fill="#1C1C1C"/>
<circle cx="222.078" cy="287.397" r="2.6127" fill="#1C1C1C"/>
<circle cx="258.656" cy="287.397" r="2.6127" fill="#1C1C1C"/>
<circle cx="295.234" cy="287.397" r="2.6127" fill="#1C1C1C"/>
<circle cx="222.078" cy="109.734" r="2.6127" fill="#1C1C1C"/>
<circle cx="258.656" cy="109.734" r="2.6127" fill="#1C1C1C"/>
<circle cx="295.234" cy="109.734" r="2.6127" fill="#1C1C1C"/>
<circle cx="222.078" cy="145.005" r="2.6127" fill="#1C1C1C"/>
<circle cx="258.656" cy="145.005" r="2.6127" fill="#1C1C1C"/>
<circle cx="295.234" cy="145.005" r="2.6127" fill="#1C1C1C"/>
<circle cx="222.078" cy="180.277" r="2.6127" fill="#1C1C1C"/>
<circle cx="258.656" cy="180.277" r="2.6127" fill="#1C1C1C"/>
<circle cx="295.234" cy="180.277" r="2.6127" fill="#1C1C1C"/>
<circle cx="222.078" cy="2.6127" r="2.6127" fill="#1C1C1C"/>
<circle cx="258.656" cy="2.6127" r="2.6127" fill="#1C1C1C"/>
<circle cx="295.234" cy="2.6127" r="2.6127" fill="#1C1C1C"/>
<circle cx="222.078" cy="37.8842" r="2.6127" fill="#1C1C1C"/>
<circle cx="258.656" cy="37.8842" r="2.6127" fill="#1C1C1C"/>
<circle cx="295.234" cy="37.8842" r="2.6127" fill="#1C1C1C"/>
<circle cx="222.078" cy="73.1557" r="2.6127" fill="#1C1C1C"/>
<circle cx="258.656" cy="73.1557" r="2.6127" fill="#1C1C1C"/>
<circle cx="295.234" cy="73.1557" r="2.6127" fill="#1C1C1C"/>
<circle cx="112.347" cy="216.854" r="2.6127" fill="#1C1C1C"/>
<circle cx="148.925" cy="216.854" r="2.6127" fill="#1C1C1C"/>
<circle cx="185.503" cy="216.854" r="2.6127" fill="#1C1C1C"/>
<circle cx="112.347" cy="252.125" r="2.6127" fill="#1C1C1C"/>
<circle cx="148.925" cy="252.125" r="2.6127" fill="#1C1C1C"/>
<circle cx="185.503" cy="252.125" r="2.6127" fill="#1C1C1C"/>
<circle cx="112.347" cy="287.397" r="2.6127" fill="#1C1C1C"/>
<circle cx="148.925" cy="287.397" r="2.6127" fill="#1C1C1C"/>
<circle cx="185.503" cy="287.397" r="2.6127" fill="#1C1C1C"/>
<circle cx="112.347" cy="109.734" r="2.6127" fill="#1C1C1C"/>
<circle cx="148.925" cy="109.734" r="2.6127" fill="#1C1C1C"/>
<circle cx="185.503" cy="109.734" r="2.6127" fill="#1C1C1C"/>
<circle cx="112.347" cy="145.005" r="2.6127" fill="#1C1C1C"/>
<circle cx="148.925" cy="145.005" r="2.6127" fill="#1C1C1C"/>
<circle cx="185.503" cy="145.005" r="2.6127" fill="#1C1C1C"/>
<circle cx="112.347" cy="180.277" r="2.6127" fill="#1C1C1C"/>
<circle cx="148.925" cy="180.277" r="2.6127" fill="#1C1C1C"/>
<circle cx="185.503" cy="180.277" r="2.6127" fill="#1C1C1C"/>
<circle cx="112.347" cy="2.6127" r="2.6127" fill="#1C1C1C"/>
<circle cx="148.925" cy="2.6127" r="2.6127" fill="#1C1C1C"/>
<circle cx="185.503" cy="2.6127" r="2.6127" fill="#1C1C1C"/>
<circle cx="112.347" cy="37.8842" r="2.6127" fill="#1C1C1C"/>
<circle cx="148.925" cy="37.8842" r="2.6127" fill="#1C1C1C"/>
<circle cx="185.503" cy="37.8842" r="2.6127" fill="#1C1C1C"/>
<circle cx="112.347" cy="73.1557" r="2.6127" fill="#1C1C1C"/>
<circle cx="148.925" cy="73.1557" r="2.6127" fill="#1C1C1C"/>
<circle cx="185.503" cy="73.1557" r="2.6127" fill="#1C1C1C"/>
<circle cx="2.6127" cy="216.854" r="2.6127" fill="#1C1C1C"/>
<circle cx="39.1908" cy="216.854" r="2.6127" fill="#1C1C1C"/>
<circle cx="75.7689" cy="216.854" r="2.6127" fill="#1C1C1C"/>
<circle cx="2.6127" cy="252.125" r="2.6127" fill="#1C1C1C"/>
<circle cx="39.1908" cy="252.125" r="2.6127" fill="#1C1C1C"/>
<circle cx="75.7689" cy="252.125" r="2.6127" fill="#1C1C1C"/>
<circle cx="2.6127" cy="287.397" r="2.6127" fill="#1C1C1C"/>
<circle cx="39.1908" cy="287.397" r="2.6127" fill="#1C1C1C"/>
<circle cx="75.7689" cy="287.397" r="2.6127" fill="#1C1C1C"/>
<circle cx="2.6127" cy="109.734" r="2.6127" fill="#1C1C1C"/>
<circle cx="39.1908" cy="109.734" r="2.6127" fill="#1C1C1C"/>
<circle cx="75.7689" cy="109.734" r="2.6127" fill="#1C1C1C"/>
<circle cx="2.6127" cy="145.005" r="2.6127" fill="#1C1C1C"/>
<circle cx="39.1908" cy="145.005" r="2.6127" fill="#1C1C1C"/>
<circle cx="75.7689" cy="145.005" r="2.6127" fill="#1C1C1C"/>
<circle cx="2.6127" cy="180.277" r="2.6127" fill="#1C1C1C"/>
<circle cx="39.1908" cy="180.277" r="2.6127" fill="#1C1C1C"/>
<circle cx="75.7689" cy="180.277" r="2.6127" fill="#1C1C1C"/>
<circle cx="2.6127" cy="2.6127" r="2.6127" fill="#1C1C1C"/>
<circle cx="39.1908" cy="2.6127" r="2.6127" fill="#1C1C1C"/>
<circle cx="75.7689" cy="2.6127" r="2.6127" fill="#1C1C1C"/>
<circle cx="2.6127" cy="37.8842" r="2.6127" fill="#1C1C1C"/>
<circle cx="39.1908" cy="37.8842" r="2.6127" fill="#1C1C1C"/>
<circle cx="75.7689" cy="37.8842" r="2.6127" fill="#1C1C1C"/>
<circle cx="2.6127" cy="73.1557" r="2.6127" fill="#1C1C1C"/>
<circle cx="39.1908" cy="73.1557" r="2.6127" fill="#1C1C1C"/>
<circle cx="75.7689" cy="73.1557" r="2.6127" fill="#1C1C1C"/>
</svg>
