<svg width="1370" height="594" viewBox="0 0 1370 594" fill="none" xmlns="http://www.w3.org/2000/svg">
<g opacity="0.8">
<circle cx="429.003" cy="522.921" r="2.53846" fill="#292929"/>
<circle cx="464.542" cy="522.921" r="2.53846" fill="#292929"/>
<circle cx="500.081" cy="522.921" r="2.53846" fill="#292929"/>
<circle cx="429.003" cy="557.191" r="2.53846" fill="#292929"/>
<circle cx="464.542" cy="557.191" r="2.53846" fill="#292929"/>
<circle cx="500.081" cy="557.191" r="2.53846" fill="#292929"/>
<circle cx="429.003" cy="591.46" r="2.53846" fill="#292929"/>
<circle cx="464.542" cy="591.46" r="2.53846" fill="#292929"/>
<circle cx="500.081" cy="591.46" r="2.53846" fill="#292929"/>
<circle cx="429.003" cy="418.847" r="2.53846" fill="#292929"/>
<circle cx="464.542" cy="418.847" r="2.53846" fill="#292929"/>
<circle cx="500.081" cy="418.847" r="2.53846" fill="#292929"/>
<circle cx="429.003" cy="453.117" r="2.53846" fill="#292929"/>
<circle cx="464.542" cy="453.117" r="2.53846" fill="#292929"/>
<circle cx="500.081" cy="453.117" r="2.53846" fill="#292929"/>
<circle cx="429.003" cy="487.386" r="2.53846" fill="#292929"/>
<circle cx="464.542" cy="487.386" r="2.53846" fill="#292929"/>
<circle cx="500.081" cy="487.386" r="2.53846" fill="#292929"/>
<circle cx="429.003" cy="314.769" r="2.53846" fill="#292929"/>
<circle cx="464.542" cy="314.769" r="2.53846" fill="#292929"/>
<circle cx="500.081" cy="314.769" r="2.53846" fill="#292929"/>
<circle cx="429.003" cy="349.038" r="2.53846" fill="#292929"/>
<circle cx="464.542" cy="349.038" r="2.53846" fill="#292929"/>
<circle cx="500.081" cy="349.038" r="2.53846" fill="#292929"/>
<circle cx="429.003" cy="383.308" r="2.53846" fill="#292929"/>
<circle cx="464.542" cy="383.308" r="2.53846" fill="#292929"/>
<circle cx="500.081" cy="383.308" r="2.53846" fill="#292929"/>
<circle cx="322.386" cy="522.921" r="2.53846" fill="#292929"/>
<circle cx="357.925" cy="522.921" r="2.53846" fill="#292929"/>
<circle cx="393.464" cy="522.921" r="2.53846" fill="#292929"/>
<circle cx="322.386" cy="557.191" r="2.53846" fill="#292929"/>
<circle cx="357.925" cy="557.191" r="2.53846" fill="#292929"/>
<circle cx="393.464" cy="557.191" r="2.53846" fill="#292929"/>
<circle cx="322.386" cy="591.46" r="2.53846" fill="#292929"/>
<circle cx="357.925" cy="591.46" r="2.53846" fill="#292929"/>
<circle cx="393.464" cy="591.46" r="2.53846" fill="#292929"/>
<circle cx="322.386" cy="418.847" r="2.53846" fill="#292929"/>
<circle cx="357.925" cy="418.847" r="2.53846" fill="#292929"/>
<circle cx="393.464" cy="418.847" r="2.53846" fill="#292929"/>
<circle cx="322.386" cy="453.117" r="2.53846" fill="#292929"/>
<circle cx="357.925" cy="453.117" r="2.53846" fill="#292929"/>
<circle cx="393.464" cy="453.117" r="2.53846" fill="#292929"/>
<circle cx="322.386" cy="487.386" r="2.53846" fill="#292929"/>
<circle cx="357.925" cy="487.386" r="2.53846" fill="#292929"/>
<circle cx="393.464" cy="487.386" r="2.53846" fill="#292929"/>
<circle cx="322.386" cy="314.769" r="2.53846" fill="#292929"/>
<circle cx="357.925" cy="314.769" r="2.53846" fill="#292929"/>
<circle cx="393.464" cy="314.769" r="2.53846" fill="#292929"/>
<circle cx="322.386" cy="349.038" r="2.53846" fill="#292929"/>
<circle cx="357.925" cy="349.038" r="2.53846" fill="#292929"/>
<circle cx="393.464" cy="349.038" r="2.53846" fill="#292929"/>
<circle cx="322.386" cy="383.308" r="2.53846" fill="#292929"/>
<circle cx="357.925" cy="383.308" r="2.53846" fill="#292929"/>
<circle cx="393.464" cy="383.308" r="2.53846" fill="#292929"/>
<circle cx="215.769" cy="522.921" r="2.53846" fill="#292929"/>
<circle cx="251.308" cy="522.921" r="2.53846" fill="#292929"/>
<circle cx="286.847" cy="522.921" r="2.53846" fill="#292929"/>
<circle cx="215.769" cy="557.191" r="2.53846" fill="#292929"/>
<circle cx="251.308" cy="557.191" r="2.53846" fill="#292929"/>
<circle cx="286.847" cy="557.191" r="2.53846" fill="#292929"/>
<circle cx="215.769" cy="591.46" r="2.53846" fill="#292929"/>
<circle cx="251.308" cy="591.46" r="2.53846" fill="#292929"/>
<circle cx="286.847" cy="591.46" r="2.53846" fill="#292929"/>
<circle cx="215.769" cy="418.847" r="2.53846" fill="#292929"/>
<circle cx="251.308" cy="418.847" r="2.53846" fill="#292929"/>
<circle cx="286.847" cy="418.847" r="2.53846" fill="#292929"/>
<circle cx="215.769" cy="453.117" r="2.53846" fill="#292929"/>
<circle cx="251.308" cy="453.117" r="2.53846" fill="#292929"/>
<circle cx="286.847" cy="453.117" r="2.53846" fill="#292929"/>
<circle cx="215.769" cy="487.386" r="2.53846" fill="#292929"/>
<circle cx="251.308" cy="487.386" r="2.53846" fill="#292929"/>
<circle cx="286.847" cy="487.386" r="2.53846" fill="#292929"/>
<circle cx="215.769" cy="314.769" r="2.53846" fill="#292929"/>
<circle cx="251.308" cy="314.769" r="2.53846" fill="#292929"/>
<circle cx="286.847" cy="314.769" r="2.53846" fill="#292929"/>
<circle cx="215.769" cy="349.038" r="2.53846" fill="#292929"/>
<circle cx="251.308" cy="349.038" r="2.53846" fill="#292929"/>
<circle cx="286.847" cy="349.038" r="2.53846" fill="#292929"/>
<circle cx="215.769" cy="383.308" r="2.53846" fill="#292929"/>
<circle cx="251.308" cy="383.308" r="2.53846" fill="#292929"/>
<circle cx="286.847" cy="383.308" r="2.53846" fill="#292929"/>
<circle cx="109.152" cy="522.921" r="2.53846" fill="#292929"/>
<circle cx="144.691" cy="522.921" r="2.53846" fill="#292929"/>
<circle cx="180.23" cy="522.921" r="2.53846" fill="#292929"/>
<circle cx="109.152" cy="557.191" r="2.53846" fill="#292929"/>
<circle cx="144.691" cy="557.191" r="2.53846" fill="#292929"/>
<circle cx="180.23" cy="557.191" r="2.53846" fill="#292929"/>
<circle cx="109.152" cy="591.46" r="2.53846" fill="#292929"/>
<circle cx="144.691" cy="591.46" r="2.53846" fill="#292929"/>
<circle cx="180.23" cy="591.46" r="2.53846" fill="#292929"/>
<circle cx="109.152" cy="418.847" r="2.53846" fill="#292929"/>
<circle cx="144.691" cy="418.847" r="2.53846" fill="#292929"/>
<circle cx="180.23" cy="418.847" r="2.53846" fill="#292929"/>
<circle cx="109.152" cy="453.117" r="2.53846" fill="#292929"/>
<circle cx="144.691" cy="453.117" r="2.53846" fill="#292929"/>
<circle cx="180.23" cy="453.117" r="2.53846" fill="#292929"/>
<circle cx="109.152" cy="487.386" r="2.53846" fill="#292929"/>
<circle cx="144.691" cy="487.386" r="2.53846" fill="#292929"/>
<circle cx="180.23" cy="487.386" r="2.53846" fill="#292929"/>
<circle cx="109.152" cy="314.769" r="2.53846" fill="#292929"/>
<circle cx="144.691" cy="314.769" r="2.53846" fill="#292929"/>
<circle cx="180.23" cy="314.769" r="2.53846" fill="#292929"/>
<circle cx="109.152" cy="349.038" r="2.53846" fill="#292929"/>
<circle cx="144.691" cy="349.038" r="2.53846" fill="#292929"/>
<circle cx="180.23" cy="349.038" r="2.53846" fill="#292929"/>
<circle cx="109.152" cy="383.308" r="2.53846" fill="#292929"/>
<circle cx="144.691" cy="383.308" r="2.53846" fill="#292929"/>
<circle cx="180.23" cy="383.308" r="2.53846" fill="#292929"/>
<circle cx="2.53846" cy="522.921" r="2.53846" fill="#292929"/>
<circle cx="38.0775" cy="522.921" r="2.53846" fill="#292929"/>
<circle cx="73.6166" cy="522.921" r="2.53846" fill="#292929"/>
<circle cx="2.53846" cy="557.191" r="2.53846" fill="#292929"/>
<circle cx="38.0775" cy="557.191" r="2.53846" fill="#292929"/>
<circle cx="73.6166" cy="557.191" r="2.53846" fill="#292929"/>
<circle cx="2.53846" cy="591.46" r="2.53846" fill="#292929"/>
<circle cx="38.0775" cy="591.46" r="2.53846" fill="#292929"/>
<circle cx="73.6166" cy="591.46" r="2.53846" fill="#292929"/>
<circle cx="2.53846" cy="418.847" r="2.53846" fill="#292929"/>
<circle cx="38.0775" cy="418.847" r="2.53846" fill="#292929"/>
<circle cx="73.6166" cy="418.847" r="2.53846" fill="#292929"/>
<circle cx="2.53846" cy="453.117" r="2.53846" fill="#292929"/>
<circle cx="38.0775" cy="453.117" r="2.53846" fill="#292929"/>
<circle cx="73.6166" cy="453.117" r="2.53846" fill="#292929"/>
<circle cx="2.53846" cy="487.386" r="2.53846" fill="#292929"/>
<circle cx="38.0775" cy="487.386" r="2.53846" fill="#292929"/>
<circle cx="73.6166" cy="487.386" r="2.53846" fill="#292929"/>
<circle cx="2.53846" cy="314.769" r="2.53846" fill="#292929"/>
<circle cx="38.0775" cy="314.769" r="2.53846" fill="#292929"/>
<circle cx="73.6166" cy="314.769" r="2.53846" fill="#292929"/>
<circle cx="2.53846" cy="349.038" r="2.53846" fill="#292929"/>
<circle cx="38.0775" cy="349.038" r="2.53846" fill="#292929"/>
<circle cx="73.6166" cy="349.038" r="2.53846" fill="#292929"/>
<circle cx="2.53846" cy="383.308" r="2.53846" fill="#292929"/>
<circle cx="38.0775" cy="383.308" r="2.53846" fill="#292929"/>
<circle cx="73.6166" cy="383.308" r="2.53846" fill="#292929"/>
<circle cx="429.003" cy="210.691" r="2.53846" fill="#292929"/>
<circle cx="464.542" cy="210.691" r="2.53846" fill="#292929"/>
<circle cx="500.081" cy="210.691" r="2.53846" fill="#292929"/>
<circle cx="429.003" cy="244.96" r="2.53846" fill="#292929"/>
<circle cx="464.542" cy="244.96" r="2.53846" fill="#292929"/>
<circle cx="500.081" cy="244.96" r="2.53846" fill="#292929"/>
<circle cx="429.003" cy="279.23" r="2.53846" fill="#292929"/>
<circle cx="464.542" cy="279.23" r="2.53846" fill="#292929"/>
<circle cx="500.081" cy="279.23" r="2.53846" fill="#292929"/>
<circle cx="429.003" cy="106.616" r="2.53846" fill="#292929"/>
<circle cx="464.542" cy="106.616" r="2.53846" fill="#292929"/>
<circle cx="500.081" cy="106.616" r="2.53846" fill="#292929"/>
<circle cx="429.003" cy="140.885" r="2.53846" fill="#292929"/>
<circle cx="464.542" cy="140.885" r="2.53846" fill="#292929"/>
<circle cx="500.081" cy="140.885" r="2.53846" fill="#292929"/>
<circle cx="429.003" cy="175.154" r="2.53846" fill="#292929"/>
<circle cx="464.542" cy="175.154" r="2.53846" fill="#292929"/>
<circle cx="500.081" cy="175.154" r="2.53846" fill="#292929"/>
<circle cx="429.003" cy="2.53846" r="2.53846" fill="#292929"/>
<circle cx="464.542" cy="2.53846" r="2.53846" fill="#292929"/>
<circle cx="500.081" cy="2.53846" r="2.53846" fill="#292929"/>
<circle cx="429.003" cy="36.808" r="2.53846" fill="#292929"/>
<circle cx="464.542" cy="36.808" r="2.53846" fill="#292929"/>
<circle cx="500.081" cy="36.808" r="2.53846" fill="#292929"/>
<circle cx="429.003" cy="71.0765" r="2.53846" fill="#292929"/>
<circle cx="464.542" cy="71.0765" r="2.53846" fill="#292929"/>
<circle cx="500.081" cy="71.0765" r="2.53846" fill="#292929"/>
<circle cx="322.386" cy="210.691" r="2.53846" fill="#292929"/>
<circle cx="357.925" cy="210.691" r="2.53846" fill="#292929"/>
<circle cx="393.464" cy="210.691" r="2.53846" fill="#292929"/>
<circle cx="322.386" cy="244.96" r="2.53846" fill="#292929"/>
<circle cx="357.925" cy="244.96" r="2.53846" fill="#292929"/>
<circle cx="393.464" cy="244.96" r="2.53846" fill="#292929"/>
<circle cx="322.386" cy="279.23" r="2.53846" fill="#292929"/>
<circle cx="357.925" cy="279.23" r="2.53846" fill="#292929"/>
<circle cx="393.464" cy="279.23" r="2.53846" fill="#292929"/>
<circle cx="322.386" cy="106.616" r="2.53846" fill="#292929"/>
<circle cx="357.925" cy="106.616" r="2.53846" fill="#292929"/>
<circle cx="393.464" cy="106.616" r="2.53846" fill="#292929"/>
<circle cx="322.386" cy="140.885" r="2.53846" fill="#292929"/>
<circle cx="357.925" cy="140.885" r="2.53846" fill="#292929"/>
<circle cx="393.464" cy="140.885" r="2.53846" fill="#292929"/>
<circle cx="322.386" cy="175.154" r="2.53846" fill="#292929"/>
<circle cx="357.925" cy="175.154" r="2.53846" fill="#292929"/>
<circle cx="393.464" cy="175.154" r="2.53846" fill="#292929"/>
<circle cx="322.386" cy="2.53846" r="2.53846" fill="#292929"/>
<circle cx="357.925" cy="2.53846" r="2.53846" fill="#292929"/>
<circle cx="393.464" cy="2.53846" r="2.53846" fill="#292929"/>
<circle cx="322.386" cy="36.808" r="2.53846" fill="#292929"/>
<circle cx="357.925" cy="36.808" r="2.53846" fill="#292929"/>
<circle cx="393.464" cy="36.808" r="2.53846" fill="#292929"/>
<circle cx="322.386" cy="71.0765" r="2.53846" fill="#292929"/>
<circle cx="357.925" cy="71.0765" r="2.53846" fill="#292929"/>
<circle cx="393.464" cy="71.0765" r="2.53846" fill="#292929"/>
<circle cx="215.769" cy="210.691" r="2.53846" fill="#292929"/>
<circle cx="251.308" cy="210.691" r="2.53846" fill="#292929"/>
<circle cx="286.847" cy="210.691" r="2.53846" fill="#292929"/>
<circle cx="215.769" cy="244.96" r="2.53846" fill="#292929"/>
<circle cx="251.308" cy="244.96" r="2.53846" fill="#292929"/>
<circle cx="286.847" cy="244.96" r="2.53846" fill="#292929"/>
<circle cx="215.769" cy="279.23" r="2.53846" fill="#292929"/>
<circle cx="251.308" cy="279.23" r="2.53846" fill="#292929"/>
<circle cx="286.847" cy="279.23" r="2.53846" fill="#292929"/>
<circle cx="215.769" cy="106.616" r="2.53846" fill="#292929"/>
<circle cx="251.308" cy="106.616" r="2.53846" fill="#292929"/>
<circle cx="286.847" cy="106.616" r="2.53846" fill="#292929"/>
<circle cx="215.769" cy="140.885" r="2.53846" fill="#292929"/>
<circle cx="251.308" cy="140.885" r="2.53846" fill="#292929"/>
<circle cx="286.847" cy="140.885" r="2.53846" fill="#292929"/>
<circle cx="215.769" cy="175.154" r="2.53846" fill="#292929"/>
<circle cx="251.308" cy="175.154" r="2.53846" fill="#292929"/>
<circle cx="286.847" cy="175.154" r="2.53846" fill="#292929"/>
<circle cx="215.769" cy="2.53846" r="2.53846" fill="#292929"/>
<circle cx="251.308" cy="2.53846" r="2.53846" fill="#292929"/>
<circle cx="286.847" cy="2.53846" r="2.53846" fill="#292929"/>
<circle cx="215.769" cy="36.808" r="2.53846" fill="#292929"/>
<circle cx="251.308" cy="36.808" r="2.53846" fill="#292929"/>
<circle cx="286.847" cy="36.808" r="2.53846" fill="#292929"/>
<circle cx="215.769" cy="71.0765" r="2.53846" fill="#292929"/>
<circle cx="251.308" cy="71.0765" r="2.53846" fill="#292929"/>
<circle cx="286.847" cy="71.0765" r="2.53846" fill="#292929"/>
<circle cx="109.152" cy="210.691" r="2.53846" fill="#292929"/>
<circle cx="144.691" cy="210.691" r="2.53846" fill="#292929"/>
<circle cx="180.23" cy="210.691" r="2.53846" fill="#292929"/>
<circle cx="109.152" cy="244.96" r="2.53846" fill="#292929"/>
<circle cx="144.691" cy="244.96" r="2.53846" fill="#292929"/>
<circle cx="180.23" cy="244.96" r="2.53846" fill="#292929"/>
<circle cx="109.152" cy="279.23" r="2.53846" fill="#292929"/>
<circle cx="144.691" cy="279.23" r="2.53846" fill="#292929"/>
<circle cx="180.23" cy="279.23" r="2.53846" fill="#292929"/>
<circle cx="109.152" cy="106.616" r="2.53846" fill="#292929"/>
<circle cx="144.691" cy="106.616" r="2.53846" fill="#292929"/>
<circle cx="180.23" cy="106.616" r="2.53846" fill="#292929"/>
<circle cx="109.152" cy="140.885" r="2.53846" fill="#292929"/>
<circle cx="144.691" cy="140.885" r="2.53846" fill="#292929"/>
<circle cx="180.23" cy="140.885" r="2.53846" fill="#292929"/>
<circle cx="109.152" cy="175.154" r="2.53846" fill="#292929"/>
<circle cx="144.691" cy="175.154" r="2.53846" fill="#292929"/>
<circle cx="180.23" cy="175.154" r="2.53846" fill="#292929"/>
<circle cx="109.152" cy="2.53846" r="2.53846" fill="#292929"/>
<circle cx="144.691" cy="2.53846" r="2.53846" fill="#292929"/>
<circle cx="180.23" cy="2.53846" r="2.53846" fill="#292929"/>
<circle cx="109.152" cy="36.808" r="2.53846" fill="#292929"/>
<circle cx="144.691" cy="36.808" r="2.53846" fill="#292929"/>
<circle cx="180.23" cy="36.808" r="2.53846" fill="#292929"/>
<circle cx="109.152" cy="71.0765" r="2.53846" fill="#292929"/>
<circle cx="144.691" cy="71.0765" r="2.53846" fill="#292929"/>
<circle cx="180.23" cy="71.0765" r="2.53846" fill="#292929"/>
<circle cx="2.53846" cy="210.691" r="2.53846" fill="#292929"/>
<circle cx="38.0775" cy="210.691" r="2.53846" fill="#292929"/>
<circle cx="73.6166" cy="210.691" r="2.53846" fill="#292929"/>
<circle cx="2.53846" cy="244.96" r="2.53846" fill="#292929"/>
<circle cx="38.0775" cy="244.96" r="2.53846" fill="#292929"/>
<circle cx="73.6166" cy="244.96" r="2.53846" fill="#292929"/>
<circle cx="2.53846" cy="279.23" r="2.53846" fill="#292929"/>
<circle cx="38.0775" cy="279.23" r="2.53846" fill="#292929"/>
<circle cx="73.6166" cy="279.23" r="2.53846" fill="#292929"/>
<circle cx="2.53846" cy="106.617" r="2.53846" fill="#292929"/>
<circle cx="38.0775" cy="106.617" r="2.53846" fill="#292929"/>
<circle cx="73.6166" cy="106.617" r="2.53846" fill="#292929"/>
<circle cx="2.53846" cy="140.886" r="2.53846" fill="#292929"/>
<circle cx="38.0775" cy="140.886" r="2.53846" fill="#292929"/>
<circle cx="73.6166" cy="140.886" r="2.53846" fill="#292929"/>
<circle cx="2.53846" cy="175.155" r="2.53846" fill="#292929"/>
<circle cx="38.0775" cy="175.155" r="2.53846" fill="#292929"/>
<circle cx="73.6166" cy="175.155" r="2.53846" fill="#292929"/>
<circle cx="2.53846" cy="2.53846" r="2.53846" fill="#292929"/>
<circle cx="38.0775" cy="2.53846" r="2.53846" fill="#292929"/>
<circle cx="73.6166" cy="2.53846" r="2.53846" fill="#292929"/>
<circle cx="2.53846" cy="36.808" r="2.53846" fill="#292929"/>
<circle cx="38.0775" cy="36.808" r="2.53846" fill="#292929"/>
<circle cx="73.6166" cy="36.808" r="2.53846" fill="#292929"/>
<circle cx="2.53846" cy="71.0765" r="2.53846" fill="#292929"/>
<circle cx="38.0775" cy="71.0765" r="2.53846" fill="#292929"/>
<circle cx="73.6166" cy="71.0765" r="2.53846" fill="#292929"/>
<circle cx="1281.98" cy="522.921" r="2.53846" fill="#292929"/>
<circle cx="1317.52" cy="522.921" r="2.53846" fill="#292929"/>
<circle cx="1353.05" cy="522.921" r="2.53846" fill="#292929"/>
<circle cx="1281.98" cy="557.191" r="2.53846" fill="#292929"/>
<circle cx="1317.52" cy="557.191" r="2.53846" fill="#292929"/>
<circle cx="1353.05" cy="557.191" r="2.53846" fill="#292929"/>
<circle cx="1281.98" cy="591.46" r="2.53846" fill="#292929"/>
<circle cx="1317.52" cy="591.46" r="2.53846" fill="#292929"/>
<circle cx="1353.05" cy="591.46" r="2.53846" fill="#292929"/>
<circle cx="1281.98" cy="418.847" r="2.53846" fill="#292929"/>
<circle cx="1317.52" cy="418.847" r="2.53846" fill="#292929"/>
<circle cx="1353.05" cy="418.847" r="2.53846" fill="#292929"/>
<circle cx="1281.98" cy="453.117" r="2.53846" fill="#292929"/>
<circle cx="1317.52" cy="453.117" r="2.53846" fill="#292929"/>
<circle cx="1353.05" cy="453.117" r="2.53846" fill="#292929"/>
<circle cx="1281.98" cy="487.386" r="2.53846" fill="#292929"/>
<circle cx="1317.52" cy="487.386" r="2.53846" fill="#292929"/>
<circle cx="1353.05" cy="487.386" r="2.53846" fill="#292929"/>
<circle cx="1281.98" cy="314.769" r="2.53846" fill="#292929"/>
<circle cx="1317.52" cy="314.769" r="2.53846" fill="#292929"/>
<circle cx="1353.05" cy="314.769" r="2.53846" fill="#292929"/>
<circle cx="1281.98" cy="349.038" r="2.53846" fill="#292929"/>
<circle cx="1317.52" cy="349.038" r="2.53846" fill="#292929"/>
<circle cx="1353.05" cy="349.038" r="2.53846" fill="#292929"/>
<circle cx="1281.98" cy="383.308" r="2.53846" fill="#292929"/>
<circle cx="1317.52" cy="383.308" r="2.53846" fill="#292929"/>
<circle cx="1353.05" cy="383.308" r="2.53846" fill="#292929"/>
<circle cx="1175.36" cy="522.921" r="2.53846" fill="#292929"/>
<circle cx="1210.9" cy="522.921" r="2.53846" fill="#292929"/>
<circle cx="1246.44" cy="522.921" r="2.53846" fill="#292929"/>
<circle cx="1175.36" cy="557.191" r="2.53846" fill="#292929"/>
<circle cx="1210.9" cy="557.191" r="2.53846" fill="#292929"/>
<circle cx="1246.44" cy="557.191" r="2.53846" fill="#292929"/>
<circle cx="1175.36" cy="591.46" r="2.53846" fill="#292929"/>
<circle cx="1210.9" cy="591.46" r="2.53846" fill="#292929"/>
<circle cx="1246.44" cy="591.46" r="2.53846" fill="#292929"/>
<circle cx="1175.36" cy="418.847" r="2.53846" fill="#292929"/>
<circle cx="1210.9" cy="418.847" r="2.53846" fill="#292929"/>
<circle cx="1246.44" cy="418.847" r="2.53846" fill="#292929"/>
<circle cx="1175.36" cy="453.117" r="2.53846" fill="#292929"/>
<circle cx="1210.9" cy="453.117" r="2.53846" fill="#292929"/>
<circle cx="1246.44" cy="453.117" r="2.53846" fill="#292929"/>
<circle cx="1175.36" cy="487.386" r="2.53846" fill="#292929"/>
<circle cx="1210.9" cy="487.386" r="2.53846" fill="#292929"/>
<circle cx="1246.44" cy="487.386" r="2.53846" fill="#292929"/>
<circle cx="1175.36" cy="314.769" r="2.53846" fill="#292929"/>
<circle cx="1210.9" cy="314.769" r="2.53846" fill="#292929"/>
<circle cx="1246.44" cy="314.769" r="2.53846" fill="#292929"/>
<circle cx="1175.36" cy="349.038" r="2.53846" fill="#292929"/>
<circle cx="1210.9" cy="349.038" r="2.53846" fill="#292929"/>
<circle cx="1246.44" cy="349.038" r="2.53846" fill="#292929"/>
<circle cx="1175.36" cy="383.308" r="2.53846" fill="#292929"/>
<circle cx="1210.9" cy="383.308" r="2.53846" fill="#292929"/>
<circle cx="1246.44" cy="383.308" r="2.53846" fill="#292929"/>
<circle cx="1068.75" cy="522.921" r="2.53846" fill="#292929"/>
<circle cx="1104.28" cy="522.921" r="2.53846" fill="#292929"/>
<circle cx="1139.82" cy="522.921" r="2.53846" fill="#292929"/>
<circle cx="1068.75" cy="557.191" r="2.53846" fill="#292929"/>
<circle cx="1104.28" cy="557.191" r="2.53846" fill="#292929"/>
<circle cx="1139.82" cy="557.191" r="2.53846" fill="#292929"/>
<circle cx="1068.75" cy="591.46" r="2.53846" fill="#292929"/>
<circle cx="1104.28" cy="591.46" r="2.53846" fill="#292929"/>
<circle cx="1139.82" cy="591.46" r="2.53846" fill="#292929"/>
<circle cx="1068.75" cy="418.847" r="2.53846" fill="#292929"/>
<circle cx="1104.28" cy="418.847" r="2.53846" fill="#292929"/>
<circle cx="1139.82" cy="418.847" r="2.53846" fill="#292929"/>
<circle cx="1068.75" cy="453.117" r="2.53846" fill="#292929"/>
<circle cx="1104.28" cy="453.117" r="2.53846" fill="#292929"/>
<circle cx="1139.82" cy="453.117" r="2.53846" fill="#292929"/>
<circle cx="1068.75" cy="487.386" r="2.53846" fill="#292929"/>
<circle cx="1104.28" cy="487.386" r="2.53846" fill="#292929"/>
<circle cx="1139.82" cy="487.386" r="2.53846" fill="#292929"/>
<circle cx="1068.75" cy="314.769" r="2.53846" fill="#292929"/>
<circle cx="1104.28" cy="314.769" r="2.53846" fill="#292929"/>
<circle cx="1139.82" cy="314.769" r="2.53846" fill="#292929"/>
<circle cx="1068.75" cy="349.038" r="2.53846" fill="#292929"/>
<circle cx="1104.28" cy="349.038" r="2.53846" fill="#292929"/>
<circle cx="1139.82" cy="349.038" r="2.53846" fill="#292929"/>
<circle cx="1068.75" cy="383.308" r="2.53846" fill="#292929"/>
<circle cx="1104.28" cy="383.308" r="2.53846" fill="#292929"/>
<circle cx="1139.82" cy="383.308" r="2.53846" fill="#292929"/>
<circle cx="1281.98" cy="210.691" r="2.53846" fill="#292929"/>
<circle cx="1317.52" cy="210.691" r="2.53846" fill="#292929"/>
<circle cx="1353.05" cy="210.691" r="2.53846" fill="#292929"/>
<circle cx="1281.98" cy="244.96" r="2.53846" fill="#292929"/>
<circle cx="1317.52" cy="244.96" r="2.53846" fill="#292929"/>
<circle cx="1353.05" cy="244.96" r="2.53846" fill="#292929"/>
<circle cx="1281.98" cy="279.23" r="2.53846" fill="#292929"/>
<circle cx="1317.52" cy="279.23" r="2.53846" fill="#292929"/>
<circle cx="1353.05" cy="279.23" r="2.53846" fill="#292929"/>
<circle cx="1281.98" cy="106.616" r="2.53846" fill="#292929"/>
<circle cx="1317.52" cy="106.616" r="2.53846" fill="#292929"/>
<circle cx="1353.05" cy="106.616" r="2.53846" fill="#292929"/>
<circle cx="1281.98" cy="140.885" r="2.53846" fill="#292929"/>
<circle cx="1317.52" cy="140.885" r="2.53846" fill="#292929"/>
<circle cx="1353.05" cy="140.885" r="2.53846" fill="#292929"/>
<circle cx="1281.98" cy="175.154" r="2.53846" fill="#292929"/>
<circle cx="1317.52" cy="175.154" r="2.53846" fill="#292929"/>
<circle cx="1353.05" cy="175.154" r="2.53846" fill="#292929"/>
<circle cx="1281.98" cy="2.53846" r="2.53846" fill="#292929"/>
<circle cx="1317.52" cy="2.53846" r="2.53846" fill="#292929"/>
<circle cx="1353.05" cy="2.53846" r="2.53846" fill="#292929"/>
<circle cx="1281.98" cy="36.808" r="2.53846" fill="#292929"/>
<circle cx="1317.52" cy="36.808" r="2.53846" fill="#292929"/>
<circle cx="1353.05" cy="36.808" r="2.53846" fill="#292929"/>
<circle cx="1281.98" cy="71.0765" r="2.53846" fill="#292929"/>
<circle cx="1317.52" cy="71.0765" r="2.53846" fill="#292929"/>
<circle cx="1353.05" cy="71.0765" r="2.53846" fill="#292929"/>
<circle cx="1175.36" cy="210.691" r="2.53846" fill="#292929"/>
<circle cx="1210.9" cy="210.691" r="2.53846" fill="#292929"/>
<circle cx="1246.44" cy="210.691" r="2.53846" fill="#292929"/>
<circle cx="1175.36" cy="244.96" r="2.53846" fill="#292929"/>
<circle cx="1210.9" cy="244.96" r="2.53846" fill="#292929"/>
<circle cx="1246.44" cy="244.96" r="2.53846" fill="#292929"/>
<circle cx="1175.36" cy="279.23" r="2.53846" fill="#292929"/>
<circle cx="1210.9" cy="279.23" r="2.53846" fill="#292929"/>
<circle cx="1246.44" cy="279.23" r="2.53846" fill="#292929"/>
<circle cx="1175.36" cy="106.616" r="2.53846" fill="#292929"/>
<circle cx="1210.9" cy="106.616" r="2.53846" fill="#292929"/>
<circle cx="1246.44" cy="106.616" r="2.53846" fill="#292929"/>
<circle cx="1175.36" cy="140.885" r="2.53846" fill="#292929"/>
<circle cx="1210.9" cy="140.885" r="2.53846" fill="#292929"/>
<circle cx="1246.44" cy="140.885" r="2.53846" fill="#292929"/>
<circle cx="1175.36" cy="175.154" r="2.53846" fill="#292929"/>
<circle cx="1210.9" cy="175.154" r="2.53846" fill="#292929"/>
<circle cx="1246.44" cy="175.154" r="2.53846" fill="#292929"/>
<circle cx="1175.36" cy="2.53846" r="2.53846" fill="#292929"/>
<circle cx="1210.9" cy="2.53846" r="2.53846" fill="#292929"/>
<circle cx="1246.44" cy="2.53846" r="2.53846" fill="#292929"/>
<circle cx="1175.36" cy="36.808" r="2.53846" fill="#292929"/>
<circle cx="1210.9" cy="36.808" r="2.53846" fill="#292929"/>
<circle cx="1246.44" cy="36.808" r="2.53846" fill="#292929"/>
<circle cx="1175.36" cy="71.0765" r="2.53846" fill="#292929"/>
<circle cx="1210.9" cy="71.0765" r="2.53846" fill="#292929"/>
<circle cx="1246.44" cy="71.0765" r="2.53846" fill="#292929"/>
<circle cx="1068.75" cy="210.691" r="2.53846" fill="#292929"/>
<circle cx="1104.28" cy="210.691" r="2.53846" fill="#292929"/>
<circle cx="1139.82" cy="210.691" r="2.53846" fill="#292929"/>
<circle cx="1068.75" cy="244.96" r="2.53846" fill="#292929"/>
<circle cx="1104.28" cy="244.96" r="2.53846" fill="#292929"/>
<circle cx="1139.82" cy="244.96" r="2.53846" fill="#292929"/>
<circle cx="1068.75" cy="279.23" r="2.53846" fill="#292929"/>
<circle cx="1104.28" cy="279.23" r="2.53846" fill="#292929"/>
<circle cx="1139.82" cy="279.23" r="2.53846" fill="#292929"/>
<circle cx="1068.75" cy="106.617" r="2.53846" fill="#292929"/>
<circle cx="1104.28" cy="106.617" r="2.53846" fill="#292929"/>
<circle cx="1139.82" cy="106.617" r="2.53846" fill="#292929"/>
<circle cx="1068.75" cy="140.886" r="2.53846" fill="#292929"/>
<circle cx="1104.28" cy="140.886" r="2.53846" fill="#292929"/>
<circle cx="1139.82" cy="140.886" r="2.53846" fill="#292929"/>
<circle cx="1068.75" cy="175.155" r="2.53846" fill="#292929"/>
<circle cx="1104.28" cy="175.155" r="2.53846" fill="#292929"/>
<circle cx="1139.82" cy="175.155" r="2.53846" fill="#292929"/>
<circle cx="1068.75" cy="2.53846" r="2.53846" fill="#292929"/>
<circle cx="1104.28" cy="2.53846" r="2.53846" fill="#292929"/>
<circle cx="1139.82" cy="2.53846" r="2.53846" fill="#292929"/>
<circle cx="1068.75" cy="36.808" r="2.53846" fill="#292929"/>
<circle cx="1104.28" cy="36.808" r="2.53846" fill="#292929"/>
<circle cx="1139.82" cy="36.808" r="2.53846" fill="#292929"/>
<circle cx="1068.75" cy="71.0765" r="2.53846" fill="#292929"/>
<circle cx="1104.28" cy="71.0765" r="2.53846" fill="#292929"/>
<circle cx="1139.82" cy="71.0765" r="2.53846" fill="#292929"/>
<circle cx="962.183" cy="522.921" r="2.53846" fill="#292929"/>
<circle cx="997.722" cy="522.921" r="2.53846" fill="#292929"/>
<circle cx="1033.26" cy="522.921" r="2.53846" fill="#292929"/>
<circle cx="962.183" cy="557.191" r="2.53846" fill="#292929"/>
<circle cx="997.722" cy="557.191" r="2.53846" fill="#292929"/>
<circle cx="1033.26" cy="557.191" r="2.53846" fill="#292929"/>
<circle cx="962.183" cy="591.46" r="2.53846" fill="#292929"/>
<circle cx="997.722" cy="591.46" r="2.53846" fill="#292929"/>
<circle cx="1033.26" cy="591.46" r="2.53846" fill="#292929"/>
<circle cx="962.183" cy="418.847" r="2.53846" fill="#292929"/>
<circle cx="997.722" cy="418.847" r="2.53846" fill="#292929"/>
<circle cx="1033.26" cy="418.847" r="2.53846" fill="#292929"/>
<circle cx="962.183" cy="453.117" r="2.53846" fill="#292929"/>
<circle cx="997.722" cy="453.117" r="2.53846" fill="#292929"/>
<circle cx="1033.26" cy="453.117" r="2.53846" fill="#292929"/>
<circle cx="962.183" cy="487.386" r="2.53846" fill="#292929"/>
<circle cx="997.722" cy="487.386" r="2.53846" fill="#292929"/>
<circle cx="1033.26" cy="487.386" r="2.53846" fill="#292929"/>
<circle cx="962.183" cy="314.769" r="2.53846" fill="#292929"/>
<circle cx="997.722" cy="314.769" r="2.53846" fill="#292929"/>
<circle cx="1033.26" cy="314.769" r="2.53846" fill="#292929"/>
<circle cx="962.183" cy="349.038" r="2.53846" fill="#292929"/>
<circle cx="997.722" cy="349.038" r="2.53846" fill="#292929"/>
<circle cx="1033.26" cy="349.038" r="2.53846" fill="#292929"/>
<circle cx="962.183" cy="383.308" r="2.53846" fill="#292929"/>
<circle cx="997.722" cy="383.308" r="2.53846" fill="#292929"/>
<circle cx="1033.26" cy="383.308" r="2.53846" fill="#292929"/>
<circle cx="855.57" cy="522.921" r="2.53846" fill="#292929"/>
<circle cx="891.109" cy="522.921" r="2.53846" fill="#292929"/>
<circle cx="926.648" cy="522.921" r="2.53846" fill="#292929"/>
<circle cx="855.57" cy="557.191" r="2.53846" fill="#292929"/>
<circle cx="891.109" cy="557.191" r="2.53846" fill="#292929"/>
<circle cx="926.648" cy="557.191" r="2.53846" fill="#292929"/>
<circle cx="855.57" cy="591.46" r="2.53846" fill="#292929"/>
<circle cx="891.109" cy="591.46" r="2.53846" fill="#292929"/>
<circle cx="926.648" cy="591.46" r="2.53846" fill="#292929"/>
<circle cx="855.57" cy="418.847" r="2.53846" fill="#292929"/>
<circle cx="891.109" cy="418.847" r="2.53846" fill="#292929"/>
<circle cx="926.648" cy="418.847" r="2.53846" fill="#292929"/>
<circle cx="855.57" cy="453.117" r="2.53846" fill="#292929"/>
<circle cx="891.109" cy="453.117" r="2.53846" fill="#292929"/>
<circle cx="926.648" cy="453.117" r="2.53846" fill="#292929"/>
<circle cx="855.57" cy="487.386" r="2.53846" fill="#292929"/>
<circle cx="891.109" cy="487.386" r="2.53846" fill="#292929"/>
<circle cx="926.648" cy="487.386" r="2.53846" fill="#292929"/>
<circle cx="855.57" cy="314.769" r="2.53846" fill="#292929"/>
<circle cx="891.109" cy="314.769" r="2.53846" fill="#292929"/>
<circle cx="926.648" cy="314.769" r="2.53846" fill="#292929"/>
<circle cx="855.57" cy="349.038" r="2.53846" fill="#292929"/>
<circle cx="891.109" cy="349.038" r="2.53846" fill="#292929"/>
<circle cx="926.648" cy="349.038" r="2.53846" fill="#292929"/>
<circle cx="855.57" cy="383.308" r="2.53846" fill="#292929"/>
<circle cx="891.109" cy="383.308" r="2.53846" fill="#292929"/>
<circle cx="926.648" cy="383.308" r="2.53846" fill="#292929"/>
<circle cx="748.953" cy="522.921" r="2.53846" fill="#292929"/>
<circle cx="784.492" cy="522.921" r="2.53846" fill="#292929"/>
<circle cx="820.031" cy="522.921" r="2.53846" fill="#292929"/>
<circle cx="748.953" cy="557.191" r="2.53846" fill="#292929"/>
<circle cx="784.492" cy="557.191" r="2.53846" fill="#292929"/>
<circle cx="820.031" cy="557.191" r="2.53846" fill="#292929"/>
<circle cx="748.953" cy="591.46" r="2.53846" fill="#292929"/>
<circle cx="784.492" cy="591.46" r="2.53846" fill="#292929"/>
<circle cx="820.031" cy="591.46" r="2.53846" fill="#292929"/>
<circle cx="748.953" cy="418.847" r="2.53846" fill="#292929"/>
<circle cx="784.492" cy="418.847" r="2.53846" fill="#292929"/>
<circle cx="820.031" cy="418.847" r="2.53846" fill="#292929"/>
<circle cx="748.953" cy="453.117" r="2.53846" fill="#292929"/>
<circle cx="784.492" cy="453.117" r="2.53846" fill="#292929"/>
<circle cx="820.031" cy="453.117" r="2.53846" fill="#292929"/>
<circle cx="748.953" cy="487.386" r="2.53846" fill="#292929"/>
<circle cx="784.492" cy="487.386" r="2.53846" fill="#292929"/>
<circle cx="820.031" cy="487.386" r="2.53846" fill="#292929"/>
<circle cx="748.953" cy="314.769" r="2.53846" fill="#292929"/>
<circle cx="784.492" cy="314.769" r="2.53846" fill="#292929"/>
<circle cx="820.031" cy="314.769" r="2.53846" fill="#292929"/>
<circle cx="748.953" cy="349.038" r="2.53846" fill="#292929"/>
<circle cx="784.492" cy="349.038" r="2.53846" fill="#292929"/>
<circle cx="820.031" cy="349.038" r="2.53846" fill="#292929"/>
<circle cx="748.953" cy="383.308" r="2.53846" fill="#292929"/>
<circle cx="784.492" cy="383.308" r="2.53846" fill="#292929"/>
<circle cx="820.031" cy="383.308" r="2.53846" fill="#292929"/>
<circle cx="642.335" cy="522.921" r="2.53846" fill="#292929"/>
<circle cx="677.874" cy="522.921" r="2.53846" fill="#292929"/>
<circle cx="713.413" cy="522.921" r="2.53846" fill="#292929"/>
<circle cx="642.335" cy="557.191" r="2.53846" fill="#292929"/>
<circle cx="677.874" cy="557.191" r="2.53846" fill="#292929"/>
<circle cx="713.413" cy="557.191" r="2.53846" fill="#292929"/>
<circle cx="642.335" cy="591.46" r="2.53846" fill="#292929"/>
<circle cx="677.874" cy="591.46" r="2.53846" fill="#292929"/>
<circle cx="713.413" cy="591.46" r="2.53846" fill="#292929"/>
<circle cx="642.335" cy="418.847" r="2.53846" fill="#292929"/>
<circle cx="677.874" cy="418.847" r="2.53846" fill="#292929"/>
<circle cx="713.413" cy="418.847" r="2.53846" fill="#292929"/>
<circle cx="642.335" cy="453.117" r="2.53846" fill="#292929"/>
<circle cx="677.874" cy="453.117" r="2.53846" fill="#292929"/>
<circle cx="713.413" cy="453.117" r="2.53846" fill="#292929"/>
<circle cx="642.335" cy="487.386" r="2.53846" fill="#292929"/>
<circle cx="677.874" cy="487.386" r="2.53846" fill="#292929"/>
<circle cx="713.413" cy="487.386" r="2.53846" fill="#292929"/>
<circle cx="642.335" cy="314.769" r="2.53846" fill="#292929"/>
<circle cx="677.874" cy="314.769" r="2.53846" fill="#292929"/>
<circle cx="713.413" cy="314.769" r="2.53846" fill="#292929"/>
<circle cx="642.335" cy="349.038" r="2.53846" fill="#292929"/>
<circle cx="677.874" cy="349.038" r="2.53846" fill="#292929"/>
<circle cx="713.413" cy="349.038" r="2.53846" fill="#292929"/>
<circle cx="642.335" cy="383.308" r="2.53846" fill="#292929"/>
<circle cx="677.874" cy="383.308" r="2.53846" fill="#292929"/>
<circle cx="713.413" cy="383.308" r="2.53846" fill="#292929"/>
<circle cx="535.722" cy="522.921" r="2.53846" fill="#292929"/>
<circle cx="571.261" cy="522.921" r="2.53846" fill="#292929"/>
<circle cx="606.8" cy="522.921" r="2.53846" fill="#292929"/>
<circle cx="535.722" cy="557.191" r="2.53846" fill="#292929"/>
<circle cx="571.261" cy="557.191" r="2.53846" fill="#292929"/>
<circle cx="606.8" cy="557.191" r="2.53846" fill="#292929"/>
<circle cx="535.722" cy="591.46" r="2.53846" fill="#292929"/>
<circle cx="571.261" cy="591.46" r="2.53846" fill="#292929"/>
<circle cx="606.8" cy="591.46" r="2.53846" fill="#292929"/>
<circle cx="535.722" cy="418.847" r="2.53846" fill="#292929"/>
<circle cx="571.261" cy="418.847" r="2.53846" fill="#292929"/>
<circle cx="606.8" cy="418.847" r="2.53846" fill="#292929"/>
<circle cx="535.722" cy="453.117" r="2.53846" fill="#292929"/>
<circle cx="571.261" cy="453.117" r="2.53846" fill="#292929"/>
<circle cx="606.8" cy="453.117" r="2.53846" fill="#292929"/>
<circle cx="535.722" cy="487.386" r="2.53846" fill="#292929"/>
<circle cx="571.261" cy="487.386" r="2.53846" fill="#292929"/>
<circle cx="606.8" cy="487.386" r="2.53846" fill="#292929"/>
<circle cx="535.722" cy="314.769" r="2.53846" fill="#292929"/>
<circle cx="571.261" cy="314.769" r="2.53846" fill="#292929"/>
<circle cx="606.8" cy="314.769" r="2.53846" fill="#292929"/>
<circle cx="535.722" cy="349.038" r="2.53846" fill="#292929"/>
<circle cx="571.261" cy="349.038" r="2.53846" fill="#292929"/>
<circle cx="606.8" cy="349.038" r="2.53846" fill="#292929"/>
<circle cx="535.722" cy="383.308" r="2.53846" fill="#292929"/>
<circle cx="571.261" cy="383.308" r="2.53846" fill="#292929"/>
<circle cx="606.8" cy="383.308" r="2.53846" fill="#292929"/>
<circle cx="962.183" cy="210.691" r="2.53846" fill="#292929"/>
<circle cx="997.722" cy="210.691" r="2.53846" fill="#292929"/>
<circle cx="1033.26" cy="210.691" r="2.53846" fill="#292929"/>
<circle cx="962.183" cy="244.96" r="2.53846" fill="#292929"/>
<circle cx="997.722" cy="244.96" r="2.53846" fill="#292929"/>
<circle cx="1033.26" cy="244.96" r="2.53846" fill="#292929"/>
<circle cx="962.183" cy="279.23" r="2.53846" fill="#292929"/>
<circle cx="997.722" cy="279.23" r="2.53846" fill="#292929"/>
<circle cx="1033.26" cy="279.23" r="2.53846" fill="#292929"/>
<circle cx="962.183" cy="106.616" r="2.53846" fill="#292929"/>
<circle cx="997.722" cy="106.616" r="2.53846" fill="#292929"/>
<circle cx="1033.26" cy="106.616" r="2.53846" fill="#292929"/>
<circle cx="962.183" cy="140.885" r="2.53846" fill="#292929"/>
<circle cx="997.722" cy="140.885" r="2.53846" fill="#292929"/>
<circle cx="1033.26" cy="140.885" r="2.53846" fill="#292929"/>
<circle cx="962.183" cy="175.154" r="2.53846" fill="#292929"/>
<circle cx="997.722" cy="175.154" r="2.53846" fill="#292929"/>
<circle cx="1033.26" cy="175.154" r="2.53846" fill="#292929"/>
<circle cx="962.183" cy="2.53846" r="2.53846" fill="#292929"/>
<circle cx="997.722" cy="2.53846" r="2.53846" fill="#292929"/>
<circle cx="1033.26" cy="2.53846" r="2.53846" fill="#292929"/>
<circle cx="962.183" cy="36.808" r="2.53846" fill="#292929"/>
<circle cx="997.722" cy="36.808" r="2.53846" fill="#292929"/>
<circle cx="1033.26" cy="36.808" r="2.53846" fill="#292929"/>
<circle cx="962.183" cy="71.0765" r="2.53846" fill="#292929"/>
<circle cx="997.722" cy="71.0765" r="2.53846" fill="#292929"/>
<circle cx="1033.26" cy="71.0765" r="2.53846" fill="#292929"/>
<circle cx="855.57" cy="210.691" r="2.53846" fill="#292929"/>
<circle cx="891.109" cy="210.691" r="2.53846" fill="#292929"/>
<circle cx="926.648" cy="210.691" r="2.53846" fill="#292929"/>
<circle cx="855.57" cy="244.96" r="2.53846" fill="#292929"/>
<circle cx="891.109" cy="244.96" r="2.53846" fill="#292929"/>
<circle cx="926.648" cy="244.96" r="2.53846" fill="#292929"/>
<circle cx="855.57" cy="279.23" r="2.53846" fill="#292929"/>
<circle cx="891.109" cy="279.23" r="2.53846" fill="#292929"/>
<circle cx="926.648" cy="279.23" r="2.53846" fill="#292929"/>
<circle cx="855.57" cy="106.616" r="2.53846" fill="#292929"/>
<circle cx="891.109" cy="106.616" r="2.53846" fill="#292929"/>
<circle cx="926.648" cy="106.616" r="2.53846" fill="#292929"/>
<circle cx="855.57" cy="140.885" r="2.53846" fill="#292929"/>
<circle cx="891.109" cy="140.885" r="2.53846" fill="#292929"/>
<circle cx="926.648" cy="140.885" r="2.53846" fill="#292929"/>
<circle cx="855.57" cy="175.154" r="2.53846" fill="#292929"/>
<circle cx="891.109" cy="175.154" r="2.53846" fill="#292929"/>
<circle cx="926.648" cy="175.154" r="2.53846" fill="#292929"/>
<circle cx="855.57" cy="2.53846" r="2.53846" fill="#292929"/>
<circle cx="891.109" cy="2.53846" r="2.53846" fill="#292929"/>
<circle cx="926.648" cy="2.53846" r="2.53846" fill="#292929"/>
<circle cx="855.57" cy="36.808" r="2.53846" fill="#292929"/>
<circle cx="891.109" cy="36.808" r="2.53846" fill="#292929"/>
<circle cx="926.648" cy="36.808" r="2.53846" fill="#292929"/>
<circle cx="855.57" cy="71.0765" r="2.53846" fill="#292929"/>
<circle cx="891.109" cy="71.0765" r="2.53846" fill="#292929"/>
<circle cx="926.648" cy="71.0765" r="2.53846" fill="#292929"/>
<circle cx="748.953" cy="210.691" r="2.53846" fill="#292929"/>
<circle cx="784.492" cy="210.691" r="2.53846" fill="#292929"/>
<circle cx="820.031" cy="210.691" r="2.53846" fill="#292929"/>
<circle cx="748.953" cy="244.96" r="2.53846" fill="#292929"/>
<circle cx="784.492" cy="244.96" r="2.53846" fill="#292929"/>
<circle cx="820.031" cy="244.96" r="2.53846" fill="#292929"/>
<circle cx="748.953" cy="279.23" r="2.53846" fill="#292929"/>
<circle cx="784.492" cy="279.23" r="2.53846" fill="#292929"/>
<circle cx="820.031" cy="279.23" r="2.53846" fill="#292929"/>
<circle cx="748.953" cy="106.616" r="2.53846" fill="#292929"/>
<circle cx="784.492" cy="106.616" r="2.53846" fill="#292929"/>
<circle cx="820.031" cy="106.616" r="2.53846" fill="#292929"/>
<circle cx="748.953" cy="140.885" r="2.53846" fill="#292929"/>
<circle cx="784.492" cy="140.885" r="2.53846" fill="#292929"/>
<circle cx="820.031" cy="140.885" r="2.53846" fill="#292929"/>
<circle cx="748.953" cy="175.154" r="2.53846" fill="#292929"/>
<circle cx="784.492" cy="175.154" r="2.53846" fill="#292929"/>
<circle cx="820.031" cy="175.154" r="2.53846" fill="#292929"/>
<circle cx="748.953" cy="2.53846" r="2.53846" fill="#292929"/>
<circle cx="784.492" cy="2.53846" r="2.53846" fill="#292929"/>
<circle cx="820.031" cy="2.53846" r="2.53846" fill="#292929"/>
<circle cx="748.953" cy="36.808" r="2.53846" fill="#292929"/>
<circle cx="784.492" cy="36.808" r="2.53846" fill="#292929"/>
<circle cx="820.031" cy="36.808" r="2.53846" fill="#292929"/>
<circle cx="748.953" cy="71.0765" r="2.53846" fill="#292929"/>
<circle cx="784.492" cy="71.0765" r="2.53846" fill="#292929"/>
<circle cx="820.031" cy="71.0765" r="2.53846" fill="#292929"/>
<circle cx="642.335" cy="210.691" r="2.53846" fill="#292929"/>
<circle cx="677.874" cy="210.691" r="2.53846" fill="#292929"/>
<circle cx="713.413" cy="210.691" r="2.53846" fill="#292929"/>
<circle cx="642.335" cy="244.96" r="2.53846" fill="#292929"/>
<circle cx="677.874" cy="244.96" r="2.53846" fill="#292929"/>
<circle cx="713.413" cy="244.96" r="2.53846" fill="#292929"/>
<circle cx="642.335" cy="279.23" r="2.53846" fill="#292929"/>
<circle cx="677.874" cy="279.23" r="2.53846" fill="#292929"/>
<circle cx="713.413" cy="279.23" r="2.53846" fill="#292929"/>
<circle cx="642.335" cy="106.616" r="2.53846" fill="#292929"/>
<circle cx="677.874" cy="106.616" r="2.53846" fill="#292929"/>
<circle cx="713.413" cy="106.616" r="2.53846" fill="#292929"/>
<circle cx="642.335" cy="140.885" r="2.53846" fill="#292929"/>
<circle cx="677.874" cy="140.885" r="2.53846" fill="#292929"/>
<circle cx="713.413" cy="140.885" r="2.53846" fill="#292929"/>
<circle cx="642.335" cy="175.154" r="2.53846" fill="#292929"/>
<circle cx="677.874" cy="175.154" r="2.53846" fill="#292929"/>
<circle cx="713.413" cy="175.154" r="2.53846" fill="#292929"/>
<circle cx="642.335" cy="2.53846" r="2.53846" fill="#292929"/>
<circle cx="677.874" cy="2.53846" r="2.53846" fill="#292929"/>
<circle cx="713.413" cy="2.53846" r="2.53846" fill="#292929"/>
<circle cx="642.335" cy="36.808" r="2.53846" fill="#292929"/>
<circle cx="677.874" cy="36.808" r="2.53846" fill="#292929"/>
<circle cx="713.413" cy="36.808" r="2.53846" fill="#292929"/>
<circle cx="642.335" cy="71.0765" r="2.53846" fill="#292929"/>
<circle cx="677.874" cy="71.0765" r="2.53846" fill="#292929"/>
<circle cx="713.413" cy="71.0765" r="2.53846" fill="#292929"/>
<circle cx="535.722" cy="210.691" r="2.53846" fill="#292929"/>
<circle cx="571.261" cy="210.691" r="2.53846" fill="#292929"/>
<circle cx="606.8" cy="210.691" r="2.53846" fill="#292929"/>
<circle cx="535.722" cy="244.96" r="2.53846" fill="#292929"/>
<circle cx="571.261" cy="244.96" r="2.53846" fill="#292929"/>
<circle cx="606.8" cy="244.96" r="2.53846" fill="#292929"/>
<circle cx="535.722" cy="279.23" r="2.53846" fill="#292929"/>
<circle cx="571.261" cy="279.23" r="2.53846" fill="#292929"/>
<circle cx="606.8" cy="279.23" r="2.53846" fill="#292929"/>
<circle cx="535.722" cy="106.617" r="2.53846" fill="#292929"/>
<circle cx="571.261" cy="106.617" r="2.53846" fill="#292929"/>
<circle cx="606.8" cy="106.617" r="2.53846" fill="#292929"/>
<circle cx="535.722" cy="140.886" r="2.53846" fill="#292929"/>
<circle cx="571.261" cy="140.886" r="2.53846" fill="#292929"/>
<circle cx="606.8" cy="140.886" r="2.53846" fill="#292929"/>
<circle cx="535.722" cy="175.155" r="2.53846" fill="#292929"/>
<circle cx="571.261" cy="175.155" r="2.53846" fill="#292929"/>
<circle cx="606.8" cy="175.155" r="2.53846" fill="#292929"/>
<circle cx="535.722" cy="2.53846" r="2.53846" fill="#292929"/>
<circle cx="571.261" cy="2.53846" r="2.53846" fill="#292929"/>
<circle cx="606.8" cy="2.53846" r="2.53846" fill="#292929"/>
<circle cx="535.722" cy="36.808" r="2.53846" fill="#292929"/>
<circle cx="571.261" cy="36.808" r="2.53846" fill="#292929"/>
<circle cx="606.8" cy="36.808" r="2.53846" fill="#292929"/>
<circle cx="535.722" cy="71.0765" r="2.53846" fill="#292929"/>
<circle cx="571.261" cy="71.0765" r="2.53846" fill="#292929"/>
<circle cx="606.8" cy="71.0765" r="2.53846" fill="#292929"/>
</g>
</svg>
