<svg width="306" height="306" viewBox="0 0 306 306" fill="none" xmlns="http://www.w3.org/2000/svg">
<g clip-path="url(#clip0_2485_8386)">
<path d="M88.3868 105.209C93.2194 98.8463 98.9569 93.2252 105.417 88.5239L112.839 98.7134C107.372 102.694 102.517 107.454 98.4295 112.842L88.3868 105.209Z" fill="url(#paint0_linear_2485_8386)"/>
<path d="M87.7132 115.134C89.1466 112.762 90.7066 110.469 92.3867 108.265L94.4257 109.819C92.8066 111.948 91.2997 114.161 89.9112 116.447L87.7132 115.134Z" fill="url(#paint1_linear_2485_8386)"/>
<path d="M80.8002 118.9C81.2812 117.927 81.7808 116.944 82.3019 115.997L92.0409 121.299C91.5992 122.125 91.1683 122.969 90.7374 123.814L80.8002 118.9Z" fill="url(#paint2_linear_2485_8386)"/>
<path d="M76.7542 140.874C77.8694 134.772 79.701 128.822 82.2111 123.149L86.6949 125.154C84.3423 130.463 82.6331 136.034 81.6037 141.749L76.7542 140.874Z" fill="#003252"/>
<path d="M71.9949 154.818C71.9916 151.115 72.2361 147.415 72.7266 143.745L84.5107 145.407C84.0875 148.543 83.8718 151.703 83.8651 154.867L71.9949 154.818Z" fill="url(#paint3_linear_2485_8386)"/>
<path d="M81.6825 183.512C79.2225 177.338 77.5745 170.87 76.78 164.271L80.3756 163.833C81.1389 170.142 82.7147 176.326 85.0636 182.23L81.6825 183.512Z" fill="url(#paint4_linear_2485_8386)"/>
<path d="M84.1956 194.874C83.0023 192.807 81.8089 190.74 80.9057 188.531L89.0599 184.766C90.2843 187.41 91.6737 189.975 93.2199 192.444L85.5874 197.199L84.1956 194.874Z" fill="#E3E9ED"/>
<path d="M89.0048 199.074L93.3996 196.065C97.3014 201.74 101.989 206.833 107.321 211.192L103.929 215.335C98.2131 210.645 93.1886 205.171 89.0048 199.074V199.074Z" fill="url(#paint5_linear_2485_8386)"/>
<path d="M110.226 218.156L111.593 216.225C117.247 220.151 123.418 223.273 129.932 225.499L129.16 227.732C122.435 225.433 116.063 222.211 110.226 218.156V218.156Z" fill="url(#paint6_linear_2485_8386)"/>
<path d="M138.859 232.706L140.206 225.622C146.798 226.833 153.526 227.127 160.198 226.494C163.263 226.212 166.306 225.74 169.312 225.08L170.891 232.114C167.573 232.861 164.21 233.384 160.822 233.681C153.492 234.378 146.1 234.049 138.859 232.706V232.706Z" fill="url(#paint7_linear_2485_8386)"/>
<path d="M180.547 226.91L179.664 224.564C182.113 223.647 184.535 222.596 186.874 221.444L187.991 223.679C185.568 224.885 183.083 225.963 180.547 226.91Z" fill="url(#paint8_linear_2485_8386)"/>
<path d="M188.325 224.382L186.517 220.734C194.833 216.609 202.28 210.926 208.456 203.996L211.49 206.713C204.961 214.021 197.099 220.018 188.325 224.382Z" fill="url(#paint9_linear_2485_8386)"/>
<path d="M206.173 201.937C207.121 200.869 208.046 199.763 208.924 198.661L216.953 204.999C215.932 206.284 214.871 207.542 213.788 208.763L206.173 201.937Z" fill="url(#paint10_linear_2485_8386)"/>
<path d="M213.429 197.82C216.393 193.702 218.93 189.293 220.999 184.66L224.775 186.254C222.581 191.159 219.881 195.821 216.719 200.166L213.429 197.82Z" fill="url(#paint11_linear_2485_8386)"/>
<path d="M218.795 183.675C220.941 178.876 222.535 173.848 223.549 168.69L232.245 170.422C231.089 176.22 229.3 181.874 226.91 187.282L218.795 183.675Z" fill="url(#paint12_linear_2485_8386)"/>
<path d="M225.202 163.34C225.796 158.351 225.874 153.314 225.435 148.308C225.11 144.737 224.517 141.195 223.663 137.712L230.724 135.969C231.659 139.804 232.309 143.703 232.667 147.634C233.183 153.168 233.115 158.742 232.462 164.263L225.202 163.34Z" fill="url(#paint13_linear_2485_8386)"/>
<path d="M225.707 137.13C225.454 136.133 225.191 135.118 224.891 134.125L227.77 133.307C228.062 134.33 228.379 135.438 228.603 136.426L225.707 137.13Z" fill="url(#paint14_linear_2485_8386)"/>
<path d="M222.936 132.026C221.998 129.153 220.873 126.344 219.571 123.616L224.464 121.213C225.853 124.147 227.064 127.163 228.089 130.243L222.936 132.026Z" fill="#C6D3DB"/>
<path d="M215.924 121.65C215.473 120.868 215.01 120.067 214.559 119.285L223.44 114.157C223.956 115.051 224.515 116.019 224.999 116.857L215.924 121.65Z" fill="#001523"/>
<path d="M203.329 100.172L205.786 97.4622C210.824 102.033 215.237 107.249 218.912 112.974L215.852 114.939C212.342 109.489 208.132 104.524 203.329 100.172V100.172Z" fill="#002B47"/>
<path d="M181.773 89.7517L185.616 80.9286C192.296 83.8364 198.553 87.631 204.219 92.21L198.186 99.6907C193.186 95.6558 187.665 92.3128 181.773 89.7517V89.7517Z" fill="url(#paint15_linear_2485_8386)"/>
<path d="M163.697 80.7682L163.958 78.8549C170.887 79.7882 177.654 81.6706 184.069 84.4491L183.309 86.2286C177.054 83.5163 170.454 81.6789 163.697 80.7682V80.7682Z" fill="url(#paint16_linear_2485_8386)"/>
<path d="M156.087 85.8118L156.627 72.5149C158.017 72.5568 159.409 72.6466 160.794 72.7659L159.68 85.972C158.434 85.9215 157.274 85.8466 156.087 85.8118Z" fill="url(#paint17_linear_2485_8386)"/>
<path d="M124.642 88.4986L122.004 82.4244C129.734 79.0655 137.953 76.9689 146.348 76.2148C147.948 76.0611 149.55 75.9553 151.147 75.9269L151.353 82.5613C149.91 82.5996 148.423 82.6889 146.967 82.834C139.27 83.5127 131.732 85.4253 124.642 88.4986V88.4986Z" fill="url(#paint18_linear_2485_8386)"/>
<path d="M110.332 91.5744C114.312 88.8545 118.538 86.5143 122.955 84.5847L123.725 86.3494C119.417 88.2242 115.3 90.51 111.43 93.1751L110.332 91.5744Z" fill="url(#paint19_linear_2485_8386)"/>
<g opacity="0.43">
<path d="M111.271 40.871L101.05 11.8149L101.162 11.7504C115.034 6.86553 129.543 4.02538 144.233 3.31921L144.345 3.25471L144.409 3.36643L145.864 34.0081L145.771 34.0618C134.067 34.6318 122.508 36.9056 111.46 40.8115L111.271 40.871ZM101.368 11.9788L111.454 40.5422C122.444 36.6728 133.937 34.4192 145.575 33.852L144.133 3.57568C129.546 4.29173 115.141 7.12232 101.368 11.9788V11.9788Z" fill="url(#paint20_linear_2485_8386)"/>
<path d="M93.7016 34.1347L91.6179 29.7515L91.7296 29.687C96.2026 27.5389 100.79 25.6365 105.47 23.9884L105.582 23.9239L107.186 28.5092L107.075 28.5737C102.558 30.1644 98.131 31.9992 93.8133 34.0702L93.7016 34.1347ZM91.9732 29.894L93.8254 33.7901C98.0818 31.7585 102.443 29.9534 106.89 28.3825L105.41 24.2714C100.833 25.9032 96.348 27.7801 91.9732 29.894V29.894Z" fill="url(#paint21_linear_2485_8386)"/>
<path d="M74.857 23.9837L74.9687 23.9192C76.7003 22.9195 78.4692 21.8982 80.2008 20.8985L80.3125 20.834L94.8138 48.015L94.7021 48.0795C93.3242 48.875 91.9278 49.6812 90.5313 50.4875L90.4196 50.552L74.857 23.9837ZM80.2611 21.2609C78.6039 22.2177 76.9096 23.1959 75.2524 24.1526L90.5678 50.2926C91.8898 49.5294 93.2118 48.7661 94.5151 48.0136L80.2611 21.2609Z" fill="url(#paint22_linear_2485_8386)"/>
<path d="M47.2055 54.9929L47.3172 54.9284C55.1786 46.6604 63.9982 39.3597 73.5891 33.181L73.7008 33.1165L82.5954 46.9744L82.4837 47.0389C73.9912 52.4949 66.181 58.9462 59.2193 66.2555L59.1075 66.32L47.2055 54.9929ZM73.6171 33.4876C64.1172 39.5989 55.3743 46.8135 47.5708 54.9807L59.1354 65.9812C66.0548 58.7232 73.8158 52.317 82.2537 46.8986L73.6171 33.4876Z" fill="url(#paint23_linear_2485_8386)"/>
<path d="M26.1331 71.8548C29.865 66.1654 33.9803 60.7368 38.4503 55.6069L38.562 55.5424L38.6265 55.6541L60.1465 74.438L60.0348 74.5025C56.4299 78.6617 53.1153 83.064 50.1147 87.6782V87.6782L50.0502 87.5665L26.1331 71.8548ZM38.6244 55.7795C34.2173 60.8088 30.1441 66.1213 26.431 71.6828L49.9762 87.1374C52.9802 82.5967 56.282 78.2602 59.8599 74.1566L38.6244 55.7795Z" fill="url(#paint24_linear_2485_8386)"/>
<path d="M12.8954 125.727L12.8417 125.634C15.3173 113.709 19.328 102.155 24.7735 91.2611L35.2187 96.4527L35.107 96.5172C30.1497 106.506 26.499 117.092 24.2449 128.013V128.013L12.8954 125.727ZM24.9212 91.4738C19.5771 102.283 15.6419 113.734 13.2119 125.545L24.1453 127.798C26.4063 116.955 30.0519 106.447 34.9924 96.5337L24.9212 91.4738Z" fill="url(#paint25_linear_2485_8386)"/>
<path d="M-0.023357 150.389C0.153281 144.167 0.716856 137.963 1.66411 131.812V131.812L33.1749 136.51C32.4456 141.349 32.0212 146.23 31.9043 151.122V151.122L-0.023357 150.389ZM1.76087 131.979C0.877246 138.036 0.356058 144.141 0.200082 150.26L31.5411 151.009C31.6679 146.199 32.0809 141.401 32.7781 136.64L1.76087 131.979Z" fill="url(#paint26_linear_2485_8386)"/>
<path d="M12.4308 197.421L12.3663 197.309C8.27228 184.162 6.06068 170.502 5.79734 156.735V156.735L25.9726 156.334L26.0371 156.445C26.2386 168.283 28.1084 180.033 31.5912 191.349L31.6558 191.461L12.4308 197.421ZM6.08317 156.843C6.34323 170.505 8.52907 184.062 12.5761 197.114L31.3348 191.249C27.8519 179.982 25.969 168.282 25.7413 156.492L6.08317 156.843Z" fill="url(#paint27_linear_2485_8386)"/>
<path d="M22.8174 229.166C19.3099 223.092 16.2365 216.777 13.6202 210.269L13.5449 210.139L38.4507 200.129L38.5152 200.241C42.7466 210.687 48.4091 220.494 55.3401 229.382L55.4046 229.494L55.2929 229.558L34.1255 246L34.0502 245.87C29.9326 240.562 26.1797 234.981 22.8174 229.166V229.166ZM13.9189 210.27C16.5171 216.731 19.5716 222.999 23.0594 229.026C26.3915 234.791 30.1028 240.329 34.169 245.603L54.9512 229.482C48.0705 220.639 42.4415 210.889 38.2231 200.509L13.9189 210.27Z" fill="url(#paint28_linear_2485_8386)"/>
<path d="M46.5699 262.054L46.6816 261.989L67.4103 240.488L67.4748 240.599C75.5538 248.404 84.6836 255.041 94.5993 260.319C99.1625 262.758 103.876 264.904 108.712 266.745L108.765 266.838L98.162 294.783L98.1083 294.69C92.071 292.407 86.1893 289.732 80.5008 286.682C68.1207 280.097 56.7252 271.809 46.6472 262.059L46.5699 262.054ZM67.452 240.861L46.9352 262.041C56.9754 271.732 68.3184 279.974 80.6361 286.529C86.2796 289.544 92.1078 292.199 98.086 294.48L108.558 266.908C103.749 265.071 99.0587 262.936 94.5149 260.516C84.628 255.248 75.5201 248.633 67.452 240.861V240.861Z" fill="url(#paint29_linear_2485_8386)"/>
<path d="M120.479 288.375L121.541 283.765L121.688 283.804C126.245 284.846 130.852 285.65 135.492 286.213V286.213L134.926 290.909C130.12 290.326 125.346 289.493 120.626 288.414L120.479 288.375ZM121.754 284.089L120.815 288.182C125.442 289.233 130.121 290.045 134.832 290.616L135.333 286.453C130.768 285.906 126.235 285.117 121.754 284.089V284.089Z" fill="url(#paint30_linear_2485_8386)"/>
<path d="M134.235 296.028L136.029 280.989C152.01 282.908 168.209 281.786 183.772 277.682L183.883 277.617L183.948 277.729L187.757 292.239L187.645 292.303C170.254 296.916 152.148 298.205 134.278 296.102L134.235 296.028ZM136.255 281.38L134.507 295.896C152.297 298.015 170.326 296.754 187.648 292.178L183.92 278.068C168.383 282.169 152.21 283.293 136.255 281.38V281.38Z" fill="url(#paint31_linear_2485_8386)"/>
<path d="M189.297 298.524L189.233 298.412L182.179 271.574L182.29 271.509C184.661 270.886 187.037 270.184 189.369 269.409L189.481 269.344L189.546 269.456L198.238 295.82L198.126 295.884C195.274 296.836 192.35 297.705 189.417 298.43L189.297 298.524ZM182.508 271.757L189.491 298.213C192.306 297.457 195.126 296.623 198.013 295.775L189.459 269.779C187.102 270.469 184.793 271.157 182.508 271.757V271.757Z" fill="url(#paint32_linear_2485_8386)"/>
<path d="M200.964 284.116L198.268 277.082L198.398 277.007C206.87 273.773 214.984 269.671 222.611 264.766L222.723 264.701L226.802 271.036L226.616 271.143C218.542 276.323 209.959 280.663 201.001 284.095L200.964 284.116ZM198.623 277.225L201.117 283.78C209.994 280.378 218.499 276.075 226.498 270.938L222.725 265.048C215.126 269.917 207.051 273.997 198.623 277.225Z" fill="url(#paint33_linear_2485_8386)"/>
<path d="M216.243 255.062L216.355 254.997C223.795 250.211 230.679 244.613 236.881 238.305L236.993 238.24L258.952 259.849L258.84 259.914C251.022 267.846 242.348 274.886 232.976 280.905L232.864 280.969L232.8 280.857L216.243 255.062ZM236.976 238.598C230.809 244.847 223.975 250.399 216.596 255.156L232.969 280.635C242.235 274.655 250.821 267.683 258.576 259.843L236.976 238.598Z" fill="url(#paint34_linear_2485_8386)"/>
<path d="M247.432 235.214L247.544 235.15C253.188 228.403 258.117 221.089 262.252 213.325C265.177 207.816 267.683 202.095 269.749 196.211V196.211L288.027 202.714L287.934 202.768C282.085 219.172 273.357 234.4 262.161 247.739L262.049 247.804L247.432 235.214ZM270.083 196.316C265.011 210.476 257.476 223.627 247.824 235.162L262.279 247.299C273.405 234.073 282.088 218.971 287.921 202.701L270.083 196.316Z" fill="url(#paint35_linear_2485_8386)"/>
<path d="M276.325 198.523C276.962 196.789 277.531 195.021 278.08 193.264L278.173 193.21L283.533 194.883C282.96 196.728 282.357 198.566 281.733 200.366L276.325 198.523ZM278.307 193.356C277.792 195.044 277.229 196.735 276.644 198.388L281.428 200.095C282.047 198.372 282.626 196.623 283.175 194.866L278.307 193.356Z" fill="url(#paint36_linear_2485_8386)"/>
<path d="M267.404 185.352C268.693 180.541 269.687 175.656 270.379 170.724L270.325 170.631L300.458 174.834C299.588 181.024 298.335 187.154 296.705 193.188V193.188L267.404 185.352ZM270.662 170.784C269.981 175.635 268.999 180.44 267.721 185.169L296.712 192.985C298.308 187.047 299.535 181.015 300.386 174.925L270.662 170.784Z" fill="url(#paint37_linear_2485_8386)"/>
<path d="M276.968 165.802C277.113 164.203 277.236 162.568 277.322 160.954L277.268 160.861L277.361 160.807L295.828 161.79L295.882 161.883C295.792 163.747 295.579 165.658 295.486 167.474L295.539 167.568L276.968 165.802ZM277.584 160.977C277.492 162.495 277.392 164.042 277.252 165.563L295.269 167.227C295.423 165.475 295.567 163.703 295.707 162.009L277.584 160.977Z" fill="url(#paint38_linear_2485_8386)"/>
<path d="M277.779 155.676L277.726 155.583C277.809 144.494 276.437 133.441 273.642 122.71L273.577 122.598L291.07 118.11L291.135 118.221C294.286 130.51 295.813 143.159 295.677 155.845L295.731 155.938L277.779 155.676ZM274.103 122.692C276.845 133.375 278.185 144.369 278.09 155.397L295.585 155.6C295.708 143.034 294.191 130.505 291.074 118.331L274.103 122.692Z" fill="url(#paint39_linear_2485_8386)"/>
<path d="M263.994 118.253L263.93 118.141C260.672 107.907 256.039 98.1614 250.159 89.173L250.084 89.0427L250.195 88.9782L279.008 70.0837L279.083 70.2141C286.658 81.787 292.631 94.3318 296.841 107.507L296.905 107.619L296.794 107.683L263.994 118.253ZM253.853 94.7118C258.083 102.044 261.522 109.803 264.115 117.861L296.494 107.508C292.315 94.4376 286.39 81.9908 278.879 70.5057L250.425 89.1185C251.682 90.9504 252.767 92.8311 253.853 94.7118Z" fill="url(#paint40_linear_2485_8386)"/>
<path d="M222.707 53.2791L236.548 33.6935L236.612 33.8052C238.581 35.1513 240.764 36.6964 242.622 38.2803L242.686 38.3921L227.919 57.147L227.865 57.0539C226.227 55.7651 224.523 54.4898 222.813 53.2919L222.707 53.2791ZM236.619 34.0745L223.069 53.2188C224.698 54.3637 226.323 55.586 227.899 56.8111L242.406 38.38C240.517 36.9135 238.58 35.45 236.619 34.0745V34.0745Z" fill="url(#paint41_linear_2485_8386)"/>
<path d="M172.332 30.9184L175.929 9.97266C191.386 12.6223 206.312 17.7545 220.13 25.1706C222.718 26.5566 225.312 28.0386 227.812 29.5743L216.816 47.7659L216.751 47.6542C214.633 46.3941 212.46 45.1663 210.23 43.9707C198.435 37.6539 185.703 33.2694 172.519 30.9843L172.332 30.9184ZM176.141 10.2971L172.638 30.7171C185.813 33.0001 198.534 37.3924 210.312 43.725C212.523 44.9313 214.696 46.1591 216.795 47.43L227.621 29.7592C225.161 28.2499 222.607 26.7944 220.134 25.3919C206.36 18.0403 191.494 12.9509 176.104 10.3186L176.141 10.2971Z" fill="url(#paint42_linear_2485_8386)"/>
<path d="M148.737 22.1739L148.596 15.0059L148.707 14.9414C157.417 14.7965 166.12 15.4741 174.702 16.9653L174.795 16.9116L173.581 23.9682L173.488 24.022C165.32 22.6276 157.04 22.0052 148.756 22.1632L148.737 22.1739ZM148.871 15.2687L149 21.8981C157.216 21.7526 165.428 22.3725 173.53 23.7498L174.695 17.168C166.165 15.7329 157.52 15.0971 148.871 15.2687V15.2687Z" fill="url(#paint43_linear_2485_8386)"/>
</g>
<g opacity="0.35">
<path d="M41.8936 174.783C39.8651 163.802 39.4349 152.586 40.6162 141.482L42.2064 141.656C41.0284 152.606 41.4526 163.669 43.4657 174.496L41.8936 174.783Z" fill="url(#paint44_linear_2485_8386)"/>
<path d="M43.6463 187.153C42.467 183.166 41.4912 179.122 40.7224 175.036L44.5034 174.318C45.2449 178.271 46.1936 182.182 47.3454 186.035L43.6463 187.153Z" fill="url(#paint45_linear_2485_8386)"/>
<path d="M42.5524 197.987C41.9617 196.491 41.3896 194.984 40.8654 193.474L53.2627 189.147C53.7381 190.487 54.2428 191.834 54.7984 193.226L42.5524 197.987Z" fill="url(#paint46_linear_2485_8386)"/>
<path d="M55.2276 211.126C53.1842 207.587 51.3288 203.943 49.669 200.209L51.1329 199.562C54.7463 207.757 59.3341 215.487 64.7968 222.584L63.5265 223.566C60.4943 219.603 57.7221 215.448 55.2276 211.126V211.126Z" fill="url(#paint47_linear_2485_8386)"/>
<path d="M66.3051 227.694L68.1754 226.118C71.4629 230.027 75.0084 233.711 78.7881 237.146L77.1427 238.94C73.279 235.442 69.6581 231.684 66.3051 227.694Z" fill="url(#paint48_linear_2485_8386)"/>
<path d="M87.7419 248.091L89.7479 245.245C97.6122 250.84 106.172 255.388 115.21 258.773L113.976 261.968C104.676 258.48 95.8595 253.816 87.7419 248.091V248.091Z" fill="url(#paint49_linear_2485_8386)"/>
<path d="M119.085 266.694L121.793 258.054C126.059 259.389 130.405 260.454 134.805 261.242L133.192 270.144C128.422 269.29 123.71 268.138 119.085 266.694Z" fill="url(#paint50_linear_2485_8386)"/>
<path d="M138.601 268.459L139.143 264.496C149.575 265.925 160.156 265.884 170.577 264.373L171.16 268.307C160.368 269.89 149.407 269.941 138.601 268.459V268.459Z" fill="url(#paint51_linear_2485_8386)"/>
<path d="M180.964 266.07L180.17 262.63C190.241 260.314 199.939 256.603 208.983 251.606L210.746 254.66C201.398 259.83 191.374 263.67 180.964 266.07Z" fill="url(#paint52_linear_2485_8386)"/>
<path d="M222.15 243.755C234.401 234.486 244.635 222.817 252.224 209.459L254.08 210.523C246.338 224.117 235.916 235.996 223.445 245.441L222.15 243.755Z" fill="url(#paint53_linear_2485_8386)"/>
<path d="M258.16 195.309C259.617 191.661 260.882 187.939 261.95 184.158L265.566 185.174C264.461 189.082 263.152 192.929 261.644 196.699L258.16 195.309Z" fill="url(#paint54_linear_2485_8386)"/>
<path d="M263.107 184.485C266.969 170.772 268.194 156.449 266.718 142.279L268.03 142.142C269.535 156.478 268.296 170.97 264.381 184.842L263.107 184.485Z" fill="url(#paint55_linear_2485_8386)"/>
<path d="M261.757 142.808C261.532 140.655 261.237 138.466 260.886 136.31L271.865 134.515C272.268 136.889 272.596 139.307 272.836 141.701L261.757 142.808Z" fill="url(#paint56_linear_2485_8386)"/>
<path d="M264.021 130.429C262.393 122.884 259.985 115.529 256.837 108.483L259.52 107.281C262.722 114.543 265.171 122.114 266.829 129.875L264.021 130.429Z" fill="url(#paint57_linear_2485_8386)"/>
<path d="M242.719 88.33L248.694 83.8872C253.812 90.8325 258.139 98.3272 261.595 106.232L254.846 109.334C251.59 101.907 247.523 94.8631 242.719 88.33V88.33Z" fill="url(#paint58_linear_2485_8386)"/>
<path d="M207.92 54.8435L208.925 52.9722C213.955 55.7083 218.772 58.8197 223.335 62.28C229.76 67.1107 235.664 72.5965 240.954 78.6489L239.296 80.0777C230.417 69.8905 219.789 61.3711 207.915 54.9208L207.92 54.8435Z" fill="url(#paint59_linear_2485_8386)"/>
<path d="M203.21 53.7375L205.184 49.7177C206.633 50.4207 208.074 51.1531 209.488 51.9256L207.346 55.8687C205.982 55.1414 204.6 54.4247 203.21 53.7375Z" fill="url(#paint60_linear_2485_8386)"/>
<path d="M186.57 46.9797L187.734 43.1049C192.323 44.4934 196.822 46.1667 201.203 48.1151L199.582 51.7573C195.349 49.8933 191.003 48.2976 186.57 46.9797V46.9797Z" fill="url(#paint61_linear_2485_8386)"/>
<path d="M176.445 49.4308L179.301 35.8889C180.823 36.2022 182.369 36.6008 183.834 36.9463L180.46 50.3651C179.138 50.0109 177.771 49.7076 176.445 49.4308Z" fill="url(#paint62_linear_2485_8386)"/>
<path d="M143.546 42.2044L143.274 39.2827C153.331 38.3111 163.471 38.658 173.438 40.3147L172.958 43.2238C163.241 41.5952 153.352 41.2525 143.546 42.2044V42.2044Z" fill="url(#paint63_linear_2485_8386)"/>
<path d="M108.695 53.2636L106.01 47.3656C115.652 42.9997 125.842 39.9643 136.302 38.3429L137.287 44.6511C127.411 46.2142 117.792 49.1116 108.695 53.2636V53.2636Z" fill="url(#paint64_linear_2485_8386)"/>
<path d="M80.2315 65.7488C88.265 58.9773 97.1939 53.346 106.766 49.014L107.975 51.6675C98.6184 55.8979 89.8892 61.3972 82.0337 68.0103L80.2315 65.7488Z" fill="url(#paint65_linear_2485_8386)"/>
<path d="M67.3472 69.1907C68.7806 67.7176 70.2729 66.2602 71.7601 64.8802L82.2833 76.184C80.9794 77.4085 79.6784 78.681 78.4253 79.9507L67.3472 69.1907Z" fill="url(#paint66_linear_2485_8386)"/>
<path d="M43.8169 116.668C47.8232 104.866 53.7089 93.7881 61.2467 83.8626C62.6464 81.9869 64.0783 80.1671 65.6542 78.3386L70.1301 82.1352C68.6337 83.8433 67.191 85.6445 65.9267 87.3675C58.7906 96.844 53.2197 107.403 49.426 118.643L43.8169 116.668Z" fill="url(#paint67_linear_2485_8386)"/>
<path d="M40.2537 138.189C41.2323 131.014 42.8883 123.948 45.1994 117.086L47.913 118.002C45.6663 124.683 44.0604 131.562 43.1168 138.547L40.2537 138.189Z" fill="url(#paint68_linear_2485_8386)"/>
</g>
<path d="M76.3701 233.208L76.4818 233.143L96.0933 212.287L96.1686 212.417C102.03 217.919 108.661 222.537 115.852 226.129V226.129L102.996 251.849L102.932 251.738C93.2639 246.9 84.3528 240.678 76.4797 233.269L76.3701 233.208ZM96.0713 212.722L76.749 233.262C84.543 240.59 93.3585 246.749 102.92 251.546L115.64 226.276C108.497 222.726 101.906 218.16 96.0713 212.722V212.722Z" fill="url(#paint69_linear_2485_8386)"/>
<path d="M108.404 240.36L110.006 237.2L110.06 237.294C113.141 238.822 116.3 240.189 119.524 241.388L119.578 241.481L118.342 244.802L118.288 244.709C114.963 243.448 111.706 242.013 108.532 240.41L108.404 240.36ZM110.114 237.56L108.782 240.241C111.858 241.77 115.011 243.14 118.228 244.346L119.282 241.528C116.171 240.399 113.125 239.099 110.157 237.634L110.114 237.56Z" fill="url(#paint70_linear_2485_8386)"/>
<path d="M120.558 251.269L125.04 237.533L125.094 237.626C126.224 237.992 127.391 238.336 128.518 238.654L124.641 252.536C123.309 252.163 121.965 251.772 120.649 251.34L120.558 251.269ZM125.234 237.868L120.96 251.062C122.192 251.476 123.428 251.854 124.669 252.197L128.324 238.791C127.299 238.563 126.238 238.232 125.178 237.901L125.234 237.868Z" fill="#C6D3DB"/>
<path d="M129.407 250.381L131.218 242.681C138.369 244.381 145.699 245.209 153.049 245.148L153.142 245.094L153.204 253.028C145.252 253.134 137.316 252.281 129.567 250.487L129.407 250.381ZM131.43 243.006L129.742 250.187C137.397 251.99 145.24 252.872 153.105 252.812L153.026 245.409C145.758 245.466 138.508 244.659 131.43 243.006V243.006Z" fill="url(#paint71_linear_2485_8386)"/>
<path d="M157.8 259.011L156.793 239.208L156.905 239.144C160.809 238.962 164.696 238.509 168.537 237.791V237.791L172.304 257.216L172.193 257.28C167.475 258.156 162.704 258.712 157.911 258.946L157.8 259.011ZM157.131 239.535L158.116 258.828C162.848 258.583 167.557 258.02 172.213 257.144L168.704 238.166C164.845 238.823 160.946 239.224 157.034 239.367L157.131 239.535Z" fill="url(#paint72_linear_2485_8386)"/>
<path d="M183.254 249.606L179.999 239.668L180.11 239.603C187.615 237.257 194.785 233.952 201.444 229.77L201.555 229.705L207.152 238.54L207.041 238.604C199.645 243.292 191.673 247.002 183.324 249.641L183.254 249.606ZM180.431 239.815L183.407 249.27C191.669 246.645 199.561 242.973 206.89 238.344L201.58 229.964C194.975 234.127 187.869 237.438 180.431 239.815V239.815Z" fill="url(#paint73_linear_2485_8386)"/>
<path d="M201.916 221.9L202.027 221.836C204.862 219.819 207.568 217.626 210.129 215.271L210.259 215.196L225.771 232.086L225.659 232.151C222.406 235.154 218.979 237.962 215.395 240.56L215.264 240.635L215.189 240.505L201.916 221.9ZM210.213 215.546C207.7 217.844 205.049 219.988 202.276 221.965L215.286 240.2C218.826 237.66 222.216 234.915 225.437 231.981L210.213 215.546Z" fill="url(#paint74_linear_2485_8386)"/>
<path d="M218.299 218.372L218.411 218.308C224.629 212.081 229.929 205 234.15 197.279L234.261 197.214L240.45 200.494C235.907 208.811 230.207 216.441 223.518 223.155L223.407 223.219L218.299 218.372ZM234.305 197.462C230.087 205.112 224.83 212.141 218.683 218.349L223.315 222.974C229.909 216.336 235.539 208.807 240.042 200.605L234.305 197.462Z" fill="url(#paint75_linear_2485_8386)"/>
<path d="M236.927 189.839C240.416 182.059 242.801 173.83 244.012 165.389L243.958 165.296L252.364 166.526L252.418 166.619C251.08 175.827 248.478 184.807 244.687 193.304V193.304L236.927 189.839ZM244.314 165.439C243.095 173.809 240.733 181.973 237.294 189.701L244.56 192.955C248.294 184.556 250.866 175.687 252.205 166.593L244.314 165.439Z" fill="url(#paint76_linear_2485_8386)"/>
<path d="M238.41 152.888L238.345 152.777C238.342 141.064 235.958 129.475 231.339 118.711L231.274 118.6L231.386 118.535L251.051 110.111L251.115 110.223C252.935 114.453 254.474 118.798 255.721 123.231C258.474 132.844 259.866 142.796 259.856 152.796L259.92 152.908L259.827 152.962L238.41 152.888ZM231.672 118.643C233.11 121.997 234.327 125.441 235.316 128.953C237.514 136.629 238.633 144.573 238.64 152.557L259.62 152.56C259.577 142.63 258.161 132.753 255.411 123.211C254.165 118.839 252.649 114.548 250.873 110.363L231.672 118.643Z" fill="url(#paint77_linear_2485_8386)"/>
<path d="M196.931 79.1115L208.09 60.7271C219.67 67.7313 229.816 76.8703 237.988 87.6587L238.052 87.7704L221.046 100.841L220.982 100.73C214.45 92.1043 206.339 84.7979 197.081 79.1988L196.931 79.1115ZM208.179 61.0974L197.302 79.0218C206.507 84.6031 214.578 91.8709 221.09 100.444L237.802 87.7662C229.689 77.0958 219.64 68.0485 208.179 61.0974V61.0974Z" fill="url(#paint78_linear_2485_8386)"/>
<path d="M173.911 61.1698L175.162 55.8544C181.82 57.4332 188.298 59.6914 194.494 62.5936L194.548 62.6867L192.469 67.6856C186.613 64.9457 180.491 62.8146 174.2 61.3259L173.911 61.1698ZM175.355 56.1896L174.235 60.9577C180.454 62.4434 186.506 64.5557 192.299 67.2624L194.373 62.8128C188.275 59.9638 181.903 57.7445 175.355 56.1896V56.1896Z" fill="url(#paint79_linear_2485_8386)"/>
<path d="M153.304 65.4687L153.475 46.5009C161.361 46.5726 169.213 47.5363 176.882 49.3737V49.3737L172.569 67.7038C166.284 66.2249 159.854 65.4571 153.398 65.415L153.304 65.4687ZM153.743 46.7931L153.621 65.286C159.966 65.3563 166.285 66.1207 172.464 67.5655L176.621 49.5242C169.115 47.7731 161.44 46.8511 153.733 46.7745L153.743 46.7931Z" fill="url(#paint80_linear_2485_8386)"/>
<path d="M116.01 72.551L108.862 56.8159L108.992 56.7406C120.52 51.5776 132.871 48.4982 145.474 47.6452L145.567 47.5914L146.745 64.8118L146.652 64.8655C140.501 65.2853 134.411 66.3545 128.484 68.0555C124.295 69.2818 120.201 70.8152 116.237 72.6434L116.01 72.551ZM109.247 56.9662L116.153 72.1957C120.119 70.3724 124.212 68.8391 128.399 67.6078C134.289 65.9359 140.337 64.8822 146.445 64.4637L145.269 47.7634C132.807 48.6482 120.601 51.7285 109.212 56.8623L109.247 56.9662Z" fill="url(#paint81_linear_2485_8386)"/>
<path d="M109.743 68.274L107.886 64.6285L107.998 64.564C109.282 63.9219 110.528 63.327 111.734 62.7794L111.846 62.7149L113.535 66.4571L113.442 66.5108C112.241 67.0548 111.052 67.6175 109.884 68.2174L109.743 68.274ZM108.249 64.7416L109.856 67.9108C110.917 67.298 112.054 66.8157 113.179 66.3146L111.714 63.0888C110.551 63.6113 109.38 64.1632 108.249 64.7416Z" fill="url(#paint82_linear_2485_8386)"/>
<path d="M89.8217 66.6666L89.9334 66.6021C93.5033 64.0157 97.2279 61.6497 101.086 59.5175L101.198 59.453L110.643 76.5434L110.531 76.6079C107.389 78.3444 104.359 80.2764 101.458 82.3926L101.346 82.4571L89.8217 66.6666ZM101.093 59.7868C97.3264 61.8778 93.6891 64.1934 90.2006 66.7209L101.371 82.0702C104.219 80.0042 107.19 78.1145 110.269 76.4117L101.093 59.7868Z" fill="url(#paint83_linear_2485_8386)"/>
<path d="M84.8005 74.606L84.9122 74.5415C85.9297 73.6809 86.9473 72.8203 87.9756 71.9784L88.0873 71.9139L96.5502 82.272L96.4198 82.3473C95.5128 83.0696 94.6227 83.8069 93.7496 84.5593L93.6379 84.6238L93.5626 84.4934L84.8005 74.606ZM88.0408 72.2634C87.0763 73.0438 86.1225 73.8427 85.1873 74.6309L93.5912 84.328C94.4068 83.6336 95.2597 82.9178 96.0488 82.2636L88.0408 72.2634Z" fill="url(#paint84_linear_2485_8386)"/>
<path d="M67.607 100.426C72.1921 92.97 77.7346 86.1475 84.0929 80.1324L84.2046 80.0679L88.4731 84.5801L88.3614 84.6446C82.3998 90.2795 77.2007 96.6699 72.8964 103.653L72.7847 103.718L67.607 100.426ZM84.1926 80.348C77.9211 86.2852 72.4512 93.0155 67.9214 100.368L72.7617 103.334C77.0427 96.4255 82.2069 90.1054 88.1235 84.5336L84.1926 80.348Z" fill="url(#paint85_linear_2485_8386)"/>
<path d="M48.7989 129.255C50.9348 119.864 54.3308 110.804 58.8947 102.323L58.9878 102.269L76.0778 111.445L75.9661 111.51C72.2398 118.432 69.4695 125.828 67.7309 133.495V133.495L48.7989 129.255ZM59.106 102.474C54.607 110.856 51.2565 119.805 49.1448 129.081L67.6606 133.287C69.3959 125.684 72.1397 118.347 75.8193 111.47L59.106 102.474Z" fill="url(#paint86_linear_2485_8386)"/>
<path d="M53.5878 157.799L53.5233 157.688C53.0582 148.654 53.8368 139.6 55.8374 130.779L55.7837 130.686L60.7543 131.813C58.8817 140.192 58.1728 148.789 58.6474 157.361L58.7119 157.473L53.5878 157.799ZM56.1261 130.935C54.1621 139.653 53.3965 148.598 53.8505 157.524L58.4261 157.365C57.9955 148.858 58.728 140.333 60.6033 132.025L56.1261 130.935Z" fill="url(#paint87_linear_2485_8386)"/>
<path d="M44.376 169.151L44.3115 169.039C44.0287 167.216 43.7909 165.342 43.604 163.514L43.5395 163.402L69.1692 160.795L69.2337 160.907C69.3761 162.314 69.5664 163.719 69.7861 165.131L69.8506 165.243L44.376 169.151ZM43.9271 163.6C44.1082 165.333 44.3295 167.092 44.4948 168.884L69.4257 165.066C69.2412 163.758 69.0645 162.42 68.928 161.108L43.9271 163.6Z" fill="url(#paint88_linear_2485_8386)"/>
<path d="M61.4363 205.235C57.0881 197.702 53.6808 189.663 51.2911 181.299C50.6629 179.179 50.1766 177.176 49.7353 175.122L49.6708 175.01L66.6202 171.257L66.6847 171.369C67.0578 173.09 67.5004 174.846 67.988 176.55C70.6006 185.666 74.6644 194.302 80.0233 202.126V202.126L79.9116 202.191L65.6503 211.889L65.5858 211.777C64.1124 209.698 62.7264 207.47 61.4363 205.235ZM50.0828 175.293C50.5211 177.3 51.0476 179.33 51.6005 181.319C53.9696 189.629 57.3478 197.618 61.6597 205.106C62.9283 207.303 64.2076 209.519 65.7183 211.577L79.6179 202.112C74.3415 194.318 70.3403 185.732 67.7646 176.679C67.2913 175 66.8623 173.311 66.4778 171.613L50.0828 175.293Z" fill="url(#paint89_linear_2485_8386)"/>
<path d="M71.5463 207.612L73.8034 206.061L73.8679 206.172C77.2472 211.117 81.0783 215.737 85.3118 219.974L85.3763 220.085L83.4595 222.011L83.3949 221.9C79.0307 217.556 75.0909 212.806 71.6294 207.713L71.5463 207.612ZM73.6875 206.376L71.9008 207.581C75.3116 212.576 79.1843 217.24 83.4679 221.51L85.0503 219.951C80.8637 215.814 77.0738 211.294 73.7305 206.45L73.6875 206.376Z" fill="url(#paint90_linear_2485_8386)"/>
</g>
<defs>
<linearGradient id="paint0_linear_2485_8386" x1="110.963" y1="95.464" x2="89.8112" y2="107.676" gradientUnits="userSpaceOnUse">
<stop stop-color="#00D764"/>
<stop offset="1" stop-color="#2698EA"/>
</linearGradient>
<linearGradient id="paint1_linear_2485_8386" x1="94.7053" y1="110.303" x2="87.3692" y2="114.538" gradientUnits="userSpaceOnUse">
<stop stop-color="#00D764"/>
<stop offset="1" stop-color="#2698EA"/>
</linearGradient>
<linearGradient id="paint2_linear_2485_8386" x1="85.4789" y1="127.004" x2="90.5283" y2="114.394" gradientUnits="userSpaceOnUse">
<stop stop-color="#4D74FD"/>
<stop offset="1" stop-color="#4DFDF2"/>
</linearGradient>
<linearGradient id="paint3_linear_2485_8386" x1="84.6451" y1="145.64" x2="71.1832" y2="153.412" gradientUnits="userSpaceOnUse">
<stop stop-color="#00D764"/>
<stop offset="1" stop-color="#2698EA"/>
</linearGradient>
<linearGradient id="paint4_linear_2485_8386" x1="84.5898" y1="171.133" x2="77.049" y2="175.487" gradientUnits="userSpaceOnUse">
<stop stop-color="#00D764"/>
<stop offset="1" stop-color="#2698EA"/>
</linearGradient>
<linearGradient id="paint5_linear_2485_8386" x1="102.779" y1="203.324" x2="94.2888" y2="208.226" gradientUnits="userSpaceOnUse">
<stop stop-color="#00D764"/>
<stop offset="1" stop-color="#2698EA"/>
</linearGradient>
<linearGradient id="paint6_linear_2485_8386" x1="126.018" y1="218.721" x2="114.418" y2="225.418" gradientUnits="userSpaceOnUse">
<stop stop-color="#00D764"/>
<stop offset="1" stop-color="#2698EA"/>
</linearGradient>
<linearGradient id="paint7_linear_2485_8386" x1="146.738" y1="246.352" x2="149.424" y2="211.883" gradientUnits="userSpaceOnUse">
<stop stop-color="#4D74FD"/>
<stop offset="1" stop-color="#4DFDF2"/>
</linearGradient>
<linearGradient id="paint8_linear_2485_8386" x1="187.272" y1="222.133" x2="180.16" y2="226.24" gradientUnits="userSpaceOnUse">
<stop stop-color="#00D764"/>
<stop offset="1" stop-color="#2698EA"/>
</linearGradient>
<linearGradient id="paint9_linear_2485_8386" x1="211.489" y1="206.712" x2="186.465" y2="221.16" gradientUnits="userSpaceOnUse">
<stop stop-color="#00D764"/>
<stop offset="1" stop-color="#2698EA"/>
</linearGradient>
<linearGradient id="paint10_linear_2485_8386" x1="214.996" y1="201.61" x2="208.237" y2="205.512" gradientUnits="userSpaceOnUse">
<stop stop-color="#00D764"/>
<stop offset="1" stop-color="#2698EA"/>
</linearGradient>
<linearGradient id="paint11_linear_2485_8386" x1="215.336" y1="201.123" x2="217.111" y2="182.838" gradientUnits="userSpaceOnUse">
<stop stop-color="#4D74FD"/>
<stop offset="1" stop-color="#4DFDF2"/>
</linearGradient>
<linearGradient id="paint12_linear_2485_8386" x1="233.767" y1="173.057" x2="217.94" y2="182.195" gradientUnits="userSpaceOnUse">
<stop stop-color="#00D764"/>
<stop offset="1" stop-color="#2698EA"/>
</linearGradient>
<linearGradient id="paint13_linear_2485_8386" x1="236.562" y1="146.08" x2="220.568" y2="155.314" gradientUnits="userSpaceOnUse">
<stop stop-color="#00D764"/>
<stop offset="1" stop-color="#2698EA"/>
</linearGradient>
<linearGradient id="paint14_linear_2485_8386" x1="228.366" y1="134.34" x2="225.164" y2="136.189" gradientUnits="userSpaceOnUse">
<stop stop-color="#00D764"/>
<stop offset="1" stop-color="#2698EA"/>
</linearGradient>
<linearGradient id="paint15_linear_2485_8386" x1="200.317" y1="85.4507" x2="184.546" y2="94.5559" gradientUnits="userSpaceOnUse">
<stop stop-color="#00D764"/>
<stop offset="1" stop-color="#2698EA"/>
</linearGradient>
<linearGradient id="paint16_linear_2485_8386" x1="180.635" y1="78.4998" x2="166.949" y2="86.401" gradientUnits="userSpaceOnUse">
<stop stop-color="#00D764"/>
<stop offset="1" stop-color="#2698EA"/>
</linearGradient>
<linearGradient id="paint17_linear_2485_8386" x1="162.939" y1="76.4807" x2="153.759" y2="81.7804" gradientUnits="userSpaceOnUse">
<stop stop-color="#00D764"/>
<stop offset="1" stop-color="#2698EA"/>
</linearGradient>
<linearGradient id="paint18_linear_2485_8386" x1="150.373" y1="74.5862" x2="125.051" y2="89.2062" gradientUnits="userSpaceOnUse">
<stop stop-color="#00D764"/>
<stop offset="1" stop-color="#2698EA"/>
</linearGradient>
<linearGradient id="paint19_linear_2485_8386" x1="123.313" y1="85.2054" x2="110.82" y2="92.4187" gradientUnits="userSpaceOnUse">
<stop stop-color="#00D764"/>
<stop offset="1" stop-color="#2698EA"/>
</linearGradient>
<linearGradient id="paint20_linear_2485_8386" x1="147.634" y1="8.95267" x2="106.541" y2="32.6778" gradientUnits="userSpaceOnUse">
<stop stop-color="#00D764"/>
<stop offset="1" stop-color="#2698EA"/>
</linearGradient>
<linearGradient id="paint21_linear_2485_8386" x1="106.291" y1="25.1529" x2="92.9598" y2="32.8499" gradientUnits="userSpaceOnUse">
<stop stop-color="#00D764"/>
<stop offset="1" stop-color="#2698EA"/>
</linearGradient>
<linearGradient id="paint22_linear_2485_8386" x1="88.01" y1="34.1665" x2="82.5545" y2="37.3162" gradientUnits="userSpaceOnUse">
<stop stop-color="#00D764"/>
<stop offset="1" stop-color="#2698EA"/>
</linearGradient>
<linearGradient id="paint23_linear_2485_8386" x1="79.7357" y1="42.0213" x2="49.7211" y2="59.3502" gradientUnits="userSpaceOnUse">
<stop stop-color="#00D764"/>
<stop offset="1" stop-color="#2698EA"/>
</linearGradient>
<linearGradient id="paint24_linear_2485_8386" x1="54.97" y1="65.4721" x2="30.5785" y2="79.5545" gradientUnits="userSpaceOnUse">
<stop stop-color="#00D764"/>
<stop offset="1" stop-color="#2698EA"/>
</linearGradient>
<linearGradient id="paint25_linear_2485_8386" x1="38.2504" y1="101.704" x2="8.83165" y2="118.689" gradientUnits="userSpaceOnUse">
<stop stop-color="#00D764"/>
<stop offset="1" stop-color="#2698EA"/>
</linearGradient>
<linearGradient id="paint26_linear_2485_8386" x1="31.2236" y1="133.13" x2="0.315284" y2="150.975" gradientUnits="userSpaceOnUse">
<stop stop-color="#00D764"/>
<stop offset="1" stop-color="#2698EA"/>
</linearGradient>
<linearGradient id="paint27_linear_2485_8386" x1="31.8533" y1="166.519" x2="3.90545" y2="182.655" gradientUnits="userSpaceOnUse">
<stop stop-color="#00D764"/>
<stop offset="1" stop-color="#2698EA"/>
</linearGradient>
<linearGradient id="paint28_linear_2485_8386" x1="46.8954" y1="214.755" x2="22.597" y2="228.784" gradientUnits="userSpaceOnUse">
<stop stop-color="#00D764"/>
<stop offset="1" stop-color="#2698EA"/>
</linearGradient>
<linearGradient id="paint29_linear_2485_8386" x1="102.616" y1="256.187" x2="58.0409" y2="281.922" gradientUnits="userSpaceOnUse">
<stop stop-color="#00D764"/>
<stop offset="1" stop-color="#2698EA"/>
</linearGradient>
<linearGradient id="paint30_linear_2485_8386" x1="134.164" y1="283.913" x2="121.968" y2="290.954" gradientUnits="userSpaceOnUse">
<stop stop-color="#00D764"/>
<stop offset="1" stop-color="#2698EA"/>
</linearGradient>
<linearGradient id="paint31_linear_2485_8386" x1="182.281" y1="274.843" x2="137.073" y2="300.944" gradientUnits="userSpaceOnUse">
<stop stop-color="#00D764"/>
<stop offset="1" stop-color="#2698EA"/>
</linearGradient>
<linearGradient id="paint32_linear_2485_8386" x1="195.878" y1="280.424" x2="183.105" y2="287.798" gradientUnits="userSpaceOnUse">
<stop stop-color="#00D764"/>
<stop offset="1" stop-color="#2698EA"/>
</linearGradient>
<linearGradient id="paint33_linear_2485_8386" x1="224.583" y1="267.192" x2="199.54" y2="281.651" gradientUnits="userSpaceOnUse">
<stop stop-color="#00D764"/>
<stop offset="1" stop-color="#2698EA"/>
</linearGradient>
<linearGradient id="paint34_linear_2485_8386" x1="252.84" y1="249.263" x2="222.882" y2="266.56" gradientUnits="userSpaceOnUse">
<stop stop-color="#00D764"/>
<stop offset="1" stop-color="#2698EA"/>
</linearGradient>
<linearGradient id="paint35_linear_2485_8386" x1="290.849" y1="207.602" x2="246.33" y2="233.305" gradientUnits="userSpaceOnUse">
<stop stop-color="#00D764"/>
<stop offset="1" stop-color="#2698EA"/>
</linearGradient>
<linearGradient id="paint36_linear_2485_8386" x1="283.463" y1="194.762" x2="276.481" y2="198.793" gradientUnits="userSpaceOnUse">
<stop stop-color="#00D764"/>
<stop offset="1" stop-color="#2698EA"/>
</linearGradient>
<linearGradient id="paint37_linear_2485_8386" x1="299.286" y1="172.804" x2="269.941" y2="189.746" gradientUnits="userSpaceOnUse">
<stop stop-color="#00D764"/>
<stop offset="1" stop-color="#2698EA"/>
</linearGradient>
<linearGradient id="paint38_linear_2485_8386" x1="294.522" y1="159.527" x2="278.64" y2="168.697" gradientUnits="userSpaceOnUse">
<stop stop-color="#00D764"/>
<stop offset="1" stop-color="#2698EA"/>
</linearGradient>
<linearGradient id="paint39_linear_2485_8386" x1="298.628" y1="131.2" x2="272.393" y2="146.347" gradientUnits="userSpaceOnUse">
<stop stop-color="#00D764"/>
<stop offset="1" stop-color="#2698EA"/>
</linearGradient>
<linearGradient id="paint40_linear_2485_8386" x1="289.58" y1="87.9143" x2="257.253" y2="106.578" gradientUnits="userSpaceOnUse">
<stop stop-color="#00D764"/>
<stop offset="1" stop-color="#2698EA"/>
</linearGradient>
<linearGradient id="paint41_linear_2485_8386" x1="243.116" y1="39.1369" x2="221.685" y2="51.5101" gradientUnits="userSpaceOnUse">
<stop stop-color="#00D764"/>
<stop offset="1" stop-color="#2698EA"/>
</linearGradient>
<linearGradient id="paint42_linear_2485_8386" x1="219.647" y1="15.4318" x2="177.455" y2="39.7912" gradientUnits="userSpaceOnUse">
<stop stop-color="#00D764"/>
<stop offset="1" stop-color="#2698EA"/>
</linearGradient>
<linearGradient id="paint43_linear_2485_8386" x1="172.484" y1="12.9081" x2="150.661" y2="25.507" gradientUnits="userSpaceOnUse">
<stop stop-color="#00D764"/>
<stop offset="1" stop-color="#2698EA"/>
</linearGradient>
<linearGradient id="paint44_linear_2485_8386" x1="49.2374" y1="153.834" x2="34.6583" y2="162.251" gradientUnits="userSpaceOnUse">
<stop stop-color="#00D764"/>
<stop offset="1" stop-color="#2698EA"/>
</linearGradient>
<linearGradient id="paint45_linear_2485_8386" x1="47.0782" y1="178.778" x2="40.8779" y2="182.358" gradientUnits="userSpaceOnUse">
<stop stop-color="#00D764"/>
<stop offset="1" stop-color="#2698EA"/>
</linearGradient>
<linearGradient id="paint46_linear_2485_8386" x1="53.725" y1="189.948" x2="41.8644" y2="196.796" gradientUnits="userSpaceOnUse">
<stop stop-color="#00D764"/>
<stop offset="1" stop-color="#2698EA"/>
</linearGradient>
<linearGradient id="paint47_linear_2485_8386" x1="58.1153" y1="211.011" x2="55.8995" y2="212.29" gradientUnits="userSpaceOnUse">
<stop stop-color="#00D764"/>
<stop offset="1" stop-color="#2698EA"/>
</linearGradient>
<linearGradient id="paint48_linear_2485_8386" x1="75.2565" y1="231.029" x2="69.9872" y2="234.072" gradientUnits="userSpaceOnUse">
<stop stop-color="#00D764"/>
<stop offset="1" stop-color="#2698EA"/>
</linearGradient>
<linearGradient id="paint49_linear_2485_8386" x1="109.636" y1="249.119" x2="93.6601" y2="258.342" gradientUnits="userSpaceOnUse">
<stop stop-color="#00D764"/>
<stop offset="1" stop-color="#2698EA"/>
</linearGradient>
<linearGradient id="paint50_linear_2485_8386" x1="134.214" y1="260.218" x2="120.063" y2="268.388" gradientUnits="userSpaceOnUse">
<stop stop-color="#00D764"/>
<stop offset="1" stop-color="#2698EA"/>
</linearGradient>
<linearGradient id="paint51_linear_2485_8386" x1="167.599" y1="259.215" x2="141.848" y2="274.082" gradientUnits="userSpaceOnUse">
<stop stop-color="#00D764"/>
<stop offset="1" stop-color="#2698EA"/>
</linearGradient>
<linearGradient id="paint52_linear_2485_8386" x1="208.65" y1="251.029" x2="181.373" y2="266.777" gradientUnits="userSpaceOnUse">
<stop stop-color="#00D764"/>
<stop offset="1" stop-color="#2698EA"/>
</linearGradient>
<linearGradient id="paint53_linear_2485_8386" x1="257.348" y1="216.184" x2="219.011" y2="238.318" gradientUnits="userSpaceOnUse">
<stop stop-color="#00D764"/>
<stop offset="1" stop-color="#2698EA"/>
</linearGradient>
<linearGradient id="paint54_linear_2485_8386" x1="266.899" y1="187.483" x2="256.956" y2="193.224" gradientUnits="userSpaceOnUse">
<stop stop-color="#00D764"/>
<stop offset="1" stop-color="#2698EA"/>
</linearGradient>
<linearGradient id="paint55_linear_2485_8386" x1="276.684" y1="157.132" x2="254.657" y2="169.849" gradientUnits="userSpaceOnUse">
<stop stop-color="#00D764"/>
<stop offset="1" stop-color="#2698EA"/>
</linearGradient>
<linearGradient id="paint56_linear_2485_8386" x1="272.558" y1="135.716" x2="261.387" y2="142.166" gradientUnits="userSpaceOnUse">
<stop stop-color="#00D764"/>
<stop offset="1" stop-color="#2698EA"/>
</linearGradient>
<linearGradient id="paint57_linear_2485_8386" x1="265.25" y1="117.206" x2="258.603" y2="121.044" gradientUnits="userSpaceOnUse">
<stop stop-color="#00D764"/>
<stop offset="1" stop-color="#2698EA"/>
</linearGradient>
<linearGradient id="paint58_linear_2485_8386" x1="255.768" y1="94.6998" x2="248.739" y2="98.7577" gradientUnits="userSpaceOnUse">
<stop stop-color="#00D764"/>
<stop offset="1" stop-color="#2698EA"/>
</linearGradient>
<linearGradient id="paint59_linear_2485_8386" x1="231.493" y1="62.2626" x2="216.988" y2="70.6368" gradientUnits="userSpaceOnUse">
<stop stop-color="#00D764"/>
<stop offset="1" stop-color="#2698EA"/>
</linearGradient>
<linearGradient id="paint60_linear_2485_8386" x1="209.058" y1="51.1807" x2="203.565" y2="54.352" gradientUnits="userSpaceOnUse">
<stop stop-color="#00D764"/>
<stop offset="1" stop-color="#2698EA"/>
</linearGradient>
<linearGradient id="paint61_linear_2485_8386" x1="199.02" y1="44.3351" x2="188.537" y2="50.3873" gradientUnits="userSpaceOnUse">
<stop stop-color="#00D764"/>
<stop offset="1" stop-color="#2698EA"/>
</linearGradient>
<linearGradient id="paint62_linear_2485_8386" x1="185.522" y1="39.8698" x2="174.574" y2="46.1908" gradientUnits="userSpaceOnUse">
<stop stop-color="#00D764"/>
<stop offset="1" stop-color="#2698EA"/>
</linearGradient>
<linearGradient id="paint63_linear_2485_8386" x1="170.014" y1="34.384" x2="146.777" y2="47.8" gradientUnits="userSpaceOnUse">
<stop stop-color="#00D764"/>
<stop offset="1" stop-color="#2698EA"/>
</linearGradient>
<linearGradient id="paint64_linear_2485_8386" x1="135.958" y1="37.747" x2="108.792" y2="53.4312" gradientUnits="userSpaceOnUse">
<stop stop-color="#00D764"/>
<stop offset="1" stop-color="#2698EA"/>
</linearGradient>
<linearGradient id="paint65_linear_2485_8386" x1="107.648" y1="50.5426" x2="80.5012" y2="66.216" gradientUnits="userSpaceOnUse">
<stop stop-color="#00D764"/>
<stop offset="1" stop-color="#2698EA"/>
</linearGradient>
<linearGradient id="paint66_linear_2485_8386" x1="78.8538" y1="70.2439" x2="70.6799" y2="74.9632" gradientUnits="userSpaceOnUse">
<stop stop-color="#00D764"/>
<stop offset="1" stop-color="#2698EA"/>
</linearGradient>
<linearGradient id="paint67_linear_2485_8386" x1="74.0649" y1="88.9504" x2="39.3768" y2="108.978" gradientUnits="userSpaceOnUse">
<stop stop-color="#00D764"/>
<stop offset="1" stop-color="#2698EA"/>
</linearGradient>
<linearGradient id="paint68_linear_2485_8386" x1="51.2242" y1="123.737" x2="36.7382" y2="132.1" gradientUnits="userSpaceOnUse">
<stop stop-color="#00D764"/>
<stop offset="1" stop-color="#2698EA"/>
</linearGradient>
<linearGradient id="paint69_linear_2485_8386" x1="114.347" y1="223.522" x2="81.6702" y2="242.388" gradientUnits="userSpaceOnUse">
<stop stop-color="#00D764"/>
<stop offset="1" stop-color="#2698EA"/>
</linearGradient>
<linearGradient id="paint70_linear_2485_8386" x1="118.019" y1="238.781" x2="110.124" y2="243.339" gradientUnits="userSpaceOnUse">
<stop stop-color="#00D764"/>
<stop offset="1" stop-color="#2698EA"/>
</linearGradient>
<linearGradient id="paint71_linear_2485_8386" x1="151.605" y1="242.431" x2="131.514" y2="254.03" gradientUnits="userSpaceOnUse">
<stop stop-color="#00D764"/>
<stop offset="1" stop-color="#2698EA"/>
</linearGradient>
<linearGradient id="paint72_linear_2485_8386" x1="172.052" y1="243.88" x2="154.811" y2="253.834" gradientUnits="userSpaceOnUse">
<stop stop-color="#00D764"/>
<stop offset="1" stop-color="#2698EA"/>
</linearGradient>
<linearGradient id="paint73_linear_2485_8386" x1="204.024" y1="233.121" x2="181.308" y2="246.236" gradientUnits="userSpaceOnUse">
<stop stop-color="#00D764"/>
<stop offset="1" stop-color="#2698EA"/>
</linearGradient>
<linearGradient id="paint74_linear_2485_8386" x1="220.712" y1="223.325" x2="207.232" y2="231.108" gradientUnits="userSpaceOnUse">
<stop stop-color="#00D764"/>
<stop offset="1" stop-color="#2698EA"/>
</linearGradient>
<linearGradient id="paint75_linear_2485_8386" x1="241.756" y1="202.756" x2="217.402" y2="216.817" gradientUnits="userSpaceOnUse">
<stop stop-color="#00D764"/>
<stop offset="1" stop-color="#2698EA"/>
</linearGradient>
<linearGradient id="paint76_linear_2485_8386" x1="240.516" y1="196.057" x2="249.17" y2="161.822" gradientUnits="userSpaceOnUse">
<stop stop-color="#4D74FD"/>
<stop offset="1" stop-color="#4DFDF2"/>
</linearGradient>
<linearGradient id="paint77_linear_2485_8386" x1="244.063" y1="162.68" x2="264.911" y2="114.454" gradientUnits="userSpaceOnUse">
<stop stop-color="#4D74FD"/>
<stop offset="1" stop-color="#4DFDF2"/>
</linearGradient>
<linearGradient id="paint78_linear_2485_8386" x1="229.156" y1="72.3617" x2="202.065" y2="88.0029" gradientUnits="userSpaceOnUse">
<stop stop-color="#00D764"/>
<stop offset="1" stop-color="#2698EA"/>
</linearGradient>
<linearGradient id="paint79_linear_2485_8386" x1="191.468" y1="57.3518" x2="176.647" y2="65.9088" gradientUnits="userSpaceOnUse">
<stop stop-color="#00D764"/>
<stop offset="1" stop-color="#2698EA"/>
</linearGradient>
<linearGradient id="paint80_linear_2485_8386" x1="176.763" y1="49.1689" x2="152.111" y2="63.4018" gradientUnits="userSpaceOnUse">
<stop stop-color="#00D764"/>
<stop offset="1" stop-color="#2698EA"/>
</linearGradient>
<linearGradient id="paint81_linear_2485_8386" x1="146.851" y1="49.8166" x2="113.876" y2="68.8548" gradientUnits="userSpaceOnUse">
<stop stop-color="#00D764"/>
<stop offset="1" stop-color="#2698EA"/>
</linearGradient>
<linearGradient id="paint82_linear_2485_8386" x1="112.787" y1="64.3442" x2="108.802" y2="66.6447" gradientUnits="userSpaceOnUse">
<stop stop-color="#00D764"/>
<stop offset="1" stop-color="#2698EA"/>
</linearGradient>
<linearGradient id="paint83_linear_2485_8386" x1="106.192" y1="68.1034" x2="94.5365" y2="74.8329" gradientUnits="userSpaceOnUse">
<stop stop-color="#00D764"/>
<stop offset="1" stop-color="#2698EA"/>
</linearGradient>
<linearGradient id="paint84_linear_2485_8386" x1="91.4314" y1="86.091" x2="98.1116" y2="76.5595" gradientUnits="userSpaceOnUse">
<stop stop-color="#4D74FD"/>
<stop offset="1" stop-color="#4DFDF2"/>
</linearGradient>
<linearGradient id="paint85_linear_2485_8386" x1="89.145" y1="85.7439" x2="66.6341" y2="98.7406" gradientUnits="userSpaceOnUse">
<stop stop-color="#00D764"/>
<stop offset="1" stop-color="#2698EA"/>
</linearGradient>
<linearGradient id="paint86_linear_2485_8386" x1="55.5583" y1="140.963" x2="66.2901" y2="96.7885" gradientUnits="userSpaceOnUse">
<stop stop-color="#4D74FD"/>
<stop offset="1" stop-color="#4DFDF2"/>
</linearGradient>
<linearGradient id="paint87_linear_2485_8386" x1="65.189" y1="139.494" x2="48.5618" y2="149.094" gradientUnits="userSpaceOnUse">
<stop stop-color="#00D764"/>
<stop offset="1" stop-color="#2698EA"/>
</linearGradient>
<linearGradient id="paint88_linear_2485_8386" x1="67.5781" y1="158.039" x2="45.3651" y2="170.864" gradientUnits="userSpaceOnUse">
<stop stop-color="#00D764"/>
<stop offset="1" stop-color="#2698EA"/>
</linearGradient>
<linearGradient id="paint89_linear_2485_8386" x1="73.9899" y1="184.022" x2="55.389" y2="194.761" gradientUnits="userSpaceOnUse">
<stop stop-color="#00D764"/>
<stop offset="1" stop-color="#2698EA"/>
</linearGradient>
<linearGradient id="paint90_linear_2485_8386" x1="81.0706" y1="212.628" x2="76.0992" y2="215.498" gradientUnits="userSpaceOnUse">
<stop stop-color="#00D764"/>
<stop offset="1" stop-color="#2698EA"/>
</linearGradient>
<clipPath id="clip0_2485_8386">
<rect width="306" height="306" fill="white"/>
</clipPath>
</defs>
</svg>
