<svg width="730" height="730" viewBox="0 0 730 730" fill="none" xmlns="http://www.w3.org/2000/svg">
<circle cx="370" cy="352" r="350" fill="#D9D9D9"/>
<path d="M364.522 729.999C274.043 729.881 186.833 696.161 119.809 635.381C52.7847 574.601 10.7242 491.094 1.78614 401.057C-7.15193 311.021 17.6696 220.874 71.4359 148.103C125.202 75.3317 204.08 25.1241 292.77 7.21915C381.46 -10.6858 473.638 4.98819 551.426 51.2008C629.213 97.4134 687.063 170.87 713.755 257.322C740.447 343.775 734.078 437.059 695.883 519.081C657.688 601.103 590.391 666.015 507.044 701.226C461.956 720.308 413.481 730.095 364.522 729.999ZM364.522 12.3948C283.212 12.3919 204.416 40.5822 141.561 92.1624C78.7052 143.743 35.679 215.521 19.8131 295.268C3.94725 375.016 16.2234 457.797 54.5498 529.507C92.8763 601.218 154.882 657.421 230.001 688.54C305.121 719.659 388.706 723.769 466.516 700.169C544.326 676.569 611.546 626.72 656.722 559.115C701.898 491.511 722.236 410.333 714.27 329.414C706.304 248.495 670.527 172.842 613.035 115.344C580.475 82.6057 541.747 56.6497 499.09 38.9785C456.432 21.3073 410.694 12.2717 364.522 12.3948Z" fill="#029CF5"/>
<circle cx="366" cy="349" r="340" stroke="#029CF5" stroke-width="10"/>
</svg>
