<svg width="1163" height="184" viewBox="0 0 1163 184" fill="none" xmlns="http://www.w3.org/2000/svg">
<path d="M602.124 0.00012207V42.1824H641.119C652.766 42.1824 662.208 51.6255 662.208 63.2719C662.208 74.9195 652.765 84.3614 641.119 84.3614H538.853V106.447V126.544V183.999H581.033V126.544H641.121C676.064 126.544 704.391 98.2151 704.391 63.2719C704.391 28.3287 676.064 0.00012207 641.121 0.00012207H602.124Z" fill="#EA5B21"/>
<path d="M581.033 42.1824H538.851V0.000610352H581.033V42.1824Z" fill="#EA5B21"/>
<path d="M-6.10352e-05 56.4316H16.4367V89.2019C16.4367 91.9911 16.4367 97.1497 16.2208 100.801H16.4367C18.4754 97.7937 20.5167 95.1073 22.7751 92.2087L49.7373 56.4316H66.1741V127.228H49.7373V91.2389C49.7373 88.2321 49.7373 83.5027 50.062 81.1448H49.8461C47.4806 84.2527 45.4414 87.048 43.1869 89.9541L15.2548 127.228H-6.10352e-05V56.4316H-6.10352e-05Z" fill="#1D4687"/>
<path d="M82.2585 56.4316H98.6947V84.2527H129.097V56.4316H145.534V127.228H129.097V98.2229H98.6947V127.228H82.2585V56.4316Z" fill="#1D4687"/>
<path d="M219.194 91.4576C219.194 83.1813 214.574 78.6694 205.552 77.3787V105.528C214.789 104.456 219.194 100.047 219.194 91.4576ZM189.116 77.3787C180.091 78.6694 175.47 83.1813 175.47 91.4576C175.47 100.047 179.875 104.456 189.116 105.528V77.3787ZM189.116 119.492C169.884 117.776 158.929 108.646 158.929 91.4576C158.929 74.912 170.209 65.3504 189.116 63.4168V54.825H205.553V63.4168C224.46 65.3509 235.74 74.912 235.74 91.4576C235.74 108.646 224.783 117.776 205.553 119.492V129.161H189.116V119.492Z" fill="#1D4687"/>
<path d="M301.989 91.9911C301.989 76.956 294.145 69.3286 282.975 69.3286C271.801 69.3286 263.959 76.956 263.959 91.9911C263.959 107.034 271.802 114.66 282.975 114.66C294.145 114.66 301.989 107.034 301.989 91.9911ZM246.449 91.9911C246.449 70.5024 261.381 55.6799 282.974 55.6799C304.567 55.6799 319.497 70.5029 319.497 91.9911C319.497 113.478 304.567 128.302 282.974 128.302C261.381 128.302 246.449 113.477 246.449 91.9911Z" fill="#1D4687"/>
<path d="M352.125 90.8086C354.916 90.8086 357.282 90.4855 359.109 89.6267C362.547 88.0189 364.157 84.6852 364.157 80.1739C364.157 76.5236 362.654 73.0871 359.321 71.1529C357.498 70.0797 355.027 69.6484 351.803 69.6484H349.332V90.8086H352.126H352.125ZM332.895 56.4305H352.661C358.999 56.4305 364.478 57.2916 368.882 59.3367C376.834 62.9854 381.239 70.0797 381.239 80.1739C381.239 88.3398 377.691 97.4717 366.52 101.66C362.438 103.165 357.39 104.027 351.157 104.027H349.332V127.227H332.895V56.4305Z" fill="#1D4687"/>
<path d="M394.644 56.4316H409.468L427.193 81.1448C429.343 84.1521 431.061 86.7276 432.674 89.5228H432.89C434.176 86.9397 435.897 83.9324 438.047 80.6052L453.943 56.4322H468.875V127.229H452.438V91.1307C452.438 88.5536 452.438 85.6555 452.549 83.5032H452.438C451.797 85.0142 448.895 89.2024 447.713 91.0273L436.218 108.428H429.022L415.913 90.3779C414.409 88.3409 412.69 86.1891 411.188 83.5027H410.972C411.081 85.8687 411.081 88.664 411.081 90.5976V127.228H394.645V56.4316H394.644Z" fill="#1D4687"/>
<path d="M763.31 56.4382H823.365V127.227H806.927V70.2919H779.747V127.227H763.31V56.4382Z" fill="#1D4687"/>
<path d="M858.677 90.8152C861.466 90.8152 863.83 90.4861 865.655 89.6332C869.092 88.0199 870.705 84.6917 870.705 80.1728C870.705 76.5241 869.2 73.086 865.873 71.1518C864.041 70.0808 861.573 69.6495 858.349 69.6495H855.882V90.8152H858.677H858.677ZM839.442 56.4371H859.208C865.552 56.4371 871.027 57.2927 875.434 59.3351C883.381 62.9854 887.784 70.0803 887.784 80.1722C887.784 88.3403 884.242 97.4717 873.068 101.661C868.99 103.165 863.938 104.024 857.706 104.024H855.881V127.227H839.442V56.4365V56.4371Z" fill="#1D4687"/>
<path d="M954.049 91.9912C954.049 76.9561 946.204 69.3287 935.029 69.3287C923.862 69.3287 916.017 76.9561 916.017 91.9912C916.017 107.034 923.862 114.66 935.029 114.66C946.204 114.66 954.049 107.034 954.049 91.9912ZM898.507 91.9912C898.507 70.5101 913.439 55.6876 935.029 55.6876C956.626 55.6876 971.56 70.5106 971.56 91.9912C971.56 113.478 956.626 128.302 935.029 128.302C913.439 128.302 898.507 113.477 898.507 91.9912Z" fill="#1D4687"/>
<path d="M984.954 56.4382H1027.5L1023.31 70.2919H1001.39V84.5824H1023.63V98.4416H1001.39V113.376H1027.28V127.227H984.954V56.4382Z" fill="#1D4687"/>
<path d="M1041.44 56.4382H1057.88V85.0138H1058.2L1080.65 56.4382H1099.34L1071.63 90.2757L1100.74 127.227H1081.08L1058.2 97.0421H1057.88V127.227H1041.44V56.4382Z" fill="#1D4687"/>
<path d="M1124.13 70.2914H1103.4V56.4382H1162.91L1158.72 70.2914H1140.57V127.229H1124.13V70.2914Z" fill="#1D4687"/>
</svg>
