<svg width="120" height="28" viewBox="0 0 120 28" fill="none" xmlns="http://www.w3.org/2000/svg">
<g clip-path="url(#clip0_1_6581)">
<mask id="mask0_1_6581" style="mask-type:luminance" maskUnits="userSpaceOnUse" x="0" y="0" width="120" height="28">
<path d="M120 0H0V27.331H120V0Z" fill="white"/>
</mask>
<g mask="url(#mask0_1_6581)">
<path d="M31.4255 11.4092V15.1703H22.9355V11.4092H31.4255Z" fill="#F84525"/>
<path d="M41.4362 1.00293C48.5323 1.00293 51.8269 5.14018 51.8269 10.9073C51.8269 16.6744 48.5323 20.8116 41.4362 20.8116H33.4531V1.00293H41.4362ZM41.4362 5.5163H38.7752V16.2982H41.4362C44.6041 16.2982 46.5049 14.6684 46.5049 10.9073C46.5049 7.14613 44.6041 5.5163 41.4362 5.5163Z" fill="#F84525"/>
<path d="M56.2624 5.2656C54.8685 5.2656 53.4746 4.51337 53.4746 2.6328C53.4746 0.752228 54.7418 0 56.2624 0C57.783 0 59.0501 0.752228 59.0501 2.6328C59.0501 4.51337 57.783 5.2656 56.2624 5.2656ZM53.8548 20.6863V7.14617H58.67V20.6863H53.8548Z" fill="#F84525"/>
<path d="M67.2865 6.77051C69.6941 6.77051 71.2147 7.89885 71.975 9.02719V7.14662H76.2833V20.1853C76.2833 25.5762 72.3551 27.3314 68.1735 27.3314C66.0193 27.3314 63.8652 26.8299 62.2179 26.0777V21.9405C63.7384 22.8181 65.6392 23.3195 67.4132 23.3195C69.5674 23.3195 71.3414 22.6927 71.3414 20.3106V19.433C70.4544 20.3106 69.1872 20.9375 67.2865 20.9375C62.7247 20.9375 60.6973 17.3017 60.6973 13.7913C60.6973 10.2809 62.7247 6.77051 67.2865 6.77051ZM68.5537 10.7824C66.5262 10.7824 65.6392 12.4122 65.6392 14.0421C65.6392 15.6719 66.5262 17.3017 68.5537 17.3017C69.9475 17.3017 70.8345 16.4241 71.3414 15.5465V12.4122C70.9613 11.5346 69.9475 10.7824 68.5537 10.7824Z" fill="#F84525"/>
<path d="M80.5915 5.2656C79.1976 5.2656 77.8037 4.51337 77.8037 2.6328C77.8037 0.752228 79.0709 0 80.5915 0C82.112 0 83.3792 0.752228 83.3792 2.6328C83.3792 4.51337 82.112 5.2656 80.5915 5.2656ZM78.1839 20.6863V7.14617H82.9991V20.6863H78.1839Z" fill="#F84525"/>
<path d="M91.9955 2.25684V7.14633H95.6703V11.1582H91.9955V15.5462C91.9955 16.6745 92.6291 17.176 93.7695 17.176C94.5298 17.176 95.1634 17.0506 95.9237 16.7999V20.561C94.7833 20.9371 93.6428 21.1879 92.2489 21.1879C89.5879 21.1879 87.0536 20.0595 87.0536 16.5491V11.1582H84.8994V7.14633H87.0536V3.38518L91.9955 2.25684Z" fill="#F84525"/>
<path d="M112.651 17.6778C112.778 17.6778 113.031 17.6778 113.158 17.5525V20.5614C112.524 20.8121 111.637 20.9375 110.75 20.9375C109.23 20.9375 108.089 20.436 107.456 19.433C106.188 20.436 104.668 21.0629 102.64 21.0629C99.9794 21.0629 97.8252 19.5584 97.8252 16.9256C97.8252 13.5406 101.12 12.4122 103.781 12.4122C104.795 12.4122 105.808 12.5376 106.695 12.663V12.4122C106.695 11.4093 105.808 10.657 103.781 10.657C102.007 10.657 100.36 11.1585 98.9656 11.66V7.64811C100.106 7.27199 102.26 6.77051 104.288 6.77051C108.596 6.77051 111.384 8.27497 111.384 13.0391V16.8002C111.764 17.5525 112.144 17.6778 112.651 17.6778ZM104.668 17.9286C105.428 17.9286 106.188 17.8032 106.949 17.1763V15.2958C106.569 15.1704 105.808 15.045 105.175 15.045C104.034 15.045 103.021 15.4211 103.021 16.5495C103.021 17.3017 103.654 17.9286 104.668 17.9286Z" fill="#F84525"/>
<path d="M120 0.125V20.6859H115.185V0.125H120Z" fill="#F84525"/>
<path d="M15.3331 13.0391H9.63086L15.9667 21.1883H21.5422L15.3331 13.0391Z" fill="#F84525"/>
<path d="M10.3907 0.626953C4.68849 0.626953 0 5.14032 0 10.9074C0 16.6745 4.68849 21.1879 10.3907 21.1879C16.0929 21.1879 20.7814 16.5491 20.7814 10.9074C20.7814 5.26569 16.2196 0.626953 10.3907 0.626953ZM10.3907 16.173C7.47624 16.173 5.06864 13.7909 5.06864 10.9074C5.06864 8.02386 7.47624 5.64181 10.3907 5.64181C13.3052 5.64181 15.7128 8.02386 15.7128 10.9074C15.7128 13.7909 13.4319 16.173 10.3907 16.173Z" fill="#F84525"/>
</g>
</g>
<defs>
<clipPath id="clip0_1_6581">
<rect width="120" height="28" fill="white"/>
</clipPath>
</defs>
</svg>
