<svg width="650" height="651" viewBox="0 0 650 651" fill="none" xmlns="http://www.w3.org/2000/svg">
<path d="M444.056 150.493L451.79 138.61L455.946 141.313C456.774 141.852 457.364 142.439 457.716 143.075C458.07 143.707 458.222 144.349 458.173 144.999C458.127 145.646 457.915 146.26 457.537 146.84C457.205 147.35 456.839 147.713 456.441 147.927C456.047 148.144 455.639 148.254 455.219 148.256C454.803 148.261 454.395 148.199 453.994 148.07L453.918 148.186C454.267 148.446 454.55 148.811 454.766 149.282C454.983 149.754 455.074 150.286 455.039 150.881C455.005 151.475 454.784 152.085 454.376 152.712C453.989 153.308 453.504 153.755 452.924 154.055C452.343 154.354 451.67 154.453 450.905 154.352C450.139 154.25 449.288 153.895 448.352 153.286L444.056 150.493ZM446.327 150.153L449.183 152.01C450.123 152.621 450.909 152.874 451.54 152.767C452.178 152.658 452.667 152.343 453.006 151.821C453.268 151.419 453.407 150.981 453.424 150.507C453.443 150.029 453.329 149.565 453.084 149.113C452.84 148.658 452.459 148.261 451.941 147.924L449.015 146.022L446.327 150.153ZM449.831 144.768L452.501 146.505C452.935 146.787 453.381 146.956 453.84 147.012C454.303 147.071 454.737 147.012 455.144 146.836C455.554 146.662 455.895 146.367 456.167 145.949C456.507 145.427 456.614 144.866 456.486 144.266C456.362 143.662 455.905 143.103 455.116 142.589L452.399 140.823L449.831 144.768Z" fill="black"/>
<path d="M444.056 150.493L451.79 138.61L455.946 141.313C456.774 141.852 457.364 142.439 457.716 143.075C458.07 143.707 458.222 144.349 458.173 144.999C458.127 145.646 457.915 146.26 457.537 146.84C457.205 147.35 456.839 147.713 456.441 147.927C456.047 148.144 455.639 148.254 455.219 148.256C454.803 148.261 454.395 148.199 453.994 148.07L453.918 148.186C454.267 148.446 454.55 148.811 454.766 149.282C454.983 149.754 455.074 150.286 455.039 150.881C455.005 151.475 454.784 152.085 454.376 152.712C453.989 153.308 453.504 153.755 452.924 154.055C452.343 154.354 451.67 154.453 450.905 154.352C450.139 154.25 449.288 153.895 448.352 153.286L444.056 150.493ZM446.327 150.153L449.183 152.01C450.123 152.621 450.909 152.874 451.54 152.767C452.178 152.658 452.667 152.343 453.006 151.821C453.268 151.419 453.407 150.981 453.424 150.507C453.443 150.029 453.329 149.565 453.084 149.113C452.84 148.658 452.459 148.261 451.941 147.924L449.015 146.022L446.327 150.153ZM449.831 144.768L452.501 146.505C452.935 146.787 453.381 146.956 453.84 147.012C454.303 147.071 454.737 147.012 455.144 146.836C455.554 146.662 455.895 146.367 456.167 145.949C456.507 145.427 456.614 144.866 456.486 144.266C456.362 143.662 455.905 143.103 455.116 142.589L452.399 140.823L449.831 144.768Z" fill="#1C6F9B"/>
<path d="M453.669 161.762C453.446 161.599 453.26 161.434 453.112 161.269C452.962 161.107 452.866 160.985 452.823 160.902L454.01 159.986C454.27 160.303 454.531 160.54 454.793 160.698C455.055 160.855 455.354 160.905 455.688 160.847C456.024 160.795 456.431 160.61 456.91 160.292L457.647 159.802L460.794 148.857L462.224 149.905L459.583 158.474L459.672 158.539L467.05 153.44L468.48 154.487L457.635 161.646C457.146 161.969 456.674 162.187 456.219 162.3C455.762 162.417 455.321 162.429 454.897 162.336C454.477 162.245 454.068 162.054 453.669 161.762Z" fill="black"/>
<path d="M453.669 161.762C453.446 161.599 453.26 161.434 453.112 161.269C452.962 161.107 452.866 160.985 452.823 160.902L454.01 159.986C454.27 160.303 454.531 160.54 454.793 160.698C455.055 160.855 455.354 160.905 455.688 160.847C456.024 160.795 456.431 160.61 456.91 160.292L457.647 159.802L460.794 148.857L462.224 149.905L459.583 158.474L459.672 158.539L467.05 153.44L468.48 154.487L457.635 161.646C457.146 161.969 456.674 162.187 456.219 162.3C455.762 162.417 455.321 162.429 454.897 162.336C454.477 162.245 454.068 162.054 453.669 161.762Z" fill="#1C6F9B"/>
<path d="M475.21 174.531C474.714 174.075 474.349 173.568 474.117 173.01C473.888 172.448 473.818 171.879 473.908 171.304C474.002 170.725 474.283 170.181 474.752 169.671C475.164 169.223 475.587 168.941 476.02 168.825C476.456 168.705 476.895 168.702 477.338 168.814C477.78 168.926 478.216 169.107 478.644 169.357C479.08 169.606 479.501 169.875 479.908 170.161C480.44 170.537 480.868 170.846 481.192 171.087C481.522 171.328 481.791 171.472 481.999 171.519C482.21 171.569 482.405 171.497 482.583 171.304L482.62 171.263C483.083 170.76 483.305 170.243 483.286 169.711C483.27 169.183 482.985 168.664 482.431 168.155C481.857 167.627 481.291 167.339 480.734 167.29C480.176 167.242 479.7 167.299 479.305 167.463L478.539 166.006C479.18 165.717 479.792 165.597 480.376 165.645C480.966 165.692 481.512 165.849 482.013 166.115C482.521 166.381 482.972 166.696 483.366 167.058C483.617 167.289 483.878 167.585 484.148 167.946C484.424 168.307 484.631 168.72 484.768 169.184C484.909 169.652 484.91 170.164 484.774 170.722C484.637 171.28 484.283 171.869 483.711 172.491L478.967 177.647L477.764 176.541L478.739 175.481L478.678 175.425C478.44 175.52 478.137 175.577 477.768 175.595C477.4 175.614 476.995 175.546 476.554 175.391C476.113 175.237 475.665 174.95 475.21 174.531ZM476.387 173.62C476.863 174.057 477.35 174.333 477.848 174.446C478.349 174.562 478.819 174.549 479.258 174.406C479.699 174.267 480.07 174.034 480.37 173.708L481.383 172.608C481.276 172.622 481.112 172.575 480.892 172.467C480.678 172.358 480.442 172.219 480.183 172.051C479.931 171.881 479.687 171.714 479.452 171.547C479.222 171.38 479.035 171.246 478.891 171.144C478.541 170.898 478.187 170.695 477.831 170.537C477.482 170.379 477.141 170.313 476.809 170.34C476.483 170.367 476.18 170.533 475.898 170.838C475.514 171.256 475.378 171.714 475.49 172.212C475.609 172.71 475.908 173.18 476.387 173.62Z" fill="black"/>
<path d="M475.21 174.531C474.714 174.075 474.349 173.568 474.117 173.01C473.888 172.448 473.818 171.879 473.908 171.304C474.002 170.725 474.283 170.181 474.752 169.671C475.164 169.223 475.587 168.941 476.02 168.825C476.456 168.705 476.895 168.702 477.338 168.814C477.78 168.926 478.216 169.107 478.644 169.357C479.08 169.606 479.501 169.875 479.908 170.161C480.44 170.537 480.868 170.846 481.192 171.087C481.522 171.328 481.791 171.472 481.999 171.519C482.21 171.569 482.405 171.497 482.583 171.304L482.62 171.263C483.083 170.76 483.305 170.243 483.286 169.711C483.27 169.183 482.985 168.664 482.431 168.155C481.857 167.627 481.291 167.339 480.734 167.29C480.176 167.242 479.7 167.299 479.305 167.463L478.539 166.006C479.18 165.717 479.792 165.597 480.376 165.645C480.966 165.692 481.512 165.849 482.013 166.115C482.521 166.381 482.972 166.696 483.366 167.058C483.617 167.289 483.878 167.585 484.148 167.946C484.424 168.307 484.631 168.72 484.768 169.184C484.909 169.652 484.91 170.164 484.774 170.722C484.637 171.28 484.283 171.869 483.711 172.491L478.967 177.647L477.764 176.541L478.739 175.481L478.678 175.425C478.44 175.52 478.137 175.577 477.768 175.595C477.4 175.614 476.995 175.546 476.554 175.391C476.113 175.237 475.665 174.95 475.21 174.531ZM476.387 173.62C476.863 174.057 477.35 174.333 477.848 174.446C478.349 174.562 478.819 174.549 479.258 174.406C479.699 174.267 480.07 174.034 480.37 173.708L481.383 172.608C481.276 172.622 481.112 172.575 480.892 172.467C480.678 172.358 480.442 172.219 480.183 172.051C479.931 171.881 479.687 171.714 479.452 171.547C479.222 171.38 479.035 171.246 478.891 171.144C478.541 170.898 478.187 170.695 477.831 170.537C477.482 170.379 477.141 170.313 476.809 170.34C476.483 170.367 476.18 170.533 475.898 170.838C475.514 171.256 475.378 171.714 475.49 172.212C475.609 172.71 475.908 173.18 476.387 173.62Z" fill="#1C6F9B"/>
<path d="M481.411 180.115L486.776 170.379L487.973 171.61L483.739 178.933L483.816 179.013L491.237 174.964L492.454 176.214L488.201 183.479L488.278 183.558L495.699 179.549L496.896 180.779L487.012 185.87L485.892 184.719L490.127 177.357L490.011 177.238L482.531 181.266L481.411 180.115Z" fill="black"/>
<path d="M481.411 180.115L486.776 170.379L487.973 171.61L483.739 178.933L483.816 179.013L491.237 174.964L492.454 176.214L488.201 183.479L488.278 183.558L495.699 179.549L496.896 180.779L487.012 185.87L485.892 184.719L490.127 177.357L490.011 177.238L482.531 181.266L481.411 180.115Z" fill="#1C6F9B"/>
<path d="M491.187 191C490.745 190.492 490.439 189.948 490.27 189.367C490.105 188.783 490.099 188.21 490.252 187.648C490.409 187.084 490.749 186.574 491.272 186.12C491.731 185.72 492.183 185.486 492.626 185.419C493.073 185.349 493.51 185.394 493.937 185.554C494.364 185.715 494.777 185.943 495.175 186.239C495.58 186.535 495.969 186.848 496.342 187.179C496.829 187.611 497.22 187.966 497.515 188.241C497.816 188.517 498.068 188.69 498.269 188.76C498.473 188.833 498.675 188.783 498.873 188.61L498.915 188.574C499.43 188.126 499.708 187.637 499.748 187.106C499.792 186.579 499.566 186.032 499.072 185.465C498.56 184.876 498.03 184.527 497.481 184.417C496.933 184.307 496.453 184.311 496.042 184.43L495.442 182.897C496.111 182.681 496.733 182.63 497.308 182.742C497.889 182.854 498.414 183.07 498.883 183.391C499.358 183.712 499.771 184.074 500.123 184.478C500.347 184.735 500.573 185.059 500.801 185.447C501.036 185.837 501.196 186.27 501.28 186.746C501.368 187.227 501.313 187.737 501.115 188.276C500.917 188.815 500.5 189.361 499.862 189.916L494.575 194.513L493.503 193.281L494.589 192.336L494.535 192.273C494.288 192.341 493.98 192.364 493.612 192.342C493.244 192.319 492.849 192.207 492.428 192.004C492.007 191.802 491.593 191.467 491.187 191ZM492.458 190.225C492.883 190.713 493.336 191.04 493.818 191.208C494.304 191.379 494.772 191.418 495.224 191.325C495.678 191.236 496.073 191.046 496.407 190.755L497.536 189.774C497.428 189.776 497.27 189.711 497.063 189.579C496.863 189.447 496.644 189.283 496.405 189.087C496.174 188.891 495.95 188.697 495.734 188.505C495.525 188.314 495.354 188.16 495.222 188.043C494.901 187.759 494.572 187.518 494.236 187.322C493.906 187.125 493.575 187.022 493.242 187.012C492.915 187.002 492.595 187.134 492.282 187.407C491.853 187.779 491.667 188.219 491.723 188.727C491.786 189.235 492.031 189.734 492.458 190.225Z" fill="black"/>
<path d="M491.187 191C490.745 190.492 490.439 189.948 490.27 189.367C490.105 188.783 490.099 188.21 490.252 187.648C490.409 187.084 490.749 186.574 491.272 186.12C491.731 185.72 492.183 185.486 492.626 185.419C493.073 185.349 493.51 185.394 493.937 185.554C494.364 185.715 494.777 185.943 495.175 186.239C495.58 186.535 495.969 186.848 496.342 187.179C496.829 187.611 497.22 187.966 497.515 188.241C497.816 188.517 498.068 188.69 498.269 188.76C498.473 188.833 498.675 188.783 498.873 188.61L498.915 188.574C499.43 188.126 499.708 187.637 499.748 187.106C499.792 186.579 499.566 186.032 499.072 185.465C498.56 184.876 498.03 184.527 497.481 184.417C496.933 184.307 496.453 184.311 496.042 184.43L495.442 182.897C496.111 182.681 496.733 182.63 497.308 182.742C497.889 182.854 498.414 183.07 498.883 183.391C499.358 183.712 499.771 184.074 500.123 184.478C500.347 184.735 500.573 185.059 500.801 185.447C501.036 185.837 501.196 186.27 501.28 186.746C501.368 187.227 501.313 187.737 501.115 188.276C500.917 188.815 500.5 189.361 499.862 189.916L494.575 194.513L493.503 193.281L494.589 192.336L494.535 192.273C494.288 192.341 493.98 192.364 493.612 192.342C493.244 192.319 492.849 192.207 492.428 192.004C492.007 191.802 491.593 191.467 491.187 191ZM492.458 190.225C492.883 190.713 493.336 191.04 493.818 191.208C494.304 191.379 494.772 191.418 495.224 191.325C495.678 191.236 496.073 191.046 496.407 190.755L497.536 189.774C497.428 189.776 497.27 189.711 497.063 189.579C496.863 189.447 496.644 189.283 496.405 189.087C496.174 188.891 495.95 188.697 495.734 188.505C495.525 188.314 495.354 188.16 495.222 188.043C494.901 187.759 494.572 187.518 494.236 187.322C493.906 187.125 493.575 187.022 493.242 187.012C492.915 187.002 492.595 187.134 492.282 187.407C491.853 187.779 491.667 188.219 491.723 188.727C491.786 189.235 492.031 189.734 492.458 190.225Z" fill="#1C6F9B"/>
<path d="M500.857 196.228L502.436 194.966L502.64 195.228L509.236 195.998L510.476 197.594L503.475 196.754L503.39 196.645L500.857 196.228ZM496.859 197.403L508.06 188.707L509.062 189.997L497.862 198.693L496.859 197.403ZM501.005 202.738L502.613 196.231L504.223 196.453L502.28 204.378L501.005 202.738Z" fill="black"/>
<path d="M500.857 196.228L502.436 194.966L502.64 195.228L509.236 195.998L510.476 197.594L503.475 196.754L503.39 196.645L500.857 196.228ZM496.859 197.403L508.06 188.707L509.062 189.997L497.862 198.693L496.859 197.403ZM501.005 202.738L502.613 196.231L504.223 196.453L502.28 204.378L501.005 202.738Z" fill="#1C6F9B"/>
<path d="M505.237 209.092C504.655 208.249 504.338 207.393 504.288 206.525C504.244 205.658 504.443 204.827 504.887 204.032C505.338 203.239 506.011 202.532 506.907 201.913C507.803 201.294 508.706 200.912 509.615 200.766C510.531 200.621 511.384 200.71 512.175 201.034C512.971 201.358 513.643 201.915 514.189 202.705C514.504 203.161 514.739 203.663 514.894 204.212C515.049 204.761 515.082 205.336 514.992 205.936C514.906 206.534 514.659 207.134 514.25 207.737C513.842 208.339 513.229 208.922 512.412 209.486L511.843 209.879L507.181 203.137L508.343 202.335L512.06 207.71C512.554 207.369 512.926 206.966 513.177 206.501C513.43 206.039 513.544 205.551 513.519 205.036C513.496 204.524 513.317 204.025 512.981 203.539C512.611 203.004 512.158 202.633 511.622 202.426C511.092 202.219 510.544 202.158 509.978 202.24C509.412 202.322 508.888 202.53 508.406 202.864L507.631 203.399C506.97 203.855 506.489 204.356 506.187 204.901C505.891 205.448 505.766 206.009 505.81 206.584C505.858 207.157 506.07 207.714 506.445 208.257C506.689 208.61 506.959 208.895 507.255 209.111C507.557 209.329 507.88 209.473 508.226 209.543C508.575 209.61 508.941 209.595 509.324 209.499L509.857 211.049C509.322 211.217 508.776 211.255 508.219 211.163C507.665 211.069 507.131 210.849 506.617 210.503C506.107 210.154 505.647 209.684 505.237 209.092Z" fill="black"/>
<path d="M505.237 209.092C504.655 208.249 504.338 207.393 504.288 206.525C504.244 205.658 504.443 204.827 504.887 204.032C505.338 203.239 506.011 202.532 506.907 201.913C507.803 201.294 508.706 200.912 509.615 200.766C510.531 200.621 511.384 200.71 512.175 201.034C512.971 201.358 513.643 201.915 514.189 202.705C514.504 203.161 514.739 203.663 514.894 204.212C515.049 204.761 515.082 205.336 514.992 205.936C514.906 206.534 514.659 207.134 514.25 207.737C513.842 208.339 513.229 208.922 512.412 209.486L511.843 209.879L507.181 203.137L508.343 202.335L512.06 207.71C512.554 207.369 512.926 206.966 513.177 206.501C513.43 206.039 513.544 205.551 513.519 205.036C513.496 204.524 513.317 204.025 512.981 203.539C512.611 203.004 512.158 202.633 511.622 202.426C511.092 202.219 510.544 202.158 509.978 202.24C509.412 202.322 508.888 202.53 508.406 202.864L507.631 203.399C506.97 203.855 506.489 204.356 506.187 204.901C505.891 205.448 505.766 206.009 505.81 206.584C505.858 207.157 506.07 207.714 506.445 208.257C506.689 208.61 506.959 208.895 507.255 209.111C507.557 209.329 507.88 209.473 508.226 209.543C508.575 209.61 508.941 209.595 509.324 209.499L509.857 211.049C509.322 211.217 508.776 211.255 508.219 211.163C507.665 211.069 507.131 210.849 506.617 210.503C506.107 210.154 505.647 209.684 505.237 209.092Z" fill="#1C6F9B"/>
<path d="M515.644 212.833L510.187 216.171L509.334 214.778L518.406 209.228L519.23 210.574L517.812 211.441L517.885 211.559C518.476 211.49 519.043 211.586 519.588 211.848C520.137 212.108 520.621 212.58 521.04 213.265C521.416 213.879 521.619 214.493 521.649 215.108C521.682 215.72 521.524 216.31 521.172 216.876C520.825 217.44 520.265 217.959 519.494 218.431L513.729 221.957L512.876 220.564L518.546 217.095C519.259 216.659 519.701 216.135 519.872 215.521C520.047 214.906 519.937 214.275 519.542 213.629C519.27 213.185 518.93 212.846 518.522 212.614C518.117 212.386 517.668 212.284 517.175 212.31C516.682 212.336 516.172 212.51 515.644 212.833Z" fill="black"/>
<path d="M515.644 212.833L510.187 216.171L509.334 214.778L518.406 209.228L519.23 210.574L517.812 211.441L517.885 211.559C518.476 211.49 519.043 211.586 519.588 211.848C520.137 212.108 520.621 212.58 521.04 213.265C521.416 213.879 521.619 214.493 521.649 215.108C521.682 215.72 521.524 216.31 521.172 216.876C520.825 217.44 520.265 217.959 519.494 218.431L513.729 221.957L512.876 220.564L518.546 217.095C519.259 216.659 519.701 216.135 519.872 215.521C520.047 214.906 519.937 214.275 519.542 213.629C519.27 213.185 518.93 212.846 518.522 212.614C518.117 212.386 517.668 212.284 517.175 212.31C516.682 212.336 516.172 212.51 515.644 212.833Z" fill="#1C6F9B"/>
<path d="M516.867 227.608L526.234 222.57L527.008 224.009L517.641 229.046L516.867 227.608ZM528.188 222.462C528.038 222.182 528.003 221.889 528.085 221.583C528.169 221.281 528.345 221.058 528.613 220.914C528.881 220.769 529.165 220.745 529.463 220.842C529.763 220.942 529.989 221.133 530.14 221.413C530.291 221.693 530.324 221.984 530.24 222.286C530.159 222.592 529.984 222.817 529.715 222.962C529.447 223.106 529.163 223.128 528.862 223.027C528.564 222.931 528.339 222.743 528.188 222.462Z" fill="black"/>
<path d="M516.867 227.608L526.234 222.57L527.008 224.009L517.641 229.046L516.867 227.608ZM528.188 222.462C528.038 222.182 528.003 221.889 528.085 221.583C528.169 221.281 528.345 221.058 528.613 220.914C528.881 220.769 529.165 220.745 529.463 220.842C529.763 220.942 529.989 221.133 530.14 221.413C530.291 221.693 530.324 221.984 530.24 222.286C530.159 222.592 529.984 222.817 529.715 222.962C529.447 223.106 529.163 223.128 528.862 223.027C528.564 222.931 528.339 222.743 528.188 222.462Z" fill="#1C6F9B"/>
<path d="M527.12 233.551L521.326 236.264L520.633 234.784L530.265 230.275L530.935 231.704L529.43 232.409L529.488 232.534C530.083 232.531 530.637 232.69 531.149 233.01C531.665 233.329 532.094 233.852 532.434 234.579C532.74 235.231 532.873 235.864 532.835 236.479C532.8 237.091 532.577 237.659 532.165 238.183C531.757 238.705 531.144 239.158 530.324 239.542L524.204 242.407L523.511 240.927L529.531 238.109C530.288 237.755 530.785 237.283 531.023 236.692C531.266 236.1 531.226 235.461 530.905 234.775C530.684 234.303 530.384 233.929 530.005 233.653C529.628 233.381 529.193 233.231 528.7 233.201C528.207 233.172 527.68 233.289 527.12 233.551Z" fill="black"/>
<path d="M527.12 233.551L521.326 236.264L520.633 234.784L530.265 230.275L530.935 231.704L529.43 232.409L529.488 232.534C530.083 232.531 530.637 232.69 531.149 233.01C531.665 233.329 532.094 233.852 532.434 234.579C532.74 235.231 532.873 235.864 532.835 236.479C532.8 237.091 532.577 237.659 532.165 238.183C531.757 238.705 531.144 239.158 530.324 239.542L524.204 242.407L523.511 240.927L529.531 238.109C530.288 237.755 530.785 237.283 531.023 236.692C531.266 236.1 531.226 235.461 530.905 234.775C530.684 234.303 530.384 233.929 530.005 233.653C529.628 233.381 529.193 233.231 528.7 233.201C528.207 233.172 527.68 233.289 527.12 233.551Z" fill="#1C6F9B"/>
<path d="M523.481 251.663C523.187 250.931 523.028 250.264 523.004 249.661C522.976 249.061 523.044 248.524 523.207 248.05C523.367 247.583 523.577 247.178 523.837 246.835L525.171 247.701C525.046 247.91 524.91 248.166 524.764 248.469C524.612 248.774 524.524 249.142 524.499 249.575C524.472 250.014 524.578 250.531 524.817 251.126C525.138 251.922 525.595 252.502 526.189 252.865C526.783 253.228 527.491 253.244 528.313 252.914L530.318 252.108L530.266 251.98C530.041 251.941 529.755 251.872 529.407 251.773C529.064 251.677 528.714 251.479 528.355 251.181C528.002 250.885 527.696 250.416 527.438 249.774C527.118 248.978 527.018 248.187 527.14 247.402C527.264 246.621 527.612 245.902 528.183 245.244C528.756 244.591 529.557 244.058 530.585 243.645C531.596 243.238 532.547 243.062 533.44 243.116C534.337 243.168 535.118 243.429 535.784 243.897C536.455 244.364 536.957 245.012 537.291 245.843C537.549 246.485 537.647 247.038 537.585 247.501C537.528 247.966 537.405 248.354 537.216 248.663C537.034 248.975 536.879 249.222 536.752 249.402L536.814 249.556L538.382 248.926L538.971 250.39L528.82 254.471C527.972 254.812 527.205 254.896 526.519 254.724C525.83 254.559 525.232 254.202 524.723 253.656C524.212 253.115 523.798 252.451 523.481 251.663ZM528.883 249.432C529.127 250.04 529.473 250.498 529.92 250.805C530.368 251.113 530.896 251.271 531.507 251.279C532.117 251.288 532.787 251.145 533.515 250.853C534.226 250.567 534.81 250.208 535.268 249.775C535.726 249.342 536.024 248.854 536.164 248.31C536.304 247.767 536.249 247.187 536.001 246.57C535.743 245.928 535.365 245.458 534.867 245.161C534.371 244.868 533.806 244.725 533.171 244.731C532.539 244.742 531.888 244.881 531.22 245.15C530.535 245.425 529.972 245.776 529.531 246.202C529.097 246.63 528.815 247.117 528.685 247.661C528.562 248.208 528.628 248.798 528.883 249.432Z" fill="black"/>
<path d="M523.481 251.663C523.187 250.931 523.028 250.264 523.004 249.661C522.976 249.061 523.044 248.524 523.207 248.05C523.367 247.583 523.577 247.178 523.837 246.835L525.171 247.701C525.046 247.91 524.91 248.166 524.764 248.469C524.612 248.774 524.524 249.142 524.499 249.575C524.472 250.014 524.578 250.531 524.817 251.126C525.138 251.922 525.595 252.502 526.189 252.865C526.783 253.228 527.491 253.244 528.313 252.914L530.318 252.108L530.266 251.98C530.041 251.941 529.755 251.872 529.407 251.773C529.064 251.677 528.714 251.479 528.355 251.181C528.002 250.885 527.696 250.416 527.438 249.774C527.118 248.978 527.018 248.187 527.14 247.402C527.264 246.621 527.612 245.902 528.183 245.244C528.756 244.591 529.557 244.058 530.585 243.645C531.596 243.238 532.547 243.062 533.44 243.116C534.337 243.168 535.118 243.429 535.784 243.897C536.455 244.364 536.957 245.012 537.291 245.843C537.549 246.485 537.647 247.038 537.585 247.501C537.528 247.966 537.405 248.354 537.216 248.663C537.034 248.975 536.879 249.222 536.752 249.402L536.814 249.556L538.382 248.926L538.971 250.39L528.82 254.471C527.972 254.812 527.205 254.896 526.519 254.724C525.83 254.559 525.232 254.202 524.723 253.656C524.212 253.115 523.798 252.451 523.481 251.663ZM528.883 249.432C529.127 250.04 529.473 250.498 529.92 250.805C530.368 251.113 530.896 251.271 531.507 251.279C532.117 251.288 532.787 251.145 533.515 250.853C534.226 250.567 534.81 250.208 535.268 249.775C535.726 249.342 536.024 248.854 536.164 248.31C536.304 247.767 536.249 247.187 536.001 246.57C535.743 245.928 535.365 245.458 534.867 245.161C534.371 244.868 533.806 244.725 533.171 244.731C532.539 244.742 531.888 244.881 531.22 245.15C530.535 245.425 529.972 245.776 529.531 246.202C529.097 246.63 528.815 247.117 528.685 247.661C528.562 248.208 528.628 248.798 528.883 249.432Z" fill="#1C6F9B"/>
<path d="M533.619 268.162L542.999 262.193L543.459 263.847L536.229 268.241L536.259 268.348L544.713 268.355L545.18 270.036L537.962 274.369L537.992 274.476L546.427 274.517L546.887 276.171L535.771 275.898L535.341 274.351L542.59 269.922L542.546 269.762L534.05 269.709L533.619 268.162Z" fill="black"/>
<path d="M533.619 268.162L542.999 262.193L543.459 263.847L536.229 268.241L536.259 268.348L544.713 268.355L545.18 270.036L537.962 274.369L537.992 274.476L546.427 274.517L546.887 276.171L535.771 275.898L535.341 274.351L542.59 269.922L542.546 269.762L534.05 269.709L533.619 268.162Z" fill="#1C6F9B"/>
<path d="M536.93 282.082C536.725 281.144 536.768 280.272 537.059 279.467C537.352 278.666 537.856 277.979 538.572 277.407C539.289 276.839 540.184 276.438 541.257 276.203C542.339 275.966 543.327 275.955 544.22 276.171C545.114 276.391 545.862 276.803 546.462 277.409C547.064 278.019 547.467 278.793 547.672 279.73C547.878 280.668 547.834 281.537 547.542 282.338C547.25 283.144 546.744 283.831 546.023 284.4C545.302 284.973 544.401 285.378 543.319 285.615C542.245 285.85 541.264 285.857 540.374 285.636C539.486 285.419 538.741 285.006 538.139 284.396C537.539 283.791 537.136 283.019 536.93 282.082ZM538.364 281.768C538.52 282.48 538.831 283.026 539.297 283.406C539.763 283.786 540.318 284.021 540.962 284.111C541.606 284.202 542.275 284.171 542.969 284.019C543.664 283.867 544.287 283.615 544.838 283.263C545.389 282.911 545.8 282.465 546.069 281.924C546.338 281.383 546.394 280.757 546.238 280.044C546.082 279.332 545.769 278.787 545.298 278.408C544.828 278.029 544.269 277.795 543.62 277.705C542.972 277.615 542.301 277.647 541.607 277.799C540.912 277.951 540.291 278.202 539.744 278.553C539.198 278.904 538.792 279.35 538.527 279.89C538.263 280.429 538.208 281.055 538.364 281.768Z" fill="black"/>
<path d="M536.93 282.082C536.725 281.144 536.768 280.272 537.059 279.467C537.352 278.666 537.856 277.979 538.572 277.407C539.289 276.839 540.184 276.438 541.257 276.203C542.339 275.966 543.327 275.955 544.22 276.171C545.114 276.391 545.862 276.803 546.462 277.409C547.064 278.019 547.467 278.793 547.672 279.73C547.878 280.668 547.834 281.537 547.542 282.338C547.25 283.144 546.744 283.831 546.023 284.4C545.302 284.973 544.401 285.378 543.319 285.615C542.245 285.85 541.264 285.857 540.374 285.636C539.486 285.419 538.741 285.006 538.139 284.396C537.539 283.791 537.136 283.019 536.93 282.082ZM538.364 281.768C538.52 282.48 538.831 283.026 539.297 283.406C539.763 283.786 540.318 284.021 540.962 284.111C541.606 284.202 542.275 284.171 542.969 284.019C543.664 283.867 544.287 283.615 544.838 283.263C545.389 282.911 545.8 282.465 546.069 281.924C546.338 281.383 546.394 280.757 546.238 280.044C546.082 279.332 545.769 278.787 545.298 278.408C544.828 278.029 544.269 277.795 543.62 277.705C542.972 277.615 542.301 277.647 541.607 277.799C540.912 277.951 540.291 278.202 539.744 278.553C539.198 278.904 538.792 279.35 538.527 279.89C538.263 280.429 538.208 281.055 538.364 281.768Z" fill="#1C6F9B"/>
<path d="M538.952 291.218L549.453 289.525L549.704 291.083L548.118 291.339L548.136 291.448C548.686 291.556 549.164 291.834 549.568 292.283C549.973 292.732 550.226 293.271 550.327 293.899C550.346 294.018 550.368 294.166 550.392 294.345C550.416 294.523 550.431 294.658 550.436 294.751L548.796 295.016C548.801 294.959 548.801 294.83 548.797 294.63C548.798 294.433 548.781 294.228 548.746 294.014C548.664 293.504 548.483 293.065 548.204 292.699C547.931 292.337 547.588 292.069 547.177 291.897C546.771 291.729 546.331 291.683 545.857 291.759L539.212 292.831L538.952 291.218Z" fill="black"/>
<path d="M538.952 291.218L549.453 289.525L549.704 291.083L548.118 291.339L548.136 291.448C548.686 291.556 549.164 291.834 549.568 292.283C549.973 292.732 550.226 293.271 550.327 293.899C550.346 294.018 550.368 294.166 550.392 294.345C550.416 294.523 550.431 294.658 550.436 294.751L548.796 295.016C548.801 294.959 548.801 294.83 548.797 294.63C548.798 294.433 548.781 294.228 548.746 294.014C548.664 293.504 548.483 293.065 548.204 292.699C547.931 292.337 547.588 292.069 547.177 291.897C546.771 291.729 546.331 291.683 545.857 291.759L539.212 292.831L538.952 291.218Z" fill="#1C6F9B"/>
<path d="M554.996 304.047L540.891 305.523L540.721 303.899L554.826 302.422L554.996 304.047Z" fill="black"/>
<path d="M554.996 304.047L540.891 305.523L540.721 303.899L554.826 302.422L554.996 304.047Z" fill="#1C6F9B"/>
<path d="M541.497 316.823C541.453 315.938 541.639 315.146 542.053 314.447C542.472 313.747 543.082 313.186 543.884 312.764C544.691 312.341 545.657 312.102 546.782 312.047C547.898 311.993 548.876 312.137 549.715 312.479C550.554 312.822 551.214 313.323 551.695 313.984C552.176 314.644 552.438 315.421 552.481 316.315C552.515 317.007 552.426 317.559 552.215 317.971C552.009 318.387 551.766 318.709 551.486 318.935C551.211 319.166 550.984 319.345 550.805 319.474L550.812 319.612L556.041 319.357L556.12 320.989L541.955 321.68L541.878 320.104L543.511 320.024L543.501 319.83C543.302 319.72 543.049 319.561 542.743 319.354C542.442 319.147 542.166 318.844 541.915 318.445C541.669 318.046 541.53 317.506 541.497 316.823ZM542.974 316.973C543.006 317.628 543.203 318.172 543.566 318.607C543.934 319.042 544.428 319.362 545.048 319.568C545.673 319.773 546.387 319.856 547.189 319.817C547.982 319.778 548.67 319.629 549.254 319.37C549.842 319.11 550.291 318.746 550.601 318.278C550.916 317.81 551.057 317.244 551.024 316.581C550.991 315.889 550.785 315.322 550.407 314.878C550.035 314.439 549.541 314.119 548.925 313.918C548.315 313.721 547.636 313.641 546.889 313.677C546.133 313.714 545.452 313.863 544.845 314.124C544.243 314.389 543.771 314.758 543.429 315.232C543.092 315.711 542.94 316.291 542.974 316.973Z" fill="black"/>
<path d="M541.497 316.823C541.453 315.938 541.639 315.146 542.053 314.447C542.472 313.747 543.082 313.186 543.884 312.764C544.691 312.341 545.657 312.102 546.782 312.047C547.898 311.993 548.876 312.137 549.715 312.479C550.554 312.822 551.214 313.323 551.695 313.984C552.176 314.644 552.438 315.421 552.481 316.315C552.515 317.007 552.426 317.559 552.215 317.971C552.009 318.387 551.766 318.709 551.486 318.935C551.211 319.166 550.984 319.345 550.805 319.474L550.812 319.612L556.041 319.357L556.12 320.989L541.955 321.68L541.878 320.104L543.511 320.024L543.501 319.83C543.302 319.72 543.049 319.561 542.743 319.354C542.442 319.147 542.166 318.844 541.915 318.445C541.669 318.046 541.53 317.506 541.497 316.823ZM542.974 316.973C543.006 317.628 543.203 318.172 543.566 318.607C543.934 319.042 544.428 319.362 545.048 319.568C545.673 319.773 546.387 319.856 547.189 319.817C547.982 319.778 548.67 319.629 549.254 319.37C549.842 319.11 550.291 318.746 550.601 318.278C550.916 317.81 551.057 317.244 551.024 316.581C550.991 315.889 550.785 315.322 550.407 314.878C550.035 314.439 549.541 314.119 548.925 313.918C548.315 313.721 547.636 313.641 546.889 313.677C546.133 313.714 545.452 313.863 544.845 314.124C544.243 314.389 543.771 314.758 543.429 315.232C543.092 315.711 542.94 316.291 542.974 316.973Z" fill="#1C6F9B"/>
<path d="M548.161 342.661L546.641 342.566L547.028 336.376L548.548 336.471L548.161 342.661Z" fill="black"/>
<path d="M548.161 342.661L546.641 342.566L547.028 336.376L548.548 336.471L548.161 342.661Z" fill="#1C6F9B"/>
<path d="M539.309 359.164L550.346 357.81L550.049 359.501L541.631 360.358L541.612 360.467L549.24 364.11L548.938 365.828L540.557 366.635L540.538 366.744L548.134 370.41L547.838 372.1L537.921 367.073L538.199 365.491L546.649 364.611L546.678 364.448L539.032 360.746L539.309 359.164Z" fill="black"/>
<path d="M539.309 359.164L550.346 357.81L550.049 359.501L541.631 360.358L541.612 360.467L549.24 364.11L548.938 365.828L540.557 366.635L540.538 366.744L548.134 370.41L547.838 372.1L537.921 367.073L538.199 365.491L546.649 364.611L546.678 364.448L539.032 360.746L539.309 359.164Z" fill="#1C6F9B"/>
<path d="M536.241 373.425C536.474 372.427 536.895 371.618 537.505 370.998C538.118 370.382 538.868 369.972 539.755 369.767C540.645 369.567 541.621 369.591 542.682 369.838C543.743 370.086 544.633 370.497 545.352 371.072C546.074 371.653 546.581 372.345 546.873 373.147C547.167 373.955 547.206 374.827 546.988 375.761C546.862 376.301 546.647 376.812 546.345 377.296C546.042 377.78 545.638 378.19 545.133 378.527C544.632 378.865 544.021 379.085 543.301 379.187C542.58 379.289 541.736 379.228 540.77 379.002L540.096 378.845L541.959 370.864L543.335 371.185L541.849 377.548C542.433 377.684 542.982 377.689 543.495 377.562C544.007 377.44 544.446 377.197 544.811 376.832C545.175 376.471 545.424 376.003 545.558 375.428C545.706 374.794 545.677 374.209 545.47 373.673C545.267 373.142 544.944 372.695 544.503 372.332C544.062 371.968 543.556 371.72 542.985 371.586L542.068 371.372C541.285 371.19 540.591 371.17 539.984 371.313C539.38 371.461 538.88 371.745 538.484 372.164C538.092 372.584 537.821 373.116 537.671 373.759C537.573 374.176 537.543 374.568 537.582 374.932C537.623 375.302 537.734 375.638 537.915 375.941C538.1 376.245 538.357 376.506 538.685 376.725L537.894 378.161C537.411 377.877 537.016 377.499 536.709 377.024C536.407 376.551 536.212 376.008 536.123 375.395C536.038 374.783 536.077 374.126 536.241 373.425Z" fill="black"/>
<path d="M536.241 373.425C536.474 372.427 536.895 371.618 537.505 370.998C538.118 370.382 538.868 369.972 539.755 369.767C540.645 369.567 541.621 369.591 542.682 369.838C543.743 370.086 544.633 370.497 545.352 371.072C546.074 371.653 546.581 372.345 546.873 373.147C547.167 373.955 547.206 374.827 546.988 375.761C546.862 376.301 546.647 376.812 546.345 377.296C546.042 377.78 545.638 378.19 545.133 378.527C544.632 378.865 544.021 379.085 543.301 379.187C542.58 379.289 541.736 379.228 540.77 379.002L540.096 378.845L541.959 370.864L543.335 371.185L541.849 377.548C542.433 377.684 542.982 377.689 543.495 377.562C544.007 377.44 544.446 377.197 544.811 376.832C545.175 376.471 545.424 376.003 545.558 375.428C545.706 374.794 545.677 374.209 545.47 373.673C545.267 373.142 544.944 372.695 544.503 372.332C544.062 371.968 543.556 371.72 542.985 371.586L542.068 371.372C541.285 371.19 540.591 371.17 539.984 371.313C539.38 371.461 538.88 371.745 538.484 372.164C538.092 372.584 537.821 373.116 537.671 373.759C537.573 374.176 537.543 374.568 537.582 374.932C537.623 375.302 537.734 375.638 537.915 375.941C538.1 376.245 538.357 376.506 538.685 376.725L537.894 378.161C537.411 377.877 537.016 377.499 536.709 377.024C536.407 376.551 536.212 376.008 536.123 375.395C536.038 374.783 536.077 374.126 536.241 373.425Z" fill="#1C6F9B"/>
<path d="M529.719 395.468C529.944 394.832 530.268 394.299 530.691 393.866C531.118 393.434 531.614 393.147 532.179 393.005C532.748 392.864 533.359 392.909 534.011 393.14C534.586 393.343 535.011 393.621 535.288 393.974C535.569 394.328 535.745 394.73 535.815 395.181C535.886 395.632 535.89 396.103 535.828 396.596C535.769 397.094 535.688 397.586 535.584 398.073C535.446 398.71 535.33 399.224 535.235 399.617C535.143 400.015 535.116 400.319 535.154 400.528C535.191 400.742 535.334 400.893 535.582 400.98L535.634 400.999C536.278 401.227 536.841 401.228 537.322 401.002C537.803 400.78 538.168 400.315 538.42 399.606C538.68 398.871 538.723 398.238 538.549 397.706C538.375 397.175 538.136 396.759 537.83 396.46L538.87 395.184C539.387 395.66 539.738 396.176 539.923 396.731C540.111 397.292 540.181 397.856 540.133 398.421C540.087 398.992 539.975 399.53 539.796 400.035C539.682 400.357 539.511 400.713 539.285 401.102C539.062 401.498 538.763 401.85 538.389 402.158C538.014 402.471 537.543 402.674 536.976 402.767C536.409 402.86 535.728 402.765 534.931 402.483L528.326 400.144L528.872 398.604L530.229 399.085L530.257 399.007C530.076 398.825 529.905 398.569 529.744 398.237C529.582 397.906 529.486 397.507 529.455 397.041C529.424 396.575 529.512 396.05 529.719 395.468ZM531.019 396.192C530.804 396.801 530.741 397.357 530.833 397.859C530.922 398.366 531.119 398.793 531.422 399.14C531.723 399.492 532.083 399.742 532.501 399.889L533.911 400.389C533.855 400.296 533.835 400.127 533.848 399.882C533.864 399.643 533.899 399.371 533.953 399.067C534.01 398.769 534.068 398.479 534.129 398.197C534.193 397.921 534.243 397.696 534.28 397.523C534.369 397.105 534.417 396.701 534.423 396.311C534.432 395.927 534.358 395.588 534.203 395.293C534.051 395.004 533.779 394.79 533.387 394.652C532.852 394.462 532.377 394.517 531.963 394.816C531.551 395.12 531.237 395.579 531.019 396.192Z" fill="black"/>
<path d="M529.719 395.468C529.944 394.832 530.268 394.299 530.691 393.866C531.118 393.434 531.614 393.147 532.179 393.005C532.748 392.864 533.359 392.909 534.011 393.14C534.586 393.343 535.011 393.621 535.288 393.974C535.569 394.328 535.745 394.73 535.815 395.181C535.886 395.632 535.89 396.103 535.828 396.596C535.769 397.094 535.688 397.586 535.584 398.073C535.446 398.71 535.33 399.224 535.235 399.617C535.143 400.015 535.116 400.319 535.154 400.528C535.191 400.742 535.334 400.893 535.582 400.98L535.634 400.999C536.278 401.227 536.841 401.228 537.322 401.002C537.803 400.78 538.168 400.315 538.42 399.606C538.68 398.871 538.723 398.238 538.549 397.706C538.375 397.175 538.136 396.759 537.83 396.46L538.87 395.184C539.387 395.66 539.738 396.176 539.923 396.731C540.111 397.292 540.181 397.856 540.133 398.421C540.087 398.992 539.975 399.53 539.796 400.035C539.682 400.357 539.511 400.713 539.285 401.102C539.062 401.498 538.763 401.85 538.389 402.158C538.014 402.471 537.543 402.674 536.976 402.767C536.409 402.86 535.728 402.765 534.931 402.483L528.326 400.144L528.872 398.604L530.229 399.085L530.257 399.007C530.076 398.825 529.905 398.569 529.744 398.237C529.582 397.906 529.486 397.507 529.455 397.041C529.424 396.575 529.512 396.05 529.719 395.468ZM531.019 396.192C530.804 396.801 530.741 397.357 530.833 397.859C530.922 398.366 531.119 398.793 531.422 399.14C531.723 399.492 532.083 399.742 532.501 399.889L533.911 400.389C533.855 400.296 533.835 400.127 533.848 399.882C533.864 399.643 533.899 399.371 533.953 399.067C534.01 398.769 534.068 398.479 534.129 398.197C534.193 397.921 534.243 397.696 534.28 397.523C534.369 397.105 534.417 396.701 534.423 396.311C534.432 395.927 534.358 395.588 534.203 395.293C534.051 395.004 533.779 394.79 533.387 394.652C532.852 394.462 532.377 394.517 531.963 394.816C531.551 395.12 531.237 395.579 531.019 396.192Z" fill="#1C6F9B"/>
<path d="M527.015 403.36L538.078 404.473L537.416 406.057L529.016 405.037L528.973 405.139L535.61 410.374L534.936 411.983L526.583 410.922L526.541 411.025L533.141 416.275L532.479 417.858L523.916 410.768L524.536 409.286L532.972 410.292L533.036 410.138L526.395 404.842L527.015 403.36Z" fill="black"/>
<path d="M527.015 403.36L538.078 404.473L537.416 406.057L529.016 405.037L528.973 405.139L535.61 410.374L534.936 411.983L526.583 410.922L526.541 411.025L533.141 416.275L532.479 417.858L523.916 410.768L524.536 409.286L532.972 410.292L533.036 410.138L526.395 404.842L527.015 403.36Z" fill="#1C6F9B"/>
<path d="M520.833 416.62C521.127 416.014 521.508 415.519 521.977 415.136C522.449 414.755 522.974 414.524 523.551 414.445C524.132 414.368 524.734 414.481 525.357 414.783C525.906 415.049 526.298 415.372 526.533 415.753C526.773 416.136 526.903 416.556 526.923 417.012C526.943 417.467 526.895 417.937 526.779 418.419C526.665 418.907 526.529 419.388 526.372 419.86C526.165 420.478 525.992 420.976 525.854 421.355C525.718 421.741 525.658 422.04 525.673 422.252C525.686 422.469 525.811 422.634 526.047 422.749L526.097 422.773C526.712 423.072 527.271 423.135 527.775 422.964C528.277 422.797 528.692 422.375 529.02 421.698C529.361 420.997 529.474 420.372 529.36 419.824C529.246 419.277 529.054 418.837 528.784 418.506L529.959 417.353C530.42 417.884 530.711 418.436 530.834 419.008C530.959 419.586 530.965 420.154 530.854 420.71C530.745 421.273 530.574 421.795 530.34 422.277C530.191 422.584 529.983 422.919 529.714 423.281C529.448 423.65 529.113 423.966 528.707 424.231C528.299 424.5 527.809 424.65 527.235 424.679C526.661 424.709 525.994 424.539 525.234 424.171L518.929 421.113L519.643 419.643L520.939 420.272L520.975 420.197C520.815 419.997 520.674 419.723 520.55 419.376C520.426 419.028 520.375 418.621 520.396 418.155C520.417 417.688 520.563 417.176 520.833 416.62ZM522.045 417.485C521.763 418.066 521.639 418.611 521.674 419.121C521.707 419.634 521.855 420.08 522.118 420.459C522.378 420.842 522.708 421.13 523.107 421.323L524.452 421.976C524.408 421.877 524.406 421.707 524.446 421.465C524.489 421.229 524.554 420.963 524.641 420.667C524.731 420.377 524.821 420.095 524.913 419.822C525.007 419.554 525.082 419.337 525.137 419.169C525.273 418.763 525.365 418.367 525.414 417.98C525.465 417.6 525.43 417.254 525.309 416.944C525.19 416.64 524.943 416.398 524.569 416.216C524.058 415.968 523.58 415.97 523.135 416.221C522.693 416.478 522.329 416.899 522.045 417.485Z" fill="black"/>
<path d="M520.833 416.62C521.127 416.014 521.508 415.519 521.977 415.136C522.449 414.755 522.974 414.524 523.551 414.445C524.132 414.368 524.734 414.481 525.357 414.783C525.906 415.049 526.298 415.372 526.533 415.753C526.773 416.136 526.903 416.556 526.923 417.012C526.943 417.467 526.895 417.937 526.779 418.419C526.665 418.907 526.529 419.388 526.372 419.86C526.165 420.478 525.992 420.976 525.854 421.355C525.718 421.741 525.658 422.04 525.673 422.252C525.686 422.469 525.811 422.634 526.047 422.749L526.097 422.773C526.712 423.072 527.271 423.135 527.775 422.964C528.277 422.797 528.692 422.375 529.02 421.698C529.361 420.997 529.474 420.372 529.36 419.824C529.246 419.277 529.054 418.837 528.784 418.506L529.959 417.353C530.42 417.884 530.711 418.436 530.834 419.008C530.959 419.586 530.965 420.154 530.854 420.71C530.745 421.273 530.574 421.795 530.34 422.277C530.191 422.584 529.983 422.919 529.714 423.281C529.448 423.65 529.113 423.966 528.707 424.231C528.299 424.5 527.809 424.65 527.235 424.679C526.661 424.709 525.994 424.539 525.234 424.171L518.929 421.113L519.643 419.643L520.939 420.272L520.975 420.197C520.815 419.997 520.674 419.723 520.55 419.376C520.426 419.028 520.375 418.621 520.396 418.155C520.417 417.688 520.563 417.176 520.833 416.62ZM522.045 417.485C521.763 418.066 521.639 418.611 521.674 419.121C521.707 419.634 521.855 420.08 522.118 420.459C522.378 420.842 522.708 421.13 523.107 421.323L524.452 421.976C524.408 421.877 524.406 421.707 524.446 421.465C524.489 421.229 524.554 420.963 524.641 420.667C524.731 420.377 524.821 420.095 524.913 419.822C525.007 419.554 525.082 419.337 525.137 419.169C525.273 418.763 525.365 418.367 525.414 417.98C525.465 417.6 525.43 417.254 525.309 416.944C525.19 416.64 524.943 416.398 524.569 416.216C524.058 415.968 523.58 415.97 523.135 416.221C522.693 416.478 522.329 416.899 522.045 417.485Z" fill="#1C6F9B"/>
<path d="M519.816 427.559L521.597 428.517L521.436 428.807L523.315 435.173L522.333 436.94L520.359 430.173L520.427 430.052L519.816 427.559ZM517.167 424.345L529.563 431.232L528.769 432.66L516.373 425.773L517.167 424.345ZM513.884 430.25L520.502 429.176L520.93 430.744L512.874 432.065L513.884 430.25Z" fill="black"/>
<path d="M519.816 427.559L521.597 428.517L521.436 428.807L523.315 435.173L522.333 436.94L520.359 430.173L520.427 430.052L519.816 427.559ZM517.167 424.345L529.563 431.232L528.769 432.66L516.373 425.773L517.167 424.345ZM513.884 430.25L520.502 429.176L520.93 430.744L512.874 432.065L513.884 430.25Z" fill="#1C6F9B"/>
<path d="M509.696 436.635C510.243 435.769 510.906 435.142 511.685 434.755C512.466 434.374 513.309 434.232 514.214 434.329C515.121 434.431 516.035 434.773 516.957 435.354C517.878 435.936 518.584 436.616 519.075 437.394C519.567 438.18 519.82 438.999 519.832 439.853C519.846 440.713 519.597 441.549 519.085 442.36C518.789 442.829 518.419 443.242 517.975 443.6C517.53 443.958 517.014 444.214 516.426 444.367C515.842 444.522 515.193 444.53 514.479 444.391C513.764 444.251 512.987 443.917 512.148 443.387L511.562 443.018L515.938 436.087L517.132 436.84L513.644 442.366C514.152 442.686 514.668 442.871 515.195 442.919C515.719 442.971 516.213 442.884 516.677 442.659C517.139 442.437 517.528 442.077 517.843 441.577C518.19 441.027 518.354 440.465 518.335 439.89C518.317 439.322 518.159 438.794 517.861 438.306C517.563 437.818 517.166 437.418 516.67 437.105L515.874 436.603C515.194 436.174 514.545 435.928 513.924 435.865C513.306 435.807 512.74 435.912 512.228 436.178C511.72 436.447 511.29 436.86 510.938 437.418C510.709 437.781 510.552 438.141 510.469 438.498C510.387 438.861 510.382 439.215 510.453 439.56C510.529 439.908 510.686 440.239 510.924 440.553L509.707 441.651C509.343 441.225 509.093 440.737 508.959 440.189C508.829 439.643 508.822 439.066 508.939 438.457C509.059 437.851 509.312 437.244 509.696 436.635Z" fill="black"/>
<path d="M509.696 436.635C510.243 435.769 510.906 435.142 511.685 434.755C512.466 434.374 513.309 434.232 514.214 434.329C515.121 434.431 516.035 434.773 516.957 435.354C517.878 435.936 518.584 436.616 519.075 437.394C519.567 438.18 519.82 438.999 519.832 439.853C519.846 440.713 519.597 441.549 519.085 442.36C518.789 442.829 518.419 443.242 517.975 443.6C517.53 443.958 517.014 444.214 516.426 444.367C515.842 444.522 515.193 444.53 514.479 444.391C513.764 444.251 512.987 443.917 512.148 443.387L511.562 443.018L515.938 436.087L517.132 436.84L513.644 442.366C514.152 442.686 514.668 442.871 515.195 442.919C515.719 442.971 516.213 442.884 516.677 442.659C517.139 442.437 517.528 442.077 517.843 441.577C518.19 441.027 518.354 440.465 518.335 439.89C518.317 439.322 518.159 438.794 517.861 438.306C517.563 437.818 517.166 437.418 516.67 437.105L515.874 436.603C515.194 436.174 514.545 435.928 513.924 435.865C513.306 435.807 512.74 435.912 512.228 436.178C511.72 436.447 511.29 436.86 510.938 437.418C510.709 437.781 510.552 438.141 510.469 438.498C510.387 438.861 510.382 439.215 510.453 439.56C510.529 439.908 510.686 440.239 510.924 440.553L509.707 441.651C509.343 441.225 509.093 440.737 508.959 440.189C508.829 439.643 508.822 439.066 508.939 438.457C509.059 437.851 509.312 437.244 509.696 436.635Z" fill="#1C6F9B"/>
<path d="M510.339 447.671L505.126 443.963L506.073 442.632L514.739 448.796L513.824 450.082L512.47 449.119L512.39 449.232C512.685 449.748 512.819 450.308 512.792 450.911C512.768 451.517 512.523 452.147 512.058 452.802C511.64 453.388 511.154 453.816 510.601 454.084C510.05 454.356 509.446 454.441 508.787 454.34C508.131 454.242 507.435 453.931 506.698 453.407L501.191 449.489L502.139 448.159L507.555 452.011C508.236 452.496 508.892 452.696 509.523 452.613C510.159 452.533 510.696 452.184 511.135 451.567C511.437 451.143 511.615 450.697 511.669 450.231C511.72 449.77 511.638 449.317 511.42 448.874C511.203 448.43 510.843 448.03 510.339 447.671Z" fill="black"/>
<path d="M510.339 447.671L505.126 443.963L506.073 442.632L514.739 448.796L513.824 450.082L512.47 449.119L512.39 449.232C512.685 449.748 512.819 450.308 512.792 450.911C512.768 451.517 512.523 452.147 512.058 452.802C511.64 453.388 511.154 453.816 510.601 454.084C510.05 454.356 509.446 454.441 508.787 454.34C508.131 454.242 507.435 453.931 506.698 453.407L501.191 449.489L502.139 448.159L507.555 452.011C508.236 452.496 508.892 452.696 509.523 452.613C510.159 452.533 510.696 452.184 511.135 451.567C511.437 451.143 511.615 450.697 511.669 450.231C511.72 449.77 511.638 449.317 511.42 448.874C511.203 448.43 510.843 448.03 510.339 447.671Z" fill="#1C6F9B"/>
<path d="M489.126 463.856C489.766 463.141 490.498 462.665 491.321 462.43C492.142 462.198 492.994 462.204 493.878 462.449C494.758 462.698 495.607 463.188 496.426 463.92C497.252 464.658 497.839 465.452 498.187 466.302C498.533 467.156 498.635 468.003 498.496 468.844C498.353 469.689 497.962 470.469 497.322 471.184C496.682 471.899 495.951 472.373 495.131 472.605C494.307 472.841 493.453 472.833 492.569 472.581C491.683 472.333 490.826 471.84 490 471.102C489.182 470.37 488.601 469.578 488.26 468.728C487.915 467.881 487.814 467.036 487.956 466.191C488.096 465.35 488.485 464.572 489.126 463.856ZM490.22 464.835C489.734 465.378 489.473 465.95 489.438 466.55C489.402 467.15 489.537 467.737 489.84 468.312C490.143 468.886 490.56 469.41 491.09 469.884C491.62 470.358 492.189 470.715 492.797 470.956C493.406 471.196 494.008 471.267 494.604 471.169C495.2 471.07 495.742 470.749 496.228 470.206C496.714 469.662 496.973 469.089 497.005 468.486C497.037 467.883 496.899 467.292 496.592 466.715C496.285 466.137 495.867 465.611 495.337 465.138C494.807 464.664 494.24 464.308 493.635 464.071C493.03 463.833 492.431 463.765 491.838 463.867C491.245 463.968 490.706 464.291 490.22 464.835Z" fill="black"/>
<path d="M489.126 463.856C489.766 463.141 490.498 462.665 491.321 462.43C492.142 462.198 492.994 462.204 493.878 462.449C494.758 462.698 495.607 463.188 496.426 463.92C497.252 464.658 497.839 465.452 498.187 466.302C498.533 467.156 498.635 468.003 498.496 468.844C498.353 469.689 497.962 470.469 497.322 471.184C496.682 471.899 495.951 472.373 495.131 472.605C494.307 472.841 493.453 472.833 492.569 472.581C491.683 472.333 490.826 471.84 490 471.102C489.182 470.37 488.601 469.578 488.26 468.728C487.915 467.881 487.814 467.036 487.956 466.191C488.096 465.35 488.485 464.572 489.126 463.856ZM490.22 464.835C489.734 465.378 489.473 465.95 489.438 466.55C489.402 467.15 489.537 467.737 489.84 468.312C490.143 468.886 490.56 469.41 491.09 469.884C491.62 470.358 492.189 470.715 492.797 470.956C493.406 471.196 494.008 471.267 494.604 471.169C495.2 471.07 495.742 470.749 496.228 470.206C496.714 469.662 496.973 469.089 497.005 468.486C497.037 467.883 496.899 467.292 496.592 466.715C496.285 466.137 495.867 465.611 495.337 465.138C494.807 464.664 494.24 464.308 493.635 464.071C493.03 463.833 492.431 463.765 491.838 463.867C491.245 463.968 490.706 464.291 490.22 464.835Z" fill="#1C6F9B"/>
<path d="M482.675 477.216L487.122 481.66L485.966 482.815L478.445 475.298L479.6 474.143L480.873 475.415L480.952 475.337C480.746 474.779 480.695 474.18 480.8 473.541C480.907 472.904 481.245 472.302 481.813 471.734C482.283 471.265 482.804 470.95 483.375 470.79C483.95 470.633 484.55 470.659 485.177 470.868C485.807 471.08 486.442 471.506 487.082 472.145L491.861 476.922L490.706 478.077L486.005 473.379C485.456 472.83 484.865 472.547 484.232 472.527C483.596 472.511 483.037 472.743 482.558 473.222C482.27 473.509 482.052 473.875 481.902 474.319C481.748 474.766 481.722 475.242 481.823 475.748C481.921 476.257 482.205 476.746 482.675 477.216Z" fill="black"/>
<path d="M482.675 477.216L487.122 481.66L485.966 482.815L478.445 475.298L479.6 474.143L480.873 475.415L480.952 475.337C480.746 474.779 480.695 474.18 480.8 473.541C480.907 472.904 481.245 472.302 481.813 471.734C482.283 471.265 482.804 470.95 483.375 470.79C483.95 470.633 484.55 470.659 485.177 470.868C485.807 471.08 486.442 471.506 487.082 472.145L491.861 476.922L490.706 478.077L486.005 473.379C485.456 472.83 484.865 472.547 484.232 472.527C483.596 472.511 483.037 472.743 482.558 473.222C482.27 473.509 482.052 473.875 481.902 474.319C481.748 474.766 481.722 475.242 481.823 475.748C481.921 476.257 482.205 476.746 482.675 477.216Z" fill="#1C6F9B"/>
<path d="M474.631 478.827L481.723 486.75L480.546 487.803L479.475 486.606L479.393 486.68C479.599 487.201 479.622 487.753 479.462 488.336C479.303 488.918 478.985 489.422 478.51 489.847C478.421 489.927 478.308 490.025 478.17 490.141C478.033 490.258 477.927 490.344 477.852 490.398L476.744 489.16C476.794 489.134 476.903 489.064 477.069 488.953C477.235 488.848 477.399 488.723 477.561 488.578C477.946 488.233 478.218 487.845 478.376 487.413C478.534 486.987 478.574 486.554 478.497 486.115C478.42 485.683 478.221 485.288 477.901 484.93L473.413 479.916L474.631 478.827Z" fill="black"/>
<path d="M474.631 478.827L481.723 486.75L480.546 487.803L479.475 486.606L479.393 486.68C479.599 487.201 479.622 487.753 479.462 488.336C479.303 488.918 478.985 489.422 478.51 489.847C478.421 489.927 478.308 490.025 478.17 490.141C478.033 490.258 477.927 490.344 477.852 490.398L476.744 489.16C476.794 489.134 476.903 489.064 477.069 488.953C477.235 488.848 477.399 488.723 477.561 488.578C477.946 488.233 478.218 487.845 478.376 487.413C478.534 486.987 478.574 486.554 478.497 486.115C478.42 485.683 478.221 485.288 477.901 484.93L473.413 479.916L474.631 478.827Z" fill="#1C6F9B"/>
<path d="M466.346 496.57L467.233 495.329C467.458 495.462 467.713 495.563 467.998 495.631C468.282 495.705 468.59 495.707 468.924 495.636C469.257 495.565 469.609 495.381 469.98 495.084C470.489 494.678 470.819 494.222 470.971 493.717C471.121 493.218 471.054 492.79 470.769 492.434C470.515 492.116 470.2 491.958 469.822 491.959C469.444 491.959 468.961 492.094 468.372 492.363L466.897 493.046C466.01 493.459 465.236 493.626 464.575 493.545C463.917 493.469 463.355 493.14 462.891 492.56C462.511 492.084 462.308 491.549 462.282 490.955C462.253 490.364 462.395 489.766 462.709 489.161C463.023 488.556 463.503 487.995 464.148 487.479C464.996 486.802 465.844 486.426 466.693 486.35C467.543 486.274 468.324 486.53 469.037 487.118L468.067 488.389C467.594 488.034 467.108 487.874 466.608 487.906C466.105 487.942 465.592 488.169 465.069 488.587C464.474 489.062 464.103 489.566 463.955 490.098C463.806 490.636 463.874 491.083 464.159 491.44C464.39 491.729 464.684 491.89 465.042 491.923C465.402 491.96 465.83 491.86 466.327 491.623L467.971 490.841C468.876 490.413 469.658 490.246 470.318 490.339C470.977 490.439 471.535 490.776 471.994 491.349C472.368 491.817 472.568 492.337 472.593 492.908C472.614 493.482 472.478 494.054 472.185 494.625C471.887 495.2 471.447 495.72 470.862 496.187C470.04 496.844 469.25 497.179 468.493 497.193C467.733 497.21 467.017 497.002 466.346 496.57Z" fill="black"/>
<path d="M466.346 496.57L467.233 495.329C467.458 495.462 467.713 495.563 467.998 495.631C468.282 495.705 468.59 495.707 468.924 495.636C469.257 495.565 469.609 495.381 469.98 495.084C470.489 494.678 470.819 494.222 470.971 493.717C471.121 493.218 471.054 492.79 470.769 492.434C470.515 492.116 470.2 491.958 469.822 491.959C469.444 491.959 468.961 492.094 468.372 492.363L466.897 493.046C466.01 493.459 465.236 493.626 464.575 493.545C463.917 493.469 463.355 493.14 462.891 492.56C462.511 492.084 462.308 491.549 462.282 490.955C462.253 490.364 462.395 489.766 462.709 489.161C463.023 488.556 463.503 487.995 464.148 487.479C464.996 486.802 465.844 486.426 466.693 486.35C467.543 486.274 468.324 486.53 469.037 487.118L468.067 488.389C467.594 488.034 467.108 487.874 466.608 487.906C466.105 487.942 465.592 488.169 465.069 488.587C464.474 489.062 464.103 489.566 463.955 490.098C463.806 490.636 463.874 491.083 464.159 491.44C464.39 491.729 464.684 491.89 465.042 491.923C465.402 491.96 465.83 491.86 466.327 491.623L467.971 490.841C468.876 490.413 469.658 490.246 470.318 490.339C470.977 490.439 471.535 490.776 471.994 491.349C472.368 491.817 472.568 492.337 472.593 492.908C472.614 493.482 472.478 494.054 472.185 494.625C471.887 495.2 471.447 495.72 470.862 496.187C470.04 496.844 469.25 497.179 468.493 497.193C467.733 497.21 467.017 497.002 466.346 496.57Z" fill="#1C6F9B"/>
<path d="M454.735 494.572C455.57 493.978 456.421 493.649 457.289 493.587C458.156 493.531 458.99 493.719 459.791 494.152C460.591 494.591 461.307 495.254 461.939 496.141C462.571 497.028 462.966 497.925 463.125 498.832C463.282 499.745 463.204 500.599 462.892 501.393C462.578 502.194 462.03 502.873 461.248 503.43C460.797 503.751 460.298 503.993 459.751 504.156C459.203 504.319 458.629 504.359 458.027 504.278C457.428 504.2 456.824 503.961 456.216 503.561C455.608 503.161 455.016 502.557 454.441 501.749L454.039 501.185L460.718 496.432L461.537 497.582L456.212 501.372C456.56 501.86 456.969 502.227 457.437 502.471C457.902 502.718 458.392 502.825 458.907 502.793C459.419 502.763 459.915 502.577 460.397 502.234C460.927 501.857 461.292 501.399 461.492 500.86C461.691 500.328 461.745 499.779 461.655 499.215C461.564 498.65 461.349 498.13 461.009 497.652L460.463 496.885C459.997 496.231 459.489 495.757 458.94 495.463C458.389 495.175 457.826 495.057 457.252 495.109C456.679 495.165 456.124 495.384 455.587 495.767C455.237 496.016 454.956 496.29 454.743 496.588C454.53 496.893 454.391 497.219 454.326 497.565C454.263 497.915 454.283 498.281 454.384 498.662L452.841 499.216C452.666 498.684 452.62 498.139 452.704 497.58C452.791 497.026 453.004 496.489 453.343 495.97C453.684 495.455 454.149 494.989 454.735 494.572Z" fill="black"/>
<path d="M454.735 494.572C455.57 493.978 456.421 493.649 457.289 493.587C458.156 493.531 458.99 493.719 459.791 494.152C460.591 494.591 461.307 495.254 461.939 496.141C462.571 497.028 462.966 497.925 463.125 498.832C463.282 499.745 463.204 500.599 462.892 501.393C462.578 502.194 462.03 502.873 461.248 503.43C460.797 503.751 460.298 503.993 459.751 504.156C459.203 504.319 458.629 504.359 458.027 504.278C457.428 504.2 456.824 503.961 456.216 503.561C455.608 503.161 455.016 502.557 454.441 501.749L454.039 501.185L460.718 496.432L461.537 497.582L456.212 501.372C456.56 501.86 456.969 502.227 457.437 502.471C457.902 502.718 458.392 502.825 458.907 502.793C459.419 502.763 459.915 502.577 460.397 502.234C460.927 501.857 461.292 501.399 461.492 500.86C461.691 500.328 461.745 499.779 461.655 499.215C461.564 498.65 461.349 498.13 461.009 497.652L460.463 496.885C459.997 496.231 459.489 495.757 458.94 495.463C458.389 495.175 457.826 495.057 457.252 495.109C456.679 495.165 456.124 495.384 455.587 495.767C455.237 496.016 454.956 496.29 454.743 496.588C454.53 496.893 454.391 497.219 454.326 497.565C454.263 497.915 454.283 498.281 454.384 498.662L452.841 499.216C452.666 498.684 452.62 498.139 452.704 497.58C452.791 497.026 453.004 496.489 453.343 495.97C453.684 495.455 454.149 494.989 454.735 494.572Z" fill="#1C6F9B"/>
<path d="M452.425 513.412L444.855 501.425L446.237 500.553L453.807 512.54L452.425 513.412Z" fill="black"/>
<path d="M452.425 513.412L444.855 501.425L446.237 500.553L453.807 512.54L452.425 513.412Z" fill="#1C6F9B"/>
<path d="M435.623 519.035L433.891 507.832L435.344 507.025L443.95 514.407L442.401 515.268L435.716 509.289L435.619 509.343L437.172 518.174L435.623 519.035Z" fill="black"/>
<path d="M435.623 519.035L433.891 507.832L435.344 507.025L443.95 514.407L442.401 515.268L435.716 509.289L435.619 509.343L437.172 518.174L435.623 519.035Z" fill="#1C6F9B"/>
<path d="M425.114 512.075C426.036 511.628 426.93 511.445 427.796 511.528C428.66 511.616 429.451 511.94 430.169 512.5C430.885 513.066 431.481 513.838 431.957 514.818C432.433 515.798 432.673 516.748 432.679 517.668C432.683 518.595 432.464 519.424 432.024 520.156C431.582 520.894 430.929 521.472 430.065 521.891C429.567 522.133 429.034 522.289 428.468 522.358C427.901 522.428 427.328 522.373 426.748 522.193C426.17 522.017 425.614 521.681 425.081 521.186C424.548 520.69 424.065 519.996 423.631 519.104L423.329 518.481L430.705 514.902L431.322 516.173L425.441 519.026C425.703 519.566 426.045 519.995 426.466 520.313C426.884 520.634 427.349 520.821 427.863 520.875C428.372 520.93 428.892 520.829 429.424 520.571C430.01 520.287 430.446 519.896 430.732 519.398C431.017 518.906 431.162 518.374 431.166 517.802C431.171 517.231 431.045 516.681 430.789 516.154L430.378 515.307C430.027 514.585 429.605 514.033 429.112 513.651C428.617 513.276 428.082 513.067 427.506 513.023C426.933 512.983 426.349 513.107 425.755 513.395C425.369 513.583 425.046 513.806 424.787 514.065C424.526 514.33 424.334 514.628 424.213 514.959C424.093 515.294 424.052 515.658 424.088 516.05L422.475 516.341C422.39 515.787 422.436 515.241 422.612 514.705C422.789 514.172 423.088 513.679 423.509 513.223C423.931 512.772 424.466 512.389 425.114 512.075Z" fill="black"/>
<path d="M425.114 512.075C426.036 511.628 426.93 511.445 427.796 511.528C428.66 511.616 429.451 511.94 430.169 512.5C430.885 513.066 431.481 513.838 431.957 514.818C432.433 515.798 432.673 516.748 432.679 517.668C432.683 518.595 432.464 519.424 432.024 520.156C431.582 520.894 430.929 521.472 430.065 521.891C429.567 522.133 429.034 522.289 428.468 522.358C427.901 522.428 427.328 522.373 426.748 522.193C426.17 522.017 425.614 521.681 425.081 521.186C424.548 520.69 424.065 519.996 423.631 519.104L423.329 518.481L430.705 514.902L431.322 516.173L425.441 519.026C425.703 519.566 426.045 519.995 426.466 520.313C426.884 520.634 427.349 520.821 427.863 520.875C428.372 520.93 428.892 520.829 429.424 520.571C430.01 520.287 430.446 519.896 430.732 519.398C431.017 518.906 431.162 518.374 431.166 517.802C431.171 517.231 431.045 516.681 430.789 516.154L430.378 515.307C430.027 514.585 429.605 514.033 429.112 513.651C428.617 513.276 428.082 513.067 427.506 513.023C426.933 512.983 426.349 513.107 425.755 513.395C425.369 513.583 425.046 513.806 424.787 514.065C424.526 514.33 424.334 514.628 424.213 514.959C424.093 515.294 424.052 515.658 424.088 516.05L422.475 516.341C422.39 515.787 422.436 515.241 422.612 514.705C422.789 514.172 423.088 513.679 423.509 513.223C423.931 512.772 424.466 512.389 425.114 512.075Z" fill="#1C6F9B"/>
<path d="M414.542 526.009L415.736 525.06C415.916 525.25 416.133 525.416 416.388 525.56C416.641 525.709 416.937 525.795 417.277 525.818C417.617 525.841 418.006 525.761 418.445 525.578C419.045 525.326 419.488 524.979 419.772 524.535C420.054 524.097 420.107 523.667 419.931 523.245C419.774 522.871 419.514 522.632 419.15 522.529C418.787 522.426 418.285 522.423 417.646 522.52L416.039 522.772C415.073 522.926 414.283 522.874 413.669 522.615C413.058 522.361 412.608 521.891 412.321 521.206C412.086 520.644 412.038 520.074 412.176 519.496C412.31 518.919 412.611 518.383 413.079 517.887C413.547 517.391 414.162 516.984 414.925 516.665C415.925 516.247 416.845 516.117 417.682 516.277C418.52 516.437 419.201 516.898 419.724 517.659L418.443 518.615C418.086 518.144 417.663 517.856 417.173 517.751C416.679 517.647 416.124 517.724 415.506 517.983C414.803 518.277 414.308 518.659 414.02 519.13C413.729 519.607 413.671 520.056 413.848 520.477C413.99 520.818 414.229 521.053 414.564 521.183C414.9 521.318 415.34 521.339 415.882 521.247L417.677 520.946C418.665 520.783 419.463 520.837 420.072 521.108C420.678 521.385 421.123 521.861 421.406 522.538C421.638 523.092 421.687 523.646 421.555 524.202C421.418 524.759 421.13 525.273 420.69 525.742C420.247 526.212 419.68 526.592 418.99 526.88C418.019 527.286 417.168 527.392 416.436 527.198C415.7 527.006 415.069 526.61 414.542 526.009Z" fill="black"/>
<path d="M414.542 526.009L415.736 525.06C415.916 525.25 416.133 525.416 416.388 525.56C416.641 525.709 416.937 525.795 417.277 525.818C417.617 525.841 418.006 525.761 418.445 525.578C419.045 525.326 419.488 524.979 419.772 524.535C420.054 524.097 420.107 523.667 419.931 523.245C419.774 522.871 419.514 522.632 419.15 522.529C418.787 522.426 418.285 522.423 417.646 522.52L416.039 522.772C415.073 522.926 414.283 522.874 413.669 522.615C413.058 522.361 412.608 521.891 412.321 521.206C412.086 520.644 412.038 520.074 412.176 519.496C412.31 518.919 412.611 518.383 413.079 517.887C413.547 517.391 414.162 516.984 414.925 516.665C415.925 516.247 416.845 516.117 417.682 516.277C418.52 516.437 419.201 516.898 419.724 517.659L418.443 518.615C418.086 518.144 417.663 517.856 417.173 517.751C416.679 517.647 416.124 517.724 415.506 517.983C414.803 518.277 414.308 518.659 414.02 519.13C413.729 519.607 413.671 520.056 413.848 520.477C413.99 520.818 414.229 521.053 414.564 521.183C414.9 521.318 415.34 521.339 415.882 521.247L417.677 520.946C418.665 520.783 419.463 520.837 420.072 521.108C420.678 521.385 421.123 521.861 421.406 522.538C421.638 523.092 421.687 523.646 421.555 524.202C421.418 524.759 421.13 525.273 420.69 525.742C420.247 526.212 419.68 526.592 418.99 526.88C418.019 527.286 417.168 527.392 416.436 527.198C415.7 527.006 415.069 526.61 414.542 526.009Z" fill="#1C6F9B"/>
</svg>
