<svg width="180" height="45" viewBox="0 0 180 45" fill="none" xmlns="http://www.w3.org/2000/svg">
<path d="M13.8896 9.04186C13.8896 4.64819 17.4514 1.08643 21.8451 1.08643V1.08643V19.7094H13.8896V9.04186Z" fill="#FF492F"/>
<path d="M13.9463 25.4581H21.9017V36.1257C21.9017 40.5193 18.34 44.0811 13.9463 44.0811V44.0811V25.4581Z" fill="#FF9F1C"/>
<path d="M27.123 11.7152V11.7152C31.5167 11.7152 35.0785 15.277 35.0785 19.6707V30.3382H27.123V11.7152Z" fill="#078E14"/>
<path d="M0.769531 19.6706C0.769531 15.277 4.3313 11.7152 8.72497 11.7152V11.7152V30.3382H0.769531V19.6706Z" fill="#1064AE"/>
<path d="M57.7234 33.5837V33.2637L59.0354 32.9437C59.9101 32.7517 60.3474 32.2184 60.3474 31.3437V13.1037H57.6274C56.8381 13.1037 56.2728 13.3171 55.9314 13.7437C55.5901 14.1491 55.2274 14.7144 54.8434 15.4397L53.6914 17.6797H53.3714L53.5314 12.4637H71.9954L72.1234 17.6797H71.8034L70.6514 15.4397C70.2888 14.7144 69.9368 14.1491 69.5954 13.7437C69.2541 13.3171 68.6888 13.1037 67.8994 13.1037H65.1794V31.3437C65.1794 32.2184 65.6168 32.7517 66.4914 32.9437L67.8034 33.2637V33.5837H57.7234ZM79.0924 34.0637C77.4711 34.0637 76.0631 33.7331 74.8684 33.0717C73.6738 32.3891 72.7458 31.4291 72.0844 30.1917C71.4444 28.9544 71.1244 27.5037 71.1244 25.8397C71.1244 24.1757 71.4658 22.7357 72.1484 21.5197C72.8524 20.3037 73.8018 19.3651 74.9964 18.7037C76.2124 18.0424 77.5778 17.7117 79.0924 17.7117C80.6071 17.7117 81.9618 18.0424 83.1564 18.7037C84.3511 19.3437 85.2898 20.2717 85.9724 21.4877C86.6764 22.7037 87.0284 24.1544 87.0284 25.8397C87.0284 27.5251 86.6978 28.9864 86.0364 30.2237C85.3964 31.4397 84.4791 32.3891 83.2844 33.0717C82.1111 33.7331 80.7138 34.0637 79.0924 34.0637ZM79.0924 33.4237C79.8391 33.4237 80.4364 33.2104 80.8844 32.7837C81.3324 32.3571 81.6524 31.5997 81.8444 30.5117C82.0578 29.4237 82.1644 27.8877 82.1644 25.9037C82.1644 23.8984 82.0578 22.3517 81.8444 21.2637C81.6524 20.1757 81.3324 19.4184 80.8844 18.9917C80.4364 18.5651 79.8391 18.3517 79.0924 18.3517C78.3458 18.3517 77.7378 18.5651 77.2684 18.9917C76.8204 19.4184 76.4898 20.1757 76.2764 21.2637C76.0844 22.3517 75.9884 23.8984 75.9884 25.9037C75.9884 27.8877 76.0844 29.4237 76.2764 30.5117C76.4898 31.5997 76.8204 32.3571 77.2684 32.7837C77.7378 33.2104 78.3458 33.4237 79.0924 33.4237ZM94.1009 34.0637C93.2689 34.0637 92.5009 33.9037 91.7969 33.5837C91.1143 33.2637 90.5703 32.7517 90.1649 32.0477C89.7809 31.3224 89.5996 30.3731 89.6209 29.1997L89.7169 20.9757C89.7169 20.4851 89.6316 20.1331 89.4609 19.9197C89.2903 19.7064 89.0236 19.5571 88.6609 19.4717L88.2769 19.3437V19.0237L94.0049 17.9037L94.3249 18.2237L94.1649 22.7677V30.4797C94.1649 31.1624 94.3569 31.6637 94.7409 31.9837C95.1463 32.3037 95.6476 32.4637 96.2449 32.4637C96.8423 32.4637 97.3756 32.3784 97.8449 32.2077C98.3143 32.0371 98.7836 31.7811 99.2529 31.4397L99.3809 21.0077C99.3809 20.5171 99.3063 20.1757 99.1569 19.9837C99.0076 19.7704 98.7303 19.6211 98.3249 19.5357L98.0049 19.4397V19.1197L103.605 17.9037L103.925 18.2237L103.829 22.7677V31.4397C103.829 31.9091 103.893 32.2717 104.021 32.5277C104.149 32.7837 104.426 32.9971 104.853 33.1677L105.173 33.2637V33.5837L99.5729 33.9037L99.2849 32.0157C98.5809 32.5917 97.8129 33.0824 96.9809 33.4877C96.1703 33.8717 95.2103 34.0637 94.1009 34.0637ZM106.465 33.5837V33.2637L106.945 33.1357C107.372 33.0077 107.66 32.8157 107.809 32.5597C107.98 32.3037 108.065 31.9731 108.065 31.5677V21.5517C108.065 21.0824 107.98 20.7411 107.809 20.5277C107.66 20.2931 107.372 20.1331 106.945 20.0477L106.465 19.9197V19.5997L111.969 17.7437L112.289 18.0637L112.577 20.8157V21.0717C112.876 20.4744 113.26 19.9304 113.729 19.4397C114.22 18.9277 114.753 18.5117 115.329 18.1917C115.927 17.8717 116.513 17.7117 117.089 17.7117C117.9 17.7117 118.519 17.9357 118.945 18.3837C119.372 18.8317 119.585 19.3971 119.585 20.0797C119.585 20.8051 119.372 21.3704 118.945 21.7757C118.54 22.1597 118.049 22.3517 117.473 22.3517C116.577 22.3517 115.788 21.9037 115.105 21.0077L115.041 20.9437C114.828 20.6451 114.583 20.4851 114.305 20.4637C114.028 20.4211 113.772 20.5491 113.537 20.8477C113.324 21.0397 113.143 21.2744 112.993 21.5517C112.865 21.8077 112.737 22.1064 112.609 22.4477V31.3757C112.609 32.2291 112.983 32.7624 113.729 32.9757L114.753 33.2637V33.5837H106.465Z" fill="#1D1B1B"/>
<path d="M120.59 40.9437V40.6237L120.974 40.4957C121.764 40.2824 122.158 39.7704 122.158 38.9597V21.5517C122.158 21.0824 122.073 20.7304 121.902 20.4957C121.753 20.2611 121.465 20.1011 121.038 20.0157L120.59 19.9197V19.5997L126.03 17.7437L126.35 18.0637L126.638 19.0557C127.342 18.6291 128.121 18.2984 128.974 18.0637C129.849 17.8291 130.745 17.7117 131.662 17.7117C133.497 17.7117 134.948 18.4157 136.014 19.8237C137.102 21.2104 137.646 23.2051 137.646 25.8077C137.646 28.3677 137.049 30.3837 135.854 31.8557C134.681 33.3277 133.017 34.0637 130.862 34.0637C129.177 34.0637 127.758 33.8184 126.606 33.3277V38.8637C126.606 39.7171 126.99 40.2504 127.758 40.4637L128.366 40.6237V40.9437H120.59ZM129.326 33.1357C130.393 33.1357 131.236 32.5811 131.854 31.4717C132.494 30.3624 132.814 28.5171 132.814 25.9357C132.814 23.3544 132.516 21.5517 131.918 20.5277C131.321 19.4824 130.457 18.9597 129.326 18.9597C128.537 18.9597 127.662 19.2157 126.702 19.7277V32.6237C127.513 32.9651 128.388 33.1357 129.326 33.1357ZM139.061 33.5837V33.2637L139.445 33.1357C140.213 32.8797 140.597 32.3464 140.597 31.5357V14.4157C140.597 13.9891 140.512 13.6691 140.341 13.4557C140.171 13.2211 139.872 13.0504 139.445 12.9437L139.029 12.8477V12.5277L144.885 11.1517L145.269 11.4397L145.141 15.9197V26.8637C145.141 27.6531 145.141 28.4424 145.141 29.2317C145.163 29.9997 145.173 30.7677 145.173 31.5357C145.173 31.9624 145.259 32.3144 145.429 32.5917C145.6 32.8477 145.888 33.0397 146.293 33.1677L146.709 33.2637V33.5837H139.061ZM153.788 34.0637C152.956 34.0637 152.188 33.9037 151.484 33.5837C150.802 33.2637 150.258 32.7517 149.852 32.0477C149.468 31.3224 149.287 30.3731 149.308 29.1997L149.404 20.9757C149.404 20.4851 149.319 20.1331 149.148 19.9197C148.978 19.7064 148.711 19.5571 148.348 19.4717L147.964 19.3437V19.0237L153.692 17.9037L154.012 18.2237L153.852 22.7677V30.4797C153.852 31.1624 154.044 31.6637 154.428 31.9837C154.834 32.3037 155.335 32.4637 155.932 32.4637C156.53 32.4637 157.063 32.3784 157.532 32.2077C158.002 32.0371 158.471 31.7811 158.94 31.4397L159.068 21.0077C159.068 20.5171 158.994 20.1757 158.844 19.9837C158.695 19.7704 158.418 19.6211 158.012 19.5357L157.692 19.4397V19.1197L163.292 17.9037L163.612 18.2237L163.516 22.7677V31.4397C163.516 31.9091 163.58 32.2717 163.708 32.5277C163.836 32.7837 164.114 32.9971 164.54 33.1677L164.86 33.2637V33.5837L159.26 33.9037L158.972 32.0157C158.268 32.5917 157.5 33.0824 156.668 33.4877C155.858 33.8717 154.898 34.0637 153.788 34.0637ZM171.876 34.0637C170.831 34.0637 169.892 33.9357 169.06 33.6797C168.228 33.4451 167.46 33.1464 166.756 32.7837L166.788 28.9757H167.108L168.196 30.8957C168.666 31.7491 169.178 32.3891 169.732 32.8157C170.308 33.2211 171.034 33.4237 171.908 33.4237C172.932 33.4237 173.754 33.1997 174.372 32.7517C175.012 32.2824 175.332 31.6637 175.332 30.8957C175.332 30.1917 175.108 29.6157 174.66 29.1677C174.212 28.7197 173.38 28.3144 172.164 27.9517L170.82 27.5357C169.519 27.1517 168.495 26.5544 167.748 25.7437C167.002 24.9331 166.628 23.9411 166.628 22.7677C166.628 21.3597 167.183 20.1651 168.292 19.1837C169.402 18.2024 170.991 17.7117 173.06 17.7117C173.892 17.7117 174.671 17.8077 175.396 17.9997C176.143 18.1704 176.858 18.4371 177.54 18.7997L177.348 22.2557H177.028L175.908 20.2717C175.503 19.5677 175.098 19.0771 174.692 18.7997C174.308 18.5011 173.722 18.3517 172.932 18.3517C172.207 18.3517 171.524 18.5544 170.884 18.9597C170.244 19.3651 169.924 19.9411 169.924 20.6877C169.924 21.4131 170.191 21.9891 170.724 22.4157C171.279 22.8424 172.09 23.2371 173.156 23.5997L174.596 24.0157C176.132 24.4851 177.231 25.1357 177.892 25.9677C178.554 26.7784 178.884 27.7597 178.884 28.9117C178.884 30.4691 178.266 31.7171 177.028 32.6557C175.812 33.5944 174.095 34.0637 171.876 34.0637Z" fill="#FF492F"/>
</svg>
