<svg width="25" height="25" viewBox="0 0 25 25" fill="none" xmlns="http://www.w3.org/2000/svg">
<g clip-path="url(#clip0_96_116)">
<path d="M14.3253 14.4816C13.4948 10.2046 9.57663 8.26084 5.57792 9.01826C6.03639 6.61855 8.28302 4.65644 9.74289 2.83248C9.94993 2.57383 10.0566 2.11896 9.74289 1.87523C8.97328 1.27736 8.25504 1.09121 7.59338 1.18559C7.54749 1.06 7.426 0.96636 7.2682 1.01598C4.91961 1.75548 3.39869 4.26424 2.38113 6.34337C1.03841 9.08752 0.364804 12.2643 0.522603 15.3136C0.771427 20.1209 5.06361 24.705 10.1748 23.3703C13.9061 22.3961 14.9652 17.7771 14.3253 14.4816ZM4.76206 18.3284C4.76243 18.3268 4.76343 18.3258 4.7638 18.3243C4.78718 18.2342 4.8072 18.1432 4.82846 18.0523C4.8976 18.1415 4.9604 18.2407 5.01586 18.3485C4.92819 18.3599 4.84289 18.3672 4.76131 18.369C4.76081 18.3548 4.76256 18.3421 4.76206 18.3284ZM3.68096 7.04669C3.74264 7.07305 3.80805 7.08972 3.87619 7.09606C3.67648 7.49646 3.49232 7.90383 3.32644 8.32028C3.26141 8.3015 3.19326 8.29056 3.12375 8.29069C3.29262 7.86914 3.48163 7.45568 3.68096 7.04669ZM3.16827 19.2496C3.32893 19.4156 3.50128 19.5747 3.68071 19.7279C3.65385 19.7626 3.6311 19.7999 3.61182 19.839C3.45191 19.6519 3.30095 19.4574 3.16827 19.2496ZM7.77816 19.2331C7.57224 18.9642 7.41668 18.6674 7.31894 18.3432C7.31657 18.3194 7.30874 18.2955 7.29581 18.2716C7.26571 18.1601 7.24196 18.0456 7.22679 17.9272C7.56453 18.3863 7.83598 18.8976 8.08779 19.4144C7.97923 19.3648 7.87627 19.3038 7.77816 19.2331Z" fill="#FF9F1C"/>
<path d="M15.1046 8.24504C15.5566 6.41934 16.7894 5.15905 17.685 3.51254C17.8306 3.24481 17.7734 2.82849 17.4685 2.68686C16.911 2.42783 16.41 2.14046 15.8527 1.9272C15.6839 1.56746 15.1746 1.33132 14.7846 1.68273C14.0951 2.30411 13.3423 3.10106 12.7408 3.99141C11.9432 4.96979 11.3705 6.15733 11.1802 7.29961C11.1577 7.4349 11.1811 7.57206 11.2341 7.69716C11.2054 7.74702 11.1765 7.79626 11.1477 7.84625C11.002 8.09856 11.085 8.43766 11.341 8.58377C14.3769 10.3147 15.6327 13.1332 15.5433 16.103C15.3896 16.5362 15.3506 17.0041 15.4091 17.4745C15.1634 18.969 14.6007 20.4654 13.7697 21.8474C13.5829 22.1579 13.6526 22.4485 13.8349 22.6455C13.8826 22.8009 14.0081 22.9324 14.2336 22.9833C19.0736 24.0766 23.9427 21.7604 24.4679 16.4797C24.9566 11.5659 19.8378 7.42483 15.1046 8.24504ZM16.9458 21.8999C16.9629 21.8838 16.978 21.8662 16.9948 21.8498C17.4391 21.8153 17.8453 21.6905 18.1903 21.4897C18.1943 21.5068 18.1969 21.5226 18.201 21.5399C18.2122 21.5873 18.2363 21.6232 18.2556 21.6637C17.8286 21.7723 17.3905 21.853 16.9458 21.8999ZM20.3788 12.6616C20.3329 12.7458 20.2926 12.8303 20.252 12.915C20.2488 12.8914 20.2483 12.867 20.2447 12.8434C20.2508 12.6685 20.2816 12.4884 20.3291 12.3047C20.3342 12.3082 20.34 12.3112 20.3451 12.3146C20.3694 12.4159 20.3893 12.5191 20.4049 12.6241C20.3968 12.6371 20.3863 12.6479 20.3788 12.6616ZM22.691 17.9606C22.6929 17.8452 22.691 17.7289 22.6869 17.6119C22.7628 17.4831 22.8327 17.3509 22.8921 17.2141C22.8434 17.4754 22.7724 17.7216 22.691 17.9606Z" fill="#FF9F1C"/>
</g>
<defs>
<clipPath id="clip0_96_116">
<rect width="24" height="24" fill="white" transform="translate(0.5 0.303711)"/>
</clipPath>
</defs>
</svg>
