<svg width="161" height="35" viewBox="0 0 161 35" fill="none" xmlns="http://www.w3.org/2000/svg">
<path fill-rule="evenodd" clip-rule="evenodd" d="M152.58 5.08065H151.822V0.762097H150.222V0H154.179V0.762097H152.58V5.08065ZM155.863 5.08065H155.106V0H156.537L157.969 4.06452H158.137L159.552 0H161V5.08065H160.242V0.846774H160.074L158.575 5.08065H157.531L156.032 0.846774H155.863V5.08065ZM118.394 2.07463H113.429L113.374 2.12907V5.01437C111.301 2.83678 108.846 1.69355 105.899 1.69355C102.844 1.69355 100.061 2.7279 97.6063 4.79661C94.66 7.57304 93.1869 10.8394 93.1869 14.6502V14.7046C93.1869 17.8077 94.169 20.5841 96.1331 23.0339C98.8066 26.137 102.026 27.6613 105.845 27.6613C107.784 27.6613 109.504 27.2225 111.004 26.359C111.048 26.3247 111.097 26.2884 111.151 26.25C112.722 25.121 113.302 23.8978 113.396 23.4274V26.25L113.374 26.2573V27.008L113.429 27.0625H118.394L118.448 27.008V2.12907L118.394 2.07463ZM113.374 14.7046C113.374 16.9367 112.556 18.8965 110.919 20.5841C109.337 21.9451 107.755 22.5984 106.063 22.5984H105.518C104.317 22.5984 103.062 22.2173 101.753 21.4007C99.3522 19.6587 98.2064 17.4266 98.2064 14.6502C98.2064 12.9081 98.752 11.2205 99.8978 9.64175C101.589 7.73636 103.444 6.75644 105.572 6.75644H105.954C107.263 6.75644 108.518 7.13752 109.828 7.95412C112.174 9.64174 113.374 11.8738 113.374 14.6502V14.7046ZM77.924 23.0209C73.5602 23.0209 70.8628 20.222 70.8628 14.6243C70.8628 9.02657 73.5743 6.2277 77.924 6.2277C82.2738 6.2277 84.9853 9.02657 84.9853 14.6243C84.9853 20.222 82.2738 23.0209 77.924 23.0209ZM65.6799 35H70.8063V24.9101C71.8173 25.8296 73.0049 26.5377 74.2982 26.9921C75.5915 27.4465 76.9639 27.638 78.3336 27.555C85.8044 27.555 90.38 23.0349 90.38 14.6243C90.38 6.21371 85.7055 1.69355 77.9805 1.69355C70.2556 1.69355 65.6799 6.32567 65.6799 14.5263V35ZM29.3217 14.2789C29.3217 19.9715 32.0191 22.8178 36.3829 22.8178C40.7326 22.8178 43.4441 19.9715 43.4441 14.2789C43.4441 8.58634 40.7326 5.74004 36.3829 5.74004C32.0332 5.74004 29.3217 8.58634 29.3217 14.2789ZM29.2652 35H24.1388V14.1793C24.1388 5.83966 28.7144 1.12903 36.4394 1.12903C44.1644 1.12903 48.8389 5.72581 48.8389 14.2789C48.8389 22.8321 44.2632 27.4288 36.7925 27.4288C35.4228 27.5132 34.0503 27.3185 32.757 26.8564C31.4637 26.3942 30.2761 25.6741 29.2652 24.7391V35ZM0 26.8652H5.06701V16.1481H9.47797C12.0647 19.2999 14.0056 22.9433 15.1871 26.8652H20.7706C19.3369 22.0191 16.9217 17.5299 13.6795 13.6848C16.5755 10.2075 18.6521 6.10658 19.7516 1.69355H14.3356C13.468 5.33508 11.7869 8.72569 9.42213 11.6036H5.06701V1.69355H0V26.8652ZM129.956 26.5323H132.111L129.114 35H134.728L146.517 1.69355H140.903L133.818 21.7103L127.711 1.69355H121.817L129.956 26.5323Z" fill="#F5F5F5"/>
</svg>
