<svg width="90" height="90" viewBox="0 0 90 90" fill="none" xmlns="http://www.w3.org/2000/svg">
<path d="M45 24.15V36.6375" stroke="#EE7937" stroke-width="2" stroke-miterlimit="10" stroke-linecap="round"/>
<path d="M45.0751 7.5C31.2751 7.5 20.1001 18.675 20.1001 32.475V40.35C20.1001 42.9 19.0501 46.725 17.7376 48.9L12.9751 56.85C10.0501 61.7625 12.0751 67.2375 17.4751 69.0375C35.4001 75 54.7876 75 72.7126 69.0375C77.7751 67.35 79.9501 61.425 77.2126 56.85L72.4501 48.9C71.1376 46.725 70.0876 42.8625 70.0876 40.35V32.475C70.0501 18.75 58.8001 7.5 45.0751 7.5Z" stroke="#EE7937" stroke-width="2" stroke-miterlimit="10" stroke-linecap="round"/>
<path d="M57.4875 71.575C57.4875 78.4375 51.8625 84.0625 45 84.0625C41.5875 84.0625 38.4375 82.6375 36.1874 80.3875C33.9374 78.1375 32.5125 74.9875 32.5125 71.575" stroke="#EE7937" stroke-width="2" stroke-miterlimit="10"/>
</svg>
