<svg style="display: none;" aria-hidden="true" xmlns="http://www.w3.org/2000/svg" xmlns:xlink="http://www.w3.org/1999/xlink"><symbol viewBox="0 0 9 8" id="svg-arrow-back"><path fill-rule="evenodd" clip-rule="evenodd" d="M3.82843 7.53544L0.646447 4.35346C0.451185 4.15819 0.451185 3.84161 0.646447 3.64635L3.82843 0.46437C4.02369 0.269108 4.34027 0.269108 4.53553 0.46437C4.7308 0.659632 4.7308 0.976215 4.53553 1.17148L2.20711 3.4999L8 3.4999C8.27614 3.4999 8.5 3.72376 8.5 3.9999C8.5 4.27605 8.27614 4.4999 8 4.4999L2.20711 4.4999L4.53553 6.82833C4.7308 7.02359 4.7308 7.34018 4.53553 7.53544C4.34027 7.7307 4.02369 7.7307 3.82843 7.53544Z"/></symbol><symbol viewBox="0 0 24 24" id="svg-arrow-left"><path fill-rule="evenodd" clip-rule="evenodd" d="M10.1003 5.39936C10.3932 5.69225 10.3932 6.16712 10.1003 6.46002L4.56066 11.9997L10.1003 17.5394C10.3932 17.8322 10.3932 18.3071 10.1003 18.6C9.80744 18.8929 9.33256 18.8929 9.03967 18.6L2.96967 12.53C2.82902 12.3894 2.75 12.1986 2.75 11.9997C2.75 11.8008 2.82902 11.61 2.96967 11.4694L9.03967 5.39936C9.33256 5.10646 9.80744 5.10646 10.1003 5.39936Z"/><path fill-rule="evenodd" clip-rule="evenodd" d="M2.91992 12C2.91992 11.5858 3.25571 11.25 3.66992 11.25H20.4999C20.9141 11.25 21.2499 11.5858 21.2499 12C21.2499 12.4142 20.9141 12.75 20.4999 12.75H3.66992C3.25571 12.75 2.91992 12.4142 2.91992 12Z"/></symbol><symbol viewBox="0 0 24 24" id="svg-arrow-right"><path fill-rule="evenodd" clip-rule="evenodd" d="M13.8996 5.39936C14.1925 5.10646 14.6674 5.10646 14.9603 5.39936L21.0303 11.4694C21.1709 11.61 21.2499 11.8008 21.2499 11.9997C21.2499 12.1986 21.1709 12.3894 21.0303 12.53L14.9603 18.6C14.6674 18.8929 14.1925 18.8929 13.8996 18.6C13.6067 18.3071 13.6067 17.8322 13.8996 17.5394L19.4393 11.9997L13.8996 6.46002C13.6067 6.16712 13.6067 5.69225 13.8996 5.39936Z"/><path fill-rule="evenodd" clip-rule="evenodd" d="M2.75 12C2.75 11.5858 3.08579 11.25 3.5 11.25H20.33C20.7442 11.25 21.08 11.5858 21.08 12C21.08 12.4142 20.7442 12.75 20.33 12.75H3.5C3.08579 12.75 2.75 12.4142 2.75 12Z"/></symbol><symbol viewBox="0 0 22 22" id="svg-facebook"><path d="M21.25 4.27331C21.25 2.40155 19.5984 0.75 17.7267 0.75H3.52331C1.65155 0.75 0 2.40155 0 4.27331V18.4767C0 20.3484 1.65155 22 3.52331 22H10.68V13.9624H8.03757V10.4391H10.68V9.00777C10.68 6.58549 12.4417 4.49352 14.6438 4.49352H17.5065V8.01683H14.6438C14.3135 8.01683 13.9832 8.34715 13.9832 9.00777V10.4391H17.5065V13.9624H13.9832V22H17.7267C19.5984 22 21.25 20.3484 21.25 18.4767V4.27331Z"/></symbol><symbol viewBox="0 0 24 24" id="svg-icon-arrow-down"><path fill-rule="evenodd" clip-rule="evenodd" d="M12 2.75C6.89137 2.75 2.75 6.89137 2.75 12C2.75 17.1086 6.89137 21.25 12 21.25C17.1086 21.25 21.25 17.1086 21.25 12C21.25 6.89137 17.1086 2.75 12 2.75ZM1.25 12C1.25 6.06294 6.06294 1.25 12 1.25C17.9371 1.25 22.75 6.06294 22.75 12C22.75 17.9371 17.9371 22.75 12 22.75C6.06294 22.75 1.25 17.9371 1.25 12Z"/><path fill-rule="evenodd" clip-rule="evenodd" d="M12 7.75C12.4142 7.75 12.75 8.08579 12.75 8.5V14.5C12.75 14.9142 12.4142 15.25 12 15.25C11.5858 15.25 11.25 14.9142 11.25 14.5V8.5C11.25 8.08579 11.5858 7.75 12 7.75Z"/><path fill-rule="evenodd" clip-rule="evenodd" d="M8.46967 11.9697C8.76256 11.6768 9.23744 11.6768 9.53033 11.9697L12 14.4393L14.4697 11.9697C14.7626 11.6768 15.2374 11.6768 15.5303 11.9697C15.8232 12.2626 15.8232 12.7374 15.5303 13.0303L12.5303 16.0303C12.2374 16.3232 11.7626 16.3232 11.4697 16.0303L8.46967 13.0303C8.17678 12.7374 8.17678 12.2626 8.46967 11.9697Z"/></symbol><symbol viewBox="0 0 30 30" id="svg-icon-checkcircle"><path fill-rule="evenodd" clip-rule="evenodd" d="M20.8796 11.497C21.2609 11.8965 21.2462 12.5295 20.8467 12.9109L13.9717 19.4734C13.5853 19.8422 12.9772 19.8422 12.5907 19.4734L9.15327 16.1921C8.75378 15.8108 8.73906 15.1778 9.1204 14.7783C9.50174 14.3788 10.1347 14.3641 10.5342 14.7454L13.2812 17.3676L19.4658 11.4641C19.8653 11.0828 20.4983 11.0975 20.8796 11.497Z"/></symbol><symbol viewBox="0 0 90 90" id="svg-icon-clock"><path fill-rule="evenodd" clip-rule="evenodd" d="M45 8.5C24.8523 8.5 8.5 24.8523 8.5 45C8.5 65.1477 24.8523 81.5 45 81.5C65.1477 81.5 81.5 65.1477 81.5 45C81.5 24.8523 65.1477 8.5 45 8.5ZM6.5 45C6.5 23.7477 23.7477 6.5 45 6.5C66.2523 6.5 83.5 23.7477 83.5 45C83.5 66.2523 66.2523 83.5 45 83.5C23.7477 83.5 6.5 66.2523 6.5 45Z"/><path fill-rule="evenodd" clip-rule="evenodd" d="M43.6125 27.1625C44.1648 27.1625 44.6125 27.6102 44.6125 28.1625V43.5375C44.6125 44.5034 44.9565 45.646 45.5593 46.703C46.1621 47.7601 46.9697 48.6367 47.7973 49.1272L47.7999 49.1288L59.4249 56.0663C59.8992 56.3493 60.0542 56.9632 59.7712 57.4374C59.4882 57.9117 58.8743 58.0667 58.4 57.7837L46.7777 50.8478C46.7772 50.8475 46.7768 50.8472 46.7764 50.847C45.5796 50.1374 44.5501 48.9706 43.8219 47.6938C43.0935 46.4164 42.6125 44.934 42.6125 43.5375V28.1625C42.6125 27.6102 43.0602 27.1625 43.6125 27.1625Z"/></symbol><symbol viewBox="0 0 90 90" id="svg-icon-document-filter"><path fill-rule="evenodd" clip-rule="evenodd" d="M12.5624 8.5C10.3661 8.5 8.50665 10.3104 8.53745 12.775L8.53761 12.7875H8.53753V18.6C8.53753 19.178 8.7363 19.98 9.11462 20.8183C9.48912 21.6482 9.99808 22.4214 10.5321 22.9554C10.5384 22.9617 10.5445 22.968 10.5506 22.9744L20.1506 33.0995C20.1707 33.1207 20.1899 33.1428 20.2081 33.1657C20.7848 33.8919 21.3366 34.8708 21.7459 35.8966C22.1529 36.9166 22.4499 38.0601 22.4499 39.1125V52.5C22.4499 55.7092 26.0741 57.6006 28.7542 55.9664L32.2681 53.6862L32.287 53.6742C32.7211 53.4061 33.186 52.8682 33.5474 52.1741C33.9066 51.4843 34.0999 50.7618 34.0999 50.2126V39.3375C34.0999 38.1708 34.3885 36.904 34.8729 35.76C35.3543 34.6232 36.0604 33.5347 36.9575 32.7694L47.7954 23.2021C48.3117 22.6618 48.8686 21.8286 49.2975 20.8859C49.7352 19.9238 49.9999 18.9347 49.9999 18.1124V12.5625C49.9999 10.3398 48.1602 8.5 45.9375 8.5H12.5624ZM6.53753 12.7935C6.49675 9.26125 9.21078 6.5 12.5624 6.5H45.9375C49.2648 6.5 51.9999 9.23527 51.9999 12.5625V18.1124C51.9999 19.3152 51.6271 20.5949 51.118 21.7141C50.6071 22.8371 49.9191 23.8858 49.2051 24.6215C49.1871 24.6399 49.1685 24.6577 49.1493 24.6747L38.2744 34.2747L38.2603 34.2869C37.6609 34.7964 37.1132 35.5987 36.7146 36.5399C36.3177 37.4772 36.0999 38.4791 36.0999 39.3375V50.2126C36.0999 51.1633 35.7871 52.2033 35.3213 53.0978C34.8596 53.9845 34.1844 54.8494 33.3482 55.3695L29.8318 57.6513C29.8248 57.6559 29.8177 57.6604 29.8105 57.6648C25.8916 60.0696 20.4499 57.3867 20.4499 52.5V39.1125C20.4499 38.4023 20.2407 37.5209 19.8883 36.6378C19.5452 35.7779 19.0959 34.99 18.6678 34.4424L9.10808 24.3598C8.37128 23.6199 7.74012 22.6348 7.29164 21.641C6.84499 20.6512 6.53753 19.5594 6.53753 18.6V12.7935Z"/><path fill-rule="evenodd" clip-rule="evenodd" d="M62.5753 8.24076C62.6632 7.69552 63.1765 7.32481 63.7218 7.41275C65.4814 7.69656 67.3408 8.04883 69.0108 8.47114C70.6595 8.88809 72.2017 9.39198 73.2801 10.0048C80.5387 14.0963 83.5 21.9177 83.5 33.75V56.25C83.5 65.7237 81.6114 72.6154 77.1134 77.1134C72.6153 81.6114 65.7236 83.5 56.25 83.5H33.75C24.2764 83.5 17.3847 81.6114 12.8866 77.1134C8.3886 72.6154 6.5 65.7237 6.5 56.25V45C6.5 44.4477 6.94772 44 7.5 44C8.05228 44 8.5 44.4477 8.5 45V56.25C8.5 65.5264 10.3614 71.7597 14.3009 75.6992C18.2403 79.6386 24.4736 81.5 33.75 81.5H56.25C65.5264 81.5 71.7597 79.6386 75.6991 75.6992C79.6386 71.7597 81.5 65.5264 81.5 56.25V33.75C81.5 22.1833 78.6116 15.305 72.2965 11.7462L72.2931 11.7443C71.4591 11.27 70.1333 10.818 68.5204 10.4101C66.928 10.0074 65.1312 9.66592 63.4033 9.38723C62.8581 9.29929 62.4874 8.786 62.5753 8.24076Z"/><path fill-rule="evenodd" clip-rule="evenodd" d="M47.75 48.75C47.75 48.1977 48.1977 47.75 48.75 47.75H67.5C68.0523 47.75 68.5 48.1977 68.5 48.75 68.5 49.3023 68.0523 49.75 67.5 49.75H48.75C48.1977 49.75 47.75 49.3023 47.75 48.75zM40.25 63.75C40.25 63.1977 40.6977 62.75 41.25 62.75H67.5C68.0523 62.75 68.5 63.1977 68.5 63.75 68.5 64.3023 68.0523 64.75 67.5 64.75H41.25C40.6977 64.75 40.25 64.3023 40.25 63.75z"/></symbol><symbol viewBox="0 0 90 90" id="svg-icon-filter-remove"><path fill-rule="evenodd" clip-rule="evenodd" d="M19.9875 8.53754C16.4086 8.53754 13.4125 11.4704 13.4125 15.4875V24.1875C13.4125 25.1418 13.7338 26.4133 14.3139 27.7063C14.8903 28.9909 15.6804 30.2036 16.5321 31.0553C16.5381 31.0613 16.544 31.0673 16.5498 31.0735L30.9498 46.2236C30.9666 46.2413 30.9828 46.2596 30.9983 46.2785C31.844 47.3099 32.6515 48.7252 33.249 50.2214C33.8448 51.7133 34.2625 53.3624 34.2625 54.8625V74.9249C34.2625 80.1586 40.1732 83.1754 44.4659 80.5295L49.7452 77.1222C50.2093 76.8227 50.8282 76.9561 51.1277 77.4201C51.4272 77.8842 51.2938 78.5031 50.8298 78.8026L45.5423 82.2152L45.5259 82.2256C39.9943 85.6459 32.2625 81.838 32.2625 74.9249V54.8625C32.2625 53.7001 31.9302 52.3117 31.3916 50.9631C30.8605 49.6332 30.1589 48.4168 29.4742 47.5741L15.1087 32.4603C14.0518 31.4004 13.1391 29.9735 12.4892 28.5249C11.8411 27.0805 11.4125 25.5208 11.4125 24.1875V15.4875C11.4125 10.4296 15.2413 6.53754 19.9875 6.53754H70.0125C74.7273 6.53754 78.5875 10.3978 78.5875 15.1126V23.4375C78.5875 25.1463 78.0555 26.9979 77.3066 28.6387C76.5564 30.2822 75.5471 31.8046 74.5071 32.8446C74.1166 33.2352 73.4834 33.2352 73.0929 32.8446C72.7024 32.4541 72.7024 31.8209 73.0929 31.4304C73.9279 30.5955 74.8124 29.2866 75.4872 27.8082C76.1632 26.3271 76.5875 24.7662 76.5875 23.4375V15.1126C76.5875 11.5024 73.6227 8.53754 70.0125 8.53754H19.9875Z"/><path fill-rule="evenodd" clip-rule="evenodd" d="M63.3 38.5C54.0273 38.5 46.4875 46.0398 46.4875 55.3125C46.4875 58.4637 47.373 61.4689 48.925 63.9733L48.933 63.9865C51.8352 68.8352 57.179 72.125 63.3 72.125C69.4243 72.125 74.7651 68.87 77.6653 63.9892L77.6717 63.9786L77.6717 63.9786C79.2287 61.4308 80.1125 58.4605 80.1125 55.3125C80.1125 46.0398 72.5727 38.5 63.3 38.5ZM44.4875 55.3125C44.4875 44.9352 52.9227 36.5 63.3 36.5C73.6773 36.5 82.1125 44.9352 82.1125 55.3125C82.1125 58.8373 81.1226 62.165 79.3816 65.016C76.1311 70.4824 70.1485 74.125 63.3 74.125C56.4488 74.125 50.4696 70.4429 47.2209 65.0202C45.4755 62.201 44.4875 58.8335 44.4875 55.3125Z"/><path fill-rule="evenodd" clip-rule="evenodd" d="M57.9429 49.8428C58.3334 49.4523 58.9666 49.4523 59.3571 49.8428L68.7696 59.2554C69.1601 59.6459 69.1601 60.279 68.7696 60.6696C68.3791 61.0601 67.7459 61.0601 67.3554 60.6696L57.9429 51.257C57.5524 50.8665 57.5524 50.2333 57.9429 49.8428Z"/><path fill-rule="evenodd" clip-rule="evenodd" d="M68.6946 49.9554C69.0851 50.346 69.0851 50.9791 68.6946 51.3696L59.2821 60.7822C58.8916 61.1727 58.2584 61.1727 57.8679 60.7822C57.4774 60.3917 57.4774 59.7585 57.8679 59.368L67.2804 49.9554C67.6709 49.5649 68.3041 49.5649 68.6946 49.9554Z"/><path fill-rule="evenodd" clip-rule="evenodd" d="M19.9875 8.5C16.4086 8.5 13.4125 11.4329 13.4125 15.45V24.1875C13.4125 25.1181 13.7403 26.3876 14.3274 27.6908C14.9098 28.9837 15.7023 30.2088 16.5391 31.0623L16.5498 31.0735L30.9498 46.2236C30.9694 46.2442 30.9881 46.2656 31.0059 46.2878C31.8266 47.3138 32.632 48.7239 33.2339 50.2187C33.8335 51.7079 34.2625 53.3587 34.2625 54.8625V74.9249C34.2625 80.1587 40.1734 83.1755 44.4662 80.5294L49.7452 77.1222C49.7568 77.1147 49.7686 77.1075 49.7805 77.1005C50.5191 76.666 51.2603 75.8002 51.8229 74.7136C52.382 73.6339 52.7 72.4602 52.7 71.5125V70.7864C50.4469 69.3007 48.5889 67.3112 47.2189 65.0169C45.4776 62.1657 44.4875 58.8376 44.4875 55.3125C44.4875 44.9352 52.9227 36.5 63.3 36.5C64.54 36.5 65.7562 36.62 66.9218 36.8625L73.1107 31.412C73.943 30.555 74.8184 29.245 75.4867 27.7764C76.1633 26.2897 76.5875 24.7287 76.5875 23.4V15.0751C76.5875 11.4648 73.6227 8.5 70.0125 8.5H19.9875ZM11.4125 15.45C11.4125 10.3921 15.2413 6.5 19.9875 6.5H70.0125C74.7273 6.5 78.5875 10.3603 78.5875 15.0751V23.4C78.5875 25.1088 78.0555 26.9603 77.3071 28.6048C76.557 30.253 75.5494 31.7816 74.5141 32.8376C74.497 32.855 74.4792 32.8718 74.4609 32.888L67.8609 38.7004C67.6161 38.9161 67.2815 38.9987 66.9644 38.9218C65.8096 38.6419 64.5765 38.5 63.3 38.5C54.0273 38.5 46.4875 46.0398 46.4875 55.3125C46.4875 58.4605 47.3713 61.4308 48.9283 63.9786L48.9338 63.9876L48.9337 63.9876C50.2429 66.1813 52.0428 68.0489 54.2226 69.3848C54.5192 69.5666 54.7 69.8895 54.7 70.2374V71.5125C54.7 72.8523 54.268 74.3411 53.599 75.6332C52.937 76.9116 51.9787 78.1209 50.8133 78.8133L45.5423 82.2152L45.5259 82.2256C39.9943 85.6459 32.2625 81.838 32.2625 74.9249V54.8625C32.2625 53.7038 31.9228 52.3171 31.3786 50.9657C30.8436 49.637 30.1414 48.4175 29.47 47.5697L15.1054 32.4568C14.0694 31.3983 13.1577 29.9636 12.5039 28.5123C11.8535 27.0686 11.4125 25.507 11.4125 24.1875V15.45Z"/></symbol><symbol viewBox="0 0 40 40" id="svg-icon-filter-tick"><path d="M29.8668 16.8666C29.3168 16.7333 28.7335 16.6666 28.1335 16.6666C23.7668 16.6666 20.2168 20.2166 20.2168 24.5833C20.2168 26.0666 20.6335 27.4666 21.3668 28.6666C21.9835 29.7 22.8335 30.5833 23.8668 31.2166C25.1001 32.0333 26.5668 32.5 28.1335 32.5C31.0335 32.5 33.5501 30.95 34.9168 28.6666C35.6501 27.4666 36.0501 26.0666 36.0501 24.5833C36.0501 20.8166 33.4168 17.65 29.8668 16.8666ZM32.0835 23.55L27.8501 27.45C27.6168 27.6666 27.3001 27.7833 27.0001 27.7833C26.6835 27.7833 26.3668 27.6666 26.1168 27.4166L24.1668 25.4666C23.6835 24.9833 23.6835 24.1833 24.1668 23.7C24.6501 23.2166 25.4501 23.2166 25.9335 23.7L27.0335 24.8L30.3835 21.7166C30.9001 21.25 31.6835 21.2833 32.1501 21.7833C32.6168 22.3 32.5835 23.0833 32.0835 23.55Z"/><path d="M34.3002 6.70004V10.4C34.3002 11.75 33.4669 13.4334 32.6335 14.2834L32.3335 14.55C32.1002 14.7667 31.7502 14.8167 31.4502 14.7167C31.1169 14.6 30.7835 14.5167 30.4502 14.4334C29.7169 14.25 28.9335 14.1667 28.1335 14.1667C22.3835 14.1667 17.7169 18.8334 17.7169 24.5834C17.7169 26.4834 18.2335 28.35 19.2169 29.95C20.0502 31.35 21.2169 32.5167 22.4835 33.3C22.8669 33.55 23.0169 34.0834 22.6835 34.3834C22.5669 34.4834 22.4502 34.5667 22.3335 34.65L20.0002 36.1667C17.8335 37.5167 14.8502 36 14.8502 33.3V24.3834C14.8502 23.2 14.1835 21.6834 13.5169 20.85L7.2002 14.1167C6.36686 13.2667 5.7002 11.75 5.7002 10.75V6.86671C5.7002 4.85004 7.20019 3.33337 9.01686 3.33337H30.9835C32.8002 3.33337 34.3002 4.85004 34.3002 6.70004Z"/></symbol><symbol viewBox="0 0 90 90" id="svg-icon-location-add"><path fill-rule="evenodd" clip-rule="evenodd" d="M33.6875 41.25C33.6875 40.6977 34.1352 40.25 34.6875 40.25H55.3125C55.8648 40.25 56.3125 40.6977 56.3125 41.25C56.3125 41.8023 55.8648 42.25 55.3125 42.25H34.6875C34.1352 42.25 33.6875 41.8023 33.6875 41.25Z"/><path fill-rule="evenodd" clip-rule="evenodd" d="M45 29.9375C45.5523 29.9375 46 30.3852 46 30.9375V51.5625C46 52.1148 45.5523 52.5625 45 52.5625C44.4477 52.5625 44 52.1148 44 51.5625V30.9375C44 30.3852 44.4477 29.9375 45 29.9375Z"/><path fill-rule="evenodd" clip-rule="evenodd" d="M45.0134 8.50001C31.5191 8.49089 18.1216 16.3605 14.5502 32.0588C10.3616 50.5625 21.8568 66.3785 32.1563 76.3049C39.3453 83.208 50.6568 83.2052 57.8055 76.3055L57.8074 76.3037C68.1441 66.3775 79.6384 50.5989 75.4497 32.0958L75.4497 32.0958C71.8966 16.3971 58.508 8.50913 45.0134 8.50001ZM45.0147 6.50001C59.2608 6.50964 73.6034 14.8779 77.4003 31.6543C81.8364 51.25 69.6323 67.7206 59.1945 77.7445C51.2686 85.3944 38.7309 85.392 30.7698 77.7463L30.7686 77.745C20.3682 67.7215 8.16358 51.2127 12.5997 31.6167L12.5999 31.6157C16.4162 14.8394 30.7686 6.49038 45.0147 6.50001Z"/></symbol><symbol viewBox="0 0 90 90" id="svg-icon-notification"><path fill-rule="evenodd" clip-rule="evenodd" d="M45 23.15C45.5523 23.15 46 23.5977 46 24.15V36.6375C46 37.1898 45.5523 37.6375 45 37.6375C44.4477 37.6375 44 37.1898 44 36.6375V24.15C44 23.5977 44.4477 23.15 45 23.15Z"/><path fill-rule="evenodd" clip-rule="evenodd" d="M19.1001 32.475C19.1001 18.1227 30.7228 6.5 45.0751 6.5C59.353 6.5 71.0486 18.1976 71.0876 32.4723L71.0876 32.475L71.0876 40.35C71.0876 41.4881 71.3291 42.9885 71.7409 44.4865C72.1529 45.985 72.7132 47.4005 73.3063 48.3833L73.308 48.3861L78.0705 56.3361C81.1342 61.4563 78.7015 68.0953 73.0289 69.9862C54.899 76.0168 35.2894 76.017 17.1595 69.9864C14.198 68.9992 12.0953 66.9751 11.1652 64.4575C10.2353 61.9403 10.5137 59.0292 12.1159 56.3384L12.1173 56.3361L16.8798 48.3861L16.8814 48.3833C17.4753 47.3993 18.0355 45.9923 18.4471 44.4998C18.8585 43.0079 19.1001 41.5074 19.1001 40.35V32.475ZM45.0751 8.5C31.8274 8.5 21.1001 19.2273 21.1001 32.475V40.35C21.1001 41.7426 20.8168 43.4296 20.3751 45.0315C19.9337 46.6322 19.3129 48.2246 18.5946 49.4154L18.5938 49.4167L13.8344 57.3616L13.8338 57.3625C12.5115 59.5839 12.3401 61.8662 13.0413 63.7644C13.7424 65.6623 15.3527 67.2758 17.791 68.0887C35.5111 73.983 54.6769 73.983 72.397 68.0886C76.8488 66.6043 78.7655 61.3935 76.3548 57.3639L71.5939 49.4167L71.593 49.4152C70.874 48.2231 70.2534 46.6206 69.8125 45.0166C69.3712 43.4115 69.0876 41.7244 69.0876 40.35L69.0876 32.4777L69.0876 32.4763C69.0509 19.3016 58.2469 8.5 45.0751 8.5Z"/><path fill-rule="evenodd" clip-rule="evenodd" d="M33.5125 71.575C33.5125 74.7076 34.8215 77.6072 36.8946 79.6803C38.9677 81.7535 41.8673 83.0625 45 83.0625C51.3102 83.0625 56.4875 77.8852 56.4875 71.575H58.4875C58.4875 78.9897 52.4147 85.0625 45 85.0625C41.3076 85.0625 37.9072 83.5215 35.4803 81.0946C33.0534 78.6677 31.5125 75.2673 31.5125 71.575H33.5125Z"/></symbol><symbol viewBox="0 0 20 22" id="svg-icon-play"><path d="M0 3.82986V18.1721C0 21.1095 3.17792 22.9529 5.71429 21.4842L11.906 17.9024L18.0977 14.3056C20.6341 12.8369 20.6341 9.16512 18.0977 7.69643L11.906 4.09962L5.71429 0.517802C3.17792 -0.950894 0 0.877482 0 3.82986Z"/></symbol><symbol viewBox="0 0 90 90" id="svg-icon-receipt"><path fill-rule="evenodd" clip-rule="evenodd" d="M67.5706 8.5C63.9559 8.50244 61 11.4352 61 15.0375V40.25H72.8249C75.5733 40.25 77.7199 39.3846 79.1772 37.9273C80.6345 36.47 81.5 34.3234 81.5 31.575V22.5C81.5 18.6546 79.9283 15.1538 77.4031 12.5923C74.887 10.0774 71.3894 8.53627 67.5706 8.5ZM59 15.0375C59 10.3163 62.8668 6.5 67.5751 6.5H67.5842V6.50004C71.9374 6.53998 75.937 8.29769 78.8197 11.1804L78.8245 11.1853L78.8245 11.1853C81.6979 14.0986 83.5 18.0967 83.5 22.5V31.575C83.5 34.7516 82.4904 37.4425 80.5914 39.3415C78.6925 41.2404 76.0015 42.25 72.8249 42.25H60C59.4477 42.25 59 41.8023 59 41.25V15.0375Z"/><path fill-rule="evenodd" clip-rule="evenodd" d="M22.5 6.5C16.6703 6.5 12.6079 8.24695 10.0244 11.2386C7.46461 14.2028 6.5 18.2258 6.5 22.5V78.75C6.5 82.6806 10.9623 84.9244 14.1015 82.5488L14.1038 82.5471L20.5125 77.75C21.6091 76.9275 23.1517 77.0297 24.1541 78.0308L24.1554 78.0321L30.3803 84.2946C32.2333 86.1476 35.2667 86.1476 37.1197 84.2946L43.4197 77.9946C44.3832 77.0311 45.9203 76.9293 46.9777 77.7427L53.4008 82.5506L53.404 82.5529C56.533 84.876 61 82.654 61 78.75V15C61 11.4273 63.9273 8.5 67.5 8.5C68.0523 8.5 68.5 8.05228 68.5 7.5C68.5 6.94772 68.0523 6.5 67.5 6.5H22.5ZM22.5 8.5C17.0797 8.5 13.6421 10.1093 11.5381 12.5458C9.41039 15.0097 8.5 18.4867 8.5 22.5V78.75C8.5 81.0435 11.0854 82.3246 12.8961 80.9529L12.9007 80.9494L19.3125 76.15C21.5886 74.7208 24 75 25.6996 76.15L31.7945 82.8804L31.7959 82.8817C32.868 83.9524 34.6339 83.9519 35.7055 82.8804L42.0054 76.5804C43.6652 74.9206 46.3243 74.7212 48.1916 76.1531L48.1972 76.1574L54.5962 80.9471L54.5971 80.9478C56.418 82.2986 59 80.9956 59 78.75V15C59.1316 12.1973 59.6912 10.7481 62 8.5H22.5Z"/><path fill-rule="evenodd" clip-rule="evenodd" d="M21.5 33.75C21.5 33.1977 21.9477 32.75 22.5 32.75H45C45.5523 32.75 46 33.1977 46 33.75 46 34.3023 45.5523 34.75 45 34.75H22.5C21.9477 34.75 21.5 34.3023 21.5 33.75zM24.3125 48.75C24.3125 48.1977 24.7602 47.75 25.3125 47.75H42.1875C42.7398 47.75 43.1875 48.1977 43.1875 48.75 43.1875 49.3023 42.7398 49.75 42.1875 49.75H25.3125C24.7602 49.75 24.3125 49.3023 24.3125 48.75z"/></symbol><symbol viewBox="0 0 90 90" id="svg-icon-routing-2"><path fill-rule="evenodd" clip-rule="evenodd" d="M20.5125 8.5C13.8161 8.5 8.38751 13.9285 8.38751 20.625 8.38751 27.3215 13.8161 32.75 20.5125 32.75 27.209 32.75 32.6375 27.3215 32.6375 20.625 32.6375 13.9285 27.209 8.5 20.5125 8.5zM6.38751 20.625C6.38751 12.824 12.7115 6.5 20.5125 6.5 28.3135 6.5 34.6375 12.824 34.6375 20.625 34.6375 28.426 28.3135 34.75 20.5125 34.75 12.7115 34.75 6.38751 28.426 6.38751 20.625zM63.6375 57.25C60.0648 57.25 57.1375 60.1773 57.1375 63.75V75C57.1375 78.5727 60.0648 81.5 63.6375 81.5H74.8875C78.4602 81.5 81.3875 78.5727 81.3875 75V63.75C81.3875 60.1773 78.4602 57.25 74.8875 57.25H63.6375zM55.1375 63.75C55.1375 59.0727 58.9602 55.25 63.6375 55.25H74.8875C79.5648 55.25 83.3875 59.0727 83.3875 63.75V75C83.3875 79.6773 79.5648 83.5 74.8875 83.5H63.6375C58.9602 83.5 55.1375 79.6773 55.1375 75V63.75zM44 18.75C44 18.1977 44.4477 17.75 45 17.75H55.05C62.9126 17.75 66.5637 27.4821 60.6597 32.6641L30.696 58.8776 30.6941 58.8793C26.1803 62.8086 28.973 70.25 34.95 70.25H45C45.5523 70.25 46 70.6977 46 71.25 46 71.8023 45.5523 72.25 45 72.25H34.95C27.1278 72.25 23.4704 62.5182 29.3794 57.3721 29.3799 57.3717 29.3804 57.3712 29.3809 57.3707L59.3404 31.1609C59.3405 31.1608 59.3402 31.1611 59.3404 31.1609 63.8606 27.1928 61.0622 19.75 55.05 19.75H45C44.4477 19.75 44 19.3023 44 18.75z"/><path fill-rule="evenodd" clip-rule="evenodd" d="M19.5734 20.625C19.5734 20.0727 20.0211 19.625 20.5734 19.625H20.6168C21.169 19.625 21.6168 20.0727 21.6168 20.625 21.6168 21.1773 21.169 21.625 20.6168 21.625H20.5734C20.0211 21.625 19.5734 21.1773 19.5734 20.625zM68.3234 69.375C68.3234 68.8227 68.7711 68.375 69.3234 68.375H69.3668C69.919 68.375 70.3668 68.8227 70.3668 69.375 70.3668 69.9273 69.919 70.375 69.3668 70.375H69.3234C68.7711 70.375 68.3234 69.9273 68.3234 69.375z"/></symbol><symbol viewBox="0 0 90 90" id="svg-icon-search-status"><path fill-rule="evenodd" clip-rule="evenodd" d="M51.5 18.75C51.5 18.1977 51.9477 17.75 52.5 17.75H75C75.5523 17.75 76 18.1977 76 18.75 76 19.3023 75.5523 19.75 75 19.75H52.5C51.9477 19.75 51.5 19.3023 51.5 18.75zM51.5 30C51.5 29.4477 51.9477 29 52.5 29H63.75C64.3023 29 64.75 29.4477 64.75 30 64.75 30.5523 64.3023 31 63.75 31H52.5C51.9477 31 51.5 30.5523 51.5 30z"/><path fill-rule="evenodd" clip-rule="evenodd" d="M43.125 8.5C23.9898 8.5 8.5 23.9898 8.5 43.125 8.5 62.2602 23.9898 77.75 43.125 77.75 62.2602 77.75 77.75 62.2602 77.75 43.125 77.75 42.5727 78.1977 42.125 78.75 42.125 79.3023 42.125 79.75 42.5727 79.75 43.125 79.75 63.3648 63.3648 79.75 43.125 79.75 22.8852 79.75 6.5 63.3648 6.5 43.125 6.5 22.8852 22.8852 6.5 43.125 6.5 43.6773 6.5 44.125 6.94772 44.125 7.5 44.125 8.05228 43.6773 8.5 43.125 8.5zM74.2929 74.2929C74.6834 73.9024 75.3166 73.9024 75.7071 74.2929L83.2071 81.7929C83.5976 82.1834 83.5976 82.8166 83.2071 83.2071 82.8166 83.5976 82.1834 83.5976 81.7929 83.2071L74.2929 75.7071C73.9024 75.3166 73.9024 74.6834 74.2929 74.2929z"/></symbol><symbol viewBox="0 0 90 90" id="svg-icon-task"><path fill-rule="evenodd" clip-rule="evenodd" d="M40.25 76.125C40.25 75.5727 40.6977 75.125 41.25 75.125H78.75C79.3023 75.125 79.75 75.5727 79.75 76.125 79.75 76.6773 79.3023 77.125 78.75 77.125H41.25C40.6977 77.125 40.25 76.6773 40.25 76.125zM40.25 49.875C40.25 49.3227 40.6977 48.875 41.25 48.875H78.75C79.3023 48.875 79.75 49.3227 79.75 49.875 79.75 50.4273 79.3023 50.875 78.75 50.875H41.25C40.6977 50.875 40.25 50.4273 40.25 49.875zM40.25 23.625C40.25 23.0727 40.6977 22.625 41.25 22.625H78.75C79.3023 22.625 79.75 23.0727 79.75 23.625 79.75 24.1773 79.3023 24.625 78.75 24.625H41.25C40.6977 24.625 40.25 24.1773 40.25 23.625zM26.9571 15.4179C27.3476 15.8084 27.3476 16.4416 26.9571 16.8321L15.7071 28.0821C15.3166 28.4726 14.6834 28.4726 14.2929 28.0821L10.5429 24.3321C10.1524 23.9416 10.1524 23.3084 10.5429 22.9179 10.9334 22.5274 11.5666 22.5274 11.9571 22.9179L15 25.9608 25.5429 15.4179C25.9334 15.0274 26.5666 15.0274 26.9571 15.4179zM26.9571 41.6679C27.3476 42.0584 27.3476 42.6916 26.9571 43.0821L15.7071 54.3321C15.3166 54.7226 14.6834 54.7226 14.2929 54.3321L10.5429 50.5821C10.1524 50.1916 10.1524 49.5584 10.5429 49.1679 10.9334 48.7774 11.5666 48.7774 11.9571 49.1679L15 52.2108 25.5429 41.6679C25.9334 41.2774 26.5666 41.2774 26.9571 41.6679zM26.9571 67.9179C27.3476 68.3084 27.3476 68.9416 26.9571 69.3321L15.7071 80.5821C15.3166 80.9726 14.6834 80.9726 14.2929 80.5821L10.5429 76.8321C10.1524 76.4416 10.1524 75.8084 10.5429 75.4179 10.9334 75.0274 11.5666 75.0274 11.9571 75.4179L15 78.4608 25.5429 67.9179C25.9334 67.5274 26.5666 67.5274 26.9571 67.9179z"/></symbol><symbol viewBox="0 0 20 20" id="svg-icon-tick-circle"><path d="M9.99999 1.6665C5.40832 1.6665 1.66666 5.40817 1.66666 9.99984C1.66666 14.5915 5.40832 18.3332 9.99999 18.3332C14.5917 18.3332 18.3333 14.5915 18.3333 9.99984C18.3333 5.40817 14.5917 1.6665 9.99999 1.6665ZM13.9833 8.08317L9.25832 12.8082C9.14166 12.9248 8.98332 12.9915 8.81666 12.9915C8.64999 12.9915 8.49166 12.9248 8.37499 12.8082L6.01666 10.4498C5.77499 10.2082 5.77499 9.80817 6.01666 9.5665C6.25832 9.32484 6.65832 9.32484 6.89999 9.5665L8.81666 11.4832L13.1 7.19984C13.3417 6.95817 13.7417 6.95817 13.9833 7.19984C14.225 7.4415 14.225 7.83317 13.9833 8.08317Z"/></symbol><symbol viewBox="0 0 30 30" id="svg-icon-xcircle"><path fill-rule="evenodd" clip-rule="evenodd" d="M19.4571 10.5429C19.8476 10.9334 19.8476 11.5666 19.4571 11.9571L11.9571 19.4571C11.5666 19.8476 10.9334 19.8476 10.5429 19.4571C10.1524 19.0666 10.1524 18.4334 10.5429 18.0429L18.0429 10.5429C18.4334 10.1524 19.0666 10.1524 19.4571 10.5429Z"/><path fill-rule="evenodd" clip-rule="evenodd" d="M10.5429 10.5429C10.9334 10.1524 11.5666 10.1524 11.9571 10.5429L19.4571 18.0429C19.8476 18.4334 19.8476 19.0666 19.4571 19.4571C19.0666 19.8476 18.4334 19.8476 18.0429 19.4571L10.5429 11.9571C10.1524 11.5666 10.1524 10.9334 10.5429 10.5429Z"/></symbol><symbol viewBox="0 0 25 25" id="svg-instagram"><path d="M8.41762 12.375C8.41762 10.189 10.1893 8.41635 12.3755 8.41635C14.5616 8.41635 16.3343 10.189 16.3343 12.375C16.3343 14.561 14.5616 16.3336 12.3755 16.3336C10.1893 16.3336 8.41762 14.561 8.41762 12.375ZM6.27756 12.375C6.27756 15.7427 9.00759 18.4727 12.3755 18.4727C15.7434 18.4727 18.4734 15.7427 18.4734 12.375C18.4734 9.00725 15.7434 6.27733 12.3755 6.27733C9.00759 6.27733 6.27756 9.00725 6.27756 12.375ZM17.2897 6.03555C17.2896 6.31739 17.3731 6.59294 17.5296 6.82734C17.6861 7.06174 17.9086 7.24448 18.1689 7.35243C18.4293 7.46039 18.7158 7.48873 18.9923 7.43385C19.2687 7.37898 19.5227 7.24336 19.7221 7.04415C19.9214 6.84494 20.0573 6.59109 20.1124 6.31469C20.1675 6.03829 20.1393 5.75176 20.0316 5.49133C19.9238 5.2309 19.7413 5.00827 19.507 4.8516C19.2727 4.69492 18.9972 4.61124 18.7154 4.61112H18.7148C18.337 4.6113 17.9747 4.76141 17.7075 5.02849C17.4403 5.29557 17.2901 5.65777 17.2897 6.03555V6.03555ZM7.57778 22.041C6.41997 21.9882 5.79067 21.7954 5.37246 21.6325C4.81802 21.4166 4.42242 21.1596 4.0065 20.7442C3.59057 20.3289 3.33311 19.9337 3.11821 19.3793C2.95518 18.9613 2.76233 18.3318 2.70969 17.174C2.65212 15.9223 2.64063 15.5463 2.64063 12.3751C2.64063 9.2039 2.65307 8.82893 2.70969 7.57617C2.76242 6.4184 2.9567 5.79017 3.11821 5.37093C3.33406 4.81651 3.59114 4.42093 4.0065 4.00503C4.42185 3.58912 4.81707 3.33167 5.37246 3.11678C5.79048 2.95376 6.41997 2.7609 7.57778 2.70827C8.82955 2.6507 9.20558 2.63921 12.3755 2.63921C15.5454 2.63921 15.9218 2.65165 17.1746 2.70827C18.3324 2.761 18.9607 2.95528 19.3799 3.11678C19.9344 3.33167 20.33 3.58969 20.7459 4.00503C21.1618 4.42037 21.4183 4.81651 21.6342 5.37093C21.7972 5.78893 21.9901 6.4184 22.0427 7.57617C22.1003 8.82893 22.1118 9.2039 22.1118 12.3751C22.1118 15.5463 22.1003 15.9213 22.0427 17.174C21.99 18.3318 21.7961 18.9611 21.6342 19.3793C21.4183 19.9337 21.1612 20.3293 20.7459 20.7442C20.3305 21.1592 19.9344 21.4166 19.3799 21.6325C18.9619 21.7955 18.3324 21.9883 17.1746 22.041C15.9228 22.0985 15.5468 22.11 12.3755 22.11C9.20415 22.11 8.82917 22.0985 7.57778 22.041V22.041ZM7.47945 0.571915C6.21524 0.629485 5.35137 0.829935 4.59694 1.12348C3.81563 1.42663 3.15422 1.83332 2.49327 2.49319C1.83233 3.15306 1.42667 3.8155 1.12351 4.59678C0.829948 5.35165 0.62949 6.21501 0.571918 7.47918C0.513396 8.74533 0.5 9.15013 0.5 12.375C0.5 15.5999 0.513396 16.0047 0.571918 17.2708C0.62949 18.5351 0.829948 19.3983 1.12351 20.1532C1.42667 20.934 1.83243 21.5972 2.49327 22.2568C3.15412 22.9164 3.81563 23.3225 4.59694 23.6265C5.35279 23.9201 6.21524 24.1205 7.47945 24.1781C8.74633 24.2357 9.15048 24.25 12.3755 24.25C15.6005 24.25 16.0053 24.2366 17.2715 24.1781C18.5358 24.1205 19.3991 23.9201 20.154 23.6265C20.9348 23.3225 21.5967 22.9167 22.2577 22.2568C22.9186 21.5969 23.3234 20.934 23.6274 20.1532C23.921 19.3983 24.1224 18.535 24.179 17.2708C24.2366 16.0037 24.25 15.5999 24.25 12.375C24.25 9.15013 24.2366 8.74533 24.179 7.47918C24.1215 6.21492 23.921 5.35117 23.6274 4.59678C23.3234 3.81597 22.9176 3.15411 22.2577 2.49319C21.5978 1.83228 20.9348 1.42663 20.155 1.12348C19.3991 0.829935 18.5357 0.628535 17.2724 0.571915C16.0062 0.514345 15.6014 0.5 12.3764 0.5C9.15143 0.5 8.74633 0.513395 7.47945 0.571915Z"/></symbol><symbol viewBox="0 0 310 232" id="svg-line"><path d="M93 124L92.5179 123.867L93 124ZM309.354 33.0135C309.549 32.8182 309.549 32.5016 309.354 32.3063L306.172 29.1244C305.976 28.9291 305.66 28.9291 305.464 29.1244C305.269 29.3196 305.269 29.6362 305.464 29.8315L308.293 32.6599L305.464 35.4883C305.269 35.6836 305.269 36.0002 305.464 36.1954C305.66 36.3907 305.976 36.3907 306.172 36.1954L309.354 33.0135ZM0.506695 1.08155C5.60205 31.9043 24.0178 79.4878 43.471 110.984C48.3365 118.862 53.2746 125.746 58.0944 131.115C62.9073 136.476 67.6339 140.363 72.0836 142.196C76.5636 144.041 80.7915 143.81 84.479 140.892C88.1224 138.008 91.167 132.554 93.4821 124.133L92.5179 123.867C90.2222 132.218 87.2514 137.422 83.8584 140.108C80.5094 142.758 76.6798 143.008 72.4645 141.271C68.219 139.522 63.6127 135.765 58.8385 130.447C54.0713 125.136 49.1681 118.305 44.3218 110.459C24.9274 79.0575 6.56462 31.5957 1.4933 0.918453L0.506695 1.08155ZM93.4821 124.133C95.6152 116.373 95.9243 110.738 94.8881 106.997C94.3675 105.118 93.5006 103.694 92.3332 102.734C91.163 101.772 89.7288 101.307 88.1335 101.28C84.969 101.225 81.1397 102.89 77.2287 105.863C73.303 108.847 69.2356 113.193 65.5853 118.61C50.9776 140.29 42.9512 179.299 77.6298 217.496L78.3702 216.824C44.0487 179.02 52.0224 140.529 66.4146 119.169C70.0144 113.826 74.0094 109.566 77.8338 106.659C81.6728 103.741 85.281 102.231 88.1164 102.279C89.5211 102.303 90.7276 102.709 91.698 103.507C92.6712 104.307 93.445 105.534 93.9244 107.264C94.8882 110.743 94.6348 116.167 92.5179 123.867L93.4821 124.133ZM77.6298 217.496C86.3181 227.066 95.0962 231.399 103.995 231.552C112.878 231.706 121.776 227.692 130.712 220.79C148.569 206.997 166.8 181.486 185.664 153.691C204.55 125.861 224.089 95.7103 244.593 72.5066C265.115 49.2837 286.485 33.1599 309 33.1599V32.1599C286.015 32.1599 264.385 48.5986 243.844 71.8444C223.286 95.1095 203.7 125.334 184.836 153.129C165.95 180.959 147.806 206.322 130.101 219.999C121.255 226.831 112.575 230.7 104.012 230.553C95.4662 230.405 86.9318 226.254 78.3702 216.824L77.6298 217.496Z"/></symbol><symbol viewBox="0 0 52 11" id="svg-madeIn"><path d="M13.4243 6.35301V.251953H15.6153V6.27665C15.6153 7.69226 16.4376 8.66538 18.005 8.66538 19.5724 8.66538 20.3781 7.69129 20.3781 6.27665V.251953H22.5847V6.33832C22.5847 8.86411 21.0927 10.5832 18.005 10.5832 14.9153 10.5832 13.4243 8.84845 13.4243 6.35301zM27.791 8.96925L28.9619 7.3265C29.6775 8.07249 30.7877 8.69513 32.1877 8.69513 33.3752 8.69513 33.9528 8.14788 33.9528 7.56929 33.9528 5.77383 28.1102 7.00637 28.1102 3.18734 28.1102 1.49859 29.5708.0986328 31.9595.0986328 33.5729.0986328 34.9112.58519 35.9156 1.51425L34.7134 3.0963C33.893 2.33562 32.7966 1.98612 31.7618 1.98612 30.8337 1.98612 30.3168 2.39632 30.3168 3.00525 30.3168 4.61764 36.1437 3.53782 36.1437 7.3265 36.1437 9.18267 34.8202 10.5826 32.0819 10.5826 30.1347 10.5826 28.7348 9.92768 27.791 8.96925zM41.2124 5.29241C41.2124 2.2086 43.467 0 46.5508 0 49.6493 0 51.9039 2.2086 51.9039 5.29241 51.9039 8.37525 49.6493 10.5838 46.5508 10.5838 43.467 10.5838 41.2124 8.37525 41.2124 5.29241zM49.664 5.29241C49.664 3.37555 48.4373 1.9335 46.5508 1.9335 44.6643 1.9335 43.4523 3.37555 43.4523 5.29241 43.4523 7.19459 44.6643 8.65132 46.5508 8.65132 48.4373 8.65132 49.664 7.19459 49.664 5.29241zM5.93463 6.5351C7.03012 6.27665 8.15693 5.31822 8.15693 3.52275 8.15693 1.63624 6.86369.251953 4.74809.251953H0V2.15315H2.16063 2.32118 4.42894C5.29633 2.15315 5.95029 2.67005 5.95029 3.52275 5.95029 4.37447 5.29535 4.89236 4.42894 4.89236H2.32118 2.16063.000978824V10.4001H2.16161V6.79453H3.74463L5.73687 10.4011H8.21763L5.93463 6.5351z"/></symbol><symbol viewBox="0 0 18 18" id="svg-plyr-airplay"><path d="M16,1 L2,1 C1.447,1 1,1.447 1,2 L1,12 C1,12.553 1.447,13 2,13 L5,13 L5,11 L3,11 L3,3 L15,3 L15,11 L13,11 L13,13 L16,13 C16.553,13 17,12.553 17,12 L17,2 C17,1.447 16.553,1 16,1 L16,1 Z"/><path d="M4 17L14 17 9 11z"/></symbol><symbol viewBox="0 0 18 18" id="svg-plyr-captions-off"><path d="M1,1 C0.4,1 0,1.4 0,2 L0,13 C0,13.6 0.4,14 1,14 L5.6,14 L8.3,16.7 C8.5,16.9 8.7,17 9,17 C9.3,17 9.5,16.9 9.7,16.7 L12.4,14 L17,14 C17.6,14 18,13.6 18,13 L18,2 C18,1.4 17.6,1 17,1 L1,1 Z M5.52,11.15 C7.51,11.15 8.53,9.83 8.8,8.74 L7.51,8.35 C7.32,9.01 6.73,9.8 5.52,9.8 C4.38,9.8 3.32,8.97 3.32,7.46 C3.32,5.85 4.44,5.09 5.5,5.09 C6.73,5.09 7.28,5.84 7.45,6.52 L8.75,6.11 C8.47,4.96 7.46,3.76 5.5,3.76 C3.6,3.76 1.89,5.2 1.89,7.46 C1.89,9.72 3.54,11.15 5.52,11.15 Z M13.09,11.15 C15.08,11.15 16.1,9.83 16.37,8.74 L15.08,8.35 C14.89,9.01 14.3,9.8 13.09,9.8 C11.95,9.8 10.89,8.97 10.89,7.46 C10.89,5.85 12.01,5.09 13.07,5.09 C14.3,5.09 14.85,5.84 15.02,6.52 L16.32,6.11 C16.04,4.96 15.03,3.76 13.07,3.76 C11.17,3.76 9.46,5.2 9.46,7.46 C9.46,9.72 11.11,11.15 13.09,11.15 Z" fill-rule="evenodd" fill-opacity=".5"/></symbol><symbol viewBox="0 0 18 18" id="svg-plyr-captions-on"><path d="M1,1 C0.4,1 0,1.4 0,2 L0,13 C0,13.6 0.4,14 1,14 L5.6,14 L8.3,16.7 C8.5,16.9 8.7,17 9,17 C9.3,17 9.5,16.9 9.7,16.7 L12.4,14 L17,14 C17.6,14 18,13.6 18,13 L18,2 C18,1.4 17.6,1 17,1 L1,1 Z M5.52,11.15 C7.51,11.15 8.53,9.83 8.8,8.74 L7.51,8.35 C7.32,9.01 6.73,9.8 5.52,9.8 C4.38,9.8 3.32,8.97 3.32,7.46 C3.32,5.85 4.44,5.09 5.5,5.09 C6.73,5.09 7.28,5.84 7.45,6.52 L8.75,6.11 C8.47,4.96 7.46,3.76 5.5,3.76 C3.6,3.76 1.89,5.2 1.89,7.46 C1.89,9.72 3.54,11.15 5.52,11.15 Z M13.09,11.15 C15.08,11.15 16.1,9.83 16.37,8.74 L15.08,8.35 C14.89,9.01 14.3,9.8 13.09,9.8 C11.95,9.8 10.89,8.97 10.89,7.46 C10.89,5.85 12.01,5.09 13.07,5.09 C14.3,5.09 14.85,5.84 15.02,6.52 L16.32,6.11 C16.04,4.96 15.03,3.76 13.07,3.76 C11.17,3.76 9.46,5.2 9.46,7.46 C9.46,9.72 11.11,11.15 13.09,11.15 Z" fill-rule="evenodd"/></symbol><symbol viewBox="0 0 18 18" id="svg-plyr-download"><path d="M7 12C7.3 12 7.5 11.9 7.7 11.7L13.4 6 12 4.6 8 8.6 8 0 6 0 6 8.6 2 4.6.6 6 6.3 11.7C6.5 11.9 6.7 12 7 12zM0 14H14V16H0z" transform="translate(2 1)"/></symbol><symbol viewBox="0 0 18 18" id="svg-plyr-enter-fullscreen"><path d="M10 3L13.6 3 9.6 7 11 8.4 15 4.4 15 8 17 8 17 1 10 1zM7 9.6L3 13.6 3 10 1 10 1 17 8 17 8 15 4.4 15 8.4 11z"/></symbol><symbol viewBox="0 0 18 18" id="svg-plyr-exit-fullscreen"><path d="M1 12L4.6 12 .6 16 2 17.4 6 13.4 6 17 8 17 8 10 1 10zM16 .6L12 4.6 12 1 10 1 10 8 17 8 17 6 13.4 6 17.4 2z"/></symbol><symbol viewBox="0 0 18 18" id="svg-plyr-fast-forward"><path d="M7.875 7.17142857L0 1 0 17 7.875 10.8285714 7.875 17 18 9 7.875 1z"/></symbol><symbol viewBox="0 0 18 18" id="svg-plyr-logo-vimeo"><path d="M16,3.3 C15.9,4.9 14.8,7 12.7,9.7 C10.5,12.5 8.7,13.9 7.2,13.9 C6.3,13.9 5.5,13 4.8,11.3 C4,8.9 3.4,4 2,4 C1.9,4 1.5,4.3 0.8,4.8 L0,3.8 C0.8,3.1 3.5,0.4 4.7,0.3 C5.9,0.2 6.7,1 7,2.8 C7.3,4.8 7.8,8.9 8.8,8.9 C9.7,8.9 11.3,5.5 11.4,4.9 C11.5,4 11.1,3 9.1,3.8 C9.9,1.2 11.4,-8.8817842e-16 13.6,-8.8817842e-16 C15.3,0.1 16.1,1.2 16,3.3 Z" transform="translate(1 2)"/></symbol><symbol viewBox="0 0 18 18" id="svg-plyr-logo-youtube"><path d="M15.8,2.8 C15.6,1.5 15,0.6 13.6,0.4 C11.4,0 8,0 8,0 C8,0 4.6,0 2.4,0.4 C1,0.6 0.3,1.5 0.2,2.8 C0,4.1 0,6 0,6 C0,6 0,7.9 0.2,9.2 C0.4,10.5 1,11.4 2.4,11.6 C4.6,12 8,12 8,12 C8,12 11.4,12 13.6,11.6 C15,11.3 15.6,10.5 15.8,9.2 C16,7.9 16,6 16,6 C16,6 16,4.1 15.8,2.8 Z M6,9 L6,3 L11,6 L6,9 Z" transform="translate(1 3)"/></symbol><symbol viewBox="0 0 18 18" id="svg-plyr-muted"><path d="M12.4 12.5L14.5 10.4 16.6 12.5 18 11.1 15.9 9 18 6.9 16.6 5.5 14.5 7.6 12.4 5.5 11 6.9 13.1 9 11 11.1zM3.78571429 6.00820648L.714285714 6.00820648C.285714286 6.00820648 0 6.30901277 0 6.76022222L0 11.2723167C0 11.7235261.285714286 12.0243324.714285714 12.0243324L3.78571429 12.0243324 7.85714286 15.8819922C8.35714286 16.1827985 9 15.8819922 9 15.2803796L9 2.75215925C9 2.15054666 8.35714286 1.77453879 7.85714286 2.15054666L3.78571429 6.00820648z"/></symbol><symbol viewBox="0 0 18 18" id="svg-plyr-pause"><path d="M6 1L3 1C2.4 1 2 1.4 2 2L2 16C2 16.6 2.4 17 3 17L6 17C6.6 17 7 16.6 7 16L7 2C7 1.4 6.6 1 6 1L6 1zM12 1C11.4 1 11 1.4 11 2L11 16C11 16.6 11.4 17 12 17L15 17C15.6 17 16 16.6 16 16L16 2C16 1.4 15.6 1 15 1L12 1z"/></symbol><symbol viewBox="0 0 18 18" id="svg-plyr-pip"><path d="M13.293 3.293L7.022 9.564 8.436 10.978 14.707 4.707 17 7 17 1 11 1z"/><path d="M13,15 L3,15 L3,5 L8,5 L8,3 L2,3 C1.448,3 1,3.448 1,4 L1,16 C1,16.552 1.448,17 2,17 L14,17 C14.552,17 15,16.552 15,16 L15,10 L13,10 L13,15 L13,15 Z"/></symbol><symbol viewBox="0 0 20 22" id="svg-plyr-play"><path d="M0 3.82986V18.1721C0 21.1095 3.17792 22.9529 5.71429 21.4842L11.906 17.9024L18.0977 14.3056C20.6341 12.8369 20.6341 9.16512 18.0977 7.69643L11.906 4.09962L5.71429 0.517802C3.17792 -0.950894 0 0.877482 0 3.82986Z"/></symbol><symbol viewBox="0 0 18 18" id="svg-plyr-play-2"><path d="M15.5615866,8.10002147 L3.87056367,0.225209313 C3.05219207,-0.33727727 2,0.225209313 2,1.12518784 L2,16.8748122 C2,17.7747907 3.05219207,18.3372773 3.87056367,17.7747907 L15.5615866,9.89997853 C16.1461378,9.44998927 16.1461378,8.55001073 15.5615866,8.10002147 L15.5615866,8.10002147 Z"/></symbol><symbol viewBox="0 0 89 89" fill="none" id="svg-plyr-play-new"><path d="M44.4998 7.41667C24.0298 7.41667 7.4165 24.03 7.4165 44.5C7.4165 64.97 24.0298 81.5833 44.4998 81.5833C64.9698 81.5833 81.5832 64.97 81.5832 44.5C81.5832 24.03 64.9698 7.41667 44.4998 7.41667ZM54.364 50.9154L49.6173 53.6596L44.8707 56.4038C38.7519 59.9267 33.7457 57.0342 33.7457 49.9883V44.5V39.0117C33.7457 31.9288 38.7519 29.0733 44.8707 32.5963L49.6173 35.3404L54.364 38.0846C60.4828 41.6075 60.4828 47.3925 54.364 50.9154Z" fill="#fff"/></symbol><symbol viewBox="0 0 18 18" id="svg-plyr-restart"><path d="M9.7,1.2 L10.4,7.6 L12.5,5.5 C14.4,7.4 14.4,10.6 12.5,12.5 C11.6,13.5 10.3,14 9,14 C7.7,14 6.4,13.5 5.5,12.5 C3.6,10.6 3.6,7.4 5.5,5.5 C6.1,4.9 6.9,4.4 7.8,4.2 L7.2,2.3 C6,2.6 4.9,3.2 4,4.1 C1.3,6.8 1.3,11.2 4,14 C5.3,15.3 7.1,16 8.9,16 C10.8,16 12.5,15.3 13.8,14 C16.5,11.3 16.5,6.9 13.8,4.1 L16,1.9 L9.7,1.2 L9.7,1.2 Z"/></symbol><symbol viewBox="0 0 18 18" id="svg-plyr-rewind"><path d="M10.125 1L0 9 10.125 17 10.125 10.8285714 18 17 18 1 10.125 7.17142857z"/></symbol><symbol viewBox="0 0 18 18" id="svg-plyr-settings"><path d="M16.135,7.784 C14.832,7.458 14.214,5.966 14.905,4.815 C15.227,4.279 15.13,3.817 14.811,3.499 L14.501,3.189 C14.183,2.871 13.721,2.774 13.185,3.095 C12.033,3.786 10.541,3.168 10.216,1.865 C10.065,1.258 9.669,1 9.219,1 L8.781,1 C8.331,1 7.936,1.258 7.784,1.865 C7.458,3.168 5.966,3.786 4.815,3.095 C4.279,2.773 3.816,2.87 3.498,3.188 L3.188,3.498 C2.87,3.816 2.773,4.279 3.095,4.815 C3.786,5.967 3.168,7.459 1.865,7.784 C1.26,7.935 1,8.33 1,8.781 L1,9.219 C1,9.669 1.258,10.064 1.865,10.216 C3.168,10.542 3.786,12.034 3.095,13.185 C2.773,13.721 2.87,14.183 3.189,14.501 L3.499,14.811 C3.818,15.13 4.281,15.226 4.815,14.905 C5.967,14.214 7.459,14.832 7.784,16.135 C7.935,16.742 8.331,17 8.781,17 L9.219,17 C9.669,17 10.064,16.742 10.216,16.135 C10.542,14.832 12.034,14.214 13.185,14.905 C13.72,15.226 14.182,15.13 14.501,14.811 L14.811,14.501 C15.129,14.183 15.226,13.72 14.905,13.185 C14.214,12.033 14.832,10.541 16.135,10.216 C16.742,10.065 17,9.669 17,9.219 L17,8.781 C17,8.33 16.74,7.935 16.135,7.784 L16.135,7.784 Z M9,12 C7.343,12 6,10.657 6,9 C6,7.343 7.343,6 9,6 C10.657,6 12,7.343 12,9 C12,10.657 10.657,12 9,12 L9,12 Z"/></symbol><symbol viewBox="0 0 18 18" id="svg-plyr-volume"><path d="M15.5999996,3.3 C15.1999996,2.9 14.5999996,2.9 14.1999996,3.3 C13.7999996,3.7 13.7999996,4.3 14.1999996,4.7 C15.3999996,5.9 15.9999996,7.4 15.9999996,9 C15.9999996,10.6 15.3999996,12.1 14.1999996,13.3 C13.7999996,13.7 13.7999996,14.3 14.1999996,14.7 C14.3999996,14.9 14.6999996,15 14.8999996,15 C15.1999996,15 15.3999996,14.9 15.5999996,14.7 C17.0999996,13.2 17.9999996,11.2 17.9999996,9 C17.9999996,6.8 17.0999996,4.8 15.5999996,3.3 L15.5999996,3.3 Z"/><path d="M11.2819745 5.28197449C10.9060085 5.65794047 10.9060085 6.22188944 11.2819745 6.59785542 12.0171538 7.33303477 12.2772954 8.05605449 12.2772954 9.00000021 12.2772954 9.93588462 11.851678 10.9172014 11.2819745 11.4869049 10.9060085 11.8628709 10.9060085 12.4268199 11.2819745 12.8027859 11.4271642 12.9479755 11.9176724 13.0649528 12.2998149 12.9592565 12.4124479 12.9281035 12.5156669 12.8776063 12.5978555 12.8027859 13.773371 11.732654 14.1311161 10.1597914 14.1312523 9.00000021 14.1312723 8.8299555 14.1286311 8.66015647 14.119665 8.4897429 14.0674781 7.49784946 13.8010171 6.48513613 12.5978554 5.28197449 12.2218894 4.9060085 11.6579405 4.9060085 11.2819745 5.28197449zM3.78571429 6.00820648L.714285714 6.00820648C.285714286 6.00820648 0 6.30901277 0 6.76022222L0 11.2723167C0 11.7235261.285714286 12.0243324.714285714 12.0243324L3.78571429 12.0243324 7.85714286 15.8819922C8.35714286 16.1827985 9 15.8819922 9 15.2803796L9 2.75215925C9 2.15054666 8.35714286 1.77453879 7.85714286 2.15054666L3.78571429 6.00820648z"/></symbol><symbol viewBox="0 0 18 15" fill="none" id="svg-telegram"><path d="M0.315631 7.19988L4.45392 8.67401L6.06714 13.6324C6.13728 13.9675 6.55812 14.0345 6.83868 13.8335L9.1533 12.0243C9.36372 11.8233 9.71443 11.8233 9.99499 12.0243L14.1333 14.9056C14.4138 15.1066 14.8347 14.9726 14.9048 14.6375L17.991 0.5663C18.0611 0.231271 17.7104 -0.103756 17.3597 0.0302562L0.315631 6.32881C-0.10521 6.46282 -0.10521 7.06587 0.315631 7.19988ZM5.85672 7.93694L13.993 3.17953C14.1333 3.11252 14.2735 3.31354 14.1333 3.38055L7.46994 9.34407C7.25952 9.54509 7.0491 9.81311 7.0491 10.1481L6.83868 11.7563C6.83868 11.9573 6.48798 12.0243 6.41784 11.7563L5.57615 8.80802C5.36573 8.47299 5.50602 8.07096 5.85672 7.93694Z" fill="#fff"/></symbol><symbol viewBox="0 0 23 17" id="svg-youtube"><path d="M22.8914 6.64141C22.8914 6.15656 22.8106 5.59091 22.8106 4.94444C22.7298 4.29798 22.649 3.65151 22.5682 3.08586C22.4066 2.43939 22.1641 1.95455 21.6793 1.55051C21.2752 1.14647 20.7096 0.904036 20.1439 0.823227C18.2854 0.580803 15.5379 0.5 11.8207 0.5C8.10355 0.5 5.27525 0.580803 3.49747 0.823227C2.93181 0.904036 2.36616 1.14647 1.96212 1.55051C1.55808 1.95455 1.23484 2.43939 1.07323 3.08586C0.911611 3.65151 0.830813 4.21717 0.830813 4.94444C0.750005 5.59091 0.75 6.15656 0.75 6.64141C0.75 7.12626 0.75 7.69191 0.75 8.5C0.75 9.30808 0.75 9.95454 0.75 10.3586C0.75 10.8434 0.830813 11.4091 0.830813 12.0556C0.911621 12.702 0.992419 13.3485 1.07323 13.9141C1.23484 14.5606 1.47727 15.0455 1.96212 15.4495C2.36616 15.8535 2.93181 16.096 3.49747 16.1768C5.35606 16.4192 8.10355 16.5 11.8207 16.5C15.5379 16.5 18.3662 16.4192 20.1439 16.1768C20.7096 16.096 21.2752 15.8535 21.6793 15.4495C22.0833 15.0455 22.4066 14.5606 22.5682 13.9141C22.7298 13.3485 22.8106 12.7828 22.8106 12.0556C22.8914 11.4091 22.8914 10.8434 22.8914 10.3586C22.8914 9.87374 22.8914 9.30808 22.8914 8.5C22.8914 7.69191 22.8914 7.04545 22.8914 6.64141ZM16.1035 9.14646L9.7197 13.1061C9.63889 13.1869 9.47728 13.2677 9.31566 13.2677C9.15405 13.2677 9.07324 13.2677 8.91162 13.1869C8.6692 13.0253 8.50758 12.7828 8.50758 12.4596V4.45959C8.50758 4.13636 8.6692 3.89394 8.91162 3.73232C9.15405 3.57071 9.47728 3.57071 9.7197 3.73232L16.1035 7.69191C16.346 7.85353 16.5076 8.09596 16.5076 8.33838C16.5076 8.58081 16.346 8.98485 16.1035 9.14646Z"/></symbol></svg>