<svg style="display: none;" aria-hidden="true" xmlns="http://www.w3.org/2000/svg" xmlns:xlink="http://www.w3.org/1999/xlink"><symbol viewBox="0 0 90 90" fill="none" id="svg-icon-clock"><path d="M82.5 45C82.5 65.7 65.7 82.5 45 82.5C24.3 82.5 7.5 65.7 7.5 45C7.5 24.3 24.3 7.5 45 7.5C65.7 7.5 82.5 24.3 82.5 45Z" stroke="#EE7937" stroke-width="2" stroke-linecap="round" stroke-linejoin="round"/><path d="M58.9125 56.925L47.2875 49.9875C45.2625 48.7875 43.6125 45.9 43.6125 43.5375V28.1625" stroke="#EE7937" stroke-width="2" stroke-linecap="round" stroke-linejoin="round"/></symbol><symbol viewBox="0 0 90 90" fill="none" id="svg-icon-document-filter"><path d="M12.5624 7.5H45.9375C48.7125 7.5 50.9999 9.78752 50.9999 12.5625V18.1124C50.9999 20.1374 49.725 22.65 48.4875 23.925L37.6126 33.525C36.1126 34.8 35.0999 37.3125 35.0999 39.3375V50.2126C35.0999 51.7126 34.0875 53.7375 32.8125 54.525L29.2875 56.8125C25.9875 58.8375 21.4499 56.55 21.4499 52.5V39.1125C21.4499 37.35 20.4375 35.0625 19.425 33.7875L9.82498 23.6625C8.54998 22.3875 7.53753 20.1375 7.53753 18.6V12.7875C7.50003 9.78751 9.78741 7.5 12.5624 7.5Z" stroke="#EE7937" stroke-width="2" stroke-miterlimit="10" stroke-linecap="round" stroke-linejoin="round"/><path d="M7.5 45V56.25C7.5 75 15 82.5 33.75 82.5H56.25C75 82.5 82.5 75 82.5 56.25V33.75C82.5 22.05 79.5749 14.7 72.7874 10.875 70.8749 9.78748 67.05 8.96246 63.5625 8.39996M48.75 48.75H67.5M41.25 63.75H67.5" stroke="#EE7937" stroke-width="2" stroke-linecap="round" stroke-linejoin="round"/></symbol><symbol viewBox="0 0 90 90" fill="none" id="svg-icon-filter-remove"><path d="M50.2875 77.9624L45 81.375C40.0875 84.4125 33.2625 80.9999 33.2625 74.9249V54.8625C33.2625 52.2 31.7625 48.7875 30.225 46.9125L15.825 31.7624C13.9125 29.8499 12.4125 26.475 12.4125 24.1875V15.4875C12.4125 10.95 15.825 7.53754 19.9875 7.53754H70.0125C74.175 7.53754 77.5875 10.9501 77.5875 15.1126V23.4375C77.5875 26.475 75.675 30.2625 73.8 32.1375" stroke="#EE7937" stroke-width="2" stroke-miterlimit="10" stroke-linecap="round" stroke-linejoin="round"/><path d="M81.1125 55.3125C81.1125 58.65 80.175 61.8 78.525 64.5 75.45 69.675 69.7875 73.125 63.3 73.125 56.8125 73.125 51.15 69.6375 48.075 64.5 46.425 61.8375 45.4875 58.65 45.4875 55.3125 45.4875 45.4875 53.475 37.5 63.3 37.5 73.125 37.5 81.1125 45.4875 81.1125 55.3125zM68.0625 59.9625L58.65 50.5499M67.9875 50.6625L58.575 60.0751" stroke="#EE7937" stroke-width="2" stroke-miterlimit="10" stroke-linecap="round" stroke-linejoin="round"/><path d="M77.5875 15.0751V23.4C77.5875 26.4375 75.675 30.225 73.8 32.1375L67.2 37.95C65.9625 37.65 64.65 37.5 63.3 37.5C53.475 37.5 45.4875 45.4875 45.4875 55.3125C45.4875 58.65 46.425 61.8 48.075 64.5C49.4625 66.825 51.375 68.8124 53.7 70.2374V71.5125C53.7 73.8 52.2 76.8374 50.2875 77.9624L45 81.3751C40.0875 84.4126 33.2625 80.9999 33.2625 74.9249V54.8625C33.2625 52.2 31.725 48.7875 30.225 46.9125L15.825 31.7624C13.95 29.8499 12.4125 26.4375 12.4125 24.1875V15.45C12.4125 10.9125 15.825 7.5 19.9875 7.5H70.0125C74.175 7.5 77.5875 10.9126 77.5875 15.0751Z" stroke="#EE7937" stroke-width="2" stroke-miterlimit="10" stroke-linecap="round" stroke-linejoin="round"/></symbol><symbol viewBox="0 0 90 90" fill="none" id="svg-icon-location-add"><path d="M34.6875 41.25H55.3125M45 51.5625V30.9375" stroke="#EE7937" stroke-width="2" stroke-linecap="round"/><path d="M13.575 31.8375C20.9625 -0.637491 69.075 -0.59999 76.425 31.875C80.7375 50.925 68.8875 67.05 58.5 77.025C50.9625 84.3 39.0375 84.3 31.4625 77.025C21.1125 67.05 9.26251 50.8875 13.575 31.8375Z" stroke="#EE7937" stroke-width="2"/></symbol><symbol viewBox="0 0 90 90" fill="none" id="svg-icon-notification"><path d="M45 24.15V36.6375M45.0751 7.5C31.2751 7.5 20.1001 18.675 20.1001 32.475V40.35C20.1001 42.9 19.0501 46.725 17.7376 48.9L12.9751 56.85C10.0501 61.7625 12.0751 67.2375 17.4751 69.0375 35.4001 75 54.7876 75 72.7126 69.0375 77.7751 67.35 79.9501 61.425 77.2126 56.85L72.4501 48.9C71.1376 46.725 70.0876 42.8625 70.0876 40.35V32.475C70.0501 18.75 58.8001 7.5 45.0751 7.5z" stroke="#EE7937" stroke-width="2" stroke-miterlimit="10" stroke-linecap="round"/><path d="M57.4875 71.575C57.4875 78.4375 51.8625 84.0625 45 84.0625C41.5875 84.0625 38.4375 82.6375 36.1874 80.3875C33.9374 78.1375 32.5125 74.9875 32.5125 71.575" stroke="#EE7937" stroke-width="2" stroke-miterlimit="10"/></symbol><symbol viewBox="0 0 20 22" fill="none" id="svg-icon-play"><path d="M0 3.82986V18.1721C0 21.1095 3.17792 22.9529 5.71429 21.4842L11.906 17.9024L18.0977 14.3056C20.6341 12.8369 20.6341 9.16512 18.0977 7.69643L11.906 4.09962L5.71429 0.517802C3.17792 -0.950894 0 0.877482 0 3.82986Z" fill="#fff"/></symbol><symbol viewBox="0 0 90 90" fill="none" id="svg-icon-receipt"><path d="M82.5 22.5V31.575C82.5 37.5 78.7499 41.25 72.8249 41.25H60V15.0375C60 10.875 63.4126 7.5 67.5751 7.5C71.6626 7.5375 75.4126 9.1875 78.1126 11.8875C80.8126 14.625 82.5 18.375 82.5 22.5Z" stroke="#EE7937" stroke-width="2" stroke-miterlimit="10" stroke-linecap="round" stroke-linejoin="round"/><path d="M7.5 26.25V78.75C7.5 81.8625 11.0249 83.625 13.4999 81.75L19.9125 76.95C21.4125 75.825 23.5125 75.975 24.8625 77.325L31.0874 83.5875C32.5499 85.05 34.9501 85.05 36.4126 83.5875L42.7126 77.2875C44.0251 75.975 46.125 75.825 47.5875 76.95L54.0001 81.75C56.4751 83.5875 60 81.825 60 78.75V15C60 10.875 63.375 7.5 67.5 7.5H26.25H22.5C11.25 7.5 7.5 14.2125 7.5 22.5V26.25Z" stroke="#EE7937" stroke-width="2" stroke-miterlimit="10" stroke-linecap="round" stroke-linejoin="round"/><path d="M22.5 33.75H45M25.3125 48.75H42.1875" stroke="#EE7937" stroke-width="2" stroke-linecap="round" stroke-linejoin="round"/></symbol><symbol viewBox="0 0 90 90" fill="none" id="svg-icon-routing-2"><path d="M20.5125 33.75C27.7612 33.75 33.6375 27.8737 33.6375 20.625 33.6375 13.3763 27.7612 7.5 20.5125 7.5 13.2638 7.5 7.38751 13.3763 7.38751 20.625 7.38751 27.8737 13.2638 33.75 20.5125 33.75zM63.6375 56.25H74.8875C79.0125 56.25 82.3875 59.625 82.3875 63.75V75C82.3875 79.125 79.0125 82.5 74.8875 82.5H63.6375C59.5125 82.5 56.1375 79.125 56.1375 75V63.75C56.1375 59.625 59.5125 56.25 63.6375 56.25z" stroke="#EE7937" stroke-width="2"/><path d="M45 18.75H55.05C61.9875 18.75 65.2125 27.3375 60 31.9125L30.0375 58.125C24.825 62.6625 28.05 71.25 34.95 71.25H45M20.5734 20.625H20.6168M69.3234 69.375H69.3668" stroke="#EE7937" stroke-width="2" stroke-linecap="round" stroke-linejoin="round"/></symbol><symbol viewBox="0 0 90 90" fill="none" id="svg-icon-search-status"><path d="M52.5 18.75H75M52.5 30H63.75M78.75 43.125C78.75 62.8125 62.8125 78.75 43.125 78.75 23.4375 78.75 7.5 62.8125 7.5 43.125 7.5 23.4375 23.4375 7.5 43.125 7.5M82.5 82.5L75 75" stroke="#EE7937" stroke-width="2" stroke-linecap="round" stroke-linejoin="round"/></symbol><symbol viewBox="0 0 90 90" fill="none" id="svg-icon-task"><path d="M41.25 76.125H78.75M41.25 49.875H78.75M41.25 23.625H78.75M11.25 23.625L15 27.375 26.25 16.125M11.25 49.875L15 53.625 26.25 42.375M11.25 76.125L15 79.875 26.25 68.625" stroke="#EE7937" stroke-width="2" stroke-linecap="round" stroke-linejoin="round"/></symbol><symbol viewBox="0 0 20 20" fill="none" id="svg-icon-tick-circle"><path opacity=".5" d="M9.99999 1.6665C5.40832 1.6665 1.66666 5.40817 1.66666 9.99984C1.66666 14.5915 5.40832 18.3332 9.99999 18.3332C14.5917 18.3332 18.3333 14.5915 18.3333 9.99984C18.3333 5.40817 14.5917 1.6665 9.99999 1.6665ZM13.9833 8.08317L9.25832 12.8082C9.14166 12.9248 8.98332 12.9915 8.81666 12.9915C8.64999 12.9915 8.49166 12.9248 8.37499 12.8082L6.01666 10.4498C5.77499 10.2082 5.77499 9.80817 6.01666 9.5665C6.25832 9.32484 6.65832 9.32484 6.89999 9.5665L8.81666 11.4832L13.1 7.19984C13.3417 6.95817 13.7417 6.95817 13.9833 7.19984C14.225 7.4415 14.225 7.83317 13.9833 8.08317Z" fill="#fff"/></symbol><symbol viewBox="0 0 30 30" fill="none" id="svg-icon-xcircle"><path d="M18.75 11.25L11.25 18.75M18.75 18.75L11.25 11.25" stroke="#E47979" stroke-width="2" stroke-linecap="round" stroke-linejoin="round"/></symbol><symbol viewBox="0 0 25 25" fill="none" id="svg-instagram"><path d="M8.41762 12.375C8.41762 10.189 10.1893 8.41635 12.3755 8.41635C14.5616 8.41635 16.3343 10.189 16.3343 12.375C16.3343 14.561 14.5616 16.3336 12.3755 16.3336C10.1893 16.3336 8.41762 14.561 8.41762 12.375ZM6.27756 12.375C6.27756 15.7427 9.00759 18.4727 12.3755 18.4727C15.7434 18.4727 18.4734 15.7427 18.4734 12.375C18.4734 9.00725 15.7434 6.27733 12.3755 6.27733C9.00759 6.27733 6.27756 9.00725 6.27756 12.375ZM17.2897 6.03555C17.2896 6.31739 17.3731 6.59294 17.5296 6.82734C17.6861 7.06174 17.9086 7.24448 18.1689 7.35243C18.4293 7.46039 18.7158 7.48873 18.9923 7.43385C19.2687 7.37898 19.5227 7.24336 19.7221 7.04415C19.9214 6.84494 20.0573 6.59109 20.1124 6.31469C20.1675 6.03829 20.1393 5.75176 20.0316 5.49133C19.9238 5.2309 19.7413 5.00827 19.507 4.8516C19.2727 4.69492 18.9972 4.61124 18.7154 4.61112H18.7148C18.337 4.6113 17.9747 4.76141 17.7075 5.02849C17.4403 5.29557 17.2901 5.65777 17.2897 6.03555V6.03555ZM7.57778 22.041C6.41997 21.9882 5.79067 21.7954 5.37246 21.6325C4.81802 21.4166 4.42242 21.1596 4.0065 20.7442C3.59057 20.3289 3.33311 19.9337 3.11821 19.3793C2.95518 18.9613 2.76233 18.3318 2.70969 17.174C2.65212 15.9223 2.64063 15.5463 2.64063 12.3751C2.64063 9.2039 2.65307 8.82893 2.70969 7.57617C2.76242 6.4184 2.9567 5.79017 3.11821 5.37093C3.33406 4.81651 3.59114 4.42093 4.0065 4.00503C4.42185 3.58912 4.81707 3.33167 5.37246 3.11678C5.79048 2.95376 6.41997 2.7609 7.57778 2.70827C8.82955 2.6507 9.20558 2.63921 12.3755 2.63921C15.5454 2.63921 15.9218 2.65165 17.1746 2.70827C18.3324 2.761 18.9607 2.95528 19.3799 3.11678C19.9344 3.33167 20.33 3.58969 20.7459 4.00503C21.1618 4.42037 21.4183 4.81651 21.6342 5.37093C21.7972 5.78893 21.9901 6.4184 22.0427 7.57617C22.1003 8.82893 22.1118 9.2039 22.1118 12.3751C22.1118 15.5463 22.1003 15.9213 22.0427 17.174C21.99 18.3318 21.7961 18.9611 21.6342 19.3793C21.4183 19.9337 21.1612 20.3293 20.7459 20.7442C20.3305 21.1592 19.9344 21.4166 19.3799 21.6325C18.9619 21.7955 18.3324 21.9883 17.1746 22.041C15.9228 22.0985 15.5468 22.11 12.3755 22.11C9.20415 22.11 8.82917 22.0985 7.57778 22.041V22.041ZM7.47945 0.571915C6.21524 0.629485 5.35137 0.829935 4.59694 1.12348C3.81563 1.42663 3.15422 1.83332 2.49327 2.49319C1.83233 3.15306 1.42667 3.8155 1.12351 4.59678C0.829948 5.35165 0.62949 6.21501 0.571918 7.47918C0.513396 8.74533 0.5 9.15013 0.5 12.375C0.5 15.5999 0.513396 16.0047 0.571918 17.2708C0.62949 18.5351 0.829948 19.3983 1.12351 20.1532C1.42667 20.934 1.83243 21.5972 2.49327 22.2568C3.15412 22.9164 3.81563 23.3225 4.59694 23.6265C5.35279 23.9201 6.21524 24.1205 7.47945 24.1781C8.74633 24.2357 9.15048 24.25 12.3755 24.25C15.6005 24.25 16.0053 24.2366 17.2715 24.1781C18.5358 24.1205 19.3991 23.9201 20.154 23.6265C20.9348 23.3225 21.5967 22.9167 22.2577 22.2568C22.9186 21.5969 23.3234 20.934 23.6274 20.1532C23.921 19.3983 24.1224 18.535 24.179 17.2708C24.2366 16.0037 24.25 15.5999 24.25 12.375C24.25 9.15013 24.2366 8.74533 24.179 7.47918C24.1215 6.21492 23.921 5.35117 23.6274 4.59678C23.3234 3.81597 22.9176 3.15411 22.2577 2.49319C21.5978 1.83228 20.9348 1.42663 20.155 1.12348C19.3991 0.829935 18.5357 0.628535 17.2724 0.571915C16.0062 0.514345 15.6014 0.5 12.3764 0.5C9.15143 0.5 8.74633 0.513395 7.47945 0.571915Z" fill="#fff"/></symbol><symbol viewBox="0 0 23 17" fill="none" id="svg-youtube"><path d="M22.8914 6.64141C22.8914 6.15656 22.8106 5.59091 22.8106 4.94444C22.7298 4.29798 22.649 3.65151 22.5682 3.08586C22.4066 2.43939 22.1641 1.95455 21.6793 1.55051C21.2752 1.14647 20.7096 0.904036 20.1439 0.823227C18.2854 0.580803 15.5379 0.5 11.8207 0.5C8.10355 0.5 5.27525 0.580803 3.49747 0.823227C2.93181 0.904036 2.36616 1.14647 1.96212 1.55051C1.55808 1.95455 1.23484 2.43939 1.07323 3.08586C0.911611 3.65151 0.830813 4.21717 0.830813 4.94444C0.750005 5.59091 0.75 6.15656 0.75 6.64141C0.75 7.12626 0.75 7.69191 0.75 8.5C0.75 9.30808 0.75 9.95454 0.75 10.3586C0.75 10.8434 0.830813 11.4091 0.830813 12.0556C0.911621 12.702 0.992419 13.3485 1.07323 13.9141C1.23484 14.5606 1.47727 15.0455 1.96212 15.4495C2.36616 15.8535 2.93181 16.096 3.49747 16.1768C5.35606 16.4192 8.10355 16.5 11.8207 16.5C15.5379 16.5 18.3662 16.4192 20.1439 16.1768C20.7096 16.096 21.2752 15.8535 21.6793 15.4495C22.0833 15.0455 22.4066 14.5606 22.5682 13.9141C22.7298 13.3485 22.8106 12.7828 22.8106 12.0556C22.8914 11.4091 22.8914 10.8434 22.8914 10.3586C22.8914 9.87374 22.8914 9.30808 22.8914 8.5C22.8914 7.69191 22.8914 7.04545 22.8914 6.64141ZM16.1035 9.14646L9.7197 13.1061C9.63889 13.1869 9.47728 13.2677 9.31566 13.2677C9.15405 13.2677 9.07324 13.2677 8.91162 13.1869C8.6692 13.0253 8.50758 12.7828 8.50758 12.4596V4.45959C8.50758 4.13636 8.6692 3.89394 8.91162 3.73232C9.15405 3.57071 9.47728 3.57071 9.7197 3.73232L16.1035 7.69191C16.346 7.85353 16.5076 8.09596 16.5076 8.33838C16.5076 8.58081 16.346 8.98485 16.1035 9.14646Z" fill="#fff"/></symbol></svg>