<svg width="90" height="90" viewBox="0 0 90 90" fill="none" xmlns="http://www.w3.org/2000/svg">
<path d="M20.5125 33.75C27.7612 33.75 33.6375 27.8737 33.6375 20.625C33.6375 13.3763 27.7612 7.5 20.5125 7.5C13.2638 7.5 7.38751 13.3763 7.38751 20.625C7.38751 27.8737 13.2638 33.75 20.5125 33.75Z" stroke="#EE7937" stroke-width="2"/>
<path d="M63.6375 56.25H74.8875C79.0125 56.25 82.3875 59.625 82.3875 63.75V75C82.3875 79.125 79.0125 82.5 74.8875 82.5H63.6375C59.5125 82.5 56.1375 79.125 56.1375 75V63.75C56.1375 59.625 59.5125 56.25 63.6375 56.25Z" stroke="#EE7937" stroke-width="2"/>
<path d="M45 18.75H55.05C61.9875 18.75 65.2125 27.3375 60 31.9125L30.0375 58.125C24.825 62.6625 28.05 71.25 34.95 71.25H45" stroke="#EE7937" stroke-width="2" stroke-linecap="round" stroke-linejoin="round"/>
<path d="M20.5734 20.625H20.6168" stroke="#EE7937" stroke-width="2" stroke-linecap="round" stroke-linejoin="round"/>
<path d="M69.3234 69.375H69.3668" stroke="#EE7937" stroke-width="2" stroke-linecap="round" stroke-linejoin="round"/>
</svg>
