<svg width="90" height="90" viewBox="0 0 90 90" fill="none" xmlns="http://www.w3.org/2000/svg">
<path d="M82.5 22.5V31.575C82.5 37.5 78.7499 41.25 72.8249 41.25H60V15.0375C60 10.875 63.4126 7.5 67.5751 7.5C71.6626 7.5375 75.4126 9.1875 78.1126 11.8875C80.8126 14.625 82.5 18.375 82.5 22.5Z" stroke="#EE7937" stroke-width="2" stroke-miterlimit="10" stroke-linecap="round" stroke-linejoin="round"/>
<path d="M7.5 26.25V78.75C7.5 81.8625 11.0249 83.625 13.4999 81.75L19.9125 76.95C21.4125 75.825 23.5125 75.975 24.8625 77.325L31.0874 83.5875C32.5499 85.05 34.9501 85.05 36.4126 83.5875L42.7126 77.2875C44.0251 75.975 46.125 75.825 47.5875 76.95L54.0001 81.75C56.4751 83.5875 60 81.825 60 78.75V15C60 10.875 63.375 7.5 67.5 7.5H26.25H22.5C11.25 7.5 7.5 14.2125 7.5 22.5V26.25Z" stroke="#EE7937" stroke-width="2" stroke-miterlimit="10" stroke-linecap="round" stroke-linejoin="round"/>
<path d="M22.5 33.75H45" stroke="#EE7937" stroke-width="2" stroke-linecap="round" stroke-linejoin="round"/>
<path d="M25.3125 48.75H42.1875" stroke="#EE7937" stroke-width="2" stroke-linecap="round" stroke-linejoin="round"/>
</svg>
