<svg width="90" height="90" viewBox="0 0 90 90" fill="none" xmlns="http://www.w3.org/2000/svg">
<path d="M12.5624 7.5H45.9375C48.7125 7.5 50.9999 9.78752 50.9999 12.5625V18.1124C50.9999 20.1374 49.725 22.65 48.4875 23.925L37.6126 33.525C36.1126 34.8 35.0999 37.3125 35.0999 39.3375V50.2126C35.0999 51.7126 34.0875 53.7375 32.8125 54.525L29.2875 56.8125C25.9875 58.8375 21.4499 56.55 21.4499 52.5V39.1125C21.4499 37.35 20.4375 35.0625 19.425 33.7875L9.82498 23.6625C8.54998 22.3875 7.53753 20.1375 7.53753 18.6V12.7875C7.50003 9.78751 9.78741 7.5 12.5624 7.5Z" stroke="#EE7937" stroke-width="2" stroke-miterlimit="10" stroke-linecap="round" stroke-linejoin="round"/>
<path d="M7.5 45V56.25C7.5 75 15 82.5 33.75 82.5H56.25C75 82.5 82.5 75 82.5 56.25V33.75C82.5 22.05 79.5749 14.7 72.7874 10.875C70.8749 9.78748 67.05 8.96246 63.5625 8.39996" stroke="#EE7937" stroke-width="2" stroke-linecap="round" stroke-linejoin="round"/>
<path d="M48.75 48.75H67.5" stroke="#EE7937" stroke-width="2" stroke-linecap="round" stroke-linejoin="round"/>
<path d="M41.25 63.75H67.5" stroke="#EE7937" stroke-width="2" stroke-linecap="round" stroke-linejoin="round"/>
</svg>
