<svg width="90" height="90" viewBox="0 0 90 90" fill="none" xmlns="http://www.w3.org/2000/svg">
<path d="M50.2875 77.9624L45 81.375C40.0875 84.4125 33.2625 80.9999 33.2625 74.9249V54.8625C33.2625 52.2 31.7625 48.7875 30.225 46.9125L15.825 31.7624C13.9125 29.8499 12.4125 26.475 12.4125 24.1875V15.4875C12.4125 10.95 15.825 7.53754 19.9875 7.53754H70.0125C74.175 7.53754 77.5875 10.9501 77.5875 15.1126V23.4375C77.5875 26.475 75.675 30.2625 73.8 32.1375" stroke="#EE7937" stroke-width="2" stroke-miterlimit="10" stroke-linecap="round" stroke-linejoin="round"/>
<path d="M81.1125 55.3125C81.1125 58.65 80.175 61.8 78.525 64.5C75.45 69.675 69.7875 73.125 63.3 73.125C56.8125 73.125 51.15 69.6375 48.075 64.5C46.425 61.8375 45.4875 58.65 45.4875 55.3125C45.4875 45.4875 53.475 37.5 63.3 37.5C73.125 37.5 81.1125 45.4875 81.1125 55.3125Z" stroke="#EE7937" stroke-width="2" stroke-miterlimit="10" stroke-linecap="round" stroke-linejoin="round"/>
<path d="M68.0625 59.9625L58.65 50.5499" stroke="#EE7937" stroke-width="2" stroke-miterlimit="10" stroke-linecap="round" stroke-linejoin="round"/>
<path d="M67.9875 50.6625L58.575 60.0751" stroke="#EE7937" stroke-width="2" stroke-miterlimit="10" stroke-linecap="round" stroke-linejoin="round"/>
<path d="M77.5875 15.0751V23.4C77.5875 26.4375 75.675 30.225 73.8 32.1375L67.2 37.95C65.9625 37.65 64.65 37.5 63.3 37.5C53.475 37.5 45.4875 45.4875 45.4875 55.3125C45.4875 58.65 46.425 61.8 48.075 64.5C49.4625 66.825 51.375 68.8124 53.7 70.2374V71.5125C53.7 73.8 52.2 76.8374 50.2875 77.9624L45 81.3751C40.0875 84.4126 33.2625 80.9999 33.2625 74.9249V54.8625C33.2625 52.2 31.725 48.7875 30.225 46.9125L15.825 31.7624C13.95 29.8499 12.4125 26.4375 12.4125 24.1875V15.45C12.4125 10.9125 15.825 7.5 19.9875 7.5H70.0125C74.175 7.5 77.5875 10.9126 77.5875 15.0751Z" stroke="#EE7937" stroke-width="2" stroke-miterlimit="10" stroke-linecap="round" stroke-linejoin="round"/>
</svg>
