<svg width="25" height="25" viewBox="0 0 25 25" fill="none" xmlns="http://www.w3.org/2000/svg">
<path d="M8.41762 12.375C8.41762 10.189 10.1893 8.41635 12.3755 8.41635C14.5616 8.41635 16.3343 10.189 16.3343 12.375C16.3343 14.561 14.5616 16.3336 12.3755 16.3336C10.1893 16.3336 8.41762 14.561 8.41762 12.375ZM6.27756 12.375C6.27756 15.7427 9.00759 18.4727 12.3755 18.4727C15.7434 18.4727 18.4734 15.7427 18.4734 12.375C18.4734 9.00725 15.7434 6.27733 12.3755 6.27733C9.00759 6.27733 6.27756 9.00725 6.27756 12.375ZM17.2897 6.03555C17.2896 6.31739 17.3731 6.59294 17.5296 6.82734C17.6861 7.06174 17.9086 7.24448 18.1689 7.35243C18.4293 7.46039 18.7158 7.48873 18.9923 7.43385C19.2687 7.37898 19.5227 7.24336 19.7221 7.04415C19.9214 6.84494 20.0573 6.59109 20.1124 6.31469C20.1675 6.03829 20.1393 5.75176 20.0316 5.49133C19.9238 5.2309 19.7413 5.00827 19.507 4.8516C19.2727 4.69492 18.9972 4.61124 18.7154 4.61112H18.7148C18.337 4.6113 17.9747 4.76141 17.7075 5.02849C17.4403 5.29557 17.2901 5.65777 17.2897 6.03555V6.03555ZM7.57778 22.041C6.41997 21.9882 5.79067 21.7954 5.37246 21.6325C4.81802 21.4166 4.42242 21.1596 4.0065 20.7442C3.59057 20.3289 3.33311 19.9337 3.11821 19.3793C2.95518 18.9613 2.76233 18.3318 2.70969 17.174C2.65212 15.9223 2.64063 15.5463 2.64063 12.3751C2.64063 9.2039 2.65307 8.82893 2.70969 7.57617C2.76242 6.4184 2.9567 5.79017 3.11821 5.37093C3.33406 4.81651 3.59114 4.42093 4.0065 4.00503C4.42185 3.58912 4.81707 3.33167 5.37246 3.11678C5.79048 2.95376 6.41997 2.7609 7.57778 2.70827C8.82955 2.6507 9.20558 2.63921 12.3755 2.63921C15.5454 2.63921 15.9218 2.65165 17.1746 2.70827C18.3324 2.761 18.9607 2.95528 19.3799 3.11678C19.9344 3.33167 20.33 3.58969 20.7459 4.00503C21.1618 4.42037 21.4183 4.81651 21.6342 5.37093C21.7972 5.78893 21.9901 6.4184 22.0427 7.57617C22.1003 8.82893 22.1118 9.2039 22.1118 12.3751C22.1118 15.5463 22.1003 15.9213 22.0427 17.174C21.99 18.3318 21.7961 18.9611 21.6342 19.3793C21.4183 19.9337 21.1612 20.3293 20.7459 20.7442C20.3305 21.1592 19.9344 21.4166 19.3799 21.6325C18.9619 21.7955 18.3324 21.9883 17.1746 22.041C15.9228 22.0985 15.5468 22.11 12.3755 22.11C9.20415 22.11 8.82917 22.0985 7.57778 22.041V22.041ZM7.47945 0.571915C6.21524 0.629485 5.35137 0.829935 4.59694 1.12348C3.81563 1.42663 3.15422 1.83332 2.49327 2.49319C1.83233 3.15306 1.42667 3.8155 1.12351 4.59678C0.829948 5.35165 0.62949 6.21501 0.571918 7.47918C0.513396 8.74533 0.5 9.15013 0.5 12.375C0.5 15.5999 0.513396 16.0047 0.571918 17.2708C0.62949 18.5351 0.829948 19.3983 1.12351 20.1532C1.42667 20.934 1.83243 21.5972 2.49327 22.2568C3.15412 22.9164 3.81563 23.3225 4.59694 23.6265C5.35279 23.9201 6.21524 24.1205 7.47945 24.1781C8.74633 24.2357 9.15048 24.25 12.3755 24.25C15.6005 24.25 16.0053 24.2366 17.2715 24.1781C18.5358 24.1205 19.3991 23.9201 20.154 23.6265C20.9348 23.3225 21.5967 22.9167 22.2577 22.2568C22.9186 21.5969 23.3234 20.934 23.6274 20.1532C23.921 19.3983 24.1224 18.535 24.179 17.2708C24.2366 16.0037 24.25 15.5999 24.25 12.375C24.25 9.15013 24.2366 8.74533 24.179 7.47918C24.1215 6.21492 23.921 5.35117 23.6274 4.59678C23.3234 3.81597 22.9176 3.15411 22.2577 2.49319C21.5978 1.83228 20.9348 1.42663 20.155 1.12348C19.3991 0.829935 18.5357 0.628535 17.2724 0.571915C16.0062 0.514345 15.6014 0.5 12.3764 0.5C9.15143 0.5 8.74633 0.513395 7.47945 0.571915Z" fill="white"/>
</svg>
