<svg width="23" height="17" viewBox="0 0 23 17" fill="none" xmlns="http://www.w3.org/2000/svg">
<path d="M22.8914 6.64141C22.8914 6.15656 22.8106 5.59091 22.8106 4.94444C22.7298 4.29798 22.649 3.65151 22.5682 3.08586C22.4066 2.43939 22.1641 1.95455 21.6793 1.55051C21.2752 1.14647 20.7096 0.904036 20.1439 0.823227C18.2854 0.580803 15.5379 0.5 11.8207 0.5C8.10355 0.5 5.27525 0.580803 3.49747 0.823227C2.93181 0.904036 2.36616 1.14647 1.96212 1.55051C1.55808 1.95455 1.23484 2.43939 1.07323 3.08586C0.911611 3.65151 0.830813 4.21717 0.830813 4.94444C0.750005 5.59091 0.75 6.15656 0.75 6.64141C0.75 7.12626 0.75 7.69191 0.75 8.5C0.75 9.30808 0.75 9.95454 0.75 10.3586C0.75 10.8434 0.830813 11.4091 0.830813 12.0556C0.911621 12.702 0.992419 13.3485 1.07323 13.9141C1.23484 14.5606 1.47727 15.0455 1.96212 15.4495C2.36616 15.8535 2.93181 16.096 3.49747 16.1768C5.35606 16.4192 8.10355 16.5 11.8207 16.5C15.5379 16.5 18.3662 16.4192 20.1439 16.1768C20.7096 16.096 21.2752 15.8535 21.6793 15.4495C22.0833 15.0455 22.4066 14.5606 22.5682 13.9141C22.7298 13.3485 22.8106 12.7828 22.8106 12.0556C22.8914 11.4091 22.8914 10.8434 22.8914 10.3586C22.8914 9.87374 22.8914 9.30808 22.8914 8.5C22.8914 7.69191 22.8914 7.04545 22.8914 6.64141ZM16.1035 9.14646L9.7197 13.1061C9.63889 13.1869 9.47728 13.2677 9.31566 13.2677C9.15405 13.2677 9.07324 13.2677 8.91162 13.1869C8.6692 13.0253 8.50758 12.7828 8.50758 12.4596V4.45959C8.50758 4.13636 8.6692 3.89394 8.91162 3.73232C9.15405 3.57071 9.47728 3.57071 9.7197 3.73232L16.1035 7.69191C16.346 7.85353 16.5076 8.09596 16.5076 8.33838C16.5076 8.58081 16.346 8.98485 16.1035 9.14646Z" fill="white"/>
</svg>
