<svg width="130" height="133" viewBox="0 0 130 133" fill="none" xmlns="http://www.w3.org/2000/svg">
<circle opacity="0.5" cx="65" cy="60" r="60" fill="white"/>
<g filter="url(#filter0_d_842_115996)">
<circle cx="65" cy="60" r="46" fill="white"/>
</g>
<path d="M60.88 77.4999C58.52 77.4999 56.24 76.9999 54.1 75.9999L46.78 77.0599C46.3 77.1399 45.84 76.9599 45.5 76.6399C45.16 76.2999 45 75.8199 45.08 75.3599L46.2 67.9399C45.4 66.0199 45 64.0199 45 61.9999C45 57.9599 46.58 54.1199 49.46 51.2199C50.04 50.6199 51 50.6399 51.58 51.2199C52.16 51.7999 52.18 52.7599 51.58 53.3399C49.26 55.6799 47.98 58.7399 47.98 61.9999C47.98 63.7399 48.36 65.4799 49.12 67.1399C49.28 67.4799 49.3 67.8599 49.18 68.2199L48.34 73.8199L54.12 72.9799C54.42 72.9399 54.72 72.9799 55 73.1199C57.24 74.2399 59.74 74.6799 62.16 74.4399C62.96 74.3399 63.72 74.9599 63.8 75.7799C63.88 76.5999 63.28 77.3399 62.46 77.4199C61.96 77.4799 61.42 77.4999 60.88 77.4999Z" fill="#777E90"/>
<path d="M85.0202 58C85.0202 49.46 77.8802 42.5 69.1202 42.5C64.8202 42.5 60.8202 44.14 57.8602 47.08C54.8802 50.02 53.2402 53.88 53.2402 58C53.2402 66.54 60.3602 73.5 69.1202 73.5C69.9202 73.5 70.6803 73.44 71.3203 73.34C71.3403 73.34 71.3802 73.34 71.4002 73.32C72.9802 73.1 74.4802 72.66 75.9002 72L83.2202 73.06C83.7002 73.14 84.1602 72.98 84.5002 72.64C84.8202 72.3 84.9803 71.82 84.9203 71.36L83.8002 63.92C84.6002 62.02 85.0202 60.02 85.0202 58ZM64.2202 58.5C64.0202 59.12 63.4202 59.56 62.7202 59.56C61.8402 59.56 61.1202 58.86 61.1202 58C61.1202 57.14 61.8402 56.44 62.7202 56.44C62.9002 56.44 63.0602 56.46 63.2202 56.52C63.8602 56.72 64.3203 57.32 64.3203 58C64.3203 58.18 64.2802 58.34 64.2202 58.5ZM69.1202 59.56C68.2402 59.56 67.5202 58.86 67.5202 58C67.5202 57.14 68.2402 56.44 69.1202 56.44C70.0002 56.44 70.7202 57.14 70.7202 58C70.7202 58.86 70.0002 59.56 69.1202 59.56ZM75.5202 59.56C74.6402 59.56 73.9203 58.86 73.9203 58C73.9203 57.14 74.6402 56.44 75.5202 56.44C76.4002 56.44 77.1202 57.14 77.1202 58C77.1202 58.86 76.4002 59.56 75.5202 59.56Z" fill="#777E90"/>
<defs>
<filter id="filter0_d_842_115996" x="0" y="3" width="130" height="130" filterUnits="userSpaceOnUse" color-interpolation-filters="sRGB">
<feFlood flood-opacity="0" result="BackgroundImageFix"/>
<feColorMatrix in="SourceAlpha" type="matrix" values="0 0 0 0 0 0 0 0 0 0 0 0 0 0 0 0 0 0 127 0" result="hardAlpha"/>
<feMorphology radius="5" operator="erode" in="SourceAlpha" result="effect1_dropShadow_842_115996"/>
<feOffset dy="8"/>
<feGaussianBlur stdDeviation="12"/>
<feComposite in2="hardAlpha" operator="out"/>
<feColorMatrix type="matrix" values="0 0 0 0 0.137255 0 0 0 0 0.14902 0 0 0 0 0.184314 0 0 0 0.1 0"/>
<feBlend mode="normal" in2="BackgroundImageFix" result="effect1_dropShadow_842_115996"/>
<feBlend mode="normal" in="SourceGraphic" in2="effect1_dropShadow_842_115996" result="shape"/>
</filter>
</defs>
</svg>
