<svg width="130" height="133" viewBox="0 0 130 133" fill="none" xmlns="http://www.w3.org/2000/svg">
<circle opacity="0.5" cx="65" cy="60" r="60" fill="white"/>
<g filter="url(#filter0_d_842_116005)">
<circle cx="65" cy="60" r="46" fill="white"/>
</g>
<path d="M75.2592 43.08H72.6192C72.5037 42.2315 72.0863 41.4531 71.4435 40.8874C70.8007 40.3217 69.9755 40.0066 69.1192 40H60.8792C60.0229 40.0066 59.1977 40.3217 58.5548 40.8874C57.912 41.4531 57.4946 42.2315 57.3792 43.08H54.7192C53.234 43.08 51.8096 43.67 50.7594 44.7202C49.7092 45.7704 49.1192 47.1948 49.1192 48.68V74.38C49.1165 75.1171 49.2594 75.8474 49.5397 76.5292C49.8199 77.2109 50.232 77.8306 50.7523 78.3527C51.2726 78.8749 51.8908 79.2891 52.5715 79.5718C53.2522 79.8545 53.9821 80 54.7192 80H75.2592C76.7497 80 78.1792 79.4079 79.2331 78.3539C80.2871 77.3 80.8792 75.8705 80.8792 74.38V48.68C80.8792 47.9429 80.7337 47.2131 80.451 46.5323C80.1683 45.8516 79.754 45.2334 79.2319 44.7131C78.7098 44.1928 78.0901 43.7808 77.4083 43.5005C76.7266 43.2203 75.9963 43.0774 75.2592 43.08ZM60.3392 53.82C60.334 54.2162 60.1743 54.5947 59.8941 54.8749C59.6139 55.1551 59.2354 55.3148 58.8392 55.32H56.8392C56.4414 55.32 56.0598 55.162 55.7785 54.8807C55.4972 54.5994 55.3392 54.2178 55.3392 53.82C55.3392 53.4222 55.4972 53.0406 55.7785 52.7593C56.0598 52.478 56.4414 52.32 56.8392 52.32H58.8392C59.2354 52.3252 59.6139 52.4849 59.8941 52.7651C60.1743 53.0453 60.334 53.4238 60.3392 53.82ZM55.2592 70.28C55.2644 69.8838 55.4241 69.5053 55.7042 69.2251C55.9844 68.9449 56.363 68.7852 56.7592 68.78H73.2192C73.617 68.78 73.9985 68.938 74.2798 69.2193C74.5611 69.5006 74.7192 69.8822 74.7192 70.28C74.7192 70.6778 74.5611 71.0594 74.2798 71.3407C73.9985 71.622 73.617 71.78 73.2192 71.78H56.7592C56.363 71.7748 55.9844 71.6151 55.7042 71.3349C55.4241 71.0547 55.2644 70.6762 55.2592 70.28ZM73.2592 63.54H56.7592C56.3614 63.54 55.9798 63.382 55.6985 63.1007C55.4172 62.8194 55.2592 62.4378 55.2592 62.04C55.2592 61.6422 55.4172 61.2606 55.6985 60.9793C55.9798 60.698 56.3614 60.54 56.7592 60.54H73.2192C73.617 60.54 73.9985 60.698 74.2798 60.9793C74.5611 61.2606 74.7192 61.6422 74.7192 62.04C74.7192 62.4378 74.5611 62.8194 74.2798 63.1007C73.9985 63.382 73.617 63.54 73.2192 63.54H73.2592ZM60.3792 43.54C60.3792 43.3968 60.4361 43.2594 60.5373 43.1582C60.6386 43.0569 60.776 43 60.9192 43H69.1592C69.3008 43.005 69.4353 43.0635 69.5355 43.1637C69.6357 43.2639 69.6942 43.3984 69.6992 43.54V45.54C69.6993 45.6851 69.643 45.8246 69.5423 45.9291C69.4416 46.0335 69.3042 46.0948 69.1592 46.1H60.8792C60.8065 46.1 60.7347 46.0854 60.6678 46.0571C60.6009 46.0287 60.5405 45.9871 60.4901 45.9348C60.4397 45.8826 60.4003 45.8206 60.3744 45.7528C60.3485 45.685 60.3365 45.6126 60.3392 45.54L60.3792 43.54Z" fill="#777E90"/>
<defs>
<filter id="filter0_d_842_116005" x="0" y="3" width="130" height="130" filterUnits="userSpaceOnUse" color-interpolation-filters="sRGB">
<feFlood flood-opacity="0" result="BackgroundImageFix"/>
<feColorMatrix in="SourceAlpha" type="matrix" values="0 0 0 0 0 0 0 0 0 0 0 0 0 0 0 0 0 0 127 0" result="hardAlpha"/>
<feMorphology radius="5" operator="erode" in="SourceAlpha" result="effect1_dropShadow_842_116005"/>
<feOffset dy="8"/>
<feGaussianBlur stdDeviation="12"/>
<feComposite in2="hardAlpha" operator="out"/>
<feColorMatrix type="matrix" values="0 0 0 0 0.137255 0 0 0 0 0.14902 0 0 0 0 0.184314 0 0 0 0.1 0"/>
<feBlend mode="normal" in2="BackgroundImageFix" result="effect1_dropShadow_842_116005"/>
<feBlend mode="normal" in="SourceGraphic" in2="effect1_dropShadow_842_116005" result="shape"/>
</filter>
</defs>
</svg>
