<svg width="130" height="133" viewBox="0 0 130 133" fill="none" xmlns="http://www.w3.org/2000/svg">
<circle opacity="0.5" cx="65" cy="60" r="60" fill="white"/>
<g filter="url(#filter0_d_842_116014)">
<circle cx="65" cy="60" r="46" fill="white"/>
</g>
<path d="M85 60.1198V58.3398C84.9986 56.7491 84.3655 55.224 83.24 54.0999C82.1159 52.9743 80.5908 52.3412 79 52.3398H51C49.4092 52.3412 47.8841 52.9743 46.76 54.0999C45.6345 55.224 45.0014 56.7491 45 58.3398V60.1198H85Z" fill="#777E90"/>
<path d="M45 63.1191V73.9991C45.0014 75.5899 45.6345 77.115 46.76 78.2392C47.8841 79.3647 49.4092 79.9977 51 79.9991H79C79.7895 79.9986 80.571 79.8423 81.3 79.5391C82.0457 79.2416 82.7254 78.7999 83.3 78.2392C83.8488 77.6551 84.289 76.9778 84.6 76.2392C84.875 75.5248 85.0108 74.7645 85 73.9991V63.1191H45ZM55.22 73.8192H53.22C52.8238 73.814 52.4452 73.6543 52.165 73.3741C51.8848 73.0939 51.7252 72.7154 51.72 72.3192C51.7252 71.9229 51.8848 71.5444 52.165 71.2642C52.4452 70.984 52.8238 70.8243 53.22 70.8192H55.22C55.6178 70.8192 55.9993 70.9772 56.2806 71.2585C56.5619 71.5398 56.72 71.9213 56.72 72.3192C56.72 72.717 56.5619 73.0985 56.2806 73.3798C55.9993 73.6611 55.6178 73.8192 55.22 73.8192Z" fill="#777E90"/>
<path d="M71.9408 41.7996C69.8918 40.6168 67.5668 39.9959 65.2008 39.9996C62.6354 39.9766 60.1144 40.6692 57.9208 41.9996C57.6081 42.2152 57.3875 42.5401 57.3023 42.9102C57.2172 43.2804 57.2738 43.669 57.4609 43.9996C57.5924 44.2153 57.7776 44.3932 57.9984 44.5159C58.2193 44.6386 58.4682 44.7019 58.7208 44.6996C59.0022 44.6979 59.2782 44.622 59.5208 44.4796C61.2203 43.4053 63.1903 42.8365 65.2008 42.8396C67.0451 42.8486 68.8561 43.3307 70.4609 44.2396C70.801 44.4275 71.2013 44.4741 71.5755 44.3693C71.9497 44.2645 72.2677 44.0168 72.4609 43.6796C72.6168 43.3564 72.65 42.9876 72.5544 42.6418C72.4587 42.296 72.2407 41.9967 71.9408 41.7996Z" fill="#777E90"/>
<path d="M68.9994 47.1992C67.8416 46.5584 66.5427 46.2148 65.2194 46.1992C63.8028 46.1972 62.4151 46.5996 61.2194 47.3592C60.8991 47.5685 60.6722 47.8937 60.5865 48.2665C60.5007 48.6394 60.5627 49.0311 60.7595 49.3592C60.891 49.575 61.0762 49.7529 61.2971 49.8756C61.5179 49.9983 61.7668 50.0615 62.0195 50.0592C62.304 50.06 62.5824 49.9765 62.8195 49.8192C63.5473 49.3723 64.3853 49.1368 65.2394 49.1392C66.0262 49.1363 66.7995 49.3434 67.4794 49.7392C67.8196 49.9271 68.22 49.9737 68.5942 49.8689C68.9684 49.7642 69.2863 49.5164 69.4794 49.1792C69.6682 48.8505 69.7237 48.4619 69.6344 48.0935C69.5451 47.7251 69.3178 47.405 68.9994 47.1992Z" fill="#777E90"/>
<defs>
<filter id="filter0_d_842_116014" x="0" y="3" width="130" height="130" filterUnits="userSpaceOnUse" color-interpolation-filters="sRGB">
<feFlood flood-opacity="0" result="BackgroundImageFix"/>
<feColorMatrix in="SourceAlpha" type="matrix" values="0 0 0 0 0 0 0 0 0 0 0 0 0 0 0 0 0 0 127 0" result="hardAlpha"/>
<feMorphology radius="5" operator="erode" in="SourceAlpha" result="effect1_dropShadow_842_116014"/>
<feOffset dy="8"/>
<feGaussianBlur stdDeviation="12"/>
<feComposite in2="hardAlpha" operator="out"/>
<feColorMatrix type="matrix" values="0 0 0 0 0.137255 0 0 0 0 0.14902 0 0 0 0 0.184314 0 0 0 0.1 0"/>
<feBlend mode="normal" in2="BackgroundImageFix" result="effect1_dropShadow_842_116014"/>
<feBlend mode="normal" in="SourceGraphic" in2="effect1_dropShadow_842_116014" result="shape"/>
</filter>
</defs>
</svg>
