<svg width="130" height="133" viewBox="0 0 130 133" fill="none" xmlns="http://www.w3.org/2000/svg">
<circle opacity="0.5" cx="65" cy="60" r="60" fill="white"/>
<g filter="url(#filter0_d_1242_30851)">
<circle cx="65" cy="60" r="46" fill="white"/>
</g>
<path d="M58.6806 59.1796C62.8406 59.1796 66.2206 55.7996 66.2206 51.6396C66.2206 47.4796 62.8406 44.0996 58.6806 44.0996C54.5206 44.0996 51.1406 47.4796 51.1406 51.6396C51.1406 55.7996 54.5206 59.1796 58.6806 59.1796Z" fill="#777E90"/>
<path d="M73.32 70.9588V74.3987C73.32 75.2187 72.66 75.8987 71.82 75.8987H46.5C45.68 75.8987 45 75.2187 45 74.3987V70.9588C45 66.1388 48.92 62.2188 53.74 62.2188H64.58C65.56 62.2188 66.5 62.3787 67.38 62.6987C67.38 62.6987 67.38 62.6787 67.4 62.6987C70.84 63.8587 73.32 67.1188 73.32 70.9588Z" fill="#777E90"/>
<path d="M73.32 70.9588V74.3987C73.32 75.2187 72.66 75.8987 71.82 75.8987H46.5C45.68 75.8987 45 75.2187 45 74.3987V70.9588C45 66.1388 48.92 62.2188 53.74 62.2188H64.58C65.56 62.2188 66.5 62.3787 67.38 62.6987C67.38 62.6987 67.38 62.6787 67.4 62.6987C70.84 63.8587 73.32 67.1188 73.32 70.9588Z" fill="#777E90"/>
<path d="M84.9981 69.2389V72.0589C84.9981 72.7189 84.4581 73.2589 83.7981 73.2589H76.3181V70.9589C76.3181 68.9389 75.7981 67.0189 74.8981 65.3589C74.5181 64.6789 74.0981 64.0389 73.6181 63.4589C73.2781 63.0789 72.9381 62.6989 72.5781 62.3789H78.1382C78.3582 62.3789 78.5581 62.3789 78.7581 62.4189C79.0181 62.4389 79.2781 62.4789 79.5381 62.5389C81.0581 62.8589 82.3781 63.6989 83.3581 64.8189C83.5181 64.9989 83.6781 65.1989 83.8181 65.4189C83.8381 65.4189 83.8381 65.4189 83.8181 65.4389C84.1981 65.9989 84.4982 66.5989 84.6982 67.2589C84.7582 67.4789 84.8181 67.6989 84.8581 67.9189C84.9581 68.3389 84.9981 68.7789 84.9981 69.2389Z" fill="#777E90"/>
<path d="M73.7613 58.8994C77.0639 58.8994 79.7412 56.2221 79.7412 52.9194C79.7412 49.6168 77.0639 46.9395 73.7613 46.9395C70.4586 46.9395 67.7812 49.6168 67.7812 52.9194C67.7812 56.2221 70.4586 58.8994 73.7613 58.8994Z" fill="#777E90"/>
<defs>
<filter id="filter0_d_1242_30851" x="0" y="3" width="130" height="130" filterUnits="userSpaceOnUse" color-interpolation-filters="sRGB">
<feFlood flood-opacity="0" result="BackgroundImageFix"/>
<feColorMatrix in="SourceAlpha" type="matrix" values="0 0 0 0 0 0 0 0 0 0 0 0 0 0 0 0 0 0 127 0" result="hardAlpha"/>
<feMorphology radius="5" operator="erode" in="SourceAlpha" result="effect1_dropShadow_1242_30851"/>
<feOffset dy="8"/>
<feGaussianBlur stdDeviation="12"/>
<feComposite in2="hardAlpha" operator="out"/>
<feColorMatrix type="matrix" values="0 0 0 0 0.137255 0 0 0 0 0.14902 0 0 0 0 0.184314 0 0 0 0.1 0"/>
<feBlend mode="normal" in2="BackgroundImageFix" result="effect1_dropShadow_1242_30851"/>
<feBlend mode="normal" in="SourceGraphic" in2="effect1_dropShadow_1242_30851" result="shape"/>
</filter>
</defs>
</svg>
