<svg width="130" height="133" viewBox="0 0 130 133" fill="none" xmlns="http://www.w3.org/2000/svg">
<circle opacity="0.5" cx="65" cy="60" r="60" fill="white"/>
<g filter="url(#filter0_d_1242_7767)">
<circle cx="65" cy="60" r="46" fill="white"/>
</g>
<path d="M65 40C53.98 40 45 48.98 45 60C45 71.02 53.98 80 65 80C76.02 80 85 71.02 85 60C85 48.98 76.02 40 65 40ZM74.12 56.66L65.9 62.84C65.86 62.86 65.8 62.88 65.76 62.92C65.7 62.94 65.66 62.96 65.6 62.98C65.42 63.08 65.2 63.14 65 63.14C64.8 63.14 64.6 63.08 64.42 63C64.38 62.98 64.34 62.96 64.28 62.94C64.24 62.92 64.2 62.9 64.16 62.88L58.16 58.76C57.48 58.3 57.3 57.36 57.78 56.68C58.24 56 59.18 55.82 59.86 56.28L64.96 59.78L72.32 54.26C72.98 53.76 73.92 53.9 74.42 54.56C74.92 55.22 74.78 56.16 74.12 56.66Z" fill="#777E90"/>
<defs>
<filter id="filter0_d_1242_7767" x="0" y="3" width="130" height="130" filterUnits="userSpaceOnUse" color-interpolation-filters="sRGB">
<feFlood flood-opacity="0" result="BackgroundImageFix"/>
<feColorMatrix in="SourceAlpha" type="matrix" values="0 0 0 0 0 0 0 0 0 0 0 0 0 0 0 0 0 0 127 0" result="hardAlpha"/>
<feMorphology radius="5" operator="erode" in="SourceAlpha" result="effect1_dropShadow_1242_7767"/>
<feOffset dy="8"/>
<feGaussianBlur stdDeviation="12"/>
<feComposite in2="hardAlpha" operator="out"/>
<feColorMatrix type="matrix" values="0 0 0 0 0.137255 0 0 0 0 0.14902 0 0 0 0 0.184314 0 0 0 0.1 0"/>
<feBlend mode="normal" in2="BackgroundImageFix" result="effect1_dropShadow_1242_7767"/>
<feBlend mode="normal" in="SourceGraphic" in2="effect1_dropShadow_1242_7767" result="shape"/>
</filter>
</defs>
</svg>
