<svg width="60" height="78" viewBox="0 0 60 78" fill="none" xmlns="http://www.w3.org/2000/svg">
<path d="M43.8935 22.7599V35.9995H51.8701V22.7599C51.8511 16.9677 49.5379 11.419 45.4368 7.32834C41.3358 3.23767 35.7809 0.938314 29.9883 0.933594V8.90964C33.6654 8.91433 37.1914 10.3734 39.7965 12.9682C42.4017 15.5631 43.8745 19.0831 43.8935 22.7599V22.7599Z" fill="url(#paint0_linear_2485_8490)"/>
<path d="M16.104 35.9995V22.7599C16.1039 19.0754 17.5665 15.5416 20.1703 12.9345C22.7742 10.3275 26.3064 8.86051 29.9912 8.85575V0.933594C24.1985 0.938314 18.6437 3.23767 14.5426 7.32834C10.4416 11.419 8.12838 16.9677 8.10938 22.7599V36.0174H16.104V35.9995Z" fill="url(#paint1_linear_2485_8490)"/>
<path d="M51.8701 36.0176H29.9883V77.1194H51.3311C55.571 77.1194 59.0023 74.6763 59.0023 71.7302V41.4427C59.0023 38.6583 55.8584 36.2152 51.8701 36.0176Z" fill="url(#paint2_linear_2485_8490)"/>
<path d="M16.1026 35.999H8.10802C4.11971 36.1966 0.921875 38.5499 0.921875 41.3882V71.6757C0.921875 74.6757 4.35326 77.0649 8.59309 77.0649H29.9359V35.999H16.1026Z" fill="url(#paint3_linear_2485_8490)"/>
<path d="M35.8837 50.5505C35.8963 51.6735 35.5887 52.7767 34.9969 53.7312C34.4051 54.6856 33.5536 55.4517 32.5421 55.9398V64.6344C32.5374 65.3094 32.2671 65.9556 31.7897 66.4329C31.3123 66.9103 30.6661 67.1806 29.991 67.1853H29.8473C29.1959 67.1485 28.5834 66.8636 28.1356 66.3892C27.6879 65.9147 27.4389 65.2867 27.4399 64.6344V55.8679C26.2327 55.2916 25.2575 54.3218 24.6747 53.1178C24.0918 51.9138 23.936 50.5474 24.2328 49.2431C24.5297 47.9388 25.2615 46.7743 26.3079 45.9411C27.3544 45.1079 28.6533 44.6555 29.991 44.6583C31.0813 44.6516 32.1518 44.9503 33.0811 45.5206C33.9395 46.0492 34.648 46.7893 35.1386 47.6699C35.6293 48.5506 35.8859 49.5424 35.8837 50.5505Z" fill="white"/>
<g opacity="0.5">
<path d="M35.8837 50.5505C35.8963 51.6735 35.5887 52.7767 34.9969 53.7312C34.4051 54.6856 33.5536 55.4517 32.5421 55.9398V64.6344C32.5374 65.3094 32.2671 65.9556 31.7897 66.4329C31.3123 66.9103 30.6661 67.1806 29.991 67.1853H29.8473C29.1959 67.1485 28.5834 66.8636 28.1356 66.3892C27.6879 65.9147 27.4389 65.2867 27.4399 64.6344V55.8679C26.2327 55.2916 25.2575 54.3218 24.6747 53.1178C24.0918 51.9138 23.936 50.5474 24.2328 49.2431C24.5297 47.9388 25.2615 46.7743 26.3079 45.9411C27.3544 45.1079 28.6533 44.6555 29.991 44.6583C31.0813 44.6516 32.1518 44.9503 33.0811 45.5206C33.9395 46.0492 34.648 46.7893 35.1386 47.6699C35.6293 48.5506 35.8859 49.5424 35.8837 50.5505Z" fill="#010303"/>
<path d="M35.8825 50.5499C35.8951 51.6729 35.5875 52.7761 34.9957 53.7306C34.4039 54.685 33.5524 55.4511 32.541 55.9392V64.6338C32.5363 65.3089 32.266 65.955 31.7886 66.4323C31.3112 66.9097 30.665 67.18 29.9899 67.1847H29.8462C29.198 67.1435 28.5899 66.8567 28.1459 66.3827C27.7019 65.9087 27.4555 65.2832 27.4568 64.6338V55.8673C26.5077 55.4154 25.6968 54.7178 25.1081 53.8469C24.5195 52.976 24.1746 51.9635 24.1091 50.9145C24.0436 49.8654 24.26 48.8178 24.7358 47.8805C25.2116 46.9432 25.9295 46.1503 26.815 45.5839C27.7006 45.0175 28.7215 44.6983 29.772 44.6593C30.8225 44.6204 31.8643 44.8632 32.7893 45.3625C33.7144 45.8617 34.489 46.5994 35.0329 47.4989C35.5768 48.3984 35.8701 49.427 35.8825 50.4781V50.5499Z" fill="#010303"/>
<path d="M35.8829 50.5504C35.8955 51.6734 35.5879 52.7766 34.9961 53.7311C34.4043 54.6855 33.5528 55.4516 32.5414 55.9397V64.6343C32.5367 65.3094 32.2664 65.9555 31.789 66.4328C31.3115 66.9102 30.6654 67.1805 29.9903 67.1852H29.8466C29.2031 67.144 28.5996 66.8591 28.159 66.3885C27.7184 65.9178 27.4738 65.2969 27.4751 64.6522V55.8678C26.2679 55.2915 25.2927 54.3217 24.7099 53.1177C24.127 51.9137 23.9712 50.5473 24.268 49.243C24.5648 47.9387 25.2966 46.7742 26.3431 45.941C27.3896 45.1078 28.6885 44.6554 30.0262 44.6582C30.7983 44.6582 31.5629 44.8109 32.2758 45.1074C32.9887 45.404 33.6359 45.8386 34.1803 46.3862C34.7246 46.9338 35.1552 47.5836 35.4474 48.2983C35.7396 49.013 35.8877 49.7784 35.8829 50.5504V50.5504Z" fill="#010303"/>
<path d="M35.8845 50.5501C35.8971 51.673 35.5895 52.7763 34.9977 53.7307C34.4059 54.6852 33.5544 55.4513 32.5429 55.9393V64.6339C32.5382 65.309 32.2679 65.9551 31.7905 66.4325C31.3131 66.9098 30.6669 67.1801 29.9918 67.1848H29.8481C29.2079 67.1393 28.6088 66.8525 28.172 66.3823C27.7351 65.9121 27.493 65.2937 27.4946 64.6519V55.8854C26.2874 55.3091 25.3122 54.3393 24.7294 53.1353C24.1465 51.9313 23.9907 50.5649 24.2875 49.2606C24.5844 47.9563 25.3161 46.7918 26.3626 45.9586C27.4091 45.1254 28.708 44.673 30.0457 44.6758C31.1163 44.6718 32.1671 44.964 33.0818 45.5201C33.9403 46.0488 34.6487 46.7888 35.1394 47.6695C35.6301 48.5501 35.8867 49.542 35.8845 50.5501Z" fill="#010303"/>
<path d="M35.8821 50.5501C35.8947 51.673 35.5871 52.7762 34.9953 53.7307C34.4035 54.6851 33.5521 55.4512 32.5406 55.9393V64.6339C32.5359 65.309 32.2656 65.9551 31.7882 66.4324C31.3108 66.9098 30.6646 67.1801 29.9895 67.1848H29.8458C29.2119 67.1352 28.6198 66.849 28.1871 66.3831C27.7544 65.9172 27.5128 65.3056 27.5103 64.6698V55.8854C26.3031 55.3091 25.3279 54.3393 24.745 53.1353C24.1621 51.9313 24.0063 50.5649 24.3032 49.2606C24.6 47.9563 25.3318 46.7918 26.3783 45.9586C27.4248 45.1254 28.7236 44.673 30.0614 44.6758C31.1259 44.6742 32.1703 44.9663 33.0795 45.5201C33.938 46.0488 34.6464 46.7888 35.1371 47.6695C35.6278 48.5501 35.8843 49.5419 35.8821 50.5501Z" fill="#010303"/>
<path d="M35.8828 50.5497C35.8954 51.6727 35.5878 52.7759 34.996 53.7304C34.4042 54.6848 33.5528 55.4509 32.5413 55.939V64.6336C32.5366 65.3086 32.2663 65.9547 31.7889 66.4321C31.3115 66.9095 30.6653 67.1797 29.9902 67.1845H29.8465C29.2158 67.1306 28.6281 66.8426 28.1992 66.3771C27.7702 65.9116 27.5311 65.3024 27.5289 64.6695V55.903C26.5695 55.4619 25.7462 54.7712 25.1451 53.9029C24.5441 53.0347 24.1875 52.0209 24.1125 50.9676C24.0376 49.9143 24.2471 48.8602 24.7191 47.9157C25.1911 46.9711 25.9084 46.1707 26.7957 45.5982C27.6831 45.0258 28.708 44.7023 29.7633 44.6616C30.8185 44.6209 31.8653 44.8645 32.7941 45.367C33.7229 45.8694 34.4996 46.6122 35.043 47.5176C35.5864 48.4231 35.8765 49.4579 35.8828 50.5138V50.5497Z" fill="#0D0D0D"/>
<path d="M35.8829 50.5502C35.8955 51.6731 35.5879 52.7764 34.9961 53.7308C34.4043 54.6852 33.5528 55.4513 32.5413 55.9394V64.634C32.5366 65.3091 32.2663 65.9552 31.7889 66.4325C31.3115 66.9099 30.6654 67.1802 29.9902 67.1849H29.8465C29.2175 67.1308 28.6318 66.8421 28.2058 66.3762C27.7798 65.9103 27.5446 65.3012 27.547 64.6699V55.9034C26.5849 55.4651 25.7585 54.776 25.1544 53.9085C24.5503 53.0409 24.1908 52.0268 24.1134 50.9725C24.0361 49.9182 24.2439 48.8625 24.715 47.9162C25.1861 46.9698 25.9031 46.1675 26.7909 45.5936C27.6787 45.0196 28.7046 44.695 29.761 44.6539C30.8174 44.6127 31.8654 44.8566 32.7952 45.3597C33.725 45.8629 34.5022 46.607 35.0454 47.5139C35.5887 48.4208 35.878 49.4571 35.8829 50.5142V50.5502Z" fill="#0F0F0F"/>
<path d="M35.8814 50.5497C35.894 51.6726 35.5863 52.7759 34.9945 53.7303C34.4027 54.6847 33.5513 55.4508 32.5398 55.9389V64.6335C32.5351 65.3086 32.2648 65.9547 31.7874 66.432C31.31 66.9094 30.6638 67.1797 29.9887 67.1844H29.845C29.2191 67.1305 28.6359 66.8444 28.2104 66.3823C27.7848 65.9202 27.5476 65.3156 27.5454 64.6874V55.9029C26.3382 55.3267 25.363 54.3568 24.7802 53.1529C24.1973 51.9489 24.0415 50.5824 24.3383 49.2781C24.6351 47.9739 25.3669 46.8094 26.4134 45.9762C27.4599 45.1429 28.7588 44.6905 30.0965 44.6934C31.1473 44.692 32.1785 44.9777 33.0787 45.5197C33.9372 46.0484 34.6456 46.7884 35.1363 47.6691C35.627 48.5497 35.8836 49.5415 35.8814 50.5497Z" fill="#121212"/>
<path d="M35.8829 50.5503C35.8955 51.6732 35.5879 52.7765 34.9961 53.731C34.4043 54.6854 33.5529 55.4515 32.5414 55.9395V64.6341C32.5367 65.3092 32.2664 65.9553 31.789 66.4327C31.3116 66.9101 30.6654 67.1803 29.9903 67.185H29.8466C29.2223 67.131 28.6412 66.8442 28.2186 66.3816C27.7959 65.9191 27.5626 65.3146 27.565 64.688V55.9216C26.3577 55.3453 25.3825 54.3755 24.7997 53.1715C24.2168 51.9675 24.061 50.601 24.3578 49.2968C24.6547 47.9925 25.3865 46.828 26.433 45.9948C27.4795 45.1615 28.7783 44.7092 30.116 44.712C31.1593 44.7066 32.1842 44.9861 33.0803 45.5204C33.9388 46.049 34.6472 46.7891 35.1379 47.6697C35.6286 48.5504 35.8851 49.5422 35.8829 50.5503Z" fill="#141414"/>
<path d="M35.8845 50.5503C35.8971 51.6732 35.5895 52.7765 34.9977 53.7309C34.4059 54.6853 33.5544 55.4514 32.5429 55.9395V64.6341C32.5382 65.3092 32.2679 65.9553 31.7905 66.4326C31.3131 66.91 30.667 67.1803 29.9918 67.185H29.8481C29.2287 67.1227 28.6543 66.8329 28.2361 66.3717C27.818 65.9104 27.5858 65.3105 27.5845 64.688V55.9215C26.3773 55.3452 25.4021 54.3754 24.8192 53.1714C24.2364 51.9674 24.0805 50.601 24.3774 49.2967C24.6742 47.9924 25.406 46.8279 26.4525 45.9947C27.499 45.1615 28.7978 44.7091 30.1356 44.7119C31.172 44.7151 32.1889 44.9941 33.0819 45.5203C33.9403 46.049 34.6488 46.789 35.1395 47.6697C35.6302 48.5503 35.8867 49.5421 35.8845 50.5503Z" fill="#171717"/>
<path d="M35.8829 50.5496C35.8955 51.6725 35.5879 52.7758 34.9961 53.7303C34.4043 54.6847 33.5529 55.4508 32.5414 55.9388V64.6334C32.5367 65.3085 32.2664 65.9546 31.789 66.432C31.3116 66.9094 30.6654 67.1796 29.9903 67.1843H29.8466C29.2319 67.1221 28.6621 66.8342 28.2473 66.3764C27.8325 65.9185 27.6022 65.3231 27.6009 64.7053V55.9209C26.6313 55.4908 25.7957 54.8069 25.1824 53.9415C24.5691 53.0761 24.2008 52.0612 24.1164 51.0039C24.0319 49.9466 24.2344 48.8861 24.7026 47.9343C25.1707 46.9825 25.8872 46.1747 26.7762 45.5962C27.6653 45.0177 28.6941 44.6899 29.754 44.6473C30.8139 44.6048 31.8656 44.8491 32.7982 45.3545C33.7307 45.8599 34.5096 46.6077 35.0525 47.5189C35.5955 48.4301 35.8824 49.471 35.8829 50.5317V50.5496Z" fill="#191919"/>
<path d="M35.8837 50.5499C35.8963 51.6728 35.5887 52.7761 34.9969 53.7305C34.4051 54.6849 33.5536 55.451 32.5422 55.9391V64.6337C32.5375 65.3088 32.2672 65.9549 31.7898 66.4323C31.3124 66.9096 30.6662 67.1799 29.9911 67.1846H29.8474C29.2343 67.1221 28.6666 66.8336 28.2547 66.3753C27.8429 65.9169 27.6165 65.3217 27.6197 64.7056V55.9391C26.4124 55.3628 25.4372 54.393 24.8544 53.189C24.2715 51.985 24.1157 50.6186 24.4125 49.3143C24.7094 48.01 25.4412 46.8455 26.4877 46.0123C27.5341 45.1791 28.833 44.7267 30.1707 44.7295C31.1939 44.7293 32.1986 45.0022 33.0811 45.5199C33.9396 46.0486 34.648 46.7886 35.1387 47.6693C35.6294 48.5499 35.8859 49.5418 35.8837 50.5499Z" fill="#1C1C1C"/>
<path d="M35.8814 50.5499C35.894 51.6728 35.5864 52.7761 34.9946 53.7305C34.4028 54.685 33.5513 55.4511 32.5398 55.9391V64.6337C32.5351 65.3088 32.2648 65.9549 31.7874 66.4323C31.31 66.9096 30.6638 67.1799 29.9887 67.1846H29.845C29.2383 67.1183 28.6774 66.8305 28.2697 66.3764C27.8619 65.9223 27.6361 65.3338 27.6352 64.7235V55.9391C26.428 55.3628 25.4529 54.393 24.87 53.189C24.2871 51.985 24.1313 50.6186 24.4282 49.3143C24.725 48.01 25.4568 46.8455 26.5033 46.0123C27.5497 45.1791 28.8486 44.7267 30.1863 44.7295C31.2042 44.7264 32.2039 44.9995 33.0787 45.5199C33.9372 46.0486 34.6456 46.7886 35.1363 47.6693C35.627 48.5499 35.8836 49.5418 35.8814 50.5499Z" fill="#1E1E1E"/>
<path d="M35.8829 50.5505C35.8955 51.6734 35.5879 52.7767 34.9961 53.7311C34.4043 54.6855 33.5529 55.4516 32.5414 55.9397V64.6343C32.5367 65.3094 32.2664 65.9555 31.789 66.4328C31.3116 66.9102 30.6654 67.1805 29.9903 67.1852H29.8466C29.2416 67.1186 28.6827 66.8301 28.2779 66.3756C27.8731 65.9211 27.6511 65.3327 27.6548 64.7241V55.9576C26.4476 55.3814 25.4724 54.4115 24.8895 53.2075C24.3067 52.0036 24.1509 50.6371 24.4477 49.3328C24.7445 48.0286 25.4763 46.8641 26.5228 46.0309C27.5693 45.1976 28.8682 44.7452 30.2059 44.7481C31.215 44.7504 32.206 45.0167 33.0803 45.5205C33.9388 46.0492 34.6472 46.7892 35.1379 47.6699C35.6286 48.5505 35.8851 49.5423 35.8829 50.5505Z" fill="#212121"/>
<path d="M35.8845 50.5504C35.8971 51.6734 35.5895 52.7766 34.9977 53.7311C34.4059 54.6855 33.5544 55.4516 32.5429 55.9397V64.6343C32.5382 65.3094 32.2679 65.9555 31.7905 66.4328C31.3131 66.9102 30.667 67.1805 29.9918 67.1852H29.8481C29.2479 67.1107 28.6957 66.8194 28.2953 66.3661C27.8949 65.9128 27.6741 65.3289 27.6743 64.7241V55.9576C26.4685 55.382 25.4941 54.4137 24.911 53.2116C24.3279 52.0094 24.1707 50.6448 24.4652 49.3416C24.7597 48.0384 25.4884 46.8739 26.5318 46.0393C27.5751 45.2046 28.8712 44.7493 30.2074 44.748C31.2169 44.7479 32.2085 45.0144 33.0819 45.5205C33.9403 46.0491 34.6488 46.7892 35.1394 47.6699C35.6301 48.5505 35.8867 49.5423 35.8845 50.5504Z" fill="#232323"/>
<path d="M35.8845 50.5505C35.8971 51.6734 35.5895 52.7767 34.9977 53.7311C34.4059 54.6855 33.5544 55.4516 32.543 55.9397V64.6343C32.5382 65.3094 32.268 65.9555 31.7906 66.4328C31.3131 66.9102 30.667 67.1805 29.9919 67.1852H29.8482C29.2495 67.1148 28.6975 66.8272 28.2968 66.3768C27.8961 65.9265 27.6746 65.3448 27.6743 64.7421V55.9576C26.4671 55.3814 25.4919 54.4115 24.9091 53.2075C24.3262 52.0036 24.1704 50.6371 24.4672 49.3328C24.764 48.0286 25.4959 46.8641 26.5423 46.0309C27.5888 45.1976 28.8877 44.7452 30.2254 44.7481C31.2289 44.7502 32.2141 45.0166 33.0819 45.5205C33.9403 46.0492 34.6488 46.7892 35.1395 47.6699C35.6302 48.5505 35.8867 49.5423 35.8845 50.5505Z" fill="#262626"/>
<path d="M35.8822 50.5502C35.8948 51.6731 35.5871 52.7764 34.9954 53.7308C34.4036 54.6852 33.5521 55.4513 32.5406 55.9394V64.634C32.5359 65.3091 32.2656 65.9552 31.7882 66.4325C31.3108 66.9099 30.6646 67.1802 29.9895 67.1849H29.8458C29.2504 67.1104 28.7027 66.821 28.3057 66.3711C27.9087 65.9212 27.6897 65.3418 27.6899 64.7418V55.9753C26.4827 55.399 25.5075 54.4292 24.9247 53.2252C24.3418 52.0212 24.186 50.6548 24.4828 49.3505C24.7797 48.0462 25.5115 46.8817 26.5579 46.0485C27.6044 45.2153 28.9033 44.7629 30.241 44.7657C31.2376 44.7596 32.2176 45.0201 33.0795 45.5202C33.938 46.0489 34.6464 46.7889 35.1371 47.6696C35.6278 48.5502 35.8844 49.542 35.8822 50.5502Z" fill="#282828"/>
<path d="M35.8837 50.5501C35.8963 51.673 35.5887 52.7763 34.9969 53.7307C34.4051 54.6852 33.5537 55.4513 32.5422 55.9393V64.6339C32.5375 65.309 32.2672 65.9551 31.7898 66.4325C31.3124 66.9099 30.6662 67.1801 29.9911 67.1848H29.8474C29.2536 67.11 28.708 66.82 28.314 66.3697C27.9199 65.9193 27.7048 65.3401 27.7095 64.7417V55.9752C26.5023 55.399 25.5271 54.4291 24.9442 53.2252C24.3614 52.0212 24.2055 50.6547 24.5024 49.3504C24.7992 48.0461 25.531 46.8817 26.5775 46.0484C27.624 45.2152 28.9229 44.7628 30.2606 44.7657C31.2511 44.7619 32.2248 45.0223 33.0811 45.5202C33.9396 46.0488 34.648 46.7888 35.1387 47.6695C35.6294 48.5502 35.8859 49.542 35.8837 50.5501Z" fill="#2B2B2B"/>
<path d="M35.8814 50.5501C35.894 51.673 35.5864 52.7763 34.9946 53.7307C34.4028 54.6851 33.5513 55.4513 32.5398 55.9393V64.6339C32.5351 65.309 32.2648 65.9551 31.7874 66.4325C31.31 66.9098 30.6639 67.1801 29.9887 67.1848H29.845C29.2577 67.1064 28.7188 66.8172 28.3288 66.371C27.9388 65.9249 27.7243 65.3522 27.7251 64.7596V55.9752C26.5179 55.3989 25.5427 54.4291 24.9599 53.2251C24.377 52.0211 24.2212 50.6547 24.518 49.3504C24.8148 48.0461 25.5466 46.8816 26.5931 46.0484C27.6396 45.2152 28.9385 44.7628 30.2762 44.7656C31.26 44.7701 32.2257 45.0301 33.0788 45.5201C33.9372 46.0488 34.6457 46.7888 35.1364 47.6695C35.6271 48.5501 35.8836 49.542 35.8814 50.5501Z" fill="#2D2D2D"/>
<path d="M35.883 50.5497C35.8956 51.6726 35.5879 52.7759 34.9961 53.7303C34.4043 54.6848 33.5529 55.4509 32.5414 55.9389V64.6335C32.5367 65.3086 32.2664 65.9547 31.789 66.4321C31.3116 66.9094 30.6654 67.1797 29.9903 67.1844H29.8466C29.2625 67.102 28.7279 66.8111 28.3415 66.3653C27.9552 65.9196 27.7432 65.3491 27.7446 64.7593V55.9928C26.5374 55.4165 25.5622 54.4467 24.9794 53.2427C24.3965 52.0387 24.2407 50.6723 24.5375 49.368C24.8344 48.0637 25.5661 46.8992 26.6126 46.066C27.6591 45.2328 28.958 44.7804 30.2957 44.7832C31.2719 44.7845 32.2312 45.0382 33.0803 45.5197C33.9388 46.0484 34.6472 46.7884 35.1379 47.6691C35.6286 48.5498 35.8851 49.5416 35.883 50.5497Z" fill="#303030"/>
<path d="M35.8845 50.5497C35.8971 51.6726 35.5895 52.7759 34.9977 53.7303C34.4059 54.6848 33.5545 55.4509 32.543 55.9389V64.6335C32.5383 65.3086 32.268 65.9547 31.7906 66.4321C31.3132 66.9094 30.667 67.1797 29.9919 67.1844H29.8482C29.2704 67.0985 28.7425 66.8085 28.3602 66.3669C27.9779 65.9253 27.7664 65.3613 27.7642 64.7772V55.9928C26.557 55.4165 25.5818 54.4467 24.9989 53.2427C24.416 52.0387 24.2602 50.6723 24.5571 49.368C24.8539 48.0637 25.5857 46.8992 26.6322 46.066C27.6787 45.2328 28.9775 44.7804 30.3153 44.7832C31.2861 44.7818 32.2403 45.0358 33.0819 45.5197C33.9404 46.0484 34.6488 46.7884 35.1395 47.6691C35.6302 48.5498 35.8867 49.5416 35.8845 50.5497Z" fill="#323232"/>
<path d="M35.8822 50.5504C35.8948 51.6733 35.5872 52.7766 34.9954 53.731C34.4036 54.6854 33.5521 55.4515 32.5406 55.9396V64.6342C32.5359 65.3093 32.2656 65.9554 31.7882 66.4327C31.3108 66.9101 30.6647 67.1804 29.9895 67.1851H29.8458C29.2738 67.0777 28.7594 66.7683 28.3965 66.3131C28.0337 65.858 27.8467 65.2876 27.8696 64.706V56.0114C26.6624 55.4352 25.6872 54.4653 25.1044 53.2613C24.5215 52.0574 24.3657 50.6909 24.6625 49.3866C24.9593 48.0823 25.6912 46.9179 26.7377 46.0846C27.7841 45.2514 29.083 44.799 30.4207 44.8018C31.3841 44.7964 32.332 45.0442 33.1694 45.5204C34.0112 46.0598 34.7019 46.8046 35.1765 47.6845C35.651 48.5645 35.8939 49.5507 35.8822 50.5504V50.5504Z" fill="#353535"/>
<path d="M35.8822 50.5503C35.8948 51.6732 35.5872 52.7765 34.9954 53.7309C34.4036 54.6853 33.5521 55.4514 32.5406 55.9395V64.6341C32.5359 65.3092 32.2656 65.9553 31.7882 66.4327C31.3108 66.91 30.6646 67.1803 29.9895 67.185H29.8458C29.2737 67.0777 28.7593 66.7682 28.3965 66.3131C28.0337 65.8579 27.8467 65.2875 27.8696 64.706V56.0113C26.6638 55.4357 25.6894 54.4674 25.1063 53.2653C24.5232 52.0631 24.366 50.6985 24.6605 49.3953C24.955 48.0921 25.6837 46.9276 26.7271 46.093C27.7705 45.2583 29.0666 44.803 30.4027 44.8018C31.3653 44.8029 32.3115 45.0502 33.1514 45.5203C33.9965 46.0576 34.6908 46.8014 35.1686 47.6815C35.6463 48.5616 35.892 49.5489 35.8822 50.5503V50.5503Z" fill="#383838"/>
<path d="M35.8822 50.5503C35.8948 51.6732 35.5872 52.7765 34.9954 53.7309C34.4036 54.6854 33.5521 55.4515 32.5406 55.9395V64.6341C32.5359 65.3092 32.2656 65.9553 31.7882 66.4327C31.3108 66.91 30.6647 67.1803 29.9895 67.185H29.8458C29.2769 67.0781 28.765 66.7713 28.4026 66.3199C28.0401 65.8686 27.8511 65.3025 27.8696 64.7239V56.0114C26.6624 55.4351 25.6872 54.4652 25.1044 53.2613C24.5215 52.0573 24.3657 50.6908 24.6625 49.3865C24.9593 48.0823 25.6912 46.9178 26.7377 46.0846C27.7841 45.2513 29.083 44.7989 30.4207 44.8018C31.3773 44.8051 32.3172 45.0525 33.1515 45.5203C33.9966 46.0576 34.6908 46.8014 35.1686 47.6815C35.6464 48.5616 35.892 49.5489 35.8822 50.5503V50.5503Z" fill="#3A3A3A"/>
<path d="M35.8822 50.5499C35.8948 51.6728 35.5872 52.7761 34.9954 53.7305C34.4036 54.685 33.5521 55.4511 32.5406 55.9391V64.6337C32.5359 65.3088 32.2656 65.9549 31.7882 66.4323C31.3108 66.9097 30.6647 67.1799 29.9895 67.1846H29.8458C29.2769 67.0777 28.765 66.7709 28.4026 66.3195C28.0401 65.8682 27.8511 65.3021 27.8696 64.7235V56.0289C26.6624 55.4527 25.6872 54.4828 25.1044 53.2788C24.5215 52.0749 24.3657 50.7084 24.6625 49.4041C24.9593 48.0998 25.6912 46.9354 26.7377 46.1021C27.7841 45.2689 29.083 44.8165 30.4207 44.8194C31.37 44.8171 32.304 45.0583 33.1335 45.5199C33.9819 46.0551 34.6797 46.798 35.1607 47.6782C35.6418 48.5584 35.8901 49.5469 35.8822 50.5499V50.5499Z" fill="#3D3D3D"/>
<path d="M35.8822 50.55C35.8948 51.6729 35.5872 52.7762 34.9954 53.7306C34.4036 54.6851 33.5521 55.4512 32.5406 55.9392V64.6338C32.5359 65.3089 32.2656 65.955 31.7882 66.4324C31.3108 66.9098 30.6647 67.18 29.9895 67.1847H29.8458C29.2769 67.0778 28.765 66.771 28.4026 66.3196C28.0401 65.8683 27.8511 65.3022 27.8696 64.7237V56.029C26.6624 55.4528 25.6872 54.4829 25.1044 53.279C24.5215 52.075 24.3657 50.7085 24.6625 49.4042C24.9593 48.1 25.6912 46.9355 26.7377 46.1023C27.7841 45.269 29.083 44.8166 30.4207 44.8195C31.3649 44.8129 32.2941 45.0545 33.1155 45.5201C33.9673 46.053 34.6686 46.795 35.1529 47.6753C35.6371 48.5557 35.8882 49.5453 35.8822 50.55V50.55Z" fill="#3F3F3F"/>
<path d="M35.8822 50.5499C35.8948 51.6728 35.5872 52.7761 34.9954 53.7305C34.4036 54.685 33.5521 55.4511 32.5406 55.9391V64.6337C32.5359 65.3088 32.2656 65.9549 31.7882 66.4323C31.3108 66.9096 30.6647 67.1799 29.9895 67.1846H29.8458C29.2767 67.0851 28.7629 66.7828 28.3996 66.3336C28.0362 65.8844 27.848 65.3188 27.8696 64.7415V56.0289C26.6624 55.4527 25.6872 54.4828 25.1044 53.2788C24.5215 52.0749 24.3657 50.7084 24.6625 49.4041C24.9593 48.0998 25.6912 46.9354 26.7377 46.1021C27.7841 45.2689 29.083 44.8165 30.4207 44.8193C31.3575 44.8255 32.2779 45.0664 33.0976 45.5199C33.9527 46.0508 34.6576 46.7918 35.145 47.6723C35.6325 48.5528 35.8863 49.5435 35.8822 50.5499Z" fill="#424242"/>
<path d="M35.8822 50.5505C35.8948 51.6734 35.5872 52.7767 34.9954 53.7311C34.4036 54.6856 33.5521 55.4517 32.5406 55.9397V64.6343C32.5359 65.3094 32.2656 65.9555 31.7882 66.4329C31.3108 66.9102 30.6647 67.1805 29.9895 67.1852H29.8458C29.2892 67.0875 28.7852 66.7957 28.4234 66.3615C28.0616 65.9274 27.8654 65.3791 27.8696 64.814V56.0475C26.6624 55.4712 25.6872 54.5014 25.1044 53.2974C24.5215 52.0934 24.3657 50.727 24.6625 49.4227C24.9593 48.1184 25.6912 46.9539 26.7377 46.1207C27.7841 45.2875 29.083 44.8351 30.4207 44.8379C31.3504 44.8377 32.265 45.0726 33.0796 45.5205C33.938 46.0492 34.6465 46.7892 35.1372 47.6699C35.6279 48.5506 35.8844 49.5424 35.8822 50.5505V50.5505Z" fill="#444444"/>
<path d="M35.8822 50.5505C35.8948 51.6734 35.5872 52.7767 34.9954 53.7311C34.4036 54.6856 33.5521 55.4517 32.5406 55.9397V64.6343C32.5359 65.3094 32.2656 65.9555 31.7882 66.4329C31.3108 66.9102 30.6647 67.1805 29.9895 67.1852H29.8458C29.2782 67.0897 28.7647 66.7909 28.4011 66.3447C28.0375 65.8985 27.8486 65.3353 27.8696 64.7601V56.0475C26.6624 55.4712 25.6872 54.5014 25.1044 53.2974C24.5215 52.0934 24.3657 50.727 24.6625 49.4227C24.9593 48.1184 25.6912 46.9539 26.7377 46.1207C27.7841 45.2875 29.083 44.8351 30.4207 44.8379C31.3444 44.84 32.2527 45.0748 33.0616 45.5205C33.9234 46.047 34.6354 46.7861 35.1294 47.6669C35.6233 48.5477 35.8825 49.5407 35.8822 50.5505Z" fill="#474747"/>
<path d="M35.8822 50.5502C35.8948 51.6731 35.5872 52.7764 34.9954 53.7308C34.4036 54.6852 33.5521 55.4513 32.5406 55.9394V64.634C32.5359 65.3091 32.2656 65.9552 31.7882 66.4326C31.3108 66.9099 30.6647 67.1802 29.9895 67.1849H29.8458C29.2782 67.0893 28.7647 66.7906 28.4011 66.3444C28.0375 65.8982 27.8486 65.3349 27.8696 64.7597V56.0651C26.6624 55.4889 25.6872 54.519 25.1044 53.315C24.5215 52.1111 24.3657 50.7446 24.6625 49.4403C24.9593 48.136 25.6912 46.9716 26.7377 46.1383C27.7841 45.3051 29.083 44.8527 30.4207 44.8556C31.3373 44.8505 32.2401 45.0792 33.0437 45.5202C33.9088 46.0445 34.6244 46.7826 35.1215 47.6636C35.6187 48.5445 35.8806 49.5386 35.8822 50.5502V50.5502Z" fill="#494949"/>
<path d="M35.8822 50.5501C35.8948 51.673 35.5872 52.7763 34.9954 53.7307C34.4036 54.6852 33.5521 55.4513 32.5406 55.9393V64.6339C32.5359 65.309 32.2656 65.9551 31.7882 66.4325C31.3108 66.9098 30.6646 67.1801 29.9895 67.1848H29.8458C29.2782 67.0893 28.7646 66.7905 28.401 66.3443C28.0374 65.8981 27.8485 65.3349 27.8696 64.7597V56.0651C26.6638 55.4894 25.6894 54.5211 25.1063 53.319C24.5232 52.1168 24.366 50.7522 24.6605 49.449C24.955 48.1458 25.6837 46.9813 26.7271 46.1467C27.7705 45.312 29.0666 44.8567 30.4027 44.8555C31.3184 44.858 32.2193 45.0863 33.0257 45.5201C33.8941 46.0422 34.6133 46.7794 35.1136 47.6605C35.614 48.5416 35.8787 49.5368 35.8822 50.5501Z" fill="#4C4C4C"/>
<path d="M35.883 50.5501C35.8956 51.673 35.588 52.7763 34.9962 53.7307C34.4044 54.6852 33.5529 55.4513 32.5414 55.9393V64.6339C32.5367 65.309 32.2664 65.9551 31.789 66.4325C31.3116 66.9099 30.6655 67.1801 29.9903 67.1848H29.8466C29.3044 67.0802 28.8157 66.7897 28.4648 66.3634C28.1139 65.9371 27.9227 65.4017 27.9243 64.8495V56.0651C26.7171 55.4888 25.7419 54.5189 25.1591 53.315C24.5762 52.111 24.4204 50.7445 24.7172 49.4403C25.014 48.136 25.7459 46.9715 26.7923 46.1383C27.8388 45.305 29.1377 44.8527 30.4754 44.8555C31.3854 44.858 32.2804 45.0864 33.0804 45.5202C33.9388 46.0488 34.6473 46.7888 35.138 47.6695C35.6287 48.5502 35.8852 49.542 35.883 50.5501Z" fill="#4E4E4E"/>
<path d="M35.8846 50.5498C35.8972 51.6727 35.5895 52.776 34.9977 53.7304C34.4059 54.6848 33.5545 55.4509 32.543 55.939V64.6336C32.5383 65.3087 32.268 65.9548 31.7906 66.4322C31.3132 66.9095 30.667 67.1798 29.9919 67.1845H29.8482C29.3077 67.0795 28.8212 66.7883 28.4732 66.3616C28.1253 65.9349 27.9379 65.3997 27.9438 64.8492V56.0827C26.7366 55.5064 25.7614 54.5366 25.1786 53.3326C24.5957 52.1286 24.4399 50.7622 24.7367 49.4579C25.0336 48.1536 25.7654 46.9891 26.8119 46.1559C27.8583 45.3227 29.1572 44.8703 30.4949 44.8731C31.3978 44.8686 32.2874 45.091 33.0819 45.5198C33.9404 46.0485 34.6488 46.7885 35.1395 47.6692C35.6302 48.5498 35.8867 49.5417 35.8846 50.5498Z" fill="#515151"/>
<path d="M35.8822 50.5497C35.8948 51.6726 35.5872 52.7759 34.9954 53.7303C34.4036 54.6848 33.5522 55.4509 32.5407 55.9389V64.6335C32.536 65.3086 32.2657 65.9547 31.7883 66.4321C31.3109 66.9095 30.6647 67.1797 29.9896 67.1844H29.8459C29.3269 67.0548 28.867 66.7536 28.5409 66.3296C28.2147 65.9057 28.0415 65.3839 28.0493 64.8491V56.0826C26.8421 55.5064 25.8669 54.5365 25.2841 53.3325C24.7012 52.1286 24.5454 50.7621 24.8422 49.4578C25.139 48.1536 25.8709 46.9891 26.9173 46.1559C27.9638 45.3226 29.2627 44.8702 30.6004 44.8731C31.4972 44.8715 32.3802 45.0938 33.1694 45.5198C34.0112 46.0592 34.7019 46.8039 35.1765 47.6839C35.6511 48.5638 35.8939 49.55 35.8822 50.5497Z" fill="#535353"/>
<path d="M35.8822 50.5497C35.8948 51.6726 35.5872 52.7759 34.9954 53.7303C34.4036 54.6848 33.5522 55.4509 32.5407 55.9389V64.6335C32.536 65.3086 32.2657 65.9547 31.7883 66.4321C31.3109 66.9095 30.6647 67.1797 29.9896 67.1844H29.8459C29.3284 67.0584 28.8689 66.7607 28.5426 66.3397C28.2162 65.9188 28.0424 65.3996 28.0493 64.8671V56.0826C26.8421 55.5064 25.8669 54.5365 25.2841 53.3325C24.7012 52.1286 24.5454 50.7621 24.8422 49.4578C25.139 48.1536 25.8709 46.9891 26.9173 46.1559C27.9638 45.3226 29.2627 44.8702 30.6004 44.8731C31.4912 44.8745 32.3676 45.0967 33.1515 45.5198C33.9966 46.0571 34.6908 46.8009 35.1686 47.6809C35.6464 48.561 35.892 49.5484 35.8822 50.5497V50.5497Z" fill="#565656"/>
<path d="M35.8822 50.5503C35.8948 51.6732 35.5872 52.7765 34.9954 53.7309C34.4036 54.6854 33.5522 55.4515 32.5407 55.9395V64.6341C32.536 65.3092 32.2657 65.9553 31.7883 66.4327C31.3109 66.9101 30.6647 67.1803 29.9896 67.185H29.8459C29.3284 67.059 28.8689 66.7612 28.5426 66.3403C28.2162 65.9194 28.0424 65.4002 28.0493 64.8677V56.1012C26.8421 55.5249 25.8669 54.5551 25.2841 53.3511C24.7012 52.1471 24.5454 50.7807 24.8422 49.4764C25.139 48.1721 25.8709 47.0076 26.9173 46.1744C27.9638 45.3412 29.2627 44.8888 30.6004 44.8916C31.4836 44.8905 32.3534 45.1064 33.1335 45.5204C33.982 46.0555 34.6798 46.7984 35.1608 47.6786C35.6418 48.5588 35.8901 49.5473 35.8822 50.5503V50.5503Z" fill="#585858"/>
<path d="M35.8822 50.5503C35.8948 51.6732 35.5872 52.7765 34.9954 53.7309C34.4036 54.6854 33.5522 55.4515 32.5407 55.9395V64.6341C32.536 65.3092 32.2657 65.9553 31.7883 66.4327C31.3109 66.9101 30.6647 67.1803 29.9896 67.185H29.8459C29.3298 67.0627 28.8708 66.7683 28.5443 66.3504C28.2177 65.9325 28.0432 65.4159 28.0493 64.8856V56.1012C26.8421 55.5249 25.8669 54.5551 25.2841 53.3511C24.7012 52.1471 24.5454 50.7807 24.8422 49.4764C25.139 48.1721 25.8709 47.0076 26.9173 46.1744C27.9638 45.3412 29.2627 44.8888 30.6004 44.8916C31.4775 44.8934 32.3408 45.1093 33.1156 45.5204C33.9673 46.0533 34.6687 46.7953 35.1529 47.6756C35.6371 48.556 35.8882 49.5456 35.8822 50.5503V50.5503Z" fill="#5B5B5B"/>
<path d="M35.8822 50.5499C35.8948 51.6728 35.5872 52.7761 34.9954 53.7306C34.4036 54.685 33.5522 55.4511 32.5407 55.9391V64.6337C32.536 65.3088 32.2657 65.9549 31.7883 66.4323C31.3109 66.9097 30.6647 67.1799 29.9896 67.1846H29.8459C29.3298 67.0623 28.8708 66.768 28.5443 66.35C28.2177 65.9321 28.0432 65.4155 28.0493 64.8852V56.1188C26.8421 55.5425 25.8669 54.5727 25.2841 53.3687C24.7012 52.1647 24.5454 50.7982 24.8422 49.494C25.139 48.1897 25.8709 47.0252 26.9173 46.192C27.9638 45.3588 29.2627 44.9064 30.6004 44.9092C31.4699 44.9084 32.3267 45.1179 33.0976 45.52C33.9527 46.0508 34.6576 46.7918 35.1451 47.6723C35.6325 48.5528 35.8863 49.5435 35.8822 50.5499Z" fill="#5D5D5D"/>
<path d="M35.8822 50.5499C35.8948 51.6728 35.5872 52.7761 34.9954 53.7305C34.4036 54.685 33.5521 55.4511 32.5407 55.9391V64.6337C32.536 65.3088 32.2657 65.9549 31.7883 66.4323C31.3109 66.9097 30.6647 67.1799 29.9896 67.1846H29.8459C29.3298 67.0623 28.8708 66.7679 28.5442 66.35C28.2177 65.9321 28.0432 65.4155 28.0493 64.8852V56.1188C26.8435 55.5432 25.8691 54.5749 25.286 53.3727C24.7029 52.1706 24.5457 50.8059 24.8402 49.5027C25.1347 48.1995 25.8634 47.0351 26.9068 46.2004C27.9502 45.3657 29.2462 44.9104 30.5824 44.9092C31.4519 44.9084 32.3087 45.1179 33.0796 45.52C33.9381 46.0486 34.6465 46.7887 35.1372 47.6693C35.6279 48.55 35.8844 49.5418 35.8822 50.5499Z" fill="#606060"/>
<path d="M35.8822 50.5499C35.8948 51.6728 35.5872 52.7761 34.9954 53.7306C34.4036 54.685 33.5522 55.4511 32.5407 55.9391V64.6337C32.536 65.3088 32.2657 65.9549 31.7883 66.4323C31.3109 66.9097 30.6647 67.1799 29.9896 67.1846H29.8459C29.3328 67.063 28.8761 66.7713 28.5499 66.3571C28.2237 65.9428 28.0473 65.4304 28.0493 64.9032V56.1188C26.8421 55.5425 25.8669 54.5727 25.2841 53.3687C24.7012 52.1647 24.5454 50.7982 24.8422 49.494C25.139 48.1897 25.8709 47.0252 26.9173 46.192C27.9638 45.3588 29.2627 44.9064 30.6004 44.9092C31.4638 44.9113 32.3141 45.1207 33.0796 45.52C33.9381 46.0486 34.6465 46.7887 35.1372 47.6693C35.6279 48.55 35.8844 49.5418 35.8822 50.5499Z" fill="#626262"/>
<path d="M35.8822 50.5505C35.8948 51.6734 35.5872 52.7767 34.9954 53.7311C34.4036 54.6856 33.5522 55.4517 32.5407 55.9397V64.6343C32.536 65.3094 32.2657 65.9555 31.7883 66.4329C31.3109 66.9103 30.6647 67.1805 29.9896 67.1852H29.8459C29.3328 67.0636 28.8761 66.7719 28.5499 66.3577C28.2237 65.9434 28.0473 65.431 28.0493 64.9038V56.1373C26.8421 55.5611 25.8669 54.5912 25.2841 53.3872C24.7012 52.1832 24.5454 50.8168 24.8422 49.5125C25.139 48.2082 25.8709 47.0438 26.9173 46.2105C27.9638 45.3773 29.2627 44.9249 30.6004 44.9277C31.4563 44.9271 32.3 45.1304 33.0617 45.5206C33.9234 46.047 34.6355 46.7861 35.1294 47.6669C35.6233 48.5477 35.8825 49.5407 35.8822 50.5505V50.5505Z" fill="#656565"/>
<path d="M35.8822 50.5505C35.8948 51.6734 35.5872 52.7767 34.9954 53.7311C34.4036 54.6856 33.5522 55.4517 32.5407 55.9397V64.6343C32.536 65.3094 32.2657 65.9555 31.7883 66.4329C31.3109 66.9103 30.6647 67.1805 29.9896 67.1852H29.8459C29.3313 67.0665 28.8726 66.7757 28.5459 66.3608C28.2192 65.9459 28.044 65.4318 28.0493 64.9038V56.1373C26.8421 55.5611 25.8669 54.5912 25.2841 53.3872C24.7012 52.1832 24.5454 50.8168 24.8422 49.5125C25.139 48.2082 25.8709 47.0438 26.9173 46.2105C27.9638 45.3773 29.2627 44.9249 30.6004 44.9277C31.4502 44.93 32.2874 45.1331 33.0437 45.5206C33.9088 46.0448 34.6244 46.783 35.1216 47.6639C35.6187 48.5449 35.8807 49.539 35.8822 50.5505Z" fill="#686868"/>
<path d="M35.8822 50.5505C35.8948 51.6734 35.5872 52.7767 34.9954 53.7311C34.4036 54.6856 33.5522 55.4517 32.5407 55.9397V64.6343C32.536 65.3094 32.2657 65.9555 31.7883 66.4329C31.3109 66.9103 30.6647 67.1805 29.9896 67.1852H29.8459C29.3358 67.0643 28.8813 66.7753 28.5554 66.3647C28.2296 65.9541 28.0513 65.4459 28.0493 64.9218V56.1373C26.8421 55.5611 25.8669 54.5912 25.2841 53.3872C24.7012 52.1832 24.5454 50.8168 24.8422 49.5125C25.139 48.2082 25.8709 47.0438 26.9173 46.2105C27.9638 45.3773 29.2627 44.9249 30.6004 44.9277C31.445 44.9259 32.2773 45.1293 33.0257 45.5206C33.8942 46.0426 34.6133 46.7798 35.1137 47.6609C35.6141 48.542 35.8788 49.5373 35.8822 50.5505V50.5505Z" fill="#6A6A6A"/>
<path d="M35.8822 50.5501C35.8948 51.673 35.5872 52.7763 34.9954 53.7308C34.4036 54.6852 33.5522 55.4513 32.5407 55.9393V64.6339C32.536 65.309 32.2657 65.9551 31.7883 66.4325C31.3109 66.9099 30.6647 67.1801 29.9896 67.1848H29.8459C29.3343 67.0668 28.8779 66.7786 28.5515 66.3674C28.2252 65.9562 28.0481 65.4464 28.0493 64.9214V56.1549C26.8421 55.5786 25.8669 54.6088 25.2841 53.4048C24.7012 52.2008 24.5454 50.8344 24.8422 49.5301C25.139 48.2258 25.8709 47.0613 26.9173 46.2281C27.9638 45.3949 29.2627 44.9425 30.6004 44.9453C31.4366 44.9476 32.2608 45.1444 33.0078 45.5202C33.8796 46.04 34.6023 46.7763 35.1059 47.6575C35.6095 48.5388 35.8769 49.5352 35.8822 50.5501Z" fill="#6D6D6D"/>
<path d="M35.8822 50.5501C35.8949 51.673 35.5872 52.7763 34.9954 53.7308C34.4036 54.6852 33.5522 55.4513 32.5407 55.9393V64.6339C32.536 65.309 32.2657 65.9551 31.7883 66.4325C31.3109 66.9099 30.6647 67.1801 29.9896 67.1848H29.8459C29.354 67.0505 28.9201 66.7576 28.6115 66.3516C28.303 65.9456 28.1369 65.4492 28.1392 64.9393V56.1549C26.9319 55.5786 25.9568 54.6088 25.3739 53.4048C24.791 52.2008 24.6352 50.8344 24.9321 49.5301C25.2289 48.2258 25.9607 47.0613 27.0072 46.2281C28.0536 45.3949 29.3525 44.9425 30.6903 44.9453C31.5204 44.9504 32.3381 45.1471 33.0796 45.5202C33.9381 46.0488 34.6465 46.7889 35.1372 47.6695C35.6279 48.5502 35.8844 49.542 35.8822 50.5501Z" fill="#6F6F6F"/>
<path d="M35.8838 50.5497C35.8964 51.6727 35.5888 52.7759 34.997 53.7304C34.4052 54.6848 33.5537 55.4509 32.5423 55.939V64.6336C32.5376 65.3087 32.2673 65.9548 31.7899 66.4321C31.3125 66.9095 30.6663 67.1798 29.9912 67.1845H29.8475C29.3573 67.0495 28.9258 66.7559 28.6202 66.3496C28.3147 65.9433 28.1524 65.4473 28.1587 64.939V56.1725C26.9515 55.5962 25.9763 54.6264 25.3934 53.4224C24.8106 52.2184 24.6548 50.852 24.9516 49.5477C25.2484 48.2434 25.9802 47.0789 27.0267 46.2457C28.0732 45.4125 29.3721 44.9601 30.7098 44.9629C31.5324 44.9651 32.3436 45.1556 33.0812 45.5198C33.9397 46.0484 34.6481 46.7885 35.1388 47.6691C35.6295 48.5498 35.886 49.5416 35.8838 50.5497Z" fill="#727272"/>
<path d="M35.8814 50.5498C35.8941 51.6728 35.5864 52.776 34.9946 53.7305C34.4028 54.6849 33.5514 55.451 32.5399 55.939V64.6336C32.5352 65.3087 32.2649 65.9548 31.7875 66.4322C31.3101 66.9096 30.6639 67.1798 29.9888 67.1845H29.8451C29.3599 67.0436 28.934 66.7479 28.6324 66.3425C28.3307 65.9371 28.1699 65.4443 28.1743 64.939V56.1726C26.9685 55.597 25.9941 54.6287 25.411 53.4265C24.8279 52.2244 24.6707 50.8598 24.9652 49.5565C25.2597 48.2533 25.9884 47.0889 27.0318 46.2542C28.0751 45.4195 29.3712 44.9642 30.7074 44.963C31.5309 44.9579 32.3437 45.1488 33.0788 45.5199C33.9373 46.0485 34.6457 46.7886 35.1364 47.6692C35.6271 48.5499 35.8836 49.5417 35.8814 50.5498Z" fill="#747474"/>
<path d="M35.8815 50.5497C35.8941 51.6727 35.5865 52.7759 34.9947 53.7304C34.4029 54.6848 33.5514 55.4509 32.5399 55.939V64.6336C32.5352 65.3087 32.2649 65.9548 31.7875 66.4321C31.3101 66.9095 30.664 67.1798 29.9888 67.1845H29.8451C29.3629 67.0443 28.9392 66.7513 28.6378 66.3496C28.3365 65.9478 28.1738 65.4591 28.1743 64.9569V56.1725C26.9671 55.5962 25.9919 54.6264 25.4091 53.4224C24.8262 52.2184 24.6704 50.852 24.9672 49.5477C25.264 48.2434 25.9959 47.0789 27.0423 46.2457C28.0888 45.4125 29.3877 44.9601 30.7254 44.9629C31.542 44.9679 32.3467 45.1583 33.0789 45.5198C33.9373 46.0484 34.6458 46.7885 35.1365 47.6691C35.6271 48.5498 35.8837 49.5416 35.8815 50.5497Z" fill="#777777"/>
<path d="M35.883 50.5503C35.8956 51.6733 35.588 52.7765 34.9962 53.731C34.4044 54.6854 33.553 55.4515 32.5415 55.9395V64.6342C32.5368 65.3092 32.2665 65.9553 31.7891 66.4327C31.3117 66.9101 30.6655 67.1803 29.9904 67.185H29.8467C29.3693 67.0391 28.9512 66.7441 28.6537 66.3432C28.3563 65.9423 28.1951 65.4567 28.1938 64.9575V56.191C26.9866 55.6148 26.0114 54.6449 25.4286 53.441C24.8457 52.237 24.6899 50.8705 24.9867 49.5662C25.2836 48.2619 26.0154 47.0975 27.0619 46.2642C28.1083 45.431 29.4072 44.9786 30.7449 44.9815C31.554 44.9835 32.3522 45.1677 33.0804 45.5204C33.9389 46.049 34.6473 46.7891 35.138 47.6697C35.6287 48.5504 35.8852 49.5422 35.883 50.5503Z" fill="#797979"/>
<path d="M35.8846 50.5503C35.8972 51.6733 35.5896 52.7765 34.9978 53.731C34.406 54.6854 33.5545 55.4515 32.5431 55.9395V64.6342C32.5384 65.3092 32.2681 65.9553 31.7907 66.4327C31.3133 66.9101 30.6671 67.1803 29.992 67.185H29.8483C29.3727 67.0385 28.9569 66.7427 28.6625 66.3416C28.3681 65.9404 28.2106 65.4551 28.2134 64.9575V56.191C27.0062 55.6148 26.031 54.6449 25.4481 53.441C24.8653 52.237 24.7094 50.8705 25.0063 49.5662C25.3031 48.2619 26.0349 47.0975 27.0814 46.2642C28.1279 45.431 29.4268 44.9786 30.7645 44.9815C31.5675 44.9862 32.3593 45.1703 33.082 45.5204C33.9404 46.049 34.6489 46.7891 35.1396 47.6697C35.6303 48.5504 35.8868 49.5422 35.8846 50.5503Z" fill="#7C7C7C"/>
<path d="M35.8823 50.5503C35.8949 51.6733 35.5873 52.7765 34.9955 53.731C34.4037 54.6854 33.5522 55.4515 32.5407 55.9395V64.6342C32.536 65.3092 32.2657 65.9553 31.7883 66.4327C31.3109 66.9101 30.6648 67.1803 29.9896 67.185H29.8459C29.3751 67.0387 28.9638 66.745 28.6727 66.3471C28.3816 65.9493 28.2261 65.4684 28.229 64.9755V56.191C27.0218 55.6148 26.0466 54.6449 25.4638 53.441C24.8809 52.237 24.7251 50.8705 25.0219 49.5662C25.3187 48.2619 26.0505 47.0975 27.097 46.2642C28.1435 45.431 29.4424 44.9786 30.7801 44.9815C31.5778 44.9827 32.3645 45.1671 33.0797 45.5204C33.9381 46.049 34.6466 46.7891 35.1372 47.6697C35.6279 48.5504 35.8845 49.5422 35.8823 50.5503Z" fill="#7E7E7E"/>
<path d="M35.8838 50.55C35.8964 51.673 35.5888 52.7762 34.997 53.7307C34.4052 54.6851 33.5538 55.4512 32.5423 55.9392V64.6338C32.5376 65.3089 32.2673 65.955 31.7899 66.4324C31.3125 66.9098 30.6663 67.18 29.9912 67.1847H29.8475C29.3816 67.0328 28.9758 66.7371 28.6885 66.3401C28.4012 65.9431 28.2472 65.4652 28.2486 64.9752V56.2087C27.0413 55.6324 26.0661 54.6626 25.4833 53.4586C24.9004 52.2546 24.7446 50.8882 25.0414 49.5839C25.3383 48.2796 26.0701 47.1151 27.1166 46.2819C28.1631 45.4487 29.4619 44.9963 30.7996 44.9991C31.5902 44.9943 32.3711 45.1726 33.0812 45.5201C33.9397 46.0487 34.6481 46.7888 35.1388 47.6694C35.6295 48.5501 35.886 49.5419 35.8838 50.55Z" fill="#818181"/>
<path d="M35.8815 50.5499C35.8941 51.6729 35.5865 52.7761 34.9947 53.7306C34.4029 54.685 33.5514 55.4511 32.5399 55.9392V64.6338C32.5352 65.3089 32.2649 65.955 31.7875 66.4323C31.3101 66.9097 30.664 67.18 29.9888 67.1847H29.8451C29.384 67.033 28.9827 66.7393 28.6987 66.3456C28.4147 65.9519 28.2626 65.4785 28.2642 64.9931V56.2086C27.057 55.6323 26.0818 54.6625 25.4989 53.4585C24.916 52.2545 24.7602 50.8881 25.0571 49.5838C25.3539 48.2795 26.0857 47.1151 27.1322 46.2818C28.1787 45.4486 29.4775 44.9962 30.8153 44.999C31.5987 45.0061 32.3712 45.1839 33.0789 45.52C33.9373 46.0486 34.6458 46.7887 35.1365 47.6693C35.6272 48.55 35.8837 49.5418 35.8815 50.5499Z" fill="#838383"/>
<path d="M35.8831 50.5505C35.8957 51.6735 35.588 52.7767 34.9962 53.7312C34.4044 54.6856 33.553 55.4517 32.5415 55.9398V64.6344C32.5368 65.3094 32.2665 65.9555 31.7891 66.4329C31.3117 66.9103 30.6655 67.1805 29.9904 67.1852H29.8467C29.3889 67.0305 28.9915 66.7354 28.7109 66.342C28.4304 65.9486 28.2809 65.4768 28.2837 64.9936V56.2272C27.0765 55.6509 26.1013 54.6811 25.5184 53.4771C24.9356 52.2731 24.7798 50.9066 25.0766 49.6024C25.3734 48.2981 26.1052 47.1336 27.1517 46.3004C28.1982 45.4671 29.497 45.0148 30.8348 45.0176C31.6115 45.0158 32.3787 45.1876 33.0804 45.5206C33.9389 46.0492 34.6473 46.7893 35.138 47.6699C35.6287 48.5506 35.8852 49.5424 35.8831 50.5505Z" fill="#868686"/>
<path d="M35.8846 50.5505C35.8972 51.6735 35.5896 52.7767 34.9978 53.7312C34.406 54.6856 33.5545 55.4517 32.5431 55.9398V64.6344C32.5383 65.3094 32.2681 65.9555 31.7907 66.4329C31.3132 66.9103 30.6671 67.1805 29.992 67.1852H29.8483C29.3923 67.0298 28.9973 66.734 28.7197 66.3404C28.4422 65.9467 28.2964 65.4753 28.3032 64.9936V56.2272C27.0974 55.6516 26.123 54.6833 25.5399 53.4811C24.9568 52.279 24.7996 50.9144 25.0941 49.6111C25.3886 48.3079 26.1173 47.1435 27.1607 46.3088C28.2041 45.4741 29.5001 45.0188 30.8363 45.0176C31.613 45.0158 32.3803 45.1876 33.082 45.5206C33.9404 46.0492 34.6489 46.7893 35.1396 47.6699C35.6303 48.5506 35.8868 49.5424 35.8846 50.5505Z" fill="#888888"/>
<path d="M35.8846 50.5506C35.8972 51.6735 35.5896 52.7768 34.9978 53.7312C34.406 54.6857 33.5545 55.4518 32.5431 55.9398V64.6344C32.5384 65.3095 32.2681 65.9556 31.7907 66.433C31.3133 66.9103 30.6671 67.1806 29.992 67.1853H29.8483C29.3968 67.0285 29.0053 66.7349 28.7284 66.3453C28.4515 65.9558 28.3029 65.4896 28.3032 65.0117V56.2272C27.096 55.651 26.1208 54.6811 25.538 53.4771C24.9551 52.2732 24.7993 50.9067 25.0961 49.6024C25.393 48.2981 26.1248 47.1337 27.1713 46.3004C28.2177 45.4672 29.5166 45.0148 30.8543 45.0176C31.6255 45.0136 32.3874 45.1856 33.082 45.5206C33.9405 46.0493 34.6489 46.7893 35.1396 47.67C35.6303 48.5507 35.8868 49.5425 35.8846 50.5506Z" fill="#8B8B8B"/>
<path d="M35.8823 50.5501C35.8949 51.6731 35.5873 52.7763 34.9955 53.7308C34.4037 54.6852 33.5522 55.4513 32.5407 55.9394V64.634C32.536 65.3091 32.2657 65.9552 31.7883 66.4325C31.3109 66.9099 30.6648 67.1802 29.9896 67.1849H29.8459C29.3978 67.025 29.0102 66.7302 28.7367 66.3408C28.4632 65.9515 28.3172 65.487 28.3189 65.0112V56.2448C27.1116 55.6685 26.1365 54.6986 25.5536 53.4947C24.9708 52.2907 24.8149 50.9242 25.1117 49.6199C25.4086 48.3157 26.1404 47.1512 27.1869 46.318C28.2334 45.4847 29.5322 45.0323 30.8699 45.0352C31.6325 45.0387 32.3857 45.204 33.0797 45.5202C33.9381 46.0488 34.6466 46.7889 35.1373 47.6696C35.6279 48.5502 35.8845 49.542 35.8823 50.5501V50.5501Z" fill="#8D8D8D"/>
<path d="M35.8838 50.5501C35.8965 51.6731 35.5888 52.7763 34.997 53.7308C34.4052 54.6852 33.5538 55.4513 32.5423 55.9394V64.634C32.5376 65.3091 32.2673 65.9552 31.7899 66.4325C31.3125 66.9099 30.6663 67.1802 29.9912 67.1849H29.8475C29.4042 67.0199 29.0219 66.7232 28.7522 66.3346C28.4824 65.946 28.338 65.4842 28.3384 65.0112V56.2448C27.1312 55.6685 26.156 54.6986 25.5731 53.4947C24.9903 52.2907 24.8344 50.9242 25.1313 49.6199C25.4281 48.3157 26.1599 47.1512 27.2064 46.318C28.2529 45.4847 29.5517 45.0323 30.8895 45.0352C31.6465 45.0362 32.3944 45.2017 33.0812 45.5202C33.9397 46.0488 34.6481 46.7889 35.1388 47.6696C35.6295 48.5502 35.886 49.542 35.8838 50.5501V50.5501Z" fill="#909090"/>
<path d="M35.8815 50.5501C35.8941 51.6731 35.5865 52.7763 34.9947 53.7308C34.4029 54.6852 33.5514 55.4513 32.54 55.9394V64.634C32.5353 65.3091 32.265 65.9552 31.7876 66.4325C31.3101 66.9099 30.664 67.1802 29.9889 67.1849H29.8452C29.4052 67.0224 29.0259 66.7283 28.7591 66.3425C28.4923 65.9568 28.3508 65.4982 28.354 65.0292V56.2448C27.1468 55.6685 26.1716 54.6986 25.5887 53.4947C25.0059 52.2907 24.8501 50.9242 25.1469 49.6199C25.4437 48.3157 26.1756 47.1512 27.222 46.318C28.2685 45.4847 29.5674 45.0323 30.9051 45.0352C31.6562 45.0383 32.3977 45.2037 33.0789 45.5202C33.9373 46.0488 34.6458 46.7889 35.1365 47.6696C35.6272 48.5502 35.8837 49.542 35.8815 50.5501V50.5501Z" fill="#929292"/>
<path d="M35.8831 50.5499C35.8957 51.6728 35.5881 52.7761 34.9963 53.7305C34.4045 54.6849 33.553 55.451 32.5415 55.9391V64.6337C32.5368 65.3088 32.2665 65.9549 31.7891 66.4322C31.3117 66.9096 30.6656 67.1799 29.9904 67.1846H29.8467C29.4101 67.0192 29.0347 66.7238 28.7713 66.3383C28.5078 65.9528 28.369 65.4958 28.3736 65.0289V56.2624C27.1663 55.6862 26.1912 54.7163 25.6083 53.5123C25.0254 52.3084 24.8696 50.9419 25.1664 49.6376C25.4633 48.3333 26.1951 47.1689 27.2416 46.3356C28.288 45.5024 29.5869 45.05 30.9246 45.0529C31.6689 45.0477 32.4051 45.2072 33.0805 45.5199C33.9389 46.0486 34.6474 46.7886 35.1381 47.6693C35.6287 48.5499 35.8853 49.5417 35.8831 50.5499Z" fill="#959595"/>
<path d="M35.8846 50.5498C35.8972 51.6727 35.5896 52.776 34.9978 53.7304C34.406 54.6848 33.5546 55.4509 32.5431 55.939V64.6336C32.5384 65.3087 32.2681 65.9548 31.7907 66.4321C31.3133 66.9095 30.6671 67.1798 29.992 67.1845H29.8483C29.4164 67.0194 29.0455 66.7261 28.7853 66.3439C28.5252 65.9617 28.3883 65.509 28.3931 65.0468V56.2623C27.1858 55.6861 26.2107 54.7162 25.6278 53.5122C25.045 52.3082 24.8891 50.9418 25.186 49.6375C25.4828 48.3332 26.2146 47.1688 27.2611 46.3355C28.3076 45.5023 29.6064 45.0499 30.9442 45.0527C31.6812 45.0606 32.4088 45.2196 33.082 45.5198C33.9405 46.0485 34.6489 46.7885 35.1396 47.6692C35.6303 48.5498 35.8868 49.5416 35.8846 50.5498Z" fill="#979797"/>
<path d="M35.8823 50.5503C35.8949 51.6733 35.5873 52.7765 34.9955 53.731C34.4037 54.6854 33.5522 55.4515 32.5408 55.9396V64.6342C32.536 65.3093 32.2658 65.9554 31.7883 66.4327C31.3109 66.9101 30.6648 67.1804 29.9896 67.1851H29.8459C29.4189 67.015 29.0532 66.7199 28.7967 66.3384C28.5403 65.957 28.405 65.507 28.4087 65.0474V56.2809C27.2015 55.7046 26.2263 54.7348 25.6434 53.5308C25.0606 52.3268 24.9048 50.9604 25.2016 49.6561C25.4984 48.3518 26.2302 47.1873 27.2767 46.3541C28.3232 45.5209 29.6221 45.0685 30.9598 45.0713C31.6901 45.0708 32.4123 45.2238 33.0797 45.5204C33.9381 46.049 34.6466 46.7891 35.1373 47.6698C35.628 48.5504 35.8845 49.5422 35.8823 50.5503Z" fill="#9A9A9A"/>
<path d="M35.8838 50.5503C35.8964 51.6733 35.5888 52.7765 34.997 53.731C34.4052 54.6854 33.5538 55.4515 32.5423 55.9396V64.6342C32.5376 65.3092 32.2673 65.9554 31.7899 66.4327C31.3125 66.9101 30.6663 67.1804 29.9912 67.1851H29.8475C29.4238 67.0121 29.0619 66.7158 28.8088 66.3346C28.5557 65.9534 28.4231 65.5049 28.4282 65.0473V56.2809C27.2224 55.7053 26.248 54.737 25.6649 53.5348C25.0818 52.3327 24.9246 50.968 25.2191 49.6648C25.5136 48.3616 26.2423 47.1972 27.2857 46.3625C28.3291 45.5278 29.6251 45.0725 30.9613 45.0713C31.6916 45.0708 32.4139 45.2238 33.0812 45.5204C33.9397 46.049 34.6481 46.7891 35.1388 47.6697C35.6295 48.5504 35.886 49.5422 35.8838 50.5503Z" fill="#9D9D9D"/>
<path d="M35.8839 50.5503C35.8965 51.6733 35.5889 52.7765 34.9971 53.731C34.4053 54.6854 33.5538 55.4515 32.5423 55.9396V64.6342C32.5376 65.3093 32.2673 65.9554 31.7899 66.4327C31.3125 66.9101 30.6664 67.1804 29.9912 67.1851H29.8475C29.4281 67.0113 29.0695 66.7173 28.817 66.34C28.5644 65.9628 28.4291 65.5193 28.4282 65.0653V56.2809C27.221 55.7046 26.2458 54.7348 25.663 53.5308C25.0801 52.3268 24.9243 50.9604 25.2211 49.6561C25.5179 48.3518 26.2498 47.1873 27.2962 46.3541C28.3427 45.5209 29.6416 45.0685 30.9793 45.0713C31.7038 45.0706 32.4203 45.2237 33.0813 45.5204C33.9397 46.049 34.6482 46.7891 35.1388 47.6698C35.6295 48.5504 35.8861 49.5422 35.8839 50.5503Z" fill="#9F9F9F"/>
<path d="M35.8815 50.55C35.8941 51.6729 35.5865 52.7762 34.9947 53.7306C34.4029 54.685 33.5514 55.4511 32.54 55.9392V64.6338C32.5353 65.3089 32.265 65.955 31.7876 66.4323C31.3102 66.9097 30.664 67.18 29.9889 67.1847H29.8452C29.4277 67.0101 29.0716 66.7154 28.8221 66.3379C28.5725 65.9605 28.4409 65.5174 28.4439 65.0649V56.2985C27.2367 55.7222 26.2614 54.7523 25.6786 53.5484C25.0957 52.3444 24.9399 50.9779 25.2367 49.6736C25.5336 48.3694 26.2654 47.2049 27.3119 46.3717C28.3583 45.5384 29.6572 45.0861 30.9949 45.0889C31.7114 45.0927 32.4198 45.2392 33.0789 45.52C33.9374 46.0487 34.6458 46.7887 35.1365 47.6694C35.6272 48.55 35.8837 49.5418 35.8815 50.55Z" fill="#A2A2A2"/>
<path d="M35.8831 50.55C35.8957 51.6729 35.5881 52.7762 34.9963 53.7306C34.4045 54.685 33.553 55.4511 32.5415 55.9392V64.6338C32.5368 65.3089 32.2665 65.955 31.7891 66.4323C31.3117 66.9097 30.6656 67.18 29.9904 67.1847H29.8467C29.4312 67.0094 29.0775 66.7139 28.831 66.3362C28.5846 65.9585 28.4566 65.5158 28.4634 65.0649V56.2985C27.2562 55.7222 26.281 54.7523 25.6981 53.5484C25.1153 52.3444 24.9594 50.9779 25.2563 49.6736C25.5531 48.3694 26.2849 47.2049 27.3314 46.3717C28.3779 45.5384 29.6768 45.0861 31.0145 45.0889C31.7252 45.0912 32.4281 45.2378 33.0805 45.52C33.9389 46.0487 34.6474 46.7887 35.1381 47.6694C35.6288 48.55 35.8853 49.5418 35.8831 50.55Z" fill="#A4A4A4"/>
<path d="M35.8847 50.55C35.8973 51.6729 35.5897 52.7762 34.9979 53.7306C34.4061 54.685 33.5546 55.4511 32.5431 55.9392V64.6338C32.5384 65.3089 32.2681 65.955 31.7907 66.4323C31.3133 66.9097 30.6671 67.18 29.992 67.1847H29.8483C29.4404 67.0058 29.0938 66.7115 28.8511 66.3381C28.6085 65.9646 28.4805 65.5282 28.4829 65.0829V56.2985C27.2757 55.7222 26.3005 54.7523 25.7177 53.5484C25.1348 52.3444 24.979 50.9779 25.2758 49.6736C25.5726 48.3694 26.3045 47.2049 27.3509 46.3717C28.3974 45.5384 29.6963 45.0861 31.034 45.0889C31.739 45.0911 32.436 45.2378 33.0821 45.52C33.9405 46.0487 34.649 46.7887 35.1396 47.6694C35.6303 48.55 35.8869 49.5418 35.8847 50.55Z" fill="#A7A7A7"/>
<path d="M35.8823 50.5506C35.8949 51.6735 35.5873 52.7768 34.9955 53.7312C34.4037 54.6856 33.5522 55.4517 32.5408 55.9398V64.6344C32.5361 65.3095 32.2658 65.9556 31.7884 66.4329C31.311 66.9103 30.6648 67.1806 29.9897 67.1853H29.846C29.4414 67.0038 29.0985 66.7083 28.8592 66.335C28.6199 65.9618 28.4946 65.5269 28.4986 65.0835V56.317C27.2913 55.7408 26.3161 54.7709 25.7333 53.5669C25.1504 52.363 24.9946 50.9965 25.2914 49.6922C25.5883 48.3879 26.3201 47.2235 27.3666 46.3902C28.4131 45.557 29.7119 45.1046 31.0496 45.1074C31.7474 45.1054 32.4382 45.246 33.0797 45.5206C33.9382 46.0493 34.6466 46.7893 35.1373 47.67C35.628 48.5506 35.8845 49.5424 35.8823 50.5506Z" fill="#A9A9A9"/>
<path d="M35.8839 50.5506C35.8965 51.6735 35.5889 52.7768 34.9971 53.7312C34.4053 54.6857 33.5538 55.4518 32.5423 55.9398V64.6344C32.5376 65.3095 32.2673 65.9556 31.7899 66.433C31.3125 66.9104 30.6664 67.1806 29.9912 67.1853H29.8475C29.4492 67.0024 29.1119 66.7086 28.8761 66.339C28.6404 65.9695 28.5161 65.5398 28.5181 65.1015V56.3171C27.3109 55.7408 26.3357 54.771 25.7528 53.567C25.17 52.363 25.0141 50.9965 25.311 49.6923C25.6078 48.388 26.3396 47.2235 27.3861 46.3903C28.4326 45.5571 29.7314 45.1047 31.0692 45.1075C31.7613 45.1038 32.4466 45.2445 33.0813 45.5207C33.9397 46.0493 34.6482 46.7894 35.1389 47.67C35.6296 48.5507 35.8861 49.5425 35.8839 50.5506Z" fill="#ACACAC"/>
<path d="M35.8815 50.5502C35.8941 51.6731 35.5865 52.7764 34.9947 53.7308C34.4029 54.6852 33.5514 55.4513 32.54 55.9394V64.634C32.5353 65.3091 32.265 65.9552 31.7876 66.4325C31.3102 66.9099 30.664 67.1802 29.9889 67.1849H29.8452C29.4488 67.0012 29.114 66.7066 28.8813 66.3369C28.6486 65.9671 28.5278 65.5379 28.5337 65.1011V56.3346C27.3279 55.759 26.3535 54.7907 25.7704 53.5885C25.1873 52.3864 25.0301 51.0218 25.3246 49.7186C25.6191 48.4153 26.3478 47.2509 27.3912 46.4162C28.4346 45.5816 29.7306 45.1263 31.0668 45.125C31.7569 45.124 32.4405 45.2583 33.0789 45.5202C33.9374 46.0489 34.6458 46.7889 35.1365 47.6696C35.6272 48.5502 35.8837 49.542 35.8815 50.5502Z" fill="#AEAEAE"/>
<path d="M35.8831 50.5502C35.8957 51.6731 35.5881 52.7764 34.9963 53.7308C34.4045 54.6852 33.553 55.4513 32.5415 55.9394V64.634C32.5368 65.3091 32.2665 65.9552 31.7891 66.4325C31.3117 66.9099 30.6656 67.1802 29.9904 67.1849H29.8467C29.4564 66.995 29.1278 66.6986 28.8989 66.3298C28.67 65.9611 28.5502 65.5351 28.5532 65.1011V56.3346C27.3474 55.759 26.373 54.7907 25.7899 53.5885C25.2068 52.3864 25.0496 51.0218 25.3441 49.7186C25.6386 48.4153 26.3673 47.2509 27.4107 46.4162C28.4541 45.5816 29.7501 45.1263 31.0863 45.125C31.7706 45.1241 32.4483 45.2584 33.0805 45.5202C33.9389 46.0489 34.6474 46.7889 35.1381 47.6696C35.6288 48.5502 35.8853 49.542 35.8831 50.5502Z" fill="#B1B1B1"/>
<path d="M35.8831 50.5502C35.8957 51.6731 35.5881 52.7764 34.9963 53.7308C34.4045 54.6852 33.553 55.4514 32.5416 55.9394V64.634C32.5369 65.3091 32.2666 65.9552 31.7892 66.4326C31.3117 66.9099 30.6656 67.1802 29.9905 67.1849H29.8468C29.4592 66.9964 29.1324 66.7027 28.9037 66.3374C28.675 65.9722 28.5536 65.55 28.5532 65.119V56.3346C27.346 55.7583 26.3708 54.7885 25.788 53.5845C25.2051 52.3805 25.0493 51.0141 25.3461 49.7098C25.643 48.4055 26.3748 47.241 27.4213 46.4078C28.4677 45.5746 29.7666 45.1222 31.1043 45.125C31.7826 45.126 32.454 45.2602 33.0805 45.5202C33.9389 46.0489 34.6474 46.7889 35.1381 47.6696C35.6288 48.5502 35.8853 49.5421 35.8831 50.5502Z" fill="#B3B3B3"/>
<path d="M35.8808 50.55C35.8934 51.6729 35.5858 52.7762 34.994 53.7307C34.4022 54.6851 33.5507 55.4512 32.5392 55.9392V64.6338C32.5345 65.3089 32.2642 65.955 31.7868 66.4324C31.3094 66.9098 30.6632 67.18 29.9881 67.1847H29.8444C29.4615 66.992 29.1396 66.6969 28.9144 66.3322C28.6892 65.9675 28.5696 65.5475 28.5689 65.1189V56.3524C27.3616 55.7761 26.3865 54.8063 25.8036 53.6023C25.2208 52.3983 25.0649 51.0319 25.3617 49.7276C25.6586 48.4233 26.3904 47.2588 27.4369 46.4256C28.4834 45.5924 29.7822 45.14 31.1199 45.1428C31.7914 45.1362 32.4573 45.2644 33.0782 45.5201C33.9366 46.0487 34.6451 46.7888 35.1357 47.6694C35.6264 48.5501 35.883 49.5419 35.8808 50.55Z" fill="#B6B6B6"/>
<path d="M35.8823 50.5498C35.8949 51.6727 35.5873 52.776 34.9955 53.7304C34.4037 54.6849 33.5523 55.451 32.5408 55.939V64.6336C32.5361 65.3087 32.2658 65.9548 31.7884 66.4322C31.311 66.9095 30.6648 67.1798 29.9897 67.1845H29.846C29.4651 66.9909 29.1457 66.6951 28.9236 66.3303C28.7015 65.9654 28.5854 65.5458 28.5884 65.1186V56.3522C27.3812 55.7759 26.406 54.8061 25.8231 53.6021C25.2403 52.3981 25.0844 51.0316 25.3813 49.7274C25.6781 48.4231 26.4099 47.2586 27.4564 46.4254C28.5029 45.5921 29.8018 45.1398 31.1395 45.1426C31.804 45.1477 32.4617 45.2756 33.0797 45.5198C33.9382 46.0485 34.6466 46.7885 35.1373 47.6692C35.628 48.5498 35.8845 49.5417 35.8823 50.5498Z" fill="#B8B8B8"/>
<path d="M35.8839 50.5498C35.8965 51.6727 35.5889 52.776 34.9971 53.7304C34.4053 54.6849 33.5538 55.451 32.5423 55.939V64.6336C32.5376 65.3087 32.2674 65.9548 31.7899 66.4322C31.3125 66.9095 30.6664 67.1798 29.9912 67.1845H29.8475C29.4728 66.9899 29.1589 66.6958 28.9402 66.3346C28.7215 65.9733 28.6066 65.5589 28.6079 65.1366V56.3522C27.4007 55.7759 26.4255 54.8061 25.8427 53.6021C25.2598 52.3981 25.104 51.0316 25.4008 49.7274C25.6976 48.4231 26.4295 47.2586 27.4759 46.4254C28.5224 45.5921 29.8213 45.1398 31.159 45.1426C31.8178 45.1461 32.47 45.2741 33.0813 45.5198C33.9397 46.0485 34.6482 46.7885 35.1389 47.6692C35.6296 48.5498 35.8861 49.5417 35.8839 50.5498Z" fill="#BBBBBB"/>
<path d="M35.8816 50.5504C35.8942 51.6733 35.5866 52.7766 34.9948 53.731C34.403 54.6854 33.5515 55.4516 32.54 55.9396V64.6342C32.5353 65.3093 32.265 65.9554 31.7876 66.4328C31.3102 66.9101 30.664 67.1804 29.9889 67.1851H29.8452C29.4751 66.9865 29.1659 66.691 28.9507 66.3303C28.7355 65.9696 28.6225 65.5572 28.6236 65.1372V56.3707C27.4163 55.7945 26.4412 54.8246 25.8583 53.6206C25.2754 52.4167 25.1196 51.0502 25.4164 49.7459C25.7133 48.4416 26.4451 47.2772 27.4916 46.4439C28.538 45.6107 29.8369 45.1583 31.1746 45.1611C31.8263 45.1603 32.4724 45.2822 33.079 45.5204C33.9374 46.0491 34.6459 46.7891 35.1365 47.6698C35.6272 48.5504 35.8838 49.5423 35.8816 50.5504Z" fill="#BDBDBD"/>
<path d="M35.8831 50.5504C35.8957 51.6733 35.5881 52.7766 34.9963 53.731C34.4045 54.6854 33.553 55.4516 32.5416 55.9396V64.6342C32.5369 65.3093 32.2666 65.9554 31.7892 66.4328C31.3118 66.9101 30.6656 67.1804 29.9905 67.1851H29.8468C29.4827 66.9856 29.1789 66.6919 28.9671 66.3348C28.7554 65.9777 28.6435 65.5703 28.6431 65.1552V56.3707C27.4358 55.7945 26.4607 54.8246 25.8778 53.6206C25.295 52.4167 25.1391 51.0502 25.436 49.7459C25.7328 48.4416 26.4646 47.2772 27.5111 46.4439C28.5576 45.6107 29.8564 45.1583 31.1942 45.1611C31.84 45.1604 32.4801 45.2824 33.0805 45.5204C33.939 46.0491 34.6474 46.7891 35.1381 47.6698C35.6288 48.5504 35.8853 49.5423 35.8831 50.5504Z" fill="#C0C0C0"/>
<path d="M35.8847 50.55C35.8973 51.6729 35.5897 52.7762 34.9979 53.7306C34.4061 54.685 33.5546 55.4512 32.5431 55.9392V64.6338C32.5384 65.3089 32.2681 65.955 31.7907 66.4324C31.3133 66.9097 30.6672 67.18 29.992 67.1847H29.8483C29.4863 66.9843 29.1851 66.69 28.9764 66.3327C28.7677 65.9754 28.6593 65.5685 28.6626 65.1548V56.3883C27.4568 55.8127 26.4824 54.8444 25.8993 53.6422C25.3162 52.4401 25.159 51.0755 25.4535 49.7723C25.748 48.469 26.4767 47.3046 27.5201 46.4699C28.5635 45.6353 29.8596 45.18 31.1957 45.1787C31.8399 45.1789 32.4787 45.2945 33.0821 45.52C33.9405 46.0487 34.649 46.7887 35.1397 47.6694C35.6303 48.55 35.8869 49.5419 35.8847 50.55Z" fill="#C2C2C2"/>
<path d="M35.8823 50.55C35.8949 51.6729 35.5873 52.7762 34.9955 53.7306C34.4037 54.685 33.5522 55.4512 32.5408 55.9392V64.6338C32.5361 65.3089 32.2658 65.955 31.7884 66.4324C31.311 66.9097 30.6648 67.18 29.9897 67.1847H29.846C29.486 66.9834 29.1874 66.6884 28.9817 66.331C28.7761 65.9735 28.6712 65.5671 28.6782 65.1548V56.3883C27.4724 55.8127 26.498 54.8444 25.9149 53.6422C25.3318 52.4401 25.1746 51.0755 25.4691 49.7723C25.7636 48.469 26.4923 47.3046 27.5357 46.4699C28.5791 45.6353 29.8751 45.18 31.2113 45.1787C31.8252 45.1893 32.4328 45.3048 33.0079 45.52C33.8797 46.0399 34.6024 46.7761 35.106 47.6574C35.6096 48.5386 35.877 49.535 35.8823 50.55Z" fill="#C5C5C5"/>
<path d="M35.8824 50.55C35.895 51.6729 35.5873 52.7762 34.9956 53.7306C34.4038 54.6851 33.5523 55.4512 32.5408 55.9392V64.6338C32.5361 65.3089 32.2658 65.955 31.7884 66.4324C31.311 66.9097 30.6648 67.18 29.9897 67.1847H29.846C29.4913 66.982 29.1964 66.6892 28.9913 66.3359C28.7863 65.9825 28.6783 65.5813 28.6782 65.1727V56.3883C27.471 55.812 26.4958 54.8422 25.913 53.6382C25.3301 52.4342 25.1743 51.0678 25.4711 49.7635C25.7679 48.4592 26.4998 47.2947 27.5462 46.4615C28.5927 45.6283 29.8916 45.1759 31.2293 45.1787C31.8435 45.1872 32.4514 45.3027 33.0259 45.52C33.8943 46.0421 34.6135 46.7793 35.1138 47.6604C35.6142 48.5415 35.8789 49.5367 35.8824 50.55V50.55Z" fill="#C7C7C7"/>
<path d="M35.8839 50.5506C35.8965 51.6735 35.5889 52.7768 34.9971 53.7312C34.4053 54.6857 33.5538 55.4518 32.5424 55.9398V64.6344C32.5377 65.3095 32.2674 65.9556 31.79 66.433C31.3126 66.9103 30.6664 67.1806 29.9913 67.1853H29.8476C29.4962 66.9803 29.2049 66.6865 29.0031 66.3333C28.8013 65.9802 28.696 65.5801 28.6978 65.1733V56.4069C27.4906 55.8306 26.5154 54.8607 25.9325 53.6568C25.3496 52.4528 25.1938 51.0863 25.4907 49.7821C25.7875 48.4778 26.5193 47.3133 27.5658 46.4801C28.6123 45.6468 29.9111 45.1945 31.2489 45.1973C31.8621 45.1977 32.4704 45.3072 33.0454 45.5206C33.9105 46.0449 34.6261 46.783 35.1232 47.664C35.6204 48.5449 35.8824 49.539 35.8839 50.5506V50.5506Z" fill="#CACACA"/>
<path d="M35.8816 50.5506C35.8942 51.6735 35.5866 52.7768 34.9948 53.7312C34.403 54.6857 33.5515 55.4518 32.54 55.9398V64.6344C32.5353 65.3095 32.265 65.9556 31.7876 66.433C31.3102 66.9103 30.6641 67.1806 29.9889 67.1853H29.8452C29.4996 66.9754 29.2139 66.68 29.0156 66.3276C28.8174 65.9752 28.7133 65.5777 28.7134 65.1733V56.4069C27.5062 55.8306 26.531 54.8607 25.9481 53.6568C25.3653 52.4528 25.2094 51.0863 25.5063 49.7821C25.8031 48.4778 26.5349 47.3133 27.5814 46.4801C28.6279 45.6468 29.9268 45.1945 31.2645 45.1973C31.8774 45.2021 32.4849 45.3115 33.061 45.5206C33.9228 46.0471 34.6348 46.7862 35.1287 47.667C35.6227 48.5478 35.8819 49.5408 35.8816 50.5506V50.5506Z" fill="#CDCDCD"/>
<path d="M35.8831 50.5506C35.8957 51.6735 35.5881 52.7768 34.9963 53.7312C34.4045 54.6857 33.5531 55.4518 32.5416 55.9398V64.6344C32.5369 65.3095 32.2666 65.9556 31.7892 66.433C31.3118 66.9103 30.6656 67.1806 29.9905 67.1853H29.8468C29.5047 66.9774 29.2223 66.6845 29.0271 66.335C28.8319 65.9856 28.7305 65.5915 28.7329 65.1913V56.4069C27.5257 55.8306 26.5505 54.8607 25.9677 53.6568C25.3848 52.4528 25.229 51.0863 25.5258 49.7821C25.8226 48.4778 26.5544 47.3133 27.6009 46.4801C28.6474 45.6468 29.9463 45.1945 31.284 45.1973C31.8969 45.2021 32.5044 45.3115 33.0805 45.5206C33.939 46.0493 34.6474 46.7893 35.1381 47.67C35.6288 48.5506 35.8853 49.5425 35.8831 50.5506Z" fill="#CFCFCF"/>
<path d="M35.8808 50.5502C35.8934 51.6732 35.5858 52.7764 34.994 53.7309C34.4022 54.6853 33.5507 55.4514 32.5392 55.9395V64.6341C32.5345 65.3092 32.2642 65.9553 31.7868 66.4326C31.3094 66.91 30.6633 67.1803 29.9881 67.185H29.8444C29.5081 66.9723 29.2311 66.6779 29.0395 66.3292C28.8478 65.9805 28.7477 65.5889 28.7486 65.1909V56.4245C27.5413 55.8482 26.5661 54.8784 25.9833 53.6744C25.4004 52.4704 25.2446 51.104 25.5414 49.7997C25.8383 48.4954 26.5701 47.3309 27.6166 46.4977C28.6631 45.6645 29.9619 45.2121 31.2996 45.2149C31.9117 45.2119 32.5195 45.3152 33.0962 45.5203C33.9513 46.0511 34.6562 46.7921 35.1436 47.6726C35.6311 48.5531 35.8849 49.5438 35.8808 50.5502Z" fill="#D2D2D2"/>
<path d="M35.8824 50.5503C35.895 51.6732 35.5874 52.7765 34.9956 53.7309C34.4038 54.6853 33.5523 55.4514 32.5408 55.9395V64.6341C32.5361 65.3092 32.2658 65.9553 31.7884 66.4326C31.311 66.91 30.6648 67.1803 29.9897 67.185H29.846C29.5156 66.9719 29.2437 66.6794 29.0555 66.3342C28.8672 65.989 28.7684 65.6021 28.7681 65.2089V56.4245C27.5609 55.8482 26.5857 54.8784 26.0028 53.6744C25.42 52.4704 25.2641 51.104 25.561 49.7997C25.8578 48.4954 26.5896 47.3309 27.6361 46.4977C28.6826 45.6645 29.9814 45.2121 31.3192 45.2149C31.9312 45.2115 32.5392 45.3149 33.1157 45.5203C33.9675 46.0533 34.6688 46.7952 35.1531 47.6756C35.6373 48.556 35.8884 49.5455 35.8824 50.5503V50.5503Z" fill="#D4D4D4"/>
<path d="M35.8839 50.5499C35.8965 51.6728 35.5889 52.7761 34.9971 53.7305C34.4053 54.685 33.5538 55.4511 32.5424 55.9391V64.6337C32.5377 65.3088 32.2674 65.9549 31.79 66.4323C31.3126 66.9097 30.6664 67.1799 29.9913 67.1846H29.8476C29.5216 66.9682 29.2542 66.6746 29.0692 66.3298C28.8843 65.985 28.7875 65.5998 28.7876 65.2086V56.4421C27.5818 55.8665 26.6074 54.8982 26.0243 53.6961C25.4412 52.4939 25.284 51.1293 25.5785 49.8261C25.873 48.5228 26.6017 47.3584 27.6451 46.5237C28.6885 45.6891 29.9845 45.2338 31.3207 45.2325C31.9319 45.2199 32.5404 45.3173 33.1172 45.52C33.969 46.0529 34.6704 46.7949 35.1546 47.6752C35.6388 48.5556 35.8899 49.5452 35.8839 50.5499V50.5499Z" fill="#D7D7D7"/>
<path d="M35.8816 50.5499C35.8942 51.6728 35.5866 52.7761 34.9948 53.7305C34.403 54.685 33.5515 55.4511 32.54 55.9391V64.6337C32.5353 65.3088 32.265 65.9549 31.7876 66.4323C31.3102 66.9097 30.6641 67.1799 29.9889 67.1846H29.8452C29.5214 66.9674 29.2567 66.673 29.0748 66.3281C28.8929 65.9832 28.7996 65.5985 28.8032 65.2086V56.4421C27.5974 55.8665 26.623 54.8982 26.0399 53.6961C25.4568 52.4939 25.2996 51.1293 25.5941 49.8261C25.8886 48.5229 26.6173 47.3584 27.6607 46.5238C28.7041 45.6891 30.0001 45.2338 31.3363 45.2325C31.9469 45.2286 32.554 45.3257 33.1329 45.52C33.9813 46.0551 34.6791 46.798 35.1601 47.6782C35.6411 48.5584 35.8895 49.5469 35.8816 50.5499V50.5499Z" fill="#D9D9D9"/>
<path d="M35.8816 50.5501C35.8942 51.673 35.5866 52.7763 34.9948 53.7308C34.403 54.6852 33.5515 55.4513 32.54 55.9393V64.6339C32.5353 65.309 32.265 65.9551 31.7876 66.4325C31.3102 66.9099 30.6641 67.1801 29.9889 67.1848H29.8452C29.5262 66.967 29.2647 66.6751 29.0832 66.334C28.9017 65.993 28.8057 65.6131 28.8032 65.2268V56.4423C27.596 55.8661 26.6208 54.8962 26.038 53.6922C25.4551 52.4883 25.2993 51.1218 25.5961 49.8175C25.893 48.5132 26.6248 47.3488 27.6713 46.5155C28.7177 45.6823 30.0166 45.2299 31.3543 45.2327C31.9651 45.2261 32.5726 45.3233 33.1509 45.5202C33.996 46.0575 34.6902 46.8013 35.168 47.6813C35.6458 48.5614 35.8914 49.5488 35.8816 50.5501V50.5501Z" fill="#DCDCDC"/>
<path d="M35.8812 50.5505C35.8938 51.6735 35.5861 52.7767 34.9943 53.7312C34.4026 54.6856 33.5511 55.4517 32.5396 55.9398V64.6344C32.5349 65.3095 32.2646 65.9556 31.7872 66.4329C31.3098 66.9103 30.6636 67.1806 29.9885 67.1853H29.8448C29.5291 66.9654 29.2711 66.6726 29.0928 66.3317C28.9145 65.9908 28.8212 65.6119 28.8208 65.2272V56.4607C27.6061 55.8814 26.6263 54.9038 26.0443 53.6905C25.4623 52.4771 25.3133 51.1012 25.6219 49.7913C25.9304 48.4815 26.6781 47.3168 27.7405 46.4908C28.8029 45.6648 30.1161 45.2273 31.4617 45.2511C32.0714 45.2387 32.6789 45.3298 33.2582 45.5206C34.0834 46.0706 34.7564 46.8199 35.2149 47.6992C35.6734 48.5784 35.9025 49.5592 35.8812 50.5505Z" fill="#DEDEDE"/>
<path d="M35.8821 50.55C35.8947 51.673 35.5871 52.7762 34.9953 53.7307C34.4035 54.6851 33.552 55.4512 32.5406 55.9393V64.6339C32.5358 65.3089 32.2656 65.955 31.7881 66.4324C31.3107 66.9098 30.6646 67.18 29.9894 67.1848H29.8457C29.5344 66.9619 29.2807 66.668 29.1057 66.3274C28.9308 65.9869 28.8395 65.6095 28.8397 65.2267V56.4602C27.6265 55.8815 26.6477 54.9054 26.0656 53.694C25.4835 52.4825 25.3331 51.1085 25.6393 49.7998C25.9456 48.4912 26.69 47.3265 27.7492 46.4991C28.8084 45.6716 30.1186 45.2311 31.4626 45.2506C32.0364 45.2481 32.6068 45.3391 33.1514 45.5201C33.9965 46.0574 34.6907 46.8012 35.1685 47.6813C35.6463 48.5613 35.8919 49.5487 35.8821 50.55V50.55Z" fill="#E1E1E1"/>
<path d="M35.8832 50.5498C35.8958 51.6727 35.5881 52.776 34.9963 53.7304C34.4046 54.6849 33.5531 55.451 32.5416 55.939V64.6336C32.5369 65.3087 32.2666 65.9548 31.7892 66.4322C31.3118 66.9095 30.6656 67.1798 29.9905 67.1845H29.8468C29.5402 66.9625 29.2907 66.6708 29.1189 66.3335C28.9471 65.9962 28.8579 65.6229 28.8587 65.2444V56.46C27.6471 55.8818 26.6693 54.9073 26.087 53.6978C25.5047 52.4882 25.353 51.1161 25.6568 49.8086C25.9607 48.501 26.702 47.3364 27.7579 46.5075C28.8139 45.6786 30.1213 45.2351 31.4637 45.2504C32.0309 45.2568 32.594 45.3476 33.1344 45.5198C33.9829 46.055 34.6807 46.7979 35.1617 47.6781C35.6427 48.5583 35.891 49.5468 35.8832 50.5498Z" fill="#E3E3E3"/>
<path d="M35.8844 50.5502C35.897 51.6731 35.5893 52.7764 34.9975 53.7308C34.4058 54.6853 33.5543 55.4514 32.5428 55.9394V64.634C32.5381 65.3091 32.2678 65.9552 31.7904 66.4326C31.313 66.91 30.6668 67.1802 29.9917 67.1849H29.848C29.5436 66.962 29.2968 66.6697 29.1281 66.3323C28.9593 65.9949 28.8736 65.622 28.8779 65.2448V56.4783C27.6678 55.9008 26.6908 54.9279 26.1084 53.7202C25.5259 52.5125 25.3728 51.1423 25.6743 49.8359C25.9759 48.5294 26.7139 47.3649 27.7667 46.5345C28.8195 45.7041 30.124 45.2577 31.4649 45.2688C32.0253 45.269 32.5825 45.3537 33.1177 45.5203C33.9695 46.0532 34.6708 46.7952 35.155 47.6755C35.6393 48.5559 35.8903 49.5455 35.8844 50.5502V50.5502Z" fill="#E6E6E6"/>
<path d="M35.8817 50.5501C35.8943 51.673 35.5867 52.7763 34.9949 53.7307C34.4031 54.6852 33.5517 55.4513 32.5402 55.9393V64.6339C32.5355 65.309 32.2652 65.9551 31.7878 66.4325C31.3104 66.9098 30.6642 67.1801 29.9891 67.1848H29.8454C29.5489 66.9598 29.3086 66.6692 29.1433 66.3356C28.9781 66.0021 28.8925 65.6348 28.8932 65.2626V56.4782C27.6846 55.9013 26.7085 54.9299 26.1259 53.7241C25.5433 52.5183 25.3888 51.1499 25.688 49.8446C25.9871 48.5392 26.7221 47.3747 27.7717 46.5429C28.8213 45.7111 30.123 45.2617 31.4623 45.2686C32.0167 45.2704 32.5678 45.3551 33.0971 45.5201C33.9522 46.0509 34.6571 46.7919 35.1446 47.6725C35.632 48.553 35.8858 49.5437 35.8817 50.5501Z" fill="#E8E8E8"/>
<path d="M35.8843 50.55C35.8969 51.6729 35.5893 52.7762 34.9975 53.7306C34.4057 54.6851 33.5542 55.4512 32.5427 55.9392V64.6338C32.538 65.3089 32.2677 65.955 31.7903 66.4324C31.3129 66.9098 30.6668 67.18 29.9916 67.1847H29.8479C29.5537 66.9588 29.3161 66.6675 29.1539 66.3339C28.9918 66.0003 28.9095 65.6335 28.9137 65.2626V56.4781C27.7002 55.9086 26.7179 54.9411 26.1301 53.7363C25.5422 52.5316 25.3841 51.162 25.6821 49.8551C25.98 48.5481 26.716 47.3823 27.7679 46.5513C28.8198 45.7203 30.1243 45.274 31.4648 45.2865C32.0185 45.2799 32.5699 45.3587 33.0997 45.5201C33.9548 46.0509 34.6597 46.7919 35.1471 47.6724C35.6346 48.5529 35.8884 49.5436 35.8843 50.55Z" fill="#EBEBEB"/>
<path d="M35.8827 50.5501C35.8954 51.673 35.5877 52.7763 34.9959 53.7307C34.4041 54.6852 33.5527 55.4513 32.5412 55.9393V64.6339C32.5365 65.309 32.2662 65.9551 31.7888 66.4325C31.3114 66.9099 30.6652 67.1801 29.9901 67.1848H29.8464C29.5585 66.9543 29.3265 66.6617 29.1678 66.3288C29.0091 65.9959 28.9279 65.6314 28.9301 65.2627V56.4962C27.8053 56.3113 26.7567 55.809 25.9078 55.0483C25.0589 54.2876 24.445 53.3002 24.1384 52.2024C23.8318 51.1046 23.8453 49.942 24.1772 48.8515C24.5091 47.7611 25.1457 46.7882 26.0119 46.0473C26.8782 45.3065 27.9381 44.8285 29.0669 44.6697C30.1957 44.5109 31.3464 44.6778 32.3835 45.1509C33.4205 45.624 34.3009 46.3835 34.9208 47.34C35.5408 48.2966 35.8745 49.4103 35.8827 50.5501Z" fill="#EDEDED"/>
<path d="M35.8808 50.5506C35.8934 51.6735 35.5858 52.7768 34.994 53.7312C34.4022 54.6857 33.5507 55.4518 32.5393 55.9398V64.6344C32.5346 65.3095 32.2643 65.9556 31.7869 66.433C31.3094 66.9103 30.6633 67.1806 29.9882 67.1853H29.8445C29.5589 66.9567 29.3284 66.667 29.1698 66.3374C29.0112 66.0078 28.9286 65.6469 28.9282 65.2811V56.4967C27.7224 55.9211 26.748 54.9528 26.1649 53.7506C25.5818 52.5485 25.4246 51.1839 25.7191 49.8807C26.0136 48.5774 26.7423 47.413 27.7857 46.5783C28.8291 45.7437 30.1251 45.2884 31.4613 45.2871C32.0026 45.2902 32.5407 45.3688 33.0602 45.5206C33.922 46.0471 34.6341 46.7862 35.128 47.667C35.6219 48.5478 35.8811 49.5408 35.8808 50.5506V50.5506Z" fill="#F0F0F0"/>
<path d="M35.8825 50.5503C35.8951 51.6732 35.5875 52.7765 34.9957 53.7309C34.4039 54.6853 33.5524 55.4515 32.5409 55.9395V64.6341C32.5362 65.3092 32.2659 65.9553 31.7885 66.4327C31.3111 66.91 30.6649 67.1803 29.9898 67.185H29.8461C29.5658 66.953 29.34 66.6621 29.1848 66.333C29.0295 66.0039 28.9486 65.6447 28.9478 65.2808V56.5143C27.7434 55.9394 26.7698 54.9727 26.1864 53.7723C25.6031 52.572 25.4445 51.2092 25.7367 49.907C26.0289 48.6048 26.7545 47.4404 27.7947 46.6043C28.835 45.7682 30.1283 45.3101 31.463 45.3048C31.9975 45.3021 32.5297 45.3746 33.0439 45.5203C33.9091 46.0446 34.6246 46.7827 35.1218 47.6637C35.6189 48.5446 35.8809 49.5387 35.8825 50.5503Z" fill="#F2F2F2"/>
<path d="M35.8842 50.5502C35.8969 51.6732 35.5892 52.7764 34.9974 53.7309C34.4056 54.6853 33.5542 55.4514 32.5427 55.9394V64.634C32.538 65.3091 32.2677 65.9552 31.7903 66.4326C31.3129 66.91 30.6667 67.1802 29.9916 67.1849H29.8479C29.5699 66.952 29.3468 66.6605 29.1947 66.3313C29.0425 66.0022 28.9649 65.6434 28.9676 65.2808V56.5143C27.7645 55.9401 26.7916 54.9749 26.208 53.7763C25.6244 52.5778 25.4644 51.2168 25.7543 49.9157C26.0441 48.6145 26.7667 47.4501 27.8039 46.6126C28.8411 45.7751 30.1316 45.314 31.4648 45.3047C31.9933 45.3032 32.5194 45.3758 33.0277 45.5203C33.8962 46.0423 34.6153 46.7795 35.1157 47.6606C35.6161 48.5417 35.8808 49.537 35.8842 50.5502V50.5502Z" fill="#F5F5F5"/>
<path d="M35.8822 50.5502C35.8948 51.6731 35.5872 52.7764 34.9954 53.7308C34.4036 54.6853 33.5521 55.4514 32.5407 55.9394V64.634C32.536 65.3091 32.2657 65.9552 31.7883 66.4326C31.3109 66.91 30.6647 67.1802 29.9896 67.1849H29.8459C29.5865 66.9607 29.3761 66.6855 29.2277 66.3765C29.0793 66.0674 28.9962 65.7311 28.9835 65.3885V56.5143C27.7817 55.9407 26.8096 54.9771 26.2257 53.7804C25.6417 52.5836 25.4804 51.2244 25.7679 49.9243C26.0555 48.6241 26.775 47.4597 27.8091 46.6208C28.8433 45.7819 30.1311 45.318 31.4627 45.3047C31.9848 45.3108 32.504 45.3832 33.0078 45.5203C33.8796 46.0401 34.6023 46.7763 35.1059 47.6576C35.6095 48.5388 35.8769 49.5352 35.8822 50.5502V50.5502Z" fill="#F7F7F7"/>
<path d="M35.8832 50.5499C35.8958 51.6728 35.5882 52.7761 34.9964 53.7305C34.4046 54.6849 33.5531 55.451 32.5416 55.9391V64.6337C32.5369 65.3088 32.2666 65.9549 31.7892 66.4322C31.3118 66.9096 30.6657 67.1799 29.9905 67.1846H29.8468C29.5916 66.9581 29.3851 66.682 29.2399 66.3732C29.0948 66.0644 29.014 65.7292 29.0025 65.3882V56.6217C27.7952 56.0454 26.82 55.0756 26.2372 53.8716C25.6543 52.6676 25.4985 51.3012 25.7953 49.9969C26.0922 48.6926 26.824 47.5281 27.8705 46.6949C28.917 45.8617 30.2158 45.4093 31.5535 45.4121C32.0688 45.4135 32.5819 45.4799 33.0806 45.6097C33.9262 46.1303 34.6265 46.8562 35.1165 47.7198C35.6064 48.5835 35.8702 49.557 35.8832 50.5499V50.5499Z" fill="#FAFAFA"/>
<path d="M35.8809 50.5499C35.8935 51.6728 35.5858 52.7761 34.9941 53.7305C34.4023 54.6849 33.5508 55.451 32.5393 55.9391V64.6337C32.5346 65.3088 32.2643 65.9549 31.7869 66.4322C31.3095 66.9096 30.6633 67.1799 29.9882 67.1846H29.8445C29.5941 66.9552 29.392 66.6782 29.2501 66.3697C29.1082 66.0612 29.0293 65.7275 29.0181 65.3882V56.6217C27.8109 56.0454 26.8357 55.0756 26.2528 53.8716C25.67 52.6676 25.5141 51.3012 25.811 49.9969C26.1078 48.6926 26.8396 47.5281 27.8861 46.6949C28.9326 45.8617 30.2314 45.4093 31.5692 45.4121C32.0785 45.4137 32.5856 45.4801 33.0782 45.6097C33.9238 46.1303 34.6242 46.8562 35.1141 47.7198C35.6041 48.5835 35.8678 49.557 35.8809 50.5499V50.5499Z" fill="#FCFCFC"/>
<path d="M35.8832 50.5497C35.8958 51.6726 35.5882 52.7759 34.9964 53.7303C34.4046 54.6848 33.5531 55.4509 32.5417 55.9389V64.6335C32.537 65.3086 32.2667 65.9547 31.7893 66.4321C31.3119 66.9094 30.6657 67.1797 29.9906 67.1844H29.8469C29.599 66.9541 29.3997 66.6765 29.2608 66.368C29.122 66.0595 29.0463 65.7262 29.0384 65.388V56.6215C27.8263 56.0526 26.845 55.0866 26.257 53.8838C25.6689 52.6809 25.5095 51.3132 25.8051 50.0074C26.1006 48.7015 26.8335 47.5358 27.8822 46.7033C28.9309 45.8708 30.2326 45.4216 31.5715 45.4299C32.0801 45.4254 32.5873 45.4858 33.0806 45.6096C33.9262 46.1302 34.6265 46.856 35.1165 47.7197C35.6065 48.5833 35.8702 49.5568 35.8832 50.5497V50.5497Z" fill="white"/>
</g>
<defs>
<linearGradient id="paint0_linear_2485_8490" x1="40.9292" y1="0.933594" x2="40.9292" y2="35.9995" gradientUnits="userSpaceOnUse">
<stop stop-color="#00D764"/>
<stop offset="1" stop-color="#2698EA"/>
</linearGradient>
<linearGradient id="paint1_linear_2485_8490" x1="19.0503" y1="0.933594" x2="19.0503" y2="36.0174" gradientUnits="userSpaceOnUse">
<stop stop-color="#00D764"/>
<stop offset="1" stop-color="#2698EA"/>
</linearGradient>
<linearGradient id="paint2_linear_2485_8490" x1="44.4953" y1="36.0176" x2="44.4953" y2="77.1194" gradientUnits="userSpaceOnUse">
<stop stop-color="#00D764"/>
<stop offset="1" stop-color="#2698EA"/>
</linearGradient>
<linearGradient id="paint3_linear_2485_8490" x1="15.4289" y1="35.999" x2="15.4289" y2="77.0649" gradientUnits="userSpaceOnUse">
<stop stop-color="#00D764"/>
<stop offset="1" stop-color="#2698EA"/>
</linearGradient>
</defs>
</svg>
