<svg width="625" height="354" viewBox="0 0 625 354" fill="none" xmlns="http://www.w3.org/2000/svg">
<rect x="0.5" y="0.5" width="624" height="353" rx="11.5" fill="white" stroke="#E6E8EC"/>
<g opacity="0.7">
<path d="M-101.717 159.57C-145.612 89.5028 -119.607 -0.0680835 -43.6342 -40.4922L334.659 -241.777C410.632 -282.201 507.804 -258.17 551.698 -188.103L622.785 -74.6314C628.144 -66.0758 615.52 -54.5244 605.935 -58.9418C534.355 -91.9283 375.477 -141.913 198.339 -47.6609C25.1889 44.4697 -5.28429 189.217 -8.74772 263.227C-9.21806 273.278 -27.419 278.169 -32.8782 269.455L-101.717 159.57Z" fill="#F4F5F6"/>
<path d="M42.66 390.031L47.678 398.042C52.2343 405.314 64.4262 403.986 67.0883 396.02C86.3683 338.332 156.216 192.506 304.95 113.367C453.683 34.228 625.639 51.3932 689.489 64.8496C698.305 66.7076 705.65 57.6413 701.093 50.3683L696.075 42.3582C686.263 26.6946 672 13.8844 653.966 6.9928C587.065 -18.5728 413.496 -62.2373 249.579 24.9808C85.6616 112.199 39.9086 272.561 30.4819 338.74C27.9408 356.579 32.8473 374.368 42.66 390.031Z" fill="#F4F5F6"/>
<path d="M100.013 481.583L113.259 502.727C116.602 508.064 125.321 508.317 129.885 503.246C159.872 469.926 259.759 366.59 412.628 285.251C565.496 203.912 712.544 175.856 758.849 168.583C765.896 167.476 770.018 160.391 766.674 155.054L753.428 133.91C747.433 124.34 736.707 118.066 724.035 117.89C673.262 117.184 531.22 124.308 366.657 211.869C202.094 299.431 124.379 409.237 99.6552 450.113C93.4846 460.315 94.0177 472.013 100.013 481.583Z" fill="#F4F5F6"/>
<path d="M299.159 580.024L736.531 347.305C773.12 327.836 792.683 286.765 788.21 238.811C787.829 234.724 783.751 231.337 780.3 232.383C743.203 243.624 569.272 297.771 456.117 358.075C342.604 418.57 204.275 531.696 178.778 552.846C176.675 554.59 177.289 558.397 179.979 560.526C218.169 590.75 264.695 598.362 299.159 580.024Z" fill="#F4F5F6"/>
</g>
</svg>
