<svg width="120" height="120" viewBox="0 0 120 120" fill="none" xmlns="http://www.w3.org/2000/svg">
<mask id="path-1-inside-1_1305_50172" fill="white">
<rect y="100" width="120" height="10" rx="2"/>
</mask>
<rect y="100" width="120" height="10" rx="2" stroke="black" stroke-width="6" mask="url(#path-1-inside-1_1305_50172)"/>
<mask id="path-2-inside-2_1305_50172" fill="white">
<rect y="12" width="120" height="10" rx="2"/>
</mask>
<rect y="12" width="120" height="10" rx="2" stroke="black" stroke-width="6" mask="url(#path-2-inside-2_1305_50172)"/>
<mask id="path-3-inside-3_1305_50172" fill="white">
<rect x="31" y="19" width="28" height="84" rx="2"/>
</mask>
<rect x="31" y="19" width="28" height="84" rx="2" fill="#FFA800" stroke="black" stroke-width="6" mask="url(#path-3-inside-3_1305_50172)"/>
<rect x="50.75" y="56.75" width="1.5" height="8.5" rx="0.75" stroke="black" stroke-width="1.5"/>
<mask id="path-5-inside-4_1305_50172" fill="white">
<rect x="61" y="19" width="28" height="84" rx="2"/>
</mask>
<rect x="61" y="19" width="28" height="84" rx="2" fill="#FFA800" stroke="black" stroke-width="6" mask="url(#path-5-inside-4_1305_50172)"/>
<rect x="67.75" y="56.75" width="1.5" height="8.5" rx="0.75" stroke="black" stroke-width="1.5"/>
<mask id="path-7-inside-5_1305_50172" fill="white">
<rect x="3" y="19" width="10" height="84" rx="2"/>
</mask>
<rect x="3" y="19" width="10" height="84" rx="2" stroke="black" stroke-width="6" mask="url(#path-7-inside-5_1305_50172)"/>
<mask id="path-8-inside-6_1305_50172" fill="white">
<rect x="17" y="19" width="10" height="84" rx="2"/>
</mask>
<rect x="17" y="19" width="10" height="84" rx="2" stroke="black" stroke-width="6" mask="url(#path-8-inside-6_1305_50172)"/>
<mask id="path-9-inside-7_1305_50172" fill="white">
<rect x="93" y="19" width="10" height="84" rx="2"/>
</mask>
<rect x="93" y="19" width="10" height="84" rx="2" stroke="black" stroke-width="6" mask="url(#path-9-inside-7_1305_50172)"/>
<mask id="path-10-inside-8_1305_50172" fill="white">
<rect x="107" y="19" width="10" height="84" rx="2"/>
</mask>
<rect x="107" y="19" width="10" height="84" rx="2" stroke="black" stroke-width="6" mask="url(#path-10-inside-8_1305_50172)"/>
</svg>
