<svg width="48" height="48" viewBox="0 0 48 48" fill="none" xmlns="http://www.w3.org/2000/svg">
<path d="M41.9943 9.71522C41.9911 9.42684 41.8796 9.14428 41.6676 8.93222L33.0646 0.329156C33.0642 0.328781 33.064 0.328688 33.0636 0.328406C32.8604 0.125438 32.5797 0 32.2699 0H8.3704C7.06568 0 6.00433 1.06125 6.00433 2.36597V45.6339C6.00433 46.9386 7.06558 47.9999 8.3703 47.9999H39.6307C40.9353 47.9999 41.9966 46.9387 41.9966 45.6339V9.72684C41.9968 9.72272 41.9947 9.71925 41.9943 9.71522ZM33.3938 3.83728L38.1595 8.60297H33.5121C33.4469 8.60297 33.3938 8.54981 33.3938 8.48466V3.83728ZM39.749 45.634C39.749 45.6992 39.6959 45.7522 39.6308 45.7522H8.3704C8.30524 45.7522 8.25218 45.6992 8.25218 45.634V2.36597C8.25218 2.30081 8.30524 2.24775 8.3704 2.24775H31.146V8.48466C31.146 9.78928 32.2075 10.8508 33.5122 10.8508H39.7491V45.634H39.749Z" fill="black"/>
<path d="M33.9457 15.3765H14.0542C13.4335 15.3765 12.9303 15.8796 12.9303 16.5003C12.9303 17.121 13.4335 17.6242 14.0542 17.6242H33.9456C34.5662 17.6242 35.0695 17.121 35.0695 16.5003C35.0696 15.8796 34.5662 15.3765 33.9457 15.3765Z" fill="black"/>
<path d="M33.9457 22.1582H14.0542C13.4335 22.1582 12.9303 22.6615 12.9303 23.2821C12.9303 23.9027 13.4335 24.406 14.0542 24.406H33.9456C34.5662 24.406 35.0695 23.9027 35.0695 23.2821C35.0696 22.6615 34.5662 22.1582 33.9457 22.1582Z" fill="black"/>
<path d="M33.9457 28.9399H14.0542C13.4335 28.9399 12.9303 29.4432 12.9303 30.0638C12.9303 30.6845 13.4335 31.1877 14.0542 31.1877H33.9456C34.5662 31.1877 35.0695 30.6845 35.0695 30.0638C35.0696 29.4433 34.5662 28.9399 33.9457 28.9399Z" fill="black"/>
<path d="M23.9999 35.7217H14.0542C13.4335 35.7217 12.9303 36.2249 12.9303 36.8456C12.9303 37.4663 13.4335 37.9694 14.0542 37.9694H23.9999C24.6205 37.9694 25.1238 37.4663 25.1238 36.8456C25.1238 36.2248 24.6205 35.7217 23.9999 35.7217Z" fill="black"/>
</svg>
