<svg width="50" height="65" viewBox="0 0 50 65" fill="none" xmlns="http://www.w3.org/2000/svg">
<g filter="url(#filter0_f_223_13439)">
<path d="M25.51 53.523C25.5041 53.6516 25.4488 53.7729 25.3557 53.8618C25.2625 53.9506 25.1387 54.0001 25.01 54C24.72 54 24.5 53.79 24.49 53.523C24.345 50.355 22.734 48.306 19.658 47.376C9.53 44.968 2 35.863 2 25C2 12.297 12.297 2 25 2C37.703 2 48 12.297 48 25C48 35.863 40.47 44.968 30.342 47.376C27.266 48.306 25.655 50.356 25.512 53.523H25.51Z" fill="#FF3333"/>
</g>
<path d="M25.51 53.523C25.5041 53.6516 25.4488 53.7729 25.3557 53.8618C25.2625 53.9506 25.1387 54.0001 25.01 54C24.72 54 24.5 53.79 24.49 53.523C24.345 50.355 22.734 48.306 19.658 47.376C9.53 44.968 2 35.863 2 25C2 12.297 12.297 2 25 2C37.703 2 48 12.297 48 25C48 35.863 40.47 44.968 30.342 47.376C27.266 48.306 25.655 50.356 25.512 53.523H25.51Z" fill="#FF3333"/>
<path d="M25 65C22.79 65 21 63.21 21 61C21 58.79 22.79 57 25 57C27.21 57 29 58.79 29 61C29 63.21 27.21 65 25 65Z" fill="white"/>
<path fill-rule="evenodd" clip-rule="evenodd" d="M25 63C25.2663 63.006 25.5312 62.9588 25.779 62.861C26.0268 62.7633 26.2526 62.617 26.4432 62.4308C26.6337 62.2446 26.7851 62.0222 26.8885 61.7766C26.9919 61.5311 27.0451 61.2674 27.0452 61.001C27.0453 60.7346 26.9921 60.4708 26.8889 60.2253C26.7856 59.9797 26.6343 59.7572 26.4439 59.5709C26.2535 59.3846 26.0277 59.2382 25.78 59.1403C25.5322 59.0425 25.2673 58.9951 25.001 59.001C24.4784 59.0125 23.9812 59.2282 23.6156 59.6018C23.2501 59.9754 23.0453 60.4773 23.0452 61C23.0451 61.5227 23.2496 62.0246 23.6149 62.3984C23.9803 62.7722 24.4774 62.9882 25 63V63Z" fill="#FF3333"/>
<path fill-rule="evenodd" clip-rule="evenodd" d="M24 31.2V36H35.4C35.4788 36 35.5568 35.9845 35.6296 35.9543C35.7024 35.9242 35.7685 35.88 35.8243 35.8243C35.88 35.7685 35.9242 35.7024 35.9543 35.6296C35.9845 35.5568 36 35.4788 36 35.4V21.6C36 21.5212 35.9845 21.4432 35.9543 21.3704C35.9242 21.2976 35.88 21.2315 35.8243 21.1757C35.7685 21.12 35.7024 21.0758 35.6296 21.0457C35.5568 21.0155 35.4788 21 35.4 21H30.446L30.288 23H34V24H30.21L30.051 26H34V27H29.972L29.599 31.715C29.5966 31.7549 29.5863 31.7939 29.5687 31.8299C29.5512 31.8658 29.5267 31.8978 29.4966 31.9242C29.4666 31.9506 29.4317 31.9708 29.3938 31.9837C29.3559 31.9965 29.3159 32.0017 29.276 31.999C29.1996 31.9915 29.1289 31.9555 29.0778 31.8983C29.0266 31.8411 28.9989 31.7667 29 31.69V15.4C29 15.2939 28.9579 15.1922 28.8828 15.1172C28.8078 15.0421 28.7061 15 28.6 15H28V14.4C28 14.2939 27.9579 14.1922 27.8828 14.1172C27.8078 14.0421 27.7061 14 27.6 14H17.4C17.2939 14 17.1922 14.0421 17.1172 14.1172C17.0421 14.1922 17 14.2939 17 14.4V15H16.4C16.2939 15 16.1922 15.0421 16.1172 15.1172C16.0421 15.1922 16 15.2939 16 15.4V35.4C16 35.5591 16.0632 35.7117 16.1757 35.8243C16.2883 35.9368 16.4409 36 16.6 36H21V31.2C21 31.09 21.09 31 21.2 31H23.8C23.91 31 24 31.09 24 31.2ZM19.5 28V22H21.5V28H19.5ZM23.5 22V28H25.5V22H23.5ZM19.5 20V17H21.5V20H19.5ZM23.5 17V20H25.5V17H23.5ZM31 30V29H34V30H31Z" fill="white"/>
<path d="M30.526 20L30.605 19H33.6C33.82 19 34 19.18 34 19.4V20H30.526Z" fill="white"/>
<defs>
<filter id="filter0_f_223_13439" x="0" y="0" width="50" height="56" filterUnits="userSpaceOnUse" color-interpolation-filters="sRGB">
<feFlood flood-opacity="0" result="BackgroundImageFix"/>
<feBlend mode="normal" in="SourceGraphic" in2="BackgroundImageFix" result="shape"/>
<feGaussianBlur stdDeviation="1" result="effect1_foregroundBlur_223_13439"/>
</filter>
</defs>
</svg>
