<svg width="100" height="100" viewBox="0 0 100 100" fill="none" xmlns="http://www.w3.org/2000/svg">
<g clip-path="url(#clip0_1476_15832)">
<rect x="10" y="25" width="8" height="8" fill="#FFA800"/>
<rect x="10" y="41" width="8" height="8" fill="#FFA800"/>
<rect x="10" y="58" width="8" height="8" fill="#FFA800"/>
<rect x="27" y="25" width="8" height="8" fill="#FFA800"/>
<rect x="27" y="41" width="8" height="8" fill="#FFA800"/>
<rect x="27" y="58" width="8" height="8" fill="#FFA800"/>
<rect x="43" y="58" width="8" height="8" fill="#FFA800"/>
<path fill-rule="evenodd" clip-rule="evenodd" d="M66 5.5L62.5 7L60.5 5.5L54.5 11L56.5 13L55 17H51.5V25.5H54.5L56.5 29.5L54 32L60.5 38L62.5 36L66 37.5L66.5 40.5H75L75.5 37L78.5 36L81.5 37.5L87 32L85.5 29.5L87 25.5H90V17H87L85 13.5L87 11.5L81.5 5.5L78.5 7L75 5.5V2.5H66.5L66 5.5ZM70.5 28C74.0899 28 77 25.0899 77 21.5C77 17.9101 74.0899 15 70.5 15C66.9101 15 64 17.9101 64 21.5C64 25.0899 66.9101 28 70.5 28Z" fill="#FFA800"/>
<path d="M94.1406 14.0634H87.3555L87.2612 13.8357L88.5801 12.7251C89.3202 12.1021 89.4926 11.0312 88.9854 10.2074C87.2422 7.37536 84.8202 4.95408 81.9813 3.20507C81.1573 2.69745 80.0862 2.86991 79.4628 3.60995L78.3532 4.92771L77.0014 4.36776L77.1485 2.65077C77.2313 1.68691 76.5958 0.807614 75.6546 0.583787C74.0315 0.197851 72.3659 0.00175781 70.7036 0.000976562C70.7032 0.000976562 70.7027 0.000976562 70.7021 0.000976562C69.04 0.00175781 67.3745 0.197851 65.7513 0.583787C64.8101 0.807614 64.1745 1.68671 64.2574 2.65077L64.4044 4.36795L63.0527 4.92791L61.9429 3.61014C61.3199 2.86991 60.2484 2.69784 59.4246 3.20526C56.5857 4.95408 54.1635 7.37536 52.4205 10.2076C51.9133 11.0314 52.0857 12.1023 52.8258 12.7253L54.1447 13.8359L54.0504 14.0636H5.85935C2.62851 14.0636 0 16.6921 0 19.923V78.5165C0 81.7473 2.62851 84.3758 5.85935 84.3758H37.6168L34.71 96.0945H32.4217C31.343 96.0945 30.4686 96.969 30.4686 98.0477C30.4686 99.1264 31.343 100.001 32.4217 100.001H67.5786C68.6572 100.001 69.5318 99.1264 69.5318 98.0477C69.5318 96.969 68.6572 96.0945 67.5786 96.0945H65.2962L62.3841 84.3758H94.1408C97.3717 84.3758 100 81.7473 100 78.5165V19.923C100 16.6919 97.3715 14.0634 94.1406 14.0634ZM60.0927 7.47653L60.9859 8.53708C61.5341 9.18805 62.441 9.40914 63.2271 9.08336L67.2202 7.42927C68.0066 7.10349 68.4915 6.30603 68.4187 5.45799L68.3003 4.07459C69.0972 3.96366 69.9009 3.9076 70.7032 3.90721C71.5056 3.9076 72.3095 3.96366 73.1064 4.07459L72.988 5.45799C72.9151 6.30603 73.3999 7.10349 74.1864 7.42927L78.1796 9.08336C78.9661 9.40914 79.8725 9.18805 80.4208 8.53708L81.3139 7.47653C82.5962 8.44782 83.744 9.59508 84.7139 10.8742L83.652 11.7683C83.0008 12.3166 82.7798 13.2234 83.1055 14.0099L84.759 18.0021C85.0848 18.7884 85.8821 19.2732 86.7303 19.2007L88.1149 19.0822C88.3334 20.6724 88.3327 22.2956 88.1125 23.8892L86.7311 23.7706C85.8834 23.6981 85.0854 24.1827 84.7596 24.969L83.1053 28.9622C82.7798 29.7487 83.0008 30.6553 83.652 31.2038L84.7129 32.0969C83.7417 33.3794 82.5944 34.5276 81.3153 35.4975L80.4204 34.4348C79.8717 33.7838 78.9653 33.5628 78.1788 33.8885L74.1866 35.5422C73.4003 35.868 72.9153 36.6655 72.988 37.5135L73.1067 38.8979C72.3128 39.0079 71.5114 39.0633 70.7101 39.0633C70.7075 39.0633 70.705 39.0633 70.7023 39.0633C70.6997 39.0633 70.6974 39.0633 70.6946 39.0633C69.8943 39.0633 69.0937 39.0079 68.2999 38.8979L68.4185 37.5135C68.4913 36.6655 68.0066 35.868 67.22 35.5422L63.2277 33.8885C62.4414 33.563 61.5347 33.784 60.9863 34.4348L60.0912 35.4977C58.8121 34.5278 57.6648 33.3796 56.6935 32.0971L57.7545 31.204C58.4056 30.6557 58.6267 29.7489 58.3011 28.9624L56.6468 24.9692C56.3209 24.1829 55.523 23.6981 54.6754 23.7708L53.2939 23.8894C53.0736 22.2956 53.073 20.6726 53.2918 19.0823L54.6761 19.2009C55.525 19.2728 56.3217 18.7886 56.6474 18.0023L58.3009 14.0101C58.6267 13.2236 58.4056 12.3167 57.7545 11.7685L56.6925 10.8744C57.6625 9.59508 58.8103 8.44782 60.0927 7.47653ZM3.90623 78.5163V76.563H3.90643H41.2104C42.2891 76.563 43.1635 75.6886 43.1635 74.6099C43.1635 73.5312 42.2891 72.6567 41.2104 72.6567H3.90643H3.90623V19.9226C3.90623 18.8456 4.7824 17.9695 5.85935 17.9695H49.5123C49.0484 20.77 49.1436 23.6692 49.802 26.4378C50.0258 27.379 50.9045 28.0157 51.8691 27.9319L53.5853 27.7845L54.1449 29.1358L52.8273 30.2452C52.0871 30.8684 51.9148 31.9395 52.4223 32.7633C54.1709 35.6032 56.5922 38.0256 59.4238 39.7688C60.2476 40.276 61.3181 40.1035 61.9416 39.3637L63.0533 38.0438L64.4044 38.6036L64.2572 40.3217C64.1744 41.2856 64.8097 42.1649 65.7509 42.3887C67.3699 42.774 69.0327 42.9694 70.6927 42.9694H70.7116C72.3734 42.9694 74.0364 42.774 75.6554 42.3889C76.5964 42.1651 77.2319 41.286 77.1491 40.3219L77.0018 38.6038L78.353 38.044L79.4645 39.3639C80.0874 40.1039 81.1585 40.276 81.9823 39.7692C84.8141 38.026 87.2354 35.6036 88.984 32.7635C89.4914 31.9397 89.3192 30.8686 88.5789 30.2454L87.2614 29.136L87.8209 27.7847L89.5371 27.9321C90.5032 28.0159 91.3805 27.3792 91.6043 26.438C92.2627 23.6696 92.3578 20.7704 91.8942 17.9697H94.1406C95.2176 17.9697 96.0938 18.8458 96.0938 19.9228V72.6569H96.0936H58.7884C57.7099 72.6569 56.8353 73.5313 56.8353 74.6101C56.8353 75.6888 57.7099 76.5632 58.7884 76.5632H80.9169V80.4694H5.85935C4.7824 80.4694 3.90623 79.5932 3.90623 78.5163ZM61.271 96.0943H38.7346L41.6414 84.3756H58.3588L61.271 96.0943ZM94.1406 80.4694H84.8231V76.5632H96.0936H96.0938V78.5165C96.0938 79.5932 95.2176 80.4694 94.1406 80.4694Z" fill="black"/>
<path d="M70.7029 30.2737C75.5492 30.2737 79.492 26.3309 79.492 21.4846C79.492 16.6383 75.5492 12.6956 70.7029 12.6956C65.8566 12.6956 61.9141 16.6383 61.9141 21.4846C61.9141 26.3309 65.8566 30.2737 70.7029 30.2737ZM70.7029 16.6018C73.3953 16.6018 75.5857 18.7922 75.5857 21.4846C75.5857 24.177 73.3953 26.3674 70.7029 26.3674C68.0107 26.3674 65.8203 24.177 65.8203 21.4846C65.8203 18.7922 68.0107 16.6018 70.7029 16.6018Z" fill="black"/>
<path d="M18.5547 22.3633H9.76562C8.68691 22.3633 7.8125 23.2377 7.8125 24.3164V33.1055C7.8125 34.1842 8.68691 35.0586 9.76562 35.0586H18.5547C19.6334 35.0586 20.5078 34.1842 20.5078 33.1055V24.3164C20.5078 23.2377 19.6334 22.3633 18.5547 22.3633ZM16.6016 31.1523H11.7188V26.2695H16.6016V31.1523Z" fill="black"/>
<path d="M18.5547 38.9651H9.76562C8.68691 38.9651 7.8125 39.8395 7.8125 40.9182V49.7073C7.8125 50.786 8.68691 51.6604 9.76562 51.6604H18.5547C19.6334 51.6604 20.5078 50.786 20.5078 49.7073V40.9182C20.5078 39.8395 19.6334 38.9651 18.5547 38.9651ZM16.6016 47.7542H11.7188V42.8713H16.6016V47.7542Z" fill="black"/>
<path d="M18.5547 55.5667H9.76562C8.68691 55.5667 7.8125 56.4411 7.8125 57.5198V66.3088C7.8125 67.3875 8.68691 68.262 9.76562 68.262H18.5547C19.6334 68.262 20.5078 67.3875 20.5078 66.3088V57.5198C20.5078 56.4411 19.6334 55.5667 18.5547 55.5667ZM16.6016 64.3557H11.7188V59.4729H16.6016V64.3557Z" fill="black"/>
<path d="M35.1563 22.3633H26.3672C25.2885 22.3633 24.4141 23.2377 24.4141 24.3164V33.1055C24.4141 34.1842 25.2885 35.0586 26.3672 35.0586H35.1563C36.235 35.0586 37.1094 34.1842 37.1094 33.1055V24.3164C37.1094 23.2377 36.235 22.3633 35.1563 22.3633ZM33.2031 31.1523H28.3203V26.2695H33.2031V31.1523Z" fill="black"/>
<path d="M35.1563 38.9651H26.3672C25.2885 38.9651 24.4141 39.8395 24.4141 40.9182V49.7073C24.4141 50.786 25.2885 51.6604 26.3672 51.6604H35.1563C36.235 51.6604 37.1094 50.786 37.1094 49.7073V40.9182C37.1094 39.8395 36.235 38.9651 35.1563 38.9651ZM33.2031 47.7542H28.3203V42.8713H33.2031V47.7542Z" fill="black"/>
<path d="M35.1563 55.5667H26.3672C25.2885 55.5667 24.4141 56.4411 24.4141 57.5198V66.3088C24.4141 67.3875 25.2885 68.262 26.3672 68.262H35.1563C36.235 68.262 37.1094 67.3875 37.1094 66.3088V57.5198C37.1094 56.4411 36.235 55.5667 35.1563 55.5667ZM33.2031 64.3557H28.3203V59.4729H33.2031V64.3557Z" fill="black"/>
<path d="M51.7578 55.5667H42.9688C41.89 55.5667 41.0156 56.4411 41.0156 57.5198V66.3088C41.0156 67.3875 41.89 68.262 42.9688 68.262H51.7578C52.8363 68.262 53.7109 67.3875 53.7109 66.3088V57.5198C53.7109 56.4411 52.8363 55.5667 51.7578 55.5667ZM49.8047 64.3557H44.9219V59.4729H49.8047V64.3557Z" fill="black"/>
<path d="M90.2338 64.3555H74.9023C73.8238 64.3555 72.9492 65.2299 72.9492 66.3086C72.9492 67.3873 73.8238 68.2617 74.9023 68.2617H90.2338C91.3123 68.2617 92.1869 67.3873 92.1869 66.3086C92.1869 65.2299 91.3123 64.3555 90.2338 64.3555Z" fill="black"/>
<path d="M70.7031 59.4729H90.2342C91.3127 59.4729 92.1873 58.5985 92.1873 57.5198C92.1873 56.4411 91.3127 55.5667 90.2342 55.5667H70.7031C69.6246 55.5667 68.75 56.4411 68.75 57.5198C68.75 58.5985 69.6246 59.4729 70.7031 59.4729Z" fill="black"/>
<path d="M50.0006 72.656H49.9992C48.9205 72.656 48.0469 73.5304 48.0469 74.6091C48.0469 75.6878 48.9219 76.5623 50.0006 76.5623C51.0793 76.5623 51.9537 75.6878 51.9537 74.6091C51.9537 73.5304 51.0793 72.656 50.0006 72.656Z" fill="black"/>
</g>
<defs>
<clipPath id="clip0_1476_15832">
<rect width="100" height="100" fill="white"/>
</clipPath>
</defs>
</svg>
