<svg width="60" height="100" viewBox="0 0 60 100" fill="none" xmlns="http://www.w3.org/2000/svg">
<path d="M8.5 38L11 35H49L52 38V62L49 65H29.5L22 74.5L21 65H11L8.5 62V38Z" fill="#FFA800"/>
<path d="M51.6667 0H8.33333C3.73291 0.00569662 0.00569662 3.73291 0 8.33333V91.6667C0.00569662 96.2671 3.73291 99.9943 8.33333 100H51.6667C56.2671 99.9943 59.9943 96.2671 60 91.6667V8.33333C59.9943 3.73291 56.2671 0.00569662 51.6667 0ZM3.33333 8.33333C3.33333 5.5721 5.5721 3.33333 8.33333 3.33333H51.6667C54.4279 3.33333 56.6667 5.5721 56.6667 8.33333V13.3333H3.33333V8.33333ZM56.6667 16.6667V83.3333H3.33333V16.6667H56.6667ZM56.6667 91.6667C56.6667 94.4279 54.4279 96.6667 51.6667 96.6667H8.33333C5.5721 96.6667 3.33333 94.4279 3.33333 91.6667V86.6667H56.6667V91.6667Z" fill="black"/>
<path d="M6.66667 6.66667H10V10H6.66667V6.66667Z" fill="black"/>
<path d="M13.3333 6.66667H23.3333V10H13.3333V6.66667Z" fill="black"/>
<path d="M26.6667 90H33.3333V93.3333H26.6667V90Z" fill="black"/>
<path d="M11.6667 66.6667H20V75C20 75.7178 20.459 76.355 21.1401 76.582C21.3102 76.6374 21.4876 76.6658 21.6667 76.6667C22.1916 76.6667 22.6855 76.4193 22.9997 76.0002L30 66.6667H48.3333C51.0946 66.6667 53.3333 64.4279 53.3333 61.6667V38.3333C53.3333 35.5721 51.0946 33.3333 48.3333 33.3333C30.5785 33.3333 25.2519 33.3333 11.6667 33.3333C8.90544 33.3333 6.66667 35.5721 6.66667 38.3333V61.6667C6.66667 64.4279 8.90544 66.6667 11.6667 66.6667ZM48.3333 63.3333H30C28.9518 63.3374 27.9655 63.8306 27.3332 64.6663L23.3333 70V66.6667C23.3333 64.8258 21.8408 63.3333 20 63.3333H11.6667C10.7463 63.3333 10 62.5871 10 61.6667V60.8219L25.0619 49.2301L29.2082 51.4665C29.7022 51.7334 30.2979 51.7334 30.7918 51.4665L34.9382 49.2301L50 60.8219V61.6667C50 62.5871 49.2537 63.3333 48.3333 63.3333ZM10 56.613V41.123L21.8449 47.5L10 56.613ZM38.1551 47.5L50 41.123V56.613L38.1551 47.5ZM48.3333 36.6667C48.5319 36.6699 48.7272 36.7098 48.9119 36.783C48.9551 36.8001 48.9982 36.8164 49.0397 36.8368C49.2106 36.9141 49.3677 37.0199 49.5036 37.1501C49.5134 37.1598 49.5199 37.1737 49.5296 37.1834C49.6077 37.2754 49.6753 37.3755 49.7314 37.4813L30 48.1063L10.2686 37.4813C10.3247 37.3755 10.3923 37.2754 10.4704 37.1834C10.4801 37.1737 10.4867 37.1598 10.4964 37.1501C10.6323 37.0199 10.7894 36.9141 10.9603 36.8368C11.0018 36.8164 11.0449 36.8001 11.0881 36.783C11.2728 36.7098 11.4681 36.6699 11.6667 36.6667C26.0799 36.6667 33.9201 36.6667 48.3333 36.6667Z" fill="black"/>
</svg>
