<svg width="100" height="100" viewBox="0 0 100 100" fill="none" xmlns="http://www.w3.org/2000/svg">
<g clip-path="url(#clip0_1476_15823)">
<path d="M2 98V74L4.5 68L9 64.5L24.5 61L35 71L45 61L60.5 64.5L65.5 68L67.5 74V98H2Z" fill="#FFA800"/>
<path d="M90.3074 7.88721H72.8437C72.0348 7.88721 71.3789 8.54307 71.3789 9.35205C71.3789 10.161 72.0348 10.8169 72.8437 10.8169H90.3074C91.1164 10.8169 91.7723 10.161 91.7723 9.35205C91.7723 8.54307 91.1164 7.88721 90.3074 7.88721Z" fill="black"/>
<path d="M90.3074 14.4092H72.8437C72.0348 14.4092 71.3789 15.065 71.3789 15.874C71.3789 16.683 72.0348 17.3389 72.8437 17.3389H90.3074C91.1164 17.3389 91.7723 16.683 91.7723 15.874C91.7723 15.065 91.1164 14.4092 90.3074 14.4092Z" fill="black"/>
<path d="M91.0764 -4.88281e-05H81.0084C80.1994 -4.88281e-05 79.5436 0.655811 79.5436 1.46479C79.5436 2.27378 80.1994 2.92964 81.0084 2.92964H91.0764C94.1129 2.92964 96.5834 5.40015 96.5834 8.43667V16.8123C96.5834 19.8488 94.1129 22.3195 91.0764 22.3195H79.8281C78.6873 22.3195 77.6057 22.8703 76.9346 23.7929L72.9877 29.2197V25.6472C72.9877 23.9792 71.8666 22.5505 70.2613 22.1732C67.7648 21.5859 66.0213 19.3816 66.0213 16.8123V8.43647C66.0213 5.39995 68.4918 2.92944 71.5283 2.92944H74.1607C74.9697 2.92944 75.6256 2.27358 75.6256 1.4646C75.6256 0.655615 74.9697 -0.000244141 74.1607 -0.000244141H71.5283C66.8764 -0.000244141 63.0918 3.78433 63.0918 8.43628V16.8119C63.0918 20.7472 65.7643 24.1244 69.5906 25.0244C69.8615 25.088 70.0582 25.3498 70.0582 25.6468V31.7716C70.0582 33.8003 72.6625 34.6472 73.8557 33.0064L79.3037 25.5154C79.4254 25.3482 79.6213 25.2484 79.8281 25.2484H91.0764C95.7283 25.2484 99.5129 21.4636 99.5129 16.8117V8.43647C99.5129 3.78452 95.7283 -4.88281e-05 91.0764 -4.88281e-05Z" fill="black"/>
<path d="M52.0721 79.6633H43.6326C42.3187 79.6633 41.25 80.7321 41.25 82.0459V85.4868C41.25 86.8006 42.3189 87.8694 43.6326 87.8694H52.0721C53.3859 87.8694 54.4547 86.8006 54.4547 85.4868V82.0459C54.4547 80.7321 53.3857 79.6633 52.0721 79.6633ZM51.5252 84.9397H44.1795V82.5928H51.5252V84.9397Z" fill="black"/>
<path d="M61.4055 63.155C57.3504 61.2996 49.9766 60.1183 45.9297 59.5781C45.9266 59.5777 45.923 59.5769 45.9199 59.5765L45.9146 59.5761L45.9123 59.5757C45.4096 59.5087 45.0305 59.0511 45.0305 58.5113V52.9488C47.843 50.8626 51.0889 47.2759 51.1479 41.8214H55.3275C58.8475 41.8214 61.6961 38.9728 61.6959 35.4525L61.6955 31.0732C61.6951 16.3199 49.6916 4.31714 34.9379 4.31714C20.1486 4.31714 8.17891 16.2867 8.18027 31.0775L8.18086 35.4529C8.18125 38.4599 10.2773 40.9839 13.0844 41.6478V44.4515C13.0844 46.7648 14.9664 48.647 17.2799 48.647H20.7404C21.9146 50.4931 23.4355 51.915 24.8459 52.9591V58.5117C24.8459 59.0515 24.4668 59.5091 23.9643 59.5761C19.9211 60.1154 12.5318 61.2972 8.47109 63.1554C3.62207 65.3742 0.488672 70.3242 0.488672 75.7662V80.4683C0.488672 81.2773 1.14453 81.9331 1.95352 81.9331C2.7625 81.9331 3.41836 81.2773 3.41836 80.4683V75.7662C3.41836 71.4669 5.88008 67.5626 9.69004 65.8193C11.6303 64.9314 14.5416 64.197 17.3531 63.633L21.5268 71.2585C22.4963 73.03 24.3697 74.1134 26.3525 74.1134C27.0514 74.1134 26.9264 74.0685 33.4738 73.122V97.0706H13.5359V90.4537C13.5359 89.6447 12.8801 88.9888 12.0711 88.9888C11.2621 88.9888 10.6062 89.6447 10.6062 90.4537V97.0706H4.88125C4.07441 97.0706 3.41797 96.3779 3.41797 95.5263V87.3525C3.41797 86.5435 2.76211 85.8876 1.95312 85.8876C1.14414 85.8876 0.488281 86.5435 0.488281 87.3525V95.5263C0.488477 97.9929 2.45898 99.9999 4.88125 99.9999H64.9951C67.4174 99.9999 69.3879 97.9929 69.3879 95.5261V75.7658C69.3879 70.324 66.2545 65.3738 61.4055 63.155ZM46.2188 62.5744C47.1133 62.6992 48.24 62.8665 49.4824 63.0751L45.7734 69.8521C45.2609 70.7882 44.2078 71.3132 43.1514 71.157L38.0986 70.4119L46.2188 62.5744ZM51.1021 27.6269C50.7043 23.7078 48.6561 21.9792 45.79 19.4056C43.5883 17.4246 40.1936 17.5394 38.0611 19.6671C36.2105 21.5138 33.7518 22.531 31.1379 22.531H24.866C22.651 22.531 19.5686 24.3304 18.8463 27.6271H16.3436C17.9543 19.0562 25.4141 12.4876 34.4484 12.2585C44.0488 12.015 51.8799 18.8953 53.5303 27.6271L51.1021 27.6269ZM16.0248 30.5564H18.6926L18.707 38.8919H16.0148C16.0182 30.8107 16.0041 31.2091 16.0248 30.5564ZM53.8629 38.8919H51.1557L51.1701 30.5564H53.851C53.8719 31.2076 53.8578 30.8054 53.8629 38.8919ZM11.1104 35.4525L11.1098 31.0773C11.1084 17.9074 21.7662 7.24663 34.9379 7.24663C48.0764 7.24663 58.7656 17.9353 58.7664 31.0736L58.7668 35.4529C58.767 36.8328 57.9559 38.0183 56.7924 38.5665L56.7918 31.1751C56.7912 18.906 46.673 9.01558 34.3742 9.32983C22.7506 9.62437 13.0832 19.0929 13.0844 31.1785L13.0854 38.5642C11.9191 38.013 11.1105 36.8255 11.1104 35.4525ZM17.2797 45.7173C16.5816 45.7173 16.0137 45.1494 16.0137 44.4513V41.8214H18.7146C18.7303 43.2457 18.9645 44.5414 19.35 45.7173H17.2797ZM21.9799 44.2714C21.7619 43.4574 21.6414 42.5894 21.6414 41.6664L21.6195 29.0916C21.6195 26.7074 23.733 25.4601 24.866 25.4601H31.1379C34.5332 25.4601 37.7268 24.139 40.1305 21.7404C41.1607 20.7121 42.7863 20.6433 43.8305 21.5828C46.7377 24.1916 48.2504 25.374 48.2434 29.0888L48.2215 41.6687C48.2215 45.8689 45.7395 48.9302 42.8146 50.9373C42.7637 50.9677 42.7146 51.0011 42.668 51.0374C39.8752 52.9113 36.7131 53.8337 34.9314 53.8755C33.2791 53.8367 30.4395 53.04 27.808 51.4296H30.5547C32.8422 51.4296 34.7031 49.5687 34.7031 47.2812C34.7031 44.9937 32.8422 43.1328 30.5547 43.1328H24.8264C23.7242 43.133 22.7236 43.5679 21.9799 44.2714ZM24.8264 48.5003C24.1475 48.5003 23.6074 47.9414 23.6074 47.2814C23.6074 46.6091 24.1543 46.0624 24.8264 46.0624H30.5547C31.227 46.0624 31.7736 46.6093 31.7736 47.2814C31.7736 47.9535 31.2268 48.5003 30.5547 48.5003H24.8264ZM26.7182 71.1568C25.6617 71.3132 24.6084 70.788 24.0961 69.8519L20.3877 63.0761C21.6299 62.8677 22.7566 62.7001 23.6516 62.5751L31.7709 70.4117L26.7182 71.1568ZM26.6031 61.3525C27.3283 60.6218 27.7752 59.6123 27.7752 58.5115V54.7636C30.4441 56.1197 33.1068 56.772 34.9041 56.8054C34.9131 56.8056 34.9223 56.8056 34.9314 56.8056C34.9404 56.8056 34.9496 56.8056 34.9588 56.8054C36.759 56.772 39.4277 56.1177 42.1014 54.757V58.5115C42.1014 59.6105 42.5469 60.6187 43.2701 61.3492L34.935 69.3939L26.6031 61.3525ZM66.4584 95.5261C66.4584 96.3777 65.802 97.0704 64.9951 97.0704H59.2699V90.4535C59.2699 89.6445 58.6141 88.9886 57.8051 88.9886C56.9961 88.9886 56.3402 89.6445 56.3402 90.4535V97.0704H36.4027V73.1228C42.941 74.0679 42.8184 74.1132 43.5172 74.1132C45.4998 74.1132 47.3734 73.0296 48.343 71.2583L52.5172 63.6314C55.3307 64.1955 58.2447 64.9304 60.1863 65.8189C63.9963 67.5623 66.458 71.4665 66.458 75.7658L66.4584 95.5261Z" fill="black"/>
</g>
<defs>
<clipPath id="clip0_1476_15823">
<rect width="100" height="100" fill="white"/>
</clipPath>
</defs>
</svg>
