<svg width="135" height="40" viewBox="0 0 135 40" fill="none" xmlns="http://www.w3.org/2000/svg">
<g clip-path="url(#clip0_356_127575)">
<path d="M8.66869 39.9979C8.31988 39.9979 7.97949 39.9938 7.63341 39.9867C6.91647 39.9782 6.20121 39.9212 5.4935 39.8162C4.83359 39.7124 4.19431 39.5193 3.59676 39.2432C3.00468 38.9695 2.46466 38.6106 1.99738 38.1802C1.52334 37.7549 1.12868 37.2616 0.829041 36.7199C0.526098 36.1746 0.316443 35.5902 0.20738 34.9869C0.089602 34.3387 0.0258789 33.6833 0.0167608 33.0262C0.0095024 32.8057 0 32.0714 0 32.0714V7.91524C0 7.91524 0.0101206 7.19223 0.0168181 6.97982C0.0255486 6.32383 0.0889011 5.66941 0.206327 5.0222C0.315591 4.41729 0.525408 3.83117 0.828514 3.28415C1.12705 2.7428 1.51952 2.24915 1.99071 1.82232C2.46137 1.39143 3.00311 1.03064 3.5962 0.753121C4.19238 0.477981 4.83045 0.286241 5.48902 0.184325C6.19906 0.0782559 6.9168 0.0209099 7.63622 0.012768L8.66926 0H126.325L127.371 0.0132804C128.083 0.0210177 128.795 0.0778521 129.498 0.1833C130.163 0.286495 130.808 0.479573 131.411 0.756185C132.599 1.31547 133.566 2.20032 134.176 3.2867C134.474 3.82995 134.681 4.41128 134.789 5.01097C134.907 5.66349 134.974 6.32306 134.988 6.98442C134.991 7.28056 134.991 7.59866 134.991 7.91524C135 8.30737 135 8.68061 135 9.05692V30.942C135 31.3219 135 31.6926 134.991 32.0663C134.991 32.4064 134.991 32.7179 134.986 33.0385C134.973 33.688 134.908 34.3358 134.791 34.9767C134.684 35.5843 134.475 36.1733 134.173 36.723C133.871 37.2588 133.478 37.7478 133.01 38.172C132.542 38.6047 132.001 38.9657 131.408 39.2412C130.806 39.5194 130.163 39.7132 129.498 39.8162C128.79 39.9217 128.075 39.9788 127.358 39.9867C127.023 39.9938 126.672 39.9979 126.331 39.9979L125.09 40L8.66869 39.9979Z" fill="#E6E8EC"/>
<path d="M24.768 20.5806C24.7788 19.7459 25.0005 18.9276 25.4125 18.2016C25.8245 17.4757 26.4135 16.8657 27.1246 16.4285C26.6728 15.7834 26.0769 15.2524 25.3841 14.8779C24.6912 14.5033 23.9206 14.2955 23.1334 14.2709C21.4542 14.0946 19.8262 15.2757 18.9705 15.2757C18.0982 15.2757 16.7807 14.2884 15.362 14.3176C14.4443 14.3472 13.55 14.6141 12.7661 15.0921C11.9822 15.5702 11.3356 16.2431 10.8891 17.0454C8.9551 20.3938 10.3977 25.3149 12.2503 28.0215C13.1772 29.3469 14.2605 30.8273 15.6779 30.7748C17.065 30.7173 17.583 29.8903 19.2573 29.8903C20.9161 29.8903 21.4021 30.7748 22.8483 30.7414C24.3367 30.7173 25.2745 29.4102 26.1688 28.0723C26.8348 27.1279 27.3473 26.0842 27.6873 24.9798C26.8225 24.614 26.0846 24.0019 25.5655 23.2196C25.0464 22.4373 24.769 21.5195 24.768 20.5806V20.5806Z" fill="#23262F"/>
<path d="M22.0356 12.4906C22.8471 11.5164 23.247 10.2642 23.1501 9C21.9103 9.13022 20.765 9.72278 19.9426 10.6596C19.5404 11.1173 19.2324 11.6497 19.0362 12.2265C18.8399 12.8033 18.7593 13.413 18.7988 14.021C19.419 14.0274 20.0325 13.893 20.5932 13.6279C21.1538 13.3628 21.647 12.9739 22.0356 12.4906Z" fill="#23262F"/>
<path d="M42.3027 26.1397H37.5693L36.4326 29.4961H34.4277L38.9111 17.0781H40.9941L45.4775 29.4961H43.4385L42.3027 26.1397ZM38.0596 24.5908H41.8116L39.962 19.1436H39.9102L38.0596 24.5908Z" fill="#23262F"/>
<path d="M55.1592 24.9695C55.1592 27.7829 53.6533 29.5905 51.3809 29.5905C50.8052 29.6207 50.2327 29.4881 49.7289 29.2079C49.2251 28.9278 48.8104 28.5114 48.5323 28.0065H48.4893V32.4909H46.6309V20.4421H48.4297V21.948H48.4639C48.7549 21.4455 49.1766 21.0313 49.6842 20.7495C50.1918 20.4676 50.7664 20.3287 51.3467 20.3474C53.6445 20.3474 55.1592 22.1638 55.1592 24.9695ZM53.2491 24.9695C53.2491 23.1365 52.3018 21.9314 50.8565 21.9314C49.4365 21.9314 48.4815 23.1618 48.4815 24.9695C48.4815 26.7937 49.4365 28.0154 50.8565 28.0154C52.3018 28.0154 53.2491 26.8191 53.2491 24.9695Z" fill="#23262F"/>
<path d="M65.1241 24.9694C65.1241 27.7829 63.6182 29.5905 61.3457 29.5905C60.7701 29.6206 60.1976 29.488 59.6938 29.2079C59.19 28.9278 58.7753 28.5114 58.4971 28.0065H58.4541V32.4909H56.5957V20.4421H58.3945V21.948H58.4287C58.7197 21.4455 59.1414 21.0313 59.649 20.7495C60.1567 20.4676 60.7312 20.3287 61.3115 20.3474C63.6094 20.3474 65.1241 22.1638 65.1241 24.9694ZM63.2139 24.9694C63.2139 23.1364 62.2666 21.9314 60.8213 21.9314C59.4014 21.9314 58.4463 23.1618 58.4463 24.9694C58.4463 26.7937 59.4014 28.0153 60.8213 28.0153C62.2666 28.0153 63.2139 26.8191 63.2139 24.9694H63.2139Z" fill="#23262F"/>
<path d="M71.711 26.0362C71.8487 27.2676 73.045 28.0762 74.6797 28.0762C76.2461 28.0762 77.3731 27.2676 77.3731 26.1572C77.3731 25.1934 76.6934 24.6162 75.084 24.2207L73.4746 23.833C71.1944 23.2822 70.1358 22.2158 70.1358 20.4854C70.1358 18.3428 72.003 16.8711 74.6543 16.8711C77.2783 16.8711 79.0772 18.3428 79.1377 20.4854H77.2617C77.1494 19.2461 76.125 18.4981 74.6279 18.4981C73.1309 18.4981 72.1065 19.2549 72.1065 20.3565C72.1065 21.2344 72.7608 21.751 74.3613 22.1465L75.7295 22.4824C78.2773 23.0849 79.3359 24.1084 79.3359 25.9248C79.3359 28.248 77.4854 29.7031 74.542 29.7031C71.7881 29.7031 69.9287 28.2822 69.8086 26.0361L71.711 26.0362Z" fill="#23262F"/>
<path d="M83.3476 18.2998V20.4424H85.0693V21.9141H83.3476V26.9053C83.3476 27.6807 83.6924 28.042 84.4492 28.042C84.6536 28.0384 84.8577 28.0241 85.0605 27.999V29.4619C84.7203 29.5255 84.3744 29.5543 84.0283 29.5478C82.1953 29.5478 81.4805 28.8593 81.4805 27.1035V21.9141H80.1641V20.4424H81.4804V18.2998H83.3476Z" fill="#23262F"/>
<path d="M86.0664 24.9697C86.0664 22.1211 87.7441 20.3311 90.3604 20.3311C92.9854 20.3311 94.6553 22.1211 94.6553 24.9697C94.6553 27.8262 92.9941 29.6084 90.3604 29.6084C87.7275 29.6084 86.0664 27.8262 86.0664 24.9697ZM92.7617 24.9697C92.7617 23.0156 91.8662 21.8623 90.3603 21.8623C88.8545 21.8623 87.96 23.0244 87.96 24.9697C87.96 26.9316 88.8545 28.0762 90.3603 28.0762C91.8662 28.0762 92.7617 26.9316 92.7617 24.9697H92.7617Z" fill="#23262F"/>
<path d="M96.1856 20.442H97.958V21.983H98.001C98.1209 21.5017 98.4029 21.0764 98.7995 20.7785C99.1961 20.4806 99.6831 20.3284 100.179 20.3473C100.393 20.3465 100.606 20.3698 100.815 20.4166V22.1549C100.545 22.0723 100.263 22.0343 99.9805 22.0426C99.7105 22.0316 99.4413 22.0792 99.1915 22.1821C98.9417 22.285 98.717 22.4408 98.5331 22.6386C98.3491 22.8365 98.2101 23.0719 98.1257 23.3286C98.0413 23.5852 98.0134 23.8571 98.0439 24.1256V29.4957H96.1855L96.1856 20.442Z" fill="#23262F"/>
<path d="M109.386 26.8369C109.136 28.4805 107.535 29.6084 105.487 29.6084C102.854 29.6084 101.219 27.8437 101.219 25.0127C101.219 22.1729 102.862 20.3311 105.409 20.3311C107.914 20.3311 109.489 22.0518 109.489 24.7969V25.4336H103.095V25.5459C103.065 25.8791 103.107 26.2148 103.217 26.5306C103.327 26.8464 103.503 27.1352 103.734 27.3778C103.964 27.6203 104.243 27.8111 104.553 27.9374C104.863 28.0637 105.196 28.1226 105.53 28.1103C105.969 28.1515 106.41 28.0498 106.787 27.8203C107.164 27.5909 107.456 27.246 107.621 26.8369L109.386 26.8369ZM103.104 24.1348H107.63C107.647 23.8352 107.601 23.5354 107.496 23.2541C107.392 22.9729 107.23 22.7164 107.022 22.5006C106.813 22.2849 106.562 22.1145 106.285 22.0003C106.007 21.8861 105.709 21.8305 105.409 21.8369C105.107 21.8351 104.807 21.8933 104.527 22.008C104.246 22.1227 103.992 22.2918 103.778 22.5054C103.563 22.7191 103.393 22.973 103.278 23.2527C103.162 23.5323 103.103 23.8321 103.104 24.1348V24.1348Z" fill="#23262F"/>
<path d="M37.8271 7.73138C38.2168 7.70342 38.6077 7.76228 38.9718 7.90371C39.3359 8.04515 39.6641 8.26563 39.9327 8.54925C40.2013 8.83288 40.4036 9.17258 40.525 9.54385C40.6464 9.91512 40.6839 10.3087 40.6348 10.6962C40.6348 12.6025 39.6045 13.6982 37.8271 13.6982H35.6719V7.73138H37.8271ZM36.5986 12.8544H37.7236C38.002 12.871 38.2806 12.8254 38.5392 12.7208C38.7977 12.6161 39.0297 12.4552 39.2182 12.2496C39.4067 12.0441 39.5469 11.7991 39.6288 11.5324C39.7107 11.2658 39.7321 10.9843 39.6914 10.7084C39.7291 10.4335 39.7056 10.1538 39.6224 9.88911C39.5393 9.62445 39.3987 9.38144 39.2106 9.17751C39.0226 8.97358 38.7917 8.81378 38.5346 8.70954C38.2776 8.6053 38.0006 8.55922 37.7236 8.57459H36.5986V12.8544Z" fill="#777E90"/>
<path d="M41.6819 11.4448C41.6536 11.1489 41.6875 10.8503 41.7813 10.5682C41.8751 10.2862 42.0269 10.0268 42.2268 9.80683C42.4268 9.58685 42.6705 9.41108 42.9423 9.2908C43.2142 9.17053 43.5082 9.1084 43.8055 9.1084C44.1027 9.1084 44.3967 9.17053 44.6686 9.2908C44.9404 9.41108 45.1841 9.58685 45.3841 9.80683C45.584 10.0268 45.7358 10.2862 45.8296 10.5682C45.9235 10.8503 45.9573 11.1489 45.929 11.4448C45.9578 11.741 45.9244 12.04 45.8308 12.3225C45.7372 12.605 45.5855 12.8648 45.3855 13.0853C45.1856 13.3057 44.9417 13.4818 44.6695 13.6023C44.3974 13.7229 44.1031 13.7851 43.8055 13.7851C43.5078 13.7851 43.2135 13.7229 42.9414 13.6023C42.6693 13.4818 42.4254 13.3057 42.2254 13.0853C42.0254 12.8648 41.8737 12.605 41.7801 12.3225C41.6865 12.04 41.6531 11.741 41.6819 11.4448V11.4448ZM45.0149 11.4448C45.0149 10.4687 44.5764 9.89791 43.8069 9.89791C43.0345 9.89791 42.5999 10.4687 42.5999 11.4448C42.5999 12.4287 43.0345 12.9951 43.8069 12.9951C44.5765 12.9951 45.0149 12.4248 45.0149 11.4448H45.0149Z" fill="#777E90"/>
<path d="M51.5742 13.6982H50.6523L49.7217 10.3818H49.6514L48.7246 13.6982H47.8115L46.5703 9.19531H47.4717L48.2783 12.6313H48.3447L49.2705 9.19531H50.1231L51.0488 12.6313H51.1191L51.9219 9.19531H52.8105L51.5742 13.6982Z" fill="#777E90"/>
<path d="M53.8535 9.19487H54.709V9.9102H54.7754C54.888 9.65328 55.0781 9.43791 55.3189 9.2941C55.5598 9.15029 55.8395 9.08522 56.1191 9.10795C56.3382 9.09148 56.5582 9.12451 56.7628 9.20461C56.9674 9.2847 57.1514 9.40981 57.3011 9.57065C57.4508 9.73149 57.5623 9.92396 57.6275 10.1338C57.6927 10.3436 57.7099 10.5654 57.6777 10.7827V13.6977H56.7891V11.0059C56.7891 10.2823 56.4746 9.92241 55.8174 9.92241C55.6686 9.91548 55.5201 9.9408 55.3821 9.99663C55.244 10.0525 55.1197 10.1375 55.0175 10.2459C54.9154 10.3543 54.8379 10.4834 54.7904 10.6246C54.7429 10.7657 54.7264 10.9154 54.7422 11.0635V13.6978H53.8535L53.8535 9.19487Z" fill="#777E90"/>
<path d="M59.0938 7.4375H59.9824V13.6982H59.0938V7.4375Z" fill="#777E90"/>
<path d="M61.219 11.4449C61.1907 11.1489 61.2246 10.8503 61.3185 10.5683C61.4123 10.2862 61.5641 10.0268 61.7641 9.80684C61.964 9.58685 62.2078 9.41108 62.4796 9.29081C62.7515 9.17053 63.0455 9.1084 63.3428 9.1084C63.6401 9.1084 63.9341 9.17053 64.206 9.29081C64.4778 9.41108 64.7215 9.58685 64.9215 9.80684C65.1215 10.0268 65.2733 10.2862 65.3671 10.5683C65.461 10.8503 65.4949 11.1489 65.4666 11.4449C65.4954 11.7411 65.4619 12.0401 65.3683 12.3226C65.2747 12.6051 65.123 12.8649 64.9229 13.0853C64.7229 13.3058 64.479 13.4819 64.2069 13.6024C63.9348 13.7229 63.6404 13.7852 63.3428 13.7852C63.0452 13.7852 62.7508 13.7229 62.4787 13.6024C62.2065 13.4819 61.9626 13.3058 61.7626 13.0853C61.5626 12.8649 61.4109 12.6051 61.3173 12.3226C61.2237 12.0401 61.1902 11.7411 61.219 11.4449V11.4449ZM64.552 11.4449C64.552 10.4688 64.1135 9.89799 63.344 9.89799C62.5715 9.89799 62.137 10.4688 62.137 11.4449C62.137 12.4288 62.5716 12.9952 63.344 12.9952C64.1135 12.9952 64.552 12.4248 64.552 11.4449H64.552Z" fill="#777E90"/>
<path d="M66.4023 12.4248C66.4023 11.6142 67.0059 11.147 68.0771 11.0806L69.2969 11.0102V10.6216C69.2969 10.146 68.9824 9.87744 68.375 9.87744C67.8789 9.87744 67.5352 10.0596 67.4365 10.3779H66.5762C66.667 9.60449 67.3945 9.1084 68.416 9.1084C69.5449 9.1084 70.1816 9.6704 70.1816 10.6216V13.6982H69.3262V13.0654H69.2559C69.1131 13.2924 68.9127 13.4775 68.6751 13.6017C68.4375 13.7259 68.1712 13.7848 67.9033 13.7724C67.7143 13.7921 67.5232 13.7719 67.3425 13.7132C67.1617 13.6545 66.9953 13.5586 66.8538 13.4316C66.7124 13.3047 66.5992 13.1495 66.5214 12.9761C66.4437 12.8026 66.4031 12.6149 66.4023 12.4248V12.4248ZM69.2969 12.04V11.6636L68.1973 11.7339C67.5771 11.7754 67.2959 11.9863 67.2959 12.3833C67.2959 12.7886 67.6474 13.0244 68.1309 13.0244C68.2725 13.0387 68.4156 13.0244 68.5516 12.9823C68.6876 12.9403 68.8138 12.8712 68.9226 12.7794C69.0313 12.6876 69.1205 12.5748 69.1849 12.4477C69.2492 12.3207 69.2873 12.1821 69.2969 12.04V12.04Z" fill="#777E90"/>
<path d="M71.3496 11.4448C71.3496 10.022 72.0811 9.12062 73.2188 9.12062C73.5002 9.10765 73.7795 9.17506 74.024 9.31495C74.2685 9.45485 74.4682 9.66145 74.5996 9.91062H74.666V7.4375H75.5547V13.6982H74.7031V12.9868H74.6328C74.4912 13.2343 74.2846 13.4383 74.0353 13.5768C73.7861 13.7153 73.5037 13.783 73.2188 13.7724C72.0732 13.7725 71.3496 12.8711 71.3496 11.4448ZM72.2676 11.4448C72.2676 12.3999 72.7178 12.9746 73.4707 12.9746C74.2197 12.9746 74.6826 12.3916 74.6826 11.4487C74.6826 10.5103 74.2149 9.91896 73.4707 9.91896C72.7227 9.91896 72.2676 10.4976 72.2676 11.4448H72.2676Z" fill="#777E90"/>
<path d="M79.2307 11.4448C79.2024 11.1489 79.2363 10.8503 79.3301 10.5682C79.424 10.2862 79.5757 10.0268 79.7757 9.80683C79.9756 9.58685 80.2193 9.41108 80.4912 9.2908C80.763 9.17053 81.057 9.1084 81.3543 9.1084C81.6516 9.1084 81.9455 9.17053 82.2174 9.2908C82.4892 9.41108 82.7329 9.58685 82.9329 9.80683C83.1328 10.0268 83.2846 10.2862 83.3784 10.5682C83.4723 10.8503 83.5061 11.1489 83.4778 11.4448C83.5067 11.741 83.4732 12.04 83.3796 12.3225C83.286 12.605 83.1344 12.8648 82.9344 13.0853C82.7344 13.3057 82.4905 13.4818 82.2184 13.6023C81.9462 13.7229 81.6519 13.7851 81.3543 13.7851C81.0567 13.7851 80.7623 13.7229 80.4902 13.6023C80.2181 13.4818 79.9742 13.3057 79.7742 13.0853C79.5742 12.8648 79.4225 12.605 79.3289 12.3225C79.2353 12.04 79.2019 11.741 79.2307 11.4448V11.4448ZM82.5637 11.4448C82.5637 10.4687 82.1253 9.89791 81.3557 9.89791C80.5833 9.89791 80.1487 10.4687 80.1487 11.4448C80.1487 12.4287 80.5833 12.9951 81.3557 12.9951C82.1253 12.9951 82.5637 12.4248 82.5637 11.4448Z" fill="#777E90"/>
<path d="M84.6699 9.19487H85.5254V9.9102H85.5918C85.7045 9.65328 85.8945 9.43791 86.1353 9.2941C86.3762 9.15029 86.6559 9.08522 86.9356 9.10795C87.1547 9.09148 87.3746 9.12451 87.5792 9.20461C87.7838 9.2847 87.9678 9.40981 88.1175 9.57065C88.2672 9.73149 88.3787 9.92396 88.4439 10.1338C88.5091 10.3436 88.5263 10.5654 88.4941 10.7827V13.6977H87.6055V11.0059C87.6055 10.2823 87.291 9.92241 86.6338 9.92241C86.485 9.91548 86.3365 9.9408 86.1985 9.99663C86.0604 10.0525 85.9361 10.1375 85.8339 10.2459C85.7318 10.3543 85.6543 10.4834 85.6068 10.6246C85.5593 10.7657 85.5428 10.9154 85.5586 11.0635V13.6978H84.6699V9.19487Z" fill="#777E90"/>
<path d="M93.5166 8.07422V9.21582H94.4922V9.96436H93.5166V12.2798C93.5166 12.7515 93.7109 12.958 94.1533 12.958C94.2666 12.9576 94.3797 12.9508 94.4922 12.9375V13.6777C94.3326 13.7063 94.1709 13.7215 94.0088 13.7231C93.0205 13.7231 92.627 13.3755 92.627 12.5073V9.96432H91.9121V9.21578H92.627V8.07422H93.5166Z" fill="#777E90"/>
<path d="M95.7051 7.4375H96.5859V9.91895H96.6562C96.7744 9.65963 96.9696 9.44304 97.2153 9.29869C97.461 9.15434 97.7452 9.08926 98.0292 9.11231C98.2472 9.10045 98.4651 9.13684 98.6674 9.21888C98.8697 9.30092 99.0513 9.4266 99.1995 9.58693C99.3476 9.74727 99.4585 9.93832 99.5243 10.1465C99.5901 10.3546 99.6091 10.5747 99.58 10.791V13.6982H98.6905V11.0103C98.6905 10.291 98.3555 9.92675 97.7276 9.92675C97.5748 9.91422 97.4212 9.93522 97.2774 9.98827C97.1337 10.0413 97.0032 10.1252 96.8952 10.2339C96.7872 10.3426 96.7043 10.4737 96.6522 10.6178C96.6002 10.7619 96.5802 10.9157 96.5938 11.0683V13.6982H95.7051L95.7051 7.4375Z" fill="#777E90"/>
<path d="M104.761 12.4825C104.641 12.894 104.379 13.25 104.022 13.4882C103.666 13.7263 103.237 13.8315 102.81 13.7852C102.514 13.7931 102.219 13.7362 101.946 13.6187C101.674 13.5012 101.43 13.3258 101.232 13.1046C101.034 12.8835 100.887 12.6219 100.8 12.3381C100.713 12.0543 100.69 11.755 100.73 11.461C100.691 11.1661 100.715 10.8662 100.801 10.5815C100.888 10.2969 101.035 10.0341 101.231 9.81101C101.428 9.58794 101.671 9.40977 101.943 9.28856C102.214 9.16735 102.509 9.10594 102.806 9.10847C104.059 9.10847 104.815 9.96447 104.815 11.3785V11.6886H101.635V11.7384C101.621 11.9036 101.642 12.0699 101.696 12.2267C101.751 12.3834 101.837 12.5271 101.95 12.6486C102.063 12.7701 102.2 12.8666 102.352 12.932C102.504 12.9974 102.669 13.0302 102.835 13.0284C103.047 13.0539 103.263 13.0156 103.453 12.9184C103.644 12.8212 103.802 12.6694 103.906 12.4825L104.761 12.4825ZM101.635 11.0313H103.91C103.921 10.8802 103.9 10.7284 103.85 10.5857C103.799 10.443 103.718 10.3125 103.614 10.2026C103.51 10.0928 103.383 10.006 103.243 9.94778C103.103 9.88961 102.953 9.86135 102.801 9.86482C102.648 9.86289 102.495 9.89175 102.353 9.94969C102.21 10.0076 102.081 10.0935 101.972 10.2022C101.864 10.3109 101.778 10.4403 101.72 10.5827C101.662 10.7251 101.633 10.8776 101.635 11.0313H101.635Z" fill="#777E90"/>
</g>
<defs>
<clipPath id="clip0_356_127575">
<rect width="135" height="40" fill="white"/>
</clipPath>
</defs>
</svg>
