<svg width="135" height="40" viewBox="0 0 135 40" fill="none" xmlns="http://www.w3.org/2000/svg">
<path d="M24.77 20.5806C24.7807 19.7459 25.0024 18.9276 25.4145 18.2016C25.8265 17.4757 26.4154 16.8657 27.1265 16.4285C26.6748 15.7834 26.0788 15.2524 25.386 14.8779C24.6932 14.5033 23.9226 14.2955 23.1354 14.2709C21.4561 14.0946 19.8282 15.2757 18.9725 15.2757C18.1002 15.2757 16.7827 14.2884 15.364 14.3176C14.4463 14.3472 13.5519 14.6141 12.7681 15.0921C11.9842 15.5702 11.3375 16.2431 10.891 17.0454C8.95705 20.3938 10.3996 25.3149 12.2522 28.0215C13.1791 29.3469 14.2624 30.8273 15.6799 30.7748C17.0669 30.7173 17.585 29.8903 19.2593 29.8903C20.918 29.8903 21.4041 30.7748 22.8503 30.7414C24.3387 30.7173 25.2764 29.4102 26.1708 28.0723C26.8368 27.1279 27.3492 26.0842 27.6892 24.9798C26.8245 24.614 26.0866 24.0019 25.5675 23.2196C25.0483 22.4373 24.771 21.5195 24.77 20.5806Z" fill="white"/>
<path d="M22.0395 12.4906C22.8511 11.5164 23.2509 10.2642 23.154 9C21.9142 9.13022 20.769 9.72278 19.9465 10.6596C19.5443 11.1173 19.2363 11.6497 19.0401 12.2265C18.8438 12.8033 18.7632 13.413 18.8028 14.021C19.4229 14.0274 20.0364 13.893 20.5971 13.6279C21.1577 13.3628 21.6509 12.9739 22.0395 12.4906Z" fill="white"/>
<path d="M42.3008 26.1397H37.5674L36.4307 29.4961H34.4258L38.9092 17.0781H40.9922L45.4756 29.4961H43.4365L42.3008 26.1397ZM38.0576 24.5908H41.8096L39.96 19.1436H39.9082L38.0576 24.5908Z" fill="white"/>
<path d="M55.1573 24.9695C55.1573 27.7829 53.6514 29.5905 51.3789 29.5905C50.8033 29.6207 50.2308 29.4881 49.727 29.2079C49.2232 28.9278 48.8085 28.5114 48.5303 28.0065H48.4873V32.4909H46.6289V20.4421H48.4278V21.948H48.4619C48.7529 21.4455 49.1746 21.0313 49.6823 20.7495C50.1899 20.4676 50.7644 20.3287 51.3448 20.3474C53.6426 20.3474 55.1573 22.1638 55.1573 24.9695ZM53.2471 24.9695C53.2471 23.1365 52.2998 21.9314 50.8545 21.9314C49.4346 21.9314 48.4795 23.1618 48.4795 24.9695C48.4795 26.7937 49.4346 28.0154 50.8545 28.0154C52.2998 28.0154 53.2471 26.8191 53.2471 24.9695Z" fill="white"/>
<path d="M65.1221 24.9694C65.1221 27.7829 63.6162 29.5905 61.3438 29.5905C60.7681 29.6206 60.1956 29.488 59.6918 29.2079C59.188 28.9278 58.7733 28.5114 58.4952 28.0065H58.4521V32.4909H56.5938V20.4421H58.3926V21.948H58.4268C58.7177 21.4455 59.1394 21.0313 59.6471 20.7495C60.1547 20.4676 60.7292 20.3287 61.3096 20.3474C63.6075 20.3474 65.1221 22.1638 65.1221 24.9694ZM63.2119 24.9694C63.2119 23.1364 62.2647 21.9314 60.8194 21.9314C59.3994 21.9314 58.4444 23.1618 58.4444 24.9694C58.4444 26.7937 59.3994 28.0153 60.8194 28.0153C62.2647 28.0153 63.2119 26.8191 63.2119 24.9694H63.2119Z" fill="white"/>
<path d="M71.7071 26.0362C71.8448 27.2676 73.0411 28.0762 74.6758 28.0762C76.2422 28.0762 77.3692 27.2676 77.3692 26.1572C77.3692 25.1934 76.6895 24.6162 75.0801 24.2207L73.4707 23.833C71.1905 23.2822 70.1319 22.2158 70.1319 20.4854C70.1319 18.3428 71.9991 16.8711 74.6504 16.8711C77.2744 16.8711 79.0733 18.3428 79.1338 20.4854H77.2578C77.1455 19.2461 76.1211 18.4981 74.624 18.4981C73.127 18.4981 72.1025 19.2549 72.1025 20.3565C72.1025 21.2344 72.7568 21.751 74.3574 22.1465L75.7256 22.4824C78.2734 23.0849 79.332 24.1084 79.332 25.9248C79.332 28.248 77.4814 29.7031 74.5381 29.7031C71.7842 29.7031 69.9248 28.2822 69.8047 26.0361L71.7071 26.0362Z" fill="white"/>
<path d="M83.3437 18.2998V20.4424H85.0654V21.9141H83.3437V26.9053C83.3437 27.6807 83.6885 28.042 84.4453 28.042C84.6497 28.0384 84.8538 28.0241 85.0566 27.999V29.4619C84.7164 29.5255 84.3705 29.5543 84.0244 29.5478C82.1914 29.5478 81.4766 28.8593 81.4766 27.1035V21.9141H80.1602V20.4424H81.4765V18.2998H83.3437Z" fill="white"/>
<path d="M86.0625 24.9697C86.0625 22.1211 87.7402 20.3311 90.3564 20.3311C92.9814 20.3311 94.6514 22.1211 94.6514 24.9697C94.6514 27.8262 92.9902 29.6084 90.3564 29.6084C87.7236 29.6084 86.0625 27.8262 86.0625 24.9697ZM92.7578 24.9697C92.7578 23.0156 91.8623 21.8623 90.3564 21.8623C88.8506 21.8623 87.956 23.0244 87.956 24.9697C87.956 26.9316 88.8506 28.0762 90.3564 28.0762C91.8623 28.0762 92.7578 26.9316 92.7578 24.9697H92.7578Z" fill="white"/>
<path d="M96.1836 20.442H97.9561V21.983H97.9991C98.119 21.5017 98.4009 21.0764 98.7975 20.7785C99.1941 20.4806 99.6812 20.3284 100.177 20.3473C100.391 20.3465 100.605 20.3698 100.814 20.4166V22.1549C100.543 22.0723 100.261 22.0343 99.9785 22.0426C99.7085 22.0316 99.4394 22.0792 99.1895 22.1821C98.9397 22.285 98.7151 22.4408 98.5311 22.6386C98.3471 22.8365 98.2082 23.0719 98.1237 23.3286C98.0393 23.5852 98.0114 23.8571 98.042 24.1256V29.4957H96.1836L96.1836 20.442Z" fill="white"/>
<path d="M109.382 26.8369C109.132 28.4805 107.531 29.6084 105.483 29.6084C102.85 29.6084 101.215 27.8437 101.215 25.0127C101.215 22.1729 102.858 20.3311 105.405 20.3311C107.91 20.3311 109.485 22.0518 109.485 24.7969V25.4336H103.091V25.5459C103.061 25.8791 103.103 26.2148 103.213 26.5306C103.323 26.8464 103.5 27.1352 103.73 27.3778C103.96 27.6203 104.24 27.8111 104.549 27.9374C104.859 28.0637 105.192 28.1226 105.526 28.1103C105.966 28.1515 106.406 28.0498 106.783 27.8203C107.16 27.5909 107.452 27.246 107.617 26.8369L109.382 26.8369ZM103.1 24.1348H107.626C107.643 23.8352 107.597 23.5354 107.493 23.2541C107.388 22.9729 107.226 22.7164 107.018 22.5006C106.809 22.2849 106.558 22.1145 106.281 22.0003C106.003 21.8861 105.705 21.8305 105.405 21.8369C105.103 21.8351 104.803 21.8933 104.523 22.008C104.243 22.1227 103.988 22.2918 103.774 22.5054C103.559 22.7191 103.389 22.973 103.274 23.2527C103.158 23.5323 103.099 23.8321 103.1 24.1348V24.1348Z" fill="white"/>
<path d="M37.8232 7.73138C38.2129 7.70342 38.6038 7.76228 38.9679 7.90371C39.332 8.04515 39.6602 8.26563 39.9288 8.54925C40.1974 8.83288 40.3997 9.17258 40.5211 9.54385C40.6425 9.91512 40.68 10.3087 40.6309 10.6962C40.6309 12.6025 39.6006 13.6982 37.8232 13.6982H35.668V7.73138H37.8232ZM36.5947 12.8544H37.7197C37.9981 12.871 38.2767 12.8254 38.5353 12.7208C38.7938 12.6161 39.0258 12.4552 39.2143 12.2496C39.4028 12.0441 39.543 11.7991 39.6249 11.5324C39.7068 11.2658 39.7281 10.9843 39.6875 10.7084C39.7252 10.4335 39.7016 10.1538 39.6185 9.88911C39.5354 9.62445 39.3948 9.38144 39.2067 9.17751C39.0187 8.97358 38.7878 8.81378 38.5307 8.70954C38.2737 8.6053 37.9967 8.55922 37.7197 8.57459H36.5947V12.8544Z" fill="#E6E8EC"/>
<path d="M41.678 11.4448C41.6497 11.1489 41.6836 10.8503 41.7774 10.5682C41.8712 10.2862 42.023 10.0268 42.2229 9.80683C42.4229 9.58685 42.6666 9.41108 42.9384 9.2908C43.2103 9.17053 43.5043 9.1084 43.8015 9.1084C44.0988 9.1084 44.3928 9.17053 44.6647 9.2908C44.9365 9.41108 45.1802 9.58685 45.3802 9.80683C45.5801 10.0268 45.7319 10.2862 45.8257 10.5682C45.9195 10.8503 45.9534 11.1489 45.9251 11.4448C45.9539 11.741 45.9205 12.04 45.8269 12.3225C45.7333 12.605 45.5816 12.8648 45.3816 13.0853C45.1816 13.3057 44.9378 13.4818 44.6656 13.6023C44.3935 13.7229 44.0992 13.7851 43.8015 13.7851C43.5039 13.7851 43.2096 13.7229 42.9375 13.6023C42.6653 13.4818 42.4215 13.3057 42.2215 13.0853C42.0215 12.8648 41.8698 12.605 41.7762 12.3225C41.6826 12.04 41.6492 11.741 41.678 11.4448ZM45.011 11.4448C45.011 10.4687 44.5725 9.89791 43.803 9.89791C43.0306 9.89791 42.596 10.4687 42.596 11.4448C42.596 12.4287 43.0306 12.9951 43.803 12.9951C44.5726 12.9951 45.011 12.4248 45.011 11.4448H45.011Z" fill="#E6E8EC"/>
<path d="M51.5703 13.6982H50.6484L49.7178 10.3818H49.6475L48.7207 13.6982H47.8076L46.5664 9.19531H47.4678L48.2744 12.6313H48.3408L49.2666 9.19531H50.1191L51.0449 12.6313H51.1152L51.918 9.19531H52.8066L51.5703 13.6982Z" fill="#E6E8EC"/>
<path d="M53.8516 9.19487H54.707V9.9102H54.7734C54.8861 9.65328 55.0761 9.43791 55.317 9.2941C55.5578 9.15029 55.8376 9.08522 56.1172 9.10795C56.3363 9.09148 56.5563 9.12451 56.7609 9.20461C56.9655 9.2847 57.1494 9.40981 57.2991 9.57065C57.4488 9.73149 57.5604 9.92396 57.6256 10.1338C57.6908 10.3436 57.7079 10.5654 57.6758 10.7827V13.6977H56.7871V11.0059C56.7871 10.2823 56.4727 9.92241 55.8154 9.92241C55.6667 9.91548 55.5182 9.9408 55.3801 9.99663C55.2421 10.0525 55.1177 10.1375 55.0156 10.2459C54.9135 10.3543 54.836 10.4834 54.7885 10.6246C54.7409 10.7657 54.7245 10.9154 54.7402 11.0635V13.6978H53.8516L53.8516 9.19487Z" fill="#E6E8EC"/>
<path d="M59.0898 7.4375H59.9785V13.6982H59.0898V7.4375Z" fill="#E6E8EC"/>
<path d="M61.2131 11.4449C61.1849 11.1489 61.2187 10.8503 61.3126 10.5683C61.4065 10.2862 61.5582 10.0268 61.7582 9.80684C61.9582 9.58685 62.2019 9.41108 62.4738 9.29081C62.7456 9.17053 63.0396 9.1084 63.3369 9.1084C63.6342 9.1084 63.9282 9.17053 64.2001 9.29081C64.472 9.41108 64.7157 9.58685 64.9157 9.80684C65.1156 10.0268 65.2674 10.2862 65.3613 10.5683C65.4551 10.8503 65.489 11.1489 65.4607 11.4449C65.4895 11.7411 65.456 12.0401 65.3624 12.3226C65.2688 12.6051 65.1171 12.8649 64.9171 13.0853C64.7171 13.3058 64.4732 13.4819 64.201 13.6024C63.9289 13.7229 63.6346 13.7852 63.3369 13.7852C63.0393 13.7852 62.745 13.7229 62.4728 13.6024C62.2007 13.4819 61.9568 13.3058 61.7568 13.0853C61.5568 12.8649 61.4051 12.6051 61.3114 12.3226C61.2178 12.0401 61.1843 11.7411 61.2131 11.4449ZM64.5461 11.4449C64.5461 10.4688 64.1077 9.89799 63.3381 9.89799C62.5657 9.89799 62.1311 10.4688 62.1311 11.4449C62.1311 12.4288 62.5657 12.9952 63.3381 12.9952C64.1077 12.9952 64.5462 12.4248 64.5462 11.4449H64.5461Z" fill="#E6E8EC"/>
<path d="M66.3984 12.4248C66.3984 11.6142 67.002 11.147 68.0732 11.0806L69.293 11.0102V10.6216C69.293 10.146 68.9785 9.87744 68.3711 9.87744C67.875 9.87744 67.5313 10.0596 67.4326 10.3779H66.5723C66.6631 9.60449 67.3906 9.1084 68.4121 9.1084C69.541 9.1084 70.1777 9.6704 70.1777 10.6216V13.6982H69.3223V13.0654H69.252C69.1092 13.2924 68.9088 13.4775 68.6712 13.6017C68.4336 13.7259 68.1673 13.7848 67.8994 13.7724C67.7104 13.7921 67.5193 13.7719 67.3386 13.7132C67.1578 13.6545 66.9913 13.5586 66.8499 13.4316C66.7085 13.3047 66.5953 13.1495 66.5175 12.9761C66.4397 12.8026 66.3992 12.6149 66.3984 12.4248ZM69.293 12.04V11.6636L68.1934 11.7339C67.5732 11.7754 67.292 11.9863 67.292 12.3833C67.292 12.7886 67.6435 13.0244 68.127 13.0244C68.2686 13.0387 68.4117 13.0244 68.5477 12.9823C68.6837 12.9403 68.8099 12.8712 68.9187 12.7794C69.0274 12.6876 69.1166 12.5748 69.1809 12.4477C69.2453 12.3207 69.2833 12.1821 69.293 12.04Z" fill="#E6E8EC"/>
<path d="M71.3438 11.4448C71.3438 10.022 72.0752 9.12062 73.2129 9.12062C73.4943 9.10765 73.7736 9.17506 74.0181 9.31495C74.2627 9.45485 74.4623 9.66145 74.5938 9.91062H74.6602V7.4375H75.5488V13.6982H74.6973V12.9868H74.627C74.4854 13.2343 74.2787 13.4383 74.0295 13.5768C73.7802 13.7153 73.4978 13.783 73.2129 13.7724C72.0674 13.7725 71.3438 12.8711 71.3438 11.4448ZM72.2617 11.4448C72.2617 12.3999 72.712 12.9746 73.4649 12.9746C74.2139 12.9746 74.6768 12.3916 74.6768 11.4487C74.6768 10.5103 74.209 9.91896 73.4649 9.91896C72.7168 9.91896 72.2617 10.4976 72.2617 11.4448H72.2617Z" fill="#E6E8EC"/>
<path d="M79.2288 11.4448C79.2005 11.1489 79.2343 10.8503 79.3282 10.5682C79.422 10.2862 79.5738 10.0268 79.7737 9.80683C79.9737 9.58685 80.2174 9.41108 80.4892 9.2908C80.7611 9.17053 81.0551 9.1084 81.3523 9.1084C81.6496 9.1084 81.9436 9.17053 82.2154 9.2908C82.4873 9.41108 82.731 9.58685 82.9309 9.80683C83.1309 10.0268 83.2826 10.2862 83.3765 10.5682C83.4703 10.8503 83.5042 11.1489 83.4759 11.4448C83.5047 11.741 83.4713 12.04 83.3777 12.3225C83.2841 12.605 83.1324 12.8648 82.9324 13.0853C82.7324 13.3057 82.4885 13.4818 82.2164 13.6023C81.9443 13.7229 81.65 13.7851 81.3523 13.7851C81.0547 13.7851 80.7604 13.7229 80.4882 13.6023C80.2161 13.4818 79.9722 13.3057 79.7722 13.0853C79.5722 12.8648 79.4206 12.605 79.327 12.3225C79.2334 12.04 79.1999 11.741 79.2288 11.4448ZM82.5618 11.4448C82.5618 10.4687 82.1233 9.89791 81.3538 9.89791C80.5813 9.89791 80.1468 10.4687 80.1468 11.4448C80.1468 12.4287 80.5814 12.9951 81.3538 12.9951C82.1233 12.9951 82.5618 12.4248 82.5618 11.4448Z" fill="#E6E8EC"/>
<path d="M84.668 9.19487H85.5234V9.9102H85.5899C85.7025 9.65328 85.8925 9.43791 86.1334 9.2941C86.3742 9.15029 86.654 9.08522 86.9336 9.10795C87.1527 9.09148 87.3727 9.12451 87.5773 9.20461C87.7819 9.2847 87.9658 9.40981 88.1155 9.57065C88.2652 9.73149 88.3768 9.92396 88.442 10.1338C88.5072 10.3436 88.5243 10.5654 88.4922 10.7827V13.6977H87.6035V11.0059C87.6035 10.2823 87.2891 9.92241 86.6318 9.92241C86.4831 9.91548 86.3346 9.9408 86.1965 9.99663C86.0585 10.0525 85.9341 10.1375 85.832 10.2459C85.7299 10.3543 85.6524 10.4834 85.6049 10.6246C85.5573 10.7657 85.5409 10.9154 85.5566 11.0635V13.6978H84.668V9.19487Z" fill="#E6E8EC"/>
<path d="M93.5107 8.07422V9.21582H94.4863V9.96436H93.5107V12.2798C93.5107 12.7515 93.7051 12.958 94.1475 12.958C94.2607 12.9576 94.3739 12.9508 94.4863 12.9375V13.6777C94.3267 13.7063 94.165 13.7215 94.0029 13.7231C93.0146 13.7231 92.6211 13.3755 92.6211 12.5073V9.96432H91.9062V9.21578H92.6211V8.07422H93.5107Z" fill="#E6E8EC"/>
<path d="M95.7031 7.4375H96.584V9.91895H96.6543C96.7724 9.65963 96.9676 9.44304 97.2133 9.29869C97.459 9.15434 97.7433 9.08926 98.0273 9.11231C98.2453 9.10045 98.4631 9.13684 98.6654 9.21888C98.8677 9.30092 99.0494 9.4266 99.1975 9.58693C99.3456 9.74727 99.4565 9.93832 99.5223 10.1465C99.5881 10.3546 99.6071 10.5747 99.5781 10.791V13.6982H98.6885V11.0103C98.6885 10.291 98.3535 9.92675 97.7256 9.92675C97.5729 9.91422 97.4193 9.93522 97.2755 9.98827C97.1317 10.0413 97.0013 10.1252 96.8933 10.2339C96.7853 10.3426 96.7023 10.4737 96.6503 10.6178C96.5982 10.7619 96.5783 10.9157 96.5918 11.0683V13.6982H95.7032L95.7031 7.4375Z" fill="#E6E8EC"/>
<path d="M104.757 12.4825C104.637 12.894 104.375 13.25 104.018 13.4882C103.662 13.7263 103.233 13.8315 102.806 13.7852C102.51 13.7931 102.215 13.7362 101.942 13.6187C101.67 13.5012 101.426 13.3258 101.228 13.1046C101.03 12.8835 100.883 12.6219 100.796 12.3381C100.71 12.0543 100.686 11.755 100.726 11.461C100.687 11.1661 100.711 10.8662 100.798 10.5815C100.884 10.2969 101.031 10.0341 101.228 9.81101C101.424 9.58794 101.667 9.40977 101.939 9.28856C102.21 9.16735 102.505 9.10594 102.802 9.10847C104.055 9.10847 104.811 9.96447 104.811 11.3785V11.6886H101.632V11.7384C101.618 11.9036 101.638 12.0699 101.692 12.2267C101.747 12.3834 101.833 12.5271 101.946 12.6486C102.059 12.7701 102.196 12.8666 102.348 12.932C102.501 12.9974 102.665 13.0302 102.831 13.0284C103.043 13.0539 103.259 13.0156 103.449 12.9184C103.64 12.8212 103.798 12.6694 103.902 12.4825L104.757 12.4825ZM101.631 11.0313H103.906C103.917 10.8802 103.897 10.7284 103.846 10.5857C103.795 10.443 103.714 10.3125 103.61 10.2026C103.506 10.0928 103.379 10.006 103.239 9.94778C103.1 9.88961 102.949 9.86135 102.797 9.86482C102.644 9.86289 102.491 9.89175 102.349 9.94969C102.207 10.0076 102.077 10.0935 101.969 10.2022C101.86 10.3109 101.774 10.4403 101.716 10.5827C101.658 10.7251 101.63 10.8776 101.632 11.0313H101.631Z" fill="#E6E8EC"/>
</svg>
