<svg width="101" height="26" viewBox="0 0 101 26" fill="none" xmlns="http://www.w3.org/2000/svg">
<path d="M15.7689 13.5805C15.7796 12.7458 16.0013 11.9274 16.4134 11.2015C16.8254 10.4755 17.4143 9.86558 18.1254 9.42841C17.6737 8.78325 17.0778 8.2523 16.3849 7.87775C15.6921 7.5032 14.9215 7.29536 14.1343 7.27073C12.455 7.09447 10.8271 8.27556 9.97138 8.27556C9.09911 8.27556 7.78161 7.28823 6.36288 7.31742C5.4452 7.34706 4.55086 7.61392 3.76698 8.09198C2.9831 8.57003 2.33643 9.24299 1.88996 10.0453C-0.0440421 13.3937 1.39855 18.3148 3.25116 21.0214C4.17806 22.3467 5.26134 23.8272 6.67879 23.7747C8.06585 23.7171 8.58389 22.8902 10.2582 22.8902C11.9169 22.8902 12.403 23.7747 13.8492 23.7413C15.3376 23.7171 16.2753 22.41 17.1697 21.0721C17.8357 20.1278 18.3481 19.0841 18.6881 17.9796C17.8234 17.6139 17.0855 17.0017 16.5664 16.2194C16.0472 15.4371 15.7699 14.5193 15.7689 13.5805Z" fill="#23262F"/>
<path d="M13.0373 5.49067C13.8488 4.51646 14.2486 3.26429 14.1518 2.00005C12.9119 2.13027 11.7667 2.72283 10.9442 3.65966C10.5421 4.11733 10.2341 4.64977 10.0378 5.22653C9.84156 5.8033 9.76092 6.4131 9.80048 7.02105C10.4206 7.02744 11.0341 6.89303 11.5948 6.62794C12.1555 6.36285 12.6487 5.974 13.0373 5.49067Z" fill="#23262F"/>
<path d="M33.3022 19.1397H28.5688L27.4321 22.4962H25.4272L29.9106 10.0782H31.9936L36.477 22.4962H34.438L33.3022 19.1397ZM29.0591 17.5909H32.8111L30.9615 12.1436H30.9097L29.0591 17.5909Z" fill="#23262F"/>
<path d="M46.1597 17.9698C46.1597 20.7833 44.6538 22.5909 42.3813 22.5909C41.8057 22.621 41.2332 22.4884 40.7294 22.2082C40.2256 21.9281 39.8109 21.5118 39.5327 21.0069H39.4897V25.4913H37.6313V13.4424H39.4302V14.9483H39.4644C39.7553 14.4458 40.177 14.0316 40.6847 13.7498C41.1923 13.468 41.7668 13.329 42.3472 13.3477C44.645 13.3477 46.1597 15.1641 46.1597 17.9698ZM44.2495 17.9698C44.2495 16.1368 43.3022 14.9317 41.8569 14.9317C40.437 14.9317 39.4819 16.1622 39.4819 17.9698C39.4819 19.794 40.437 21.0157 41.8569 21.0157C43.3022 21.0157 44.2495 19.8194 44.2495 17.9698Z" fill="#23262F"/>
<path d="M56.1245 17.9698C56.1245 20.7833 54.6187 22.5909 52.3462 22.5909C51.7705 22.621 51.198 22.4884 50.6942 22.2082C50.1905 21.9281 49.7757 21.5118 49.4976 21.0069H49.4546V25.4913H47.5962V13.4424H49.395V14.9483H49.4292C49.7201 14.4458 50.1418 14.0316 50.6495 13.7498C51.1571 13.468 51.7317 13.329 52.312 13.3477C54.6099 13.3477 56.1245 15.1641 56.1245 17.9698ZM54.2144 17.9698C54.2144 16.1368 53.2671 14.9317 51.8218 14.9317C50.4018 14.9317 49.4468 16.1622 49.4468 17.9698C49.4468 19.794 50.4018 21.0157 51.8218 21.0157C53.2671 21.0157 54.2144 19.8194 54.2144 17.9698H54.2144Z" fill="#23262F"/>
<path d="M62.7104 19.0362C62.8481 20.2676 64.0444 21.0762 65.6792 21.0762C67.2456 21.0762 68.3726 20.2676 68.3726 19.1572C68.3726 18.1934 67.6929 17.6162 66.0835 17.2207L64.4741 16.833C62.1939 16.2822 61.1353 15.2158 61.1353 13.4854C61.1353 11.3428 63.0024 9.87109 65.6538 9.87109C68.2778 9.87109 70.0767 11.3428 70.1372 13.4854H68.2612C68.1489 12.2461 67.1245 11.4981 65.6274 11.4981C64.1303 11.4981 63.1059 12.2549 63.1059 13.3565C63.1059 14.2344 63.7602 14.751 65.3608 15.1465L66.729 15.4824C69.2768 16.0849 70.3354 17.1084 70.3354 18.9248C70.3354 21.248 68.4848 22.7031 65.5415 22.7031C62.7876 22.7031 60.9282 21.2822 60.8081 19.0361L62.7104 19.0362Z" fill="#23262F"/>
<path d="M74.3462 11.2999V13.4424H76.0679V14.9141H74.3462V19.9053C74.3462 20.6807 74.6909 21.042 75.4477 21.042C75.6521 21.0385 75.8562 21.0241 76.0591 20.999V22.4619C75.7188 22.5255 75.3729 22.5543 75.0268 22.5479C73.1938 22.5479 72.479 21.8594 72.479 20.1035V14.9141H71.1626V13.4424H72.479V11.2999H74.3462Z" fill="#23262F"/>
<path d="M77.065 17.9698C77.065 15.1212 78.7427 13.3311 81.3589 13.3311C83.9839 13.3311 85.6538 15.1211 85.6538 17.9698C85.6538 20.8262 83.9927 22.6085 81.3589 22.6085C78.7261 22.6085 77.065 20.8262 77.065 17.9698ZM83.7603 17.9698C83.7603 16.0157 82.8648 14.8624 81.3589 14.8624C79.853 14.8624 78.9585 16.0245 78.9585 17.9698C78.9585 19.9317 79.853 21.0762 81.3589 21.0762C82.8648 21.0762 83.7602 19.9317 83.7602 17.9698H83.7603Z" fill="#23262F"/>
<path d="M87.186 13.4424H88.9585V14.9834H89.0015C89.1214 14.5021 89.4034 14.0768 89.8 13.7789C90.1966 13.481 90.6836 13.3288 91.1792 13.3477C91.3934 13.3469 91.607 13.3702 91.816 13.417V15.1553C91.5456 15.0727 91.2635 15.0348 90.981 15.043C90.711 15.0321 90.4418 15.0797 90.192 15.1825C89.9421 15.2854 89.7175 15.4412 89.5335 15.6391C89.3496 15.8369 89.2106 16.0723 89.1262 16.329C89.0417 16.5856 89.0139 16.8575 89.0444 17.126V22.4961H87.186L87.186 13.4424Z" fill="#23262F"/>
<path d="M100.384 19.837C100.134 21.4805 98.5337 22.6084 96.4858 22.6084C93.852 22.6084 92.2173 20.8438 92.2173 18.0127C92.2173 15.1729 93.8608 13.3311 96.4077 13.3311C98.9126 13.3311 100.488 15.0518 100.488 17.7969V18.4336H94.0933V18.5459C94.0638 18.8791 94.1055 19.2148 94.2156 19.5306C94.3258 19.8465 94.5019 20.1353 94.7323 20.3778C94.9627 20.6204 95.242 20.8111 95.5517 20.9374C95.8615 21.0637 96.1945 21.1227 96.5288 21.1104C96.968 21.1515 97.4087 21.0498 97.7854 20.8204C98.1621 20.5909 98.4547 20.246 98.6196 19.837L100.384 19.837ZM94.1021 17.1348H98.6284C98.6451 16.8352 98.5997 16.5354 98.495 16.2542C98.3903 15.973 98.2286 15.7164 98.0201 15.5007C97.8116 15.2849 97.5607 15.1146 97.2833 15.0004C97.0058 14.8861 96.7077 14.8305 96.4077 14.837C96.1051 14.8352 95.8051 14.8933 95.525 15.008C95.245 15.1228 94.9905 15.2919 94.7761 15.5055C94.5617 15.7191 94.3918 15.9731 94.2761 16.2527C94.1604 16.5324 94.1013 16.8322 94.1021 17.1348V17.1348Z" fill="#23262F"/>
<path d="M28.8262 0.731014C29.2158 0.703055 29.6067 0.761915 29.9709 0.903348C30.335 1.04478 30.6632 1.26526 30.9317 1.54889C31.2003 1.83251 31.4026 2.17221 31.524 2.54348C31.6454 2.91475 31.6829 3.30834 31.6338 3.69585C31.6338 5.6021 30.6035 6.69785 28.8262 6.69785H26.6709V0.731014H28.8262ZM27.5976 5.85401H28.7226C29.0011 5.87066 29.2797 5.82501 29.5382 5.72039C29.7967 5.61578 30.0287 5.45483 30.2172 5.24927C30.4057 5.0437 30.546 4.79869 30.6278 4.53207C30.7097 4.26545 30.7311 3.98394 30.6904 3.70801C30.7281 3.43318 30.7046 3.15341 30.6215 2.88875C30.5383 2.62408 30.3977 2.38108 30.2096 2.17715C30.0216 1.97322 29.7907 1.81341 29.5337 1.70917C29.2766 1.60494 28.9996 1.55885 28.7226 1.57422H27.5976V5.85401Z" fill="#777E90"/>
<path d="M32.6807 4.44435C32.6523 4.14843 32.6862 3.84986 32.78 3.56779C32.8739 3.28572 33.0256 3.02638 33.2256 2.8064C33.4255 2.58642 33.6692 2.41065 33.9411 2.29038C34.2129 2.1701 34.5069 2.10797 34.8042 2.10797C35.1015 2.10797 35.3954 2.1701 35.6673 2.29038C35.9391 2.41065 36.1829 2.58642 36.3828 2.8064C36.5827 3.02638 36.7345 3.28572 36.8283 3.56779C36.9222 3.84986 36.956 4.14843 36.9277 4.44435C36.9566 4.74057 36.9231 5.03955 36.8295 5.32208C36.7359 5.6046 36.5843 5.86442 36.3843 6.08484C36.1843 6.30525 35.9404 6.48138 35.6683 6.60192C35.3961 6.72245 35.1018 6.78472 34.8042 6.78472C34.5066 6.78472 34.2122 6.72245 33.9401 6.60192C33.668 6.48138 33.4241 6.30525 33.2241 6.08484C33.0241 5.86442 32.8724 5.6046 32.7788 5.32208C32.6853 5.03955 32.6518 4.74057 32.6807 4.44435ZM36.0137 4.44435C36.0137 3.46828 35.5752 2.89748 34.8057 2.89748C34.0332 2.89748 33.5987 3.46828 33.5987 4.44436C33.5987 5.42825 34.0332 5.99465 34.8057 5.99465C35.5752 5.99464 36.0137 5.42433 36.0137 4.44435H36.0137Z" fill="#777E90"/>
<path d="M42.5732 6.69776H41.6514L40.7207 3.38135H40.6504L39.7236 6.69776H38.8105L37.5693 2.19483H38.4707L39.2773 5.63083H39.3438L40.2695 2.19483H41.1221L42.0479 5.63083H42.1182L42.9209 2.19483H43.8096L42.5732 6.69776Z" fill="#777E90"/>
<path d="M44.8535 2.19483H45.709V2.91016H45.7754C45.888 2.65324 46.078 2.43787 46.3189 2.29406C46.5598 2.15026 46.8395 2.08518 47.1191 2.10791C47.3382 2.09144 47.5582 2.12447 47.7628 2.20457C47.9674 2.28466 48.1514 2.40977 48.3011 2.57061C48.4508 2.73146 48.5623 2.92392 48.6275 3.13374C48.6927 3.34356 48.7099 3.56536 48.6777 3.78271V6.69771H47.7891V4.00587C47.7891 3.28224 47.4746 2.92237 46.8174 2.92237C46.6686 2.91544 46.5201 2.94076 46.3821 2.99659C46.244 3.05242 46.1197 3.13744 46.0175 3.24583C45.9154 3.35421 45.8379 3.4834 45.7904 3.62453C45.7429 3.76566 45.7264 3.9154 45.7422 4.06348V6.69776H44.8535L44.8535 2.19483Z" fill="#777E90"/>
<path d="M50.0938 0.437012H50.9824V6.69775H50.0938V0.437012Z" fill="#777E90"/>
<path d="M52.2178 4.44435C52.1895 4.14841 52.2234 3.84983 52.3172 3.56775C52.4111 3.28567 52.5629 3.02632 52.7628 2.80633C52.9628 2.58634 53.2065 2.41057 53.4784 2.2903C53.7503 2.17002 54.0443 2.10789 54.3416 2.10789C54.6388 2.10789 54.9328 2.17002 55.2047 2.2903C55.4766 2.41057 55.7203 2.58634 55.9203 2.80633C56.1202 3.02632 56.272 3.28567 56.3659 3.56775C56.4597 3.84983 56.4936 4.14841 56.4653 4.44435C56.4941 4.74058 56.4607 5.03957 56.367 5.32209C56.2734 5.60462 56.1217 5.86443 55.9217 6.08484C55.7217 6.30524 55.4778 6.48137 55.2057 6.6019C54.9335 6.72243 54.6392 6.78469 54.3416 6.78469C54.0439 6.78469 53.7496 6.72243 53.4774 6.6019C53.2053 6.48137 52.9614 6.30524 52.7614 6.08484C52.5614 5.86443 52.4097 5.60462 52.3161 5.32209C52.2224 5.03957 52.189 4.74058 52.2178 4.44435ZM55.5508 4.44435C55.5508 3.46828 55.1123 2.89748 54.3428 2.89748C53.5703 2.89748 53.1358 3.46828 53.1358 4.44436C53.1358 5.42825 53.5703 5.99465 54.3428 5.99465C55.1123 5.99464 55.5508 5.42433 55.5508 4.44435H55.5508Z" fill="#777E90"/>
<path d="M57.4009 5.42433C57.4009 4.61378 58.0044 4.1465 59.0757 4.08009L60.2954 4.00978V3.62111C60.2954 3.14552 59.981 2.87697 59.3735 2.87697C58.8774 2.87697 58.5337 3.0591 58.4351 3.37746H57.5747C57.6655 2.60402 58.3931 2.10793 59.4146 2.10793C60.5435 2.10793 61.1802 2.66993 61.1802 3.62111V6.69777H60.3247V6.06496H60.2544C60.1117 6.29196 59.9113 6.477 59.6737 6.60122C59.436 6.72543 59.1697 6.78435 58.9019 6.77196C58.7128 6.79163 58.5218 6.77146 58.341 6.71276C58.1602 6.65406 57.9938 6.55814 57.8524 6.43117C57.711 6.3042 57.5977 6.149 57.52 5.97559C57.4422 5.80217 57.4016 5.61439 57.4009 5.42433ZM60.2954 5.03956V4.6631L59.1958 4.73341C58.5757 4.77491 58.2944 4.98585 58.2944 5.38282C58.2944 5.78809 58.646 6.02393 59.1294 6.02393C59.2711 6.03827 59.4142 6.02397 59.5502 5.98188C59.6862 5.93979 59.8123 5.87077 59.9211 5.77893C60.0299 5.68709 60.1191 5.5743 60.1834 5.44728C60.2477 5.32026 60.2858 5.18161 60.2954 5.03956Z" fill="#777E90"/>
<path d="M62.3481 4.44435C62.3481 3.0215 63.0796 2.12013 64.2173 2.12013C64.4987 2.10716 64.778 2.17457 65.0225 2.31446C65.267 2.45436 65.4667 2.66096 65.5981 2.91013H65.6646V0.437012H66.5532V6.69775H65.7017V5.98632H65.6314C65.4897 6.23381 65.2831 6.43785 65.0339 6.57633C64.7846 6.71481 64.5022 6.78246 64.2173 6.77196C63.0718 6.77201 62.3481 5.87062 62.3481 4.44435ZM63.2661 4.44435C63.2661 5.39943 63.7163 5.97414 64.4693 5.97414C65.2183 5.97414 65.6812 5.39114 65.6812 4.44826C65.6812 3.50978 65.2134 2.91847 64.4693 2.91847C63.7212 2.91847 63.2661 3.49708 63.2661 4.44435H63.2661Z" fill="#777E90"/>
<path d="M70.23 4.44435C70.2017 4.14843 70.2355 3.84986 70.3294 3.56779C70.4232 3.28572 70.575 3.02638 70.7749 2.8064C70.9748 2.58642 71.2186 2.41065 71.4904 2.29038C71.7623 2.1701 72.0563 2.10797 72.3535 2.10797C72.6508 2.10797 72.9448 2.1701 73.2166 2.29038C73.4885 2.41065 73.7322 2.58642 73.9321 2.8064C74.1321 3.02638 74.2838 3.28572 74.3777 3.56779C74.4715 3.84986 74.5054 4.14843 74.4771 4.44435C74.5059 4.74057 74.4725 5.03955 74.3789 5.32208C74.2853 5.6046 74.1336 5.86442 73.9336 6.08484C73.7336 6.30525 73.4897 6.48138 73.2176 6.60192C72.9455 6.72245 72.6511 6.78472 72.3535 6.78472C72.0559 6.78472 71.7616 6.72245 71.4894 6.60192C71.2173 6.48138 70.9734 6.30525 70.7734 6.08484C70.5734 5.86442 70.4218 5.6046 70.3282 5.32208C70.2346 5.03955 70.2011 4.74057 70.23 4.44435ZM73.563 4.44435C73.563 3.46828 73.1245 2.89748 72.355 2.89748C71.5825 2.89748 71.148 3.46828 71.148 4.44436C71.148 5.42825 71.5826 5.99465 72.355 5.99465C73.1245 5.99464 73.563 5.42433 73.563 4.44435Z" fill="#777E90"/>
<path d="M75.6694 2.19483H76.5249V2.91016H76.5913C76.704 2.65324 76.894 2.43787 77.1348 2.29406C77.3757 2.15026 77.6555 2.08518 77.9351 2.10791C78.1542 2.09144 78.3742 2.12447 78.5788 2.20457C78.7834 2.28466 78.9673 2.40977 79.117 2.57061C79.2667 2.73146 79.3783 2.92392 79.4435 3.13374C79.5087 3.34356 79.5258 3.56536 79.4937 3.78271V6.69771H78.605V4.00587C78.605 3.28224 78.2905 2.92237 77.6333 2.92237C77.4846 2.91544 77.336 2.94076 77.198 2.99659C77.0599 3.05242 76.9356 3.13744 76.8335 3.24583C76.7313 3.35421 76.6539 3.4834 76.6063 3.62453C76.5588 3.76566 76.5423 3.9154 76.5581 4.06348V6.69776H75.6694V2.19483Z" fill="#777E90"/>
<path d="M84.5151 1.07375V2.21535H85.4907V2.96389H84.5151V5.27931C84.5151 5.751 84.7095 5.95753 85.1519 5.95753C85.2651 5.95717 85.3783 5.95032 85.4907 5.93703V6.67726C85.3311 6.70581 85.1694 6.72099 85.0073 6.72266C84.019 6.72266 83.6255 6.37501 83.6255 5.50685V2.96385H82.9106V2.21531H83.6255V1.07375H84.5151Z" fill="#777E90"/>
<path d="M86.7046 0.437012H87.5854V2.91846H87.6558C87.7739 2.65914 87.9691 2.44255 88.2148 2.2982C88.4605 2.15386 88.7447 2.08877 89.0288 2.11182C89.2467 2.09996 89.4646 2.13635 89.6669 2.21839C89.8692 2.30043 90.0508 2.42611 90.199 2.58644C90.3471 2.74678 90.458 2.93783 90.5238 3.14597C90.5896 3.3541 90.6086 3.57419 90.5795 3.79053V6.69776H89.69V4.00976C89.69 3.29052 89.355 2.92626 88.7271 2.92626C88.5743 2.91374 88.4207 2.93473 88.2769 2.98779C88.1332 3.04084 88.0027 3.12467 87.8947 3.23341C87.7867 3.34214 87.7038 3.47316 87.6517 3.6173C87.5997 3.76144 87.5797 3.91521 87.5933 4.06786V6.69774H86.7046L86.7046 0.437012Z" fill="#777E90"/>
<path d="M95.7612 5.48194C95.6405 5.89348 95.3789 6.24947 95.0222 6.48762C94.6655 6.72577 94.2365 6.83092 93.8101 6.78467C93.5134 6.79251 93.2186 6.73568 92.9461 6.61816C92.6736 6.50063 92.4299 6.32521 92.232 6.10407C92.0341 5.88293 91.8867 5.62137 91.8 5.33755C91.7133 5.05373 91.6894 4.75444 91.73 4.46046C91.6905 4.16558 91.7148 3.86565 91.8013 3.58097C91.8878 3.2963 92.0344 3.03353 92.2313 2.81046C92.4281 2.58739 92.6706 2.40922 92.9424 2.28801C93.2141 2.1668 93.5086 2.10539 93.8062 2.10792C95.0591 2.10792 95.8149 2.96392 95.8149 4.37792V4.68801H92.6353V4.73781C92.6213 4.90306 92.6421 5.06939 92.6962 5.22614C92.7504 5.38289 92.8366 5.5266 92.9495 5.64806C93.0625 5.76951 93.1995 5.86603 93.3519 5.93143C93.5043 5.99683 93.6687 6.02966 93.8345 6.02781C94.047 6.05333 94.2624 6.01506 94.4532 5.91785C94.6439 5.82064 94.8015 5.6689 94.9058 5.48191L95.7612 5.48194ZM92.6352 4.03077H94.9096C94.9208 3.87965 94.9003 3.72785 94.8494 3.58513C94.7984 3.44241 94.7181 3.31193 94.6138 3.20207C94.5094 3.09222 94.3832 3.00541 94.2432 2.94724C94.1033 2.88906 93.9527 2.8608 93.8012 2.86427C93.6475 2.86234 93.495 2.8912 93.3526 2.94915C93.2103 3.00709 93.0809 3.09295 92.9723 3.20166C92.8636 3.31038 92.7778 3.43974 92.7199 3.58214C92.6621 3.72453 92.6333 3.87708 92.6353 4.03077H92.6352Z" fill="#777E90"/>
</svg>
