<svg width="135" height="40" viewBox="0 0 135 40" fill="none" xmlns="http://www.w3.org/2000/svg">
<g clip-path="url(#clip0_60_59932)">
<path d="M130 0H5C2.23858 0 0 2.23858 0 5V35C0 37.7614 2.23858 40 5 40H130C132.761 40 135 37.7614 135 35V5C135 2.23858 132.761 0 130 0Z" fill="#E6E8EC"/>
<path d="M47.4205 11.2402C47.4369 11.6069 47.3789 11.9732 47.25 12.3169C47.1212 12.6606 46.924 12.9747 46.6705 13.2402C46.3864 13.5335 46.0436 13.7635 45.6645 13.9152C45.2854 14.0668 44.8785 14.1367 44.4705 14.1202C44.0602 14.1294 43.6523 14.0542 43.2722 13.8994C42.892 13.7446 42.5477 13.5134 42.2605 13.2202C41.6778 12.6242 41.3516 11.8237 41.3516 10.9902C41.3516 10.1567 41.6778 9.35624 42.2605 8.76021C42.706 8.32489 43.2702 8.03095 43.8823 7.9153C44.4943 7.79965 45.1269 7.86746 45.7005 8.11021C46.0611 8.25844 46.3828 8.48769 46.6405 8.78021L46.1105 9.31021C45.9119 9.07098 45.6603 8.88135 45.3756 8.75636C45.0909 8.63138 44.781 8.57449 44.4705 8.59021C44.0785 8.59292 43.6932 8.6916 43.3482 8.87762C43.0031 9.06365 42.7089 9.33135 42.4912 9.65734C42.2735 9.98332 42.139 10.3577 42.0994 10.7476C42.0598 11.1376 42.1163 11.5314 42.264 11.8945C42.4117 12.2576 42.6461 12.579 42.9467 12.8306C43.2473 13.0821 43.6049 13.2563 43.9883 13.3378C44.3718 13.4192 44.7693 13.4055 45.1462 13.2979C45.5231 13.1902 45.8679 12.9919 46.1505 12.7202C46.456 12.3853 46.6331 11.9531 46.6505 11.5002H44.4705V10.7802H47.3805C47.4033 10.9326 47.4166 11.0862 47.4205 11.2402Z" fill="#777E90"/>
<path d="M51.9995 8.74H49.2995V10.64H51.7595V11.36H49.2995V13.26H51.9995V14H48.5195V8H51.9995V8.74Z" fill="#777E90"/>
<path d="M55.2801 14H54.5101V8.74H52.8301V8H57.0001V8.74H55.2801V14Z" fill="#777E90"/>
<path d="M59.9395 14V8H60.7094V14H59.9395Z" fill="#777E90"/>
<path d="M64.1297 14H63.3597V8.74H61.6797V8H65.7997V8.74H64.1297V14Z" fill="#777E90"/>
<path d="M73.6102 13.2201C73.3213 13.5092 72.9784 13.7385 72.6009 13.895C72.2234 14.0514 71.8188 14.1319 71.4102 14.1319C71.0015 14.1319 70.5969 14.0514 70.2194 13.895C69.8419 13.7385 69.499 13.5092 69.2102 13.2201C68.6448 12.6192 68.3301 11.8252 68.3301 11.0001C68.3301 10.1751 68.6448 9.38109 69.2102 8.78014C69.4928 8.48294 69.8346 8.24838 70.2136 8.09162C70.5925 7.93487 71.0002 7.85941 71.4102 7.87014C71.8196 7.86367 72.2259 7.94106 72.6043 8.09756C72.9826 8.25407 73.325 8.48636 73.6102 8.78014C73.8977 9.07263 74.1237 9.41978 74.2749 9.80107C74.426 10.1824 74.4992 10.5901 74.4902 11.0001C74.5033 11.4107 74.4319 11.8196 74.2806 12.2015C74.1292 12.5833 73.901 12.9301 73.6102 13.2201V13.2201ZM69.7802 12.7201C69.9932 12.936 70.247 13.1074 70.5268 13.2244C70.8066 13.3414 71.1069 13.4017 71.4102 13.4017C71.7135 13.4017 72.0137 13.3414 72.2935 13.2244C72.5733 13.1074 72.8271 12.936 73.0402 12.7201C73.4717 12.2513 73.7112 11.6373 73.7112 11.0001C73.7112 10.3629 73.4717 9.74902 73.0402 9.28014C72.8271 9.06427 72.5733 8.89285 72.2935 8.77586C72.0137 8.65887 71.7135 8.59862 71.4102 8.59862C71.1069 8.59862 70.8066 8.65887 70.5268 8.77586C70.247 8.89285 69.9932 9.06427 69.7802 9.28014C69.3487 9.74902 69.1092 10.3629 69.1092 11.0001C69.1092 11.6373 69.3487 12.2513 69.7802 12.7201V12.7201Z" fill="#777E90"/>
<path d="M75.5801 14V8H76.5101L79.4301 12.67V11.51V8H80.2001V14H79.4001L76.3501 9.11V10.26V14H75.5801Z" fill="#777E90"/>
<path d="M68.1401 22.7499C67.2976 22.7519 66.4745 23.0037 65.7751 23.4734C65.0756 23.9432 64.5312 24.6098 64.2106 25.3889C63.89 26.1681 63.8076 27.0248 63.9739 27.8508C64.1402 28.6768 64.5477 29.4349 65.1449 30.0293C65.7421 30.6236 66.5021 31.0276 67.3288 31.19C68.1556 31.3524 69.0119 31.2661 69.7896 30.9418C70.5672 30.6175 71.2313 30.07 71.6977 29.3683C72.1642 28.6667 72.4121 27.8425 72.4101 26.9999C72.4183 26.4379 72.3132 25.8799 72.1013 25.3593C71.8893 24.8386 71.5748 24.366 71.1764 23.9694C70.7779 23.5729 70.3038 23.2606 69.7822 23.051C69.2606 22.8415 68.7021 22.7391 68.1401 22.7499V22.7499ZM68.1401 29.5799C67.6237 29.616 67.1083 29.496 66.6611 29.2353C66.2138 28.9747 65.8553 28.5855 65.6321 28.1184C65.409 27.6512 65.3315 27.1278 65.4098 26.6161C65.4881 26.1043 65.7185 25.628 66.0711 25.249C66.4237 24.8699 66.8821 24.6057 67.3869 24.4907C67.8916 24.3757 68.4193 24.4152 68.9013 24.604C69.3833 24.7929 69.7973 25.1223 70.0896 25.5496C70.3819 25.9769 70.5388 26.4822 70.5401 26.9999C70.5562 27.3279 70.5065 27.6559 70.3938 27.9643C70.2812 28.2728 70.1079 28.5556 69.8842 28.7961C69.6606 29.0366 69.391 29.2298 69.0914 29.3644C68.7919 29.499 68.4684 29.5723 68.1401 29.5799ZM58.8201 22.7499C57.9776 22.7519 57.1545 23.0037 56.4551 23.4734C55.7556 23.9432 55.2112 24.6098 54.8906 25.3889C54.57 26.1681 54.4876 27.0248 54.6539 27.8508C54.8202 28.6768 55.2277 29.4349 55.8249 30.0293C56.4221 30.6236 57.1821 31.0276 58.0088 31.19C58.8356 31.3524 59.6919 31.2661 60.4696 30.9418C61.2472 30.6175 61.9113 30.07 62.3777 29.3683C62.8442 28.6667 63.0921 27.8425 63.0901 26.9999C63.0982 26.4379 62.9932 25.8799 62.7813 25.3593C62.5693 24.8386 62.2548 24.366 61.8564 23.9694C61.4579 23.5729 60.9838 23.2606 60.4622 23.051C59.9406 22.8415 59.3821 22.7391 58.8201 22.7499V22.7499ZM58.8201 29.5799C58.3037 29.616 57.7883 29.496 57.3411 29.2353C56.8938 28.9747 56.5353 28.5855 56.3121 28.1184C56.089 27.6512 56.0115 27.1278 56.0898 26.6161C56.1681 26.1043 56.3985 25.628 56.7511 25.249C57.1037 24.8699 57.5621 24.6057 58.0669 24.4907C58.5716 24.3757 59.0993 24.4152 59.5813 24.604C60.0633 24.7929 60.4773 25.1223 60.7696 25.5496C61.0619 25.9769 61.2188 26.4822 61.2201 26.9999C61.2362 27.3279 61.1865 27.6559 61.0738 27.9643C60.9612 28.2728 60.7879 28.5556 60.5642 28.7961C60.3406 29.0366 60.071 29.2298 59.7714 29.3644C59.4719 29.499 59.1484 29.5723 58.8201 29.5799ZM47.7401 24.0599V25.8599H52.0601C51.9924 26.7077 51.6399 27.5077 51.0601 28.1299C50.6268 28.5714 50.1056 28.9171 49.5302 29.1444C48.9549 29.3718 48.3382 29.4759 47.7201 29.4499C46.4471 29.4499 45.2262 28.9442 44.326 28.044C43.4258 27.1439 42.9201 25.923 42.9201 24.6499C42.9201 23.3769 43.4258 22.156 44.326 21.2558C45.2262 20.3556 46.4471 19.8499 47.7201 19.8499C48.9405 19.8318 50.119 20.2952 51.0001 21.1399L52.2701 19.8699C51.6741 19.2804 50.9664 18.8158 50.1886 18.5033C49.4107 18.1908 48.5783 18.0366 47.7401 18.0499C46.8511 18.0153 45.9643 18.1605 45.1327 18.4769C44.3012 18.7932 43.5421 19.2742 42.9009 19.8909C42.2596 20.5077 41.7495 21.2475 41.4011 22.0661C41.0527 22.8847 40.873 23.7652 40.873 24.6549C40.873 25.5446 41.0527 26.4251 41.4011 27.2437C41.7495 28.0623 42.2596 28.8022 42.9009 29.4189C43.5421 30.0357 44.3012 30.5166 45.1327 30.833C45.9643 31.1493 46.8511 31.2945 47.7401 31.2599C48.5955 31.2941 49.4485 31.1469 50.243 30.8281C51.0375 30.5092 51.7556 30.0259 52.3501 29.4099C53.4002 28.2563 53.9598 26.7391 53.9101 25.1799C53.9137 24.8046 53.8836 24.4298 53.8201 24.0599H47.7401ZM93.0501 25.4599C92.7893 24.6927 92.3016 24.0227 91.6516 23.5388C91.0016 23.0548 90.2199 22.7797 89.4101 22.7499C88.8631 22.7489 88.3217 22.86 87.8193 23.0765C87.317 23.2929 86.8644 23.6101 86.4895 24.0085C86.1146 24.4068 85.8254 24.8778 85.6397 25.3923C85.4541 25.9068 85.3759 26.454 85.4101 26.9999C85.4016 27.9128 85.6885 28.8039 86.2282 29.5402C86.7679 30.2765 87.5313 30.8184 88.4044 31.0851C89.2774 31.3517 90.2134 31.3288 91.0723 31.0196C91.9313 30.7105 92.6672 30.1318 93.1701 29.3699L91.7201 28.3699C91.5039 28.7302 91.1974 29.0277 90.8307 29.2329C90.4641 29.4382 90.0502 29.544 89.6301 29.5399C89.1967 29.5578 88.768 29.4442 88.4003 29.214C88.0327 28.9837 87.7432 28.6477 87.5701 28.2499L93.2601 25.8999L93.0501 25.4599ZM87.2501 26.8799C87.2298 26.5693 87.2717 26.2578 87.3734 25.9635C87.475 25.6693 87.6343 25.3983 87.842 25.1664C88.0497 24.9346 88.3015 24.7464 88.5828 24.6131C88.8641 24.4798 89.1691 24.4039 89.4801 24.3899C89.8023 24.3703 90.1231 24.4461 90.4024 24.608C90.6817 24.7699 90.907 25.0106 91.0501 25.2999L87.2501 26.8799ZM82.6301 30.9999H84.5001V18.4999H82.6301V30.9999ZM79.5701 23.6999H79.5001C79.2207 23.3818 78.876 23.1277 78.4894 22.9551C78.1028 22.7825 77.6835 22.6955 77.2601 22.6999C76.1673 22.7529 75.1367 23.2243 74.3821 24.0165C73.6274 24.8087 73.2064 25.8608 73.2064 26.9549C73.2064 28.049 73.6274 29.1012 74.3821 29.8933C75.1367 30.6855 76.1673 31.1569 77.2601 31.2099C77.6841 31.2184 78.1047 31.1332 78.4919 30.9603C78.8791 30.7875 79.2234 30.5312 79.5001 30.2099H79.5701V30.8199C79.5701 32.4499 78.7001 33.3199 77.3001 33.3199C76.8324 33.3096 76.3784 33.1606 75.9955 32.8918C75.6127 32.6229 75.3185 32.2464 75.1501 31.8099L73.5301 32.4799C73.8296 33.2322 74.3504 33.8758 75.0235 34.3258C75.6966 34.7757 76.4905 35.0108 77.3001 34.9999C79.4901 34.9999 81.3001 33.7099 81.3001 30.5699V22.9999H79.5701V23.6999ZM77.4201 29.5799C76.7649 29.5391 76.1499 29.25 75.7004 28.7716C75.2509 28.2932 75.0006 27.6614 75.0006 27.0049C75.0006 26.3485 75.2509 25.7167 75.7004 25.2383C76.1499 24.7598 76.7649 24.4708 77.4201 24.4299C77.7403 24.4437 78.0545 24.5218 78.344 24.6596C78.6334 24.7973 78.8922 24.9918 79.1049 25.2316C79.3176 25.4714 79.4799 25.7515 79.5822 26.0553C79.6844 26.3591 79.7245 26.6803 79.7001 26.9999C79.7274 27.3206 79.6893 27.6435 79.5883 27.9491C79.4872 28.2546 79.3252 28.5365 79.1121 28.7777C78.8989 29.0189 78.6391 29.2143 78.3483 29.3522C78.0575 29.4901 77.7417 29.5676 77.4201 29.5799V29.5799ZM101.81 18.4999H97.3301V30.9999H99.2001V26.2599H101.81C102.343 26.2982 102.878 26.2263 103.382 26.0487C103.886 25.871 104.348 25.5915 104.739 25.2274C105.13 24.8634 105.442 24.4227 105.655 23.9328C105.869 23.4428 105.979 22.9142 105.979 22.3799C105.979 21.8456 105.869 21.317 105.655 20.8271C105.442 20.3372 105.13 19.8965 104.739 19.5324C104.348 19.1684 103.886 18.8888 103.382 18.7112C102.878 18.5336 102.343 18.4616 101.81 18.4999V18.4999ZM101.81 24.4999H99.2001V20.2399H101.85C102.131 20.2399 102.409 20.2953 102.669 20.4028C102.929 20.5104 103.165 20.668 103.363 20.8667C103.562 21.0654 103.72 21.3013 103.827 21.561C103.935 21.8206 103.99 22.0989 103.99 22.3799C103.99 22.661 103.935 22.9392 103.827 23.1989C103.72 23.4585 103.562 23.6944 103.363 23.8931C103.165 24.0918 102.929 24.2495 102.669 24.357C102.409 24.4646 102.131 24.5199 101.85 24.5199L101.81 24.4999ZM113.35 22.7099C112.669 22.6679 111.991 22.8265 111.399 23.1659C110.807 23.5054 110.328 24.0109 110.02 24.6199L111.67 25.3099C111.837 25.0093 112.087 24.7634 112.39 24.602C112.694 24.4405 113.038 24.3703 113.38 24.3999C113.617 24.3722 113.858 24.392 114.088 24.4582C114.317 24.5245 114.531 24.6358 114.718 24.7856C114.904 24.9355 115.058 25.1209 115.172 25.3311C115.286 25.5413 115.356 25.7721 115.38 26.0099V26.1299C114.779 25.8138 114.109 25.6491 113.43 25.6499C111.65 25.6499 109.83 26.6499 109.83 28.4699C109.848 28.8568 109.943 29.2361 110.11 29.5855C110.277 29.9348 110.513 30.247 110.803 30.5035C111.093 30.7601 111.432 30.9557 111.799 31.0787C112.166 31.2018 112.554 31.2498 112.94 31.2199C113.409 31.2459 113.877 31.1466 114.295 30.9322C114.714 30.7178 115.067 30.3961 115.32 29.9999H115.38V30.9999H117.18V26.1899C117.18 23.9999 115.52 22.7299 113.39 22.7299L113.35 22.7099ZM113.12 29.5599C112.51 29.5599 111.66 29.2499 111.66 28.4999C111.66 27.4999 112.72 27.1599 113.66 27.1599C114.254 27.1453 114.841 27.2903 115.36 27.5799C115.297 28.123 115.04 28.6249 114.635 28.9926C114.231 29.3604 113.707 29.569 113.16 29.5799L113.12 29.5599ZM123.74 22.9999L121.6 28.4199H121.54L119.32 22.9999H117.32L120.65 30.5799L118.75 34.7899H120.7L125.82 22.9999H123.74ZM106.94 30.9999H108.8V18.4999H106.94V30.9999Z" fill="#23262F"/>
<path d="M10.4391 7.40789C10.1096 7.79751 9.94147 8.29835 9.96914 8.80789V30.9279C9.93512 31.4383 10.104 31.9414 10.4391 32.3279L10.5091 32.4079L22.8991 20.0179V19.7179L10.5091 7.33789L10.4391 7.40789Z" fill="url(#paint0_linear_60_59932)"/>
<path d="M26.9984 24.1479L22.8984 20.0179V19.7179L26.9984 15.5879L27.0884 15.6479L31.9984 18.4279C33.3984 19.2179 33.3984 20.5179 31.9984 21.3179L27.1084 24.0979L26.9984 24.1479Z" fill="url(#paint1_linear_60_59932)"/>
<path d="M27.1195 24.0872L22.8995 19.8672L10.4395 32.3272C10.722 32.5787 11.0837 32.7234 11.4618 32.7362C11.8399 32.749 12.2105 32.629 12.5095 32.3972L27.1195 24.0872" fill="url(#paint2_linear_60_59932)"/>
<path d="M27.1195 15.6476L12.5095 7.34764C12.2125 7.11256 11.8421 6.9897 11.4635 7.00068C11.0849 7.01165 10.7223 7.15575 10.4395 7.40765L22.8995 19.8676L27.1195 15.6476Z" fill="url(#paint3_linear_60_59932)"/>
<path opacity="0.2" d="M26.9995 23.998L12.5095 32.248C12.2214 32.4654 11.8703 32.5831 11.5095 32.5831C11.1486 32.5831 10.7975 32.4654 10.5095 32.248V32.248L10.4395 32.318L10.5095 32.398C10.7975 32.6154 11.1486 32.7331 11.5095 32.7331C11.8703 32.7331 12.2214 32.6154 12.5095 32.398L27.1195 24.088L26.9995 23.998Z" fill="#23262F"/>
<path opacity="0.12" d="M10.4379 32.1873C10.1167 31.7907 9.95931 31.2863 9.99792 30.7773V30.9273C9.9639 31.4377 10.1328 31.9409 10.4679 32.3273L10.5379 32.2573L10.4379 32.1873Z" fill="#23262F"/>
<path opacity="0.12" d="M32 21.1672L27 23.9972L27.09 24.0872L32 21.3072C32.2898 21.1846 32.5413 20.9862 32.7278 20.7328C32.9143 20.4794 33.0291 20.1803 33.06 19.8672C32.9975 20.1518 32.869 20.4177 32.6849 20.6435C32.5007 20.8693 32.2662 21.0487 32 21.1672Z" fill="#23262F"/>
<path opacity="0.25" d="M12.5088 7.48814L31.9988 18.5681C32.2649 18.6867 32.4995 18.8661 32.6836 19.0919C32.8677 19.3177 32.9962 19.5836 33.0588 19.8681C33.0279 19.555 32.9131 19.256 32.7265 19.0025C32.54 18.7491 32.2886 18.5507 31.9988 18.4281L12.5088 7.34814C11.1188 6.54814 9.96875 7.20814 9.96875 8.80814V8.95814C9.99875 7.35814 11.1188 6.69814 12.5088 7.48814Z" fill="white"/>
</g>
<defs>
<linearGradient id="paint0_linear_60_59932" x1="21.7991" y1="8.57789" x2="5.01914" y2="25.3579" gradientUnits="userSpaceOnUse">
<stop stop-color="#00A0FF"/>
<stop offset="0.01" stop-color="#00A1FF"/>
<stop offset="0.26" stop-color="#00BEFF"/>
<stop offset="0.51" stop-color="#00D2FF"/>
<stop offset="0.76" stop-color="#00DFFF"/>
<stop offset="1" stop-color="#00E3FF"/>
</linearGradient>
<linearGradient id="paint1_linear_60_59932" x1="33.8284" y1="19.8679" x2="9.63844" y2="19.8679" gradientUnits="userSpaceOnUse">
<stop stop-color="#FFE000"/>
<stop offset="0.41" stop-color="#FFBD00"/>
<stop offset="0.78" stop-color="#FFA500"/>
<stop offset="1" stop-color="#FF9C00"/>
</linearGradient>
<linearGradient id="paint2_linear_60_59932" x1="24.8295" y1="22.1672" x2="2.06945" y2="44.9172" gradientUnits="userSpaceOnUse">
<stop stop-color="#FF3A44"/>
<stop offset="1" stop-color="#C31162"/>
</linearGradient>
<linearGradient id="paint3_linear_60_59932" x1="7.29945" y1="0.0476457" x2="17.4595" y2="10.2076" gradientUnits="userSpaceOnUse">
<stop stop-color="#32A071"/>
<stop offset="0.07" stop-color="#2DA771"/>
<stop offset="0.48" stop-color="#15CF74"/>
<stop offset="0.8" stop-color="#06E775"/>
<stop offset="1" stop-color="#00F076"/>
</linearGradient>
<clipPath id="clip0_60_59932">
<rect width="135" height="40" fill="white"/>
</clipPath>
</defs>
</svg>
