<svg width="135" height="40" viewBox="0 0 135 40" fill="none" xmlns="http://www.w3.org/2000/svg">
<path d="M47.4205 11.2402C47.4369 11.6069 47.3789 11.9732 47.25 12.3169C47.1212 12.6606 46.924 12.9747 46.6705 13.2402C46.3864 13.5335 46.0436 13.7635 45.6645 13.9152C45.2854 14.0668 44.8785 14.1367 44.4705 14.1202C44.0602 14.1294 43.6523 14.0542 43.2722 13.8994C42.892 13.7446 42.5477 13.5134 42.2605 13.2202C41.6778 12.6242 41.3516 11.8237 41.3516 10.9902C41.3516 10.1567 41.6778 9.35624 42.2605 8.76021C42.706 8.32489 43.2702 8.03095 43.8823 7.9153C44.4943 7.79965 45.1269 7.86746 45.7005 8.11021C46.0611 8.25844 46.3828 8.48769 46.6405 8.78021L46.1105 9.31021C45.9119 9.07098 45.6603 8.88135 45.3756 8.75636C45.0909 8.63138 44.781 8.57449 44.4705 8.59021C44.0785 8.59292 43.6932 8.6916 43.3482 8.87762C43.0031 9.06365 42.7089 9.33135 42.4912 9.65734C42.2735 9.98332 42.139 10.3577 42.0994 10.7476C42.0598 11.1376 42.1163 11.5314 42.264 11.8945C42.4117 12.2576 42.6461 12.579 42.9467 12.8306C43.2473 13.0821 43.6049 13.2563 43.9883 13.3378C44.3718 13.4192 44.7693 13.4055 45.1462 13.2979C45.5231 13.1902 45.8679 12.9919 46.1505 12.7202C46.456 12.3853 46.6331 11.9531 46.6505 11.5002H44.4705V10.7802H47.3805C47.4033 10.9326 47.4166 11.0862 47.4205 11.2402Z" fill="#CFD2DB"/>
<path d="M51.9995 8.74H49.2995V10.64H51.7595V11.36H49.2995V13.26H51.9995V14H48.5195V8H51.9995V8.74Z" fill="#CFD2DB"/>
<path d="M55.2781 14H54.5081V8.74H52.8281V8H56.9981V8.74H55.2781V14Z" fill="#CFD2DB"/>
<path d="M59.9414 14V8H60.7114V14H59.9414Z" fill="#CFD2DB"/>
<path d="M64.1297 14H63.3597V8.74H61.6797V8H65.7997V8.74H64.1297V14Z" fill="#CFD2DB"/>
<path d="M73.6082 13.2201C73.3194 13.5092 72.9764 13.7385 72.5989 13.895C72.2214 14.0514 71.8168 14.1319 71.4082 14.1319C70.9996 14.1319 70.595 14.0514 70.2175 13.895C69.84 13.7385 69.497 13.5092 69.2082 13.2201C68.6429 12.6192 68.3281 11.8252 68.3281 11.0001C68.3281 10.1751 68.6429 9.38109 69.2082 8.78014C69.4908 8.48294 69.8326 8.24838 70.2116 8.09162C70.5906 7.93487 70.9982 7.85941 71.4082 7.87014C71.8176 7.86367 72.224 7.94106 72.6023 8.09756C72.9807 8.25407 73.323 8.48636 73.6082 8.78014C73.8958 9.07263 74.1218 9.41978 74.2729 9.80107C74.4241 10.1824 74.4973 10.5901 74.4882 11.0001C74.5013 11.4107 74.43 11.8196 74.2786 12.2015C74.1272 12.5833 73.8991 12.9301 73.6082 13.2201ZM69.7782 12.7201C69.9912 12.936 70.245 13.1074 70.5248 13.2244C70.8046 13.3414 71.1049 13.4017 71.4082 13.4017C71.7115 13.4017 72.0118 13.3414 72.2916 13.2244C72.5714 13.1074 72.8252 12.936 73.0382 12.7201C73.4697 12.2513 73.7092 11.6373 73.7092 11.0001C73.7092 10.3629 73.4697 9.74902 73.0382 9.28014C72.8252 9.06427 72.5714 8.89285 72.2916 8.77586C72.0118 8.65887 71.7115 8.59862 71.4082 8.59862C71.1049 8.59862 70.8046 8.65887 70.5248 8.77586C70.245 8.89285 69.9912 9.06427 69.7782 9.28014C69.3467 9.74902 69.1072 10.3629 69.1072 11.0001C69.1072 11.6373 69.3467 12.2513 69.7782 12.7201Z" fill="#CFD2DB"/>
<path d="M75.5781 14V8H76.5081L79.4281 12.67V11.51V8H80.1981V14H79.3981L76.3481 9.11V10.26V14H75.5781Z" fill="#CFD2DB"/>
<path d="M68.1421 22.7499C67.2995 22.7519 66.4765 23.0037 65.777 23.4734C65.0776 23.9432 64.5331 24.6098 64.2125 25.3889C63.8919 26.1681 63.8096 27.0248 63.9759 27.8508C64.1422 28.6768 64.5497 29.4349 65.1469 30.0293C65.744 30.6236 66.504 31.0276 67.3308 31.19C68.1575 31.3524 69.0139 31.2661 69.7915 30.9418C70.5692 30.6175 71.2332 30.07 71.6997 29.3683C72.1661 28.6667 72.414 27.8425 72.4121 26.9999C72.4202 26.4379 72.3152 25.8799 72.1032 25.3593C71.8913 24.8386 71.5767 24.366 71.1783 23.9694C70.7799 23.5729 70.3058 23.2606 69.7841 23.051C69.2625 22.8415 68.7041 22.7391 68.1421 22.7499ZM68.1421 29.5799C67.6256 29.616 67.1103 29.496 66.663 29.2353C66.2157 28.9747 65.8572 28.5855 65.6341 28.1184C65.4109 27.6512 65.3334 27.1278 65.4117 26.6161C65.49 26.1043 65.7204 25.628 66.073 25.249C66.4256 24.8699 66.8841 24.6057 67.3888 24.4907C67.8936 24.3757 68.4212 24.4152 68.9032 24.604C69.3852 24.7929 69.7993 25.1223 70.0916 25.5496C70.3838 25.9769 70.5408 26.4822 70.5421 26.9999C70.5582 27.3279 70.5084 27.6559 70.3958 27.9643C70.2831 28.2728 70.1099 28.5556 69.8862 28.7961C69.6625 29.0366 69.393 29.2298 69.0934 29.3644C68.7938 29.499 68.4704 29.5723 68.1421 29.5799ZM58.8221 22.7499C57.9795 22.7519 57.1565 23.0037 56.457 23.4734C55.7576 23.9432 55.2131 24.6098 54.8925 25.3889C54.5719 26.1681 54.4896 27.0248 54.6559 27.8508C54.8222 28.6768 55.2297 29.4349 55.8269 30.0293C56.424 30.6236 57.184 31.0276 58.0108 31.19C58.8375 31.3524 59.6939 31.2661 60.4715 30.9418C61.2492 30.6175 61.9132 30.07 62.3797 29.3683C62.8461 28.6667 63.094 27.8425 63.092 26.9999C63.1002 26.4379 62.9952 25.8799 62.7832 25.3593C62.5713 24.8386 62.2567 24.366 61.8583 23.9694C61.4599 23.5729 60.9858 23.2606 60.4641 23.051C59.9425 22.8415 59.3841 22.7391 58.8221 22.7499ZM58.8221 29.5799C58.3056 29.616 57.7903 29.496 57.343 29.2353C56.8957 28.9747 56.5372 28.5855 56.3141 28.1184C56.0909 27.6512 56.0134 27.1278 56.0917 26.6161C56.17 26.1043 56.4004 25.628 56.753 25.249C57.1056 24.8699 57.5641 24.6057 58.0688 24.4907C58.5736 24.3757 59.1012 24.4152 59.5832 24.604C60.0652 24.7929 60.4793 25.1223 60.7716 25.5496C61.0638 25.9769 61.2208 26.4822 61.2221 26.9999C61.2382 27.3279 61.1884 27.6559 61.0758 27.9643C60.9631 28.2728 60.7899 28.5556 60.5662 28.7961C60.3425 29.0366 60.073 29.2298 59.7734 29.3644C59.4738 29.499 59.1504 29.5723 58.8221 29.5799ZM47.7421 24.0599V25.8599H52.0621C51.9943 26.7077 51.6419 27.5077 51.0621 28.1299C50.6287 28.5714 50.1075 28.9171 49.5322 29.1444C48.9568 29.3718 48.3402 29.4759 47.7221 29.4499C46.449 29.4499 45.2281 28.9442 44.3279 28.044C43.4278 27.1439 42.9221 25.923 42.9221 24.6499C42.9221 23.3769 43.4278 22.156 44.3279 21.2558C45.2281 20.3556 46.449 19.8499 47.7221 19.8499C48.9425 19.8318 50.1209 20.2952 51.0021 21.1399L52.2721 19.8699C51.676 19.2804 50.9684 18.8158 50.1905 18.5033C49.4126 18.1908 48.5802 18.0366 47.7421 18.0499C46.8531 18.0153 45.9662 18.1605 45.1347 18.4769C44.3031 18.7932 43.544 19.2742 42.9028 19.8909C42.2616 20.5077 41.7515 21.2475 41.403 22.0661C41.0546 22.8847 40.875 23.7652 40.875 24.6549C40.875 25.5446 41.0546 26.4251 41.403 27.2437C41.7515 28.0623 42.2616 28.8022 42.9028 29.4189C43.544 30.0357 44.3031 30.5166 45.1347 30.833C45.9662 31.1493 46.8531 31.2945 47.7421 31.2599C48.5975 31.2941 49.4504 31.1469 50.245 30.8281C51.0395 30.5092 51.7576 30.0259 52.3521 29.4099C53.4022 28.2563 53.9617 26.7391 53.9121 25.1799C53.9156 24.8046 53.8855 24.4298 53.8221 24.0599H47.7421ZM93.0521 25.4599C92.7913 24.6927 92.3036 24.0227 91.6536 23.5388C91.0035 23.0548 90.2219 22.7797 89.4121 22.7499C88.8651 22.7489 88.3236 22.86 87.8213 23.0765C87.3189 23.2929 86.8663 23.6101 86.4914 24.0085C86.1165 24.4068 85.8273 24.8778 85.6417 25.3923C85.456 25.9068 85.3779 26.454 85.4121 26.9999C85.4035 27.9128 85.6905 28.8039 86.2302 29.5402C86.7698 30.2765 87.5332 30.8184 88.4063 31.0851C89.2794 31.3517 90.2153 31.3288 91.0743 31.0196C91.9332 30.7105 92.6691 30.1318 93.1721 29.3699L91.7221 28.3699C91.5059 28.7302 91.1993 29.0277 90.8327 29.2329C90.4661 29.4382 90.0522 29.544 89.632 29.5399C89.1986 29.5578 88.7699 29.4442 88.4023 29.214C88.0346 28.9837 87.7452 28.6477 87.5721 28.2499L93.2621 25.8999L93.0521 25.4599ZM87.2521 26.8799C87.2318 26.5693 87.2737 26.2578 87.3753 25.9635C87.477 25.6693 87.6363 25.3983 87.844 25.1664C88.0516 24.9346 88.3035 24.7464 88.5847 24.6131C88.866 24.4798 89.1711 24.4039 89.4821 24.3899C89.8043 24.3703 90.1251 24.4461 90.4044 24.608C90.6837 24.7699 90.909 25.0106 91.0521 25.2999L87.2521 26.8799ZM82.632 30.9999H84.5021V18.4999H82.632V30.9999ZM79.5721 23.6999H79.5021C79.2227 23.3818 78.8779 23.1277 78.4913 22.9551C78.1047 22.7825 77.6854 22.6955 77.2621 22.6999C76.1692 22.7529 75.1387 23.2243 74.384 24.0165C73.6293 24.8087 73.2084 25.8608 73.2084 26.9549C73.2084 28.049 73.6293 29.1012 74.384 29.8933C75.1387 30.6855 76.1692 31.1569 77.2621 31.2099C77.686 31.2184 78.1066 31.1332 78.4938 30.9603C78.8811 30.7875 79.2253 30.5312 79.5021 30.2099H79.5721V30.8199C79.5721 32.4499 78.7021 33.3199 77.3021 33.3199C76.8344 33.3096 76.3803 33.1606 75.9975 32.8918C75.6147 32.6229 75.3204 32.2464 75.1521 31.8099L73.5321 32.4799C73.8316 33.2322 74.3523 33.8758 75.0255 34.3258C75.6986 34.7757 76.4924 35.0108 77.3021 34.9999C79.4921 34.9999 81.3021 33.7099 81.3021 30.5699V22.9999H79.5721V23.6999ZM77.4221 29.5799C76.7669 29.5391 76.1519 29.25 75.7024 28.7716C75.2528 28.2932 75.0026 27.6614 75.0026 27.0049C75.0026 26.3485 75.2528 25.7167 75.7024 25.2383C76.1519 24.7598 76.7669 24.4708 77.4221 24.4299C77.7423 24.4437 78.0565 24.5218 78.3459 24.6596C78.6354 24.7973 78.8941 24.9918 79.1068 25.2316C79.3196 25.4714 79.4819 25.7515 79.5841 26.0553C79.6864 26.3591 79.7265 26.6803 79.702 26.9999C79.7293 27.3206 79.6913 27.6435 79.5902 27.9491C79.4891 28.2546 79.3271 28.5365 79.114 28.7777C78.9009 29.0189 78.6411 29.2143 78.3502 29.3522C78.0594 29.4901 77.7437 29.5676 77.4221 29.5799ZM101.812 18.4999H97.3321V30.9999H99.202V26.2599H101.812C102.345 26.2982 102.88 26.2263 103.384 26.0487C103.888 25.871 104.35 25.5915 104.741 25.2274C105.132 24.8634 105.444 24.4227 105.657 23.9328C105.871 23.4428 105.981 22.9142 105.981 22.3799C105.981 21.8456 105.871 21.317 105.657 20.8271C105.444 20.3372 105.132 19.8965 104.741 19.5324C104.35 19.1684 103.888 18.8888 103.384 18.7112C102.88 18.5336 102.345 18.4616 101.812 18.4999ZM101.812 24.4999H99.202V20.2399H101.852C102.133 20.2399 102.411 20.2953 102.671 20.4028C102.931 20.5104 103.167 20.668 103.365 20.8667C103.564 21.0654 103.722 21.3013 103.829 21.561C103.937 21.8206 103.992 22.0989 103.992 22.3799C103.992 22.661 103.937 22.9392 103.829 23.1989C103.722 23.4585 103.564 23.6944 103.365 23.8931C103.167 24.0918 102.931 24.2495 102.671 24.357C102.411 24.4646 102.133 24.5199 101.852 24.5199L101.812 24.4999ZM113.352 22.7099C112.671 22.6679 111.993 22.8265 111.401 23.1659C110.809 23.5054 110.33 24.0109 110.022 24.6199L111.672 25.3099C111.839 25.0093 112.089 24.7634 112.392 24.602C112.696 24.4405 113.04 24.3703 113.382 24.3999C113.619 24.3722 113.86 24.392 114.09 24.4582C114.319 24.5245 114.533 24.6358 114.72 24.7856C114.906 24.9355 115.06 25.1209 115.174 25.3311C115.288 25.5413 115.358 25.7721 115.382 26.0099V26.1299C114.781 25.8138 114.111 25.6491 113.432 25.6499C111.652 25.6499 109.832 26.6499 109.832 28.4699C109.85 28.8568 109.945 29.2361 110.112 29.5855C110.279 29.9348 110.515 30.247 110.805 30.5035C111.095 30.7601 111.433 30.9557 111.801 31.0787C112.168 31.2018 112.556 31.2498 112.942 31.2199C113.411 31.2459 113.879 31.1466 114.297 30.9322C114.715 30.7178 115.069 30.3961 115.322 29.9999H115.382V30.9999H117.182V26.1899C117.182 23.9999 115.522 22.7299 113.392 22.7299L113.352 22.7099ZM113.122 29.5599C112.512 29.5599 111.662 29.2499 111.662 28.4999C111.662 27.4999 112.722 27.1599 113.662 27.1599C114.256 27.1453 114.843 27.2903 115.362 27.5799C115.299 28.123 115.042 28.6249 114.637 28.9926C114.233 29.3604 113.709 29.569 113.162 29.5799L113.122 29.5599ZM123.742 22.9999L121.602 28.4199H121.542L119.322 22.9999H117.322L120.652 30.5799L118.752 34.7899H120.702L125.822 22.9999H123.742ZM106.942 30.9999H108.802V18.4999H106.942V30.9999Z" fill="white"/>
<path d="M10.4391 7.40789C10.1096 7.79751 9.94147 8.29835 9.96914 8.80789V30.9279C9.93512 31.4383 10.104 31.9414 10.4391 32.3279L10.5091 32.4079L22.8991 20.0179V19.7179L10.5091 7.33789L10.4391 7.40789Z" fill="url(#paint0_linear_5324_120631)"/>
<path d="M26.9984 24.1479L22.8984 20.0179V19.7179L26.9984 15.5879L27.0884 15.6479L31.9984 18.4279C33.3984 19.2179 33.3984 20.5179 31.9984 21.3179L27.1084 24.0979L26.9984 24.1479Z" fill="url(#paint1_linear_5324_120631)"/>
<path d="M27.1175 24.0872L22.8975 19.8672L10.4375 32.3272C10.7201 32.5787 11.0818 32.7234 11.4599 32.7362C11.8379 32.749 12.2086 32.629 12.5075 32.3972L27.1175 24.0872Z" fill="url(#paint2_linear_5324_120631)"/>
<path d="M27.1175 15.6476L12.5075 7.34764C12.2105 7.11256 11.8402 6.9897 11.4616 7.00068C11.083 7.01165 10.7204 7.15575 10.4375 7.40765L22.8975 19.8676L27.1175 15.6476Z" fill="url(#paint3_linear_5324_120631)"/>
<path opacity="0.2" d="M26.9975 23.998L12.5075 32.248C12.2194 32.4654 11.8684 32.5831 11.5075 32.5831C11.1466 32.5831 10.7956 32.4654 10.5075 32.248L10.4375 32.318L10.5075 32.398C10.7956 32.6154 11.1466 32.7331 11.5075 32.7331C11.8684 32.7331 12.2194 32.6154 12.5075 32.398L27.1175 24.088L26.9975 23.998Z" fill="white"/>
<path opacity="0.12" d="M10.4379 32.1873C10.1167 31.7907 9.95931 31.2863 9.99792 30.7773V30.9273C9.9639 31.4377 10.1328 31.9409 10.4679 32.3273L10.5379 32.2573L10.4379 32.1873Z" fill="white"/>
<path opacity="0.12" d="M32 21.1672L27 23.9972L27.09 24.0872L32 21.3072C32.2898 21.1846 32.5413 20.9862 32.7278 20.7328C32.9143 20.4794 33.0291 20.1803 33.06 19.8672C32.9975 20.1518 32.869 20.4177 32.6849 20.6435C32.5007 20.8693 32.2662 21.0487 32 21.1672Z" fill="white"/>
<path opacity="0.25" d="M12.5088 7.48814L31.9988 18.5681C32.2649 18.6867 32.4995 18.8661 32.6836 19.0919C32.8677 19.3177 32.9962 19.5836 33.0588 19.8681C33.0279 19.555 32.9131 19.256 32.7265 19.0025C32.54 18.7491 32.2886 18.5507 31.9988 18.4281L12.5088 7.34814C11.1188 6.54814 9.96875 7.20814 9.96875 8.80814V8.95814C9.99875 7.35814 11.1188 6.69814 12.5088 7.48814Z" fill="white"/>
<defs>
<linearGradient id="paint0_linear_5324_120631" x1="21.7991" y1="8.57789" x2="5.01914" y2="25.3579" gradientUnits="userSpaceOnUse">
<stop stop-color="#00A0FF"/>
<stop offset="0.01" stop-color="#00A1FF"/>
<stop offset="0.26" stop-color="#00BEFF"/>
<stop offset="0.51" stop-color="#00D2FF"/>
<stop offset="0.76" stop-color="#00DFFF"/>
<stop offset="1" stop-color="#00E3FF"/>
</linearGradient>
<linearGradient id="paint1_linear_5324_120631" x1="33.8284" y1="19.8679" x2="9.63844" y2="19.8679" gradientUnits="userSpaceOnUse">
<stop stop-color="#FFE000"/>
<stop offset="0.41" stop-color="#FFBD00"/>
<stop offset="0.78" stop-color="#FFA500"/>
<stop offset="1" stop-color="#FF9C00"/>
</linearGradient>
<linearGradient id="paint2_linear_5324_120631" x1="24.8275" y1="22.1672" x2="2.0675" y2="44.9172" gradientUnits="userSpaceOnUse">
<stop stop-color="#FF3A44"/>
<stop offset="1" stop-color="#C31162"/>
</linearGradient>
<linearGradient id="paint3_linear_5324_120631" x1="7.2975" y1="0.0476457" x2="17.4575" y2="10.2076" gradientUnits="userSpaceOnUse">
<stop stop-color="#32A071"/>
<stop offset="0.07" stop-color="#2DA771"/>
<stop offset="0.48" stop-color="#15CF74"/>
<stop offset="0.8" stop-color="#06E775"/>
<stop offset="1" stop-color="#00F076"/>
</linearGradient>
</defs>
</svg>
