<svg width="117" height="28" viewBox="0 0 117 28" fill="none" xmlns="http://www.w3.org/2000/svg">
<path d="M38.42 4.24021C38.4364 4.60693 38.3785 4.97319 38.2496 5.31691C38.1207 5.66063 37.9235 5.9747 37.67 6.24021C37.3859 6.5335 37.0431 6.7635 36.664 6.91515C36.2849 7.0668 35.878 7.13668 35.47 7.12021C35.0597 7.12935 34.6518 7.0542 34.2717 6.89939C33.8916 6.74459 33.5472 6.51342 33.26 6.22021C32.6773 5.62418 32.3511 4.82375 32.3511 3.99021C32.3511 3.15667 32.6773 2.35624 33.26 1.76021C33.7055 1.32489 34.2697 1.03095 34.8818 0.915297C35.4938 0.79965 36.1264 0.867461 36.7 1.11021C37.0606 1.25844 37.3823 1.48769 37.64 1.78021L37.11 2.31021C36.9114 2.07098 36.6598 1.88135 36.3751 1.75636C36.0904 1.63138 35.7805 1.57449 35.47 1.59021C35.078 1.59292 34.6927 1.6916 34.3477 1.87762C34.0026 2.06365 33.7084 2.33135 33.4907 2.65734C33.273 2.98332 33.1385 3.35767 33.0989 3.74765C33.0593 4.13763 33.1158 4.53137 33.2635 4.89447C33.4112 5.25756 33.6456 5.57895 33.9462 5.83055C34.2468 6.08215 34.6044 6.25629 34.9878 6.33775C35.3713 6.41921 35.7688 6.40552 36.1457 6.29787C36.5226 6.19022 36.8675 5.99189 37.15 5.72021C37.4555 5.38531 37.6326 4.95315 37.65 4.50021H35.47V3.78021H38.38C38.4028 3.93258 38.4161 4.0862 38.42 4.24021Z" fill="#777E90"/>
<path d="M43 1.74H40.3V3.64H42.76V4.36H40.3V6.26H43V7H39.52V1H43V1.74Z" fill="#777E90"/>
<path d="M46.2801 7H45.5101V1.74H43.8301V1H48.0001V1.74H46.2801V7Z" fill="#777E90"/>
<path d="M50.9399 7V1H51.7099V7H50.9399Z" fill="#777E90"/>
<path d="M55.1299 7H54.3599V1.74H52.6799V1H56.7999V1.74H55.1299V7Z" fill="#777E90"/>
<path d="M64.6099 6.22014C64.3211 6.5092 63.9781 6.73851 63.6006 6.89496C63.2232 7.05141 62.8185 7.13194 62.4099 7.13194C62.0013 7.13194 61.5967 7.05141 61.2192 6.89496C60.8417 6.73851 60.4987 6.5092 60.2099 6.22014C59.6446 5.61919 59.3298 4.82521 59.3298 4.00014C59.3298 3.17508 59.6446 2.38109 60.2099 1.78014C60.4925 1.48294 60.8344 1.24838 61.2133 1.09162C61.5923 0.934866 62 0.859413 62.4099 0.870144C62.8193 0.863668 63.2257 0.941063 63.604 1.09756C63.9824 1.25407 64.3247 1.48636 64.6099 1.78014C64.8975 2.07263 65.1235 2.41978 65.2746 2.80107C65.4258 3.18237 65.499 3.59008 65.4899 4.00014C65.503 4.41071 65.4317 4.8196 65.2803 5.20148C65.129 5.58335 64.9008 5.93007 64.6099 6.22014ZM60.7799 5.72014C60.9929 5.93602 61.2467 6.10743 61.5265 6.22443C61.8064 6.34142 62.1066 6.40166 62.4099 6.40166C62.7132 6.40166 63.0135 6.34142 63.2933 6.22443C63.5731 6.10743 63.8269 5.93602 64.0399 5.72014C64.4714 5.25127 64.7109 4.63734 64.7109 4.00014C64.7109 3.36294 64.4714 2.74902 64.0399 2.28014C63.8269 2.06427 63.5731 1.89285 63.2933 1.77586C63.0135 1.65887 62.7132 1.59862 62.4099 1.59862C62.1066 1.59862 61.8064 1.65887 61.5265 1.77586C61.2467 1.89285 60.9929 2.06427 60.7799 2.28014C60.3484 2.74902 60.1089 3.36294 60.1089 4.00014C60.1089 4.63734 60.3484 5.25127 60.7799 5.72014Z" fill="#777E90"/>
<path d="M66.5801 7V1H67.5101L70.4301 5.67V4.51V1H71.2001V7H70.4001L67.3501 2.11V3.26V7H66.5801Z" fill="#777E90"/>
<path d="M59.1401 15.7499C58.2976 15.7519 57.4745 16.0037 56.7751 16.4734C56.0756 16.9432 55.5312 17.6098 55.2106 18.3889C54.89 19.1681 54.8076 20.0248 54.9739 20.8508C55.1402 21.6768 55.5477 22.4349 56.1449 23.0293C56.7421 23.6236 57.5021 24.0276 58.3288 24.19C59.1556 24.3524 60.0119 24.2661 60.7896 23.9418C61.5672 23.6175 62.2313 23.07 62.6977 22.3683C63.1642 21.6667 63.4121 20.8425 63.4101 19.9999C63.4183 19.4379 63.3132 18.8799 63.1013 18.3593C62.8893 17.8386 62.5748 17.366 62.1764 16.9694C61.7779 16.5729 61.3038 16.2606 60.7822 16.051C60.2606 15.8415 59.7021 15.7391 59.1401 15.7499ZM59.1401 22.5799C58.6237 22.616 58.1083 22.496 57.6611 22.2353C57.2138 21.9747 56.8553 21.5855 56.6321 21.1184C56.409 20.6512 56.3315 20.1278 56.4098 19.6161C56.4881 19.1043 56.7185 18.628 57.0711 18.249C57.4237 17.8699 57.8821 17.6057 58.3869 17.4907C58.8916 17.3757 59.4193 17.4152 59.9013 17.604C60.3833 17.7929 60.7973 18.1223 61.0896 18.5496C61.3819 18.9769 61.5388 19.4822 61.5401 19.9999C61.5562 20.3279 61.5065 20.6559 61.3938 20.9643C61.2812 21.2728 61.1079 21.5556 60.8842 21.7961C60.6606 22.0366 60.391 22.2298 60.0914 22.3644C59.7919 22.499 59.4684 22.5723 59.1401 22.5799ZM49.8201 15.7499C48.9776 15.7519 48.1545 16.0037 47.4551 16.4734C46.7556 16.9432 46.2112 17.6098 45.8906 18.3889C45.57 19.1681 45.4876 20.0248 45.6539 20.8508C45.8202 21.6768 46.2277 22.4349 46.8249 23.0293C47.4221 23.6236 48.1821 24.0276 49.0088 24.19C49.8356 24.3524 50.6919 24.2661 51.4696 23.9418C52.2472 23.6175 52.9113 23.07 53.3777 22.3683C53.8442 21.6667 54.0921 20.8425 54.0901 19.9999C54.0982 19.4379 53.9932 18.8799 53.7813 18.3593C53.5693 17.8386 53.2548 17.366 52.8564 16.9694C52.4579 16.5729 51.9838 16.2606 51.4622 16.051C50.9406 15.8415 50.3821 15.7391 49.8201 15.7499ZM49.8201 22.5799C49.3037 22.616 48.7883 22.496 48.3411 22.2353C47.8938 21.9747 47.5353 21.5855 47.3121 21.1184C47.089 20.6512 47.0115 20.1278 47.0898 19.6161C47.1681 19.1043 47.3985 18.628 47.7511 18.249C48.1037 17.8699 48.5621 17.6057 49.0669 17.4907C49.5716 17.3757 50.0993 17.4152 50.5813 17.604C51.0633 17.7929 51.4773 18.1223 51.7696 18.5496C52.0619 18.9769 52.2188 19.4822 52.2201 19.9999C52.2362 20.3279 52.1865 20.6559 52.0738 20.9643C51.9612 21.2728 51.7879 21.5556 51.5642 21.7961C51.3406 22.0366 51.071 22.2298 50.7714 22.3644C50.4719 22.499 50.1484 22.5723 49.8201 22.5799ZM38.7401 17.0599V18.8599H43.0601C42.9924 19.7077 42.6399 20.5077 42.0601 21.1299C41.6268 21.5714 41.1056 21.9171 40.5302 22.1444C39.9549 22.3718 39.3382 22.4759 38.7201 22.4499C37.4471 22.4499 36.2262 21.9442 35.326 21.044C34.4258 20.1439 33.9201 18.923 33.9201 17.6499C33.9201 16.3769 34.4258 15.156 35.326 14.2558C36.2262 13.3556 37.4471 12.8499 38.7201 12.8499C39.9405 12.8318 41.119 13.2952 42.0001 14.1399L43.2701 12.8699C42.6741 12.2804 41.9664 11.8158 41.1886 11.5033C40.4107 11.1908 39.5783 11.0366 38.7401 11.0499C37.8511 11.0153 36.9643 11.1605 36.1327 11.4769C35.3012 11.7932 34.5421 12.2742 33.9009 12.8909C33.2596 13.5077 32.7495 14.2475 32.4011 15.0661C32.0527 15.8847 31.873 16.7652 31.873 17.6549C31.873 18.5446 32.0527 19.4251 32.4011 20.2437C32.7495 21.0623 33.2596 21.8022 33.9009 22.4189C34.5421 23.0357 35.3012 23.5166 36.1327 23.833C36.9643 24.1493 37.8511 24.2945 38.7401 24.2599C39.5955 24.2941 40.4485 24.1469 41.243 23.8281C42.0375 23.5092 42.7556 23.0259 43.3501 22.4099C44.4002 21.2563 44.9598 19.7391 44.9101 18.1799C44.9137 17.8046 44.8836 17.4298 44.8201 17.0599H38.7401ZM84.0501 18.4599C83.7893 17.6927 83.3016 17.0227 82.6516 16.5388C82.0016 16.0548 81.2199 15.7797 80.4101 15.7499C79.8631 15.7489 79.3217 15.86 78.8193 16.0765C78.317 16.2929 77.8644 16.6101 77.4895 17.0085C77.1146 17.4068 76.8254 17.8778 76.6397 18.3923C76.4541 18.9068 76.3759 19.454 76.4101 19.9999C76.4016 20.9128 76.6885 21.8039 77.2282 22.5402C77.7679 23.2765 78.5313 23.8184 79.4044 24.0851C80.2774 24.3517 81.2134 24.3288 82.0723 24.0196C82.9313 23.7105 83.6672 23.1318 84.1701 22.3699L82.7201 21.3699C82.5039 21.7302 82.1974 22.0277 81.8307 22.2329C81.4641 22.4382 81.0502 22.544 80.6301 22.5399C80.1967 22.5578 79.768 22.4442 79.4003 22.214C79.0327 21.9837 78.7432 21.6477 78.5701 21.2499L84.2601 18.8999L84.0501 18.4599ZM78.2501 19.8799C78.2298 19.5693 78.2717 19.2578 78.3734 18.9635C78.475 18.6693 78.6343 18.3983 78.842 18.1664C79.0497 17.9346 79.3015 17.7464 79.5828 17.6131C79.8641 17.4798 80.1691 17.4039 80.4801 17.3899C80.8023 17.3703 81.1231 17.4461 81.4024 17.608C81.6817 17.7699 81.907 18.0106 82.0501 18.2999L78.2501 19.8799ZM73.6301 23.9999H75.5001V11.4999H73.6301V23.9999ZM70.5701 16.6999H70.5001C70.2207 16.3818 69.876 16.1277 69.4894 15.9551C69.1028 15.7825 68.6835 15.6955 68.2601 15.6999C67.1673 15.7529 66.1367 16.2243 65.3821 17.0165C64.6274 17.8087 64.2064 18.8608 64.2064 19.9549C64.2064 21.049 64.6274 22.1012 65.3821 22.8933C66.1367 23.6855 67.1673 24.1569 68.2601 24.2099C68.6841 24.2184 69.1047 24.1332 69.4919 23.9603C69.8791 23.7875 70.2234 23.5312 70.5001 23.2099H70.5701V23.8199C70.5701 25.4499 69.7001 26.3199 68.3001 26.3199C67.8324 26.3096 67.3783 26.1606 66.9955 25.8918C66.6127 25.6229 66.3185 25.2464 66.1501 24.8099L64.5301 25.4799C64.8296 26.2322 65.3504 26.8758 66.0235 27.3258C66.6966 27.7757 67.4905 28.0108 68.3001 27.9999C70.4901 27.9999 72.3001 26.7099 72.3001 23.5699V15.9999H70.5701V16.6999ZM68.4201 22.5799C67.7649 22.5391 67.1499 22.25 66.7004 21.7716C66.2509 21.2932 66.0006 20.6614 66.0006 20.0049C66.0006 19.3485 66.2509 18.7167 66.7004 18.2383C67.1499 17.7598 67.7649 17.4708 68.4201 17.4299C68.7403 17.4437 69.0545 17.5218 69.344 17.6596C69.6334 17.7973 69.8922 17.9918 70.1049 18.2316C70.3176 18.4714 70.4799 18.7515 70.5822 19.0553C70.6844 19.3591 70.7245 19.6803 70.7001 19.9999C70.7274 20.3206 70.6893 20.6435 70.5883 20.9491C70.4872 21.2546 70.3252 21.5365 70.1121 21.7777C69.8989 22.0189 69.6391 22.2143 69.3483 22.3522C69.0575 22.4901 68.7417 22.5676 68.4201 22.5799ZM92.8101 11.4999H88.3301V23.9999H90.2001V19.2599H92.8101C93.3431 19.2982 93.8782 19.2263 94.3821 19.0487C94.886 18.871 95.348 18.5915 95.7391 18.2274C96.1302 17.8634 96.4422 17.4227 96.6555 16.9328C96.8688 16.4428 96.9788 15.9142 96.9788 15.3799C96.9788 14.8456 96.8688 14.317 96.6555 13.8271C96.4422 13.3372 96.1302 12.8965 95.7391 12.5324C95.348 12.1684 94.886 11.8888 94.3821 11.7112C93.8782 11.5336 93.3431 11.4616 92.8101 11.4999ZM92.8101 17.4999H90.2001V13.2399H92.8501C93.1311 13.2399 93.4094 13.2953 93.669 13.4028C93.9287 13.5104 94.1646 13.668 94.3633 13.8667C94.562 14.0654 94.7197 14.3013 94.8272 14.561C94.9347 14.8206 94.9901 15.0989 94.9901 15.3799C94.9901 15.661 94.9347 15.9392 94.8272 16.1989C94.7197 16.4585 94.562 16.6944 94.3633 16.8931C94.1646 17.0918 93.9287 17.2495 93.669 17.357C93.4094 17.4646 93.1311 17.5199 92.8501 17.5199L92.8101 17.4999ZM104.35 15.7099C103.669 15.6679 102.991 15.8265 102.399 16.1659C101.807 16.5054 101.328 17.0109 101.02 17.6199L102.67 18.3099C102.837 18.0093 103.087 17.7634 103.39 17.602C103.694 17.4405 104.038 17.3703 104.38 17.3999C104.617 17.3722 104.858 17.392 105.088 17.4582C105.317 17.5245 105.531 17.6358 105.718 17.7856C105.904 17.9355 106.058 18.1209 106.172 18.3311C106.286 18.5413 106.356 18.7721 106.38 19.0099V19.1299C105.779 18.8138 105.109 18.6491 104.43 18.6499C102.65 18.6499 100.83 19.6499 100.83 21.4699C100.848 21.8568 100.943 22.2361 101.11 22.5855C101.277 22.9348 101.513 23.247 101.803 23.5035C102.093 23.7601 102.432 23.9557 102.799 24.0787C103.166 24.2018 103.554 24.2498 103.94 24.2199C104.409 24.2459 104.877 24.1466 105.295 23.9322C105.714 23.7178 106.067 23.3961 106.32 22.9999H106.38V23.9999H108.18V19.1899C108.18 16.9999 106.52 15.7299 104.39 15.7299L104.35 15.7099ZM104.12 22.5599C103.51 22.5599 102.66 22.2499 102.66 21.4999C102.66 20.4999 103.72 20.1599 104.66 20.1599C105.254 20.1453 105.841 20.2903 106.36 20.5799C106.297 21.123 106.04 21.6249 105.635 21.9926C105.231 22.3604 104.707 22.569 104.16 22.5799L104.12 22.5599ZM114.74 15.9999L112.6 21.4199H112.54L110.32 15.9999H108.32L111.65 23.5799L109.75 27.7899H111.7L116.82 15.9999H114.74ZM97.9401 23.9999H99.8001V11.4999H97.9401V23.9999Z" fill="#23262F"/>
<path d="M1.44012 0.407892C1.11059 0.797512 0.94245 1.29835 0.970121 1.80789V23.9279C0.936095 24.4383 1.10502 24.9414 1.44012 25.3279L1.51012 25.4079L13.9001 13.0179V12.7179L1.51012 0.337891L1.44012 0.407892Z" fill="url(#paint0_linear_357_127874)"/>
<path d="M17.9999 17.1479L13.8999 13.0179V12.7179L17.9999 8.58789L18.0899 8.64789L22.9999 11.4279C24.3999 12.2179 24.3999 13.5179 22.9999 14.3179L18.1099 17.0979L17.9999 17.1479Z" fill="url(#paint1_linear_357_127874)"/>
<path d="M18.1199 17.0877L13.8999 12.8677L1.43994 25.3277C1.72252 25.5792 2.08421 25.7239 2.46229 25.7367C2.84038 25.7495 3.21102 25.6295 3.50994 25.3977L18.1199 17.0877Z" fill="url(#paint2_linear_357_127874)"/>
<path d="M18.1199 8.64764L3.50994 0.347644C3.21297 0.112559 2.84262 -0.0102976 2.46401 0.000676388C2.08541 0.0116503 1.7228 0.155753 1.43994 0.407645L13.8999 12.8676L18.1199 8.64764Z" fill="url(#paint3_linear_357_127874)"/>
<path opacity="0.2" d="M17.9999 16.9976L3.50994 25.2476C3.22189 25.465 2.87083 25.5826 2.50994 25.5826C2.14905 25.5826 1.798 25.465 1.50994 25.2476L1.43994 25.3176L1.50994 25.3976C1.798 25.615 2.14905 25.7326 2.50994 25.7326C2.87083 25.7326 3.22189 25.615 3.50994 25.3976L18.1199 17.0876L17.9999 16.9976Z" fill="#23262F"/>
<path opacity="0.12" d="M1.43988 25.1878C1.11867 24.7912 0.96126 24.2868 0.999878 23.7778V23.9278C0.965852 24.4382 1.13477 24.9414 1.46988 25.3278L1.53988 25.2578L1.43988 25.1878Z" fill="#23262F"/>
<path opacity="0.12" d="M23 14.1677L18 16.9977L18.09 17.0877L23 14.3077C23.2898 14.1851 23.5413 13.9867 23.7278 13.7333C23.9143 13.4799 24.0291 13.1808 24.06 12.8677C23.9975 13.1522 23.869 13.4181 23.6849 13.6439C23.5007 13.8698 23.2662 14.0491 23 14.1677Z" fill="#23262F"/>
<path opacity="0.25" d="M3.50997 0.487655L23 11.5677C23.2661 11.6862 23.5007 11.8656 23.6848 12.0914C23.869 12.3172 23.9975 12.5831 24.06 12.8677C24.0291 12.5545 23.9143 12.2555 23.7278 12.0021C23.5412 11.7486 23.2898 11.5502 23 11.4277L3.50997 0.347654C2.11997 -0.452346 0.969971 0.207655 0.969971 1.80765V1.95765C0.999971 0.357654 2.11997 -0.302345 3.50997 0.487655Z" fill="white"/>
<defs>
<linearGradient id="paint0_linear_357_127874" x1="12.8001" y1="1.57789" x2="-3.97988" y2="18.3579" gradientUnits="userSpaceOnUse">
<stop stop-color="#00A0FF"/>
<stop offset="0.01" stop-color="#00A1FF"/>
<stop offset="0.26" stop-color="#00BEFF"/>
<stop offset="0.51" stop-color="#00D2FF"/>
<stop offset="0.76" stop-color="#00DFFF"/>
<stop offset="1" stop-color="#00E3FF"/>
</linearGradient>
<linearGradient id="paint1_linear_357_127874" x1="24.8299" y1="12.8679" x2="0.639904" y2="12.8679" gradientUnits="userSpaceOnUse">
<stop stop-color="#FFE000"/>
<stop offset="0.41" stop-color="#FFBD00"/>
<stop offset="0.78" stop-color="#FFA500"/>
<stop offset="1" stop-color="#FF9C00"/>
</linearGradient>
<linearGradient id="paint2_linear_357_127874" x1="15.8299" y1="15.1677" x2="-6.93006" y2="37.9177" gradientUnits="userSpaceOnUse">
<stop stop-color="#FF3A44"/>
<stop offset="1" stop-color="#C31162"/>
</linearGradient>
<linearGradient id="paint3_linear_357_127874" x1="-1.70006" y1="-6.95235" x2="8.45994" y2="3.20764" gradientUnits="userSpaceOnUse">
<stop stop-color="#32A071"/>
<stop offset="0.07" stop-color="#2DA771"/>
<stop offset="0.48" stop-color="#15CF74"/>
<stop offset="0.8" stop-color="#06E775"/>
<stop offset="1" stop-color="#00F076"/>
</linearGradient>
</defs>
</svg>
