<svg width="148" height="26" viewBox="0 0 148 26" fill="none" xmlns="http://www.w3.org/2000/svg">
<g clip-path="url(#clip0_807_18211)">
<path d="M64.0359 12.9656C64.0359 16.5947 62.0751 19.0484 59.9324 19.0484C57.7898 19.0484 55.8287 16.5603 55.8287 12.9311C55.8287 9.30203 57.7898 6.81366 60.005 6.81366C62.2203 6.81366 64.0723 9.30203 64.0359 12.9656ZM66.433 13.0002C66.433 8.71443 63.5275 5.53472 59.9688 5.50028C56.4097 5.46563 53.3955 8.67999 53.3955 12.9311C53.3955 17.1823 56.3371 20.3272 59.8962 20.3272C63.4549 20.3272 66.3966 17.1477 66.3966 12.9656L66.433 13.0002ZM87.896 15.316H83.0661L85.5355 9.37112L87.896 15.316ZM92.2903 20.3276L86.4433 5.98413H85.4265L79.4346 20.2931H80.9598L82.4848 16.6298H88.4772L90.0024 20.2931L92.2903 20.3276ZM114.915 15.3506H110.086L112.555 9.40598L114.915 15.3506ZM119.383 20.3969L113.499 6.01858H112.483L106.491 20.3276H108.016L109.541 16.6642H115.533L117.058 20.3276L119.383 20.3969ZM148 20.3622L141.245 11.6178L147.455 5.98413H145.458L139.248 11.6178V5.98413H134.999V7.29752H137.105V20.3276H139.284V12.4475L145.349 20.3622H148ZM73.914 12.6892H72.3162V7.33196H73.914C75.875 7.33196 77.1099 8.4725 77.1099 9.99337C77.1099 11.514 75.875 12.6892 73.914 12.6892ZM74.8582 6.05323H68.0308V7.36661H70.1371V20.3622H72.3162V14.003H74.7856C77.4005 14.003 79.3251 12.2749 79.3251 9.99379C79.3251 7.71269 77.4367 6.01899 74.8582 6.01899V6.05323ZM99.0453 19.0144H97.8109V12.5859H99.3359C101.914 12.5859 103.113 14.0375 103.185 15.5928C103.258 17.1481 101.769 19.1181 99.0817 19.0144H99.0453ZM104.638 9.33668V5.98413H95.6314V19.0142H93.4525V20.3622H99.7349C103.621 20.3622 105.618 17.5628 105.473 15.4892C105.328 13.4154 103.294 11.8255 101.188 11.4107L100.534 11.3072C99.8803 11.2379 99.6623 11.3072 97.7738 11.2725V7.26328H103.258V9.37153L104.638 9.33668ZM44.4974 17.8048V8.43806L45.6596 8.54159C47.4388 8.88726 48.6735 10.6845 48.7099 13.0347C48.7463 15.3851 47.1846 17.4587 45.1874 17.7353L44.5338 17.8044L44.4974 17.8048ZM42.3911 8.40341V17.8048L41.7737 17.7357C39.7401 17.4591 38.2146 15.4199 38.251 13.0351C38.2874 10.6505 39.4859 8.88768 41.3015 8.54201L42.4273 8.43848L42.3911 8.40341ZM44.57 5.50028H40.2121V6.64083H42.3185V7.40105H41.6285C37.8516 7.60854 35.8542 10.1662 35.8542 13.104C35.8542 16.0418 38.1058 18.5648 41.6647 18.8065H42.3185V20.5H44.4612V18.8414H45.1512C48.7099 18.5646 50.9615 16.18 50.9615 13.1384C50.9615 10.0969 48.9641 7.64298 45.1874 7.4357H44.4974L44.57 5.50028ZM132.239 20.3622L132.311 6.01858H130.132V11.3412H123.959V5.98413H119.71V7.29752H121.816V20.3276H123.995V12.655H130.06V20.3622H132.239Z" fill="white"/>
<path d="M0 5.8083C0 2.91606 2.34293 0.571442 5.23308 0.571442H19.6241C22.5142 0.571442 24.8571 2.91606 24.8571 5.8083V10.4922C24.8571 10.8454 24.2905 10.995 24.096 10.7004C22.6433 8.50004 19.0037 4.33543 12.265 4.33543C5.6781 4.33543 2.22146 8.31463 0.799779 10.5488C0.60671 10.8522 0 10.7038 0 10.3441V5.8083Z" fill="white"/>
<path d="M0 15.3216V15.6522C0 15.9524 0.371598 16.1121 0.58993 15.9094C2.17114 14.441 6.77048 11.077 12.4286 11.077C18.0867 11.077 22.686 14.441 24.2672 15.9094C24.4855 16.1121 24.8571 15.9524 24.8571 15.6522V15.3216C24.8571 14.675 24.6792 14.0435 24.2878 13.5331C22.836 11.6395 18.6643 7.42862 12.4286 7.42862C6.19285 7.42862 2.02115 11.6395 0.569322 13.5331C0.177961 14.0435 0 14.675 0 15.3216Z" fill="white"/>
<path d="M0 19.1005V19.9733C0 20.1936 0.244236 20.345 0.465093 20.2632C1.91622 19.7256 6.61318 18.1719 12.4286 18.1719C18.244 18.1719 22.9409 19.7256 24.3921 20.2632C24.6129 20.345 24.8571 20.1936 24.8571 19.9733V19.1005C24.8571 18.7054 24.6633 18.3345 24.3049 18.1203C22.8688 17.2621 18.6889 15.1429 12.4286 15.1429C6.16828 15.1429 1.98831 17.2621 0.552285 18.1203C0.19388 18.3345 0 18.7054 0 19.1005Z" fill="white"/>
<path d="M3.92202 25.4286H20.5605C21.9524 25.4286 23.2447 24.4793 23.9742 22.921C24.0363 22.7882 23.9805 22.6162 23.8634 22.5917C22.604 22.3287 16.6737 21.1399 12.3673 21.1429C8.04737 21.1458 2.07867 22.3694 0.973172 22.6042C0.881999 22.6235 0.831456 22.7515 0.870158 22.8617C1.41956 24.4265 2.61097 25.4286 3.92202 25.4286Z" fill="white"/>
</g>
<defs>
<clipPath id="clip0_807_18211">
<rect width="148" height="26" fill="white"/>
</clipPath>
</defs>
</svg>
