<svg width="148" height="26" viewBox="0 0 148 26" fill="none" xmlns="http://www.w3.org/2000/svg">
<g clip-path="url(#clip0_12_120098)">
<path d="M64.0353 12.9656C64.0353 16.5947 62.0744 19.0484 59.9318 19.0484C57.7891 19.0484 55.8281 16.5603 55.8281 12.9311C55.8281 9.30203 57.7891 6.81366 60.0044 6.81366C62.2196 6.81366 64.0717 9.30203 64.0353 12.9656ZM66.4324 13.0002C66.4324 8.71443 63.5269 5.53472 59.9682 5.50028C56.4091 5.46563 53.3948 8.67999 53.3948 12.9311C53.3948 17.1823 56.3365 20.3272 59.8956 20.3272C63.4543 20.3272 66.396 17.1477 66.396 12.9656L66.4324 13.0002ZM87.8953 15.316H83.0654L85.5349 9.37112L87.8953 15.316ZM92.2896 20.3276L86.4427 5.98413H85.4259L79.4339 20.2931H80.9592L82.4842 16.6298H88.4766L90.0018 20.2931L92.2896 20.3276ZM114.915 15.3506H110.085L112.554 9.40598L114.915 15.3506ZM119.382 20.3969L113.499 6.01858H112.482L106.49 20.3276H108.015L109.541 16.6642H115.532L117.058 20.3276L119.382 20.3969ZM147.999 20.3622L141.245 11.6178L147.455 5.98413H145.457L139.247 11.6178V5.98413H134.998V7.29752H137.105V20.3276H139.284V12.4475L145.348 20.3622H147.999ZM73.9133 12.6892H72.3155V7.33196H73.9133C75.8744 7.33196 77.1092 8.4725 77.1092 9.99337C77.1092 11.514 75.8744 12.6892 73.9133 12.6892ZM74.8576 6.05323H68.0302V7.36661H70.1364V20.3622H72.3155V14.003H74.785C77.3998 14.003 79.3245 12.2749 79.3245 9.99379C79.3245 7.71269 77.436 6.01899 74.8576 6.01899V6.05323ZM99.0446 19.0144H97.8102V12.5859H99.3353C101.914 12.5859 103.112 14.0375 103.185 15.5928C103.257 17.1481 101.769 19.1181 99.0811 19.0144H99.0446ZM104.637 9.33668V5.98413H95.6307V19.0142H93.4519V20.3622H99.7342C103.62 20.3622 105.618 17.5628 105.472 15.4892C105.327 13.4154 103.293 11.8255 101.187 11.4107L100.533 11.3072C99.8796 11.2379 99.6616 11.3072 97.7732 11.2725V7.26328H103.257V9.37153L104.637 9.33668ZM44.4967 17.8048V8.43806L45.659 8.54159C47.4382 8.88726 48.6728 10.6845 48.7092 13.0347C48.7456 15.3851 47.184 17.4587 45.1868 17.7353L44.5331 17.8044L44.4967 17.8048ZM42.3905 8.40341V17.8048L41.7731 17.7357C39.7394 17.4591 38.214 15.4199 38.2504 13.0351C38.2868 10.6505 39.4852 8.88768 41.3008 8.54201L42.4267 8.43848L42.3905 8.40341ZM44.5693 5.50028H40.2114V6.64083H42.3179V7.40105H41.6279C37.851 7.60854 35.8535 10.1662 35.8535 13.104C35.8535 16.0418 38.1052 18.5648 41.6641 18.8065H42.3179V20.5H44.4605V18.8414H45.1506C48.7092 18.5646 50.9609 16.18 50.9609 13.1384C50.9609 10.0969 48.9634 7.64298 45.1868 7.4357H44.4967L44.5693 5.50028ZM132.238 20.3622L132.311 6.01858H130.132V11.3412H123.958V5.98413H119.709V7.29752H121.815V20.3276H123.994V12.655H130.059V20.3622H132.238Z" fill="#23262F"/>
<path d="M0 5.80815C0 2.91591 2.34293 0.571289 5.23308 0.571289H19.6241C22.5142 0.571289 24.8571 2.91591 24.8571 5.80815V10.492C24.8571 10.8452 24.2905 10.9949 24.096 10.7002C22.6433 8.49989 19.0037 4.33528 12.265 4.33528C5.6781 4.33528 2.22146 8.31447 0.799779 10.5487C0.60671 10.8521 0 10.7037 0 10.344V5.80815Z" fill="#23262F"/>
<path d="M0 15.3217V15.6523C0 15.9525 0.371598 16.1122 0.58993 15.9095C2.17114 14.4411 6.77048 11.0771 12.4286 11.0771C18.0867 11.0771 22.686 14.4411 24.2672 15.9095C24.4855 16.1122 24.8571 15.9525 24.8571 15.6523V15.3217C24.8571 14.6751 24.6792 14.0436 24.2878 13.5331C22.836 11.6396 18.6643 7.42871 12.4286 7.42871C6.19285 7.42871 2.02115 11.6396 0.569322 13.5331C0.177961 14.0436 0 14.6751 0 15.3217Z" fill="#E71313"/>
<path d="M0 19.1002V19.973C0 20.1933 0.244236 20.3448 0.465093 20.2629C1.91622 19.7253 6.61318 18.1716 12.4286 18.1716C18.244 18.1716 22.9409 19.7253 24.3921 20.2629C24.6129 20.3448 24.8571 20.1933 24.8571 19.973V19.1002C24.8571 18.7052 24.6633 18.3342 24.3049 18.12C22.8688 17.2619 18.6889 15.1426 12.4286 15.1426C6.16828 15.1426 1.98831 17.2619 0.552285 18.12C0.19388 18.3342 0 18.7052 0 19.1002Z" fill="#E71313"/>
<path d="M3.92241 25.4283H20.5609C21.9528 25.4283 23.2451 24.4791 23.9746 22.9208C24.0367 22.788 23.9809 22.6159 23.8638 22.5915C22.6044 22.3284 16.6741 21.1396 12.3677 21.1426C8.04777 21.1456 2.07907 22.3691 0.973569 22.6039C0.882396 22.6233 0.831853 22.7512 0.870555 22.8615C1.41996 24.4262 2.61136 25.4283 3.92241 25.4283Z" fill="#E71313"/>
</g>
<defs>
<clipPath id="clip0_12_120098">
<rect width="148" height="26" fill="white"/>
</clipPath>
</defs>
</svg>
