<?xml version="1.0" encoding="utf-8"?>
<!-- Generator: Adobe Illustrator 15.1.0, SVG Export Plug-In . SVG Version: 6.00 Build 0)  -->
<!DOCTYPE svg PUBLIC "-//W3C//DTD SVG 1.1//EN" "http://www.w3.org/Graphics/SVG/1.1/DTD/svg11.dtd">
<svg version="1.1" id="Слой_1" xmlns="http://www.w3.org/2000/svg" xmlns:xlink="http://www.w3.org/1999/xlink" x="0px" y="0px"
	 width="344px" height="81px" viewBox="0 167 344 81" enable-background="new 0 167 344 81" xml:space="preserve">
<g>
	<g>
		<path fill="#1D1D1B" d="M134.642,207.335c-0.028,9.097-4.728,15.309-9.784,15.28c-5.305-0.027-9.867-6.184-9.839-15.363
			c0.028-9.179,4.645-15.391,9.949-15.363C130.106,191.917,134.669,198.156,134.642,207.335 M140.385,207.445
			c0.055-10.746-6.926-18.798-15.418-18.826c-8.63-0.055-15.693,7.97-15.721,18.689c-0.055,10.581,7.008,18.552,15.583,18.606
			C133.24,225.941,140.358,217.943,140.385,207.445 M191.752,213.354l-11.681-0.055l5.909-14.923L191.752,213.354z M202.306,225.941
			l-14.126-36.113h-2.418l-14.319,35.976l3.655,0.028l3.627-9.152l14.319,0.055l3.627,9.18L202.306,225.941z M256.393,213.437
			l-11.68-0.056l5.881-14.923L256.393,213.437z M266.947,226.023l-14.127-36.113h-2.418l-14.292,36.003l3.655,0.027l3.6-9.152
			l14.348,0.055l3.627,9.18H266.947z M335.325,225.941l-16.104-21.932l14.841-14.126l-4.755-0.028l-14.841,14.126l0.055-14.181
			l-10.278-0.028l-0.028,3.271l5.058,0.027l-0.138,32.788l5.222,0.027l0.083-19.816l14.483,19.898L335.325,225.941z
			 M158.195,206.621l-3.82-0.027l0.055-13.439l3.82,0.027c4.672,0.027,7.613,2.886,7.613,6.706
			C165.835,203.899,162.867,206.648,158.195,206.621 M160.448,189.938l-16.27-0.083v3.271l5.057,0.028l-0.138,32.76l5.222,0.027
			l0.055-15.968l5.909,0.027c6.238,0.027,10.828-4.37,10.856-10.086C171.167,194.473,166.577,189.938,160.448,189.938
			 M218.273,222.561h-2.969v-16.16l3.629,0.027c6.156,0.027,9.041,3.656,9.18,7.585
			C228.277,218.383,224.787,222.836,218.273,222.561 M231.548,198.238v-8.41h-16.243l0,0h-5.139v32.732h-5.222v3.354h15.034
			c9.29,0,14.044-7.063,13.741-12.258c-0.33-5.827-5.193-9.207-10.224-10.224c-0.604-0.138-1.126-0.192-1.594-0.248
			c-1.539-0.137-2.034,0-6.624-0.055v-10.141l13.138-0.027v0.522v4.755H231.548z M87.865,219.565v-23.581
			c0.879,0.055,2.116,0.165,2.748,0.302c4.26,0.907,7.228,5.359,7.256,11.296c0.027,5.992-3.601,11.13-8.438,11.791
			C88.937,219.455,88.359,219.51,87.865,219.565 M82.725,195.957v23.553c-0.467-0.027-1.044-0.082-1.512-0.164
			c-4.837-0.66-8.492-5.771-8.437-11.791c0.027-5.964,2.996-10.417,7.255-11.296C80.636,196.122,81.818,196.012,82.725,195.957
			 M87.865,188.591H77.641v2.858h5.057v1.896c-0.577,0.027-1.237,0.055-1.622,0.083c-9.015,0.522-13.769,6.926-13.824,14.291
			c-0.055,7.613,5.359,13.687,13.852,14.347c0.44,0.027,1.072,0.027,1.594,0.027v4.287h5.139v-4.26c0.522,0,1.182,0,1.649-0.027
			c8.492-0.66,13.906-6.733,13.852-14.346c-0.055-7.366-4.81-13.797-13.824-14.319c-0.412-0.028-1.072-0.055-1.677-0.083v-4.755
			H87.865z M297.426,225.941l0.138-36.058l-5.194-0.028l-0.055,13.439l-14.484-0.055l0.055-13.439l-10.224-0.055v3.271l5.03,0.028
			l-0.11,32.76l5.194,0.028l0.082-19.267l14.484,0.055l-0.083,19.266L297.426,225.941z"/>
		<path fill="#E30A18" d="M47.849,227.617c-5.442-1.648-14.264-2.748-24.24-2.748c-9.702,0-18.332,1.018-23.801,2.611v4.013h48.014
			v-3.903L47.849,227.617z"/>
		<path fill="#E30A18" d="M23.883,204.944c9.784,0.028,18.854,5.14,23.965,10.471v-4.013c-5.524-7.942-14.236-13.082-24.048-13.082
			l0,0c-9.757,0.028-18.441,5.167-23.966,13.082v4.013c5.112-5.331,13.879-10.086,23.966-10.443l0,0c0,0,0,0.027,0.027,0.027l0,0
			h0.027c0.028,0.027,0.055,0.027,0.055-0.027C23.883,204.972,23.911,204.972,23.883,204.944L23.883,204.944L23.883,204.944
			L23.883,204.944L23.883,204.944L23.883,204.944z"/>
		<path fill="#E30A18" d="M23.773,218.246h0.055l0,0h0.055l0,0c9.756,0,17.864,2.227,23.938,5.194l0.027,0.027v-4.04
			c-5.937-4.672-14.182-7.558-24.021-7.832c-9.839,0.274-18.057,3.16-24.021,7.832v4.013l0.027-0.027
			C5.909,220.473,14.017,218.246,23.773,218.246L23.773,218.246z"/>
		<path fill="#1D1D1B" d="M47.849,207.912c-5.442-9.977-14.264-16.462-24.24-16.462c-9.702,0-18.332,6.156-23.801,15.693v-23.636
			h48.014v24.433h0.027V207.912z"/>
	</g>
</g>
</svg>
