<svg width="182" height="32" viewBox="0 0 182 32" fill="none" xmlns="http://www.w3.org/2000/svg">
<g clip-path="url(#clip0_807_18210)">
<path d="M78.8134 15.9577C78.8134 20.4243 76.4001 23.4443 73.763 23.4443C71.1259 23.4443 68.7123 20.3819 68.7123 15.9153C68.7123 11.4487 71.1259 8.38607 73.8524 8.38607C76.5788 8.38607 78.8583 11.4487 78.8134 15.9577ZM81.7637 16.0003C81.7637 10.7255 78.1877 6.81199 73.8078 6.7696C69.4274 6.72695 65.7175 10.6831 65.7175 15.9153C65.7175 21.1475 69.338 25.0181 73.7185 25.0181C78.0984 25.0181 81.7189 21.1048 81.7189 15.9577L81.7637 16.0003ZM108.18 18.8505H102.235L105.275 11.5337L108.18 18.8505ZM113.588 25.0186L106.392 7.36511H105.14L97.7656 24.9762H99.6429L101.52 20.4675H108.895L110.772 24.9762L113.588 25.0186ZM141.434 18.8931H135.49L138.529 11.5766L141.434 18.8931ZM146.932 25.1039L139.692 7.40751H138.44L131.066 25.0186H132.943L134.82 20.5098H142.195L144.072 25.0186L146.932 25.1039ZM182.154 25.0612L173.84 14.2988L181.483 7.36511H179.025L171.382 14.2988V7.36511H166.152V8.98159H168.745V25.0186H171.427V15.32L178.891 25.0612H182.154ZM90.9711 15.6175H89.0045V9.02397H90.9711C93.3847 9.02397 94.9045 10.4277 94.9045 12.2996C94.9045 14.1711 93.3847 15.6175 90.9711 15.6175ZM92.1332 7.45015H83.7303V9.06662H86.3226V25.0612H89.0045V17.2345H92.0438C95.2621 17.2345 97.6309 15.1076 97.6309 12.3001C97.6309 9.49257 95.3067 7.40801 92.1332 7.40801V7.45015ZM121.902 23.4024H120.383V15.4904H122.26C125.433 15.4904 126.908 17.2769 126.997 19.1911C127.087 21.1054 125.254 23.5301 121.947 23.4024H121.902ZM128.785 11.4913V7.36511H117.7V23.4021H115.019V25.0612H122.751C127.533 25.0612 129.992 21.6158 129.813 19.0637C129.634 16.5113 127.131 14.5544 124.538 14.044L123.734 13.9165C122.93 13.8312 122.661 13.9165 120.337 13.8739V8.93945H127.086V11.5342L128.785 11.4913ZM54.766 21.9136V10.3853L56.1965 10.5128C58.3863 10.9382 59.9058 13.1502 59.9506 16.0427C59.9954 18.9355 58.0734 21.4876 55.6153 21.828L54.8108 21.9131L54.766 21.9136ZM52.1737 10.3427V21.9136L51.4138 21.8286C48.9109 21.4881 47.0334 18.9784 47.0782 16.0432C47.123 13.1083 48.598 10.9387 50.8326 10.5133L52.2182 10.3858L52.1737 10.3427ZM54.8554 6.7696H49.4918V8.17335H52.0843V9.10901H51.2351C46.5866 9.36438 44.1282 12.5123 44.1282 16.128C44.1282 19.7437 46.8995 22.849 51.2796 23.1465H52.0843V25.2308H54.7215V23.1894H55.5707C59.9506 22.8487 62.7219 19.9138 62.7219 16.1704C62.7219 12.427 60.2635 9.40677 55.6153 9.15166H54.766L54.8554 6.7696ZM162.755 25.0612L162.845 7.40751H160.163V13.9584H152.565V7.36511H147.335V8.98159H149.928V25.0186H152.609V15.5754H160.074V25.0612H162.755Z" fill="white"/>
<path d="M0 7.14867C0 3.589 2.88361 0.703308 6.44072 0.703308H24.1527C27.7098 0.703308 30.5934 3.589 30.5934 7.14867V12.9135C30.5934 13.3481 29.896 13.5323 29.6566 13.1697C27.8687 10.4616 23.3892 5.33591 15.0954 5.33591C6.98843 5.33591 2.7341 10.2334 0.984344 12.9832C0.74672 13.3566 0 13.1739 0 12.7312V7.14867Z" fill="white"/>
<path d="M0 18.8573V19.2642C0 19.6337 0.457351 19.8303 0.726068 19.5807C2.67217 17.7735 8.33289 13.6332 15.2967 13.6332C22.2605 13.6332 27.9212 17.7735 29.8673 19.5807C30.1361 19.8303 30.5934 19.6337 30.5934 19.2642V18.8573C30.5934 18.0615 30.3744 17.2842 29.8927 16.656C28.1058 14.3256 22.9714 9.14288 15.2967 9.14288C7.62197 9.14288 2.48757 14.3256 0.700704 16.656C0.219028 17.2842 0 18.0615 0 18.8573Z" fill="white"/>
<path d="M0 23.5083V24.5825C0 24.8536 0.300598 25.04 0.572423 24.9393C2.35843 24.2777 8.13929 22.3654 15.2967 22.3654C22.4541 22.3654 28.235 24.2777 30.021 24.9393C30.2928 25.04 30.5934 24.8536 30.5934 24.5825V23.5083C30.5934 23.0221 30.3548 22.5656 29.9137 22.3019C28.1463 21.2457 23.0017 18.6374 15.2967 18.6374C7.59173 18.6374 2.44714 21.2457 0.679735 22.3019C0.238621 22.5656 0 23.0221 0 23.5083Z" fill="white"/>
<path d="M4.82708 31.2967H25.3052C27.0183 31.2967 28.6088 30.1284 29.5066 28.2105C29.5832 28.0471 29.5145 27.8353 29.3703 27.8052C27.8203 27.4815 20.5215 26.0183 15.2213 26.022C9.90445 26.0257 2.55835 27.5316 1.19774 27.8205C1.08552 27.8443 1.02332 28.0019 1.07095 28.1375C1.74714 30.0634 3.21348 31.2967 4.82708 31.2967Z" fill="white"/>
</g>
<defs>
<clipPath id="clip0_807_18210">
<rect width="182" height="32" fill="white"/>
</clipPath>
</defs>
</svg>
