<svg width="48" height="55" viewBox="0 0 48 55" fill="none" xmlns="http://www.w3.org/2000/svg">
<g filter="url(#filter0_d_1132_36862)">
<path fill-rule="evenodd" clip-rule="evenodd" d="M24 45C24 45 40 34.3636 40 21.9545C40 17.7231 38.3143 13.665 35.3137 10.673C32.3131 7.68092 28.2435 6 24 6C19.7565 6 15.6869 7.68092 12.6863 10.673C9.68571 13.665 8 17.7231 8 21.9545C8 34.3636 24 45 24 45ZM34 22C34 27.5228 29.5228 32 24 32C18.4772 32 14 27.5228 14 22C14 16.4772 18.4772 12 24 12C29.5228 12 34 16.4772 34 22Z" fill="#E71313"/>
<path d="M24 32C29.5228 32 34 27.5228 34 22C34 16.4772 29.5228 12 24 12C18.4772 12 14 16.4772 14 22C14 27.5228 18.4772 32 24 32Z" fill="white"/>
</g>
<defs>
<filter id="filter0_d_1132_36862" x="0" y="0" width="48" height="55" filterUnits="userSpaceOnUse" color-interpolation-filters="sRGB">
<feFlood flood-opacity="0" result="BackgroundImageFix"/>
<feColorMatrix in="SourceAlpha" type="matrix" values="0 0 0 0 0 0 0 0 0 0 0 0 0 0 0 0 0 0 127 0" result="hardAlpha"/>
<feOffset dy="2"/>
<feGaussianBlur stdDeviation="4"/>
<feComposite in2="hardAlpha" operator="out"/>
<feColorMatrix type="matrix" values="0 0 0 0 0 0 0 0 0 0 0 0 0 0 0 0 0 0 0.2 0"/>
<feBlend mode="normal" in2="BackgroundImageFix" result="effect1_dropShadow_1132_36862"/>
<feBlend mode="normal" in="SourceGraphic" in2="effect1_dropShadow_1132_36862" result="shape"/>
</filter>
</defs>
</svg>
