<svg width="1021" height="150" viewBox="0 0 1021 150" fill="none" xmlns="http://www.w3.org/2000/svg">
<mask id="mask0_590_11152" style="mask-type:alpha" maskUnits="userSpaceOnUse" x="0" y="0" width="1021" height="150">
<rect width="1021" height="150" rx="24" fill="white"/>
</mask>
<g mask="url(#mask0_590_11152)">
<path fill-rule="evenodd" clip-rule="evenodd" d="M653.908 207.277C541.436 94.8044 492.227 -63.0192 489.643 -177.91L447.299 -135.565C426.319 12.8203 471.541 166.658 584.026 279.143C696.505 391.622 849.345 435.847 997.743 414.878L1040.09 372.534C899.359 366.581 761.866 307.941 654.9 208.269L653.908 207.277ZM629.451 -317.72C674.122 -236.97 762.306 -124.097 876.78 -9.62232C991.255 104.852 1098.19 188.998 1178 234.622L1221.67 190.952L671.235 -359.48L629.451 -317.72ZM801.028 59.1634L802.024 60.1594L803.02 61.1555C896.724 156.919 1009.91 231.228 1134.1 278.526L1090.51 322.111C970.768 304.718 840.431 248.307 729.998 132.185C619.565 16.0633 557.447 -108.602 540.066 -228.333L583.652 -271.918C630.949 -147.736 705.264 -34.5406 801.028 59.1634Z" fill="#FAFAFB"/>
</g>
</svg>
