<svg width="395" height="341" viewBox="0 0 395 341" fill="none" xmlns="http://www.w3.org/2000/svg">
<path fill-rule="evenodd" clip-rule="evenodd" d="M182.366 0.504043C102.58 8.76217 34.4624 62.4549 9.87304 136.47C5.96283 148.241 2.8691 161.644 1.00676 174.883C-0.324827 184.351 -0.338918 218.224 0.98484 227.408C7.21926 270.662 27.233 310.358 58.6869 341.858C85.2779 368.486 118.969 387.645 153.793 395.941C179.685 402.108 209.846 402.658 238.063 397.476C320.771 382.287 385.426 313.435 398.498 226.624C400.471 213.52 400.507 184.793 398.565 172.14C394.398 144.975 384.43 117.556 370.867 95.946L366.145 88.4232L378.161 76.4092C384.77 69.8013 389.919 64.1701 389.604 63.895C389.29 63.6198 379.521 61.5321 367.896 59.2548C356.271 56.9774 346.368 54.722 345.889 54.243C345.411 53.7632 343.158 43.8463 340.884 32.2046C338.61 20.563 336.526 10.7801 336.251 10.4649C335.976 10.1498 330.353 15.3058 323.755 21.9239L311.76 33.9552L304.992 29.6772C282.702 15.5857 256.147 5.78865 228.944 1.61803C219.126 0.113636 192.335 -0.527634 182.366 0.504043ZM217.653 24.0249C242.467 26.4504 267.556 34.7242 289.478 47.7111L294.821 50.8775L284.977 60.7584C278.73 67.0284 275.131 71.232 275.131 72.2605C275.131 73.1511 276.364 79.9965 277.871 87.4715C279.377 94.9464 280.453 101.219 280.262 101.411C280.071 101.603 278.397 100.538 276.544 99.0457C262.984 88.1245 244.788 79.7472 225.472 75.5327C218.761 74.0683 215.158 73.8143 201.154 73.8143C187.023 73.8143 183.56 74.0628 176.495 75.5876C124.589 86.7871 86.1805 124.196 75.3509 174.099C73.0932 184.506 72.5507 207.283 74.2815 219.065C77.5491 241.309 87.3469 263.361 101.957 281.348C115.951 298.579 137.77 313.678 158.914 320.763C174.876 326.112 180.311 326.919 200.371 326.919C220.189 326.919 225.886 326.098 240.82 321.087C283.011 306.931 314.538 270.297 324.57 223.768C326.065 216.835 326.323 213.244 326.337 199.186C326.355 181.4 325.391 174.588 320.896 160.721C317.011 148.737 308.441 132.643 301.178 123.688C299.673 121.832 298.597 120.156 298.789 119.965C298.981 119.773 305.244 120.85 312.708 122.359C320.172 123.868 327.008 125.103 327.897 125.103C328.924 125.103 333.122 121.499 339.383 115.243L349.25 105.384L352.411 110.735C373.211 145.939 380.805 187.44 374.114 229.334C365.121 285.633 328.697 334.665 277.088 359.944C228.72 383.637 171.962 383.18 122.089 358.699C85.8133 340.893 58.2086 313.539 41.0185 278.365C28.4565 252.661 23.5208 230.563 23.5067 199.97C23.4965 176.677 26.0564 161 33.2357 140.39C41.9415 115.397 61.0072 87.223 81.1 69.657C112.309 42.3724 145.818 27.8976 187.455 23.7152C193.748 23.0834 209.688 23.2464 217.653 24.0249ZM324.022 67.5968L325.395 74.7668L332.554 76.1418C336.492 76.8976 340.329 77.7348 341.079 78.0021C342.16 78.3871 340.2 80.7319 331.655 89.2722L320.866 100.056L312.285 98.2727L303.704 96.4885L301.922 87.8956L300.141 79.3019L310.91 68.4975C319.438 59.9399 321.78 57.9769 322.164 59.0596C322.431 59.8114 323.267 63.6535 324.022 67.5968ZM224.639 99.4965C237.342 102.726 248.961 108.078 259.366 115.488L264.346 119.035L247.354 136.065L230.362 153.094L226.215 150.844C202.666 138.071 172.476 144.614 155.648 166.138C138.22 188.432 140.233 219.831 160.385 240.013C189.459 269.128 238.242 258.234 252.368 219.471C257.982 204.065 256.94 187.982 249.426 174.089L247.18 169.936L264.185 152.919L281.19 135.903L284.732 140.891C292.144 151.327 297.49 162.979 300.689 175.667C303.429 186.538 304.075 203.858 302.171 215.359C299.612 230.804 293.623 245.966 284.8 259.334C279.979 266.639 264.607 282.095 257.517 286.765C245.293 294.817 231.151 300.491 217.964 302.633C208.377 304.19 191.208 304.189 182.273 302.631C144.942 296.125 113.81 269.22 101.726 233.021C97.9996 221.859 96.6461 213.073 96.6492 200.063C96.6523 187.34 98.0286 178.09 101.444 167.828C106.325 153.163 113.611 141.136 124.397 129.939C141.347 112.344 160.976 102.058 185.889 97.7193C188.257 97.3061 196.183 97.0897 203.502 97.2379C214.575 97.4613 218.126 97.8408 224.639 99.4965ZM209.473 169.126C211.141 169.626 212.505 170.249 212.505 170.511C212.505 170.772 207.925 175.562 202.328 181.155C196.731 186.748 192.152 191.676 192.152 192.105C192.152 193.145 207.16 208.201 208.196 208.201C208.641 208.201 213.574 203.615 219.159 198.01C224.744 192.405 229.547 187.819 229.834 187.819C230.329 187.819 231.563 192.622 232.337 197.571C232.98 201.674 231.336 210.038 228.908 215.018C220.657 231.941 198.745 238.036 182.366 227.964C177.841 225.182 175.821 223.205 172.982 218.785C169.093 212.73 167.539 207.23 167.551 199.569C167.56 193.733 167.871 192.234 170.033 187.607C177.182 172.309 193.928 164.462 209.473 169.126Z" fill="#F8F8F8"/>
</svg>
