<svg width="354" height="323" viewBox="0 0 354 323" fill="none" xmlns="http://www.w3.org/2000/svg">
<path fill-rule="evenodd" clip-rule="evenodd" d="M152.631 0.44852C134.412 3.66501 118.613 16.8694 112.492 33.9927C111.534 36.6753 110.53 40.327 110.263 42.1082L109.777 45.3468H54.888H0V184.173V323H177H354V184.173V45.3468H299.112H244.223L243.737 42.1082C241.14 24.8095 226.675 8.31743 208.901 2.39002L202.236 0.168104L179.074 0.0189174C166.335 -0.0632735 154.435 0.130117 152.631 0.44852ZM198.509 21.1876C209.788 23.3238 219.566 32.1148 222.499 42.7568L223.213 45.3468H177H130.787L131.501 42.7568C134.359 32.389 144.223 23.3342 154.95 21.2297C159.284 20.3795 194.066 20.3456 198.509 21.1876ZM333.244 82.1255C333.23 98.2197 332.73 104.388 330.83 111.861C325.614 132.375 308.33 151.429 288.398 158.636C275.264 163.385 282.18 163.108 177 163.108C71.8198 163.108 78.736 163.385 65.602 158.636C47.6669 152.151 32.1476 136.637 25.2377 118.287C21.762 109.056 21.3154 105.616 20.9462 85.2336L20.5991 66.0672H176.928H333.258L333.244 82.1255ZM39.4662 168.437C46.8767 173.332 53.3385 176.541 61.1895 179.224C73.0692 183.284 76.3624 183.613 108.626 183.971L138.086 184.298L138.5 189.588C139.677 204.61 148.956 216.633 163.172 221.556C166.973 222.873 169.106 223.113 177 223.113C184.87 223.113 187.039 222.87 190.828 221.565C199.344 218.633 206.532 212.703 211.109 204.834C213.335 201.008 215.719 192.084 215.719 187.579V184.299L245.276 183.972C277.467 183.615 280.762 183.292 292.598 179.331C305.344 175.065 316.944 167.927 326.806 158.281L333.258 151.971V227.125V302.28H177H20.7422V227.125V151.971L27.1937 158.281C30.742 161.752 36.2649 166.321 39.4662 168.437ZM194.786 187.884C194.145 194.092 191.287 198.403 185.988 201.154C184.145 202.11 182.002 202.41 177 202.41C171.998 202.41 169.855 202.11 168.012 201.154C162.713 198.403 159.855 194.092 159.214 187.884L158.83 184.173H177H195.17L194.786 187.884ZM136.898 259.457V269.818H177H217.102V259.457V249.097H177H136.898V259.457Z" fill="#F8F8F8"/>
</svg>
