<svg width="406" height="275" viewBox="0 0 406 275" fill="none" xmlns="http://www.w3.org/2000/svg">
<path fill-rule="evenodd" clip-rule="evenodd" d="M47.5781 39.0484V77.7004H23.7891H0V89.927V102.154H35.6836H71.3672V71.5895V41.0252L119.738 89.1382L168.109 137.251L119.937 185.177L71.7637 233.103L71.5559 202.73L71.3489 172.358H35.6741H0V184.585V196.812H23.7891H47.5781V235.464V274.115H226.789H406V137.256V0.396484H226.789H47.5781V39.0484ZM304.895 84.0409C235.704 152.905 240.289 149.088 226.789 149.088C213.29 149.088 217.874 152.905 148.683 84.0409L88.42 24.061H226.789H365.158L304.895 84.0409ZM382.211 137.451V233.487L333.84 185.374L285.469 137.261L333.639 89.3378C360.133 62.9803 381.9 41.4149 382.01 41.4149C382.121 41.4149 382.211 84.631 382.211 137.451ZM0 137.256V149.483H47.5781H95.1562V137.256V125.029H47.5781H0V137.256ZM194.311 162.329C199.248 166.238 208.665 170.554 215.314 171.955C233.56 175.8 251.027 170.563 265.662 156.861L268.456 154.246L316.806 202.348L365.157 250.451H226.789H88.4208L136.772 202.348L185.123 154.246L187.916 156.861C189.452 158.299 192.331 160.76 194.311 162.329Z" fill="#F8F8F8"/>
</svg>
