<svg xmlns="http://www.w3.org/2000/svg" width="77.505" height="100" viewBox="0 0 77.505 100">
  <g id="Сгруппировать_13" data-name="Сгруппировать 13" transform="translate(0)">
    <path id="Контур_5" data-name="Контур 5" d="M205.534,1488.852c0-.245-.008-.493-.013-.763-.735,0-1.415,0-2.094-.005-.217,0-.482.1-.616-.194-.013-.025-.081-.033-.124-.036-.245,0-.493,0-.745,0l-.061.5h-5.5v-1.834h-1.8v-3.205H193.8c-.018,1.328.005,2.637-.015,3.948h-.909v-1.057H171.8l-.086-.626h-1.382v-1.9h-.551v1.033l-.53.064v1.449c-.232,0-.407.008-.581,0a2.855,2.855,0,0,0-1.17.189,10.457,10.457,0,0,1-1.407.4,3.655,3.655,0,0,1-1.665.06c-.086-.022-.2-.1-.215-.168s.071-.172.139-.227c.291-.232.3-.227.164-.586a4.989,4.989,0,0,1-.26-1.564.52.52,0,0,1,.336-.555,6.859,6.859,0,0,1,1.215-.532,1.345,1.345,0,0,0,1.046-1.019,5.729,5.729,0,0,0,.245-1.253,6.1,6.1,0,0,0-.3-2.14c-.2-.725-.475-1.432-.642-2.167a1.159,1.159,0,0,0-.717-.866c-.109-.05-.217-.094-.323-.147-.394-.2-.8-.387-1.175-.616a9.275,9.275,0,0,0-5.656-1.428,7.858,7.858,0,0,0-3.332.978,6.089,6.089,0,0,0-3.206,4.44,7.928,7.928,0,0,0,.485,4.179,9.986,9.986,0,0,1,.339,1.008c.177.7.149.753-.465,1.154-.412.27-.525.258-.778-.159a1.108,1.108,0,0,0-.682-.53,4.07,4.07,0,0,0-1.932-.066,5.527,5.527,0,0,0-3.052,2.014,11.763,11.763,0,0,0-1.74,2.925,16.991,16.991,0,0,0-1.473,6.035c-.061,1-.056,2.007-.1,3.013a5.8,5.8,0,0,1-.116,1.276c-.311,1.182-.629,1.389-1.639,1.466-.457.035-.917.015-1.377.03-.25.008-.5.033-.748.061a.7.7,0,0,0-.674.644c-.088.523-.22,1.041-.313,1.564a27.047,27.047,0,0,0-.546,5.633,4.97,4.97,0,0,0,.326,1.776,1.177,1.177,0,0,0,.892.778c.6.113,1.185.268,1.783.343a.78.78,0,0,1,.733.594c.051.168.1.336.159.546-.2.045-.371.092-.541.124-.581.111-1.16.23-1.74.323a.619.619,0,0,0-.553.6,7.732,7.732,0,0,0-.1,1.363q.1,1.9.288,3.8c.114,1.187.28,2.372.417,3.558a6.093,6.093,0,0,1,0,.644,1.891,1.891,0,0,1-.316.048.921.921,0,0,0-.92.695c-.177.436-.366.873-.5,1.327a10.267,10.267,0,0,0-.467,3.276c.035.935.28,1.125.988,1.372.141.05.28.092.419.146a.35.35,0,0,1,.247.417c-.1.641-.177,1.285-.3,1.922-.28,1.42-.6,2.832-.869,4.254a11.531,11.531,0,0,0-.2,1.932,7.4,7.4,0,0,0,.278,2.056,2.181,2.181,0,0,1-.258,1.791c-.144.224-.29.447-.442.664a4.32,4.32,0,0,0-.7,1.376,2.483,2.483,0,0,1-.687,1.122,3.152,3.152,0,0,0-.485.624c-.626,1.125-1.248,2.251-1.847,3.388a3.372,3.372,0,0,0-.318.958c-.076.407-.078.823-.114,1.233a4.98,4.98,0,0,1-.417,1.892c-.235.445-.472.886-.7,1.334-.318.616-.669,1.22-.932,1.862a2.809,2.809,0,0,0,.247,2.908.964.964,0,0,1,.172.9q-.5,1.928-1,3.863c-.462,1.8-.937,3.6-1.374,5.411a3.992,3.992,0,0,0-.058,1.275,1.71,1.71,0,0,0,1.488,1.637,3.1,3.1,0,0,0,.568.085c.96.038,1.92.078,2.88.089a5.513,5.513,0,0,0,1.831-.286c.642-.214.778-.445.745-1.124a3.561,3.561,0,0,0-.465-1.374,2.4,2.4,0,0,1-.258-1.107q.023-1.8,0-3.6a2.8,2.8,0,0,1,.212-1.08c.44-1.112.879-2.225,1.3-3.347a.422.422,0,0,1,.326-.317,7.148,7.148,0,0,1,1.005-.11c.841-.016.968-.091,1.288-.869a2.555,2.555,0,0,0,.144-.417c.131-.576.278-1.152.369-1.733a15.9,15.9,0,0,1,1.137-4.087c.225-.5.371-1.028.573-1.536a2.523,2.523,0,0,0,.091-1.94,2.215,2.215,0,0,1-.073-.347,1.393,1.393,0,0,1,.245-1.212,4.044,4.044,0,0,0,.4-.827,4.142,4.142,0,0,0,.144-.509,1.156,1.156,0,0,1,.568-.756,2.845,2.845,0,0,0,1.349-1.684,2.061,2.061,0,0,1,1.324-1.546c.015,0,.025-.019.038-.023a1.368,1.368,0,0,0,.791-1.1,7.988,7.988,0,0,0,.081-.882,5.226,5.226,0,0,1,.311-1.824c.6-1.619,1.172-3.253,1.814-4.859a27.1,27.1,0,0,1,1.276-2.629,2.8,2.8,0,0,1,1.45-1.291c.192.336.4.641.548.975a2.439,2.439,0,0,0,1.407,1.278c.356.142.7.316,1.064.445a1.69,1.69,0,0,1,.874.708q1.356,2.054,2.728,4.1c.548.824,1.086,1.657,1.657,2.468a2.011,2.011,0,0,0,1.662.88c.472.012.947.022,1.42.02a.567.567,0,0,1,.452.21,2.468,2.468,0,0,1,.677,2.124,20.94,20.94,0,0,0-.111,2.213,1.059,1.059,0,0,1-.174.48,1.617,1.617,0,0,1-.328.359,1.623,1.623,0,0,0-.5,1.571,13.785,13.785,0,0,1,.248,2.064,14.248,14.248,0,0,0,.136,1.763c.051.456.149.9.2,1.357.088.76.129,1.529.25,2.283a3.68,3.68,0,0,0,.96,2.107.5.5,0,0,1,.119.271c.033.247.048.5.063.748q.095,1.55.184,3.094c.02.354.008.713.051,1.064a2.215,2.215,0,0,1-.379,1.76,2.02,2.02,0,0,0-.386.932c-.167,1-.343,2.005-.5,3.014-.061.387-.086.778-.129,1.175a11.422,11.422,0,0,0,3.539.55l.172-.454a1.531,1.531,0,0,1,.268,0c.566.106,1.134.192,1.692.331.975.245,1.935.548,2.913.778a11.584,11.584,0,0,0,5.573-.007c.753-.192.773-.189.841-.95a1.509,1.509,0,0,0-.685-1.533,2.994,2.994,0,0,0-.589-.308c-.457-.161-.927-.3-1.392-.442a3.341,3.341,0,0,1-1.72-.95c-.21-.248-.462-.455-.682-.693a19.747,19.747,0,0,1-2.246-2.8,2.237,2.237,0,0,1-.3-.727,13.932,13.932,0,0,1-.068-2.92c.018-.737.109-1.473.126-2.208a1.2,1.2,0,0,1,.308-.887,1.025,1.025,0,0,0,.273-.77,2.345,2.345,0,0,1,.139-.679,2.273,2.273,0,0,0,.131-1.3c-.114-.445-.212-.892-.331-1.331a3.566,3.566,0,0,1-.116-1.877c.081-.313.154-.632.21-.953a11,11,0,0,0,.379-2.8,2.614,2.614,0,0,1,.157-1.263,1.465,1.465,0,0,0,.045-.529,8.67,8.67,0,0,1,.174-2.422,1.281,1.281,0,0,0,.053-.26,3.161,3.161,0,0,0-.235-2.062,1.823,1.823,0,0,1-.194-.585c-.091-.448-.164-.9-.237-1.349a.563.563,0,0,0-.515-.526.5.5,0,0,1-.414-.283,15.628,15.628,0,0,1-.945-1.7c-.536-1.313-1.026-2.645-1.493-3.984a24.579,24.579,0,0,0-5.5-9.02,2.222,2.222,0,0,1-.531-.7,6.188,6.188,0,0,1-.381-3.171c.147-.878.5-1.164,1.389-.742a8.1,8.1,0,0,0,.955.349.3.3,0,0,0,.382-.138c.066-.1.134-.195.2-.3a8.682,8.682,0,0,0,.967-2.562,23.706,23.706,0,0,0,.722-4.943c.03-.973.025-1.948-.005-2.92a2.28,2.28,0,0,0-1.344-2.172c-.174-.081-.339-.182-.51-.268a1.21,1.21,0,0,1-.571-.7,2.022,2.022,0,0,1,.6-1.765.655.655,0,0,1,.74-.1c.169.09.356.149.523.24.872.475,1.73.97,2.607,1.427,1.152.6,2.316,1.185,3.483,1.764.328.165.68.29,1.023.424a2.246,2.246,0,0,0,2.369-.343,21.658,21.658,0,0,0,3.756-3.754,4.446,4.446,0,0,0,.806-3.1c-.015-.305-.053-.611-.078-.9a.554.554,0,0,1,.114-.066c.328-.082.659-.161.99-.24.7-.167.621-.158.452-.747a14.872,14.872,0,0,1-.594-4.242.849.849,0,0,1,.445-.824,3.253,3.253,0,0,0,1.372-1.47,4.558,4.558,0,0,1,.392-.644.63.63,0,0,1,.245-.242,2.78,2.78,0,0,1,.94-.214c2.769.012,5.54.007,8.308.007h.563v-1.1h.985c.045.141.083.263.116.364h2.37l.078-.541h5.451c.028.195.051.364.078.566.258,0,.493.009.725,0,.061,0,.157-.05.172-.1.063-.205.225-.159.364-.159.637-.005,1.273,0,1.912-.005.126,0,.255-.015.409-.027C205.534,1489.352,205.536,1489.1,205.534,1488.852Zm-31.9,8.487a4.912,4.912,0,0,1-1.3-2.465h3.228A5.17,5.17,0,0,1,173.629,1497.339Zm2.577-3.326a.305.305,0,0,1-.215.111c-.768.008-1.536.005-2.3.005-.1,0-.2-.016-.326-.026v-.409c.184-.033.356-.059.528-.094.412-.078.548-.3.419-.7-.061-.193-.21-.373-.071-.581a.81.81,0,0,1,.644-.338,7.091,7.091,0,0,1,1.1-.038.655.655,0,0,1,.652.657A2.308,2.308,0,0,1,176.206,1494.013Z" transform="translate(-128.029 -1473.569)" fill="#fff"/>
  </g>
</svg>
