<svg xmlns="http://www.w3.org/2000/svg" width="15.501" height="20" viewBox="0 0 15.501 20">
  <g id="Сгруппировать_4" data-name="Сгруппировать 4" transform="translate(-128.029 -1473.569)">
    <path id="Контур_5" data-name="Контур 5" d="M143.53,1476.626c0-.049,0-.1,0-.153-.147,0-.283,0-.419,0-.043,0-.1.02-.123-.039,0-.005-.016-.007-.025-.007h-.149l-.012.1h-1.1v-.367h-.36v-.641h-.156c0,.266,0,.527,0,.79H141v-.211h-4.214l-.017-.125h-.276v-.381h-.11v.207l-.106.013v.29c-.046,0-.081,0-.116,0a.57.57,0,0,0-.234.038,2.087,2.087,0,0,1-.281.079.732.732,0,0,1-.333.012c-.017,0-.04-.02-.043-.034s.014-.034.028-.045c.058-.047.059-.046.033-.117a1,1,0,0,1-.052-.313.1.1,0,0,1,.067-.111,1.379,1.379,0,0,1,.243-.106.269.269,0,0,0,.209-.2,1.145,1.145,0,0,0,.049-.251,1.219,1.219,0,0,0-.06-.428c-.041-.145-.095-.286-.128-.433a.232.232,0,0,0-.143-.173c-.022-.01-.043-.019-.065-.029-.079-.04-.16-.077-.235-.123a1.856,1.856,0,0,0-1.131-.285,1.571,1.571,0,0,0-.666.2,1.218,1.218,0,0,0-.641.888,1.585,1.585,0,0,0,.1.836,2,2,0,0,1,.068.2c.035.141.03.151-.093.231-.082.054-.105.052-.156-.032a.221.221,0,0,0-.136-.106.814.814,0,0,0-.386-.013,1.106,1.106,0,0,0-.61.4,2.352,2.352,0,0,0-.348.585,3.4,3.4,0,0,0-.295,1.207c-.012.2-.011.4-.019.6a1.158,1.158,0,0,1-.023.255c-.062.237-.126.278-.328.293-.091.007-.183,0-.275.006-.05,0-.1.007-.15.012a.14.14,0,0,0-.135.129c-.018.1-.044.208-.063.313a5.41,5.41,0,0,0-.109,1.127.994.994,0,0,0,.065.355.235.235,0,0,0,.178.156c.119.023.237.054.357.069a.156.156,0,0,1,.147.119c.01.033.02.067.032.109-.041.009-.074.018-.108.025-.116.022-.232.046-.348.065a.124.124,0,0,0-.111.12,1.548,1.548,0,0,0-.02.273q.02.38.058.76c.023.237.056.474.083.712a1.218,1.218,0,0,1,0,.129.378.378,0,0,1-.063.01.184.184,0,0,0-.184.139c-.035.087-.073.175-.1.265a2.055,2.055,0,0,0-.093.655c.007.187.056.225.2.274l.084.029a.07.07,0,0,1,.049.083c-.02.128-.035.257-.061.385-.056.284-.121.566-.174.851a2.308,2.308,0,0,0-.041.386,1.479,1.479,0,0,0,.056.411.436.436,0,0,1-.052.358c-.029.045-.058.089-.088.133a.866.866,0,0,0-.14.275.5.5,0,0,1-.137.224.627.627,0,0,0-.1.125c-.125.225-.25.45-.369.677a.673.673,0,0,0-.064.192c-.015.081-.016.165-.023.247a1,1,0,0,1-.083.378c-.047.089-.094.177-.14.267-.064.123-.134.244-.186.372a.562.562,0,0,0,.049.582.193.193,0,0,1,.034.181q-.1.386-.2.772c-.092.36-.187.72-.275,1.082a.8.8,0,0,0-.012.255.342.342,0,0,0,.3.327.613.613,0,0,0,.114.017c.192.008.384.016.576.018a1.1,1.1,0,0,0,.366-.057c.128-.043.156-.089.149-.225a.712.712,0,0,0-.093-.275.48.48,0,0,1-.052-.221q0-.36,0-.719a.56.56,0,0,1,.042-.216c.088-.222.176-.445.26-.669a.084.084,0,0,1,.065-.063,1.408,1.408,0,0,1,.2-.022c.168,0,.194-.018.258-.174a.506.506,0,0,0,.029-.083c.026-.115.056-.23.074-.347a3.179,3.179,0,0,1,.227-.818c.045-.1.074-.206.115-.307a.5.5,0,0,0,.018-.388.443.443,0,0,1-.015-.069.279.279,0,0,1,.049-.242.809.809,0,0,0,.081-.165.837.837,0,0,0,.029-.1.231.231,0,0,1,.114-.151.57.57,0,0,0,.27-.337.412.412,0,0,1,.265-.309l.008,0a.274.274,0,0,0,.158-.221,1.6,1.6,0,0,0,.016-.176,1.044,1.044,0,0,1,.062-.365c.12-.324.234-.651.363-.972a5.42,5.42,0,0,1,.255-.526.561.561,0,0,1,.29-.258c.038.067.079.128.11.195a.488.488,0,0,0,.281.256c.071.028.14.063.213.089a.338.338,0,0,1,.175.141q.271.411.546.82c.11.165.217.331.331.494a.4.4,0,0,0,.332.176c.094,0,.189,0,.284,0a.113.113,0,0,1,.09.042.494.494,0,0,1,.135.425,4.188,4.188,0,0,0-.022.443.213.213,0,0,1-.035.1.326.326,0,0,1-.066.072.324.324,0,0,0-.1.314,2.753,2.753,0,0,1,.05.413,2.849,2.849,0,0,0,.027.353c.01.091.03.18.041.271.018.152.026.306.05.457a.737.737,0,0,0,.192.421.1.1,0,0,1,.024.054c.007.049.01.1.013.15q.019.31.037.619c0,.071,0,.142.01.213a.443.443,0,0,1-.076.352.4.4,0,0,0-.077.186c-.033.2-.069.4-.1.6-.012.077-.017.156-.026.235a2.284,2.284,0,0,0,.708.11l.034-.091a.311.311,0,0,1,.054,0c.113.021.227.038.338.066.2.049.387.11.583.156a2.317,2.317,0,0,0,1.115,0c.151-.038.155-.038.168-.19a.3.3,0,0,0-.137-.307.591.591,0,0,0-.118-.062c-.091-.032-.185-.06-.278-.088a.667.667,0,0,1-.344-.19c-.042-.049-.092-.091-.136-.138a3.951,3.951,0,0,1-.449-.56.447.447,0,0,1-.059-.145,2.786,2.786,0,0,1-.014-.584c0-.147.022-.295.025-.442a.239.239,0,0,1,.062-.177.205.205,0,0,0,.055-.154.468.468,0,0,1,.028-.136.455.455,0,0,0,.026-.26c-.023-.089-.042-.178-.066-.266a.713.713,0,0,1-.023-.375c.016-.063.031-.126.042-.191a2.2,2.2,0,0,0,.076-.56.523.523,0,0,1,.031-.253.293.293,0,0,0,.009-.106,1.735,1.735,0,0,1,.035-.484.255.255,0,0,0,.011-.052.632.632,0,0,0-.047-.412.365.365,0,0,1-.039-.117c-.018-.089-.033-.18-.047-.27a.113.113,0,0,0-.1-.105.1.1,0,0,1-.083-.057,3.136,3.136,0,0,1-.189-.341c-.107-.263-.205-.529-.3-.8a4.917,4.917,0,0,0-1.1-1.8.444.444,0,0,1-.106-.14,1.237,1.237,0,0,1-.076-.634c.029-.176.1-.233.278-.148a1.634,1.634,0,0,0,.191.07.061.061,0,0,0,.076-.028c.013-.02.027-.039.039-.059a1.737,1.737,0,0,0,.193-.512,4.742,4.742,0,0,0,.145-.989c.006-.194.005-.39,0-.584a.456.456,0,0,0-.269-.434c-.035-.016-.068-.036-.1-.054a.242.242,0,0,1-.114-.14.4.4,0,0,1,.12-.353.131.131,0,0,1,.148-.021c.034.018.071.03.1.048.174.1.346.194.521.285.23.121.463.237.7.353.066.033.136.058.2.085a.449.449,0,0,0,.474-.069,4.331,4.331,0,0,0,.751-.751.889.889,0,0,0,.161-.62c0-.061-.011-.122-.016-.179a.1.1,0,0,1,.023-.013l.2-.048c.141-.033.124-.032.09-.149a2.975,2.975,0,0,1-.119-.848.17.17,0,0,1,.089-.165.651.651,0,0,0,.274-.294.912.912,0,0,1,.078-.129.125.125,0,0,1,.049-.048.557.557,0,0,1,.188-.043c.554,0,1.108,0,1.662,0H141v-.221h.2l.023.073h.474l.016-.108h1.09c.006.039.01.073.016.113.052,0,.1,0,.145,0a.045.045,0,0,0,.034-.02c.013-.041.045-.032.073-.032h.382c.025,0,.051,0,.082-.005C143.53,1476.726,143.531,1476.676,143.53,1476.626Zm-6.381,1.7a.982.982,0,0,1-.261-.493h.646A1.035,1.035,0,0,1,137.149,1478.323Zm.515-.665a.06.06,0,0,1-.043.022c-.154,0-.307,0-.461,0-.02,0-.04,0-.065-.005v-.082l.106-.019c.082-.016.11-.059.084-.14-.012-.038-.042-.075-.014-.116a.162.162,0,0,1,.129-.068,1.434,1.434,0,0,1,.219-.008.131.131,0,0,1,.13.131A.461.461,0,0,1,137.665,1477.658Z" fill="#cecece"/>
  </g>
</svg>
