<svg id="Сгруппировать_12" data-name="Сгруппировать 12" xmlns="http://www.w3.org/2000/svg" width="100" height="100" viewBox="0 0 100 100">
  <path id="Контур_4" data-name="Контур 4" d="M225.047,1597.492c.1-.831,1.353-.52,1.453-2.2a88.919,88.919,0,0,0-.207-10.893c-.161-.791-2.186-3.1-2.727-3.811a6.849,6.849,0,0,1,1.9-3.045,7.546,7.546,0,0,0-.725-2.246l3.13-1.017c.036-1.789.237-8.965.12-11.231l-1.269-12.249.97-3.065.041-3.147c-2.7-1.548-2.352-1.718-4.228-1.705a27.089,27.089,0,0,1-5.571-.443c-2.073-.471-1.517-.806-3.792,1.51l-1.032-2.23c-3.245-.238-13.655-1.141-16.131-1.141-3.163,0-2.706.234-3.776,3.8l-4.54.463-.605-1.952-4.116-.046.437-.477c.8-.761.521-.456,1.151-1.8H168.98a4.773,4.773,0,0,1-2.729,2.159c-1.647.543-.832-.334-1.874.594-.779.694-.914.651-2.142.625-1.631-.03-3.307-.083-4.936-.148a12.723,12.723,0,0,1-2.3-.126c-1.113-.259-.791-.548-1.4-1.263l-24.593.5c-1.328,4.86-.008,2.4-.005,7.476l-.005,9.187c-.2,2.653-.9,4.006-.9,7.552,0,1.2-.268,3.935.312,4.873,1.024,1.655,1,3.057,1.43,5.45.383,2.126.8,1.9-.163,3.508l-.452,4.061,2.1,2.042.015,3.569c-1.249,1.138.151.327-2.495,2.223l.235,10.776,2.607,1.879-.546,9.187c-2.747,1.958-2.158,4.328-2.068,6.761l.334,9.164-.6,4.695c6.156,1.539,4.808,1.062,11.842,1.06a60.314,60.314,0,0,0,11.561-.676l.158,1.039c.955-.061,1.938-.112,2.878-.2,2.614-.253,1.57-.553,2.472-.877.651-.233,7.657,1.382,8.8,1.625a3.033,3.033,0,0,1,1.185-.978,34.7,34.7,0,0,0,3.327,4.266l2.538-2.365,4.44,1.711,1.3-1.085c.505.594.814,1.344,1.721,1.46,1.318.171,1.532-2,4.44-2.054l16.867-.557c.217-.207.345-.329.577-.555l.863-.7c1.108.664,1.58,1.3,3.1,1.2,4.652-.306,2.219,1.119,8.222.8,1.034-.058.779-.309,1.69-.628l1.948-.3c-.424-1.128-.695-.969-1.537-1.81l10.683,2.145c-.14-12.486-.115-27.718.043-40.567Zm-37.03-35.794,7.039-1.571a28.908,28.908,0,0,0,7.272-2.573c1.581.546,5.413,2.72,6.353,3.889.792.985.562,1.077.268,2.494l-1.557,12.107c-2.16.078-1.534-.177-2.872-1.067-2.244-1.5-9.945-7.144-12.419-9.124l-4.754-3.793C187.7,1561.738,187.225,1561.9,188.017,1561.7Zm-27,59.342c-4.346,1.486-8.306,3.864-12.09,2.588-.569-.189-3.146-2.633-4.328-3.461-.7-.488-1.363-.951-2.168-1.508-2.306-1.6-2.964-.5.095-7.578.8-1.852,1.478-3.52,2.239-5.335a55.339,55.339,0,0,1,2.357-5.446,25.1,25.1,0,0,1,2.558,1.966l7.685,7.076c1.6,1.516,5.707,5.631,7.285,7.455a20.479,20.479,0,0,1,2.336,2.6C166.692,1619.507,163.1,1620.325,161.013,1621.04Zm54.594-12.117c-1.274,5.734-2.875,8.163-5.467,13.678-3.723.144-6.661.116-10.3.061-1.18-.019-.889.226-1.532-.4-2.132-2.048-6.005-6.548-8.16-8.619-.743-.718-1.412-1.389-2.15-2.17-5.954-6.3-3.135-4.4-4.3-5.97l-11.983-11.248c-2.752-2.655-5.229-5.516-8.073-8.507-.733-.766-1.1-1.491-1.861-2.188l-.209-.19a2.853,2.853,0,0,1-.314-.332l-3.482-3.926a8.727,8.727,0,0,1-1-1.053l-3.13-3.207c-.689-.717-1.226-1.459-1.882-2.233l-2.992-3.151c-.444-.449-.766-.584-1.205-1.037-1.425-1.469-2.62-2.88-4.057-4.347-1.152-1.176-3.952-3.436-4.282-4.095,1.611-.9,2.471-.217,5.191-2.173.728-.524,2.405-.474,3.424-.334,1.057.144,3.485,2.155,4.6,2.833a23.538,23.538,0,0,1,4.019,3.354l1.432,2.3c1.974.1,1.626-.017,4.116,1.792l23.84,15.619c5.125,3.537,11.107,7.152,16.262,10.714l14.694,9.549A44.189,44.189,0,0,0,215.608,1608.923Z" transform="translate(-128.03 -1540.58)" fill="#e42929" fill-rule="evenodd"/>
</svg>
