<svg xmlns="http://www.w3.org/2000/svg" width="20" height="20" viewBox="0 0 20 20">
  <path id="Контур_4" data-name="Контур 4" d="M147.433,1551.963c.02-.166.271-.1.291-.439a17.784,17.784,0,0,0-.041-2.179,4.144,4.144,0,0,0-.545-.762,1.369,1.369,0,0,1,.38-.609,1.51,1.51,0,0,0-.145-.449l.626-.2c.007-.358.048-1.793.024-2.246l-.254-2.45.194-.613.008-.629c-.541-.31-.47-.344-.846-.341a5.413,5.413,0,0,1-1.114-.089c-.415-.094-.3-.161-.758.3l-.206-.446c-.649-.048-2.731-.228-3.226-.228-.633,0-.541.047-.755.76l-.908.093-.121-.39-.823-.009.087-.1c.161-.152.1-.091.23-.359H136.22a.955.955,0,0,1-.546.432c-.329.109-.166-.067-.375.119-.156.139-.183.13-.428.125-.326-.006-.661-.017-.987-.03a2.538,2.538,0,0,1-.461-.025c-.223-.052-.158-.11-.28-.253l-4.919.1c-.266.972,0,.48,0,1.5v1.837a12.511,12.511,0,0,0-.18,1.51,2.691,2.691,0,0,0,.062.974,2.8,2.8,0,0,1,.286,1.09c.077.425.16.381-.033.7l-.09.812.42.408,0,.714c-.25.228.03.065-.5.445l.047,2.155.521.376-.109,1.837c-.549.391-.432.865-.414,1.352l.067,1.833-.12.939a5.889,5.889,0,0,0,2.368.212,12.065,12.065,0,0,0,2.312-.135l.032.208c.191-.012.388-.022.576-.041.523-.051.314-.11.494-.175a14.082,14.082,0,0,1,1.76.325.607.607,0,0,1,.237-.2,6.949,6.949,0,0,0,.665.853l.508-.473.888.342.26-.217c.1.119.163.269.344.292.264.034.306-.4.888-.411l3.373-.112.115-.111.173-.139c.222.133.316.26.62.24.93-.061.444.224,1.644.16.207-.012.156-.062.338-.126l.39-.06c-.085-.226-.139-.194-.307-.362l2.137.429c-.028-2.5-.023-5.544.009-8.113Zm-7.406-7.159,1.408-.314a5.782,5.782,0,0,0,1.454-.515,4.3,4.3,0,0,1,1.271.778c.158.2.112.215.054.5l-.311,2.421c-.432.016-.307-.035-.574-.213-.449-.3-1.989-1.429-2.484-1.825l-.951-.759C139.963,1544.812,139.869,1544.845,140.027,1544.8Zm-5.4,11.868c-.869.3-1.661.773-2.418.518-.114-.038-.629-.527-.866-.692l-.434-.3c-.461-.32-.593-.1.019-1.516.16-.37.3-.7.448-1.067a11.068,11.068,0,0,1,.471-1.089,5,5,0,0,1,.512.393l1.537,1.415c.321.3,1.141,1.126,1.457,1.491a4.094,4.094,0,0,1,.467.52C135.762,1556.365,135.044,1556.529,134.626,1556.672Zm10.919-2.423a11.137,11.137,0,0,1-1.093,2.736c-.745.029-1.332.023-2.059.012-.236,0-.178.045-.306-.079-.426-.41-1.2-1.31-1.632-1.724-.149-.144-.282-.278-.43-.434-1.191-1.26-.627-.881-.86-1.194l-2.4-2.25c-.55-.531-1.046-1.1-1.615-1.7-.147-.153-.22-.3-.372-.438l-.042-.038a.578.578,0,0,1-.063-.066l-.7-.785a1.752,1.752,0,0,1-.2-.21l-.626-.641c-.138-.143-.245-.292-.376-.447l-.6-.63c-.089-.09-.153-.117-.241-.207-.285-.294-.524-.576-.811-.87-.23-.235-.79-.687-.856-.819.322-.18.494-.043,1.038-.435a1.168,1.168,0,0,1,.685-.067,4.6,4.6,0,0,1,.92.567,4.7,4.7,0,0,1,.8.671l.286.459c.395.019.325,0,.823.359l4.768,3.124c1.025.707,2.221,1.43,3.252,2.143l2.939,1.91A8.841,8.841,0,0,0,145.545,1554.249Z" transform="translate(-128.03 -1540.58)" fill="#e42929" fill-rule="evenodd"/>
</svg>
