<svg id="Сгруппировать_14" data-name="Сгруппировать 14" xmlns="http://www.w3.org/2000/svg" width="100" height="82.133" viewBox="0 0 100 82.133">
  <path id="Контур_6" data-name="Контур 6" d="M1316.285,1001.7l-54.73-78.572c-.4-.578-.789-1.172-1.226-1.714a.815.815,0,0,0-.634-.289c-.11.011-.223.385-.274.613a3.143,3.143,0,0,0-.017.672q0,9.452,0,18.9,0,9.354-.005,18.71a4,4,0,0,0,.629,2.425q13.737,19.685,27.444,39.4a2.835,2.835,0,0,0,2.529,1.369c8.576-.024,17.152-.015,25.728-.017a3.78,3.78,0,0,0,.5-.013c.555-.074.78-.353.415-.955C1316.535,1002.043,1316.408,1001.871,1316.285,1001.7Z" transform="translate(-1259.395 -921.079)" fill="#fe424f"/>
  <path id="Контур_7" data-name="Контур 7" d="M1589.558,938.469c0-5.408.008-10.815-.016-16.223a5.852,5.852,0,0,0-.34-1.364,6.52,6.52,0,0,0-1.044.858q-16.023,20.009-32.022,40.038c-1.417,1.772-2.84,3.541-4.238,5.328a2.771,2.771,0,0,0-.288.819c.252.083.5.18.754.243a1.76,1.76,0,0,0,.418.006c8.548,0,17.1-.013,25.644.011a2.859,2.859,0,0,0,2.449-1.174q3.853-4.882,7.772-9.711a3.98,3.98,0,0,0,.924-2.694C1589.545,949.228,1589.56,943.849,1589.558,938.469Z" transform="translate(-1489.572 -920.883)" fill="#fe424f"/>
</svg>
