<svg xmlns="http://www.w3.org/2000/svg" width="20" height="16.427" viewBox="0 0 20 16.427">
  <g id="Сгруппировать_5" data-name="Сгруппировать 5" transform="translate(-1259.395 -920.883)">
    <path id="Контур_6" data-name="Контур 6" d="M1272.449,937.233l-12.558-15.713c-.092-.116-.181-.234-.281-.343a.2.2,0,0,0-.145-.058c-.025,0-.051.077-.063.123a.547.547,0,0,0,0,.134q0,1.89,0,3.78,0,1.871,0,3.742a.723.723,0,0,0,.144.485q3.152,3.937,6.3,7.879a.679.679,0,0,0,.58.274q2.952-.007,5.9,0a1,1,0,0,0,.116,0c.127-.015.179-.07.1-.191C1272.507,937.3,1272.478,937.268,1272.449,937.233Z" transform="translate(0 -0.226)" fill="#fe424f"/>
    <path id="Контур_7" data-name="Контур 7" d="M1560.319,924.918c0-1.241,0-2.482,0-3.722a1.341,1.341,0,0,0-.078-.313,1.482,1.482,0,0,0-.24.2q-3.677,4.591-7.348,9.187c-.325.407-.652.813-.972,1.223a.634.634,0,0,0-.066.188c.058.019.114.041.173.056a.405.405,0,0,0,.1,0c1.961,0,3.923,0,5.884,0a.656.656,0,0,0,.562-.269q.884-1.12,1.783-2.228a.913.913,0,0,0,.212-.618C1560.316,927.387,1560.32,926.153,1560.319,924.918Z" transform="translate(-280.927 0)" fill="#fe424f"/>
  </g>
</svg>
