<svg width="30" height="18" viewBox="0 0 30 18" fill="none" xmlns="http://www.w3.org/2000/svg">
<path d="M19.0562 1.92548H10.9447V16.078H19.0562V1.92548Z" fill="#FF5F00"/>
<path d="M11.4593 9C11.4578 7.63718 11.7759 6.2919 12.3893 5.06611C13.0028 3.84031 13.8956 2.76614 15 1.925C13.6325 0.881155 11.9901 0.231915 10.2605 0.0515044C8.53092 -0.128907 6.78393 0.166791 5.21926 0.904793C3.65459 1.6428 2.33537 2.79332 1.41241 4.22485C0.489455 5.65639 0 7.31116 0 9C0 10.6888 0.489455 12.3436 1.41241 13.7751C2.33537 15.2067 3.65459 16.3572 5.21926 17.0952C6.78393 17.8332 8.53092 18.1289 10.2605 17.9485C11.9901 17.7681 13.6325 17.1188 15 16.075C13.8956 15.2339 13.0028 14.1597 12.3893 12.9339C11.7759 11.7081 11.4578 10.3628 11.4593 9Z" fill="#EB001B"/>
<path d="M29.9982 8.99993C29.9981 10.6887 29.5087 12.3434 28.5857 13.7749C27.6628 15.2064 26.3436 16.3569 24.779 17.0949C23.2144 17.8329 21.4674 18.1286 19.7379 17.9482C18.0083 17.7679 16.3659 17.1187 14.9984 16.0749C15.9548 15.3435 16.7534 14.4364 17.3487 13.4053C17.9439 12.3742 18.3242 11.2394 18.4676 10.0656C18.6111 8.89187 18.515 7.70217 18.1849 6.56447C17.8547 5.42677 17.297 4.36335 16.5435 3.43494C16.0905 2.87815 15.5719 2.37473 14.9984 1.93494C16.3652 0.891691 18.0067 0.242635 19.7353 0.0618902C21.4639 -0.118854 23.2101 0.175998 24.7744 0.912776C26.3386 1.64955 27.6579 2.79856 28.5816 4.22858C29.5053 5.6586 29.9962 7.31199 29.9982 8.99993Z" fill="#F79E1B"/>
</svg>
