<svg width="41" height="13" viewBox="0 0 41 13" fill="none" xmlns="http://www.w3.org/2000/svg">
<path fill-rule="evenodd" clip-rule="evenodd" d="M3.69886 0.00207537C4.05682 0.00207537 5.11364 -0.102903 5.56818 1.56675C5.87121 2.68985 6.35379 4.53196 7.01591 7.0931H7.28636C7.99697 4.39533 8.48485 2.55321 8.75 1.56675C9.20455 -0.122899 10.3409 0.00207537 10.7955 0.00207537H14.3023V11.9996H10.7284V4.93105H10.4886L8.49545 11.9996H5.80682L3.81364 4.92605H3.57386V11.9996H0V0.00207537H3.69886ZM19.4318 0.00207537V7.07935H19.717L22.1409 1.26181C22.269 0.930967 22.4721 0.641722 22.7307 0.421642C22.9893 0.201561 23.2948 0.0579779 23.6182 0.00457491H27.0773V12.0021H23.4273V4.92605H23.142L20.7659 10.7498C20.6285 11.082 20.4171 11.3706 20.1513 11.589C19.8856 11.8075 19.574 11.9487 19.2455 11.9996H15.7864V0.00207537H19.4318ZM39.6886 5.70588C39.1795 7.2918 37.5807 8.42782 35.8114 8.42782H31.9852V11.9996H28.5148V5.70588H39.6886Z" fill="#0F754E"/>
<path fill-rule="evenodd" clip-rule="evenodd" d="M35.9798 0.00280762H28.3344C28.5162 2.6735 30.6071 4.96053 32.773 4.96053H39.9321C40.3423 2.74224 38.9218 0.00280762 35.9798 0.00280762Z" fill="url(#paint0_linear_1433_65786)"/>
<defs>
<linearGradient id="paint0_linear_1433_65786" x1="39.9525" y1="2.44676" x2="28.2855" y2="2.44676" gradientUnits="userSpaceOnUse">
<stop stop-color="#1F5CD7"/>
<stop offset="1" stop-color="#02AEFF"/>
</linearGradient>
</defs>
</svg>
