<svg width="38" height="12" viewBox="0 0 38 12" fill="none" xmlns="http://www.w3.org/2000/svg">
<path d="M18.8065 0.201347L16.2689 11.8128H13.2023L15.7399 0.201347H18.8065ZM31.7198 7.69945L33.3363 3.34154L34.2622 7.69945H31.7198ZM35.1489 11.8128H38L35.5212 0.201347H32.9052C32.6249 0.19861 32.3502 0.27855 32.1169 0.430756C31.8836 0.582963 31.7025 0.800383 31.5973 1.05471L26.9924 11.8128H30.2158L30.8576 10.0774H34.7766L35.1489 11.8128ZM27.1393 8.02065C27.1393 4.95717 22.8088 4.78937 22.8382 3.41824C22.8382 3.00594 23.2546 2.56008 24.1413 2.4594C25.1797 2.36148 26.2258 2.54041 27.1688 2.97718L27.7027 0.517765C26.7853 0.17805 25.8129 0.00267097 24.832 0C21.7997 0 19.6687 1.57728 19.6491 3.83534C19.6491 5.50372 21.1726 6.43858 22.3336 6.9947C23.4946 7.55083 23.9306 7.92477 23.9257 8.43296C23.9257 9.21441 22.9754 9.55959 22.0887 9.57397C20.9924 9.59296 19.9088 9.34066 18.9387 8.84046L18.3852 11.3814C19.4782 11.7971 20.6417 12.0069 21.8143 11.9998C25.0377 11.9998 27.1491 10.4417 27.1589 8.02545L27.1393 8.02065ZM14.4221 0.206146L9.44975 11.8176H6.20675L3.75734 2.55049C3.73431 2.33423 3.65517 2.12734 3.52741 1.94945C3.39966 1.77156 3.22754 1.62859 3.02743 1.53413C2.06485 1.08136 1.04766 0.749524 0 0.546529L0.0734342 0.206146H5.29558C5.63689 0.206564 5.9669 0.326 6.22636 0.543017C6.48582 0.760034 6.65775 1.06043 6.71134 1.39031L7.99973 8.10216L11.1938 0.196548L14.4221 0.206146Z" fill="#1A33B0"/>
</svg>
