<svg width="119" height="27" viewBox="0 0 119 27" fill="none" xmlns="http://www.w3.org/2000/svg">
<path d="M0.824 26L1.272 0.079998H7.416L10.264 15.152L13.336 0.079998H19.256L19.704 26H15.64L15.16 8.752L12.152 26H8.536L5.336 8.624L4.952 26H0.824ZM26.9713 26.32C26.0326 26.32 25.2433 26.096 24.6033 25.648C23.9633 25.2 23.4833 24.6347 23.1633 23.952C22.8433 23.248 22.6833 22.5333 22.6833 21.808C22.6833 20.656 22.9073 19.6853 23.3553 18.896C23.8246 18.1067 24.4326 17.4453 25.1793 16.912C25.9259 16.3787 26.7473 15.9307 27.6433 15.568C28.5393 15.184 29.4246 14.8427 30.2993 14.544V12.688C30.2993 12.368 30.2673 12.0907 30.2033 11.856C30.1393 11.6 30.0326 11.408 29.8833 11.28C29.7339 11.1307 29.5099 11.056 29.2113 11.056C28.9126 11.056 28.6779 11.12 28.5073 11.248C28.3579 11.376 28.2513 11.5573 28.1873 11.792C28.1233 12.0053 28.0806 12.2507 28.0593 12.528L27.9313 13.872L23.0673 13.68C23.1739 11.4613 23.7606 9.82933 24.8273 8.784C25.9153 7.71733 27.5366 7.184 29.6913 7.184C31.5686 7.184 32.9659 7.70667 33.8833 8.752C34.8219 9.776 35.2913 11.1093 35.2913 12.752V21.392C35.2913 22.16 35.3019 22.832 35.3233 23.408C35.3659 23.984 35.4086 24.4853 35.4513 24.912C35.5153 25.3387 35.5686 25.7013 35.6113 26H30.9392C30.8753 25.5093 30.8006 24.976 30.7153 24.4C30.6299 23.824 30.5659 23.4827 30.5233 23.376C30.3099 24.144 29.9046 24.8267 29.3073 25.424C28.7313 26.0213 27.9526 26.32 26.9713 26.32ZM28.8273 22.8C29.0406 22.8 29.2326 22.7573 29.4033 22.672C29.5953 22.5867 29.7659 22.4693 29.9153 22.32C30.0646 22.1707 30.1926 22.0213 30.2993 21.872V16.816C29.8726 17.072 29.4779 17.3387 29.1153 17.616C28.7526 17.872 28.4433 18.16 28.1873 18.48C27.9313 18.8 27.7286 19.152 27.5793 19.536C27.4513 19.8987 27.3873 20.3147 27.3873 20.784C27.3873 21.4027 27.5153 21.8933 27.7713 22.256C28.0273 22.6187 28.3793 22.8 28.8273 22.8ZM38.414 26V7.504H43.63V26H38.414ZM38.382 4.368V0.751999H43.63V4.368H38.382ZM46.8508 26V7.504H52.0668V9.36C52.7494 8.67733 53.4534 8.144 54.1788 7.76C54.9254 7.376 55.7041 7.184 56.5148 7.184C57.2828 7.184 57.9121 7.376 58.4028 7.76C58.9148 8.12267 59.2988 8.63467 59.5548 9.296C59.8108 9.936 59.9388 10.672 59.9388 11.504V26H54.7548V12.24C54.7548 11.792 54.6801 11.4507 54.5308 11.216C54.3814 10.9813 54.1041 10.864 53.6988 10.864C53.4854 10.864 53.2294 10.928 52.9308 11.056C52.6534 11.1627 52.3654 11.3227 52.0668 11.536V26H46.8508ZM69.0855 26.32C67.7415 26.32 66.5895 26.0747 65.6295 25.584C64.6908 25.0933 63.9655 24.3893 63.4535 23.472C62.9415 22.5547 62.6855 21.4453 62.6855 20.144V13.36C62.6855 12.0373 62.9415 10.9173 63.4535 10C63.9655 9.08267 64.6908 8.38933 65.6295 7.92C66.5895 7.42933 67.7415 7.184 69.0855 7.184C70.4082 7.184 71.5282 7.38667 72.4455 7.792C73.3842 8.19733 74.0988 8.816 74.5895 9.648C75.0802 10.4587 75.3255 11.4933 75.3255 12.752V14.704H70.3015V12.592C70.3015 12.1013 70.2482 11.728 70.1415 11.472C70.0562 11.1947 69.9175 11.0027 69.7255 10.896C69.5548 10.7893 69.3415 10.736 69.0855 10.736C68.8295 10.736 68.6162 10.8107 68.4455 10.96C68.2748 11.088 68.1468 11.312 68.0615 11.632C67.9762 11.9307 67.9335 12.3573 67.9335 12.912V20.592C67.9335 21.424 68.0295 21.9893 68.2215 22.288C68.4348 22.5867 68.7335 22.736 69.1175 22.736C69.3948 22.736 69.6188 22.6827 69.7895 22.576C69.9602 22.448 70.0882 22.256 70.1735 22C70.2588 21.7227 70.3015 21.36 70.3015 20.912V18.448H75.3255V20.688C75.3255 21.9253 75.0695 22.9707 74.5575 23.824C74.0668 24.656 73.3522 25.2853 72.4135 25.712C71.4962 26.1173 70.3868 26.32 69.0855 26.32ZM81.8463 26.32C80.9076 26.32 80.1183 26.096 79.4783 25.648C78.8383 25.2 78.3583 24.6347 78.0383 23.952C77.7183 23.248 77.5583 22.5333 77.5583 21.808C77.5583 20.656 77.7823 19.6853 78.2303 18.896C78.6996 18.1067 79.3076 17.4453 80.0543 16.912C80.8009 16.3787 81.6223 15.9307 82.5183 15.568C83.4143 15.184 84.2996 14.8427 85.1743 14.544V12.688C85.1743 12.368 85.1423 12.0907 85.0783 11.856C85.0143 11.6 84.9076 11.408 84.7583 11.28C84.6089 11.1307 84.3849 11.056 84.0863 11.056C83.7876 11.056 83.5529 11.12 83.3823 11.248C83.2329 11.376 83.1263 11.5573 83.0623 11.792C82.9983 12.0053 82.9556 12.2507 82.9343 12.528L82.8063 13.872L77.9423 13.68C78.0489 11.4613 78.6356 9.82933 79.7023 8.784C80.7903 7.71733 82.4116 7.184 84.5663 7.184C86.4436 7.184 87.8409 7.70667 88.7583 8.752C89.6969 9.776 90.1663 11.1093 90.1663 12.752V21.392C90.1663 22.16 90.1769 22.832 90.1983 23.408C90.2409 23.984 90.2836 24.4853 90.3263 24.912C90.3903 25.3387 90.4436 25.7013 90.4863 26H85.8142C85.7503 25.5093 85.6756 24.976 85.5903 24.4C85.5049 23.824 85.4409 23.4827 85.3983 23.376C85.1849 24.144 84.7796 24.8267 84.1823 25.424C83.6063 26.0213 82.8276 26.32 81.8463 26.32ZM83.7023 22.8C83.9156 22.8 84.1076 22.7573 84.2783 22.672C84.4703 22.5867 84.6409 22.4693 84.7903 22.32C84.9396 22.1707 85.0676 22.0213 85.1743 21.872V16.816C84.7476 17.072 84.3529 17.3387 83.9903 17.616C83.6276 17.872 83.3183 18.16 83.0623 18.48C82.8063 18.8 82.6036 19.152 82.4543 19.536C82.3263 19.8987 82.2623 20.3147 82.2623 20.784C82.2623 21.4027 82.3903 21.8933 82.6463 22.256C82.9023 22.6187 83.2543 22.8 83.7023 22.8ZM93.321 26V7.504H98.537V10.576C99.1343 9.50933 99.7317 8.69867 100.329 8.144C100.926 7.568 101.652 7.28 102.505 7.28C102.676 7.28 102.825 7.29067 102.953 7.312C103.081 7.312 103.198 7.33333 103.305 7.376V12.56C103.07 12.4533 102.804 12.368 102.505 12.304C102.228 12.2187 101.929 12.176 101.609 12.176C101.012 12.176 100.457 12.336 99.945 12.656C99.433 12.976 98.9637 13.4133 98.537 13.968V26H93.321ZM109.507 26.32C108.142 26.32 107.086 25.84 106.339 24.88C105.592 23.92 105.219 22.5013 105.219 20.624V12.976C105.219 11.824 105.379 10.8213 105.699 9.968C106.019 9.09333 106.499 8.41067 107.139 7.92C107.779 7.42933 108.568 7.184 109.507 7.184C110.19 7.184 110.84 7.32267 111.459 7.6C112.078 7.856 112.643 8.208 113.155 8.656V0.079998H118.371V26H113.155V24.56C112.579 25.1147 111.982 25.552 111.363 25.872C110.744 26.1707 110.126 26.32 109.507 26.32ZM111.779 22.992C111.95 22.992 112.152 22.9493 112.387 22.864C112.643 22.7787 112.899 22.6613 113.155 22.512V10.832C112.942 10.7253 112.718 10.6293 112.483 10.544C112.248 10.4587 112.024 10.416 111.811 10.416C111.342 10.416 111 10.6187 110.787 11.024C110.574 11.408 110.467 11.8773 110.467 12.432V20.944C110.467 21.328 110.51 21.68 110.595 22C110.68 22.2987 110.819 22.544 111.011 22.736C111.203 22.9067 111.459 22.992 111.779 22.992Z" fill="#005EE1"/>
</svg>
