<svg fill="none" xmlns="http://www.w3.org/2000/svg">
<symbol id="copy" viewBox="0 0 15 17">
<path d="M5.7998 0.75H12.9998C13.6902 0.75 14.2498 1.30964 14.2498 2V11.4737C14.2498 12.164 13.6902 12.7237 12.9998 12.7237H5.7998C5.10945 12.7237 4.5498 12.164 4.5498 11.4737V2C4.5498 1.30964 5.10945 0.75 5.7998 0.75Z" stroke-width="1.5"/>
<rect x="0.75" y="4.27637" width="9.7" height="11.9737" rx="1.25" stroke-width="1.5"/>
</symbol>
<symbol id="arrow" viewBox="0 0 11 7">
<path d="M10 1L5.50004 5.5L1.00003 1" stroke-width="2" stroke-linecap="round" stroke-linejoin="round"/>
</symbol>
<symbol id="info-1" viewBox="0 0 14 14">
<circle cx="7" cy="7" r="7" fill="white"/>
<rect x="6" y="5.5" width="2" height="6" rx="1" fill="#FF7A00"/>
<rect x="6" y="2.5" width="2" height="2" rx="1" fill="#FF7A00"/>
</symbol>
<symbol id="info-2" viewBox="0 0 24 24">
<path d="M7.86 2H16.14L22 7.86V16.14L16.14 22H7.86L2 16.14V7.86L7.86 2Z" fill="white" stroke="#D4717F" stroke-width="1.5" stroke-linecap="round" stroke-linejoin="round"/>
<path d="M12 8V12" stroke="#D4717F" stroke-width="1.5" stroke-linecap="round" stroke-linejoin="round"/>
<path d="M12 16H12.01" stroke="#D4717F" stroke-width="1.5" stroke-linecap="round" stroke-linejoin="round"/>
</symbol>
<symbol id="switch-1" viewBox="0 0 24 24">
<path d="M3 12H21" stroke="#25282B" stroke-width="2" stroke-linecap="round" stroke-linejoin="round"/>
<path d="M3 6H21" stroke="#25282B" stroke-width="2" stroke-linecap="round" stroke-linejoin="round"/>
<path d="M3 18H11.5" stroke="#25282B" stroke-width="2" stroke-linecap="round" stroke-linejoin="round"/>
</symbol>
<symbol id="switch-2" viewBox="0 0 19 18">
<path d="M9.5 1V10.5M9.5 1L7 3.5M9.5 1L12 3.5" stroke="black" stroke-width="1.5" stroke-linecap="round" stroke-linejoin="round"/>
<path d="M1.25 14.915L9.47724 10.165M1.25 14.915L4.66506 15.8301M1.25 14.915L2.16506 11.5" stroke="black" stroke-width="1.5" stroke-linecap="round" stroke-linejoin="round"/>
<path d="M17.4771 14.915L9.24981 10.165M17.4771 14.915L14.062 15.8301M17.4771 14.915L16.562 11.5" stroke="black" stroke-width="1.5" stroke-linecap="round" stroke-linejoin="round"/>
</symbol>
<symbol id="like" viewBox="0 0 24 20">
<path d="M20.8401 2.61012C20.3294 2.09912 19.7229 1.69376 19.0555 1.4172C18.388 1.14064 17.6726 0.998291 16.9501 0.998291C16.2276 0.998291 15.5122 1.14064 14.8448 1.4172C14.1773 1.69376 13.5709 2.09912 13.0601 2.61012L12.0001 3.67012L10.9401 2.61012C9.90843 1.57842 8.50915 0.998826 7.05012 0.998826C5.59109 0.998826 4.19181 1.57842 3.16012 2.61012C2.12843 3.64181 1.54883 5.04108 1.54883 6.50012C1.54883 7.95915 2.12843 9.35842 3.16012 10.3901L4.22012 11.4501L12.0001 19.2301L19.7801 11.4501L20.8401 10.3901C21.3511 9.87936 21.7565 9.27293 22.033 8.60547C22.3096 7.93801 22.4519 7.2226 22.4519 6.50012C22.4519 5.77763 22.3096 5.06222 22.033 4.39476C21.7565 3.7273 21.3511 3.12087 20.8401 2.61012V2.61012Z"  stroke-width="1.5" stroke-linecap="round" stroke-linejoin="round"/>
</symbol>
<symbol id="compare" viewBox="0 0 28 24">
<path d="M10.5333 15.4668H1C1.48889 16.6224 3.12667 18.9335 5.76667 18.9335C8.40667 18.9335 10.0444 16.6224 10.5333 15.4668Z" stroke-width="1.5" stroke-linecap="round" stroke-linejoin="round"/>
<path d="M27.0001 15.4668H17.4668C17.9557 16.6224 19.5935 18.9335 22.2335 18.9335C24.8735 18.9335 26.5112 16.6224 27.0001 15.4668Z" stroke-width="1.5" stroke-linecap="round" stroke-linejoin="round"/>
<path d="M14 22.4001L14 1.6001" stroke-width="1.5" stroke-linecap="round" stroke-linejoin="round"/>
<path d="M11.4001 22.4001H16.6001" stroke-width="1.5" stroke-linecap="round" stroke-linejoin="round"/>
<path d="M6.1998 5.9334C12.3965 3.60624 15.8088 3.62503 21.7998 5.9334" stroke-width="1.5" stroke-linecap="round" stroke-linejoin="round"/>
<path d="M1 12.8668L5.76667 8.53345L10.5333 12.8668" stroke-width="1.5" stroke-linecap="round" stroke-linejoin="round"/>
<path d="M17.4668 12.8668L22.2335 8.53345L27.0001 12.8668" stroke-width="1.5" stroke-linecap="round" stroke-linejoin="round"/>
</symbol>
<symbol id="share" viewBox="0 0 24 24">
<path d="M18 8C19.6569 8 21 6.65685 21 5C21 3.34315 19.6569 2 18 2C16.3431 2 15 3.34315 15 5C15 6.65685 16.3431 8 18 8Z" stroke-width="1.5" stroke-linecap="round" stroke-linejoin="round"/>
<path d="M6 15C7.65685 15 9 13.6569 9 12C9 10.3431 7.65685 9 6 9C4.34315 9 3 10.3431 3 12C3 13.6569 4.34315 15 6 15Z" stroke-width="1.5" stroke-linecap="round" stroke-linejoin="round"/>
<path d="M18 22C19.6569 22 21 20.6569 21 19C21 17.3431 19.6569 16 18 16C16.3431 16 15 17.3431 15 19C15 20.6569 16.3431 22 18 22Z" stroke-width="1.5" stroke-linecap="round" stroke-linejoin="round"/>
<path d="M8.58984 13.51L15.4198 17.49" stroke-width="1.5" stroke-linecap="round" stroke-linejoin="round"/>
<path d="M15.4098 6.51001L8.58984 10.49" stroke-width="1.5" stroke-linecap="round" stroke-linejoin="round"/>
</symbol>
<symbol id="star" viewBox="0 0 16 16">
<path d="M7.53834 1.10996C7.70914 0.699317 8.29086 0.699318 8.46166 1.10996L10.2632 5.4415C10.3353 5.61462 10.4981 5.7329 10.685 5.74789L15.3612 6.12278C15.8045 6.15832 15.9843 6.71158 15.6465 7.00091L12.0837 10.0528C11.9413 10.1748 11.8791 10.3662 11.9226 10.5486L13.0111 15.1118C13.1143 15.5444 12.6437 15.8864 12.2642 15.6545L8.26063 13.2092C8.10062 13.1115 7.89938 13.1115 7.73937 13.2092L3.73584 15.6545C3.35629 15.8864 2.88567 15.5444 2.98886 15.1118L4.07736 10.5486C4.12086 10.3662 4.05868 10.1748 3.91628 10.0528L0.353469 7.00091C0.0157003 6.71158 0.195464 6.15832 0.638791 6.12278L5.31505 5.74789C5.50194 5.7329 5.66475 5.61462 5.73675 5.4415L7.53834 1.10996Z" />
</symbol>
<symbol id="cart" viewBox="0 0 21 21">
<path d="M7.47018 16.1016C6.181 16.1016 5.13232 17.1502 5.13232 18.4394C5.13232 19.7286 6.18104 20.7773 7.47018 20.7773C8.75936 20.7773 9.80803 19.7283 9.80803 18.4394C9.80803 17.1505 8.75936 16.1016 7.47018 16.1016ZM7.47018 19.3462C6.97039 19.3462 6.56366 18.9397 6.56366 18.4397C6.56366 17.9396 6.97039 17.5331 7.47018 17.5331C7.97021 17.5331 8.3767 17.9396 8.3767 18.4397C8.3767 18.9397 7.97021 19.3462 7.47018 19.3462Z"/>
<path d="M15.9631 16.1016C14.6737 16.1016 13.625 17.1503 13.625 18.4394C13.625 19.7286 14.6737 20.7773 15.9631 20.7773C17.252 20.7773 18.301 19.7285 18.301 18.4394C18.301 17.1503 17.252 16.1016 15.9631 16.1016ZM15.9631 19.3459C15.4631 19.3459 15.0563 18.9392 15.0563 18.4394C15.0563 17.9396 15.4631 17.5331 15.9631 17.5331C16.4629 17.5331 16.8696 17.9394 16.8696 18.4394C16.8696 18.9394 16.4631 19.3459 15.9631 19.3459Z"/>
<path d="M6.44453 15.3861H17.5852C17.9807 15.3861 18.3008 15.0657 18.3008 14.6705C18.3008 14.2752 17.9805 13.9548 17.5852 13.9548H7.0531L5.00412 1.38686C4.95499 1.08579 4.72073 0.84917 4.42038 0.79692L1.67696 0.319794C1.28642 0.252033 0.916914 0.512803 0.849153 0.902099C0.781152 1.29168 1.04216 1.66214 1.43146 1.7299L3.67317 2.11972L5.7381 14.7854C5.79471 15.1321 6.09362 15.3861 6.44453 15.3861Z"/>
<path d="M20.0243 4.94527C19.8895 4.76038 19.6749 4.65112 19.4461 4.65112H4.89404V6.08246H18.4644L16.9922 10.6627H5.91985V12.0941H17.514C17.8246 12.0941 18.1001 11.8932 18.1953 11.5974L20.1276 5.58575C20.1975 5.36799 20.1591 5.12993 20.0243 4.94527Z"/>
</symbol>
<symbol id="order" viewBox="0 0 24 24" fill="none">
<path d="M16 3H1V16H16V3Z" stroke-width="1.5" stroke-linecap="round" stroke-linejoin="round"/>
<path d="M16 8H20L23 11V16H16V8Z" stroke-width="1.5" stroke-linecap="round" stroke-linejoin="round"/>
<path d="M5.5 21C6.88071 21 8 19.8807 8 18.5C8 17.1193 6.88071 16 5.5 16C4.11929 16 3 17.1193 3 18.5C3 19.8807 4.11929 21 5.5 21Z" stroke-width="1.5" stroke-linecap="round" stroke-linejoin="round"/>
<path d="M18.5 21C19.8807 21 21 19.8807 21 18.5C21 17.1193 19.8807 16 18.5 16C17.1193 16 16 17.1193 16 18.5C16 19.8807 17.1193 21 18.5 21Z" stroke-width="1.5" stroke-linecap="round" stroke-linejoin="round"/>
</symbol>
<symbol id="cube" viewBox="0 0 24 24" fill="none">
<path d="M16.5 9.39996L7.5 4.20996" stroke-width="1.5" stroke-linecap="round" stroke-linejoin="round"/>
<path d="M21 15.9999V7.9999C20.9996 7.64918 20.9071 7.30471 20.7315 7.00106C20.556 6.69742 20.3037 6.44526 20 6.2699L13 2.2699C12.696 2.09437 12.3511 2.00195 12 2.00195C11.6489 2.00195 11.304 2.09437 11 2.2699L4 6.2699C3.69626 6.44526 3.44398 6.69742 3.26846 7.00106C3.09294 7.30471 3.00036 7.64918 3 7.9999V15.9999C3.00036 16.3506 3.09294 16.6951 3.26846 16.9987C3.44398 17.3024 3.69626 17.5545 4 17.7299L11 21.7299C11.304 21.9054 11.6489 21.9979 12 21.9979C12.3511 21.9979 12.696 21.9054 13 21.7299L20 17.7299C20.3037 17.5545 20.556 17.3024 20.7315 16.9987C20.9071 16.6951 20.9996 16.3506 21 15.9999Z" stroke-width="1.5" stroke-linecap="round" stroke-linejoin="round"/>
<path d="M3.27002 6.95996L12 12.01L20.73 6.95996" stroke-width="1.5" stroke-linecap="round" stroke-linejoin="round"/>
<path d="M12 22.08V12" stroke-width="1.5" stroke-linecap="round" stroke-linejoin="round"/>
</symbol>
<symbol id="key" viewBox="0 0 24 24" fill="none">
<path d="M14.6999 6.29998C14.5166 6.48691 14.414 6.73823 14.414 6.99998C14.414 7.26173 14.5166 7.51305 14.6999 7.69998L16.2999 9.29998C16.4868 9.48321 16.7381 9.58584 16.9999 9.58584C17.2616 9.58584 17.5129 9.48321 17.6999 9.29998L21.4699 5.52998C21.9727 6.64117 22.1249 7.87921 21.9063 9.07913C21.6877 10.279 21.1086 11.3838 20.2461 12.2463C19.3837 13.1087 18.2789 13.6878 17.079 13.9064C15.8791 14.1251 14.641 13.9728 13.5299 13.47L6.61986 20.38C6.22203 20.7778 5.68246 21.0013 5.11986 21.0013C4.55725 21.0013 4.01768 20.7778 3.61986 20.38C3.22203 19.9822 2.99854 19.4426 2.99854 18.88C2.99854 18.3174 3.22203 17.7778 3.61986 17.38L10.5299 10.47C10.027 9.35879 9.87477 8.12075 10.0934 6.92083C10.312 5.72092 10.8911 4.61614 11.7536 3.7537C12.616 2.89127 13.7208 2.31215 14.9207 2.09352C16.1206 1.8749 17.3587 2.02714 18.4699 2.52998L14.7099 6.28998L14.6999 6.29998Z" stroke-width="1.5" stroke-linecap="round" stroke-linejoin="round"/>
</symbol>
<symbol id="more" viewBox="0 0 14 14">
<circle cx="7" cy="7" r="7" fill="#D0D0D0"/>
<path d="M6.37471 8.875L7.92037 8.40988C7.76581 8.27907 7.6534 8.03198 7.6534 7.79942C7.6534 6.57849 10 6.4186 10 4.29651C10 2.94477 8.88993 2 7.07728 2C5.86885 2 4.74473 2.49419 4 3.40988L5.13817 4.73256C5.57377 4.18023 6.16393 3.8314 6.86651 3.8314C7.63934 3.8314 7.97658 4.2093 7.97658 4.65988C7.97658 5.66279 5.91101 5.86628 5.91101 7.5814C5.91101 8.09012 6.07963 8.5407 6.37471 8.875ZM7.04918 12C7.66745 12 8.18735 11.4622 8.18735 10.8227C8.18735 10.1831 7.66745 9.64535 7.04918 9.64535C6.43091 9.64535 5.91101 10.1831 5.91101 10.8227C5.91101 11.4622 6.43091 12 7.04918 12Z" fill="white"/>
</symbol>
<symbol id="camera" viewBox="0 0 24 24">
<path d="M23 19C23 19.5304 22.7893 20.0391 22.4142 20.4142C22.0391 20.7893 21.5304 21 21 21H3C2.46957 21 1.96086 20.7893 1.58579 20.4142C1.21071 20.0391 1 19.5304 1 19V8C1 7.46957 1.21071 6.96086 1.58579 6.58579C1.96086 6.21071 2.46957 6 3 6H7L9 3H15L17 6H21C21.5304 6 22.0391 6.21071 22.4142 6.58579C22.7893 6.96086 23 7.46957 23 8V19Z" stroke="#25282B" stroke-width="2" stroke-linecap="round" stroke-linejoin="round"/>
<path d="M12 17C14.2091 17 16 15.2091 16 13C16 10.7909 14.2091 9 12 9C9.79086 9 8 10.7909 8 13C8 15.2091 9.79086 17 12 17Z" stroke="#25282B" stroke-width="2" stroke-linecap="round" stroke-linejoin="round"/>
</symbol>
<symbol id="call" viewBox="0 0 24 24">
<path d="M15.0499 5C16.0267 5.19057 16.9243 5.66826 17.628 6.37194C18.3317 7.07561 18.8094 7.97326 18.9999 8.95M15.0499 1C17.0792 1.22544 18.9715 2.13417 20.4162 3.57701C21.8608 5.01984 22.7719 6.91101 22.9999 8.94M21.9999 16.92V19.92C22.0011 20.1985 21.944 20.4742 21.8324 20.7293C21.7209 20.9845 21.5572 21.2136 21.352 21.4019C21.1468 21.5901 20.9045 21.7335 20.6407 21.8227C20.3769 21.9119 20.0973 21.9451 19.8199 21.92C16.7428 21.5856 13.7869 20.5341 11.1899 18.85C8.77376 17.3147 6.72527 15.2662 5.18993 12.85C3.49991 10.2412 2.44818 7.27099 2.11993 4.18C2.09494 3.90347 2.12781 3.62476 2.21643 3.36162C2.30506 3.09849 2.4475 2.85669 2.6347 2.65162C2.82189 2.44655 3.04974 2.28271 3.30372 2.17052C3.55771 2.05833 3.83227 2.00026 4.10993 2H7.10993C7.59524 1.99522 8.06572 2.16708 8.43369 2.48353C8.80166 2.79999 9.04201 3.23945 9.10993 3.72C9.23656 4.68007 9.47138 5.62273 9.80993 6.53C9.94448 6.88792 9.9736 7.27691 9.89384 7.65088C9.81408 8.02485 9.6288 8.36811 9.35993 8.64L8.08993 9.91C9.51349 12.4135 11.5864 14.4864 14.0899 15.91L15.3599 14.64C15.6318 14.3711 15.9751 14.1858 16.3491 14.1061C16.723 14.0263 17.112 14.0555 17.4699 14.19C18.3772 14.5286 19.3199 14.7634 20.2799 14.89C20.7657 14.9585 21.2093 15.2032 21.5265 15.5775C21.8436 15.9518 22.0121 16.4296 21.9999 16.92Z" stroke-width="2" stroke-linecap="round" stroke-linejoin="round"/>
</symbol>
<symbol id="ok" viewBox="0 0 15 10">
<path d="M1.5 5L5.5 9L13.5 1" stroke-width="2" stroke-linecap="round" stroke-linejoin="round"/>
</symbol>
<symbol id="arrow-2" viewBox="0 0 13 20">
<path d="M11 1L3 10L11 19" stroke-width="3"/>
</symbol>
<symbol id="info-3" viewBox="0 0 14 14">
<circle cx="7" cy="7" r="7" fill="#D4717F"/>
<rect x="6" y="5.5" width="2" height="6" rx="1" fill="white"/>
<rect x="6" y="2.5" width="2" height="2" rx="1" fill="white"/>
</symbol>
<symbol id="moregab" viewBox="0 0 24 24">
<path d="M10 12H21"  stroke-width="2" stroke-linecap="round" stroke-linejoin="round"/>
<path d="M10 6H21" stroke-width="2" stroke-linecap="round" stroke-linejoin="round"/>
<path d="M10 18H21" stroke-width="2" stroke-linecap="round" stroke-linejoin="round"/>
<path d="M3 12H5" stroke-width="2" stroke-linecap="round" stroke-linejoin="round"/>
<path d="M3 6H5" stroke-width="2" stroke-linecap="round" stroke-linejoin="round"/>
<path d="M3 18H5" stroke-width="2" stroke-linecap="round" stroke-linejoin="round"/>
</symbol>
<symbol id="close" viewBox="0 0 20 20">
<path d="M2 2L10 10L2 18" stroke-width="3" stroke-linecap="round"/>
<path d="M18 2L10 10L18 18" stroke-width="3" stroke-linecap="round"/>
</symbol>
<symbol id="close2" viewBox="0 0 24 24">
<path d="M12 22C17.5228 22 22 17.5228 22 12C22 6.47715 17.5228 2 12 2C6.47715 2 2 6.47715 2 12C2 17.5228 6.47715 22 12 22Z" stroke-width="2" stroke-linecap="round" stroke-linejoin="round"/>
<path d="M15 9L9 15" stroke-width="2" stroke-linecap="round" stroke-linejoin="round"/>
<path d="M9 9L15 15" stroke-width="2" stroke-linecap="round" stroke-linejoin="round"/>
</symbol>
<symbol id="file" viewBox="0 0 24 24">
<path d="M21.4398 11.0499L12.2498 20.2399C11.124 21.3658 9.59699 21.9983 8.0048 21.9983C6.41262 21.9983 4.88565 21.3658 3.7598 20.2399C2.63396 19.1141 2.00146 17.5871 2.00146 15.9949C2.00146 14.4027 2.63396 12.8758 3.7598 11.7499L12.9498 2.55992C13.7004 1.80936 14.7183 1.3877 15.7798 1.3877C16.8413 1.3877 17.8592 1.80936 18.6098 2.55992C19.3604 3.31048 19.782 4.32846 19.782 5.38992C19.782 6.45138 19.3604 7.46936 18.6098 8.21992L9.4098 17.4099C9.03452 17.7852 8.52553 17.996 7.9948 17.996C7.46407 17.996 6.95508 17.7852 6.5798 17.4099C6.20452 17.0346 5.99369 16.5256 5.99369 15.9949C5.99369 15.4642 6.20452 14.9552 6.5798 14.5799L15.0698 6.09992" stroke="#25282B" stroke-width="2" stroke-linecap="round" stroke-linejoin="round"/>
</symbol>
<symbol id="loop" viewBox="0 0 23 27">
<ellipse rx="8.08385" ry="8.18742" transform="matrix(0.966721 -0.255834 0.24894 0.968519 9.853 10.2566)" stroke-width="2"/>
<path d="M15.2888 15.1685L22.2113 21.8055" stroke-width="2"/>
</symbol>
<symbol id="heart" viewBox="0 0 23 20">
<path d="M11.2111 18.9161L2.52213 9.85002C0.684703 7.93284 0.668844 4.91302 2.48603 2.97665C4.45885 0.874447 7.79683 0.874448 9.76964 2.97665L10.6644 3.93011L11.2113 4.51287L11.7582 3.93011L12.6528 2.97688C14.6256 0.874696 17.9635 0.874694 19.9363 2.97688C21.7535 4.91325 21.7376 7.93309 19.9001 9.85024L11.2111 18.9161Z" stroke-width="1.5"/>
</symbol>
<symbol id="graph" viewBox="0 0 22 19">
<path d="M1.21118 10.2083C1.21118 9.81713 1.50966 9.5 1.87785 9.5H4.54452C4.9127 9.5 5.21118 9.81713 5.21118 10.2083V17.2917C5.21118 17.6829 4.9127 18 4.54452 18H1.87785C1.50966 18 1.21118 17.6829 1.21118 17.2917V10.2083Z" stroke-width="1.5"/>
<path d="M9.21118 7.375C9.21118 6.9838 9.50966 6.66667 9.87785 6.66667H12.5445C12.9127 6.66667 13.2112 6.9838 13.2112 7.375V17.2917C13.2112 17.6829 12.9127 18 12.5445 18H9.87785C9.50966 18 9.21118 17.6829 9.21118 17.2917V7.375Z" stroke-width="1.5"/>
<path d="M17.2112 1.70833C17.2112 1.31713 17.5097 1 17.8778 1H20.5445C20.9127 1 21.2112 1.31713 21.2112 1.70833V17.2917C21.2112 17.6829 20.9127 18 20.5445 18H17.8778C17.5097 18 17.2112 17.6829 17.2112 17.2917V1.70833Z" stroke-width="1.5"/>
</symbol>
<symbol id="lightning" viewBox="0 0 13 24">
<path d="M10.44 1.51056C10.688 0.96931 9.9519 0.525515 9.58904 0.997533L0.618644 12.6663C0.365855 12.9951 0.60028 13.471 1.01505 13.471H5.71169C6.0783 13.471 6.32026 13.8525 6.164 14.1841L2.32185 22.3386C2.06691 22.8797 2.80488 23.3307 3.17012 22.857L12.379 10.914C12.6325 10.5853 12.3982 10.1087 11.9831 10.1087H7.27911C6.91481 10.1087 6.6728 9.73159 6.82457 9.4004L10.44 1.51056Z" fill="white"/>
</symbol>
<symbol id="delete" viewBox="0 0 24 24">
<path d="M3 6H5H21" stroke-width="1.5" stroke-linecap="round" stroke-linejoin="round"/>
<path d="M8 6V4C8 3.46957 8.21071 2.96086 8.58579 2.58579C8.96086 2.21071 9.46957 2 10 2H14C14.5304 2 15.0391 2.21071 15.4142 2.58579C15.7893 2.96086 16 3.46957 16 4V6M19 6V20C19 20.5304 18.7893 21.0391 18.4142 21.4142C18.0391 21.7893 17.5304 22 17 22H7C6.46957 22 5.96086 21.7893 5.58579 21.4142C5.21071 21.0391 5 20.5304 5 20V6H19Z" stroke-width="1.5" stroke-linecap="round" stroke-linejoin="round"/>
</symbol>
<symbol id="angle-down" viewBox="0 0 12 7">
<path d="M11 1L6 6" stroke-width="2" stroke-linecap="round" stroke-linejoin="round"/>
<path d="M1 1L6 6"  stroke-width="2" stroke-linecap="round" stroke-linejoin="round"/>
</symbol>
<symbol id="eye-on" viewBox="0 0 24 24">
<path d="M1 12C1 12 5 4 12 4C19 4 23 12 23 12C23 12 19 20 12 20C5 20 1 12 1 12Z" stroke-width="2" stroke-linecap="round" stroke-linejoin="round"/>
<path d="M12 15C13.6569 15 15 13.6569 15 12C15 10.3431 13.6569 9 12 9C10.3431 9 9 10.3431 9 12C9 13.6569 10.3431 15 12 15Z" stroke-width="2" stroke-linecap="round" stroke-linejoin="round"/>
</symbol>
<symbol id="eye-off" viewBox="0 0 24 24">
<path d="M9.9 4.23999C10.5883 4.07887 11.2931 3.99833 12 3.99999C19 3.99999 23 12 23 12C22.393 13.1356 21.6691 14.2047 20.84 15.19M14.12 14.12C13.8454 14.4147 13.5141 14.6511 13.1462 14.8151C12.7782 14.9791 12.3809 15.0673 11.9781 15.0744C11.5753 15.0815 11.1752 15.0074 10.8016 14.8565C10.4281 14.7056 10.0887 14.481 9.80385 14.1961C9.51897 13.9113 9.29439 13.5719 9.14351 13.1984C8.99262 12.8248 8.91853 12.4247 8.92563 12.0219C8.93274 11.6191 9.02091 11.2218 9.18488 10.8538C9.34884 10.4858 9.58525 10.1546 9.88 9.87999M17.94 17.94C16.2306 19.243 14.1491 19.9649 12 20C5 20 1 12 1 12C2.24389 9.68189 3.96914 7.6566 6.06 6.05999L17.94 17.94Z" stroke-width="2" stroke-linecap="round" stroke-linejoin="round"/>
<path d="M1 1L23 23" stroke-width="2" stroke-linecap="round" stroke-linejoin="round"/>
</symbol>
<symbol id="arrow-3" viewBox="0 0 14 8">
<path d="M1 4H13M13 4L10 1M13 4L10 7" stroke-width="1.5" stroke-linecap="round" stroke-linejoin="round"/>
</symbol>

</svg>