<svg width="70" height="10" viewBox="0 0 70 10" fill="none" xmlns="http://www.w3.org/2000/svg">
<g clip-path="url(#clip0_166_4119)">
<path d="M12.4241 0H10.7555V8.46109H12.4241V0Z" fill="white"/>
<path d="M8.83888 0.473455H7.17036V8.93436H8.83888V0.473455Z" fill="white"/>
<path d="M5.2537 1.00202H3.58518V9.46453H5.2537V1.00202Z" fill="white"/>
<path d="M1.66852 1.53646H0L6.35783e-06 10H1.66853L1.66852 1.53646Z" fill="white"/>
<path d="M56.4926 4.50746L53.806 1.52045H52.2354V8.43642H53.8753V4.0239L56.328 6.63817H56.6311L59.0416 4.0239V8.43642H60.6815V1.52045H59.1109L56.4926 4.50746Z" fill="white"/>
<path d="M68.4939 1.52045L64.4295 6.01558V1.52045H62.7896V8.43642H64.292L68.3564 3.94129V8.43642H69.9963V1.52045H68.4939Z" fill="white"/>
<path d="M43.4029 4.0511C43.4029 5.15222 44.005 6.01961 44.9293 6.38329L43.1961 8.43642H45.2033L46.7799 6.56865H48.4859V8.43642H50.1258V1.52045H45.9509C44.3944 1.52045 43.4029 2.5853 43.4029 4.0511ZM48.4869 3.04368V5.08875H46.255C45.5104 5.08875 45.1109 4.67369 45.1109 4.06521C45.1109 3.45672 45.5244 3.04166 46.255 3.04166L48.4869 3.04368Z" fill="white"/>
<path d="M35.7827 2.90365C35.6823 5.28217 35.1805 6.81749 34.198 6.81749H33.9521V8.47772L34.2141 8.49183C36.1841 8.60163 37.273 6.8729 37.4516 3.09707H40.0428V8.43642H41.6796V1.52045H35.8379L35.7827 2.90365Z" fill="white"/>
<path d="M29.6098 1.42383C27.3919 1.42383 25.7962 2.95914 25.7962 4.97802C25.7962 7.06641 27.5324 8.54732 29.6098 8.54732C31.7735 8.54732 33.4545 6.9838 33.4545 4.97802C33.4545 2.97224 31.7735 1.42383 29.6098 1.42383ZM29.6098 6.88709C28.3563 6.88709 27.5023 6.07107 27.5023 4.97802C27.5023 3.85776 28.3573 3.06391 29.6098 3.06391C30.8622 3.06391 31.7454 3.89403 31.7454 4.97802C31.7454 6.06201 30.8502 6.88709 29.6098 6.88709Z" fill="white"/>
<path d="M24.0571 1.5335H18.2695L18.2143 2.91669C18.132 4.90938 17.6122 6.80434 16.6297 6.83154L16.175 6.84564V9.9996L17.8289 9.99627V8.43737H23.5744V9.99627H25.2423V6.83154H24.0571V1.5335ZM22.4172 6.83154H18.9178C19.5099 5.93292 19.827 4.63234 19.8822 3.11113H22.4172V6.83154Z" fill="white"/>
</g>
<defs>
<clipPath id="clip0_166_4119">
<rect width="70" height="10" fill="white"/>
</clipPath>
</defs>
</svg>
