<svg width="218" height="56" viewBox="0 0 218 56" fill="none" xmlns="http://www.w3.org/2000/svg">
<path d="M43.284 27.9978C43.284 11.6991 29.8953 12.7821 8.98693 14.0389V42.8659C25.3383 45.0988 43.284 45.7406 43.284 27.9978ZM4.85322 41.7027V15.376C4.85322 14.4935 4.61338 13.8651 4.1196 13.5041C3.63992 13.1565 2.80753 12.9693 1.65066 12.9693H0V12.4345H7.53378C15.1804 12.4345 31.1509 11.7124 37.2457 13.6244C39.7428 14.4133 41.6898 15.4161 43.0865 16.6328C44.3421 17.7426 45.3861 19.0529 46.1479 20.6039C47.2625 22.8501 47.7986 25.19 47.7986 27.5967C47.7986 28.5193 47.7422 29.4552 47.6293 30.4045C47.5164 31.3538 47.2907 32.4101 46.9239 33.5867C46.5712 34.7633 46.1056 35.8731 45.5413 36.9294C44.977 37.9856 44.201 39.0152 43.2134 40.0447C42.2259 41.0742 41.0972 41.9701 39.7992 42.6653C35.3834 45.072 20.5133 44.9785 14.5738 44.818C14.2634 44.818 13.9107 44.818 13.558 44.8046C13.2053 44.7913 12.9372 44.7645 12.7538 44.7512C12.5845 44.7378 12.4575 44.7378 12.387 44.7378C11.9073 44.7378 11.343 44.7244 10.694 44.711C10.045 44.6977 9.55126 44.6843 9.21266 44.6709C8.87406 44.6442 8.60601 44.6442 8.40849 44.6442H0V44.1094H1.65066C2.94862 44.1094 3.80922 43.9489 4.21835 43.6147C4.6416 43.2938 4.85322 42.652 4.85322 41.7027ZM86.4974 12.6751V13.2099H83.6334C81.5878 13.0228 81.9828 18.0768 81.9828 23.0908V30.8056C81.9828 32.9984 81.7712 34.9371 81.3479 36.6085C80.9247 38.2932 80.2334 39.804 79.274 41.1545C78.3288 42.5049 76.9885 43.5344 75.2673 44.2564C73.5461 44.9651 71.4722 45.3261 69.0456 45.3261C65.4762 45.3261 62.457 44.7244 60.0022 43.5344C58.281 42.7055 56.983 41.3417 56.0096 39.4831C55.7133 38.9082 55.4594 38.1595 55.2901 37.2101C55.1067 36.2608 55.0079 35.5923 54.9938 35.2046C54.9797 34.9371 54.9515 34.4291 54.9515 33.6536V15.6167C54.9515 14.0122 53.851 13.2099 51.6925 13.2099H50.0841V12.6751H63.9384V13.2099H62.1466C60.101 13.2099 59.0711 14.0122 59.0711 15.6167V34.4157C59.0711 36.3945 59.4379 38.1193 60.1433 39.55C60.8628 40.994 61.7657 42.0503 62.8662 42.7322C63.9666 43.4275 65.0388 43.9088 66.0828 44.203C67.1127 44.5105 68.1144 44.6175 69.0879 44.6041C71.0066 44.5907 72.6855 44.3634 74.1245 43.8687C75.5636 43.3874 76.7345 42.7322 77.6234 41.93C78.5122 41.1411 79.2458 40.1383 79.8101 38.935C80.3886 37.7316 80.7695 36.4748 80.9811 35.1644C81.1927 33.8541 81.2915 32.4101 81.2915 30.8056V22.6897C81.2915 20.0289 81.8135 13.4907 79.6973 13.2099H76.7345V12.6751H86.4974ZM135.636 44.3367V44.8715H121.782V44.3367H123.433C124.702 44.3367 125.549 44.1762 125.986 43.8553C126.424 43.5211 126.649 42.8926 126.649 41.93V15.2556L110.735 39.6169H109.705L95.2727 15.0818V33.6536C95.2727 39.2291 94.7225 44.8715 96.8669 44.3367H99.8861V44.8715H89.968V44.3367H92.9308C94.4403 44.8715 94.5814 38.7745 94.5814 32.2764V15.3894C94.5814 13.932 93.8901 13.2099 92.4934 13.2099H89.968V12.6751H98.433L112.09 35.833L127.27 12.6751H135.636V13.2099H133.929C132.928 13.2099 132.194 13.2902 131.742 13.4774C131.093 13.7314 130.769 14.4267 130.769 15.5231V41.93C130.769 42.8926 130.981 43.5211 131.39 43.8553C131.785 44.1762 132.617 44.3367 133.887 44.3367H135.636ZM218 12.6751V13.2099H215.037C212.836 13.2634 213.387 18.371 213.387 23.9866V45.4999H212.752L184.747 18.5047V33.9611C184.747 39.3361 184.408 44.8715 186.398 44.3367H189.36V44.8715H179.442V44.3367H182.405C183.943 44.8715 184.056 39.4297 184.056 33.9611V17.7559L179.132 12.7019L184.846 12.6751L212.709 39.7104V22.6496C212.709 20.5237 213.26 13.4105 211.101 13.2099H208.082V12.6751H218Z" fill="#251E19"/>
<path d="M156.154 12.5015L168.485 39.8978C169.134 41.3151 169.754 42.3446 170.333 42.973C170.911 43.6148 171.476 44.0159 172.012 44.1897C172.534 44.3502 173.197 44.2833 174.029 44.3368V44.8716H161.148V44.524C162.517 44.524 163.575 44.417 164.323 44.2165C165.07 44.0159 165.451 43.4544 165.451 42.5585C165.451 42.0772 165.296 41.4087 164.915 40.5931C164.859 40.4727 164.802 40.3925 164.802 40.339L160.894 31.3941H147.322L142.921 40.232C142.427 42.0103 142.483 43.4945 143.767 44.0694C144.36 44.3502 145.164 44.524 146.236 44.524V44.8716H140.706C139.196 44.1764 141.213 41.5557 142.018 40.0315L154.024 17.1411L152.049 12.5015H156.154ZM147.802 30.6855H160.457L154.546 17.6491L147.802 30.6855Z" fill="#251E19"/>
<path d="M77.5522 0L71.5845 9.51986L68.6641 9.53323L74.7024 0.0133706L77.5522 0Z" fill="#251E19"/>
</svg>
