<svg width="123" height="32" viewBox="0 0 123 32" fill="none" xmlns="http://www.w3.org/2000/svg">
<path d="M24.4217 15.9988C24.4217 6.68525 16.8675 7.30412 5.07061 8.02231V24.4949C14.2964 25.7708 24.4217 26.1375 24.4217 15.9988ZM2.73829 23.8302V8.78634C2.73829 8.28208 2.60296 7.92298 2.32436 7.71669C2.05371 7.51805 1.58407 7.41108 0.931336 7.41108H0V7.10547H4.25071C8.5651 7.10547 17.576 6.69289 21.0148 7.78546C22.4237 8.23624 23.5222 8.80926 24.3102 9.50453C25.0187 10.1387 25.6078 10.8874 26.0376 11.7737C26.6664 13.0573 26.9689 14.3943 26.9689 15.7696C26.9689 16.2968 26.9371 16.8316 26.8734 17.3741C26.8097 17.9165 26.6824 18.5201 26.4754 19.1925C26.2764 19.8648 26.0137 20.499 25.6953 21.1026C25.3769 21.7061 24.9391 22.2945 24.3819 22.8828C23.8247 23.4711 23.1879 23.983 22.4555 24.3803C19.964 25.7555 11.574 25.702 8.22282 25.6104C8.0477 25.6104 7.84869 25.6104 7.64969 25.6027C7.45069 25.5951 7.29944 25.5798 7.19596 25.5722C7.10044 25.5645 7.0288 25.5645 6.989 25.5645C6.71835 25.5645 6.39995 25.5569 6.03378 25.5492C5.66762 25.5416 5.38901 25.534 5.19797 25.5263C5.00692 25.511 4.85568 25.511 4.74424 25.511H0V25.2054H0.931336C1.66367 25.2054 2.14924 25.1137 2.38008 24.9227C2.61888 24.7394 2.73829 24.3726 2.73829 23.8302ZM48.8036 7.24299V7.54861H47.1877C46.0335 7.44164 46.2563 10.3297 46.2563 13.1948V17.6033C46.2563 18.8563 46.1369 19.9641 45.8981 20.9192C45.6593 21.8819 45.2693 22.7452 44.728 23.5169C44.1947 24.2886 43.4385 24.8769 42.4673 25.2895C41.4962 25.6944 40.326 25.9007 38.9569 25.9007C36.943 25.9007 35.2395 25.5569 33.8545 24.8769C32.8833 24.4032 32.151 23.6239 31.6017 22.5619C31.4346 22.2333 31.2913 21.8055 31.1958 21.263C31.0923 20.7205 31.0366 20.3385 31.0286 20.117C31.0206 19.9641 31.0047 19.6738 31.0047 19.2307V8.92387C31.0047 8.00703 30.3838 7.54861 29.1659 7.54861H28.2585V7.24299H36.0753V7.54861H35.0644C33.9102 7.54861 33.3291 8.00703 33.3291 8.92387V19.6662C33.3291 20.7969 33.536 21.7825 33.9341 22.6001C34.34 23.4252 34.8495 24.0288 35.4704 24.4185C36.0912 24.8158 36.6962 25.0908 37.2853 25.2589C37.8664 25.4346 38.4315 25.4958 38.9808 25.4881C40.0634 25.4805 41.0106 25.3506 41.8225 25.0679C42.6345 24.7928 43.2952 24.4185 43.7967 23.96C44.2981 23.5093 44.7121 22.9362 45.0305 22.2486C45.3568 21.561 45.5718 20.8428 45.6912 20.094C45.8106 19.3453 45.8663 18.5201 45.8663 17.6033V12.9656C45.8663 11.4452 46.1608 7.70905 44.9668 7.54861H43.2952V7.24299H48.8036ZM76.5287 25.3353V25.6409H68.7119V25.3353H69.6432C70.3596 25.3353 70.8372 25.2436 71.084 25.0603C71.3308 24.8692 71.4581 24.5101 71.4581 23.96V8.71758L62.4791 22.6383H61.898L53.7548 8.61825V19.2307C53.7548 22.4167 53.4443 25.6409 54.6543 25.3353H56.3577V25.6409H50.7618V25.3353H52.4334C53.2851 25.6409 53.3647 22.1569 53.3647 18.4437V8.79398C53.3647 7.96119 52.9747 7.54861 52.1866 7.54861H50.7618V7.24299H55.5379L63.2433 20.4761L71.8084 7.24299H76.5287V7.54861H75.5656C75.0004 7.54861 74.5865 7.59445 74.3317 7.70141C73.9656 7.84658 73.7825 8.24388 73.7825 8.87039V23.96C73.7825 24.5101 73.9019 24.8692 74.1327 25.0603C74.3556 25.2436 74.8253 25.3353 75.5417 25.3353H76.5287ZM123 7.24299V7.54861H121.328C120.087 7.57917 120.397 10.4978 120.397 13.7067V26H120.039L104.238 10.5742V19.4064C104.238 22.4778 104.047 25.6409 105.169 25.3353H106.841V25.6409H101.245V25.3353H102.917C103.784 25.6409 103.848 22.5313 103.848 19.4064V10.1463L101.07 7.25827L104.294 7.24299L120.015 22.6917V12.9427C120.015 11.7279 120.325 7.66321 119.107 7.54861H117.404V7.24299H123Z" fill="#251E19"/>
<path d="M88.1062 7.14368L95.0633 22.7987C95.4295 23.6086 95.7797 24.1969 96.1061 24.556C96.4325 24.9227 96.7509 25.1519 97.0534 25.2513C97.3479 25.3429 97.722 25.3047 98.1917 25.3353V25.6409H90.9241V25.4423C91.6962 25.4423 92.2932 25.3811 92.7151 25.2665C93.137 25.1519 93.3519 24.831 93.3519 24.3191C93.3519 24.0441 93.2643 23.6621 93.0494 23.196C93.0176 23.1273 92.9857 23.0814 92.9857 23.0508L90.7808 17.9395H83.1231L80.6396 22.9897C80.361 24.0059 80.3928 24.854 81.1172 25.1825C81.4515 25.3429 81.9052 25.4423 82.5102 25.4423V25.6409H79.3898C78.5381 25.2436 79.6764 23.7461 80.1301 22.8751L86.9042 9.79487L85.7898 7.14368H88.1062ZM83.3938 17.5345H90.534L87.1987 10.0852L83.3938 17.5345Z" fill="#251E19"/>
<path d="M43.7571 0L40.3899 5.43992L38.7422 5.44756L42.1491 0.00764033L43.7571 0Z" fill="#251E19"/>
</svg>
