<svg width="127" height="37" viewBox="0 0 127 37" fill="none" xmlns="http://www.w3.org/2000/svg">
<path d="M25.8537 1.36182L21.6572 16.5841H20.5965L16.4379 2.88066L12.2162 16.5841H11.1976L7.06421 1.36182H8.10386L11.7405 15.2176L15.916 1.36182H16.9977L21.1311 15.3064L24.7888 1.36182H25.8537Z" fill="black"/>
<path d="M55.65 16.5841L51.7566 10.0984H51.6682H48.423V16.5841H47.4507V1.36182H51.6261C53.314 1.36182 54.5809 1.75951 55.4227 2.55489C56.2688 3.35028 56.6897 4.40374 56.6897 5.71951C56.6897 6.89143 56.3614 7.85605 55.7048 8.61335C55.0481 9.37066 54.0927 9.84028 52.8384 10.0137L56.8202 16.5841H55.65ZM48.423 9.27759H51.6682C53.0109 9.27759 54.0127 8.95182 54.6777 8.30028C55.3428 7.64874 55.6753 6.78989 55.6753 5.71951C55.6753 3.39259 54.3242 2.22912 51.6261 2.22912H48.423V9.27759Z" fill="black"/>
<path d="M61.6017 15.7591H67.2503V16.5841H60.6294V1.36182H61.6017V15.7591Z" fill="black"/>
<path d="M80.6985 3.37566C82.0917 4.72105 82.7862 6.59105 82.7862 8.99412C82.7862 11.393 82.0917 13.2587 80.6985 14.5872C79.3053 15.9157 77.327 16.5841 74.7594 16.5841H70.4956V1.36182H74.7594C77.327 1.36182 79.3053 2.03451 80.6985 3.37566ZM79.9956 13.9695C81.191 12.7764 81.7929 11.118 81.7929 8.99412C81.7929 6.85335 81.1952 5.18643 79.9956 3.98489C78.8002 2.78335 77.0534 2.18682 74.7594 2.18682H71.4721V15.7634H74.7594C77.0534 15.7591 78.8002 15.1626 79.9956 13.9695Z" fill="black"/>
<path d="M96.8995 15.7719C95.7756 15.1161 94.8959 14.1938 94.2603 13.0049C93.6248 11.8203 93.3091 10.4834 93.3091 8.99417C93.3091 7.49225 93.6248 6.1511 94.2603 4.97071C94.8959 3.79456 95.7756 2.87648 96.8995 2.21648C98.0233 1.56071 99.286 1.23071 100.688 1.23071C102.089 1.23071 103.348 1.56071 104.476 2.21648C105.6 2.87648 106.479 3.79456 107.115 4.97071C107.751 6.1511 108.066 7.48802 108.066 8.99417C108.066 10.4834 107.751 11.8203 107.115 13.0049C106.479 14.1896 105.6 15.1119 104.476 15.7719C103.352 16.4319 102.089 16.7576 100.688 16.7576C99.286 16.7576 98.0233 16.4276 96.8995 15.7719ZM103.933 15.0442C104.901 14.4815 105.659 13.6776 106.214 12.6369C106.77 11.5961 107.048 10.3819 107.048 8.99417C107.048 7.59379 106.77 6.3711 106.214 5.33033C105.659 4.28956 104.897 3.48571 103.933 2.92302C102.965 2.36033 101.883 2.07687 100.688 2.07687C99.4881 2.07687 98.4063 2.36033 97.4424 2.92302C96.4743 3.48571 95.7125 4.28956 95.1485 5.33033C94.5844 6.3711 94.3066 7.59379 94.3066 8.99417C94.3066 10.3819 94.5887 11.5961 95.1485 12.6369C95.7125 13.6776 96.4743 14.4815 97.4424 15.0442C98.4105 15.6069 99.4923 15.8903 100.688 15.8903C101.883 15.8903 102.965 15.6069 103.933 15.0442Z" fill="black"/>
<path d="M119.881 1.36182V2.18682H113.02V8.54143H119.014V9.36643H113.02V16.5884H112.048V1.36182H119.881Z" fill="black"/>
<path d="M9.87168 32.7118H2.66146L1.21353 36.6168H0.152832L5.73833 21.7415H6.82007L12.3803 36.6168H11.3196L9.87168 32.7118ZM9.56862 31.8911L6.27709 23.0191L2.96452 31.8868H9.56862V31.8911Z" fill="black"/>
<path d="M33.5438 21.3945L29.3473 36.6168H28.2866L24.1322 22.9134L19.9105 36.6168H18.8919L14.7585 21.3945H15.7982L19.4349 35.2503L23.6103 21.3945H24.6921L28.8254 35.3391L32.4831 21.3945H33.5438Z" fill="black"/>
<path d="M45.6197 32.7118H38.4137L36.9657 36.6168H35.905L41.4905 21.7415H42.5723L48.1325 36.6168H47.0718L45.6197 32.7118ZM45.3166 31.8911L42.0251 23.0234L38.7125 31.8911H45.3166Z" fill="black"/>
<path d="M59.5772 36.6168L52.5858 29.4372V36.6168H51.6135V21.3945H52.5858V28.6376L59.5772 21.3945H60.8315L53.4319 29.0268L60.8567 36.6168H59.5772Z" fill="black"/>
<path d="M65.1163 22.2195V28.5741H71.1775V29.3991H65.1163V35.7961H71.8257V36.6211H64.144V21.3945H71.8257V22.2195H65.1163Z" fill="black"/>
<path d="M86.6713 36.6169H85.699L76.7841 22.9981V36.6169H75.8118V21.4158H76.7841L85.699 34.9923V21.4158H86.6713V36.6169Z" fill="black"/>
<path d="M92.2567 21.3945V36.6168H91.2844V21.3945H92.2567Z" fill="black"/>
<path d="M107.729 36.6169H106.757L97.8422 22.9981V36.6169H96.8699V21.4158H97.8422L106.757 34.9923V21.4158H107.729V36.6169Z" fill="black"/>
<path d="M124.827 25.8834C124.393 24.7411 123.678 23.8315 122.672 23.1504C121.67 22.4692 120.483 22.1307 119.111 22.1307C117.911 22.1307 116.829 22.4142 115.866 22.9769C114.897 23.5396 114.136 24.3434 113.572 25.3842C113.008 26.425 112.73 27.6392 112.73 29.0269C112.73 30.4146 113.012 31.6288 113.572 32.6696C114.131 33.7104 114.897 34.51 115.866 35.0642C116.834 35.6227 117.915 35.8977 119.111 35.8977C120.264 35.8977 121.312 35.6396 122.251 35.1192C123.189 34.5988 123.939 33.8584 124.503 32.898C125.067 31.9377 125.374 30.8123 125.433 29.5261H118.66V28.7011H126.426V29.3527C126.384 30.77 126.043 32.0434 125.408 33.1688C124.772 34.2984 123.909 35.1784 122.811 35.813C121.712 36.4477 120.479 36.7692 119.111 36.7692C117.713 36.7692 116.451 36.4392 115.323 35.7834C114.199 35.1277 113.319 34.2096 112.683 33.0292C112.048 31.853 111.732 30.5161 111.732 29.0269C111.732 27.525 112.048 26.1838 112.683 25.0034C113.319 23.8273 114.199 22.9092 115.323 22.2492C116.446 21.5934 117.709 21.2634 119.111 21.2634C120.74 21.2634 122.15 21.6738 123.341 22.4904C124.532 23.3069 125.399 24.4407 125.951 25.8834H124.827Z" fill="black"/>
<path d="M35.72 1.26038C31.5403 1.26038 28.1436 4.67461 28.1436 8.87576C28.1436 13.0769 31.5403 16.4911 35.72 16.4911C37.029 16.4911 38.2623 16.1569 39.3356 15.5646C39.3861 15.5561 39.4282 15.5308 39.4577 15.4969C41.7474 14.1854 43.3006 11.7061 43.3006 8.87153C43.2964 4.67461 39.8996 1.26038 35.72 1.26038ZM35.3285 1.72576C35.0802 2.07691 34.7982 2.75384 35.0381 3.87499C35.2443 4.83961 34.9455 5.06384 34.6045 5.32191C34.4236 5.4573 34.2131 5.61384 34.091 5.88038C34.0111 6.05384 33.9311 6.23999 33.8553 6.42192C33.7164 6.75191 33.2997 7.46692 33.3586 7.3823C33.4134 7.30192 33.1945 7.42461 33.0977 7.45422C32.761 7.55999 32.5084 7.61499 32.3274 7.42038C32.2432 7.3273 32.138 7.13692 32.0201 6.92961C31.6624 6.29499 31.1236 5.33884 30.3028 5.73653C29.8062 5.97345 29.3263 6.30345 28.9938 6.54038C29.903 3.85384 32.3821 1.88653 35.3285 1.72576ZM31.0436 14.2742C31.7466 14.0458 33.2366 13.5465 33.6701 13.1996C33.9185 13.0008 34.1037 12.95 34.2847 12.895C34.4572 12.8442 34.6382 12.7935 34.8192 12.6327C35.1054 12.3746 34.9749 12.1377 34.9202 12.0319C34.8739 11.9473 34.8655 11.9261 34.9244 11.8246C35.0465 11.6469 35.2822 11.5708 35.4548 11.5877C35.5263 11.5919 35.6105 11.6215 35.6316 11.6808C35.7831 12.0658 36.3303 12.4042 37.3573 12.7469C37.4036 12.7638 37.4836 12.7977 37.5046 12.8442C37.5383 12.9204 37.4752 13.1108 37.412 13.2631C37.3026 13.5635 37.1384 14.0119 37.5299 14.3123C37.6814 14.4308 37.7866 14.5238 37.8708 14.6C38.1192 14.8285 38.2665 14.9385 38.7126 14.9131C38.8978 14.8961 38.9862 15.0738 39.0241 15.2135C38.0308 15.7381 36.9027 16.0385 35.7115 16.0385C33.9311 16.0342 32.298 15.3742 31.0436 14.2742ZM39.4366 14.9808C39.3272 14.7015 39.0999 14.4308 38.6916 14.4561C38.418 14.4773 38.3885 14.4477 38.1823 14.2573C38.0897 14.1727 37.976 14.0711 37.8077 13.9442C37.7025 13.8638 37.7277 13.7411 37.8414 13.4196C37.934 13.17 38.0308 12.895 37.9129 12.6411C37.8414 12.4888 37.7025 12.3788 37.5004 12.3111C36.3682 11.9304 36.1072 11.6427 36.0525 11.5073C35.9683 11.2958 35.7663 11.1561 35.5053 11.1308C35.198 11.1011 34.7855 11.2238 34.554 11.5665C34.3394 11.8965 34.4572 12.1165 34.5246 12.2392C34.5288 12.2477 34.533 12.2604 34.5414 12.2646C34.5414 12.2646 34.5288 12.2773 34.5246 12.2815C34.4278 12.3746 34.3183 12.4042 34.1668 12.4423C33.9648 12.4973 33.708 12.5692 33.3923 12.8273C33.0135 13.1319 31.3888 13.6777 30.669 13.9019C29.3895 12.6073 28.5981 10.8261 28.5981 8.86307C28.5981 8.31307 28.6571 7.77153 28.7791 7.25538C28.8044 7.24692 28.8254 7.23422 28.8465 7.22153C28.8549 7.2173 29.663 6.54038 30.4922 6.14268C30.9005 5.94384 31.2415 6.48115 31.6203 7.14961C31.755 7.38653 31.8686 7.58961 31.9865 7.72076C32.1759 7.9323 32.4074 7.99999 32.6263 7.99999C32.8493 7.99999 33.2913 7.81384 33.4134 7.69538C33.3671 7.69961 33.607 7.50499 33.4134 7.69538C34.1794 7.17076 33.9395 7.35691 34.2636 6.59538C34.3394 6.41768 34.4193 6.23153 34.4951 6.07076C34.5709 5.90999 34.7098 5.80422 34.8739 5.68153C35.2612 5.38961 35.7452 5.02576 35.48 3.77345C35.1728 2.33076 35.842 1.81038 35.8715 1.78499C35.901 1.76384 35.922 1.73845 35.9388 1.70884C37.8161 1.76384 39.5124 2.55499 40.7499 3.79884C40.6657 4.29384 40.3584 5.50384 39.8407 5.93115C39.0662 6.56576 39.0662 7.01845 39.0662 7.50076V7.55999C39.062 7.76307 38.0729 8.47807 37.5593 9.18884C37.5383 9.20576 37.4794 9.29884 37.4247 9.40038C37.3236 9.57384 37.2984 9.77692 37.3573 9.9673C37.4204 10.1577 37.5341 10.4073 37.7572 10.6527C37.955 10.8685 38.2286 10.9827 38.578 10.9827C38.6243 10.9827 38.6748 10.9827 38.7253 10.9785C39.3356 10.9277 39.8786 10.6231 40.3626 10.3523C40.9603 10.0181 41.3391 9.81922 41.5959 10.0519C41.8526 10.2846 42.1304 10.3904 42.4125 10.365C42.5177 10.3565 42.6187 10.3311 42.7029 10.2931C42.2988 12.2858 41.0866 13.9654 39.4366 14.9808ZM42.7955 9.70076C42.7534 9.7473 42.5892 9.9123 42.3662 9.93345C42.2104 9.95038 42.0505 9.87845 41.8863 9.73038C41.377 9.26922 40.7456 9.62461 40.1311 9.9673C39.6892 10.2169 39.1883 10.4919 38.6832 10.5385C38.4096 10.5596 38.2202 10.5046 38.0939 10.3608C37.976 10.2338 37.9255 10.0435 37.9087 9.86576C37.8877 9.65422 37.9676 9.45115 38.1276 9.31576C38.6916 8.82499 39.5124 8.02538 39.5124 7.57691V7.50922C39.5124 7.07345 39.5124 6.78999 40.1185 6.29499C40.6825 5.83384 40.9898 4.79307 41.1203 4.22191C42.1894 5.47845 42.8376 7.10307 42.8376 8.87576C42.8418 9.15499 42.8292 9.42576 42.7955 9.70076Z" fill="black"/>
<path d="M33.4134 7.69538C33.2913 7.81384 32.8493 7.99999 32.6263 7.99999C32.4074 7.99999 32.1759 7.9323 31.9865 7.72076C31.8686 7.58961 31.755 7.38653 31.6203 7.14961C31.2415 6.48115 30.9005 5.94384 30.4922 6.14268C29.663 6.54038 28.8549 7.2173 28.8465 7.22153C28.8254 7.23422 28.8044 7.24692 28.7791 7.25538C28.6571 7.77153 28.5981 8.31307 28.5981 8.86307C28.5981 10.8261 29.3895 12.6073 30.669 13.9019C31.3888 13.6777 33.0135 13.1319 33.3923 12.8273C33.708 12.5692 33.9648 12.4973 34.1668 12.4423C34.3183 12.4042 34.4278 12.3746 34.5246 12.2815C34.5288 12.2773 34.5414 12.2646 34.5414 12.2646C34.533 12.2604 34.5288 12.2477 34.5246 12.2392C34.4572 12.1165 34.3394 11.8965 34.554 11.5665C34.7855 11.2238 35.198 11.1011 35.5053 11.1308C35.7663 11.1561 35.9683 11.2958 36.0525 11.5073C36.1072 11.6427 36.3682 11.9304 37.5004 12.3111C37.7025 12.3788 37.8414 12.4888 37.9129 12.6411C38.0308 12.895 37.934 13.17 37.8414 13.4196C37.7277 13.7411 37.7025 13.8638 37.8077 13.9442C37.976 14.0711 38.0897 14.1727 38.1823 14.2573C38.3885 14.4477 38.418 14.4773 38.6916 14.4561C39.0999 14.4308 39.3272 14.7015 39.4366 14.9808C41.0866 13.9654 42.2988 12.2858 42.7029 10.2931C42.6187 10.3311 42.5177 10.3565 42.4125 10.365C42.1304 10.3904 41.8526 10.2846 41.5959 10.0519C41.3391 9.81922 40.9603 10.0181 40.3626 10.3523C39.8786 10.6231 39.3356 10.9277 38.7253 10.9785C38.6748 10.9827 38.6243 10.9827 38.578 10.9827C38.2286 10.9827 37.955 10.8685 37.7572 10.6527C37.5341 10.4073 37.4204 10.1577 37.3573 9.9673C37.2984 9.77692 37.3236 9.57384 37.4247 9.40038C37.4794 9.29884 37.5383 9.20576 37.5593 9.18884C38.0729 8.47807 39.062 7.76307 39.0662 7.55999V7.50076C39.0662 7.01845 39.0662 6.56576 39.8407 5.93115C40.3584 5.50384 40.6657 4.29384 40.7499 3.79884C39.5124 2.55499 37.8161 1.76384 35.9388 1.70884C35.922 1.73845 35.901 1.76384 35.8715 1.78499C35.842 1.81038 35.1728 2.33076 35.48 3.77345C35.7452 5.02576 35.2612 5.38961 34.8739 5.68153C34.7098 5.80422 34.5709 5.90999 34.4951 6.07076C34.4193 6.23153 34.3394 6.41768 34.2636 6.59538C33.9395 7.35691 34.1794 7.17076 33.4134 7.69538ZM33.4134 7.69538C33.3671 7.69961 33.607 7.50499 33.4134 7.69538ZM35.72 1.26038C31.5403 1.26038 28.1436 4.67461 28.1436 8.87576C28.1436 13.0769 31.5403 16.4911 35.72 16.4911C37.029 16.4911 38.2623 16.1569 39.3356 15.5646C39.3861 15.5561 39.4282 15.5308 39.4577 15.4969C41.7474 14.1854 43.3006 11.7061 43.3006 8.87153C43.2964 4.67461 39.8996 1.26038 35.72 1.26038ZM35.3285 1.72576C35.0802 2.07691 34.7982 2.75384 35.0381 3.87499C35.2443 4.83961 34.9455 5.06384 34.6045 5.32191C34.4236 5.4573 34.2131 5.61384 34.091 5.88038C34.0111 6.05384 33.9311 6.23999 33.8553 6.42191C33.7164 6.75191 33.2997 7.46692 33.3586 7.3823C33.4134 7.30192 33.1945 7.42461 33.0977 7.45422C32.761 7.55999 32.5084 7.61499 32.3274 7.42038C32.2432 7.3273 32.138 7.13692 32.0201 6.92961C31.6624 6.29499 31.1236 5.33884 30.3028 5.73653C29.8062 5.97345 29.3263 6.30345 28.9938 6.54038C29.903 3.85384 32.3821 1.88653 35.3285 1.72576ZM31.0436 14.2742C31.7466 14.0458 33.2366 13.5465 33.6701 13.1996C33.9185 13.0008 34.1037 12.95 34.2847 12.895C34.4572 12.8442 34.6382 12.7935 34.8192 12.6327C35.1054 12.3746 34.9749 12.1377 34.9202 12.0319C34.8739 11.9473 34.8655 11.9261 34.9244 11.8246C35.0465 11.6469 35.2822 11.5708 35.4548 11.5877C35.5263 11.5919 35.6105 11.6215 35.6316 11.6808C35.7831 12.0658 36.3303 12.4042 37.3573 12.7469C37.4036 12.7638 37.4836 12.7977 37.5046 12.8442C37.5383 12.9204 37.4752 13.1108 37.412 13.2631C37.3026 13.5635 37.1384 14.0119 37.5299 14.3123C37.6814 14.4308 37.7866 14.5238 37.8708 14.6C38.1192 14.8285 38.2665 14.9385 38.7126 14.9131C38.8978 14.8961 38.9862 15.0738 39.0241 15.2135C38.0308 15.7381 36.9027 16.0385 35.7115 16.0385C33.9311 16.0342 32.298 15.3742 31.0436 14.2742ZM42.7955 9.70076C42.7534 9.7473 42.5892 9.9123 42.3662 9.93345C42.2104 9.95038 42.0505 9.87845 41.8863 9.73038C41.377 9.26922 40.7456 9.62461 40.1311 9.9673C39.6892 10.2169 39.1883 10.4919 38.6832 10.5385C38.4096 10.5596 38.2202 10.5046 38.0939 10.3608C37.976 10.2338 37.9255 10.0435 37.9087 9.86576C37.8877 9.65422 37.9676 9.45115 38.1276 9.31576C38.6916 8.82499 39.5124 8.02538 39.5124 7.57691V7.50922C39.5124 7.07345 39.5124 6.78999 40.1185 6.29499C40.6825 5.83384 40.9898 4.79307 41.1203 4.22191C42.1894 5.47845 42.8376 7.10307 42.8376 8.87576C42.8418 9.15499 42.8292 9.42576 42.7955 9.70076Z" stroke="black" stroke-miterlimit="10"/>
</svg>
