<svg width="107" height="42" viewBox="0 0 107 42" fill="none" xmlns="http://www.w3.org/2000/svg">
<g clip-path="url(#clip0_4_493)">
<path d="M6.95114 36.981C6.51268 36.8185 5.9457 36.6522 5.25777 36.4897C4.59252 36.3423 4.10114 36.1949 3.77607 36.0437C3.451 35.8926 3.29225 35.662 3.29225 35.3521C3.29225 35.0422 3.4321 34.7928 3.71181 34.6C3.99152 34.4111 4.4262 34.3166 5.01208 34.3166C5.84743 34.3166 6.68655 34.5547 7.5219 35.0271L8.16826 33.436C7.75247 33.179 7.27243 32.9787 6.72057 32.8426C6.16871 32.7066 5.60174 32.6348 5.0272 32.6348C4.19941 32.6348 3.49636 32.7595 2.9256 33.0089C2.34729 33.2584 1.92016 33.5985 1.63289 34.0256C1.3494 34.4526 1.20577 34.9288 1.20577 35.4542C1.20577 36.0589 1.36452 36.5426 1.67825 36.9017C1.99198 37.2645 2.36996 37.5253 2.81221 37.6915C3.25067 37.8541 3.81765 38.0204 4.50558 38.1829C4.95538 38.2849 5.31069 38.3832 5.5715 38.4663C5.83609 38.5532 6.05154 38.6666 6.21785 38.8102C6.38795 38.9539 6.4711 39.1315 6.4711 39.3469C6.4711 39.6417 6.32747 39.876 6.04398 40.0536C5.76049 40.2313 5.31825 40.3182 4.72481 40.3182C4.18807 40.3182 3.65511 40.2313 3.11837 40.0612C2.58164 39.8874 2.12049 39.6606 1.73495 39.3771L1.02434 40.9569C1.42878 41.2668 1.96552 41.52 2.63455 41.7128C3.30359 41.9055 3.9953 42.0038 4.70969 42.0038C5.53748 42.0038 6.24053 41.8791 6.81885 41.6296C7.39717 41.3802 7.83185 41.0401 8.11912 40.613C8.40639 40.1859 8.5538 39.7135 8.5538 39.1957C8.5538 38.591 8.39505 38.1148 8.08132 37.7596C7.77137 37.4043 7.39339 37.1473 6.95114 36.981Z" fill="#2C4576"/>
<path d="M22.5581 34.789C22.9966 34.5433 23.4993 34.4186 24.0587 34.4186C24.9659 34.4186 25.7219 34.7739 26.3342 35.4806L27.6798 34.2372C27.2489 33.7194 26.716 33.3226 26.081 33.0467C25.446 32.7708 24.7391 32.6348 23.9529 32.6348C23.0231 32.6348 22.1839 32.8351 21.4355 33.2357C20.6909 33.6363 20.1012 34.1919 19.6741 34.9062C19.247 35.6167 19.0353 36.4217 19.0353 37.3212C19.0353 38.2169 19.2508 39.0219 19.6741 39.7324C20.1012 40.4429 20.6871 40.9985 21.4355 41.4029C22.1802 41.8035 23.0155 42.0038 23.9378 42.0038C24.724 42.0038 25.4346 41.8677 26.0734 41.5918C26.7122 41.316 27.2452 40.9153 27.6798 40.39L26.3342 39.1466C25.7219 39.8647 24.9621 40.2199 24.0587 40.2199C23.4993 40.2199 22.9966 40.0952 22.5581 39.8496C22.1197 39.6039 21.7757 39.26 21.53 38.8216C21.2843 38.3832 21.1596 37.8805 21.1596 37.3212C21.1596 36.7618 21.2843 36.2592 21.53 35.8208C21.7757 35.3786 22.1197 35.0347 22.5581 34.789Z" fill="#2C4576"/>
<path d="M44.8593 36.361H40.743V32.7896H38.649V41.8449H40.743V38.1336H44.8593V41.8449H46.9571V32.7896H44.8593V36.361Z" fill="#2C4576"/>
<path d="M65.6787 33.2432C64.9265 32.8389 64.0836 32.6348 63.1424 32.6348C62.2012 32.6348 61.3545 32.8389 60.5986 33.2432C59.8426 33.6476 59.2529 34.207 58.8258 34.9175C58.3987 35.628 58.187 36.4292 58.187 37.3174C58.187 38.2055 58.3987 39.0068 58.8258 39.7173C59.2529 40.4278 59.8426 40.9871 60.5986 41.3915C61.3545 41.7959 62.2012 42 63.1424 42C64.0836 42 64.9265 41.7959 65.6787 41.3915C66.4309 40.9871 67.0205 40.4278 67.4514 39.7173C67.8823 39.0068 68.0978 38.2055 68.0978 37.3174C68.0978 36.4292 67.8823 35.628 67.4514 34.9175C67.0205 34.207 66.4309 33.6476 65.6787 33.2432ZM65.6069 38.8178C65.3612 39.2562 65.021 39.6001 64.5901 39.8458C64.1592 40.0914 63.6754 40.2162 63.1424 40.2162C62.6057 40.2162 62.1256 40.0914 61.6947 39.8458C61.2638 39.6001 60.9236 39.2562 60.6779 38.8178C60.4322 38.3794 60.3075 37.8767 60.3075 37.3174C60.3075 36.758 60.4322 36.2554 60.6779 35.817C60.9236 35.3786 61.2638 35.0347 61.6947 34.789C62.1256 34.5433 62.6094 34.4186 63.1424 34.4186C63.6754 34.4186 64.1592 34.5433 64.5901 34.789C65.021 35.0347 65.3612 35.3786 65.6069 35.817C65.8526 36.2554 65.9773 36.758 65.9773 37.3174C65.9773 37.8805 65.8563 38.3794 65.6069 38.8178Z" fill="#2C4576"/>
<path d="M86.2222 33.2432C85.47 32.8389 84.6271 32.6348 83.6859 32.6348C82.7447 32.6348 81.898 32.8389 81.142 33.2432C80.3861 33.6476 79.7964 34.207 79.3693 34.9175C78.9422 35.628 78.7305 36.4292 78.7305 37.3174C78.7305 38.2055 78.946 39.0068 79.3693 39.7173C79.7964 40.4278 80.3861 40.9871 81.142 41.3915C81.898 41.7959 82.7447 42 83.6859 42C84.6271 42 85.47 41.7959 86.2222 41.3915C86.9744 40.9871 87.564 40.4278 87.9949 39.7173C88.4258 39.0068 88.6413 38.2055 88.6413 37.3174C88.6413 36.4292 88.4258 35.628 87.9949 34.9175C87.564 34.207 86.9706 33.6476 86.2222 33.2432ZM86.1503 38.8178C85.9047 39.2562 85.5645 39.6001 85.1336 39.8458C84.7027 40.0914 84.2188 40.2162 83.6859 40.2162C83.1529 40.2162 82.6691 40.0914 82.2382 39.8458C81.8073 39.6001 81.4671 39.2562 81.2214 38.8178C80.9757 38.3794 80.851 37.8767 80.851 37.3174C80.851 36.758 80.972 36.2554 81.2214 35.817C81.4671 35.3786 81.8073 35.0347 82.2382 34.789C82.6691 34.5433 83.1529 34.4186 83.6859 34.4186C84.2188 34.4186 84.7027 34.5433 85.1336 34.789C85.5645 35.0347 85.9047 35.3786 86.1503 35.817C86.396 36.2554 86.5208 36.758 86.5208 37.3174C86.5208 37.8805 86.396 38.3794 86.1503 38.8178Z" fill="#2C4576"/>
<path d="M101.95 40.1366V32.7896H99.8561V41.8449H106.493V40.1366H101.95Z" fill="#2C4576"/>
<path d="M61.0937 1.17184C58.6141 3.20514 53.0842 8.17121 51.5761 10.9906C50.2607 13.4585 47.1952 19.1729 47.1952 19.1729C47.1952 19.1729 46.3258 21.0059 45.706 22.461C45.1465 23.7724 43.1886 25.0801 43.1886 25.0801C43.1886 25.0801 43.1394 25.7792 42.7048 25.9984C42.3759 26.1647 42.3343 26.0249 42.3343 26.0249L41.0945 26.1118C41.0945 26.1118 40.4595 26.263 40.2667 26.1723C39.9417 26.0136 39.7225 26.1534 39.8774 25.8019C39.9984 25.5298 41.2004 25.0725 41.1966 24.4111C41.1928 22.7709 41.5179 22.0226 41.1664 21.4632C40.8148 20.9039 39.5183 19.5924 39.1668 18.9877C37.893 16.7995 36.124 11.4517 34.6121 10.624C33.1002 9.79256 25.204 2.64201 22.4561 0.332827C20.2902 -1.50394 31.8263 4.90963 35.7045 6.85978C39.5826 8.80993 41.9261 18.024 42.2701 18.4662C42.614 18.9121 42.6783 19.0747 42.6783 19.0747C42.6783 19.0747 43.3133 18.247 44.0353 18.1979C44.7572 18.1487 45.3015 18.6438 45.3015 18.6438C45.3015 18.6438 47.8831 10.3632 50.2493 8.19389C53.0048 5.6655 56.796 2.79319 60.3075 0.933745C63.7245 -0.880346 61.2563 1.03579 61.0937 1.17184Z" fill="#D11116"/>
<path d="M26.1377 6.64795H23.934V25.8849H26.1377V6.64795Z" fill="#2C4576"/>
<path d="M61.192 6.64795H58.9883V25.8849H61.192V6.64795Z" fill="#2C4576"/>
<path d="M81.9736 21.9279L69.8667 6.68196L69.8403 6.64795H68.0411V25.8849H70.241V10.6049L82.3214 25.8471L82.3478 25.8849H84.1508V6.64795H81.9736V21.9279Z" fill="#2C4576"/>
<path d="M6.11202 9.47873C7.33669 8.80978 8.7239 8.46964 10.2434 8.46964C12.5302 8.46964 14.439 9.2104 15.9207 10.673L15.9888 10.741L17.3684 9.33134L17.3079 9.26709C16.465 8.35248 15.4218 7.6533 14.1971 7.18844C12.9762 6.72358 11.6193 6.48926 10.164 6.48926C8.23251 6.48926 6.47866 6.91255 4.94782 7.75156C3.41699 8.59058 2.19609 9.76974 1.31917 11.255C0.442243 12.7403 0 14.4259 0 16.2665C0 18.107 0.442243 19.7926 1.31917 21.2817C2.19609 22.767 3.41699 23.9461 4.94782 24.7851C6.47866 25.6241 8.22495 26.0474 10.1376 26.0474C11.487 26.0474 12.7872 25.8358 14.0043 25.4163C15.2252 24.9968 16.2987 24.3883 17.1945 23.6022L17.2248 23.5757V16.172L10.3644 16.1682V18.2431H15.1043V22.6385C13.7738 23.5833 12.1295 24.0633 10.2169 24.0633C8.69744 24.0633 7.31401 23.7194 6.10068 23.0428C4.88735 22.3663 3.9197 21.4253 3.22421 20.2461C2.52872 19.0707 2.17719 17.7291 2.17719 16.2665C2.17719 14.8038 2.52872 13.4584 3.22421 12.2755C3.9197 11.0887 4.89113 10.1477 6.11202 9.47873Z" fill="#2C4576"/>
<path d="M99.9959 18.2431H104.736V22.6385C103.405 23.5833 101.761 24.0633 99.8485 24.0633C98.329 24.0633 96.9418 23.7194 95.7323 23.0428C94.5189 22.3663 93.5513 21.4253 92.8558 20.2461C92.1603 19.067 91.8088 17.7291 91.8088 16.2665C91.8088 14.8038 92.1603 13.4622 92.8558 12.2755C93.5513 11.0887 94.5227 10.1477 95.7436 9.47873C96.9683 8.80978 98.3555 8.46964 99.875 8.46964C102.162 8.46964 104.071 9.2104 105.552 10.673L105.62 10.741L107 9.33134L106.94 9.26709C106.1 8.35248 105.053 7.6533 103.829 7.18844C102.608 6.72358 101.251 6.48926 99.7956 6.48926C97.8641 6.48926 96.1103 6.91255 94.5794 7.75156C93.0486 8.59058 91.8277 9.76974 90.9508 11.255C90.0738 12.7403 89.6316 14.4297 89.6316 16.2702C89.6316 18.1108 90.0738 19.8002 90.9508 21.2854C91.8277 22.7707 93.0486 23.9499 94.5794 24.7889C96.1103 25.6279 97.8565 26.0512 99.7692 26.0512C101.119 26.0512 102.419 25.8396 103.636 25.4201C104.857 25.0006 105.93 24.3921 106.826 23.606L106.856 23.5795V16.172L99.9959 16.1682V18.2431Z" fill="#2C4576"/>
</g>
<defs>
<clipPath id="clip0_4_493">
<rect width="107" height="42" fill="white"/>
</clipPath>
</defs>
</svg>
