<svg style="display: none;" aria-hidden="true" xmlns="http://www.w3.org/2000/svg" xmlns:xlink="http://www.w3.org/1999/xlink"><symbol viewBox="0 0 128 68.482" id="svg-angles-right"><g data-name="Сгруппировать 407"><path data-name="Контур 12" d="M5452.067-3727.769l-30.9-24.794v18.893l19.125,15.348-19.125,15.348v18.893l30.9-24.794,11.771-9.447Z" transform="translate(-5421.172 3752.563)"/><path data-name="Контур 13" d="M6019.018-3727.769l-30.9-24.794v18.893l19.125,15.348-19.125,15.348v18.893l30.9-24.794,11.771-9.447Z" transform="translate(-5945.456 3752.563)"/><path data-name="Контур 14" d="M6585.968-3727.769l-30.9-24.794v18.893l19.125,15.348-19.125,15.348v18.893l30.9-24.794,11.771-9.447Z" transform="translate(-6469.74 3752.563)"/></g></symbol><symbol viewBox="0 0 20.739 20.739" id="svg-close"><g data-name="Сгруппировать 41"><path data-name="Прямоугольник 115" transform="rotate(-45 3.755 1.555)" d="M0 0H4.399V24.93H0z"/><path data-name="Прямоугольник 116" transform="rotate(45 8.814 21.28)" d="M0 0H4.399V24.93H0z"/></g></symbol><symbol viewBox="0 0 28.66 23" id="svg-double-angle-left"><g data-name="Сгруппировать 61"><path data-name="Контур 12" d="M5431.548-3744.236l-10.377-8.327v6.345l6.424,5.155-6.424,5.155v6.345l10.377-8.327,3.954-3.173Z" transform="rotate(180 2724.916 -1864.781)"/><path data-name="Контур 13" d="M5998.5-3744.236l-10.376-8.327v6.345l6.423,5.155-6.423,5.155v6.345l10.376-8.327,3.954-3.173Z" transform="rotate(180 3001.226 -1864.781)"/></g></symbol><symbol viewBox="0 0 28.66 23" id="svg-double-angle-right"><g data-name="Сгруппировать 59"><path data-name="Контур 12" d="M5431.548-3744.236l-10.377-8.327v6.345l6.424,5.155-6.424,5.155v6.345l10.377-8.327,3.954-3.173Z" transform="translate(-5421.172 3752.564)"/><path data-name="Контур 13" d="M5998.5-3744.236l-10.376-8.327v6.345l6.423,5.155-6.423,5.155v6.345l10.376-8.327,3.954-3.173Z" transform="translate(-5973.792 3752.564)"/></g></symbol><symbol viewBox="0 0 320 512" id="svg-facebook-f"><path d="M279.14 288l14.22-92.66h-88.91v-60.13c0-25.35 12.42-50.06 52.24-50.06h40.42V6.26S260.43 0 225.36 0c-73.22 0-121.08 44.38-121.08 124.72v70.62H22.89V288h81.39v224h100.17V288z"/></symbol><symbol viewBox="0 0 1000 1000" id="svg-gear"><path d="M941.2,369.3c-17.8-3.7-36.8-7.2-57.1-10.5c-3.8-10.3-8-20.5-12.6-30.6c12.1-16.9,23.2-33,33-48.1c15.8-24.3,12.4-56.2-8-76.7l-100-100c-11.8-11.8-27.5-17.9-43.3-17.9c-11.5,0-23.1,3.2-33.3,9.9c-15.1,9.8-31.2,20.9-48.1,33c-10-4.6-20.1-8.8-30.4-12.6c-3.3-20.5-6.9-39.7-10.6-57.4c-6-28.3-31-48.5-59.9-48.5H429.3c-28.9,0-53.9,20.2-59.9,48.5c-3.8,17.6-7.3,36.8-10.7,57.4c-10.3,3.8-20.4,8-30.4,12.6c-16.9-12.2-33-23.2-48.1-33c-10.2-6.6-21.8-9.9-33.3-9.9c-15.8,0-31.5,6.1-43.3,17.9l-100,100c-20.4,20.5-23.8,52.4-8.1,76.7c9.8,15.1,20.9,31.2,33,48.1c-4.6,10-8.8,20.1-12.6,30.4c-20.5,3.3-39.7,6.9-57.4,10.7c-28.3,6-48.5,31-48.5,59.9v141.5c0,28.9,20.2,53.9,48.5,59.9c17.6,3.8,36.8,7.3,57.4,10.7c3.8,10.3,8,20.5,12.6,30.4c-12.1,16.9-23.2,33-33,48.1c-15.7,24.3-12.4,56.2,8.1,76.7l100,100c11.8,11.8,27.5,17.9,43.3,17.9c11.5,0,23.1-3.2,33.3-9.9c15.1-9.8,31.2-20.9,48.1-33c10,4.6,20.1,8.8,30.4,12.6c3.4,20.5,6.9,39.7,10.7,57.4c6,28.3,31,48.5,59.9,48.5h141.5c28.9,0,53.9-20.2,59.9-48.5c3.8-17.7,7.3-36.9,10.6-57.4c10.3-3.8,20.5-8,30.6-12.6c16.6,12,32.5,23,47.7,32.9c10.3,6.7,22,10,33.6,10c15.8,0,31.5-6.1,43.3-17.9l100-100c20.5-20.5,23.8-52.6,7.9-76.9c-9.9-15.2-21-31.2-32.9-47.7c4.6-10,8.9-20.3,12.7-30.7c20.2-3.3,39.3-6.8,57.1-10.5c28.4-5.9,48.8-30.9,48.8-60V429.3C990,400.2,969.6,375.2,941.2,369.3z M928.8,570.7c-27.7,5.8-58.5,11-91.6,15.5c-8.3,32.5-21.1,63-37.7,91.1c20.2,26.7,38.3,52.1,53.8,75.8l-100,100c-23.7-15.5-49.1-33.6-75.8-53.8c-28.1,16.7-58.6,29.4-91,37.7c-4.6,33.4-9.8,64.3-15.7,91.6H429.3c-5.8-27.4-11.1-58.2-15.7-91.6c-32.4-8.3-62.9-21-90.9-37.6c-26.9,20.4-52.4,38.5-75.9,53.7l-100-100c15.3-23.5,33.3-49,53.7-75.9c-16.6-28-29.3-58.5-37.6-90.9c-33.4-4.6-64.3-9.8-91.6-15.7V429.3c27.4-5.8,58.2-11.1,91.6-15.7c8.3-32.4,21-62.9,37.6-90.9c-20.4-26.9-38.5-52.4-53.7-75.9l100-100c23.5,15.2,49,33.3,75.9,53.7c28-16.6,58.5-29.4,90.9-37.6c4.6-33.4,9.8-64.3,15.7-91.6h141.5c5.8,27.4,11.1,58.2,15.7,91.6c32.4,8.3,62.9,21,90.9,37.6c26.9-20.4,52.4-38.5,75.9-53.7l100,100c-15.2,23.5-33.3,49-53.7,75.9c16.6,28.1,29.4,58.6,37.7,91c33.1,4.6,63.9,9.8,91.6,15.5V570.7L928.8,570.7z M500,316.2c-101.5,0-183.7,82.3-183.7,183.8c0,101.5,82.3,183.7,183.7,183.7c101.5,0,183.8-82.3,183.8-183.7C683.7,398.5,601.5,316.2,500,316.2z M500,622.5c-67.7,0-122.5-54.8-122.5-122.5S432.3,377.5,500,377.5c67.7,0,122.5,54.8,122.5,122.5S567.6,622.5,500,622.5z"/></symbol><symbol viewBox="0 0 448 512" id="svg-instagram"><path d="M224.1 141c-63.6 0-114.9 51.3-114.9 114.9s51.3 114.9 114.9 114.9S339 319.5 339 255.9 287.7 141 224.1 141zm0 189.6c-41.1 0-74.7-33.5-74.7-74.7s33.5-74.7 74.7-74.7 74.7 33.5 74.7 74.7-33.6 74.7-74.7 74.7zm146.4-194.3c0 14.9-12 26.8-26.8 26.8-14.9 0-26.8-12-26.8-26.8s12-26.8 26.8-26.8 26.8 12 26.8 26.8zm76.1 27.2c-1.7-35.9-9.9-67.7-36.2-93.9-26.2-26.2-58-34.4-93.9-36.2-37-2.1-147.9-2.1-184.9 0-35.8 1.7-67.6 9.9-93.9 36.1s-34.4 58-36.2 93.9c-2.1 37-2.1 147.9 0 184.9 1.7 35.9 9.9 67.7 36.2 93.9s58 34.4 93.9 36.2c37 2.1 147.9 2.1 184.9 0 35.9-1.7 67.7-9.9 93.9-36.2 26.2-26.2 34.4-58 36.2-93.9 2.1-37 2.1-147.8 0-184.8zM398.8 388c-7.8 19.6-22.9 34.7-42.6 42.6-29.5 11.7-99.5 9-132.1 9s-102.7 2.6-132.1-9c-19.6-7.8-34.7-22.9-42.6-42.6-11.7-29.5-9-99.5-9-132.1s-2.6-102.7 9-132.1c7.8-19.6 22.9-34.7 42.6-42.6 29.5-11.7 99.5-9 132.1-9s102.7-2.6 132.1 9c19.6 7.8 34.7 22.9 42.6 42.6 11.7 29.5 9 99.5 9 132.1s2.7 102.7-9 132.1z"/></symbol><symbol viewBox="0 0 39.601 46" id="svg-logo"><path d="M1160.1,269.212l-.21.654a4.3,4.3,0,0,0-.206,1.313V285.23h6.218V269.212H1191.3l-3.549,6.428-1.557,2.82v-2.82h-13.858v9.59h10.121l-3.362,6.428h-6.759v11.907l-6.428,11.646V291.659h-6.218v23.553l-6.428-11.646V291.659H1151.7V285.23h1.563V271.178a4.289,4.289,0,0,0-.206-1.313l-.21-.654Z" transform="translate(-1151.696 -269.212)"/></symbol><symbol viewBox="0 0 448 512" id="svg-telegram-plane"><path d="M446.7 98.6l-67.6 318.8c-5.1 22.5-18.4 28.1-37.3 17.5l-103-75.9-49.7 47.8c-5.5 5.5-10.1 10.1-20.7 10.1l7.4-104.9 190.9-172.5c8.3-7.4-1.8-11.5-12.9-4.1L117.8 284 16.2 252.2c-22.1-6.9-22.5-22.1 4.6-32.7L418.2 66.4c18.4-6.9 34.5 4.1 28.5 32.2z"/></symbol><symbol viewBox="0 0 19.567 26" id="svg-user"><g data-name="Сгруппировать 1" transform="translate(-2166.96 -2539.561)"><circle data-name="Эллипс 1" cx="5.625" cy="5.625" r="5.625" transform="rotate(-67.5 2992.836 -348.386)"/><path data-name="Контур 2" d="M2186.527,2683.378v11.437H2166.96v-11.437a45.768,45.768,0,0,1,6.15-.908,7.272,7.272,0,0,0,7.266,0A45.782,45.782,0,0,1,2186.527,2683.378Z" transform="translate(0 -129.254)"/></g></symbol><symbol viewBox="0 0 576 512" id="svg-vk"><path d="M545 117.7c3.7-12.5 0-21.7-17.8-21.7h-58.9c-15 0-21.9 7.9-25.6 16.7 0 0-30 73.1-72.4 120.5-13.7 13.7-20 18.1-27.5 18.1-3.7 0-9.4-4.4-9.4-16.9V117.7c0-15-4.2-21.7-16.6-21.7h-92.6c-9.4 0-15 7-15 13.5 0 14.2 21.2 17.5 23.4 57.5v86.8c0 19-3.4 22.5-10.9 22.5-20 0-68.6-73.4-97.4-157.4-5.8-16.3-11.5-22.9-26.6-22.9H38.8c-16.8 0-20.2 7.9-20.2 16.7 0 15.6 20 93.1 93.1 195.5C160.4 378.1 229 416 291.4 416c37.5 0 42.1-8.4 42.1-22.9 0-66.8-3.4-73.1 15.4-73.1 8.7 0 23.7 4.4 58.7 38.1 40 40 46.6 57.9 69 57.9h58.9c16.8 0 25.3-8.4 20.4-25-11.2-34.9-86.9-106.7-90.3-111.5-8.7-11.2-6.2-16.2 0-26.2.1-.1 72-101.3 79.4-135.6z"/></symbol></svg>