<svg width="2274" height="3761" viewBox="0 0 2274 3761" fill="none" xmlns="http://www.w3.org/2000/svg">
<mask id="mask0_158_17269" style="mask-type:alpha" maskUnits="userSpaceOnUse" x="909" y="0" width="456" height="3753">
<rect x="909.923" y="1.00879" width="454" height="3751.41" fill="#D9D9D9"/>
</mask>
<g mask="url(#mask0_158_17269)">
<path fill-rule="evenodd" clip-rule="evenodd" d="M974.485 3642.19L1022.32 3642.09L1042.32 3662.04L1042.35 3718.58L974.536 3718.72L974.485 3642.19ZM983.584 3651.27L1014.49 3651.2L1014.51 3669.98L1033.23 3669.94L1033.25 3709.51L983.623 3709.61L983.584 3651.27ZM1020.01 3651.19L1033.28 3664.42L1020.02 3664.45L1020.01 3651.19L1020.01 3651.19Z" fill="white"/>
<path fill-rule="evenodd" clip-rule="evenodd" d="M1223.24 3674.97L1271.07 3674.87L1291.07 3694.81L1291.11 3751.36L1223.29 3751.5L1223.24 3674.97ZM1232.34 3684.04L1263.25 3683.98L1263.26 3702.75L1281.98 3702.71L1282.01 3742.28L1232.38 3742.39L1232.34 3684.04ZM1268.76 3683.97L1282.03 3697.2L1268.77 3697.23L1268.76 3683.96L1268.76 3683.97Z" fill="white"/>
<path fill-rule="evenodd" clip-rule="evenodd" d="M1103.24 3658.97L1151.07 3658.87L1171.07 3678.81L1171.11 3735.36L1103.29 3735.5L1103.24 3658.97ZM1112.34 3668.04L1143.25 3667.98L1143.26 3686.75L1161.98 3686.71L1162.01 3726.28L1112.38 3726.39L1112.34 3668.04ZM1148.76 3667.97L1162.03 3681.2L1148.77 3681.23L1148.76 3667.96L1148.76 3667.97Z" fill="white"/>
<path fill-rule="evenodd" clip-rule="evenodd" d="M1223.24 3535.79L1271.07 3535.69L1291.07 3555.63L1291.11 3612.18L1223.29 3612.32L1223.24 3535.79V3535.79ZM1232.34 3544.86L1263.25 3544.8L1263.26 3563.57L1281.98 3563.53L1282.01 3603.11L1232.38 3603.21L1232.34 3544.86ZM1268.76 3544.79L1282.03 3558.02L1268.77 3558.05L1268.76 3544.79L1268.76 3544.79Z" fill="white"/>
<path fill-rule="evenodd" clip-rule="evenodd" d="M976.038 2480.64L1023.87 2480.54L1043.87 2500.49L1043.91 2557.03L976.089 2557.17L976.038 2480.64V2480.64ZM985.137 2489.71L1016.05 2489.65L1016.06 2508.42L1034.78 2508.39L1034.81 2547.96L985.176 2548.06L985.137 2489.71ZM1021.56 2489.64L1034.83 2502.87L1021.57 2502.9L1021.56 2489.64L1021.56 2489.64Z" fill="white"/>
<path fill-rule="evenodd" clip-rule="evenodd" d="M975.53 2627.01L1023.36 2626.91L1043.36 2646.86L1043.4 2703.4L975.581 2703.54L975.53 2627.01V2627.01ZM984.628 2636.09L1015.54 2636.02L1015.55 2654.8L1034.27 2654.76L1034.3 2694.33L984.668 2694.43L984.628 2636.09ZM1021.05 2636.01L1034.32 2649.24L1021.06 2649.27L1021.05 2636.01L1021.05 2636.01Z" fill="white"/>
<path fill-rule="evenodd" clip-rule="evenodd" d="M1099.81 2502.39L1147.64 2502.29L1167.64 2522.24L1167.68 2578.78L1099.86 2578.92L1099.81 2502.39V2502.39ZM1108.91 2511.47L1139.82 2511.4L1139.83 2530.18L1158.55 2530.14L1158.58 2569.71L1108.95 2569.81L1108.91 2511.47ZM1145.33 2511.39L1158.6 2524.62L1145.34 2524.65L1145.33 2511.39L1145.33 2511.39Z" fill="white"/>
<path fill-rule="evenodd" clip-rule="evenodd" d="M1100.32 2356.02L1148.15 2355.92L1168.15 2375.87L1168.19 2432.41L1100.37 2432.55L1100.32 2356.02V2356.02ZM1109.42 2365.09L1140.33 2365.03L1140.34 2383.8L1159.06 2383.77L1159.09 2423.34L1109.46 2423.44L1109.42 2365.09ZM1145.84 2365.02L1159.11 2378.25L1145.85 2378.28L1145.84 2365.02L1145.84 2365.02Z" fill="white"/>
<path fill-rule="evenodd" clip-rule="evenodd" d="M1224.6 2231.4L1272.43 2231.3L1292.43 2251.25L1292.47 2307.79L1224.65 2307.93L1224.6 2231.4V2231.4ZM1233.7 2240.47L1264.61 2240.41L1264.62 2259.18L1283.34 2259.15L1283.37 2298.72L1233.74 2298.82L1233.7 2240.47ZM1270.12 2240.4L1283.39 2253.63L1270.13 2253.66L1270.12 2240.4L1270.12 2240.4Z" fill="white"/>
<path fill-rule="evenodd" clip-rule="evenodd" d="M975.216 2916.22L1023.05 2916.12L1043.05 2936.06L1043.08 2992.61L975.267 2992.75L975.216 2916.22V2916.22ZM984.314 2925.29L1015.23 2925.23L1015.24 2944L1033.96 2943.96L1033.99 2983.54L984.354 2983.64L984.314 2925.29ZM1020.74 2925.22L1034.01 2938.45L1020.75 2938.48L1020.74 2925.22L1020.74 2925.22Z" fill="white"/>
<path fill-rule="evenodd" clip-rule="evenodd" d="M975.723 2769.85L1023.56 2769.75L1043.56 2789.69L1043.59 2846.24L975.775 2846.38L975.723 2769.85V2769.85ZM984.822 2778.92L1015.73 2778.86L1015.75 2797.63L1034.47 2797.59L1034.49 2837.16L984.861 2837.27L984.822 2778.92ZM1021.25 2778.85L1034.52 2792.08L1021.25 2792.11L1021.25 2778.85L1021.25 2778.85Z" fill="white"/>
<path fill-rule="evenodd" clip-rule="evenodd" d="M1100.01 2645.23L1147.84 2645.13L1167.84 2665.07L1167.87 2721.62L1100.06 2721.76L1100.01 2645.23V2645.23ZM1109.1 2654.3L1140.02 2654.24L1140.03 2673.01L1158.75 2672.97L1158.78 2712.54L1109.14 2712.65L1109.1 2654.3ZM1145.53 2654.23L1158.8 2667.46L1145.54 2667.49L1145.53 2654.23L1145.53 2654.23Z" fill="white"/>
<path fill-rule="evenodd" clip-rule="evenodd" d="M1099.5 2791.6L1147.33 2791.5L1167.33 2811.44L1167.37 2867.99L1099.55 2868.13L1099.5 2791.6V2791.6ZM1108.6 2800.67L1139.51 2800.61L1139.52 2819.38L1158.24 2819.34L1158.27 2858.92L1108.63 2859.02L1108.6 2800.67ZM1145.02 2800.6L1158.29 2813.83L1145.03 2813.86L1145.02 2800.6L1145.02 2800.6Z" fill="white"/>
<path fill-rule="evenodd" clip-rule="evenodd" d="M1223.78 2666.98L1271.61 2666.88L1291.61 2686.82L1291.65 2743.37L1223.83 2743.51L1223.78 2666.98V2666.98ZM1232.88 2676.05L1263.79 2675.99L1263.8 2694.76L1282.52 2694.72L1282.55 2734.3L1232.92 2734.4L1232.88 2676.05ZM1269.3 2675.98L1282.57 2689.21L1269.31 2689.24L1269.3 2675.98L1269.3 2675.98Z" fill="white"/>
<path fill-rule="evenodd" clip-rule="evenodd" d="M1224.29 2520.61L1272.12 2520.51L1292.12 2540.45L1292.16 2597L1224.34 2597.14L1224.29 2520.61V2520.61ZM1233.39 2529.68L1264.3 2529.62L1264.31 2548.39L1283.03 2548.35L1283.06 2587.93L1233.42 2588.03L1233.39 2529.68ZM1269.81 2529.61L1283.08 2542.84L1269.82 2542.87L1269.81 2529.61L1269.81 2529.61Z" fill="white"/>
<path fill-rule="evenodd" clip-rule="evenodd" d="M976.312 3202.6L1024.14 3202.5L1044.14 3222.44L1044.18 3278.99L976.363 3279.13L976.312 3202.6V3202.6ZM985.411 3211.67L1016.32 3211.61L1016.33 3230.38L1035.06 3230.34L1035.08 3269.91L985.45 3270.02L985.411 3211.67ZM1021.84 3211.59L1035.1 3224.83L1021.84 3224.85L1021.83 3211.59L1021.84 3211.59Z" fill="white"/>
<path fill-rule="evenodd" clip-rule="evenodd" d="M977.528 3056.93L1025.36 3056.83L1045.36 3076.78L1045.4 3133.32L977.579 3133.46L977.528 3056.93V3056.93ZM986.627 3066L1017.54 3065.94L1017.55 3084.71L1036.27 3084.68L1036.3 3124.25L986.666 3124.35L986.627 3066ZM1023.05 3065.93L1036.32 3079.16L1023.06 3079.19L1023.05 3065.93L1023.05 3065.93Z" fill="white"/>
<path fill-rule="evenodd" clip-rule="evenodd" d="M1101.3 3078.68L1149.13 3078.58L1169.13 3098.53L1169.17 3155.07L1101.35 3155.21L1101.3 3078.68V3078.68ZM1110.4 3087.76L1141.31 3087.69L1141.32 3106.47L1160.05 3106.43L1160.07 3146L1110.44 3146.1L1110.4 3087.76ZM1146.82 3087.68L1160.09 3100.91L1146.83 3100.94L1146.82 3087.68L1146.82 3087.68Z" fill="white"/>
<path fill-rule="evenodd" clip-rule="evenodd" d="M1101.81 2932.31L1149.64 2932.21L1169.64 2952.16L1169.68 3008.7L1101.86 3008.84L1101.81 2932.31V2932.31ZM1110.91 2941.38L1141.82 2941.32L1141.83 2960.09L1160.55 2960.06L1160.58 2999.63L1110.95 2999.73L1110.91 2941.38ZM1147.33 2941.31L1160.6 2954.54L1147.34 2954.57L1147.33 2941.31L1147.33 2941.31Z" fill="white"/>
<path fill-rule="evenodd" clip-rule="evenodd" d="M1226.09 2807.69L1273.92 2807.59L1293.92 2827.54L1293.96 2884.08L1226.14 2884.22L1226.09 2807.69V2807.69ZM1235.19 2816.76L1266.1 2816.7L1266.11 2835.47L1284.83 2835.44L1284.86 2875.01L1235.23 2875.11L1235.19 2816.76ZM1271.61 2816.69L1284.88 2829.92L1271.62 2829.95L1271.61 2816.69L1271.61 2816.69Z" fill="white"/>
<path fill-rule="evenodd" clip-rule="evenodd" d="M1225.58 2954.06L1273.42 2953.96L1293.41 2973.91L1293.45 3030.45L1225.63 3030.59L1225.58 2954.06V2954.06ZM1234.68 2963.14L1265.59 2963.07L1265.6 2981.85L1284.33 2981.81L1284.35 3021.38L1234.72 3021.48L1234.68 2963.14ZM1271.11 2963.06L1284.38 2976.29L1271.11 2976.32L1271.11 2963.06L1271.11 2963.06Z" fill="white"/>
<path fill-rule="evenodd" clip-rule="evenodd" d="M1100.28 3367.18L1148.11 3367.08L1168.11 3387.03L1168.15 3443.58L1100.33 3443.71L1100.28 3367.18V3367.18ZM1109.38 3376.26L1140.29 3376.19L1140.3 3394.97L1159.02 3394.93L1159.05 3434.5L1109.42 3434.6L1109.38 3376.26ZM1145.8 3376.18L1159.07 3389.42L1145.81 3389.44L1145.8 3376.18L1145.8 3376.18Z" fill="white"/>
<path fill-rule="evenodd" clip-rule="evenodd" d="M977.214 3346.14L1025.05 3346.04L1045.05 3365.98L1045.08 3422.53L977.265 3422.67L977.214 3346.14V3346.14ZM986.313 3355.21L1017.22 3355.15L1017.24 3373.92L1035.96 3373.88L1035.98 3413.46L986.352 3413.56L986.313 3355.21ZM1022.74 3355.14L1036.01 3368.37L1022.75 3368.4L1022.74 3355.14L1022.74 3355.14Z" fill="white"/>
<path fill-rule="evenodd" clip-rule="evenodd" d="M976.705 3492.51L1024.54 3492.41L1044.54 3512.35L1044.57 3568.9L976.757 3569.04L976.705 3492.51V3492.51ZM985.804 3501.58L1016.72 3501.52L1016.73 3520.29L1035.45 3520.25L1035.48 3559.83L985.843 3559.93L985.804 3501.58ZM1022.23 3501.51L1035.5 3514.74L1022.24 3514.77L1022.23 3501.51L1022.23 3501.51Z" fill="white"/>
<path fill-rule="evenodd" clip-rule="evenodd" d="M1101.5 3221.52L1149.33 3221.42L1169.33 3241.36L1169.36 3297.91L1101.55 3298.05L1101.5 3221.52V3221.52ZM1110.59 3230.59L1141.51 3230.53L1141.52 3249.3L1160.24 3249.26L1160.27 3288.84L1110.63 3288.94L1110.59 3230.59ZM1147.02 3230.52L1160.29 3243.75L1147.03 3243.78L1147.02 3230.52L1147.02 3230.52Z" fill="white"/>
<path fill-rule="evenodd" clip-rule="evenodd" d="M1225.78 3096.9L1273.61 3096.8L1293.61 3116.74L1293.65 3173.29L1225.83 3173.43L1225.78 3096.9V3096.9ZM1234.88 3105.97L1265.79 3105.91L1265.8 3124.68L1284.52 3124.64L1284.55 3164.22L1234.91 3164.32L1234.88 3105.97ZM1271.3 3105.9L1284.57 3119.13L1271.31 3119.16L1271.3 3105.9L1271.3 3105.9Z" fill="white"/>
<path fill-rule="evenodd" clip-rule="evenodd" d="M1224.76 3389.64L1272.59 3389.54L1292.59 3409.49L1292.63 3466.03L1224.81 3466.17L1224.76 3389.64V3389.64ZM1233.86 3398.72L1264.77 3398.65L1264.78 3417.43L1283.5 3417.39L1283.53 3456.96L1233.9 3457.06L1233.86 3398.72ZM1270.28 3398.64L1283.55 3411.87L1270.29 3411.9L1270.28 3398.64L1270.28 3398.64Z" fill="white"/>
<path fill-rule="evenodd" clip-rule="evenodd" d="M976.038 2480.64L1023.87 2480.54L1043.87 2500.49L1043.91 2557.03L976.089 2557.17L976.038 2480.64V2480.64ZM985.137 2489.71L1016.05 2489.65L1016.06 2508.42L1034.78 2508.39L1034.81 2547.96L985.176 2548.06L985.137 2489.71ZM1021.56 2489.64L1034.83 2502.87L1021.57 2502.9L1021.56 2489.64L1021.56 2489.64Z" fill="white"/>
<path fill-rule="evenodd" clip-rule="evenodd" d="M975.53 2627.01L1023.36 2626.91L1043.36 2646.86L1043.4 2703.4L975.581 2703.54L975.53 2627.01V2627.01ZM984.628 2636.09L1015.54 2636.02L1015.55 2654.8L1034.27 2654.76L1034.3 2694.33L984.668 2694.43L984.628 2636.09ZM1021.05 2636.01L1034.32 2649.24L1021.06 2649.27L1021.05 2636.01L1021.05 2636.01Z" fill="white"/>
<path fill-rule="evenodd" clip-rule="evenodd" d="M1099.81 2502.39L1147.64 2502.29L1167.64 2522.24L1167.68 2578.78L1099.86 2578.92L1099.81 2502.39V2502.39ZM1108.91 2511.47L1139.82 2511.4L1139.83 2530.18L1158.55 2530.14L1158.58 2569.71L1108.95 2569.81L1108.91 2511.47ZM1145.33 2511.39L1158.6 2524.62L1145.34 2524.65L1145.33 2511.39L1145.33 2511.39Z" fill="white"/>
<path fill-rule="evenodd" clip-rule="evenodd" d="M1100.32 2356.02L1148.15 2355.92L1168.15 2375.87L1168.19 2432.41L1100.37 2432.55L1100.32 2356.02V2356.02ZM1109.42 2365.09L1140.33 2365.03L1140.34 2383.8L1159.06 2383.77L1159.09 2423.34L1109.46 2423.44L1109.42 2365.09ZM1145.84 2365.02L1159.11 2378.25L1145.85 2378.28L1145.84 2365.02L1145.84 2365.02Z" fill="white"/>
<path fill-rule="evenodd" clip-rule="evenodd" d="M1224.6 2231.4L1272.43 2231.3L1292.43 2251.25L1292.47 2307.79L1224.65 2307.93L1224.6 2231.4V2231.4ZM1233.7 2240.47L1264.61 2240.41L1264.62 2259.18L1283.34 2259.15L1283.37 2298.72L1233.74 2298.82L1233.7 2240.47ZM1270.12 2240.4L1283.39 2253.63L1270.13 2253.66L1270.12 2240.4L1270.12 2240.4Z" fill="white"/>
<path fill-rule="evenodd" clip-rule="evenodd" d="M975.216 2916.22L1023.05 2916.12L1043.05 2936.06L1043.08 2992.61L975.267 2992.75L975.216 2916.22V2916.22ZM984.314 2925.29L1015.23 2925.23L1015.24 2944L1033.96 2943.96L1033.99 2983.54L984.354 2983.64L984.314 2925.29ZM1020.74 2925.22L1034.01 2938.45L1020.75 2938.48L1020.74 2925.22L1020.74 2925.22Z" fill="white"/>
<path fill-rule="evenodd" clip-rule="evenodd" d="M975.723 2769.85L1023.56 2769.75L1043.56 2789.69L1043.59 2846.24L975.775 2846.38L975.723 2769.85V2769.85ZM984.822 2778.92L1015.73 2778.86L1015.75 2797.63L1034.47 2797.59L1034.49 2837.16L984.861 2837.27L984.822 2778.92ZM1021.25 2778.85L1034.52 2792.08L1021.25 2792.11L1021.25 2778.85L1021.25 2778.85Z" fill="white"/>
<path fill-rule="evenodd" clip-rule="evenodd" d="M1100.01 2645.23L1147.84 2645.13L1167.84 2665.07L1167.87 2721.62L1100.06 2721.76L1100.01 2645.23V2645.23ZM1109.1 2654.3L1140.02 2654.24L1140.03 2673.01L1158.75 2672.97L1158.78 2712.54L1109.14 2712.65L1109.1 2654.3ZM1145.53 2654.23L1158.8 2667.46L1145.54 2667.49L1145.53 2654.23L1145.53 2654.23Z" fill="white"/>
<path fill-rule="evenodd" clip-rule="evenodd" d="M1099.5 2791.6L1147.33 2791.5L1167.33 2811.44L1167.37 2867.99L1099.55 2868.13L1099.5 2791.6V2791.6ZM1108.6 2800.67L1139.51 2800.61L1139.52 2819.38L1158.24 2819.34L1158.27 2858.92L1108.63 2859.02L1108.6 2800.67ZM1145.02 2800.6L1158.29 2813.83L1145.03 2813.86L1145.02 2800.6L1145.02 2800.6Z" fill="white"/>
<path fill-rule="evenodd" clip-rule="evenodd" d="M1223.78 2666.98L1271.61 2666.88L1291.61 2686.82L1291.65 2743.37L1223.83 2743.51L1223.78 2666.98V2666.98ZM1232.88 2676.05L1263.79 2675.99L1263.8 2694.76L1282.52 2694.72L1282.55 2734.3L1232.92 2734.4L1232.88 2676.05ZM1269.3 2675.98L1282.57 2689.21L1269.31 2689.24L1269.3 2675.98L1269.3 2675.98Z" fill="white"/>
<path fill-rule="evenodd" clip-rule="evenodd" d="M1224.29 2520.61L1272.12 2520.51L1292.12 2540.45L1292.16 2597L1224.34 2597.14L1224.29 2520.61V2520.61ZM1233.39 2529.68L1264.3 2529.62L1264.31 2548.39L1283.03 2548.35L1283.06 2587.93L1233.42 2588.03L1233.39 2529.68ZM1269.81 2529.61L1283.08 2542.84L1269.82 2542.87L1269.81 2529.61L1269.81 2529.61Z" fill="white"/>
<path fill-rule="evenodd" clip-rule="evenodd" d="M976.312 3202.6L1024.14 3202.5L1044.14 3222.44L1044.18 3278.99L976.363 3279.13L976.312 3202.6V3202.6ZM985.411 3211.67L1016.32 3211.61L1016.33 3230.38L1035.06 3230.34L1035.08 3269.91L985.45 3270.02L985.411 3211.67ZM1021.84 3211.59L1035.1 3224.83L1021.84 3224.85L1021.83 3211.59L1021.84 3211.59Z" fill="white"/>
<path fill-rule="evenodd" clip-rule="evenodd" d="M977.528 3056.93L1025.36 3056.83L1045.36 3076.78L1045.4 3133.32L977.579 3133.46L977.528 3056.93V3056.93ZM986.627 3066L1017.54 3065.94L1017.55 3084.71L1036.27 3084.68L1036.3 3124.25L986.666 3124.35L986.627 3066ZM1023.05 3065.93L1036.32 3079.16L1023.06 3079.19L1023.05 3065.93L1023.05 3065.93Z" fill="white"/>
<path fill-rule="evenodd" clip-rule="evenodd" d="M1101.3 3078.68L1149.13 3078.58L1169.13 3098.53L1169.17 3155.07L1101.35 3155.21L1101.3 3078.68V3078.68ZM1110.4 3087.76L1141.31 3087.69L1141.32 3106.47L1160.05 3106.43L1160.07 3146L1110.44 3146.1L1110.4 3087.76ZM1146.82 3087.68L1160.09 3100.91L1146.83 3100.94L1146.82 3087.68L1146.82 3087.68Z" fill="white"/>
<path fill-rule="evenodd" clip-rule="evenodd" d="M1101.81 2932.31L1149.64 2932.21L1169.64 2952.16L1169.68 3008.7L1101.86 3008.84L1101.81 2932.31V2932.31ZM1110.91 2941.38L1141.82 2941.32L1141.83 2960.09L1160.55 2960.06L1160.58 2999.63L1110.95 2999.73L1110.91 2941.38ZM1147.33 2941.31L1160.6 2954.54L1147.34 2954.57L1147.33 2941.31L1147.33 2941.31Z" fill="white"/>
<path fill-rule="evenodd" clip-rule="evenodd" d="M1226.09 2807.69L1273.92 2807.59L1293.92 2827.54L1293.96 2884.08L1226.14 2884.22L1226.09 2807.69V2807.69ZM1235.19 2816.76L1266.1 2816.7L1266.11 2835.47L1284.83 2835.44L1284.86 2875.01L1235.23 2875.11L1235.19 2816.76ZM1271.61 2816.69L1284.88 2829.92L1271.62 2829.95L1271.61 2816.69L1271.61 2816.69Z" fill="white"/>
<path fill-rule="evenodd" clip-rule="evenodd" d="M1225.58 2954.06L1273.42 2953.96L1293.41 2973.91L1293.45 3030.45L1225.63 3030.59L1225.58 2954.06V2954.06ZM1234.68 2963.14L1265.59 2963.07L1265.6 2981.85L1284.33 2981.81L1284.35 3021.38L1234.72 3021.48L1234.68 2963.14ZM1271.11 2963.06L1284.38 2976.29L1271.11 2976.32L1271.11 2963.06L1271.11 2963.06Z" fill="white"/>
<path fill-rule="evenodd" clip-rule="evenodd" d="M1100.28 3367.18L1148.11 3367.08L1168.11 3387.03L1168.15 3443.58L1100.33 3443.71L1100.28 3367.18V3367.18ZM1109.38 3376.26L1140.29 3376.19L1140.3 3394.97L1159.02 3394.93L1159.05 3434.5L1109.42 3434.6L1109.38 3376.26ZM1145.8 3376.18L1159.07 3389.42L1145.81 3389.44L1145.8 3376.18L1145.8 3376.18Z" fill="white"/>
<path fill-rule="evenodd" clip-rule="evenodd" d="M977.214 3346.14L1025.05 3346.04L1045.05 3365.98L1045.08 3422.53L977.265 3422.67L977.214 3346.14V3346.14ZM986.313 3355.21L1017.22 3355.15L1017.24 3373.92L1035.96 3373.88L1035.98 3413.46L986.352 3413.56L986.313 3355.21ZM1022.74 3355.14L1036.01 3368.37L1022.75 3368.4L1022.74 3355.14L1022.74 3355.14Z" fill="white"/>
<path fill-rule="evenodd" clip-rule="evenodd" d="M976.705 3492.51L1024.54 3492.41L1044.54 3512.35L1044.57 3568.9L976.757 3569.04L976.705 3492.51V3492.51ZM985.804 3501.58L1016.72 3501.52L1016.73 3520.29L1035.45 3520.25L1035.48 3559.83L985.843 3559.93L985.804 3501.58ZM1022.23 3501.51L1035.5 3514.74L1022.24 3514.77L1022.23 3501.51L1022.23 3501.51Z" fill="white"/>
<path fill-rule="evenodd" clip-rule="evenodd" d="M1101.5 3221.52L1149.33 3221.42L1169.33 3241.36L1169.36 3297.91L1101.55 3298.05L1101.5 3221.52V3221.52ZM1110.59 3230.59L1141.51 3230.53L1141.52 3249.3L1160.24 3249.26L1160.27 3288.84L1110.63 3288.94L1110.59 3230.59ZM1147.02 3230.52L1160.29 3243.75L1147.03 3243.78L1147.02 3230.52L1147.02 3230.52Z" fill="white"/>
<path fill-rule="evenodd" clip-rule="evenodd" d="M1225.78 3096.9L1273.61 3096.8L1293.61 3116.74L1293.65 3173.29L1225.83 3173.43L1225.78 3096.9V3096.9ZM1234.88 3105.97L1265.79 3105.91L1265.8 3124.68L1284.52 3124.64L1284.55 3164.22L1234.91 3164.32L1234.88 3105.97ZM1271.3 3105.9L1284.57 3119.13L1271.31 3119.16L1271.3 3105.9L1271.3 3105.9Z" fill="white"/>
<path fill-rule="evenodd" clip-rule="evenodd" d="M1224.76 3389.64L1272.59 3389.54L1292.59 3409.49L1292.63 3466.03L1224.81 3466.17L1224.76 3389.64V3389.64ZM1233.86 3398.72L1264.77 3398.65L1264.78 3417.43L1283.5 3417.39L1283.53 3456.96L1233.9 3457.06L1233.86 3398.72ZM1270.28 3398.64L1283.55 3411.87L1270.29 3411.9L1270.28 3398.64L1270.28 3398.64Z" fill="white"/>
<path fill-rule="evenodd" clip-rule="evenodd" d="M975.996 1468.64L1023.83 1468.54L1043.83 1488.49L1043.87 1545.03L976.048 1545.17L975.996 1468.64V1468.64ZM985.095 1477.71L1016.01 1477.65L1016.02 1496.42L1034.74 1496.39L1034.77 1535.96L985.134 1536.06L985.095 1477.71ZM1021.52 1477.64L1034.79 1490.87L1021.53 1490.9L1021.52 1477.64L1021.52 1477.64Z" fill="white"/>
<path fill-rule="evenodd" clip-rule="evenodd" d="M975.488 1615.01L1023.32 1614.91L1043.32 1634.86L1043.36 1691.4L975.539 1691.54L975.488 1615.01V1615.01ZM984.587 1624.09L1015.5 1624.02L1015.51 1642.8L1034.23 1642.76L1034.26 1682.33L984.626 1682.43L984.587 1624.09ZM1021.01 1624.01L1034.28 1637.24L1021.02 1637.27L1021.01 1624.01L1021.01 1624.01Z" fill="white"/>
<path fill-rule="evenodd" clip-rule="evenodd" d="M1099.77 1490.39L1147.6 1490.29L1167.6 1510.24L1167.64 1566.78L1099.82 1566.92L1099.77 1490.39V1490.39ZM1108.87 1499.47L1139.78 1499.4L1139.79 1518.18L1158.51 1518.14L1158.54 1557.71L1108.91 1557.81L1108.87 1499.47ZM1145.29 1499.39L1158.56 1512.62L1145.3 1512.65L1145.29 1499.39L1145.29 1499.39Z" fill="white"/>
<path fill-rule="evenodd" clip-rule="evenodd" d="M1100.28 1344.02L1148.11 1343.92L1168.11 1363.87L1168.15 1420.41L1100.33 1420.55L1100.28 1344.02V1344.02ZM1109.38 1353.09L1140.29 1353.03L1140.3 1371.8L1159.02 1371.77L1159.05 1411.34L1109.42 1411.44L1109.38 1353.09ZM1145.8 1353.02L1159.07 1366.25L1145.81 1366.28L1145.8 1353.02L1145.8 1353.02Z" fill="white"/>
<path fill-rule="evenodd" clip-rule="evenodd" d="M1224.56 1219.4L1272.39 1219.3L1292.39 1239.25L1292.43 1295.79L1224.61 1295.93L1224.56 1219.4V1219.4ZM1233.66 1228.47L1264.57 1228.41L1264.58 1247.18L1283.3 1247.15L1283.33 1286.72L1233.7 1286.82L1233.66 1228.47ZM1270.08 1228.4L1283.35 1241.63L1270.09 1241.66L1270.08 1228.4L1270.08 1228.4Z" fill="white"/>
<path fill-rule="evenodd" clip-rule="evenodd" d="M975.174 1904.22L1023.01 1904.12L1043.01 1924.06L1043.04 1980.61L975.225 1980.75L975.174 1904.22V1904.22ZM984.273 1913.29L1015.18 1913.23L1015.2 1932L1033.92 1931.96L1033.94 1971.54L984.312 1971.64L984.273 1913.29ZM1020.7 1913.22L1033.97 1926.45L1020.71 1926.48L1020.7 1913.22L1020.7 1913.22Z" fill="white"/>
<path fill-rule="evenodd" clip-rule="evenodd" d="M975.682 1757.85L1023.51 1757.75L1043.51 1777.69L1043.55 1834.24L975.733 1834.38L975.682 1757.85V1757.85ZM984.781 1766.92L1015.69 1766.86L1015.7 1785.63L1034.43 1785.59L1034.45 1825.16L984.82 1825.27L984.781 1766.92ZM1021.21 1766.85L1034.47 1780.08L1021.21 1780.11L1021.2 1766.85L1021.21 1766.85Z" fill="white"/>
<path fill-rule="evenodd" clip-rule="evenodd" d="M1099.96 1633.23L1147.8 1633.13L1167.8 1653.07L1167.83 1709.62L1100.01 1709.76L1099.96 1633.23V1633.23ZM1109.06 1642.3L1139.97 1642.24L1139.99 1661.01L1158.71 1660.97L1158.73 1700.55L1109.1 1700.65L1109.06 1642.3ZM1145.49 1642.23L1158.76 1655.46L1145.5 1655.49L1145.49 1642.23L1145.49 1642.23Z" fill="white"/>
<path fill-rule="evenodd" clip-rule="evenodd" d="M1099.46 1779.6L1147.29 1779.5L1167.29 1799.44L1167.32 1855.99L1099.51 1856.13L1099.46 1779.6V1779.6ZM1108.55 1788.67L1139.47 1788.61L1139.48 1807.38L1158.2 1807.34L1158.23 1846.92L1108.59 1847.02L1108.55 1788.67ZM1144.98 1788.6L1158.25 1801.83L1144.99 1801.86L1144.98 1788.6L1144.98 1788.6Z" fill="white"/>
<path fill-rule="evenodd" clip-rule="evenodd" d="M1223.74 1654.98L1271.57 1654.88L1291.57 1674.82L1291.61 1731.37L1223.79 1731.51L1223.74 1654.98V1654.98ZM1232.84 1664.05L1263.75 1663.99L1263.76 1682.76L1282.48 1682.72L1282.51 1722.3L1232.88 1722.4L1232.84 1664.05ZM1269.26 1663.98L1282.53 1677.21L1269.27 1677.24L1269.26 1663.98L1269.26 1663.98Z" fill="white"/>
<path fill-rule="evenodd" clip-rule="evenodd" d="M1224.24 1508.61L1272.08 1508.51L1292.08 1528.45L1292.11 1585L1224.3 1585.14L1224.24 1508.61V1508.61ZM1233.34 1517.68L1264.26 1517.62L1264.27 1536.39L1282.99 1536.35L1283.01 1575.93L1233.38 1576.03L1233.34 1517.68ZM1269.77 1517.61L1283.04 1530.84L1269.78 1530.87L1269.77 1517.61L1269.77 1517.61Z" fill="white"/>
<path fill-rule="evenodd" clip-rule="evenodd" d="M976.27 2190.6L1024.1 2190.5L1044.1 2210.44L1044.14 2266.99L976.322 2267.13L976.27 2190.6V2190.6ZM985.369 2199.67L1016.28 2199.61L1016.29 2218.38L1035.01 2218.34L1035.04 2257.91L985.408 2258.02L985.369 2199.67ZM1021.79 2199.6L1035.06 2212.83L1021.8 2212.86L1021.79 2199.59L1021.79 2199.6Z" fill="white"/>
<path fill-rule="evenodd" clip-rule="evenodd" d="M977.487 2044.93L1025.32 2044.83L1045.32 2064.78L1045.36 2121.32L977.538 2121.46L977.487 2044.93V2044.93ZM986.585 2054L1017.5 2053.94L1017.51 2072.71L1036.23 2072.68L1036.26 2112.25L986.625 2112.35L986.585 2054ZM1023.01 2053.93L1036.28 2067.16L1023.02 2067.19L1023.01 2053.93L1023.01 2053.93Z" fill="white"/>
<path fill-rule="evenodd" clip-rule="evenodd" d="M1101.26 2066.68L1149.09 2066.58L1169.09 2086.53L1169.13 2143.07L1101.31 2143.21L1101.26 2066.68V2066.68ZM1110.36 2075.76L1141.27 2075.69L1141.28 2094.47L1160 2094.43L1160.03 2134L1110.4 2134.1L1110.36 2075.76ZM1146.78 2075.68L1160.05 2088.91L1146.79 2088.94L1146.78 2075.68L1146.78 2075.68Z" fill="white"/>
<path fill-rule="evenodd" clip-rule="evenodd" d="M1101.77 1920.31L1149.6 1920.21L1169.6 1940.16L1169.64 1996.7L1101.82 1996.84L1101.77 1920.31V1920.31ZM1110.87 1929.38L1141.78 1929.32L1141.79 1948.09L1160.51 1948.06L1160.54 1987.63L1110.91 1987.73L1110.87 1929.38ZM1147.29 1929.31L1160.56 1942.54L1147.3 1942.57L1147.29 1929.31L1147.29 1929.31Z" fill="white"/>
<path fill-rule="evenodd" clip-rule="evenodd" d="M1226.05 1795.69L1273.88 1795.59L1293.88 1815.54L1293.92 1872.08L1226.1 1872.22L1226.05 1795.69V1795.69ZM1235.15 1804.76L1266.06 1804.7L1266.07 1823.47L1284.79 1823.44L1284.82 1863.01L1235.19 1863.11L1235.15 1804.76ZM1271.57 1804.69L1284.84 1817.92L1271.58 1817.95L1271.57 1804.69L1271.57 1804.69Z" fill="white"/>
<path fill-rule="evenodd" clip-rule="evenodd" d="M1225.54 1942.06L1273.37 1941.96L1293.37 1961.91L1293.41 2018.45L1225.59 2018.59L1225.54 1942.06V1942.06ZM1234.64 1951.14L1265.55 1951.07L1265.56 1969.85L1284.28 1969.81L1284.31 2009.38L1234.68 2009.48L1234.64 1951.14ZM1271.06 1951.06L1284.33 1964.29L1271.07 1964.32L1271.06 1951.06L1271.06 1951.06Z" fill="white"/>
<path fill-rule="evenodd" clip-rule="evenodd" d="M1100.24 2355.18L1148.07 2355.08L1168.07 2375.03L1168.11 2431.58L1100.29 2431.71L1100.24 2355.18V2355.18ZM1109.34 2364.26L1140.25 2364.19L1140.26 2382.97L1158.98 2382.93L1159.01 2422.5L1109.38 2422.6L1109.34 2364.26ZM1145.76 2364.18L1159.03 2377.42L1145.77 2377.44L1145.76 2364.18L1145.76 2364.18Z" fill="white"/>
<path fill-rule="evenodd" clip-rule="evenodd" d="M977.172 2334.14L1025 2334.04L1045 2353.98L1045.04 2410.53L977.223 2410.67L977.172 2334.14V2334.14ZM986.271 2343.21L1017.18 2343.15L1017.19 2361.92L1035.92 2361.88L1035.94 2401.46L986.31 2401.56L986.271 2343.21ZM1022.7 2343.14L1035.96 2356.37L1022.7 2356.4L1022.69 2343.14L1022.7 2343.14Z" fill="white"/>
<path fill-rule="evenodd" clip-rule="evenodd" d="M976.664 2480.51L1024.5 2480.41L1044.5 2500.35L1044.53 2556.9L976.715 2557.04L976.664 2480.51V2480.51ZM985.763 2489.58L1016.67 2489.52L1016.69 2508.29L1035.41 2508.25L1035.43 2547.83L985.802 2547.93L985.763 2489.58ZM1022.19 2489.51L1035.46 2502.74L1022.2 2502.77L1022.19 2489.51L1022.19 2489.51Z" fill="white"/>
<path fill-rule="evenodd" clip-rule="evenodd" d="M1101.45 2209.52L1149.29 2209.42L1169.29 2229.36L1169.32 2285.91L1101.51 2286.05L1101.45 2209.52V2209.52ZM1110.55 2218.59L1141.46 2218.53L1141.48 2237.3L1160.2 2237.26L1160.22 2276.84L1110.59 2276.94L1110.55 2218.59ZM1146.98 2218.52L1160.25 2231.75L1146.99 2231.78L1146.98 2218.52L1146.98 2218.52Z" fill="white"/>
<path fill-rule="evenodd" clip-rule="evenodd" d="M1225.74 2084.9L1273.57 2084.8L1293.57 2104.74L1293.6 2161.29L1225.79 2161.43L1225.74 2084.9V2084.9ZM1234.83 2093.97L1265.75 2093.91L1265.76 2112.68L1284.48 2112.64L1284.51 2152.22L1234.87 2152.32L1234.83 2093.97ZM1271.26 2093.9L1284.53 2107.13L1271.27 2107.16L1271.26 2093.9L1271.26 2093.9Z" fill="white"/>
<path fill-rule="evenodd" clip-rule="evenodd" d="M1224.72 2377.64L1272.55 2377.54L1292.55 2397.49L1292.59 2454.03L1224.77 2454.17L1224.72 2377.64V2377.64ZM1233.82 2386.72L1264.73 2386.65L1264.74 2405.43L1283.46 2405.39L1283.49 2444.96L1233.86 2445.06L1233.82 2386.72ZM1270.24 2386.64L1283.51 2399.87L1270.25 2399.9L1270.24 2386.64L1270.24 2386.64Z" fill="white"/>
<path fill-rule="evenodd" clip-rule="evenodd" d="M975.954 458.64L1023.79 458.541L1043.79 478.486L1043.82 535.032L976.006 535.171L975.954 458.64V458.64ZM985.053 467.714L1015.96 467.65L1015.98 486.424L1034.7 486.386L1034.72 525.958L985.092 526.06L985.053 467.714ZM1021.48 467.639L1034.75 480.872L1021.49 480.899L1021.48 467.639L1021.48 467.639Z" fill="white"/>
<path fill-rule="evenodd" clip-rule="evenodd" d="M975.446 605.011L1023.28 604.913L1043.28 624.857L1043.31 681.404L975.497 681.543L975.446 605.011V605.011ZM984.545 614.086L1015.46 614.021L1015.47 632.796L1034.19 632.757L1034.22 672.33L984.584 672.431L984.545 614.086ZM1020.97 614.011L1034.24 627.244L1020.98 627.271L1020.97 614.01L1020.97 614.011Z" fill="white"/>
<path fill-rule="evenodd" clip-rule="evenodd" d="M1099.73 480.392L1147.56 480.293L1167.56 500.238L1167.6 556.784L1099.78 556.923L1099.73 480.392V480.392ZM1108.83 489.466L1139.74 489.402L1139.75 508.176L1158.47 508.138L1158.5 547.71L1108.87 547.812L1108.83 489.466ZM1145.25 489.391L1158.52 502.624L1145.26 502.651L1145.25 489.391L1145.25 489.391Z" fill="white"/>
<path fill-rule="evenodd" clip-rule="evenodd" d="M1100.24 334.02L1148.07 333.921L1168.07 353.866L1168.1 410.412L1100.29 410.551L1100.24 334.02V334.02ZM1109.33 343.094L1140.25 343.03L1140.26 361.804L1158.98 361.766L1159.01 401.338L1109.37 401.44L1109.33 343.094ZM1145.76 343.019L1159.03 356.252L1145.77 356.279L1145.76 343.018L1145.76 343.019Z" fill="white"/>
<path fill-rule="evenodd" clip-rule="evenodd" d="M1224.52 209.4L1272.35 209.301L1292.35 229.246L1292.39 285.792L1224.57 285.931L1224.52 209.4V209.4ZM1233.62 218.474L1264.53 218.41L1264.54 237.184L1283.26 237.146L1283.29 276.718L1233.66 276.82L1233.62 218.474ZM1270.04 218.399L1283.31 231.632L1270.05 231.659L1270.04 218.398L1270.04 218.399Z" fill="white"/>
<path fill-rule="evenodd" clip-rule="evenodd" d="M975.132 894.219L1022.96 894.12L1042.96 914.065L1043 970.611L975.183 970.75L975.132 894.219V894.219ZM984.231 903.293L1015.14 903.229L1015.15 922.003L1033.88 921.965L1033.9 961.537L984.27 961.639L984.231 903.293ZM1020.66 903.218L1033.92 916.451L1020.66 916.478L1020.65 903.217L1020.66 903.218Z" fill="white"/>
<path fill-rule="evenodd" clip-rule="evenodd" d="M975.64 747.847L1023.47 747.748L1043.47 767.693L1043.51 824.239L975.691 824.378L975.64 747.847V747.847ZM984.739 756.921L1015.65 756.857L1015.66 775.631L1034.38 775.593L1034.41 815.165L984.778 815.267L984.739 756.921ZM1021.16 756.846L1034.43 770.079L1021.17 770.107L1021.16 756.846L1021.16 756.846Z" fill="white"/>
<path fill-rule="evenodd" clip-rule="evenodd" d="M1099.92 623.227L1147.75 623.128L1167.75 643.073L1167.79 699.62L1099.97 699.758L1099.92 623.227V623.227ZM1109.02 632.301L1139.93 632.237L1139.94 651.011L1158.67 650.973L1158.69 690.545L1109.06 690.647L1109.02 632.301ZM1145.45 632.227L1158.71 645.46L1145.45 645.487L1145.44 632.226L1145.45 632.227Z" fill="white"/>
<path fill-rule="evenodd" clip-rule="evenodd" d="M1099.41 769.599L1147.25 769.5L1167.25 789.445L1167.28 845.992L1099.46 846.13L1099.41 769.599V769.599ZM1108.51 778.673L1139.42 778.609L1139.44 797.383L1158.16 797.345L1158.18 836.917L1108.55 837.019L1108.51 778.673ZM1144.94 778.599L1158.21 791.832L1144.94 791.859L1144.94 778.598L1144.94 778.599Z" fill="white"/>
<path fill-rule="evenodd" clip-rule="evenodd" d="M1223.7 644.979L1271.53 644.88L1291.53 664.825L1291.56 721.372L1223.75 721.511L1223.7 644.979V644.979ZM1232.79 654.053L1263.71 653.989L1263.72 672.763L1282.44 672.725L1282.47 712.298L1232.83 712.399L1232.79 654.053ZM1269.22 653.979L1282.49 667.212L1269.23 667.239L1269.22 653.978L1269.22 653.979Z" fill="white"/>
<path fill-rule="evenodd" clip-rule="evenodd" d="M1224.2 498.608L1272.04 498.509L1292.03 518.454L1292.07 575L1224.25 575.139L1224.2 498.608V498.608ZM1233.3 507.682L1264.21 507.618L1264.22 526.392L1282.95 526.354L1282.97 565.926L1233.34 566.028L1233.3 507.682ZM1269.73 507.607L1283 520.84L1269.73 520.867L1269.73 507.606L1269.73 507.607Z" fill="white"/>
<path fill-rule="evenodd" clip-rule="evenodd" d="M976.228 1180.6L1024.06 1180.5L1044.06 1200.44L1044.1 1256.99L976.28 1257.13L976.228 1180.6V1180.6ZM985.327 1189.67L1016.24 1189.61L1016.25 1208.38L1034.97 1208.34L1035 1247.91L985.366 1248.02L985.327 1189.67ZM1021.75 1189.6L1035.02 1202.83L1021.76 1202.86L1021.75 1189.59L1021.75 1189.6Z" fill="white"/>
<path fill-rule="evenodd" clip-rule="evenodd" d="M977.445 1034.93L1025.28 1034.83L1045.28 1054.78L1045.31 1111.32L977.496 1111.46L977.445 1034.93V1034.93ZM986.543 1044L1017.45 1043.94L1017.47 1062.71L1036.19 1062.68L1036.21 1102.25L986.583 1102.35L986.543 1044ZM1022.97 1043.93L1036.24 1057.16L1022.98 1057.19L1022.97 1043.93L1022.97 1043.93Z" fill="white"/>
<path fill-rule="evenodd" clip-rule="evenodd" d="M1101.22 1056.68L1149.05 1056.58L1169.05 1076.53L1169.09 1133.07L1101.27 1133.21L1101.22 1056.68V1056.68ZM1110.32 1065.76L1141.23 1065.69L1141.24 1084.47L1159.96 1084.43L1159.99 1124L1110.36 1124.1L1110.32 1065.76ZM1146.74 1065.68L1160.01 1078.91L1146.75 1078.94L1146.74 1065.68L1146.74 1065.68Z" fill="white"/>
<path fill-rule="evenodd" clip-rule="evenodd" d="M1101.73 910.31L1149.56 910.211L1169.56 930.156L1169.59 986.703L1101.78 986.841L1101.73 910.31V910.31ZM1110.82 919.384L1141.74 919.32L1141.75 938.094L1160.47 938.056L1160.5 977.628L1110.86 977.73L1110.82 919.384ZM1147.25 919.31L1160.52 932.543L1147.26 932.57L1147.25 919.309L1147.25 919.31Z" fill="white"/>
<path fill-rule="evenodd" clip-rule="evenodd" d="M1226.01 785.69L1273.84 785.592L1293.84 805.536L1293.88 862.083L1226.06 862.222L1226.01 785.69V785.69ZM1235.11 794.765L1266.02 794.7L1266.03 813.475L1284.75 813.436L1284.78 853.009L1235.15 853.11L1235.11 794.765ZM1271.53 794.69L1284.8 807.923L1271.54 807.95L1271.53 794.689L1271.53 794.69Z" fill="white"/>
<path fill-rule="evenodd" clip-rule="evenodd" d="M1225.5 932.062L1273.33 931.963L1293.33 951.908L1293.37 1008.45L1225.55 1008.59L1225.5 932.062V932.062ZM1234.6 941.136L1265.51 941.072L1265.52 959.846L1284.24 959.808L1284.27 999.381L1234.64 999.482L1234.6 941.136ZM1271.02 941.062L1284.29 954.295L1271.03 954.322L1271.02 941.061L1271.02 941.062Z" fill="white"/>
<path fill-rule="evenodd" clip-rule="evenodd" d="M1100.2 1345.18L1148.03 1345.08L1168.03 1365.03L1168.06 1421.58L1100.25 1421.71L1100.2 1345.18V1345.18ZM1109.29 1354.26L1140.21 1354.19L1140.22 1372.97L1158.94 1372.93L1158.97 1412.5L1109.33 1412.6L1109.29 1354.26ZM1145.72 1354.18L1158.99 1367.42L1145.73 1367.44L1145.72 1354.18L1145.72 1354.18Z" fill="white"/>
<path fill-rule="evenodd" clip-rule="evenodd" d="M977.13 1324.14L1024.96 1324.04L1044.96 1343.98L1045 1400.53L977.181 1400.67L977.13 1324.14V1324.14ZM986.229 1333.21L1017.14 1333.15L1017.15 1351.92L1035.87 1351.88L1035.9 1391.46L986.268 1391.56L986.229 1333.21ZM1022.65 1333.14L1035.92 1346.37L1022.66 1346.4L1022.65 1333.14L1022.65 1333.14Z" fill="white"/>
<path fill-rule="evenodd" clip-rule="evenodd" d="M976.622 1470.51L1024.45 1470.41L1044.45 1490.35L1044.49 1546.9L976.673 1547.04L976.622 1470.51V1470.51ZM985.721 1479.58L1016.63 1479.52L1016.64 1498.29L1035.37 1498.25L1035.39 1537.83L985.76 1537.93L985.721 1479.58ZM1022.15 1479.51L1035.41 1492.74L1022.15 1492.77L1022.14 1479.51L1022.15 1479.51Z" fill="white"/>
<path fill-rule="evenodd" clip-rule="evenodd" d="M1101.41 1199.52L1149.24 1199.42L1169.24 1219.36L1169.28 1275.91L1101.46 1276.05L1101.41 1199.52V1199.52ZM1110.51 1208.59L1141.42 1208.53L1141.43 1227.3L1160.16 1227.26L1160.18 1266.84L1110.55 1266.94L1110.51 1208.59ZM1146.94 1208.52L1160.2 1221.75L1146.94 1221.78L1146.93 1208.52L1146.94 1208.52Z" fill="white"/>
<path fill-rule="evenodd" clip-rule="evenodd" d="M1225.69 1074.9L1273.53 1074.8L1293.52 1094.74L1293.56 1151.29L1225.74 1151.43L1225.69 1074.9V1074.9ZM1234.79 1083.97L1265.7 1083.91L1265.72 1102.68L1284.44 1102.64L1284.46 1142.22L1234.83 1142.32L1234.79 1083.97ZM1271.22 1083.9L1284.49 1097.13L1271.22 1097.16L1271.22 1083.9L1271.22 1083.9Z" fill="white"/>
<path fill-rule="evenodd" clip-rule="evenodd" d="M1224.68 1367.64L1272.51 1367.54L1292.51 1387.49L1292.55 1444.03L1224.73 1444.17L1224.68 1367.64V1367.64ZM1233.78 1376.72L1264.69 1376.65L1264.7 1395.43L1283.42 1395.39L1283.45 1434.96L1233.82 1435.06L1233.78 1376.72ZM1270.2 1376.64L1283.47 1389.87L1270.21 1389.9L1270.2 1376.64L1270.2 1376.64Z" fill="white"/>
<path fill-rule="evenodd" clip-rule="evenodd" d="M977.403 24.9298L1025.24 24.831L1045.23 44.7759L1045.27 101.322L977.454 101.461L977.403 24.9298V24.9298ZM986.502 34.004L1017.41 33.9399L1017.43 52.7141L1036.15 52.6758L1036.17 92.2483L986.541 92.3499L986.502 34.004ZM1022.93 33.9294L1036.2 47.1624L1022.93 47.1895L1022.93 33.9286L1022.93 33.9294Z" fill="white"/>
<path fill-rule="evenodd" clip-rule="evenodd" d="M979.172 159.971L1027 159.873L1047 179.817L1047.04 236.364L979.223 236.503L979.172 159.971V159.971ZM988.271 169.046L1019.18 168.981L1019.19 187.756L1037.92 187.717L1037.94 227.29L988.31 227.391L988.271 169.046ZM1024.7 168.971L1037.96 182.204L1024.7 182.231L1024.69 168.97L1024.7 168.971Z" fill="white"/>
<path fill-rule="evenodd" clip-rule="evenodd" d="M1101.18 46.6823L1149.01 46.5835L1169.01 66.5283L1169.05 123.075L1101.23 123.214L1101.18 46.6823V46.6823ZM1110.28 55.7564L1141.19 55.6923L1141.2 74.4666L1159.92 74.4282L1159.95 114.001L1110.31 114.102L1110.28 55.7564ZM1146.7 55.6819L1159.97 68.9148L1146.71 68.942L1146.7 55.681L1146.7 55.6819Z" fill="white"/>
<path fill-rule="evenodd" clip-rule="evenodd" d="M1101.68 -99.6898L1149.52 -99.7886L1169.52 -79.8437L1169.55 -23.2972L1101.74 -23.1583L1101.68 -99.6898V-99.6898ZM1110.78 -90.6156L1141.69 -90.6798L1141.71 -71.9055L1160.43 -71.9438L1160.45 -32.3714L1110.82 -32.2697L1110.78 -90.6156ZM1147.21 -90.6902L1160.48 -77.4572L1147.22 -77.4301L1147.21 -90.691L1147.21 -90.6902Z" fill="white"/>
<path fill-rule="evenodd" clip-rule="evenodd" d="M1225.46 -77.9378L1273.29 -78.0366L1293.29 -58.0918L1293.33 -1.54525L1225.51 -1.40638L1225.46 -77.9378V-77.9378ZM1234.56 -68.8637L1265.47 -68.9278L1265.48 -50.1536L1284.2 -50.1919L1284.23 -10.6194L1234.6 -10.5178L1234.56 -68.8637ZM1270.98 -68.9383L1284.25 -55.7053L1270.99 -55.6781L1270.98 -68.9391L1270.98 -68.9383Z" fill="white"/>
<path fill-rule="evenodd" clip-rule="evenodd" d="M1100.15 335.183L1147.99 335.084L1167.99 355.029L1168.02 411.576L1100.21 411.715L1100.15 335.183V335.183ZM1109.25 344.257L1140.16 344.193L1140.18 362.968L1158.9 362.929L1158.92 402.502L1109.29 402.603L1109.25 344.257ZM1145.68 344.183L1158.95 357.416L1145.69 357.443L1145.68 344.182L1145.68 344.183Z" fill="white"/>
<path fill-rule="evenodd" clip-rule="evenodd" d="M977.089 314.137L1024.92 314.039L1044.92 333.983L1044.96 390.53L977.14 390.669L977.089 314.137V314.137ZM986.188 323.212L1017.1 323.147L1017.11 341.922L1035.83 341.883L1035.86 381.456L986.227 381.557L986.188 323.212ZM1022.61 323.137L1035.88 336.37L1022.62 336.397L1022.61 323.136L1022.61 323.137Z" fill="white"/>
<path fill-rule="evenodd" clip-rule="evenodd" d="M976.58 460.509L1024.41 460.41L1044.41 480.355L1044.45 536.902L976.632 537.04L976.58 460.509V460.509ZM985.679 469.583L1016.59 469.519L1016.6 488.293L1035.32 488.255L1035.35 527.827L985.718 527.929L985.679 469.583ZM1022.1 469.509L1035.37 482.741L1022.11 482.769L1022.1 469.508L1022.1 469.509Z" fill="white"/>
<path fill-rule="evenodd" clip-rule="evenodd" d="M1101.37 189.518L1149.2 189.419L1169.2 209.364L1169.24 265.91L1101.42 266.049L1101.37 189.518V189.518ZM1110.47 198.592L1141.38 198.528L1141.39 217.302L1160.11 217.264L1160.14 256.836L1110.51 256.938L1110.47 198.592ZM1146.89 198.517L1160.16 211.75L1146.9 211.777L1146.89 198.516L1146.89 198.517Z" fill="white"/>
<path fill-rule="evenodd" clip-rule="evenodd" d="M1225.65 64.8976L1273.48 64.7988L1293.48 84.7437L1293.52 141.29L1225.7 141.429L1225.65 64.8976V64.8976ZM1234.75 73.9718L1265.66 73.9076L1265.67 92.6819L1284.4 92.6436L1284.42 132.216L1234.79 132.318L1234.75 73.9718ZM1271.18 73.8972L1284.44 87.1302L1271.18 87.1573L1271.17 73.8964L1271.18 73.8972Z" fill="white"/>
<path fill-rule="evenodd" clip-rule="evenodd" d="M1224.64 357.642L1272.47 357.543L1292.47 377.488L1292.5 434.034L1224.69 434.173L1224.64 357.642V357.642ZM1233.73 366.716L1264.65 366.652L1264.66 385.426L1283.38 385.388L1283.41 424.96L1233.77 425.062L1233.73 366.716ZM1270.16 366.641L1283.43 379.874L1270.17 379.901L1270.16 366.641L1270.16 366.641Z" fill="white"/>
</g>
</svg>
