<svg width="3403" height="3741" viewBox="0 0 3403 3741" fill="none" xmlns="http://www.w3.org/2000/svg">
<path fill-rule="evenodd" clip-rule="evenodd" d="M1531.38 290.031L1579.21 289.389L1599.44 309.105L1600.11 365.648L1532.3 366.557L1531.38 290.031V290.031ZM1540.58 299.001L1571.49 298.586L1571.72 317.359L1590.44 317.108L1590.91 356.678L1541.29 357.343L1540.58 299.001ZM1577.01 298.513L1590.42 311.594L1577.16 311.772L1577 298.512L1577.01 298.513Z" fill="white"/>
<path fill-rule="evenodd" clip-rule="evenodd" d="M1532.54 436.399L1580.37 435.757L1600.59 455.474L1601.27 512.016L1533.46 512.925L1532.54 436.399V436.399ZM1541.74 445.37L1572.65 444.954L1572.87 463.727L1591.59 463.476L1592.07 503.046L1542.44 503.711L1541.74 445.37ZM1578.16 444.881L1591.58 457.963L1578.32 458.14L1578.16 444.881L1578.16 444.881Z" fill="white"/>
<path fill-rule="evenodd" clip-rule="evenodd" d="M1655.39 310.376L1703.22 309.734L1723.45 329.45L1724.13 385.993L1656.32 386.902L1655.39 310.376V310.376ZM1664.6 319.346L1695.5 318.931L1695.73 337.704L1714.45 337.453L1714.93 377.023L1665.3 377.688L1664.6 319.346ZM1701.02 318.858L1714.44 331.939L1701.18 332.117L1701.02 318.857L1701.02 318.858Z" fill="white"/>
<path fill-rule="evenodd" clip-rule="evenodd" d="M1654.24 164.008L1702.07 163.366L1722.29 183.082L1722.97 239.625L1655.16 240.534L1654.24 164.008V164.008ZM1663.44 172.978L1694.35 172.563L1694.58 191.336L1713.3 191.085L1713.77 230.654L1664.14 231.32L1663.44 172.978ZM1699.86 172.49L1713.28 185.571L1700.02 185.749L1699.86 172.489L1699.86 172.49Z" fill="white"/>
<path fill-rule="evenodd" clip-rule="evenodd" d="M1777.1 37.9843L1824.93 37.3423L1845.15 57.0587L1845.83 113.601L1778.02 114.51L1777.1 37.9843V37.9843ZM1786.3 46.9546L1817.21 46.5394L1817.43 65.3123L1836.15 65.0613L1836.63 104.631L1787 105.296L1786.3 46.9546ZM1822.72 46.4663L1836.14 59.5477L1822.88 59.7255L1822.72 46.4655L1822.72 46.4663Z" fill="white"/>
<path fill-rule="evenodd" clip-rule="evenodd" d="M1778.25 184.353L1826.08 183.711L1846.31 203.427L1846.99 259.97L1779.17 260.879L1778.25 184.353V184.353ZM1787.45 193.323L1818.36 192.908L1818.59 211.681L1837.31 211.43L1837.78 250.999L1788.16 251.665L1787.45 193.323ZM1823.88 192.835L1837.29 205.916L1824.03 206.094L1823.88 192.834L1823.88 192.835Z" fill="white"/>
<path fill-rule="evenodd" clip-rule="evenodd" d="M1535.51 725.591L1583.34 724.949L1603.56 744.666L1604.24 801.208L1536.43 802.117L1535.51 725.591V725.591ZM1544.71 734.562L1575.62 734.147L1575.84 752.919L1594.56 752.668L1595.04 792.238L1545.41 792.903L1544.71 734.562ZM1581.13 734.073L1594.55 747.155L1581.29 747.333L1581.13 734.073L1581.13 734.073Z" fill="white"/>
<path fill-rule="evenodd" clip-rule="evenodd" d="M1534.35 579.223L1582.18 578.581L1602.41 598.298L1603.09 654.84L1535.27 655.749L1534.35 579.223V579.223ZM1543.55 588.194L1574.46 587.778L1574.69 606.551L1593.41 606.3L1593.88 645.87L1544.26 646.535L1543.55 588.194ZM1579.98 587.705L1593.39 600.787L1580.13 600.964L1579.98 587.704L1579.98 587.705Z" fill="white"/>
<path fill-rule="evenodd" clip-rule="evenodd" d="M1657.21 453.2L1705.04 452.558L1725.26 472.274L1725.94 528.817L1658.13 529.726L1657.21 453.2V453.2ZM1666.41 462.17L1697.32 461.755L1697.55 480.528L1716.27 480.277L1716.74 519.846L1667.11 520.512L1666.41 462.17ZM1702.83 461.682L1716.25 474.763L1702.99 474.941L1702.83 461.681L1702.83 461.682Z" fill="white"/>
<path fill-rule="evenodd" clip-rule="evenodd" d="M1658.37 599.568L1706.19 598.926L1726.42 618.643L1727.1 675.185L1659.29 676.094L1658.37 599.568V599.568ZM1667.57 608.539L1698.48 608.123L1698.7 626.896L1717.42 626.645L1717.9 666.215L1668.27 666.88L1667.57 608.539ZM1703.99 608.05L1717.41 621.132L1704.15 621.309L1703.99 608.049L1703.99 608.05Z" fill="white"/>
<path fill-rule="evenodd" clip-rule="evenodd" d="M1781.22 473.545L1829.05 472.903L1849.28 492.619L1849.96 549.162L1782.14 550.071L1781.22 473.545V473.545ZM1790.43 482.515L1821.33 482.1L1821.56 500.873L1840.28 500.622L1840.75 540.191L1791.13 540.857L1790.43 482.515ZM1826.85 482.027L1840.27 495.108L1827.01 495.286L1826.85 482.026L1826.85 482.027Z" fill="white"/>
<path fill-rule="evenodd" clip-rule="evenodd" d="M1780.07 327.177L1827.9 326.535L1848.12 346.251L1848.8 402.794L1780.99 403.703L1780.07 327.177ZM1789.27 336.147L1820.18 335.732L1820.4 354.505L1839.12 354.254L1839.6 393.823L1789.97 394.489L1789.27 336.147ZM1825.69 335.659L1839.11 348.74L1825.85 348.918L1825.69 335.658L1825.69 335.659Z" fill="white"/>
<path fill-rule="evenodd" clip-rule="evenodd" d="M1539.86 1011.94L1587.68 1011.3L1607.91 1031.01L1608.59 1087.55L1540.78 1088.46L1539.86 1011.94V1011.94ZM1549.06 1020.91L1579.97 1020.49L1580.19 1039.27L1598.91 1039.01L1599.39 1078.58L1549.76 1079.25L1549.06 1020.91ZM1585.48 1020.42L1598.9 1033.5L1585.64 1033.68L1585.48 1020.42L1585.48 1020.42Z" fill="white"/>
<path fill-rule="evenodd" clip-rule="evenodd" d="M1539.42 866.267L1587.25 865.625L1607.47 885.342L1608.15 941.884L1540.34 942.793L1539.42 866.267V866.267ZM1548.62 875.238L1579.53 874.822L1579.75 893.595L1598.47 893.344L1598.95 932.914L1549.32 933.579L1548.62 875.238ZM1585.04 874.749L1598.46 887.831L1585.2 888.009L1585.04 874.749L1585.04 874.749Z" fill="white"/>
<path fill-rule="evenodd" clip-rule="evenodd" d="M1663.43 886.612L1711.26 885.97L1731.48 905.687L1732.16 962.229L1664.35 963.138L1663.43 886.612V886.612ZM1672.63 895.583L1703.54 895.167L1703.77 913.94L1722.49 913.689L1722.96 953.259L1673.33 953.924L1672.63 895.583ZM1709.05 895.094L1722.47 908.176L1709.21 908.354L1709.05 895.094L1709.05 895.094Z" fill="white"/>
<path fill-rule="evenodd" clip-rule="evenodd" d="M1662.28 740.244L1710.1 739.602L1730.33 759.318L1731.01 815.861L1663.2 816.77L1662.28 740.244V740.244ZM1671.48 749.214L1702.39 748.799L1702.61 767.572L1721.33 767.321L1721.81 806.891L1672.18 807.556L1671.48 749.214ZM1707.9 748.726L1721.32 761.807L1708.06 761.985L1707.9 748.725L1707.9 748.726Z" fill="white"/>
<path fill-rule="evenodd" clip-rule="evenodd" d="M1785.13 614.221L1832.96 613.579L1853.19 633.295L1853.87 689.838L1786.06 690.747L1785.13 614.221V614.221ZM1794.34 623.191L1825.24 622.776L1825.47 641.549L1844.19 641.298L1844.67 680.867L1795.04 681.533L1794.34 623.191ZM1830.76 622.703L1844.18 635.784L1830.92 635.962L1830.76 622.702L1830.76 622.703Z" fill="white"/>
<path fill-rule="evenodd" clip-rule="evenodd" d="M1786.29 760.589L1834.12 759.947L1854.34 779.663L1855.02 836.206L1787.21 837.115L1786.29 760.589V760.589ZM1795.49 769.559L1826.4 769.144L1826.62 787.917L1845.34 787.666L1845.82 827.236L1796.19 827.901L1795.49 769.559ZM1831.91 769.071L1845.33 782.152L1832.07 782.33L1831.91 769.07L1831.91 769.071Z" fill="white"/>
<path fill-rule="evenodd" clip-rule="evenodd" d="M1665.68 1175.11L1713.51 1174.46L1733.74 1194.18L1734.42 1250.72L1666.61 1251.63L1665.68 1175.11V1175.11ZM1674.89 1184.08L1705.79 1183.66L1706.02 1202.43L1724.74 1202.18L1725.22 1241.75L1675.59 1242.42L1674.89 1184.08ZM1711.31 1183.59L1724.73 1196.67L1711.47 1196.85L1711.31 1183.59L1711.31 1183.59Z" fill="white"/>
<path fill-rule="evenodd" clip-rule="evenodd" d="M1542.39 1155.46L1590.22 1154.82L1610.44 1174.53L1611.12 1231.08L1543.31 1231.99L1542.39 1155.46V1155.46ZM1551.59 1164.43L1582.5 1164.01L1582.72 1182.79L1601.44 1182.54L1601.92 1222.11L1552.29 1222.77L1551.59 1164.43ZM1588.01 1163.94L1601.43 1177.02L1588.17 1177.2L1588.01 1163.94L1588.01 1163.94Z" fill="white"/>
<path fill-rule="evenodd" clip-rule="evenodd" d="M1543.54 1301.83L1591.37 1301.19L1611.6 1320.9L1612.27 1377.44L1544.46 1378.35L1543.54 1301.83V1301.83ZM1552.74 1310.8L1583.65 1310.38L1583.88 1329.16L1602.6 1328.9L1603.07 1368.47L1553.45 1369.14L1552.74 1310.8ZM1589.17 1310.31L1602.58 1323.39L1589.32 1323.57L1589.16 1310.31L1589.17 1310.31Z" fill="white"/>
<path fill-rule="evenodd" clip-rule="evenodd" d="M1665.25 1029.44L1713.08 1028.79L1733.3 1048.51L1733.98 1105.05L1666.17 1105.96L1665.25 1029.44V1029.44ZM1674.45 1038.41L1705.36 1037.99L1705.58 1056.76L1724.3 1056.51L1724.78 1096.08L1675.15 1096.75L1674.45 1038.41ZM1710.87 1037.92L1724.29 1051L1711.03 1051.18L1710.87 1037.92L1710.87 1037.92Z" fill="white"/>
<path fill-rule="evenodd" clip-rule="evenodd" d="M1789.26 1049.78L1837.09 1049.14L1857.31 1068.86L1857.99 1125.4L1790.18 1126.31L1789.26 1049.78V1049.78ZM1798.46 1058.75L1829.37 1058.34L1829.59 1077.11L1848.31 1076.86L1848.79 1116.43L1799.16 1117.09L1798.46 1058.75ZM1834.88 1058.26L1848.3 1071.34L1835.04 1071.52L1834.88 1058.26L1834.88 1058.26Z" fill="white"/>
<path fill-rule="evenodd" clip-rule="evenodd" d="M1788.1 903.413L1835.93 902.771L1856.16 922.488L1856.84 979.03L1789.03 979.939L1788.1 903.413V903.413ZM1797.31 912.383L1828.21 911.968L1828.44 930.741L1847.16 930.49L1847.64 970.06L1798.01 970.725L1797.31 912.383ZM1833.73 911.895L1847.15 924.977L1833.89 925.154L1833.73 911.894L1833.73 911.895Z" fill="white"/>
<path fill-rule="evenodd" clip-rule="evenodd" d="M1545.85 1594.56L1593.68 1593.92L1613.9 1613.64L1614.58 1670.18L1546.77 1671.09L1545.85 1594.56V1594.56ZM1555.05 1603.53L1585.96 1603.12L1586.19 1621.89L1604.91 1621.64L1605.38 1661.21L1555.75 1661.88L1555.05 1603.53ZM1591.47 1603.05L1604.89 1616.13L1591.63 1616.31L1591.47 1603.05L1591.47 1603.05Z" fill="white"/>
<path fill-rule="evenodd" clip-rule="evenodd" d="M1790.85 1341.82L1838.68 1341.18L1858.9 1360.89L1859.58 1417.44L1791.77 1418.35L1790.85 1341.82V1341.82ZM1800.05 1350.79L1830.96 1350.37L1831.19 1369.15L1849.91 1368.9L1850.38 1408.47L1800.75 1409.13L1800.05 1350.79ZM1836.47 1350.3L1849.89 1363.38L1836.63 1363.56L1836.47 1350.3L1836.47 1350.3Z" fill="white"/>
<path fill-rule="evenodd" clip-rule="evenodd" d="M1544.7 1448.2L1592.53 1447.55L1612.75 1467.27L1613.43 1523.81L1545.62 1524.72L1544.7 1448.2V1448.2ZM1553.9 1457.17L1584.81 1456.75L1585.03 1475.52L1603.75 1475.27L1604.23 1514.84L1554.6 1515.51L1553.9 1457.17ZM1590.32 1456.68L1603.74 1469.76L1590.48 1469.94L1590.32 1456.68L1590.32 1456.68Z" fill="white"/>
<path fill-rule="evenodd" clip-rule="evenodd" d="M1667.56 1322.17L1715.38 1321.53L1735.61 1341.25L1736.29 1397.79L1668.48 1398.7L1667.56 1322.17V1322.17ZM1676.76 1331.14L1707.67 1330.73L1707.89 1349.5L1726.61 1349.25L1727.09 1388.82L1677.46 1389.48L1676.76 1331.14ZM1713.18 1330.65L1726.6 1343.74L1713.34 1343.91L1713.18 1330.65L1713.18 1330.65Z" fill="white"/>
<path fill-rule="evenodd" clip-rule="evenodd" d="M1668.71 1468.54L1716.54 1467.9L1736.76 1487.62L1737.44 1544.16L1669.63 1545.07L1668.71 1468.54V1468.54ZM1677.91 1477.51L1708.82 1477.1L1709.04 1495.87L1727.76 1495.62L1728.24 1535.19L1678.61 1535.85L1677.91 1477.51ZM1714.33 1477.02L1727.75 1490.1L1714.49 1490.28L1714.33 1477.02L1714.33 1477.02Z" fill="white"/>
<path fill-rule="evenodd" clip-rule="evenodd" d="M1790.41 1196.15L1838.24 1195.51L1858.47 1215.22L1859.15 1271.77L1791.33 1272.68L1790.41 1196.15V1196.15ZM1799.62 1205.12L1830.52 1204.7L1830.75 1223.48L1849.47 1223.23L1849.94 1262.8L1800.32 1263.46L1799.62 1205.12ZM1836.04 1204.63L1849.46 1217.71L1836.2 1217.89L1836.04 1204.63L1836.04 1204.63Z" fill="white"/>
<path fill-rule="evenodd" clip-rule="evenodd" d="M1547.67 1737.39L1595.5 1736.75L1615.72 1756.46L1616.4 1813.01L1548.59 1813.91L1547.67 1737.39V1737.39ZM1556.87 1746.36L1587.78 1745.94L1588 1764.72L1606.72 1764.47L1607.2 1804.03L1557.57 1804.7L1556.87 1746.36ZM1593.29 1745.87L1606.71 1758.95L1593.45 1759.13L1593.29 1745.87L1593.29 1745.87Z" fill="white"/>
<path fill-rule="evenodd" clip-rule="evenodd" d="M1548.82 1883.76L1596.65 1883.11L1616.87 1902.83L1617.55 1959.37L1549.74 1960.28L1548.82 1883.76V1883.76ZM1558.02 1892.73L1588.93 1892.31L1589.16 1911.08L1607.88 1910.83L1608.35 1950.4L1558.73 1951.07L1558.02 1892.73ZM1594.44 1892.24L1607.86 1905.32L1594.6 1905.5L1594.44 1892.24L1594.44 1892.24Z" fill="white"/>
<path fill-rule="evenodd" clip-rule="evenodd" d="M1671.68 1757.73L1719.51 1757.09L1739.73 1776.81L1740.41 1833.35L1672.6 1834.26L1671.68 1757.73V1757.73ZM1680.88 1766.7L1711.79 1766.29L1712.02 1785.06L1730.74 1784.81L1731.21 1824.38L1681.58 1825.05L1680.88 1766.7ZM1717.3 1766.22L1730.72 1779.3L1717.46 1779.47L1717.3 1766.21L1717.3 1766.22Z" fill="white"/>
<path fill-rule="evenodd" clip-rule="evenodd" d="M1670.53 1611.37L1718.35 1610.72L1738.58 1630.44L1739.26 1686.98L1671.45 1687.89L1670.53 1611.37V1611.37ZM1679.73 1620.34L1710.64 1619.92L1710.86 1638.69L1729.58 1638.44L1730.06 1678.01L1680.43 1678.68L1679.73 1620.34ZM1716.15 1619.85L1729.57 1632.93L1716.31 1633.11L1716.15 1619.85L1716.15 1619.85Z" fill="white"/>
<path fill-rule="evenodd" clip-rule="evenodd" d="M1793.38 1485.34L1841.21 1484.7L1861.44 1504.42L1862.12 1560.96L1794.3 1561.87L1793.38 1485.34V1485.34ZM1802.59 1494.31L1833.49 1493.9L1833.72 1512.67L1852.44 1512.42L1852.91 1551.99L1803.29 1552.65L1802.59 1494.31ZM1839.01 1493.82L1852.43 1506.91L1839.17 1507.08L1839.01 1493.82L1839.01 1493.82Z" fill="white"/>
<path fill-rule="evenodd" clip-rule="evenodd" d="M1794.54 1631.71L1842.37 1631.07L1862.59 1650.78L1863.27 1707.33L1795.46 1708.24L1794.54 1631.71V1631.71ZM1803.74 1640.68L1834.65 1640.27L1834.87 1659.04L1853.59 1658.79L1854.07 1698.36L1804.44 1699.02L1803.74 1640.68ZM1840.16 1640.19L1853.58 1653.27L1840.32 1653.45L1840.16 1640.19L1840.16 1640.19Z" fill="white"/>
<path fill-rule="evenodd" clip-rule="evenodd" d="M1553.17 2170.1L1601 2169.46L1621.22 2189.18L1621.9 2245.72L1554.09 2246.63L1553.17 2170.1V2170.1ZM1562.37 2179.07L1593.28 2178.66L1593.51 2197.43L1612.23 2197.18L1612.7 2236.75L1563.07 2237.41L1562.37 2179.07ZM1598.79 2178.58L1612.21 2191.67L1598.95 2191.84L1598.79 2178.58L1598.79 2178.58Z" fill="white"/>
<path fill-rule="evenodd" clip-rule="evenodd" d="M1552.73 2024.43L1600.56 2023.79L1620.79 2043.51L1621.46 2100.05L1553.65 2100.96L1552.73 2024.43V2024.43ZM1561.93 2033.4L1592.84 2032.99L1593.07 2051.76L1611.79 2051.51L1612.26 2091.08L1562.64 2091.74L1561.93 2033.4ZM1598.35 2032.91L1611.77 2046L1598.51 2046.17L1598.35 2032.91L1598.35 2032.91Z" fill="white"/>
<path fill-rule="evenodd" clip-rule="evenodd" d="M1675.59 1898.41L1723.42 1897.77L1743.64 1917.48L1744.32 1974.03L1676.51 1974.94L1675.59 1898.41V1898.41ZM1684.79 1907.38L1715.7 1906.96L1715.93 1925.74L1734.65 1925.49L1735.12 1965.06L1685.49 1965.72L1684.79 1907.38ZM1721.21 1906.89L1734.63 1919.97L1721.37 1920.15L1721.21 1906.89L1721.21 1906.89Z" fill="white"/>
<path fill-rule="evenodd" clip-rule="evenodd" d="M1676.74 2044.78L1724.57 2044.14L1744.8 2063.85L1745.48 2120.39L1677.67 2121.3L1676.74 2044.78V2044.78ZM1685.95 2053.75L1716.85 2053.33L1717.08 2072.11L1735.8 2071.85L1736.28 2111.42L1686.65 2112.09L1685.95 2053.75ZM1722.37 2053.26L1735.79 2066.34L1722.53 2066.52L1722.37 2053.26L1722.37 2053.26Z" fill="white"/>
<path fill-rule="evenodd" clip-rule="evenodd" d="M1799.6 1918.75L1847.43 1918.11L1867.66 1937.83L1868.34 1994.37L1800.52 1995.28L1799.6 1918.75V1918.75ZM1808.8 1927.72L1839.71 1927.31L1839.94 1946.08L1858.66 1945.83L1859.13 1985.4L1809.51 1986.07L1808.8 1927.72ZM1845.23 1927.24L1858.64 1940.32L1845.38 1940.5L1845.23 1927.24L1845.23 1927.24Z" fill="white"/>
<path fill-rule="evenodd" clip-rule="evenodd" d="M1798.45 1772.39L1846.28 1771.74L1866.5 1791.46L1867.18 1848L1799.37 1848.91L1798.45 1772.39V1772.39ZM1807.65 1781.36L1838.56 1780.94L1838.78 1799.71L1857.5 1799.46L1857.98 1839.03L1808.35 1839.7L1807.65 1781.36ZM1844.07 1780.87L1857.49 1793.95L1844.23 1794.13L1844.07 1780.87L1844.07 1780.87Z" fill="white"/>
<path fill-rule="evenodd" clip-rule="evenodd" d="M1555.43 2458.6L1603.25 2457.96L1623.48 2477.67L1624.16 2534.21L1556.35 2535.12L1555.43 2458.6V2458.6ZM1564.63 2467.57L1595.54 2467.15L1595.76 2485.93L1614.48 2485.67L1614.96 2525.24L1565.33 2525.91L1564.63 2467.57ZM1601.05 2467.08L1614.47 2480.16L1601.21 2480.34L1601.05 2467.08L1601.05 2467.08Z" fill="white"/>
<path fill-rule="evenodd" clip-rule="evenodd" d="M1554.99 2312.93L1602.82 2312.28L1623.04 2332L1623.72 2388.54L1555.91 2389.45L1554.99 2312.93V2312.93ZM1564.19 2321.9L1595.1 2321.48L1595.32 2340.25L1614.04 2340L1614.52 2379.57L1564.89 2380.24L1564.19 2321.9ZM1600.61 2321.41L1614.03 2334.49L1600.77 2334.67L1600.61 2321.41L1600.61 2321.41Z" fill="white"/>
<path fill-rule="evenodd" clip-rule="evenodd" d="M1679 2333.27L1726.83 2332.63L1747.05 2352.35L1747.73 2408.89L1679.92 2409.8L1679 2333.27V2333.27ZM1688.2 2342.24L1719.11 2341.83L1719.33 2360.6L1738.05 2360.35L1738.53 2399.92L1688.9 2400.58L1688.2 2342.24ZM1724.62 2341.75L1738.04 2354.84L1724.78 2355.01L1724.62 2341.75L1724.62 2341.75Z" fill="white"/>
<path fill-rule="evenodd" clip-rule="evenodd" d="M1678.56 2187.6L1726.39 2186.96L1746.61 2206.68L1747.29 2263.22L1679.48 2264.13L1678.56 2187.6V2187.6ZM1687.76 2196.57L1718.67 2196.16L1718.9 2214.93L1737.62 2214.68L1738.09 2254.25L1688.46 2254.91L1687.76 2196.57ZM1724.18 2196.08L1737.6 2209.17L1724.34 2209.34L1724.18 2196.08L1724.18 2196.08Z" fill="white"/>
<path fill-rule="evenodd" clip-rule="evenodd" d="M1801.42 2061.58L1849.25 2060.94L1869.47 2080.65L1870.15 2137.2L1802.34 2138.1L1801.42 2061.58V2061.58ZM1810.62 2070.55L1841.53 2070.13L1841.75 2088.91L1860.47 2088.66L1860.95 2128.22L1811.32 2128.89L1810.62 2070.55ZM1847.04 2070.06L1860.46 2083.14L1847.2 2083.32L1847.04 2070.06L1847.04 2070.06Z" fill="white"/>
<path fill-rule="evenodd" clip-rule="evenodd" d="M1802.57 2207.95L1850.4 2207.3L1870.63 2227.02L1871.31 2283.56L1803.49 2284.47L1802.57 2207.95V2207.95ZM1811.78 2216.92L1842.68 2216.5L1842.91 2235.27L1861.63 2235.02L1862.1 2274.59L1812.48 2275.26L1811.78 2216.92ZM1848.2 2216.43L1861.62 2229.51L1848.36 2229.69L1848.2 2216.43L1848.2 2216.43Z" fill="white"/>
<path fill-rule="evenodd" clip-rule="evenodd" d="M1557.75 2752.75L1605.58 2752.11L1625.8 2771.82L1626.48 2828.36L1558.67 2829.27L1557.75 2752.75V2752.75ZM1566.95 2761.72L1597.86 2761.3L1598.09 2780.08L1616.81 2779.82L1617.28 2819.39L1567.65 2820.06L1566.95 2761.72ZM1603.37 2761.23L1616.79 2774.31L1603.53 2774.49L1603.37 2761.23L1603.37 2761.23Z" fill="white"/>
<path fill-rule="evenodd" clip-rule="evenodd" d="M1802.75 2500L1850.58 2499.36L1870.81 2519.08L1871.48 2575.62L1803.67 2576.53L1802.75 2500V2500ZM1811.95 2508.97L1842.86 2508.56L1843.09 2527.33L1861.81 2527.08L1862.28 2566.65L1812.66 2567.31L1811.95 2508.97ZM1848.37 2508.48L1861.79 2521.57L1848.53 2521.74L1848.37 2508.48L1848.37 2508.48Z" fill="white"/>
<path fill-rule="evenodd" clip-rule="evenodd" d="M1556.6 2606.38L1604.43 2605.74L1624.65 2625.45L1625.33 2682L1557.52 2682.91L1556.6 2606.38V2606.38ZM1565.8 2615.35L1596.71 2614.93L1596.93 2633.71L1615.65 2633.46L1616.13 2673.03L1566.5 2673.69L1565.8 2615.35ZM1602.22 2614.86L1615.64 2627.94L1602.38 2628.12L1602.22 2614.86L1602.22 2614.86Z" fill="white"/>
<path fill-rule="evenodd" clip-rule="evenodd" d="M1679.46 2480.36L1727.28 2479.71L1747.51 2499.43L1748.19 2555.97L1680.38 2556.88L1679.46 2480.36V2480.36ZM1688.66 2489.33L1719.57 2488.91L1719.79 2507.68L1738.51 2507.43L1738.99 2547L1689.36 2547.67L1688.66 2489.33ZM1725.08 2488.84L1738.5 2501.92L1725.24 2502.1L1725.08 2488.84L1725.08 2488.84Z" fill="white"/>
<path fill-rule="evenodd" clip-rule="evenodd" d="M1680.61 2626.72L1728.44 2626.08L1748.66 2645.8L1749.34 2702.34L1681.53 2703.25L1680.61 2626.72V2626.72ZM1689.81 2635.69L1720.72 2635.28L1720.95 2654.05L1739.67 2653.8L1740.14 2693.37L1690.51 2694.04L1689.81 2635.69ZM1726.23 2635.21L1739.65 2648.29L1726.39 2648.47L1726.23 2635.21L1726.23 2635.21Z" fill="white"/>
<path fill-rule="evenodd" clip-rule="evenodd" d="M1802.31 2354.33L1850.14 2353.69L1870.37 2373.41L1871.05 2429.95L1803.23 2430.86L1802.31 2354.33V2354.33ZM1811.52 2363.3L1842.42 2362.89L1842.65 2381.66L1861.37 2381.41L1861.84 2420.98L1812.22 2421.64L1811.52 2363.3ZM1847.94 2362.81L1861.35 2375.9L1848.1 2376.07L1847.94 2362.81L1847.94 2362.81Z" fill="white"/>
<path fill-rule="evenodd" clip-rule="evenodd" d="M1559.57 2895.57L1607.4 2894.93L1627.62 2914.65L1628.3 2971.19L1560.49 2972.1L1559.57 2895.57V2895.57ZM1568.77 2904.54L1599.68 2904.13L1599.9 2922.9L1618.62 2922.65L1619.1 2962.22L1569.47 2962.88L1568.77 2904.54ZM1605.19 2904.05L1618.61 2917.14L1605.35 2917.31L1605.19 2904.05L1605.19 2904.05Z" fill="white"/>
<path fill-rule="evenodd" clip-rule="evenodd" d="M1560.72 3041.94L1608.55 3041.3L1628.78 3061.01L1629.45 3117.56L1561.64 3118.47L1560.72 3041.94V3041.94ZM1569.92 3050.91L1600.83 3050.5L1601.06 3069.27L1619.78 3069.02L1620.25 3108.59L1570.63 3109.25L1569.92 3050.91ZM1606.35 3050.42L1619.76 3063.5L1606.5 3063.68L1606.34 3050.42L1606.35 3050.42Z" fill="white"/>
<path fill-rule="evenodd" clip-rule="evenodd" d="M1683.58 2915.92L1731.41 2915.27L1751.63 2934.99L1752.31 2991.53L1684.5 2992.44L1683.58 2915.92V2915.92ZM1692.78 2924.89L1723.69 2924.47L1723.92 2943.24L1742.64 2942.99L1743.11 2982.56L1693.48 2983.23L1692.78 2924.89ZM1729.2 2924.4L1742.62 2937.48L1729.36 2937.66L1729.2 2924.4L1729.2 2924.4Z" fill="white"/>
<path fill-rule="evenodd" clip-rule="evenodd" d="M1682.43 2769.55L1730.25 2768.91L1750.48 2788.62L1751.16 2845.17L1683.35 2846.07L1682.43 2769.55V2769.55ZM1691.63 2778.52L1722.54 2778.1L1722.76 2796.88L1741.48 2796.63L1741.96 2836.2L1692.33 2836.86L1691.63 2778.52ZM1728.05 2778.03L1741.47 2791.11L1728.21 2791.29L1728.05 2778.03L1728.05 2778.03Z" fill="white"/>
<path fill-rule="evenodd" clip-rule="evenodd" d="M1805.28 2643.53L1853.11 2642.88L1873.34 2662.6L1874.02 2719.14L1806.2 2720.05L1805.28 2643.53V2643.53ZM1814.49 2652.5L1845.39 2652.08L1845.62 2670.85L1864.34 2670.6L1864.82 2710.17L1815.19 2710.84L1814.49 2652.5ZM1850.91 2652.01L1864.33 2665.09L1851.07 2665.27L1850.91 2652.01L1850.91 2652.01Z" fill="white"/>
<path fill-rule="evenodd" clip-rule="evenodd" d="M1806.44 2789.89L1854.27 2789.25L1874.49 2808.97L1875.17 2865.51L1807.36 2866.42L1806.44 2789.89V2789.89ZM1815.64 2798.86L1846.55 2798.45L1846.77 2817.22L1865.49 2816.97L1865.97 2856.54L1816.34 2857.21L1815.64 2798.86ZM1852.06 2798.38L1865.48 2811.46L1852.22 2811.63L1852.06 2798.37L1852.06 2798.38Z" fill="white"/>
<path fill-rule="evenodd" clip-rule="evenodd" d="M1565.07 3328.29L1612.9 3327.64L1633.12 3347.36L1633.8 3403.9L1565.99 3404.81L1565.07 3328.29V3328.29ZM1574.27 3337.26L1605.18 3336.84L1605.41 3355.61L1624.13 3355.36L1624.6 3394.93L1574.97 3395.6L1574.27 3337.26ZM1610.69 3336.77L1624.11 3349.85L1610.85 3350.03L1610.69 3336.77L1610.69 3336.77Z" fill="white"/>
<path fill-rule="evenodd" clip-rule="evenodd" d="M1564.63 3182.62L1612.46 3181.97L1632.69 3201.69L1633.37 3258.23L1565.55 3259.14L1564.63 3182.62V3182.62ZM1573.83 3191.59L1604.74 3191.17L1604.97 3209.94L1623.69 3209.69L1624.16 3249.26L1574.54 3249.93L1573.83 3191.59ZM1610.26 3191.1L1623.67 3204.18L1610.41 3204.36L1610.25 3191.1L1610.26 3191.1Z" fill="white"/>
<path fill-rule="evenodd" clip-rule="evenodd" d="M1687.49 3056.59L1735.32 3055.95L1755.54 3075.67L1756.22 3132.21L1688.41 3133.12L1687.49 3056.59V3056.59ZM1696.69 3065.56L1727.6 3065.15L1727.83 3083.92L1746.55 3083.67L1747.02 3123.24L1697.39 3123.9L1696.69 3065.56ZM1733.11 3065.07L1746.53 3078.16L1733.27 3078.33L1733.11 3065.07L1733.11 3065.07Z" fill="white"/>
<path fill-rule="evenodd" clip-rule="evenodd" d="M1688.65 3202.96L1736.47 3202.32L1756.7 3222.04L1757.38 3278.58L1689.57 3279.49L1688.65 3202.96V3202.96ZM1697.85 3211.93L1728.76 3211.52L1728.98 3230.29L1747.7 3230.04L1748.18 3269.61L1698.55 3270.27L1697.85 3211.93ZM1734.27 3211.44L1747.69 3224.52L1734.43 3224.7L1734.27 3211.44L1734.27 3211.44Z" fill="white"/>
<path fill-rule="evenodd" clip-rule="evenodd" d="M1811.5 3076.94L1859.33 3076.3L1879.56 3096.01L1880.24 3152.55L1812.42 3153.46L1811.5 3076.94V3076.94ZM1820.71 3085.91L1851.61 3085.49L1851.84 3104.27L1870.56 3104.01L1871.03 3143.58L1821.41 3144.25L1820.71 3085.91ZM1857.13 3085.42L1870.54 3098.5L1857.29 3098.68L1857.13 3085.42L1857.13 3085.42Z" fill="white"/>
<path fill-rule="evenodd" clip-rule="evenodd" d="M1810.35 2930.57L1858.18 2929.93L1878.4 2949.64L1879.08 3006.19L1811.27 3007.1L1810.35 2930.57V2930.57ZM1819.55 2939.54L1850.46 2939.12L1850.68 2957.9L1869.4 2957.65L1869.88 2997.22L1820.25 2997.88L1819.55 2939.54ZM1855.97 2939.05L1869.39 2952.13L1856.13 2952.31L1855.97 2939.05L1855.97 2939.05Z" fill="white"/>
<path fill-rule="evenodd" clip-rule="evenodd" d="M1567.33 3616.78L1615.15 3616.14L1635.38 3635.85L1636.06 3692.4L1568.25 3693.31L1567.33 3616.78V3616.78ZM1576.53 3625.75L1607.44 3625.34L1607.66 3644.11L1626.38 3643.86L1626.86 3683.43L1577.23 3684.09L1576.53 3625.75ZM1612.95 3625.26L1626.37 3638.34L1613.11 3638.52L1612.95 3625.26L1612.95 3625.26Z" fill="white"/>
<path fill-rule="evenodd" clip-rule="evenodd" d="M1566.89 3471.11L1614.72 3470.47L1634.94 3490.18L1635.62 3546.73L1567.81 3547.64L1566.89 3471.11V3471.11ZM1576.09 3480.08L1607 3479.67L1607.22 3498.44L1625.94 3498.19L1626.42 3537.76L1576.79 3538.42L1576.09 3480.08ZM1612.51 3479.59L1625.93 3492.67L1612.67 3492.85L1612.51 3479.59L1612.51 3479.59Z" fill="white"/>
<path fill-rule="evenodd" clip-rule="evenodd" d="M1690.9 3491.46L1738.73 3490.81L1758.95 3510.53L1759.63 3567.07L1691.82 3567.98L1690.9 3491.46V3491.46ZM1700.1 3500.43L1731.01 3500.01L1731.23 3518.78L1749.95 3518.53L1750.43 3558.1L1700.8 3558.77L1700.1 3500.43ZM1736.52 3499.94L1749.94 3513.02L1736.68 3513.2L1736.52 3499.94L1736.52 3499.94Z" fill="white"/>
<path fill-rule="evenodd" clip-rule="evenodd" d="M1690.46 3345.78L1738.29 3345.14L1758.51 3364.86L1759.19 3421.4L1691.38 3422.31L1690.46 3345.78V3345.78ZM1699.66 3354.76L1730.57 3354.34L1730.8 3373.11L1749.52 3372.86L1749.99 3412.43L1700.36 3413.1L1699.66 3354.76ZM1736.08 3354.27L1749.5 3367.35L1736.24 3367.53L1736.08 3354.27L1736.08 3354.27Z" fill="white"/>
<path fill-rule="evenodd" clip-rule="evenodd" d="M1813.32 3219.76L1861.15 3219.12L1881.37 3238.84L1882.05 3295.38L1814.24 3296.29L1813.32 3219.76V3219.76ZM1822.52 3228.73L1853.43 3228.32L1853.65 3247.09L1872.37 3246.84L1872.85 3286.41L1823.22 3287.07L1822.52 3228.73ZM1858.94 3228.24L1872.36 3241.33L1859.1 3241.5L1858.94 3228.24L1858.94 3228.24Z" fill="white"/>
<path fill-rule="evenodd" clip-rule="evenodd" d="M1814.47 3366.13L1862.3 3365.49L1882.53 3385.2L1883.21 3441.75L1815.39 3442.66L1814.47 3366.13V3366.13ZM1823.68 3375.1L1854.58 3374.68L1854.81 3393.46L1873.53 3393.21L1874 3432.78L1824.38 3433.44L1823.68 3375.1ZM1860.1 3374.61L1873.52 3387.69L1860.26 3387.87L1860.1 3374.61L1860.1 3374.61Z" fill="white"/>
</svg>
