<svg width="2274" height="3716" viewBox="0 0 2274 3716" fill="none" xmlns="http://www.w3.org/2000/svg">
<mask id="mask0_159_17794" style="mask-type:alpha" maskUnits="userSpaceOnUse" x="910" y="0" width="455" height="3708">
<rect x="910.133" y="0.319336" width="454" height="3707.1" fill="#D9D9D9"/>
</mask>
<g mask="url(#mask0_159_17794)">
<path fill-rule="evenodd" clip-rule="evenodd" d="M1223.46 3629.41L1271.29 3629.31L1291.29 3649.26L1291.33 3705.8L1223.51 3705.94L1223.46 3629.41V3629.41ZM1232.56 3638.48L1263.47 3638.42L1263.48 3657.19L1282.2 3657.15L1282.23 3696.73L1232.59 3696.83L1232.56 3638.48ZM1268.98 3638.41L1282.25 3651.64L1268.99 3651.67L1268.98 3638.41L1268.98 3638.41Z" fill="white"/>
<path fill-rule="evenodd" clip-rule="evenodd" d="M1103.24 3605.97L1151.07 3605.87L1171.07 3625.81L1171.11 3682.36L1103.29 3682.5L1103.24 3605.97V3605.97ZM1112.34 3615.04L1143.25 3614.98L1143.26 3633.75L1161.98 3633.71L1162.01 3673.28L1112.38 3673.39L1112.34 3615.04ZM1148.76 3614.97L1162.03 3628.2L1148.77 3628.23L1148.76 3614.96L1148.76 3614.97Z" fill="white"/>
<path fill-rule="evenodd" clip-rule="evenodd" d="M976.253 2574.26L1024.09 2574.16L1044.08 2594.11L1044.12 2650.65L976.304 2650.79L976.253 2574.26V2574.26ZM985.352 2583.33L1016.26 2583.27L1016.27 2602.04L1035 2602.01L1035.02 2641.58L985.391 2641.68L985.352 2583.33ZM1021.78 2583.26L1035.05 2596.49L1021.78 2596.52L1021.78 2583.26L1021.78 2583.26Z" fill="white"/>
<path fill-rule="evenodd" clip-rule="evenodd" d="M975.744 2720.63L1023.58 2720.53L1043.58 2740.48L1043.61 2797.02L975.796 2797.16L975.744 2720.63V2720.63ZM984.843 2729.71L1015.75 2729.64L1015.77 2748.42L1034.49 2748.38L1034.51 2787.95L984.882 2788.05L984.843 2729.71ZM1021.27 2729.63L1034.54 2742.86L1021.28 2742.89L1021.27 2729.63L1021.27 2729.63Z" fill="white"/>
<path fill-rule="evenodd" clip-rule="evenodd" d="M1100.03 2596.01L1147.86 2595.91L1167.86 2615.86L1167.9 2672.4L1100.08 2672.54L1100.03 2596.01V2596.01ZM1109.13 2605.09L1140.04 2605.02L1140.05 2623.8L1158.77 2623.76L1158.8 2663.33L1109.16 2663.43L1109.13 2605.09ZM1145.55 2605.01L1158.82 2618.24L1145.56 2618.27L1145.55 2605.01L1145.55 2605.01Z" fill="white"/>
<path fill-rule="evenodd" clip-rule="evenodd" d="M1100.53 2449.64L1148.37 2449.54L1168.37 2469.49L1168.4 2526.03L1100.59 2526.17L1100.53 2449.64V2449.64ZM1109.63 2458.71L1140.54 2458.65L1140.56 2477.42L1159.28 2477.39L1159.3 2516.96L1109.67 2517.06L1109.63 2458.71ZM1146.06 2458.64L1159.33 2471.87L1146.07 2471.9L1146.06 2458.64L1146.06 2458.64Z" fill="white"/>
<path fill-rule="evenodd" clip-rule="evenodd" d="M1224.82 2325.02L1272.65 2324.92L1292.65 2344.87L1292.68 2401.41L1224.87 2401.55L1224.82 2325.02V2325.02ZM1233.91 2334.09L1264.83 2334.03L1264.84 2352.8L1283.56 2352.77L1283.59 2392.34L1233.95 2392.44L1233.91 2334.09ZM1270.34 2334.02L1283.61 2347.25L1270.35 2347.28L1270.34 2334.02L1270.34 2334.02Z" fill="white"/>
<path fill-rule="evenodd" clip-rule="evenodd" d="M975.43 3009.84L1023.26 3009.74L1043.26 3029.69L1043.3 3086.23L975.482 3086.37L975.43 3009.84V3009.84ZM984.529 3018.91L1015.44 3018.85L1015.45 3037.62L1034.17 3037.58L1034.2 3077.16L984.568 3077.26L984.529 3018.91ZM1020.95 3018.84L1034.22 3032.07L1020.96 3032.1L1020.95 3018.84L1020.95 3018.84Z" fill="white"/>
<path fill-rule="evenodd" clip-rule="evenodd" d="M975.938 2863.47L1023.77 2863.37L1043.77 2883.31L1043.81 2939.86L975.99 2940L975.938 2863.47V2863.47ZM985.037 2872.54L1015.95 2872.48L1015.96 2891.25L1034.68 2891.21L1034.71 2930.79L985.076 2930.89L985.037 2872.54ZM1021.46 2872.47L1034.73 2885.7L1021.47 2885.73L1021.46 2872.47L1021.46 2872.47Z" fill="white"/>
<path fill-rule="evenodd" clip-rule="evenodd" d="M1100.22 2738.85L1148.05 2738.75L1168.05 2758.69L1168.09 2815.24L1100.27 2815.38L1100.22 2738.85V2738.85ZM1109.32 2747.92L1140.23 2747.86L1140.24 2766.63L1158.96 2766.59L1158.99 2806.17L1109.36 2806.27L1109.32 2747.92ZM1145.74 2747.85L1159.01 2761.08L1145.75 2761.11L1145.74 2747.85L1145.74 2747.85Z" fill="white"/>
<path fill-rule="evenodd" clip-rule="evenodd" d="M1099.71 2885.22L1147.54 2885.12L1167.54 2905.07L1167.58 2961.61L1099.76 2961.75L1099.71 2885.22V2885.22ZM1108.81 2894.29L1139.72 2894.23L1139.73 2913L1158.46 2912.97L1158.48 2952.54L1108.85 2952.64L1108.81 2894.29ZM1145.24 2894.22L1158.5 2907.45L1145.24 2907.48L1145.23 2894.22L1145.24 2894.22Z" fill="white"/>
<path fill-rule="evenodd" clip-rule="evenodd" d="M1223.99 2760.6L1271.83 2760.5L1291.83 2780.44L1291.86 2836.99L1224.04 2837.13L1223.99 2760.6V2760.6ZM1233.09 2769.67L1264 2769.61L1264.02 2788.38L1282.74 2788.34L1282.76 2827.92L1233.13 2828.02L1233.09 2769.67ZM1269.52 2769.6L1282.79 2782.83L1269.53 2782.86L1269.52 2769.6L1269.52 2769.6Z" fill="white"/>
<path fill-rule="evenodd" clip-rule="evenodd" d="M1224.5 2614.23L1272.33 2614.13L1292.33 2634.07L1292.37 2690.62L1224.55 2690.76L1224.5 2614.23V2614.23ZM1233.6 2623.3L1264.51 2623.24L1264.52 2642.01L1283.25 2641.97L1283.27 2681.55L1233.64 2681.65L1233.6 2623.3ZM1270.02 2623.23L1283.29 2636.46L1270.03 2636.49L1270.02 2623.23L1270.02 2623.23Z" fill="white"/>
<path fill-rule="evenodd" clip-rule="evenodd" d="M976.527 3296.22L1024.36 3296.12L1044.36 3316.06L1044.4 3372.61L976.578 3372.75L976.527 3296.22V3296.22ZM985.626 3305.29L1016.54 3305.23L1016.55 3324L1035.27 3323.96L1035.3 3363.53L985.665 3363.64L985.626 3305.29ZM1022.05 3305.22L1035.32 3318.45L1022.06 3318.48L1022.05 3305.21L1022.05 3305.22Z" fill="white"/>
<path fill-rule="evenodd" clip-rule="evenodd" d="M977.743 3150.55L1025.58 3150.45L1045.57 3170.4L1045.61 3226.94L977.794 3227.08L977.743 3150.55V3150.55ZM986.842 3159.62L1017.75 3159.56L1017.76 3178.33L1036.49 3178.3L1036.51 3217.87L986.881 3217.97L986.842 3159.62ZM1023.27 3159.55L1036.54 3172.78L1023.27 3172.81L1023.27 3159.55L1023.27 3159.55Z" fill="white"/>
<path fill-rule="evenodd" clip-rule="evenodd" d="M1101.52 3172.3L1149.35 3172.2L1169.35 3192.15L1169.39 3248.69L1101.57 3248.83L1101.52 3172.3V3172.3ZM1110.62 3181.38L1141.53 3181.31L1141.54 3200.09L1160.26 3200.05L1160.29 3239.62L1110.65 3239.72L1110.62 3181.38ZM1147.04 3181.3L1160.31 3194.53L1147.05 3194.56L1147.04 3181.3L1147.04 3181.3Z" fill="white"/>
<path fill-rule="evenodd" clip-rule="evenodd" d="M1102.02 3025.93L1149.86 3025.83L1169.86 3045.78L1169.89 3102.32L1102.08 3102.46L1102.02 3025.93V3025.93ZM1111.12 3035L1142.03 3034.94L1142.05 3053.71L1160.77 3053.68L1160.79 3093.25L1111.16 3093.35L1111.12 3035ZM1147.55 3034.93L1160.82 3048.16L1147.56 3048.19L1147.55 3034.93L1147.55 3034.93Z" fill="white"/>
<path fill-rule="evenodd" clip-rule="evenodd" d="M1226.31 2901.31L1274.14 2901.21L1294.14 2921.16L1294.18 2977.7L1226.36 2977.84L1226.31 2901.31V2901.31ZM1235.41 2910.38L1266.32 2910.32L1266.33 2929.09L1285.05 2929.06L1285.08 2968.63L1235.44 2968.73L1235.41 2910.38ZM1271.83 2910.31L1285.1 2923.54L1271.84 2923.57L1271.83 2910.31L1271.83 2910.31Z" fill="white"/>
<path fill-rule="evenodd" clip-rule="evenodd" d="M1225.8 3047.68L1273.63 3047.58L1293.63 3067.53L1293.67 3124.07L1225.85 3124.21L1225.8 3047.68V3047.68ZM1234.9 3056.76L1265.81 3056.69L1265.82 3075.47L1284.54 3075.43L1284.57 3115L1234.94 3115.1L1234.9 3056.76ZM1271.32 3056.68L1284.59 3069.91L1271.33 3069.94L1271.32 3056.68L1271.32 3056.68Z" fill="white"/>
<path fill-rule="evenodd" clip-rule="evenodd" d="M1100.49 3460.8L1148.33 3460.7L1168.33 3480.65L1168.36 3537.2L1100.55 3537.33L1100.49 3460.8V3460.8ZM1109.59 3469.88L1140.5 3469.81L1140.52 3488.59L1159.24 3488.55L1159.26 3528.12L1109.63 3528.22L1109.59 3469.88ZM1146.02 3469.8L1159.29 3483.04L1146.03 3483.06L1146.02 3469.8L1146.02 3469.8Z" fill="white"/>
<path fill-rule="evenodd" clip-rule="evenodd" d="M977.429 3439.76L1025.26 3439.66L1045.26 3459.6L1045.3 3516.15L977.48 3516.29L977.429 3439.76V3439.76ZM986.527 3448.83L1017.44 3448.77L1017.45 3467.54L1036.17 3467.5L1036.2 3507.08L986.566 3507.18L986.527 3448.83ZM1022.95 3448.76L1036.22 3461.99L1022.96 3462.02L1022.95 3448.76L1022.95 3448.76Z" fill="white"/>
<path fill-rule="evenodd" clip-rule="evenodd" d="M976.92 3586.13L1024.75 3586.03L1044.75 3605.98L1044.79 3662.52L976.971 3662.66L976.92 3586.13V3586.13ZM986.019 3595.2L1016.93 3595.14L1016.94 3613.91L1035.66 3613.88L1035.69 3653.45L986.058 3653.55L986.019 3595.2ZM1022.44 3595.13L1035.71 3608.36L1022.45 3608.39L1022.44 3595.13L1022.44 3595.13Z" fill="white"/>
<path fill-rule="evenodd" clip-rule="evenodd" d="M1101.71 3315.14L1149.54 3315.04L1169.54 3334.98L1169.58 3391.53L1101.76 3391.67L1101.71 3315.14V3315.14ZM1110.81 3324.21L1141.72 3324.15L1141.73 3342.92L1160.45 3342.88L1160.48 3382.46L1110.85 3382.56L1110.81 3324.21ZM1147.23 3324.14L1160.5 3337.37L1147.24 3337.4L1147.23 3324.14L1147.23 3324.14Z" fill="white"/>
<path fill-rule="evenodd" clip-rule="evenodd" d="M1225.99 3190.52L1273.82 3190.42L1293.82 3210.36L1293.86 3266.91L1226.04 3267.05L1225.99 3190.52V3190.52ZM1235.09 3199.59L1266 3199.53L1266.01 3218.3L1284.73 3218.26L1284.76 3257.84L1235.13 3257.94L1235.09 3199.59ZM1271.51 3199.52L1284.78 3212.75L1271.52 3212.78L1271.51 3199.52L1271.51 3199.52Z" fill="white"/>
<path fill-rule="evenodd" clip-rule="evenodd" d="M1224.98 3483.26L1272.81 3483.16L1292.81 3503.11L1292.84 3559.65L1225.03 3559.79L1224.98 3483.26V3483.26ZM1234.07 3492.34L1264.99 3492.27L1265 3511.05L1283.72 3511.01L1283.75 3550.58L1234.11 3550.68L1234.07 3492.34ZM1270.5 3492.26L1283.77 3505.49L1270.51 3505.52L1270.5 3492.26L1270.5 3492.26Z" fill="white"/>
<path fill-rule="evenodd" clip-rule="evenodd" d="M976.253 2574.26L1024.09 2574.16L1044.08 2594.11L1044.12 2650.65L976.304 2650.79L976.253 2574.26V2574.26ZM985.352 2583.33L1016.26 2583.27L1016.27 2602.04L1035 2602.01L1035.02 2641.58L985.391 2641.68L985.352 2583.33ZM1021.78 2583.26L1035.05 2596.49L1021.78 2596.52L1021.78 2583.26L1021.78 2583.26Z" fill="white"/>
<path fill-rule="evenodd" clip-rule="evenodd" d="M975.744 2720.63L1023.58 2720.53L1043.58 2740.48L1043.61 2797.02L975.796 2797.16L975.744 2720.63V2720.63ZM984.843 2729.71L1015.75 2729.64L1015.77 2748.42L1034.49 2748.38L1034.51 2787.95L984.882 2788.05L984.843 2729.71ZM1021.27 2729.63L1034.54 2742.86L1021.28 2742.89L1021.27 2729.63L1021.27 2729.63Z" fill="white"/>
<path fill-rule="evenodd" clip-rule="evenodd" d="M1100.03 2596.01L1147.86 2595.91L1167.86 2615.86L1167.9 2672.4L1100.08 2672.54L1100.03 2596.01V2596.01ZM1109.13 2605.09L1140.04 2605.02L1140.05 2623.8L1158.77 2623.76L1158.8 2663.33L1109.16 2663.43L1109.13 2605.09ZM1145.55 2605.01L1158.82 2618.24L1145.56 2618.27L1145.55 2605.01L1145.55 2605.01Z" fill="white"/>
<path fill-rule="evenodd" clip-rule="evenodd" d="M1100.53 2449.64L1148.37 2449.54L1168.37 2469.49L1168.4 2526.03L1100.59 2526.17L1100.53 2449.64V2449.64ZM1109.63 2458.71L1140.54 2458.65L1140.56 2477.42L1159.28 2477.39L1159.3 2516.96L1109.67 2517.06L1109.63 2458.71ZM1146.06 2458.64L1159.33 2471.87L1146.07 2471.9L1146.06 2458.64L1146.06 2458.64Z" fill="white"/>
<path fill-rule="evenodd" clip-rule="evenodd" d="M1224.82 2325.02L1272.65 2324.92L1292.65 2344.87L1292.68 2401.41L1224.87 2401.55L1224.82 2325.02V2325.02ZM1233.91 2334.09L1264.83 2334.03L1264.84 2352.8L1283.56 2352.77L1283.59 2392.34L1233.95 2392.44L1233.91 2334.09ZM1270.34 2334.02L1283.61 2347.25L1270.35 2347.28L1270.34 2334.02L1270.34 2334.02Z" fill="white"/>
<path fill-rule="evenodd" clip-rule="evenodd" d="M975.43 3009.84L1023.26 3009.74L1043.26 3029.69L1043.3 3086.23L975.482 3086.37L975.43 3009.84V3009.84ZM984.529 3018.91L1015.44 3018.85L1015.45 3037.62L1034.17 3037.58L1034.2 3077.16L984.568 3077.26L984.529 3018.91ZM1020.95 3018.84L1034.22 3032.07L1020.96 3032.1L1020.95 3018.84L1020.95 3018.84Z" fill="white"/>
<path fill-rule="evenodd" clip-rule="evenodd" d="M975.938 2863.47L1023.77 2863.37L1043.77 2883.31L1043.81 2939.86L975.99 2940L975.938 2863.47V2863.47ZM985.037 2872.54L1015.95 2872.48L1015.96 2891.25L1034.68 2891.21L1034.71 2930.79L985.076 2930.89L985.037 2872.54ZM1021.46 2872.47L1034.73 2885.7L1021.47 2885.73L1021.46 2872.47L1021.46 2872.47Z" fill="white"/>
<path fill-rule="evenodd" clip-rule="evenodd" d="M1100.22 2738.85L1148.05 2738.75L1168.05 2758.69L1168.09 2815.24L1100.27 2815.38L1100.22 2738.85V2738.85ZM1109.32 2747.92L1140.23 2747.86L1140.24 2766.63L1158.96 2766.59L1158.99 2806.17L1109.36 2806.27L1109.32 2747.92ZM1145.74 2747.85L1159.01 2761.08L1145.75 2761.11L1145.74 2747.85L1145.74 2747.85Z" fill="white"/>
<path fill-rule="evenodd" clip-rule="evenodd" d="M1099.71 2885.22L1147.54 2885.12L1167.54 2905.07L1167.58 2961.61L1099.76 2961.75L1099.71 2885.22V2885.22ZM1108.81 2894.29L1139.72 2894.23L1139.73 2913L1158.46 2912.97L1158.48 2952.54L1108.85 2952.64L1108.81 2894.29ZM1145.24 2894.22L1158.5 2907.45L1145.24 2907.48L1145.23 2894.22L1145.24 2894.22Z" fill="white"/>
<path fill-rule="evenodd" clip-rule="evenodd" d="M1223.99 2760.6L1271.83 2760.5L1291.83 2780.44L1291.86 2836.99L1224.04 2837.13L1223.99 2760.6V2760.6ZM1233.09 2769.67L1264 2769.61L1264.02 2788.38L1282.74 2788.34L1282.76 2827.92L1233.13 2828.02L1233.09 2769.67ZM1269.52 2769.6L1282.79 2782.83L1269.53 2782.86L1269.52 2769.6L1269.52 2769.6Z" fill="white"/>
<path fill-rule="evenodd" clip-rule="evenodd" d="M1224.5 2614.23L1272.33 2614.13L1292.33 2634.07L1292.37 2690.62L1224.55 2690.76L1224.5 2614.23V2614.23ZM1233.6 2623.3L1264.51 2623.24L1264.52 2642.01L1283.25 2641.97L1283.27 2681.55L1233.64 2681.65L1233.6 2623.3ZM1270.02 2623.23L1283.29 2636.46L1270.03 2636.49L1270.02 2623.23L1270.02 2623.23Z" fill="white"/>
<path fill-rule="evenodd" clip-rule="evenodd" d="M976.527 3296.22L1024.36 3296.12L1044.36 3316.06L1044.4 3372.61L976.578 3372.75L976.527 3296.22V3296.22ZM985.626 3305.29L1016.54 3305.23L1016.55 3324L1035.27 3323.96L1035.3 3363.53L985.665 3363.64L985.626 3305.29ZM1022.05 3305.22L1035.32 3318.45L1022.06 3318.48L1022.05 3305.21L1022.05 3305.22Z" fill="white"/>
<path fill-rule="evenodd" clip-rule="evenodd" d="M977.743 3150.55L1025.58 3150.45L1045.57 3170.4L1045.61 3226.94L977.794 3227.08L977.743 3150.55V3150.55ZM986.842 3159.62L1017.75 3159.56L1017.76 3178.33L1036.49 3178.3L1036.51 3217.87L986.881 3217.97L986.842 3159.62ZM1023.27 3159.55L1036.54 3172.78L1023.27 3172.81L1023.27 3159.55L1023.27 3159.55Z" fill="white"/>
<path fill-rule="evenodd" clip-rule="evenodd" d="M1101.52 3172.3L1149.35 3172.2L1169.35 3192.15L1169.39 3248.69L1101.57 3248.83L1101.52 3172.3V3172.3ZM1110.62 3181.38L1141.53 3181.31L1141.54 3200.09L1160.26 3200.05L1160.29 3239.62L1110.65 3239.72L1110.62 3181.38ZM1147.04 3181.3L1160.31 3194.53L1147.05 3194.56L1147.04 3181.3L1147.04 3181.3Z" fill="white"/>
<path fill-rule="evenodd" clip-rule="evenodd" d="M1102.02 3025.93L1149.86 3025.83L1169.86 3045.78L1169.89 3102.32L1102.08 3102.46L1102.02 3025.93V3025.93ZM1111.12 3035L1142.03 3034.94L1142.05 3053.71L1160.77 3053.68L1160.79 3093.25L1111.16 3093.35L1111.12 3035ZM1147.55 3034.93L1160.82 3048.16L1147.56 3048.19L1147.55 3034.93L1147.55 3034.93Z" fill="white"/>
<path fill-rule="evenodd" clip-rule="evenodd" d="M1226.31 2901.31L1274.14 2901.21L1294.14 2921.16L1294.18 2977.7L1226.36 2977.84L1226.31 2901.31V2901.31ZM1235.41 2910.38L1266.32 2910.32L1266.33 2929.09L1285.05 2929.06L1285.08 2968.63L1235.44 2968.73L1235.41 2910.38ZM1271.83 2910.31L1285.1 2923.54L1271.84 2923.57L1271.83 2910.31L1271.83 2910.31Z" fill="white"/>
<path fill-rule="evenodd" clip-rule="evenodd" d="M1225.8 3047.68L1273.63 3047.58L1293.63 3067.53L1293.67 3124.07L1225.85 3124.21L1225.8 3047.68V3047.68ZM1234.9 3056.76L1265.81 3056.69L1265.82 3075.47L1284.54 3075.43L1284.57 3115L1234.94 3115.1L1234.9 3056.76ZM1271.32 3056.68L1284.59 3069.91L1271.33 3069.94L1271.32 3056.68L1271.32 3056.68Z" fill="white"/>
<path fill-rule="evenodd" clip-rule="evenodd" d="M1100.49 3460.8L1148.33 3460.7L1168.33 3480.65L1168.36 3537.2L1100.55 3537.33L1100.49 3460.8V3460.8ZM1109.59 3469.88L1140.5 3469.81L1140.52 3488.59L1159.24 3488.55L1159.26 3528.12L1109.63 3528.22L1109.59 3469.88ZM1146.02 3469.8L1159.29 3483.04L1146.03 3483.06L1146.02 3469.8L1146.02 3469.8Z" fill="white"/>
<path fill-rule="evenodd" clip-rule="evenodd" d="M977.429 3439.76L1025.26 3439.66L1045.26 3459.6L1045.3 3516.15L977.48 3516.29L977.429 3439.76V3439.76ZM986.527 3448.83L1017.44 3448.77L1017.45 3467.54L1036.17 3467.5L1036.2 3507.08L986.566 3507.18L986.527 3448.83ZM1022.95 3448.76L1036.22 3461.99L1022.96 3462.02L1022.95 3448.76L1022.95 3448.76Z" fill="white"/>
<path fill-rule="evenodd" clip-rule="evenodd" d="M976.92 3586.13L1024.75 3586.03L1044.75 3605.98L1044.79 3662.52L976.971 3662.66L976.92 3586.13V3586.13ZM986.019 3595.2L1016.93 3595.14L1016.94 3613.91L1035.66 3613.88L1035.69 3653.45L986.058 3653.55L986.019 3595.2ZM1022.44 3595.13L1035.71 3608.36L1022.45 3608.39L1022.44 3595.13L1022.44 3595.13Z" fill="white"/>
<path fill-rule="evenodd" clip-rule="evenodd" d="M1101.71 3315.14L1149.54 3315.04L1169.54 3334.98L1169.58 3391.53L1101.76 3391.67L1101.71 3315.14V3315.14ZM1110.81 3324.21L1141.72 3324.15L1141.73 3342.92L1160.45 3342.88L1160.48 3382.46L1110.85 3382.56L1110.81 3324.21ZM1147.23 3324.14L1160.5 3337.37L1147.24 3337.4L1147.23 3324.14L1147.23 3324.14Z" fill="white"/>
<path fill-rule="evenodd" clip-rule="evenodd" d="M1225.99 3190.52L1273.82 3190.42L1293.82 3210.36L1293.86 3266.91L1226.04 3267.05L1225.99 3190.52V3190.52ZM1235.09 3199.59L1266 3199.53L1266.01 3218.3L1284.73 3218.26L1284.76 3257.84L1235.13 3257.94L1235.09 3199.59ZM1271.51 3199.52L1284.78 3212.75L1271.52 3212.78L1271.51 3199.52L1271.51 3199.52Z" fill="white"/>
<path fill-rule="evenodd" clip-rule="evenodd" d="M1224.98 3483.26L1272.81 3483.16L1292.81 3503.11L1292.84 3559.65L1225.03 3559.79L1224.98 3483.26V3483.26ZM1234.07 3492.34L1264.99 3492.27L1265 3511.05L1283.72 3511.01L1283.75 3550.58L1234.11 3550.68L1234.07 3492.34ZM1270.5 3492.26L1283.77 3505.49L1270.51 3505.52L1270.5 3492.26L1270.5 3492.26Z" fill="white"/>
<path fill-rule="evenodd" clip-rule="evenodd" d="M1224.24 3332.97L1272.07 3332.87L1292.07 3352.81L1292.11 3409.36L1224.29 3409.5L1224.24 3332.97V3332.97ZM1233.34 3342.04L1264.25 3341.98L1264.26 3360.75L1282.98 3360.71L1283.01 3400.28L1233.38 3400.39L1233.34 3342.04ZM1269.76 3341.97L1283.03 3355.2L1269.77 3355.23L1269.76 3341.96L1269.76 3341.97Z" fill="white"/>
<path fill-rule="evenodd" clip-rule="evenodd" d="M976.211 1562.26L1024.04 1562.16L1044.04 1582.11L1044.08 1638.65L976.262 1638.79L976.211 1562.26V1562.26ZM985.31 1571.33L1016.22 1571.27L1016.23 1590.04L1034.95 1590.01L1034.98 1629.58L985.349 1629.68L985.31 1571.33ZM1021.73 1571.26L1035 1584.49L1021.74 1584.52L1021.73 1571.26L1021.73 1571.26Z" fill="white"/>
<path fill-rule="evenodd" clip-rule="evenodd" d="M975.703 1708.63L1023.54 1708.53L1043.53 1728.48L1043.57 1785.02L975.754 1785.16L975.703 1708.63V1708.63ZM984.802 1717.71L1015.71 1717.64L1015.72 1736.42L1034.45 1736.38L1034.47 1775.95L984.841 1776.05L984.802 1717.71ZM1021.23 1717.63L1034.5 1730.86L1021.23 1730.89L1021.23 1717.63L1021.23 1717.63Z" fill="white"/>
<path fill-rule="evenodd" clip-rule="evenodd" d="M1099.98 1584.01L1147.82 1583.91L1167.82 1603.86L1167.85 1660.4L1100.04 1660.54L1099.98 1584.01V1584.01ZM1109.08 1593.09L1139.99 1593.02L1140.01 1611.8L1158.73 1611.76L1158.75 1651.33L1109.12 1651.43L1109.08 1593.09ZM1145.51 1593.01L1158.78 1606.24L1145.52 1606.27L1145.51 1593.01L1145.51 1593.01Z" fill="white"/>
<path fill-rule="evenodd" clip-rule="evenodd" d="M1100.49 1437.64L1148.33 1437.54L1168.32 1457.49L1168.36 1514.03L1100.54 1514.17L1100.49 1437.64V1437.64ZM1109.59 1446.71L1140.5 1446.65L1140.51 1465.42L1159.24 1465.39L1159.26 1504.96L1109.63 1505.06L1109.59 1446.71ZM1146.02 1446.64L1159.28 1459.87L1146.02 1459.9L1146.02 1446.64L1146.02 1446.64Z" fill="white"/>
<path fill-rule="evenodd" clip-rule="evenodd" d="M1224.77 1313.02L1272.61 1312.92L1292.61 1332.87L1292.64 1389.41L1224.83 1389.55L1224.77 1313.02V1313.02ZM1233.87 1322.09L1264.78 1322.03L1264.8 1340.8L1283.52 1340.77L1283.54 1380.34L1233.91 1380.44L1233.87 1322.09ZM1270.3 1322.02L1283.57 1335.25L1270.31 1335.28L1270.3 1322.02L1270.3 1322.02Z" fill="white"/>
<path fill-rule="evenodd" clip-rule="evenodd" d="M975.389 1997.84L1023.22 1997.74L1043.22 2017.69L1043.26 2074.23L975.44 2074.37L975.389 1997.84V1997.84ZM984.488 2006.91L1015.4 2006.85L1015.41 2025.62L1034.13 2025.59L1034.16 2065.16L984.527 2065.26L984.488 2006.91ZM1020.91 2006.84L1034.18 2020.07L1020.92 2020.1L1020.91 2006.84L1020.91 2006.84Z" fill="white"/>
<path fill-rule="evenodd" clip-rule="evenodd" d="M975.897 1851.47L1023.73 1851.37L1043.73 1871.31L1043.77 1927.86L975.948 1928L975.897 1851.47V1851.47ZM984.996 1860.54L1015.91 1860.48L1015.92 1879.25L1034.64 1879.21L1034.67 1918.79L985.035 1918.89L984.996 1860.54ZM1021.42 1860.47L1034.69 1873.7L1021.43 1873.73L1021.42 1860.47L1021.42 1860.47Z" fill="white"/>
<path fill-rule="evenodd" clip-rule="evenodd" d="M1100.18 1726.85L1148.01 1726.75L1168.01 1746.69L1168.05 1803.24L1100.23 1803.38L1100.18 1726.85V1726.85ZM1109.28 1735.92L1140.19 1735.86L1140.2 1754.63L1158.92 1754.59L1158.95 1794.17L1109.32 1794.27L1109.28 1735.92ZM1145.7 1735.85L1158.97 1749.08L1145.71 1749.11L1145.7 1735.85L1145.7 1735.85Z" fill="white"/>
<path fill-rule="evenodd" clip-rule="evenodd" d="M1099.67 1873.22L1147.5 1873.12L1167.5 1893.07L1167.54 1949.61L1099.72 1949.75L1099.67 1873.22V1873.22ZM1108.77 1882.29L1139.68 1882.23L1139.69 1901L1158.41 1900.97L1158.44 1940.54L1108.81 1940.64L1108.77 1882.29ZM1145.19 1882.22L1158.46 1895.45L1145.2 1895.48L1145.19 1882.22L1145.19 1882.22Z" fill="white"/>
<path fill-rule="evenodd" clip-rule="evenodd" d="M1223.95 1748.6L1271.78 1748.5L1291.78 1768.45L1291.82 1824.99L1224 1825.13L1223.95 1748.6V1748.6ZM1233.05 1757.67L1263.96 1757.61L1263.97 1776.38L1282.7 1776.35L1282.72 1815.92L1233.09 1816.02L1233.05 1757.67ZM1269.48 1757.6L1282.74 1770.83L1269.48 1770.86L1269.47 1757.6L1269.48 1757.6Z" fill="white"/>
<path fill-rule="evenodd" clip-rule="evenodd" d="M1224.46 1602.23L1272.29 1602.13L1292.29 1622.07L1292.33 1678.62L1224.51 1678.76L1224.46 1602.23V1602.23ZM1233.56 1611.3L1264.47 1611.24L1264.48 1630.01L1283.2 1629.97L1283.23 1669.55L1233.6 1669.65L1233.56 1611.3ZM1269.98 1611.23L1283.25 1624.46L1269.99 1624.49L1269.98 1611.23L1269.98 1611.23Z" fill="white"/>
<path fill-rule="evenodd" clip-rule="evenodd" d="M976.485 2284.22L1024.32 2284.12L1044.32 2304.06L1044.35 2360.61L976.536 2360.75L976.485 2284.22V2284.22ZM985.584 2293.29L1016.5 2293.23L1016.51 2312L1035.23 2311.96L1035.26 2351.53L985.623 2351.64L985.584 2293.29ZM1022.01 2293.22L1035.28 2306.45L1022.02 2306.48L1022.01 2293.22L1022.01 2293.22Z" fill="white"/>
<path fill-rule="evenodd" clip-rule="evenodd" d="M977.701 2138.55L1025.53 2138.45L1045.53 2158.4L1045.57 2214.94L977.753 2215.08L977.701 2138.55V2138.55ZM986.8 2147.62L1017.71 2147.56L1017.72 2166.33L1036.44 2166.3L1036.47 2205.87L986.839 2205.97L986.8 2147.62ZM1023.22 2147.55L1036.49 2160.78L1023.23 2160.81L1023.22 2147.55L1023.22 2147.55Z" fill="white"/>
<path fill-rule="evenodd" clip-rule="evenodd" d="M1101.47 2160.3L1149.31 2160.2L1169.31 2180.15L1169.34 2236.7L1101.53 2236.83L1101.47 2160.3V2160.3ZM1110.57 2169.38L1141.49 2169.31L1141.5 2188.09L1160.22 2188.05L1160.24 2227.62L1110.61 2227.72L1110.57 2169.38ZM1147 2169.3L1160.27 2182.54L1147.01 2182.56L1147 2169.3L1147 2169.3Z" fill="white"/>
<path fill-rule="evenodd" clip-rule="evenodd" d="M1101.98 2013.93L1149.82 2013.83L1169.81 2033.78L1169.85 2090.32L1102.03 2090.46L1101.98 2013.93V2013.93ZM1111.08 2023L1141.99 2022.94L1142 2041.71L1160.73 2041.68L1160.75 2081.25L1111.12 2081.35L1111.08 2023ZM1147.51 2022.93L1160.78 2036.16L1147.51 2036.19L1147.51 2022.93L1147.51 2022.93Z" fill="white"/>
<path fill-rule="evenodd" clip-rule="evenodd" d="M1226.26 1889.31L1274.1 1889.21L1294.1 1909.16L1294.13 1965.7L1226.32 1965.84L1226.26 1889.31V1889.31ZM1235.36 1898.38L1266.27 1898.32L1266.29 1917.09L1285.01 1917.06L1285.03 1956.63L1235.4 1956.73L1235.36 1898.38ZM1271.79 1898.31L1285.06 1911.54L1271.8 1911.57L1271.79 1898.31L1271.79 1898.31Z" fill="white"/>
<path fill-rule="evenodd" clip-rule="evenodd" d="M1225.76 2035.68L1273.59 2035.58L1293.59 2055.53L1293.63 2112.08L1225.81 2112.21L1225.76 2035.68V2035.68ZM1234.86 2044.76L1265.77 2044.69L1265.78 2063.47L1284.5 2063.43L1284.53 2103L1234.89 2103.1L1234.86 2044.76ZM1271.28 2044.68L1284.55 2057.92L1271.29 2057.94L1271.28 2044.68L1271.28 2044.68Z" fill="white"/>
<path fill-rule="evenodd" clip-rule="evenodd" d="M1100.45 2448.8L1148.29 2448.7L1168.28 2468.65L1168.32 2525.2L1100.5 2525.34L1100.45 2448.8V2448.8ZM1109.55 2457.88L1140.46 2457.81L1140.47 2476.59L1159.2 2476.55L1159.22 2516.12L1109.59 2516.22L1109.55 2457.88ZM1145.98 2457.8L1159.24 2471.04L1145.98 2471.06L1145.98 2457.8L1145.98 2457.8Z" fill="white"/>
<path fill-rule="evenodd" clip-rule="evenodd" d="M977.387 2427.76L1025.22 2427.66L1045.22 2447.6L1045.26 2504.15L977.438 2504.29L977.387 2427.76V2427.76ZM986.486 2436.83L1017.4 2436.77L1017.41 2455.54L1036.13 2455.5L1036.16 2495.08L986.525 2495.18L986.486 2436.83ZM1022.91 2436.76L1036.18 2449.99L1022.92 2450.02L1022.91 2436.76L1022.91 2436.76Z" fill="white"/>
<path fill-rule="evenodd" clip-rule="evenodd" d="M976.879 2574.13L1024.71 2574.03L1044.71 2593.98L1044.75 2650.52L976.93 2650.66L976.879 2574.13V2574.13ZM985.978 2583.2L1016.89 2583.14L1016.9 2601.91L1035.62 2601.88L1035.65 2641.45L986.017 2641.55L985.978 2583.2ZM1022.4 2583.13L1035.67 2596.36L1022.41 2596.39L1022.4 2583.13L1022.4 2583.13Z" fill="white"/>
<path fill-rule="evenodd" clip-rule="evenodd" d="M1101.67 2303.14L1149.5 2303.04L1169.5 2322.98L1169.54 2379.53L1101.72 2379.67L1101.67 2303.14V2303.14ZM1110.77 2312.21L1141.68 2312.15L1141.69 2330.92L1160.41 2330.88L1160.44 2370.46L1110.81 2370.56L1110.77 2312.21ZM1147.19 2312.14L1160.46 2325.37L1147.2 2325.4L1147.19 2312.14L1147.19 2312.14Z" fill="white"/>
<path fill-rule="evenodd" clip-rule="evenodd" d="M1225.95 2178.52L1273.78 2178.42L1293.78 2198.36L1293.82 2254.91L1226 2255.05L1225.95 2178.52V2178.52ZM1235.05 2187.59L1265.96 2187.53L1265.97 2206.3L1284.69 2206.26L1284.72 2245.84L1235.09 2245.94L1235.05 2187.59ZM1271.47 2187.52L1284.74 2200.75L1271.48 2200.78L1271.47 2187.52L1271.47 2187.52Z" fill="white"/>
<path fill-rule="evenodd" clip-rule="evenodd" d="M1224.93 2471.26L1272.77 2471.16L1292.77 2491.11L1292.8 2547.65L1224.99 2547.79L1224.93 2471.26V2471.26ZM1234.03 2480.34L1264.94 2480.27L1264.96 2499.05L1283.68 2499.01L1283.7 2538.58L1234.07 2538.68L1234.03 2480.34ZM1270.46 2480.26L1283.73 2493.49L1270.47 2493.52L1270.46 2480.26L1270.46 2480.26Z" fill="white"/>
<path fill-rule="evenodd" clip-rule="evenodd" d="M976.169 552.261L1024 552.162L1044 572.107L1044.04 628.653L976.22 628.792L976.169 552.261V552.261ZM985.268 561.335L1016.18 561.271L1016.19 580.045L1034.91 580.007L1034.94 619.579L985.307 619.681L985.268 561.335ZM1021.69 561.26L1034.96 574.493L1021.7 574.521L1021.69 561.26L1021.69 561.26Z" fill="white"/>
<path fill-rule="evenodd" clip-rule="evenodd" d="M975.661 698.632L1023.49 698.534L1043.49 718.479L1043.53 775.025L975.712 775.164L975.661 698.632V698.632ZM984.76 707.707L1015.67 707.643L1015.68 726.417L1034.4 726.378L1034.43 765.951L984.799 766.053L984.76 707.707ZM1021.18 707.632L1034.45 720.865L1021.19 720.892L1021.18 707.631L1021.18 707.632Z" fill="white"/>
<path fill-rule="evenodd" clip-rule="evenodd" d="M1099.94 574.013L1147.77 573.914L1167.77 593.859L1167.81 650.405L1099.99 650.544L1099.94 574.013V574.013ZM1109.04 583.087L1139.95 583.023L1139.96 601.797L1158.69 601.759L1158.71 641.331L1109.08 641.433L1109.04 583.087ZM1145.47 583.012L1158.73 596.245L1145.47 596.273L1145.46 583.012L1145.47 583.012Z" fill="white"/>
<path fill-rule="evenodd" clip-rule="evenodd" d="M1100.45 427.641L1148.28 427.542L1168.28 447.487L1168.32 504.033L1100.5 504.172L1100.45 427.641V427.641ZM1109.55 436.715L1140.46 436.651L1140.47 455.425L1159.19 455.387L1159.22 494.959L1109.59 495.061L1109.55 436.715ZM1145.97 436.64L1159.24 449.873L1145.98 449.9L1145.97 436.64L1145.97 436.64Z" fill="white"/>
<path fill-rule="evenodd" clip-rule="evenodd" d="M1224.73 303.021L1272.56 302.922L1292.56 322.867L1292.6 379.413L1224.78 379.552L1224.73 303.021V303.021ZM1233.83 312.095L1264.74 312.031L1264.75 330.805L1283.48 330.767L1283.5 370.339L1233.87 370.441L1233.83 312.095ZM1270.26 312.02L1283.52 325.253L1270.26 325.28L1270.25 312.019L1270.26 312.02Z" fill="white"/>
<path fill-rule="evenodd" clip-rule="evenodd" d="M975.347 987.84L1023.18 987.741L1043.18 1007.69L1043.22 1064.23L975.398 1064.37L975.347 987.84V987.84ZM984.446 996.914L1015.36 996.85L1015.37 1015.62L1034.09 1015.59L1034.12 1055.16L984.485 1055.26L984.446 996.914ZM1020.87 996.839L1034.14 1010.07L1020.88 1010.1L1020.87 996.838L1020.87 996.839Z" fill="white"/>
<path fill-rule="evenodd" clip-rule="evenodd" d="M975.855 841.468L1023.69 841.369L1043.69 861.314L1043.72 917.861L975.906 917.999L975.855 841.468V841.468ZM984.954 850.542L1015.86 850.478L1015.88 869.252L1034.6 869.214L1034.62 908.786L984.993 908.888L984.954 850.542ZM1021.38 850.468L1034.65 863.7L1021.39 863.728L1021.38 850.467L1021.38 850.468Z" fill="white"/>
<path fill-rule="evenodd" clip-rule="evenodd" d="M1100.14 716.848L1147.97 716.749L1167.97 736.694L1168.01 793.241L1100.19 793.38L1100.14 716.848V716.848ZM1109.24 725.922L1140.15 725.858L1140.16 744.632L1158.88 744.594L1158.91 784.166L1109.27 784.268L1109.24 725.922ZM1145.66 725.848L1158.93 739.081L1145.67 739.108L1145.66 725.847L1145.66 725.848Z" fill="white"/>
<path fill-rule="evenodd" clip-rule="evenodd" d="M1099.63 863.22L1147.46 863.121L1167.46 883.066L1167.5 939.613L1099.68 939.752L1099.63 863.22V863.22ZM1108.73 872.294L1139.64 872.23L1139.65 891.004L1158.37 890.966L1158.4 930.539L1108.77 930.64L1108.73 872.294ZM1145.15 872.22L1158.42 885.453L1145.16 885.48L1145.15 872.219L1145.15 872.22Z" fill="white"/>
<path fill-rule="evenodd" clip-rule="evenodd" d="M1223.91 738.6L1271.74 738.501L1291.74 758.446L1291.78 814.993L1223.96 815.132L1223.91 738.6V738.6ZM1233.01 747.674L1263.92 747.61L1263.93 766.385L1282.65 766.346L1282.68 805.919L1233.05 806.02L1233.01 747.674ZM1269.43 747.6L1282.7 760.833L1269.44 760.86L1269.43 747.599L1269.43 747.6Z" fill="white"/>
<path fill-rule="evenodd" clip-rule="evenodd" d="M1224.42 592.229L1272.25 592.13L1292.25 612.075L1292.29 668.621L1224.47 668.76L1224.42 592.229V592.229ZM1233.52 601.303L1264.43 601.239L1264.44 620.013L1283.16 619.975L1283.19 659.547L1233.56 659.649L1233.52 601.303ZM1269.94 601.228L1283.21 614.461L1269.95 614.488L1269.94 601.227L1269.94 601.228Z" fill="white"/>
<path fill-rule="evenodd" clip-rule="evenodd" d="M976.443 1274.22L1024.28 1274.12L1044.27 1294.06L1044.31 1350.61L976.494 1350.75L976.443 1274.22V1274.22ZM985.542 1283.29L1016.45 1283.23L1016.47 1302L1035.19 1301.96L1035.21 1341.54L985.581 1341.64L985.542 1283.29ZM1021.97 1283.22L1035.24 1296.45L1021.97 1296.48L1021.97 1283.22L1021.97 1283.22Z" fill="white"/>
<path fill-rule="evenodd" clip-rule="evenodd" d="M977.659 1128.55L1025.49 1128.45L1045.49 1148.4L1045.53 1204.94L977.711 1205.08L977.659 1128.55V1128.55ZM986.758 1137.62L1017.67 1137.56L1017.68 1156.33L1036.4 1156.3L1036.43 1195.87L986.797 1195.97L986.758 1137.62ZM1023.18 1137.55L1036.45 1150.78L1023.19 1150.81L1023.18 1137.55L1023.18 1137.55Z" fill="white"/>
<path fill-rule="evenodd" clip-rule="evenodd" d="M1101.43 1150.3L1149.27 1150.2L1169.26 1170.15L1169.3 1226.7L1101.48 1226.83L1101.43 1150.3V1150.3ZM1110.53 1159.38L1141.44 1159.31L1141.45 1178.09L1160.18 1178.05L1160.2 1217.62L1110.57 1217.72L1110.53 1159.38ZM1146.96 1159.3L1160.23 1172.54L1146.96 1172.56L1146.96 1159.3L1146.96 1159.3Z" fill="white"/>
<path fill-rule="evenodd" clip-rule="evenodd" d="M1101.94 1003.93L1149.77 1003.83L1169.77 1023.78L1169.81 1080.32L1101.99 1080.46L1101.94 1003.93V1003.93ZM1111.04 1013.01L1141.95 1012.94L1141.96 1031.72L1160.68 1031.68L1160.71 1071.25L1111.08 1071.35L1111.04 1013.01ZM1147.46 1012.93L1160.73 1026.16L1147.47 1026.19L1147.46 1012.93L1147.46 1012.93Z" fill="white"/>
<path fill-rule="evenodd" clip-rule="evenodd" d="M1226.22 879.311L1274.06 879.212L1294.05 899.157L1294.09 955.704L1226.27 955.843L1226.22 879.311V879.311ZM1235.32 888.385L1266.23 888.321L1266.24 907.095L1284.97 907.057L1284.99 946.63L1235.36 946.731L1235.32 888.385ZM1271.75 888.311L1285.01 901.544L1271.75 901.571L1271.75 888.31L1271.75 888.311Z" fill="white"/>
<path fill-rule="evenodd" clip-rule="evenodd" d="M1225.71 1025.68L1273.55 1025.58L1293.55 1045.53L1293.58 1102.08L1225.77 1102.21L1225.71 1025.68V1025.68ZM1234.81 1034.76L1265.72 1034.69L1265.74 1053.47L1284.46 1053.43L1284.48 1093L1234.85 1093.1L1234.81 1034.76ZM1271.24 1034.68L1284.51 1047.92L1271.25 1047.94L1271.24 1034.68L1271.24 1034.68Z" fill="white"/>
<path fill-rule="evenodd" clip-rule="evenodd" d="M1100.41 1438.8L1148.24 1438.71L1168.24 1458.65L1168.28 1515.2L1100.46 1515.34L1100.41 1438.8V1438.8ZM1109.51 1447.88L1140.42 1447.81L1140.43 1466.59L1159.15 1466.55L1159.18 1506.12L1109.55 1506.22L1109.51 1447.88ZM1145.93 1447.8L1159.2 1461.04L1145.94 1461.06L1145.93 1447.8L1145.93 1447.8Z" fill="white"/>
<path fill-rule="evenodd" clip-rule="evenodd" d="M977.345 1417.76L1025.18 1417.66L1045.18 1437.6L1045.21 1494.15L977.396 1494.29L977.345 1417.76V1417.76ZM986.444 1426.83L1017.36 1426.77L1017.37 1445.54L1036.09 1445.5L1036.12 1485.08L986.483 1485.18L986.444 1426.83ZM1022.87 1426.76L1036.14 1439.99L1022.88 1440.02L1022.87 1426.76L1022.87 1426.76Z" fill="white"/>
<path fill-rule="evenodd" clip-rule="evenodd" d="M976.837 1564.13L1024.67 1564.03L1044.67 1583.98L1044.71 1640.52L976.888 1640.66L976.837 1564.13V1564.13ZM985.936 1573.2L1016.85 1573.14L1016.86 1591.91L1035.58 1591.88L1035.61 1631.45L985.975 1631.55L985.936 1573.2ZM1022.36 1573.13L1035.63 1586.36L1022.37 1586.39L1022.36 1573.13L1022.36 1573.13Z" fill="white"/>
<path fill-rule="evenodd" clip-rule="evenodd" d="M1101.63 1293.14L1149.46 1293.04L1169.46 1312.98L1169.5 1369.53L1101.68 1369.67L1101.63 1293.14V1293.14ZM1110.73 1302.21L1141.64 1302.15L1141.65 1320.92L1160.37 1320.88L1160.4 1360.46L1110.76 1360.56L1110.73 1302.21ZM1147.15 1302.14L1160.42 1315.37L1147.16 1315.4L1147.15 1302.14L1147.15 1302.14Z" fill="white"/>
<path fill-rule="evenodd" clip-rule="evenodd" d="M1225.91 1168.52L1273.74 1168.42L1293.74 1188.36L1293.78 1244.91L1225.96 1245.05L1225.91 1168.52V1168.52ZM1235.01 1177.59L1265.92 1177.53L1265.93 1196.3L1284.65 1196.26L1284.68 1235.84L1235.05 1235.94L1235.01 1177.59ZM1271.43 1177.52L1284.7 1190.75L1271.44 1190.78L1271.43 1177.52L1271.43 1177.52Z" fill="white"/>
<path fill-rule="evenodd" clip-rule="evenodd" d="M1224.89 1461.26L1272.72 1461.16L1292.72 1481.11L1292.76 1537.66L1224.94 1537.79L1224.89 1461.26V1461.26ZM1233.99 1470.34L1264.9 1470.27L1264.91 1489.05L1283.64 1489.01L1283.66 1528.58L1234.03 1528.68L1233.99 1470.34ZM1270.42 1470.26L1283.68 1483.5L1270.42 1483.52L1270.41 1470.26L1270.42 1470.26Z" fill="white"/>
<path fill-rule="evenodd" clip-rule="evenodd" d="M977.24 0.965718L1025.07 0.866927L1045.07 20.8118L1045.11 77.3583L977.291 77.4972L977.24 0.965718V0.965718ZM986.339 10.0399L1017.25 9.97576L1017.26 28.75L1035.98 28.7117L1036.01 68.2841L986.378 68.3858L986.339 10.0399ZM1022.76 9.9653L1036.03 23.1983L1022.77 23.2254L1022.76 9.96448L1022.76 9.9653Z" fill="white"/>
<path fill-rule="evenodd" clip-rule="evenodd" d="M1103.24 17.9657L1151.07 17.8669L1171.07 37.8118L1171.11 94.3583L1103.29 94.4972L1103.24 17.9657V17.9657ZM1112.34 27.0399L1143.25 26.9758L1143.26 45.75L1161.98 45.7117L1162.01 85.2841L1112.38 85.3858L1112.34 27.0399ZM1148.76 26.9653L1162.03 40.1983L1148.77 40.2254L1148.76 26.9645L1148.76 26.9653Z" fill="white"/>
<path fill-rule="evenodd" clip-rule="evenodd" d="M1100.37 428.804L1148.2 428.705L1168.2 448.65L1168.24 505.197L1100.42 505.336L1100.37 428.804V428.804ZM1109.47 437.878L1140.38 437.814L1140.39 456.588L1159.11 456.55L1159.14 496.123L1109.51 496.224L1109.47 437.878ZM1145.89 437.804L1159.16 451.037L1145.9 451.064L1145.89 437.803L1145.89 437.804Z" fill="white"/>
<path fill-rule="evenodd" clip-rule="evenodd" d="M977.304 407.758L1025.14 407.659L1045.14 427.604L1045.17 484.151L977.355 484.29L977.304 407.758V407.758ZM986.402 416.832L1017.31 416.768L1017.33 435.542L1036.05 435.504L1036.07 475.077L986.441 475.178L986.402 416.832ZM1022.83 416.758L1036.1 429.991L1022.83 430.018L1022.83 416.757L1022.83 416.758Z" fill="white"/>
<path fill-rule="evenodd" clip-rule="evenodd" d="M976.795 554.13L1024.63 554.031L1044.63 573.976L1044.66 630.522L976.846 630.661L976.795 554.13V554.13ZM985.894 563.204L1016.81 563.14L1016.82 581.914L1035.54 581.876L1035.57 621.448L985.933 621.55L985.894 563.204ZM1022.32 563.129L1035.59 576.362L1022.33 576.389L1022.32 563.129L1022.32 563.129Z" fill="white"/>
<path fill-rule="evenodd" clip-rule="evenodd" d="M1101.59 283.139L1149.42 283.04L1169.42 302.985L1169.45 359.531L1101.64 359.67L1101.59 283.139V283.139ZM1110.68 292.213L1141.6 292.149L1141.61 310.923L1160.33 310.885L1160.36 350.457L1110.72 350.559L1110.68 292.213ZM1147.11 292.138L1160.38 305.371L1147.12 305.398L1147.11 292.137L1147.11 292.138Z" fill="white"/>
<path fill-rule="evenodd" clip-rule="evenodd" d="M1225.87 158.518L1273.7 158.42L1293.7 178.365L1293.74 234.911L1225.92 235.05L1225.87 158.518V158.518ZM1234.97 167.593L1265.88 167.528L1265.89 186.303L1284.61 186.264L1284.64 225.837L1235 225.939L1234.97 167.593ZM1271.39 167.518L1284.66 180.751L1271.4 180.778L1271.39 167.517L1271.39 167.518Z" fill="white"/>
<path fill-rule="evenodd" clip-rule="evenodd" d="M1224.85 451.263L1272.68 451.164L1292.68 471.109L1292.72 527.655L1224.9 527.794L1224.85 451.263V451.263ZM1233.95 460.337L1264.86 460.273L1264.87 479.047L1283.59 479.009L1283.62 518.581L1233.99 518.683L1233.95 460.337ZM1270.37 460.262L1283.64 473.495L1270.38 473.522L1270.37 460.261L1270.37 460.262Z" fill="white"/>
</g>
</svg>
