<svg width="2294" height="2972" viewBox="0 0 2294 2972" fill="none" xmlns="http://www.w3.org/2000/svg">
<mask id="mask0_2040_12749" style="mask-type:alpha" maskUnits="userSpaceOnUse" x="0" y="0" width="2294" height="2972">
<path d="M0 2972L1766.68 0L2294 0L527.356 2972H0Z" fill="#F6F6F6"/>
</mask>
<g mask="url(#mask0_2040_12749)">
<path d="M0 2972L1766.68 0L2294 0L527.356 2972H0Z" fill="#F6F6F6"/>
<path fill-rule="evenodd" clip-rule="evenodd" d="M1754.29 157.865L1795.73 181.752L1803.04 209.034L1774.73 257.985L1715.98 224.117L1754.29 157.865V157.865ZM1757.61 170.277L1784.4 185.714L1775 201.966L1791.22 211.315L1771.41 245.573L1728.41 220.786L1757.61 170.277ZM1789.17 188.468L1794.02 206.569L1782.53 199.946L1789.17 188.467L1789.17 188.468Z" fill="white"/>
<path fill-rule="evenodd" clip-rule="evenodd" d="M1680.49 284.272L1721.93 308.159L1729.24 335.442L1700.93 384.392L1642.18 350.524L1680.49 284.272V284.272ZM1683.82 296.685L1710.6 312.121L1701.2 328.373L1717.42 337.723L1697.61 371.98L1654.61 347.194L1683.82 296.685ZM1715.37 314.875L1720.22 332.976L1708.73 326.354L1715.37 314.874L1715.37 314.875Z" fill="white"/>
<path fill-rule="evenodd" clip-rule="evenodd" d="M1850.49 238.72L1891.93 262.607L1899.24 289.889L1870.94 338.84L1812.18 304.972L1850.49 238.72V238.72ZM1853.82 251.132L1880.6 266.569L1871.2 282.821L1887.42 292.171L1867.61 326.428L1824.61 301.641L1853.82 251.132ZM1885.38 269.323L1890.23 287.424L1878.74 280.802L1885.38 269.322L1885.38 269.323Z" fill="white"/>
<path fill-rule="evenodd" clip-rule="evenodd" d="M1924.29 112.312L1965.73 136.2L1973.04 163.482L1944.73 212.433L1885.98 178.564L1924.29 112.312V112.312ZM1927.62 124.725L1954.4 140.161L1945 156.414L1961.22 165.763L1941.41 200.02L1898.41 175.234L1927.62 124.725ZM1959.17 142.916L1964.02 161.017L1952.54 154.394L1959.17 142.914L1959.17 142.916Z" fill="white"/>
<path fill-rule="evenodd" clip-rule="evenodd" d="M2094.29 66.7602L2135.74 90.6474L2143.05 117.93L2114.74 166.88L2055.98 133.012L2094.29 66.7602V66.7602ZM2097.62 79.1727L2124.4 94.6092L2115 110.861L2131.22 120.211L2111.41 154.468L2068.41 129.682L2097.62 79.1727ZM2129.18 97.3633L2134.03 115.464L2122.54 108.842L2129.18 97.3621L2129.18 97.3633Z" fill="white"/>
<path fill-rule="evenodd" clip-rule="evenodd" d="M2020.5 193.168L2061.94 217.055L2069.25 244.337L2040.94 293.288L1982.18 259.42L2020.5 193.168V193.168ZM2023.82 205.58L2050.6 221.017L2041.2 237.269L2057.42 246.619L2037.61 280.876L1994.61 256.089L2023.82 205.58ZM2055.38 223.771L2060.23 241.872L2048.74 235.25L2055.38 223.77L2055.38 223.771Z" fill="white"/>
<path fill-rule="evenodd" clip-rule="evenodd" d="M1535.27 534.379L1576.72 558.266L1584.03 585.548L1555.72 634.499L1496.96 600.631L1535.27 534.379V534.379ZM1538.6 546.791L1565.38 562.228L1555.98 578.48L1572.2 587.83L1552.39 622.087L1509.39 597.3L1538.6 546.791ZM1570.16 564.982L1575.01 583.083L1563.52 576.461L1570.16 564.981L1570.16 564.982Z" fill="white"/>
<path fill-rule="evenodd" clip-rule="evenodd" d="M1609.07 407.971L1650.51 431.859L1657.82 459.141L1629.52 508.092L1570.76 474.223L1609.07 407.971V407.971ZM1612.4 420.384L1639.18 435.82L1629.78 452.072L1646 461.422L1626.19 495.679L1583.19 470.893L1612.4 420.384ZM1643.96 438.574L1648.81 456.676L1637.32 450.053L1643.96 438.573L1643.96 438.574Z" fill="white"/>
<path fill-rule="evenodd" clip-rule="evenodd" d="M1779.08 362.419L1820.52 386.306L1827.83 413.589L1799.52 462.539L1740.76 428.671L1779.08 362.419V362.419ZM1782.4 374.832L1809.18 390.268L1799.78 406.52L1816 415.87L1796.19 450.127L1753.19 425.341L1782.4 374.832ZM1813.96 393.022L1818.81 411.123L1807.32 404.501L1813.96 393.021L1813.96 393.022Z" fill="white"/>
<path fill-rule="evenodd" clip-rule="evenodd" d="M1705.28 488.827L1746.72 512.714L1754.03 539.996L1725.72 588.947L1666.97 555.079L1705.28 488.827V488.827ZM1708.6 501.239L1735.38 516.676L1725.99 532.928L1742.21 542.278L1722.4 576.535L1679.4 551.748L1708.6 501.239ZM1740.16 519.43L1745.01 537.531L1733.52 530.909L1740.16 519.429L1740.16 519.43Z" fill="white"/>
<path fill-rule="evenodd" clip-rule="evenodd" d="M1875.28 443.275L1916.72 467.162L1924.03 494.444L1895.72 543.395L1836.97 509.526L1875.28 443.275V443.275ZM1878.61 455.687L1905.39 471.124L1895.99 487.376L1912.21 496.725L1892.4 530.982L1849.4 506.196L1878.61 455.687ZM1910.16 473.878L1915.01 491.979L1903.52 485.356L1910.16 473.877L1910.16 473.878Z" fill="white"/>
<path fill-rule="evenodd" clip-rule="evenodd" d="M1949.08 316.867L1990.52 340.754L1997.83 368.037L1969.52 416.987L1910.77 383.119L1949.08 316.867V316.867ZM1952.4 329.28L1979.19 344.716L1969.79 360.968L1986.01 370.318L1966.2 404.575L1923.2 379.789L1952.4 329.28ZM1983.96 347.47L1988.81 365.571L1977.32 358.949L1983.96 347.469L1983.96 347.47Z" fill="white"/>
<path fill-rule="evenodd" clip-rule="evenodd" d="M1392.7 782.743L1434.14 806.631L1441.45 833.913L1413.14 882.864L1354.39 848.995L1392.7 782.743V782.743ZM1396.02 795.156L1422.8 810.592L1413.41 826.844L1429.63 836.194L1409.82 870.451L1366.82 845.665L1396.02 795.156ZM1427.58 813.346L1432.43 831.448L1420.94 824.825L1427.58 813.345L1427.58 813.346Z" fill="white"/>
<path fill-rule="evenodd" clip-rule="evenodd" d="M1466.75 657.302L1508.2 681.189L1515.51 708.471L1487.2 757.422L1428.44 723.554L1466.75 657.302V657.302ZM1470.08 669.714L1496.86 685.151L1487.46 701.403L1503.68 710.752L1483.87 745.01L1440.87 720.223L1470.08 669.714ZM1501.64 687.905L1506.49 706.006L1495 699.383L1501.64 687.904L1501.64 687.905Z" fill="white"/>
<path fill-rule="evenodd" clip-rule="evenodd" d="M1562.96 738.157L1604.4 762.044L1611.71 789.327L1583.4 838.277L1524.65 804.409L1562.96 738.157V738.157ZM1566.29 750.57L1593.07 766.006L1583.67 782.258L1599.89 791.608L1580.08 825.865L1537.08 801.079L1566.29 750.57ZM1597.84 768.76L1602.69 786.861L1591.2 780.239L1597.84 768.759L1597.84 768.76Z" fill="white"/>
<path fill-rule="evenodd" clip-rule="evenodd" d="M1636.76 611.749L1678.2 635.637L1685.51 662.919L1657.2 711.87L1598.45 678.001L1636.76 611.749V611.749ZM1640.08 624.162L1666.86 639.598L1657.47 655.851L1673.69 665.2L1653.88 699.457L1610.88 674.671L1640.08 624.162ZM1671.64 642.353L1676.49 660.454L1665 653.831L1671.64 642.351L1671.64 642.353Z" fill="white"/>
<path fill-rule="evenodd" clip-rule="evenodd" d="M1806.76 566.197L1848.2 590.085L1855.51 617.367L1827.2 666.318L1768.45 632.449L1806.76 566.197V566.197ZM1810.09 578.61L1836.87 594.046L1827.47 610.299L1843.69 619.648L1823.88 653.905L1780.88 629.119L1810.09 578.61ZM1841.64 596.801L1846.49 614.902L1835 608.279L1841.64 596.799L1841.64 596.801Z" fill="white"/>
<path fill-rule="evenodd" clip-rule="evenodd" d="M1732.96 692.605L1774.4 716.492L1781.71 743.774L1753.41 792.725L1694.65 758.857L1732.96 692.605V692.605ZM1736.29 705.017L1763.07 720.454L1753.67 736.706L1769.89 746.056L1750.08 780.313L1707.08 755.526L1736.29 705.017ZM1767.85 723.208L1772.7 741.309L1761.21 734.687L1767.85 723.207L1767.85 723.208Z" fill="white"/>
<path fill-rule="evenodd" clip-rule="evenodd" d="M1417.48 987.298L1458.93 1011.18L1466.24 1038.47L1437.93 1087.42L1379.17 1053.55L1417.48 987.298V987.298ZM1420.81 999.71L1447.59 1015.15L1438.19 1031.4L1454.41 1040.75L1434.6 1075.01L1391.6 1050.22L1420.81 999.71ZM1452.37 1017.9L1457.22 1036L1445.73 1029.38L1452.37 1017.9L1452.37 1017.9Z" fill="white"/>
<path fill-rule="evenodd" clip-rule="evenodd" d="M1321.54 907.408L1362.98 931.296L1370.29 958.578L1341.98 1007.53L1283.23 973.66L1321.54 907.408V907.408ZM1324.86 919.821L1351.65 935.257L1342.25 951.509L1358.47 960.859L1338.66 995.116L1295.66 970.33L1324.86 919.821ZM1356.42 938.011L1361.27 956.113L1349.78 949.49L1356.42 938.01L1356.42 938.011Z" fill="white"/>
<path fill-rule="evenodd" clip-rule="evenodd" d="M1247.74 1033.82L1289.18 1057.7L1296.49 1084.99L1268.18 1133.94L1209.43 1100.07L1247.74 1033.82V1033.82ZM1251.07 1046.23L1277.85 1061.66L1268.45 1077.92L1284.67 1087.27L1264.86 1121.52L1221.86 1096.74L1251.07 1046.23ZM1282.62 1064.42L1287.47 1082.52L1275.99 1075.9L1282.62 1064.42L1282.62 1064.42Z" fill="white"/>
<path fill-rule="evenodd" clip-rule="evenodd" d="M1491.54 861.856L1532.98 885.744L1540.29 913.026L1511.99 961.977L1453.23 928.108L1491.54 861.856V861.856ZM1494.87 874.269L1521.65 889.705L1512.25 905.957L1528.47 915.307L1508.66 949.564L1465.66 924.778L1494.87 874.269ZM1526.42 892.459L1531.27 910.561L1519.79 903.938L1526.42 892.458L1526.42 892.459Z" fill="white"/>
<path fill-rule="evenodd" clip-rule="evenodd" d="M1587.75 942.712L1629.19 966.599L1636.5 993.881L1608.19 1042.83L1549.44 1008.96L1587.75 942.712V942.712ZM1591.07 955.124L1617.85 970.561L1608.45 986.813L1624.67 996.162L1604.86 1030.42L1561.86 1005.63L1591.07 955.124ZM1622.63 973.315L1627.48 991.416L1615.99 984.793L1622.63 973.314L1622.63 973.315Z" fill="white"/>
<path fill-rule="evenodd" clip-rule="evenodd" d="M1661.54 816.304L1702.99 840.191L1710.3 867.474L1681.99 916.424L1623.23 882.556L1661.54 816.304V816.304ZM1664.87 828.717L1691.65 844.153L1682.25 860.405L1698.47 869.755L1678.66 904.012L1635.66 879.226L1664.87 828.717ZM1696.43 846.907L1701.28 865.008L1689.79 858.386L1696.43 846.906L1696.43 846.907Z" fill="white"/>
<path fill-rule="evenodd" clip-rule="evenodd" d="M1100.14 1286.63L1141.59 1310.52L1148.9 1337.8L1120.59 1386.75L1061.83 1352.88L1100.14 1286.63V1286.63ZM1103.47 1299.04L1130.25 1314.48L1120.85 1330.73L1137.07 1340.08L1117.26 1374.34L1074.26 1349.55L1103.47 1299.04ZM1135.03 1317.23L1139.88 1335.34L1128.39 1328.71L1135.03 1317.23L1135.03 1317.23Z" fill="white"/>
<path fill-rule="evenodd" clip-rule="evenodd" d="M1439.89 1194.56L1481.33 1218.45L1488.64 1245.73L1460.34 1294.68L1401.58 1260.81L1439.89 1194.56V1194.56ZM1443.22 1206.97L1470 1222.41L1460.6 1238.66L1476.82 1248.01L1457.01 1282.27L1414.01 1257.48L1443.22 1206.97ZM1474.78 1225.16L1479.63 1243.26L1468.14 1236.64L1474.77 1225.16L1474.78 1225.16Z" fill="white"/>
<path fill-rule="evenodd" clip-rule="evenodd" d="M1173.94 1160.22L1215.38 1184.11L1222.69 1211.39L1194.39 1260.34L1135.63 1226.48L1173.94 1160.22V1160.22ZM1177.27 1172.64L1204.05 1188.07L1194.65 1204.32L1210.87 1213.67L1191.06 1247.93L1148.06 1223.14L1177.27 1172.64ZM1208.83 1190.83L1213.68 1208.93L1202.19 1202.31L1208.83 1190.83L1208.83 1190.83Z" fill="white"/>
<path fill-rule="evenodd" clip-rule="evenodd" d="M1343.95 1114.67L1385.39 1138.56L1392.7 1165.84L1364.39 1214.79L1305.63 1180.92L1343.95 1114.67V1114.67ZM1347.27 1127.08L1374.05 1142.52L1364.65 1158.77L1380.87 1168.12L1361.06 1202.38L1318.06 1177.59L1347.27 1127.08ZM1378.83 1145.27L1383.68 1163.38L1372.19 1156.75L1378.83 1145.27L1378.83 1145.27Z" fill="white"/>
<path fill-rule="evenodd" clip-rule="evenodd" d="M1270.15 1241.08L1311.59 1264.97L1318.9 1292.25L1290.59 1341.2L1231.84 1307.33L1270.15 1241.08V1241.08ZM1273.47 1253.49L1300.25 1268.93L1290.86 1285.18L1307.08 1294.53L1287.27 1328.79L1244.27 1304L1273.47 1253.49ZM1305.03 1271.68L1309.88 1289.78L1298.39 1283.16L1305.03 1271.68L1305.03 1271.68Z" fill="white"/>
<path fill-rule="evenodd" clip-rule="evenodd" d="M1513.95 1069.12L1555.39 1093.01L1562.7 1120.29L1534.39 1169.24L1475.64 1135.37L1513.95 1069.12V1069.12ZM1517.27 1081.53L1544.06 1096.97L1534.66 1113.22L1550.88 1122.57L1531.07 1156.83L1488.07 1132.04L1517.27 1081.53ZM1548.83 1099.72L1553.68 1117.82L1542.19 1111.2L1548.83 1099.72L1548.83 1099.72Z" fill="white"/>
<path fill-rule="evenodd" clip-rule="evenodd" d="M1028.73 1410.33L1070.17 1434.22L1077.48 1461.5L1049.17 1510.45L990.416 1476.58L1028.73 1410.33V1410.33ZM1032.05 1422.74L1058.83 1438.18L1049.44 1454.43L1065.66 1463.78L1045.85 1498.04L1002.85 1473.25L1032.05 1422.74ZM1063.61 1440.93L1068.46 1459.03L1056.97 1452.41L1063.61 1440.93L1063.61 1440.93Z" fill="white"/>
<path fill-rule="evenodd" clip-rule="evenodd" d="M954.929 1536.74L996.37 1560.62L1003.68 1587.91L975.373 1636.86L916.618 1602.99L954.929 1536.74V1536.74ZM958.255 1549.15L985.036 1564.59L975.637 1580.84L991.857 1590.19L972.047 1624.45L929.047 1599.66L958.255 1549.15ZM989.812 1567.34L994.662 1585.44L983.173 1578.82L989.812 1567.34L989.812 1567.34Z" fill="white"/>
<path fill-rule="evenodd" clip-rule="evenodd" d="M1124.93 1491.19L1166.37 1515.07L1173.68 1542.36L1145.38 1591.31L1086.62 1557.44L1124.93 1491.19V1491.19ZM1128.26 1503.6L1155.04 1519.03L1145.64 1535.29L1161.86 1544.64L1142.05 1578.89L1099.05 1554.11L1128.26 1503.6ZM1159.82 1521.79L1164.67 1539.89L1153.18 1533.27L1159.82 1521.79L1159.82 1521.79Z" fill="white"/>
<path fill-rule="evenodd" clip-rule="evenodd" d="M1198.73 1364.78L1240.17 1388.67L1247.48 1415.95L1219.17 1464.9L1160.42 1431.03L1198.73 1364.78V1364.78ZM1202.06 1377.19L1228.84 1392.63L1219.44 1408.88L1235.66 1418.23L1215.85 1452.49L1172.85 1427.7L1202.06 1377.19ZM1233.61 1395.38L1238.46 1413.48L1226.97 1406.86L1233.61 1395.38L1233.61 1395.38Z" fill="white"/>
<path fill-rule="evenodd" clip-rule="evenodd" d="M1368.73 1319.23L1410.17 1343.11L1417.48 1370.4L1389.18 1419.35L1330.42 1385.48L1368.73 1319.23V1319.23ZM1372.06 1331.64L1398.84 1347.08L1389.44 1363.33L1405.66 1372.68L1385.85 1406.93L1342.85 1382.15L1372.06 1331.64ZM1403.62 1349.83L1408.47 1367.93L1396.98 1361.31L1403.62 1349.83L1403.62 1349.83Z" fill="white"/>
<path fill-rule="evenodd" clip-rule="evenodd" d="M1294.94 1445.63L1336.38 1469.52L1343.69 1496.8L1315.38 1545.75L1256.62 1511.89L1294.94 1445.63V1445.63ZM1298.26 1458.05L1325.04 1473.48L1315.64 1489.73L1331.86 1499.08L1312.05 1533.34L1269.05 1508.55L1298.26 1458.05ZM1329.82 1476.24L1334.67 1494.34L1323.18 1487.72L1329.82 1476.24L1329.82 1476.24Z" fill="white"/>
<path fill-rule="evenodd" clip-rule="evenodd" d="M812.352 1785.1L853.794 1808.99L861.104 1836.27L832.796 1885.22L774.041 1851.35L812.352 1785.1V1785.1ZM815.678 1797.51L842.459 1812.95L833.06 1829.2L849.28 1838.55L829.47 1872.81L786.471 1848.02L815.678 1797.51ZM847.236 1815.71L852.086 1833.81L840.597 1827.18L847.235 1815.7L847.236 1815.71Z" fill="white"/>
<path fill-rule="evenodd" clip-rule="evenodd" d="M886.409 1659.66L927.85 1683.55L935.161 1710.83L906.853 1759.78L848.098 1725.91L886.409 1659.66V1659.66ZM889.735 1672.07L916.516 1687.51L907.117 1703.76L923.337 1713.11L903.527 1747.37L860.527 1722.58L889.735 1672.07ZM921.292 1690.26L926.142 1708.36L914.653 1701.74L921.292 1690.26L921.292 1690.26Z" fill="white"/>
<path fill-rule="evenodd" clip-rule="evenodd" d="M1056.41 1614.11L1097.85 1638L1105.16 1665.28L1076.86 1714.23L1018.1 1680.36L1056.41 1614.11V1614.11ZM1059.74 1626.52L1086.52 1641.96L1077.12 1658.21L1093.34 1667.56L1073.53 1701.82L1030.53 1677.03L1059.74 1626.52ZM1091.3 1644.71L1096.15 1662.81L1084.66 1656.19L1091.29 1644.71L1091.3 1644.71Z" fill="white"/>
<path fill-rule="evenodd" clip-rule="evenodd" d="M982.614 1740.52L1024.06 1764.4L1031.37 1791.69L1003.06 1840.64L944.303 1806.77L982.614 1740.52V1740.52ZM985.94 1752.93L1012.72 1768.37L1003.32 1784.62L1019.54 1793.97L999.732 1828.22L956.732 1803.44L985.94 1752.93ZM1017.5 1771.12L1022.35 1789.22L1010.86 1782.6L1017.5 1771.12L1017.5 1771.12Z" fill="white"/>
<path fill-rule="evenodd" clip-rule="evenodd" d="M1152.62 1694.96L1194.06 1718.85L1201.37 1746.13L1173.06 1795.08L1114.31 1761.22L1152.62 1694.96V1694.96ZM1155.94 1707.38L1182.72 1722.81L1173.33 1739.06L1189.55 1748.41L1169.74 1782.67L1126.74 1757.89L1155.94 1707.38ZM1187.5 1725.57L1192.35 1743.67L1180.86 1737.05L1187.5 1725.57L1187.5 1725.57Z" fill="white"/>
<path fill-rule="evenodd" clip-rule="evenodd" d="M1226.42 1568.56L1267.86 1592.44L1275.17 1619.73L1246.86 1668.68L1188.1 1634.81L1226.42 1568.56V1568.56ZM1229.74 1580.97L1256.52 1596.41L1247.12 1612.66L1263.34 1622.01L1243.53 1656.26L1200.53 1631.48L1229.74 1580.97ZM1261.3 1599.16L1266.15 1617.26L1254.66 1610.64L1261.3 1599.16L1261.3 1599.16Z" fill="white"/>
<path fill-rule="evenodd" clip-rule="evenodd" d="M666.878 2034.24L708.319 2058.13L715.629 2085.41L687.322 2134.36L628.566 2100.49L666.878 2034.24V2034.24ZM670.204 2046.66L696.985 2062.09L687.586 2078.34L703.806 2087.69L683.996 2121.95L640.996 2097.16L670.204 2046.66ZM701.761 2064.85L706.611 2082.95L695.122 2076.32L701.761 2064.85L701.761 2064.85Z" fill="white"/>
<path fill-rule="evenodd" clip-rule="evenodd" d="M740.935 1908.8L782.376 1932.69L789.687 1959.97L761.379 2008.92L702.624 1975.05L740.935 1908.8V1908.8ZM744.261 1921.21L771.042 1936.65L761.643 1952.9L777.863 1962.25L758.053 1996.51L715.053 1971.72L744.261 1921.21ZM775.818 1939.4L780.668 1957.51L769.179 1950.88L775.818 1939.4L775.818 1939.4Z" fill="white"/>
<path fill-rule="evenodd" clip-rule="evenodd" d="M837.14 1989.66L878.581 2013.54L885.891 2040.83L857.583 2089.78L798.828 2055.91L837.14 1989.66V1989.66ZM840.465 2002.07L867.246 2017.51L857.847 2033.76L874.067 2043.11L854.257 2077.36L811.258 2052.58L840.465 2002.07ZM872.023 2020.26L876.873 2038.36L865.384 2031.74L872.022 2020.26L872.023 2020.26Z" fill="white"/>
<path fill-rule="evenodd" clip-rule="evenodd" d="M911.197 1864.22L952.638 1888.1L959.948 1915.38L931.641 1964.34L872.885 1930.47L911.197 1864.22V1864.22ZM914.523 1876.63L941.304 1892.06L931.905 1908.32L948.124 1917.67L928.315 1951.92L885.315 1927.14L914.523 1876.63ZM946.08 1894.82L950.93 1912.92L939.441 1906.3L946.079 1894.82L946.08 1894.82Z" fill="white"/>
<path fill-rule="evenodd" clip-rule="evenodd" d="M1081.2 1818.66L1122.64 1842.55L1129.95 1869.83L1101.64 1918.78L1042.89 1884.91L1081.2 1818.66V1818.66ZM1084.53 1831.08L1111.31 1846.51L1101.91 1862.76L1118.13 1872.11L1098.32 1906.37L1055.32 1881.58L1084.53 1831.08ZM1116.08 1849.27L1120.93 1867.37L1109.44 1860.74L1116.08 1849.26L1116.08 1849.27Z" fill="white"/>
<path fill-rule="evenodd" clip-rule="evenodd" d="M1007.4 1945.07L1048.84 1968.96L1056.15 1996.24L1027.85 2045.19L969.09 2011.32L1007.4 1945.07V1945.07ZM1010.73 1957.48L1037.51 1972.92L1028.11 1989.17L1044.33 1998.52L1024.52 2032.78L981.52 2007.99L1010.73 1957.48ZM1042.28 1975.67L1047.14 1993.77L1035.65 1987.15L1042.28 1975.67L1042.28 1975.67Z" fill="white"/>
<path fill-rule="evenodd" clip-rule="evenodd" d="M518.575 2288.28L560.016 2312.17L567.327 2339.45L539.019 2388.4L480.264 2354.53L518.575 2288.28V2288.28ZM521.901 2300.7L548.682 2316.13L539.283 2332.38L555.503 2341.73L535.693 2375.99L492.693 2351.2L521.901 2300.7ZM553.458 2318.89L558.308 2336.99L546.819 2330.36L553.458 2318.88L553.458 2318.89Z" fill="white"/>
<path fill-rule="evenodd" clip-rule="evenodd" d="M858.322 2196.21L899.763 2220.1L907.074 2247.38L878.766 2296.33L820.011 2262.46L858.322 2196.21V2196.21ZM861.648 2208.63L888.429 2224.06L879.03 2240.31L895.25 2249.66L875.44 2283.92L832.44 2259.13L861.648 2208.63ZM893.205 2226.82L898.055 2244.92L886.567 2238.29L893.205 2226.81L893.205 2226.82Z" fill="white"/>
<path fill-rule="evenodd" clip-rule="evenodd" d="M592.373 2161.88L633.814 2185.76L641.125 2213.04L612.817 2262L554.062 2228.13L592.373 2161.88V2161.88ZM595.699 2174.29L622.48 2189.72L613.081 2205.98L629.301 2215.33L609.491 2249.58L566.491 2224.8L595.699 2174.29ZM627.256 2192.48L632.106 2210.58L620.617 2203.96L627.256 2192.48L627.256 2192.48Z" fill="white"/>
<path fill-rule="evenodd" clip-rule="evenodd" d="M762.376 2116.32L803.817 2140.21L811.127 2167.49L782.82 2216.44L724.064 2182.58L762.376 2116.32V2116.32ZM765.702 2128.74L792.483 2144.17L783.084 2160.42L799.304 2169.77L779.494 2204.03L736.494 2179.24L765.702 2128.74ZM797.259 2146.93L802.109 2165.03L790.62 2158.4L797.259 2146.93L797.259 2146.93Z" fill="white"/>
<path fill-rule="evenodd" clip-rule="evenodd" d="M688.578 2242.73L730.019 2266.62L737.33 2293.9L709.022 2342.85L650.267 2308.98L688.578 2242.73V2242.73ZM691.904 2255.14L718.685 2270.58L709.286 2286.83L725.506 2296.18L705.696 2330.44L662.696 2305.65L691.904 2255.14ZM723.461 2273.33L728.311 2291.43L716.822 2284.81L723.461 2273.33L723.461 2273.33Z" fill="white"/>
<path fill-rule="evenodd" clip-rule="evenodd" d="M932.379 2070.77L973.82 2094.66L981.13 2121.94L952.823 2170.89L894.067 2137.02L932.379 2070.77V2070.77ZM935.705 2083.18L962.486 2098.62L953.087 2114.87L969.307 2124.22L949.497 2158.48L906.497 2133.69L935.705 2083.18ZM967.262 2101.37L972.112 2119.48L960.623 2112.85L967.262 2101.37L967.262 2101.37Z" fill="white"/>
<path fill-rule="evenodd" clip-rule="evenodd" d="M447.157 2411.98L488.598 2435.87L495.909 2463.15L467.601 2512.1L408.846 2478.23L447.157 2411.98V2411.98ZM450.483 2424.39L477.264 2439.83L467.865 2456.08L484.085 2465.43L464.275 2499.69L421.275 2474.9L450.483 2424.39ZM482.04 2442.59L486.89 2460.69L475.402 2454.06L482.04 2442.58L482.04 2442.59Z" fill="white"/>
<path fill-rule="evenodd" clip-rule="evenodd" d="M373.359 2538.39L414.801 2562.28L422.111 2589.56L393.803 2638.51L335.048 2604.64L373.359 2538.39V2538.39ZM376.685 2550.8L403.466 2566.24L394.067 2582.49L410.287 2591.84L390.477 2626.1L347.477 2601.31L376.685 2550.8ZM408.242 2568.99L413.093 2587.09L401.604 2580.47L408.242 2568.99L408.242 2568.99Z" fill="white"/>
<path fill-rule="evenodd" clip-rule="evenodd" d="M543.362 2492.84L584.803 2516.72L592.114 2544.01L563.806 2592.96L505.051 2559.09L543.362 2492.84V2492.84ZM546.688 2505.25L573.469 2520.69L564.07 2536.94L580.29 2546.29L560.48 2580.55L517.48 2555.76L546.688 2505.25ZM578.245 2523.44L583.095 2541.54L571.607 2534.92L578.245 2523.44L578.245 2523.44Z" fill="white"/>
<path fill-rule="evenodd" clip-rule="evenodd" d="M617.16 2366.43L658.601 2390.32L665.912 2417.6L637.604 2466.55L578.849 2432.68L617.16 2366.43V2366.43ZM620.486 2378.84L647.267 2394.28L637.868 2410.53L654.088 2419.88L634.278 2454.14L591.278 2429.35L620.486 2378.84ZM652.043 2397.03L656.893 2415.13L645.404 2408.51L652.043 2397.03L652.043 2397.03Z" fill="white"/>
<path fill-rule="evenodd" clip-rule="evenodd" d="M787.163 2320.88L828.604 2344.76L835.915 2372.05L807.607 2421L748.852 2387.13L787.163 2320.88V2320.88ZM790.489 2333.29L817.27 2348.73L807.871 2364.98L824.091 2374.33L804.281 2408.59L761.281 2383.8L790.489 2333.29ZM822.046 2351.48L826.896 2369.58L815.407 2362.96L822.046 2351.48L822.046 2351.48Z" fill="white"/>
<path fill-rule="evenodd" clip-rule="evenodd" d="M713.365 2447.29L754.806 2471.17L762.117 2498.45L733.809 2547.41L675.054 2513.54L713.365 2447.29V2447.29ZM716.691 2459.7L743.472 2475.13L734.073 2491.39L750.293 2500.74L730.483 2534.99L687.483 2510.21L716.691 2459.7ZM748.248 2477.89L753.098 2495.99L741.61 2489.37L748.248 2477.89L748.248 2477.89Z" fill="white"/>
<path fill-rule="evenodd" clip-rule="evenodd" d="M230.783 2786.75L272.224 2810.64L279.534 2837.92L251.226 2886.87L192.471 2853.01L230.783 2786.75V2786.75ZM234.108 2799.17L260.89 2814.6L251.491 2830.85L267.71 2840.2L247.901 2874.46L204.901 2849.68L234.108 2799.17ZM265.666 2817.36L270.516 2835.46L259.027 2828.84L265.665 2817.36L265.666 2817.36Z" fill="white"/>
<path fill-rule="evenodd" clip-rule="evenodd" d="M304.839 2661.31L346.281 2685.2L353.591 2712.48L325.283 2761.43L266.528 2727.56L304.839 2661.31V2661.31ZM308.165 2673.72L334.946 2689.16L325.547 2705.41L341.767 2714.76L321.957 2749.02L278.957 2724.23L308.165 2673.72ZM339.722 2691.92L344.573 2710.02L333.084 2703.39L339.722 2691.91L339.722 2691.92Z" fill="white"/>
<path fill-rule="evenodd" clip-rule="evenodd" d="M474.842 2615.76L516.283 2639.65L523.594 2666.93L495.286 2715.88L436.531 2682.01L474.842 2615.76V2615.76ZM478.168 2628.17L504.949 2643.61L495.55 2659.86L511.77 2669.21L491.96 2703.47L448.96 2678.68L478.168 2628.17ZM509.725 2646.36L514.575 2664.46L503.087 2657.84L509.725 2646.36L509.725 2646.36Z" fill="white"/>
<path fill-rule="evenodd" clip-rule="evenodd" d="M401.044 2742.17L442.486 2766.05L449.796 2793.34L421.488 2842.29L362.733 2808.42L401.044 2742.17V2742.17ZM404.37 2754.58L431.151 2770.02L421.752 2786.27L437.972 2795.62L418.162 2829.88L375.162 2805.09L404.37 2754.58ZM435.927 2772.77L440.778 2790.87L429.289 2784.25L435.927 2772.77L435.927 2772.77Z" fill="white"/>
<path fill-rule="evenodd" clip-rule="evenodd" d="M571.047 2696.62L612.489 2720.5L619.799 2747.79L591.491 2796.74L532.736 2762.87L571.047 2696.62V2696.62ZM574.373 2709.03L601.154 2724.46L591.755 2740.72L607.975 2750.07L588.165 2784.32L545.165 2759.54L574.373 2709.03ZM605.93 2727.22L610.781 2745.32L599.292 2738.7L605.93 2727.22L605.93 2727.22Z" fill="white"/>
<path fill-rule="evenodd" clip-rule="evenodd" d="M644.845 2570.21L686.286 2594.1L693.597 2621.38L665.289 2670.33L606.534 2636.46L644.845 2570.21V2570.21ZM648.171 2582.62L674.952 2598.06L665.553 2614.31L681.773 2623.66L661.963 2657.92L618.963 2633.13L648.171 2582.62ZM679.728 2600.81L684.578 2618.91L673.09 2612.29L679.728 2600.81L679.728 2600.81Z" fill="white"/>
<path fill-rule="evenodd" clip-rule="evenodd" d="M159.365 2910.45L200.806 2934.34L208.116 2961.62L179.808 3010.57L121.053 2976.71L159.365 2910.45V2910.45ZM162.691 2922.87L189.472 2938.3L180.073 2954.55L196.292 2963.9L176.483 2998.16L133.483 2973.37L162.691 2922.87ZM194.248 2941.06L199.098 2959.16L187.609 2952.53L194.247 2941.06L194.248 2941.06Z" fill="white"/>
<path fill-rule="evenodd" clip-rule="evenodd" d="M329.626 2865.87L371.068 2889.75L378.378 2917.04L350.07 2965.99L291.315 2932.12L329.626 2865.87V2865.87ZM332.952 2878.28L359.733 2893.72L350.334 2909.97L366.554 2919.32L346.744 2953.57L303.744 2928.79L332.952 2878.28ZM364.509 2896.47L369.36 2914.57L357.871 2907.95L364.509 2896.47L364.509 2896.47Z" fill="white"/>
<path fill-rule="evenodd" clip-rule="evenodd" d="M499.629 2820.31L541.071 2844.2L548.381 2871.48L520.073 2920.44L461.318 2886.57L499.629 2820.31V2820.31ZM502.955 2832.73L529.736 2848.16L520.337 2864.42L536.557 2873.77L516.747 2908.02L473.747 2883.24L502.955 2832.73ZM534.512 2850.92L539.363 2869.02L527.874 2862.4L534.512 2850.92L534.512 2850.92Z" fill="white"/>
<path fill-rule="evenodd" clip-rule="evenodd" d="M425.831 2946.72L467.273 2970.61L474.583 2997.89L446.275 3046.84L387.52 3012.97L425.831 2946.72V2946.72ZM429.157 2959.13L455.938 2974.57L446.539 2990.82L462.759 3000.17L442.949 3034.43L399.95 3009.64L429.157 2959.13ZM460.715 2977.33L465.565 2995.43L454.076 2988.8L460.714 2977.32L460.715 2977.33Z" fill="white"/>
</g>
</svg>
