<svg width="2294" height="2972" viewBox="0 0 2294 2972" fill="none" xmlns="http://www.w3.org/2000/svg">
<mask id="mask0_2040_12719" style="mask-type:alpha" maskUnits="userSpaceOnUse" x="0" y="0" width="2294" height="2972">
<path d="M0 2972L1766.68 0L2294 0L527.356 2972H0Z" fill="#F6F6F6"/>
</mask>
<g mask="url(#mask0_2040_12719)">
<path d="M0 2972L1766.68 0L2294 0L527.356 2972H0Z" fill="#F6F6F6"/>
<path fill-rule="evenodd" clip-rule="evenodd" d="M688.288 1932.86L729.729 1956.75L737.04 1984.03L708.732 2032.98L649.977 1999.12L688.288 1932.86V1932.86ZM691.614 1945.28L718.395 1960.71L708.996 1976.97L725.216 1986.32L705.406 2020.57L662.406 1995.79L691.614 1945.28ZM723.171 1963.47L728.021 1981.57L716.532 1974.95L723.171 1963.47L723.171 1963.47Z" fill="white"/>
<path fill-rule="evenodd" clip-rule="evenodd" d="M614.49 2059.27L655.931 2083.16L663.241 2110.44L634.933 2159.39L576.178 2125.52L614.49 2059.27V2059.27ZM617.816 2071.68L644.597 2087.12L635.198 2103.37L651.417 2112.72L631.608 2146.98L588.608 2122.19L617.816 2071.68ZM649.373 2089.88L654.223 2107.98L642.734 2101.35L649.372 2089.87L649.373 2089.88Z" fill="white"/>
<path fill-rule="evenodd" clip-rule="evenodd" d="M784.493 2013.72L825.934 2037.61L833.244 2064.89L804.936 2113.84L746.181 2079.97L784.493 2013.72V2013.72ZM787.818 2026.13L814.6 2041.57L805.2 2057.82L821.42 2067.17L801.611 2101.43L758.611 2076.64L787.818 2026.13ZM819.376 2044.32L824.226 2062.42L812.737 2055.8L819.375 2044.32L819.376 2044.32Z" fill="white"/>
<path fill-rule="evenodd" clip-rule="evenodd" d="M858.291 1887.31L899.732 1911.2L907.042 1938.48L878.735 1987.43L819.979 1953.56L858.291 1887.31V1887.31ZM861.617 1899.72L888.398 1915.16L878.999 1931.41L895.219 1940.76L875.409 1975.02L832.409 1950.23L861.617 1899.72ZM893.174 1917.92L898.024 1936.02L886.535 1929.39L893.174 1917.91L893.174 1917.92Z" fill="white"/>
<path fill-rule="evenodd" clip-rule="evenodd" d="M1028.29 1841.76L1069.74 1865.65L1077.05 1892.93L1048.74 1941.88L989.982 1908.01L1028.29 1841.76V1841.76ZM1031.62 1854.17L1058.4 1869.61L1049 1885.86L1065.22 1895.21L1045.41 1929.47L1002.41 1904.68L1031.62 1854.17ZM1063.18 1872.36L1068.03 1890.46L1056.54 1883.84L1063.18 1872.36L1063.18 1872.36Z" fill="white"/>
<path fill-rule="evenodd" clip-rule="evenodd" d="M954.495 1968.17L995.937 1992.06L1003.25 2019.34L974.939 2068.29L916.184 2034.42L954.495 1968.17V1968.17ZM957.821 1980.58L984.602 1996.02L975.203 2012.27L991.423 2021.62L971.613 2055.88L928.614 2031.09L957.821 1980.58ZM989.379 1998.77L994.229 2016.87L982.74 2010.25L989.378 1998.77L989.379 1998.77Z" fill="white"/>
<path fill-rule="evenodd" clip-rule="evenodd" d="M469.274 2309.38L510.716 2333.27L518.026 2360.55L489.718 2409.5L430.963 2375.63L469.274 2309.38V2309.38ZM472.6 2321.79L499.381 2337.23L489.982 2353.48L506.202 2362.83L486.392 2397.09L443.392 2372.3L472.6 2321.79ZM504.157 2339.98L509.008 2358.08L497.519 2351.46L504.157 2339.98L504.157 2339.98Z" fill="white"/>
<path fill-rule="evenodd" clip-rule="evenodd" d="M543.072 2182.97L584.513 2206.86L591.824 2234.14L563.516 2283.09L504.761 2249.22L543.072 2182.97V2182.97ZM546.398 2195.38L573.179 2210.82L563.78 2227.07L580 2236.42L560.19 2270.68L517.19 2245.89L546.398 2195.38ZM577.955 2213.57L582.805 2231.68L571.317 2225.05L577.955 2213.57L577.955 2213.57Z" fill="white"/>
<path fill-rule="evenodd" clip-rule="evenodd" d="M713.075 2137.42L754.516 2161.31L761.827 2188.59L733.519 2237.54L674.764 2203.67L713.075 2137.42V2137.42ZM716.401 2149.83L743.182 2165.27L733.783 2181.52L750.003 2190.87L730.193 2225.13L687.193 2200.34L716.401 2149.83ZM747.958 2168.02L752.808 2186.12L741.319 2179.5L747.958 2168.02L747.958 2168.02Z" fill="white"/>
<path fill-rule="evenodd" clip-rule="evenodd" d="M639.277 2263.83L680.719 2287.71L688.029 2315L659.721 2363.95L600.966 2330.08L639.277 2263.83V2263.83ZM642.603 2276.24L669.384 2291.68L659.985 2307.93L676.205 2317.28L656.395 2351.53L613.395 2326.75L642.603 2276.24ZM674.16 2294.43L679.011 2312.53L667.522 2305.91L674.16 2294.43L674.16 2294.43Z" fill="white"/>
<path fill-rule="evenodd" clip-rule="evenodd" d="M809.28 2218.27L850.721 2242.16L858.032 2269.44L829.724 2318.39L770.969 2284.53L809.28 2218.27V2218.27ZM812.606 2230.69L839.387 2246.12L829.988 2262.38L846.208 2271.73L826.398 2305.98L783.398 2281.2L812.606 2230.69ZM844.163 2248.88L849.013 2266.98L837.525 2260.36L844.163 2248.88L844.163 2248.88Z" fill="white"/>
<path fill-rule="evenodd" clip-rule="evenodd" d="M883.078 2091.87L924.519 2115.75L931.83 2143.04L903.522 2191.99L844.767 2158.12L883.078 2091.87V2091.87ZM886.404 2104.28L913.185 2119.72L903.786 2135.97L920.006 2145.32L900.196 2179.57L857.196 2154.79L886.404 2104.28ZM917.961 2122.47L922.811 2140.57L911.322 2133.95L917.961 2122.47L917.961 2122.47Z" fill="white"/>
<path fill-rule="evenodd" clip-rule="evenodd" d="M326.698 2557.74L368.139 2581.63L375.449 2608.91L347.141 2657.86L288.386 2624L326.698 2557.74V2557.74ZM330.024 2570.16L356.805 2585.59L347.406 2601.84L363.625 2611.19L343.816 2645.45L300.816 2620.66L330.024 2570.16ZM361.581 2588.35L366.431 2606.45L354.942 2599.83L361.58 2588.35L361.581 2588.35Z" fill="white"/>
<path fill-rule="evenodd" clip-rule="evenodd" d="M400.754 2432.3L442.196 2456.19L449.506 2483.47L421.198 2532.42L362.443 2498.55L400.754 2432.3V2432.3ZM404.08 2444.71L430.861 2460.15L421.462 2476.4L437.682 2485.75L417.872 2520.01L374.872 2495.22L404.08 2444.71ZM435.637 2462.9L440.488 2481.01L428.999 2474.38L435.637 2462.9L435.637 2462.9Z" fill="white"/>
<path fill-rule="evenodd" clip-rule="evenodd" d="M496.959 2513.16L538.401 2537.04L545.711 2564.33L517.403 2613.28L458.648 2579.41L496.959 2513.16V2513.16ZM500.285 2525.57L527.066 2541.01L517.667 2557.26L533.887 2566.61L514.077 2600.87L471.078 2576.08L500.285 2525.57ZM531.842 2543.76L536.693 2561.86L525.204 2555.24L531.842 2543.76L531.842 2543.76Z" fill="white"/>
<path fill-rule="evenodd" clip-rule="evenodd" d="M570.757 2386.75L612.199 2410.64L619.509 2437.92L591.201 2486.87L532.446 2453L570.757 2386.75V2386.75ZM574.083 2399.16L600.864 2414.6L591.465 2430.85L607.685 2440.2L587.875 2474.46L544.875 2449.67L574.083 2399.16ZM605.64 2417.35L610.491 2435.45L599.002 2428.83L605.64 2417.35L605.64 2417.35Z" fill="white"/>
<path fill-rule="evenodd" clip-rule="evenodd" d="M740.76 2341.2L782.201 2365.08L789.512 2392.37L761.204 2441.32L702.449 2407.45L740.76 2341.2V2341.2ZM744.086 2353.61L770.867 2369.05L761.468 2385.3L777.688 2394.65L757.878 2428.91L714.878 2404.12L744.086 2353.61ZM775.643 2371.8L780.493 2389.9L769.005 2383.28L775.643 2371.8L775.643 2371.8Z" fill="white"/>
<path fill-rule="evenodd" clip-rule="evenodd" d="M666.962 2467.6L708.404 2491.49L715.714 2518.77L687.406 2567.73L628.651 2533.86L666.962 2467.6V2467.6ZM670.288 2480.02L697.069 2495.45L687.67 2511.71L703.89 2521.06L684.08 2555.31L641.08 2530.53L670.288 2480.02ZM701.845 2498.21L706.696 2516.31L695.207 2509.69L701.845 2498.21L701.845 2498.21Z" fill="white"/>
<path fill-rule="evenodd" clip-rule="evenodd" d="M351.485 2762.3L392.926 2786.18L400.236 2813.47L371.929 2862.42L313.173 2828.55L351.485 2762.3V2762.3ZM354.811 2774.71L381.592 2790.15L372.193 2806.4L388.413 2815.75L368.603 2850.01L325.603 2825.22L354.811 2774.71ZM386.368 2792.9L391.218 2811L379.729 2804.38L386.368 2792.9L386.368 2792.9Z" fill="white"/>
<path fill-rule="evenodd" clip-rule="evenodd" d="M255.538 2682.41L296.98 2706.3L304.29 2733.58L275.982 2782.53L217.227 2748.66L255.538 2682.41V2682.41ZM258.864 2694.82L285.645 2710.26L276.246 2726.51L292.466 2735.86L272.656 2770.12L229.657 2745.33L258.864 2694.82ZM290.422 2713.01L295.272 2731.11L283.783 2724.49L290.421 2713.01L290.422 2713.01Z" fill="white"/>
<path fill-rule="evenodd" clip-rule="evenodd" d="M181.741 2808.82L223.182 2832.7L230.492 2859.99L202.184 2908.94L143.429 2875.07L181.741 2808.82V2808.82ZM185.067 2821.23L211.848 2836.66L202.449 2852.92L218.668 2862.27L198.859 2896.52L155.859 2871.74L185.067 2821.23ZM216.624 2839.42L221.474 2857.52L209.985 2850.9L216.623 2839.42L216.624 2839.42Z" fill="white"/>
<path fill-rule="evenodd" clip-rule="evenodd" d="M425.541 2636.86L466.983 2660.74L474.293 2688.03L445.985 2736.98L387.23 2703.11L425.541 2636.86V2636.86ZM428.867 2649.27L455.648 2664.71L446.249 2680.96L462.469 2690.31L442.659 2724.56L399.66 2699.78L428.867 2649.27ZM460.424 2667.46L465.275 2685.56L453.786 2678.94L460.424 2667.46L460.424 2667.46Z" fill="white"/>
<path fill-rule="evenodd" clip-rule="evenodd" d="M595.544 2591.3L636.986 2615.19L644.296 2642.47L615.988 2691.42L557.233 2657.56L595.544 2591.3V2591.3ZM598.87 2603.72L625.651 2619.15L616.252 2635.41L632.472 2644.75L612.662 2679.01L569.662 2654.23L598.87 2603.72ZM630.427 2621.91L635.278 2640.01L623.789 2633.39L630.427 2621.91L630.427 2621.91Z" fill="white"/>
<path fill-rule="evenodd" clip-rule="evenodd" d="M373.892 2969.56L415.333 2993.45L422.644 3020.73L394.336 3069.68L335.581 3035.81L373.892 2969.56V2969.56ZM377.218 2981.97L403.999 2997.41L394.6 3013.66L410.82 3023.01L391.01 3057.27L348.01 3032.48L377.218 2981.97ZM408.775 3000.16L413.625 3018.26L402.136 3011.64L408.775 3000.16L408.775 3000.16Z" fill="white"/>
<path fill-rule="evenodd" clip-rule="evenodd" d="M447.949 2844.12L489.39 2868.01L496.7 2895.29L468.392 2944.24L409.637 2910.37L447.949 2844.12V2844.12ZM451.275 2856.53L478.056 2871.97L468.657 2888.22L484.876 2897.57L465.067 2931.83L422.067 2907.04L451.275 2856.53ZM482.832 2874.72L487.682 2892.82L476.193 2886.2L482.831 2874.72L482.832 2874.72Z" fill="white"/>
</g>
</svg>
