<svg width="228" height="36" viewBox="0 0 228 36" fill="none" xmlns="http://www.w3.org/2000/svg">
<g clip-path="url(#clip0_11_7646)">
<path d="M117.807 0V8.25306H125.436C127.715 8.25306 129.563 10.1006 129.563 12.3793C129.563 14.6581 127.715 16.5055 125.436 16.5055H105.428V20.8265V24.7585V35.9999H113.68V24.7585H125.437C132.273 24.7585 137.816 19.216 137.816 12.3793C137.816 5.54255 132.273 0 125.437 0H117.807Z" fill="#EA5B21"/>
<path d="M113.68 8.25295H105.427V0H113.68V8.25295Z" fill="#EA5B21"/>
<path d="M0 11.041H3.2159V17.4526C3.2159 17.9983 3.2159 19.0076 3.17365 19.7219H3.2159C3.61476 19.1336 4.01415 18.608 4.456 18.0409L9.73123 11.041H12.9471V24.8925H9.73123V17.8511C9.73123 17.2628 9.73123 16.3375 9.79476 15.8762H9.75251C9.28969 16.4843 8.89072 17.0312 8.44961 17.5998L2.98465 24.8925H0V11.041H0Z" fill="white"/>
<path d="M16.0941 11.041H19.3098V16.4843H25.2582V11.041H28.474V24.8925H25.2582V19.2176H19.3098V24.8925H16.0941V11.041Z" fill="white"/>
<path d="M42.8857 17.8938C42.8857 16.2745 41.9818 15.3918 40.2167 15.1393V20.6468C42.0239 20.4369 42.8857 19.5744 42.8857 17.8938ZM37.0009 15.1393C35.2352 15.3918 34.3312 16.2745 34.3312 17.8938C34.3312 19.5744 35.193 20.4369 37.0009 20.6468V15.1393ZM37.0009 23.3789C33.2381 23.0431 31.0948 21.2568 31.0948 17.8938C31.0948 14.6566 33.3018 12.7859 37.0009 12.4076V10.7266H40.2168V12.4076C43.9161 12.786 46.123 14.6566 46.123 17.8938C46.123 21.2568 43.9793 23.0431 40.2168 23.3789V25.2705H37.0009V23.3789Z" fill="white"/>
<path d="M59.0847 17.9984C59.0847 15.0568 57.5502 13.5644 55.3646 13.5644C53.1785 13.5644 51.6442 15.0568 51.6442 17.9984C51.6442 20.9416 53.1786 22.4336 55.3646 22.4336C57.5502 22.4336 59.0847 20.9416 59.0847 17.9984ZM48.2183 17.9984C48.2183 13.7941 51.1398 10.894 55.3645 10.894C59.5893 10.894 62.5104 13.7942 62.5104 17.9984C62.5104 22.2023 59.5893 25.1028 55.3645 25.1028C51.1398 25.1028 48.2183 22.2022 48.2183 17.9984Z" fill="white"/>
<path d="M68.8941 17.7667C69.4401 17.7667 69.903 17.7035 70.2605 17.5354C70.9332 17.2209 71.2481 16.5686 71.2481 15.686C71.2481 14.9718 70.9541 14.2994 70.3019 13.921C69.9452 13.711 69.4618 13.6266 68.831 13.6266H68.3476V17.7667H68.8942H68.8941ZM65.1316 11.0405H68.9989C70.239 11.0405 71.3108 11.209 72.1725 11.6091C73.7285 12.323 74.5902 13.711 74.5902 15.686C74.5902 17.2836 73.896 19.0703 71.7105 19.8899C70.9119 20.1842 69.9242 20.3528 68.7046 20.3528H68.3475V24.892H65.1316V11.0405Z" fill="white"/>
<path d="M77.213 11.041H80.1133L83.5813 15.8762C84.0018 16.4646 84.338 16.9685 84.6537 17.5154H84.6958C84.9476 17.01 85.2842 16.4216 85.7049 15.7706L88.815 11.0411H91.7364V24.8926H88.5205V17.83C88.5205 17.3257 88.5205 16.7587 88.5422 16.3376H88.5205C88.3951 16.6333 87.8272 17.4527 87.5961 17.8097L85.347 21.2142H83.9391L81.3743 17.6827C81.08 17.2841 80.7438 16.8631 80.4499 16.3375H80.4076C80.429 16.8004 80.429 17.3473 80.429 17.7257V24.8925H77.2131V11.041H77.213Z" fill="white"/>
<path d="M149.343 11.042H161.093V24.892H157.877V13.7525H152.559V24.892H149.343V11.042Z" fill="white"/>
<path d="M168.002 17.7682C168.548 17.7682 169.01 17.7039 169.367 17.537C170.04 17.2214 170.355 16.5702 170.355 15.686C170.355 14.9722 170.061 14.2995 169.41 13.9211C169.052 13.7115 168.569 13.6271 167.938 13.6271H167.455V17.7682H168.002H168.002ZM164.239 11.0421H168.106C169.347 11.0421 170.418 11.2095 171.281 11.6091C172.836 12.3233 173.697 13.7114 173.697 15.6859C173.697 17.284 173.004 19.0706 170.818 19.8903C170.02 20.1845 169.031 20.3526 167.812 20.3526H167.455V24.8923H164.239V11.042V11.0421Z" fill="white"/>
<path d="M186.662 17.9984C186.662 15.0567 185.127 13.5644 182.94 13.5644C180.756 13.5644 179.221 15.0567 179.221 17.9984C179.221 20.9415 180.756 22.4335 182.94 22.4335C185.127 22.4335 186.662 20.9415 186.662 17.9984ZM175.795 17.9984C175.795 13.7956 178.716 10.8955 182.94 10.8955C187.166 10.8955 190.088 13.7957 190.088 17.9984C190.088 22.2023 187.166 25.1027 182.94 25.1027C178.716 25.1027 175.795 22.2022 175.795 17.9984Z" fill="white"/>
<path d="M192.708 11.042H201.032L200.212 13.7525H195.924V16.5485H200.275V19.26H195.924V22.1819H200.99V24.892H192.708V11.042Z" fill="white"/>
<path d="M203.76 11.042H206.976V16.6329H207.039L211.431 11.042H215.088L209.666 17.6624L215.363 24.892H211.516L207.039 18.9862H206.976V24.892H203.76V11.042Z" fill="white"/>
<path d="M219.939 13.7524H215.883V11.042H227.526L226.707 13.7524H223.155V24.8923H219.939V13.7524Z" fill="white"/>
</g>
<defs>
<clipPath id="clip0_11_7646">
<rect width="227.527" height="36" fill="white"/>
</clipPath>
</defs>
</svg>
