<svg width="380" height="60" viewBox="0 0 380 60" fill="none" xmlns="http://www.w3.org/2000/svg">
<g clip-path="url(#clip0_2040_29482)">
<path fill-rule="evenodd" clip-rule="evenodd" d="M175.712 13.7549H189.467V0H175.712V13.7549ZM196.345 13.7551V0H209.061C220.456 0 229.693 9.23758 229.693 20.6321C229.693 32.0266 220.456 41.2642 209.061 41.2642H189.467V59.9998H175.713V41.2642V34.7109V27.5091H209.061C212.858 27.5091 215.938 24.4302 215.938 20.6321C215.938 16.8344 212.858 13.7551 209.061 13.7551H196.345Z" fill="#EA5B21"/>
<path d="M0 18.4016H5.35983V29.0876C5.35983 29.9971 5.35983 31.6792 5.28941 32.8697H5.35983C6.02459 31.8892 6.69025 31.0132 7.42667 30.068L16.2187 18.4016H21.5785V41.4874H16.2187V29.7518C16.2187 28.7713 16.2187 27.2291 16.3246 26.4602H16.2542C15.4828 27.4737 14.8179 28.3852 14.0827 29.3329L4.97441 41.4874H0V18.4016H0Z" fill="#1D4687"/>
<path d="M26.8234 18.4016H32.1831V27.4737H42.097V18.4016H47.4566V41.4874H42.097V32.0292H32.1831V41.4874H26.8234V18.4016Z" fill="#1D4687"/>
<path d="M71.4762 29.8231C71.4762 27.1243 69.9697 25.6531 67.0279 25.2322V34.4114C70.0399 34.0616 71.4762 32.6241 71.4762 29.8231ZM61.6682 25.2322C58.7254 25.6531 57.2186 27.1243 57.2186 29.8231C57.2186 32.6241 58.655 34.0616 61.6682 34.4114V25.2322ZM61.6682 38.9649C55.3969 38.4053 51.8248 35.4281 51.8248 29.8231C51.8248 24.4278 55.503 21.3099 61.6682 20.6794V17.8777H67.0281V20.6794C73.1935 21.3101 76.8717 24.4278 76.8717 29.8231C76.8717 35.4281 73.2988 38.4053 67.0281 38.9649V42.1176H61.6682V38.9649Z" fill="#1D4687"/>
<path d="M98.4746 29.9971C98.4746 25.0943 95.9169 22.6071 92.2744 22.6071C88.6309 22.6071 86.0737 25.0943 86.0737 29.9971C86.0737 34.9023 88.6311 37.389 92.2744 37.389C95.9169 37.389 98.4746 34.9023 98.4746 29.9971ZM80.3639 29.9971C80.3639 22.9899 85.2329 18.1565 92.2742 18.1565C99.3155 18.1565 104.184 22.9901 104.184 29.9971C104.184 37.0036 99.3155 41.8377 92.2742 41.8377C85.2329 41.8377 80.3639 37.0034 80.3639 29.9971Z" fill="#1D4687"/>
<path d="M114.823 29.6116C115.734 29.6116 116.505 29.5063 117.101 29.2262C118.222 28.7019 118.747 27.6148 118.747 26.1438C118.747 24.9535 118.257 23.8329 117.17 23.2021C116.575 22.8522 115.77 22.7115 114.718 22.7115H113.913V29.6116H114.824H114.823ZM108.553 18.4014H114.998C117.065 18.4014 118.851 18.6821 120.288 19.349C122.881 20.5388 124.317 22.8522 124.317 26.1438C124.317 28.8066 123.16 31.7844 119.517 33.1502C118.186 33.6408 116.54 33.9218 114.508 33.9218H113.913V41.4872H108.553V18.4014Z" fill="#1D4687"/>
<path d="M128.688 18.4016H133.522L139.302 26.4602C140.003 27.4409 140.563 28.2807 141.089 29.1922H141.16C141.579 28.3499 142.14 27.3692 142.841 26.2843L148.025 18.4018H152.894V41.4876H147.534V29.7165C147.534 28.8761 147.534 27.9311 147.57 27.2293H147.534C147.325 27.722 146.379 29.0877 145.993 29.6828L142.245 35.3569H139.898L135.624 29.471C135.133 28.8068 134.573 28.1051 134.083 27.2291H134.013C134.048 28.0007 134.048 28.9122 134.048 29.5427V41.4874H128.688V18.4016H128.688Z" fill="#1D4687"/>
<path d="M248.905 18.4038H268.488V41.4871H263.128V22.9213H254.265V41.4871H248.905V18.4038Z" fill="#1D4687"/>
<path d="M280.003 29.6137C280.913 29.6137 281.684 29.5064 282.279 29.2283C283.399 28.7023 283.925 27.617 283.925 26.1434C283.925 24.9536 283.435 23.8325 282.35 23.2018C281.753 22.8526 280.948 22.7119 279.896 22.7119H279.092V29.6137H280.003H280.003ZM273.731 18.4035H280.177C282.245 18.4035 284.03 18.6825 285.467 19.3485C288.059 20.5388 289.495 22.8524 289.495 26.1432C289.495 28.8067 288.34 31.7844 284.696 33.1504C283.366 33.6408 281.719 33.9211 279.687 33.9211H279.092V41.4872H273.731V18.4033V18.4035Z" fill="#1D4687"/>
<path d="M311.103 29.9971C311.103 25.0943 308.545 22.6071 304.901 22.6071C301.259 22.6071 298.701 25.0943 298.701 29.9971C298.701 34.9023 301.259 37.389 304.901 37.389C308.545 37.389 311.103 34.9023 311.103 29.9971ZM292.992 29.9971C292.992 22.9923 297.861 18.1589 304.901 18.1589C311.943 18.1589 316.813 22.9925 316.813 29.9971C316.813 37.0036 311.943 41.8377 304.901 41.8377C297.861 41.8377 292.992 37.0034 292.992 29.9971Z" fill="#1D4687"/>
<path d="M321.181 18.4038H335.054L333.687 22.9213H326.54V27.5813H333.792V32.1006H326.54V36.9703H334.982V41.4871H321.181V18.4038Z" fill="#1D4687"/>
<path d="M339.6 18.4038H344.959V27.7219H345.065L352.385 18.4038H358.48L349.443 29.4378L358.938 41.4871H352.526L345.065 31.6442H344.959V41.4871H339.6V18.4038Z" fill="#1D4687"/>
<path d="M366.566 22.9211H359.805V18.4038H379.211L377.845 22.9211H371.925V41.4877H366.566V22.9211Z" fill="#1D4687"/>
</g>
<defs>
<clipPath id="clip0_2040_29482">
<rect width="379.211" height="60" fill="white"/>
</clipPath>
</defs>
</svg>
