<svg width="21" height="20" viewBox="0 0 21 20" fill="none" xmlns="http://www.w3.org/2000/svg">
<path d="M10.5998 1.66699C8.30599 1.66699 6.43311 3.53988 6.43311 5.83366C6.43311 8.12744 8.30599 10.0003 10.5998 10.0003C12.8936 10.0003 14.7664 8.12744 14.7664 5.83366C14.7664 3.53988 12.8936 1.66699 10.5998 1.66699ZM10.5998 2.91699C12.218 2.91699 13.5164 4.21542 13.5164 5.83366C13.5164 7.45189 12.218 8.75033 10.5998 8.75033C8.98154 8.75033 7.68311 7.45189 7.68311 5.83366C7.68311 4.21542 8.98154 2.91699 10.5998 2.91699ZM5.59082 11.667C4.68257 11.667 3.93311 12.4165 3.93311 13.3247V13.9587C3.93311 15.4604 4.8828 16.6221 6.14421 17.318C7.40561 18.014 9.00315 18.3337 10.5998 18.3337C12.1964 18.3337 13.7939 18.014 15.0553 17.318C16.1309 16.7246 16.9403 15.7764 17.1672 14.5837H17.2673V13.3247C17.2673 12.4165 16.517 11.667 15.6087 11.667H5.59082ZM5.59082 12.917H15.6087C15.8413 12.917 16.0173 13.0921 16.0173 13.3247V13.3337H16.0164V13.9587C16.0164 14.9569 15.4557 15.6702 14.4515 16.2243C13.4473 16.7783 12.024 17.0837 10.5998 17.0837C9.17556 17.0837 7.75227 16.7783 6.74805 16.2243C5.74383 15.6702 5.18311 14.9569 5.18311 13.9587V13.3247C5.18311 13.0921 5.35824 12.917 5.59082 12.917Z" fill="#A8A5A3"/>
</svg>
