<svg width="20" height="20" viewBox="0 0 20 20" fill="none" xmlns="http://www.w3.org/2000/svg">
<path d="M8.54167 2.5C5.21482 2.5 2.5 5.21482 2.5 8.54167C2.5 11.8685 5.21482 14.5833 8.54167 14.5833C9.90548 14.5833 11.1621 14.1221 12.1753 13.3545L16.0775 17.2559C16.1543 17.3358 16.2462 17.3997 16.348 17.4437C16.4498 17.4877 16.5593 17.5109 16.6702 17.512C16.781 17.5132 16.891 17.4922 16.9937 17.4503C17.0963 17.4083 17.1896 17.3464 17.268 17.268C17.3464 17.1896 17.4083 17.0963 17.4503 16.9937C17.4922 16.891 17.5132 16.781 17.512 16.6702C17.5109 16.5593 17.4877 16.4498 17.4437 16.348C17.3997 16.2462 17.3358 16.1543 17.2559 16.0775L13.3545 12.1753C14.1221 11.162 14.5833 9.90548 14.5833 8.54167C14.5833 5.21482 11.8685 2.5 8.54167 2.5ZM8.54167 4.16667C10.9678 4.16667 12.9167 6.11555 12.9167 8.54167C12.9167 9.70655 12.4642 10.7586 11.7285 11.5405C11.6569 11.5924 11.594 11.6553 11.5422 11.7269C10.76 12.4635 9.70738 12.9167 8.54167 12.9167C6.11555 12.9167 4.16667 10.9678 4.16667 8.54167C4.16667 6.11555 6.11555 4.16667 8.54167 4.16667Z" fill="#251E19"/>
</svg>
