<svg width="20" height="20" viewBox="0 0 20 20" fill="none" xmlns="http://www.w3.org/2000/svg">
<path d="M2.91674 9.16668C2.80631 9.16512 2.69667 9.18552 2.5942 9.2267C2.49173 9.26787 2.39846 9.32901 2.31982 9.40655C2.24118 9.48408 2.17873 9.57648 2.13611 9.67836C2.09348 9.78024 2.07153 9.88957 2.07153 10C2.07153 10.1104 2.09348 10.2198 2.13611 10.3217C2.17873 10.4235 2.24118 10.5159 2.31982 10.5935C2.39846 10.671 2.49173 10.7322 2.5942 10.7733C2.69667 10.8145 2.80631 10.8349 2.91674 10.8333H17.0834C17.1938 10.8349 17.3035 10.8145 17.4059 10.7733C17.5084 10.7322 17.6017 10.671 17.6803 10.5935C17.759 10.5159 17.8214 10.4235 17.864 10.3217C17.9067 10.2198 17.9286 10.1104 17.9286 10C17.9286 9.88957 17.9067 9.78024 17.864 9.67836C17.8214 9.57648 17.759 9.48408 17.6803 9.40655C17.6017 9.32901 17.5084 9.26787 17.4059 9.2267C17.3035 9.18552 17.1938 9.16512 17.0834 9.16668H2.91674Z" fill="#251E19"/>
</svg>
