<svg width="20" height="20" viewBox="0 0 20 20" fill="none" xmlns="http://www.w3.org/2000/svg">
<path d="M4.375 2.5C3.34687 2.5 2.5 3.34687 2.5 4.375V7.70833C2.5 8.73646 3.34687 9.58333 4.375 9.58333H7.70833C8.73646 9.58333 9.58333 8.73646 9.58333 7.70833V4.375C9.58333 3.34687 8.73646 2.5 7.70833 2.5H4.375ZM12.2917 2.5C11.2635 2.5 10.4167 3.34687 10.4167 4.375V7.70833C10.4167 8.73646 11.2635 9.58333 12.2917 9.58333H15.625C16.6531 9.58333 17.5 8.73646 17.5 7.70833V4.375C17.5 3.34687 16.6531 2.5 15.625 2.5H12.2917ZM4.375 3.75H7.70833C8.06104 3.75 8.33333 4.02229 8.33333 4.375V7.70833C8.33333 8.06104 8.06104 8.33333 7.70833 8.33333H4.375C4.02229 8.33333 3.75 8.06104 3.75 7.70833V4.375C3.75 4.02229 4.02229 3.75 4.375 3.75ZM12.2917 3.75H15.625C15.9777 3.75 16.25 4.02229 16.25 4.375V7.70833C16.25 8.06104 15.9777 8.33333 15.625 8.33333H12.2917C11.939 8.33333 11.6667 8.06104 11.6667 7.70833V4.375C11.6667 4.02229 11.939 3.75 12.2917 3.75ZM4.375 10.4167C3.34687 10.4167 2.5 11.2635 2.5 12.2917V15.625C2.5 16.6531 3.34687 17.5 4.375 17.5H7.70833C8.73646 17.5 9.58333 16.6531 9.58333 15.625V12.2917C9.58333 11.2635 8.73646 10.4167 7.70833 10.4167H4.375ZM12.2917 10.4167C11.2635 10.4167 10.4167 11.2635 10.4167 12.2917V15.625C10.4167 16.6531 11.2635 17.5 12.2917 17.5H15.625C16.6531 17.5 17.5 16.6531 17.5 15.625V12.2917C17.5 11.2635 16.6531 10.4167 15.625 10.4167H12.2917ZM4.375 11.6667H7.70833C8.06104 11.6667 8.33333 11.939 8.33333 12.2917V15.625C8.33333 15.9777 8.06104 16.25 7.70833 16.25H4.375C4.02229 16.25 3.75 15.9777 3.75 15.625V12.2917C3.75 11.939 4.02229 11.6667 4.375 11.6667ZM12.2917 11.6667H15.625C15.9777 11.6667 16.25 11.939 16.25 12.2917V15.625C16.25 15.9777 15.9777 16.25 15.625 16.25H12.2917C11.939 16.25 11.6667 15.9777 11.6667 15.625V12.2917C11.6667 11.939 11.939 11.6667 12.2917 11.6667Z" fill="#A8A5A3"/>
</svg>
