<svg width="20" height="20" viewBox="0 0 20 20" fill="none" xmlns="http://www.w3.org/2000/svg">
<g clip-path="url(#clip0_1535_27774)">
<path opacity="0.08" d="M17.5 0H2.5C1.11929 0 0 1.11929 0 2.5V17.5C0 18.8807 1.11929 20 2.5 20H17.5C18.8807 20 20 18.8807 20 17.5V2.5C20 1.11929 18.8807 0 17.5 0Z" fill="#6F99C6"/>
<path fill-rule="evenodd" clip-rule="evenodd" d="M11.5 10C11.5 9.72381 11.7239 9.5 12 9.5C12.8261 9.5 13.5 10.1738 13.5 11C13.5 11.8261 12.8261 12.5 12 12.5C11.7239 12.5 11.5 12.2761 11.5 12C11.5 11.7238 11.7239 11.5 12 11.5C12.2739 11.5 12.5 11.2738 12.5 11C12.5 10.7261 12.2739 10.5 12 10.5C11.7239 10.5 11.5 10.2761 11.5 10Z" fill="#6F99C6"/>
<path fill-rule="evenodd" clip-rule="evenodd" d="M14.6654 12.9997V6.99969C14.6654 6.63151 14.3669 6.33301 13.9987 6.33301H5.9987C5.63051 6.33301 5.33203 6.63151 5.33203 6.99969V12.9997C5.33203 13.3679 5.63051 13.6663 5.9987 13.6663H13.9987C14.3669 13.6663 14.6654 13.3679 14.6654 12.9997ZM5.9987 5.33301C5.07823 5.33301 4.33203 6.0792 4.33203 6.99969V12.9997C4.33203 13.9201 5.07823 14.6663 5.9987 14.6663H13.9987C14.9192 14.6663 15.6654 13.9201 15.6654 12.9997V6.99969C15.6654 6.0792 14.9192 5.33301 13.9987 5.33301H5.9987Z" fill="black"/>
<path fill-rule="evenodd" clip-rule="evenodd" d="M4.66797 7.83301C4.66797 7.55688 4.89183 7.33301 5.16797 7.33301H13.168C13.4441 7.33301 13.668 7.55688 13.668 7.83301C13.668 8.10913 13.4441 8.33301 13.168 8.33301H5.16797C4.89183 8.33301 4.66797 8.10913 4.66797 7.83301Z" fill="black"/>
</g>
<defs>
<clipPath id="clip0_1535_27774">
<rect width="20" height="20" fill="white"/>
</clipPath>
</defs>
</svg>
