<svg width="20" height="20" viewBox="0 0 20 20" fill="none" xmlns="http://www.w3.org/2000/svg">
<path d="M10.0001 1.66666C5.40508 1.66666 1.66675 5.40499 1.66675 9.99999C1.66675 14.595 5.40508 18.3333 10.0001 18.3333C14.5951 18.3333 18.3334 14.595 18.3334 9.99999C18.3334 5.40499 14.5951 1.66666 10.0001 1.66666ZM13.5672 8.56707L9.4005 12.7337C9.27841 12.8558 9.11841 12.9167 8.95841 12.9167C8.79841 12.9167 8.63841 12.8558 8.51633 12.7337L6.433 10.6504C6.18883 10.4062 6.18883 10.0108 6.433 9.76666C6.67716 9.52249 7.07258 9.52249 7.31675 9.76666L8.958 11.4079L12.6826 7.68332C12.9267 7.43916 13.3222 7.43916 13.5663 7.68332C13.8105 7.92749 13.8109 8.32291 13.5672 8.56707Z" fill="#251E19"/>
</svg>
