<svg width="20" height="20" viewBox="0 0 20 20" fill="none" xmlns="http://www.w3.org/2000/svg">
<path d="M10.0001 1.66666C5.40511 1.66666 1.66675 5.40502 1.66675 9.99999C1.66675 14.595 5.40511 18.3333 10.0001 18.3333C14.5951 18.3333 18.3334 14.595 18.3334 9.99999C18.3334 5.40502 14.5951 1.66666 10.0001 1.66666ZM10.0001 2.91666C13.9195 2.91666 17.0834 6.08057 17.0834 9.99999C17.0834 13.9194 13.9195 17.0833 10.0001 17.0833C6.08066 17.0833 2.91675 13.9194 2.91675 9.99999C2.91675 6.08057 6.08066 2.91666 10.0001 2.91666ZM12.7027 6.6577C12.5377 6.6616 12.3808 6.73065 12.2665 6.84976L10.0001 9.1162L7.73364 6.84976C7.67538 6.78977 7.60568 6.74207 7.52866 6.7095C7.45164 6.67693 7.36886 6.66015 7.28524 6.66015C7.16085 6.66018 7.03931 6.69732 6.93615 6.76681C6.83299 6.83631 6.75291 6.935 6.70616 7.05027C6.65941 7.16553 6.64811 7.29212 6.67371 7.41384C6.6993 7.53556 6.76064 7.64688 6.84985 7.73355L9.11629 9.99999L6.84985 12.2664C6.78987 12.324 6.74198 12.393 6.70899 12.4693C6.676 12.5457 6.65858 12.6278 6.65773 12.711C6.65689 12.7941 6.67264 12.8766 6.70407 12.9536C6.7355 13.0306 6.78198 13.1005 6.84078 13.1593C6.89957 13.2181 6.96951 13.2646 7.0465 13.296C7.12348 13.3274 7.20597 13.3432 7.28912 13.3423C7.37227 13.3415 7.45441 13.3241 7.53074 13.2911C7.60707 13.2581 7.67605 13.2102 7.73364 13.1502L10.0001 10.8838L12.2665 13.1502C12.3241 13.2102 12.3931 13.2581 12.4694 13.2911C12.5458 13.3241 12.6279 13.3415 12.711 13.3423C12.7942 13.3432 12.8767 13.3274 12.9537 13.296C13.0306 13.2646 13.1006 13.2181 13.1594 13.1593C13.2182 13.1005 13.2647 13.0306 13.2961 12.9536C13.3275 12.8766 13.3433 12.7941 13.3424 12.711C13.3416 12.6278 13.3242 12.5457 13.2912 12.4693C13.2582 12.393 13.2103 12.324 13.1503 12.2664L10.8839 9.99999L13.1503 7.73355C13.2412 7.64632 13.3036 7.53366 13.3294 7.41034C13.3551 7.28702 13.343 7.15881 13.2946 7.04249C13.2462 6.92618 13.1638 6.82721 13.0582 6.75854C12.9526 6.68988 12.8287 6.65473 12.7027 6.6577Z" fill="black"/>
</svg>
