<svg width="21" height="20" viewBox="0 0 21 20" fill="none" xmlns="http://www.w3.org/2000/svg">
<path d="M10.3831 0.833008C8.46033 0.833008 6.86632 2.29721 6.65754 4.16634H5.79979C4.83645 4.16634 4.03455 4.88851 3.93455 5.84684L2.89289 15.8468C2.83789 16.3739 3.00989 16.9025 3.36489 17.297C3.71989 17.6908 4.22812 17.9163 4.75812 17.9163H16.8415C17.3715 17.9163 17.8797 17.6908 18.2347 17.297C18.5897 16.9029 18.7609 16.3739 18.7059 15.8468L17.665 5.84684C17.565 4.88851 16.7631 4.16634 15.7998 4.16634H14.9469C14.9598 4.30384 14.9665 4.44301 14.9665 4.58301V5.41634H15.7998C16.121 5.41634 16.3882 5.65747 16.4215 5.97705L17.4632 15.977C17.4815 16.1529 17.4241 16.3288 17.3061 16.4596C17.1878 16.5909 17.0181 16.6663 16.8415 16.6663H4.75812C4.58145 16.6663 4.41217 16.5913 4.29425 16.4604C4.17592 16.3292 4.11804 16.1529 4.13638 15.977L5.17804 5.97705C5.21138 5.65747 5.47854 5.41634 5.79979 5.41634H6.63312V6.87467C6.63195 6.95749 6.64725 7.03972 6.67813 7.11658C6.70902 7.19343 6.75487 7.26338 6.81302 7.32236C6.87117 7.38134 6.94047 7.42818 7.01688 7.46015C7.09329 7.49211 7.17529 7.50858 7.25812 7.50858C7.34095 7.50858 7.42295 7.49211 7.49936 7.46015C7.57577 7.42818 7.64507 7.38134 7.70322 7.32236C7.76137 7.26338 7.80722 7.19343 7.83811 7.11658C7.86899 7.03972 7.88429 6.95749 7.88312 6.87467V4.58301C7.88312 3.19497 8.99509 2.08301 10.3831 2.08301C11.6289 2.08301 12.6498 2.97929 12.8465 4.16634H8.77179C8.73679 4.29967 8.71645 4.43884 8.71645 4.58301V5.41634H12.8831V6.87467C12.882 6.95749 12.8973 7.03972 12.9281 7.11658C12.959 7.19343 13.0049 7.26338 13.063 7.32236C13.1212 7.38134 13.1905 7.42818 13.2669 7.46015C13.3433 7.49211 13.4253 7.50858 13.5081 7.50858C13.591 7.50858 13.673 7.49211 13.7494 7.46015C13.8258 7.42818 13.8951 7.38134 13.9532 7.32236C14.0114 7.26338 14.0572 7.19343 14.0881 7.11658C14.119 7.03972 14.1343 6.95749 14.1331 6.87467V4.58301C14.1331 2.51937 12.4468 0.833008 10.3831 0.833008Z" fill="#ffffff"/>
</svg>
