<svg width="20" height="20" viewBox="0 0 20 20" fill="none" xmlns="http://www.w3.org/2000/svg">
<path d="M16.2426 2.90447C16.0224 2.90967 15.8132 3.00183 15.6608 3.16082L9.99995 8.82162L4.33914 3.16082C4.26139 3.08089 4.16839 3.01738 4.06564 2.97404C3.9629 2.93071 3.85251 2.90844 3.741 2.90854C3.57529 2.90874 3.4134 2.95834 3.27602 3.051C3.13864 3.14366 3.032 3.27516 2.96972 3.42872C2.90744 3.58228 2.89235 3.75092 2.92638 3.9131C2.9604 4.07528 3.04201 4.22363 3.16076 4.3392L8.82156 10L3.16076 15.6608C3.08078 15.7376 3.01693 15.8296 2.97294 15.9314C2.92895 16.0331 2.90571 16.1427 2.90458 16.2535C2.90346 16.3644 2.92446 16.4744 2.96637 16.577C3.00828 16.6797 3.07024 16.7729 3.14864 16.8513C3.22704 16.9297 3.3203 16.9917 3.42294 17.0336C3.52559 17.0755 3.63557 17.0965 3.74644 17.0954C3.8573 17.0942 3.96683 17.071 4.06861 17.027C4.17038 16.983 4.26235 16.9192 4.33914 16.8392L9.99995 11.1784L15.6608 16.8392C15.7375 16.9192 15.8295 16.983 15.9313 17.027C16.0331 17.071 16.1426 17.0942 16.2535 17.0954C16.3643 17.0965 16.4743 17.0755 16.577 17.0336C16.6796 16.9917 16.7729 16.9297 16.8513 16.8513C16.9297 16.7729 16.9916 16.6797 17.0335 16.577C17.0754 16.4744 17.0964 16.3644 17.0953 16.2535C17.0942 16.1427 17.0709 16.0331 17.027 15.9314C16.983 15.8296 16.9191 15.7376 16.8391 15.6608L11.1783 10L16.8391 4.3392C16.9604 4.22292 17.0437 4.07271 17.0781 3.90827C17.1125 3.74383 17.0964 3.57283 17.0319 3.4177C16.9674 3.26257 16.8575 3.13055 16.7167 3.03897C16.5758 2.94738 16.4106 2.9005 16.2426 2.90447Z" fill="#A8A5A3"/>
</svg>
