<svg width="20" height="20" viewBox="0 0 20 20" fill="none" xmlns="http://www.w3.org/2000/svg">
<path d="M17.5 5.83333V5.20833C17.5 3.715 16.285 2.5 14.7917 2.5H5.20833C3.715 2.5 2.5 3.715 2.5 5.20833V5.83333H17.5ZM2.5 7.08333V14.7917C2.5 16.285 3.715 17.5 5.20833 17.5H14.7917C16.285 17.5 17.5 16.285 17.5 14.7917V7.08333H2.5ZM14.1667 13.3333C14.1667 13.7937 13.7937 14.1667 13.3333 14.1667H11.6667C11.2063 14.1667 10.8333 13.7937 10.8333 13.3333V11.6667C10.8333 11.2063 11.2063 10.8333 11.6667 10.8333H13.3333C13.7937 10.8333 14.1667 11.2063 14.1667 11.6667V13.3333Z" fill="#975730"/>
</svg>
