<svg width="20" height="20" viewBox="0 0 20 20" fill="none" xmlns="http://www.w3.org/2000/svg">
<path d="M10.0001 1.66666C5.40511 1.66666 1.66675 5.40502 1.66675 9.99999C1.66675 14.595 5.40511 18.3333 10.0001 18.3333C14.5951 18.3333 18.3334 14.595 18.3334 9.99999C18.3334 5.40502 14.5951 1.66666 10.0001 1.66666ZM10.0001 2.91666C13.9195 2.91666 17.0834 6.08057 17.0834 9.99999C17.0834 13.9194 13.9195 17.0833 10.0001 17.0833C6.08066 17.0833 2.91675 13.9194 2.91675 9.99999C2.91675 6.08057 6.08066 2.91666 10.0001 2.91666ZM10.0001 5.83332C9.77907 5.83332 9.56711 5.92112 9.41083 6.0774C9.25455 6.23368 9.16675 6.44564 9.16675 6.66666C9.16675 6.88767 9.25455 7.09963 9.41083 7.25591C9.56711 7.41219 9.77907 7.49999 10.0001 7.49999C10.2211 7.49999 10.4331 7.41219 10.5893 7.25591C10.7456 7.09963 10.8334 6.88767 10.8334 6.66666C10.8334 6.44564 10.7456 6.23368 10.5893 6.0774C10.4331 5.92112 10.2211 5.83332 10.0001 5.83332ZM9.99032 8.74104C9.8247 8.74363 9.66688 8.81184 9.55152 8.93071C9.43617 9.04958 9.37271 9.20937 9.37508 9.37499V13.9583C9.37391 14.0411 9.38921 14.1234 9.42009 14.2002C9.45098 14.2771 9.49683 14.347 9.55498 14.406C9.61313 14.465 9.68243 14.5118 9.75884 14.5438C9.83525 14.5758 9.91725 14.5922 10.0001 14.5922C10.0829 14.5922 10.1649 14.5758 10.2413 14.5438C10.3177 14.5118 10.387 14.465 10.4452 14.406C10.5033 14.347 10.5492 14.2771 10.5801 14.2002C10.611 14.1234 10.6263 14.0411 10.6251 13.9583V9.37499C10.6263 9.29134 10.6107 9.2083 10.5792 9.13078C10.5477 9.05328 10.501 8.98287 10.4418 8.92376C10.3826 8.86464 10.3121 8.818 10.2346 8.78662C10.157 8.75523 10.074 8.73973 9.99032 8.74104Z" fill="#975730"/>
</svg>
