<svg width="20" height="20" viewBox="0 0 20 20" fill="none" xmlns="http://www.w3.org/2000/svg">
<path d="M7.91667 11.6667V16.875C7.91667 17.1092 8.0475 17.3237 8.25542 17.4308C8.34583 17.4771 8.44375 17.5 8.54167 17.5C8.66958 17.5 8.79708 17.4608 8.905 17.3837L11.8217 15.3004C11.9858 15.1829 12.0833 14.9933 12.0833 14.7917V11.6667H7.91667ZM16.4583 2.5H3.54167C2.9675 2.5 2.5 2.9675 2.5 3.54167V4.82875C2.5 5.7925 2.93417 6.68708 3.69083 7.28333L7.66792 10.4167H12.3317L16.3087 7.28333C17.0658 6.68708 17.5 5.79208 17.5 4.82875V3.54167C17.5 2.9675 17.0325 2.5 16.4583 2.5Z" fill="#251E19"/>
</svg>
