<svg width="20" height="20" viewBox="0 0 20 20" fill="none" xmlns="http://www.w3.org/2000/svg">
<path d="M9.69892 1.67399C6.3308 1.83263 3.75003 4.72641 3.75003 8.07536V11.1035L2.6457 13.3252C2.64375 13.3292 2.64185 13.3333 2.64 13.3374C2.19573 14.2822 2.9149 15.4167 3.95917 15.4167H7.50002C7.50002 16.7899 8.62675 17.9167 10 17.9167C11.3733 17.9167 12.5 16.7899 12.5 15.4167H16.0401C17.0843 15.4167 17.8044 14.2824 17.3601 13.3374C17.3582 13.3333 17.3563 13.3292 17.3544 13.3252L16.25 11.1035V7.91667C16.25 4.37242 13.2764 1.50557 9.69892 1.67399ZM9.75751 2.92236C12.6409 2.78662 15 5.06758 15 7.91667V11.25C14.9999 11.3466 15.0222 11.4418 15.0651 11.5283L16.2289 13.8704C16.3037 14.0308 16.2171 14.1667 16.0401 14.1667H3.95917C3.78212 14.1667 3.69623 14.0311 3.77118 13.8704V13.8696L4.93492 11.5283C4.97783 11.4418 5.00011 11.3466 5.00003 11.25V8.07536C5.00003 5.3668 7.07479 3.04872 9.75751 2.92236ZM8.75002 15.4167H11.25C11.25 16.1142 10.6976 16.6667 10 16.6667C9.30247 16.6667 8.75002 16.1142 8.75002 15.4167Z" fill="#251E19"/>
</svg>
