<svg width="20" height="20" viewBox="0 0 20 20" fill="none" xmlns="http://www.w3.org/2000/svg">
<path d="M15.625 9.58333H12.2917C11.2579 9.58333 10.4167 8.74208 10.4167 7.70833V4.375C10.4167 3.34125 11.2579 2.5 12.2917 2.5H15.625C16.6587 2.5 17.5 3.34125 17.5 4.375V7.70833C17.5 8.74208 16.6587 9.58333 15.625 9.58333ZM7.70833 9.58333H4.375C3.34125 9.58333 2.5 8.74208 2.5 7.70833V4.375C2.5 3.34125 3.34125 2.5 4.375 2.5H7.70833C8.74208 2.5 9.58333 3.34125 9.58333 4.375V7.70833C9.58333 8.74208 8.74208 9.58333 7.70833 9.58333ZM15.625 17.5H12.2917C11.2579 17.5 10.4167 16.6587 10.4167 15.625V12.2917C10.4167 11.2579 11.2579 10.4167 12.2917 10.4167H15.625C16.6587 10.4167 17.5 11.2579 17.5 12.2917V15.625C17.5 16.6587 16.6587 17.5 15.625 17.5ZM7.70833 17.5H4.375C3.34125 17.5 2.5 16.6587 2.5 15.625V12.2917C2.5 11.2579 3.34125 10.4167 4.375 10.4167H7.70833C8.74208 10.4167 9.58333 11.2579 9.58333 12.2917V15.625C9.58333 16.6587 8.74208 17.5 7.70833 17.5Z" fill="#251E19"/>
</svg>
