<svg width="20" height="20" viewBox="0 0 20 20" fill="none" xmlns="http://www.w3.org/2000/svg">
<path d="M2.64712 17.0804C2.66754 17.0825 2.68837 17.0833 2.70879 17.0833C3.00379 17.0833 3.26212 16.8754 3.32129 16.5808C4.19546 12.2075 8.75337 11.8962 10.8334 11.9929V15.2083C10.8334 15.4608 10.9855 15.6887 11.2192 15.7858C11.4525 15.8821 11.7213 15.8292 11.9005 15.6504L17.7338 9.81707C17.978 9.57332 17.978 9.17707 17.7338 8.93332L11.9005 3.09999C11.7217 2.92124 11.453 2.86749 11.2192 2.96457C10.9855 3.06082 10.8334 3.28874 10.8334 3.54166V6.74791C8.48629 7.05457 2.08337 8.61124 2.08337 16.4583C2.08337 16.7796 2.32712 17.0487 2.64712 17.0804Z" fill="#251E19"/>
</svg>
