<svg width="20" height="20" viewBox="0 0 20 20" fill="none" xmlns="http://www.w3.org/2000/svg">
<path d="M2.07199 10.0122C2.07523 10.2331 2.16601 10.4436 2.32441 10.5976C2.4828 10.7516 2.69584 10.8364 2.91672 10.8333H15.0717L10.6609 15.2441C10.5809 15.3209 10.517 15.4129 10.473 15.5147C10.429 15.6164 10.4058 15.726 10.4047 15.8368C10.4036 15.9477 10.4246 16.0577 10.4665 16.1603C10.5084 16.263 10.5703 16.3562 10.6487 16.4346C10.7271 16.513 10.8204 16.575 10.923 16.6169C11.0257 16.6588 11.1357 16.6798 11.2465 16.6787C11.3574 16.6776 11.4669 16.6543 11.5687 16.6103C11.6705 16.5664 11.7625 16.5025 11.8392 16.4225L17.6726 10.5892C17.8288 10.4329 17.9166 10.221 17.9166 10C17.9166 9.77902 17.8288 9.56709 17.6726 9.41081L11.8392 3.57747C11.7625 3.49749 11.6705 3.43364 11.5687 3.38965C11.4669 3.34567 11.3574 3.32243 11.2465 3.3213C11.1357 3.32017 11.0257 3.34118 10.923 3.38308C10.8204 3.42499 10.7271 3.48696 10.6487 3.56536C10.5703 3.64376 10.5084 3.73701 10.4665 3.83966C10.4246 3.94231 10.4036 4.05229 10.4047 4.16315C10.4058 4.27402 10.429 4.38355 10.473 4.48532C10.517 4.5871 10.5809 4.67907 10.6609 4.75586L15.0717 9.16667H2.91671C2.80529 9.16514 2.6947 9.18598 2.59147 9.22794C2.48824 9.2699 2.39447 9.33214 2.31572 9.41097C2.23696 9.48981 2.17481 9.58363 2.13295 9.6869C2.09109 9.79017 2.07036 9.90079 2.07199 10.0122Z" fill="#975730"/>
</svg>
