<svg width="20" height="20" viewBox="0 0 20 20" fill="none" xmlns="http://www.w3.org/2000/svg">
<path d="M9.58332 0.833344C7.66052 0.833344 6.06652 2.29754 5.85773 4.16668H4.99998C4.03665 4.16668 3.23475 4.88884 3.13475 5.84718L2.09308 15.8472C2.03808 16.3743 2.21009 16.9028 2.56509 17.2974C2.92009 17.6911 3.42832 17.9167 3.95832 17.9167H16.0416C16.5716 17.9167 17.0799 17.6911 17.4349 17.2974C17.7899 16.9032 17.9611 16.3743 17.9061 15.8472L16.8652 5.84718C16.7652 4.88884 15.9633 4.16668 15 4.16668H14.1471C14.16 4.30418 14.1666 4.44334 14.1666 4.58334V5.41668H15C15.3212 5.41668 15.5884 5.6578 15.6217 5.97739L16.6634 15.9774C16.6817 16.1532 16.6242 16.3291 16.5063 16.46C16.388 16.5912 16.2183 16.6667 16.0416 16.6667H3.95832C3.78165 16.6667 3.61237 16.5916 3.49445 16.4608C3.37612 16.3295 3.31824 16.1532 3.33657 15.9774L4.37824 5.97739C4.41157 5.6578 4.67873 5.41668 4.99998 5.41668H5.83332V6.87501C5.83214 6.95783 5.84745 7.04006 5.87833 7.11691C5.90921 7.19377 5.95506 7.26372 6.01322 7.3227C6.07137 7.38168 6.14066 7.42851 6.21707 7.46048C6.29349 7.49245 6.37549 7.50891 6.45832 7.50891C6.54114 7.50891 6.62315 7.49245 6.69956 7.46048C6.77597 7.42851 6.84526 7.38168 6.90342 7.3227C6.96157 7.26372 7.00742 7.19377 7.0383 7.11691C7.06919 7.04006 7.08449 6.95783 7.08332 6.87501V4.58334C7.08332 3.19531 8.19528 2.08334 9.58332 2.08334C10.8291 2.08334 11.85 2.97963 12.0467 4.16668H7.97199C7.93699 4.30001 7.91665 4.43918 7.91665 4.58334V5.41668H12.0833V6.87501C12.0821 6.95783 12.0974 7.04006 12.1283 7.11691C12.1592 7.19377 12.2051 7.26372 12.2632 7.3227C12.3214 7.38168 12.3907 7.42851 12.4671 7.46048C12.5435 7.49245 12.6255 7.50891 12.7083 7.50891C12.7911 7.50891 12.8731 7.49245 12.9496 7.46048C13.026 7.42851 13.0953 7.38168 13.1534 7.3227C13.2116 7.26372 13.2574 7.19377 13.2883 7.11691C13.3192 7.04006 13.3345 6.95783 13.3333 6.87501V4.58334C13.3333 2.51971 11.6469 0.833344 9.58332 0.833344Z" fill="#251E19"/>
</svg>
