<svg width="20" height="20" viewBox="0 0 20 20" fill="none" xmlns="http://www.w3.org/2000/svg">
<path d="M6.87496 2.08334C5.38665 2.08334 4.16663 3.30337 4.16663 4.79168V17.2917C4.16666 17.4067 4.19844 17.5195 4.25847 17.6177C4.3185 17.7158 4.40446 17.7955 4.50686 17.8479C4.60927 17.9003 4.72415 17.9235 4.83887 17.9148C4.95358 17.9061 5.06368 17.8659 5.15702 17.7987L9.99996 14.3115L14.8429 17.7987C14.9362 17.8659 15.0463 17.9061 15.1611 17.9148C15.2758 17.9235 15.3907 17.9003 15.4931 17.8479C15.5955 17.7955 15.6814 17.7158 15.7414 17.6177C15.8015 17.5195 15.8333 17.4067 15.8333 17.2917V4.79168C15.8333 3.30337 14.6133 2.08334 13.125 2.08334H6.87496ZM6.87496 3.33334H13.125C13.9375 3.33334 14.5833 3.97915 14.5833 4.79168V16.0718L10.3654 13.0347C10.2589 12.958 10.1311 12.9168 9.99996 12.9168C9.8688 12.9168 9.74097 12.958 9.63456 13.0347L5.41663 16.0718V4.79168C5.41663 3.97915 6.06243 3.33334 6.87496 3.33334Z" fill="#975730"/>
</svg>
