<svg width="20" height="20" viewBox="0 0 20 20" fill="none" xmlns="http://www.w3.org/2000/svg">
<path d="M1.45825 4.16666C1.11242 4.16666 0.833252 4.44582 0.833252 4.79166C0.833252 5.13749 1.11242 5.41666 1.45825 5.41666H6.87492C7.22075 5.41666 7.49992 5.69582 7.49992 6.04166C7.49992 6.38749 7.22075 6.66666 6.87492 6.66666H1.45825C1.11242 6.66666 0.833252 6.94582 0.833252 7.29166C0.833252 7.63749 1.11242 7.91666 1.45825 7.91666H5.20825C5.55409 7.91666 5.83325 8.19582 5.83325 8.54166C5.83325 8.88749 5.55409 9.16666 5.20825 9.16666H1.45825C1.11242 9.16666 0.833252 9.44582 0.833252 9.79166C0.833252 10.1375 1.11242 10.4167 1.45825 10.4167H3.54159C3.88742 10.4167 4.16659 10.6958 4.16659 11.0417C4.16659 11.3875 3.88742 11.6667 3.54159 11.6667H1.45825C1.11242 11.6667 0.833252 11.9458 0.833252 12.2917V13.125C0.833252 14.1583 1.67492 15 2.70825 15H3.00529C3.27863 15.9598 4.16257 16.6667 5.20825 16.6667C6.25393 16.6667 7.13787 15.9598 7.41121 15H11.2499V6.04166C11.2499 5.00832 10.4083 4.16666 9.37492 4.16666H1.45825ZM12.4999 5.83332V14.375C12.4999 15.6375 13.5291 16.6667 14.7916 16.6667C15.8373 16.6667 16.7212 15.9598 16.9945 15H17.2916C18.3291 15 19.1666 14.1625 19.1666 13.125V10.4753C19.1666 10.2127 19.1122 9.95022 19.0038 9.71272L17.775 6.94579C17.475 6.27079 16.8044 5.83332 16.0627 5.83332H12.4999ZM14.1666 7.08332H16.0627C16.3098 7.08332 16.5332 7.22858 16.6332 7.45442L17.3184 8.99739C17.4409 9.2728 17.2396 9.58332 16.9384 9.58332H14.1666C13.9366 9.58332 13.7499 9.39666 13.7499 9.16666V7.49999C13.7499 7.26999 13.9366 7.08332 14.1666 7.08332ZM5.20825 13.3333C5.78325 13.3333 6.24992 13.8 6.24992 14.375C6.24992 14.95 5.78325 15.4167 5.20825 15.4167C4.63325 15.4167 4.16659 14.95 4.16659 14.375C4.16659 13.8 4.63325 13.3333 5.20825 13.3333ZM14.7916 13.3333C15.3666 13.3333 15.8333 13.8 15.8333 14.375C15.8333 14.95 15.3666 15.4167 14.7916 15.4167C14.2166 15.4167 13.7499 14.95 13.7499 14.375C13.7499 13.8 14.2166 13.3333 14.7916 13.3333Z" fill="#251E19"/>
</svg>
