<svg width="20" height="20" viewBox="0 0 20 20" fill="none" xmlns="http://www.w3.org/2000/svg">
<path d="M16.0409 15H3.95923C3.45714 15 2.99673 14.7471 2.72798 14.3229C2.45923 13.8987 2.42589 13.375 2.63964 12.9208L3.75006 10.6867V8.07541C3.75006 4.6425 6.36298 1.83083 9.69881 1.67375C11.4284 1.59541 13.0655 2.20333 14.3134 3.39375C15.5626 4.585 16.2501 6.19125 16.2501 7.91666V10.6867L17.3542 12.9087C17.5738 13.375 17.5409 13.8992 17.2721 14.3233C17.0034 14.7475 16.543 15 16.0409 15ZM7.53756 15.8333C7.73673 17.0137 8.76339 17.9167 10.0001 17.9167C11.2367 17.9167 12.263 17.0137 12.4626 15.8333H7.53756Z" fill="#975730"/>
</svg>
