<svg width="20" height="20" viewBox="0 0 20 20" fill="none" xmlns="http://www.w3.org/2000/svg">
<path d="M17.9279 9.9878C17.9246 9.7669 17.8339 9.5564 17.6755 9.4024C17.5171 9.2484 17.304 9.1636 17.0832 9.1667H4.92815L9.33895 4.7559C9.41895 4.6791 9.48285 4.5871 9.52685 4.4853C9.57085 4.3836 9.59405 4.274 9.59515 4.1632C9.59625 4.0523 9.57525 3.9423 9.53335 3.8397C9.49145 3.737 9.42955 3.6438 9.35115 3.5654C9.27275 3.487 9.17945 3.425 9.07685 3.3831C8.97415 3.3412 8.86415 3.3202 8.75335 3.3213C8.64245 3.3224 8.53295 3.3457 8.43115 3.3897C8.32935 3.4336 8.23735 3.4975 8.16065 3.5775L2.32725 9.4108C2.17105 9.5671 2.08325 9.779 2.08325 10C2.08325 10.221 2.17105 10.4329 2.32725 10.5892L8.16065 16.4225C8.23735 16.5025 8.32935 16.5664 8.43115 16.6103C8.53295 16.6543 8.64245 16.6776 8.75335 16.6787C8.86415 16.6798 8.97415 16.6588 9.07685 16.6169C9.17945 16.575 9.27275 16.513 9.35115 16.4346C9.42955 16.3562 9.49145 16.263 9.53335 16.1603C9.57525 16.0577 9.59625 15.9477 9.59515 15.8368C9.59405 15.726 9.57085 15.6164 9.52685 15.5147C9.48285 15.4129 9.41895 15.3209 9.33895 15.2441L4.92815 10.8333H17.0832C17.1946 10.8349 17.3052 10.814 17.4084 10.7721C17.5116 10.7301 17.6054 10.6679 17.6842 10.589C17.7629 10.5102 17.8251 10.4164 17.8669 10.3131C17.9088 10.2098 17.9295 10.0992 17.9279 9.9878Z" fill="#975730"/>
</svg>
