<svg width="20" height="20" viewBox="0 0 20 20" fill="none" xmlns="http://www.w3.org/2000/svg">
<path d="M9.58321 0.833344C7.66042 0.833344 6.06642 2.29754 5.85763 4.16668H4.99988C4.03696 4.16668 3.23548 4.88843 3.13465 5.84718L2.09298 15.8472C2.0384 16.3738 2.20957 16.9024 2.56499 17.2974C2.91999 17.6911 3.4278 17.9167 3.95821 17.9167H16.0415C16.572 17.9167 17.0794 17.6907 17.4348 17.2966C17.7898 16.9024 17.9614 16.3738 17.9068 15.8472L16.8651 5.84718C16.7643 4.88884 15.9628 4.16668 14.9999 4.16668H14.147C14.1599 4.30418 14.1665 4.44334 14.1665 4.58334V7.08334C14.1665 7.31334 13.9799 7.50001 13.7499 7.50001C13.5199 7.50001 13.3332 7.31334 13.3332 7.08334V6.87501V4.58334C13.3332 2.51971 11.6468 0.833344 9.58321 0.833344ZM9.58321 2.08334C10.8289 2.08334 11.8499 2.97963 12.0466 4.16668H7.97189C7.93689 4.30001 7.91655 4.43918 7.91655 4.58334V7.08334C7.91655 7.31334 7.72988 7.50001 7.49988 7.50001C7.26988 7.50001 7.08321 7.31334 7.08321 7.08334V6.87501V4.58334C7.08321 3.19531 8.19518 2.08334 9.58321 2.08334Z" fill="#ffffff"/>
</svg>
