<svg width="20" height="20" viewBox="0 0 20 20" fill="none" xmlns="http://www.w3.org/2000/svg">
<path d="M17.0209 5.52957L9.40008 13.1504C9.27841 13.2725 9.11841 13.3333 8.95841 13.3333C8.79841 13.3333 8.63841 13.2725 8.51633 13.1504L6.433 11.0671C6.18883 10.8229 6.18883 10.4275 6.433 10.1833C6.67716 9.93916 7.07258 9.93916 7.31675 10.1833L8.958 11.8246L16.2622 4.52041C14.7338 2.77541 12.4963 1.66666 10.0001 1.66666C5.40508 1.66666 1.66675 5.40499 1.66675 9.99999C1.66675 14.595 5.40508 18.3333 10.0001 18.3333C14.5951 18.3333 18.3334 14.595 18.3334 9.99999C18.3334 8.35457 17.8476 6.82291 17.0209 5.52957Z" fill="#251E19"/>
</svg>
