<svg style="display: none;" aria-hidden="true" xmlns="http://www.w3.org/2000/svg" xmlns:xlink="http://www.w3.org/1999/xlink"><symbol viewBox="0 0 20 20" id="svg-icon-arrow-down"><path d="M9.98782 2.07193C9.76695 2.07516 9.5564 2.16595 9.40243 2.32435C9.24847 2.48274 9.16368 2.69578 9.1667 2.91665V15.0716L4.75589 10.6608C4.6791 10.5808 4.58713 10.517 4.48535 10.473C4.38358 10.429 4.27405 10.4057 4.16319 10.4046C4.05232 10.4035 3.94234 10.4245 3.83969 10.4664C3.73704 10.5083 3.64379 10.5703 3.56539 10.6487C3.48699 10.7271 3.42502 10.8203 3.38312 10.923C3.34121 11.0256 3.3202 11.1356 3.32133 11.2465C3.32246 11.3573 3.3457 11.4669 3.38969 11.5686C3.43367 11.6704 3.49753 11.7624 3.57751 11.8392L9.41084 17.6725C9.56712 17.8287 9.77905 17.9165 10 17.9165C10.221 17.9165 10.4329 17.8287 10.5892 17.6725L16.4226 11.8392C16.5025 11.7624 16.5664 11.6704 16.6104 11.5686C16.6544 11.4669 16.6776 11.3573 16.6787 11.2465C16.6799 11.1356 16.6589 11.0256 16.6169 10.923C16.575 10.8203 16.5131 10.7271 16.4347 10.6487C16.3563 10.5703 16.263 10.5083 16.1604 10.4664C16.0577 10.4245 15.9477 10.4035 15.8369 10.4046C15.726 10.4057 15.6165 10.429 15.5147 10.473C15.4129 10.517 15.321 10.5808 15.2442 10.6608L10.8334 15.0716V2.91665C10.8349 2.80523 10.8141 2.69464 10.7721 2.59141C10.7301 2.48818 10.6679 2.39441 10.5891 2.31566C10.5102 2.2369 10.4164 2.17475 10.3131 2.13289C10.2099 2.09103 10.0992 2.0703 9.98782 2.07193Z"/></symbol><symbol viewBox="0 0 20 20" id="svg-icon-arrow-left"><path d="M17.9279 9.9878C17.9246 9.7669 17.8339 9.5564 17.6755 9.4024C17.5171 9.2484 17.304 9.1636 17.0832 9.1667H4.92815L9.33895 4.7559C9.41895 4.6791 9.48285 4.5871 9.52685 4.4853C9.57085 4.3836 9.59405 4.274 9.59515 4.1632C9.59625 4.0523 9.57525 3.9423 9.53335 3.8397C9.49145 3.737 9.42955 3.6438 9.35115 3.5654C9.27275 3.487 9.17945 3.425 9.07685 3.3831C8.97415 3.3412 8.86415 3.3202 8.75335 3.3213C8.64245 3.3224 8.53295 3.3457 8.43115 3.3897C8.32935 3.4336 8.23735 3.4975 8.16065 3.5775L2.32725 9.4108C2.17105 9.5671 2.08325 9.779 2.08325 10C2.08325 10.221 2.17105 10.4329 2.32725 10.5892L8.16065 16.4225C8.23735 16.5025 8.32935 16.5664 8.43115 16.6103C8.53295 16.6543 8.64245 16.6776 8.75335 16.6787C8.86415 16.6798 8.97415 16.6588 9.07685 16.6169C9.17945 16.575 9.27275 16.513 9.35115 16.4346C9.42955 16.3562 9.49145 16.263 9.53335 16.1603C9.57525 16.0577 9.59625 15.9477 9.59515 15.8368C9.59405 15.726 9.57085 15.6164 9.52685 15.5147C9.48285 15.4129 9.41895 15.3209 9.33895 15.2441L4.92815 10.8333H17.0832C17.1946 10.8349 17.3052 10.814 17.4084 10.7721C17.5116 10.7301 17.6054 10.6679 17.6842 10.589C17.7629 10.5102 17.8251 10.4164 17.8669 10.3131C17.9088 10.2098 17.9295 10.0992 17.9279 9.9878Z"/></symbol><symbol viewBox="0 0 20 20" id="svg-icon-arrow-right"><path d="M2.07199 10.0122C2.07523 10.2331 2.16601 10.4436 2.32441 10.5976C2.4828 10.7516 2.69584 10.8364 2.91672 10.8333H15.0717L10.6609 15.2441C10.5809 15.3209 10.517 15.4129 10.473 15.5147C10.429 15.6164 10.4058 15.726 10.4047 15.8368C10.4036 15.9477 10.4246 16.0577 10.4665 16.1603C10.5084 16.263 10.5703 16.3562 10.6487 16.4346C10.7271 16.513 10.8204 16.575 10.923 16.6169C11.0257 16.6588 11.1357 16.6798 11.2465 16.6787C11.3574 16.6776 11.4669 16.6543 11.5687 16.6103C11.6705 16.5664 11.7625 16.5025 11.8392 16.4225L17.6726 10.5892C17.8288 10.4329 17.9166 10.221 17.9166 10C17.9166 9.77902 17.8288 9.56709 17.6726 9.41081L11.8392 3.57747C11.7625 3.49749 11.6705 3.43364 11.5687 3.38965C11.4669 3.34567 11.3574 3.32243 11.2465 3.3213C11.1357 3.32017 11.0257 3.34118 10.923 3.38308C10.8204 3.42499 10.7271 3.48696 10.6487 3.56536C10.5703 3.64376 10.5084 3.73701 10.4665 3.83966C10.4246 3.94231 10.4036 4.05229 10.4047 4.16315C10.4058 4.27402 10.429 4.38355 10.473 4.48532C10.517 4.5871 10.5809 4.67907 10.6609 4.75586L15.0717 9.16667H2.91671C2.80529 9.16514 2.6947 9.18598 2.59147 9.22794C2.48824 9.2699 2.39447 9.33214 2.31572 9.41097C2.23696 9.48981 2.17481 9.58363 2.13295 9.6869C2.09109 9.79017 2.07036 9.90079 2.07199 10.0122Z"/></symbol><symbol viewBox="0 0 20 20" id="svg-icon-arrow-up"><path d="M10.0122 17.9281C10.233 17.9248 10.4436 17.8341 10.5976 17.6757C10.7515 17.5173 10.8363 17.3042 10.8333 17.0834V4.9284L15.2441 9.3392C15.3209 9.4192 15.4129 9.483 15.5146 9.527C15.6164 9.571 15.7259 9.5943 15.8368 9.5954C15.9477 9.5965 16.0577 9.5755 16.1603 9.5336C16.263 9.4917 16.3562 9.4297 16.4346 9.3513C16.513 9.2729 16.575 9.1797 16.6169 9.077C16.6588 8.9744 16.6798 8.8644 16.6787 8.7535C16.6775 8.6427 16.6543 8.5331 16.6103 8.4314C16.5663 8.3296 16.5025 8.2376 16.4225 8.1608L10.5892 2.3275C10.4329 2.1713 10.2209 2.0835 10 2.0835C9.77904 2.0835 9.56714 2.1713 9.41084 2.3275L3.57744 8.1608C3.49754 8.2376 3.43364 8.3296 3.38964 8.4314C3.34564 8.5331 3.32244 8.6427 3.32134 8.7535C3.32014 8.8644 3.34114 8.9744 3.38314 9.077C3.42504 9.1797 3.48694 9.2729 3.56534 9.3513C3.64374 9.4297 3.73704 9.4917 3.83964 9.5336C3.94234 9.5755 4.05234 9.5965 4.16314 9.5954C4.27404 9.5943 4.38354 9.571 4.48534 9.527C4.58714 9.483 4.67904 9.4192 4.75584 9.3392L9.16664 4.9284V17.0834C9.16514 17.1948 9.18594 17.3054 9.22794 17.4086C9.26994 17.5118 9.33214 17.6056 9.41094 17.6843C9.48984 17.7631 9.58364 17.8253 9.68694 17.8671C9.79014 17.909 9.90084 17.9297 10.0122 17.9281Z"/></symbol><symbol viewBox="0 0 20 20" id="svg-icon-bag"><path d="M9.58332 0.833344C7.66052 0.833344 6.06652 2.29754 5.85773 4.16668H4.99998C4.03665 4.16668 3.23475 4.88884 3.13475 5.84718L2.09308 15.8472C2.03808 16.3743 2.21009 16.9028 2.56509 17.2974C2.92009 17.6911 3.42832 17.9167 3.95832 17.9167H16.0416C16.5716 17.9167 17.0799 17.6911 17.4349 17.2974C17.7899 16.9032 17.9611 16.3743 17.9061 15.8472L16.8652 5.84718C16.7652 4.88884 15.9633 4.16668 15 4.16668H14.1471C14.16 4.30418 14.1666 4.44334 14.1666 4.58334V5.41668H15C15.3212 5.41668 15.5884 5.6578 15.6217 5.97739L16.6634 15.9774C16.6817 16.1532 16.6242 16.3291 16.5063 16.46C16.388 16.5912 16.2183 16.6667 16.0416 16.6667H3.95832C3.78165 16.6667 3.61237 16.5916 3.49445 16.4608C3.37612 16.3295 3.31824 16.1532 3.33657 15.9774L4.37824 5.97739C4.41157 5.6578 4.67873 5.41668 4.99998 5.41668H5.83332V6.87501C5.83214 6.95783 5.84745 7.04006 5.87833 7.11691C5.90921 7.19377 5.95506 7.26372 6.01322 7.3227C6.07137 7.38168 6.14066 7.42851 6.21708 7.46048C6.29349 7.49245 6.37549 7.50891 6.45832 7.50891C6.54114 7.50891 6.62315 7.49245 6.69956 7.46048C6.77597 7.42851 6.84526 7.38168 6.90342 7.3227C6.96157 7.26372 7.00742 7.19377 7.0383 7.11691C7.06919 7.04006 7.08449 6.95783 7.08332 6.87501V4.58334C7.08332 3.19531 8.19528 2.08334 9.58332 2.08334C10.8291 2.08334 11.85 2.97963 12.0467 4.16668H7.97199C7.93699 4.30001 7.91665 4.43918 7.91665 4.58334V5.41668H12.0833V6.87501C12.0821 6.95783 12.0974 7.04006 12.1283 7.11691C12.1592 7.19377 12.2051 7.26372 12.2632 7.3227C12.3214 7.38168 12.3907 7.42851 12.4671 7.46048C12.5435 7.49245 12.6255 7.50891 12.7083 7.50891C12.7911 7.50891 12.8731 7.49245 12.9496 7.46048C13.026 7.42851 13.0953 7.38168 13.1534 7.3227C13.2116 7.26372 13.2574 7.19377 13.2883 7.11691C13.3192 7.04006 13.3345 6.95783 13.3333 6.87501V4.58334C13.3333 2.51971 11.6469 0.833344 9.58332 0.833344Z"/></symbol><symbol viewBox="0 0 20 20" id="svg-icon-bag-fill"><path d="M9.58321 0.833344C7.66042 0.833344 6.06642 2.29754 5.85763 4.16668H4.99988C4.03696 4.16668 3.23548 4.88843 3.13465 5.84718L2.09298 15.8472C2.0384 16.3738 2.20957 16.9024 2.56499 17.2974C2.91999 17.6911 3.4278 17.9167 3.95821 17.9167H16.0415C16.572 17.9167 17.0794 17.6907 17.4348 17.2966C17.7898 16.9024 17.9614 16.3738 17.9068 15.8472L16.8651 5.84718C16.7643 4.88884 15.9628 4.16668 14.9999 4.16668H14.147C14.1599 4.30418 14.1665 4.44334 14.1665 4.58334V7.08334C14.1665 7.31334 13.9799 7.50001 13.7499 7.50001C13.5199 7.50001 13.3332 7.31334 13.3332 7.08334V6.87501V4.58334C13.3332 2.51971 11.6468 0.833344 9.58321 0.833344ZM9.58321 2.08334C10.8289 2.08334 11.8499 2.97963 12.0466 4.16668H7.97189C7.93689 4.30001 7.91655 4.43918 7.91655 4.58334V7.08334C7.91655 7.31334 7.72988 7.50001 7.49988 7.50001C7.26988 7.50001 7.08321 7.31334 7.08321 7.08334V6.87501V4.58334C7.08321 3.19531 8.19518 2.08334 9.58321 2.08334Z"/></symbol><symbol viewBox="0 0 20 20" id="svg-icon-calendar"><path d="M17.5 5.83333V5.20833C17.5 3.715 16.285 2.5 14.7917 2.5H5.20833C3.715 2.5 2.5 3.715 2.5 5.20833V5.83333H17.5ZM2.5 7.08333V14.7917C2.5 16.285 3.715 17.5 5.20833 17.5H14.7917C16.285 17.5 17.5 16.285 17.5 14.7917V7.08333H2.5ZM6.45833 15C5.88292 15 5.41667 14.5337 5.41667 13.9583C5.41667 13.3829 5.88292 12.9167 6.45833 12.9167C7.03375 12.9167 7.5 13.3829 7.5 13.9583C7.5 14.5337 7.03375 15 6.45833 15ZM6.45833 11.25C5.88292 11.25 5.41667 10.7837 5.41667 10.2083C5.41667 9.63292 5.88292 9.16667 6.45833 9.16667C7.03375 9.16667 7.5 9.63292 7.5 10.2083C7.5 10.7837 7.03375 11.25 6.45833 11.25ZM10 15C9.42458 15 8.95833 14.5337 8.95833 13.9583C8.95833 13.3829 9.42458 12.9167 10 12.9167C10.5754 12.9167 11.0417 13.3829 11.0417 13.9583C11.0417 14.5337 10.5754 15 10 15ZM10 11.25C9.42458 11.25 8.95833 10.7837 8.95833 10.2083C8.95833 9.63292 9.42458 9.16667 10 9.16667C10.5754 9.16667 11.0417 9.63292 11.0417 10.2083C11.0417 10.7837 10.5754 11.25 10 11.25ZM13.5417 11.25C12.9662 11.25 12.5 10.7837 12.5 10.2083C12.5 9.63292 12.9662 9.16667 13.5417 9.16667C14.1171 9.16667 14.5833 9.63292 14.5833 10.2083C14.5833 10.7837 14.1171 11.25 13.5417 11.25Z"/></symbol><symbol viewBox="0 0 20 20" id="svg-icon-calendar-2"><path d="M17.5 5.83333V5.20833C17.5 3.715 16.285 2.5 14.7917 2.5H5.20833C3.715 2.5 2.5 3.715 2.5 5.20833V5.83333H17.5ZM2.5 7.08333V14.7917C2.5 16.285 3.715 17.5 5.20833 17.5H14.7917C16.285 17.5 17.5 16.285 17.5 14.7917V7.08333H2.5ZM14.1667 13.3333C14.1667 13.7937 13.7937 14.1667 13.3333 14.1667H11.6667C11.2063 14.1667 10.8333 13.7937 10.8333 13.3333V11.6667C10.8333 11.2063 11.2063 10.8333 11.6667 10.8333H13.3333C13.7937 10.8333 14.1667 11.2063 14.1667 11.6667V13.3333Z"/></symbol><symbol viewBox="0 0 20 20" id="svg-icon-chat"><path d="M10.0001 1.66666C5.4052 1.66666 1.66675 5.40511 1.66675 9.99999C1.66675 11.3647 2.02621 12.6395 2.60913 13.7768L1.70581 17.0117C1.49541 17.7631 2.23838 18.5052 2.98999 18.2951L6.22648 17.3918C7.36302 17.9739 8.63631 18.3333 10.0001 18.3333C14.595 18.3333 18.3334 14.5949 18.3334 9.99999C18.3334 5.40511 14.595 1.66666 10.0001 1.66666ZM10.0001 2.91666C13.9194 2.91666 17.0834 6.0807 17.0834 9.99999C17.0834 13.9193 13.9194 17.0833 10.0001 17.0833C8.74884 17.0833 7.58019 16.7576 6.56014 16.189C6.41611 16.1086 6.24616 16.0884 6.08732 16.1328L3.00952 16.9922L3.8689 13.916C3.91329 13.7572 3.89311 13.5872 3.81274 13.4432C3.24327 12.4223 2.91675 11.2519 2.91675 9.99999C2.91675 6.0807 6.08079 2.91666 10.0001 2.91666Z"/></symbol><symbol viewBox="0 0 20 20" id="svg-icon-check"><path fill-rule="evenodd" clip-rule="evenodd" d="M16.0379 5.96306C16.404 6.32918 16.404 6.92277 16.0379 7.28889L9.37125 13.9556C9.00513 14.3217 8.41154 14.3217 8.04542 13.9556L4.71209 10.6222C4.34597 10.2561 4.34597 9.66251 4.71209 9.2964C5.0782 8.93028 5.6718 8.93028 6.03791 9.2964L8.70833 11.9668L14.7121 5.96306C15.0782 5.59695 15.6718 5.59695 16.0379 5.96306Z"/></symbol><symbol viewBox="0 0 20 20" id="svg-icon-check-fill"><path d="M10.0001 1.66666C5.40508 1.66666 1.66675 5.40499 1.66675 9.99999C1.66675 14.595 5.40508 18.3333 10.0001 18.3333C14.5951 18.3333 18.3334 14.595 18.3334 9.99999C18.3334 5.40499 14.5951 1.66666 10.0001 1.66666ZM13.5672 8.56707L9.4005 12.7337C9.27841 12.8558 9.11841 12.9167 8.95841 12.9167C8.79841 12.9167 8.63841 12.8558 8.51633 12.7337L6.433 10.6504C6.18883 10.4062 6.18883 10.0108 6.433 9.76666C6.67716 9.52249 7.07258 9.52249 7.31675 9.76666L8.958 11.4079L12.6826 7.68332C12.9267 7.43916 13.3222 7.43916 13.5663 7.68332C13.8105 7.92749 13.8109 8.32291 13.5672 8.56707Z"/></symbol><symbol viewBox="0 0 20 20" id="svg-icon-check-fill-2"><path d="M17.0209 5.52957L9.40008 13.1504C9.27841 13.2725 9.11841 13.3333 8.95841 13.3333C8.79841 13.3333 8.63841 13.2725 8.51633 13.1504L6.433 11.0671C6.18883 10.8229 6.18883 10.4275 6.433 10.1833C6.67716 9.93916 7.07258 9.93916 7.31675 10.1833L8.958 11.8246L16.2622 4.52041C14.7338 2.77541 12.4963 1.66666 10.0001 1.66666C5.40508 1.66666 1.66675 5.40499 1.66675 9.99999C1.66675 14.595 5.40508 18.3333 10.0001 18.3333C14.5951 18.3333 18.3334 14.595 18.3334 9.99999C18.3334 8.35457 17.8476 6.82291 17.0209 5.52957Z"/></symbol><symbol viewBox="0 0 20 20" id="svg-icon-chevron-down"><path d="M17.3275 5.24415L10 12.5717L2.67252 5.24415C2.3471 4.91874 1.8196 4.91874 1.49418 5.24415C1.16877 5.56957 1.16877 6.09707 1.49418 6.42249L9.41085 14.3392C9.57377 14.5021 9.78668 14.5833 10 14.5833C10.2134 14.5833 10.4263 14.5021 10.5892 14.3392L18.5059 6.42249C18.8313 6.09707 18.8313 5.56957 18.5059 5.24415C18.1804 4.91874 17.6529 4.91874 17.3275 5.24415Z"/></symbol><symbol viewBox="0 0 20 20" id="svg-icon-chevron-left"><path d="M14.7559 17.3274L7.42841 9.9999L14.7559 2.67239C15.0814 2.34699 15.0814 1.81949 14.7559 1.49409C14.4305 1.16859 13.903 1.16859 13.5776 1.49409L5.66091 9.4107C5.498 9.5736 5.41675 9.7866 5.41675 9.9999C5.41675 10.2132 5.498 10.4261 5.66091 10.5891L13.5776 18.5057C13.903 18.8311 14.4305 18.8311 14.7559 18.5057C15.0814 18.1803 15.0814 17.6528 14.7559 17.3274Z"/></symbol><symbol viewBox="0 0 20 20" id="svg-icon-chevron-right"><path d="M5.24413 2.67259L12.5716 10.0001L5.24413 17.3276C4.91862 17.653 4.91862 18.1805 5.24413 18.5059C5.56953 18.8314 6.09702 18.8314 6.42242 18.5059L14.3391 10.5893C14.502 10.4264 14.5833 10.2134 14.5833 10.0001C14.5833 9.78678 14.502 9.57389 14.3391 9.41089L6.42242 1.49429C6.09702 1.16889 5.56953 1.16889 5.24413 1.49429C4.91862 1.81969 4.91862 2.34719 5.24413 2.67259Z"/></symbol><symbol viewBox="0 0 20 20" id="svg-icon-chevron-up"><path d="M2.67264 14.7558L10.0001 7.42835L17.3276 14.7558C17.653 15.0813 18.1805 15.0813 18.5059 14.7558C18.8314 14.4304 18.8314 13.9029 18.5059 13.5775L10.5893 5.66085C10.4264 5.49794 10.2134 5.41669 10.0001 5.41669C9.78681 5.41669 9.57389 5.49794 9.41098 5.66085L1.49431 13.5775C1.16889 13.9029 1.16889 14.4304 1.49431 14.7558C1.81973 15.0813 2.34723 15.0813 2.67264 14.7558Z"/></symbol><symbol viewBox="0 0 20 20" id="svg-icon-clock"><path d="M10.0001 1.66666C5.40511 1.66666 1.66675 5.40502 1.66675 9.99999C1.66675 14.595 5.40511 18.3333 10.0001 18.3333C14.5951 18.3333 18.3334 14.595 18.3334 9.99999C18.3334 5.40502 14.5951 1.66666 10.0001 1.66666ZM10.0001 2.91666C13.9195 2.91666 17.0834 6.08057 17.0834 9.99999C17.0834 13.9194 13.9195 17.0833 10.0001 17.0833C6.08066 17.0833 2.91675 13.9194 2.91675 9.99999C2.91675 6.08057 6.08066 2.91666 10.0001 2.91666ZM9.78198 4.99104C9.61636 4.99363 9.45854 5.06184 9.34319 5.18071C9.22783 5.29958 9.16437 5.45937 9.16675 5.62499V10.625C9.16676 10.7907 9.23262 10.9497 9.34982 11.0669C9.46703 11.1841 9.62599 11.25 9.79175 11.25H13.1251C13.2079 11.2512 13.2901 11.2359 13.367 11.205C13.4438 11.1741 13.5138 11.1282 13.5728 11.0701C13.6318 11.0119 13.6786 10.9426 13.7106 10.8662C13.7425 10.7898 13.759 10.7078 13.759 10.625C13.759 10.5422 13.7425 10.4602 13.7106 10.3837C13.6786 10.3073 13.6318 10.238 13.5728 10.1799C13.5138 10.1217 13.4438 10.0759 13.367 10.045C13.2901 10.0141 13.2079 9.99882 13.1251 9.99999H10.4167V5.62499C10.4179 5.54134 10.4023 5.4583 10.3709 5.38079C10.3394 5.30327 10.2926 5.23287 10.2335 5.17375C10.1743 5.11464 10.1038 5.068 10.0262 5.03662C9.9487 5.00523 9.86563 4.98973 9.78198 4.99104Z"/></symbol><symbol viewBox="0 0 20 20" id="svg-icon-close"><path d="M16.2426 2.90447C16.0224 2.90967 15.8132 3.00183 15.6608 3.16082L9.99995 8.82162L4.33914 3.16082C4.26139 3.08089 4.16839 3.01738 4.06564 2.97404C3.9629 2.93071 3.85251 2.90844 3.741 2.90854C3.57529 2.90874 3.4134 2.95834 3.27602 3.051C3.13864 3.14366 3.032 3.27516 2.96972 3.42872C2.90744 3.58228 2.89235 3.75092 2.92638 3.9131C2.9604 4.07528 3.04201 4.22363 3.16076 4.3392L8.82156 10L3.16076 15.6608C3.08078 15.7376 3.01693 15.8296 2.97294 15.9314C2.92895 16.0331 2.90571 16.1427 2.90458 16.2535C2.90346 16.3644 2.92446 16.4744 2.96637 16.577C3.00828 16.6797 3.07024 16.7729 3.14864 16.8513C3.22704 16.9297 3.3203 16.9917 3.42294 17.0336C3.52559 17.0755 3.63557 17.0965 3.74644 17.0954C3.8573 17.0942 3.96683 17.071 4.06861 17.027C4.17038 16.983 4.26235 16.9192 4.33914 16.8392L9.99995 11.1784L15.6608 16.8392C15.7375 16.9192 15.8295 16.983 15.9313 17.027C16.0331 17.071 16.1426 17.0942 16.2535 17.0954C16.3643 17.0965 16.4743 17.0755 16.577 17.0336C16.6796 16.9917 16.7729 16.9297 16.8513 16.8513C16.9297 16.7729 16.9916 16.6797 17.0335 16.577C17.0754 16.4744 17.0964 16.3644 17.0953 16.2535C17.0942 16.1427 17.0709 16.0331 17.027 15.9314C16.983 15.8296 16.9191 15.7376 16.8391 15.6608L11.1783 10L16.8391 4.3392C16.9604 4.22292 17.0437 4.07271 17.0781 3.90827C17.1125 3.74383 17.0964 3.57283 17.0319 3.4177C16.9674 3.26257 16.8575 3.13055 16.7167 3.03897C16.5758 2.94738 16.4106 2.9005 16.2426 2.90447Z"/></symbol><symbol viewBox="0 0 20 20" id="svg-icon-close-circle"><path d="M10.0001 1.66666C5.40511 1.66666 1.66675 5.40502 1.66675 9.99999C1.66675 14.595 5.40511 18.3333 10.0001 18.3333C14.5951 18.3333 18.3334 14.595 18.3334 9.99999C18.3334 5.40502 14.5951 1.66666 10.0001 1.66666ZM10.0001 2.91666C13.9195 2.91666 17.0834 6.08057 17.0834 9.99999C17.0834 13.9194 13.9195 17.0833 10.0001 17.0833C6.08066 17.0833 2.91675 13.9194 2.91675 9.99999C2.91675 6.08057 6.08066 2.91666 10.0001 2.91666ZM12.7027 6.6577C12.5377 6.6616 12.3808 6.73065 12.2665 6.84976L10.0001 9.1162L7.73364 6.84976C7.67538 6.78977 7.60568 6.74207 7.52866 6.7095C7.45164 6.67693 7.36886 6.66015 7.28524 6.66015C7.16085 6.66018 7.03931 6.69732 6.93615 6.76681C6.83299 6.83631 6.75291 6.935 6.70616 7.05027C6.65941 7.16553 6.64811 7.29212 6.67371 7.41384C6.6993 7.53556 6.76064 7.64688 6.84985 7.73355L9.11629 9.99999L6.84985 12.2664C6.78987 12.324 6.74198 12.393 6.70899 12.4693C6.676 12.5457 6.65858 12.6278 6.65773 12.711C6.65689 12.7941 6.67264 12.8766 6.70407 12.9536C6.7355 13.0306 6.78198 13.1005 6.84078 13.1593C6.89957 13.2181 6.96951 13.2646 7.0465 13.296C7.12348 13.3274 7.20597 13.3432 7.28912 13.3423C7.37227 13.3415 7.45441 13.3241 7.53074 13.2911C7.60707 13.2581 7.67605 13.2102 7.73364 13.1502L10.0001 10.8838L12.2665 13.1502C12.3241 13.2102 12.3931 13.2581 12.4694 13.2911C12.5458 13.3241 12.6279 13.3415 12.711 13.3423C12.7942 13.3432 12.8767 13.3274 12.9537 13.296C13.0306 13.2646 13.1006 13.2181 13.1594 13.1593C13.2182 13.1005 13.2647 13.0306 13.2961 12.9536C13.3275 12.8766 13.3433 12.7941 13.3424 12.711C13.3416 12.6278 13.3242 12.5457 13.2912 12.4693C13.2582 12.393 13.2103 12.324 13.1503 12.2664L10.8839 9.99999L13.1503 7.73355C13.2412 7.64632 13.3036 7.53366 13.3294 7.41034C13.3551 7.28702 13.343 7.15881 13.2946 7.04249C13.2462 6.92618 13.1638 6.82721 13.0582 6.75854C12.9526 6.68988 12.8287 6.65473 12.7027 6.6577Z"/></symbol><symbol viewBox="0 0 20 20" id="svg-icon-delivery"><path d="M1.45825 4.16666C1.11242 4.16666 0.833252 4.44582 0.833252 4.79166C0.833252 5.13749 1.11242 5.41666 1.45825 5.41666H6.87492C7.22075 5.41666 7.49992 5.69582 7.49992 6.04166C7.49992 6.38749 7.22075 6.66666 6.87492 6.66666H1.45825C1.11242 6.66666 0.833252 6.94582 0.833252 7.29166C0.833252 7.63749 1.11242 7.91666 1.45825 7.91666H5.20825C5.55409 7.91666 5.83325 8.19582 5.83325 8.54166C5.83325 8.88749 5.55409 9.16666 5.20825 9.16666H1.45825C1.11242 9.16666 0.833252 9.44582 0.833252 9.79166C0.833252 10.1375 1.11242 10.4167 1.45825 10.4167H3.54159C3.88742 10.4167 4.16659 10.6958 4.16659 11.0417C4.16659 11.3875 3.88742 11.6667 3.54159 11.6667H1.45825C1.11242 11.6667 0.833252 11.9458 0.833252 12.2917V13.125C0.833252 14.1583 1.67492 15 2.70825 15H3.00529C3.27863 15.9598 4.16257 16.6667 5.20825 16.6667C6.25393 16.6667 7.13787 15.9598 7.41121 15H11.2499V6.04166C11.2499 5.00832 10.4083 4.16666 9.37492 4.16666H1.45825ZM12.4999 5.83332V14.375C12.4999 15.6375 13.5291 16.6667 14.7916 16.6667C15.8373 16.6667 16.7212 15.9598 16.9945 15H17.2916C18.3291 15 19.1666 14.1625 19.1666 13.125V10.4753C19.1666 10.2127 19.1122 9.95022 19.0038 9.71272L17.775 6.94579C17.475 6.27079 16.8044 5.83332 16.0627 5.83332H12.4999ZM14.1666 7.08332H16.0627C16.3098 7.08332 16.5332 7.22858 16.6332 7.45442L17.3184 8.99739C17.4409 9.2728 17.2396 9.58332 16.9384 9.58332H14.1666C13.9366 9.58332 13.7499 9.39666 13.7499 9.16666V7.49999C13.7499 7.26999 13.9366 7.08332 14.1666 7.08332ZM5.20825 13.3333C5.78325 13.3333 6.24992 13.8 6.24992 14.375C6.24992 14.95 5.78325 15.4167 5.20825 15.4167C4.63325 15.4167 4.16659 14.95 4.16659 14.375C4.16659 13.8 4.63325 13.3333 5.20825 13.3333ZM14.7916 13.3333C15.3666 13.3333 15.8333 13.8 15.8333 14.375C15.8333 14.95 15.3666 15.4167 14.7916 15.4167C14.2166 15.4167 13.7499 14.95 13.7499 14.375C13.7499 13.8 14.2166 13.3333 14.7916 13.3333Z"/></symbol><symbol viewBox="0 0 20 20" id="svg-icon-favorites"><path d="M6.87496 2.08334C5.38665 2.08334 4.16663 3.30337 4.16663 4.79168V17.2917C4.16666 17.4067 4.19844 17.5195 4.25847 17.6177C4.3185 17.7158 4.40446 17.7955 4.50686 17.8479C4.60927 17.9003 4.72415 17.9235 4.83887 17.9148C4.95358 17.9061 5.06368 17.8659 5.15702 17.7987L9.99996 14.3115L14.8429 17.7987C14.9362 17.8659 15.0463 17.9061 15.1611 17.9148C15.2758 17.9235 15.3907 17.9003 15.4931 17.8479C15.5955 17.7955 15.6814 17.7158 15.7414 17.6177C15.8015 17.5195 15.8333 17.4067 15.8333 17.2917V4.79168C15.8333 3.30337 14.6133 2.08334 13.125 2.08334H6.87496ZM6.87496 3.33334H13.125C13.9375 3.33334 14.5833 3.97915 14.5833 4.79168V16.0718L10.3654 13.0347C10.2589 12.958 10.1311 12.9168 9.99996 12.9168C9.8688 12.9168 9.74097 12.958 9.63456 13.0347L5.41663 16.0718V4.79168C5.41663 3.97915 6.06243 3.33334 6.87496 3.33334Z"/></symbol><symbol viewBox="0 0 20 20" id="svg-icon-favorites-fill"><path d="M15.2083 17.9167C15.0795 17.9167 14.9516 17.8771 14.8433 17.7988L9.99996 14.3117L5.15663 17.7988C4.96579 17.9358 4.71496 17.955 4.50621 17.8479C4.29788 17.7413 4.16663 17.5263 4.16663 17.2917V4.79168C4.16663 3.29834 5.38163 2.08334 6.87496 2.08334H13.125C14.6183 2.08334 15.8333 3.29834 15.8333 4.79168V17.2917C15.8333 17.5263 15.702 17.7413 15.4933 17.8479C15.4033 17.8938 15.3058 17.9167 15.2083 17.9167Z"/></symbol><symbol viewBox="0 0 20 20" id="svg-icon-filter-fill"><path d="M7.91667 11.6667V16.875C7.91667 17.1092 8.0475 17.3237 8.25542 17.4308C8.34583 17.4771 8.44375 17.5 8.54167 17.5C8.66958 17.5 8.79708 17.4608 8.905 17.3837L11.8217 15.3004C11.9858 15.1829 12.0833 14.9933 12.0833 14.7917V11.6667H7.91667ZM16.4583 2.5H3.54167C2.9675 2.5 2.5 2.9675 2.5 3.54167V4.82875C2.5 5.7925 2.93417 6.68708 3.69083 7.28333L7.66792 10.4167H12.3317L16.3087 7.28333C17.0658 6.68708 17.5 5.79208 17.5 4.82875V3.54167C17.5 2.9675 17.0325 2.5 16.4583 2.5Z"/></symbol><symbol viewBox="0 0 20 20" id="svg-icon-free-shipping"><path d="M2.70825 4.16666C1.6745 4.16666 0.833252 5.00791 0.833252 6.04166V13.125C0.833252 14.1587 1.6745 15 2.70825 15H3.0061C3.28085 15.9577 4.16669 16.6667 5.20825 16.6667C6.24981 16.6667 7.13565 15.9577 7.4104 15H12.5894C12.8642 15.9577 13.75 16.6667 14.7916 16.6667C15.8331 16.6667 16.719 15.9577 16.9937 15H17.2916C18.3253 15 19.1666 14.1587 19.1666 13.125V8.80696C19.1666 8.54237 19.1117 8.28607 19.0046 8.04524L17.7758 5.28075C17.475 4.60408 16.8032 4.16666 16.0627 4.16666H2.70825ZM4.58325 7.49999H5.83325C6.06325 7.49999 6.24992 7.68666 6.24992 7.91666C6.24992 8.14666 6.06325 8.33332 5.83325 8.33332H4.99992V8.74999H5.62492C5.85492 8.74999 6.04158 8.93666 6.04158 9.16666C6.04158 9.39666 5.85492 9.58332 5.62492 9.58332H4.99992V10.4167C4.99992 10.6467 4.81325 10.8333 4.58325 10.8333C4.35325 10.8333 4.16658 10.6467 4.16658 10.4167V7.91666C4.16658 7.68666 4.35325 7.49999 4.58325 7.49999ZM7.49992 7.49999H8.33325C9.02242 7.49999 9.58325 8.06082 9.58325 8.74999C9.58325 9.12832 9.41086 9.46402 9.14461 9.69319L9.50024 10.1668C9.63858 10.351 9.60059 10.6124 9.41642 10.7503C9.34142 10.8066 9.25406 10.8333 9.1674 10.8333C9.04073 10.8333 8.91459 10.7757 8.83293 10.6665L8.33325 9.99999H7.91658V10.4167C7.91658 10.6467 7.72992 10.8333 7.49992 10.8333C7.26992 10.8333 7.08325 10.6467 7.08325 10.4167V7.91666C7.08325 7.68666 7.26992 7.49999 7.49992 7.49999ZM10.8333 7.49999H12.0833C12.3133 7.49999 12.4999 7.68666 12.4999 7.91666C12.4999 8.14666 12.3133 8.33332 12.0833 8.33332H11.2499V8.74999H11.8749C12.1049 8.74999 12.2916 8.93666 12.2916 9.16666C12.2916 9.39666 12.1049 9.58332 11.8749 9.58332H11.2499V9.99999H12.0833C12.3133 9.99999 12.4999 10.1867 12.4999 10.4167C12.4999 10.6467 12.3133 10.8333 12.0833 10.8333H10.8333C10.6033 10.8333 10.4166 10.6467 10.4166 10.4167V7.91666C10.4166 7.68666 10.6033 7.49999 10.8333 7.49999ZM13.7499 7.49999H14.9999C15.2299 7.49999 15.4166 7.68666 15.4166 7.91666C15.4166 8.14666 15.2299 8.33332 14.9999 8.33332H14.1666V8.74999H14.7916C15.0216 8.74999 15.2083 8.93666 15.2083 9.16666C15.2083 9.39666 15.0216 9.58332 14.7916 9.58332H14.1666V9.99999H14.9999C15.2299 9.99999 15.4166 10.1867 15.4166 10.4167C15.4166 10.6467 15.2299 10.8333 14.9999 10.8333H13.7499C13.5199 10.8333 13.3333 10.6467 13.3333 10.4167V7.91666C13.3333 7.68666 13.5199 7.49999 13.7499 7.49999ZM7.91658 8.33332V9.16666H8.33325C8.56283 9.16666 8.74992 8.97957 8.74992 8.74999C8.74992 8.52041 8.56283 8.33332 8.33325 8.33332H7.91658ZM5.20825 13.3333C5.79009 13.3333 6.24992 13.7932 6.24992 14.375C6.24992 14.9568 5.79009 15.4167 5.20825 15.4167C4.62642 15.4167 4.16658 14.9568 4.16658 14.375C4.16658 13.7932 4.62642 13.3333 5.20825 13.3333ZM14.7916 13.3333C15.3734 13.3333 15.8333 13.7932 15.8333 14.375C15.8333 14.9568 15.3734 15.4167 14.7916 15.4167C14.2097 15.4167 13.7499 14.9568 13.7499 14.375C13.7499 13.7932 14.2097 13.3333 14.7916 13.3333Z"/></symbol><symbol viewBox="0 0 20 20" id="svg-icon-grid"><path d="M4.375 2.5C3.34687 2.5 2.5 3.34687 2.5 4.375V7.70833C2.5 8.73646 3.34687 9.58333 4.375 9.58333H7.70833C8.73646 9.58333 9.58333 8.73646 9.58333 7.70833V4.375C9.58333 3.34687 8.73646 2.5 7.70833 2.5H4.375ZM12.2917 2.5C11.2635 2.5 10.4167 3.34687 10.4167 4.375V7.70833C10.4167 8.73646 11.2635 9.58333 12.2917 9.58333H15.625C16.6531 9.58333 17.5 8.73646 17.5 7.70833V4.375C17.5 3.34687 16.6531 2.5 15.625 2.5H12.2917ZM4.375 3.75H7.70833C8.06104 3.75 8.33333 4.02229 8.33333 4.375V7.70833C8.33333 8.06104 8.06104 8.33333 7.70833 8.33333H4.375C4.02229 8.33333 3.75 8.06104 3.75 7.70833V4.375C3.75 4.02229 4.02229 3.75 4.375 3.75ZM12.2917 3.75H15.625C15.9777 3.75 16.25 4.02229 16.25 4.375V7.70833C16.25 8.06104 15.9777 8.33333 15.625 8.33333H12.2917C11.939 8.33333 11.6667 8.06104 11.6667 7.70833V4.375C11.6667 4.02229 11.939 3.75 12.2917 3.75ZM4.375 10.4167C3.34687 10.4167 2.5 11.2635 2.5 12.2917V15.625C2.5 16.6531 3.34687 17.5 4.375 17.5H7.70833C8.73646 17.5 9.58333 16.6531 9.58333 15.625V12.2917C9.58333 11.2635 8.73646 10.4167 7.70833 10.4167H4.375ZM12.2917 10.4167C11.2635 10.4167 10.4167 11.2635 10.4167 12.2917V15.625C10.4167 16.6531 11.2635 17.5 12.2917 17.5H15.625C16.6531 17.5 17.5 16.6531 17.5 15.625V12.2917C17.5 11.2635 16.6531 10.4167 15.625 10.4167H12.2917ZM4.375 11.6667H7.70833C8.06104 11.6667 8.33333 11.939 8.33333 12.2917V15.625C8.33333 15.9777 8.06104 16.25 7.70833 16.25H4.375C4.02229 16.25 3.75 15.9777 3.75 15.625V12.2917C3.75 11.939 4.02229 11.6667 4.375 11.6667ZM12.2917 11.6667H15.625C15.9777 11.6667 16.25 11.939 16.25 12.2917V15.625C16.25 15.9777 15.9777 16.25 15.625 16.25H12.2917C11.939 16.25 11.6667 15.9777 11.6667 15.625V12.2917C11.6667 11.939 11.939 11.6667 12.2917 11.6667Z"/></symbol><symbol viewBox="0 0 20 20" id="svg-icon-grid-fill"><path d="M15.625 9.58333H12.2917C11.2579 9.58333 10.4167 8.74208 10.4167 7.70833V4.375C10.4167 3.34125 11.2579 2.5 12.2917 2.5H15.625C16.6587 2.5 17.5 3.34125 17.5 4.375V7.70833C17.5 8.74208 16.6587 9.58333 15.625 9.58333ZM7.70833 9.58333H4.375C3.34125 9.58333 2.5 8.74208 2.5 7.70833V4.375C2.5 3.34125 3.34125 2.5 4.375 2.5H7.70833C8.74208 2.5 9.58333 3.34125 9.58333 4.375V7.70833C9.58333 8.74208 8.74208 9.58333 7.70833 9.58333ZM15.625 17.5H12.2917C11.2579 17.5 10.4167 16.6587 10.4167 15.625V12.2917C10.4167 11.2579 11.2579 10.4167 12.2917 10.4167H15.625C16.6587 10.4167 17.5 11.2579 17.5 12.2917V15.625C17.5 16.6587 16.6587 17.5 15.625 17.5ZM7.70833 17.5H4.375C3.34125 17.5 2.5 16.6587 2.5 15.625V12.2917C2.5 11.2579 3.34125 10.4167 4.375 10.4167H7.70833C8.74208 10.4167 9.58333 11.2579 9.58333 12.2917V15.625C9.58333 16.6587 8.74208 17.5 7.70833 17.5Z"/></symbol><symbol viewBox="0 0 20 20" id="svg-icon-info"><path d="M10.0001 1.66666C5.40511 1.66666 1.66675 5.40502 1.66675 9.99999C1.66675 14.595 5.40511 18.3333 10.0001 18.3333C14.5951 18.3333 18.3334 14.595 18.3334 9.99999C18.3334 5.40502 14.5951 1.66666 10.0001 1.66666ZM10.0001 2.91666C13.9195 2.91666 17.0834 6.08057 17.0834 9.99999C17.0834 13.9194 13.9195 17.0833 10.0001 17.0833C6.08066 17.0833 2.91675 13.9194 2.91675 9.99999C2.91675 6.08057 6.08066 2.91666 10.0001 2.91666ZM10.0001 5.83332C9.77907 5.83332 9.56711 5.92112 9.41083 6.0774C9.25455 6.23368 9.16675 6.44564 9.16675 6.66666C9.16675 6.88767 9.25455 7.09963 9.41083 7.25591C9.56711 7.41219 9.77907 7.49999 10.0001 7.49999C10.2211 7.49999 10.4331 7.41219 10.5893 7.25591C10.7456 7.09963 10.8334 6.88767 10.8334 6.66666C10.8334 6.44564 10.7456 6.23368 10.5893 6.0774C10.4331 5.92112 10.2211 5.83332 10.0001 5.83332ZM9.99032 8.74104C9.8247 8.74363 9.66688 8.81184 9.55152 8.93071C9.43617 9.04958 9.37271 9.20937 9.37508 9.37499V13.9583C9.37391 14.0411 9.38921 14.1234 9.42009 14.2002C9.45098 14.2771 9.49683 14.347 9.55498 14.406C9.61313 14.465 9.68243 14.5118 9.75884 14.5438C9.83525 14.5758 9.91725 14.5922 10.0001 14.5922C10.0829 14.5922 10.1649 14.5758 10.2413 14.5438C10.3177 14.5118 10.387 14.465 10.4452 14.406C10.5033 14.347 10.5492 14.2771 10.5801 14.2002C10.611 14.1234 10.6263 14.0411 10.6251 13.9583V9.37499C10.6263 9.29134 10.6107 9.2083 10.5792 9.13078C10.5477 9.05328 10.501 8.98287 10.4418 8.92376C10.3826 8.86464 10.3121 8.818 10.2346 8.78662C10.157 8.75523 10.074 8.73973 9.99032 8.74104Z"/></symbol><symbol viewBox="0 0 20 20" id="svg-icon-loader"><path d="M16.25 12.5C14.8712 12.5 13.75 11.3787 13.75 10C13.75 8.62125 14.8712 7.5 16.25 7.5C17.6287 7.5 18.75 8.62125 18.75 10C18.75 11.3787 17.6287 12.5 16.25 12.5ZM3.75 12.5C2.37125 12.5 1.25 11.3787 1.25 10C1.25 8.62125 2.37125 7.5 3.75 7.5C5.12875 7.5 6.25 8.62125 6.25 10C6.25 11.3787 5.12875 12.5 3.75 12.5ZM10 12.5C8.62125 12.5 7.5 11.3787 7.5 10C7.5 8.62125 8.62125 7.5 10 7.5C11.3787 7.5 12.5 8.62125 12.5 10C12.5 11.3787 11.3787 12.5 10 12.5Z"/></symbol><symbol viewBox="0 0 20 20" id="svg-icon-minus"><path d="M2.91674 9.16668C2.80631 9.16512 2.69667 9.18552 2.5942 9.2267C2.49173 9.26787 2.39846 9.32901 2.31982 9.40655C2.24118 9.48408 2.17873 9.57648 2.13611 9.67836C2.09348 9.78024 2.07153 9.88957 2.07153 10C2.07153 10.1104 2.09348 10.2198 2.13611 10.3217C2.17873 10.4235 2.24118 10.5159 2.31982 10.5935C2.39846 10.671 2.49173 10.7322 2.5942 10.7733C2.69667 10.8145 2.80631 10.8349 2.91674 10.8333H17.0834C17.1938 10.8349 17.3035 10.8145 17.4059 10.7733C17.5084 10.7322 17.6017 10.671 17.6803 10.5935C17.759 10.5159 17.8214 10.4235 17.864 10.3217C17.9067 10.2198 17.9286 10.1104 17.9286 10C17.9286 9.88957 17.9067 9.78024 17.864 9.67836C17.8214 9.57648 17.759 9.48408 17.6803 9.40655C17.6017 9.32901 17.5084 9.26787 17.4059 9.2267C17.3035 9.18552 17.1938 9.16512 17.0834 9.16668H2.91674Z"/></symbol><symbol viewBox="0 0 20 20" id="svg-icon-notification"><path d="M9.69892 1.67399C6.3308 1.83263 3.75003 4.72641 3.75003 8.07536V11.1035L2.6457 13.3252C2.64375 13.3292 2.64185 13.3333 2.64 13.3374C2.19573 14.2822 2.9149 15.4167 3.95917 15.4167H7.50003C7.50003 16.7899 8.62675 17.9167 10 17.9167C11.3733 17.9167 12.5 16.7899 12.5 15.4167H16.0401C17.0843 15.4167 17.8044 14.2824 17.3601 13.3374C17.3582 13.3333 17.3563 13.3292 17.3544 13.3252L16.25 11.1035V7.91667C16.25 4.37242 13.2764 1.50557 9.69892 1.67399ZM9.75751 2.92236C12.6409 2.78662 15 5.06758 15 7.91667V11.25C14.9999 11.3466 15.0222 11.4418 15.0651 11.5283L16.2289 13.8704C16.3037 14.0308 16.2171 14.1667 16.0401 14.1667H3.95917C3.78212 14.1667 3.69623 14.0311 3.77118 13.8704V13.8696L4.93492 11.5283C4.97783 11.4418 5.00011 11.3466 5.00003 11.25V8.07536C5.00003 5.3668 7.07479 3.04872 9.75751 2.92236ZM8.75003 15.4167H11.25C11.25 16.1142 10.6976 16.6667 10 16.6667C9.30247 16.6667 8.75003 16.1142 8.75003 15.4167Z"/></symbol><symbol viewBox="0 0 20 20" id="svg-icon-notification-fill"><path d="M16.0409 15H3.95923C3.45714 15 2.99673 14.7471 2.72798 14.3229C2.45923 13.8987 2.42589 13.375 2.63964 12.9208L3.75006 10.6867V8.07541C3.75006 4.6425 6.36298 1.83083 9.69881 1.67375C11.4284 1.59541 13.0655 2.20333 14.3134 3.39375C15.5626 4.585 16.2501 6.19125 16.2501 7.91666V10.6867L17.3542 12.9087C17.5738 13.375 17.5409 13.8992 17.2721 14.3233C17.0034 14.7475 16.543 15 16.0409 15ZM7.53756 15.8333C7.73673 17.0137 8.76339 17.9167 10.0001 17.9167C11.2367 17.9167 12.263 17.0137 12.4626 15.8333H7.53756Z"/></symbol><symbol viewBox="0 0 20 20" id="svg-icon-plus"><path d="M9.98786 2.07193C9.76699 2.07516 9.55644 2.16595 9.40247 2.32435C9.2485 2.48274 9.16371 2.69578 9.16674 2.91665V9.16665H2.91674C2.80631 9.16509 2.69667 9.18549 2.5942 9.22667C2.49173 9.26785 2.39846 9.32898 2.31982 9.40652C2.24118 9.48406 2.17873 9.57645 2.13611 9.67833C2.09348 9.78021 2.07153 9.88955 2.07153 9.99999C2.07153 10.1104 2.09348 10.2198 2.13611 10.3216C2.17873 10.4235 2.24118 10.5159 2.31982 10.5935C2.39846 10.671 2.49173 10.7321 2.5942 10.7733C2.69667 10.8145 2.80631 10.8349 2.91674 10.8333H9.16674V17.0833C9.16517 17.1937 9.18557 17.3034 9.22675 17.4059C9.26793 17.5083 9.32906 17.6016 9.4066 17.6802C9.48414 17.7589 9.57653 17.8213 9.67841 17.864C9.78029 17.9066 9.88963 17.9285 10.0001 17.9285C10.1105 17.9285 10.2198 17.9066 10.3217 17.864C10.4236 17.8213 10.516 17.7589 10.5935 17.6802C10.6711 17.6016 10.7322 17.5083 10.7734 17.4059C10.8146 17.3034 10.835 17.1937 10.8334 17.0833L10.8334 10.8333H17.0834C17.1938 10.8349 17.3035 10.8145 17.4059 10.7733C17.5084 10.7321 17.6017 10.671 17.6803 10.5935C17.759 10.5159 17.8214 10.4235 17.864 10.3216C17.9067 10.2198 17.9286 10.1104 17.9286 9.99999C17.9286 9.88955 17.9067 9.78021 17.864 9.67833C17.8214 9.57645 17.759 9.48406 17.6803 9.40652C17.6017 9.32898 17.5084 9.26785 17.4059 9.22667C17.3035 9.18549 17.1938 9.16509 17.0834 9.16665H10.8334V2.91665C10.8349 2.80523 10.8141 2.69464 10.7721 2.59141C10.7302 2.48818 10.6679 2.39441 10.5891 2.31566C10.5103 2.2369 10.4164 2.17475 10.3132 2.13289C10.2099 2.09103 10.0993 2.0703 9.98786 2.07193Z"/></symbol><symbol viewBox="0 0 20 20" id="svg-icon-ruler"><path d="M12.5651 1.67075C11.9773 1.67075 11.3897 1.8932 10.9448 2.33806L2.33807 10.9448C1.44835 11.8346 1.44835 13.2957 2.33807 14.1854L5.81463 17.662C6.70435 18.5517 8.16547 18.5517 9.05519 17.662L17.6628 9.05519C18.5522 8.16572 18.5516 6.70423 17.662 5.81463L14.1854 2.33806C13.7405 1.8932 13.1529 1.67075 12.5651 1.67075ZM12.5651 2.91261C12.8304 2.91261 13.0956 3.01588 13.3016 3.22185L16.7782 6.69841C17.1906 7.11053 17.1902 7.75855 16.7782 8.17058L8.1714 16.7782C7.75946 17.1901 7.11036 17.1901 6.69842 16.7782L3.22186 13.3016C2.80991 12.8897 2.80991 12.2406 3.22186 11.8286L3.95835 11.0921L4.76645 11.9002C4.82405 11.9602 4.89303 12.0081 4.96936 12.0411C5.04569 12.0741 5.12783 12.0915 5.21098 12.0924C5.29413 12.0932 5.37661 12.0775 5.4536 12.046C5.53058 12.0146 5.60052 11.9681 5.65932 11.9093C5.71812 11.8505 5.76459 11.7806 5.79603 11.7036C5.82746 11.6266 5.84321 11.5441 5.84236 11.461C5.84152 11.3778 5.82409 11.2957 5.7911 11.2193C5.75811 11.143 5.71023 11.074 5.65024 11.0164L4.84214 10.2083L6.04168 9.0088L7.68312 10.6502C7.74071 10.7102 7.80969 10.7581 7.88602 10.7911C7.96235 10.8241 8.0445 10.8415 8.12765 10.8424C8.2108 10.8432 8.29328 10.8275 8.37026 10.796C8.44725 10.7646 8.51719 10.7181 8.57599 10.6593C8.63479 10.6005 8.68126 10.5306 8.71269 10.4536C8.74412 10.3766 8.75988 10.2941 8.75903 10.211C8.75819 10.1278 8.74076 10.0457 8.70777 9.96935C8.67478 9.89302 8.62689 9.82404 8.56691 9.76645L6.92547 8.12501L8.12502 6.92547L8.93312 7.73357C8.99071 7.79355 9.05969 7.84144 9.13602 7.87443C9.21235 7.90742 9.2945 7.92485 9.37765 7.92569C9.4608 7.92654 9.54328 7.91078 9.62026 7.87935C9.69725 7.84792 9.76719 7.80145 9.82599 7.74265C9.88479 7.68385 9.93126 7.61391 9.96269 7.53693C9.99412 7.45994 10.0099 7.37746 10.009 7.29431C10.0082 7.21116 9.99076 7.12901 9.95777 7.05268C9.92478 6.97635 9.87689 6.90737 9.81691 6.84978L9.0088 6.04168L10.2083 4.84213L11.8498 6.48357C11.9074 6.54355 11.9764 6.59144 12.0527 6.62443C12.129 6.65742 12.2112 6.67485 12.2943 6.67569C12.3775 6.67654 12.4599 6.66078 12.5369 6.62935C12.6139 6.59792 12.6839 6.55145 12.7427 6.49265C12.8015 6.43385 12.8479 6.36391 12.8794 6.28693C12.9108 6.20994 12.9265 6.12746 12.9257 6.04431C12.9249 5.96116 12.9074 5.87901 12.8744 5.80268C12.8414 5.72635 12.7936 5.65737 12.7336 5.59978L11.0921 3.95834L11.8286 3.22185C12.0346 3.01588 12.2998 2.91261 12.5651 2.91261Z"/></symbol><symbol viewBox="0 0 20 20" id="svg-icon-search"><path d="M8.54167 2.5C5.21235 2.5 2.5 5.21235 2.5 8.54167C2.5 11.871 5.21235 14.5833 8.54167 14.5833C9.98182 14.5833 11.3057 14.0746 12.3454 13.2292L16.4331 17.3169C16.4907 17.3769 16.5597 17.4248 16.636 17.4578C16.7123 17.4907 16.7945 17.5082 16.8776 17.509C16.9608 17.5099 17.0433 17.4941 17.1202 17.4627C17.1972 17.4312 17.2672 17.3848 17.326 17.326C17.3848 17.2672 17.4312 17.1972 17.4627 17.1202C17.4941 17.0433 17.5099 16.9608 17.509 16.8776C17.5082 16.7945 17.4907 16.7123 17.4578 16.636C17.4248 16.5597 17.3769 16.4907 17.3169 16.4331L13.2292 12.3454C14.0746 11.3057 14.5833 9.98181 14.5833 8.54167C14.5833 5.21235 11.871 2.5 8.54167 2.5ZM8.54167 3.75C11.1954 3.75 13.3333 5.8879 13.3333 8.54167C13.3333 9.83442 12.8234 11.0024 11.9963 11.8628C11.9453 11.9003 11.9003 11.9453 11.8628 11.9963C11.0024 12.8234 9.83442 13.3333 8.54167 13.3333C5.8879 13.3333 3.75 11.1954 3.75 8.54167C3.75 5.8879 5.8879 3.75 8.54167 3.75Z"/></symbol><symbol viewBox="0 0 20 20" id="svg-icon-search-fill"><path d="M8.54167 2.5C5.21482 2.5 2.5 5.21482 2.5 8.54167C2.5 11.8685 5.21482 14.5833 8.54167 14.5833C9.90548 14.5833 11.1621 14.1221 12.1753 13.3545L16.0775 17.2559C16.1543 17.3358 16.2462 17.3997 16.348 17.4437C16.4498 17.4877 16.5593 17.5109 16.6702 17.512C16.781 17.5132 16.891 17.4922 16.9937 17.4503C17.0963 17.4083 17.1896 17.3464 17.268 17.268C17.3464 17.1896 17.4083 17.0963 17.4503 16.9937C17.4922 16.891 17.5132 16.781 17.512 16.6702C17.5109 16.5593 17.4877 16.4498 17.4437 16.348C17.3997 16.2462 17.3358 16.1543 17.2559 16.0775L13.3545 12.1753C14.1221 11.162 14.5833 9.90548 14.5833 8.54167C14.5833 5.21482 11.8685 2.5 8.54167 2.5ZM8.54167 4.16667C10.9678 4.16667 12.9167 6.11555 12.9167 8.54167C12.9167 9.70655 12.4642 10.7586 11.7285 11.5405C11.6569 11.5924 11.594 11.6553 11.5422 11.7269C10.76 12.4635 9.70738 12.9167 8.54167 12.9167C6.11555 12.9167 4.16667 10.9678 4.16667 8.54167C4.16667 6.11555 6.11555 4.16667 8.54167 4.16667Z"/></symbol><symbol viewBox="0 0 20 20" id="svg-icon-share"><path d="M9.99101 1.875C9.82837 1.87738 9.67306 1.94306 9.55806 2.05811L7.05806 4.55811C6.99808 4.6157 6.95019 4.68468 6.91721 4.76101C6.88422 4.83734 6.86679 4.91948 6.86594 5.00263C6.8651 5.08578 6.88085 5.16826 6.91228 5.24525C6.94371 5.32223 6.99019 5.39217 7.04899 5.45097C7.10779 5.50977 7.17773 5.55625 7.25471 5.58768C7.3317 5.61911 7.41418 5.63486 7.49733 5.63402C7.58048 5.63317 7.66262 5.61574 7.73895 5.58275C7.81528 5.54976 7.88426 5.50188 7.94185 5.4419L9.37415 4.0096L9.36682 12.2909C9.36555 12.3737 9.38074 12.4559 9.41153 12.5328C9.44232 12.6097 9.48808 12.6797 9.54615 12.7388C9.60423 12.7978 9.67346 12.8447 9.74983 12.8768C9.82619 12.9089 9.90817 12.9254 9.991 12.9255C10.0738 12.9256 10.1558 12.9093 10.2323 12.8774C10.3087 12.8456 10.3781 12.7988 10.4363 12.7399C10.4946 12.681 10.5405 12.6111 10.5715 12.5343C10.6025 12.4575 10.6179 12.3753 10.6168 12.2925L10.6241 4.00798L12.0581 5.4419C12.1157 5.50188 12.1846 5.54976 12.261 5.58275C12.3373 5.61574 12.4194 5.63317 12.5026 5.63402C12.5857 5.63486 12.6682 5.61911 12.7452 5.58768C12.8222 5.55625 12.8921 5.50977 12.9509 5.45097C13.0097 5.39217 13.0562 5.32223 13.0876 5.24525C13.1191 5.16826 13.1348 5.08578 13.134 5.00263C13.1331 4.91948 13.1157 4.83734 13.0827 4.76101C13.0497 4.68468 13.0018 4.6157 12.9419 4.55811L10.4419 2.05811C10.3828 1.99899 10.3124 1.95233 10.235 1.92088C10.1575 1.88943 10.0746 1.87383 9.99101 1.875ZM6.45829 7.08333C5.20005 7.08333 4.16663 8.11676 4.16663 9.375V16.0417C4.16663 17.2999 5.20005 18.3333 6.45829 18.3333H13.5416C14.7999 18.3333 15.8333 17.2999 15.8333 16.0417V9.375C15.8333 8.11676 14.7999 7.08333 13.5416 7.08333H12.7083C12.6255 7.08216 12.5432 7.09746 12.4664 7.12835C12.3895 7.15923 12.3196 7.20508 12.2606 7.26323C12.2016 7.32139 12.1548 7.39068 12.1228 7.46709C12.0909 7.5435 12.0744 7.62551 12.0744 7.70833C12.0744 7.79116 12.0909 7.87316 12.1228 7.94958C12.1548 8.02599 12.2016 8.09528 12.2606 8.15343C12.3196 8.21159 12.3895 8.25744 12.4664 8.28832C12.5432 8.3192 12.6255 8.33451 12.7083 8.33333H13.5416C14.1242 8.33333 14.5833 8.79241 14.5833 9.375V16.0417C14.5833 16.6243 14.1242 17.0833 13.5416 17.0833H6.45829C5.8757 17.0833 5.41663 16.6243 5.41663 16.0417V9.375C5.41663 8.79241 5.8757 8.33333 6.45829 8.33333H7.29163C7.37445 8.33451 7.45667 8.3192 7.53353 8.28832C7.61038 8.25744 7.68033 8.21159 7.73932 8.15343C7.7983 8.09528 7.84513 8.02599 7.8771 7.94958C7.90907 7.87316 7.92553 7.79116 7.92553 7.70833C7.92553 7.62551 7.90907 7.5435 7.8771 7.46709C7.84513 7.39068 7.7983 7.32139 7.73932 7.26323C7.68033 7.20508 7.61038 7.15923 7.53353 7.12835C7.45667 7.09746 7.37445 7.08216 7.29163 7.08333H6.45829Z"/></symbol><symbol viewBox="0 0 20 20" id="svg-icon-share-2"><path d="M14.7827 2.49185C14.617 2.49206 14.4551 2.54166 14.3177 2.63431C14.1804 2.72697 14.0737 2.85848 14.0114 3.01204C13.9492 3.1656 13.9341 3.33424 13.9681 3.49641C14.0021 3.65859 14.0837 3.80694 14.2025 3.92252L14.6582 4.37825C9.78191 4.45027 5.83333 8.44029 5.83333 13.3333C5.83177 13.4438 5.85217 13.5534 5.89335 13.6559C5.93453 13.7583 5.99566 13.8516 6.0732 13.9302C6.15074 14.0089 6.24313 14.0713 6.34501 14.114C6.44689 14.1566 6.55623 14.1785 6.66667 14.1785C6.7771 14.1785 6.88644 14.1566 6.98832 14.114C7.0902 14.0713 7.1826 14.0089 7.26013 13.9302C7.33767 13.8516 7.39881 13.7583 7.43998 13.6559C7.48116 13.5534 7.50156 13.4438 7.5 13.3333C7.5 9.3448 10.6781 6.12612 14.6476 6.04898L14.2025 6.49413C14.1225 6.57092 14.0586 6.66289 14.0147 6.76467C13.9707 6.86644 13.9474 6.97597 13.9463 7.08684C13.9452 7.1977 13.9662 7.30768 14.0081 7.41033C14.05 7.51298 14.112 7.60623 14.1904 7.68463C14.2688 7.76303 14.362 7.825 14.4647 7.86691C14.5673 7.90882 14.6773 7.92982 14.7882 7.92869C14.899 7.92756 15.0086 7.90432 15.1103 7.86034C15.2121 7.81635 15.3041 7.7525 15.3809 7.67252L17.1818 5.87157C17.2844 5.79362 17.3676 5.69294 17.4247 5.57743C17.4818 5.46193 17.5114 5.33475 17.5111 5.20589C17.5108 5.07702 17.4806 4.94999 17.4229 4.83477C17.3652 4.71954 17.2815 4.61927 17.1785 4.54182L15.3809 2.74413C15.3031 2.6642 15.2101 2.60069 15.1074 2.55736C15.0046 2.51403 14.8942 2.49175 14.7827 2.49185ZM5.20833 2.49999C3.72244 2.49999 2.5 3.72243 2.5 5.20832V14.7917C2.5 16.2776 3.72244 17.5 5.20833 17.5H14.7917C16.2776 17.5 17.5 16.2776 17.5 14.7917V11.6667C17.5016 11.5562 17.4812 11.4466 17.44 11.3441C17.3988 11.2416 17.3377 11.1484 17.2601 11.0697C17.1826 10.9911 17.0902 10.9287 16.9883 10.886C16.8864 10.8434 16.7771 10.8215 16.6667 10.8215C16.5562 10.8215 16.4469 10.8434 16.345 10.886C16.2431 10.9287 16.1507 10.9911 16.0732 11.0697C15.9957 11.1484 15.9345 11.2416 15.8934 11.3441C15.8522 11.4466 15.8318 11.5562 15.8333 11.6667V14.7917C15.8333 15.3766 15.3766 15.8333 14.7917 15.8333H5.20833C4.6234 15.8333 4.16667 15.3766 4.16667 14.7917V5.20832C4.16667 4.62339 4.6234 4.16666 5.20833 4.16666H8.33333C8.44376 4.16822 8.5534 4.14782 8.65587 4.10664C8.75834 4.06546 8.85161 4.00433 8.93025 3.92679C9.00889 3.84925 9.07134 3.75686 9.11396 3.65498C9.15659 3.5531 9.17854 3.44376 9.17854 3.33332C9.17854 3.22289 9.15659 3.11355 9.11396 3.01167C9.07134 2.90979 9.00889 2.81739 8.93025 2.73986C8.85161 2.66232 8.75834 2.60119 8.65587 2.56001C8.5534 2.51883 8.44376 2.49843 8.33333 2.49999H5.20833Z"/></symbol><symbol viewBox="0 0 20 20" id="svg-icon-share-3"><path d="M2.64712 17.0804C2.66754 17.0825 2.68837 17.0833 2.70879 17.0833C3.00379 17.0833 3.26212 16.8754 3.32129 16.5808C4.19546 12.2075 8.75337 11.8962 10.8334 11.9929V15.2083C10.8334 15.4608 10.9855 15.6887 11.2192 15.7858C11.4525 15.8821 11.7213 15.8292 11.9005 15.6504L17.7338 9.81707C17.978 9.57332 17.978 9.17707 17.7338 8.93332L11.9005 3.09999C11.7217 2.92124 11.453 2.86749 11.2192 2.96457C10.9855 3.06082 10.8334 3.28874 10.8334 3.54166V6.74791C8.48629 7.05457 2.08337 8.61124 2.08337 16.4583C2.08337 16.7796 2.32712 17.0487 2.64712 17.0804Z"/></symbol><symbol viewBox="0 0 20 20" id="svg-icon-shipping"><path d="M2.70825 4.16666C1.6745 4.16666 0.833252 5.00791 0.833252 6.04166V13.125C0.833252 14.1587 1.6745 15 2.70825 15H3.0061C3.28085 15.9577 4.1667 16.6667 5.20825 16.6667C6.24981 16.6667 7.13565 15.9577 7.4104 15H11.0416C11.3866 15 11.6666 14.7204 11.6666 14.375V6.04166C11.6666 5.00791 10.8253 4.16666 9.79159 4.16666H2.70825ZM12.4999 5.83332V14.375C12.4999 15.6332 13.5334 16.6667 14.7916 16.6667C15.8331 16.6667 16.719 15.9577 16.9937 15H17.2916C18.327 15 19.1666 14.1604 19.1666 13.125V10.4736C19.1666 10.2111 19.1113 9.95149 19.0046 9.7119L17.7758 6.94742C17.475 6.26992 16.8036 5.83332 16.0627 5.83332H12.4999ZM14.1666 7.08332H16.0627C16.3098 7.08332 16.5332 7.22858 16.6332 7.45442L17.3184 8.99739C17.4409 9.2728 17.2396 9.58332 16.9384 9.58332H14.1666C13.9366 9.58332 13.7499 9.39666 13.7499 9.16666V7.49999C13.7499 7.26999 13.9366 7.08332 14.1666 7.08332ZM5.20825 13.3333C5.79009 13.3333 6.24992 13.7932 6.24992 14.375C6.24992 14.9568 5.79009 15.4167 5.20825 15.4167C4.62642 15.4167 4.16659 14.9568 4.16659 14.375C4.16659 13.7932 4.62642 13.3333 5.20825 13.3333ZM14.7916 13.3333C15.3734 13.3333 15.8333 13.7932 15.8333 14.375C15.8333 14.9568 15.3734 15.4167 14.7916 15.4167C14.2098 15.4167 13.7499 14.9568 13.7499 14.375C13.7499 13.7932 14.2098 13.3333 14.7916 13.3333Z"/></symbol><symbol viewBox="0 0 20 20" id="svg-icon-telegram"><path d="M2.42918 9.83999C7.66585 7.53624 14.4425 4.72749 15.3779 4.33874C17.8317 3.32124 18.5846 3.51624 18.2092 5.76957C17.9396 7.38916 17.1617 12.7512 16.5417 16.0887C16.1738 18.0679 15.3483 18.3025 14.0504 17.4462C13.4263 17.0342 10.2758 14.9508 9.5921 14.4617C8.96793 14.0158 8.1071 13.4796 9.18668 12.4233C9.57085 12.0471 12.0892 9.64249 14.0513 7.77082C14.3083 7.52499 13.9854 7.12124 13.6888 7.31832C11.0442 9.07207 7.37751 11.5062 6.91085 11.8233C6.20585 12.3021 5.52876 12.5217 4.31335 12.1725C3.39501 11.9087 2.49793 11.5942 2.14876 11.4742C0.804182 11.0125 1.12335 10.4146 2.42918 9.83999Z"/></symbol><symbol viewBox="0 0 20 20" id="svg-icon-whatsapp"><path d="M10 2C5.582 2 2 5.582 2 10C2 11.5008 2.42156 12.9 3.14062 14.1003L2.07161 18L6.05469 16.9544C7.21957 17.6167 8.56433 18 10 18C14.418 18 18 14.418 18 10C18 5.582 14.418 2 10 2ZM7.26172 6.26823C7.39172 6.26823 7.52529 6.26744 7.64063 6.27344C7.78329 6.27677 7.93857 6.28722 8.08724 6.61589C8.26391 7.00655 8.64858 7.9866 8.69792 8.08594C8.74725 8.18527 8.78221 8.30229 8.71354 8.43229C8.64821 8.56563 8.61423 8.64632 8.51823 8.76432C8.4189 8.87899 8.31005 9.02141 8.22005 9.10807C8.12072 9.20741 8.01815 9.31632 8.13281 9.51432C8.24748 9.71232 8.64571 10.3614 9.23437 10.8854C9.99104 11.5614 10.6295 11.7692 10.8281 11.8685C11.0268 11.9678 11.1418 11.9523 11.2565 11.819C11.3745 11.689 11.7521 11.2429 11.8854 11.0443C12.0154 10.8456 12.1481 10.88 12.3281 10.9453C12.5108 11.0106 13.4849 11.4905 13.6836 11.5898C13.8823 11.6892 14.0125 11.7383 14.0625 11.819C14.1138 11.9023 14.1139 12.2991 13.9492 12.7617C13.7846 13.2237 12.9759 13.6705 12.6133 13.7018C12.2473 13.7358 11.9057 13.8663 10.2344 13.2083C8.21838 12.4143 6.94699 10.3495 6.84766 10.2161C6.74832 10.0861 6.04036 9.1426 6.04036 8.16927C6.04036 7.1926 6.55244 6.71429 6.73177 6.51562C6.91444 6.31696 7.12839 6.26823 7.26172 6.26823Z"/></symbol></svg>