<svg width="20" height="20" viewBox="0 0 20 20" fill="none" xmlns="http://www.w3.org/2000/svg">
<path d="M17.5 5.83333V5.20833C17.5 3.715 16.285 2.5 14.7917 2.5H5.20833C3.715 2.5 2.5 3.715 2.5 5.20833V5.83333H17.5ZM2.5 7.08333V14.7917C2.5 16.285 3.715 17.5 5.20833 17.5H14.7917C16.285 17.5 17.5 16.285 17.5 14.7917V7.08333H2.5ZM6.45833 15C5.88292 15 5.41667 14.5337 5.41667 13.9583C5.41667 13.3829 5.88292 12.9167 6.45833 12.9167C7.03375 12.9167 7.5 13.3829 7.5 13.9583C7.5 14.5337 7.03375 15 6.45833 15ZM6.45833 11.25C5.88292 11.25 5.41667 10.7837 5.41667 10.2083C5.41667 9.63292 5.88292 9.16667 6.45833 9.16667C7.03375 9.16667 7.5 9.63292 7.5 10.2083C7.5 10.7837 7.03375 11.25 6.45833 11.25ZM10 15C9.42458 15 8.95833 14.5337 8.95833 13.9583C8.95833 13.3829 9.42458 12.9167 10 12.9167C10.5754 12.9167 11.0417 13.3829 11.0417 13.9583C11.0417 14.5337 10.5754 15 10 15ZM10 11.25C9.42458 11.25 8.95833 10.7837 8.95833 10.2083C8.95833 9.63292 9.42458 9.16667 10 9.16667C10.5754 9.16667 11.0417 9.63292 11.0417 10.2083C11.0417 10.7837 10.5754 11.25 10 11.25ZM13.5417 11.25C12.9662 11.25 12.5 10.7837 12.5 10.2083C12.5 9.63292 12.9662 9.16667 13.5417 9.16667C14.1171 9.16667 14.5833 9.63292 14.5833 10.2083C14.5833 10.7837 14.1171 11.25 13.5417 11.25Z" fill="#251E19"/>
</svg>
