<svg width="20" height="20" viewBox="0 0 20 20" fill="none" xmlns="http://www.w3.org/2000/svg">
<path d="M10.0122 17.9281C10.233 17.9248 10.4436 17.8341 10.5976 17.6757C10.7515 17.5173 10.8363 17.3042 10.8333 17.0834V4.9284L15.2441 9.3392C15.3209 9.4192 15.4129 9.483 15.5146 9.527C15.6164 9.571 15.7259 9.5943 15.8368 9.5954C15.9477 9.5965 16.0577 9.5755 16.1603 9.5336C16.263 9.4917 16.3562 9.4297 16.4346 9.3513C16.513 9.2729 16.575 9.1797 16.6169 9.077C16.6588 8.9744 16.6798 8.8644 16.6787 8.7535C16.6775 8.6427 16.6543 8.5331 16.6103 8.4314C16.5663 8.3296 16.5025 8.2376 16.4225 8.1608L10.5892 2.3275C10.4329 2.1713 10.2209 2.0835 10 2.0835C9.77904 2.0835 9.56714 2.1713 9.41084 2.3275L3.57744 8.1608C3.49754 8.2376 3.43364 8.3296 3.38964 8.4314C3.34564 8.5331 3.32244 8.6427 3.32134 8.7535C3.32014 8.8644 3.34114 8.9744 3.38314 9.077C3.42504 9.1797 3.48694 9.2729 3.56534 9.3513C3.64374 9.4297 3.73704 9.4917 3.83964 9.5336C3.94234 9.5755 4.05234 9.5965 4.16314 9.5954C4.27404 9.5943 4.38354 9.571 4.48534 9.527C4.58714 9.483 4.67904 9.4192 4.75584 9.3392L9.16664 4.9284V17.0834C9.16514 17.1948 9.18594 17.3054 9.22794 17.4086C9.26994 17.5118 9.33214 17.6056 9.41094 17.6843C9.48984 17.7631 9.58364 17.8253 9.68694 17.8671C9.79014 17.909 9.90084 17.9297 10.0122 17.9281Z" fill="#251E19"/>
</svg>
