<svg width="20" height="20" viewBox="0 0 20 20" fill="none" xmlns="http://www.w3.org/2000/svg">
<path d="M9.99992 1.6665C7.70613 1.6665 5.83325 3.53939 5.83325 5.83317C5.83325 8.12695 7.70613 9.99984 9.99992 9.99984C12.2937 9.99984 14.1666 8.12695 14.1666 5.83317C14.1666 3.53939 12.2937 1.6665 9.99992 1.6665ZM9.99992 2.9165C11.6182 2.9165 12.9166 4.21494 12.9166 5.83317C12.9166 7.45141 11.6182 8.74984 9.99992 8.74984C8.38168 8.74984 7.08325 7.45141 7.08325 5.83317C7.08325 4.21494 8.38168 2.9165 9.99992 2.9165ZM4.99097 11.6665C4.08271 11.6665 3.33325 12.416 3.33325 13.3242V13.9582C3.33325 15.4599 4.28295 16.6216 5.54435 17.3175C6.80576 18.0135 8.40329 18.3332 9.99992 18.3332C11.5965 18.3332 13.1941 18.0135 14.4555 17.3175C15.531 16.7241 16.3405 15.7759 16.5673 14.5832H16.6674V13.3242C16.6674 12.416 15.9171 11.6665 15.0089 11.6665H4.99097ZM4.99097 12.9165H15.0089C15.2414 12.9165 15.4174 13.0916 15.4174 13.3242V13.3332H15.4166V13.9582C15.4166 14.9564 14.8559 15.6697 13.8516 16.2238C12.8474 16.7778 11.4241 17.0832 9.99992 17.0832C8.57571 17.0832 7.15241 16.7778 6.14819 16.2238C5.14397 15.6697 4.58325 14.9564 4.58325 13.9582V13.3242C4.58325 13.0916 4.75839 12.9165 4.99097 12.9165Z" fill="#251E19"/>
</svg>
