<svg width="20" height="20" viewBox="0 0 20 20" fill="none" xmlns="http://www.w3.org/2000/svg">
<path d="M9.99101 1.875C9.82837 1.87738 9.67306 1.94306 9.55806 2.05811L7.05806 4.55811C6.99808 4.6157 6.95019 4.68468 6.91721 4.76101C6.88422 4.83734 6.86679 4.91948 6.86594 5.00263C6.8651 5.08578 6.88085 5.16826 6.91228 5.24525C6.94371 5.32223 6.99019 5.39217 7.04899 5.45097C7.10779 5.50977 7.17773 5.55625 7.25471 5.58768C7.3317 5.61911 7.41418 5.63486 7.49733 5.63402C7.58048 5.63317 7.66262 5.61574 7.73895 5.58275C7.81528 5.54976 7.88426 5.50188 7.94185 5.4419L9.37415 4.0096L9.36682 12.2909C9.36555 12.3737 9.38074 12.4559 9.41153 12.5328C9.44232 12.6097 9.48808 12.6797 9.54615 12.7388C9.60423 12.7978 9.67346 12.8447 9.74983 12.8768C9.82619 12.9089 9.90817 12.9254 9.991 12.9255C10.0738 12.9256 10.1558 12.9093 10.2323 12.8774C10.3087 12.8456 10.3781 12.7988 10.4363 12.7399C10.4946 12.681 10.5405 12.6111 10.5715 12.5343C10.6025 12.4575 10.6179 12.3753 10.6168 12.2925L10.6241 4.00798L12.0581 5.4419C12.1157 5.50188 12.1846 5.54976 12.261 5.58275C12.3373 5.61574 12.4194 5.63317 12.5026 5.63402C12.5857 5.63486 12.6682 5.61911 12.7452 5.58768C12.8222 5.55625 12.8921 5.50977 12.9509 5.45097C13.0097 5.39217 13.0562 5.32223 13.0876 5.24525C13.1191 5.16826 13.1348 5.08578 13.134 5.00263C13.1331 4.91948 13.1157 4.83734 13.0827 4.76101C13.0497 4.68468 13.0018 4.6157 12.9419 4.55811L10.4419 2.05811C10.3828 1.99899 10.3124 1.95233 10.235 1.92088C10.1575 1.88943 10.0746 1.87383 9.99101 1.875ZM6.45829 7.08333C5.20005 7.08333 4.16663 8.11676 4.16663 9.375V16.0417C4.16663 17.2999 5.20005 18.3333 6.45829 18.3333H13.5416C14.7999 18.3333 15.8333 17.2999 15.8333 16.0417V9.375C15.8333 8.11676 14.7999 7.08333 13.5416 7.08333H12.7083C12.6255 7.08216 12.5432 7.09746 12.4664 7.12835C12.3895 7.15923 12.3196 7.20508 12.2606 7.26323C12.2016 7.32139 12.1548 7.39068 12.1228 7.46709C12.0909 7.5435 12.0744 7.62551 12.0744 7.70833C12.0744 7.79116 12.0909 7.87316 12.1228 7.94958C12.1548 8.02599 12.2016 8.09528 12.2606 8.15343C12.3196 8.21159 12.3895 8.25744 12.4664 8.28832C12.5432 8.3192 12.6255 8.33451 12.7083 8.33333H13.5416C14.1242 8.33333 14.5833 8.79241 14.5833 9.375V16.0417C14.5833 16.6243 14.1242 17.0833 13.5416 17.0833H6.45829C5.8757 17.0833 5.41663 16.6243 5.41663 16.0417V9.375C5.41663 8.79241 5.8757 8.33333 6.45829 8.33333H7.29163C7.37445 8.33451 7.45667 8.3192 7.53353 8.28832C7.61038 8.25744 7.68033 8.21159 7.73932 8.15343C7.7983 8.09528 7.84513 8.02599 7.8771 7.94958C7.90907 7.87316 7.92553 7.79116 7.92553 7.70833C7.92553 7.62551 7.90907 7.5435 7.8771 7.46709C7.84513 7.39068 7.7983 7.32139 7.73932 7.26323C7.68033 7.20508 7.61038 7.15923 7.53353 7.12835C7.45667 7.09746 7.37445 7.08216 7.29163 7.08333H6.45829Z" fill="#251E19"/>
</svg>
