<svg width="20" height="20" viewBox="0 0 20 20" fill="none" xmlns="http://www.w3.org/2000/svg">
<path d="M9.98782 2.07193C9.76695 2.07516 9.5564 2.16595 9.40243 2.32435C9.24847 2.48274 9.16368 2.69578 9.1667 2.91665V15.0716L4.75589 10.6608C4.6791 10.5808 4.58713 10.517 4.48535 10.473C4.38358 10.429 4.27405 10.4057 4.16319 10.4046C4.05232 10.4035 3.94234 10.4245 3.83969 10.4664C3.73704 10.5083 3.64379 10.5703 3.56539 10.6487C3.48699 10.7271 3.42502 10.8203 3.38312 10.923C3.34121 11.0256 3.3202 11.1356 3.32133 11.2465C3.32246 11.3573 3.3457 11.4669 3.38969 11.5686C3.43367 11.6704 3.49753 11.7624 3.57751 11.8392L9.41084 17.6725C9.56712 17.8287 9.77905 17.9165 10 17.9165C10.221 17.9165 10.4329 17.8287 10.5892 17.6725L16.4226 11.8392C16.5025 11.7624 16.5664 11.6704 16.6104 11.5686C16.6544 11.4669 16.6776 11.3573 16.6787 11.2465C16.6799 11.1356 16.6589 11.0256 16.6169 10.923C16.575 10.8203 16.5131 10.7271 16.4347 10.6487C16.3563 10.5703 16.263 10.5083 16.1604 10.4664C16.0577 10.4245 15.9477 10.4035 15.8369 10.4046C15.726 10.4057 15.6165 10.429 15.5147 10.473C15.4129 10.517 15.321 10.5808 15.2442 10.6608L10.8334 15.0716V2.91665C10.8349 2.80523 10.8141 2.69464 10.7721 2.59141C10.7301 2.48818 10.6679 2.39441 10.5891 2.31566C10.5102 2.2369 10.4164 2.17475 10.3131 2.13289C10.2099 2.09103 10.0992 2.0703 9.98782 2.07193Z" fill="#251E19"/>
</svg>
