<svg width="20" height="20" viewBox="0 0 20 20" fill="none" xmlns="http://www.w3.org/2000/svg">
<path d="M16.25 12.5C14.8712 12.5 13.75 11.3787 13.75 10C13.75 8.62125 14.8712 7.5 16.25 7.5C17.6287 7.5 18.75 8.62125 18.75 10C18.75 11.3787 17.6287 12.5 16.25 12.5ZM3.75 12.5C2.37125 12.5 1.25 11.3787 1.25 10C1.25 8.62125 2.37125 7.5 3.75 7.5C5.12875 7.5 6.25 8.62125 6.25 10C6.25 11.3787 5.12875 12.5 3.75 12.5ZM10 12.5C8.62125 12.5 7.5 11.3787 7.5 10C7.5 8.62125 8.62125 7.5 10 7.5C11.3787 7.5 12.5 8.62125 12.5 10C12.5 11.3787 11.3787 12.5 10 12.5Z" fill="#251E19"/>
</svg>
