<svg width="20" height="20" viewBox="0 0 20 20" fill="none" xmlns="http://www.w3.org/2000/svg">
<path d="M2.70825 4.16666C1.6745 4.16666 0.833252 5.00791 0.833252 6.04166V13.125C0.833252 14.1587 1.6745 15 2.70825 15H3.0061C3.28085 15.9577 4.16669 16.6667 5.20825 16.6667C6.24981 16.6667 7.13565 15.9577 7.4104 15H12.5894C12.8642 15.9577 13.75 16.6667 14.7916 16.6667C15.8331 16.6667 16.719 15.9577 16.9937 15H17.2916C18.3253 15 19.1666 14.1587 19.1666 13.125V8.80696C19.1666 8.54237 19.1117 8.28607 19.0046 8.04524L17.7758 5.28075C17.475 4.60408 16.8032 4.16666 16.0627 4.16666H2.70825ZM4.58325 7.49999H5.83325C6.06325 7.49999 6.24992 7.68666 6.24992 7.91666C6.24992 8.14666 6.06325 8.33332 5.83325 8.33332H4.99992V8.74999H5.62492C5.85492 8.74999 6.04158 8.93666 6.04158 9.16666C6.04158 9.39666 5.85492 9.58332 5.62492 9.58332H4.99992V10.4167C4.99992 10.6467 4.81325 10.8333 4.58325 10.8333C4.35325 10.8333 4.16658 10.6467 4.16658 10.4167V7.91666C4.16658 7.68666 4.35325 7.49999 4.58325 7.49999ZM7.49992 7.49999H8.33325C9.02242 7.49999 9.58325 8.06082 9.58325 8.74999C9.58325 9.12832 9.41086 9.46402 9.14461 9.69319L9.50024 10.1668C9.63858 10.351 9.60059 10.6124 9.41642 10.7503C9.34142 10.8066 9.25406 10.8333 9.1674 10.8333C9.04073 10.8333 8.91459 10.7757 8.83293 10.6665L8.33325 9.99999H7.91658V10.4167C7.91658 10.6467 7.72992 10.8333 7.49992 10.8333C7.26992 10.8333 7.08325 10.6467 7.08325 10.4167V7.91666C7.08325 7.68666 7.26992 7.49999 7.49992 7.49999ZM10.8333 7.49999H12.0833C12.3133 7.49999 12.4999 7.68666 12.4999 7.91666C12.4999 8.14666 12.3133 8.33332 12.0833 8.33332H11.2499V8.74999H11.8749C12.1049 8.74999 12.2916 8.93666 12.2916 9.16666C12.2916 9.39666 12.1049 9.58332 11.8749 9.58332H11.2499V9.99999H12.0833C12.3133 9.99999 12.4999 10.1867 12.4999 10.4167C12.4999 10.6467 12.3133 10.8333 12.0833 10.8333H10.8333C10.6033 10.8333 10.4166 10.6467 10.4166 10.4167V7.91666C10.4166 7.68666 10.6033 7.49999 10.8333 7.49999ZM13.7499 7.49999H14.9999C15.2299 7.49999 15.4166 7.68666 15.4166 7.91666C15.4166 8.14666 15.2299 8.33332 14.9999 8.33332H14.1666V8.74999H14.7916C15.0216 8.74999 15.2083 8.93666 15.2083 9.16666C15.2083 9.39666 15.0216 9.58332 14.7916 9.58332H14.1666V9.99999H14.9999C15.2299 9.99999 15.4166 10.1867 15.4166 10.4167C15.4166 10.6467 15.2299 10.8333 14.9999 10.8333H13.7499C13.5199 10.8333 13.3333 10.6467 13.3333 10.4167V7.91666C13.3333 7.68666 13.5199 7.49999 13.7499 7.49999ZM7.91658 8.33332V9.16666H8.33325C8.56283 9.16666 8.74992 8.97957 8.74992 8.74999C8.74992 8.52041 8.56283 8.33332 8.33325 8.33332H7.91658ZM5.20825 13.3333C5.79009 13.3333 6.24992 13.7932 6.24992 14.375C6.24992 14.9568 5.79009 15.4167 5.20825 15.4167C4.62642 15.4167 4.16658 14.9568 4.16658 14.375C4.16658 13.7932 4.62642 13.3333 5.20825 13.3333ZM14.7916 13.3333C15.3734 13.3333 15.8333 13.7932 15.8333 14.375C15.8333 14.9568 15.3734 15.4167 14.7916 15.4167C14.2097 15.4167 13.7499 14.9568 13.7499 14.375C13.7499 13.7932 14.2097 13.3333 14.7916 13.3333Z" fill="#975730"/>
</svg>
