<svg width="20" height="20" viewBox="0 0 20 20" fill="none" xmlns="http://www.w3.org/2000/svg">
<path d="M10.0001 1.66666C5.4052 1.66666 1.66675 5.40511 1.66675 9.99999C1.66675 11.3647 2.02621 12.6395 2.60913 13.7768L1.70581 17.0117C1.49541 17.7631 2.23838 18.5052 2.98999 18.2951L6.22648 17.3918C7.36302 17.9739 8.63631 18.3333 10.0001 18.3333C14.595 18.3333 18.3334 14.5949 18.3334 9.99999C18.3334 5.40511 14.595 1.66666 10.0001 1.66666ZM10.0001 2.91666C13.9194 2.91666 17.0834 6.0807 17.0834 9.99999C17.0834 13.9193 13.9194 17.0833 10.0001 17.0833C8.74884 17.0833 7.58019 16.7576 6.56014 16.189C6.41611 16.1086 6.24616 16.0884 6.08732 16.1328L3.00952 16.9922L3.8689 13.916C3.91329 13.7572 3.89311 13.5872 3.81274 13.4432C3.24327 12.4223 2.91675 11.2519 2.91675 9.99999C2.91675 6.0807 6.08079 2.91666 10.0001 2.91666Z" fill="#251E19"/>
</svg>
