<svg width="20" height="20" viewBox="0 0 20 20" fill="none" xmlns="http://www.w3.org/2000/svg">
<path d="M9.98786 2.07193C9.76699 2.07516 9.55644 2.16595 9.40247 2.32435C9.2485 2.48274 9.16371 2.69578 9.16674 2.91665V9.16665H2.91674C2.80631 9.16509 2.69667 9.18549 2.5942 9.22667C2.49173 9.26785 2.39846 9.32898 2.31982 9.40652C2.24118 9.48406 2.17873 9.57645 2.13611 9.67833C2.09348 9.78021 2.07153 9.88955 2.07153 9.99999C2.07153 10.1104 2.09348 10.2198 2.13611 10.3216C2.17873 10.4235 2.24118 10.5159 2.31982 10.5935C2.39846 10.671 2.49173 10.7321 2.5942 10.7733C2.69667 10.8145 2.80631 10.8349 2.91674 10.8333H9.16674V17.0833C9.16517 17.1937 9.18557 17.3034 9.22675 17.4059C9.26793 17.5083 9.32906 17.6016 9.4066 17.6802C9.48414 17.7589 9.57653 17.8213 9.67841 17.864C9.78029 17.9066 9.88963 17.9285 10.0001 17.9285C10.1105 17.9285 10.2198 17.9066 10.3217 17.864C10.4236 17.8213 10.516 17.7589 10.5935 17.6802C10.6711 17.6016 10.7322 17.5083 10.7734 17.4059C10.8146 17.3034 10.835 17.1937 10.8334 17.0833L10.8334 10.8333H17.0834C17.1938 10.8349 17.3035 10.8145 17.4059 10.7733C17.5084 10.7321 17.6017 10.671 17.6803 10.5935C17.759 10.5159 17.8214 10.4235 17.864 10.3216C17.9067 10.2198 17.9286 10.1104 17.9286 9.99999C17.9286 9.88955 17.9067 9.78021 17.864 9.67833C17.8214 9.57645 17.759 9.48406 17.6803 9.40652C17.6017 9.32898 17.5084 9.26785 17.4059 9.22667C17.3035 9.18549 17.1938 9.16509 17.0834 9.16665H10.8334V2.91665C10.8349 2.80523 10.8141 2.69464 10.7721 2.59141C10.7302 2.48818 10.6679 2.39441 10.5891 2.31566C10.5103 2.2369 10.4164 2.17475 10.3132 2.13289C10.2099 2.09103 10.0993 2.0703 9.98786 2.07193Z" fill="#251E19"/>
</svg>
