<svg width="21" height="20" viewBox="0 0 21 20" fill="none" xmlns="http://www.w3.org/2000/svg">
<g clip-path="url(#clip0_131_19426)">
<path d="M2.90997 5.54034L2.90996 5.54033C2.74757 5.41422 2.45759 5.34278 2.02229 5.34278H1.3999H1.3249V5.26778V5.05457V4.97957H1.3999H4.23743C4.79416 4.97957 5.47125 4.96856 6.21711 4.95643C7.39175 4.93733 8.73698 4.91546 10.0513 4.92945C11.1274 4.9409 12.1866 4.97635 13.1212 5.05709C14.0545 5.13772 14.8683 5.26389 15.4512 5.45858L15.4274 5.52972L15.4512 5.45858C16.3972 5.77455 17.1395 6.17975 17.675 6.67427C18.1573 7.11958 18.5528 7.65225 18.8455 8.27915L18.7775 8.31087L18.8455 8.27916C19.2693 9.18737 19.4749 10.1301 19.4749 11.1008C19.4749 11.4709 19.4533 11.847 19.4104 12.2286C19.3672 12.6126 19.2776 13.0407 19.1425 13.5114C19.0071 13.9836 18.8312 14.4328 18.6156 14.8574L18.6156 14.8575C18.3985 15.2848 18.1013 15.705 17.7253 16.1178C17.3489 16.5312 16.9213 16.896 16.4257 17.1807C15.9976 17.4267 15.3245 17.6051 14.5294 17.7353C13.732 17.8659 12.8034 17.9492 11.8584 18.0007C9.96837 18.1035 8.0075 18.0791 6.88966 18.0483L6.89173 17.9733L6.88966 18.0483C6.84439 18.047 6.7969 18.0463 6.748 18.0455C6.6693 18.0442 6.58694 18.0429 6.50426 18.0394C6.36938 18.0337 6.26748 18.0272 6.19883 18.0213L6.1988 18.0213C6.13132 18.0155 6.08863 18.0127 6.06798 18.0127C5.88426 18.0127 5.6699 18.0097 5.42557 18.0039L5.42553 18.0039C5.18128 17.9979 4.99446 17.9917 4.86555 17.9859L4.8655 17.9859C4.73812 17.9801 4.63823 17.9773 4.56691 17.9773H1.3999H1.3249V17.9023V17.689V17.614H1.3999H2.02229C2.26353 17.614 2.46113 17.5978 2.61629 17.5665C2.77255 17.5351 2.87935 17.4895 2.94498 17.4356C3.076 17.328 3.15554 17.1037 3.15554 16.7294V6.22744C3.15554 5.88267 3.06653 5.66186 2.90997 5.54034ZM17.6224 11.2607C17.6224 9.64387 17.3092 8.46847 16.7254 7.61938C16.1425 6.77151 15.2836 6.24005 14.1737 5.9227C13.0622 5.60491 11.7029 5.50302 10.1257 5.51272C8.65567 5.52177 7.0016 5.62762 5.18867 5.74365C5.08019 5.75059 4.97115 5.75757 4.86155 5.76457V17.1266C7.91957 17.5681 11.1045 17.844 13.5286 17.1447C14.7469 16.7933 15.7683 16.1968 16.4857 15.2552C17.2031 14.3136 17.6224 13.0191 17.6224 11.2607Z" fill="#251E19" stroke="#251E19" stroke-width="0.15"/>
<path d="M11.8995 -0.0749993L12.0281 -0.0756662L11.9654 0.0365856L10.2894 3.03582L10.2679 3.07419L10.224 3.07424L9.39997 3.075L9.2711 3.07512L9.33466 2.96301L11.0331 -0.0328314L11.0545 -0.070616L11.098 -0.0708413L11.8995 -0.0749993Z" fill="#251E19" stroke="#251E19" stroke-width="0.15"/>
</g>
<defs>
<clipPath id="clip0_131_19426">
<rect width="20" height="20" fill="white" transform="translate(0.399902)"/>
</clipPath>
</defs>
</svg>
