<svg width="20" height="20" viewBox="0 0 20 20" fill="none" xmlns="http://www.w3.org/2000/svg">
<g clip-path="url(#clip0_1535_27768)">
<path opacity="0.08" d="M17.5 0H2.5C1.11929 0 0 1.11929 0 2.5V17.5C0 18.8807 1.11929 20 2.5 20H17.5C18.8807 20 20 18.8807 20 17.5V2.5C20 1.11929 18.8807 0 17.5 0Z" fill="#B182BC"/>
<path fill-rule="evenodd" clip-rule="evenodd" d="M8.66666 7.16699C8.86584 7.16699 9.04603 7.28518 9.12534 7.46793L10.1565 9.84387L12.5324 10.8749C12.7151 10.9542 12.8333 11.1344 12.8333 11.3336C12.8333 11.5328 12.7151 11.713 12.5324 11.7923L10.1565 12.8234L9.12534 15.1994C9.04603 15.3821 8.86584 15.5003 8.66666 15.5003C8.46747 15.5003 8.28728 15.3821 8.20797 15.1994L7.17691 12.8234L4.80094 11.7923C4.61822 11.713 4.5 11.5328 4.5 11.3336C4.5 11.1344 4.61822 10.9542 4.80094 10.8749L7.17691 9.84387L8.20797 7.46793C8.28728 7.28518 8.46747 7.16699 8.66666 7.16699ZM8.66666 8.92293L8.01566 10.423C7.96516 10.5393 7.87234 10.6321 7.75603 10.6826L6.25597 11.3336L7.75603 11.9846C7.87234 12.0351 7.96516 12.1279 8.01566 12.2442L8.66666 13.7444L9.31766 12.2442C9.36816 12.1279 9.46097 12.0351 9.57728 11.9846L11.0774 11.3336L9.57728 10.6826C9.46097 10.6321 9.36816 10.5393 9.31766 10.423L8.66666 8.92293Z" fill="black"/>
<path fill-rule="evenodd" clip-rule="evenodd" d="M12.8347 4.16699C13.0338 4.16699 13.214 4.28522 13.2933 4.46794L13.8705 5.79784L15.2003 6.37499C15.3831 6.4543 15.5013 6.63449 15.5013 6.83368C15.5013 7.03287 15.3831 7.21305 15.2003 7.2923L13.8705 7.86949L13.2933 9.19937C13.214 9.38212 13.0338 9.5003 12.8347 9.5003C12.6355 9.5003 12.4553 9.38212 12.376 9.19937L11.7988 7.86949L10.4689 7.2923C10.2862 7.21305 10.168 7.03287 10.168 6.83368C10.168 6.63449 10.2862 6.4543 10.4689 6.37499L11.7988 5.79784L12.376 4.46794C12.4553 4.28522 12.6355 4.16699 12.8347 4.16699ZM12.8347 5.92293L12.6376 6.37699C12.5871 6.4933 12.4943 6.58612 12.378 6.63662L11.9239 6.83368L12.378 7.03074C12.4943 7.08118 12.5871 7.17399 12.6376 7.2903L12.8347 7.74437L13.0317 7.2903C13.0822 7.17399 13.175 7.08118 13.2913 7.03074L13.7453 6.83368L13.2913 6.63662C13.175 6.58612 13.0822 6.4933 13.0317 6.37699L12.8347 5.92293Z" fill="#B182BC"/>
</g>
<defs>
<clipPath id="clip0_1535_27768">
<rect width="20" height="20" fill="white"/>
</clipPath>
</defs>
</svg>
