<svg width="20" height="20" viewBox="0 0 20 20" fill="none" xmlns="http://www.w3.org/2000/svg">
<path d="M12.5651 1.67075C11.9773 1.67075 11.3897 1.8932 10.9448 2.33806L2.33807 10.9448C1.44835 11.8346 1.44835 13.2957 2.33807 14.1854L5.81463 17.662C6.70435 18.5517 8.16547 18.5517 9.05519 17.662L17.6628 9.05519C18.5522 8.16572 18.5516 6.70423 17.662 5.81463L14.1854 2.33806C13.7405 1.8932 13.1529 1.67075 12.5651 1.67075ZM12.5651 2.91261C12.8304 2.91261 13.0956 3.01588 13.3016 3.22185L16.7782 6.69841C17.1906 7.11053 17.1902 7.75855 16.7782 8.17058L8.1714 16.7782C7.75946 17.1901 7.11036 17.1901 6.69842 16.7782L3.22186 13.3016C2.80991 12.8897 2.80991 12.2406 3.22186 11.8286L3.95835 11.0921L4.76645 11.9002C4.82405 11.9602 4.89303 12.0081 4.96936 12.0411C5.04569 12.0741 5.12783 12.0915 5.21098 12.0924C5.29413 12.0932 5.37661 12.0775 5.4536 12.046C5.53058 12.0146 5.60052 11.9681 5.65932 11.9093C5.71812 11.8505 5.76459 11.7806 5.79603 11.7036C5.82746 11.6266 5.84321 11.5441 5.84236 11.461C5.84152 11.3778 5.82409 11.2957 5.7911 11.2193C5.75811 11.143 5.71023 11.074 5.65024 11.0164L4.84214 10.2083L6.04168 9.0088L7.68312 10.6502C7.74071 10.7102 7.80969 10.7581 7.88602 10.7911C7.96235 10.8241 8.0445 10.8415 8.12765 10.8424C8.2108 10.8432 8.29328 10.8275 8.37026 10.796C8.44725 10.7646 8.51719 10.7181 8.57599 10.6593C8.63479 10.6005 8.68126 10.5306 8.71269 10.4536C8.74412 10.3766 8.75988 10.2941 8.75903 10.211C8.75819 10.1278 8.74076 10.0457 8.70777 9.96935C8.67478 9.89302 8.62689 9.82404 8.56691 9.76645L6.92547 8.12501L8.12502 6.92547L8.93312 7.73357C8.99071 7.79355 9.05969 7.84144 9.13602 7.87443C9.21235 7.90742 9.2945 7.92485 9.37765 7.92569C9.4608 7.92654 9.54328 7.91078 9.62026 7.87935C9.69725 7.84792 9.76719 7.80145 9.82599 7.74265C9.88479 7.68385 9.93126 7.61391 9.96269 7.53693C9.99412 7.45994 10.0099 7.37746 10.009 7.29431C10.0082 7.21116 9.99076 7.12901 9.95777 7.05268C9.92478 6.97635 9.87689 6.90737 9.81691 6.84978L9.0088 6.04168L10.2083 4.84213L11.8498 6.48357C11.9074 6.54355 11.9764 6.59144 12.0527 6.62443C12.129 6.65742 12.2112 6.67485 12.2943 6.67569C12.3775 6.67654 12.4599 6.66078 12.5369 6.62935C12.6139 6.59792 12.6839 6.55145 12.7427 6.49265C12.8015 6.43385 12.8479 6.36391 12.8794 6.28693C12.9108 6.20994 12.9265 6.12746 12.9257 6.04431C12.9249 5.96116 12.9074 5.87901 12.8744 5.80268C12.8414 5.72635 12.7936 5.65737 12.7336 5.59978L11.0921 3.95834L11.8286 3.22185C12.0346 3.01588 12.2998 2.91261 12.5651 2.91261Z" fill="#251E19"/>
</svg>
