<svg width="20" height="20" viewBox="0 0 20 20" fill="none" xmlns="http://www.w3.org/2000/svg">
<path d="M14.7827 2.49185C14.617 2.49206 14.4551 2.54166 14.3177 2.63431C14.1804 2.72697 14.0737 2.85848 14.0114 3.01204C13.9492 3.1656 13.9341 3.33424 13.9681 3.49641C14.0021 3.65859 14.0837 3.80694 14.2025 3.92252L14.6582 4.37825C9.78191 4.45027 5.83333 8.44029 5.83333 13.3333C5.83177 13.4438 5.85217 13.5534 5.89335 13.6559C5.93453 13.7583 5.99566 13.8516 6.0732 13.9302C6.15074 14.0089 6.24313 14.0713 6.34501 14.114C6.44689 14.1566 6.55623 14.1785 6.66667 14.1785C6.7771 14.1785 6.88644 14.1566 6.98832 14.114C7.0902 14.0713 7.1826 14.0089 7.26013 13.9302C7.33767 13.8516 7.39881 13.7583 7.43998 13.6559C7.48116 13.5534 7.50156 13.4438 7.5 13.3333C7.5 9.3448 10.6781 6.12612 14.6476 6.04898L14.2025 6.49413C14.1225 6.57092 14.0586 6.66289 14.0147 6.76467C13.9707 6.86644 13.9474 6.97597 13.9463 7.08684C13.9452 7.1977 13.9662 7.30768 14.0081 7.41033C14.05 7.51298 14.112 7.60623 14.1904 7.68463C14.2688 7.76303 14.362 7.825 14.4647 7.86691C14.5673 7.90882 14.6773 7.92982 14.7882 7.92869C14.899 7.92756 15.0086 7.90432 15.1103 7.86034C15.2121 7.81635 15.3041 7.7525 15.3809 7.67252L17.1818 5.87157C17.2844 5.79362 17.3676 5.69294 17.4247 5.57743C17.4818 5.46193 17.5114 5.33475 17.5111 5.20589C17.5108 5.07702 17.4806 4.94999 17.4229 4.83477C17.3652 4.71954 17.2815 4.61927 17.1785 4.54182L15.3809 2.74413C15.3031 2.6642 15.2101 2.60069 15.1074 2.55736C15.0046 2.51403 14.8942 2.49175 14.7827 2.49185ZM5.20833 2.49999C3.72244 2.49999 2.5 3.72243 2.5 5.20832V14.7917C2.5 16.2776 3.72244 17.5 5.20833 17.5H14.7917C16.2776 17.5 17.5 16.2776 17.5 14.7917V11.6667C17.5016 11.5562 17.4812 11.4466 17.44 11.3441C17.3988 11.2416 17.3377 11.1484 17.2601 11.0697C17.1826 10.9911 17.0902 10.9287 16.9883 10.886C16.8864 10.8434 16.7771 10.8215 16.6667 10.8215C16.5562 10.8215 16.4469 10.8434 16.345 10.886C16.2431 10.9287 16.1507 10.9911 16.0732 11.0697C15.9957 11.1484 15.9345 11.2416 15.8934 11.3441C15.8522 11.4466 15.8318 11.5562 15.8333 11.6667V14.7917C15.8333 15.3766 15.3766 15.8333 14.7917 15.8333H5.20833C4.6234 15.8333 4.16667 15.3766 4.16667 14.7917V5.20832C4.16667 4.62339 4.6234 4.16666 5.20833 4.16666H8.33333C8.44376 4.16822 8.5534 4.14782 8.65587 4.10664C8.75834 4.06546 8.85161 4.00433 8.93025 3.92679C9.00889 3.84925 9.07134 3.75686 9.11396 3.65498C9.15659 3.5531 9.17854 3.44376 9.17854 3.33332C9.17854 3.22289 9.15659 3.11355 9.11396 3.01167C9.07134 2.90979 9.00889 2.81739 8.93025 2.73986C8.85161 2.66232 8.75834 2.60119 8.65587 2.56001C8.5534 2.51883 8.44376 2.49843 8.33333 2.49999H5.20833Z" fill="#251E19"/>
</svg>
