<svg width="20" height="20" viewBox="0 0 20 20" fill="none" xmlns="http://www.w3.org/2000/svg">
<path d="M2.42918 9.83999C7.66585 7.53624 14.4425 4.72749 15.3779 4.33874C17.8317 3.32124 18.5846 3.51624 18.2092 5.76957C17.9396 7.38916 17.1617 12.7512 16.5417 16.0887C16.1738 18.0679 15.3483 18.3025 14.0504 17.4462C13.4263 17.0342 10.2758 14.9508 9.5921 14.4617C8.96793 14.0158 8.1071 13.4796 9.18668 12.4233C9.57085 12.0471 12.0892 9.64249 14.0513 7.77082C14.3083 7.52499 13.9854 7.12124 13.6888 7.31832C11.0442 9.07207 7.37752 11.5062 6.91085 11.8233C6.20585 12.3021 5.52877 12.5217 4.31335 12.1725C3.39502 11.9087 2.49793 11.5942 2.14876 11.4742C0.804182 11.0125 1.12335 10.4146 2.42918 9.83999Z" fill="#251E19"/>
</svg>
