<svg width="20" height="20" viewBox="0 0 20 20" fill="none" xmlns="http://www.w3.org/2000/svg">
<path d="M2.70825 4.16666C1.6745 4.16666 0.833252 5.00791 0.833252 6.04166V13.125C0.833252 14.1587 1.6745 15 2.70825 15H3.0061C3.28085 15.9577 4.1667 16.6667 5.20825 16.6667C6.24981 16.6667 7.13565 15.9577 7.4104 15H11.0416C11.3866 15 11.6666 14.7204 11.6666 14.375V6.04166C11.6666 5.00791 10.8253 4.16666 9.79159 4.16666H2.70825ZM12.4999 5.83332V14.375C12.4999 15.6332 13.5334 16.6667 14.7916 16.6667C15.8331 16.6667 16.719 15.9577 16.9937 15H17.2916C18.327 15 19.1666 14.1604 19.1666 13.125V10.4736C19.1666 10.2111 19.1113 9.95149 19.0046 9.7119L17.7758 6.94742C17.475 6.26992 16.8036 5.83332 16.0627 5.83332H12.4999ZM14.1666 7.08332H16.0627C16.3098 7.08332 16.5332 7.22858 16.6332 7.45442L17.3184 8.99739C17.4409 9.2728 17.2396 9.58332 16.9384 9.58332H14.1666C13.9366 9.58332 13.7499 9.39666 13.7499 9.16666V7.49999C13.7499 7.26999 13.9366 7.08332 14.1666 7.08332ZM5.20825 13.3333C5.79009 13.3333 6.24992 13.7932 6.24992 14.375C6.24992 14.9568 5.79009 15.4167 5.20825 15.4167C4.62642 15.4167 4.16659 14.9568 4.16659 14.375C4.16659 13.7932 4.62642 13.3333 5.20825 13.3333ZM14.7916 13.3333C15.3734 13.3333 15.8333 13.7932 15.8333 14.375C15.8333 14.9568 15.3734 15.4167 14.7916 15.4167C14.2098 15.4167 13.7499 14.9568 13.7499 14.375C13.7499 13.7932 14.2098 13.3333 14.7916 13.3333Z" fill="#251E19"/>
</svg>
