<?xml version="1.0" encoding="utf-8"?>
<!-- Generator: Adobe Illustrator 19.0.0, SVG Export Plug-In . SVG Version: 6.00 Build 0)  -->
<svg version="1.1" id="Layer_1" xmlns="http://www.w3.org/2000/svg" xmlns:xlink="http://www.w3.org/1999/xlink" x="0px" y="0px"
	 viewBox="0 0 12 27" style="enable-background:new 0 0 12 27;" xml:space="preserve">
<style type="text/css">
	.st0{fill:#9E9F9F;}
	.st1{fill:#BC4F45;}
</style>
<g>
	<path class="st0" d="M6,0C2.7,0,0,2.7,0,6s2.7,6,6,6s6-2.7,6-6S9.3,0,6,0L6,0z M7.9,6.3L5.3,8.9C5.1,9,4.9,9,4.7,8.9
		c-0.2-0.2-0.2-0.4,0-0.6L7,6L4.7,3.7c-0.2-0.2-0.2-0.4,0-0.6C4.9,3,5.1,3,5.3,3.1l2.6,2.6C8,5.8,8,5.9,8,6C8,6.1,8,6.2,7.9,6.3
		L7.9,6.3z M7.9,6.3"/>
</g>
<g>
	<path class="st1" d="M6,15c-3.3,0-6,2.7-6,6s2.7,6,6,6s6-2.7,6-6S9.3,15,6,15L6,15z M7.9,21.3l-2.6,2.6c-0.2,0.2-0.4,0.2-0.6,0
		c-0.2-0.2-0.2-0.4,0-0.6L7,21l-2.3-2.3c-0.2-0.2-0.2-0.4,0-0.6c0.2-0.2,0.4-0.2,0.6,0l2.6,2.6C8,20.8,8,20.9,8,21
		C8,21.1,8,21.2,7.9,21.3L7.9,21.3z M7.9,21.3"/>
</g>
</svg>
