<svg xmlns="http://www.w3.org/2000/svg" width="854" height="200" viewBox="0 0 854 200" fill="none">
<path d="M99.7817 200C71.1432 200 47.3079 191.257 28.276 173.77C9.42534 156.102 0 133.424 0 105.738C0 77.8689 9.42534 55.1913 28.276 37.7049C47.1267 20.2186 70.9619 11.4754 99.7817 11.4754C121.532 11.4754 139.024 16.5756 152.255 26.776C165.668 36.9763 175.637 49.5446 182.163 64.4809L134.855 86.612C132.498 79.326 128.058 73.133 121.532 68.0328C115.007 62.7505 107.757 60.1093 99.7817 60.1093C86.7312 60.1093 76.1277 64.4809 67.9712 73.224C59.8146 81.9672 55.7364 92.8051 55.7364 105.738C55.7364 118.67 59.8146 129.508 67.9712 138.251C76.1277 146.995 86.7312 151.366 99.7817 151.366C107.757 151.366 115.007 148.816 121.532 143.716C128.058 138.434 132.498 132.149 134.855 124.863L182.163 146.721C179.263 153.461 175.637 159.745 171.287 165.574C166.937 171.22 161.499 176.776 154.974 182.24C148.449 187.705 140.383 192.076 130.777 195.355C121.351 198.452 111.02 200 99.7817 200Z" fill="#D0021B"/>
<path d="M244.108 196.721H195.169V14.4809H244.108V196.721Z" fill="#D0021B"/>
<path d="M312.037 47.2677C306.781 52.5501 300.346 55.1913 292.733 55.1913C285.121 55.1913 278.595 52.5501 273.158 47.2677C267.901 41.8033 265.273 35.2459 265.273 27.5956C265.273 19.9454 267.901 13.4791 273.158 8.19671C278.595 2.73224 285.121 0 292.733 0C300.346 0 306.781 2.73224 312.037 8.19671C317.475 13.4791 320.194 19.9454 320.194 27.5956C320.194 35.2459 317.475 41.8033 312.037 47.2677ZM317.203 196.721H268.264V64.7541H317.203V196.721Z" fill="#D0021B"/>
<path d="M406.067 200C384.86 200 367.278 193.625 353.321 180.874C339.365 168.124 332.386 151.366 332.386 130.601C332.386 110.018 339.365 93.3515 353.321 80.6011C367.278 67.8506 384.86 61.4754 406.067 61.4754C419.661 61.4754 431.262 64.0255 440.868 69.1257C450.475 74.0437 457.453 79.7814 461.803 86.3388L430.265 116.12C425.371 108.652 418.03 104.918 408.242 104.918C400.992 104.918 394.829 107.195 389.754 111.749C384.86 116.12 382.413 122.404 382.413 130.601C382.413 138.798 384.86 145.173 389.754 149.727C394.829 154.281 400.992 156.557 408.242 156.557C417.667 156.557 425.008 152.732 430.265 145.082L461.803 175.137C457.453 181.694 450.475 187.523 440.868 192.623C431.262 197.541 419.661 200 406.067 200Z" fill="#D0021B"/>
<path d="M615.833 196.721H555.746L533.18 154.098L523.664 166.94V196.721H474.725V14.4809H523.664V111.749L553.843 64.7541H612.842L567.709 124.863L615.833 196.721Z" fill="#D0021B"/>
<path d="M684.469 200C663.443 200 645.952 193.716 631.995 181.148C618.22 168.579 611.332 151.73 611.332 130.601C611.332 111.111 618.038 94.7177 631.451 81.4208C644.864 68.1239 661.993 61.4754 682.838 61.4754C702.595 61.4754 718.908 68.2149 731.777 81.694C744.646 94.9909 751.081 113.024 751.081 135.792V145.902H661.903C663.353 150.455 666.525 154.372 671.419 157.65C676.312 160.929 682.566 162.568 690.179 162.568C694.347 162.568 699.604 161.658 705.948 159.836C712.473 158.015 717.276 155.829 720.358 153.279L740.477 183.607C734.315 188.889 726.067 192.987 715.736 195.902C705.404 198.634 694.982 200 684.469 200ZM704.588 114.754C702.051 104.189 694.801 98.9071 682.838 98.9071C671.419 98.9071 664.259 104.189 661.359 114.754H704.588Z" fill="#D0021B"/>
<path d="M813.761 196.721H764.822V64.7541H813.761V79.235C817.93 74.3169 823.821 70.0364 831.434 66.3934C839.228 62.7505 846.75 60.929 854 60.929V107.923C851.281 107.013 847.565 106.557 842.853 106.557C828.533 106.557 818.836 109.654 813.761 115.847V196.721Z" fill="#D0021B"/>
</svg>