<?xml version="1.0" encoding="utf-8"?>
<!-- Generator: Adobe Illustrator 19.0.0, SVG Export Plug-In . SVG Version: 6.00 Build 0)  -->
<svg version="1.1" id="Layer_1" xmlns="http://www.w3.org/2000/svg" xmlns:xlink="http://www.w3.org/1999/xlink" x="0px" y="0px"
	 viewBox="0 0 16 37" style="enable-background:new 0 0 16 37;" xml:space="preserve">
<style type="text/css">
	.st0{fill:#969696;}
	.st1{fill:#BC4F45;}
</style>
<g>
	<path class="st0" d="M8,0C3.6,0,0,3.6,0,8c0,4.4,3.6,8,8,8c4.4,0,8-3.6,8-8C16,3.6,12.4,0,8,0L8,0z M12,8.8H4V7.2h8V8.8z M12,8.8"
		/>
</g>
<g>
	<path class="st1" d="M8,21c-4.4,0-8,3.6-8,8c0,4.4,3.6,8,8,8c4.4,0,8-3.6,8-8C16,24.6,12.4,21,8,21L8,21z M12,29.8H4v-1.6h8V29.8z
		 M12,29.8"/>
</g>
</svg>
