<svg xmlns="http://www.w3.org/2000/svg" fill="none" viewBox="0 0 95 49">
    <defs/>
    <path fill="url(#paint0_linear)" d="M23.42 22.2h-5.48l-1.38-3.76H6.89L5.47 22.2H0L8.72 0h6.01l8.69 22.2zm-8.18-7.92l-3.52-9.55-3.5 9.55h7.02z"/>
    <path fill="url(#paint1_linear)" d="M32.86 18.84c.68 0 1.37-.18 2.06-.54a4.2 4.2 0 001.63-1.3v-5.69a4.24 4.24 0 00-1.6-1.3c-.69-.35-1.39-.53-2.09-.53-1.21 0-2.2.44-2.97 1.3a4.88 4.88 0 00-1.15 3.36c0 1.4.38 2.53 1.15 3.4.77.86 1.76 1.3 2.97 1.3zm-1.35 3.76a6.7 6.7 0 01-5.24-2.27c-1.32-1.5-1.99-3.57-1.99-6.19 0-2.61.67-4.67 2-6.15a6.7 6.7 0 015.23-2.27c2.07 0 3.75.81 5.04 2.43V6.12h4.32v22.2h-4.32v-8.19a6.15 6.15 0 01-5.04 2.47z"/>
    <path fill="url(#paint2_linear)" d="M60.4 22.2h-4.29v-2.03a7.38 7.38 0 01-5.74 2.43c-1.76 0-3.08-.45-3.96-1.34a5.07 5.07 0 01-1.32-3.72V6.12h4.3v9.75c0 1.98 1 2.97 3 2.97 1.51 0 2.75-.61 3.72-1.83V6.12h4.3V22.2z"/>
    <path fill="url(#paint3_linear)" d="M78.75 22.2h-4.29v-1.67c-1.17 1.38-2.9 2.07-5.17 2.07a6.19 6.19 0 01-3.95-1.4 4.83 4.83 0 01-1.73-3.93c0-1.73.57-3.03 1.7-3.9a6.45 6.45 0 013.98-1.29c2.32 0 4.04.65 5.17 1.96v-2.16c0-.82-.33-1.48-.98-1.96a4.24 4.24 0 00-2.6-.74 6.9 6.9 0 00-4.76 1.9l-1.63-2.83a10.48 10.48 0 017.13-2.53c2.1 0 3.81.48 5.14 1.43 1.33.96 2 2.51 2 4.66V22.2zm-7.74-2.47c1.6 0 2.75-.46 3.45-1.4v-1.99c-.7-.93-1.85-1.4-3.45-1.4-.87 0-1.6.22-2.2.67-.58.42-.87 1-.87 1.76 0 .73.3 1.31.88 1.73.58.42 1.32.63 2.2.63z"/>
    <path fill="url(#paint4_linear)" d="M42.25 48.6h-6.02l-8.71-22.2h5.47l6.25 17.08 6.22-17.08h5.47l-8.68 22.2z"/>
    <path fill="url(#paint5_linear)" d="M55.04 30.8c-.7 0-1.3-.25-1.82-.74a2.5 2.5 0 010-3.56 2.57 2.57 0 011.82-.73c.72 0 1.33.25 1.82.73a2.5 2.5 0 010 3.56c-.5.5-1.1.74-1.82.74zm2.16 17.8h-4.29V32.53h4.3V48.6z"/>
    <path fill="url(#paint6_linear)" d="M70.31 48.6h-4.63l-6.55-16.07h4.6l4.25 11.18 4.26-11.18h4.63L70.3 48.6z"/>
    <path fill="url(#paint7_linear)" d="M92.63 46.57C91.06 48.2 88.96 49 86.35 49c-2.61 0-4.7-.81-6.28-2.43a8.43 8.43 0 01-2.34-6.02c0-2.38.78-4.37 2.34-6 1.57-1.61 3.67-2.42 6.28-2.42 2.61 0 4.7.8 6.28 2.43A8.25 8.25 0 0195 40.55c0 2.37-.79 4.38-2.37 6.02zm-9.32-2.66a3.76 3.76 0 003.04 1.33c1.28 0 2.3-.44 3.04-1.33a5.04 5.04 0 001.15-3.36c0-1.31-.38-2.41-1.15-3.3a3.72 3.72 0 00-3.04-1.36c-1.28 0-2.3.45-3.04 1.36a4.96 4.96 0 00-1.12 3.3c0 1.33.38 2.45 1.12 3.36z"/>
    <defs>
        <linearGradient id="paint0_linear" x1="28.38" x2="109.26" y1="11.08" y2="32.91" gradientUnits="userSpaceOnUse">
            <stop stop-color="#352F2F"/>
            <stop offset="1" stop-color="#D2142A"/>
        </linearGradient>
        <linearGradient id="paint1_linear" x1="28.38" x2="109.26" y1="11.08" y2="32.91" gradientUnits="userSpaceOnUse">
            <stop stop-color="#352F2F"/>
            <stop offset="1" stop-color="#D2142A"/>
        </linearGradient>
        <linearGradient id="paint2_linear" x1="28.38" x2="109.26" y1="11.08" y2="32.91" gradientUnits="userSpaceOnUse">
            <stop stop-color="#352F2F"/>
            <stop offset="1" stop-color="#D2142A"/>
        </linearGradient>
        <linearGradient id="paint3_linear" x1="28.38" x2="109.26" y1="11.08" y2="32.91" gradientUnits="userSpaceOnUse">
            <stop stop-color="#352F2F"/>
            <stop offset="1" stop-color="#D2142A"/>
        </linearGradient>
        <linearGradient id="paint4_linear" x1="28.38" x2="109.26" y1="11.08" y2="32.91" gradientUnits="userSpaceOnUse">
            <stop stop-color="#352F2F"/>
            <stop offset="1" stop-color="#D2142A"/>
        </linearGradient>
        <linearGradient id="paint5_linear" x1="28.38" x2="109.26" y1="11.08" y2="32.91" gradientUnits="userSpaceOnUse">
            <stop stop-color="#352F2F"/>
            <stop offset="1" stop-color="#D2142A"/>
        </linearGradient>
        <linearGradient id="paint6_linear" x1="28.38" x2="109.26" y1="11.08" y2="32.91" gradientUnits="userSpaceOnUse">
            <stop stop-color="#352F2F"/>
            <stop offset="1" stop-color="#D2142A"/>
        </linearGradient>
        <linearGradient id="paint7_linear" x1="28.38" x2="109.26" y1="11.08" y2="32.91" gradientUnits="userSpaceOnUse">
            <stop stop-color="#352F2F"/>
            <stop offset="1" stop-color="#D2142A"/>
        </linearGradient>
    </defs>
</svg>