<svg xmlns="http://www.w3.org/2000/svg" width="21" height="21" viewBox="0 0 21 21" fill="none">
<path fill-rule="evenodd" clip-rule="evenodd" d="M10.5272 19.9017H10.5232C8.93091 19.9012 7.36631 19.5017 5.97667 18.7437L0.933105 20.0667L2.28285 15.1366C1.45026 13.6937 1.01216 12.057 1.01287 10.3802C1.01496 5.1345 5.28298 0.866699 10.5271 0.866699C13.0722 0.867798 15.461 1.85861 17.2572 3.65697C19.0535 5.45525 20.0422 7.84559 20.0412 10.3877C20.0391 15.6322 15.7728 19.8996 10.5272 19.9017ZM6.21035 17.0213L6.49911 17.1927C7.71323 17.9131 9.10497 18.2944 10.524 18.2949H10.5272C14.8857 18.2949 18.4331 14.7475 18.4348 10.3872C18.4356 8.27417 17.6139 6.28742 16.1209 4.79269C14.6279 3.29796 12.6424 2.47439 10.5303 2.47365C6.16839 2.47365 2.62096 6.02077 2.61923 10.3807C2.61861 11.8749 3.03669 13.3301 3.82826 14.5891L4.01628 14.8883L3.21743 17.8064L6.21035 17.0213ZM14.9947 12.4361C15.1605 12.5162 15.2725 12.5703 15.3203 12.6501C15.3797 12.7492 15.3797 13.2252 15.1817 13.7806C14.9835 14.3359 14.0338 14.8427 13.577 14.9109C13.1675 14.9722 12.6492 14.9977 12.0797 14.8167C11.7345 14.7072 11.2917 14.5609 10.7245 14.316C8.49588 13.3536 6.98979 11.1936 6.70514 10.7854C6.6852 10.7568 6.67125 10.7368 6.66347 10.7264L6.66156 10.7238C6.53575 10.556 5.69278 9.43126 5.69278 8.26721C5.69278 7.17219 6.23067 6.59823 6.47827 6.33404C6.49523 6.31594 6.51083 6.29929 6.5248 6.28403C6.7427 6.04603 7.00026 5.98653 7.15873 5.98653C7.3172 5.98653 7.47585 5.988 7.61436 5.99495C7.63145 5.99581 7.64922 5.99571 7.6676 5.9956C7.80614 5.99479 7.97885 5.99378 8.14922 6.40303C8.21477 6.56053 8.31068 6.79402 8.41183 7.04028C8.61639 7.5383 8.84241 8.08854 8.88217 8.16817C8.94162 8.28717 8.98123 8.42594 8.90199 8.58467C8.8901 8.60847 8.87909 8.63093 8.86858 8.65239C8.80907 8.77389 8.76529 8.86327 8.66428 8.98121C8.62455 9.02759 8.5835 9.07759 8.54245 9.12758C8.46066 9.22718 8.37889 9.32677 8.30768 9.39771C8.18867 9.51625 8.06478 9.64487 8.20345 9.88287C8.34212 10.1209 8.81922 10.8993 9.52594 11.5297C10.2856 12.2073 10.9459 12.4937 11.2806 12.6389C11.3459 12.6672 11.3989 12.6902 11.4377 12.7096C11.6753 12.8286 11.814 12.8087 11.9527 12.6501C12.0914 12.4915 12.547 11.9559 12.7054 11.718C12.8639 11.4801 13.0224 11.5197 13.2403 11.599C13.4582 11.6784 14.627 12.2534 14.8647 12.3724C14.9111 12.3957 14.9545 12.4166 14.9947 12.4361Z" fill="#ffffff"/>
</svg>