<svg width="44" height="44" viewBox="0 0 44 44" fill="none" xmlns="http://www.w3.org/2000/svg">
<path d="M38.3711 31.4101H6.64211C6.22102 31.4101 5.76125 31.3568 5.34273 31.4101C5.32356 31.4114 5.30433 31.4114 5.28516 31.4101L5.88672 32.0117V28.4882L5.28516 29.0898H37.0141C37.4352 29.0898 37.895 29.1431 38.3135 29.0898C38.3327 29.0885 38.3519 29.0885 38.3711 29.0898L37.7695 28.4882V32.0117C37.7695 32.7851 38.9727 32.7851 38.9727 32.0117V28.4882C38.9702 28.3295 38.9061 28.1779 38.7938 28.0656C38.6815 27.9533 38.5299 27.8891 38.3711 27.8867H9.37492C8.03516 27.8867 6.68164 27.8291 5.34273 27.8867H5.28516C5.12637 27.8891 4.97477 27.9533 4.86248 28.0656C4.75019 28.1779 4.68603 28.3295 4.68359 28.4882V32.0117C4.68603 32.1705 4.75019 32.3221 4.86248 32.4343C4.97477 32.5466 5.12637 32.6108 5.28516 32.6132H34.2813C35.6211 32.6132 36.9746 32.6708 38.3135 32.6132H38.3711C39.1454 32.6132 39.1463 31.4101 38.3711 31.4101Z" fill="white"/>
<path d="M31.9258 32.1836V36.7383L32.5273 36.1367H11.5586L12.1602 36.7383V32.1836C12.1602 31.4102 10.957 31.4102 10.957 32.1836V36.7383C10.9595 36.8971 11.0236 37.0487 11.1359 37.161C11.2482 37.2732 11.3998 37.3374 11.5586 37.3398H32.5273C32.6861 37.3374 32.8377 37.2732 32.95 37.161C33.0623 37.0487 33.1265 36.8971 33.1289 36.7383V32.1836C33.1289 31.4102 31.9258 31.4102 31.9258 32.1836Z" fill="white"/>
<path d="M12.1602 28.4883V25.3086L11.5586 25.9102H32.5273L31.9258 25.3086V28.4883C31.9258 29.2617 33.1289 29.2617 33.1289 28.4883V25.3086C33.1265 25.1498 33.0623 24.9982 32.95 24.8859C32.8377 24.7736 32.6861 24.7095 32.5273 24.707H11.5586C11.3998 24.7095 11.2482 24.7736 11.1359 24.8859C11.0236 24.9982 10.9595 25.1498 10.957 25.3086V28.4883C10.957 29.2617 12.1602 29.2617 12.1602 28.4883Z" fill="white"/>
<path d="M12.0777 25.6094L17.0431 16.2061L17.7495 14.8672L17.2339 15.1654H26.8589L26.3433 14.8672L31.3079 24.2713L32.0083 25.6094C32.3692 26.2969 33.4082 25.6876 33.0464 25.0026L28.0818 15.6011L27.3745 14.2656C27.3219 14.1754 27.2466 14.1005 27.1562 14.0482C27.0658 13.9959 26.9634 13.9681 26.8589 13.9674H17.2339C17.1295 13.9681 17.027 13.9959 16.9366 14.0482C16.8462 14.1005 16.771 14.1754 16.7183 14.2656L11.7459 23.6663L11.0395 25.0078C10.6777 25.6953 11.7159 26.2969 12.0777 25.6145V25.6094Z" fill="white"/>
<path d="M21.1406 14.5664V5.75781L20.5391 6.35938H23.5469L22.9453 5.75781V14.5664C22.9453 15.3398 24.1484 15.3398 24.1484 14.5664V5.75781C24.146 5.59903 24.0818 5.44743 23.9695 5.33514C23.8573 5.22285 23.7057 5.15869 23.5469 5.15625H20.5391C20.3803 5.15869 20.2287 5.22285 20.1164 5.33514C20.0041 5.44743 19.9399 5.59903 19.9375 5.75781V14.5664C19.9375 15.3398 21.1406 15.3398 21.1406 14.5664Z" fill="white"/>
</svg>
