<svg width="44" height="44" viewBox="0 0 44 44" fill="none" xmlns="http://www.w3.org/2000/svg">
<path d="M10.6133 27.9941C10.6356 25.7649 12.0278 23.6844 14.1522 22.9238C15.2001 22.5506 16.3371 22.5063 17.4109 22.7969C18.4847 23.0875 19.4442 23.699 20.1609 24.5498C21.6219 26.284 21.7877 28.8466 20.6241 30.7768C19.4752 32.682 17.1772 33.7262 14.9866 33.2887C13.7609 33.0406 12.6576 32.3789 11.8615 31.4144C11.0653 30.45 10.6247 29.2413 10.6133 27.9907C10.6056 27.2172 9.40243 27.2172 9.41016 27.9907C9.42166 29.3472 9.84572 30.6681 10.626 31.7777C11.4062 32.8874 12.5058 33.7334 13.7784 34.2031C16.341 35.1484 19.3583 34.3123 21.083 32.2008C22.8319 30.0601 23.0983 26.9835 21.6623 24.6013C20.2263 22.2191 17.4359 21.0126 14.7237 21.5256C11.6506 22.1083 9.4411 24.9021 9.41016 27.995C9.40243 28.7684 10.6056 28.7693 10.6133 27.9941Z" fill="white"/>
<path d="M26.7695 11.2149C26.7695 10.858 26.8754 10.509 27.0737 10.2123C27.272 9.91548 27.5538 9.68417 27.8836 9.54758C28.2134 9.41099 28.5762 9.37525 28.9263 9.44488C29.2764 9.51452 29.5979 9.6864 29.8503 9.93879C30.1027 10.1912 30.2746 10.5127 30.3442 10.8628C30.4139 11.2129 30.3781 11.5758 30.2415 11.9055C30.1049 12.2353 29.8736 12.5171 29.5769 12.7154C29.2801 12.9137 28.9312 13.0196 28.5742 13.0196C27.5696 13.0196 26.7936 12.2006 26.7695 11.2149C26.7506 10.4415 25.5475 10.4415 25.5664 11.2149C25.5739 11.8322 25.7681 12.4329 26.1235 12.9377C26.4789 13.4425 26.9789 13.8279 27.5576 14.0431C27.9936 14.2013 28.4603 14.2564 28.9211 14.2044C29.382 14.1523 29.8246 13.9943 30.2143 13.7428C30.604 13.4913 30.9302 13.1531 31.1675 12.7546C31.4048 12.3561 31.5468 11.9082 31.5823 11.4457C31.6178 10.9833 31.5458 10.5189 31.3721 10.0889C31.1984 9.65883 30.9275 9.27481 30.5808 8.9668C30.234 8.65879 29.8207 8.43514 29.3732 8.31334C28.9257 8.19154 28.456 8.17488 28.001 8.26466C26.5805 8.52247 25.6008 9.80552 25.5664 11.2149C25.5475 11.9892 26.7506 11.9892 26.7695 11.2149Z" fill="white"/>
<path d="M32.7852 24.9648C32.7854 24.7295 32.8548 24.4994 32.9845 24.303C33.1143 24.1066 33.2988 23.9526 33.5152 23.8601C33.7316 23.7675 33.9704 23.7405 34.202 23.7823C34.4337 23.8241 34.6479 23.933 34.8183 24.0954C34.9887 24.2577 35.1077 24.4665 35.1606 24.6959C35.2135 24.9252 35.198 25.165 35.116 25.3857C35.0339 25.6063 34.889 25.798 34.6991 25.937C34.5092 26.0761 34.2827 26.1564 34.0476 26.168C33.3515 26.2049 32.8075 25.6446 32.7852 24.9648C32.7602 24.1914 31.5571 24.1914 31.582 24.9648C31.6241 26.272 32.6502 27.3711 33.9883 27.3711C34.6265 27.3711 35.2385 27.1176 35.6898 26.6663C36.141 26.2151 36.3945 25.603 36.3945 24.9648C36.3945 24.3267 36.141 23.7146 35.6898 23.2634C35.2385 22.8121 34.6265 22.5586 33.9883 22.5586C32.6502 22.5586 31.6241 23.6577 31.582 24.9648C31.5571 25.7391 32.7602 25.7383 32.7852 24.9648Z" fill="white"/>
<path d="M15.1465 19.2809L15.5762 16.7458L14.9961 17.1875H16.9297L16.3496 16.7458L16.9082 19.2809C17.0749 20.0372 18.2351 19.7166 18.0684 18.9613L17.5098 16.4261C17.4738 16.2997 17.3978 16.1883 17.2932 16.1087C17.1887 16.0291 17.0611 15.9855 16.9297 15.9844H14.9961C14.7546 15.9844 14.4598 16.1691 14.416 16.4261L13.9863 18.9613C13.8583 19.7184 15.0176 20.0441 15.1465 19.2809Z" fill="white"/>
<path d="M10.9588 20.8829L10.1071 18.4569L9.8304 19.1358L11.5225 18.199L10.7929 18.1054L12.5116 20.0527C13.0273 20.6345 13.8729 19.7811 13.3624 19.2019L11.6437 17.2546C11.4658 17.0526 11.1384 17.0372 10.9149 17.1609L9.22282 18.0968C9.00454 18.2179 8.86102 18.5316 8.94696 18.7765L9.79688 21.2051C10.0547 21.9304 11.2148 21.6185 10.957 20.8854L10.9588 20.8829Z" fill="white"/>
<path d="M23.1026 22.8852L25.5166 22L24.8359 21.7233L25.7959 23.4025L25.8895 22.6729L23.9663 24.4166C23.3913 24.9374 24.2447 25.7864 24.817 25.2674L26.7403 23.5237C26.8332 23.4291 26.8927 23.3067 26.9098 23.1752C26.9269 23.0436 26.9006 22.9101 26.8348 22.7949L25.8758 21.1166C25.7529 20.9017 25.4418 20.7496 25.196 20.8399L22.782 21.725C22.061 21.9897 22.373 23.1533 23.1026 22.8852Z" fill="white"/>
<path d="M19.6187 20.0501L21.3022 18.1071L20.5726 18.2007L22.2252 19.2045L21.9493 18.5247L21.1105 20.9817C20.8596 21.7165 22.0215 22.0318 22.2707 21.3014L23.1095 18.8453C23.1954 18.5918 23.051 18.2979 22.8327 18.1655L21.1802 17.1618C20.9662 17.032 20.6216 17.0586 20.4514 17.2563L18.7679 19.1993C18.2634 19.7829 19.1116 20.6371 19.6187 20.0501Z" fill="white"/>
<path d="M23.998 31.5493L25.9634 33.2071L25.8672 32.4774L24.8875 34.1438L25.5673 33.8671L23.0991 33.0601C22.3618 32.8195 22.0455 33.9805 22.7795 34.2203L25.2467 35.0272C25.3747 35.0612 25.5103 35.0526 25.6329 35.0027C25.7556 34.9528 25.8586 34.8642 25.9265 34.7505L26.9087 33.0859C27.0342 32.8728 27.0153 32.5264 26.8142 32.3571L24.8488 30.6994C24.261 30.2027 23.4051 31.05 23.998 31.5502V31.5493Z" fill="white"/>
<path d="M24.7337 27.1192L27.2559 27.6177L26.8125 27.0376L26.7601 28.9703L27.2018 28.3903L24.652 28.8801C23.8932 29.0253 24.2146 30.1855 24.9726 30.0403L27.5215 29.5504C27.7836 29.5006 27.9563 29.2195 27.9632 28.9703L28.0156 27.0376C28.0225 26.791 27.8257 26.5074 27.5739 26.4575L25.0516 25.9591C24.2954 25.8096 23.9714 26.9688 24.732 27.1192H24.7337Z" fill="white"/>
<path d="M16.8979 36.6464L16.4682 39.1815L17.0483 38.7398H15.1147L15.6948 39.1815L15.1362 36.6464C14.9694 35.8901 13.8093 36.2098 13.976 36.9661L14.5346 39.5012C14.5707 39.6276 14.6467 39.7388 14.7513 39.8184C14.8558 39.898 14.9833 39.9417 15.1147 39.9429H17.0483C17.2898 39.9429 17.5854 39.7573 17.6284 39.5012L18.058 36.9661C18.1861 36.209 17.0268 35.8833 16.8979 36.6464Z" fill="white"/>
<path d="M21.0856 35.0419L21.9373 37.4687L22.214 36.7898L20.5227 37.7265L21.2515 37.8211L19.5327 35.8737C19.0171 35.2911 18.1715 36.1453 18.682 36.7245L20.4007 38.6718C20.5786 38.8738 20.906 38.8893 21.1295 38.7655L22.8216 37.8297C23.0399 37.7085 23.1834 37.394 23.0974 37.1499L22.2458 34.7187C21.988 33.9926 20.8278 34.3054 21.0856 35.0384V35.0419Z" fill="white"/>
<path d="M8.94266 33.0412L6.53126 33.9273L7.21016 34.2031L6.24766 32.5248L6.15399 33.2578L8.07813 31.5107C8.65305 30.9899 7.79969 30.1409 7.22735 30.6599L5.30321 32.4036C5.21041 32.4983 5.15099 32.6207 5.13393 32.7521C5.11687 32.8836 5.14311 33.0171 5.20868 33.1323L6.1686 34.8107C6.29149 35.0255 6.59829 35.1768 6.84837 35.0874L9.26235 34.2031C9.98337 33.9393 9.67141 32.7757 8.94266 33.043V33.0412Z" fill="white"/>
<path d="M12.4257 35.8763L10.7422 37.8202L11.4718 37.7265L9.81922 36.7228L10.0951 37.4017L10.9338 34.9456C11.1848 34.2109 10.0229 33.8955 9.77367 34.6251L8.9375 37.082C8.85156 37.3355 8.99594 37.6294 9.21422 37.7618L10.8668 38.7655C11.0808 38.8953 11.4254 38.8687 11.5955 38.671L13.2791 36.7271C13.7835 36.1444 12.9353 35.2902 12.4283 35.8763H12.4257Z" fill="white"/>
<path d="M8.04633 24.3779L6.08094 22.7201L6.17462 23.4489L7.15688 21.7834L6.47712 22.0601L8.94524 22.8662C9.68258 23.1077 9.99884 21.9467 9.26493 21.7069L6.79766 20.9C6.66968 20.8659 6.5341 20.8746 6.41144 20.9245C6.28879 20.9744 6.18574 21.0629 6.1179 21.1767L5.13563 22.8421C5.01016 23.0553 5.02907 23.4016 5.23016 23.5709L7.19555 25.2286C7.78337 25.7254 8.6393 24.878 8.04633 24.3779Z" fill="white"/>
<path d="M7.3107 28.808L4.78844 28.3095L5.23016 28.8896L5.28258 26.9569L4.84086 27.5369L7.39062 27.0471C8.15031 26.9019 7.82805 25.7417 7.07094 25.8869L4.52117 26.3768C4.26336 26.4266 4.08633 26.7068 4.07945 26.9569L4.02703 28.8896C4.02016 29.1362 4.21695 29.4198 4.46875 29.4697L6.99101 29.9681C7.74726 30.1176 8.07125 28.9583 7.3107 28.808Z" fill="white"/>
<path d="M9.57774 22.6403L10.7809 21.5231C11.3498 20.9954 10.4973 20.1481 9.93008 20.6723L8.72695 21.7895C8.15805 22.3171 9.01055 23.1645 9.57774 22.6403Z" fill="white"/>
<path d="M22.1246 35.273L23.3277 34.0699C23.876 33.5216 23.0252 32.6708 22.4769 33.2191L21.2738 34.4222C20.7255 34.9705 21.5763 35.8213 22.1246 35.273Z" fill="white"/>
<path d="M7.8418 26.4997L8.27148 24.9529C8.47945 24.2061 7.31844 23.8872 7.11133 24.6332L6.68164 26.1801C6.47367 26.9269 7.63469 27.2457 7.8418 26.4997Z" fill="white"/>
<path d="M25.0293 31.0544L25.3731 29.6794C25.5613 28.9283 24.4011 28.6077 24.2129 29.3597L23.8691 30.7347C23.6809 31.4858 24.8411 31.8063 25.0293 31.0544Z" fill="white"/>
<path d="M13.2653 20.2167L14.6403 19.7871C15.3768 19.5567 15.0623 18.3949 14.3206 18.6269L12.9456 19.0566C12.2091 19.2869 12.5237 20.4488 13.2653 20.2167Z" fill="white"/>
<path d="M23.7832 25.0387L24.2988 26.6715C24.5309 27.4072 25.6927 27.0935 25.459 26.3519L24.9434 24.719C24.7113 23.9834 23.5494 24.2971 23.7832 25.0387Z" fill="white"/>
<path d="M21.2738 21.609L22.391 22.7262C22.9393 23.2744 23.7901 22.4237 23.2418 21.8754L22.1246 20.7582C21.5763 20.2099 20.7255 21.0607 21.2738 21.609Z" fill="white"/>
<path d="M17.3284 19.7012L18.8753 20.1309C19.6221 20.3389 19.9409 19.1779 19.195 18.9707L17.6481 18.5411C16.9013 18.3331 16.5825 19.4941 17.3284 19.7012Z" fill="white"/>
<path d="M17.6481 37.3184L19.1091 36.8887C19.8507 36.6704 19.5344 35.5094 18.7894 35.7286L17.3284 36.1583C16.5868 36.3765 16.903 37.5376 17.6481 37.3184Z" fill="white"/>
<path d="M12.8597 36.8887L14.2347 37.3184C14.9755 37.5495 15.2926 36.3885 14.5544 36.1582L13.1794 35.7285C12.4386 35.4973 12.1215 36.6584 12.8597 36.8887Z" fill="white"/>
<path d="M8.72695 34.0699L9.84413 35.1012C9.95855 35.211 10.111 35.2722 10.2695 35.2722C10.4281 35.2722 10.5805 35.211 10.6949 35.1012C10.9184 34.8777 10.9347 34.4713 10.6949 34.2504L9.57773 33.2192C9.46331 33.1094 9.31089 33.0481 9.15234 33.0481C8.99378 33.0481 8.84136 33.1094 8.72695 33.2192C8.50351 33.4426 8.48718 33.8491 8.72695 34.0699Z" fill="white"/>
<path d="M6.5957 29.5934L7.11132 31.2262C7.34336 31.9619 8.50523 31.6482 8.27148 30.9065L7.75586 29.2737C7.52382 28.5381 6.36195 28.8518 6.5957 29.5934Z" fill="white"/>
<path d="M27.7793 6.73406L28.4668 4.84344L27.8867 5.28516H29.3477L28.7676 4.84344L29.3691 6.73406C29.6029 7.46883 30.7648 7.15516 30.5293 6.41438L29.9277 4.52375C29.8904 4.39812 29.8141 4.28761 29.7098 4.20821C29.6055 4.12881 29.4787 4.08462 29.3477 4.08203H27.8867C27.7558 4.08501 27.6292 4.12935 27.525 4.2087C27.4208 4.28804 27.3443 4.39832 27.3066 4.52375L26.6191 6.41438C26.3545 7.14313 27.5163 7.45766 27.7793 6.73406Z" fill="white"/>
<path d="M31.1884 7.48514L33.0077 6.62577L32.279 6.53123L33.3171 7.56248L33.2226 6.83373L32.3194 8.59373C31.9679 9.28123 33.0069 9.89139 33.3584 9.20131L34.2616 7.43444C34.3257 7.31886 34.3512 7.18579 34.3344 7.05468C34.3175 6.92357 34.2592 6.80128 34.1679 6.70569L33.1298 5.67444C32.9261 5.47248 32.6459 5.46389 32.401 5.57991L30.5817 6.4453C29.8822 6.7753 30.4958 7.81342 31.1884 7.48428V7.48514Z" fill="white"/>
<path d="M29.7894 7.24027L30.6058 7.54105C30.9014 7.65019 31.2778 7.41902 31.3457 7.12082C31.423 6.77707 31.2426 6.49777 30.9255 6.3809L30.1091 6.08012C29.8134 5.97098 29.437 6.20215 29.3691 6.50035C29.2918 6.8441 29.4723 7.1234 29.7894 7.24027Z" fill="white"/>
<path d="M32.334 9.18329L32.5488 9.91376C32.6348 10.2154 32.9785 10.4354 33.2888 10.334C33.4412 10.2895 33.5704 10.1873 33.6488 10.0492C33.7273 9.91108 33.7489 9.74783 33.709 9.59407L33.4941 8.8636C33.4082 8.56196 33.0645 8.34196 32.7542 8.44337C32.6017 8.48788 32.4726 8.59002 32.3941 8.72815C32.3157 8.86628 32.2941 9.02953 32.334 9.18329Z" fill="white"/>
<path d="M33.1719 10.456L35.053 11.1693L34.6113 10.5892L34.5916 12.0501L35.0333 11.47L33.1341 12.0458C32.3959 12.2701 32.7104 13.4311 33.4546 13.206L35.353 12.6302C35.4786 12.5929 35.5891 12.5165 35.6685 12.4123C35.7479 12.308 35.7921 12.1812 35.7947 12.0501L35.8145 10.5892C35.8145 10.3047 35.6211 10.1036 35.3727 10.0091L33.4916 9.29582C32.7671 9.02168 32.4534 10.1836 33.1719 10.456Z" fill="white"/>
<path d="M32.3684 13.8599L33.2028 15.6904L33.2965 14.9617L32.2549 15.9843L32.9837 15.8906L31.2297 14.9642C30.5422 14.6024 29.9406 15.6406 30.6221 16.0032L32.3761 16.9296C32.4919 16.9939 32.6252 17.0194 32.7565 17.0024C32.8878 16.9854 33.0102 16.9267 33.1057 16.8351L34.1473 15.8124C34.3535 15.6096 34.3535 15.3286 34.2418 15.0837L33.4073 13.2532C33.0868 12.5494 32.0495 13.1604 32.3684 13.8599Z" fill="white"/>
<path d="M32.7817 12.375L32.3744 13.1356C32.2266 13.4131 32.2953 13.8033 32.5901 13.9588C32.8694 14.1066 33.2552 14.0396 33.4134 13.7431L33.8198 12.9817C33.9685 12.705 33.8989 12.3149 33.6041 12.1593C33.3248 12.0115 32.9398 12.0785 32.7817 12.375Z" fill="white"/>
<path d="M30.6487 14.9317L29.9062 15.1818C29.6089 15.2832 29.382 15.6003 29.4869 15.9217C29.5823 16.2173 29.9071 16.4502 30.2268 16.3419L30.9659 16.0918C31.2632 15.9913 31.4901 15.6733 31.3861 15.3519C31.2907 15.0563 30.965 14.8234 30.6462 14.9317H30.6487Z" fill="white"/>
<path d="M29.3906 15.7351L28.7031 17.6258L29.2832 17.1841H27.8223L28.4023 17.6258L27.8008 15.7351C27.567 15.0004 26.4052 15.3141 26.6406 16.0548L27.2422 17.9455C27.2794 18.0712 27.3557 18.1817 27.46 18.2612C27.5643 18.3406 27.6912 18.3847 27.8223 18.3872H29.2832C29.5651 18.3872 29.7713 18.1973 29.8633 17.9455L30.5508 16.0548C30.8155 15.3261 29.6536 15.0124 29.3906 15.7351Z" fill="white"/>
<path d="M25.978 14.984L24.1596 15.8434L24.8884 15.9379L23.8502 14.9067L23.9448 15.6363L24.848 13.8694C25.1994 13.1819 24.1605 12.5718 23.809 13.2618L22.9058 15.0287C22.8416 15.1443 22.8161 15.2774 22.8329 15.4085C22.8498 15.5396 22.9081 15.6619 22.9994 15.7575L24.0376 16.7887C24.2412 16.9898 24.5214 16.9984 24.7663 16.8824L26.5856 16.023C27.2851 15.693 26.6716 14.6549 25.978 14.984Z" fill="white"/>
<path d="M27.2731 15.1895L26.5616 14.9317C26.2659 14.8234 25.8895 15.0529 25.8216 15.3519C25.7443 15.6957 25.9248 15.9758 26.2419 16.0918L26.9534 16.3497C27.2491 16.4579 27.6255 16.2285 27.6934 15.9294C27.7707 15.5857 27.5902 15.3055 27.2731 15.1895Z" fill="white"/>
<path d="M24.8359 13.286L24.6022 12.5125C24.5111 12.2117 24.1768 11.99 23.8623 12.0923C23.5477 12.1946 23.3466 12.5099 23.442 12.8322L23.6758 13.6056C23.7669 13.9064 24.1012 14.1281 24.4157 14.0259C24.7302 13.9236 24.9313 13.6082 24.8359 13.286Z" fill="white"/>
<path d="M23.998 12.0132L22.1169 11.2999L22.5586 11.88L22.5784 10.419L22.1366 11L24.035 10.4242C24.7741 10.1999 24.4595 9.03889 23.7153 9.26405L21.817 9.83983C21.6913 9.87706 21.5807 9.95335 21.5013 10.0576C21.4218 10.1619 21.3777 10.2888 21.3752 10.4199L21.3555 11.8808C21.3555 12.1653 21.5488 12.3673 21.7972 12.4609L23.6784 13.1742C24.4028 13.4492 24.7165 12.2865 23.998 12.014V12.0132Z" fill="white"/>
<path d="M24.799 8.60925L23.9645 6.77878L23.87 7.50753L24.9124 6.48402L24.1837 6.57769L25.9377 7.50495C26.6252 7.86675 27.2267 6.82863 26.5452 6.46683L24.7912 5.53956C24.6757 5.4754 24.5426 5.44987 24.4115 5.46673C24.2804 5.48358 24.1581 5.54193 24.0625 5.63324L23.0192 6.65675C22.8138 6.85956 22.8138 7.14144 22.9255 7.38636L23.76 9.21683C24.0805 9.9198 25.1178 9.30964 24.799 8.60925Z" fill="white"/>
<path d="M24.5137 9.99964L24.8531 9.19526C24.976 8.90393 24.7216 8.52065 24.4329 8.45448C24.0805 8.37456 23.8245 8.56362 23.693 8.87472L23.3535 9.68253C23.2315 9.973 23.485 10.3563 23.7738 10.4224C24.1261 10.5024 24.3822 10.3142 24.5137 10.0022V9.99964Z" fill="white"/>
<path d="M26.5246 7.49201L27.2731 7.24021C27.5705 7.13966 27.7973 6.8217 27.6934 6.50029C27.598 6.20466 27.2723 5.97263 26.9534 6.08005L26.2049 6.33185C25.9076 6.4324 25.6807 6.75123 25.7847 7.07177C25.8801 7.36826 26.2049 7.59943 26.5246 7.49201Z" fill="white"/>
<path d="M33.4512 21.1716L33.8809 19.7966L33.3008 20.2383H34.6758L34.0957 19.7966L34.5254 21.1716C34.7557 21.908 35.9176 21.5935 35.6856 20.8519L35.2559 19.4769C35.2186 19.3512 35.1423 19.2406 35.038 19.1612C34.9337 19.0817 34.8069 19.0376 34.6758 19.0352H33.3008C33.1697 19.0375 33.0427 19.0816 32.9384 19.161C32.8341 19.2405 32.7578 19.3511 32.7207 19.4769L32.291 20.8519C32.0599 21.5927 33.2209 21.9098 33.4512 21.1716Z" fill="white"/>
<path d="M36.2725 21.9536L37.528 21.2472L36.7993 21.1527L37.8005 22.098L37.7059 21.3684L37.0769 22.6643C36.74 23.3579 37.7773 23.9689 38.1159 23.2719L38.7449 21.976C38.8601 21.7397 38.8549 21.4389 38.6512 21.2472L37.6501 20.3019C37.5543 20.2105 37.4319 20.1522 37.3006 20.1353C37.1694 20.1184 37.0362 20.144 36.9205 20.2082L35.6641 20.9147C34.9894 21.2945 35.5953 22.3343 36.2708 21.9536H36.2725Z" fill="white"/>
<path d="M34.9766 21.6167L35.5781 21.9604C35.8514 22.1168 36.2484 22.0343 36.4006 21.7447C36.4784 21.6065 36.4995 21.4433 36.4592 21.2899C36.4189 21.1364 36.3206 21.0046 36.1848 20.9223L35.5833 20.5786C35.31 20.4222 34.913 20.5047 34.7609 20.7943C34.683 20.9325 34.662 21.0957 34.7022 21.2491C34.7425 21.4026 34.8409 21.5344 34.9766 21.6167Z" fill="white"/>
<path d="M30.8026 22.5732L30.1847 21.2712L30.0902 22.0008L31.0999 21.0667L30.3712 21.1612L31.6198 21.8788C32.2927 22.2655 32.8994 21.2265 32.2274 20.8398L30.9787 20.1222C30.8631 20.0577 30.7297 20.032 30.5983 20.0491C30.467 20.0661 30.3446 20.1249 30.2491 20.2168L29.2402 21.15C29.0314 21.3425 29.0331 21.6416 29.1457 21.8788L29.7636 23.1799C30.0953 23.8794 31.1334 23.2658 30.8026 22.5732Z" fill="white"/>
<path d="M37.7747 24.432L39.1497 24.8531L38.708 24.273L38.7166 25.648L39.1583 25.068L37.7833 25.5062C37.0485 25.74 37.3631 26.9019 38.1038 26.6664L39.4788 26.2281C39.6045 26.1908 39.715 26.1145 39.7944 26.0102C39.8738 25.9059 39.918 25.7791 39.9205 25.648L39.912 24.273C39.9096 24.1419 39.8655 24.015 39.7861 23.9107C39.7067 23.8063 39.596 23.7301 39.4702 23.693L38.0952 23.2719C37.3527 23.0441 37.0356 24.2052 37.7747 24.432Z" fill="white"/>
<path d="M37.0391 27.3436L37.7111 28.6172L37.8048 27.8876L36.8328 28.8629L37.5624 28.7693L36.2854 28.1015C35.5979 27.7432 34.9912 28.7813 35.6787 29.1405L36.9531 29.8083C37.0687 29.8725 37.2019 29.8979 37.3331 29.8809C37.4642 29.8639 37.5865 29.8053 37.6819 29.7137L38.6538 28.7409C38.7451 28.6461 38.8036 28.5245 38.8208 28.3939C38.838 28.2634 38.8129 28.1308 38.7492 28.0156L38.0806 26.7403C37.7205 26.0528 36.6816 26.6612 37.0416 27.347L37.0391 27.3436Z" fill="white"/>
<path d="M34.5108 28.8148L34.1172 30.2001L34.6973 29.7593L33.3223 29.7954L33.9023 30.2371L33.4374 28.875C33.1882 28.1462 32.0255 28.459 32.2773 29.1947L32.7422 30.5568C32.7796 30.6823 32.856 30.7928 32.9602 30.8722C33.0645 30.9515 33.1913 30.9958 33.3223 30.9985L34.6973 30.9624C34.8283 30.9597 34.955 30.9154 35.0593 30.8361C35.1635 30.7567 35.2399 30.6462 35.2773 30.5207L35.6709 29.1328C35.8823 28.3869 34.7256 28.068 34.5108 28.8131V28.8148Z" fill="white"/>
<path d="M31.5984 28.1566L30.2947 28.7685L31.0234 28.8621L30.0945 27.8481L30.189 28.5777L30.9126 27.3316C31.3027 26.6613 30.2629 26.0546 29.8736 26.7249L29.15 27.9701C29.0854 28.0856 29.0597 28.2187 29.0765 28.3499C29.0934 28.4811 29.152 28.6035 29.2437 28.6988L30.1727 29.7129C30.3643 29.9226 30.6651 29.9183 30.9014 29.8074L32.2059 29.1956C32.9063 28.8673 32.2962 27.8292 31.5984 28.1566Z" fill="white"/>
<path d="M30.0558 25.5354L28.7031 25.0361L29.1448 25.6162L29.2145 24.2412L28.7727 24.8213L30.1684 24.4621C30.9177 24.2696 30.598 23.1086 29.8487 23.3019L28.453 23.6611C28.3279 23.6993 28.2182 23.7762 28.1396 23.8808C28.061 23.9853 28.0176 24.1121 28.0156 24.2429L27.946 25.6179C27.9323 25.8981 28.1463 26.1095 28.3877 26.198L29.7344 26.6956C30.4614 26.9637 30.7751 25.8018 30.0541 25.5354H30.0558Z" fill="white"/>
<path d="M31.7969 29.1792L32.3984 29.5229C32.6717 29.6793 33.0688 29.5968 33.2209 29.3072C33.2987 29.169 33.3198 29.0058 33.2795 28.8523C33.2393 28.6989 33.1409 28.567 33.0052 28.4848L32.4036 28.1411C32.1303 27.9847 31.7333 28.0672 31.5812 28.3568C31.5033 28.495 31.4823 28.6582 31.5225 28.8116C31.5628 28.9651 31.6612 29.0969 31.7969 29.1792Z" fill="white"/>
<path d="M35.5781 29.4371L36.1797 29.1793C36.3153 29.1002 36.4146 28.9713 36.4564 28.82C36.4979 28.6636 36.4759 28.4972 36.3954 28.3568C36.3163 28.2213 36.1874 28.122 36.0362 28.0801C35.8793 28.0468 35.7158 28.0683 35.573 28.1411L34.9714 28.3989C34.8358 28.478 34.7365 28.6069 34.6947 28.7582C34.6532 28.9146 34.6752 29.081 34.7557 29.2214C34.8348 29.3569 34.9637 29.4562 35.1149 29.4981C35.2718 29.5314 35.4353 29.5099 35.5781 29.4371Z" fill="white"/>
<path d="M38.2026 27.0704L38.4605 26.4688C38.5368 26.3271 38.5585 26.1623 38.5215 26.0056C38.4785 25.8549 38.3795 25.7264 38.2448 25.6464C37.9869 25.5097 37.5573 25.5527 37.4223 25.8621L37.1645 26.4636C37.0882 26.6054 37.0664 26.7702 37.1035 26.9268C37.1465 27.0775 37.2455 27.2061 37.3802 27.2861C37.638 27.4227 38.0677 27.3797 38.2026 27.0704Z" fill="white"/>
<path d="M37.1035 23.32L37.3613 24.0075C37.4713 24.3014 37.773 24.5343 38.1012 24.4278C38.3883 24.335 38.6401 24.0032 38.5215 23.6879L38.2637 23.0004C38.1537 22.7064 37.852 22.4736 37.5238 22.5801C37.2367 22.6729 36.9849 23.0046 37.1035 23.32Z" fill="white"/>
<path d="M29.4302 26.4688L29.7739 27.1563C29.9148 27.439 30.3359 27.5404 30.5963 27.372C30.7314 27.2891 30.8292 27.1573 30.8694 27.0041C30.9096 26.8509 30.889 26.688 30.812 26.5496L30.4683 25.8621C30.3273 25.5793 29.9063 25.4779 29.6459 25.6464C29.5108 25.7292 29.413 25.861 29.3728 26.0142C29.3326 26.1675 29.3532 26.3303 29.4302 26.4688Z" fill="white"/>
<path d="M29.7129 22.7425L29.541 23.6019C29.4791 23.9095 29.627 24.2662 29.9613 24.3418C30.2603 24.4097 30.635 24.2515 30.7012 23.9215L30.8731 23.0622C30.9349 22.7545 30.7871 22.3979 30.4528 22.3222C30.1538 22.2544 29.7791 22.4125 29.7129 22.7425Z" fill="white"/>
<path d="M32.3125 20.5786L31.625 20.9223C31.3423 21.0633 31.2409 21.4843 31.4093 21.7447C31.4921 21.8798 31.6239 21.9776 31.7772 22.0178C31.9304 22.058 32.0933 22.0374 32.2317 21.9604L32.9192 21.6167C33.202 21.4757 33.3034 21.0547 33.1349 20.7943C33.0521 20.6592 32.9203 20.5614 32.767 20.5212C32.6138 20.481 32.4509 20.5016 32.3125 20.5786Z" fill="white"/>
</svg>
