<svg width="44" height="44" viewBox="0 0 44 44" fill="none" xmlns="http://www.w3.org/2000/svg">
<path d="M18.2757 10.9415H10.3552L10.9579 11.5445V8.9604L10.3552 9.56334H18.2757L17.673 8.9604V11.5445C17.673 12.3197 18.8783 12.3197 18.8783 11.5445V8.9604C18.8759 8.80125 18.8116 8.6493 18.6991 8.53675C18.5866 8.42421 18.4348 8.3599 18.2757 8.35745H10.3552C10.1962 8.3599 10.0443 8.42421 9.93179 8.53675C9.8193 8.6493 9.75502 8.80125 9.75258 8.9604V11.5445C9.75502 11.7036 9.8193 11.8555 9.93179 11.9681C10.0443 12.0806 10.1962 12.145 10.3552 12.1474H18.2757C19.0514 12.1474 19.0522 10.9415 18.2757 10.9415Z" fill="white"/>
<path d="M18.2757 33.5089H10.3552L10.9579 34.1118V31.5278L10.3552 32.1307H18.2757L17.673 31.5278V34.1118C17.673 34.887 18.8783 34.887 18.8783 34.1118V31.5278C18.8759 31.3686 18.8116 31.2167 18.6991 31.1041C18.5866 30.9916 18.4348 30.9273 18.2757 30.9248H10.3552C10.1962 30.9273 10.0443 30.9916 9.93179 31.1041C9.8193 31.2167 9.75502 31.3686 9.75258 31.5278V34.1118C9.75502 34.271 9.8193 34.4229 9.93179 34.5355C10.0443 34.648 10.1962 34.7123 10.3552 34.7148H18.2757C19.0514 34.7148 19.0522 33.5089 18.2757 33.5089Z" fill="white"/>
<path d="M12.4214 31.4417V11.6306L11.8188 12.2335H16.8121L16.2095 11.6306V31.4417L16.8121 30.8387H11.8188C11.044 30.8387 11.044 32.0446 11.8188 32.0446H16.8121C16.9712 32.0422 17.1231 31.9778 17.2356 31.8653C17.348 31.7527 17.4123 31.6008 17.4148 31.4417V11.6306C17.4123 11.4714 17.348 11.3195 17.2356 11.207C17.1231 11.0944 16.9712 11.0301 16.8121 11.0276H11.8188C11.6597 11.0301 11.5078 11.0944 11.3954 11.207C11.2829 11.3195 11.2186 11.4714 11.2161 11.6306V31.4417C11.2161 32.2177 12.4214 32.2186 12.4214 31.4417Z" fill="white"/>
<path d="M12.6797 6.63475C12.6797 6.31107 12.7757 5.99465 12.9554 5.72552C13.1351 5.45639 13.3906 5.24663 13.6895 5.12276C13.9884 4.99889 14.3173 4.96648 14.6346 5.02963C14.9519 5.09278 15.2434 5.24865 15.4721 5.47752C15.7009 5.7064 15.8567 5.99801 15.9198 6.31547C15.9829 6.63293 15.9505 6.96199 15.8267 7.26104C15.7029 7.56008 15.4932 7.81568 15.2242 7.9955C14.9552 8.17533 14.639 8.27132 14.3155 8.27132C13.8831 8.26661 13.4698 8.09268 13.164 7.78678C12.8583 7.48087 12.6844 7.06734 12.6797 6.63475C12.6599 5.85953 11.4538 5.85953 11.4744 6.63475C11.4816 7.21955 11.6659 7.78843 12.003 8.26624C12.3401 8.74406 12.8141 9.10833 13.3624 9.31097C13.7731 9.45858 14.2123 9.50955 14.6459 9.45991C15.0795 9.41028 15.4958 9.26137 15.8626 9.02475C16.2293 8.78813 16.5367 8.47015 16.7608 8.09549C16.9849 7.72082 17.1197 7.29954 17.1548 6.86433C17.1898 6.42911 17.1242 5.99166 16.963 5.58592C16.8018 5.18017 16.5494 4.81703 16.2252 4.52468C15.9011 4.23232 15.514 4.0186 15.094 3.90011C14.6739 3.78161 14.2323 3.76152 13.8032 3.84139C12.4464 4.07309 11.5097 5.28932 11.4744 6.63475C11.4538 7.41083 12.6591 7.41083 12.6797 6.63475Z" fill="white"/>
<path d="M11.8188 37.2988C11.8386 36.2652 12.4645 35.3082 13.4545 34.9517C13.9383 34.7785 14.4632 34.7569 14.9595 34.8897C15.4559 35.0225 15.9 35.3034 16.2327 35.695C17.7015 37.4323 16.1303 40.1525 13.8953 39.764C13.3171 39.6583 12.7936 39.3545 12.415 38.9046C12.0364 38.4547 11.8262 37.8869 11.8205 37.2988C11.8059 36.5236 10.6006 36.5236 10.6152 37.2988C10.6159 38.0593 10.8505 38.8012 11.2873 39.4236C11.724 40.0461 12.3417 40.5189 13.0564 40.7779C13.771 41.0369 14.5481 41.0696 15.2819 40.8714C16.0158 40.6732 16.6709 40.2538 17.1582 39.6701C18.1509 38.4642 18.3067 36.7088 17.4768 35.3634C17.0745 34.7191 16.4864 34.2122 15.79 33.9095C15.0937 33.6069 14.3219 33.5227 13.5768 33.6682C11.855 34.0007 10.6497 35.5718 10.617 37.2962C10.5989 38.0749 11.8042 38.0749 11.8188 37.2988Z" fill="white"/>
<path d="M14.2724 38.3902C15.6576 38.3902 15.6594 36.2368 14.2724 36.2368C12.8855 36.2368 12.8855 38.3902 14.2724 38.3902Z" fill="white"/>
<path d="M10.1951 14.5377L17.1944 17.3991L18.2017 17.8108C18.5056 17.9348 18.8611 17.6756 18.9429 17.3896C19.0419 17.045 18.8215 16.7703 18.5219 16.648L11.5226 13.7866L10.5154 13.3748C10.2115 13.2508 9.85589 13.5101 9.77411 13.796C9.6751 14.1406 9.8955 14.4153 10.1951 14.5377V14.5377Z" fill="white"/>
<path d="M10.1951 18.4998L17.1944 21.3613L18.2017 21.773C18.5056 21.897 18.8611 21.6377 18.9429 21.3518C19.0419 21.0072 18.8215 20.7325 18.5219 20.6102L11.5226 17.7487L10.5154 17.337C10.2115 17.213 9.85589 17.4723 9.77411 17.7582C9.6751 18.1028 9.8955 18.3775 10.1951 18.4998V18.4998Z" fill="white"/>
<path d="M10.1951 22.4621L17.1944 25.3235L18.2017 25.7352C18.5056 25.8592 18.8611 25.6 18.9429 25.314C19.0419 24.9695 18.8215 24.6947 18.5219 24.5724L11.5226 21.711L10.5154 21.2992C10.2115 21.1752 9.85589 21.4345 9.77411 21.7204C9.6751 22.065 9.8955 22.3398 10.1951 22.4621V22.4621Z" fill="white"/>
<path d="M10.1951 26.4243L17.1944 29.2857L18.2017 29.6974C18.5056 29.8215 18.8611 29.5622 18.9429 29.2762C19.0419 28.9317 18.8215 28.6569 18.5219 28.5346L11.5226 25.6732L10.5154 25.2615C10.2115 25.1374 9.85589 25.3967 9.77411 25.6827C9.6751 26.0272 9.8955 26.302 10.1951 26.4243V26.4243Z" fill="white"/>
<path d="M32.3087 10.9415H24.3882L24.9909 11.5445V8.9604L24.3882 9.56334H32.3087L31.706 8.9604V11.5445C31.706 12.3197 32.9113 12.3197 32.9113 11.5445V8.9604C32.9089 8.80125 32.8446 8.6493 32.7321 8.53675C32.6196 8.42421 32.4678 8.3599 32.3087 8.35745H24.3882C24.2292 8.3599 24.0773 8.42421 23.9648 8.53675C23.8523 8.6493 23.788 8.80125 23.7856 8.9604V11.5445C23.788 11.7036 23.8523 11.8555 23.9648 11.9681C24.0773 12.0806 24.2292 12.145 24.3882 12.1474H32.3087C33.0844 12.1474 33.0852 10.9415 32.3087 10.9415Z" fill="white"/>
<path d="M32.3087 33.5089H24.3882L24.9909 34.1118V31.5278L24.3882 32.1307H32.3087L31.706 31.5278V34.1118C31.706 34.887 32.9113 34.887 32.9113 34.1118V31.5278C32.9089 31.3686 32.8446 31.2167 32.7321 31.1041C32.6196 30.9916 32.4678 30.9273 32.3087 30.9248H24.3882C24.2292 30.9273 24.0773 30.9916 23.9648 31.1041C23.8523 31.2167 23.788 31.3686 23.7856 31.5278V34.1118C23.788 34.271 23.8523 34.4229 23.9648 34.5355C24.0773 34.648 24.2292 34.7123 24.3882 34.7148H32.3087C33.0844 34.7148 33.0852 33.5089 32.3087 33.5089Z" fill="white"/>
<path d="M26.4544 31.4417V11.6306L25.8518 12.2335H30.8451L30.2425 11.6306V31.4417L30.8451 30.8387H25.8518C25.077 30.8387 25.077 32.0446 25.8518 32.0446H30.8451C31.0042 32.0422 31.1561 31.9778 31.2686 31.8653C31.3811 31.7527 31.4453 31.6008 31.4478 31.4417V11.6306C31.4453 11.4714 31.3811 11.3195 31.2686 11.207C31.1561 11.0944 31.0042 11.0301 30.8451 11.0276H25.8518C25.6927 11.0301 25.5409 11.0944 25.4284 11.207C25.3159 11.3195 25.2516 11.4714 25.2491 11.6306V31.4417C25.2491 32.2177 26.4544 32.2186 26.4544 31.4417Z" fill="white"/>
<path d="M26.7127 6.63475C26.7127 6.31107 26.8086 5.99465 26.9884 5.72552C27.1681 5.45639 27.4236 5.24663 27.7225 5.12276C28.0214 4.99889 28.3503 4.96648 28.6676 5.02963C28.9849 5.09278 29.2763 5.24865 29.5051 5.47752C29.7339 5.7064 29.8897 5.99801 29.9528 6.31547C30.0159 6.63293 29.9835 6.96199 29.8597 7.26104C29.7359 7.56008 29.5262 7.81568 29.2572 7.9955C28.9882 8.17533 28.672 8.27132 28.3485 8.27132C27.9161 8.26661 27.5028 8.09268 27.197 7.78678C26.8913 7.48087 26.7174 7.06734 26.7127 6.63475C26.6929 5.85953 25.4868 5.85953 25.5074 6.63475C25.5146 7.21955 25.6989 7.78843 26.036 8.26624C26.373 8.74406 26.8471 9.10833 27.3954 9.31097C27.8061 9.45858 28.2453 9.50955 28.6789 9.45991C29.1125 9.41028 29.5288 9.26137 29.8956 9.02475C30.2623 8.78813 30.5697 8.47015 30.7938 8.09549C31.0179 7.72082 31.1527 7.29954 31.1878 6.86433C31.2228 6.42911 31.1572 5.99166 30.996 5.58592C30.8348 5.18017 30.5824 4.81703 30.2582 4.52468C29.9341 4.23232 29.547 4.0186 29.127 3.90011C28.7069 3.78161 28.2653 3.76152 27.8362 3.84139C26.4794 4.07309 25.5427 5.28932 25.5074 6.63475C25.4868 7.41083 26.692 7.41083 26.7127 6.63475Z" fill="white"/>
<path d="M25.8518 37.2988C25.8716 36.2652 26.4975 35.3082 27.4875 34.9517C27.9713 34.7785 28.4962 34.7569 28.9925 34.8897C29.4889 35.0225 29.933 35.3034 30.2657 35.695C31.7345 37.4323 30.1633 40.1525 27.9283 39.764C27.3501 39.6583 26.8266 39.3545 26.448 38.9046C26.0693 38.4547 25.8591 37.8869 25.8535 37.2988C25.8389 36.5236 24.6336 36.5236 24.6482 37.2988C24.6489 38.0593 24.8835 38.8012 25.3203 39.4236C25.757 40.0461 26.3747 40.5189 27.0894 40.7779C27.804 41.0369 28.5811 41.0696 29.3149 40.8714C30.0488 40.6732 30.7039 40.2538 31.1912 39.6701C32.1839 38.4642 32.3397 36.7088 31.5098 35.3634C31.1075 34.7191 30.5194 34.2122 29.823 33.9095C29.1267 33.6069 28.3549 33.5227 27.6098 33.6682C25.8879 34.0007 24.6827 35.5718 24.6499 37.2962C24.6319 38.0749 25.8372 38.0749 25.8518 37.2988Z" fill="white"/>
<path d="M28.3054 38.3902C29.6906 38.3902 29.6923 36.2368 28.3054 36.2368C26.9185 36.2368 26.9185 38.3902 28.3054 38.3902Z" fill="white"/>
<path d="M24.2281 14.5377L31.2274 17.3991L32.2346 17.8108C32.5385 17.9348 32.8941 17.6756 32.9759 17.3896C33.0749 17.045 32.8545 16.7703 32.5549 16.648L25.5556 13.7866L24.5483 13.3748C24.2444 13.2508 23.8889 13.5101 23.8071 13.796C23.7081 14.1406 23.9285 14.4153 24.2281 14.5377Z" fill="white"/>
<path d="M24.2281 18.4998L31.2274 21.3613L32.2346 21.773C32.5385 21.897 32.8941 21.6377 32.9759 21.3518C33.0749 21.0072 32.8545 20.7325 32.5549 20.6102L25.5556 17.7487L24.5483 17.337C24.2444 17.213 23.8889 17.4723 23.8071 17.7582C23.7081 18.1028 23.9285 18.3775 24.2281 18.4998Z" fill="white"/>
<path d="M24.2281 22.4621L31.2274 25.3235L32.2346 25.7352C32.5385 25.8592 32.8941 25.6 32.9759 25.314C33.0749 24.9695 32.8545 24.6947 32.5549 24.5724L25.5556 21.711L24.5483 21.2992C24.2444 21.1752 23.8889 21.4345 23.8071 21.7204C23.7081 22.065 23.9285 22.3398 24.2281 22.4621Z" fill="white"/>
<path d="M24.2281 26.4243L31.2274 29.2857L32.2346 29.6974C32.5385 29.8215 32.8941 29.5622 32.9759 29.2762C33.0749 28.9317 32.8545 28.6569 32.5549 28.5346L25.5556 25.6732L24.5483 25.2615C24.2444 25.1374 23.8889 25.3967 23.8071 25.6827C23.7081 26.0272 23.9285 26.302 24.2281 26.4243Z" fill="white"/>
</svg>
