<svg width="45" height="44" viewBox="0 0 45 44" fill="none" xmlns="http://www.w3.org/2000/svg">
<path d="M17.9775 22.4297C17.9998 20.2615 19.3496 18.2334 21.4171 17.5012C22.4354 17.1395 23.5396 17.0984 24.5819 17.3833C25.6241 17.6682 26.5546 18.2656 27.2485 19.0953C28.6455 20.7728 28.817 23.2366 27.7073 25.1109C26.5976 26.9852 24.3388 28.0156 22.1932 27.5748C21.0099 27.3284 19.9465 26.6836 19.1795 25.7476C18.4126 24.8116 17.9884 23.6407 17.9775 22.4297C17.9697 21.6562 16.7692 21.6562 16.7769 22.4297C16.789 23.746 17.1978 25.028 17.9496 26.1074C18.7015 27.1869 19.7613 28.0135 20.9901 28.4788C23.477 29.4241 26.4407 28.6275 28.1327 26.5719C29.8615 24.4724 30.1368 21.4388 28.7141 19.0953C28.0202 17.9659 26.9992 17.0753 25.7873 16.5424C24.5753 16.0094 23.23 15.8594 21.9308 16.1124C18.9465 16.6942 16.8069 19.4219 16.7769 22.4297C16.7692 23.2031 17.9697 23.2031 17.9775 22.4297Z" fill="white"/>
<path d="M15.5334 22.4297C15.5557 19.2457 17.5547 16.2886 20.5698 15.2032C22.0711 14.6673 23.7005 14.6069 25.2372 15.0301C26.7739 15.4532 28.1437 16.3396 29.1609 17.5691C31.2044 20.0424 31.4274 23.6706 29.7783 26.4086C28.1292 29.1466 24.8576 30.6075 21.7284 29.9802C18.149 29.2617 15.5591 26.0752 15.5334 22.4297C15.5283 21.6563 14.3277 21.6563 14.3328 22.4297C14.348 24.2559 14.917 26.0343 15.9643 27.5288C17.0117 29.0233 18.4878 30.1633 20.1968 30.7974C23.6733 32.0762 27.757 30.9435 30.0802 28.0543C32.4033 25.1651 32.7386 21.0384 30.8151 17.8441C28.8796 14.6334 25.0695 12.9817 21.4094 13.7191C17.3154 14.5441 14.362 18.2798 14.3328 22.4297C14.3277 23.2031 15.5283 23.2031 15.5334 22.4297Z" fill="white"/>
<path d="M8.24417 22.4297C8.26818 16.2087 12.2138 10.456 18.0804 8.33594C24.0138 6.1875 30.7551 8.04547 34.7719 12.9061C38.7758 17.7461 39.2561 24.8273 36.0145 30.1933C32.7823 35.542 26.3695 38.3831 20.2457 37.1336C14.1665 35.8927 9.40701 30.8971 8.42082 24.7646C8.30112 23.9921 8.24206 23.2114 8.24417 22.4297C8.24417 21.6562 7.04358 21.6562 7.04358 22.4297C7.06931 29.1758 11.3365 35.3057 17.6533 37.6449C23.9881 39.991 31.3691 37.9809 35.6569 32.7602C39.9721 27.5069 40.5793 19.8988 37.0513 14.0594C33.5353 8.24656 26.6259 5.225 19.9859 6.55445C13.4753 7.85726 8.24931 13.3126 7.24511 19.8911C7.11541 20.7311 7.04805 21.5797 7.04358 22.4297C7.04101 23.2031 8.24159 23.2031 8.24417 22.4297Z" fill="white"/>
<path d="M5.92877 22.4297C5.92734 19.7509 6.54624 17.1083 7.73677 14.7099C8.9273 12.3114 10.657 10.2225 12.7897 8.60753C14.9224 6.99256 17.4 5.89557 20.0276 5.40287C22.6551 4.91017 25.3609 5.0352 27.932 5.76813C31.3118 6.73986 34.3192 8.71349 36.559 11.4297C41.1813 17.0208 41.7413 25.1969 37.9946 31.3955C36.1478 34.4584 33.399 36.8723 30.1265 38.3046C26.8541 39.737 23.2189 40.1175 19.7217 39.3937C12.7335 37.944 7.25798 32.1767 6.13201 25.1178C5.99488 24.2284 5.92693 23.3297 5.92877 22.4297C5.92877 21.6563 4.72818 21.6563 4.72818 22.4297C4.74105 26.2462 5.91161 30.0223 8.1284 33.1332C10.304 36.189 13.345 38.52 16.8575 39.8243C24.1047 42.5055 32.5371 40.2084 37.4432 34.2384C39.2546 32.0474 40.5378 29.4674 41.193 26.6989C41.8483 23.9304 41.858 21.0478 41.2213 18.275C40.5847 15.5021 39.3189 12.9136 37.5222 10.7104C35.7255 8.50724 33.4462 6.7487 30.8614 5.57133C27.3079 3.96727 23.3429 3.51628 19.5211 4.28141C12.0766 5.77586 6.10971 12.0158 4.96058 19.537C4.81165 20.4941 4.73397 21.461 4.72818 22.4297C4.72561 23.2031 5.92619 23.2031 5.92877 22.4297Z" fill="white"/>
<path d="M20.2071 10.5488C20.2277 9.29414 20.9935 8.12968 22.1906 7.70172C22.7952 7.47936 23.4547 7.45603 24.0734 7.63513C24.692 7.81424 25.2375 8.18643 25.6306 8.69759C26.0237 9.20875 26.2438 9.83223 26.2589 10.4774C26.2741 11.1225 26.0835 11.7557 25.7148 12.2848C25.3462 12.8139 24.8188 13.2114 24.2092 13.4195C23.5996 13.6276 22.9397 13.6354 22.3254 13.4417C21.7111 13.2481 21.1745 12.8632 20.7935 12.3429C20.4126 11.8226 20.2071 11.1941 20.2071 10.5488C20.1942 9.77539 18.9937 9.77539 19.0065 10.5488C19.0158 11.421 19.2897 12.2696 19.7918 12.982C20.2939 13.6944 21.0005 14.2369 21.8176 14.5372C23.447 15.1388 25.379 14.5973 26.4767 13.2481C27.5915 11.8774 27.7733 9.90859 26.8575 8.37804C26.4017 7.62708 25.7265 7.03469 24.9235 6.68113C24.1205 6.32758 23.2284 6.22995 22.3682 6.40148C20.4103 6.78906 19.0383 8.58429 19.0065 10.5488C18.9937 11.3231 20.1942 11.3231 20.2071 10.5488Z" fill="white"/>
<path d="M20.2071 34.2676C20.2277 33.0129 20.9935 31.8484 22.1906 31.4205C22.7952 31.1981 23.4547 31.1748 24.0734 31.3539C24.692 31.533 25.2375 31.9052 25.6306 32.4163C26.0237 32.9275 26.2438 33.551 26.2589 34.1961C26.2741 34.8413 26.0835 35.4744 25.7148 36.0035C25.3462 36.5327 24.8188 36.9302 24.2092 37.1382C23.5996 37.3463 22.9397 37.3541 22.3254 37.1605C21.7111 36.9669 21.1745 36.5819 20.7935 36.0617C20.4126 35.5414 20.2071 34.9129 20.2071 34.2676C20.1942 33.4941 18.9937 33.4941 19.0065 34.2676C19.0158 35.1397 19.2897 35.9884 19.7918 36.7008C20.2939 37.4132 21.0005 37.9556 21.8176 38.2559C23.447 38.8575 25.379 38.3161 26.4767 36.9669C27.5915 35.5962 27.7733 33.6273 26.8575 32.0968C26.4017 31.3458 25.7265 30.7534 24.9235 30.3999C24.1205 30.0463 23.2284 29.9487 22.3682 30.1202C20.4103 30.5052 19.0383 32.2987 19.0065 34.2633C18.9937 35.0419 20.1942 35.0419 20.2071 34.2676Z" fill="white"/>
<path d="M8.28705 22.3223C8.30763 21.0676 9.07343 19.9031 10.2706 19.4751C10.8751 19.2528 11.5346 19.2295 12.1533 19.4086C12.772 19.5877 13.3175 19.9599 13.7105 20.471C14.1036 20.9822 14.3237 21.6057 14.3389 22.2508C14.354 22.8959 14.1634 23.5291 13.7948 24.0582C13.4262 24.5874 12.8987 24.9849 12.2891 25.1929C11.6796 25.401 11.0197 25.4088 10.4054 25.2152C9.79109 25.0215 9.25444 24.6366 8.87347 24.1163C8.4925 23.5961 8.28707 22.9676 8.28705 22.3223C8.27419 21.5488 7.0736 21.5488 7.08647 22.3223C7.09573 23.1944 7.36962 24.0431 7.87174 24.7555C8.37386 25.4679 9.08043 26.0103 9.89755 26.3106C11.5269 26.9122 13.459 26.3708 14.5567 25.0215C15.6715 23.6508 15.8533 21.682 14.9374 20.1515C14.4816 19.4005 13.8065 18.8081 13.0034 18.4546C12.2004 18.101 11.3083 18.0034 10.4481 18.1749C8.49029 18.5625 7.1182 20.3577 7.08647 22.3223C7.0736 23.0965 8.27419 23.0965 8.28705 22.3223Z" fill="white"/>
<path d="M32.1272 22.3223C32.1477 21.0676 32.9136 19.9031 34.1107 19.4751C34.7152 19.2528 35.3748 19.2295 35.9934 19.4086C36.6121 19.5877 37.1576 19.9599 37.5507 20.471C37.9437 20.9822 38.1638 21.6057 38.179 22.2508C38.1941 22.8959 38.0035 23.5291 37.6349 24.0582C37.2663 24.5874 36.7388 24.9849 36.1293 25.1929C35.5197 25.401 34.8598 25.4088 34.2455 25.2152C33.6312 25.0215 33.0946 24.6366 32.7136 24.1163C32.3326 23.5961 32.1272 22.9676 32.1272 22.3223C32.1143 21.5488 30.9137 21.5488 30.9266 22.3223C30.9358 23.1944 31.2097 24.0431 31.7119 24.7555C32.214 25.4679 32.9205 26.0103 33.7377 26.3106C35.367 26.9122 37.2991 26.3708 38.3968 25.0215C39.5116 23.6508 39.6934 21.682 38.7775 20.1515C38.3217 19.4005 37.6466 18.8081 36.8436 18.4546C36.0405 18.101 35.1485 18.0034 34.2882 18.1749C32.3304 18.5599 30.9583 20.3534 30.9266 22.318C30.9137 23.0965 32.1143 23.0965 32.1272 22.3223Z" fill="white"/>
<path d="M28.6112 13.9004C28.6318 12.6457 29.3976 11.4812 30.5947 11.0533C31.1992 10.8309 31.8588 10.8076 32.4774 10.9867C33.0961 11.1658 33.6416 11.538 34.0347 12.0492C34.4277 12.5603 34.6478 13.1838 34.663 13.8289C34.6781 14.4741 34.4875 15.1073 34.1189 15.6364C33.7503 16.1655 33.2228 16.563 32.6133 16.7711C32.0037 16.9791 31.3438 16.9869 30.7295 16.7933C30.1152 16.5997 29.5786 16.2148 29.1976 15.6945C28.8166 15.1742 28.6112 14.5457 28.6112 13.9004C28.5983 13.127 27.3977 13.127 27.4106 13.9004C27.4199 14.7725 27.6937 15.6212 28.1959 16.3336C28.698 17.046 29.4046 17.5884 30.2217 17.8888C31.851 18.4903 33.7831 17.9489 34.8808 16.5997C35.9956 15.229 36.1774 13.2602 35.2615 11.7296C34.8057 10.9786 34.1306 10.3863 33.3276 10.0327C32.5245 9.67914 31.6325 9.58151 30.7722 9.75304C28.8144 10.138 27.4423 11.9316 27.4106 13.8961C27.3977 14.6747 28.5983 14.6747 28.6112 13.9004Z" fill="white"/>
<path d="M11.7173 13.9863C11.7379 12.7316 12.5037 11.5672 13.7008 11.1392C14.3053 10.9169 14.9649 10.8935 15.5835 11.0726C16.2022 11.2517 16.7477 11.6239 17.1408 12.1351C17.5338 12.6463 17.754 13.2697 17.7691 13.9149C17.7843 14.56 17.5937 15.1932 17.225 15.7223C16.8564 16.2514 16.3289 16.6489 15.7194 16.857C15.1098 17.0651 14.4499 17.0729 13.8356 16.8792C13.2213 16.6856 12.6847 16.3007 12.3037 15.7804C11.9227 15.2601 11.7173 14.6316 11.7173 13.9863C11.7044 13.2129 10.5038 13.2129 10.5167 13.9863C10.526 14.8585 10.7999 15.7071 11.302 16.4195C11.8041 17.1319 12.5107 17.6744 13.3278 17.9747C14.9571 18.5763 16.8892 18.0348 17.9869 16.6856C19.1017 15.3149 19.2835 13.3461 18.3677 11.8155C17.9119 11.0646 17.2367 10.4722 16.4337 10.1186C15.6307 9.76508 14.7386 9.66745 13.8783 9.83898C11.9205 10.224 10.5484 12.0175 10.5167 13.982C10.5038 14.7606 11.7044 14.7606 11.7173 13.9863Z" fill="white"/>
<path d="M11.803 30.8301C11.8236 29.5754 12.5894 28.4109 13.7866 27.983C14.3911 27.7606 15.0506 27.7373 15.6693 27.9164C16.288 28.0955 16.8335 28.4677 17.2265 28.9788C17.6196 29.49 17.8397 30.1135 17.8549 30.7586C17.87 31.4038 17.6794 32.0369 17.3108 32.566C16.9421 33.0952 16.4147 33.4927 15.8051 33.7007C15.1956 33.9088 14.5357 33.9166 13.9214 33.723C13.3071 33.5294 12.7704 33.1444 12.3895 32.6242C12.0085 32.1039 11.8031 31.4754 11.803 30.8301C11.7902 30.0566 10.5896 30.0566 10.6025 30.8301C10.6117 31.7022 10.8856 32.5509 11.3877 33.2633C11.8898 33.9757 12.5964 34.5181 13.4135 34.8184C15.0429 35.42 16.975 34.8786 18.0727 33.5294C19.1875 32.1587 19.3693 30.1898 18.4534 28.6593C17.9976 27.9083 17.3225 27.3159 16.5194 26.9624C15.7164 26.6088 14.8243 26.5112 13.9641 26.6827C12.0063 27.0677 10.6342 28.8612 10.6025 30.8258C10.5896 31.6044 11.7902 31.6044 11.803 30.8301Z" fill="white"/>
<path d="M28.6969 30.8301C28.7175 29.5754 29.4833 28.4109 30.6805 27.983C31.285 27.7606 31.9445 27.7373 32.5632 27.9164C33.1818 28.0955 33.7274 28.4677 34.1204 28.9788C34.5135 29.49 34.7336 30.1135 34.7487 30.7586C34.7639 31.4038 34.5733 32.0369 34.2047 32.566C33.836 33.0952 33.3086 33.4927 32.699 33.7007C32.0894 33.9088 31.4295 33.9166 30.8153 33.723C30.201 33.5294 29.6643 33.1444 29.2834 32.6242C28.9024 32.1039 28.697 31.4754 28.6969 30.8301C28.6841 30.0566 27.4835 30.0566 27.4963 30.8301C27.5056 31.7022 27.7795 32.5509 28.2816 33.2633C28.7837 33.9757 29.4903 34.5181 30.3074 34.8184C31.9368 35.42 33.8689 34.8786 34.9665 33.5294C36.0814 32.1587 36.2632 30.1898 35.3473 28.6593C34.8915 27.9083 34.2163 27.3159 33.4133 26.9624C32.6103 26.6088 31.7182 26.5112 30.858 26.6827C28.9002 27.0677 27.5281 28.8612 27.4963 30.8258C27.4835 31.6044 28.6841 31.6044 28.6969 30.8301Z" fill="white"/>
</svg>
