<svg width="44" height="44" viewBox="0 0 44 44" fill="none" xmlns="http://www.w3.org/2000/svg">
<path d="M28.6567 35.2344C26.3691 39.337 20.692 40.4688 16.8137 37.9405C15.7749 37.2521 14.9168 36.324 14.312 35.2344C13.9313 34.5598 12.8915 35.1656 13.2739 35.8411C13.8989 36.9442 14.7477 37.9043 15.7658 38.6598C16.7839 39.4154 17.9487 39.9496 19.1856 40.2282C21.7448 40.8023 24.5859 40.4044 26.7962 38.9572C28.001 38.167 28.9958 37.0958 29.6948 35.8359C30.073 35.1596 29.034 34.552 28.6567 35.2292V35.2344Z" fill="white"/>
<path d="M23.2031 18.8633H19.8516L20.4531 19.4648V3.17969L19.8516 3.78125H23.2031L22.6016 3.17969V19.4648C22.6016 20.2383 23.8047 20.2383 23.8047 19.4648V3.17969C23.8022 3.0209 23.7381 2.86931 23.6258 2.75702C23.5135 2.64472 23.3619 2.58056 23.2031 2.57812H19.8516C19.6928 2.58056 19.5412 2.64472 19.4289 2.75702C19.3166 2.86931 19.2524 3.0209 19.25 3.17969V19.4648C19.2524 19.6236 19.3166 19.7752 19.4289 19.8875C19.5412 19.9998 19.6928 20.064 19.8516 20.0664H23.2031C23.9766 20.0664 23.9766 18.8633 23.2031 18.8633Z" fill="white"/>
<path d="M27.5859 22.8164H15.6406L16.2422 23.418V19.5078L15.6406 20.1094H27.5859L26.9844 19.5078V23.418C26.9844 24.1914 28.1875 24.1914 28.1875 23.418V19.5078C28.1851 19.349 28.1209 19.1974 28.0086 19.0851C27.8963 18.9728 27.7447 18.9087 27.5859 18.9062H15.6406C15.4818 18.9087 15.3302 18.9728 15.218 19.0851C15.1057 19.1974 15.0415 19.349 15.0391 19.5078V23.418C15.0415 23.5768 15.1057 23.7284 15.218 23.8406C15.3302 23.9529 15.4818 24.0171 15.6406 24.0195H27.5859C28.3594 24.0195 28.3594 22.8164 27.5859 22.8164Z" fill="white"/>
<path d="M29.2188 26.9414H13.9219L14.5234 27.543V23.4609L13.9219 24.0625H29.2188L28.6172 23.4609V27.543C28.6172 28.3164 29.8203 28.3164 29.8203 27.543V23.4609C29.8179 23.3022 29.7537 23.1506 29.6414 23.0383C29.5291 22.926 29.3775 22.8618 29.2188 22.8594H13.9219C13.7631 22.8618 13.6115 22.926 13.4992 23.0383C13.3869 23.1506 13.3228 23.3022 13.3203 23.4609V27.543C13.3228 27.7018 13.3869 27.8534 13.4992 27.9656C13.6115 28.0779 13.7631 28.1421 13.9219 28.1445H29.2188C29.9922 28.1445 29.9922 26.9414 29.2188 26.9414Z" fill="white"/>
<path d="M30.7656 31.1523H12.1172L12.7188 31.7539V27.5859L12.1172 28.1875H30.7656L30.1641 27.5859V31.7539C30.1641 32.5273 31.3672 32.5273 31.3672 31.7539V27.5859C31.3647 27.4272 31.3006 27.2756 31.1883 27.1633C31.076 27.051 30.9244 26.9868 30.7656 26.9844H12.1172C11.9584 26.9868 11.8068 27.051 11.6945 27.1633C11.5822 27.2756 11.5181 27.4272 11.5156 27.5859V31.7539C11.5181 31.9127 11.5822 32.0643 11.6945 32.1766C11.8068 32.2889 11.9584 32.353 12.1172 32.3555H30.7656C31.5391 32.3555 31.5391 31.1523 30.7656 31.1523Z" fill="white"/>
<path d="M38.8438 34.8047H5.70711C5.26797 34.8047 4.79188 34.7523 4.35531 34.8047C4.33585 34.806 4.31633 34.806 4.29688 34.8047L4.89844 35.4063V31.7969L4.29688 32.3984H37.4335C37.8727 32.3984 38.3488 32.4509 38.7853 32.3984C38.8048 32.3972 38.8243 32.3972 38.8438 32.3984L38.2422 31.7969V35.4063C38.2422 36.1797 39.4453 36.1797 39.4453 35.4063V31.7969C39.4429 31.6381 39.3787 31.4865 39.2664 31.3742C39.1541 31.2619 39.0025 31.1978 38.8438 31.1953H8.55508C7.15945 31.1953 5.75008 31.1369 4.35531 31.1953H4.29688C4.13809 31.1978 3.98649 31.2619 3.8742 31.3742C3.76191 31.4865 3.69775 31.6381 3.69531 31.7969V35.4063C3.69775 35.565 3.76191 35.7166 3.8742 35.8289C3.98649 35.9412 4.13809 36.0054 4.29688 36.0078H34.5855C35.9812 36.0078 37.3905 36.0663 38.7853 36.0078H38.8438C39.6172 36.0078 39.6172 34.8047 38.8438 34.8047Z" fill="white"/>
</svg>
