<svg width="45" height="44" viewBox="0 0 45 44" fill="none" xmlns="http://www.w3.org/2000/svg">
<path d="M10.2308 27.8016C10.501 28.4891 10.7455 29.2127 10.8391 29.9501C10.8769 30.1865 10.8844 30.4268 10.8614 30.6651C10.8331 30.8662 10.7395 30.9066 10.9343 30.7699C11.0252 30.7055 11.0441 30.7897 11.0269 30.7553C10.9678 30.7073 10.9056 30.6631 10.8408 30.623C10.6751 30.4734 10.5271 30.3053 10.3998 30.122C9.99628 29.5492 9.66274 28.93 9.40627 28.2777C9.13086 27.5962 8.89149 26.8615 8.79883 26.1293C8.76226 25.8962 8.75477 25.6595 8.77653 25.4246C8.80227 25.2261 8.89664 25.1737 8.7036 25.3095C8.59207 25.3877 8.56547 25.2596 8.73277 25.4005C8.92253 25.5646 9.09114 25.7516 9.23468 25.9574C9.63738 26.5306 9.97061 27.1497 10.2273 27.8016C10.3509 28.1041 10.6254 28.3112 10.966 28.2219C11.2517 28.1462 11.5083 27.7819 11.3856 27.4811C11.0896 26.7566 10.7576 26.0425 10.3063 25.3997C10.0017 24.9648 9.64221 24.4982 9.1566 24.2559C8.72762 24.0427 8.23859 24.084 7.91085 24.4484C7.54965 24.8505 7.53764 25.4839 7.58139 25.9909C7.71609 27.5378 8.32439 29.1225 9.15317 30.4227C9.59588 31.1162 10.7086 32.5875 11.6473 31.7118C12.0599 31.3251 12.0951 30.6754 12.0548 30.1477C11.9853 29.2291 11.7202 28.337 11.3856 27.4837C11.1093 26.7687 9.94764 27.0789 10.2308 27.8016Z" fill="white"/>
<path d="M10.9071 27.1992C10.9542 27.1992 10.9924 27.18 10.9924 27.1562C10.9924 27.1325 10.9542 27.1133 10.9071 27.1133C10.8601 27.1133 10.8219 27.1325 10.8219 27.1562C10.8219 27.18 10.8601 27.1992 10.9071 27.1992Z" stroke="white" stroke-miterlimit="10"/>
<path d="M12.0265 27.2946C12.5824 28.698 13.0346 30.1623 13.2431 31.662C13.3709 32.5832 13.4842 33.7245 13.1118 34.6053C13.059 34.7289 12.9894 34.8446 12.905 34.9491C12.8431 35.0123 12.7705 35.0641 12.6905 35.102C12.5138 35.1734 12.3062 35.1261 12.0771 35.0238C11.2569 34.6577 10.5997 33.868 10.0781 33.1641C8.38531 30.8799 7.23822 28.0689 6.73203 25.2777C6.54413 24.2413 6.40257 23.0656 6.70114 22.0352C6.7409 21.8848 6.80033 21.7404 6.87788 21.6055C6.93429 21.507 7.0102 21.421 7.10095 21.3529C7.25881 21.2455 7.41324 21.2515 7.63546 21.3194C8.47797 21.5772 9.2364 22.4778 9.77434 23.1937C10.7112 24.4389 11.4422 25.85 12.0256 27.292C12.1483 27.5954 12.4246 27.8016 12.7643 27.7123C13.0509 27.6366 13.3057 27.2731 13.1839 26.9723C12.5833 25.4848 11.8652 24.0341 10.9197 22.733C10.2582 21.8221 9.46119 20.8373 8.41877 20.344C7.6183 19.9641 6.68398 19.9598 6.07054 20.68C5.349 21.5265 5.29838 22.8155 5.36101 23.8691C5.45453 25.5544 5.88436 27.2207 6.46263 28.8002C7.03317 30.3591 7.74956 31.8811 8.68131 33.2595C9.55127 34.5486 11.794 37.4636 13.6154 35.9236C14.5249 35.1545 14.5858 33.6892 14.5309 32.5927C14.4339 30.6616 13.8925 28.7598 13.1839 26.9715C12.9033 26.2634 11.7408 26.5736 12.0265 27.2946Z" fill="white"/>
<path d="M33.6315 8.95898C33.6923 8.93547 33.7548 8.91708 33.8186 8.90398C33.913 8.88508 33.7285 8.90914 33.8272 8.90398C33.8555 8.90398 33.8846 8.90398 33.913 8.90398C34.0487 8.91152 34.1817 8.94476 34.305 9.00195C34.6185 9.14996 34.9078 9.34467 35.163 9.57945C36.0158 10.3391 36.6764 11.2982 37.2495 12.2779C38.021 13.6058 38.642 15.0159 39.101 16.482C39.5128 17.7848 39.8303 19.146 39.856 20.521C39.8655 21.0452 39.8406 21.5798 39.6784 22.0825C39.5617 22.446 39.433 22.6359 39.1405 22.764C38.8479 22.892 38.7784 23.3286 38.9251 23.5864C39.101 23.8966 39.4511 23.9302 39.7471 23.803C40.6762 23.3973 40.9482 22.2466 41.034 21.3374C41.1713 19.867 40.8736 18.3356 40.4875 16.9237C40.019 15.219 39.3488 13.5765 38.491 12.0312C37.8433 10.8634 37.0702 9.69891 36.0819 8.79141C35.3723 8.14 34.3239 7.42328 33.315 7.79797C32.596 8.06437 32.9074 9.22797 33.6341 8.95812L33.6315 8.95898Z" fill="white"/>
<path d="M11.8394 18.9277C11.9001 18.9042 11.9627 18.8858 12.0265 18.8727C12.1208 18.8538 11.9407 18.8779 12.035 18.8727C12.0634 18.8727 12.0925 18.8727 12.1208 18.8727C12.2565 18.8803 12.3896 18.9135 12.5129 18.9707C12.8249 19.1191 13.1127 19.3138 13.3666 19.5482C14.2194 20.3079 14.88 21.267 15.4531 22.2466C16.2246 23.5746 16.8456 24.9847 17.3046 26.4507C17.7164 27.7535 18.0339 29.1148 18.0596 30.4898C18.0691 31.014 18.0442 31.5485 17.882 32.0513C17.7653 32.4148 17.6367 32.6047 17.3441 32.7327C17.0515 32.8608 16.982 33.2973 17.1287 33.5552C17.3046 33.8654 17.6547 33.8989 17.9507 33.7717C18.8798 33.3661 19.1518 32.2154 19.2333 31.3062C19.3706 29.8358 19.0729 28.3044 18.6868 26.8924C18.2211 25.1881 17.5537 23.5457 16.6989 22C16.0511 20.8321 15.2781 19.6677 14.2898 18.7602C13.5802 18.1088 12.5318 17.392 11.5228 17.7667C10.8039 18.0331 11.1153 19.1967 11.842 18.9269L11.8394 18.9277Z" fill="white"/>
<path d="M25.9185 7.86328C27.063 7.4207 28.2607 7.92602 29.28 8.62211C30.7728 9.64133 31.9594 11.1195 32.9383 12.6216C34.2581 14.6649 35.2783 16.8872 35.9678 19.2208C36.6035 21.3512 37.0059 23.6036 36.8532 25.8302C36.7571 27.2302 36.3727 29.3107 34.9005 29.9269C34.5993 30.0532 34.3908 30.3239 34.4818 30.6668C34.5564 30.9504 34.9211 31.2125 35.2205 31.087C36.8034 30.4245 37.5747 28.8415 37.8801 27.225C38.3169 24.8995 38.0251 22.4598 37.4735 20.1781C36.8396 17.5664 35.8175 15.0649 34.4415 12.7574C33.3433 10.9201 31.9954 9.17125 30.2838 7.86758C28.99 6.88617 27.2226 6.07578 25.5993 6.70312C24.8864 6.97984 25.1961 8.14344 25.9185 7.86328Z" fill="white"/>
<path d="M8.79197 20.1953C8.74478 18.2497 9.06308 14.5578 11.6146 14.4186C13.7081 14.3043 15.6162 16.268 16.8482 17.7702C18.9742 20.3663 20.431 23.5787 21.2589 26.8151C21.6656 28.4015 21.9179 30.0334 21.899 31.6748C21.8844 32.878 21.742 34.167 21.186 35.2524C20.6858 36.2287 19.8553 36.8998 18.7177 36.838C17.0018 36.7452 15.4892 35.3237 14.3944 34.1309C13.8694 33.5603 13.0217 34.4128 13.545 34.9817C14.7273 36.2708 16.2227 37.5684 17.9815 37.9414C19.2685 38.2147 20.5966 37.8864 21.4992 36.899C22.3751 35.9442 22.7861 34.6448 22.9628 33.3841C23.2048 31.6791 23.0864 29.9518 22.7913 28.2614C22.1452 24.5352 20.6052 20.8209 18.3565 17.777C16.8636 15.7549 14.6904 13.3942 12.0033 13.2155C10.6563 13.1295 9.46461 13.8282 8.72505 14.9342C7.71695 16.4416 7.54107 18.431 7.58396 20.1945C7.60284 20.9679 8.80398 20.9679 8.7851 20.1945L8.79197 20.1953Z" fill="white"/>
<path d="M7.60456 21.1011L11.9801 18.8667C12.6665 18.5152 12.0659 17.4771 11.3744 17.8286L6.99884 20.063C6.31248 20.4145 6.91305 21.4526 7.60456 21.1011Z" fill="white"/>
<path d="M13.9534 35.7964L18.1574 33.562C18.8438 33.1994 18.2347 32.1604 17.5517 32.5239L13.3477 34.7583C12.6614 35.1209 13.2705 36.1599 13.9534 35.7964Z" fill="white"/>
<path d="M11.3796 14.312L16.2365 12.1404L23.9915 8.67281L25.7933 7.86672C26.4976 7.55219 25.8876 6.51492 25.1875 6.82859L20.3306 9.00023L12.5807 12.4678L10.779 13.2739C10.0746 13.5884 10.6846 14.6257 11.3847 14.312H11.3796Z" fill="white"/>
<path d="M21.3319 37.1714L26.1888 34.9998L33.9438 31.5322L35.7456 30.7261C36.4499 30.4116 35.8399 29.3743 35.1398 29.688L30.2829 31.8596L22.533 35.3272L20.7313 36.1333C20.0269 36.4478 20.6369 37.4851 21.337 37.1714H21.3319Z" fill="white"/>
<path d="M33.1717 7.85984L31.37 8.71922C30.6725 9.0518 31.2842 10.0891 31.9757 9.75734L33.7774 8.89797C34.4749 8.56539 33.8632 7.52813 33.1717 7.85984Z" fill="white"/>
<path d="M39.349 22.6411L37.5473 23.5005C36.8498 23.833 37.4615 24.8703 38.153 24.5386L39.9547 23.6792C40.6522 23.3466 40.0405 22.3094 39.349 22.6411Z" fill="white"/>
</svg>
