<svg width="44" height="44" viewBox="0 0 44 44" fill="none" xmlns="http://www.w3.org/2000/svg">
<path d="M13.4991 38.1657L6.55188 30.6892L5.56445 29.6227V30.4735L9.45828 26.8564H8.6075L15.5547 34.3329L16.543 35.3968V34.5469L12.6483 38.164C12.0802 38.6917 12.9327 39.539 13.4991 39.0148L17.3938 35.3977C17.6378 35.1708 17.6086 34.7781 17.3938 34.5469L10.4466 27.0704L9.45828 26.0073C9.23141 25.7624 8.83867 25.7925 8.6075 26.0073L4.71367 29.6227C4.46875 29.8496 4.49883 30.2415 4.71367 30.4735L11.6609 37.95L12.6483 39.0157C13.1768 39.5846 14.0259 38.7329 13.4991 38.1657Z" fill="white"/>
<path d="M16.3874 33.3275L11.2664 27.8146L10.5291 27.0205V27.8713L12.9302 25.6369H12.0794L17.2012 31.1507L17.9377 31.9447V31.0939L15.5366 33.324C14.9686 33.8525 15.8202 34.699 16.3874 34.1748L18.7885 31.9447C19.0334 31.7179 19.0034 31.3251 18.7885 31.0939L13.6641 25.5836L12.9267 24.7896C12.6998 24.5455 12.3071 24.5747 12.0759 24.7896L9.67484 27.0239C9.43078 27.2508 9.46 27.6436 9.67484 27.8747L14.7959 33.3885L15.5332 34.1817C16.0652 34.7472 16.9142 33.8947 16.3874 33.3275Z" fill="white"/>
<path d="M18.1637 29.7507L14.1479 25.4272V26.278L16.4141 24.1734H15.5633L19.5791 28.4961V27.6461L17.3121 29.7507C16.7441 30.2784 17.5966 31.1257 18.1629 30.6015L20.4291 28.4961C20.674 28.2692 20.6439 27.8773 20.4291 27.6461L16.4141 23.3226C16.1863 23.0777 15.7945 23.1078 15.5633 23.3226L13.2971 25.4272C13.0522 25.6541 13.0823 26.0468 13.2971 26.278L17.3121 30.6015C17.8415 31.1696 18.6905 30.3179 18.1637 29.7507Z" fill="white"/>
<path d="M6.01562 38.2001C5.73116 37.8976 5.43554 37.5986 5.1614 37.29C5.11671 37.2385 5.08749 37.1792 5.0832 37.2101C5.09093 37.1457 5.0832 37.2273 5.10382 37.1835C5.14593 37.1036 5.2757 37.0219 5.34101 36.9609L7.59687 34.8477C7.6957 34.7549 8.0764 34.3166 8.16148 34.3157C8.21717 34.3901 8.27836 34.4602 8.34452 34.5254L8.90913 35.127C8.95468 35.1751 9.05351 35.2447 9.08101 35.3066C9.10851 35.3685 9.10335 35.3066 9.09218 35.3341C9.06984 35.3865 8.96327 35.4553 8.92031 35.4922L7.91827 36.4315L6.60773 37.6604L6.15741 38.0832C6.12562 38.1133 6.07148 38.1855 6.03023 38.2027C5.98898 38.2199 6.03968 38.2199 6.01734 38.2027C5.4364 37.6965 4.58218 38.5464 5.16655 39.0535C5.79991 39.6052 6.48054 39.4316 7.03913 38.9082L8.33593 37.6896L9.68945 36.4212C10.1398 35.9975 10.4998 35.4604 10.1862 34.8185C9.94984 34.3364 9.42906 33.8929 9.05265 33.5208C8.49062 32.9648 7.78077 33.0464 7.22648 33.5475C6.35507 34.3355 5.51202 35.1554 4.65523 35.9589C4.15765 36.4255 3.62999 36.9618 3.99695 37.7129C4.24616 38.2207 4.78585 38.6436 5.16827 39.0509C5.69765 39.6172 6.54671 38.7656 6.01562 38.2001Z" fill="white"/>
<path d="M19.2173 26.3244L18.3906 25.4375L17.8303 24.8411C17.7702 24.7767 17.7126 24.7071 17.6481 24.6469C17.5209 24.5275 17.5837 24.4707 17.6945 24.7638L17.6335 25.2279C17.5931 25.3181 17.5476 25.3138 17.6189 25.245C17.6765 25.1926 17.7323 25.1385 17.7908 25.0861L18.4018 24.5129L20.344 22.691L24.7895 18.5213L25.5492 17.8089C25.6188 17.7444 25.6944 17.6825 25.7589 17.6121C25.868 17.4935 25.9119 17.5682 25.6214 17.6774L25.1582 17.6172C25.0516 17.5691 25.0895 17.545 25.1642 17.6267C25.239 17.7083 25.294 17.765 25.3593 17.8347L25.9187 18.4319L26.4791 19.0283C26.5392 19.0928 26.5968 19.1624 26.6612 19.2225C26.7876 19.342 26.7257 19.3987 26.6148 19.1057L26.675 18.6416C26.7162 18.5514 26.7652 18.5557 26.6905 18.6244C26.6329 18.6768 26.577 18.731 26.5186 18.7834L25.9084 19.3566L23.9654 21.1785L19.5164 25.3516L18.7567 26.064C18.6871 26.1285 18.6115 26.1904 18.547 26.2608C18.4379 26.3794 18.3941 26.3055 18.6845 26.1955L19.1477 26.2565L19.0953 26.2325C18.3949 25.9154 17.783 26.9526 18.4877 27.2715C18.9312 27.4717 19.2139 27.2835 19.519 26.9999L20.3268 26.2419L23.0845 23.6561L26.0339 20.8897C26.5435 20.4111 27.1021 19.9547 27.5808 19.4417C28.0414 18.9441 27.6332 18.505 27.2843 18.1329C26.8658 17.6868 26.4567 17.2279 26.0279 16.7931C25.349 16.1056 24.7388 16.9272 24.243 17.3895L18.6123 22.6695C18.0108 23.2367 17.3817 23.7867 16.7956 24.3736C16.4519 24.7174 16.4639 25.1282 16.787 25.4908C17.1927 25.9411 17.618 26.376 18.0323 26.8186L18.376 27.1804C18.8968 27.7415 19.7467 26.889 19.2173 26.3244Z" fill="white"/>
<path d="M30.8421 5.74661L37.7893 13.2232L38.7776 14.2862V13.4354L34.8829 17.0526H35.7337L28.7865 9.57599L27.7982 8.51208V9.36716L31.6929 5.75005C32.2609 5.2224 31.4093 4.37505 30.8421 4.89927L26.9474 8.51294C26.7034 8.73982 26.7326 9.13255 26.9474 9.36372L33.8946 16.8403L34.8829 17.9033C35.1098 18.1483 35.5025 18.1182 35.7337 17.9033L39.6275 14.2862C39.8724 14.0593 39.8423 13.6666 39.6275 13.4354L32.6803 5.95888L31.6929 4.89841C31.1644 4.32779 30.3153 5.17943 30.8421 5.74661Z" fill="white"/>
<path d="M27.9538 10.5849L33.0748 16.0978L33.8121 16.8919V16.0411L31.411 18.2755H32.2618L27.1399 12.7617L26.4034 11.9677V12.8184L28.8045 10.5884C29.3726 10.0598 28.5209 9.21336 27.9538 9.73758L25.5527 11.972C25.3077 12.1988 25.3378 12.5916 25.5527 12.8227L30.6737 18.3365L31.411 19.1305C31.6379 19.3746 32.0306 19.3454 32.2618 19.1305L34.6629 16.8962C34.9078 16.6693 34.8777 16.2766 34.6629 16.0454L29.5419 10.5273L28.8045 9.73414C28.2734 9.16524 27.427 10.0177 27.9538 10.5849Z" fill="white"/>
<path d="M26.1774 14.1616L30.1933 18.4851V17.6343L27.9202 19.745H28.771L24.7552 15.4214V16.2722L27.0282 14.1616C27.5962 13.6339 26.7437 12.7866 26.1774 13.3108L23.9052 15.4214C23.6603 15.6483 23.6904 16.041 23.9052 16.2722L27.9202 20.5957C28.148 20.8398 28.5398 20.8106 28.771 20.5957L31.0441 18.4851C31.2881 18.2582 31.2589 17.8655 31.0441 17.6343L27.0282 13.3108C26.4997 12.7428 25.6506 13.5944 26.1774 14.1616Z" fill="white"/>
<path d="M38.3281 5.71227C38.6126 6.01477 38.9082 6.31383 39.1823 6.62234C39.227 6.67391 39.2563 6.7332 39.2605 6.70227C39.2528 6.76672 39.2605 6.68508 39.2399 6.72891C39.1978 6.80883 39.068 6.89047 39.0027 6.95148L36.7486 9.06469C36.6506 9.1575 36.2691 9.59578 36.184 9.59664C36.1283 9.52227 36.0671 9.45218 36.0009 9.38695L35.4363 8.78539C35.3908 8.73727 35.292 8.66766 35.2645 8.60578C35.237 8.54391 35.2421 8.60578 35.2533 8.57828C35.2756 8.52586 35.3822 8.45711 35.4252 8.42016L36.4263 7.48086L37.7369 6.25195L38.1872 5.82914C38.219 5.79906 38.2731 5.72688 38.3144 5.70969C38.3556 5.6925 38.3049 5.6925 38.3273 5.70969C38.9082 6.21586 39.7633 5.36594 39.178 4.85891C38.5447 4.30719 37.8649 4.48078 37.3055 5.00414L36.0078 6.22274L34.6534 7.49117C34.2031 7.91484 33.843 8.45195 34.1567 9.09391C34.393 9.57601 34.9138 10.0195 35.2902 10.3916C35.8523 10.9476 36.5621 10.8659 37.1164 10.3649C37.9878 9.57687 38.8352 8.75703 39.6877 7.95352C40.1852 7.48688 40.7129 6.95063 40.3459 6.19953C40.0976 5.69164 39.557 5.26883 39.1746 4.86149C38.6435 4.29688 37.7945 5.1468 38.3281 5.71227Z" fill="white"/>
</svg>
