<svg width="44" height="44" viewBox="0 0 44 44" fill="none" xmlns="http://www.w3.org/2000/svg">
<path d="M19.9873 12.076L14.2089 17.8544L12.7643 19.299C12.5855 19.4778 12.3827 19.7725 12.1627 19.9006C11.8791 20.0664 11.501 19.5027 11.3223 19.3231L9.60351 17.6043L7.78679 15.7876C7.49632 15.4971 7.06062 15.1861 6.84148 14.8423C6.68679 14.6 6.99875 14.4066 7.16289 14.2407L8.43734 12.9663L12.1679 9.23574L13.7552 7.64848C14.0344 7.36918 14.3017 7.04691 14.6068 6.79684C14.8646 6.58457 15.0253 6.85613 15.2127 7.04348L16.708 8.53879C17.7641 9.59496 18.8418 10.6331 19.8782 11.709C19.9805 11.8147 20.1214 11.9239 19.9873 12.0794C19.4837 12.6629 20.3311 13.5171 20.8381 12.9302C21.3451 12.3432 21.3726 11.5552 20.8381 10.9665C20.7522 10.8694 20.6508 10.7792 20.558 10.6864L18.9612 9.08965C17.9068 8.0352 16.8833 6.93605 15.7919 5.92027C15.1473 5.31871 14.3094 5.40465 13.7053 5.99762C13.3418 6.35254 12.9869 6.71605 12.6277 7.07441L8.72953 10.9734C7.82804 11.874 6.90336 12.7566 6.02422 13.6787C5.42265 14.3052 5.46218 15.1474 6.05429 15.7593C6.48398 16.2061 6.93601 16.641 7.37601 17.081L10.8994 20.6044C11.501 21.206 12.3484 21.3693 13.0221 20.7454C13.3023 20.4875 13.5644 20.2039 13.8342 19.9341L20.668 13.0969L20.8398 12.925C21.3864 12.375 20.5391 11.5277 19.9873 12.076Z" fill="white"/>
<path d="M36.7452 28.9196L30.9667 34.6981L29.5221 36.1427C29.3434 36.3214 29.1405 36.6162 28.9205 36.7442C28.637 36.9101 28.2588 36.3464 28.0801 36.1667L26.3613 34.448L24.542 32.6278C24.2516 32.3374 23.8159 32.0263 23.5967 31.6825C23.442 31.4402 23.754 31.2468 23.9181 31.081L25.1926 29.8065L28.9231 26.076L30.513 24.4861C30.7923 24.2068 31.0595 23.8846 31.3646 23.6345C31.6224 23.4222 31.7831 23.6938 31.9662 23.8811L33.4615 25.3764C34.5177 26.4326 35.5953 27.4707 36.6317 28.5467C36.734 28.6524 36.8749 28.7615 36.7409 28.9171C36.2373 29.5006 37.0846 30.3548 37.5916 29.7678C38.0987 29.1809 38.1262 28.3928 37.5916 27.8042C37.5057 27.7071 37.4043 27.6168 37.3115 27.524L35.7148 25.9273C34.6603 24.8728 33.6368 23.7737 32.5454 22.7579C31.9009 22.1564 31.063 22.2423 30.4588 22.8353C30.0953 23.1902 29.7404 23.5537 29.3812 23.9121L25.483 27.811C24.5816 28.7117 23.6569 29.5942 22.7777 30.5164C22.1805 31.1428 22.2157 31.985 22.8078 32.5969C23.2375 33.0438 23.6895 33.4786 24.1295 33.9186L27.653 37.4421C28.2545 38.0436 29.1019 38.2069 29.7756 37.583C30.0558 37.3252 30.3179 37.0416 30.5877 36.7717L37.4258 29.9406L37.5977 29.7687C38.1442 29.2187 37.2969 28.3714 36.7452 28.9196Z" fill="white"/>
<path d="M12.1172 23.5469L17.8956 29.3253L19.342 30.7656C19.5207 30.9444 19.8155 31.1463 19.9435 31.3672C20.1094 31.6508 19.5456 32.028 19.366 32.2076L17.6473 33.9264L15.8305 35.75C15.5401 36.0405 15.229 36.4762 14.8852 36.6953C14.6429 36.85 14.4495 36.538 14.2837 36.3739L13.0092 35.0994L9.28125 31.3672L7.6914 29.7773C7.41211 29.498 7.08984 29.2308 6.83976 28.9257C6.6275 28.6679 6.89906 28.5072 7.0864 28.319L8.58172 26.8245C9.63789 25.7684 10.676 24.6907 11.752 23.6543C11.8577 23.552 11.9668 23.4111 12.1223 23.5451C12.7059 24.0487 13.5601 23.2014 12.9731 22.6944C12.3862 22.1873 11.5981 22.1598 11.0095 22.6944C10.9123 22.7803 10.8221 22.8809 10.7293 22.9745L9.13258 24.5712C8.07812 25.6266 6.97554 26.6501 5.95976 27.7415C5.3582 28.386 5.44414 29.2239 6.03711 29.828C6.39203 30.1916 6.75554 30.5465 7.1139 30.9048L11.0129 34.8047C11.9135 35.7053 12.7961 36.6308 13.7182 37.51C14.3447 38.1073 15.1869 38.072 15.7987 37.4799C16.2456 37.0502 16.6805 36.5982 17.1205 36.1582L20.6439 32.6348C21.2455 32.0332 21.4087 31.1859 20.7848 30.5112C20.527 30.2311 20.2434 29.9698 19.9736 29.7L13.1398 22.8637L12.968 22.6918C12.4214 22.1461 11.5706 22.9969 12.1172 23.5469Z" fill="white"/>
<path d="M28.9609 6.78905L34.7394 12.5675L36.1857 14.0078C36.3645 14.1866 36.6592 14.3885 36.7873 14.6094C36.9531 14.893 36.3894 15.2702 36.2098 15.4498L34.491 17.1686L32.6743 18.9922C32.3838 19.2826 32.0727 19.7183 31.729 19.9375C31.4866 20.0922 31.2933 19.7802 31.1274 19.6161L29.853 18.3416L26.125 14.6094L24.5352 13.0195C24.2559 12.7402 23.9336 12.473 23.6835 12.1679C23.4712 11.9101 23.7428 11.7494 23.9302 11.5612L25.4255 10.0667C26.4816 9.01054 27.5198 7.93288 28.5957 6.89647C28.7014 6.79421 28.8105 6.65327 28.9661 6.78733C29.5496 7.29093 30.4038 6.44358 29.8169 5.93655C29.2299 5.42952 28.4419 5.40202 27.8532 5.93655C27.7561 6.02249 27.6659 6.12304 27.573 6.21671L25.9729 7.81429C24.9184 8.86874 23.8193 9.89226 22.8035 10.9837C22.202 11.6282 22.2879 12.4661 22.8809 13.0702C23.2358 13.4337 23.5993 13.7887 23.9577 14.147L27.8566 18.0469C28.7573 18.9475 29.6398 19.873 30.562 20.7522C31.1884 21.3494 32.0306 21.3142 32.6425 20.7221C33.0894 20.2924 33.5242 19.8404 33.9642 19.4004L37.4877 15.8769C38.0892 15.2754 38.2525 14.428 37.6286 13.7534C37.3708 13.4733 37.0872 13.212 36.8173 12.9422L29.9836 6.10585L29.8117 5.93397C29.2652 5.38827 28.4144 6.23905 28.9609 6.78905Z" fill="white"/>
<path d="M23.9362 13.8566C22.6832 14.8345 20.8553 14.8182 19.806 13.5661C19.3084 12.9723 18.4611 13.8239 18.9552 14.4169C20.46 16.2121 23.057 16.0574 24.787 14.7073C25.0448 14.5054 24.9941 14.0688 24.787 13.8566C24.5369 13.5987 24.1906 13.6572 23.9362 13.8566Z" fill="white"/>
<path d="M19.9779 29.7997C21.2309 28.8217 23.0588 28.838 24.1081 30.0901C24.6056 30.684 25.453 29.8323 24.9588 29.2393C23.4541 27.4441 20.857 27.5988 19.1271 28.9489C18.8693 29.1508 18.92 29.5874 19.1271 29.7997C19.3772 30.0575 19.7235 29.999 19.9779 29.7997Z" fill="white"/>
<path d="M13.6847 19.7201C14.6626 20.9731 14.6463 22.801 13.3942 23.8503C12.8004 24.3478 13.652 25.1952 14.245 24.701C16.0402 23.1963 15.8855 20.5992 14.5355 18.8693C14.3335 18.6115 13.8969 18.6622 13.6847 18.8693C13.4269 19.1194 13.4853 19.4657 13.6847 19.7201Z" fill="white"/>
<path d="M29.7997 23.5924C28.8217 22.3394 28.838 20.5115 30.0902 19.4622C30.684 18.9646 29.8323 18.1173 29.2394 18.6114C27.4441 20.1162 27.5988 22.7132 28.9489 24.4431C29.1509 24.701 29.5874 24.6503 29.7997 24.4431C30.0575 24.1931 29.9991 23.8467 29.7997 23.5924Z" fill="white"/>
</svg>
