<svg width="44" height="44" viewBox="0 0 44 44" fill="none" xmlns="http://www.w3.org/2000/svg">
<path d="M12.9336 29.064L8.9375 31.3732L7.89937 31.9747C7.74125 32.0658 7.57109 32.1999 7.39921 32.2635C7.12765 32.3649 7.02625 32.193 6.90937 31.9894L6.29148 30.9203L5.54296 29.6252C5.44242 29.4533 5.21726 29.1955 5.19921 28.9798C5.18117 28.7521 5.41234 28.667 5.57562 28.5725L6.43499 28.0749C7.88734 27.2362 9.32078 26.339 10.8023 25.5535C11.0318 25.4323 11.1822 25.4908 11.318 25.7073C11.5491 26.0829 11.7597 26.4722 11.9797 26.8537L12.7772 28.2347C12.9061 28.4582 13.2498 28.8518 12.9327 29.064C12.2934 29.4937 12.8949 30.5362 13.5403 30.103C14.2416 29.633 14.4659 28.814 14.0654 28.0594C13.8935 27.7423 13.7053 27.4355 13.5257 27.1244L12.6663 25.6326C12.5048 25.3515 12.3578 25.031 12.1438 24.7844C11.6574 24.2197 10.8857 24.1476 10.2532 24.4862C10.0246 24.6082 9.80289 24.744 9.57945 24.8755L6.77015 26.4945C6.10156 26.8795 5.41406 27.2422 4.76351 27.653C4.17054 28.0242 3.84999 28.6971 4.06226 29.388C4.16281 29.7172 4.38281 30.0265 4.55468 30.3213C5.02132 31.1291 5.46132 31.9584 5.95632 32.749C6.36882 33.4073 7.15945 33.6944 7.8839 33.3592C8.08242 33.2672 8.26976 33.1461 8.45882 33.0369L13.5403 30.103C14.2115 29.7163 13.6065 28.6765 12.9336 29.064Z" fill="white"/>
<path d="M13.1888 32.4414L11.2372 33.5689C10.9648 33.7262 10.682 33.9419 10.389 34.0587C10.0745 34.1842 9.98078 33.88 9.84672 33.648C9.73414 33.4529 9.27781 32.9183 9.40843 32.6691C9.50211 32.4895 9.86562 32.3649 10.0272 32.2712C10.762 31.8476 11.4881 31.3655 12.2461 30.9908C12.5761 30.8275 12.6698 31.0716 12.8227 31.3345C12.9482 31.5511 13.5197 32.2188 13.1888 32.4397C12.5495 32.8694 13.151 33.9118 13.7964 33.4787C14.5484 32.9742 14.6712 32.1466 14.2407 31.3835C13.976 30.9143 13.7113 30.2663 13.2507 29.9578C12.21 29.26 10.9416 30.3523 10.053 30.8653C9.67484 31.0836 9.28468 31.2898 8.91429 31.5227C8.21218 31.9687 7.99218 32.7903 8.38492 33.5225C8.61008 33.9462 8.84297 34.4463 9.15836 34.8116C9.66281 35.3891 10.4268 35.4131 11.0619 35.0591C11.9797 34.5434 12.8837 34.008 13.7938 33.4821C14.4667 33.0937 13.8617 32.0547 13.1888 32.4414Z" fill="white"/>
<path d="M15.9354 37.4937L14.5759 38.2783C14.318 38.4253 14.0379 38.5542 13.8024 38.726C13.7835 38.7389 13.6675 38.7828 13.6632 38.806C13.6933 38.659 14.1488 39.1282 14.153 38.8919C14.153 38.8464 14.0585 38.7278 14.0379 38.6917L13.7964 38.2732C13.75 38.1932 13.6744 37.975 13.5962 37.9294C13.432 37.8271 13.5695 38.4253 13.4501 38.4072C13.4655 38.4072 13.4965 38.3754 13.512 38.3711C13.6118 38.3279 13.7064 38.2734 13.7938 38.2087L15.5126 37.2187C15.5375 37.2041 15.7085 37.1328 15.7137 37.1018C15.6836 37.2591 15.1611 36.7426 15.235 37.0374C15.2622 37.1015 15.2971 37.1621 15.339 37.2178L15.62 37.7051C15.6587 37.7832 15.7023 37.8587 15.7506 37.9311C15.9225 38.1468 15.4928 37.9225 15.8185 37.5925C15.2711 38.1425 16.1219 38.9933 16.6693 38.4433C17.1342 37.9758 16.8927 37.5023 16.6195 37.0296C16.4252 36.6919 16.237 36.2012 15.8632 36.0302C15.4559 35.8437 15.1216 36.0551 14.7821 36.251L13.6065 36.9291C13.3538 37.0752 13.0823 37.2067 12.8416 37.3708C12.3415 37.7146 12.3793 38.2233 12.6491 38.6908C12.8253 38.9959 12.9809 39.3371 13.1957 39.6172C13.5395 40.0607 14.0267 39.9928 14.453 39.7461L16.5473 38.5378C17.2133 38.1451 16.6083 37.1053 15.9354 37.4937Z" fill="white"/>
<path d="M12.4171 33.5861L14.4856 37.1688L14.7013 36.3455L13.2636 37.1757L14.0869 37.3914L12.0184 33.8087L11.8027 34.6328L13.2395 33.8027C13.9098 33.4159 13.3048 32.3752 12.6328 32.7637L11.1951 33.5938C11.0593 33.6762 10.9609 33.8082 10.9206 33.9618C10.8804 34.1155 10.9015 34.2787 10.9794 34.4171L13.0479 37.9998C13.1303 38.1356 13.2623 38.234 13.4159 38.2743C13.5695 38.3145 13.7328 38.2935 13.8712 38.2155L15.3089 37.3828C15.4447 37.3004 15.5431 37.1685 15.5833 37.0148C15.6236 36.8612 15.6025 36.6979 15.5246 36.5595L13.4561 32.9768C13.0685 32.3125 12.0312 32.9141 12.4171 33.5861Z" fill="white"/>
<path d="M30.8155 16.6469L24.7234 20.1635L15.0124 25.7701L12.7823 27.0591L13.6056 27.2757L12.7755 25.838L12.5598 26.6612L18.6484 23.1421L28.3594 17.5355L30.5937 16.2465L29.7713 16.0308L30.6006 17.4676C30.9882 18.138 32.028 17.533 31.6396 16.8609L30.8103 15.4232C30.7281 15.2873 30.5961 15.1887 30.4424 15.1484C30.2887 15.1082 30.1254 15.1293 29.987 15.2075L23.8906 18.7266L14.1797 24.3323L11.9496 25.6214C11.8138 25.7038 11.7154 25.8358 11.6752 25.9894C11.6349 26.143 11.656 26.3063 11.7339 26.4447L12.5641 27.8815C12.6463 28.0175 12.7783 28.116 12.932 28.1563C13.0857 28.1966 13.249 28.1754 13.3873 28.0973L19.4812 24.5781L29.1921 18.9715L31.4222 17.6825C32.0925 17.2983 31.4875 16.2585 30.8155 16.6469Z" fill="white"/>
<path d="M30.5198 14.1728L34.4472 11.9049C34.9284 11.6273 35.4217 11.2578 35.9365 11.0456C36.2433 10.9184 36.3868 11.1195 36.5217 11.3541L37.1422 12.4283L37.8383 13.6314C37.9405 13.8033 38.1657 14.074 38.1666 14.2923C38.1666 14.5346 37.9397 14.6257 37.7627 14.728L36.9093 15.2204L34.4042 16.6719C33.8173 17.0105 33.238 17.3981 32.6296 17.6963C32.3718 17.8226 32.1905 17.7616 32.0418 17.5175C31.8218 17.1574 31.619 16.7853 31.4076 16.4192L30.6075 15.0331C30.4562 14.7752 30.1598 14.4134 30.5216 14.1737C31.1635 13.744 30.562 12.705 29.914 13.1347C29.1844 13.6194 28.9429 14.4813 29.3537 15.2642C29.5127 15.5676 29.6974 15.8598 29.8693 16.1563L30.6857 17.5691C30.8498 17.8544 30.9985 18.1706 31.2134 18.4284C31.717 19.0205 32.5291 19.1159 33.1968 18.7593C33.4142 18.6433 33.6265 18.5118 33.8379 18.3889L36.5827 16.8042C37.2419 16.4235 37.9199 16.0634 38.5653 15.6595C39.1368 15.302 39.4797 14.673 39.3387 13.9915C39.2623 13.622 39.032 13.2928 38.8455 12.9714C38.3883 12.1791 37.9569 11.3661 37.4705 10.5909C37.0691 9.94985 36.3172 9.6293 35.5859 9.89141C35.3491 9.99176 35.1216 10.1128 34.9061 10.2532L29.9131 13.1356C29.242 13.5206 29.847 14.5613 30.5198 14.1728Z" fill="white"/>
<path d="M30.25 10.8058L32.157 9.7049C32.4199 9.55279 32.6863 9.35686 32.9665 9.2374C33.3102 9.09045 33.422 9.40928 33.568 9.6585C33.6944 9.87764 34.1292 10.3726 33.9436 10.6416C33.8259 10.8135 33.5062 10.9235 33.3369 11.0206C32.6202 11.4348 31.9146 11.9032 31.173 12.2701C30.8129 12.448 30.6934 12.1464 30.5345 11.8714C30.3918 11.6239 29.8856 11.049 30.2526 10.8058C30.8945 10.3761 30.293 9.33709 29.645 9.76678C28.8922 10.2661 28.7272 11.1237 29.1603 11.8963C29.4181 12.3561 29.6708 12.9559 30.1116 13.2713C31.1618 14.0147 32.4019 12.9533 33.3077 12.4308C33.6823 12.2143 34.0682 12.0106 34.4352 11.7794C34.7779 11.5777 35.0282 11.25 35.1327 10.8663C35.2372 10.4826 35.1877 10.0732 34.9946 9.72553C34.7858 9.32506 34.5589 8.86014 34.2633 8.51467C33.7631 7.92943 32.9742 7.8667 32.3228 8.2242C31.4213 8.72178 30.537 9.25545 29.645 9.77108C28.9687 10.1535 29.5745 11.1942 30.25 10.8058Z" fill="white"/>
<path d="M27.353 5.83862L28.8879 4.95261C29.1534 4.79878 29.4765 4.66558 29.7172 4.47394C29.7352 4.45933 29.7945 4.44386 29.8031 4.42237C29.8744 4.29003 29.15 4.34675 29.1517 4.2419C29.1517 4.32784 29.3038 4.50487 29.3459 4.57792L29.6355 5.07034C29.6871 5.15628 29.7705 5.39261 29.8564 5.45276C29.9879 5.54472 29.9423 4.80737 30.0437 4.80909C30.0214 4.80909 29.9922 4.84347 29.9707 4.8512C29.8548 4.90537 29.7438 4.96949 29.639 5.04284L27.7483 6.13597C27.7031 6.15352 27.6608 6.17786 27.6229 6.20816C27.4424 6.43159 28.2863 6.21503 28.2597 6.40753C28.27 6.33277 28.099 6.12995 28.0612 6.06378L27.7174 5.46737C27.6762 5.39691 27.6392 5.31956 27.5928 5.25253C27.4209 5.00073 27.8102 5.30839 27.5713 5.61948C27.7707 5.36167 27.6091 4.94831 27.3556 4.7962C27.048 4.6123 26.7291 4.75581 26.5323 5.0119C26.2023 5.44159 26.5985 5.93745 26.8176 6.31644C27.0084 6.6473 27.1975 7.15519 27.573 7.31331C27.9486 7.47144 28.2898 7.21277 28.6043 7.03316L29.8658 6.30441C30.1279 6.15316 30.4193 6.01995 30.6651 5.84292C31.1807 5.47597 30.9933 5.00417 30.7381 4.56245C30.5594 4.25308 30.4021 3.90761 30.1924 3.61714C29.8487 3.14018 29.3958 3.27339 28.973 3.51315L26.7455 4.79964C26.0752 5.18722 26.6801 6.22706 27.353 5.83862Z" fill="white"/>
<path d="M30.9727 9.68771L28.9042 6.10154L28.6885 6.92482L30.1262 6.10154L29.3047 5.8824L31.3732 9.46513L31.5889 8.64185L30.152 9.47201C29.4817 9.85873 30.0867 10.8994 30.7587 10.511L32.1965 9.68084C32.3324 9.59859 32.431 9.46662 32.4712 9.31293C32.5115 9.15923 32.4903 8.99589 32.4122 8.85755L30.3419 5.27482C30.2595 5.13905 30.1276 5.04064 29.9739 5.00039C29.8203 4.96014 29.6571 4.9812 29.5187 5.05912L28.0818 5.88927C27.9459 5.97152 27.8473 6.10349 27.807 6.25718C27.7668 6.41088 27.7879 6.57422 27.8661 6.71255L29.9346 10.2953C30.3213 10.9656 31.3612 10.3606 30.9727 9.68771Z" fill="white"/>
</svg>
