<svg width="44" height="44" viewBox="0 0 44 44" fill="none" xmlns="http://www.w3.org/2000/svg">
<path d="M21.3253 37.5114C29.5725 37.5114 36.281 30.8029 36.281 22.5558C36.281 14.3086 29.5776 7.6011 21.3253 7.6011C13.0731 7.6011 6.36963 14.3117 6.36963 22.5558C6.36963 30.7999 13.0792 37.5114 21.3253 37.5114ZM24.1454 36.1269C24.2301 35.6749 24.3342 35.228 24.4577 34.7913C25.5892 30.7815 28.2328 27.7093 31.5355 26.5748C32.4354 26.2648 33.3804 26.1062 34.3322 26.1054C34.4618 26.1054 34.5914 26.1054 34.7209 26.1156C34.0556 28.5987 32.7151 30.8488 30.8482 32.616C28.9814 34.3833 26.6612 35.5985 24.1454 36.1269ZM21.3253 8.69998C27.8951 8.69998 33.4119 13.2914 34.8311 19.4408C33.098 17.5967 31.0057 16.1272 28.683 15.1226C26.3603 14.1181 23.8564 13.5999 21.3258 13.5999C18.7952 13.5999 16.2914 14.1181 13.9687 15.1226C11.646 16.1272 9.55361 17.5967 7.82051 19.4408C9.23874 13.2914 14.7555 8.69998 21.3253 8.69998ZM7.46646 22.5558C7.46646 22.1966 7.48006 21.8405 7.50727 21.4875C9.13716 19.3732 11.2305 17.6611 13.6261 16.4831C16.0217 15.305 18.6557 14.6924 21.3253 14.6924C23.9949 14.6924 26.6289 15.305 29.0245 16.4831C31.4201 17.6611 33.5135 19.3732 35.1433 21.4875C35.1706 21.8405 35.1845 22.1966 35.1852 22.5558C35.1852 23.3858 35.1108 24.2143 34.9627 25.031C34.7526 25.0178 34.5424 25.0096 34.3322 25.0096C33.2594 25.0091 32.194 25.1867 31.1794 25.5351C27.5369 26.79 24.6311 30.1377 23.4027 34.4934C23.2326 35.092 23.0964 35.6997 22.9945 36.3136C21.9162 36.4452 20.8262 36.4493 19.7469 36.3258C19.6432 35.6868 19.5018 35.0545 19.3235 34.4322C18.0991 30.1836 15.2422 26.8819 11.6916 25.5953C10.6246 25.2081 9.49833 25.01 8.36331 25.0096C8.13782 25.0096 7.90927 25.0188 7.68379 25.0341C7.53698 24.2162 7.46425 23.3867 7.46646 22.5558ZM8.36943 26.1054C9.37856 26.1056 10.3799 26.2821 11.3283 26.6268C14.5545 27.792 17.1533 30.8233 18.2787 34.7352C18.4113 35.1964 18.5225 35.6688 18.6123 36.1473C16.0756 35.6346 13.7322 34.4243 11.8459 32.6524C9.95952 30.8805 8.60503 28.6174 7.93478 26.1177C8.0766 26.1105 8.22353 26.1054 8.36943 26.1054Z" fill="white"/>
<path d="M21.3253 37.6268C27.5716 37.5972 33.2905 33.6424 35.4648 27.7716C37.6707 21.8171 35.7872 14.9443 30.8887 10.9181C26.0085 6.90729 18.9398 6.38081 13.5332 9.66111C8.15211 12.9261 5.31565 19.354 6.55023 25.5289C7.7746 31.6508 12.871 36.5126 19.0378 37.4523C19.795 37.566 20.5596 37.6243 21.3253 37.6268C21.3539 37.6241 21.3804 37.6108 21.3998 37.5896C21.4191 37.5683 21.4298 37.5407 21.4298 37.512C21.4298 37.4833 21.4191 37.4556 21.3998 37.4344C21.3804 37.4131 21.3539 37.3999 21.3253 37.3972C15.1371 37.3676 9.46525 33.418 7.36035 27.5828C5.26566 21.7701 7.09099 15.1279 11.8242 11.165C16.6258 7.14707 23.6496 6.61038 29.0042 9.85905C34.3098 13.0802 37.1177 19.45 35.8678 25.5361C34.6434 31.5049 29.7061 36.2351 23.6924 37.2094C22.9101 37.3331 22.1194 37.3959 21.3274 37.3972C21.2988 37.3996 21.2721 37.4126 21.2526 37.4337C21.233 37.4547 21.2221 37.4823 21.2218 37.511C21.2216 37.5397 21.232 37.5675 21.2512 37.5889C21.2703 37.6103 21.2968 37.6238 21.3253 37.6268Z" fill="white"/>
<path d="M24.2556 36.1575C25.2433 31.0692 29.0725 26.0238 34.7209 26.2309L34.6097 26.085C33.9338 28.5407 32.5983 30.7645 30.7483 32.5151C28.8982 34.2657 26.6041 35.4763 24.1148 36.0157C23.9699 36.0473 24.0311 36.2687 24.176 36.2371C26.7033 35.6868 29.0319 34.4558 30.91 32.6774C32.788 30.8989 34.144 28.6408 34.8311 26.1472C34.8356 26.1303 34.8362 26.1125 34.8328 26.0953C34.8294 26.078 34.8221 26.0618 34.8114 26.0478C34.8008 26.0339 34.7871 26.0225 34.7714 26.0146C34.7558 26.0067 34.7385 26.0025 34.7209 26.0024C28.9766 25.7922 25.0412 30.91 24.0342 36.0973C24.0066 36.2401 24.2281 36.3024 24.2556 36.1575Z" fill="white"/>
<path d="M21.3253 8.8122C27.6726 8.84485 33.2629 13.2903 34.7199 19.4683L34.9117 19.3571C33.1678 17.5026 31.0628 16.0248 28.7262 15.0147C26.3896 14.0045 23.8709 13.4834 21.3253 13.4834C18.7797 13.4834 16.261 14.0045 13.9244 15.0147C11.5878 16.0248 9.48276 17.5026 7.73887 19.3571L7.93069 19.4683C9.39075 13.2914 14.979 8.84485 21.3253 8.8122C21.3539 8.80951 21.3804 8.79625 21.3997 8.77502C21.4191 8.75379 21.4298 8.72612 21.4298 8.69742C21.4298 8.66872 21.4191 8.64105 21.3997 8.61982C21.3804 8.59859 21.3539 8.58533 21.3253 8.58263C16.3778 8.60814 11.7283 11.2681 9.23668 15.5524C8.53955 16.7549 8.02383 18.0538 7.70622 19.4071C7.70057 19.4313 7.70281 19.4566 7.71263 19.4795C7.72244 19.5023 7.7393 19.5214 7.76075 19.5339C7.78219 19.5465 7.80709 19.5518 7.83179 19.5492C7.8565 19.5466 7.87971 19.5361 7.89804 19.5193C10.6057 16.6419 14.166 14.7102 18.0543 14.0087C21.9426 13.3072 25.9534 13.873 29.4959 15.6228C31.462 16.6018 33.2404 17.9194 34.7495 19.5152C34.7678 19.532 34.791 19.5425 34.8157 19.5451C34.8405 19.5477 34.8654 19.5424 34.8868 19.5298C34.9082 19.5173 34.9251 19.4982 34.9349 19.4754C34.9447 19.4526 34.947 19.4272 34.9413 19.403C33.819 14.6402 30.2132 10.71 25.5392 9.22747C24.1754 8.79962 22.7546 8.58083 21.3253 8.57855C21.31 8.57855 21.2948 8.58157 21.2806 8.58745C21.2664 8.59332 21.2535 8.60192 21.2427 8.61277C21.2318 8.62362 21.2232 8.6365 21.2174 8.65067C21.2115 8.66484 21.2085 8.68004 21.2085 8.69538C21.2085 8.71072 21.2115 8.72591 21.2174 8.74008C21.2232 8.75426 21.2318 8.76714 21.2427 8.77799C21.2535 8.78883 21.2664 8.79744 21.2806 8.80331C21.2948 8.80918 21.31 8.8122 21.3253 8.8122Z" fill="white"/>
<path d="M7.58073 22.5558C7.58073 22.2109 7.52359 21.7487 7.69296 21.4335C7.81846 21.2008 8.05721 20.9845 8.2327 20.7835C9.88888 18.8774 11.9413 17.3559 14.2465 16.3253C16.5517 15.2947 19.0541 14.7798 21.5789 14.8166C24.1038 14.8534 26.5901 15.4411 28.8643 16.5385C31.1384 17.6359 33.1456 19.2166 34.7454 21.1702C35.1852 21.7049 35.0852 22.465 35.0587 23.1282C35.0451 23.4465 35.0209 23.7645 34.9862 24.0822C34.9669 24.2526 35.0005 24.6944 34.8842 24.8097C34.7352 24.9576 34.5414 24.8933 34.3312 24.8933C33.0401 24.8952 31.7619 25.1507 30.5693 25.6453C28.6828 26.4238 27.0666 27.7492 25.8228 29.3572C24.3852 31.2152 23.4425 33.4323 22.9874 35.731C22.9527 35.9055 22.969 36.1035 22.8088 36.2187C22.714 36.2871 22.3538 36.2606 22.2364 36.2687C21.9181 36.2902 21.5988 36.2994 21.2794 36.2983C20.9141 36.2983 20.4907 36.3259 20.1326 36.2473C19.9336 36.2034 19.9418 36.2473 19.8265 36.1014C19.7112 35.9555 19.7153 35.5198 19.6745 35.3403C19.4085 34.1373 19.0027 32.9696 18.4654 31.861C17.4073 29.6918 15.8054 27.7563 13.7495 26.4687C12.6852 25.7982 11.5075 25.3273 10.2743 25.079C9.95601 25.0164 9.63495 24.9698 9.31117 24.9392C8.89386 24.8984 8.43779 24.9637 8.02864 24.8994C7.80825 24.8648 7.83376 24.9209 7.75112 24.7178C7.65725 24.4872 7.66949 24.1475 7.64909 23.8934C7.60623 23.4486 7.58787 23.0017 7.58481 22.5538C7.58211 22.5252 7.56885 22.4986 7.54762 22.4793C7.52639 22.46 7.49872 22.4493 7.47002 22.4493C7.44132 22.4493 7.41365 22.46 7.39242 22.4793C7.37119 22.4986 7.35793 22.5252 7.35524 22.5538C7.3612 23.3949 7.43696 24.2341 7.58175 25.0627C7.58845 25.087 7.60296 25.1085 7.62305 25.1238C7.64315 25.1391 7.66771 25.1474 7.69296 25.1474C10.7539 24.9576 13.6393 26.2197 15.7677 28.392C17.8961 30.5642 19.147 33.3976 19.6449 36.3504C19.6517 36.3744 19.6661 36.3955 19.686 36.4106C19.7059 36.4257 19.7301 36.4339 19.7551 36.434C20.8347 36.5507 21.9239 36.5469 23.0027 36.4228C23.0278 36.4223 23.0522 36.4139 23.0721 36.3986C23.0921 36.3834 23.1068 36.3622 23.1139 36.3381C23.6088 33.3945 24.8617 30.5499 26.9605 28.394C29.0593 26.2381 31.9253 24.9637 34.9658 25.1392C34.9909 25.1393 35.0154 25.1312 35.0355 25.1161C35.0556 25.101 35.0702 25.0797 35.077 25.0555C35.1902 24.4171 35.2618 23.7719 35.2913 23.1241C35.3117 22.6201 35.4178 21.8997 35.2454 21.4243C35.177 21.2345 34.9393 21.0315 34.8036 20.8743C34.5846 20.6193 34.3594 20.3703 34.1282 20.1275C32.4258 18.3188 30.3596 16.8914 28.0655 15.9393C25.7715 14.9871 23.3018 14.5318 20.8191 14.6033C18.3363 14.6748 15.8969 15.2716 13.6615 16.3542C11.4261 17.4369 9.44549 18.9809 7.85009 20.8845C7.71337 21.0478 7.46849 21.259 7.39605 21.462C7.2879 21.7681 7.3532 22.2395 7.35116 22.5599C7.35432 22.5884 7.36803 22.6148 7.38961 22.6338C7.41118 22.6527 7.43907 22.663 7.4678 22.6625C7.49653 22.662 7.52404 22.6507 7.54493 22.631C7.56582 22.6113 7.57858 22.5844 7.58073 22.5558Z" fill="white"/>
<path d="M8.36942 26.2207C13.8556 26.283 17.5338 31.1866 18.497 36.1779L18.6388 36.0371C16.1285 35.513 13.8113 34.3069 11.9418 32.5516C10.0723 30.7962 8.72291 28.5594 8.04191 26.0871L7.93069 26.233C8.07762 26.2258 8.2225 26.2217 8.36942 26.2207C8.398 26.218 8.42454 26.2048 8.44386 26.1835C8.46318 26.1623 8.47388 26.1346 8.47388 26.1059C8.47388 26.0772 8.46318 26.0496 8.44386 26.0283C8.42454 26.0071 8.398 25.9938 8.36942 25.9911C8.2225 25.9911 8.07762 25.9911 7.93069 26.0034C7.91313 26.0036 7.89585 26.0078 7.88016 26.0157C7.86447 26.0235 7.85079 26.0349 7.84016 26.0489C7.82953 26.0629 7.82223 26.0791 7.81883 26.0963C7.81542 26.1135 7.81599 26.1313 7.8205 26.1483C8.512 28.6588 9.88169 30.9304 11.7793 32.7137C13.6769 34.4969 16.029 35.7231 18.5776 36.2575C18.5971 36.2626 18.6176 36.2625 18.637 36.2573C18.6564 36.252 18.6742 36.2417 18.6884 36.2275C18.7027 36.2133 18.7129 36.1955 18.7182 36.1761C18.7234 36.1566 18.7235 36.1362 18.7184 36.1167C17.7358 31.0223 13.9536 26.0544 8.36942 25.9911C8.34085 25.9938 8.31431 26.0071 8.29499 26.0283C8.27567 26.0496 8.26496 26.0772 8.26496 26.1059C8.26496 26.1346 8.27567 26.1623 8.29499 26.1835C8.31431 26.2048 8.34085 26.218 8.36942 26.2207Z" fill="white"/>
<path d="M21.3253 41.1132C24.9956 41.1135 28.5837 40.0254 31.6356 37.9864C34.6874 35.9474 37.0661 33.0492 38.4708 29.6582C39.8754 26.2673 40.2429 22.536 39.5267 18.9362C38.8106 15.3363 37.043 12.0298 34.4475 9.43461C27.2145 2.17409 15.4697 2.15164 8.20311 9.38461C0.936472 16.6176 0.920148 28.3624 8.15413 35.629L8.20311 35.678C9.9223 37.4066 11.9673 38.7771 14.2197 39.71C16.4722 40.643 18.8873 41.1199 21.3253 41.1132ZM8.97956 10.209C11.4214 7.76657 14.5328 6.10311 17.9201 5.42901C21.3074 4.75492 24.8186 5.10048 28.0095 6.42198C31.2004 7.74349 33.9278 9.98158 35.8467 12.8532C37.7656 15.7248 38.7898 19.101 38.7898 22.5548C38.7898 26.0085 37.7656 29.3847 35.8467 32.2563C33.9278 35.1279 31.2004 37.366 28.0095 38.6875C24.8186 40.009 21.3074 40.3546 17.9201 39.6805C14.5328 39.0064 11.4214 37.343 8.97956 34.9005C5.70564 31.6261 3.86633 27.1854 3.86614 22.555C3.86594 17.9246 5.70489 13.4837 8.97854 10.209H8.97956Z" fill="white"/>
<path d="M21.3253 41.2284C28.5838 41.2009 35.3291 36.8962 38.3339 30.2703C40.0072 26.5774 40.4343 22.4405 39.5509 18.4836C38.6675 14.5267 36.5214 10.9643 33.4364 8.3337C27.6931 3.425 19.301 2.48325 12.6119 5.99822C5.79009 9.58358 1.81497 17.2216 2.77508 24.8658C3.78927 32.9262 10.1529 39.6102 18.1817 40.9672C19.2216 41.1414 20.2741 41.2288 21.3284 41.2284C21.3569 41.2257 21.3835 41.2125 21.4028 41.1913C21.4221 41.17 21.4328 41.1424 21.4328 41.1137C21.4328 41.085 21.4221 41.0573 21.4028 41.0361C21.3835 41.0148 21.3569 41.0016 21.3284 40.9989C17.2625 40.9985 13.3102 39.657 10.0842 37.1821C6.85826 34.7073 4.53874 31.2375 3.48522 27.3104C1.53541 20.005 4.34125 12.0588 10.459 7.60826C16.4615 3.24134 24.7587 2.94546 31.057 6.87568C34.5031 9.02235 37.1465 12.2439 38.579 16.0428C40.0115 19.8416 40.1534 24.0065 38.9828 27.894C36.9513 34.6281 31.0601 39.7296 24.1128 40.7877C23.1898 40.9234 22.2582 40.9916 21.3253 40.9917C21.2939 40.9917 21.2638 41.0042 21.2416 41.0264C21.2194 41.0486 21.207 41.0787 21.207 41.1101C21.207 41.1415 21.2194 41.1716 21.2416 41.1938C21.2638 41.216 21.2939 41.2284 21.3253 41.2284Z" fill="white"/>
<path d="M9.06015 10.2906C14.1821 5.21154 22.0987 3.76882 28.6593 6.82975C35.2382 9.90088 39.2705 16.9461 38.6001 24.1689C37.9308 31.4365 32.564 37.6625 25.4769 39.4021C18.4143 41.1366 10.8355 38.1655 6.83281 32.0906C2.92095 26.1564 3.08726 18.1888 7.24502 12.42C7.7935 11.6639 8.4004 10.9519 9.06015 10.2906C9.08166 10.2691 9.09375 10.2399 9.09375 10.2095C9.09375 10.1791 9.08166 10.1499 9.06015 10.1284C9.03863 10.1069 9.00946 10.0948 8.97903 10.0948C8.94861 10.0948 8.91943 10.1069 8.89792 10.1284C3.76373 15.3106 2.30366 23.2965 5.37071 29.9377C8.47653 36.6646 15.7136 40.7826 23.0782 40.0449C30.3938 39.3092 36.6391 33.9087 38.392 26.7656C40.1387 19.6499 37.1819 12.0262 31.0978 7.94392C25.0453 3.88412 16.8308 4.05247 10.9549 8.36429C10.2262 8.90018 9.53858 9.48986 8.89792 10.1284C8.87641 10.1499 8.86432 10.1791 8.86432 10.2095C8.86432 10.2399 8.87641 10.2691 8.89792 10.2906C8.91943 10.3121 8.94861 10.3242 8.97903 10.3242C9.00946 10.3242 9.03863 10.3121 9.06015 10.2906Z" fill="white"/>
<path d="M21.3253 27.3063C22.2649 27.3063 23.1834 27.0277 23.9646 26.5057C24.7458 25.9837 25.3547 25.2418 25.7143 24.3737C26.0738 23.5057 26.1679 22.5505 25.9846 21.629C25.8013 20.7075 25.3489 19.861 24.6845 19.1966C24.0201 18.5323 23.1736 18.0798 22.2521 17.8965C21.3306 17.7132 20.3754 17.8073 19.5074 18.1669C18.6393 18.5264 17.8974 19.1353 17.3754 19.9165C16.8534 20.6977 16.5748 21.6162 16.5748 22.5558C16.5748 23.8157 17.0753 25.024 17.9662 25.9149C18.8571 26.8058 20.0654 27.3063 21.3253 27.3063ZM21.3253 18.9021C22.0483 18.9019 22.755 19.1161 23.3562 19.5176C23.9574 19.9191 24.426 20.4899 24.7027 21.1577C24.9794 21.8256 25.0519 22.5605 24.9109 23.2696C24.7699 23.9786 24.4218 24.6299 23.9106 25.1411C23.3995 25.6523 22.7481 26.0004 22.0391 26.1414C21.3301 26.2824 20.5951 26.2099 19.9273 25.9332C19.2594 25.6564 18.6886 25.1878 18.2871 24.5866C17.8856 23.9855 17.6714 23.2787 17.6716 22.5558C17.6721 21.587 18.0573 20.6581 18.7424 19.9732C19.4275 19.2883 20.3566 18.9034 21.3253 18.9031V18.9021Z" fill="white"/>
<path d="M21.3253 27.4216C22.325 27.4219 23.3005 27.1142 24.1192 26.5405C24.9378 25.9668 25.5599 25.1548 25.9008 24.2151C26.2417 23.2753 26.2849 22.2534 26.0245 21.2882C25.7641 20.3231 25.2127 19.4615 24.4453 18.8208C23.678 18.18 22.7319 17.7912 21.7358 17.7071C20.7396 17.6231 19.7418 17.8479 18.8779 18.351C18.014 18.854 17.3261 19.611 16.9076 20.5189C16.4891 21.4267 16.3604 22.4415 16.539 23.4251C16.9472 25.7351 19.0072 27.3849 21.3253 27.4216C21.3539 27.4189 21.3804 27.4057 21.3997 27.3844C21.4191 27.3632 21.4298 27.3355 21.4298 27.3068C21.4298 27.2781 21.4191 27.2505 21.3997 27.2292C21.3804 27.208 21.3539 27.1947 21.3253 27.192C19.3755 27.1604 17.6032 25.9473 16.9512 24.0903C16.7144 23.4157 16.6368 22.6955 16.7244 21.986C16.8121 21.2765 17.0626 20.5968 17.4565 20.0001C17.8504 19.4035 18.3769 18.906 18.995 18.5466C19.613 18.1872 20.3058 17.9756 21.0191 17.9283C21.7325 17.881 22.4471 17.9993 23.1072 18.2741C23.7672 18.5488 24.3548 18.9724 24.824 19.5119C25.2932 20.0513 25.6312 20.6919 25.8118 21.3837C25.9923 22.0755 26.0104 22.7996 25.8647 23.4996C25.4188 25.6493 23.4986 27.1594 21.3253 27.192C21.2967 27.1947 21.2702 27.208 21.2509 27.2292C21.2316 27.2505 21.2208 27.2781 21.2208 27.3068C21.2208 27.3355 21.2316 27.3632 21.2509 27.3844C21.2702 27.4057 21.2967 27.4189 21.3253 27.4216Z" fill="white"/>
<path d="M21.3253 19.0174C22.8027 19.0459 24.1505 19.9469 24.6556 21.3549C24.8409 21.8677 24.9053 22.4164 24.8437 22.9581C24.7821 23.4999 24.5962 24.0201 24.3005 24.4782C24.0048 24.9364 23.6073 25.32 23.139 25.5992C22.6707 25.8785 22.1442 26.0457 21.6005 26.088C21.0569 26.1303 20.5109 26.0465 20.005 25.8431C19.4991 25.6397 19.047 25.3221 18.684 24.9153C18.321 24.5084 18.0569 24.0232 17.9123 23.4975C17.7676 22.9717 17.7463 22.4197 17.8501 21.8844C18.1664 20.2162 19.654 19.051 21.3253 19.0174C21.3539 19.0147 21.3804 19.0014 21.3997 18.9802C21.419 18.9589 21.4298 18.9313 21.4298 18.9026C21.4298 18.8739 21.419 18.8462 21.3997 18.825C21.3804 18.8037 21.3539 18.7905 21.3253 18.7878C20.5484 18.7879 19.7905 19.0281 19.1554 19.4755C18.5203 19.9229 18.0389 20.5556 17.7772 21.2871C17.5155 22.0186 17.4862 22.8131 17.6934 23.5618C17.9006 24.3106 18.334 24.977 18.9345 25.47C19.535 25.9629 20.2731 26.2582 21.0479 26.3156C21.8226 26.3729 22.5962 26.1894 23.2627 25.7902C23.9291 25.391 24.456 24.7956 24.7711 24.0855C25.0861 23.3754 25.1741 22.5852 25.0229 21.8232C24.678 20.055 23.1006 18.8215 21.3253 18.7878C21.2967 18.7905 21.2702 18.8037 21.2509 18.825C21.2315 18.8462 21.2208 18.8739 21.2208 18.9026C21.2208 18.9313 21.2315 18.9589 21.2509 18.9802C21.2702 19.0014 21.2967 19.0147 21.3253 19.0174Z" fill="white"/>
</svg>
