<svg width="44" height="44" viewBox="0 0 44 44" fill="none" xmlns="http://www.w3.org/2000/svg">
<path d="M28.2364 33.8168C24.8041 36.3995 20.3731 37.3737 16.1944 36.3055C12.749 35.4125 9.76213 33.2634 7.82049 30.2804C5.80035 27.1611 5.04547 23.3889 5.70967 19.7324C6.36222 16.2338 8.29433 13.0211 11.1353 10.8633C12.9165 9.51903 14.9895 8.61367 17.1861 8.22066C19.3827 7.82765 21.641 7.95806 23.7778 8.6013C24.6612 8.86477 25.039 7.48512 24.1577 7.22267C19.9258 5.9574 15.2681 6.53847 11.5121 8.87498C8.17376 10.9648 5.72787 14.2173 4.64659 18.0045C3.54427 21.9459 3.98237 26.159 5.87204 29.7892C7.70491 33.2592 10.7623 35.9238 14.4501 37.2654C19.2958 39.0199 24.848 38.1427 28.9512 35.0505C29.2576 34.8166 29.4138 34.4377 29.2075 34.0732C29.0329 33.7668 28.5376 33.585 28.2292 33.8168H28.2364Z" fill="white"/>
<path d="M24.6601 12.6658C29.2616 15.0492 31.6329 20.4044 30.1481 25.4063C29.7067 26.8785 28.9573 28.2399 27.9494 29.4002C27.35 30.0926 28.3579 31.1077 28.9604 30.4112C30.9783 28.0798 32.1037 25.0958 32.024 22.0016C31.9671 19.8064 31.3208 17.6668 30.153 15.8071C28.9852 13.9474 27.3388 12.436 25.3862 11.4311C24.5692 11.0094 23.8462 12.242 24.6652 12.6658H24.6601Z" fill="white"/>
<path d="M37.1382 25.0151C36.6719 27.9434 35.478 30.7079 33.6661 33.0551C33.4272 33.3614 33.372 33.7699 33.6661 34.0661C33.9102 34.3152 34.4402 34.3724 34.6771 34.0661C36.6634 31.5436 37.9825 28.5616 38.5128 25.395C38.5751 25.0111 38.4106 24.6312 38.0134 24.5158C37.6723 24.4188 37.1964 24.6353 37.1341 25.0151H37.1382Z" fill="white"/>
<path d="M28.8276 7.34219C31.3029 8.83612 33.3772 10.9104 34.8711 13.3857C35.346 14.173 36.5827 13.4551 36.1058 12.6647C34.4845 9.97932 32.234 7.72886 29.5486 6.10755C28.7592 5.63065 28.0403 6.8663 28.8276 7.34219V7.34219Z" fill="white"/>
<path d="M37.5671 12.7249L39.3552 23.1841L39.6095 24.673C39.7647 25.5778 41.1413 25.1948 40.9881 24.2931L39.2 13.8339L38.9457 12.345C38.7905 11.4402 37.4139 11.8232 37.5671 12.7249V12.7249Z" fill="white"/>
<path d="M35.6891 13.7349L38.14 13.1222C39.0325 12.8995 38.6506 11.5199 37.7601 11.7435L35.3092 12.3563C34.4167 12.5789 34.7986 13.9585 35.6891 13.7349Z" fill="white"/>
<path d="M38.0379 25.8872L40.1824 25.3766C41.077 25.1631 40.6981 23.7845 39.8025 23.998L37.658 24.5086C36.7634 24.722 37.1423 26.1006 38.0379 25.8872Z" fill="white"/>
<path d="M25.4914 12.3308L29.4741 7.42903C30.049 6.72133 29.0441 5.70319 28.4631 6.41804L24.4804 11.3198C23.9054 12.0275 24.9103 13.0456 25.4914 12.3308Z" fill="white"/>
<path d="M28.3987 30.6103L33.5047 33.8781C34.2819 34.3765 34.9998 33.1388 34.2257 32.6445L29.1197 29.3767C28.3426 28.8783 27.6247 30.116 28.3987 30.6103Z" fill="white"/>
<path d="M30.2911 13.4715C31.9342 13.4715 31.9362 10.9185 30.2911 10.9185C28.6459 10.9185 28.6459 13.4715 30.2911 13.4715Z" fill="white"/>
<path d="M33.0146 29.3338C34.6567 29.3338 34.6598 26.7808 33.0146 26.7808C31.3694 26.7808 31.3684 29.3338 33.0146 29.3338Z" fill="white"/>
<path d="M24.6744 22.2875C24.6489 24.2656 23.4132 26.115 21.5138 26.7655C20.5916 27.0831 19.5947 27.113 18.6552 26.8513C17.7156 26.5896 16.8777 26.0486 16.2525 25.3C14.9791 23.7682 14.8382 21.5277 15.8604 19.8315C16.8826 18.1353 18.9168 17.2234 20.8541 17.6257C21.927 17.8506 22.8908 18.4356 23.5856 19.2835C24.2805 20.1314 24.6646 21.1913 24.6744 22.2875C24.6866 23.2066 26.1163 23.2066 26.1041 22.2875C26.091 21.0194 25.6936 19.7851 24.9643 18.7476C24.235 17.7102 23.2081 16.9184 22.0193 16.4769C19.6337 15.5884 16.8173 16.3615 15.1966 18.315C13.5341 20.3176 13.2716 23.2168 14.6227 25.4634C15.2829 26.5442 16.2556 27.3991 17.4123 27.915C18.5689 28.4309 19.8549 28.5834 21.1002 28.3524C23.9984 27.8265 26.0683 25.1867 26.1041 22.2875C26.1163 21.3674 24.6866 21.3664 24.6744 22.2875Z" fill="white"/>
</svg>
