<svg width="44" height="44" viewBox="0 0 44 44" fill="none" xmlns="http://www.w3.org/2000/svg">
<path d="M20.142 22.2467C21.1733 24.5292 21.9123 27.0127 22.049 29.5238C22.1401 31.1988 22.0292 33.1779 20.9679 34.5675C18.9759 37.1774 15.4825 34.7059 13.7921 32.9949C12.2633 31.448 11.0507 29.6038 10.0839 27.6616C8.97789 25.4392 8.15547 23.0012 7.87617 20.5288C7.58656 17.9678 7.87617 13.0024 11.5569 13.4406C13.2636 13.6443 14.7916 14.8578 15.9698 16.0317C17.7487 17.8054 19.0988 19.9745 20.142 22.2492C20.4643 22.9513 21.5016 22.3412 21.181 21.6417C20.1609 19.4185 18.8384 17.3053 17.1531 15.5238C15.8855 14.1831 14.3249 12.9224 12.5177 12.4163C11.0241 11.9978 9.41617 12.2556 8.29812 13.3856C6.9343 14.7606 6.57937 16.8876 6.57164 18.7481C6.56047 21.3967 7.23594 24.0522 8.23969 26.4877C9.20133 28.8217 10.4741 31.0286 12.1163 32.9502C14.08 35.2438 17.9996 38.4407 21.0779 36.1299C22.5887 34.9963 23.1095 33.0241 23.2409 31.2263C23.4274 28.6825 22.8723 26.07 22.0163 23.6895C21.7671 22.9952 21.4844 22.3145 21.181 21.6408C20.863 20.9344 19.8258 21.5454 20.142 22.2467Z" fill="white"/>
<path d="M17.9824 23.3226C18.6158 24.7328 19.0704 26.272 19.1477 27.8223C19.201 28.8793 19.1314 30.1469 18.4491 31.0183C17.2073 32.6038 15.0442 31.0742 13.9949 30.024C11.9754 28.0027 10.5849 25.0559 10.2919 22.2157C10.126 20.607 10.3349 17.5106 12.6337 17.8234C13.707 17.9695 14.6627 18.7352 15.4026 19.4752C16.5034 20.576 17.3345 21.9149 17.9807 23.3226C18.3047 24.0247 19.342 23.4145 19.0197 22.715C18.3459 21.2541 17.4642 19.8645 16.335 18.7086C15.4868 17.8389 14.4349 17.032 13.2413 16.7252C12.1945 16.457 11.0928 16.653 10.297 17.4178C9.35173 18.3339 9.06555 19.7639 9.03805 21.0272C8.96758 24.359 10.4801 27.8567 12.6474 30.3411C14.0224 31.9155 16.6513 33.8817 18.749 32.3675C19.9521 31.5013 20.3199 29.9312 20.3586 28.5278C20.4153 26.5186 19.8361 24.5291 19.0206 22.7116C18.7052 22.0103 17.6679 22.6213 17.9824 23.3226Z" fill="white"/>
<path d="M15.6888 24.2731C15.9887 24.9198 16.1834 25.6102 16.2654 26.3184C16.3049 26.7335 16.341 27.2929 16.0995 27.6616C15.944 27.8988 15.7713 27.8816 15.5246 27.7871C15.1164 27.6315 14.777 27.2929 14.4934 26.9732C13.6254 26.0013 13.0324 24.6796 12.8296 23.3956C12.7574 22.9316 12.7127 22.3644 12.9027 21.9192C13.017 21.6494 13.1802 21.591 13.3848 21.6314C13.8394 21.7173 14.233 22.1195 14.532 22.446C15.021 22.9814 15.3854 23.6191 15.6905 24.2731C16.0162 24.9743 17.0543 24.3642 16.7286 23.6655C16.152 22.4263 15.1637 20.8579 13.7431 20.4806C13.1639 20.3268 12.5563 20.4583 12.1413 20.9043C11.6884 21.3916 11.5698 22.1212 11.5749 22.7614C11.5904 24.524 12.3999 26.3493 13.5223 27.6848C14.2373 28.5356 15.577 29.5677 16.6891 28.7659C17.3284 28.3044 17.4969 27.4459 17.4909 26.7034C17.4814 25.6455 17.154 24.6228 16.7286 23.6655C16.4141 22.9591 15.3768 23.571 15.6888 24.2731Z" fill="white"/>
<path d="M24.8789 8.46482C25.0508 8.482 24.8016 8.44935 24.9073 8.46482C24.9537 8.47255 25.001 8.48028 25.0465 8.4906C25.1324 8.51036 25.2184 8.53099 25.3086 8.55591C25.5068 8.61275 25.7002 8.68516 25.887 8.77247C26.3547 8.99724 26.7982 9.26936 27.2104 9.58458C28.337 10.4362 29.2849 11.5405 30.0816 12.699C31.1781 14.2948 32.0117 16.0505 32.7113 17.8552C33.3223 19.4296 33.8285 21.0529 34.1206 22.7184C34.3432 23.9843 34.4403 25.367 34.2676 26.6088C34.2229 26.9328 34.3467 27.2508 34.6878 27.3487C34.968 27.4295 35.3831 27.2499 35.4278 26.9285C35.8463 23.9164 35.1012 20.845 34.0596 18.0305C32.8006 14.63 31.0595 11.116 28.16 8.81114C27.2061 8.05318 26.1147 7.3863 24.8789 7.26427C24.1055 7.18607 24.1149 8.39005 24.8789 8.46739V8.46482Z" fill="white"/>
<path d="M22.7734 33.648L33.5414 28.148L35.0625 27.3745C35.75 27.0231 35.1484 25.9841 34.4558 26.3364L23.6878 31.8364L22.1667 32.6098C21.4792 32.9613 22.0808 34.0003 22.7734 33.648Z" fill="white"/>
<path d="M12.4919 13.5137L23.173 9.15063L24.695 8.5293C24.9983 8.40555 25.2055 8.13055 25.1152 7.78938C25.0396 7.50321 24.6752 7.24626 24.3753 7.36915L13.6941 11.7322L12.1722 12.3535C11.8688 12.4773 11.6617 12.7523 11.7519 13.0934C11.8276 13.3796 12.1919 13.6366 12.4919 13.5137Z" fill="white"/>
<path d="M29.2617 8.46486C29.3803 8.47689 29.2918 8.46486 29.2669 8.46486C29.3047 8.47088 29.3425 8.47775 29.3794 8.48549C29.4473 8.5001 29.5135 8.51557 29.5797 8.53361C29.6458 8.55166 29.7172 8.57486 29.7851 8.59807C29.8246 8.61182 29.981 8.67541 29.9415 8.65822C30.277 8.80962 30.5941 8.99876 30.8868 9.22197C31.6456 9.7926 32.2901 10.536 32.8444 11.3017C34.59 13.7174 35.7947 16.4808 36.3765 19.4038C36.6721 20.9258 36.7821 22.4727 36.8268 24.0204C36.8491 24.7938 38.0523 24.7938 38.0299 24.0204C37.9989 22.5426 37.866 21.0687 37.632 19.6092C37.3343 17.9032 36.8226 16.2416 36.1092 14.6635C35.0908 12.3699 33.7537 9.95416 31.7453 8.37635C31.014 7.80143 30.1984 7.35885 29.2643 7.25916C28.4951 7.1801 28.5003 8.38408 29.2643 8.46228L29.2617 8.46486Z" fill="white"/>
<path d="M37.3115 24.5352C38.0849 24.5352 38.0849 23.332 37.3115 23.332C36.538 23.332 36.538 24.5352 37.3115 24.5352Z" fill="white"/>
<path d="M27.1898 9.30017L29.0804 8.52673C29.3812 8.40384 29.596 8.12626 29.5006 7.78681C29.4224 7.50236 29.0632 7.24283 28.7607 7.36658L26.8701 8.14001C26.5693 8.2629 26.3545 8.54048 26.4498 8.88079C26.528 9.16525 26.8873 9.42392 27.1898 9.30017Z" fill="white"/>
<path d="M37.3398 24.1055C38.1133 24.1055 38.1133 22.9023 37.3398 22.9023C36.5664 22.9023 36.5664 24.1055 37.3398 24.1055Z" fill="white"/>
<path d="M35.3203 25.9136L37.5547 24.7964C38.2473 24.4527 37.6406 23.412 36.948 23.7583L34.7136 24.8755C34.0209 25.2192 34.6277 26.2599 35.3203 25.9136Z" fill="white"/>
</svg>
