<svg width="44" height="44" viewBox="0 0 44 44" fill="none" xmlns="http://www.w3.org/2000/svg">
<path d="M31.2409 6.40837L27.848 9.80118H28.7031L26.7042 7.80657V8.65736L30.097 5.26454H29.2462L31.2409 7.25915C31.7891 7.80743 32.6399 6.95665 32.0916 6.40837L30.097 4.41376C29.9829 4.3034 29.8304 4.2417 29.6716 4.2417C29.5129 4.2417 29.3604 4.3034 29.2462 4.41376L25.8534 7.80657C25.7429 7.92058 25.681 8.07315 25.681 8.23197C25.681 8.39078 25.7429 8.54335 25.8534 8.65736L27.848 10.6563C27.962 10.7668 28.1146 10.8287 28.2734 10.8287C28.4322 10.8287 28.5848 10.7668 28.6988 10.6563L32.0916 7.26345C32.6399 6.71087 31.7891 5.86009 31.2409 6.40837Z" fill="white"/>
<path d="M17.9223 33.2192L13.2266 37.9148L12.5512 38.5903H13.4062L11.4116 36.5956V37.4464L15.1611 33.697C15.7094 33.1487 14.8586 32.2979 14.3103 32.8462L10.5609 36.5956C10.4503 36.7097 10.3885 36.8622 10.3885 37.021C10.3885 37.1799 10.4503 37.3324 10.5609 37.4464L12.5512 39.4453C12.6652 39.5559 12.8177 39.6177 12.9766 39.6177C13.1354 39.6177 13.2879 39.5559 13.402 39.4453L18.0976 34.7497L18.773 34.0742C19.3213 33.526 18.4705 32.6752 17.9223 33.2235V33.2192Z" fill="white"/>
<path d="M12.9697 29.3107C13.5627 29.8968 14.1728 30.4709 14.7512 31.0716C14.9067 31.2332 15.1276 31.4042 15.2187 31.6147C15.2874 31.7737 15.1491 31.9404 15.0073 32.1252C14.6764 32.5549 14.2691 32.9253 13.8832 33.3051C13.3298 33.8491 14.1814 34.699 14.734 34.1559C15.2152 33.6824 15.7111 33.2175 16.0995 32.6615C16.6392 31.888 16.4691 31.1429 15.8512 30.4829C15.1989 29.786 14.4994 29.1311 13.8205 28.46C13.2687 27.9151 12.418 28.765 12.9697 29.3107Z" fill="white"/>
<path d="M32.2309 14.4417L28.0431 18.6295L21.3984 25.2759L19.8576 26.8167H20.7109L14.0078 20.1136L13.0505 19.1563V20.0071L17.2382 15.8193L23.8846 9.17291L25.4255 7.63205H24.5747L31.2778 14.3352L32.2309 15.2968C32.7791 15.8451 33.6299 14.9943 33.0816 14.446L26.3785 7.74291L25.4195 6.77955C25.3056 6.66878 25.1529 6.60681 24.9941 6.60681C24.8352 6.60681 24.6826 6.66878 24.5687 6.77955L20.3809 10.9673L13.7345 17.6171L12.1937 19.158C12.0829 19.2719 12.0209 19.4245 12.0209 19.5834C12.0209 19.7423 12.0829 19.8949 12.1937 20.0088L18.8968 26.7119L19.8559 27.6718C19.9699 27.7824 20.1224 27.8442 20.2812 27.8442C20.4401 27.8442 20.5926 27.7824 20.7066 27.6718L24.8944 23.4841L31.5391 16.8334L33.0859 15.2968C33.6299 14.7442 32.7791 13.8935 32.2309 14.4417Z" fill="white"/>
<path d="M14.8371 22.1839C13.9602 22.7343 13.2008 23.4528 12.6027 24.298C12.1455 24.9468 11.8344 25.7091 11.7966 26.5083C11.7502 27.4785 12.1748 28.3448 12.7643 29.0864C12.968 29.3442 13.4011 29.2952 13.6151 29.0864C13.8729 28.838 13.8162 28.4848 13.6151 28.2356C12.7239 27.1184 12.9112 25.8397 13.7491 24.7586C14.0914 24.3324 14.4806 23.9461 14.9093 23.607C15.0796 23.4691 15.2578 23.3411 15.443 23.2237C16.0995 22.8155 15.4954 21.774 14.8354 22.1848L14.8371 22.1839Z" fill="white"/>
<path d="M18.5625 34.3037C19.2406 33.6317 19.6797 32.7448 19.7218 31.7831C19.7674 30.6307 19.1632 29.6012 18.3468 28.8364C17.7813 28.3087 16.9288 29.1578 17.496 29.6871C18.0907 30.2423 18.5608 30.9375 18.5213 31.7831C18.4903 32.4285 18.1655 33.006 17.7143 33.4529C17.1634 33.9978 18.0142 34.8485 18.5651 34.3037H18.5625Z" fill="white"/>
<path d="M18.1715 28.6644C17.5862 28.0938 16.9804 27.5378 16.4175 26.9457C16.3328 26.8636 16.2599 26.7702 16.2009 26.6681C16.1734 26.6148 16.1709 26.5117 16.1605 26.5658C16.2181 26.2702 16.6229 26.0648 16.8257 25.8852C17.1179 25.6274 17.3817 25.3249 17.6559 25.0473C18.2007 24.4965 17.3508 23.6448 16.8051 24.1965C16.4373 24.5669 16.0703 24.9219 15.681 25.2656C15.0691 25.8001 14.7297 26.5598 15.1834 27.3101C15.4653 27.7767 15.9139 28.1445 16.3006 28.5226L17.3198 29.5161C17.875 30.0566 18.7266 29.2067 18.1706 28.6653L18.1715 28.6644Z" fill="white"/>
<path d="M23.9379 6.99959L31.7522 14.8139L32.8754 15.9371C33.4237 16.4854 34.2745 15.6346 33.7262 15.0863L25.9119 7.27201L24.7887 6.14881C24.2404 5.60053 23.3896 6.45131 23.9379 6.99959Z" fill="white"/>
<path d="M11.5629 19.3746L19.3772 27.1889L20.5004 28.3121C21.0487 28.8604 21.8994 28.0096 21.3512 27.4613L13.5369 19.647L12.4137 18.5238C11.8654 17.9755 11.0146 18.8263 11.5629 19.3746Z" fill="white"/>
</svg>
