<svg width="252" height="252" viewBox="0 0 252 252" fill="none" xmlns="http://www.w3.org/2000/svg">
<rect width="252" height="252" fill="#111111"/>
<g clip-path="url(#clip0_7_145464)">
<path d="M71.668 133.286C74.0031 133.286 75.6525 131.919 76.1483 130.527C76.4077 132.389 78.129 133.45 81.2402 132.908V130.385C79.8502 130.385 79.4494 129.656 79.4494 128.24V124.87C79.4494 121.877 77.1629 120.273 73.5328 120.273C69.6409 120.271 67.2826 121.921 67.2826 124.562H71.5266C71.5266 123.524 72.1869 122.794 73.4355 122.794C74.566 122.794 75.2031 123.359 75.2031 124.138C75.2031 124.798 74.661 125.199 73.271 125.528L71.4803 125.905C68.2741 126.614 67 127.745 67 129.679C67 131.965 68.8394 133.286 71.668 133.286ZM72.729 130.763C71.7629 130.763 71.2208 130.316 71.2208 129.489C71.2208 128.806 71.7629 128.31 72.8958 128.004L73.8154 127.745C74.522 127.531 74.9946 127.297 75.2054 127.038V127.698C75.2054 129.278 74.1676 130.763 72.729 130.763ZM88.9614 130.385C87.1707 130.362 86.6031 129.797 86.6031 128.24V114.283H82.3359V127.531C82.3359 132.341 83.3019 133.355 88.9614 132.906V130.383V130.385ZM96.5992 133.286C100.748 133.286 103.436 130.694 103.436 126.755C103.436 122.817 100.748 120.271 96.5992 120.271C92.4502 120.271 89.7861 122.84 89.7861 126.755C89.7861 130.67 92.4734 133.286 96.5992 133.286ZM96.5992 130.763C95.068 130.763 94.0764 129.16 94.0764 126.755C94.0764 124.351 95.068 122.794 96.5992 122.794C98.1305 122.794 99.1683 124.374 99.1683 126.755C99.1683 129.137 98.1537 130.763 96.5992 130.763ZM109.581 132.908V126.26C109.581 124.161 110.406 122.912 111.822 122.912C113.001 122.912 113.638 124.019 113.638 125.812V132.908H117.882V126C117.882 121.805 116.302 120.271 113.756 120.271C112.13 120.271 110.596 120.836 109.584 122.321V114.283H105.317V132.908H109.584H109.581ZM124.575 133.286C126.907 133.286 128.559 131.919 129.055 130.527C129.314 132.389 131.036 133.45 134.147 132.908V130.385C132.757 130.385 132.354 129.656 132.354 128.24V124.87C132.354 121.877 130.067 120.273 126.437 120.273C122.547 120.273 120.189 121.923 120.189 124.564H124.433C124.433 123.526 125.093 122.796 126.342 122.796C127.475 122.796 128.11 123.362 128.11 124.14C128.11 124.8 127.568 125.201 126.175 125.53L124.385 125.907C121.178 126.614 119.904 127.747 119.904 129.679C119.904 131.965 121.744 133.286 124.572 133.286H124.575ZM125.636 130.763C124.669 130.763 124.127 130.316 124.127 129.489C124.127 128.806 124.669 128.31 125.802 128.004L126.722 127.745C127.429 127.531 127.901 127.297 128.112 127.038V127.698C128.112 129.278 127.074 130.763 125.638 130.763H125.636ZM139.134 129.396C139.134 129.232 139.181 129.042 139.276 128.877C139.841 128.995 140.432 129.042 141.092 129.042C144.794 129.042 147.245 127.179 147.245 124.633C147.245 123.313 146.561 122.157 145.382 121.381C145.947 120.908 146.631 120.674 147.856 120.885V117.489C145.971 117.229 144.273 118.409 143.707 120.626C142.929 120.389 142.058 120.271 141.09 120.271C137.364 120.271 134.937 122.111 134.937 124.633C134.937 126 135.643 127.179 136.871 127.958C136.141 128.546 135.527 129.278 135.527 129.985C135.527 131.187 136.329 131.775 137.436 132.107C135.386 132.579 134.325 133.545 134.325 134.771C134.325 136.775 136.753 138 141.233 138C145.477 138 148.283 136.42 148.283 134.206C148.283 128.854 139.134 131.212 139.134 129.396ZM141.092 122.465C142.366 122.465 143.142 123.385 143.142 124.633C143.142 125.882 142.364 126.85 141.092 126.85C139.82 126.85 139.088 125.907 139.088 124.633C139.088 123.359 139.818 122.465 141.092 122.465ZM141.233 136.163C139.535 136.163 138.615 135.362 138.615 134.301C138.615 133.594 138.898 132.934 139.581 132.51C141.75 132.792 143.99 132.911 143.99 134.514C143.99 135.456 143.001 136.163 141.231 136.163H141.233ZM153.124 133.286C155.459 133.286 157.109 131.919 157.605 130.527C157.864 132.389 159.585 133.45 162.697 132.908V130.385C161.307 130.385 160.906 129.656 160.906 128.24V124.87C160.906 121.877 158.619 120.273 154.989 120.273C151.1 120.273 148.741 121.923 148.741 124.564H152.985C152.985 123.526 153.646 122.796 154.894 122.796C156.025 122.796 156.662 123.362 156.662 124.14C156.662 124.8 156.12 125.201 154.727 125.53L152.934 125.907C149.728 126.614 148.454 127.747 148.454 129.679C148.454 131.965 150.293 133.286 153.122 133.286H153.124ZM154.185 130.763C153.219 130.763 152.677 130.316 152.677 129.489C152.677 128.806 153.219 128.31 154.352 128.004L155.272 127.745C155.978 127.531 156.451 127.297 156.664 127.038V127.698C156.664 129.278 155.626 130.763 154.188 130.763H154.185ZM166.213 118.622C167.603 118.622 168.618 117.633 168.618 116.312C168.618 114.992 167.603 114.002 166.213 114.002C164.823 114.002 163.808 114.992 163.808 116.312C163.808 117.633 164.846 118.622 166.213 118.622ZM168.358 132.908V120.649H164.091V132.908H168.358ZM175.202 133.286C177.537 133.286 179.186 131.919 179.682 130.527C179.941 132.389 181.663 133.45 184.774 132.908V130.385C183.384 130.385 182.983 129.656 182.983 128.24V124.87C182.983 121.877 180.697 120.273 177.066 120.273C173.177 120.273 170.819 121.923 170.819 124.564H175.063C175.063 123.526 175.723 122.796 176.971 122.796C178.104 122.796 178.739 123.362 178.739 124.14C178.739 124.8 178.197 125.201 176.805 125.53L175.014 125.907C171.808 126.614 170.534 127.747 170.534 129.679C170.534 131.965 172.373 133.286 175.202 133.286ZM176.263 130.763C175.297 130.763 174.754 130.316 174.754 129.489C174.754 128.806 175.297 128.31 176.429 128.004L177.349 127.745C178.056 127.531 178.528 127.297 178.741 127.038V127.698C178.741 129.278 177.703 130.763 176.265 130.763H176.263Z" fill="white"/>
</g>
<defs>
<clipPath id="clip0_7_145464">
<rect width="117.774" height="24" fill="white" transform="translate(67 114)"/>
</clipPath>
</defs>
</svg>
