<svg style="display: none;" aria-hidden="true" xmlns="http://www.w3.org/2000/svg" xmlns:xlink="http://www.w3.org/1999/xlink"><symbol viewBox="0 0 512 512" id="svg-fav"><path d="M244 84L255.1 96L267.1 84.02C300.6 51.37 347 36.51 392.6 44.1C461.5 55.58 512 115.2 512 185.1V190.9C512 232.4 494.8 272.1 464.4 300.4L283.7 469.1C276.2 476.1 266.3 480 256 480C245.7 480 235.8 476.1 228.3 469.1L47.59 300.4C17.23 272.1 0 232.4 0 190.9V185.1C0 115.2 50.52 55.58 119.4 44.1C164.1 36.51 211.4 51.37 244 84C243.1 84 244 84.01 244 84L244 84zM255.1 163.9L210.1 117.1C188.4 96.28 157.6 86.4 127.3 91.44C81.55 99.07 48 138.7 48 185.1V190.9C48 219.1 59.71 246.1 80.34 265.3L256 429.3L431.7 265.3C452.3 246.1 464 219.1 464 190.9V185.1C464 138.7 430.4 99.07 384.7 91.44C354.4 86.4 323.6 96.28 301.9 117.1L255.1 163.9z"/></symbol><symbol viewBox="0 0 31 30" fill="none" id="svg-fb"><path d="M30.3825 14.7679C30.3825 22.9239 23.7707 29.5357 15.6147 29.5357C7.4586 29.5357 0.846802 22.9239 0.846802 14.7679C0.846802 6.6118 7.4586 0 15.6147 0C23.7707 0 30.3825 6.6118 30.3825 14.7679Z" fill="#fff"/><path d="M17.1126 10.9366H18.8285V8.44678H16.8114V8.45576C14.3674 8.54079 13.8664 9.89031 13.8223 11.3077H13.8173V12.551H12.153V14.9893H13.8173V21.5253H16.3254V14.9893H18.38L18.7769 12.551H16.3262V11.7998C16.3262 11.3208 16.6507 10.9366 17.1126 10.9366Z" fill="#5D5FEF"/></symbol><symbol viewBox="0 0 31 31" fill="none" id="svg-inst"><path d="M30.2349 15.5173C30.2349 23.6734 23.6231 30.2852 15.467 30.2852C7.31095 30.2852 0.699158 23.6734 0.699158 15.5173C0.699158 7.36125 7.31095 0.749451 15.467 0.749451C23.6231 0.749451 30.2349 7.36125 30.2349 15.5173Z" fill="#fff"/><path fill-rule="evenodd" clip-rule="evenodd" d="M12.9051 8.6828C10.5457 8.6828 8.633 10.5955 8.633 12.9549V18.295C8.633 20.6544 10.5457 22.5671 12.9051 22.5671H18.2452C20.6046 22.5671 22.5173 20.6544 22.5173 18.295V12.9549C22.5173 10.5955 20.6046 8.6828 18.2452 8.6828H12.9051ZM15.5752 11.8869C13.5107 11.8869 11.8371 13.5605 11.8371 15.625C11.8371 17.6894 13.5107 19.363 15.5752 19.363C17.6396 19.363 19.3132 17.6894 19.3132 15.625C19.3132 13.5605 17.6396 11.8869 15.5752 11.8869ZM19.5421 12.6497C20.0898 12.6497 20.5338 12.2057 20.5338 11.658C20.5338 11.1103 20.0898 10.6663 19.5421 10.6663C18.9944 10.6663 18.5504 11.1103 18.5504 11.658C18.5504 12.2057 18.9944 12.6497 19.5421 12.6497Z" fill="#5D5FEF"/></symbol><symbol viewBox="0 0 24 24" id="svg-lev"><rect x="11" y="7" width="2" height="15" rx="1"/><rect x="7" y="11" width="2" height="11" rx="1"/><rect x="3" y="15" width="2" height="7" rx="1"/><rect x="15" y="10" width="2" height="12" rx="1"/><rect x="19" y="2" width="2" height="20" rx="1"/></symbol><symbol viewBox="0 0 24 24" fill="none" id="svg-not"><path d="M17.7145 14.3835V10.9635C17.7145 8.42321 16.1146 6.20807 13.9118 5.38066C13.9375 5.25 13.9517 5.11648 13.9517 4.98291C13.9518 3.8884 13.0775 3 12.0004 3C10.9233 3 10.0491 3.8884 10.0491 4.98291C10.0491 5.11357 10.0633 5.24418 10.0862 5.36903C9.32909 5.64194 8.62911 6.0745 8.032 6.66095C6.90634 7.76418 6.28637 9.24772 6.28637 10.8387V14.3835C6.28637 14.5084 6.18637 14.6129 6.06065 14.6129C5.00641 14.6129 4.10642 15.42 4.00928 16.4477C3.95498 17.0197 4.14072 17.5887 4.5207 18.0126C4.89781 18.4335 5.43782 18.6774 6.00062 18.6774H9.44623C9.58907 19.981 10.6805 21 12.0004 21C13.3204 21 14.4118 19.981 14.5546 18.6774H18.0002C18.5631 18.6774 19.103 18.4335 19.4802 18.0126C19.8573 17.5887 20.043 17.0197 19.9916 16.4477C19.8944 15.42 18.9916 14.6129 17.9402 14.6129C17.8145 14.6128 17.7145 14.5112 17.7145 14.3835ZM12.0004 4.16127C12.4461 4.16127 12.8089 4.52998 12.8089 4.98286C12.8089 5.02058 12.8032 5.05544 12.7975 5.09316C12.6032 5.06412 12.4061 5.0438 12.2089 5.03798C11.8689 5.02635 11.5347 5.04962 11.2033 5.09607C11.1975 5.05835 11.1918 5.02349 11.1918 4.98577C11.1919 4.52998 11.5548 4.16127 12.0004 4.16127ZM12.0004 19.8386C11.3119 19.8386 10.7348 19.3393 10.6005 18.6774H13.4003C13.2661 19.3393 12.689 19.8386 12.0004 19.8386ZM18.8545 16.558C18.8773 16.8077 18.8002 17.0487 18.6373 17.2316C18.4688 17.4145 18.2459 17.5161 18.0002 17.5161H6.00067C5.75496 17.5161 5.53214 17.4144 5.36639 17.2316C5.20069 17.0487 5.12354 16.8077 5.14639 16.558C5.18638 16.1196 5.58925 15.7742 6.06065 15.7742C6.81492 15.7742 7.42916 15.15 7.42916 14.3835V10.8387C7.42916 9.56707 7.92627 8.37968 8.82626 7.49709C9.68622 6.65227 10.8062 6.19353 12.0004 6.19353C12.0576 6.19353 12.1118 6.19353 12.169 6.19644C14.5946 6.28351 16.5717 8.42321 16.5717 10.9635V14.3835C16.5717 15.15 17.1859 15.7742 17.9402 15.7742C18.4116 15.7742 18.8116 16.1196 18.8545 16.558Z" fill="#74767E"/></symbol><symbol viewBox="0 0 24 24" id="svg-out"><path d="M19.15 2H13.4499C13.198 2 12.9563 2.10536 12.7782 2.29289C12.6 2.48043 12.4999 2.73478 12.4999 3C12.4999 3.26522 12.6 3.51957 12.7782 3.70711C12.9563 3.89464 13.198 4 13.4499 4H19.15C19.4019 4 19.6436 4.10536 19.8217 4.29289C19.9999 4.48043 20.1 4.73478 20.1 5V19C20.1 19.2652 19.9999 19.5196 19.8217 19.7071C19.6436 19.8946 19.4019 20 19.15 20H13.4499C13.198 20 12.9563 20.1054 12.7782 20.2929C12.6 20.4804 12.4999 20.7348 12.4999 21C12.4999 21.2652 12.6 21.5196 12.7782 21.7071C12.9563 21.8946 13.198 22 13.4499 22H19.15C19.9058 22 20.6308 21.6839 21.1652 21.1213C21.6997 20.5587 22 19.7956 22 19V5C22 4.20435 21.6997 3.44129 21.1652 2.87868C20.6308 2.31607 19.9058 2 19.15 2Z"/><path d="M8.4215 15.293C8.51224 15.3852 8.58461 15.4956 8.6344 15.6176C8.68419 15.7396 8.7104 15.8708 8.7115 16.0036C8.71259 16.1364 8.68856 16.2681 8.64079 16.391C8.59302 16.5138 8.52248 16.6255 8.43328 16.7194C8.34408 16.8133 8.23801 16.8875 8.12126 16.9378C8.00451 16.9881 7.87941 17.0134 7.75327 17.0122C7.62712 17.0111 7.50246 16.9835 7.38656 16.9311C7.27065 16.8787 7.16583 16.8025 7.07819 16.707L3.27815 12.707C3.10005 12.5195 3 12.2652 3 12C3 11.7348 3.10005 11.4805 3.27815 11.293L7.07819 7.293C7.16583 7.19749 7.27065 7.12131 7.38656 7.0689C7.50246 7.01649 7.62712 6.9889 7.75327 6.98775C7.87941 6.9866 8.00451 7.0119 8.12126 7.06218C8.23801 7.11246 8.34408 7.18671 8.43328 7.2806C8.52248 7.3745 8.59302 7.48615 8.64079 7.60905C8.68856 7.73194 8.71259 7.86362 8.7115 7.9964C8.7104 8.12918 8.68419 8.2604 8.6344 8.3824C8.58461 8.50441 8.51224 8.61475 8.4215 8.707L6.24313 11H17.2499C17.5019 11 17.7435 11.1054 17.9217 11.2929C18.0999 11.4804 18.2 11.7348 18.2 12C18.2 12.2652 18.0999 12.5196 17.9217 12.7071C17.7435 12.8946 17.5019 13 17.2499 13H6.24313L8.4215 15.293Z"/></symbol><symbol viewBox="0 0 24 24" id="svg-port"><path fill-rule="evenodd" clip-rule="evenodd" d="M8.54545 4L3 4 3 4V9.54545H8.54545V4zM3 2C1.89543 2 1 2.89543 1 4V9.54545C1 10.65 1.89543 11.5455 3 11.5455H8.54545C9.65002 11.5455 10.5455 10.65 10.5455 9.54545V4C10.5455 2.89543 9.65002 2 8.54545 2H3zM8.54545 15.4547L3 15.4547 3 15.4547V21.0001H8.54545V15.4547zM3 13.4547C1.89543 13.4547 1 14.3501 1 15.4547V21.0001C1 22.1047 1.89543 23.0001 3 23.0001H8.54545C9.65002 23.0001 10.5455 22.1047 10.5455 21.0001V15.4547C10.5455 14.3501 9.65002 13.4547 8.54545 13.4547H3zM20.0001 4L14.4547 4 14.4547 4V9.54545H20.0001V4zM14.4547 2C13.3501 2 12.4547 2.89543 12.4547 4V9.54545C12.4547 10.65 13.3501 11.5455 14.4547 11.5455H20.0001C21.1047 11.5455 22.0001 10.65 22.0001 9.54545V4C22.0001 2.89543 21.1047 2 20.0001 2H14.4547zM20.0001 15.4547L14.4547 15.4547 14.4547 15.4547V21.0001H20.0001V15.4547zM14.4547 13.4547C13.3501 13.4547 12.4547 14.3501 12.4547 15.4547V21.0001C12.4547 22.1047 13.3501 23.0001 14.4547 23.0001H20.0001C21.1047 23.0001 22.0001 22.1047 22.0001 21.0001V15.4547C22.0001 14.3501 21.1047 13.4547 20.0001 13.4547H14.4547z"/></symbol><symbol viewBox="0 0 24 24" fill="none" id="svg-prem"><path d="M5 20H19M2 4L5 16H19L22 4L16 11L12 4L8 11L2 4Z" stroke="#5D5FEF" stroke-width="2" stroke-linecap="round" stroke-linejoin="round"/></symbol><symbol viewBox="0 0 24 24" id="svg-sett"><path fill-rule="evenodd" clip-rule="evenodd" d="M8.63186 2.69058C8.7235 1.99436 9.3431 1.5 10.0334 1.5H13.9698C14.663 1.5 15.2801 1.99718 15.3722 2.69905L15.6709 4.72719C15.9949 4.88295 16.3104 5.0619 16.6158 5.26258L18.611 4.48254C19.2637 4.24839 20.0051 4.49818 20.348 5.09985L22.3147 8.41343C22.6573 9.02342 22.5131 9.77747 21.9602 10.2029L21.9581 10.2045L20.2892 11.4749C20.3017 11.6381 20.3103 11.8152 20.3103 12C20.3103 12.1844 20.3021 12.3615 20.2896 12.5254L21.9593 13.7969C22.5098 14.2224 22.6581 14.9743 22.32 15.5783L22.3138 15.5895L20.3431 18.9088C20.0003 19.5132 19.2487 19.7597 18.6065 19.5168L18.6012 19.5148L16.612 18.737C16.2997 18.9414 15.987 19.1193 15.6702 19.2728L15.3704 21.3094C15.2788 22.0056 14.6592 22.5 13.9689 22.5H10.0325C9.33929 22.5 8.72223 22.0028 8.63013 21.301L8.33137 19.2733C8.00748 19.1173 7.69161 18.9385 7.38606 18.7381L5.39577 19.5162L5.38789 19.519C4.73646 19.7489 3.99547 19.5039 3.65319 18.9005L1.68636 15.5867C1.3457 14.9779 1.48773 14.2243 2.04003 13.7983L2.04242 13.7965L3.71276 12.5242C3.69922 12.3404 3.69208 12.1677 3.69208 12C3.69208 11.8324 3.6992 11.6595 3.7133 11.4751L2.046 10.2062L2.04383 10.2046C1.48736 9.77626 1.33244 9.00152 1.69749 8.39788L3.65917 5.09208C4.00123 4.48898 4.75079 4.23856 5.39681 4.48441L5.40106 4.48603L7.39027 5.26385C7.70259 5.05944 8.01527 4.88157 8.33211 4.7281L8.63186 2.69058ZM10.4558 3.33811L10.0942 5.49691C10.0443 5.82165 9.82416 6.08845 9.52657 6.20862L9.52429 6.20955C9.04355 6.40093 8.56679 6.66885 8.06598 7.03522L8.0643 7.03645C7.80731 7.22281 7.47151 7.26845 7.17149 7.15049L5.11284 6.34524L3.52227 8.95796L5.26053 10.3384C5.51411 10.5342 5.6514 10.8507 5.60958 11.176C5.56673 11.513 5.54773 11.7722 5.54773 12C5.54773 12.2286 5.56603 12.4887 5.60947 12.823C5.65185 13.1497 5.51274 13.4693 5.25582 13.6651L3.49404 15.0061L5.05076 17.6289L7.17556 16.8484C7.173 16.8493 7.17043 16.8504 7.16787 16.8514L7.35315 17.3158L7.18073 16.8464L7.17556 16.8484C7.2895 16.8041 7.40425 16.7858 7.51316 16.7858C7.70933 16.7858 7.90818 16.8474 8.07458 16.9728L7.77418 17.3725L8.07541 16.9734L8.07458 16.9728C8.53283 17.3157 9.02049 17.5909 9.52424 17.7921C9.82647 17.9126 10.0462 18.1832 10.0955 18.5083L10.0959 18.5105L10.4076 20.6273L13.5464 20.662L13.9073 18.5042C13.9572 18.1775 14.1794 17.91 14.4782 17.7912C14.9583 17.6 15.4344 17.3314 15.937 16.9651L15.9386 16.964C16.1949 16.7786 16.5311 16.7335 16.8294 16.8501L18.8886 17.6556L20.503 15.0037L18.7457 13.6653C18.489 13.4696 18.3498 13.1502 18.3919 12.8238C18.4236 12.5769 18.4537 12.2986 18.4537 12C18.4537 11.7022 18.4236 11.4231 18.3919 11.1762C18.3498 10.8488 18.489 10.5304 18.7456 10.3348L20.5071 8.99411L18.9507 6.37186L16.8254 7.15261C16.524 7.26917 16.1862 7.22167 15.9292 7.02997C15.4697 6.68586 14.981 6.40995 14.4781 6.20956M3.5 15C3.49404 14.9986 3.49404 14.9986 3.49404 15.0061C3.5 15 3.5295 15.0627 3.49404 14.9986L3.5 15ZM10.4558 3.33811L13.5954 3.37348L13.9064 5.49098L13.9068 5.49335C13.9561 5.81859 14.1757 6.08914 14.4781 6.20956M7.22199 12C7.22199 9.41393 9.37789 7.33332 12.0007 7.33332C14.6236 7.33332 16.7795 9.41393 16.7795 12C16.7795 14.5861 14.6236 16.6667 12.0007 16.6667C9.37789 16.6667 7.22199 14.5861 7.22199 12ZM12.0007 9.16668C10.3765 9.16668 9.07776 10.4502 9.07776 12C9.07776 13.5498 10.3765 14.8333 12.0007 14.8333C13.6249 14.8333 14.9237 13.5498 14.9237 12C14.9237 10.4502 13.6249 9.16668 12.0007 9.16668Z"/></symbol><symbol viewBox="0 0 24 24" id="svg-star"><path fill-rule="evenodd" clip-rule="evenodd" d="M12 5.19583L10.5098 8.64912C10.0435 9.72973 9.02425 10.4673 7.85469 10.5756L4.11241 10.922L6.93295 13.3947C7.81738 14.1701 8.20795 15.3674 7.94853 16.5161L7.12184 20.1767L10.3604 18.2575C11.3713 17.6585 12.6287 17.6585 13.6396 18.2575L16.8782 20.1767L16.0515 16.5161C15.792 15.3674 16.1826 14.1701 17.0671 13.3947L19.8876 10.922L16.1453 10.5756C14.9757 10.4673 13.9565 9.72973 13.4902 8.64912L12 5.19583ZM13.1153 2.73255C12.6938 1.75582 11.3062 1.75582 10.8847 2.73255L8.67352 7.85671C8.49772 8.26412 8.11293 8.54312 7.67036 8.58408L2.10383 9.09932C1.04277 9.19753 0.613961 10.5146 1.41453 11.2165L5.61448 14.8986C5.94841 15.1914 6.09538 15.6428 5.99766 16.0755L4.76852 21.5181C4.53423 22.5556 5.65688 23.3696 6.57313 22.8266L11.38 19.9781C11.7622 19.7517 12.2378 19.7517 12.62 19.9781L17.4269 22.8266C18.3431 23.3696 19.4658 22.5556 19.2315 21.5181L18.0023 16.0755C17.9046 15.6428 18.0516 15.1914 18.3855 14.8986L22.5855 11.2165C23.386 10.5146 22.9572 9.19753 21.8962 9.09932L16.3296 8.58408C15.8871 8.54312 15.5023 8.26412 15.3265 7.85671L13.1153 2.73255Z"/></symbol><symbol viewBox="0 0 20 18" id="svg-sup"><path d="M4.24286 12.0488L1.60738 14.0638C0.949352 14.5669 0 14.0977 0 13.2693V0.926829C0 0.681019 0.10034 0.445276 0.278946 0.271462C0.457552 0.0976478 0.699794 0 0.952381 0H15.2381C15.4907 0 15.7329 0.0976478 15.9115 0.271462C16.0901 0.445276 16.1905 0.681019 16.1905 0.926829V12.0488H4.24286ZM3.58381 10.1951H14.2857V1.85366H1.90476V11.4788L3.58381 10.1951ZM6.66667 13.9024H16.4162L18.0952 15.1861V5.56098H19.0476C19.3002 5.56098 19.5424 5.65862 19.7211 5.83244C19.8997 6.00625 20 6.24199 20 6.4878V16.9767C20 17.805 19.0506 18.2742 18.3926 17.7711L15.7571 15.7561H7.61905C7.36646 15.7561 7.12422 15.6585 6.94561 15.4846C6.76701 15.3108 6.66667 15.0751 6.66667 14.8293V13.9024Z"/></symbol><symbol viewBox="0 0 30 30" fill="none" id="svg-tg"><path d="M29.5357 15.1311C29.5357 23.2872 22.9239 29.899 14.7679 29.899C6.6118 29.899 0 23.2872 0 15.1311C0 6.97505 6.6118 0.363251 14.7679 0.363251C22.9239 0.363251 29.5357 6.97505 29.5357 15.1311Z" fill="#fff"/><path d="M7.91124 14.8788L11.1868 16.1013L12.4546 20.1786C12.5357 20.4397 12.855 20.5363 13.067 20.363L14.8928 18.8745C15.0842 18.7186 15.3568 18.7108 15.5568 18.856L18.85 21.2469C19.0767 21.4117 19.3979 21.2875 19.4548 21.0135L21.8672 9.40935C21.9293 9.11007 21.6352 8.8604 21.3502 8.97062L7.9074 14.1565C7.57566 14.2844 7.57855 14.7541 7.91124 14.8788ZM12.2503 15.4505L18.6519 11.5077C18.7669 11.4371 18.8853 11.5927 18.7865 11.6843L13.5033 16.5953C13.3176 16.7681 13.1978 16.9995 13.1639 17.2506L12.9839 18.5842C12.9601 18.7623 12.71 18.78 12.6608 18.6077L11.9687 16.1756C11.8894 15.8982 12.0049 15.6019 12.2503 15.4505Z" fill="#5D5FEF"/></symbol><symbol viewBox="0 0 24 24" id="svg-user"><path fill-rule="evenodd" clip-rule="evenodd" d="M12 5C10.3431 5 9 6.34315 9 8C9 9.65685 10.3431 11 12 11C13.6569 11 15 9.65685 15 8C15 6.34315 13.6569 5 12 5ZM7 8C7 5.23858 9.23858 3 12 3C14.7614 3 17 5.23858 17 8C17 10.7614 14.7614 13 12 13C9.23858 13 7 10.7614 7 8Z"/><path fill-rule="evenodd" clip-rule="evenodd" d="M6.29768 13.6846C7.78447 11.9854 9.8319 11 12 11C14.1681 11 16.2155 11.9854 17.7023 13.6846C19.1854 15.3796 20 17.653 20 20C20 20.5523 19.5523 21 19 21C18.4477 21 18 20.5523 18 20C18 18.1036 17.3396 16.3073 16.1972 15.0016C15.0585 13.7003 13.5449 13 12 13C10.4551 13 8.94154 13.7003 7.80283 15.0016C6.66039 16.3073 6 18.1036 6 20C6 20.5523 5.55228 21 5 21C4.44772 21 4 20.5523 4 20C4 17.653 4.81461 15.3796 6.29768 13.6846Z"/></symbol><symbol viewBox="0 0 30 30" fill="none" id="svg-vk"><circle cx="15.166" cy="14.768" r="14.768" fill="#fff"/><path d="M19.9479 15.9145C19.7006 15.6192 19.7714 15.4878 19.9479 15.2238C19.9511 15.2207 21.9925 12.5529 22.2028 11.6481L22.2041 11.6475C22.3086 11.3178 22.2041 11.0755 21.6987 11.0755H20.0263C19.6006 11.0755 19.4043 11.2835 19.2991 11.5161C19.2991 11.5161 18.4477 13.4438 17.2431 14.6933C16.8543 15.0544 16.6746 15.1701 16.4624 15.1701C16.3579 15.1701 16.1954 15.0544 16.1954 14.7247V11.6475C16.1954 11.2521 16.0762 11.0755 15.7237 11.0755H13.0941C12.8271 11.0755 12.6684 11.2599 12.6684 11.4317C12.6684 11.8067 13.2707 11.8929 13.3331 12.9477V15.2364C13.3331 15.7379 13.2369 15.8301 13.0234 15.8301C12.4549 15.8301 11.0751 13.8947 10.2574 11.6795C10.0923 11.2497 9.93108 11.0761 9.50216 11.0761H7.82918C7.35182 11.0761 7.25558 11.2841 7.25558 11.5167C7.25558 11.9278 7.82408 13.9718 9.89921 16.6722C11.2822 18.5155 13.2299 19.5143 15.0016 19.5143C16.0666 19.5143 16.1966 19.2925 16.1966 18.9109C16.1966 17.1496 16.1004 16.9832 16.6338 16.9832C16.8811 16.9832 17.3068 17.099 18.3011 17.9881C19.4374 19.0423 19.6242 19.5143 20.2602 19.5143H21.9326C22.4093 19.5143 22.6508 19.2925 22.5119 18.8548C22.1939 17.9344 20.0448 16.0411 19.9479 15.9145Z" fill="#5D5FEF"/></symbol></svg>