<svg width="47" height="86" viewBox="0 0 47 86" fill="none" xmlns="http://www.w3.org/2000/svg">
<path opacity="0.4" d="M7.29289 0.292893C7.68342 -0.0976311 8.31658 -0.0976311 8.70711 0.292893L15.0711 6.65685C15.4616 7.04738 15.4616 7.68054 15.0711 8.07107C14.6805 8.46159 14.0474 8.46159 13.6569 8.07107L8 2.41421L2.34315 8.07107C1.95262 8.46159 1.31946 8.46159 0.928932 8.07107C0.538408 7.68054 0.538408 7.04738 0.928932 6.65685L7.29289 0.292893ZM46 84C46.5523 84 47 84.4477 47 85C47 85.5523 46.5523 86 46 86L46 84ZM28 85L28 84L28 85ZM9 1L9 2.06667L7 2.06667L7 1L9 1ZM9 4.2L9 6.33333L7 6.33333L7 4.2L9 4.2ZM9 8.46667L9 10.6L7 10.6L7 8.46667L9 8.46667ZM9 12.7333L9 14.8667L7 14.8667L7 12.7333L9 12.7333ZM9 17L9 19.1333L7 19.1333L7 17L9 17ZM9 21.2667L9 23.4L7 23.4L7 21.2667L9 21.2667ZM9 25.5333L9 27.6667L7 27.6667L7 25.5333L9 25.5333ZM9 29.8L9 31.9333L7 31.9333L7 29.8L9 29.8ZM9 34.0667L9 36.2L7 36.2L7 34.0667L9 34.0667ZM9 38.3333L9 40.4667L7 40.4667L7 38.3333L9 38.3333ZM9 42.6L9 44.7333L7 44.7333L7 42.6L9 42.6ZM9 46.8666L9 49L7 49L7 46.8666L9 46.8666ZM9 51.1333L9 53.2666L7 53.2666L7 51.1333L9 51.1333ZM9 55.4L9 57.5333L7 57.5333L7 55.4L9 55.4ZM9 59.6666L9 61.8L7 61.8L7 59.6666L9 59.6666ZM9 63.9333L9 65L7 65L7 63.9333L9 63.9333ZM9 65C9 65.3581 9.00989 65.7138 9.02942 66.0668L7.03247 66.1772C7.01091 65.7875 7 65.395 7 65L9 65ZM9.26569 68.1854C9.3849 68.8919 9.54309 69.585 9.73796 70.2625L7.81588 70.8154C7.60032 70.0659 7.42537 69.2993 7.29357 68.5182L9.26569 68.1854ZM10.4413 72.2727C10.7146 72.9318 11.024 73.5722 11.367 74.1915L9.61743 75.1605C9.23825 74.4759 8.89615 73.7677 8.59388 73.0388L10.4413 72.2727ZM12.5024 75.9948C12.9148 76.575 13.359 77.131 13.8324 77.6604L12.3415 78.9936C11.8186 78.4088 11.3279 77.7946 10.8723 77.1536L12.5024 75.9948ZM15.3396 79.1676C15.869 79.641 16.425 80.0852 17.0051 80.4975L15.8464 82.1277C15.2054 81.6721 14.5912 81.1814 14.0064 80.6585L15.3396 79.1676ZM18.8085 81.633C19.4278 81.976 20.0682 82.2854 20.7273 82.5587L19.9612 84.4061C19.2323 84.1038 18.5241 83.7617 17.8395 83.3826L18.8085 81.633ZM22.7375 83.262C23.415 83.4569 24.1081 83.6151 24.8146 83.7343L24.4818 85.7064C23.7007 85.5746 22.9341 85.3997 22.1846 85.1841L22.7375 83.262ZM26.9332 83.9706C27.2862 83.9901 27.6419 84 28 84L28 86C27.605 86 27.2125 85.9891 26.8228 85.9675L26.9332 83.9706ZM28 84L29.125 84L29.125 86L28 86L28 84ZM31.375 84L33.625 84L33.625 86L31.375 86L31.375 84ZM35.875 84L38.125 84L38.125 86L35.875 86L35.875 84ZM40.375 84L42.625 84L42.625 86L40.375 86L40.375 84ZM44.875 84L46 84L46 86L44.875 86L44.875 84Z" fill="black"/>
</svg>
