<svg width="1920" height="1203" viewBox="0 0 1920 1203" fill="none" xmlns="http://www.w3.org/2000/svg">
<path d="M1966.53 -532.059C1762.64 -451.02 1442.98 -287.018 1605.6 230.695C1812.55 889.521 2318.27 716.927 2093.66 1225.43" stroke="#E5EEF5"/>
<path d="M1909.1 -411.045C1705.21 -330.092 1385.55 -166.264 1548.17 350.901C1755.12 1009.03 2260.84 836.618 2036.24 1344.58" stroke="#E5EEF5"/>
<path d="M1850.34 -301.202C1646.45 -220.163 1326.78 -56.1614 1489.41 461.551C1696.36 1120.38 2202.08 947.783 1977.47 1456.29" stroke="#E5EEF5"/>
<path d="M1786.23 -204.391C1582.34 -123.352 1262.68 40.6496 1425.3 558.362C1632.25 1217.19 2137.98 1044.59 1913.37 1553.1" stroke="#E5EEF5"/>
<path d="M1722.12 -120.613C1518.23 -39.5741 1198.57 124.428 1361.2 642.141C1568.15 1300.97 2073.87 1128.37 1849.26 1636.88" stroke="#E5EEF5"/>
<path d="M1652.68 -59.1753C1448.79 21.9492 1129.13 186.125 1291.75 704.386C1498.7 1363.91 2004.42 1191.13 1779.81 1700.17" stroke="#E5EEF5"/>
<path d="M1581.89 -14.4932C1378 66.6314 1058.34 230.807 1220.97 749.068C1427.92 1408.59 1933.64 1235.82 1709.03 1744.86" stroke="#E5EEF5"/>
<path d="M1509.78 7.84766C1305.89 88.8863 986.225 252.888 1148.85 770.601C1355.8 1429.43 1861.52 1256.83 1636.91 1765.34" stroke="#E5EEF5"/>
<path d="M1436.74 11.5713C1233.31 92.61 914.374 256.612 1076.63 774.325C1283.11 1433.15 1787.69 1260.56 1563.59 1769.06" stroke="#E5EEF5"/>
<path d="M1364.62 0.400879C1161.19 81.4396 842.255 245.442 1004.51 763.154C1210.99 1421.98 1715.57 1249.39 1491.47 1757.89" stroke="#E5EEF5"/>
<path d="M1292.09 -21.9404C1088.2 59.0983 768.534 223.1 931.158 740.813C1138.11 1399.64 1643.83 1227.05 1419.22 1735.55" stroke="#E5EEF5"/>
<path d="M1219.97 -49.8667C1016.08 31.172 696.415 195.174 859.039 712.887C1065.99 1371.71 1571.71 1199.12 1347.1 1707.62" stroke="#E5EEF5"/>
<path d="M1147.85 -81.5161C943.957 -0.477422 624.296 163.525 786.92 681.237C993.87 1340.06 1499.59 1167.47 1274.98 1675.97" stroke="#E5EEF5"/>
<path d="M1077.06 -113.166C873.174 -32.1273 553.512 131.875 716.136 649.587C923.087 1308.41 1428.81 1135.82 1204.2 1644.32" stroke="#E5EEF5"/>
<path d="M1004.94 -142.954C801.055 -62.0013 481.393 101.827 644.017 618.991C850.968 1277.12 1356.69 1104.71 1132.08 1612.67" stroke="#E5EEF5"/>
<path d="M932.828 -170.88C728.938 -89.8412 409.276 74.1608 571.9 591.874C778.851 1250.7 1284.57 1078.11 1059.96 1586.61" stroke="#E5EEF5"/>
<path d="M859.789 -195.083C656.362 -114.13 337.425 49.6986 499.68 566.863C706.161 1224.99 1210.74 1052.58 986.638 1560.54" stroke="#E5EEF5"/>
<path d="M787.67 -213.7C584.242 -132.747 265.305 31.0814 427.561 548.246C634.042 1206.37 1138.62 1033.96 914.519 1541.93" stroke="#E5EEF5"/>
<path d="M712.464 -228.594C508.575 -147.555 188.913 16.447 351.537 534.16C558.487 1192.99 1064.21 1020.39 839.601 1528.89" stroke="#E5EEF5"/>
<path d="M640.345 -239.765C436.455 -158.726 116.794 5.27608 279.418 522.989C486.368 1181.81 992.091 1009.22 767.482 1517.72" stroke="#E5EEF5"/>
<path d="M568.228 -247.212C364.338 -166.173 44.6764 -2.17119 207.3 515.542C414.251 1174.37 919.973 1001.77 695.365 1510.28" stroke="#E5EEF5"/>
<path d="M496.109 -254.658C292.219 -173.534 -27.4427 -9.35792 135.181 508.903C342.132 1168.43 847.854 995.65 623.246 1504.69" stroke="#E5EEF5"/>
<path d="M421.734 -254.658C218.307 -173.62 -100.63 -9.61748 61.6252 508.095C268.107 1166.92 772.682 994.327 548.583 1502.83" stroke="#E5EEF5"/>
<path d="M349.201 -250.935C145.311 -169.982 -174.351 -6.15392 -11.7268 511.01C195.224 1169.14 700.946 996.727 476.338 1504.69" stroke="#E5EEF5"/>
<path d="M277.082 -243.488C73.1917 -162.45 -246.47 1.55245 -83.846 519.265C123.105 1178.09 628.827 1005.5 404.219 1514" stroke="#E5EEF5"/>
<path d="M204.964 -230.456C1.07451 -149.503 -318.587 14.3251 -155.963 531.489C50.9874 1189.62 556.71 1017.21 332.101 1525.17" stroke="#E5EEF5"/>
<path d="M132.845 -209.977C-71.0446 -128.852 -390.706 35.3237 -228.082 553.585C-21.1317 1213.11 484.591 1040.33 259.982 1549.37" stroke="#E5EEF5"/>
<path d="M60.7261 -176.465C-143.164 -95.512 -462.826 68.3163 -300.201 585.481C-93.2508 1243.61 412.472 1071.2 187.863 1579.16" stroke="#E5EEF5"/>
<path d="M-10.0571 -133.645C-213.947 -52.6063 -533.609 111.396 -370.985 629.108C-164.034 1287.93 341.688 1115.34 117.08 1623.84" stroke="#E5EEF5"/>
<path d="M-79.5043 -75.9307C-283.394 5.10803 -603.056 169.11 -440.432 686.823C-233.481 1345.65 272.241 1173.05 47.6326 1681.56" stroke="#E5EEF5"/>
</svg>
