<svg width="1584" height="278" viewBox="0 0 1584 278" fill="none" xmlns="http://www.w3.org/2000/svg">
<path d="M1572.68 84.4285C1572.97 87.0081 1572.05 89.7234 1569.79 92.5891C1567.53 95.4598 1563.96 98.4132 1559.1 101.425C1549.39 107.448 1534.7 113.59 1515.49 119.752C1477.09 132.07 1420.88 144.4 1350.96 156.047C1211.15 179.338 1016.69 199.872 800.719 212.124C584.751 224.376 388.201 226.025 245.013 218.789C173.413 215.171 115.191 209.333 74.565 201.498C54.2441 197.579 38.3835 193.17 27.4669 188.318C22.0073 185.891 17.8382 183.376 14.9713 180.797C12.1094 178.222 10.6097 175.643 10.3246 173.064C10.0394 170.484 10.954 167.769 13.2145 164.903C15.4789 162.033 19.0436 159.079 23.902 156.067C33.6165 150.044 48.3109 143.902 67.5175 137.741C105.915 125.423 162.13 113.092 232.043 101.446C371.856 78.1547 566.319 57.6204 782.287 45.3682C998.255 33.1159 1194.8 31.4673 1337.99 38.7031C1409.59 42.3214 1467.82 48.1595 1508.44 55.9946C1528.76 59.9137 1544.62 64.322 1555.54 69.1744C1561 71.6013 1565.17 74.116 1568.03 76.6955C1570.9 79.2707 1572.4 81.8489 1572.68 84.4285Z" stroke="#E7EFF6" stroke-width="2"/>
<path d="M1572.68 104.429C1572.97 107.008 1572.05 109.723 1569.79 112.589C1567.53 115.46 1563.96 118.413 1559.1 121.425C1549.39 127.448 1534.7 133.59 1515.49 139.752C1477.09 152.07 1420.88 164.4 1350.96 176.047C1211.15 199.338 1016.69 219.872 800.719 232.124C584.751 244.376 388.201 246.025 245.013 238.789C173.413 235.171 115.191 229.333 74.565 221.498C54.2441 217.579 38.3835 213.17 27.4669 208.318C22.0073 205.891 17.8382 203.376 14.9713 200.797C12.1094 198.222 10.6097 195.643 10.3246 193.064C10.0394 190.484 10.954 187.769 13.2145 184.903C15.4789 182.033 19.0436 179.079 23.902 176.067C33.6165 170.044 48.3109 163.902 67.5175 157.741C105.915 145.423 162.13 133.092 232.043 121.446C371.856 98.1547 566.319 77.6204 782.287 65.3682C998.255 53.1159 1194.8 51.4673 1337.99 58.7031C1409.59 62.3214 1467.82 68.1595 1508.44 75.9946C1528.76 79.9137 1544.62 84.322 1555.54 89.1744C1561 91.6013 1565.17 94.116 1568.03 96.6955C1570.9 99.2707 1572.4 101.849 1572.68 104.429Z" stroke="#E7EFF6" stroke-width="2"/>
<circle cx="459" cy="68" r="9" fill="#E7EFF6"/>
<circle cx="733" cy="214" r="9" fill="#E7EFF6"/>
<circle cx="438" cy="241" r="9" fill="#E7EFF6"/>
<circle cx="1341" cy="173" r="9" fill="#E7EFF6"/>
<circle cx="1359" cy="38" r="9" fill="#E7EFF6"/>
</svg>
