<svg width="116" height="24" viewBox="0 0 116 24" fill="none" xmlns="http://www.w3.org/2000/svg">
<g style="mix-blend-mode:multiply" clip-path="url(#clip0_436_623)">
<path d="M50.2705 13.3785V18.0812H47.757V13.419L42.6895 4.88525H45.284L49.1354 11.2704L53.007 4.88525H55.4192L50.2705 13.3785Z" fill="#15161A"/>
<path d="M57.4256 17.4725C56.6218 17.0694 55.9579 16.4337 55.5202 15.6482C55.0517 14.8428 54.8133 13.9243 54.831 12.9928C54.8128 12.0676 55.0514 11.1554 55.5202 10.3576C55.9692 9.5809 56.6301 8.94811 57.4256 8.53331C58.2744 8.10561 59.2117 7.88281 60.1621 7.88281C61.1126 7.88281 62.0498 8.10561 62.8986 8.53331C63.6896 8.95433 64.349 9.58565 64.804 10.3576C65.2728 11.1554 65.5114 12.0676 65.4932 12.9928C65.5109 13.9243 65.2725 14.8428 64.804 15.6482C64.3605 16.4292 63.6982 17.0634 62.8986 17.4725C62.0498 17.9002 61.1126 18.123 60.1621 18.123C59.2117 18.123 58.2744 17.9002 57.4256 17.4725ZM62.2905 15.263C62.5786 14.9619 62.8026 14.6054 62.9489 14.2152C63.0952 13.825 63.1609 13.4091 63.1419 12.9928C63.1585 12.5767 63.0918 12.1615 62.9456 11.7716C62.7994 11.3817 62.5767 11.025 62.2905 10.7225C62.0045 10.4606 61.6686 10.2591 61.3029 10.1302C60.9371 10.0013 60.5491 9.9477 60.1621 9.9725C59.7844 9.97131 59.4104 10.0461 59.0621 10.1923C58.7139 10.3386 58.3987 10.5533 58.1351 10.8239C57.8489 11.1264 57.6262 11.4831 57.48 11.873C57.3338 12.2628 57.2671 12.6781 57.2837 13.0941C57.2647 13.5104 57.3304 13.9263 57.4767 14.3165C57.623 14.7067 57.847 15.0632 58.1351 15.3644C58.3977 15.6377 58.7123 15.8556 59.0604 16.0053C59.4086 16.155 59.7832 16.2334 60.1621 16.236C60.565 16.2307 60.9624 16.1414 61.3289 15.9739C61.6953 15.8063 62.0228 15.5642 62.2905 15.263Z" fill="#15161A"/>
<path d="M77.4323 7.9458V18.0809H75.2025V16.8039C74.816 17.2537 74.3302 17.6076 73.7836 17.8377C73.2375 18.0295 72.6589 18.1122 72.0809 18.0809C71.5062 18.1142 70.9307 18.0328 70.3878 17.8414C69.8449 17.65 69.3455 17.3524 68.9188 16.9661C68.5083 16.5251 68.1936 16.0038 67.9948 15.4351C67.7959 14.8664 67.7171 14.2627 67.7633 13.662V7.9458H70.0539V13.358C69.9939 14.0861 70.2111 14.8101 70.662 15.385C70.8839 15.6143 71.1528 15.7928 71.4502 15.9083C71.7476 16.0237 72.0665 16.0734 72.385 16.0539C72.7597 16.074 73.1343 16.0139 73.4839 15.8776C73.8335 15.7413 74.1499 15.5319 74.412 15.2634C74.9378 14.6444 75.1998 13.8438 75.1417 13.0336V7.9458H77.4323Z" fill="#15161A"/>
<path d="M89.3109 18.0816L86.6352 14.2505H83.169V18.0816H80.7163V4.88562H86.1285C87.1444 4.85815 88.1542 5.05181 89.0879 5.45319C89.9132 5.76412 90.6215 6.32367 91.115 7.05454C91.5723 7.80432 91.8045 8.66976 91.7839 9.54778C91.8055 10.4506 91.5585 11.3395 91.0744 12.1018C90.5769 12.8243 89.8692 13.3762 89.0474 13.6829L91.9258 18.0816H89.3109ZM88.419 7.70319C87.716 7.209 86.864 6.97271 86.0068 7.03427H83.169V12.264H86.0068C86.8665 12.3214 87.7194 12.0777 88.419 11.5748C88.7103 11.3287 88.938 11.0159 89.0826 10.663C89.2273 10.3101 89.2848 9.92758 89.2501 9.54778C89.2749 9.18382 89.2125 8.81918 89.0679 8.48423C88.9234 8.14928 88.7009 7.85371 88.419 7.62211V7.70319Z" fill="#15161A"/>
<path d="M103.561 13.7429H95.716C95.8301 14.4485 96.2157 15.0814 96.7904 15.5064C97.4262 15.9452 98.1873 16.1657 98.9593 16.1348C99.4618 16.1537 99.9627 16.068 100.43 15.883C100.898 15.6981 101.322 15.418 101.676 15.0605L102.932 16.4996C102.481 17.0471 101.894 17.4664 101.23 17.7159C99.5229 18.3303 97.6421 18.2428 95.9998 17.4726C95.1588 17.0781 94.4535 16.4433 93.9728 15.6483C93.5274 14.8377 93.2939 13.9279 93.2939 13.003C93.2939 12.0782 93.5274 11.1683 93.9728 10.3578C94.4096 9.59262 95.0475 8.9617 95.8174 8.53343C96.6644 8.10709 97.6065 7.90472 98.5539 7.94559C99.4617 7.92152 100.359 8.1458 101.148 8.59424C101.91 9.01081 102.536 9.63688 102.953 10.3983C103.394 11.2346 103.617 12.1689 103.601 13.1145C103.601 13.3246 103.588 13.5345 103.561 13.7429ZM96.6485 10.4186C96.1255 10.8698 95.7865 11.4973 95.6958 12.1821H101.371C101.29 11.5092 100.966 10.8891 100.459 10.4388C99.9368 9.97194 99.2541 9.72501 98.5539 9.74965C97.8576 9.72759 97.1782 9.96612 96.6485 10.4186Z" fill="#15161A"/>
<path d="M115.784 7.94594V16.4392C115.88 17.1656 115.806 17.9046 115.568 18.5975C115.329 19.2904 114.933 19.9183 114.41 20.4316C113.886 20.9448 113.251 21.3293 112.554 21.5546C111.856 21.7799 111.116 21.8399 110.392 21.7297C109.467 21.7363 108.546 21.6135 107.655 21.3649C106.876 21.1593 106.146 20.801 105.507 20.3108L106.561 18.5473C107.057 18.9372 107.62 19.2327 108.223 19.4189C108.879 19.6267 109.562 19.736 110.25 19.7432C111.126 19.8087 111.995 19.5409 112.682 18.9932C112.955 18.6814 113.162 18.3179 113.291 17.9243C113.419 17.5308 113.468 17.1153 113.432 16.7027V16.1757C113.038 16.6251 112.536 16.9669 111.973 17.1689C111.372 17.4017 110.732 17.5186 110.088 17.5135C109.192 17.5268 108.308 17.3179 107.513 16.9054C106.755 16.5148 106.122 15.9174 105.689 15.1824C105.25 14.4138 105.019 13.544 105.019 12.6588C105.019 11.7736 105.25 10.9037 105.689 10.1351C106.13 9.41101 106.761 8.82197 107.513 8.43242C108.322 8.071 109.203 7.90436 110.088 7.94594C110.779 7.93171 111.467 8.04864 112.115 8.29053C112.7 8.52154 113.216 8.89834 113.615 9.38513V7.94594H115.784ZM112.621 14.777C112.895 14.5156 113.111 14.2008 113.258 13.852C113.404 13.5033 113.478 13.1282 113.473 12.75C113.485 12.3707 113.416 11.9933 113.269 11.6434C113.122 11.2936 112.901 10.9796 112.621 10.723C112.022 10.203 111.245 9.93434 110.453 9.97296C109.641 9.93692 108.848 10.2208 108.243 10.7635C107.964 11.0202 107.743 11.3341 107.596 11.684C107.449 12.0338 107.379 12.4113 107.392 12.7905C107.387 13.1687 107.46 13.5439 107.607 13.8926C107.753 14.2413 107.97 14.5562 108.243 14.8176C108.848 15.3603 109.641 15.6441 110.453 15.6081C111.256 15.6246 112.035 15.3264 112.621 14.777Z" fill="#15161A"/>
<path d="M34.9564 10.1225L25.91 1.05584C25.3741 0.524318 24.6499 0.226074 23.8952 0.226074C23.1404 0.226074 22.4162 0.524318 21.8803 1.05584L17.9515 5.08545L13.9219 1.15658C13.386 0.625058 12.6618 0.326814 11.907 0.326814C11.1523 0.326814 10.4281 0.625058 9.89224 1.15658L0.865898 10.1225C0.334376 10.6583 0.0361328 11.3825 0.0361328 12.1373C0.0361328 12.892 0.334376 13.6162 0.865898 14.1521L9.91238 23.1986C10.4482 23.7301 11.1724 24.0283 11.9272 24.0283C12.682 24.0283 13.4061 23.7301 13.942 23.1986L17.9716 19.2697L21.9005 23.1986C22.4363 23.7301 23.1605 24.0283 23.9153 24.0283C24.6701 24.0283 25.3942 23.7301 25.9301 23.1986L34.9564 14.1521C35.488 13.6162 35.7862 12.892 35.7862 12.1373C35.7862 11.3825 35.488 10.6583 34.9564 10.1225Z" fill="url(#paint0_linear_436_623)"/>
<path opacity="0.5" d="M12.7949 14.1808L21.8416 23.2276C22.9668 24.3528 24.791 24.3528 25.9162 23.2276L34.9629 14.1808C36.0881 13.0557 36.0881 11.2314 34.9629 10.1063L25.9162 1.05951C24.791 -0.0656597 22.9668 -0.0656597 21.8416 1.05951L12.7949 10.1063C11.6697 11.2314 11.6697 13.0557 12.7949 14.1808Z" fill="#00E8FC"/>
<path d="M34.9563 10.1224L25.9099 1.0558C25.5911 0.733469 25.1997 0.49212 24.7686 0.351915C24.3375 0.21171 23.8791 0.176721 23.4316 0.249873C24.0253 0.352438 24.5735 0.633582 25.0032 1.0558L34.0497 10.1224C34.5812 10.6583 34.8794 11.3825 34.8794 12.1372C34.8794 12.892 34.5812 13.6162 34.0497 14.152L25.0032 23.2187C24.5735 23.6409 24.0253 23.922 23.4316 24.0246C23.8791 24.0978 24.3375 24.0628 24.7686 23.9226C25.1997 23.7824 25.5911 23.541 25.9099 23.2187L34.9563 14.152C35.4879 13.6162 35.7861 12.892 35.7861 12.1372C35.7861 11.3825 35.4879 10.6583 34.9563 10.1224Z" fill="#00E8FC"/>
<path opacity="0.5" d="M0.866153 14.1586L9.9129 23.2054C11.0381 24.3305 12.8623 24.3305 13.9875 23.2054L23.0342 14.1586C24.1594 13.0335 24.1594 11.2092 23.0342 10.084L13.9875 1.03729C12.8623 -0.0878751 11.0381 -0.0878765 9.9129 1.03729L0.866153 10.084C-0.259015 11.2092 -0.259015 13.0335 0.866153 14.1586Z" fill="#F6028F"/>
</g>
<defs>
<linearGradient id="paint0_linear_436_623" x1="0.0196786" y1="12.1373" x2="35.8027" y2="12.1373" gradientUnits="userSpaceOnUse">
<stop stop-color="#A40B9E"/>
<stop offset="0.12" stop-color="#9C11A2"/>
<stop offset="0.31" stop-color="#8420AC"/>
<stop offset="0.54" stop-color="#5E3ABD"/>
<stop offset="0.81" stop-color="#2A5DD4"/>
<stop offset="1" stop-color="#007AE7"/>
</linearGradient>
<clipPath id="clip0_436_623">
<rect width="115.784" height="24" fill="white"/>
</clipPath>
</defs>
</svg>
