<svg width="49" height="49" viewBox="0 0 49 49" fill="none" xmlns="http://www.w3.org/2000/svg">
<g clip-path="url(#clip0_101_268)">
<path d="M48.7099 21.5128C48.6341 20.8381 47.8472 20.3306 47.1667 20.3306C44.9676 20.3306 43.0159 19.0398 42.1974 17.0421C41.3619 14.9963 41.901 12.611 43.5394 11.1079C44.0555 10.6361 44.1184 9.846 43.6857 9.29757C42.5598 7.86815 41.2807 6.57678 39.8837 5.4577C39.3371 5.01929 38.534 5.08032 38.0596 5.60529C36.6292 7.18957 34.0595 7.77827 32.0738 6.94981C30.0081 6.08066 28.7043 3.98677 28.8324 1.73927C28.8745 1.03287 28.358 0.419044 27.6541 0.337049C25.8612 0.129466 24.0526 0.123446 22.2545 0.322933C21.5595 0.399739 21.0434 0.99903 21.0665 1.69651C21.1443 3.922 19.8258 5.97894 17.78 6.81695C15.8182 7.61843 13.2664 7.03409 11.8388 5.46372C11.367 4.94643 10.578 4.88291 10.0276 5.31198C8.58952 6.44061 7.28154 7.73281 6.14523 9.1506C5.70245 9.70173 5.76784 10.5005 6.28825 10.974C7.95909 12.4871 8.49776 14.893 7.63028 16.9626C6.80202 18.9356 4.75339 20.2067 2.40832 20.2067C1.64732 20.1822 1.10574 20.6935 1.02167 21.3855C0.810765 23.188 0.808482 25.0255 1.0115 26.8427C1.08727 27.5202 1.89746 28.0234 2.58539 28.0234C4.67575 27.9703 6.68141 29.2635 7.52399 31.3117C8.36242 33.3575 7.8227 35.7418 6.18156 37.2469C5.6682 37.7188 5.60261 38.507 6.03604 39.0548C7.15055 40.4753 8.43092 41.7675 9.83211 42.8961C10.3822 43.3391 11.1822 43.277 11.659 42.7514C13.0951 41.1634 15.6644 40.5757 17.642 41.4059C19.7137 42.2727 21.0169 44.3664 20.8896 46.6145C20.8479 47.3209 21.3656 47.9366 22.067 48.0168C22.9846 48.1241 23.9068 48.1772 24.832 48.1772C25.7101 48.1772 26.5884 48.1293 27.4667 48.0315C28.1625 47.9547 28.6777 47.3548 28.6543 46.6571C28.5739 44.4326 29.8954 42.3755 31.9386 41.5391C33.9136 40.7325 36.454 41.3228 37.8824 42.8909C38.3567 43.4072 39.1409 43.4699 39.6935 43.0424C41.1292 41.9167 42.4346 40.6251 43.5759 39.2036C44.0191 38.6535 43.9562 37.8537 43.4329 37.3794C41.7625 35.8673 41.2209 33.4604 42.0884 31.3929C42.9038 29.4464 44.8762 28.1395 46.9977 28.1395L47.2946 28.1473C47.9833 28.2032 48.6163 27.6728 48.6995 26.9701C48.9114 25.166 48.9137 23.3306 48.7099 21.5128ZM24.8609 38.0135C17.2191 38.0135 11.0247 31.8191 11.0247 24.1775C11.0247 16.536 17.2194 10.3415 24.8609 10.3415C32.5024 10.3415 38.6971 16.536 38.6971 24.1775C38.6971 26.7713 37.982 29.1973 36.74 31.2719L30.6815 25.2132C31.1201 24.179 31.3518 23.0578 31.3516 21.9008C31.3516 19.635 30.4692 17.505 28.8668 15.9031C27.2649 14.3011 25.1349 13.4189 22.8696 13.4189C22.1135 13.4189 21.361 13.5194 20.6331 13.7176C20.3142 13.8046 20.0535 14.0674 19.9686 14.3869C19.8818 14.7136 19.9796 15.0484 20.2349 15.304C20.2349 15.304 23.226 18.3181 24.2267 19.3186C24.3316 19.4235 24.3314 19.6736 24.3166 19.7637L24.3073 19.8295C24.2064 20.9297 24.0119 22.2503 23.8514 22.7579C23.8298 22.7792 23.8095 22.7973 23.7875 22.8193C23.7644 22.8424 23.7433 22.8646 23.7211 22.8874C23.2069 23.0524 21.8659 23.2492 20.7483 23.3493L20.7485 23.3432L20.6982 23.3559C20.6893 23.3569 20.6727 23.3582 20.6507 23.3582C20.5299 23.3582 20.3522 23.3244 20.1907 23.1631C19.149 22.1214 16.2753 19.2682 16.2753 19.2682C16.0175 19.0112 15.753 18.9572 15.5768 18.9572C15.1659 18.9572 14.7981 19.2541 14.6823 19.6798C13.8912 22.6074 14.7298 25.7564 16.8714 27.8982C18.4738 29.5004 20.604 30.3826 22.8698 30.3826C24.0268 30.3826 25.148 30.1511 26.182 29.7125L32.3063 35.8368C30.1561 37.2127 27.6029 38.0135 24.8609 38.0135Z" fill="#FF9F1C"/>
</g>
<defs>
<clipPath id="clip0_101_268">
<rect width="48" height="48" fill="white" transform="translate(0.861328 0.17749)"/>
</clipPath>
</defs>
</svg>
