<svg width="49" height="49" viewBox="0 0 49 49" fill="none" xmlns="http://www.w3.org/2000/svg">
<g clip-path="url(#clip0_101_238)">
<path d="M35.3741 0.81665H9.8001C9.3151 0.81665 8.92188 1.20988 8.92188 1.69488V43.6478C8.92407 44.1328 9.31905 44.5242 9.80416 44.522C10.0004 44.5211 10.1907 44.4545 10.3446 44.3329L12.1713 42.8926V4.82137C12.1713 4.45756 12.4662 4.1627 12.83 4.1627H36.2523V1.69488C36.2523 1.20988 35.8592 0.81665 35.3741 0.81665Z" fill="#FF9F1C"/>
<path d="M39.6962 5.49629C39.6869 5.49651 39.6776 5.49695 39.6682 5.49761H13.4795V44.245C13.4776 44.3296 13.4597 44.4131 13.4268 44.491V48.1532C13.4241 48.517 13.7168 48.814 14.0805 48.8167C14.2323 48.8178 14.3799 48.7664 14.4982 48.6713L27.0042 38.7649L39.2994 48.6625C39.5828 48.8905 39.9974 48.8455 40.2255 48.562C40.3187 48.4461 40.3699 48.3019 40.3708 48.1532V6.13872C40.3619 5.77502 40.0599 5.4874 39.6962 5.49629ZM26.8812 19.6898C24.7084 19.714 22.9273 17.9723 22.9031 15.7994C22.8788 13.6266 24.6206 11.8456 26.7934 11.8213C28.9662 11.797 30.7473 13.5388 30.7716 15.7116C30.7717 15.7262 30.7718 15.7407 30.7718 15.7553C30.7719 17.9113 29.0371 19.6657 26.8812 19.6898Z" fill="#FF9F1C"/>
</g>
<defs>
<clipPath id="clip0_101_238">
<rect width="48" height="48" fill="white" transform="translate(0.646484 0.81665)"/>
</clipPath>
</defs>
</svg>
