<svg width="87" height="50" viewBox="0 0 87 50" fill="none" xmlns="http://www.w3.org/2000/svg">
<g clip-path="url(#clip0_222_250)">
<path fill-rule="evenodd" clip-rule="evenodd" d="M68.418 34.7705C68.3568 34.2801 67.9137 35.6237 65.3502 33.6517C66.7415 33.948 67.3478 33.4882 67.7046 33.2277C66.9352 33.4423 66.6903 33.1358 66.6903 33.1358C66.6903 33.1358 68.1989 32.6095 68.0768 32.1753C67.9544 31.7411 67.8983 32.7015 66.2472 32.1753C64.5957 31.6492 64.5297 30.7091 64.5297 30.7091C64.5297 30.7091 64.7996 30.6325 64.8201 30.4179C65.5286 30.75 66.4204 30.5507 66.7363 30.3413C65.9617 30.3924 65.5641 30.0552 65.5641 30.0552C65.5641 30.0552 66.0128 29.7538 66.1909 29.4064C65.8496 29.5903 64.713 29.2531 63.8876 27.9096C64.8253 27.8636 65.1923 27.4447 64.7895 27.1637C65.2942 27.2301 65.8597 26.8367 65.809 26.709C65.3196 26.8521 64.6622 26.7755 64.4991 26.5762C64.3359 26.377 63.9384 25.8814 63.9384 25.8814C63.9384 25.8814 64.2646 26.0092 64.4632 25.9274C64.6622 25.8457 64.6723 25.7281 64.7996 25.769C64.9321 25.8099 65.019 25.7281 64.9321 25.5749C64.8455 25.4216 64.7895 25.345 64.5857 25.2582C64.3818 25.1713 64.0966 24.9516 63.9895 24.4868C63.8824 24.0219 63.7192 24.027 63.7192 24.027C63.7192 24.027 63.7498 21.7536 63.2556 21.7025C62.7561 21.6514 63.0723 22.9439 62.6337 23.4497C62.2006 23.9554 62.1345 24.0781 61.7116 24.0934C61.2883 24.1087 61.426 24.5685 61.8236 24.6451C61.6145 24.7626 61.0643 24.6656 61.0643 24.6656C61.0643 24.6656 61.2528 24.8444 61.4667 24.9108C61.6858 24.9772 62.0528 24.9619 62.0528 24.9619C62.0528 24.9619 61.9815 25.3399 62.267 25.4472C62.2312 25.6311 61.4566 25.9581 61.4566 25.9581C61.4566 25.9581 61.9714 25.5851 61.793 25.4267C61.6093 25.2684 61.482 25.4216 61.2375 25.4727C60.993 25.5187 60.9318 25.4983 60.4629 25.4114C59.994 25.3194 59.7749 25.2173 59.362 24.9516C58.9492 24.686 58.5516 24.1803 58.5516 24.1803L58.9391 24.1853L58.6639 23.8993C58.6639 23.8993 59.3467 23.9401 59.7596 23.8839C60.1724 23.8277 60.4375 23.654 60.3658 23.4548C60.2997 23.2556 60.1366 23.2607 59.9123 23.2096C59.6883 23.1585 59.617 23.0052 59.3825 22.9133C59.1481 22.8213 58.995 22.9286 58.8218 22.7396C58.6486 22.5506 57.8076 22.1214 57.5732 21.677C58.0525 21.7945 58.5467 21.5339 58.521 21.3449C58.4956 21.1559 58.3276 21.304 58.1338 21.2836C57.9401 21.2632 57.8789 21.0231 57.8789 21.0231C57.8789 21.0231 58.2305 21.1406 58.562 21.0384C58.8931 20.9362 58.9697 20.5939 58.9443 20.5326C58.9137 20.4713 58.8013 20.4866 58.5773 20.5122C58.3477 20.5326 58.0674 20.4254 58.0319 20.2108C57.9961 19.9962 57.7669 19.7152 57.5477 19.6386C57.7669 19.5722 57.777 19.3832 57.777 19.3832C57.777 19.3832 57.9248 19.6028 58.195 19.5416C58.465 19.4802 58.3888 19.1329 58.2305 18.9949C58.0726 18.8621 57.9199 18.7242 57.8076 18.3257C57.6956 17.9221 57.5171 17.7586 57.5171 17.4827C57.5171 17.2069 57.2775 16.1034 57.033 16.1238C56.7884 16.1443 56.8698 16.5939 56.8598 16.7062C56.8545 16.8186 56.6813 17.0639 56.666 17.4215C56.6507 17.7791 56.0953 18.6475 55.9679 18.8979C55.8406 19.1533 55.0913 19.0562 55.0455 19.5773C54.9996 20.0984 55.6723 19.5926 55.6723 19.8072C55.6723 20.0218 55.3156 20.2159 54.8926 20.2976C54.4696 20.3794 54.6785 20.4611 54.3422 20.5582C54.0058 20.6552 53.858 20.9771 53.853 21.1202C53.5217 21.0691 53.3484 20.9362 53.3484 20.9362C53.3484 20.9362 53.379 21.0486 53.4503 21.1252C53.1955 21.1508 53.1446 21.0793 53.1446 21.0793C53.1446 21.0793 53.2363 21.3551 53.7153 21.3756C54.1944 21.396 54.3473 21.5748 54.7295 21.5339C54.4339 21.6667 54.2657 21.9171 54.0364 21.9426C53.8071 21.963 53.272 22.0346 53.0019 22.3156C52.7318 22.5965 52.64 22.428 52.6451 22.6426C52.6502 22.8571 52.7878 22.7498 52.9 22.7958C53.0172 22.8417 53.2669 22.9695 53.6134 22.9848C53.96 23.0002 54.0874 22.8928 54.0874 22.8928C54.0874 22.8928 54.0772 23.2096 54.2709 23.2811C54.1791 23.5365 54.0466 23.5672 53.8886 23.5723C53.7306 23.5774 53.6032 23.6694 53.6084 23.8073C53.6134 23.9452 53.7409 24.027 54.0008 24.027C54.2658 24.027 54.755 23.9299 54.755 23.9299C54.755 23.9299 54.0976 24.8904 52.9 25.2582L52.7267 25.1867C52.7267 25.1867 52.8898 25.0334 52.8847 24.8801C53.4351 24.8341 53.7969 24.6093 53.7409 24.4152C53.6847 24.2211 53.2669 24.5276 52.6094 23.8532C51.952 23.184 51.8501 22.9184 51.7788 22.7549C51.7074 22.5915 51.5443 22.5352 51.5443 22.5352C51.5443 22.5352 51.8807 22.4944 52.1355 22.428C52.3903 22.3615 52.4413 22.1674 52.3496 22.0448C52.2578 21.9221 52.1814 21.9376 52.0794 21.9376C51.9775 21.9376 51.8501 21.7996 51.7176 21.7843C51.5902 21.7741 51.5392 21.6872 51.5443 21.5748C51.5494 21.4624 51.4628 21.396 51.4322 21.4011C51.4016 21.4062 51.5341 21.1815 51.4067 21.0895C51.2793 20.9975 51.2742 20.9873 51.2742 20.9464C51.2793 20.9004 51.4526 20.7779 51.4118 20.645C51.3711 20.5122 51.4577 20.5173 51.4322 20.3743C51.4067 20.2363 51.3813 20.1852 51.3915 20.0167C51.4016 19.8481 51.3099 19.7765 51.315 19.6284C51.3201 19.4802 51.3608 18.8825 51.2182 18.8621C51.0755 18.8417 51.0195 19.0511 51.0093 19.2657C50.999 19.4802 50.8156 19.9298 50.7289 20.0882C50.6474 20.2414 50.6168 20.4152 50.6321 20.502C50.6525 20.5837 50.52 20.7012 50.5353 20.8085C50.5506 20.9158 50.6168 20.9311 50.6168 21.0435C50.6168 21.1559 50.4079 21.3296 50.1938 21.3704C49.9798 21.4113 49.8677 21.3245 49.7811 21.4165C49.6944 21.5084 49.7504 21.7025 49.9237 21.7843C50.1021 21.866 50.2091 21.9528 50.3467 21.9324C49.9441 22.2645 49.5262 22.3973 49.3224 22.3053C49.1185 22.2083 49.1695 22.3258 49.0166 22.29C48.8637 22.2543 48.5885 22.1878 48.5885 22.1878C48.5885 22.1878 48.9554 22.6119 49.2714 22.6936C49.0573 22.8264 48.5171 22.8417 48.5171 22.8417C48.5171 22.8417 48.9045 22.9491 49.0166 23.0359C49.1236 23.1278 50.0307 23.041 50.0307 23.041C50.0307 23.041 49.9136 23.2147 49.6485 23.3578C49.3835 23.5008 49.144 23.6285 48.9554 23.7102C48.7669 23.792 48.4713 23.8584 48.1961 23.9503C47.9209 24.0423 47.8444 23.8737 47.7476 23.8584C47.6508 23.843 47.6151 23.9095 47.5183 23.8481C47.4265 23.7869 47.0851 23.8022 46.9118 23.7052C47.0341 24.1036 47.7068 24.6247 48.2318 24.7217C48.7618 24.8188 49.0727 24.7166 49.0727 24.7166C49.0727 24.7166 49.3071 24.9516 49.5721 24.9363C48.8994 25.5392 48.5426 25.7435 47.9209 25.8099C48.1197 25.4676 48.2165 25.345 48.191 25.294C48.1655 25.2429 47.187 25.7384 46.7742 25.7435C46.3614 25.7486 45.8773 25.723 45.3728 25.5187C44.8682 25.3194 44.0324 25.156 43.8336 24.8239C44.8122 25.1662 45.3575 24.9057 45.7601 24.9057C46.1627 24.9057 46.6468 24.5991 46.6468 24.5991C46.6468 24.5991 46.1678 24.5276 45.7906 24.548C45.5307 24.0781 44.9192 23.9708 44.2924 23.6643C45.5562 24.1955 46.1729 23.8022 46.1729 23.8022C46.1729 23.8022 45.597 23.4906 45.4798 23.1074C46.1066 23.1227 46.9373 22.3462 46.9373 22.3462C46.9373 22.3462 44.7612 22.0193 43.5992 20.9771C44.5471 21.0231 45.7193 20.6501 45.7193 20.0371C45.7193 19.4189 45.6734 19.9451 44.7153 19.8123C43.7573 19.6795 43.3954 19.4751 43.3954 19.4751C43.3954 19.4751 44.277 19.4547 43.9764 18.9285C45.0466 19.1839 45.6632 19.0409 46.2544 18.5045C45.0364 18.6373 44.3688 18.2797 44.3688 18.2797C44.3688 18.2797 45.0925 18.2695 45.3982 17.8557C44.909 17.7791 44.593 17.7331 43.8999 17.6769C43.2068 17.6207 43.161 17.4317 43.161 17.4317C43.161 17.4317 43.8949 17.1916 43.8592 16.9004C43.8235 16.6092 43.3547 16.8697 42.6361 16.1085C43.2527 16.4763 43.5738 16.2669 43.5738 16.2669C43.5738 16.2669 43.1814 15.8735 42.9775 15.6027C42.7788 15.332 42.5596 15.1277 42.4883 14.7905C42.4118 14.4533 42.5698 14.3 42.422 14.1263C42.2742 13.9527 42.4271 13.5388 42.2233 13.5388C42.0143 13.5388 42.1468 13.733 42.0143 14.0549C41.8818 14.3767 41.7697 14.5299 41.7748 14.8671C41.7799 15.2043 40.939 16.2005 40.6587 17.0026C41.1276 16.8442 41.413 16.4661 41.413 16.4661C41.413 16.4661 41.1479 17.1251 41.0358 17.3601C40.9237 17.5951 40.7249 17.6871 40.6077 17.9119C40.4905 18.1367 40.3886 18.1111 40.1847 18.2031C39.9809 18.295 39.9452 18.387 39.9401 18.4841C39.935 18.5811 39.9962 18.7242 40.2714 18.7395C39.8433 18.9591 39.1655 19.2606 38.9412 19.3883C38.7119 19.516 38.8699 19.6999 39.0738 19.7561C39.2776 19.8123 39.5936 19.8991 39.9707 19.8072C40.3478 19.7152 40.5466 19.5978 40.5466 19.5978C40.5466 19.5978 40.4192 19.751 40.3478 19.9503C40.2765 20.1495 38.401 21.0588 37.6417 21.1457C38.2584 21.4164 40.2561 21.0691 40.781 20.6961C40.0624 21.9376 39.3592 22.0346 38.7986 22.2492C38.238 22.4637 37.8608 22.3513 37.7386 22.5046C37.6162 22.663 37.5806 23.4089 39.3133 23.4242C39.0585 23.8277 38.5183 23.7052 38.3756 23.9299C38.2329 24.1547 38.3399 24.5123 38.8342 24.5685C39.3235 24.6247 39.1043 24.8699 39.1043 24.8699C38.9464 25.1151 38.7833 25.4012 38.6558 25.4574C38.5233 25.5136 38.2176 25.2837 38.029 25.2377C37.8405 25.1867 37.4379 25.1407 37.2289 24.8188C37.6723 24.8291 38.0647 24.594 37.9933 24.405C37.922 24.216 37.4379 24.2211 37.1678 23.981C36.8976 23.7409 36.6276 23.5978 36.4797 23.276C36.8314 23.3833 37.234 23.0666 37.1219 22.8877C37.0047 22.7038 36.6428 22.8315 36.1944 22.3871C36.7498 22.4944 37.0913 22.1419 37.025 21.9937C36.9588 21.8456 36.2097 21.9222 35.8325 21.2478C36.1077 21.3449 36.5358 21.2836 36.5358 21.1865C36.5409 21.0895 36.1791 21.0333 35.9243 20.5888C35.6745 20.1444 35.8019 19.8736 35.6134 19.6744C35.5675 19.5518 35.5471 18.0958 35.486 18.1009C35.4197 18.106 35.2821 18.811 35.2975 19.0307C35.3127 19.2504 35.3637 19.4445 35.2719 19.6233C35.1802 19.8021 35.1802 19.9554 35.1802 20.1035C35.1853 20.2465 35.0273 20.3283 35.0018 20.4355C34.9763 20.5428 34.6451 20.6195 34.6502 20.6961C34.6553 20.7728 34.8795 20.8187 34.9458 20.8596C35.012 20.9004 34.4872 21.2121 34.1558 21.2376C33.8246 21.2632 33.9214 21.3704 33.8144 21.3602C33.7125 21.3551 33.6819 21.2989 33.6666 21.3245C33.6513 21.35 33.6412 21.5543 33.845 21.5442C34.0489 21.5339 34.0539 21.6923 34.2119 21.7076C34.375 21.723 34.5432 21.7025 34.5432 21.7025C34.5432 21.7025 34.4107 21.912 34.2884 21.9426C34.1661 21.9784 33.952 21.9477 33.9214 22.0499C33.8857 22.1521 34.0437 22.3003 34.2476 22.3053C34.4515 22.3104 34.6145 22.2492 34.6145 22.2492C34.6145 22.2492 34.2629 22.5659 33.9979 22.5915C33.7329 22.617 33.3405 22.6017 33.2691 22.6834C33.1978 22.7651 33.2538 22.8878 33.5698 22.9797C33.8857 23.0716 33.8959 23.184 33.8959 23.184C33.8959 23.184 33.5647 23.2147 33.5443 23.276C33.5188 23.3424 33.5953 23.4906 33.8857 23.4956C34.1763 23.5008 34.3087 23.4139 34.3087 23.4139C34.3087 23.4139 33.952 23.6438 33.7431 23.8022C33.529 23.9605 33.0907 23.935 32.9684 24.0321C32.8461 24.1292 32.6117 24.1036 32.4996 24.1139C32.3874 24.1241 32.2193 24.2773 32.4486 24.451C32.6779 24.6247 33.2181 24.6451 33.2181 24.6451C33.2181 24.6451 32.9226 24.9823 33.2844 25.1049C33.2181 25.3654 32.4843 25.6822 32.3926 25.6975C32.3008 25.7128 32.097 25.6924 31.99 25.7588C31.8829 25.8252 31.837 26.05 32.153 26.1471C32.4741 26.2492 32.6881 26.5455 33.1366 26.4996C32.9328 26.6784 32.2142 26.9849 32.2142 26.9849C32.2142 26.9849 31.4956 26.5558 31.1593 26.0603C30.8229 25.5698 30.4967 25.1202 30.298 24.9312C31.0624 25.1355 31.6332 25.1253 32.0052 25.0743C32.3722 25.018 32.6015 24.9415 32.6015 24.8801C32.6015 24.8137 31.8218 24.6911 31.7096 24.64C32.0002 24.4765 31.9543 24.2722 31.9543 24.2722C31.9543 24.2722 31.3886 24.4254 30.8076 23.8839C30.2215 23.3373 29.5233 22.5148 29.2889 21.7791C30.0483 22.6221 30.8636 23.0206 31.2357 23.1738C31.6077 23.3271 32.4028 23.4445 32.9073 23.1891C31.995 22.8826 31.409 22.3922 31.409 22.3922C31.409 22.3922 32.2804 22.0346 32.1276 21.4062C31.5211 21.4011 30.8076 21.1713 30.3846 20.8034C29.9616 20.4406 29.9005 20.4611 29.9005 20.4611C29.9005 20.4611 30.6445 19.9911 30.4356 19.5058C30.3897 19.4087 29.9413 19.5109 29.6049 19.2963C29.2685 19.0818 29.2074 19.092 29.0596 18.9132C29.3603 18.9796 29.8801 18.8366 29.8139 18.5454C29.7425 18.2542 29.3246 18.2235 29.1207 17.917C29.1972 17.7944 29.2023 17.7075 29.1513 17.636C29.3144 17.5645 29.3959 17.2835 29.3705 17.12C29.345 16.9566 29.1411 16.5581 28.9322 16.3077C28.7232 16.0574 28.657 14.6474 28.5601 14.6577C28.4633 14.6628 28.5601 14.9999 28.4582 15.1788C28.3563 15.3626 28.3257 15.6181 28.3054 15.848C28.2849 16.0779 28.2136 16.3435 28.0862 16.4917C27.9537 16.6398 27.8059 16.7675 27.7855 16.8799C27.7651 16.9923 27.4441 17.0281 27.4441 17.1558C27.4389 17.2835 27.5154 17.4418 27.5868 17.5083C27.6581 17.5747 27.8212 17.5798 27.8212 17.5798C27.8212 17.5798 27.6225 17.871 27.2861 18.0192C26.9446 18.1673 26.8019 18.3308 26.7867 18.4381C26.7713 18.5403 26.8733 18.6782 27.072 18.719C27.2708 18.7599 27.2861 18.8723 27.4389 18.8825C27.5919 18.8979 27.5919 18.7293 27.704 18.7293C27.8161 18.7293 27.8977 18.7395 27.8977 18.7753C27.9027 18.811 27.5663 18.949 27.5205 19.1073C27.4746 19.2657 27.2045 19.3015 27.0313 19.3576C26.858 19.4138 26.6134 19.3729 26.5675 19.4598C26.5217 19.5518 26.1445 19.7612 26.1343 19.8787C26.1241 19.9911 26.5012 19.9911 26.593 20.083C26.6848 20.175 27.2351 20.3283 27.3269 20.3334C27.4186 20.3385 27.4186 20.3641 27.4186 20.3794C27.4186 20.3947 27.1332 20.3232 26.9905 20.4917C26.8478 20.6552 26.8682 20.7983 26.5828 20.7523C26.3025 20.7063 26.2414 20.9924 25.8133 21.0486C25.3852 21.1048 23.6626 20.9413 23.1785 20.2976C23.4027 20.7676 23.7289 21.0537 23.8053 21.2478C23.8818 21.442 24.1978 21.3909 24.4118 21.5595C24.6258 21.7332 25.003 22.1061 25.1712 22.055C25.0488 22.1878 24.2283 22.3462 23.8104 22.1367C24.0092 22.4177 24.529 22.5097 24.6717 22.6119C24.8144 22.714 25.3342 22.8111 25.5941 22.7293C25.849 22.6476 26.3535 22.6426 26.3535 22.6426C26.3535 22.6426 26.4146 22.7345 26.5522 22.7038C26.4961 22.8315 26.0527 23.0257 25.798 23.2811C25.5432 23.5314 23.9684 24.3233 23.4741 24.2671C23.6168 24.5021 24.1519 24.7524 24.5647 24.7882C24.9775 24.8239 25.6604 24.7575 25.6604 24.7575C25.6604 24.7575 25.6757 25.0691 25.1406 25.1969C25.5584 25.4472 26.5012 25.3552 26.5012 25.3552C26.5012 25.3552 26.1904 25.437 25.7929 25.8917C25.3954 26.3463 24.4526 26.423 24.2385 26.6426C24.0245 26.8623 23.3569 27.1177 23.1173 27.1177C22.8778 27.1177 22.1898 27.2301 22.042 27.1331C21.8891 27.036 21.6343 27.225 22.0217 27.6592C22.409 28.0935 22.5924 28.1548 22.9695 28.1548C23.3467 28.1548 24.2232 28.1037 24.2232 28.1037C24.2232 28.1037 23.0205 28.8138 22.9848 28.9211C22.9492 29.0284 23.0715 29.3042 23.5658 29.2685C24.0602 29.2327 25.1049 28.9671 25.4565 28.6248C25.4208 28.916 25.6094 28.9926 25.7419 28.9977C25.8795 29.0029 26.277 28.8649 26.6898 28.4766C26.4758 28.8342 25.589 29.9224 24.7481 30.3668C23.9072 30.8113 22.9797 30.9135 22.9135 31.1127C22.8472 31.317 22.8778 31.6185 23.5097 31.6594C24.1417 31.7002 24.5902 31.7309 24.5902 31.7309C24.5902 31.7309 23.5403 32.8803 22.8625 33.2737C22.1847 33.6619 21.405 33.7386 21.1655 33.6773C20.9259 33.616 20.8291 33.9173 21.1247 34.086C21.4203 34.2546 21.6292 34.2801 21.7209 34.3465C21.8127 34.4129 22.251 34.3414 22.5312 34.4282C22.8116 34.5151 23.7646 34.2239 23.7646 34.2239C23.7646 34.2239 23.6728 34.3874 23.8053 34.5202C23.2396 34.8625 23.1734 35.3069 22.9186 35.4142C22.6638 35.5215 21.5579 35.8587 21.3183 36.2112H66.7008C66.6903 36.1907 68.474 35.2661 68.418 34.7705ZM30.726 29.2634C30.5069 29.0437 30.4661 28.7883 30.4661 28.7883L31.1491 29.151C31.1491 29.151 30.9197 29.2021 30.726 29.2634ZM31.7045 28.3642L32.2703 28.4051L32.0205 28.6759L31.7045 28.3642ZM32.9226 31.1587C32.9226 31.1587 32.4792 30.985 32.1683 30.5609C32.7238 30.7755 33.5494 30.6631 33.5494 30.6631L32.9226 31.1587ZM45.9996 27.5775L45.8773 27.2556L46.178 26.9236L46.5704 27.3272L45.9996 27.5775ZM53.43 27.9709L53.0681 27.6081H53.6746L53.43 27.9709ZM53.9651 26.9798L53.43 26.709H54.3167L53.9651 26.9798ZM54.1282 25.9887L53.4351 25.7077C53.4351 25.7077 54.5053 25.6873 54.8263 25.5238C54.648 25.7281 54.1282 25.9887 54.1282 25.9887ZM61.1968 27.179C61.0643 27.2352 60.3098 27.3476 60.1418 27.6797C59.9735 28.0117 60.9012 28.3183 60.9012 28.3183C60.7481 28.5482 60.6667 28.9466 60.6667 28.9466L59.6983 28.1855H59.9074L59.0052 27.3374L59.5304 27.5213L58.8525 26.7142C58.8525 26.7142 59.6778 26.6988 59.9227 26.8776C60.162 27.0513 59.9634 26.3668 59.7902 26.2237C60.2946 26.3514 60.947 26.2237 60.947 26.2237C60.947 26.2237 60.5648 26.5404 60.3203 26.7295C60.0806 26.9185 60.1724 27.082 60.7839 27.0002C61.3954 26.9185 61.5025 26.8776 61.5025 26.8776C61.5025 26.8776 61.3293 27.1229 61.1968 27.179Z" fill="#72B334"/>
<path fill-rule="evenodd" clip-rule="evenodd" d="M23.6525 41.2905C23.5887 41.3545 23.5674 42.008 23.5674 43.9686C23.5674 45.4035 23.5957 46.6111 23.6241 46.6609C23.6738 46.7248 23.9008 46.7461 24.5323 46.7319L25.3765 46.7106V43.9757V41.2409L24.5607 41.2195C23.986 41.2053 23.7164 41.2266 23.6526 41.2906L23.6525 41.2905Z" fill="black"/>
<path fill-rule="evenodd" clip-rule="evenodd" d="M35.4291 41.2905C35.3653 41.3545 35.344 42.008 35.344 43.9686C35.344 45.4035 35.3723 46.6111 35.4007 46.6609C35.4504 46.7248 35.6774 46.7461 36.3088 46.7319L37.1531 46.7106V43.9757V41.2409L36.3372 41.2195C35.7626 41.2053 35.493 41.2266 35.4291 41.2906V41.2905Z" fill="black"/>
<path fill-rule="evenodd" clip-rule="evenodd" d="M58.9873 43.4854C58.9376 43.6559 58.8383 43.9897 58.7674 44.2242C58.5545 44.899 58.5616 44.899 59.0937 44.899C59.5335 44.899 59.5549 44.8919 59.5549 44.7285C59.5549 44.6433 59.5265 44.4728 59.491 44.3592C59.4555 44.2455 59.3775 43.9756 59.3137 43.7625C59.1363 43.1658 59.0866 43.1161 58.9873 43.4854Z" fill="black"/>
<path fill-rule="evenodd" clip-rule="evenodd" d="M86.8634 44.1319L86.8634 44.1359V44.1357L86.8634 44.1319ZM43.5 74.1406C53.2089 74.1406 61.8262 69.4607 67.2245 62.2309H66.6741C61.3441 69.2043 52.9475 73.7032 43.5 73.7032C34.0525 73.7032 25.6559 69.2043 20.3259 62.2309H19.7756C25.1738 69.4607 33.7911 74.1406 43.5 74.1406ZM43.5 68.1447C48.0109 68.1447 52.226 66.8776 55.8108 64.6805H55.1296C51.7082 66.6615 47.7365 67.7958 43.5 67.7958C39.2635 67.7958 35.2918 66.6615 31.8704 64.6805H31.1892C34.774 66.8776 38.9891 68.1447 43.5 68.1447ZM11.9816 36.2112H75.0202C71.3571 22.2076 58.6345 11.8752 43.5 11.8752C28.3657 11.8752 15.6444 22.2077 11.9816 36.2112ZM75.5032 50.6404H11.4955C14.3644 65.7228 27.6013 77.1248 43.5 77.1248C59.3985 77.1248 72.6343 65.7226 75.5032 50.6404ZM86.7819 45.0237C86.7799 45.0171 86.7778 45.01 86.7757 45.0025L86.7756 45.0019V45.0019C86.7591 44.9414 86.7392 44.8498 86.7139 44.7232C86.3877 43.0897 85.6739 41.817 84.6815 41.1363C84.4027 40.9389 84.0153 40.6531 83.8182 40.5033L83.4715 40.2175L82.7781 38.4615C82.3023 37.25 82.0848 36.6102 82.0848 36.4264C82.0916 35.8479 82.4995 35.3102 83.0569 35.1604C83.2948 35.0923 83.5259 35.1128 84.4979 35.2693C85.1369 35.3714 85.7215 35.4667 85.8031 35.4871C86.0342 35.5416 86.007 35.2897 85.7147 34.6092C84.9194 32.7511 84.0357 31.7846 82.615 31.2468C81.7585 30.927 81.4594 30.7841 81.3303 30.6343C81.1807 30.4641 79.2638 27.7349 79.1687 27.5579C79.1279 27.4762 79.0938 27.238 79.0938 27.0202C79.0938 26.3192 79.5425 25.8155 80.2426 25.727C80.3786 25.7134 80.9564 25.659 81.5206 25.6113C82.0916 25.5637 82.581 25.5024 82.6082 25.482C82.6694 25.4207 82.547 25.2097 82.1324 24.6516C81.3846 23.6443 80.4126 22.8276 79.5289 22.4532C79.3385 22.3783 78.7744 22.2491 78.2713 22.1742C77.1293 21.9972 77.0478 21.9768 76.7691 21.725C76.6467 21.6093 76.069 21.1124 75.4911 20.6087C74.3152 19.5946 74.1656 19.4449 74.0297 19.1114C73.819 18.6213 73.9821 17.9339 74.4035 17.5868C74.5191 17.4847 75.0833 17.2601 75.8243 17.0218C76.504 16.804 77.0546 16.5862 77.0546 16.5454C77.0546 16.3616 75.8311 15.436 75.0086 15.0004C73.8393 14.3742 73.2684 14.2722 71.8409 14.4423L70.8824 14.558L69.2578 13.7276C68.3673 13.2648 67.538 12.8156 67.4157 12.7271C66.8447 12.2983 66.7767 11.4067 67.2729 10.8418C67.3817 10.7193 67.9255 10.3314 68.4897 9.9774C69.0471 9.63026 69.5093 9.30358 69.5093 9.25597C69.5093 9.05176 67.7488 8.32351 66.7631 8.1193C65.7775 7.91514 65.1861 7.99001 63.779 8.51409C63.4119 8.6502 63.0517 8.7591 62.9769 8.7591C62.9089 8.7591 62.5146 8.68423 62.1136 8.58896C61.7125 8.49364 60.992 8.3167 60.5026 8.2078C59.4218 7.95598 59.1295 7.84709 58.8847 7.61566C58.5993 7.34339 58.4973 7.078 58.4973 6.62191C58.5041 6.12509 58.5653 6.02977 59.7073 4.81828C60.557 3.91985 60.5434 3.95388 59.9248 3.80414C59.1295 3.61356 58.7556 3.57277 57.8991 3.57277C57.0223 3.57277 56.8727 3.59316 56.0569 3.8314C55.8462 3.89264 55.5811 4.0492 54.6906 4.64134L53.9769 5.11776L52.128 5.13821C50.952 5.15179 50.1839 5.13139 50.0071 5.08373C49.4022 4.92036 49.0147 4.3623 49.0623 3.71569C49.0895 3.37537 49.1642 3.19842 49.7148 2.23875C50.0615 1.64661 50.3402 1.11571 50.3402 1.06805C50.3402 0.931947 48.4709 1.02721 47.8183 1.1974C46.6696 1.49688 45.8334 1.98012 45.3304 2.64713C45.1741 2.84452 44.9022 3.17121 44.7254 3.36856L44.3924 3.72251L43.3048 4.00154C42.7066 4.15128 41.9249 4.34867 41.5714 4.44394C40.7965 4.64815 40.2935 4.6686 39.9944 4.4916C39.6953 4.31465 39.4166 3.9403 39.3214 3.57959C39.2399 3.26648 39.267 3.12355 39.8448 1.11571C39.8788 1.01363 39.8108 1 39.0903 1C38.3086 1 38.3018 1 37.7444 1.27908C36.6772 1.81675 35.9023 2.49057 35.5827 3.1644C35.3312 3.68848 34.8486 4.51199 34.7195 4.6277C34.5699 4.76386 31.6606 6.33607 31.3683 6.43815C31.246 6.47899 31.0488 6.51307 30.9196 6.51307C30.4234 6.51307 29.7913 5.9958 29.7029 5.51932C29.6757 5.38321 29.6825 4.69576 29.7097 3.98791C29.7641 2.49057 29.7913 2.53818 29.0843 2.96018C27.9287 3.6544 26.9499 4.52562 26.4673 5.28795C26.2701 5.60782 25.937 6.47223 25.937 6.6832C25.937 6.71723 25.8555 7.00307 25.7603 7.31618C25.6108 7.81982 25.5496 7.9219 25.2369 8.2078C23.4559 9.85487 22.8034 10.4198 22.5791 10.5423C22.0149 10.835 21.1992 10.5627 20.9069 9.98422C20.8321 9.83448 20.7097 9.41247 20.635 9.05176C20.5602 8.68423 20.4446 8.13293 20.3835 7.81982C20.3155 7.47269 20.2407 7.26171 20.1863 7.26171C20.0368 7.26171 19.0443 8.2554 18.6297 8.82033C17.7256 10.0658 17.576 10.481 17.5081 12.0465L17.4537 13.258L16.8827 14.1224C16.57 14.5988 16.1146 15.2863 15.8767 15.6538C15.3805 16.4161 15.1086 16.6883 14.7143 16.7904C14.3608 16.8857 14.0278 16.8312 13.6539 16.6135C13.4024 16.4637 13.3208 16.3548 12.9945 15.681C12.7974 15.259 12.5323 14.7077 12.4168 14.4422C12.3012 14.1836 12.1788 13.959 12.1449 13.9454C11.9681 13.8841 11.0232 15.5789 10.7038 16.5181C10.4115 17.3894 10.3843 18.3422 10.6358 19.2747C10.9213 20.3228 10.9009 20.459 10.1736 22.3851C9.49378 24.1956 9.33742 24.4542 8.82762 24.6244C8.49454 24.7332 7.97112 24.6652 7.70606 24.4814C7.58369 24.3998 7.12824 23.8893 6.70001 23.3584C6.27174 22.8207 5.88431 22.3783 5.85032 22.3783C5.75513 22.3715 5.51044 23.0249 5.29973 23.8417C5.17736 24.3249 5.1162 24.7673 5.08897 25.4003C5.04142 26.5165 5.1162 26.8228 5.72114 28.0343C6.23775 29.0756 6.21058 28.6808 5.91148 31.3217C5.76193 32.6625 5.72114 32.8531 5.55803 33.1253C5.23852 33.6562 4.518 33.8876 3.9606 33.6426C3.83823 33.5881 3.30125 33.207 2.75741 32.7987C2.16603 32.3494 1.74461 32.0704 1.71057 32.1044C1.61543 32.1997 1.52704 33.5609 1.57464 34.2484C1.67659 35.7797 2.00286 36.5693 2.92733 37.5834C3.66151 38.3797 3.61391 38.2504 3.85185 40.1017C3.89264 40.4012 3.9538 40.8572 3.98778 41.1227C4.02176 41.3813 4.06936 41.8101 4.08973 42.0755C4.12377 42.5247 4.11696 42.5724 3.92662 42.8651C3.68868 43.2326 3.26046 43.4708 2.83899 43.4708C2.64185 43.4708 2.20682 43.321 1.35037 42.9535C0.831457 42.7362 0.374397 42.5229 0.184862 42.42C-0.0315269 42.3105 -0.0150715 42.4888 0.0231464 42.7185C0.0614178 42.9482 0.203515 43.6608 0.203515 43.6608V43.6609C0.215254 43.7082 0.228065 43.7626 0.242323 43.8247C0.31029 44.1174 0.41224 44.5122 0.473452 44.7095L0.473399 44.7096C0.677299 45.3425 1.11914 46.1729 1.46583 46.5949C1.66973 46.8399 2.11162 47.2211 2.58744 47.5613C3.02247 47.8745 3.41671 48.2011 3.46431 48.2965C3.53227 48.4326 4.2188 50.1341 4.66069 51.264C4.68787 51.3388 4.74903 51.4886 4.78982 51.5907C5.09572 52.3597 4.41595 53.3399 3.57306 53.333C3.44388 53.333 2.81857 53.2445 2.17959 53.1425C1.39106 53.0063 1.01038 52.9723 0.976395 53.0199C0.88806 53.1629 1.4862 54.5173 1.97563 55.2864C2.28154 55.7696 2.96807 56.4843 3.36236 56.743C3.54589 56.8586 4.00809 57.0765 4.39558 57.2261C5.63951 57.7094 5.35403 57.4235 7.06022 59.8601C7.79434 60.8947 7.8555 61.0172 7.8555 61.3916C7.8555 61.7864 7.71957 62.0994 7.43409 62.3649C7.11457 62.6643 6.92428 62.712 5.81629 62.8004C4.5247 62.8958 4.25284 62.9298 4.25284 63.0047C4.25284 63.0795 4.80343 63.8214 5.23166 64.325C5.76188 64.9512 6.5368 65.5774 7.1486 65.8701C7.57683 66.0742 7.84875 66.1559 8.40615 66.2376C9.93556 66.4554 9.73166 66.3533 11.2339 67.6601C11.9749 68.2999 12.6614 68.9533 12.7702 69.1031C13.1372 69.6203 13.0761 70.2873 12.6274 70.7569C12.4031 70.9952 12.2536 71.0564 11.1388 71.4171C10.4522 71.6417 9.89482 71.8527 9.89482 71.9004C9.89482 72.1114 11.2883 73.1459 12.1584 73.5679C13.2121 74.0852 13.7422 74.16 15.1493 74.0035L16.0806 73.8946L16.9507 74.3506C17.4265 74.6025 18.2151 75.0108 18.6977 75.2627C19.4454 75.6506 19.6085 75.7595 19.7649 76.0046C20.1388 76.5899 20.0708 77.2092 19.5882 77.6721C19.4318 77.8218 18.8812 78.203 18.3714 78.5229C17.8616 78.8428 17.4401 79.1354 17.4401 79.1831C17.4401 79.2307 17.7392 79.4213 18.1063 79.605C19.7785 80.4422 21.2739 80.6396 22.5043 80.17C23.9997 79.605 23.9522 79.6118 24.6387 79.8092C24.8835 79.8773 25.3933 80.0066 25.7671 80.0883C27.8268 80.5647 27.9831 80.626 28.2822 81.1365C28.5065 81.5176 28.5133 82.0621 28.3094 82.3956C28.2346 82.5249 27.7928 83.0218 27.3441 83.505C26.8887 83.9883 26.5081 84.4035 26.4944 84.4375C26.4673 84.5124 27.0179 84.6757 27.6365 84.7778C28.8261 84.9684 29.9409 84.9275 30.7633 84.6485C31.0081 84.5668 31.5519 84.2605 32.0481 83.9338L32.9114 83.3553L34.9506 83.3417L36.9831 83.3213L37.2822 83.5254C37.7173 83.8181 37.9212 84.2333 37.8804 84.7301C37.86 84.9683 37.7784 85.2338 37.6832 85.4108C37.4045 85.894 37.221 86.2207 36.9016 86.7788C36.4733 87.5139 36.4937 87.5411 37.4453 87.4799C39.471 87.3573 40.8237 86.7924 41.6802 85.7035C42.224 85.0092 42.4619 84.7914 42.7882 84.6893C43.6039 84.4239 46.085 83.8317 46.3637 83.8317C47.0843 83.8317 47.6213 84.383 47.6213 85.1181C47.6213 85.3821 47.2174 86.9347 47.0014 87.5821C46.9982 87.5927 46.9947 87.6034 46.9906 87.6142L46.9901 87.6156C46.9804 87.6439 46.9712 87.6704 46.9625 87.6945C46.8231 88.1315 47.1304 87.9714 47.1304 87.9714L47.7964 87.7156C47.8784 87.6833 47.9759 87.6489 48.0835 87.616C48.4097 87.5071 48.9196 87.2961 49.2186 87.1464C50.3742 86.5678 50.9792 86.0233 51.3939 85.1862C51.7406 84.4919 52.1144 83.8794 52.2368 83.7977C52.5223 83.6071 54.5004 82.5317 55.384 82.0825C56.0434 81.7422 56.8523 82.0417 57.1514 82.7291C57.2738 83.0013 57.2806 83.1307 57.233 84.383C57.1786 85.9076 57.1718 85.8872 57.6748 85.5945C59.1159 84.7369 60.1967 83.7364 60.6182 82.8789C60.7541 82.5998 60.8968 82.1982 60.9444 81.9941C61.0532 81.4972 61.2639 80.803 61.359 80.626C61.4746 80.4014 63.8538 78.2098 64.2412 77.9716C64.7171 77.6721 65.3153 77.7469 65.7707 78.1553C66.097 78.4548 66.131 78.5501 66.3893 79.8161C66.5048 80.3946 66.6204 80.9391 66.634 81.0208C66.6544 81.1093 66.7155 81.1773 66.7631 81.1773C66.9195 81.1773 67.8507 80.2449 68.313 79.6187C68.7616 79.0129 69.1627 78.2847 69.3054 77.8082C69.3462 77.6585 69.4074 77.0119 69.4346 76.3721L69.4821 75.2014L70.0736 74.3098C70.3998 73.8198 70.665 73.4046 70.665 73.391C70.665 73.3297 71.4399 72.2203 71.6098 72.0365C71.8749 71.7439 72.1128 71.6486 72.5682 71.6486C73.3976 71.6486 73.4791 71.7439 74.5328 74.0444C74.6483 74.3031 74.7707 74.5072 74.8046 74.5072C74.9067 74.5072 75.498 73.5816 75.8107 72.9418C76.1846 72.1659 76.3681 71.601 76.4565 70.9271C76.538 70.335 76.5108 70.056 76.2457 68.9261C76.171 68.6062 76.103 68.2387 76.103 68.1025C76.103 67.8235 77.2518 64.6586 77.4761 64.3251C77.7344 63.9508 78.0539 63.7874 78.5569 63.7874C79.1415 63.7874 79.2639 63.8827 80.2563 65.1078C80.6778 65.6387 81.0516 66.0675 81.0788 66.0675C81.3099 66.0675 81.7926 64.2435 81.8605 63.1409C81.9217 62.0654 81.8266 61.6571 81.2555 60.5001L80.7729 59.5336L80.8205 59.0027C80.868 58.4514 81.0177 57.0833 81.14 56.1509C81.1944 55.7425 81.2623 55.5111 81.4051 55.2933C81.7178 54.7964 82.3364 54.5854 82.8938 54.776C83.0161 54.8169 83.5735 55.2048 84.1377 55.6268C85.0621 56.321 85.1777 56.3959 85.2389 56.287C85.2865 56.2121 85.3137 55.6268 85.3137 54.7692C85.3137 53.6394 85.2933 53.2923 85.1913 52.9315C84.9942 52.1964 84.7155 51.6996 84.1581 51.0598C83.4104 50.1954 83.3084 50.0253 83.2336 49.4808C83.2064 49.2289 83.1453 48.7729 83.1045 48.4735C82.9277 47.2143 82.8938 46.9489 82.8598 46.4316C82.8257 45.9143 82.8326 45.8735 83.0229 45.574C83.4239 44.9478 84.0901 44.8253 84.9398 45.2133V45.2132C85.1845 45.3289 85.7079 45.5536 86.109 45.7237C86.3276 45.813 86.4818 45.8782 86.5915 45.9319C87.074 46.1401 87.0044 45.9087 86.9853 45.7875C86.9683 45.6794 86.8148 45.1391 86.7819 45.0237Z" fill="white"/>
<path d="M72.8747 38.7771L75.5029 47.3185V48.419H73.4351V47.5936L73.1016 46.4931H70.6869L70.3533 47.5936V48.419H68.2988V47.3185L70.9137 38.7771H72.8747ZM71.2872 44.5673H72.5146L71.9009 42.5663L71.2872 44.5673Z" fill="#2B2A29"/>
<path d="M65.6161 48.419H63.5616C63.2769 48.419 63.0102 48.369 62.7611 48.2689C62.5121 48.1689 62.2942 48.0313 62.1075 47.8562C61.9207 47.6812 61.7739 47.4769 61.6671 47.2435C61.5604 47.01 61.5071 46.7599 61.5071 46.4931V40.703C61.5071 40.4362 61.5604 40.1861 61.6671 39.9526C61.7739 39.7192 61.9207 39.5149 62.1075 39.3399C62.2942 39.1648 62.5121 39.0272 62.7611 38.9272C63.0102 38.8271 63.2769 38.7771 63.5616 38.7771H65.6161C65.9007 38.7771 66.1675 38.8271 66.4165 38.9272C66.6655 39.0272 66.8835 39.1648 67.0703 39.3399C67.257 39.5149 67.406 39.7192 67.5171 39.9526C67.6283 40.1861 67.6838 40.4362 67.6838 40.703V41.6659H65.6161V40.703H63.5616V46.4931H65.6161V45.5302H67.6838V46.4931C67.6838 46.7599 67.6283 47.01 67.5171 47.2435C67.406 47.4769 67.257 47.6812 67.0703 47.8562C66.8835 48.0313 66.6655 48.1689 66.4165 48.2689C66.1675 48.369 65.9007 48.419 65.6161 48.419Z" fill="#2B2A29"/>
<path d="M60.8784 40.703H57.7967V42.6289H60.3715V44.5673H57.7967V46.4931H60.8784V48.419H55.7422V38.7771H60.8784V40.703Z" fill="#2B2A29"/>
<path d="M55.1269 48.419H53.0591V40.703H51.0047V46.4931C51.0047 46.7599 50.9513 47.01 50.8446 47.2435C50.7379 47.4769 50.5911 47.6812 50.4043 47.8562C50.2175 48.0313 49.9996 48.1689 49.7506 48.2689C49.5016 48.369 49.2347 48.419 48.9501 48.419H47.9229V46.4931H48.9501V40.703C48.9501 40.4362 49.0035 40.1861 49.1102 39.9526C49.217 39.7192 49.3637 39.5149 49.5505 39.3399C49.7373 39.1648 49.9552 39.0272 50.2042 38.9272C50.4532 38.8271 50.72 38.7771 51.0047 38.7771H55.1269V48.419Z" fill="#2B2A29"/>
<path d="M45.313 48.419H43.2586C42.974 48.419 42.7071 48.369 42.4581 48.2689C42.2091 48.1689 41.9911 48.0313 41.8044 47.8562C41.6176 47.6812 41.4709 47.4769 41.3642 47.2435C41.2574 47.01 41.2041 46.7599 41.2041 46.4931V40.703C41.2041 40.4362 41.2574 40.1861 41.3642 39.9526C41.4709 39.7192 41.6176 39.5149 41.8044 39.3399C41.9911 39.1648 42.2091 39.0272 42.4581 38.9272C42.7071 38.8271 42.974 38.7771 43.2586 38.7771H45.313C45.5977 38.7771 45.8645 38.8271 46.1136 38.9272C46.3625 39.0272 46.5804 39.1648 46.7672 39.3399C46.954 39.5149 47.1029 39.7192 47.2142 39.9526C47.3253 40.1861 47.3809 40.4362 47.3809 40.703V46.4931C47.3809 46.7599 47.3253 47.01 47.2142 47.2435C47.1029 47.4769 46.954 47.6812 46.7672 47.8562C46.5804 48.0313 46.3625 48.1689 46.1136 48.2689C45.8645 48.369 45.5977 48.419 45.313 48.419ZM43.2586 46.4931H45.313V40.703H43.2586V46.4931Z" fill="#2B2A29"/>
<path d="M36.4667 48.419H34.4121V38.7771H40.589V40.703H36.4667V48.419Z" fill="#2B2A29"/>
<path d="M31.7291 48.419H29.6746C29.39 48.419 29.1232 48.369 28.8741 48.2689C28.6251 48.1689 28.4073 48.0313 28.2205 47.8562C28.0337 47.6812 27.8869 47.4769 27.7802 47.2435C27.6735 47.01 27.6201 46.7599 27.6201 46.4931V40.703C27.6201 40.4362 27.6735 40.1861 27.7802 39.9526C27.8869 39.7192 28.0337 39.5149 28.2205 39.3399C28.4073 39.1648 28.6251 39.0272 28.8741 38.9272C29.1232 38.8271 29.39 38.7771 29.6746 38.7771H31.7291C32.0137 38.7771 32.2806 38.8271 32.5296 38.9272C32.7786 39.0272 32.9966 39.1648 33.1834 39.3399C33.3701 39.5149 33.5191 39.7192 33.6303 39.9526C33.7414 40.1861 33.797 40.4362 33.797 40.703V46.4931C33.797 46.7599 33.7414 47.01 33.6303 47.2435C33.5191 47.4769 33.3701 47.6812 33.1834 47.8562C32.9966 48.0313 32.7786 48.1689 32.5296 48.2689C32.2806 48.369 32.0137 48.419 31.7291 48.419ZM29.6746 46.4931H31.7291V40.703H29.6746V46.4931Z" fill="#2B2A29"/>
<path d="M24.9374 38.7771H27.0052V48.419H24.9374V44.5673H22.8829V48.419H20.8284V38.7771H22.8829V42.6289H24.9374V38.7771Z" fill="#2B2A29"/>
<path d="M20.2128 48.419H18.1583V45.03L17.0643 48.419H15.1299L14.0359 45.03V48.419H11.9814V38.7771H14.1828L16.0905 44.7423L17.9982 38.7771H20.2128V48.419Z" fill="#2B2A29"/>
</g>
<defs>
<clipPath id="clip0_222_250">
<rect width="87" height="50" fill="white"/>
</clipPath>
</defs>
</svg>
