<svg width="116" height="115" viewBox="0 0 116 115" fill="none" xmlns="http://www.w3.org/2000/svg">
<path fill-rule="evenodd" clip-rule="evenodd" d="M90.9379 44.6401C90.857 43.9918 90.2713 45.7678 86.8827 43.1612C88.7218 43.5529 89.5232 42.9451 89.9949 42.6007C88.9779 42.8843 88.6542 42.4792 88.6542 42.4792C88.6542 42.4792 90.6483 41.7836 90.4869 41.2097C90.325 40.6357 90.251 41.9052 88.0685 41.2097C85.8855 40.5141 85.7981 39.2716 85.7981 39.2716C85.7981 39.2716 86.1549 39.1703 86.182 38.8866C87.1186 39.3256 88.2975 39.0622 88.7149 38.7853C87.691 38.8529 87.1655 38.4072 87.1655 38.4072C87.1655 38.4072 87.7586 38.0088 87.994 37.5496C87.5429 37.7927 86.0404 37.347 84.9494 35.5711C86.189 35.5102 86.674 34.9565 86.1416 34.5851C86.8087 34.6729 87.5563 34.1529 87.4892 33.9841C86.8423 34.1732 85.9733 34.0719 85.7577 33.8085C85.5421 33.5451 85.0166 32.8901 85.0166 32.8901C85.0166 32.8901 85.4478 33.059 85.7103 32.9509C85.9733 32.8429 85.9867 32.6875 86.1549 32.7416C86.3301 32.7956 86.445 32.6875 86.3301 32.485C86.2156 32.2824 86.1415 32.1811 85.8722 32.0663C85.6027 31.9515 85.2257 31.6611 85.0841 31.0466C84.9425 30.4321 84.7268 30.4388 84.7268 30.4388C84.7268 30.4388 84.7673 27.4338 84.114 27.3663C83.4538 27.2988 83.8717 29.0072 83.2919 29.6758C82.7195 30.3443 82.6322 30.5064 82.0731 30.5267C81.5135 30.5469 81.6956 31.1547 82.2211 31.256C81.9448 31.4113 81.2174 31.283 81.2174 31.283C81.2174 31.283 81.4666 31.5193 81.7494 31.6071C82.039 31.6949 82.5241 31.6747 82.5241 31.6747C82.5241 31.6747 82.4299 32.1743 82.8073 32.3161C82.76 32.5593 81.7361 32.9914 81.7361 32.9914C81.7361 32.9914 82.4165 32.4985 82.1807 32.2891C81.9379 32.0798 81.7697 32.2824 81.4464 32.3499C81.1232 32.4107 81.0423 32.3837 80.4225 32.2689C79.8027 32.1473 79.5131 32.0122 78.9673 31.6611C78.4216 31.31 77.8961 30.6415 77.8961 30.6415L78.4083 30.6482L78.0446 30.2701C78.0446 30.2701 78.9471 30.3241 79.4928 30.2498C80.0386 30.1755 80.389 29.9459 80.2942 29.6825C80.2069 29.4192 79.9913 29.4259 79.6947 29.3584C79.3986 29.2908 79.3044 29.0882 78.9944 28.9667C78.6845 28.8452 78.4823 28.987 78.2533 28.7371C78.0243 28.4873 76.9127 27.92 76.6027 27.3325C77.2363 27.4878 77.8896 27.1434 77.8556 26.8936C77.822 26.6437 77.6 26.8396 77.3439 26.8126C77.0878 26.7856 77.0069 26.4682 77.0069 26.4682C77.0069 26.4682 77.4717 26.6235 77.9098 26.4885C78.3476 26.3534 78.4487 25.9009 78.4152 25.8198C78.3747 25.7389 78.2262 25.7591 77.9301 25.7929C77.6266 25.8198 77.2561 25.6781 77.2092 25.3945C77.1618 25.1108 76.8588 24.7394 76.5692 24.6381C76.8588 24.5504 76.8722 24.3005 76.8722 24.3005C76.8722 24.3005 77.0675 24.5908 77.4248 24.5099C77.7816 24.4288 77.6809 23.9696 77.4717 23.7873C77.2629 23.6117 77.0611 23.4294 76.9127 22.9027C76.7646 22.3692 76.5287 22.1531 76.5287 21.7884C76.5287 21.4238 76.2119 19.9652 75.8887 19.9922C75.5655 20.0192 75.6731 20.6135 75.6598 20.762C75.6528 20.9106 75.4239 21.2347 75.4036 21.7074C75.3834 22.1801 74.6492 23.3281 74.4809 23.659C74.3127 23.9966 73.3222 23.8683 73.2616 24.5571C73.2009 25.2459 74.0902 24.5773 74.0902 24.861C74.0902 25.1446 73.6186 25.4012 73.0595 25.5092C72.5003 25.6173 72.7765 25.7253 72.332 25.8537C71.8873 25.9819 71.692 26.4074 71.6853 26.5965C71.2474 26.529 71.0183 26.3534 71.0183 26.3534C71.0183 26.3534 71.0588 26.5019 71.1531 26.6032C70.8162 26.637 70.7489 26.5425 70.7489 26.5425C70.7489 26.5425 70.8701 26.9071 71.5034 26.9341C72.1366 26.9612 72.3387 27.1975 72.844 27.1434C72.4532 27.319 72.2309 27.6499 71.9278 27.6836C71.6246 27.7107 70.9173 27.8052 70.5602 28.1767C70.2033 28.548 70.082 28.3252 70.0887 28.6089C70.0954 28.8924 70.2773 28.7506 70.4255 28.8114C70.5805 28.8721 70.9105 29.041 71.3686 29.0613C71.8267 29.0816 71.9951 28.9397 71.9951 28.9397C71.9951 28.9397 71.9816 29.3584 72.2377 29.453C72.1164 29.7906 71.9412 29.8311 71.7324 29.8379C71.5235 29.8446 71.3551 29.9662 71.3619 30.1485C71.3686 30.3308 71.5371 30.4388 71.8806 30.4388C72.2309 30.4388 72.8776 30.3106 72.8776 30.3106C72.8776 30.3106 72.0086 31.5801 70.4255 32.0663L70.1965 31.9718C70.1965 31.9718 70.4121 31.7692 70.4053 31.5666C71.1329 31.5058 71.6112 31.2086 71.5371 30.952C71.4629 30.6954 70.9105 31.1006 70.0415 30.2092C69.1725 29.3246 69.0378 28.9734 68.9435 28.7574C68.8492 28.5413 68.6336 28.467 68.6336 28.467C68.6336 28.467 69.0782 28.413 69.415 28.3252C69.7519 28.2374 69.8193 27.9808 69.698 27.8187C69.5767 27.6566 69.4757 27.677 69.3409 27.677C69.2062 27.677 69.0378 27.4946 68.8627 27.4744C68.6943 27.4609 68.6269 27.346 68.6336 27.1975C68.6403 27.0489 68.5258 26.9612 68.4855 26.9678C68.445 26.9746 68.6201 26.6775 68.4517 26.5559C68.2833 26.4344 68.2766 26.4209 68.2766 26.3669C68.2833 26.3061 68.5124 26.144 68.4585 25.9685C68.4046 25.7929 68.5191 25.7996 68.4855 25.6105C68.4517 25.4282 68.4181 25.3607 68.4315 25.1379C68.445 24.915 68.3238 24.8205 68.3305 24.6247C68.3372 24.4288 68.3911 23.6387 68.2025 23.6117C68.0139 23.5847 67.9398 23.8615 67.9264 24.1452C67.9128 24.4288 67.6703 25.0231 67.5558 25.2324C67.448 25.435 67.4076 25.6646 67.4278 25.7794C67.4548 25.8874 67.2796 26.0427 67.2998 26.1845C67.32 26.3264 67.4076 26.3466 67.4076 26.4951C67.4076 26.6437 67.1314 26.8733 66.8485 26.9273C66.5656 26.9814 66.4173 26.8666 66.3028 26.9882C66.1883 27.1097 66.2624 27.3663 66.4915 27.4744C66.7272 27.5824 66.8687 27.6972 67.0506 27.6702C66.5184 28.1092 65.966 28.2847 65.6966 28.1631C65.427 28.0348 65.4945 28.1902 65.2923 28.1429C65.0902 28.0956 64.7265 28.0078 64.7265 28.0078C64.7265 28.0078 65.2115 28.5683 65.6292 28.6763C65.3462 28.8519 64.6321 28.8721 64.6321 28.8721C64.6321 28.8721 65.1442 29.014 65.2923 29.1287C65.4338 29.2503 66.6329 29.1356 66.6329 29.1356C66.6329 29.1356 66.478 29.3651 66.1276 29.5543C65.7773 29.7433 65.4608 29.9121 65.2115 30.0201C64.9623 30.1282 64.5716 30.216 64.2078 30.3375C63.844 30.4591 63.7429 30.2362 63.615 30.216C63.4869 30.1957 63.4398 30.2835 63.3118 30.2025C63.1906 30.1215 62.7392 30.1417 62.5102 30.0135C62.6719 30.5402 63.5611 31.2289 64.2549 31.3572C64.9555 31.4855 65.3665 31.3505 65.3665 31.3505C65.3665 31.3505 65.6764 31.6611 66.0266 31.6408C65.1374 32.4377 64.6659 32.7078 63.844 32.7956C64.1068 32.3432 64.2347 32.1811 64.2011 32.1136C64.1674 32.0461 62.8739 32.7011 62.3283 32.7078C61.7827 32.7146 61.1427 32.6808 60.4758 32.4107C59.8089 32.1473 58.7041 31.9313 58.4413 31.4923C59.7348 31.9447 60.4556 31.6003 60.9878 31.6003C61.5199 31.6003 62.1599 31.1952 62.1599 31.1952C62.1599 31.1952 61.5267 31.1006 61.0282 31.1276C60.6846 30.5064 59.8762 30.3646 59.0477 29.9594C60.7182 30.6617 61.5334 30.1417 61.5334 30.1417C61.5334 30.1417 60.7722 29.7298 60.6173 29.2233C61.4458 29.2436 62.5439 28.2172 62.5439 28.2172C62.5439 28.2172 59.6674 27.785 58.1315 26.4074C59.3845 26.4682 60.9338 25.9752 60.9338 25.1649C60.9338 24.3478 60.8732 25.0433 59.6068 24.8678C58.3404 24.6922 57.862 24.422 57.862 24.422C57.862 24.422 59.0274 24.395 58.63 23.6995C60.0447 24.0371 60.8597 23.848 61.6412 23.139C60.0312 23.3146 59.1487 22.8419 59.1487 22.8419C59.1487 22.8419 60.1053 22.8284 60.5094 22.2814C59.8628 22.1801 59.4451 22.1194 58.529 22.045C57.6128 21.9708 57.5522 21.7209 57.5522 21.7209C57.5522 21.7209 58.5222 21.4036 58.4751 21.0186C58.4279 20.6337 57.8082 20.9781 56.8583 19.9719C57.6734 20.4581 58.0978 20.1813 58.0978 20.1813C58.0978 20.1813 57.5791 19.6613 57.3096 19.3034C57.047 18.9455 56.7572 18.6754 56.663 18.2297C56.5619 17.784 56.7708 17.5814 56.5754 17.3518C56.38 17.1222 56.5821 16.5752 56.3127 16.5752C56.0365 16.5752 56.2116 16.8319 56.0365 17.2573C55.8613 17.6827 55.7132 17.8853 55.7199 18.331C55.7266 18.7767 54.6151 20.0935 54.2446 21.1537C54.8643 20.9444 55.2416 20.4446 55.2416 20.4446C55.2416 20.4446 54.8913 21.3157 54.743 21.6263C54.5949 21.937 54.3321 22.0586 54.1772 22.3557C54.0223 22.6528 53.8875 22.619 53.618 22.7406C53.3486 22.8622 53.3015 22.9837 53.2947 23.112C53.288 23.2403 53.3688 23.4294 53.7326 23.4496C53.1667 23.74 52.2708 24.1384 51.9743 24.3073C51.6712 24.4761 51.8801 24.7192 52.1496 24.7934C52.419 24.8678 52.8366 24.9825 53.3351 24.861C53.8336 24.7394 54.0964 24.5841 54.0964 24.5841C54.0964 24.5841 53.928 24.7867 53.8337 25.0501C53.7393 25.3134 51.2603 26.5154 50.2566 26.6302C51.0717 26.9881 53.7124 26.529 54.4062 26.036C53.4564 27.677 52.5268 27.8052 51.7858 28.0889C51.0448 28.3724 50.5462 28.2239 50.3846 28.4265C50.2229 28.6358 50.1758 29.6218 52.4661 29.642C52.1293 30.1755 51.4152 30.0135 51.2266 30.3106C51.038 30.6077 51.1795 31.0804 51.8329 31.1547C52.4796 31.2289 52.1899 31.5531 52.1899 31.5531C51.9811 31.8772 51.7655 32.2553 51.5971 32.3296C51.422 32.4039 51.0178 32.1 50.7686 32.0392C50.5193 31.9718 49.9871 31.911 49.711 31.4855C50.297 31.4991 50.8157 31.1884 50.7214 30.9386C50.6272 30.6887 49.9871 30.6954 49.6301 30.378C49.273 30.0606 48.9161 29.8716 48.7206 29.4462C49.1855 29.588 49.7177 29.1693 49.5695 28.9329C49.4145 28.6899 48.9363 28.8587 48.3434 28.2712C49.0777 28.413 49.5291 27.947 49.4414 27.7512C49.3539 27.5554 48.3637 27.6567 47.8651 26.7653C48.2289 26.8936 48.7948 26.8126 48.7948 26.6843C48.8015 26.556 48.3232 26.4817 47.9864 25.8942C47.6563 25.3067 47.8247 24.9488 47.5755 24.6854C47.5148 24.5233 47.4879 22.5987 47.407 22.6056C47.3195 22.6123 47.1376 23.5442 47.1579 23.8346C47.178 24.1249 47.2454 24.3815 47.1241 24.6179C47.0029 24.8542 47.0029 25.0568 47.0029 25.2526C47.0096 25.4417 46.8008 25.5497 46.7671 25.6916C46.7334 25.8334 46.2956 25.9347 46.3023 26.036C46.309 26.1373 46.6054 26.198 46.693 26.2521C46.7806 26.3061 46.0868 26.718 45.6488 26.7518C45.211 26.7856 45.339 26.9273 45.1975 26.9138C45.0628 26.9071 45.0224 26.8328 45.0022 26.8666C44.982 26.9004 44.9685 27.1704 45.2379 27.157C45.5074 27.1434 45.5141 27.3528 45.7229 27.3731C45.9385 27.3933 46.1608 27.3663 46.1608 27.3663C46.1608 27.3663 45.9857 27.6431 45.824 27.6836C45.6624 27.731 45.3794 27.6904 45.339 27.8255C45.2918 27.9606 45.5006 28.1564 45.7701 28.1631C46.0396 28.1699 46.2551 28.0889 46.2551 28.0889C46.2551 28.0889 45.7903 28.5075 45.44 28.5413C45.0897 28.575 44.571 28.5548 44.4767 28.6629C44.3824 28.7709 44.4565 28.933 44.8741 29.0545C45.2918 29.1761 45.3053 29.3246 45.3053 29.3246C45.3053 29.3246 44.8674 29.3651 44.8405 29.4462C44.8068 29.534 44.9079 29.7298 45.2918 29.7365C45.6758 29.7433 45.8509 29.6285 45.8509 29.6285C45.8509 29.6285 45.3794 29.9324 45.1032 30.1417C44.8203 30.351 44.2409 30.3172 44.0792 30.4456C43.9176 30.5739 43.6077 30.5402 43.4595 30.5537C43.3113 30.5672 43.089 30.7697 43.3921 30.9994C43.6953 31.2289 44.4093 31.256 44.4093 31.256C44.4093 31.256 44.0187 31.7016 44.4969 31.8637C44.4093 32.2081 43.4393 32.6268 43.3181 32.647C43.1968 32.6673 42.9273 32.6403 42.7859 32.728C42.6444 32.8159 42.5838 33.113 43.0014 33.2413C43.4258 33.3763 43.7088 33.768 44.3016 33.7073C44.0321 33.9436 43.0823 34.3487 43.0823 34.3487C43.0823 34.3487 42.1324 33.7815 41.6878 33.1265C41.2432 32.4782 40.8121 31.884 40.5494 31.6341C41.5599 31.9042 42.3143 31.8907 42.806 31.8232C43.2911 31.7489 43.5943 31.6476 43.5943 31.5666C43.5943 31.4788 42.5636 31.3167 42.4153 31.2492C42.7994 31.0331 42.7387 30.763 42.7387 30.763C42.7387 30.763 41.991 30.9655 41.223 30.2498C40.4483 29.5272 39.5254 28.44 39.2155 27.4675C40.2193 28.5818 41.2971 29.1085 41.7889 29.3111C42.2807 29.5137 43.3315 29.669 43.9984 29.3314C42.7926 28.9262 42.0179 28.2779 42.0179 28.2779C42.0179 28.2779 43.1698 27.8052 42.9678 26.9746C42.1661 26.9678 41.223 26.664 40.6639 26.1778C40.1048 25.6983 40.0239 25.7253 40.0239 25.7253C40.0239 25.7253 41.0074 25.1041 40.7312 24.4625C40.6706 24.3343 40.0778 24.4693 39.6332 24.1857C39.1886 23.9021 39.1078 23.9156 38.9124 23.6793C39.3099 23.767 39.9969 23.578 39.9094 23.193C39.8151 22.8082 39.2627 22.7676 38.9932 22.3624C39.0943 22.2004 39.101 22.0855 39.0336 21.991C39.2492 21.8965 39.357 21.5251 39.3233 21.309C39.2897 21.0929 39.0202 20.5662 38.744 20.2353C38.4678 19.9044 38.3802 18.0406 38.2522 18.0541C38.1242 18.0609 38.2522 18.5065 38.1175 18.7429C37.9828 18.986 37.9423 19.3237 37.9154 19.6275C37.8884 19.9314 37.7942 20.2825 37.6257 20.4784C37.4506 20.6742 37.2553 20.843 37.2283 20.9916C37.2013 21.1402 36.777 21.1875 36.777 21.3562C36.7702 21.5251 36.8713 21.7344 36.9656 21.8222C37.0599 21.91 37.2754 21.9168 37.2754 21.9168C37.2754 21.9168 37.0128 22.3016 36.5682 22.4975C36.1168 22.6933 35.9282 22.9094 35.908 23.0512C35.8877 23.1863 36.0225 23.3686 36.2852 23.4226C36.5479 23.4767 36.5682 23.6252 36.7702 23.6387C36.9723 23.659 36.9723 23.4361 37.1205 23.4361C37.2688 23.4361 37.3765 23.4496 37.3765 23.4969C37.3832 23.5442 36.9386 23.7265 36.878 23.9359C36.8174 24.1452 36.4603 24.1925 36.2313 24.2667C36.0023 24.341 35.6789 24.287 35.6183 24.4018C35.5577 24.5233 35.0591 24.8002 35.0457 24.9555C35.0322 25.1041 35.5307 25.1041 35.652 25.2256C35.7733 25.3472 36.5008 25.5497 36.622 25.5566C36.7432 25.5632 36.7432 25.5971 36.7432 25.6173C36.7432 25.6376 36.366 25.543 36.1774 25.7658C35.9888 25.9819 36.0157 26.1711 35.6385 26.1103C35.268 26.0495 35.1872 26.4277 34.6213 26.5019C34.0555 26.5762 31.7785 26.3601 31.1385 25.5092C31.435 26.1305 31.8661 26.5087 31.9671 26.7653C32.0682 27.0219 32.4859 26.9543 32.7688 27.1772C33.0517 27.4068 33.5502 27.8997 33.7725 27.8323C33.6108 28.0078 32.5262 28.2172 31.9739 27.9402C32.2366 28.3117 32.9237 28.4333 33.1123 28.5683C33.3009 28.7034 33.988 28.8316 34.3316 28.7236C34.6685 28.6155 35.3353 28.6089 35.3353 28.6089C35.3353 28.6089 35.4162 28.7304 35.5981 28.6899C35.5239 28.8587 34.9378 29.1153 34.6011 29.453C34.2643 29.7838 32.1827 30.8305 31.5293 30.7562C31.7179 31.0668 32.4252 31.3978 32.9708 31.445C33.5165 31.4923 34.4192 31.4045 34.4192 31.4045C34.4192 31.4045 34.4394 31.8164 33.7321 31.9853C34.2844 32.3161 35.5307 32.1946 35.5307 32.1946C35.5307 32.1946 35.1198 32.3027 34.5944 32.9037C34.0689 33.5046 32.8227 33.6059 32.5397 33.8963C32.2568 34.1867 31.3743 34.5243 31.0577 34.5243C30.7411 34.5243 29.8316 34.6729 29.6363 34.5446C29.4342 34.4163 29.0974 34.6661 29.6094 35.2401C30.1214 35.8141 30.3638 35.8952 30.8623 35.8952C31.3609 35.8952 32.5195 35.8277 32.5195 35.8277C32.5195 35.8277 30.9297 36.7662 30.8825 36.9081C30.8354 37.0499 30.9971 37.4145 31.6505 37.3673C32.304 37.32 33.6849 36.9688 34.1498 36.5164C34.1026 36.9013 34.3518 37.0026 34.527 37.0094C34.7089 37.0162 35.2343 36.8338 35.7799 36.3206C35.497 36.7933 34.3249 38.2316 33.2134 38.8191C32.1018 39.4067 30.8758 39.5417 30.7882 39.8051C30.7007 40.0752 30.7411 40.4736 31.5764 40.5276C32.4117 40.5816 33.0046 40.6222 33.0046 40.6222C33.0046 40.6222 31.6168 42.1416 30.7208 42.6615C29.8249 43.1747 28.7942 43.276 28.4777 43.195C28.161 43.114 28.0331 43.5123 28.4237 43.7352C28.8145 43.9581 29.0907 43.9918 29.2119 44.0796C29.3332 44.1674 29.9125 44.0729 30.283 44.1876C30.6535 44.3025 31.9132 43.9175 31.9132 43.9175C31.9132 43.9175 31.792 44.1336 31.9671 44.3092C31.2194 44.7617 31.1318 45.3491 30.795 45.491C30.4582 45.6327 28.9964 46.0785 28.6797 46.5444H88.668C88.6542 46.5174 91.012 45.2951 90.9379 44.6401ZM41.1152 37.3605C40.8256 37.0702 40.7716 36.7325 40.7716 36.7325L41.6744 37.212C41.6744 37.212 41.3712 37.2795 41.1152 37.3605ZM42.4086 36.172L43.1564 36.226L42.8263 36.584L42.4086 36.172ZM44.0187 39.8658C44.0187 39.8658 43.4326 39.6362 43.0216 39.0757C43.7559 39.3593 44.8472 39.2108 44.8472 39.2108L44.0187 39.8658ZM61.3043 35.1321L61.1427 34.7066L61.5401 34.2677L62.0588 34.8012L61.3043 35.1321ZM71.1261 35.6521L70.6478 35.1726H71.4494L71.1261 35.6521ZM71.8335 34.342L71.1261 33.9841H72.2983L71.8335 34.342ZM72.0491 33.0319L71.1329 32.6606C71.1329 32.6606 72.5475 32.6335 72.9719 32.4174C72.7361 32.6875 72.0491 33.0319 72.0491 33.0319ZM81.3926 34.6053C81.2174 34.6797 80.2202 34.8282 79.9981 35.2671C79.7756 35.7061 81.0018 36.1113 81.0018 36.1113C80.7996 36.4151 80.6919 36.9418 80.6919 36.9418L79.4119 35.9357H79.6882L78.4956 34.8147L79.1899 35.0578L78.2938 33.9909C78.2938 33.9909 79.3848 33.9706 79.7085 34.207C80.0248 34.4365 79.7623 33.5317 79.5333 33.3426C80.2 33.5114 81.0625 33.3426 81.0625 33.3426C81.0625 33.3426 80.5572 33.7612 80.234 34.0111C79.9172 34.261 80.0386 34.4771 80.8469 34.369C81.6552 34.261 81.7967 34.207 81.7967 34.207C81.7967 34.207 81.5678 34.5311 81.3926 34.6053Z" fill="#72B334"/>
<path fill-rule="evenodd" clip-rule="evenodd" d="M31.7644 53.2576C31.68 53.3421 31.6519 54.206 31.6519 56.7975C31.6519 58.6943 31.6893 60.2905 31.7269 60.3563C31.7925 60.4408 32.0926 60.469 32.9273 60.4502L34.0432 60.422V56.807V53.1919L32.9648 53.1638C32.2052 53.145 31.8488 53.1731 31.7644 53.2577L31.7644 53.2576Z" fill="black"/>
<path fill-rule="evenodd" clip-rule="evenodd" d="M47.3318 53.2576C47.2474 53.3421 47.2192 54.206 47.2192 56.7975C47.2192 58.6943 47.2567 60.2905 47.2942 60.3563C47.3599 60.4408 47.6599 60.469 48.4946 60.4502L49.6106 60.422V56.807V53.1919L48.5321 53.1638C47.7725 53.145 47.4161 53.1731 47.3318 53.2577V53.2576Z" fill="black"/>
<path fill-rule="evenodd" clip-rule="evenodd" d="M78.4717 56.1587C78.406 56.3841 78.2747 56.8253 78.181 57.1352C77.8996 58.0272 77.909 58.0272 78.6123 58.0272C79.1938 58.0272 79.222 58.0179 79.222 57.8019C79.222 57.6892 79.1844 57.4639 79.1375 57.3136C79.0906 57.1634 78.9875 56.8066 78.9031 56.5249C78.6687 55.7361 78.603 55.6705 78.4717 56.1587Z" fill="black"/>
<path fill-rule="evenodd" clip-rule="evenodd" d="M115.319 57.0135L115.319 57.0187V57.0185L115.319 57.0135ZM58 96.6801C70.8337 96.6801 82.2243 90.494 89.36 80.9373H88.6324C81.5871 90.1551 70.488 96.1019 58 96.1019C45.512 96.1019 34.4129 90.1551 27.3675 80.9373H26.6401C33.7757 90.494 45.1663 96.6801 58 96.6801ZM58 88.7545C63.9627 88.7545 69.5344 87.0796 74.2729 84.1753H73.3725C68.8499 86.7939 63.6 88.2933 58 88.2933C52.4 88.2933 47.1501 86.7939 42.6275 84.1753H41.7271C46.4656 87.0796 52.0373 88.7545 58 88.7545ZM16.3377 46.5435H99.6647C94.8225 28.0331 78.0053 14.3753 58 14.3753C37.9949 14.3753 21.1794 28.0331 16.3377 46.5435ZM100.303 65.6166H15.6952C19.4875 85.5531 36.9845 100.625 58 100.625C79.0153 100.625 96.5109 85.5529 100.303 65.6166ZM115.212 58.1922C115.209 58.1836 115.206 58.1742 115.204 58.1642L115.203 58.1635V58.1634C115.182 58.0835 115.155 57.9624 115.122 57.795C114.691 55.6358 113.747 53.9534 112.435 53.0537C112.067 52.7928 111.555 52.415 111.294 52.2171L110.836 51.8392L109.919 49.518C109.29 47.9166 109.003 47.0709 109.003 46.828C109.012 46.0633 109.551 45.3525 110.288 45.1546C110.602 45.0646 110.908 45.0916 112.193 45.2986C113.037 45.4335 113.81 45.5594 113.918 45.5864C114.223 45.6584 114.187 45.3255 113.801 44.4259C112.75 41.9698 111.582 40.6922 109.704 39.9815C108.572 39.5586 108.176 39.3697 108.006 39.1718C107.808 38.9468 105.274 35.3392 105.148 35.1052C105.094 34.9973 105.049 34.6824 105.049 34.3945C105.049 33.4679 105.642 32.8021 106.568 32.6851C106.748 32.6671 107.511 32.5952 108.257 32.5322C109.012 32.4693 109.659 32.3882 109.695 32.3612C109.776 32.2803 109.614 32.0014 109.066 31.2637C108.077 29.9321 106.793 28.8525 105.624 28.3577C105.373 28.2587 104.627 28.0878 103.962 27.9889C102.453 27.7549 102.345 27.7279 101.976 27.3951C101.815 27.2421 101.051 26.5853 100.287 25.9196C98.7327 24.5791 98.535 24.3811 98.3553 23.9403C98.0768 23.2925 98.2924 22.3839 98.8495 21.925C99.0023 21.7901 99.7481 21.4932 100.727 21.1783C101.626 20.8904 102.354 20.6025 102.354 20.5485C102.354 20.3056 100.736 19.0821 99.6492 18.5063C98.1037 17.6786 97.349 17.5437 95.4621 17.7686L94.1951 17.9215L92.0477 16.8239C90.8706 16.2121 89.7744 15.6183 89.6127 15.5014C88.8579 14.9346 88.7681 13.756 89.424 13.0093C89.5678 12.8473 90.2866 12.3345 91.0324 11.8667C91.7692 11.4078 92.3801 10.976 92.3801 10.9131C92.3801 10.6431 90.053 9.6805 88.7501 9.41057C87.4472 9.1407 86.6655 9.23967 84.8056 9.93242C84.3204 10.1123 83.8442 10.2563 83.7453 10.2563C83.6554 10.2563 83.1343 10.1573 82.6042 10.0314C82.0741 9.90539 81.1216 9.6715 80.4747 9.52755C79.046 9.19469 78.6597 9.05075 78.3362 8.74484C77.9588 8.38495 77.824 8.03413 77.824 7.43126C77.833 6.77454 77.9139 6.64855 79.4234 5.04716C80.5465 3.85957 80.5286 3.90455 79.7109 3.70662C78.6597 3.4547 78.1655 3.40079 77.0333 3.40079C75.8742 3.40079 75.6766 3.42774 74.5983 3.74266C74.3197 3.82361 73.9693 4.03055 72.7922 4.81326L71.8488 5.44302L69.4048 5.47005C67.8503 5.488 66.835 5.46104 66.6014 5.39804C65.8017 5.18209 65.2895 4.44443 65.3524 3.58971C65.3884 3.13986 65.4872 2.90596 66.215 1.63743C66.6733 0.854719 67.0417 0.152953 67.0417 0.0899559C67.0417 -0.0899551 64.5707 0.0359682 63.7082 0.260928C62.1896 0.656789 61.0844 1.29556 60.4195 2.17724C60.2129 2.43816 59.8534 2.86999 59.6198 3.13085L59.1796 3.59872L57.742 3.96755C56.9512 4.16548 55.9179 4.42641 55.4507 4.55233C54.4263 4.82227 53.7615 4.8493 53.3661 4.61533C52.9707 4.38143 52.6024 3.8866 52.4765 3.4098C52.3688 2.99592 52.4047 2.80699 53.1684 0.152952C53.2133 0.018019 53.1235 0 52.1711 0C51.1378 0 51.1288 0 50.392 0.368903C48.9813 1.07961 47.957 1.97029 47.5347 2.86098C47.2022 3.55374 46.5643 4.64229 46.3936 4.79524C46.1959 4.97522 42.3502 7.05342 41.9638 7.18835C41.8021 7.24234 41.5415 7.28739 41.3708 7.28739C40.7149 7.28739 39.8793 6.60364 39.7624 5.97381C39.7265 5.7939 39.7355 4.8852 39.7714 3.94953C39.8433 1.9703 39.8793 2.03322 38.9448 2.59105C37.4173 3.50869 36.1234 4.66031 35.4855 5.66798C35.2249 6.0908 34.7846 7.2334 34.7846 7.51228C34.7846 7.55726 34.6768 7.9351 34.551 8.34898C34.3533 9.01471 34.2725 9.14964 33.8591 9.52755C31.505 11.7047 30.6424 12.4515 30.3459 12.6134C29.6001 13.0003 28.5219 12.6404 28.1355 11.8757C28.0367 11.6778 27.8749 11.1199 27.7761 10.6431C27.6772 10.1573 27.5245 9.42859 27.4436 9.01471C27.3538 8.55585 27.255 8.27697 27.183 8.27697C26.9854 8.27697 25.6735 9.59048 25.1254 10.3372C23.9304 11.9836 23.7327 12.5324 23.6429 14.6017L23.571 16.2031L22.8163 17.3457C22.4029 17.9754 21.8009 18.8841 21.4864 19.37C20.8305 20.3776 20.4711 20.7374 19.9499 20.8724C19.4827 20.9984 19.0424 20.9264 18.5483 20.6385C18.2158 20.4405 18.108 20.2966 17.6767 19.4059C17.4161 18.8481 17.0657 18.1194 16.913 17.7685C16.7602 17.4266 16.5985 17.1297 16.5535 17.1117C16.3199 17.0308 15.0709 19.271 14.6487 20.5125C14.2623 21.6641 14.2263 22.9236 14.5588 24.1562C14.9362 25.5417 14.9092 25.7216 13.9478 28.2677C13.0492 30.6608 12.8426 31.0027 12.1687 31.2276C11.7284 31.3715 11.0365 31.2816 10.6862 31.0386C10.5244 30.9307 9.92238 30.2559 9.35634 29.5542C8.79023 28.8435 8.27811 28.2587 8.23319 28.2587C8.10735 28.2497 7.78391 29.1134 7.50539 30.193C7.34363 30.8318 7.26279 31.4165 7.2268 32.2532C7.16395 33.7287 7.26279 34.1336 8.06243 35.735C8.74531 37.1115 8.70938 36.5896 8.31403 40.0804C8.11635 41.8527 8.06243 42.1046 7.84683 42.4645C7.42448 43.1662 6.47208 43.4721 5.73528 43.1483C5.57352 43.0763 4.86372 42.5724 4.14485 42.0327C3.36314 41.4389 2.80609 41.07 2.7611 41.115C2.63534 41.241 2.51851 43.0403 2.58142 43.949C2.71618 45.9732 3.14746 47.0169 4.36946 48.3574C5.33992 49.41 5.27701 49.2391 5.59152 51.6862C5.64544 52.082 5.72628 52.6848 5.7712 53.0357C5.81612 53.3776 5.87904 53.9444 5.90596 54.2952C5.95096 54.889 5.94196 54.952 5.69036 55.3389C5.37585 55.8247 4.8098 56.1396 4.25269 56.1396C3.9921 56.1396 3.41706 55.9416 2.28497 55.4558C1.59905 55.1685 0.994893 54.8866 0.744358 54.7506C0.458327 54.6058 0.480078 54.8415 0.530596 55.1451C0.581184 55.4488 0.769015 56.3908 0.769015 56.3908V56.3909C0.784531 56.4534 0.801465 56.5253 0.820312 56.6074C0.910153 56.9943 1.04491 57.5161 1.12583 57.777L1.12576 57.7771C1.39528 58.6137 1.97932 59.7113 2.43759 60.2691C2.70711 60.593 3.29122 61.0968 3.92018 61.5466C4.49522 61.9605 5.01634 62.3923 5.07926 62.5183C5.1691 62.6982 6.07658 64.9474 6.66069 66.4409C6.69661 66.5398 6.77745 66.7378 6.83137 66.8727C7.23572 67.8893 6.33717 69.1849 5.22302 69.1759C5.05226 69.1759 4.2257 69.0589 3.38106 68.9239C2.33875 68.744 1.83556 68.699 1.79064 68.762C1.67387 68.9509 2.46451 70.7413 3.11147 71.7579C3.51582 72.3967 4.4233 73.3413 4.9445 73.6832C5.1871 73.8361 5.79806 74.1241 6.31025 74.3219C7.95452 74.9607 7.57716 74.5828 9.83247 77.8036C10.8029 79.1711 10.8837 79.3331 10.8837 79.8279C10.8837 80.3498 10.704 80.7636 10.3267 81.1145C9.90431 81.5103 9.65279 81.5733 8.18819 81.6903C6.48093 81.8162 6.12157 81.8612 6.12157 81.9602C6.12157 82.0592 6.84937 83.0397 7.41541 83.7055C8.11628 84.5332 9.14059 85.3609 9.9493 85.7478C10.5153 86.0177 10.8748 86.1257 11.6116 86.2336C13.6332 86.5215 13.3637 86.3865 15.3494 88.1139C16.3289 88.9596 17.2363 89.8234 17.3801 90.0213C17.8653 90.705 17.7845 91.5867 17.1914 92.2075C16.8949 92.5224 16.6972 92.6033 15.2236 93.0801C14.3162 93.377 13.5794 93.6559 13.5794 93.7189C13.5794 93.9978 15.4213 95.3653 16.5715 95.9231C17.9642 96.6068 18.665 96.7058 20.525 96.4989L21.756 96.355L22.9061 96.9577C23.5351 97.2907 24.5774 97.8304 25.2153 98.1633C26.2037 98.6761 26.4193 98.82 26.626 99.144C27.1202 99.9177 27.0304 100.736 26.3924 101.348C26.1857 101.546 25.4579 102.05 24.7841 102.473C24.1102 102.896 23.5531 103.282 23.5531 103.345C23.5531 103.408 23.9484 103.66 24.4336 103.903C26.6439 105.01 28.6207 105.271 30.2471 104.65C32.2238 103.903 32.1609 103.912 33.0684 104.173C33.3919 104.263 34.0658 104.434 34.56 104.542C37.2825 105.172 37.4892 105.253 37.8845 105.928C38.1811 106.431 38.1901 107.151 37.9205 107.592C37.8216 107.763 37.2376 108.42 36.6446 109.058C36.0426 109.697 35.5394 110.246 35.5214 110.291C35.4855 110.39 36.2133 110.606 37.031 110.741C38.6034 110.993 40.077 110.939 41.1642 110.57C41.4877 110.462 42.2065 110.057 42.8624 109.625L44.0035 108.86L46.6991 108.842L49.3857 108.815L49.7811 109.085C50.3561 109.472 50.6257 110.021 50.5717 110.678C50.5448 110.993 50.437 111.344 50.3111 111.577C49.9428 112.216 49.7002 112.648 49.2779 113.386C48.7118 114.357 48.7388 114.393 49.9967 114.312C52.6743 114.15 54.4624 113.404 55.5946 111.964C56.3134 111.047 56.6278 110.759 57.0591 110.624C58.1374 110.273 61.417 109.49 61.7854 109.49C62.7378 109.49 63.4477 110.219 63.4477 111.191C63.4477 111.54 62.9138 113.592 62.6283 114.448C62.624 114.462 62.6194 114.476 62.6141 114.49L62.6133 114.492C62.6006 114.529 62.5884 114.564 62.5769 114.596C62.3926 115.174 62.7988 114.962 62.7988 114.962L63.6792 114.624C63.7875 114.581 63.9165 114.536 64.0586 114.492C64.4899 114.348 65.1638 114.07 65.5591 113.872C67.0866 113.107 67.8863 112.387 68.4344 111.281C68.8927 110.363 69.3868 109.553 69.5486 109.445C69.926 109.193 72.5407 107.772 73.7088 107.178C74.5803 106.728 75.6496 107.124 76.0449 108.033C76.2067 108.393 76.2157 108.564 76.1528 110.219C76.0808 112.234 76.0719 112.207 76.7368 111.82C78.6417 110.687 80.0703 109.364 80.6275 108.231C80.8071 107.862 80.9958 107.331 81.0587 107.061C81.2025 106.404 81.481 105.487 81.6068 105.253C81.7595 104.956 84.9044 102.059 85.4166 101.744C86.0456 101.348 86.8363 101.447 87.4382 101.987C87.8696 102.383 87.9145 102.509 88.2559 104.182C88.4087 104.947 88.5614 105.667 88.5794 105.775C88.6064 105.892 88.6872 105.982 88.7501 105.982C88.9568 105.982 90.1877 104.749 90.7988 103.921C91.3918 103.121 91.9219 102.158 92.1106 101.528C92.1645 101.33 92.2454 100.475 92.2813 99.6298L92.3442 98.0824L93.126 96.9038C93.5573 96.256 93.9077 95.7073 93.9077 95.6893C93.9077 95.6082 94.932 94.1418 95.1566 93.8989C95.507 93.512 95.8216 93.3861 96.4235 93.3861C97.5198 93.3861 97.6276 93.512 99.0203 96.5529C99.173 96.8949 99.3348 97.1647 99.3797 97.1647C99.5145 97.1647 100.296 95.9412 100.71 95.0955C101.204 94.0698 101.446 93.3231 101.563 92.4324C101.671 91.6497 101.635 91.2809 101.285 89.7874C101.186 89.3646 101.096 88.8787 101.096 88.6988C101.096 88.3299 102.614 84.1464 102.911 83.7056C103.252 83.2108 103.675 82.9949 104.34 82.9949C105.112 82.9949 105.274 83.1208 106.586 84.7402C107.143 85.442 107.637 86.0088 107.673 86.0088C107.979 86.0088 108.617 83.5977 108.706 82.1402C108.787 80.7187 108.662 80.1789 107.907 78.6495L107.269 77.372L107.332 76.6702C107.395 75.9415 107.592 74.1331 107.754 72.9006C107.826 72.3608 107.916 72.0549 108.104 71.767C108.518 71.1102 109.335 70.8313 110.072 71.0832C110.234 71.1372 110.971 71.65 111.716 72.2078C112.938 73.1255 113.091 73.2244 113.172 73.0805C113.235 72.9815 113.271 72.2078 113.271 71.0742C113.271 69.5808 113.244 69.1219 113.109 68.6451C112.849 67.6734 112.48 67.0167 111.743 66.171C110.755 65.0284 110.62 64.8035 110.521 64.0838C110.485 63.7509 110.405 63.1481 110.351 62.7523C110.117 61.0879 110.072 60.737 110.027 60.0533C109.982 59.3695 109.991 59.3155 110.243 58.9197C110.773 58.092 111.654 57.93 112.777 58.4429V58.4428C113.1 58.5957 113.792 58.8926 114.322 59.1175C114.611 59.2356 114.815 59.3218 114.96 59.3928C115.598 59.668 115.506 59.3621 115.481 59.2019C115.458 59.0589 115.255 58.3448 115.212 58.1922Z" fill="white"/>
<path d="M27.9403 77.4904V69.8834H29.6018V77.4904H30.3703V69.1537H27.1719V77.4904H27.9403ZM32.6517 75.4892L32.7035 69.1537H31.9974V77.4904H32.6517L34.6559 71.166L34.6143 77.4904H35.3309V69.1537H34.6559L32.6517 75.4892ZM36.9268 77.5568C37.6745 77.5568 38.0275 77.1256 38.1522 75.5997L38.6714 69.8834H39.9799V77.4904H40.7483V69.1537H38.0171L37.4461 75.5223C37.3525 76.5616 37.1864 76.8492 36.8333 76.8492C36.6983 76.8492 36.5425 76.827 36.4387 76.7938V77.4572C36.5425 77.5236 36.7087 77.5568 36.9268 77.5568ZM44.0888 77.59C45.3038 77.59 46.0412 76.4733 46.0412 73.3331C46.0412 70.6906 45.553 69.0542 44.0888 69.0542C42.8011 69.0542 42.1469 70.2926 42.1469 73.322C42.1469 76.3959 42.8219 77.59 44.0888 77.59ZM44.0888 76.816C43.1957 76.816 42.9362 75.5666 42.9362 73.322C42.9362 71.2545 43.1646 69.8282 44.0681 69.8282C45.0026 69.8282 45.2519 71.0997 45.2519 73.322C45.2519 75.7435 44.9299 76.816 44.0888 76.816ZM50.067 77.4904L51.2404 70.9007L51.7078 77.4904H52.4659L51.7597 69.1537H50.9912L49.7451 76.0089L48.5716 69.1537H47.7928L46.9932 77.4904H47.7513L48.2705 70.9007L49.3921 77.4904H50.067ZM56.8968 77.4904L55.3806 69.1537H54.581L53.0233 77.4904H53.8333L54.1137 75.7656H55.8168L56.0867 77.4904H56.8968ZM54.7368 71.8847C54.8406 71.2545 54.8925 70.8454 54.9756 70.2372C55.0483 70.8454 55.1106 71.2656 55.2041 71.8737L55.7129 75.0912H54.2176L54.7368 71.8847ZM59.0119 77.4904V69.8945H60.1853V69.1537H57.0596V69.8945H58.2434V77.4904H59.0119ZM63.7959 77.4904V76.7607H62.0513V73.4326H63.7336V72.7029H62.0513V69.8834H63.7959V69.1537H61.2828V77.4904H63.7959ZM66.0045 77.4904V73.5432H66.233C67.6349 73.5432 68.2372 72.9572 68.2372 71.3208C68.2372 69.7176 67.6349 69.1537 66.1915 69.1537H65.236V77.4904H66.0045ZM66.0045 69.8503H66.1811C67.1053 69.8503 67.4584 70.182 67.4584 71.3098C67.4584 72.4818 67.1468 72.8245 66.2018 72.8245H66.0045V69.8503ZM70.1447 75.4892L70.1966 69.1537H69.4905V77.4904H70.1447L72.149 71.166L72.1074 77.4904H72.8239V69.1537H72.149L70.1447 75.4892ZM77.6806 77.4904L76.1644 69.1537H75.3648L73.8071 77.4904H74.6171L74.8975 75.7656H76.6006L76.8706 77.4904H77.6806ZM75.5206 71.8847C75.6244 71.2545 75.6764 70.8454 75.7594 70.2372C75.8321 70.8454 75.8945 71.2656 75.9879 71.8737L76.4968 75.0912H75.0014L75.5206 71.8847ZM78.7054 77.5568C79.453 77.5568 79.8061 77.1256 79.9308 75.5997L80.4499 69.8834H81.7584V77.4904H82.5269V69.1537H79.7957L79.2246 75.5223C79.1311 76.5616 78.9649 76.8492 78.6119 76.8492C78.4769 76.8492 78.3211 76.827 78.2173 76.7938V77.4572C78.3211 77.5236 78.4873 77.5568 78.7054 77.5568ZM85.2028 77.4904C86.5839 77.4904 87.1759 76.7718 87.1759 75.257C87.1759 73.6538 86.7501 72.8467 85.317 72.8467H84.9328V69.1537H84.1643V77.4904H85.2028ZM88.827 77.4904V69.1537H88.0585V77.4904H88.827ZM84.9328 73.51H85.2235C86.0232 73.51 86.3867 73.9523 86.3867 75.2238C86.3867 76.4401 86.0335 76.8049 85.0575 76.8049H84.9328V73.51Z" fill="white"/>
<path d="M96.8289 49.9355L100.303 61.2259V62.6806H97.5696V61.5895L97.1288 60.1349H93.9369L93.496 61.5895V62.6806H90.7803V61.2259L94.2367 49.9355H96.8289ZM94.7304 57.5892H96.3528L95.5416 54.9442L94.7304 57.5892Z" fill="#2B2A29"/>
<path d="M87.2341 62.6806H84.5184C84.1422 62.6806 83.7896 62.6144 83.4603 62.4822C83.1312 62.35 82.8431 62.1681 82.5964 61.9367C82.3494 61.7053 82.1554 61.4352 82.0143 61.1267C81.8732 60.8181 81.8027 60.4875 81.8027 60.1349V52.4813C81.8027 52.1286 81.8732 51.798 82.0143 51.4894C82.1554 51.1809 82.3494 50.9108 82.5964 50.6794C82.8431 50.448 83.1312 50.2661 83.4603 50.1339C83.7896 50.0017 84.1422 49.9355 84.5184 49.9355H87.2341C87.6104 49.9355 87.963 50.0017 88.2923 50.1339C88.6214 50.2661 88.9095 50.448 89.1564 50.6794C89.4032 50.9108 89.6001 51.1809 89.7471 51.4894C89.894 51.798 89.9674 52.1286 89.9674 52.4813V53.7541H87.2341V52.4813H84.5184V60.1349H87.2341V58.862H89.9674V60.1349C89.9674 60.4875 89.894 60.8181 89.7471 61.1267C89.6001 61.4352 89.4032 61.7053 89.1564 61.9367C88.9095 62.1681 88.6214 62.35 88.2923 62.4822C87.963 62.6144 87.6104 62.6806 87.2341 62.6806Z" fill="#2B2A29"/>
<path d="M80.9714 52.4813H76.8978V55.027H80.3014V57.5892H76.8978V60.1349H80.9714V62.6806H74.1821V49.9355H80.9714V52.4813Z" fill="#2B2A29"/>
<path d="M73.3688 62.6806H70.6355V52.4813H67.9199V60.1349C67.9199 60.4875 67.8493 60.8181 67.7082 61.1267C67.5672 61.4352 67.3732 61.7053 67.1262 61.9367C66.8794 62.1681 66.5914 62.35 66.2622 62.4822C65.933 62.6144 65.5803 62.6806 65.2041 62.6806H63.8462V60.1349H65.2041V52.4813C65.2041 52.1286 65.2746 51.798 65.4156 51.4894C65.5568 51.1809 65.7508 50.9108 65.9977 50.6794C66.2446 50.448 66.5326 50.2661 66.8617 50.1339C67.1909 50.0017 67.5436 49.9355 67.9199 49.9355H73.3688V62.6806Z" fill="#2B2A29"/>
<path d="M60.3972 62.6806H57.6815C57.3053 62.6806 56.9526 62.6144 56.6234 62.4822C56.2942 62.35 56.0061 62.1681 55.7593 61.9367C55.5124 61.7053 55.3185 61.4352 55.1774 61.1267C55.0363 60.8181 54.9658 60.4875 54.9658 60.1349V52.4813C54.9658 52.1286 55.0363 51.798 55.1774 51.4894C55.3185 51.1809 55.5124 50.9108 55.7593 50.6794C56.0061 50.448 56.2942 50.2661 56.6234 50.1339C56.9526 50.0017 57.3053 49.9355 57.6815 49.9355H60.3972C60.7735 49.9355 61.1261 50.0017 61.4553 50.1339C61.7845 50.2661 62.0725 50.448 62.3194 50.6794C62.5662 50.9108 62.7631 51.1809 62.9102 51.4894C63.0571 51.798 63.1305 52.1286 63.1305 52.4813V60.1349C63.1305 60.4875 63.0571 60.8181 62.9102 61.1267C62.7631 61.4352 62.5662 61.7053 62.3194 61.9367C62.0725 62.1681 61.7845 62.35 61.4553 62.4822C61.1261 62.6144 60.7735 62.6806 60.3972 62.6806ZM57.6815 60.1349H60.3972V52.4813H57.6815V60.1349Z" fill="#2B2A29"/>
<path d="M48.7036 62.6806H45.9878V49.9355H54.1526V52.4813H48.7036V62.6806Z" fill="#2B2A29"/>
<path d="M42.4407 62.6806H39.725C39.3488 62.6806 38.9961 62.6144 38.6669 62.4822C38.3378 62.35 38.0497 62.1681 37.8029 61.9367C37.556 61.7053 37.3619 61.4352 37.2209 61.1267C37.0798 60.8181 37.0093 60.4875 37.0093 60.1349V52.4813C37.0093 52.1286 37.0798 51.798 37.2209 51.4894C37.3619 51.1809 37.556 50.9108 37.8029 50.6794C38.0497 50.448 38.3378 50.2661 38.6669 50.1339C38.9961 50.0017 39.3488 49.9355 39.725 49.9355H42.4407C42.8169 49.9355 43.1696 50.0017 43.4988 50.1339C43.8279 50.2661 44.1161 50.448 44.363 50.6794C44.6098 50.9108 44.8067 51.1809 44.9538 51.4894C45.1006 51.798 45.1741 52.1286 45.1741 52.4813V60.1349C45.1741 60.4875 45.1006 60.8181 44.9538 61.1267C44.8067 61.4352 44.6098 61.7053 44.363 61.9367C44.1161 62.1681 43.8279 62.35 43.4988 62.4822C43.1696 62.6144 42.8169 62.6806 42.4407 62.6806ZM39.725 60.1349H42.4407V52.4813H39.725V60.1349Z" fill="#2B2A29"/>
<path d="M33.4632 49.9355H36.1965V62.6806H33.4632V57.5892H30.7474V62.6806H28.0317V49.9355H30.7474V55.027H33.4632V49.9355Z" fill="#2B2A29"/>
<path d="M27.2184 62.6806H24.5027V58.2008L23.0566 62.6806H20.4997L19.0536 58.2008V62.6806H16.3379V49.9355H19.2477L21.7694 57.8206L24.2911 49.9355H27.2184V62.6806Z" fill="#2B2A29"/>
</svg>
