<svg width="20" height="20" fill="none" xmlns="http://www.w3.org/2000/svg"><path d="M19.658 3.577A3.641 3.641 0 0016.423.342a60.41 60.41 0 00-12.846 0A3.642 3.642 0 00.342 3.577a60.402 60.402 0 000 12.845 3.642 3.642 0 003.235 3.235c4.278.456 8.568.456 12.846 0a3.641 3.641 0 003.235-3.235 60.408 60.408 0 000-12.845z" fill="url(#paint0_radial_1:168)"/><path d="M18.57 4.3a3.231 3.231 0 00-2.87-2.87 53.627 53.627 0 00-11.4 0A3.232 3.232 0 001.43 4.3a53.619 53.619 0 000 11.398A3.231 3.231 0 004.3 18.57c3.797.405 7.604.405 11.4 0a3.231 3.231 0 002.87-2.87 53.589 53.589 0 000-11.399z" fill="url(#paint1_linear_1:168)"/><path d="M.3 16.007l.042.414a3.642 3.642 0 003.235 3.235 60.4 60.4 0 0012.845 0 3.641 3.641 0 003.235-3.235c.015-.138.03-.276.043-.414H.3z" fill="url(#paint2_linear_1:168)"/><path d="M19.657 16.423c.246-2.299.36-4.6.34-6.902l-4.57-4.572c-.572-.652-1.406-1.059-2.386-1.094a86.13 86.13 0 00-6.055 0c-1.674.058-2.845 1.183-3.145 2.838-.053.292-.085.588-.127.882v4.85c.023.156.057.313.068.47.067 1.007.48 1.869 1.143 2.452l4.652 4.651a60.46 60.46 0 006.846-.34 3.641 3.641 0 003.235-3.235z" fill="url(#paint3_linear_1:168)"/><path d="M19.657 16.42a3.642 3.642 0 01-3.234 3.236c-2.28.243-4.564.357-6.846.34l-4.645-4.644c.538.471 1.24.758 2.055.789a82.41 82.41 0 006.054 0c1.823-.065 3.142-1.414 3.199-3.237a92.62 92.62 0 000-5.813c-.026-.84-.321-1.58-.81-2.14l4.568 4.568a60.566 60.566 0 01-.34 6.902z" fill="url(#paint4_linear_1:168)"/><path d="M12.36 7.835a3.203 3.203 0 10-4.526 4.525l7.412 7.411c.393-.034.785-.072 1.177-.114a3.642 3.642 0 003.235-3.235c.042-.392.08-.784.114-1.176L12.36 7.835z" fill="url(#paint5_linear_1:168)"/><path d="M19.961 12.154l-5.965-5.965a.76.76 0 10-1.066 1.067l6.925 6.925c.047-.676.082-1.351.106-2.027z" fill="url(#paint6_linear_1:168)"/><path d="M3.714 7.575c.042-.294.074-.59.127-.882.3-1.654 1.471-2.78 3.145-2.838a86.13 86.13 0 016.055 0c1.822.066 3.142 1.415 3.199 3.238a92.93 92.93 0 010 5.812c-.057 1.823-1.376 3.173-3.2 3.238a82.302 82.302 0 01-6.053 0c-1.823-.07-3.083-1.422-3.205-3.248-.01-.157-.045-.314-.068-.471v-4.85zm6.288 7.488c.922 0 1.846.028 2.767-.006 1.444-.054 2.333-.916 2.367-2.36a116.16 116.16 0 000-5.396c-.034-1.443-.923-2.325-2.367-2.356a130.635 130.635 0 00-5.5 0c-1.433.03-2.324.894-2.363 2.321a99.61 99.61 0 000 5.466c.039 1.427.93 2.272 2.363 2.325.91.033 1.822.006 2.733.006z" fill="url(#paint7_linear_1:168)"/><path d="M3.714 7.575c.042-.294.074-.59.127-.882.3-1.654 1.471-2.78 3.145-2.838a86.13 86.13 0 016.055 0c1.822.066 3.142 1.415 3.199 3.238a92.93 92.93 0 010 5.812c-.057 1.823-1.376 3.173-3.2 3.238a82.302 82.302 0 01-6.053 0c-1.823-.07-3.083-1.422-3.205-3.248-.01-.157-.045-.314-.068-.471v-4.85zm6.288 7.488c.922 0 1.846.028 2.767-.006 1.444-.054 2.333-.916 2.367-2.36a116.16 116.16 0 000-5.396c-.034-1.443-.923-2.325-2.367-2.356a130.635 130.635 0 00-5.5 0c-1.433.03-2.324.894-2.363 2.321a99.61 99.61 0 000 5.466c.039 1.427.93 2.272 2.363 2.325.91.033 1.822.006 2.733.006z" fill="#fff"/><path d="M10 6.796a3.203 3.203 0 100 6.407 3.203 3.203 0 000-6.407zm0 5.304a2.1 2.1 0 110-4.201 2.1 2.1 0 010 4.2zm4.153-5.45a.762.762 0 11-1.524 0 .762.762 0 011.524 0z" fill="#fff"/><defs><linearGradient id="paint1_linear_1:168" x1="7.671" y1="8.689" x2="-26.211" y2="-10.37" gradientUnits="userSpaceOnUse"><stop stop-color="#A1B5D8" stop-opacity="0"/><stop offset=".309" stop-color="#90A2BD" stop-opacity=".31"/><stop offset=".755" stop-color="#7C8B9C" stop-opacity=".757"/><stop offset="1" stop-color="#748290"/></linearGradient><linearGradient id="paint2_linear_1:168" x1="10" y1="17.654" x2="10" y2="20.771" gradientUnits="userSpaceOnUse"><stop stop-color="#FAE100" stop-opacity="0"/><stop offset=".307" stop-color="#FCA800" stop-opacity=".306"/><stop offset=".627" stop-color="#FE7300" stop-opacity=".627"/><stop offset=".869" stop-color="#FF5200" stop-opacity=".867"/><stop offset="1" stop-color="#FF4500"/></linearGradient><linearGradient id="paint3_linear_1:168" x1="8.862" y1="8.834" x2="3.913" y2="3.885" gradientUnits="userSpaceOnUse"><stop stop-color="#833AB4" stop-opacity="0"/><stop offset="1" stop-color="#833AB4"/></linearGradient><linearGradient id="paint4_linear_1:168" x1="13.707" y1="18.291" x2="11.237" y2="6.645" gradientUnits="userSpaceOnUse"><stop stop-color="#833AB4" stop-opacity="0"/><stop offset="1" stop-color="#833AB4"/></linearGradient><linearGradient id="paint5_linear_1:168" x1="14.647" y1="14.647" x2="4.725" y2="4.724" gradientUnits="userSpaceOnUse"><stop stop-color="#833AB4" stop-opacity="0"/><stop offset="1" stop-color="#833AB4"/></linearGradient><linearGradient id="paint6_linear_1:168" x1="15.383" y1="8.643" x2="12.102" y2="5.361" gradientUnits="userSpaceOnUse"><stop stop-color="#833AB4" stop-opacity="0"/><stop offset="1" stop-color="#833AB4"/></linearGradient><linearGradient id="paint7_linear_1:168" x1="13.971" y1="6.057" x2="5.881" y2="14.148" gradientUnits="userSpaceOnUse"><stop stop-color="#833AB4"/><stop offset=".092" stop-color="#9C3495"/><stop offset=".293" stop-color="#DC2546"/><stop offset=".392" stop-color="#FD1D1D"/><stop offset=".559" stop-color="#FC6831"/><stop offset=".689" stop-color="#FC9B40"/><stop offset=".752" stop-color="#FCAF45"/><stop offset=".781" stop-color="#FDB750"/><stop offset=".866" stop-color="#FECB6A"/><stop offset=".942" stop-color="#FFD87A"/><stop offset="1" stop-color="#FFDC80"/></linearGradient><radialGradient id="paint0_radial_1:168" cx="0" cy="0" r="1" gradientUnits="userSpaceOnUse" gradientTransform="matrix(22.0565 0 0 22.0556 4.1 17.478)"><stop stop-color="#FAE100"/><stop offset=".054" stop-color="#FADC04"/><stop offset=".117" stop-color="#FBCE0E"/><stop offset=".183" stop-color="#FCB720"/><stop offset=".251" stop-color="#FE9838"/><stop offset=".305" stop-color="#FF7950"/><stop offset=".492" stop-color="#FF1C74"/><stop offset="1" stop-color="#6C1CD1"/></radialGradient></defs></svg>