<svg width="138" height="140" viewBox="0 0 138 140" fill="none" xmlns="http://www.w3.org/2000/svg">
<path fill-rule="evenodd" clip-rule="evenodd" d="M85.3128 0.0179911C82.522 0.373625 80.4208 1.1222 77.5674 2.77739C70.4792 6.889 68.9088 7.29767 60.4772 7.22432C57.1885 7.19597 55.8 7.43145 53.5639 8.3984C50.1729 9.86413 49.2114 11.0802 45.95 18.0247C43.3994 23.4561 42.1087 25.0041 37.5005 28.1575C30.0288 33.2705 28.4218 36.5021 29.7737 43.6956C31.6421 53.6407 31.6952 52.4692 28.9065 62.7912C27.6185 67.5586 27.6393 69.897 29.0018 73.3001C30.2046 76.3057 31.5434 77.8526 34.5827 79.75C36.8975 81.1953 42.4652 83.1744 44.1039 83.1348C44.8849 83.1157 44.9023 83.2274 44.2576 84.1303C43.8579 84.6898 43.0669 85.6255 42.4996 86.2101L41.4677 87.2729L40.1467 86.1472C38.3669 84.6312 34.8446 83.3032 32.3306 83.2003C29.01 83.0646 26.3181 84.3015 21.1519 88.3378C13.0684 94.6536 8.21806 96.1683 2.83733 94.0583C0.109004 92.9883 -0.852485 93.0937 0.842877 94.277C2.4463 95.3961 6.04693 96.1214 8.70268 95.86C12.1078 95.5253 16.1807 93.6034 20.1229 90.472C26.3077 85.5585 27.5289 84.8278 30.2203 84.4283C31.6269 84.2192 33.609 84.2331 34.6253 84.4585C36.5551 84.8863 40.3199 87.1126 40.4724 87.9161C40.521 88.1712 36.5924 92.6159 31.7424 97.7934C22.2441 107.932 21.6031 108.671 21.5711 109.52C21.5421 110.3 22.8317 110.712 29.5758 112.074L35.4691 113.263L37.3328 121.842C38.3577 126.56 39.4496 130.517 39.759 130.635C40.0687 130.754 40.5823 130.696 40.9009 130.506C41.2193 130.317 45.4683 126.185 50.3434 121.324C60.8564 110.841 61.3567 110.364 61.7048 110.498C61.8529 110.554 62.2623 116.877 62.6152 124.548C62.9682 132.219 63.3492 138.786 63.4631 139.141C63.5764 139.496 63.9155 139.88 64.2168 139.996C64.5178 140.111 67.9452 137.957 71.8328 135.21C77.9785 130.867 79.0369 130.267 79.9389 130.612C80.5091 130.831 83.864 132.722 87.3933 134.815C90.9228 136.907 94.1249 138.62 94.5097 138.622C94.8942 138.623 95.3362 138.298 95.4918 137.899C95.6474 137.501 95.5897 133.373 95.3632 128.726C94.5528 112.072 94.6743 111.201 98.0317 109.559C99.8477 108.671 100.123 108.667 102.299 109.5C104.265 110.253 105.154 110.943 108.047 113.965C111.281 117.343 111.644 117.605 114.666 118.75C117.365 119.771 118.26 119.917 120.397 119.682C123.196 119.374 127.188 117.82 127.548 116.898C127.894 116.012 127.608 116.057 125.058 117.295C121.642 118.954 118.02 119.152 114.785 117.858C112.553 116.965 111.77 116.364 108.961 113.385C103.747 107.854 99.5205 106.502 96.2669 109.323C94.0628 111.234 93.7079 113.256 94.0461 121.969C94.218 126.395 94.4584 131.665 94.5804 133.68C94.7024 135.696 94.6664 137.405 94.5005 137.477C94.334 137.55 90.9028 135.691 86.8753 133.347C80.9507 129.898 79.4013 129.135 78.7594 129.347C78.3228 129.491 75.0063 131.704 71.3896 134.264C67.7723 136.824 64.6987 138.769 64.5587 138.587C64.4192 138.405 64.0312 132.18 63.6962 124.755C63.3618 117.329 62.892 110.777 62.6525 110.194C62.2192 109.139 62.2121 109.136 61.1636 109.624C60.584 109.893 55.821 114.384 50.5791 119.602C45.3368 124.821 40.8318 129.189 40.5673 129.31C40.2937 129.435 39.333 126.049 38.3329 121.434C37.3687 116.982 36.5033 113.135 36.41 112.886C36.2724 112.519 29.3677 110.862 23.744 109.845C22.9999 109.711 22.6319 109.462 22.7459 109.17C23.0316 108.438 41.2553 89.0827 41.5519 89.1962C41.6984 89.2523 42.5222 91.1239 43.3823 93.3551C45.9075 99.9051 47.9427 101.259 56.7908 102.276C63.2475 103.017 65.7545 103.978 70.823 107.656C77.8198 112.732 80.6342 113.146 86.7654 110.003C95.4393 105.556 97.2614 104.943 101.689 104.982C112.703 105.08 114.858 104.063 118.352 97.1217C123.291 87.3071 122.392 88.3853 130.835 82.146C136.622 77.8691 137.457 74.7595 135.408 65.1087C134.338 60.0694 134.434 56.961 135.769 53.4901C137.218 49.7197 138.183 45.2696 137.971 43.326C137.619 40.0936 135.992 37.718 131.289 33.568C126.504 29.3464 125.583 27.8649 123.112 20.4141C120.492 12.5142 118.079 10.7457 108.579 9.76095C102.497 9.13067 100.329 8.30249 95.4028 4.72839C91.2914 1.74575 87.1024 -0.209794 85.3128 0.0179911ZM94.3393 5.26898C97.0032 7.17173 99.5636 8.67887 101.188 9.30062C102.813 9.92237 105.731 10.5121 108.995 10.8779C118.435 11.9359 119.685 13.0045 122.819 22.6938C124.624 28.2733 125.864 30.1085 130.847 34.5744C137.606 40.6327 138.116 42.4589 135.442 51.0461C133.316 57.8747 133.179 59.7245 134.377 65.3844C135.639 71.3484 135.732 73.6003 134.815 75.9511C133.853 78.4149 132.486 79.7843 127.465 83.3157C125.186 84.9174 122.756 86.9429 122.063 87.8166C121.371 88.69 119.71 91.7829 118.372 94.689C116.318 99.1514 115.674 100.208 114.23 101.484C112.071 103.391 109.116 104.087 103.769 103.948C97.6448 103.788 95.2191 104.307 91.0502 106.664C84.8014 110.197 83.1711 110.872 80.6703 110.962C77.7828 111.066 75.8145 110.16 70.8805 106.455C66.3461 103.051 63.435 101.989 56.435 101.187C47.9285 100.212 46.6947 99.3177 43.8958 92.1007L42.3128 88.018L46.4232 83.1875L49.2078 83.1059C52.2358 83.0168 52.9767 83.2651 68.6833 89.6307C74.2258 91.8774 75.4644 92.2445 78.5519 92.5578C85.3208 93.2449 91.0875 92.3998 97.4664 89.7865C104.099 87.0695 109.208 83.0402 113.306 77.2935C116.247 73.1708 119.717 64.5099 120.011 60.5646C120.302 56.6475 119.679 52.6675 118.393 50.2306C117.765 49.0425 117.367 47.7771 117.507 47.4181C118.849 43.9809 115.227 36.4829 109.29 30.4092C105.05 26.0711 102.457 24.4279 96.0054 21.9899C91.1026 20.1366 89.9123 19.8374 86.4123 19.5759C80.3296 19.1219 76.3497 19.7454 70.8594 22.0121C64.8794 24.4814 60.8412 26.9786 57.1841 30.4692C53.271 34.2043 51.3687 36.9831 48.8577 42.6339C45.5317 50.1177 44.6243 57.3548 46.1774 64.0152C46.5603 65.6565 47.2278 68.4975 47.6612 70.328C48.6919 74.6854 47.9893 79.2849 45.9502 81.5267C44.439 83.1883 37.8644 81.1219 33.2588 77.5375C31.0738 75.8375 29.1903 72.2376 28.978 69.3566C28.8162 67.1585 29.4345 63.8304 30.5264 61.0214C32.6393 55.5877 32.8094 51.9657 31.2449 45.7082C30.1154 41.1902 30.053 38.7937 31.0001 36.3369C32.0005 33.7424 33.1667 32.5319 37.9968 29.0757C40.1002 27.5706 42.3638 25.7821 43.027 25.101C43.7261 24.3834 45.4671 21.3526 47.1707 17.8863C51.5105 9.05613 52.7802 8.23526 62.072 8.25368C68.708 8.26713 70.8026 7.7588 75.7914 4.92557C84.9448 -0.272308 86.6251 -0.241168 94.3393 5.26898ZM103.896 27.0446C109.887 31.2092 115.688 39.0998 116.476 44.1553C117.001 47.5276 116.842 47.7991 114.792 47.0269C112.398 46.1246 109.612 46.4024 107.183 47.7849C106.038 48.4366 99.62 52.5797 92.9215 56.9917C86.223 61.4037 80.043 65.328 79.188 65.7119C77.6624 66.3972 77.6185 66.3899 76.8421 65.3205C76.0813 64.2724 72.8416 55.1311 69.7906 45.4216C67.7024 38.7769 67.0721 37.6072 65.1916 36.8875C61.6103 35.5169 59.0199 38.6162 60.1563 42.9121C60.6814 44.8978 63.9219 55.0667 64.2496 55.7574C64.3219 55.9096 65.0168 57.9082 65.7945 60.1988C67.6669 65.7168 70.3619 71.3503 71.8858 72.9327C73.6718 74.7876 76.6957 75.5435 79.2076 74.7632C81.8506 73.942 87.0306 70.9423 98.9894 63.3072C113.087 54.3067 114.784 53.1068 115.766 51.439C116.879 49.5488 117.565 49.8494 118.296 52.5478C119.728 57.825 119.358 61.6021 116.753 68.3134C114.55 73.9859 112.394 77.3553 108.572 81.0998C100.222 89.2798 89.3419 92.953 78.0184 91.4151C73.7259 90.8322 68.1307 88.8331 61.5979 85.548C56.7725 83.1215 53.9009 82.2997 49.9044 82.2029L47.0638 82.1341L48.0168 79.6927C49.2855 76.4427 49.4649 73.5444 48.6209 69.932C46.5354 61.0037 46.564 61.2162 46.6657 55.3694C46.8249 46.2384 52.301 35.5257 59.9739 29.3355C63.3426 26.6178 69.8713 23.1237 74.0727 21.7892C83.4313 18.8169 94.9938 20.8544 103.896 27.0446ZM115.46 48.4532C116.643 49.5109 114.375 52.1315 109.526 55.3091C102.936 59.6277 88.4764 68.7489 85.0285 70.7623C80.869 73.1917 76.6645 74.5505 75.1277 73.9623C71.6677 72.6382 68.883 66.8281 63.0085 48.6787C60.9918 42.4478 60.5867 40.451 61.0806 39.1797C61.8126 37.2952 64.3011 37.025 66.1015 38.634C66.4096 38.9095 68.1775 43.8113 70.0304 49.5275C75.7145 67.0632 76.3791 68.252 79.6304 66.6988C80.4527 66.306 86.9564 62.1541 94.083 57.4729C101.21 52.7913 107.896 48.587 108.941 48.1301C111.315 47.0928 114.092 47.2308 115.46 48.4532Z" fill="black"/>
</svg>
