<svg width="139" height="140" viewBox="0 0 139 140" fill="none" xmlns="http://www.w3.org/2000/svg">
<path fill-rule="evenodd" clip-rule="evenodd" d="M55.2384 0.807135C54.5258 2.84896 53.9138 3.6604 52.2345 4.7904C49.1977 6.83403 45.3582 7.08265 42.1882 5.44129C40.9816 4.81649 40.5234 5.24196 41.147 6.40856C41.4318 6.94131 41.6674 11.6034 41.8658 20.6404C42.1459 33.3752 42.4513 36.7982 43.3073 36.7982C43.9468 36.7982 43.6587 37.4723 42.9186 37.7071C41.8462 38.0481 40.9284 39.5746 41.4311 40.1813C41.7351 40.5481 41.5741 40.9065 40.7504 41.6973C39.0903 43.2897 39.4294 44.4088 41.5723 44.4088C42.1397 44.4088 41.9106 44.6861 40.6552 45.5189C39.7348 46.1292 38.8789 46.9526 38.7537 47.3483C38.4504 48.3047 39.1746 49.1165 40.3486 49.1361C41.2476 49.1513 41.2259 49.1912 39.9538 49.8638C39.2133 50.2552 38.4334 50.9021 38.2202 51.3012C37.8923 51.9144 37.9683 52.0782 38.7128 52.3616C39.1974 52.546 39.8959 52.6359 40.2658 52.5616C42.5773 52.0966 51.9993 51.1968 52.2215 51.4197C52.5501 51.7487 51.439 62.0274 50.6685 65.7911C50.2042 68.058 48.1648 72.6675 47.3013 73.4017C47.184 73.5014 46.5033 74.4799 45.7882 75.5762C43.8295 78.5791 39.6874 82.599 39.1286 82.0394C39.0418 81.9524 38.72 81.2805 38.4135 80.5466L37.8569 79.2122L39.2166 78.3493C40.4272 77.581 42.7268 75.2833 44.4382 73.1324C45.8309 71.3827 46.2547 69.7776 45.3246 69.7776C44.6536 69.7776 40.4681 74.2588 38.9549 76.5975C38.2865 77.6303 37.7016 78.4755 37.6553 78.4755C37.609 78.4755 37.2503 77.9308 36.858 77.2654C35.9608 75.7425 36.2359 75.1779 38.9473 72.9791C40.797 71.4791 42.5664 69.3561 42.5664 68.6367C42.5664 68.4668 42.2508 68.328 41.8654 68.328C41.4412 68.328 40.3617 69.2952 39.1348 70.7742C38.0187 72.1199 36.7701 73.6202 36.3604 74.1088L35.6152 74.997L34.7499 73.5652C34.2736 72.7776 33.8835 72.0365 33.8824 71.9184C33.8813 71.7999 34.7104 71.0025 35.7245 70.1462C38.6415 67.6829 40.535 64.7038 39.1833 64.7038C38.7052 64.7038 35.5464 67.8568 33.9645 69.9128L33.1636 70.9536L32.4644 70.094L31.7652 69.234L33.2175 66.5474C34.0163 65.0695 35.085 63.2024 35.592 62.3978C37.0849 60.0295 38.2163 57.3541 38.2199 56.1825C38.2221 55.5229 37.6973 54.3026 36.8949 53.102C33.7293 48.3638 25.6645 38.9636 20.1924 33.6336C17.5577 31.067 16.7347 30.4977 14.3063 29.5597C12.7537 28.9603 11.2296 28.5671 10.9198 28.6863C10.1019 29.0005 10.2261 30.2643 11.3064 32.6272C13.1366 36.6307 11.7696 40.4535 7.14041 44.2769C5.84585 45.346 4.65553 46.2209 4.49521 46.2209C4.33488 46.2209 4.20387 46.3738 4.20387 46.5605C4.20387 46.7475 4.73335 46.8189 5.38008 46.7196C6.26314 46.584 7.30146 46.9033 9.54459 47.9989C16.5316 51.4124 20.5709 54.9463 26.448 62.786C30.8184 68.6157 30.9647 68.8694 30.8858 70.4738C30.8141 71.9325 30.8995 72.1467 31.5922 72.2456C32.2744 72.3427 32.3533 72.525 32.1789 73.6018C31.9071 75.2779 32.5842 76.0676 34.0847 75.8237L35.2272 75.6381L35.1871 77.6912C35.1487 79.6667 35.1824 79.7435 36.0774 79.7348C36.9264 79.7262 37.0049 79.8512 36.9821 81.1722C36.9604 82.4029 37.1052 82.691 37.9521 83.1038C38.9549 83.5923 39.1199 84.136 38.7193 85.6331C38.5224 86.3688 38.2792 86.4485 36.2286 86.4485C30.3758 86.4485 0.735676 89.4141 0.0856845 90.065C-0.314951 90.4662 0.644114 90.6851 3.9223 90.941C6.70323 91.1577 8.2627 91.8387 9.17688 93.2347C9.71251 94.0534 9.81348 95.0638 9.81348 99.6153C9.81348 104.822 9.78308 105.044 8.99918 105.565C8.55114 105.863 8.18488 106.25 8.18488 106.425C8.18488 106.964 9.34734 106.777 9.79285 106.167C10.5087 105.187 21.8431 102.762 34.1411 100.959C39.0805 100.235 39.0975 100.235 39.859 100.951C40.8745 101.907 41.3595 101.857 41.9458 100.737C42.3793 99.9081 42.4861 99.8679 42.9063 100.375C43.5581 101.161 44.5526 101.088 45.1461 100.211C45.5851 99.5616 46.0828 99.4674 49.4427 99.3953C53.0546 99.3181 53.3818 99.375 56.0476 100.541C57.5901 101.216 58.8524 101.888 58.8524 102.034C58.8524 102.181 56.3686 103.65 53.3333 105.298C42.9363 110.943 26.1697 121.235 16.6619 127.808C8.18488 133.668 14.0886 130.186 17.5946 127.811C29.8036 119.538 46.8366 109.223 56.2499 104.4L59.619 102.674L61.6713 104.27C62.8001 105.147 64.2029 106.549 64.7885 107.383C65.7251 108.717 65.8018 109.013 65.4265 109.837C64.1674 112.605 60.852 115.509 47.9951 125.107C39.2289 131.651 36.052 134.415 36.052 135.496C36.052 137.047 37.373 136.339 42.0236 132.299C44.0141 130.57 48.4927 126.771 51.9761 123.857C62.7969 114.806 70.0717 108.489 70.0717 108.144C70.0717 107.961 70.5523 108.061 71.1393 108.365C73.508 109.592 74.9068 108.713 73.8768 106.645C73.5753 106.04 73.3289 105.514 73.3289 105.476C73.3289 105.437 74.2383 105.714 75.3501 106.09C77.3106 106.753 78.7575 106.704 78.7575 105.976C78.7575 105.781 78.4969 105.115 78.1781 104.498C77.6265 103.43 77.6309 103.39 78.2686 103.669C78.637 103.83 79.5494 104.034 80.2956 104.122C81.5949 104.276 81.6528 104.237 81.6528 103.208C81.6528 102.617 81.2456 101.532 80.748 100.798C79.5881 99.0865 79.6058 99.022 81.0195 99.8276C83.9234 101.482 85.0732 100.993 84.851 98.1986C84.7504 96.9327 84.8079 96.679 85.0855 97.1618C85.2875 97.5133 85.7196 98.0823 86.0453 98.4258C86.4025 98.8028 86.7985 100.248 87.0431 102.069C87.4969 105.446 90.3521 116.802 93.3664 127.22C95.8064 135.653 97.2577 139.807 97.828 139.992C98.0836 140.075 98.4205 139.492 98.6518 138.569C100.027 133.073 101.976 132.526 110.723 135.181C115.32 136.577 117.378 136.791 117.716 135.909C117.833 135.606 117.761 134.7 117.558 133.897C117.019 131.773 116.357 129.961 115.562 127.81C111.871 117.83 104.149 100.911 101.576 97.1661C97.8863 91.7955 100.052 102.714 104.808 113.463C108.08 120.856 111.443 126.466 114.577 129.757C116.342 131.61 117.12 133.234 117.12 135.066C117.12 136.449 116.516 136.419 111.329 134.787C108.551 133.912 106.18 133.416 104.198 133.293C101.286 133.114 101.209 133.131 100.159 134.182C99.5714 134.771 98.8848 135.973 98.6344 136.854C98.3836 137.734 98.0615 138.591 97.9182 138.758C97.4242 139.334 93.1178 125.107 89.5443 111.092C87.7611 104.098 86.945 98.4081 87.726 98.4081C87.9381 98.4081 88.8725 97.8264 89.8023 97.1157C91.2402 96.0169 91.9734 95.7516 94.7062 95.3428C98.2537 94.8122 100.053 93.9729 100.753 92.5222C101.007 91.9956 101.496 91.4759 101.84 91.3664C102.85 91.0453 103.449 89.8142 103.001 88.9771C102.736 88.4809 102.733 88.0449 102.993 87.5597C103.664 86.3028 103.397 85.2935 102.057 84.0283C101.336 83.3477 100.807 82.7454 100.881 82.6903C100.955 82.6349 101.544 82.2235 102.191 81.7763C102.838 81.3291 103.367 80.6503 103.367 80.268C103.367 79.4467 101.175 77.9246 99.491 77.577C98.4017 77.352 98.3452 77.2646 98.5863 76.1847C99.0886 73.9348 98.8765 68.5842 98.2352 67.3313C97.5182 65.9302 97.747 65.8393 99.0046 67.0255C99.5131 67.5049 100.499 68.2178 101.196 68.6095C101.893 69.0017 103.847 70.1273 105.539 71.1116C111.835 74.7742 120.773 78.9705 124.266 79.9041C126.544 80.5126 127.108 80.065 127.343 77.4618C127.593 74.7049 128.063 73.9957 130.692 72.4076C134.134 70.3281 136.942 67.9887 138.105 66.2303C138.696 65.337 139.091 64.4625 138.982 64.2871C138.595 63.6594 136.268 62.9327 129.909 61.4541C121.34 59.4612 117.547 58.437 111.691 56.5347C104.57 54.2215 102.624 53.759 102.042 54.2428C101.657 54.5629 101.558 54.4306 101.558 53.5941C101.558 52.2634 100.643 50.9322 99.7277 50.9322C99.1505 50.9322 99.0245 50.6767 99.0245 49.504C99.0245 47.1798 97.8223 47.1447 96.413 49.4279C95.7279 50.5379 95.5773 50.6343 95.4774 50.0262C94.9639 46.8997 94.0403 46.2209 92.5141 47.8477L91.668 48.7494L91.2543 47.9383C90.9488 47.3389 90.5464 47.14 89.7144 47.1773C88.6359 47.2251 88.5961 47.1766 88.7806 46.0364C89.0343 44.4704 88.0608 41.6045 86.7434 40.0392C84.9842 37.9488 84.8268 38.5932 84.8886 47.6361C84.919 52.0401 84.8391 55.6436 84.7113 55.6436C84.5835 55.6436 84.0186 55.3156 83.4566 54.9144C82.8941 54.5136 81.1588 53.6046 79.6004 52.895C78.042 52.1851 76.2086 51.3309 75.5264 50.9964C74.8438 50.6622 72.7541 48.9455 70.8823 47.1813C67.792 44.2689 67.3678 43.987 66.2698 44.1153C65.213 44.2388 65.1033 44.1772 65.3983 43.6253C65.6317 43.1886 65.4544 42.022 64.8225 39.8392C63.9612 36.8616 63.9441 36.6463 64.5247 36.0041C65.1149 35.3507 65.171 35.408 65.9347 37.4418C68.206 43.4926 69.5049 43.9779 67.5285 38.0373C66.8955 36.1346 66.4352 34.5273 66.5054 34.4657C66.576 34.4041 67.1463 34.0924 67.7732 33.7735C69.2172 33.0385 69.3974 33.2328 70.9895 37.2465C71.6373 38.8795 72.339 40.273 72.5489 40.3433C73.0212 40.5009 72.6752 39.2379 71.4292 36.2546C69.9511 32.7164 69.9421 32.6247 71.0119 32.1369C72.2703 31.5624 72.49 31.7788 74.6288 35.699C75.6056 37.49 76.5032 38.9592 76.6233 38.964C76.7435 38.9687 76.3023 37.3828 75.6433 35.4391C74.2246 31.2566 74.1772 30.7615 75.1645 30.4477C76.2596 30.0997 77.0334 30.9797 78.7803 34.5607C79.6236 36.2897 80.3857 37.4962 80.4737 37.2418C80.5616 36.9874 80.1509 35.7642 79.5606 34.5237C77.9088 31.0518 77.4847 29.5271 78.0699 29.1651C78.84 28.6885 79.4169 29.4336 81.503 33.5988C84.5213 39.625 82.9709 39.5565 98.4353 34.3476C112.223 29.7033 115.455 28.7766 120.276 28.0847C121.912 27.8499 123.433 27.4382 123.655 27.1696C123.965 26.7953 123.755 26.1871 122.753 24.5617C120.054 20.1834 119.171 16.136 120.031 12.0817C120.412 10.2817 120.771 9.58147 121.794 8.64319C122.769 7.74839 122.977 7.36424 122.657 7.04423C122.338 6.72422 121.948 6.93551 121.036 7.92199C120.375 8.63594 118.45 9.98411 116.758 10.9173C111.215 13.9743 90.2228 23.7978 82.951 26.7369C79.519 28.1242 79.3214 28.1619 78.3876 27.6096C77.2816 26.9555 76.948 27.1251 76.948 28.342C76.948 29.3916 76.3389 29.422 75.2788 28.4247C74.2915 27.4958 73.6908 27.7876 73.6908 29.1962C73.6908 29.8508 73.4367 30.3853 73.0198 30.6089C72.4838 30.896 72.1422 30.7528 71.3235 29.8968C69.62 28.1163 69.1643 28.408 69.3363 31.1703L69.4256 32.6094L68.3562 31.4628C67.2679 30.2962 65.7171 29.6529 65.0255 30.0809C64.8153 30.211 64.643 31.1931 64.643 32.2633V34.2091L62.743 34.4284C61.6981 34.5491 59.1611 34.6016 57.1055 34.5451L53.368 34.4425L53.5797 33.0925C54.0477 30.1077 54.8841 21.7309 55.381 15.0535C56.3284 2.32129 56.4106 0.293962 55.9886 0.0330257C55.7595 -0.108677 55.4447 0.216042 55.2384 0.807135ZM55.4472 6.44625C54.9047 16.0614 53.3698 32.3427 52.8509 33.9895C52.7412 34.3385 52.3887 34.6237 52.0677 34.6237C51.7467 34.6237 49.7116 35.0481 47.5449 35.5671C45.3785 36.0857 43.5269 36.4311 43.4307 36.3347C42.9026 35.8063 42.5255 30.1679 42.2617 18.8588C42.0985 11.8824 41.9917 6.13422 42.0236 6.08493C42.0554 6.03564 42.8592 6.2607 43.8092 6.5847C46.0929 7.36388 49.108 7.08373 51.4991 5.87038C53.2153 4.99951 55.2333 3.0925 55.2333 2.34122C55.2333 2.15712 55.3379 2.00672 55.4657 2.00672C55.5934 2.00672 55.5851 4.00469 55.4472 6.44625ZM119.811 10.614C119.656 10.963 119.458 12.6178 119.371 14.2914C119.172 18.1268 119.937 21.1449 121.868 24.1366C122.64 25.3333 123.273 26.4586 123.273 26.6373C123.273 26.9544 121.105 27.4686 117.844 27.9253C114.989 28.325 108.559 30.2628 97.2696 34.1265C91.229 36.194 85.9063 37.8854 85.442 37.8854C84.4182 37.8854 83.5014 36.6732 82.0147 33.3553C81.4165 32.0198 80.5837 30.4448 80.1646 29.8555C79.7455 29.2658 79.4607 28.7472 79.5324 28.7026C79.6037 28.6581 81.0466 28.0728 82.7385 27.4016C88.2519 25.2148 103.368 18.234 111.51 14.1141C115.89 11.8984 119.612 10.062 119.783 10.0327C119.953 10.0037 119.966 10.265 119.811 10.614ZM78.1911 28.5008C77.8755 29.0125 77.3099 28.8791 77.3099 28.2928C77.3099 27.9695 77.5223 27.8423 77.8506 27.9684C78.1481 28.0829 78.3015 28.3221 78.1911 28.5008ZM75.091 28.9491C75.534 29.4833 75.2864 29.9124 74.5351 29.9124C74.2698 29.9124 74.0527 29.5862 74.0527 29.1876C74.0527 28.3515 74.5087 28.2467 75.091 28.9491ZM14.1079 30.003C15.9406 30.6807 16.979 31.461 20.2557 34.6237C26.655 40.8003 36.2612 52.2869 37.4689 55.2069C37.8989 56.2463 37.8439 56.5525 36.8403 58.7001C35.5801 61.3965 31.6183 68.3116 31.3472 68.2877C31.2477 68.279 29.3748 65.828 27.1852 62.8414C23.2024 57.4089 20.3332 54.3454 16.7752 51.7281C13.9516 49.6507 9.98973 47.3799 7.9073 46.6456L6.06409 45.9955L8.35281 43.9453C11.3024 41.3037 12.5278 38.9415 12.5278 35.8976C12.5278 34.4204 12.2929 33.2288 11.8185 32.2967C10.8623 30.4183 10.7327 29.1876 11.4913 29.1876C11.7175 29.1876 12.8948 29.5543 14.1079 30.003ZM71.076 31.5867C70.0923 32.114 69.7235 31.7157 69.7152 30.1164L69.7097 29.052L70.8024 30.1001L71.8946 31.1482L71.076 31.5867ZM77.1289 29.9124C77.252 30.1117 77.1799 30.2748 76.9693 30.2748C76.7587 30.2748 76.5861 30.1117 76.5861 29.9124C76.5861 29.713 76.6577 29.55 76.7457 29.55C76.8336 29.55 77.0059 29.713 77.1289 29.9124ZM67.4333 31.4972L68.7655 32.7196L67.6269 33.3093C65.6361 34.3403 65.0049 33.9659 65.0049 31.7552C65.0049 29.8961 65.6176 29.8312 67.4333 31.4972ZM74.2217 32.8117L74.4671 34.0801L73.7089 32.8805C73.2923 32.2206 73.0545 31.5135 73.1808 31.3087C73.5192 30.7601 73.9434 31.3725 74.2217 32.8117ZM64.3716 35.2304C63.3531 35.9418 63.3445 36.8895 64.3256 40.1244C65.3147 43.3861 65.048 44.0145 62.0322 45.5236C59.4952 46.7931 55.9571 49.3166 55.9571 49.8566C55.9571 50.585 56.9611 50.1436 59.8976 48.1235C61.5639 46.9776 63.3539 45.7552 63.8754 45.4073C64.3973 45.0597 65.4808 44.7741 66.2839 44.773C67.5821 44.7716 67.9635 44.997 69.7221 46.8051C72.8233 49.9936 74.905 51.5045 77.6396 52.5508C79.0315 53.0835 81.1494 54.153 82.3459 54.9274L84.522 56.3358L83.8138 57.9391C82.6911 60.4803 82.2691 64.6422 82.5036 70.8648C82.7421 77.1889 83.3049 80.9747 84.049 81.2606C84.7757 81.5396 84.6414 82.1974 83.7226 82.8577C81.8124 84.2309 75.5662 87.8351 74.3241 88.2812C72.3683 88.9836 72.6532 89.3061 75.0479 89.1006C78.2606 88.8248 79.65 89.4714 81.8102 92.2471C83.0219 93.8044 83.3368 94.3839 82.7385 93.9569C79.0069 91.2925 72.7675 90.0277 56.8619 88.7114L53.6047 88.4418L52.7806 83.5554C51.7474 77.4292 50.7141 73.9171 49.6233 72.8248L48.7757 71.976L49.8466 69.9961C50.5509 68.694 51.092 66.9222 51.4271 64.8198C51.9131 61.7719 53.0604 52.3405 53.0615 51.3852C53.0618 50.7593 49.1011 50.8025 44.7379 51.4758C40.3932 52.1463 38.4736 52.1749 38.6752 51.5664C38.9191 50.83 42.5331 49.2003 45.2782 48.5889C49.3436 47.6832 50.5607 47.2907 50.3522 46.9533C50.2451 46.7801 48.7345 47.0156 46.9955 47.4774C42.8998 48.5642 40.9632 48.8723 40.0483 48.5813C37.6452 47.8177 41.5719 44.9408 46.5569 43.8137C47.9451 43.4999 49.0808 43.0976 49.0808 42.9197C49.0808 42.4554 48.3907 42.5178 46.1609 43.1842C44.0441 43.817 40.6364 44.0431 40.1735 43.5818C40.0171 43.426 40.379 42.808 40.9773 42.2086C41.8274 41.3577 42.8263 40.9304 45.5402 40.2574C49.4869 39.2789 50.7775 38.7146 50.2578 38.1942C49.8492 37.785 45.6365 38.6762 44.0177 39.5145C42.5972 40.2498 41.7594 40.2164 41.9106 39.4304C42.0807 38.5461 44.368 37.3751 48.176 36.2223C50.9591 35.3797 52.355 35.2014 57.7667 34.9948C61.2501 34.8618 64.3444 34.7324 64.643 34.7074C64.9836 34.6788 64.8822 34.8738 64.3716 35.2304ZM47.0903 39.3351C46.6922 39.5065 46.1222 39.6464 45.8236 39.6464C45.4816 39.6464 45.5482 39.5315 46.0046 39.3351C46.4027 39.1636 46.9727 39.0238 47.2713 39.0238C47.6133 39.0238 47.5467 39.1386 47.0903 39.3351ZM87.1636 41.7154C88.4987 44.1341 88.4647 46.1281 87.0149 50.4205C86.3812 52.2963 85.7297 53.8315 85.5672 53.8315C85.4047 53.8315 85.2719 50.6379 85.2719 46.7344C85.2719 38.8911 85.4065 38.5334 87.1636 41.7154ZM90.6282 47.743C91.3368 48.4526 91.1475 49.3275 89.4339 53.2687C87.6584 57.352 87.6276 57.4556 88.1864 57.4556C88.5762 57.4556 90.1143 54.291 91.2319 51.1899C92.0823 48.8288 93.5065 47.145 94.1796 47.7046C95.2125 48.5631 94.8018 51.7165 93.2339 54.9633C91.7277 58.0819 91.3386 59.7287 92.2955 58.9335C92.5753 58.7009 93.2419 57.4168 93.7768 56.0803C95.4557 51.8843 96.0145 50.7619 97.0239 49.5605C97.5635 48.9187 98.1606 48.4899 98.351 48.6077C98.8704 48.9292 98.3166 51.9136 97.3503 54.0004C96.2244 56.4325 95.5723 59.5797 96.0873 60.0954C96.5918 60.6006 97.3583 58.7806 98.2949 54.8535C99.0148 51.835 99.5442 51.0362 100.369 51.7223C101.329 52.5199 100.885 55.5269 99.0043 60.9569C97.3927 65.611 97.2222 66.376 97.574 67.3748C98.3293 69.5206 98.6138 73.2705 98.1722 75.2616L97.7535 77.1509L95.6551 77.6278C93.4471 78.1301 90.6115 79.8247 89.9695 81.0261C89.288 82.3011 91.1541 81.8734 94.9302 79.8896C98.8005 77.8561 99.8826 77.7477 101.907 79.1912C103.173 80.0944 103.042 80.7065 101.357 81.7495C100.451 82.3101 99.8247 82.4413 98.8903 82.2656C96.8132 81.8756 90.3455 84.1305 90.9116 85.0474C91.2253 85.5559 93.771 85.1616 97.1972 84.0736L99.8935 83.2176L101.088 83.9569C102.956 85.1127 103.298 87.8326 101.547 87.5966C98.8472 87.2328 89.2529 87.1462 89.2529 87.4857C89.2529 87.7217 91.2413 87.9184 94.5911 88.0134C102.212 88.2298 103.76 88.7527 102 90.5158C101.327 91.1896 101.099 91.2215 99.6181 90.8482C97.8458 90.401 91.4468 90.3462 89.9767 90.7652L89.072 91.0232L89.9767 91.5223C90.6101 91.8716 92.3201 92.0278 95.6761 92.0434C98.7002 92.0575 100.428 92.1996 100.353 92.4283C100.288 92.6276 99.715 93.1441 99.0788 93.5757C97.9554 94.3378 97.2674 94.5067 93.3679 94.9782C91.9839 95.1453 91.0306 95.5642 89.6228 96.6236C88.5841 97.4049 87.6109 97.9681 87.4607 97.875C87.3102 97.7818 87.0782 96.2738 86.9454 94.5234C86.8126 92.773 86.3837 89.7918 85.9925 87.8982C84.948 82.8411 84.9628 82.7523 87.1169 81.2026C88.1317 80.4727 88.8744 79.7878 88.7676 79.6805C88.6605 79.5736 87.8266 79.7714 86.9143 80.1201C86.0022 80.4691 85.1666 80.6655 85.058 80.5564C84.9491 80.4473 85.0149 78.5077 85.2042 76.2459C85.3935 73.9837 85.5752 68.4932 85.6078 64.0446C85.6646 56.3485 85.7127 55.8295 86.5994 53.3535C87.6819 50.3295 88.3952 48.8291 89.1719 47.9423C89.828 47.1925 90.0484 47.1624 90.6282 47.743ZM110.453 56.7399C114.219 57.9409 120.395 59.67 124.177 60.5821C134.871 63.1614 138.221 64.1196 138.396 64.6498C138.643 65.3982 133.536 70.1418 130.766 71.7375C127.708 73.4985 126.801 74.7082 126.694 77.1639C126.65 78.1845 126.595 79.1412 126.572 79.2909C126.549 79.4406 126.132 79.5627 125.647 79.5627C122.68 79.5627 106.569 71.6919 100.201 67.132C98.2584 65.7411 98.2526 65.3482 100.099 59.845C101.636 55.263 102.022 54.5563 102.987 54.5563C103.327 54.5563 106.686 55.5388 110.453 56.7399ZM97.215 57.0932C96.9899 57.9307 96.7235 58.5338 96.6232 58.4334C96.523 58.333 96.6413 57.5817 96.886 56.7638C97.4654 54.8271 97.7481 55.1101 97.215 57.0932ZM84.7898 71.6828C84.4153 80.4832 84.0859 82.263 83.6328 77.9318C82.7349 69.346 82.9032 61.6498 84.0483 58.9053L84.729 57.2744L84.9502 59.9925C85.0718 61.4874 84.9994 66.7478 84.7898 71.6828ZM38.2933 66.7667C37.263 68.1971 34.6044 70.7257 34.6044 70.2752C34.6044 69.7888 38.6198 65.3424 38.8503 65.5733C38.9473 65.67 38.6965 66.2071 38.2933 66.7667ZM40.1945 71.046C39.4605 71.943 38.6831 72.6769 38.4663 72.6769C38.2499 72.6769 38.7921 71.943 39.6711 71.046C40.5502 70.1491 41.328 69.4152 41.3993 69.4152C41.4706 69.4152 40.9288 70.1491 40.1945 71.046ZM32.3247 71.3711C32.0109 72.3134 31.3479 71.9242 31.3588 70.8043C31.3696 69.6587 31.3979 69.633 31.9063 70.3067C32.2013 70.697 32.3895 71.1761 32.3247 71.3711ZM44.8827 71.3178C43.9316 72.9759 41.9367 75.3649 40.6584 76.3771L39.1529 77.5694L40.3946 75.7574C41.8835 73.5854 44.3362 70.8648 44.8052 70.8648C44.9909 70.8648 45.0256 71.0689 44.8827 71.3178ZM34.5704 74.3596C35.0304 74.9006 34.6891 75.2138 33.6392 75.2138C32.9534 75.2138 32.7948 75.021 32.7948 74.1871C32.7948 72.8479 33.2042 72.471 33.7677 73.2908C34.0152 73.6507 34.3764 74.132 34.5704 74.3596ZM50.4738 75.7574C51.19 77.9134 51.6956 80.3379 52.8983 87.3817C53.8515 92.9654 53.0807 97.9652 51.4723 96.6286C51.0688 96.2931 50.8904 95.5432 50.8904 94.1806C50.8904 92.0916 49.9737 87.0795 49.3928 85.9926C48.0378 83.4575 48.0903 90.4147 49.4572 94.5212C50.3685 97.2592 50.1119 98.7705 48.7359 98.7705C47.479 98.7705 46.8247 96.8171 46.529 92.1833C46.2496 87.7985 45.9688 86.6413 45.4223 87.6195C45.2565 87.9159 45.2898 89.6087 45.4965 91.3806C45.8432 94.3516 45.7346 97.2741 45.229 98.5936C45.0075 99.1713 43.1024 99.346 42.7771 98.8187C42.6703 98.6458 42.4727 96.438 42.3381 93.9127C42.2031 91.3875 41.9287 89.2199 41.7279 89.0956C41.485 88.9452 41.4434 90.6441 41.6041 94.1827L41.8451 99.4953H40.7583H39.6711L39.6458 93.7873C39.6317 90.6478 39.4909 87.7532 39.3328 87.3545C39.1225 86.8254 39.3089 86.2872 40.0229 85.3613C40.5607 84.6636 41.7036 83.0328 42.5624 81.7372C43.4213 80.4415 45.1925 77.8731 46.499 76.0292C49.1927 72.2279 49.2987 72.2206 50.4738 75.7574ZM37.1298 78.9285C37.1341 79.0782 36.7306 79.2003 36.233 79.2003C35.3105 79.2003 35.1169 78.7234 35.5649 77.5549C35.7737 77.0095 35.8787 77.0381 36.4617 77.797C36.8247 78.27 37.1255 78.7788 37.1298 78.9285ZM93.9578 79.7254C90.833 81.3258 89.8001 81.5407 91.4298 80.2509C93.0262 78.9875 94.8358 78.1449 95.9483 78.1471C96.8512 78.1489 96.5161 78.4146 93.9578 79.7254ZM38.1602 82.4123C37.5123 82.6472 37.0567 81.8383 37.3412 80.9584C37.6144 80.1118 37.6191 80.1132 38.069 81.1936C38.357 81.8847 38.3903 82.3286 38.1602 82.4123ZM41.632 82.1902C39.4797 85.2051 39.3092 85.3432 39.3092 84.0675C39.3092 83.1988 39.6538 82.7157 41.0283 81.6571C41.974 80.9294 42.802 80.323 42.8686 80.3107C42.9356 80.298 42.379 81.1439 41.632 82.1902ZM85.8148 81.3748C85.6917 81.5741 85.4282 81.7372 85.2292 81.7372C85.0301 81.7372 84.9679 81.5741 85.0909 81.3748C85.214 81.1754 85.4775 81.0123 85.6765 81.0123C85.8756 81.0123 85.9378 81.1754 85.8148 81.3748ZM97.0007 83.534C95.0312 84.236 91.8221 84.872 92.1873 84.4879C92.6784 83.9711 96.3942 82.8516 97.5769 82.8639C98.8208 82.877 98.8106 82.8893 97.0007 83.534ZM84.8796 85.2707C85.7554 89.5018 86.2921 92.865 86.5418 95.69L86.7984 98.5893L84.2437 94.7409C80.7998 89.5529 80.0988 89.0068 76.2408 88.5066C75.9513 88.4689 77.2541 87.5136 79.1361 86.3833C81.018 85.2533 82.8833 84.0769 83.2814 83.7692C83.6795 83.4615 84.1047 83.2046 84.2267 83.1984C84.3487 83.1919 84.6422 84.1244 84.8796 85.2707ZM38.4573 87.0882C38.7341 87.2658 38.9151 89.4174 39.0002 93.5485L39.1283 99.7425L34.4234 100.384C28.5735 101.181 17.6908 103.167 13.6544 104.174C11.985 104.59 10.6006 104.931 10.5782 104.931C10.5558 104.931 10.5373 102.689 10.5373 99.9483C10.5373 95.69 10.432 94.7543 9.81348 93.5155C9.01547 91.9173 6.62759 90.435 4.85097 90.435C4.29616 90.435 3.84196 90.2719 3.84196 90.0726C3.84196 89.8733 4.04571 89.7109 4.29435 89.7113C4.54334 89.712 9.63253 89.222 15.6041 88.6226C24.882 87.6912 32.6486 87.053 36.9568 86.8685C37.554 86.8428 38.2293 86.9418 38.4573 87.0882ZM49.7442 89.4341C50.43 93.476 50.5553 94.843 50.2198 94.6357C49.7851 94.3665 49.1861 91.8753 48.8702 89.022C48.5343 85.9911 49.2144 86.3119 49.7442 89.4341ZM61.9287 89.7233C74.9209 90.8428 80.3854 92.2866 83.0248 95.2964C84.7055 97.2136 85.066 100.22 83.6147 100.22C82.605 100.22 79.0431 98.1254 76.8282 96.2285C73.5963 93.4612 73.6169 94.0805 76.8615 97.2302C80.5457 100.807 82.1714 103.844 80.4017 103.844C79.4882 103.844 75.9024 101.73 73.6918 99.8878C71.7839 98.2972 70.4336 97.6082 70.4336 98.2243C70.4336 98.3226 71.638 99.2949 73.1106 100.385C75.8232 102.394 78.0337 104.717 78.0337 105.558C78.0337 106.842 73.3828 105.158 71.1447 103.063C68.6613 100.738 66.0809 98.7705 65.5152 98.7705C63.9923 98.7705 66.0762 101.124 69.6254 103.412C72.4306 105.221 73.9427 107.013 73.5431 108.056C73.3958 108.44 73.0871 108.528 72.5164 108.349C71.5989 108.06 66.9256 105.027 63.9398 102.782C62.2595 101.518 61.7933 101.334 60.7669 101.527C59.695 101.728 59.392 101.581 57.9835 100.17C56.7497 98.9347 56.238 98.0312 55.651 96.0517C54.4194 91.8992 53.8609 89.5464 54.0365 89.2481C54.1269 89.0938 54.963 89.0535 55.8934 89.1583C56.8243 89.2634 59.5401 89.5178 61.9287 89.7233ZM98.1198 91.1392C99.2044 91.3639 98.524 91.4386 95.4054 91.4378C92.7816 91.4371 91.6448 91.3342 92.3292 91.1599C93.8014 90.7848 96.3645 90.7753 98.1198 91.1392ZM54.8649 95.237C55.2985 96.6823 55.96 98.3943 56.3357 99.0423C56.7114 99.6903 56.9604 100.22 56.8891 100.22C56.8181 100.22 56.0501 99.8976 55.1823 99.5033C54.3148 99.109 52.8313 98.7828 51.8856 98.7785C50.94 98.7741 50.1691 98.6484 50.172 98.4987C50.1861 97.8039 50.8401 97.3154 51.6366 97.4042C52.3207 97.4807 52.6514 97.2244 53.1483 96.2336C53.4983 95.536 53.7849 94.4353 53.7849 93.7873C53.7853 93.1394 53.8512 92.6095 53.9315 92.6095C54.0115 92.6095 54.4317 93.7917 54.8649 95.237ZM103.864 102.395C107.772 110.007 116.026 129.342 115.565 129.804C115.324 130.045 112.725 126.831 111.025 124.19C106.423 117.042 101.07 103.909 100.293 97.8645L100.06 96.0524L100.799 96.9584C101.205 97.4568 102.584 99.903 103.864 102.395ZM46.8551 98.8118C45.82 99.4685 45.6065 99.0767 46.0643 97.3629L46.2952 96.4989L46.8192 97.5002C47.2568 98.3363 47.2626 98.5531 46.8551 98.8118ZM44.3829 100.216C44.0995 100.391 43.7079 100.436 43.5125 100.315C43.317 100.194 43.4723 99.9806 43.857 99.8407C44.7223 99.5261 45.0824 99.7831 44.3829 100.216ZM41.3529 100.831C41.2415 100.943 40.8578 100.915 40.501 100.77C39.8959 100.523 39.901 100.486 40.5759 100.23C41.2574 99.9712 41.7959 100.388 41.3529 100.831ZM68.4528 101.515L70.2526 103.172L68.5173 101.985C66.6849 100.732 65.7848 99.8577 66.3277 99.8577C66.5068 99.8577 67.463 100.604 68.4528 101.515ZM62.8798 102.635C63.334 103.187 63.2992 103.198 62.4715 102.767C61.2584 102.136 61.1668 102.032 61.8241 102.032C62.1313 102.032 62.6065 102.304 62.8798 102.635ZM63.6582 103.88C66.7504 105.422 69.3272 107.189 69.3384 107.775C69.3471 108.218 66.2904 111.245 65.1649 111.91C64.9072 112.062 65.0357 111.572 65.454 110.807C66.538 108.826 66.1326 107.719 63.3354 105.022C62.043 103.776 61.0807 102.757 61.1962 102.757C61.312 102.757 62.4198 103.262 63.6582 103.88ZM49.6552 124.973C48.6773 125.81 45.6781 128.42 42.9906 130.772C37.6499 135.448 36.7759 136.074 36.7759 135.227C36.7759 134.933 37.7353 133.846 38.9079 132.813C41.0735 130.904 50.9215 123.429 51.2523 123.443C51.3518 123.448 50.6331 124.136 49.6552 124.973Z" fill="black"/>
</svg>
