<svg width="173" height="140" viewBox="0 0 173 140" fill="none" xmlns="http://www.w3.org/2000/svg">
<path fill-rule="evenodd" clip-rule="evenodd" d="M133.448 0.0930922C134.198 0.395234 134.467 0.905909 134.467 2.03253C134.467 3.43164 134.187 3.73411 132.242 4.43367L130.532 5.04861L130.297 7.87115C130.168 9.4235 129.914 13.294 129.732 16.4724C129.55 19.6507 129.252 22.3959 129.07 22.5731C128.856 22.7807 128.554 22.7171 128.222 22.3946C127.853 22.0368 127.636 20.7633 127.462 17.9378C127.329 15.7618 127.1 13.7934 126.954 13.5639C126.792 13.3107 126.16 13.1881 125.35 13.2524L124.012 13.3587L123.917 18.2722L123.823 23.1858H127.383C130.955 23.1858 132.84 23.5429 133.782 24.3983C134.06 24.6508 134.369 25.6285 134.468 26.5713C134.642 28.2202 134.701 28.3022 136.021 28.7442C138.504 29.5744 138.511 29.5937 138.983 37.1925C139.217 40.9571 139.307 44.2927 139.184 44.6045C138.897 45.3297 137.706 45.3417 137.422 44.6228C137.303 44.3207 136.967 42.4212 136.677 40.4018C136.13 36.5932 135.583 35.0725 134.634 34.7188C133.689 34.3667 122.481 34.4912 120.095 34.88C116.46 35.4729 116.292 35.6602 116.292 39.1366C116.292 43.4572 116.598 45.2604 117.285 44.9872C119.026 44.295 124.745 43.792 129.502 43.9123C135.126 44.0545 136.475 44.4053 136.91 45.838C138.293 50.3888 138.38 50.558 140.577 52.9312C146.588 59.4254 150.374 67.4053 151.593 76.1521C152.557 83.0624 154.258 126.843 153.696 130.259C153.082 133.99 151.639 137.155 149.906 138.57L148.836 139.445H169.62C172.33 139.445 175.63 139.532 169.621 139.872C161.669 140.321 -30.8575 139.445 4.27994 139.445H24.0816L23.8572 134.532C23.7336 131.829 23.6094 125.046 23.581 119.458C23.5257 108.475 23.5738 108.127 25.4389 105.966C25.9135 105.417 26.4048 104.647 26.5307 104.256C26.7164 103.68 26.5874 103.503 25.8459 103.323C24.9455 103.103 24.9352 103.069 25.1535 101.002C25.2753 99.8484 25.5319 96.8986 25.7241 94.4468C25.9162 91.9954 26.2103 89.8567 26.3773 89.6945C26.5441 89.5326 27.0413 89.2265 27.4818 89.0146C28.6021 88.4763 29.0667 86.0282 29.1075 80.4487C29.1374 76.3223 29.2101 75.8163 29.9193 74.7856C31.9774 71.7945 36.1514 71.8222 38.4736 74.8423C38.9825 75.5038 39.1605 76.6864 39.4244 81.1509C39.8063 87.6188 40.0005 88.4333 41.3304 89.1488C42.5152 89.7864 42.7427 90.6212 43.2354 96.1394C43.8358 102.866 43.8513 102.621 42.8164 102.737C42.0736 102.821 41.9439 102.971 42.0976 103.57C42.2009 103.972 42.7832 104.844 43.3915 105.506C45.3232 107.612 45.351 107.873 45.3967 124.338L45.4385 139.443H53.6734H61.9082L60.8023 138.788C60.194 138.428 59.6096 137.792 59.5036 137.374C59.3976 136.955 59.3547 125.596 59.4085 112.129C59.5225 83.634 59.0771 86.6264 63.866 82.1739C66.8947 79.3581 67.5631 78.2631 67.5676 76.1078C67.5689 75.4959 67.3517 75.1751 66.8491 75.0475C66.1457 74.8689 66.1313 74.7247 66.2486 69.0469C66.355 63.8922 66.4432 63.1497 67.0223 62.5288C67.3819 62.1433 67.9848 61.8279 68.3622 61.8279C69.0052 61.8279 69.0128 61.7896 68.4806 61.2186C67.7714 60.4577 67.7082 57.2648 68.3835 56.3224C68.6919 55.892 68.9417 54.0545 69.1071 51.0014C69.2457 48.4364 69.4938 46.0912 69.6582 45.7901C70.2758 44.6571 80.0879 44.7277 81.5118 45.875C82.1274 46.371 82.1143 48.6586 81.4926 49.2622C81.1639 49.5813 80.9676 50.7049 80.8922 52.7007C80.7981 55.1758 80.8788 55.7614 81.3801 56.2481C81.8419 56.6965 81.9805 57.3907 81.9805 59.2555C81.9805 61.2676 82.0972 61.7769 82.6668 62.2503C83.2127 62.7043 83.3657 63.2806 83.4151 65.0725C83.5324 69.3401 83.273 74.6541 82.9268 75.0711C82.7361 75.3013 82.6565 76.2657 82.7505 77.2148C82.9018 78.7428 83.0932 79.0879 84.4239 80.2325C88.0585 83.3585 88.7897 84.1064 89.7312 85.6621L90.73 87.3117L90.8319 111.816C90.8981 127.678 90.8123 136.631 90.589 137.202C90.3992 137.686 89.6588 138.383 88.943 138.749L87.6419 139.416L98.879 139.431C105.059 139.439 110.116 139.374 110.116 139.287C110.116 139.2 109.659 138.9 109.1 138.619C107.686 137.909 106.443 135.677 106.036 133.116C105.135 127.444 103.783 92.4521 104.029 81.1489C104.174 74.4222 104.282 73.3292 105.077 70.489C106.684 64.7553 108.877 60.2292 112.798 54.5595C115.277 50.9734 115.412 50.6816 115.548 48.6009C115.648 47.0782 115.579 46.4816 115.318 46.6375C115.113 46.7608 114.63 46.5566 114.246 46.1831C113.584 45.5409 113.547 45.1055 113.547 37.9914V30.4775L115.434 29.6387L117.322 28.7999V27.1589C117.322 25.1252 117.958 24.43 120.367 23.8303C121.544 23.5375 122.123 23.2211 122.12 22.873C122.09 19.8039 121.343 12.6788 120.933 11.5505C120.645 10.7583 120.41 9.61338 120.41 9.00576C120.41 8.39848 120.259 7.81085 120.074 7.70026C119.594 7.41178 111.342 6.54399 109.007 6.53633C107.926 6.53267 105.97 6.70789 104.661 6.92608C101.891 7.38713 101.747 7.32017 100.414 4.94234C99.8624 3.95797 99.6256 3.1748 99.7976 2.90464C99.9513 2.66312 101.525 2.08483 103.295 1.61946C106.324 0.822962 107.209 0.758002 118.351 0.511825C124.862 0.367916 130.806 0.168376 131.561 0.0684395C132.316 -0.0318301 133.165 -0.0205023 133.448 0.0930922ZM116.978 1.51019C108.308 1.71073 105.407 1.88829 103.94 2.30869C102.902 2.60583 101.707 2.94461 101.283 3.06187L100.514 3.27507L101.455 4.91403C102.283 6.35578 102.499 6.528 103.254 6.34512C106.537 5.54929 108.409 5.50032 114.234 6.05897C117.536 6.37543 120.412 6.76352 120.623 6.92109C120.835 7.07865 121.115 7.98041 121.244 8.92481C121.373 9.86955 121.642 10.9389 121.841 11.301C122.041 11.6634 122.412 14.2234 122.665 16.9897L123.126 22.0198L122.953 17.7879C122.789 13.7777 122.819 13.5179 123.522 12.8357C124.119 12.2554 124.532 12.1504 125.644 12.295C127.79 12.5745 128.1 13.0912 128.33 16.7842L128.531 20.0211L128.601 16.6899C128.639 14.8577 128.879 12.3093 129.136 11.0268C129.393 9.74429 129.524 7.94544 129.428 7.02935C129.226 5.09292 129.78 4.38969 132.193 3.52458C133.609 3.0169 134.051 2.33733 133.641 1.29933C133.464 0.850945 133.034 0.807637 130.781 1.01184C129.323 1.14409 123.112 1.36828 116.978 1.51019ZM120.238 24.8114C118.619 25.3207 118.517 25.4213 118.416 26.6039L118.309 27.8571L119.59 27.013C121.39 25.8274 124.306 25.0646 126.119 25.3057C126.937 25.4147 128.496 25.938 129.584 26.4687C130.671 26.9993 132.063 27.539 132.676 27.6679C133.897 27.9247 133.967 27.7875 133.579 25.9054C133.365 24.8667 132.606 24.438 130.36 24.0888C128.589 23.8137 121.891 24.2917 120.238 24.8114ZM122.46 26.5589C121.751 26.7652 120.729 27.2915 120.19 27.7289L119.209 28.5237L120.112 28.3268C120.609 28.2186 123.003 28.0267 125.431 27.9008L129.845 27.6716L128.473 26.9424C126.928 26.1216 124.496 25.9663 122.46 26.5589ZM123.887 28.8565C119.486 29.2346 117.389 29.6643 115.52 30.5704L114.234 31.1943L114.271 36.434C114.317 42.9315 114.587 45.5675 115.229 45.7731C115.634 45.903 115.671 45.1591 115.466 41.0571C115.224 36.2331 115.23 36.1795 116.033 35.3993C117.32 34.1505 120.638 33.6811 128.187 33.6801C134.677 33.6791 134.776 33.6897 135.651 34.4872C136.706 35.449 137.092 36.6692 137.608 40.6746C138.126 44.6994 138.668 45.1471 138.403 41.3319C137.837 33.1877 137.62 30.8692 137.389 30.5074C137.018 29.9245 134.886 29.13 132.933 28.8472C130.4 28.4804 128.237 28.4827 123.887 28.8565ZM120.504 45.1898C116.947 45.7314 116.635 45.9266 116.635 47.6089C116.635 49.9614 115.865 51.8039 113.475 55.1658C107.996 62.8735 105.158 70.6643 104.737 79.1502C104.553 82.8788 105.31 108.052 106.021 121.79C106.738 135.661 107.316 137.456 111.473 138.706C113.159 139.213 115.214 139.278 129.502 139.274C138.372 139.271 146.211 139.152 146.923 139.008C149.639 138.459 151.972 135.1 152.767 130.597C153.321 127.456 151.896 86.9676 150.916 77.9843C149.892 68.6062 146.286 60.4501 140.277 53.9246C137.909 51.3525 137.149 50.0623 136.553 47.6036C136.322 46.6505 135.923 45.7021 135.667 45.4956C134.51 44.5632 125.774 44.387 120.504 45.1898ZM70.7208 46.1262C70.435 46.3024 70.2116 47.3687 70.1118 49.036C70.0253 50.4834 69.8918 52.4568 69.8156 53.4215C69.7391 54.3863 69.8002 55.1015 69.9512 55.0112C70.1018 54.9206 70.3358 53.1927 70.4707 51.1716C70.6765 48.0863 70.8179 47.444 71.3504 47.1672C72.1073 46.7738 77.8477 46.7325 78.4697 47.1159C79.1248 47.5193 79.5787 49.4161 79.5787 51.7486C79.5787 53.0611 79.7204 53.833 79.9616 53.833C80.2282 53.833 80.2735 53.1874 80.1112 51.713C79.9208 49.9877 79.9812 49.4924 80.4361 49.0507C80.7841 48.7129 80.9543 48.0986 80.8873 47.423C80.793 46.4723 80.6307 46.3121 79.5787 46.1318C77.741 45.8164 71.2303 45.8124 70.7208 46.1262ZM71.7127 48.0323C71.5518 48.1995 71.3532 49.9104 71.2708 51.8342L71.1209 55.332H75.473H79.8251L79.3272 54.5941C79.0517 54.1857 78.7439 52.649 78.6386 51.154C78.386 47.5779 78.1695 47.3814 74.6975 47.5766C73.2166 47.6599 71.8733 47.8647 71.7127 48.0323ZM69.9714 56.4619C69.2457 56.6572 69.0817 56.9473 68.9061 58.3441C68.648 60.3981 68.7616 60.5603 69.4077 59.0593C69.6856 58.4127 70.2737 57.6955 70.7143 57.4646C71.1548 57.2341 73.1724 56.978 75.1974 56.8957C79.3375 56.7274 80.6081 57.1395 80.6081 58.6512C80.6081 59.0943 80.7237 59.5263 80.8654 59.6113C81.0071 59.6959 81.0678 59.0946 81.0006 58.2745C80.9062 57.1255 80.7093 56.7171 80.1428 56.4953C79.2737 56.1548 71.2114 56.1285 69.9714 56.4619ZM71.4623 58.032C70.9874 58.1559 70.4782 58.7968 70.0383 59.8238L69.3542 61.4228L74.8437 61.4378L80.3332 61.4531L80.0971 60.2309C79.6381 57.8561 79.5904 57.8301 75.7066 57.8351C73.779 57.8374 71.8689 57.926 71.4623 58.032ZM69.5391 62.4618C68.6412 62.605 67.7919 62.8336 67.6519 62.9691C67.3099 63.3009 66.9863 73.8446 67.3123 74.0391C67.454 74.1237 67.5696 72.3032 67.5696 69.994C67.5696 65.9799 67.6067 65.759 68.412 64.9775C69.2217 64.191 69.4286 64.1597 73.816 64.1617C78.6015 64.1634 80.5724 64.4809 81.3344 65.3726C81.5863 65.6671 81.9767 67.426 82.2025 69.2811L82.6125 72.6543L82.5473 67.9287C82.5113 65.3297 82.3566 63.0811 82.2032 62.9318C81.5715 62.3179 72.5379 61.9824 69.5391 62.4618ZM69.0279 65.2687C68.7215 65.4562 68.599 66.7394 68.599 69.7592L68.5986 73.9868H75.1178C81.1522 73.9868 81.6371 73.9425 81.6371 73.3909C81.6381 71.2456 80.8311 66.2517 80.4176 65.841C80.1493 65.5748 79.1944 65.25 78.2961 65.1191C76.2131 64.8153 69.5926 64.9222 69.0279 65.2687ZM31.9352 73.9618C30.3506 74.7573 30.0587 75.8463 29.7838 81.9817C29.6445 85.0964 29.4318 88.0196 29.3114 88.4776L29.0921 89.3104L33.7798 89.2088C37.3427 89.1315 38.6448 89.2181 39.2079 89.5702C39.9644 90.0436 41.7222 90.5883 41.3613 90.2375C41.2515 90.1312 40.8216 89.8791 40.4057 89.6772C39.3197 89.1502 38.7821 86.8127 38.4444 81.1489C38.1363 75.9812 37.7706 74.719 36.3658 73.9775C35.2195 73.3719 33.1248 73.3645 31.9352 73.9618ZM70.6577 74.7753L68.4274 74.9862L68.2476 76.9849C68.1485 78.0842 67.8904 79.2888 67.6743 79.6619C67.4581 80.0346 66.0472 81.4214 64.5392 82.7436C62.8171 84.253 61.4992 85.7354 60.9951 86.729L60.1926 88.311L60.0893 111.63C60.0323 124.455 60.1133 135.548 60.2687 136.281C60.4969 137.355 60.7896 137.727 61.7785 138.199C64.5883 139.542 81.9692 139.839 86.6126 138.623C90.3972 137.632 90.0472 140.312 90.0215 112.518L89.9992 88.2761L89.1935 86.6604C88.3999 85.0688 87.1966 83.7676 83.7881 80.8158C82.1167 79.3684 82.0488 79.2401 81.822 77.0878C81.6017 74.9978 81.53 74.8506 80.6688 74.7227C79.2349 74.5098 73.1264 74.5418 70.6577 74.7753ZM28.3685 90.3534C28.0384 90.4457 27.768 90.6609 27.768 90.8318C27.768 91.1959 31.7976 91.2365 36.3789 90.9191C39.4412 90.7065 39.5531 90.6725 38.5762 90.2495C37.809 89.9174 36.455 89.8524 33.2579 89.9946C30.899 90.0996 28.6985 90.2608 28.3685 90.3534ZM26.856 92.2252C26.7095 92.4544 26.4851 94.4405 26.3571 96.6391C26.2291 98.8377 26.013 101.049 25.8768 101.553C25.6894 102.246 25.7522 102.469 26.1348 102.469C26.5263 102.469 26.694 101.774 26.8793 99.3873C27.0107 97.6927 27.2626 96.1654 27.4393 95.9932C27.8665 95.5771 37.0713 95.0468 39.3242 95.3086C40.3017 95.4222 41.2762 95.7193 41.4893 95.9688C41.7027 96.2184 41.9837 97.6365 42.1137 99.1202C42.2482 100.652 42.4987 101.779 42.6936 101.727C42.8823 101.677 42.9859 101.411 42.9238 101.136C42.5375 99.4253 42.2328 96.6491 42.2078 94.6127C42.192 93.3149 42.076 92.1529 41.9501 92.031C41.8245 91.9088 38.4365 91.8088 34.4217 91.8088C28.9531 91.8088 27.0554 91.9131 26.856 92.2252ZM29.4836 96.4139L27.9396 96.6391L27.8404 99.5539L27.7413 102.469H34.5847H41.4278L41.2433 99.7205C41.142 98.2088 40.906 96.785 40.719 96.5558C40.347 96.0998 32.3322 95.9985 29.4836 96.4139ZM31.285 103.354C27.9684 103.539 27.4249 103.65 27.4249 104.136C27.4249 104.447 27.0454 105.211 26.5819 105.834C24.3526 108.826 24.4984 107.488 24.6082 123.925C24.6631 132.154 24.7881 139.012 24.8858 139.166C25.1346 139.557 43.6005 139.511 44.2376 139.117C44.6844 138.842 44.7382 136.966 44.6466 124.881C44.5886 117.226 44.3979 110.159 44.2222 109.176C43.9889 107.868 43.5823 107.044 42.7066 106.103C42.0485 105.396 41.4124 104.439 41.2927 103.976C41.0809 103.158 40.9952 103.135 38.1102 103.137C36.4794 103.137 33.4078 103.235 31.285 103.354Z" fill="black"/>
</svg>
