<svg width="148" height="140" viewBox="0 0 148 140" fill="none" xmlns="http://www.w3.org/2000/svg">
<path fill-rule="evenodd" clip-rule="evenodd" d="M134.121 0.359287C113.921 3.87786 68.4907 14.3584 55.0767 18.594C51.4544 19.7375 51.3622 19.8062 45.3643 25.8118C33.3018 37.8896 8.68472 66.3508 1.80113 76.1775C-0.221666 79.0648 -0.494631 80.2498 0.751231 80.7358C2.06856 81.2495 11.7016 81.8802 18.4119 81.8918L24.6605 81.9028L24.3142 85.0152C24.1238 86.7267 23.9578 91.073 23.9445 94.6727L23.9209 101.218L22.6529 101.823C20.3526 102.921 20.8565 106.608 23.4935 107.972C24.6665 108.578 24.6974 108.694 24.3156 111.045C23.5973 115.471 21.23 133.73 21.0756 136.04C20.9792 137.475 21.1207 138.371 21.461 138.486C22.1393 138.715 22.3611 137.997 23.8956 130.595L25.1484 124.554L25.4813 131.611C25.8137 138.663 26.006 140 26.6875 140C27.4095 140 27.6594 138.301 27.9389 131.489C28.2506 123.901 28.2792 123.916 30.1406 132.623C31.344 138.251 31.8572 139.595 32.5424 138.91C33.0205 138.431 32.7748 133.367 31.9826 127.372C31.1019 120.704 31.1351 120.382 32.3967 123.401C34.0266 127.301 35.4205 129.856 35.9185 129.856C37.0449 129.856 36.0854 126.642 31.3269 114.469L28.4664 107.151L29.6518 105.914C31.4284 104.059 31.2186 102.744 28.9975 101.811L27.1578 101.038L27.1993 92.5079C27.2219 87.8163 27.3842 83.459 27.5603 82.825L27.8798 81.6723L35.6985 81.3693C39.9986 81.2024 45.8591 80.9949 48.7215 80.9082L53.9263 80.7501L55.0965 84.2032C55.7407 86.1024 56.4733 87.9048 56.7251 88.2082C58.2365 90.0295 71.112 90.8475 76.9461 89.4928C80.5306 88.6605 95.3362 83.8117 101.139 81.5699C104.806 80.153 108.323 78.4654 110.554 77.0522C114.499 74.5535 115.834 73.5829 118.329 71.4006C121.522 68.6069 122.164 68.8503 119.482 71.8382C117.301 74.2672 110.377 78.7642 104.381 81.646C86.594 90.1946 78.832 91.9924 62.1913 91.4183C57.4997 91.2565 52.668 90.9485 51.4544 90.7336C50.2408 90.5192 49.1526 90.4975 49.0364 90.6856C48.3264 91.8347 58.0927 92.6734 68.6346 92.3695C82.3031 91.9753 88.2963 90.4339 102.18 83.7412C115.292 77.4201 120.33 73.8661 122.214 69.6088C123.661 66.3369 129.406 63.5552 132.141 64.802C132.789 65.0966 133.447 65.2096 133.604 65.0528C134.152 64.505 132.088 63.4593 130.46 63.4597C128.761 63.4602 123.425 65.7145 122.825 66.6855C122.618 67.0203 121.72 65.6365 120.536 63.1577C119.464 60.9145 117.411 57.1474 115.973 54.7862C113.736 51.1141 113.443 50.3791 113.942 49.7004C114.263 49.2637 117.55 45.2822 121.247 40.8521C136.925 22.0646 147.032 7.23274 147.032 3.01101C147.032 1.15559 146.014 0.538649 144.362 1.39259C140.885 3.19037 130.174 18.0241 116.435 40.0664C112.052 47.0999 111.128 48.8787 111.497 49.5704C111.882 50.2883 110.773 51.7163 104.394 58.7234C96.8878 66.9682 88.8911 74.7583 86.9499 75.7173C84.869 76.7455 77.221 77.895 68.6465 78.4686C64.192 78.7665 62.8156 78.8804 57.6957 79.3761C54.8429 79.6522 54.8139 79.643 54.8139 78.4825C54.8139 76.9706 54.9992 76.9369 65.1884 76.6035C73.4912 76.3315 75.8843 76.1826 80.6348 75.6435C83.7076 75.2945 84.0723 75.1032 83.341 74.222C82.2888 72.954 62.0083 73.8896 57.3499 75.4208C55.8269 75.9216 53.1138 76.183 45.131 76.598C34.917 77.1292 28.7928 77.8844 27.7604 78.7411C27.4437 79.0044 27.0586 79.6158 26.9046 80.1C26.4671 81.4795 25.7104 81.136 26.0516 79.7127C26.906 76.1494 29.4531 73.4091 36.9882 67.9461C42.7477 63.7705 53.6399 57.1354 59.8407 54.0263C67.4565 50.2076 69.1076 48.6943 69.1076 45.5354C69.1076 44.627 69.5743 43.6979 70.4909 42.7813C73.0822 40.19 71.911 37.5572 66.5186 33.85C59.2952 28.8836 57.5454 27.4519 56.8062 25.9022C56.1178 24.459 56.116 24.2285 56.7841 23.2085C58.7756 20.17 73.0527 16.034 104.842 9.28735C136.888 2.48629 140.331 1.63604 139.994 0.608275C139.762 -0.0976515 137.336 -0.200475 134.121 0.359287ZM135.88 1.4516C135.748 1.58301 128.814 3.14472 120.472 4.9213C69.4668 15.7827 57.9963 18.9739 55.7946 22.9153C54.3256 25.5458 56.0662 27.9047 62.9152 32.5668C68.4557 36.338 70.952 38.6407 70.952 39.9802C70.952 40.4901 70.4282 41.4317 69.7882 42.0712L68.6249 43.235L67.2167 42.0505C65.5946 40.6856 63.7074 40.0876 63.0614 40.7336C62.3624 41.4326 64.026 43.1243 66.1106 43.8344C67.6368 44.3545 67.9789 44.6962 68.0937 45.8171C68.2887 47.7182 65.7029 49.9351 59.8845 52.8547C47.3622 59.1389 31.7207 69.619 27.2293 74.7347C26.4279 75.6468 25.5412 77.3127 25.2586 78.4359C24.7615 80.4094 24.6725 80.4887 22.6036 80.8004C19.8468 81.2153 1.89289 80.3471 1.31652 79.7708C0.790422 79.2447 2.01139 77.3588 6.80118 71.2978C19.3598 55.4054 43.9981 27.6793 50.1864 22.4759C53.0991 20.0266 55.1394 19.334 72.1047 15.0404C87.6471 11.1068 103.754 7.43469 120.75 3.94978C133.019 1.43408 136.467 0.864638 135.88 1.4516ZM146.109 2.95429C146.109 4.36338 143.153 10.0002 139.768 15.045C132.449 25.9539 112.541 50.6267 112.471 48.8764C112.445 48.2434 121.609 33.5572 128.124 23.7918C139.165 7.24011 146.109 -0.804963 146.109 2.95429ZM66.1557 42.5886C65.8823 42.8615 64.4967 42.1487 64.4967 41.7351C64.4967 41.5064 64.9025 41.5723 65.3982 41.8822C65.8938 42.1916 66.2346 42.5092 66.1557 42.5886ZM115.334 55.736C118.712 61.4157 121.295 66.621 121.122 67.3974C120.809 68.7927 111.22 75.6021 105.764 78.3036C100.196 81.0604 80.7151 87.8504 75.6154 88.8122C71.8184 89.5278 63.7922 89.3333 60.347 88.442L57.3499 87.6664L56.2119 84.3471C55.5862 82.5216 55.2072 80.8949 55.37 80.7317C55.5327 80.5689 58.7424 80.2291 62.5021 79.9764C74.6264 79.1617 84.3618 77.9149 86.7931 76.8659C89.4684 75.7113 97.762 67.7423 106.456 57.9728C109.626 54.4104 112.349 51.4903 112.509 51.4834C112.668 51.4765 113.939 53.39 115.334 55.736ZM75.7934 75.0128C74.779 75.2226 72.1854 75.3738 70.0298 75.3484C66.574 75.3083 66.3831 75.2654 68.416 74.9865C69.684 74.8127 72.2776 74.6614 74.1796 74.6508C77.1541 74.6342 77.3796 74.6849 75.7934 75.0128ZM79.1266 74.8039C78.9735 74.957 78.5756 74.9736 78.2432 74.8403C77.8752 74.6932 77.9845 74.584 78.5217 74.5618C79.0077 74.542 79.2797 74.6508 79.1266 74.8039ZM65.88 75.4476C65.88 75.7012 65.6725 75.9087 65.4189 75.9087C65.1653 75.9087 64.9578 75.7012 64.9578 75.4476C64.9578 75.194 65.1653 74.9865 65.4189 74.9865C65.6725 74.9865 65.88 75.194 65.88 75.4476ZM53.8917 78.405C53.8917 79.5637 54.3403 79.5167 35.6787 80.3231C32.6355 80.455 29.679 80.6607 29.1082 80.7805C28.5374 80.9 28.0707 80.8123 28.0707 80.5846C28.0707 79.2276 31.048 78.5221 39.1558 77.9587C49.8853 77.2126 53.2162 77.0342 53.5459 77.1863C53.7359 77.2744 53.8917 77.8227 53.8917 78.405ZM26.5063 82.6323C26.3523 83.0334 26.2264 87.3907 26.2264 92.3151C26.2264 100.332 26.1466 101.269 25.4647 101.269C24.774 101.269 24.7274 100.444 24.9667 92.3926C25.2286 83.5655 25.4439 81.9028 26.3251 81.9028C26.5787 81.9028 26.6603 82.2311 26.5063 82.6323ZM26.5823 104.035C27.0605 105.919 26.8415 106.31 25.8575 105.326C25.2212 104.69 25.1027 102.191 25.709 102.191C25.9317 102.191 26.3251 103.021 26.5823 104.035ZM29.9151 103.807C29.9151 104.107 29.5116 104.718 29.0187 105.165C28.1505 105.95 28.1085 105.926 27.7028 104.429C27.4727 103.579 27.3648 102.734 27.4635 102.554C27.7323 102.061 29.9151 103.177 29.9151 103.807ZM24.5637 104.523C24.8067 106.045 25.1101 106.482 26.184 106.856C27.3063 107.247 27.7489 107.954 29.1243 111.555C31.1384 116.825 31.5344 118.032 30.781 116.6C30.2286 115.549 29.454 115.199 29.454 115.998C29.454 116.238 29.851 119.194 30.3365 122.569C31.3099 129.337 31.8789 134.974 31.5095 134.197C31.3786 133.921 30.5814 130.186 29.7371 125.897C28.8933 121.608 28.0173 118.149 27.7909 118.212C27.5645 118.274 27.2754 121.906 27.1486 126.281C26.8719 135.829 26.2416 134.898 26.2328 124.927C26.2236 114.721 25.6961 115.05 23.6558 126.538C22.2407 134.505 22.5012 130.517 24.1312 119.259C25.022 113.107 25.6385 107.891 25.5006 107.668C25.3628 107.445 24.9588 107.263 24.6033 107.263C23.648 107.263 22.0766 105.393 22.0766 104.255C22.0766 103.061 22.4344 102.652 23.4778 102.652C24.0408 102.652 24.3493 103.184 24.5637 104.523ZM32.2062 119.482C32.2062 119.735 32.0052 119.631 31.7594 119.251C31.5137 118.871 31.3127 118.352 31.3127 118.098C31.3127 117.845 31.5137 117.948 31.7594 118.329C32.0052 118.709 32.2062 119.228 32.2062 119.482Z" fill="black"/>
</svg>
