<svg width="140" height="140" viewBox="0 0 140 140" fill="none" xmlns="http://www.w3.org/2000/svg">
<path fill-rule="evenodd" clip-rule="evenodd" d="M117.478 31.6323C112.744 33.3285 110.324 36.7544 110.361 41.7053C110.389 45.4966 111.643 48.0599 119.355 60.0989C125.891 70.3025 126.169 70.8803 125.342 72.5444C124.501 74.2351 121.562 74.2566 120.728 72.578C119.989 71.0925 120.411 69.4284 121.604 69.1155C122.112 68.9823 122.527 68.6479 122.527 68.3726C122.527 67.8384 120.107 67.9846 107.551 69.2757C94.0586 70.6635 81.3696 73.742 75.7574 76.9886C72.4051 78.9281 70.3793 81.521 70.8246 83.3017C71.7327 86.9299 77.593 89.5753 99.6808 96.327C116.902 101.591 122.892 103.719 128.768 106.661C138.394 111.481 141.091 115.379 137.379 119.104C134.155 122.338 125.982 125.085 113.042 127.28C99.4442 129.587 89.8093 130.272 70.609 130.297C48.0663 130.325 39.1503 129.322 32.5946 126.019C26.344 122.87 25.691 118.632 30.4236 111.927C38.9726 99.814 42.6978 93.1119 43.4361 88.5154C43.9867 85.0865 43.7846 80.9933 42.9474 78.6222C42.0308 76.0264 39.031 72.3166 36.6623 70.8482C35.7013 70.2525 33.7918 68.6234 32.4189 67.2276C23.2583 57.9141 7.16657 60.5154 1.45054 72.2335C0.14509 74.9105 -0.00816873 75.73 0.000317946 79.9935C0.00830541 84.1213 0.211488 85.2643 1.51644 88.5154C3.28017 92.9096 7.86047 100.632 17.5533 115.554C28.2465 132.015 29.2514 134.574 26.2171 137.617C25.0225 138.815 24.3366 139.08 22.4346 139.08C20.5326 139.08 19.8467 138.815 18.652 137.617C16.6092 135.568 16.5788 132.348 18.5836 130.422C19.3489 129.687 20.7108 128.938 21.6104 128.757C22.6672 128.545 23.0746 128.258 22.7616 127.944C21.9853 127.165 18.8732 128.455 17.4589 130.14C16.5703 131.2 16.1944 132.239 16.1944 133.636C16.1944 137.964 18.9341 140.378 23.3611 139.952C26.7423 139.626 28.6748 137.59 28.6748 134.353C28.6748 131.425 27.0623 128.405 18.3106 114.942C2.67262 90.8855 0.230953 85.8275 0.872446 78.82C1.29229 74.2341 1.96124 72.5124 4.5961 69.2322C8.74608 64.0665 15.2768 61.71 22.0687 62.9271C25.6401 63.5674 29.7127 65.5624 31.4205 67.5089L32.4189 68.6469L31.1709 68.3C30.4845 68.1092 28.3393 67.8193 26.4034 67.6561C20.1167 67.1255 14.3443 69.7093 11.4518 74.3477C10.2023 76.3518 9.92574 77.3746 9.78146 80.5227C9.57279 85.0745 10.2073 87.6789 12.1947 90.4299C15.6333 95.1905 23.3566 96.7711 29.192 93.9079C32.3969 92.3354 34.0254 90.7418 35.9803 87.2638C37.2468 85.0114 37.3891 84.2835 37.3996 80.0045C37.4081 76.4354 37.1924 74.8218 36.5355 73.5402C36.0537 72.6005 35.7452 71.7459 35.85 71.6408C36.3008 71.1887 40.6575 76.1861 41.7143 78.3674C44.8754 84.8933 41.7847 94.6308 32.6101 107.05C26.4757 115.353 25.343 118.51 27.1527 122.258C28.3573 124.754 31.3256 126.939 35.3254 128.276C48.7108 132.749 88.2123 132.628 114.54 128.033C131.237 125.119 140 120.868 140 115.682C140 114.106 139.595 113.452 137.13 111.049C132.504 106.54 123.899 102.731 106.053 97.2942C90.4947 92.5536 79.9842 88.97 76.9485 87.371C74.2847 85.9677 71.6074 83.53 71.6074 82.5077C71.6074 81.4218 74.3915 78.9757 77.4782 77.3491C83.6779 74.0814 95.7834 71.3384 109.797 70.0257C113.092 69.7168 116.631 69.3548 117.66 69.2211L119.532 68.9783V70.9869C119.532 74.4524 122.644 76.1626 125.411 74.2186C127.408 72.8168 126.925 70.28 123.693 65.187C112.134 46.967 110.628 43.9131 111.284 40.0176C112.014 35.6815 115.511 32.5575 120.102 32.138C122.265 31.9402 123.255 32.13 125.273 33.1302L127.769 34.3668L124.524 34.4074C120.821 34.4529 118.393 35.4632 116.822 37.6115C115.367 39.6001 115.373 44.3241 116.832 46.2997C118.657 48.7689 120.908 49.9659 123.725 49.9639C128.878 49.9604 131.84 46.3337 131.381 40.5908C131.1 37.0878 131.69 36.9552 133.215 40.1768C135.266 44.5119 133.892 48.5816 127.053 58.4268C125.313 60.9325 125.001 64.0154 126.3 65.8748C127.474 67.556 128.158 67.2086 127.228 65.4042C125.968 62.9611 126.555 60.4739 129.247 56.8472C133.979 50.4715 135.854 44.7897 134.54 40.8001C133.713 38.2864 127.245 32.564 124.189 31.6413C121.364 30.7887 119.837 30.7867 117.478 31.6323ZM128.175 35.9123C130.652 36.8565 131.386 43.0155 129.377 46.0048C127.803 48.3473 126.265 49.0422 123.147 48.8189C116.505 48.3438 114.081 40.2429 119.488 36.5887C121.315 35.3546 125.796 35.0052 128.175 35.9123ZM30.791 69.3143C33.3035 70.0212 33.8522 70.3962 34.6349 71.9426C36.8954 76.4069 37.0691 82.5603 35.0563 86.8738C31.3391 94.8386 19.8546 96.9433 13.8601 90.7583C10.3546 87.1407 9.51538 80.9442 11.8407 75.8497C14.6219 69.7583 22.5953 67.0083 30.791 69.3143Z" fill="black"/>
</svg>
