<svg width="95" height="140" viewBox="0 0 95 140" fill="none" xmlns="http://www.w3.org/2000/svg">
<path fill-rule="evenodd" clip-rule="evenodd" d="M64.6655 1.50304C58.9885 3.86042 52.9146 5.77117 47.9584 6.75901C40.588 8.22833 33.8768 10.635 33.8768 11.8083C33.8768 12.5024 35.9159 12.7483 41.4812 12.7261C47.9168 12.7005 51.8029 12.0591 57.1924 10.1328C59.7549 9.21654 61.4022 8.853 62.9962 8.85152C65.8288 8.84855 67.3849 8.40936 69.6863 6.96303L71.528 5.80567L70.4641 6.9315C68.7856 8.70871 66.0461 9.72807 62.9035 9.74551C61.4241 9.75367 60.2141 9.81079 60.2141 9.87237C60.2141 10.2274 62.6267 10.825 65.0364 11.0668L67.8185 11.3461L65.0364 11.3962C63.5063 11.4233 61.6126 11.2679 60.8284 11.0501C60.0442 10.8324 59.3442 10.7126 59.2723 10.7842C59.2007 10.8558 59.2897 11.5776 59.4696 12.3878C59.7653 13.7169 59.7452 13.7907 59.2637 13.1412C58.9703 12.745 58.7303 12.2861 58.7303 12.1211C58.7303 11.956 58.5025 11.821 58.2243 11.821C57.9457 11.821 57.4683 12.4471 57.1631 13.212L56.6081 14.6031L56.1945 13.583C55.5517 11.9964 54.7348 12.2995 54.4451 14.2321C54.3075 15.1502 54.0649 15.9014 53.9061 15.9014C53.7474 15.9014 53.3178 15.1921 52.9509 14.3249L52.2843 12.7483L51.8615 15.345L51.4382 17.9416L51.1459 15.8038C50.9853 14.6279 50.7219 13.5844 50.5609 13.485C50.3999 13.3856 50.1458 14.1806 49.9967 15.2519C49.7882 16.746 49.6566 17.0268 49.4314 16.4578C49.27 16.0498 49.1261 15.2567 49.1116 14.6958C49.0975 14.1349 48.9187 13.6757 48.7147 13.6757C48.5018 13.6757 48.3438 14.8134 48.3438 16.3465C48.3438 19.254 47.9828 19.323 47.2395 16.5576C46.7962 14.9091 45.9601 13.7102 45.5439 14.1264C45.4418 14.228 45.0498 15.4258 44.6718 16.788C44.007 19.1854 42.9747 20.888 42.4012 20.5334C42.0121 20.2934 41.1945 21.3476 41.3674 21.8662C41.5985 22.5592 43.6958 20.5453 44.368 18.9851C44.7033 18.2072 45.157 16.8614 45.3766 15.9941C45.5962 15.1268 45.8395 14.4176 45.917 14.4176C46.0821 14.4176 47.0076 17.2335 47.6059 19.5556C47.8345 20.4433 48.1108 21.0802 48.2202 20.9708C48.3297 20.8617 48.5482 19.885 48.7062 18.8003C48.9566 17.0799 48.9989 17.0061 49.0393 18.2198C49.1098 20.3405 49.7408 19.8779 50.0397 17.4861C50.3402 15.0816 50.7204 15.5501 51.1604 18.8656C51.4612 21.1325 52.0451 21.3128 52.0748 19.1472C52.0863 18.2799 52.2116 16.9219 52.353 16.1288L52.6097 14.6869L53.3197 16.1288L54.0297 17.5707L54.4967 16.0869C54.7537 15.2708 54.9767 14.2177 54.9923 13.7465C55.0101 13.2176 55.1785 12.9872 55.4329 13.1449C55.6904 13.3036 55.7857 14.2169 55.6874 15.5779C55.601 16.7757 55.6273 17.7561 55.746 17.7561C55.8651 17.7561 56.439 16.5071 57.0217 14.9807C57.6045 13.4546 58.2162 12.2887 58.3805 12.3907C58.5452 12.4924 58.8891 13.5103 59.1447 14.6524C59.556 16.4904 59.648 16.6284 59.9437 15.8517C60.1277 15.3691 60.1881 14.1806 60.078 13.2105L59.8776 11.4467L61.4371 11.7234C65.3087 12.4104 68.9299 11.8254 71.6241 10.0786C73.8383 8.64268 73.579 8.34889 71.0992 9.48399C69.6369 10.1535 68.2036 10.483 66.3696 10.5716L63.7381 10.6988L65.8469 10.007C68.6072 9.10117 70.3261 8.01096 71.6486 6.32796C72.83 4.82451 74.0872 2.54726 73.7359 2.54726C73.6135 2.54726 72.6946 3.44347 71.6935 4.53851C70.5331 5.80826 69.1725 6.83171 67.9383 7.36254C65.7523 8.30289 61.41 8.87712 61.8485 8.16824C62.1757 7.63815 61.8678 7.62369 60.9315 8.12447C60.5368 8.33591 60.2223 8.37745 60.2323 8.2172C60.2423 8.05695 61.0354 7.54616 61.9943 7.0821C63.5478 6.33019 63.6368 6.31943 62.8107 6.9812C61.1214 8.33442 62.7013 7.76687 64.5698 6.34948C66.3362 5.00924 68.7459 2.51536 68.7459 2.02794C68.7459 1.89811 67.5359 2.71419 66.0565 3.8415C64.5772 4.96881 62.4914 6.34874 61.4204 6.9085C60.3499 7.46826 59.4737 8.12261 59.4729 8.36298C59.4711 9.44318 51.3718 11.6121 45.3762 12.1381C41.5421 12.4746 35.2927 12.2476 34.799 11.7542C34.0919 11.0472 40.9916 8.65455 47.4164 7.37886C49.6606 6.93335 52.9157 6.14175 54.6499 5.62019C58.2722 4.53072 66.7161 1.38211 68.2592 0.545627C70.1807 -0.495995 68.2251 0.0251877 64.6655 1.50304ZM40.3636 13.6679C41.0606 14.796 38.7384 16.2664 35.3606 16.8358C33.8182 17.0958 33.757 17.1467 34.5541 17.5061C35.6095 17.9813 38.3067 17.344 39.8302 16.2593C41.121 15.3401 41.4252 15.3372 40.9378 16.2479C40.1321 17.7535 40.6106 17.8515 42.025 16.4701C43.307 15.2185 43.5289 15.1187 43.7503 15.6951C43.8957 16.0742 43.6654 17.1585 43.2106 18.235C42.2291 20.5579 42.4872 21.078 43.5066 18.8315C44.3105 17.0595 44.4496 15.6573 43.9061 14.7982C43.6153 14.3382 43.4057 14.3972 42.5833 15.1691L41.6062 16.0869L41.8834 14.974C42.1345 13.9658 42.1026 13.909 41.5428 14.3701C41.0005 14.8171 40.9248 14.7833 40.9248 14.0919C40.9248 13.659 40.7479 13.3048 40.532 13.3048C40.3161 13.3048 40.24 13.4683 40.3636 13.6679ZM83.9904 18.9825C81.0547 20.0119 81.5388 21.9137 84.8124 22.2108C85.956 22.3143 87.0878 22.5955 87.327 22.8348C88.0523 23.56 87.4228 24.4332 86.1753 24.4332C85.4437 24.4332 84.6911 24.7759 84.079 25.388C83.2199 26.2471 83.1491 26.5283 83.3713 28.2013C83.7192 30.8246 84.9252 33.9016 86.5996 36.4385C87.389 37.6349 88.0352 38.7047 88.0352 38.816C88.0352 38.9272 86.9661 40.0408 85.6596 41.2905C83.8906 42.9832 83.1754 43.9681 82.8568 45.1506C82.3519 47.0258 82.8364 48.981 84.0093 49.8027C84.7386 50.3135 84.7278 50.3877 83.2455 55.0242C82.4187 57.6108 81.1426 61.9271 80.41 64.6154C79.677 67.3036 78.5679 71.0702 77.9447 72.9854C76.8986 76.2001 76.6234 76.6571 74.3554 78.938C72.2948 81.0105 71.1493 81.7739 67.2465 83.6762C55.4174 89.4411 40.5283 96.1441 37.8059 96.9298C34.8546 97.7815 29.9088 98.3746 21.7939 98.8502L17.686 99.0909L11.5929 97.3289C6.56502 95.8748 5.16878 95.3147 3.61043 94.1269C1.49676 92.5166 0.436223 92.1657 2.16076 93.6476L3.2736 94.6035L2.06357 93.8027C1.39809 93.3624 0.941827 92.8594 1.04977 92.685C1.34282 92.2102 0.48259 91.8062 0.0660156 92.2228C-0.390621 92.6794 1.59914 94.4066 3.64455 95.3288C4.46917 95.7004 5.53639 96.6041 6.04644 97.3619C6.90148 98.6332 6.98568 99.1848 7.27947 105.445C7.92826 119.265 6.4504 131.704 3.44535 137.717C2.00719 140.595 2.26611 140.821 3.76993 138C6.51309 132.853 8.0069 122.711 7.93085 109.751C7.87372 99.9775 7.8192 99.4322 6.71971 97.6027C6.32131 96.9394 6.13435 96.3971 6.30425 96.3971C6.47414 96.3971 8.94985 97.0648 11.8054 97.8809C17.5718 99.5286 19.3494 99.6551 27.3852 98.987C37.1115 98.1784 38.0911 97.8749 52.307 91.2684C65.2931 85.233 70.5439 82.6308 72.6253 81.199C74.5861 79.8498 76.5933 77.5622 77.6349 75.4897C78.3253 74.1157 78.3865 74.0716 78.2158 75.0676C76.8166 83.2448 76.9694 95.8184 78.6079 107.34C79.3365 112.462 81.1689 121.643 81.9027 123.847C82.6242 126.014 82.4554 124.883 81.0454 118.098C76.863 97.9755 76.6567 81.0294 80.4245 67.0922C81.998 61.2709 82.4717 60.0449 83.1498 60.036C84.3947 60.0197 86.8515 58.6056 88.3791 57.0265C90.2672 55.0746 92.5263 50.5476 93.6261 46.5116C94.3739 43.7692 94.4036 43.2369 94.0301 39.2782C93.8086 36.9282 93.6588 32.9186 93.697 30.3684C93.7597 26.2156 93.6762 25.5286 92.8968 23.787C91.8593 21.4682 89.7371 19.4384 87.7833 18.8957C86.0406 18.4116 85.5892 18.422 83.9904 18.9825ZM89.3194 20.1395C90.3518 20.7445 91.2098 21.6859 91.9394 23.0143C93.0118 24.9674 93.0278 25.0842 93.3468 33.3359C93.7764 44.4399 93.7708 44.5534 92.645 47.9806C90.6596 54.0241 87.8872 57.8471 84.5724 59.1131C83.6116 59.48 82.7288 59.6836 82.6105 59.5653C82.4921 59.447 83.0163 57.3611 83.7749 54.9303L85.1544 50.5101L86.9379 49.7567C88.4666 49.1105 88.7849 48.79 89.1688 47.5095C89.989 44.7711 88.6736 42.6679 87.2443 44.4325C86.873 44.891 86.209 46.2542 85.7687 47.462C85.3284 48.6694 84.8332 49.6576 84.6681 49.6576C84.0071 49.6576 83.2129 47.922 83.2129 46.4779C83.2129 44.6769 84.5071 42.6679 86.8749 40.7924C87.7169 40.1254 88.4061 39.3134 88.4061 38.9877C88.4061 38.662 87.7507 37.3822 86.9494 36.144C85.2026 33.4439 83.9548 29.8921 83.9548 27.62C83.9548 25.7987 84.1848 25.5431 86.3307 24.9803C89.5323 24.1405 88.6098 21.8366 85.0721 21.8366C82.7492 21.8366 81.8904 20.9782 83.1732 19.9392C84.4533 18.9027 87.3712 18.9977 89.3194 20.1395ZM23.1935 33.7811C22.5603 34.4143 22.6423 35.1974 23.4862 36.5817C23.8905 37.2446 24.0793 37.7873 23.9061 37.7873C23.7329 37.7873 23.1286 38.455 22.5629 39.2711C21.1136 41.3625 20.1929 41.2609 17.5236 38.7147C16.3291 37.5755 15.0423 36.6745 14.6098 36.6745C13.1393 36.6745 11.5049 40.8654 12.1648 42.9439C12.4954 43.9859 13.0885 43.928 15.7274 42.5959L17.9587 41.4697L19.0993 42.2817C20.6117 43.3586 22.3774 46.1952 22.3774 47.5477C22.3774 48.4962 22.2732 48.6012 21.5428 48.3883C18.7629 47.5781 18.4198 47.6449 16.6626 49.3349C15.0564 50.8799 9.33452 59.9192 8.11447 62.8397C7.66266 63.9202 7.63855 64.3527 7.99318 64.9926C8.23726 65.4333 8.38935 66.0261 8.33111 66.3099C8.09148 67.475 14.8954 73.3301 17.85 74.5015C21.3369 75.8837 35.4159 72.5726 39.6458 69.3758C42.6178 67.1297 46.9479 60.8584 46.1722 59.924C45.874 59.5645 45.8866 59.3086 46.2197 58.9684C46.8896 58.2844 40.0178 51.7624 36.7246 49.957C33.3059 48.0826 29.9815 46.8132 27.7024 46.5124C25.9352 46.2791 25.7015 46.3425 24.5493 47.3715C23.3515 48.4413 23.3048 48.5849 23.3048 51.2034C23.3048 52.6994 23.422 54.6113 23.5652 55.4518C23.8241 56.9698 23.8156 56.9846 22.2669 57.6775C21.4096 58.0611 19.099 59.911 17.1326 61.7888C13.4079 65.345 12.475 65.8443 10.2344 65.4808C7.87002 65.0969 7.75243 64.6343 9.27554 61.7083C10.0178 60.2831 11.433 57.8248 12.4208 56.246C13.4083 54.6669 14.2166 53.2755 14.2166 53.1535C14.2166 52.5392 16.7449 49.5311 17.8192 48.8671C18.9925 48.1419 19.1275 48.1345 20.7831 48.6984C22.7951 49.3839 23.2629 49.0615 22.8886 47.2465C22.528 45.4993 21.8269 44.3724 19.9956 42.5974C18.2065 40.8636 17.7268 39.9425 19.1216 40.9192C20.6655 42.0009 21.1299 41.7832 23.4328 38.9002C24.1724 37.9739 24.1747 37.9735 25.3413 38.6579C25.9838 39.0352 26.617 39.2355 26.7487 39.1038C27.1541 38.6984 26.242 37.6085 25.3906 37.482C24.3753 37.3314 23.3953 35.8721 23.5544 34.7485C23.6642 33.9743 23.8575 33.8968 25.5702 33.9395C28.4354 34.0107 29.5853 34.7003 29.7281 36.433C29.7927 37.2153 29.6758 38.3408 29.4692 38.9343C29.2567 39.5434 29.2385 40.013 29.4273 40.013C29.796 40.013 30.5331 37.6642 30.536 36.479C30.5372 36.065 30.2931 35.3769 29.9937 34.9492C29.0734 33.6353 24.1799 32.7947 23.1935 33.7811ZM16.4219 38.3226C17.4041 39.3364 17.5046 39.5593 16.9074 39.4032C15.8725 39.1327 15.5067 39.8832 16.4319 40.3784C16.8455 40.5998 17.1841 40.9074 17.1841 41.0613C17.1841 41.2156 16.2479 41.8158 15.1031 42.3956C13.4053 43.2551 12.9628 43.3549 12.6979 42.9368C12.2331 42.2027 12.285 41.4363 12.9231 39.628C13.9725 36.6544 14.5838 36.4263 16.4219 38.3226ZM17.926 40.3839C17.926 40.588 17.8526 40.7549 17.7625 40.7549C17.6723 40.7549 17.4957 40.588 17.3696 40.3839C17.2435 40.1799 17.3173 40.013 17.5332 40.013C17.7491 40.013 17.926 40.1799 17.926 40.3839ZM88.7778 44.8368C89.4266 46.0491 88.6016 48.4246 87.2981 49.0986C85.5613 49.9971 85.3885 49.7971 86.156 47.7773C86.853 45.9433 87.8876 44.0934 88.2162 44.0934C88.3064 44.0934 88.559 44.428 88.7778 44.8368ZM32.2584 48.2992C33.5103 48.8278 35.5969 49.8776 36.8952 50.6318C39.8031 52.3211 46.3399 58.5615 45.6559 58.9955C45.3999 59.158 43.9655 59.2934 42.468 59.2967C40.3306 59.3012 39.0148 59.043 36.3473 58.0967C33.2529 56.9987 32.5618 56.8911 28.6082 56.8911H24.2667L24.0793 55.5928C23.3219 50.3409 23.5311 48.2799 24.9091 47.4216C25.9155 46.7947 29.7927 47.2576 32.2584 48.2992ZM36.0153 58.517C37.9057 59.1528 39.9503 59.6732 40.5594 59.6732C41.1685 59.6732 41.6667 59.8402 41.6667 60.0442C41.6667 60.4526 40.966 60.5049 34.4332 60.5839C31.985 60.6132 29.122 60.7738 28.0711 60.9404C26.3039 61.2201 26.1177 61.1771 25.5924 60.3654C25.2797 59.8828 24.9151 59.0437 24.7819 58.501C24.467 57.2198 24.9551 57.0818 29.24 57.2383C31.7587 57.3307 33.4224 57.6445 36.0153 58.517ZM24.6157 59.3409C25.3012 61.4174 26.3499 62.0666 28.1928 61.5551C28.9729 61.3384 31.6975 61.1574 34.2478 61.1526C36.798 61.1478 40.3762 60.8996 42.199 60.601C44.0219 60.302 45.5958 60.1399 45.6963 60.2404C45.9352 60.4793 44.4414 63.1698 43.0251 65.052C40.0349 69.0248 38.9031 69.7853 33.0414 71.7602C28.4962 73.2915 24.0077 74.2218 20.8936 74.2782C17.646 74.3368 15.7541 73.3627 11.7461 69.5686L8.57556 66.5677L11.4578 66.081C13.0433 65.8132 15.6061 65.0234 17.1534 64.326C18.941 63.52 20.9804 62.9316 22.7484 62.7117L25.5305 62.3656L23.1193 62.3303C21.2679 62.3036 20.0672 62.5481 17.9468 63.3846L15.1859 64.4733L17.7613 61.8466C20.0412 59.5219 22.5136 57.8508 23.7091 57.8267C23.9313 57.8222 24.3394 58.5036 24.6157 59.3409Z" fill="black"/>
</svg>
