<svg width="140" height="81" viewBox="0 0 140 81" fill="none" xmlns="http://www.w3.org/2000/svg">
<path d="M69.7146 61.6092C69.7146 58.7855 72.0343 56.5194 74.9247 56.5194C77.8152 56.5194 80.1338 58.7855 80.1338 61.6092C80.1338 64.4329 77.8152 66.699 74.9247 66.699C74.2399 66.7012 73.5614 66.571 72.9283 66.3159C72.2952 66.0609 71.72 65.6861 71.2357 65.213C70.7515 64.74 70.3678 64.178 70.1067 63.5595C69.8457 62.941 69.7124 62.2782 69.7146 61.6092ZM90.9106 61.6092C90.9106 58.7855 93.2303 56.5194 96.1207 56.5194C99.0101 56.5194 101.33 58.7855 101.33 61.6092C101.33 64.4329 99.0101 66.699 96.1207 66.699C95.4359 66.7012 94.7574 66.571 94.1243 66.3159C93.4912 66.0609 92.916 65.6861 92.4317 65.213C91.9475 64.74 91.5638 64.178 91.3027 63.5595C91.0417 62.941 90.9084 62.2782 90.9106 61.6092ZM41.7749 61.6092C41.7726 60.9402 41.9058 60.2773 42.1668 59.6588C42.4279 59.0403 42.8116 58.4783 43.2958 58.0052C43.7801 57.5321 44.3554 57.1573 44.9885 56.9023C45.6217 56.6473 46.3002 56.5172 46.985 56.5194C49.8744 56.5194 52.1941 58.7855 52.1941 61.6092C52.1941 64.4329 49.8744 66.699 46.985 66.699C46.3002 66.7013 45.6217 66.5711 44.9885 66.3161C44.3554 66.0611 43.7801 65.6863 43.2958 65.2132C42.8116 64.7401 42.4279 64.1782 42.1668 63.5596C41.9058 62.9411 41.7726 62.2782 41.7749 61.6092ZM20.5789 61.6092C20.5789 58.7855 22.8975 56.5194 25.788 56.5194C26.4728 56.5172 27.1513 56.6473 27.7845 56.9023C28.4176 57.1573 28.9929 57.5321 29.4772 58.0052C29.9614 58.4783 30.3451 59.0403 30.6062 59.6588C30.8672 60.2773 31.0004 60.9402 30.9981 61.6092C31.0004 62.2782 30.8672 62.9411 30.6062 63.5596C30.3451 64.1782 29.9614 64.7401 29.4772 65.2132C28.9929 65.6863 28.4176 66.0611 27.7845 66.3161C27.1513 66.5711 26.4728 66.7013 25.788 66.699C25.1032 66.7011 24.4248 66.5709 23.7917 66.3159C23.1587 66.0608 22.5835 65.686 22.0994 65.2129C21.6152 64.7398 21.2316 64.1779 20.9707 63.5594C20.7097 62.941 20.5766 62.2782 20.5789 61.6092ZM63.434 52.6153H58.9023V70.4286H63.434V52.6153ZM30.9626 70.4286H35.4943V52.6153H30.9626V54.045C29.428 52.9993 27.5724 52.407 25.5747 52.407C20.3646 52.407 16.1538 56.5194 16.1538 61.6092C16.1538 66.7337 20.3646 70.8115 25.5747 70.8115C27.5724 70.8115 29.428 70.2192 30.9626 69.1735V70.4286ZM101.294 70.4286H105.826V52.6153H101.294V54.045C99.7597 52.9993 97.9041 52.407 95.9064 52.407C90.6963 52.407 86.4866 56.5194 86.4866 61.6092C86.4866 66.7337 90.6963 70.8115 95.9064 70.8115C97.9041 70.8115 99.7597 70.2192 101.294 69.1735V70.4286ZM107.504 64.6412C107.646 68.2319 110.786 70.7768 116.032 70.7768C120.314 70.7768 123.846 68.9641 123.846 64.9558C123.846 62.1668 122.24 60.5288 118.529 59.8313L115.639 59.2737C113.783 58.9254 112.499 58.5762 112.499 57.4957C112.499 56.3111 113.748 55.7882 115.318 55.7882C117.602 55.7882 118.529 56.9034 118.6 58.2279H123.169C122.919 54.7414 120.064 52.407 115.461 52.407C110.715 52.407 107.896 54.9508 107.896 58.2627C107.896 62.3067 111.25 62.9685 114.141 63.4913L116.532 63.9101C118.244 64.2236 118.993 64.7117 118.993 65.688C118.993 66.5591 118.137 67.4302 116.103 67.4302C113.141 67.4302 112.178 65.9321 112.142 64.6412H107.504ZM52.1586 46.5502V54.045C50.624 52.9993 48.7684 52.407 46.7707 52.407C41.5606 52.407 37.3498 56.5194 37.3498 61.6092C37.3498 66.7337 41.5606 70.8115 46.7707 70.8115C48.7684 70.8115 50.624 70.2192 52.1586 69.1735V70.4286H56.6903V46.5502H52.1586ZM80.0983 46.5502V54.045C78.5636 52.9993 76.7081 52.407 74.7104 52.407C69.5003 52.407 65.2906 56.5194 65.2906 61.6092C65.2906 66.7337 69.5003 70.8115 74.7104 70.8115C76.7081 70.8115 78.5636 70.2192 80.0983 69.1735V70.4286H84.63V46.5502H80.0983ZM27.9289 41.2868L30.9981 46.5502H52.1586L43.7726 32.397L27.9289 41.2868ZM63.434 50.9772V46.5502H80.0983L62.328 16.5016L46.4487 25.3903L58.9023 46.5502V50.9772H63.434ZM86.843 46.5502H108.039L80.6335 0.222168L64.7909 9.14565L86.843 46.5502Z" fill="#4C4C4C"/>
</svg>
