<svg width="140" height="93" viewBox="0 0 140 93" fill="none" xmlns="http://www.w3.org/2000/svg">
<path d="M16.1536 40.1501V45.9362L31.9628 44.2193V37.9566L16.1536 40.1501ZM21.1986 46.2879V66.1154H26.9865V45.7042L21.1986 46.2879ZM34.0979 37.6601V66.1154H40.1967V36.8138L34.0979 37.6601ZM41.333 36.6557V43.2019L50.1397 42.2452V35.434L41.333 36.6557ZM41.333 48.0739V54.7388L47.114 54.4275V47.5823L41.333 48.0739ZM41.333 59.543V66.1154H50.1397V59.2807L41.333 59.543ZM72.9149 32.2636V66.1154H80.91V31.1543L72.9149 32.2639M82.4031 30.9469V38.7336L94.0544 37.4688V29.3298L82.4031 30.9469ZM82.4031 44.5897V52.5206L90.0399 52.1089V43.944L82.4031 44.5897ZM82.4031 58.3176V66.1157H94.0544V57.9699L82.4031 58.3176ZM52.4699 35.1101V66.1157H59.4172V34.146L52.4699 35.1104M60.7138 58.966V66.1154H70.7982V58.6652L60.7138 58.966ZM120.176 28.947C117.649 26.5899 113.944 25.6231 109.892 26.1979V34.8343C111.533 34.7443 112.863 35.3456 113.455 36.5562C114.391 38.4649 113.426 41.3287 111.149 43.9819C107.635 48.0764 98.2897 56.457 98.2897 56.457L111.705 56.0215C119.902 48.1149 122.845 43.3156 123.373 37.3257C123.651 34.1568 122.486 31.1032 120.176 28.947ZM123.846 66.1157V57.0789L96.6362 57.8883M96.6362 57.8883L96.6391 66.1154H123.846M108.328 26.3914C100.423 28.0538 96.5417 33.7956 96.9896 43.1646L105.418 42.4262C105.034 37.1331 106.673 35.8775 108.332 35.1871L108.328 26.3917" fill="#4C4C4C"/>
</svg>
