<svg width="140" height="54" viewBox="0 0 140 54" fill="none" xmlns="http://www.w3.org/2000/svg">
<g clip-path="url(#clip0_1_164)">
<path d="M132.308 53.3209L140 26.9934L129.231 23.5121L131.868 11.7626C110.623 2.27967 83.1502 0.103843 69.8901 0.0131836C56.7766 0.103843 29.304 2.27967 8.13187 11.7626L10.5495 23.5121L0 26.9934L7.69231 53.3209H132.308Z" fill="#4C4C4C"/>
<path d="M47.2529 35.4787C47.2529 35.4787 50.7328 19.9578 55.3848 10.6743C54.0295 10.4386 51.1467 9.76047 48.5716 10.2392C46.4764 11.1167 45.513 12.3425 43.9562 17.637L41.9782 25.4699H36.2639L39.5606 11.9798C39.8793 10.7106 39.1943 9.76047 37.5826 9.80399C35.0735 9.76047 26.6925 9.62267 21.3189 11.7622C12.0039 15.2182 15.4324 23.6277 16.9233 26.993C18.4507 30.1588 24.7731 26.8951 23.7365 24.8172C19.5496 15.3342 24.4984 14.1085 26.3738 13.2853C28.0661 12.4803 31.6412 12.2083 30.7694 16.1139L28.1321 26.993C27.5167 29.7491 24.6339 41.3063 19.7804 42.4414C15.0185 43.4858 13.6449 32.0627 13.6266 28.9513C13.3665 27.1635 6.63756 28.799 6.5936 33.5205C5.81338 44.3017 14.0551 48.6534 22.198 45.0524C31.6742 40.6717 33.5643 36.9583 35.3848 29.8216V29.1688H40.8793L37.5826 42.2238C36.4471 45.9916 42.85 47.6126 46.8134 43.5293C47.3665 42.8729 48.0149 41.7306 46.8134 40.7007C46.4068 39.5584 46.5826 37.9447 47.2529 35.4787ZM78.242 10.8919C75.872 12.7486 75.1833 16.1501 76.4837 17.4194C77.9306 18.598 80.883 17.9887 83.0771 15.8963C84.524 14.3841 84.8134 11.7912 84.176 10.6743C83.5606 9.62267 80.9526 9.35069 78.242 10.8919ZM73.4068 21.9886C75.5936 20.7049 76.9672 20.5018 78.4617 20.0304C79.9892 19.4139 82.1907 19.82 81.3189 22.6414C80.5423 25.5352 77.6559 34.7825 76.9233 38.7425C76.6229 39.9464 76.557 40.2873 77.1431 41.1359C78.3335 42.3979 77.3921 43.4604 76.7035 43.9645C75.5973 44.5737 72.4361 45.3896 69.8903 45.7051C67.491 45.93 67.491 43.4822 68.1321 41.3535C68.8647 39.1341 72.0881 26.993 72.0881 26.993C72.4361 25.5352 72.3006 24.8535 72.0881 24.5996C71.5973 24.1608 71.4727 23.0185 73.4068 21.9886ZM84.6156 24.5996C85.1431 25.6694 84.8683 26.6231 84.6156 27.6458L80.8793 41.7886C80.198 44.5737 81.2969 45.8647 83.7365 45.7051C86.3775 45.7269 87.9562 44.7768 88.5716 42.4414L90.9892 33.0853C91.7365 30.2241 93.6595 25.8072 95.6046 25.6875C97.3665 25.3974 98.1943 25.4627 96.9233 29.8216L93.8464 40.2656C93.0405 43.4169 93.1101 45.7776 96.7035 45.9227C99.5643 45.9336 101.352 44.5737 102.418 43.9645C103.41 43.2138 103.48 41.9881 102.638 41.1359C101.971 40.494 101.557 40.0153 102.198 37.8721L106.154 25.6875C107.055 22.8154 106.846 19.9578 103.077 19.8128C99.2896 19.82 96.0625 22.2026 94.2859 23.2941C94.2786 21.8617 94.1394 19.2108 91.4288 20.0304C88.5057 20.9769 86.3116 21.8617 84.8354 22.6414C83.7694 23.0185 83.7694 23.9686 84.6156 24.5996ZM110.33 28.0809C111.312 27.7799 114.747 27.8452 116.923 27.8633L105.275 41.3535C103.894 42.804 103.41 45.8647 107.473 45.9227H120.44C124.429 45.8647 127.381 43.7578 130.55 38.5249C133.356 33.9883 133.564 29.6149 129.011 28.5161C126.766 28.1172 126.213 28.799 125.495 29.8216C124.703 30.837 124.019 32.0627 125.275 33.0853C126.213 33.6946 128.55 33.6257 128.132 35.9139C127.865 38.1115 125.802 38.1804 121.978 38.3073L113.187 38.5249L125.714 23.2941C126.901 21.5208 125.942 20.0956 123.956 20.0304L114.066 20.248C111.931 20.364 110.487 21.3177 109.231 23.5117L107.912 25.9051C107.121 27.7074 108.081 28.8642 110.33 28.0809ZM58.4617 32.8678C68.9599 32.8786 71.4654 24.1536 69.8903 21.5535C68.4544 19.0041 64.7438 20.0267 60.8793 21.3359C51.9013 24.1753 50.1834 34.0318 50.1101 37.8721C49.9086 41.6472 50.9416 45.9989 55.6046 45.9227C60.2786 45.7269 64.1247 43.7578 65.7145 41.5711C67.1504 39.5403 66.1174 38.5213 64.6156 39.1776C58.3592 41.3063 57.8757 38.7243 58.242 33.5205C58.3042 33.3283 58.3372 33.0998 58.4617 32.8678Z" fill="white"/>
<path d="M59.1211 29.604C60.1211 25.3285 62.1101 22.8481 63.0771 23.0765C64.1248 23.2216 63.7804 24.4437 63.2969 26.1227C62.2713 29.6802 60.7585 29.7491 59.1211 29.604Z" fill="#4C4C4C"/>
</g>
<defs>
<clipPath id="clip0_1_164">
<rect width="140" height="53.3333" fill="white"/>
</clipPath>
</defs>
</svg>
