<svg width="140" height="44" viewBox="0 0 140 44" fill="none" xmlns="http://www.w3.org/2000/svg">
<g clip-path="url(#clip0_1_169)">
<path d="M18.4885 25.1499C18.9523 28.1372 20.1852 30.7402 22.1871 32.9591C22.1918 32.964 22.1952 32.97 22.1969 32.9766C22.1985 32.9832 22.1984 32.9902 22.1966 32.9969C22.1948 33.0035 22.1913 33.0097 22.1864 33.0148C22.1815 33.0199 22.1755 33.0237 22.1688 33.026C19.2533 33.9012 16.3242 34.0206 13.3814 33.3842C8.74763 32.3807 4.66171 29.3981 2.31101 25.3046C0.51852 22.1826 -0.193217 18.7889 0.175797 15.1233C0.388942 13.0104 1.02274 10.9834 2.0772 9.04241C3.93918 5.61194 6.71148 3.09112 10.3941 1.47995C12.242 0.671574 14.5519 0.168432 16.6631 0.140557C20.895 0.0829489 24.6148 1.34568 27.8223 3.92876C31.1983 6.64656 33.473 10.6313 33.9617 14.9839C34.3176 18.1487 33.8298 21.1694 32.4983 24.0461C32.4956 24.052 32.4911 24.057 32.4854 24.0604C32.4797 24.0637 32.4732 24.0653 32.4666 24.0648C32.46 24.0643 32.4537 24.0619 32.4485 24.0578C32.4434 24.0537 32.4396 24.0482 32.4378 24.0419C31.018 19.4955 27.5138 15.9582 22.9941 14.3707C21.3425 13.79 19.5411 13.5154 17.5899 13.547C17.527 13.5479 17.5007 13.579 17.511 13.6404C18.0603 17.0123 19.5068 19.8365 21.8504 22.113C24.4072 24.5975 27.4955 26.0164 31.1152 26.3694C31.1209 26.3702 31.1263 26.3723 31.131 26.3757C31.1356 26.379 31.1393 26.3835 31.1417 26.3887C31.144 26.3938 31.1451 26.3995 31.1446 26.4052C31.1442 26.4108 31.1423 26.4163 31.1392 26.421C30.5326 27.2954 29.8612 28.0991 29.1251 28.8322C29.1164 28.8412 29.1046 28.8465 29.0922 28.847C29.0798 28.8476 29.0678 28.8432 29.0589 28.835C26.0664 26.2519 22.573 24.9887 18.5786 25.0454C18.5082 25.0463 18.4781 25.0812 18.4885 25.1499ZM22.4716 3.03397C20.6321 2.31898 18.6265 2.02211 16.6209 2.04581C16.5645 2.04674 16.5406 2.07461 16.549 2.12943C17.4533 8.03752 21.5871 12.6843 27.349 14.3582C28.704 14.7521 30.2265 14.9417 31.9166 14.9268C31.9777 14.9259 32.0035 14.8957 31.9941 14.8362C31.149 9.41733 27.6223 5.03957 22.4716 3.03397Z" fill="#4C4C4C"/>
<path d="M51.1989 28.9899H43.2186C43.2125 28.9899 43.2065 28.9887 43.2008 28.9864C43.1952 28.9841 43.1901 28.9807 43.1857 28.9764C43.1814 28.9721 43.178 28.9671 43.1757 28.9615C43.1733 28.9559 43.1721 28.9499 43.1721 28.9439V5.08994C43.1721 5.0839 43.1733 5.07792 43.1757 5.07234C43.178 5.06676 43.1814 5.06169 43.1857 5.05742C43.1901 5.05315 43.1952 5.04976 43.2008 5.04745C43.2065 5.04513 43.2125 5.04395 43.2186 5.04395H48.3087C48.3148 5.04395 48.3209 5.04513 48.3265 5.04745C48.3322 5.04976 48.3373 5.05315 48.3416 5.05742C48.3459 5.06169 48.3493 5.06676 48.3517 5.07234C48.354 5.07792 48.3552 5.0839 48.3552 5.08994L48.3538 25.5055C48.354 25.5163 48.358 25.5266 48.3651 25.5348L51.2341 28.9146C51.2397 28.9213 51.2432 28.9294 51.2443 28.938C51.2455 28.9466 51.2441 28.9553 51.2404 28.9632C51.2367 28.9711 51.2309 28.9778 51.2235 28.9825C51.2162 28.9872 51.2076 28.9898 51.1989 28.9899Z" fill="#4C4C4C"/>
<path d="M75.6018 28.9899H67.6173C67.6054 28.9899 67.5939 28.9852 67.5855 28.9768C67.577 28.9685 67.5723 28.9571 67.5723 28.9453V5.08855C67.5723 5.07672 67.577 5.06537 67.5855 5.05701C67.5939 5.04864 67.6054 5.04395 67.6173 5.04395H72.7103C72.7222 5.04395 72.7337 5.04864 72.7422 5.05701C72.7506 5.06537 72.7554 5.07672 72.7554 5.08855V25.5069C72.7554 25.5177 72.7594 25.5281 72.7666 25.5362L75.6371 28.916C75.6428 28.9225 75.6465 28.9306 75.6477 28.9392C75.6489 28.9478 75.6476 28.9565 75.6438 28.9643C75.6401 28.9722 75.6341 28.9787 75.6267 28.9833C75.6192 28.9878 75.6106 28.9901 75.6018 28.9899Z" fill="#4C4C4C"/>
<path d="M60.9409 6.35693H52.9494C52.9144 6.35693 52.886 6.38501 52.886 6.41965V8.92561C52.886 8.96024 52.9144 8.98832 52.9494 8.98832H60.9409C60.9759 8.98832 61.0043 8.96024 61.0043 8.92561V6.41965C61.0043 6.38501 60.9759 6.35693 60.9409 6.35693Z" fill="#4C4C4C"/>
<path d="M140 6.3584V8.9884H77.362C77.3112 8.9884 77.2859 8.96331 77.2859 8.91313V6.4462C77.2859 6.38767 77.3155 6.3584 77.3746 6.3584H140Z" fill="#4C4C4C"/>
<path d="M55.8042 16.3932L52.9464 13.0273C52.9405 13.0204 52.9367 13.0119 52.9355 13.003C52.9343 12.994 52.9357 12.9849 52.9395 12.9766C52.9434 12.9684 52.9495 12.9615 52.9572 12.9566C52.9649 12.9518 52.9739 12.9492 52.9831 12.9492L60.9563 12.9506C60.9626 12.9506 60.9688 12.9518 60.9746 12.9542C60.9804 12.9566 60.9857 12.9601 60.9902 12.9645C60.9946 12.9689 60.9981 12.9741 61.0005 12.9799C61.0029 12.9856 61.0042 12.9918 61.0042 12.998V28.9424C61.0042 28.955 60.9991 28.9671 60.9902 28.976C60.9812 28.9848 60.969 28.9898 60.9563 28.9898H55.8633C55.8506 28.9898 55.8385 28.9848 55.8295 28.976C55.8205 28.9671 55.8154 28.955 55.8154 28.9424V16.4224C55.8152 16.4117 55.8112 16.4014 55.8042 16.3932Z" fill="#4C4C4C"/>
<path d="M80.207 16.3945L77.3436 13.023C77.3381 13.0163 77.3345 13.0082 77.3334 12.9996C77.3323 12.991 77.3336 12.9823 77.3373 12.9744C77.341 12.9666 77.3468 12.9599 77.3542 12.9552C77.3615 12.9504 77.3701 12.9479 77.3788 12.9478L85.3591 12.9519C85.3652 12.9519 85.3713 12.9531 85.3769 12.9554C85.3826 12.9577 85.3877 12.9611 85.392 12.9654C85.3963 12.9697 85.3997 12.9747 85.4021 12.9803C85.4044 12.9859 85.4056 12.9919 85.4056 12.9979V28.9438C85.4056 28.9498 85.4044 28.9558 85.4021 28.9614C85.3997 28.9669 85.3963 28.972 85.392 28.9763C85.3877 28.9806 85.3826 28.9839 85.3769 28.9863C85.3713 28.9886 85.3652 28.9898 85.3591 28.9898H80.2634C80.251 28.9898 80.2392 28.9849 80.2305 28.9763C80.2218 28.9677 80.2169 28.956 80.2169 28.9438L80.2183 16.4238C80.2181 16.413 80.2141 16.4026 80.207 16.3945Z" fill="#4C4C4C"/>
<path d="M101.249 19.3758C101.248 18.7635 101.235 18.1739 101.21 17.6071C101.168 16.6956 100.487 16.389 99.6578 16.3973C97.6672 16.4187 95.7056 16.4201 93.7733 16.4015C93.7348 16.4006 93.7033 16.3857 93.6789 16.3569L90.8366 13.005C90.8057 12.9678 90.8146 12.9492 90.8634 12.9492C94.4371 12.9567 98.216 12.9594 102.2 12.9576C104.606 12.9576 106.4 14.7109 106.404 17.1179C106.409 20.9749 106.41 24.9178 106.407 28.9466C106.407 28.9577 106.403 28.9683 106.395 28.9762C106.387 28.984 106.377 28.9884 106.366 28.9884C102.071 28.9922 97.9775 28.9912 94.0845 28.9856C92.0972 28.9829 90.4014 27.6212 90.0564 25.6894C89.9071 24.8518 89.9155 23.642 90.0521 22.796C90.2902 21.3173 91.4226 20.0713 92.8747 19.6545C93.3329 19.5226 93.9695 19.4594 94.7845 19.465C97.0681 19.4808 99.1916 19.4831 101.155 19.4719C101.219 19.471 101.25 19.439 101.249 19.3758ZM101.227 26.1828V22.1828C101.227 22.1684 101.221 22.1545 101.211 22.1443C101.2 22.1342 101.186 22.1284 101.172 22.1284H96.8845C96.4247 22.1284 95.9837 22.3048 95.6585 22.6187C95.3334 22.9326 95.1507 23.3584 95.1507 23.8023V24.5633C95.1507 25.0072 95.3334 25.433 95.6585 25.7469C95.9837 26.0608 96.4247 26.2372 96.8845 26.2372H101.172C101.186 26.2372 101.2 26.2315 101.211 26.2213C101.221 26.2111 101.227 26.1972 101.227 26.1828Z" fill="#4C4C4C"/>
<path d="M117.85 16.4876V28.9561C117.85 28.9649 117.846 28.9734 117.84 28.9797C117.833 28.986 117.825 28.9895 117.816 28.9895H112.712C112.699 28.9895 112.687 28.9845 112.678 28.9756C112.669 28.9667 112.664 28.9547 112.664 28.9421V16.5016C112.664 16.4449 112.643 16.3896 112.606 16.3455L109.761 12.9907C109.757 12.9866 109.755 12.9815 109.754 12.9761C109.754 12.9708 109.755 12.9653 109.757 12.9604C109.759 12.9555 109.763 12.9514 109.768 12.9486C109.773 12.9459 109.778 12.9445 109.783 12.9447C114.585 12.9568 119.368 12.9554 124.131 12.9405C125.066 12.9377 125.738 12.9912 126.148 13.1008C127.503 13.4632 128.622 14.5754 128.981 15.9176C129.085 16.3078 129.136 16.8412 129.133 17.5176C129.12 21.618 129.122 25.4234 129.138 28.9338C129.138 28.9709 129.12 28.9895 129.083 28.9895H123.983C123.972 28.9895 123.962 28.9851 123.954 28.9773C123.946 28.9694 123.941 28.9588 123.941 28.9477C123.948 25.1121 123.949 21.3913 123.944 17.7852C123.943 16.8597 123.413 16.3998 122.493 16.4054C120.938 16.4156 119.418 16.4161 117.931 16.4068C117.877 16.4058 117.85 16.4328 117.85 16.4876Z" fill="#4C4C4C"/>
<path d="M140 12.9506V28.9885L134.864 28.9801C134.819 28.9801 134.797 28.9583 134.797 28.9146V16.4824C134.797 16.4338 134.78 16.3869 134.748 16.35L131.909 13.0008C131.905 12.996 131.902 12.9903 131.902 12.9843C131.901 12.9782 131.902 12.9722 131.904 12.9668C131.907 12.9613 131.911 12.9568 131.916 12.9537C131.921 12.9506 131.927 12.9491 131.933 12.9492L140 12.9506Z" fill="#4C4C4C"/>
<path d="M57.9551 37.8638C58.8002 37.9266 59.4312 38.5022 59.6368 39.3036C59.9833 40.6625 59.5213 42.3155 57.8622 42.4033C57.4321 42.4256 57.0481 42.3275 56.7101 42.1092C55.8622 41.5614 55.7044 40.4757 55.8565 39.5335C56.0284 38.4631 56.8368 37.7802 57.9551 37.8638ZM58.5706 40.8074C58.6819 40.2053 58.7537 38.7321 57.827 38.6987C56.7805 38.6611 56.8411 40.1106 56.9734 40.8019C57.1678 41.8193 58.3805 41.8332 58.5706 40.8074Z" fill="#4C4C4C"/>
<path d="M78.9056 37.8556C79.6887 37.8166 80.3985 38.2194 80.7196 38.9302C81.3365 40.2947 80.852 42.4578 78.9253 42.4034C77.9506 42.3755 77.2633 41.7316 77.0915 40.7978C76.8464 39.4696 77.2901 37.9337 78.9056 37.8556ZM78.2154 39.3539C78.0633 40.034 77.9802 41.6187 79.0549 41.5588C79.9802 41.5086 79.9126 40.0633 79.7788 39.4027C79.5971 38.4981 78.4225 38.4312 78.2154 39.3539Z" fill="#4C4C4C"/>
<path d="M88.1266 37.8566C89.7463 37.904 90.2364 39.6392 89.9026 40.9033C89.6303 41.9328 88.959 42.4309 87.8885 42.3974C86.3223 42.3486 85.9012 40.7389 86.1195 39.4956C86.2984 38.4768 87.0561 37.8245 88.1266 37.8566ZM88.804 40.895C88.9646 40.2357 89.035 38.6789 87.9998 38.7012C87.0167 38.7221 87.0942 40.2594 87.2519 40.8755C87.4857 41.7897 88.5801 41.8134 88.804 40.895Z" fill="#4C4C4C"/>
<path d="M140 40.0354V40.2417C139.976 40.3736 139.956 40.5051 139.941 40.6361C139.83 41.6257 139.169 42.3086 138.209 42.3964C137.729 42.441 137.305 42.3416 136.937 42.0981C135.978 41.4654 135.838 39.9211 136.278 38.9511C136.809 37.7775 138.348 37.4876 139.302 38.3336C139.741 38.723 139.974 39.2902 140 40.0354ZM137.283 39.2284C137.127 39.6865 137.106 40.2203 137.221 40.8298C137.319 41.3344 137.761 41.7204 138.289 41.517C139.037 41.2271 138.931 39.8528 138.768 39.2828C138.551 38.5288 137.538 38.4856 137.283 39.2284Z" fill="#4C4C4C"/>
<path d="M44.5744 41.5667L44.342 42.3179C44.3385 42.3292 44.3313 42.3391 44.3217 42.3461C44.3121 42.3531 44.3005 42.3569 44.2885 42.357L43.2519 42.3639C43.2427 42.3641 43.2337 42.362 43.2255 42.3578C43.2174 42.3537 43.2104 42.3477 43.2051 42.3403C43.1998 42.3329 43.1965 42.3243 43.1953 42.3153C43.1941 42.3063 43.1952 42.2972 43.1984 42.2887L44.8097 37.943C44.8137 37.9322 44.821 37.923 44.8306 37.9165C44.8402 37.91 44.8516 37.9066 44.8632 37.9067H45.8026C45.8142 37.9066 45.8256 37.91 45.8352 37.9165C45.8448 37.923 45.8521 37.9322 45.8561 37.943L47.4801 42.2901C47.4833 42.2986 47.4844 42.3077 47.4832 42.3167C47.482 42.3257 47.4787 42.3343 47.4734 42.3417C47.4681 42.3491 47.4611 42.3551 47.4529 42.3592C47.4448 42.3634 47.4357 42.3655 47.4266 42.3653L46.3843 42.3584C46.3724 42.3583 46.3607 42.3545 46.3511 42.3475C46.3415 42.3405 46.3344 42.3306 46.3308 42.3193L46.0942 41.5667C46.0906 41.5554 46.0835 41.5456 46.0738 41.5386C46.0642 41.5315 46.0526 41.5277 46.0406 41.5277H44.6294C44.6172 41.5274 44.6052 41.5311 44.5953 41.5381C44.5854 41.5452 44.5781 41.5552 44.5744 41.5667ZM44.8646 40.6413C44.8533 40.6775 44.8674 40.6956 44.9068 40.6956L45.7294 40.697C45.7904 40.697 45.812 40.6682 45.7942 40.6106L45.373 39.2698C45.3467 39.1871 45.3205 39.1871 45.2942 39.2698L44.8646 40.6413Z" fill="#4C4C4C"/>
<path d="M49.1185 38.7723V42.3165C49.1185 42.3276 49.1141 42.3383 49.1061 42.3461C49.0982 42.354 49.0875 42.3584 49.0763 42.3584L48.0734 42.3611C48.0622 42.3611 48.0515 42.3567 48.0436 42.3489C48.0356 42.3411 48.0312 42.3304 48.0312 42.3193L48.0298 37.9485C48.0298 37.9375 48.0342 37.9268 48.0422 37.919C48.0501 37.9111 48.0608 37.9067 48.072 37.9067H51.034C51.0452 37.9067 51.056 37.9111 51.0639 37.919C51.0718 37.9268 51.0763 37.9375 51.0763 37.9485L51.0734 38.69C51.0734 38.7011 51.069 38.7117 51.0611 38.7196C51.0531 38.7274 51.0424 38.7318 51.0312 38.7318L49.1608 38.7304C49.1552 38.7304 49.1497 38.7315 49.1446 38.7336C49.1395 38.7357 49.1348 38.7388 49.1309 38.7427C49.127 38.7466 49.1239 38.7512 49.1217 38.7563C49.1196 38.7613 49.1185 38.7668 49.1185 38.7723Z" fill="#4C4C4C"/>
<path d="M52.7706 40.9372V42.3267C52.7706 42.349 52.7593 42.3602 52.7368 42.3602L51.7199 42.3616C51.6992 42.3616 51.6889 42.3509 51.6889 42.3295L51.6875 37.9824C51.6875 37.9313 51.7138 37.9058 51.7664 37.9058C52.3288 37.9058 52.8847 37.9072 53.434 37.9099C53.8959 37.9113 54.4058 38.0145 54.7467 38.3406C55.5016 39.0584 55.341 40.3197 54.2959 40.6891C53.9035 40.8266 53.434 40.8735 52.8875 40.8298C52.8726 40.8287 52.8575 40.8306 52.8434 40.8355C52.8292 40.8403 52.8163 40.8481 52.8053 40.8582C52.7943 40.8682 52.7856 40.8805 52.7796 40.8941C52.7736 40.9077 52.7706 40.9223 52.7706 40.9372ZM52.7692 38.7908L52.772 39.9699C52.772 39.977 52.7734 39.9841 52.7762 39.9907C52.7789 39.9973 52.783 40.0033 52.7881 40.0083C52.7932 40.0134 52.7992 40.0174 52.8059 40.0201C52.8126 40.0228 52.8197 40.0243 52.8269 40.0243L53.5058 40.0229C53.6698 40.0225 53.8269 39.9591 53.9426 39.8467C54.0583 39.7344 54.1231 39.5821 54.1227 39.4235V39.3316C54.1225 39.253 54.1064 39.1753 54.0751 39.1029C54.0439 39.0304 53.9982 38.9646 53.9406 38.9092C53.8831 38.8538 53.8148 38.8099 53.7397 38.78C53.6646 38.7501 53.5842 38.7349 53.503 38.735L52.8241 38.7364C52.8095 38.7364 52.7956 38.7422 52.7853 38.7524C52.775 38.7625 52.7692 38.7764 52.7692 38.7908Z" fill="#4C4C4C"/>
<path d="M62.5393 38.775L62.5407 42.3138C62.5407 42.32 62.5395 42.3261 62.5371 42.3319C62.5346 42.3376 62.5311 42.3429 62.5267 42.3473C62.5222 42.3517 62.5169 42.3552 62.5111 42.3575C62.5053 42.3599 62.4991 42.3611 62.4928 42.3611L61.5083 42.3584C61.4956 42.3584 61.4834 42.3534 61.4744 42.3445C61.4655 42.3356 61.4604 42.3235 61.4604 42.311L61.4618 38.7778C61.4618 38.7653 61.4568 38.7532 61.4478 38.7443C61.4388 38.7354 61.4266 38.7304 61.4139 38.7304L60.1858 38.7346C60.1731 38.7346 60.1609 38.7296 60.1519 38.7207C60.1429 38.7119 60.1379 38.6998 60.1379 38.6872L60.1365 37.9541C60.1365 37.9416 60.1415 37.9295 60.1505 37.9206C60.1595 37.9117 60.1717 37.9067 60.1844 37.9067H63.8506C63.8633 37.9067 63.8754 37.9117 63.8844 37.9206C63.8934 37.9295 63.8984 37.9416 63.8984 37.9541L63.8956 38.6872C63.8956 38.6998 63.8906 38.7119 63.8816 38.7207C63.8726 38.7296 63.8604 38.7346 63.8477 38.7346L62.5872 38.7277C62.5745 38.7277 62.5623 38.7326 62.5533 38.7415C62.5443 38.7504 62.5393 38.7625 62.5393 38.775Z" fill="#4C4C4C"/>
<path d="M65.6169 41.5333H67.5381C67.5515 41.5333 67.5644 41.5385 67.5739 41.548C67.5834 41.5574 67.5888 41.5701 67.5888 41.5834L67.5874 42.3096C67.5874 42.3229 67.582 42.3356 67.5725 42.3451C67.563 42.3545 67.5501 42.3598 67.5367 42.3598H64.5409C64.5274 42.3598 64.5145 42.3545 64.505 42.3451C64.4955 42.3356 64.4902 42.3229 64.4902 42.3096L64.4888 37.9569C64.4888 37.9436 64.4941 37.9308 64.5036 37.9214C64.5131 37.912 64.526 37.9067 64.5395 37.9067H67.5465C67.56 37.9067 67.5729 37.912 67.5824 37.9214C67.5919 37.9308 67.5972 37.9436 67.5972 37.9569L67.5944 38.6831C67.5944 38.6964 67.5891 38.7091 67.5796 38.7185C67.57 38.7279 67.5571 38.7332 67.5437 38.7332L65.6169 38.7304C65.6035 38.7304 65.5906 38.7357 65.5811 38.7451C65.5716 38.7545 65.5662 38.7673 65.5662 38.7806L65.5691 39.6224C65.5691 39.6357 65.5744 39.6485 65.5839 39.6579C65.5934 39.6673 65.6063 39.6726 65.6198 39.6726L67.231 39.6782C67.2445 39.6782 67.2574 39.6835 67.2669 39.6929C67.2764 39.7023 67.2817 39.7151 67.2817 39.7284V40.4099C67.2817 40.4165 67.2804 40.423 67.2779 40.4291C67.2753 40.4352 67.2716 40.4407 67.2669 40.4454C67.2622 40.45 67.2566 40.4537 67.2504 40.4563C67.2443 40.4588 67.2377 40.4601 67.231 40.4601L65.6198 40.4615C65.6063 40.4615 65.5934 40.4668 65.5839 40.4762C65.5744 40.4856 65.5691 40.4983 65.5691 40.5116L65.5662 41.4831C65.5662 41.4964 65.5716 41.5092 65.5811 41.5186C65.5906 41.528 65.6035 41.5333 65.6169 41.5333Z" fill="#4C4C4C"/>
<path d="M69.9759 40.9245L69.2717 42.3336C69.2678 42.3411 69.262 42.3474 69.2548 42.3518C69.2476 42.3562 69.2393 42.3586 69.2308 42.3587L68.0928 42.3601C68.0847 42.3601 68.0767 42.3581 68.0697 42.3541C68.0626 42.3502 68.0567 42.3444 68.0526 42.3375C68.0485 42.3306 68.0463 42.3228 68.0461 42.3148C68.046 42.3067 68.048 42.2988 68.052 42.2918L69.2914 40.1315C69.2952 40.1247 69.2972 40.117 69.2972 40.1092C69.2972 40.1014 69.2952 40.0937 69.2914 40.0869L68.0858 37.9726C68.0818 37.9656 68.0798 37.9577 68.0799 37.9496C68.0801 37.9416 68.0823 37.9338 68.0864 37.9269C68.0906 37.92 68.0964 37.9142 68.1035 37.9103C68.1105 37.9063 68.1185 37.9043 68.1266 37.9043L69.2562 37.9085C69.2651 37.9084 69.2737 37.9109 69.2812 37.9156C69.2887 37.9203 69.2947 37.927 69.2984 37.935L69.9759 39.3148C69.9796 39.3228 69.9856 39.3296 69.9931 39.3343C70.0006 39.3391 70.0093 39.3416 70.0182 39.3416C70.0271 39.3416 70.0358 39.3391 70.0433 39.3343C70.0508 39.3296 70.0567 39.3228 70.0604 39.3148L70.7379 37.935C70.7416 37.927 70.7476 37.9203 70.7551 37.9156C70.7626 37.9109 70.7713 37.9084 70.7801 37.9085L71.9139 37.9043C71.922 37.9043 71.93 37.9063 71.9371 37.9103C71.9441 37.9142 71.95 37.92 71.9541 37.9269C71.9583 37.9338 71.9605 37.9416 71.9606 37.9496C71.9607 37.9577 71.9587 37.9656 71.9548 37.9726L70.7449 40.0883C70.7411 40.0951 70.7391 40.1028 70.7391 40.1106C70.7391 40.1184 70.7411 40.1261 70.7449 40.1329L71.99 42.2932C71.9943 42.3003 71.9966 42.3083 71.9966 42.3165C71.9967 42.3248 71.9945 42.3329 71.9904 42.34C71.9862 42.3471 71.9802 42.353 71.9729 42.357C71.9657 42.361 71.9575 42.3631 71.9492 42.3629L70.8041 42.3573C70.7956 42.3572 70.7873 42.3548 70.7801 42.3504C70.7729 42.346 70.7671 42.3397 70.7632 42.3322L70.0604 40.9245C70.0567 40.9165 70.0508 40.9098 70.0433 40.905C70.0358 40.9002 70.0271 40.8977 70.0182 40.8977C70.0093 40.8977 70.0006 40.9002 69.9931 40.905C69.9856 40.9098 69.9796 40.9165 69.9759 40.9245Z" fill="#4C4C4C"/>
<path d="M73.6531 40.5381L73.6545 42.3165C73.6545 42.3287 73.6496 42.3404 73.6409 42.3491C73.6322 42.3577 73.6204 42.3625 73.608 42.3625L72.6165 42.357C72.6104 42.357 72.6043 42.3558 72.5987 42.3535C72.5931 42.3512 72.5879 42.3478 72.5836 42.3435C72.5793 42.3392 72.5759 42.3342 72.5736 42.3286C72.5712 42.323 72.57 42.317 72.57 42.311L72.5686 37.9527C72.5686 37.9405 72.5735 37.9288 72.5822 37.9202C72.5909 37.9116 72.6028 37.9067 72.6151 37.9067H73.6095C73.6218 37.9067 73.6336 37.9116 73.6423 37.9202C73.651 37.9288 73.6559 37.9405 73.6559 37.9527L73.6531 39.6308C73.6531 39.643 73.658 39.6547 73.6667 39.6633C73.6754 39.6719 73.6873 39.6768 73.6996 39.6768L75.2038 39.6754C75.2161 39.6754 75.228 39.6706 75.2367 39.6619C75.2454 39.6533 75.2503 39.6416 75.2503 39.6294V37.9527C75.2503 37.9405 75.2552 37.9288 75.2639 37.9202C75.2726 37.9116 75.2844 37.9067 75.2968 37.9067H76.2869C76.293 37.9067 76.2991 37.9079 76.3047 37.9102C76.3103 37.9126 76.3155 37.9159 76.3198 37.9202C76.3241 37.9245 76.3275 37.9295 76.3299 37.9351C76.3322 37.9407 76.3334 37.9467 76.3334 37.9527L76.332 42.3165C76.332 42.3226 76.3308 42.3286 76.3284 42.3341C76.3261 42.3397 76.3227 42.3448 76.3184 42.3491C76.3141 42.3533 76.3089 42.3567 76.3033 42.359C76.2977 42.3613 76.2916 42.3625 76.2855 42.3625L75.2968 42.357C75.2907 42.357 75.2846 42.3558 75.279 42.3535C75.2733 42.3512 75.2682 42.3478 75.2639 42.3435C75.2596 42.3392 75.2562 42.3342 75.2538 42.3286C75.2515 42.323 75.2503 42.317 75.2503 42.311V40.5381C75.2503 40.5259 75.2454 40.5142 75.2367 40.5056C75.228 40.497 75.2161 40.4921 75.2038 40.4921H73.6996C73.6935 40.4921 73.6874 40.4933 73.6818 40.4956C73.6762 40.4979 73.671 40.5013 73.6667 40.5056C73.6624 40.5099 73.659 40.5149 73.6567 40.5205C73.6543 40.5261 73.6531 40.5321 73.6531 40.5381Z" fill="#4C4C4C"/>
<path d="M83.2648 38.7736C83.2517 39.4947 83.208 40.1692 83.1339 40.7974C83.0141 41.8148 82.5522 42.403 81.4423 42.357C81.386 42.3551 81.3578 42.3263 81.3578 42.2706L81.355 41.6266C81.355 41.5644 81.3864 41.5286 81.4493 41.5193C81.7301 41.4784 81.9099 41.3261 81.9888 41.0622C82.0996 40.6905 82.1625 40.2529 82.1775 39.7493C82.1944 39.1453 82.216 38.5576 82.2423 37.9862C82.2451 37.9332 82.2733 37.9067 82.3268 37.9067H85.2888C85.3432 37.9067 85.3705 37.9332 85.3705 37.9862V42.304C85.3705 42.3113 85.369 42.3186 85.3661 42.3253C85.3632 42.3321 85.3589 42.3382 85.3536 42.3434C85.3482 42.3486 85.3418 42.3527 85.3348 42.3555C85.3278 42.3583 85.3203 42.3598 85.3127 42.3598H84.3409C84.308 42.3598 84.2916 42.343 84.2916 42.3096V38.7709C84.2916 38.7439 84.278 38.7304 84.2508 38.7304L83.3141 38.7263C83.2822 38.7263 83.2658 38.7421 83.2648 38.7736Z" fill="#4C4C4C"/>
<path d="M91.7676 38.7736L91.769 42.3193C91.769 42.3304 91.7645 42.3411 91.7566 42.3489C91.7487 42.3567 91.7379 42.3611 91.7267 42.3611L90.7366 42.3598C90.7254 42.3598 90.7146 42.3553 90.7067 42.3475C90.6988 42.3397 90.6943 42.329 90.6943 42.3179V37.9485C90.6943 37.9375 90.6988 37.9268 90.7067 37.919C90.7146 37.9111 90.7254 37.9067 90.7366 37.9067H93.6901C93.7013 37.9067 93.7121 37.9111 93.72 37.919C93.7279 37.9268 93.7324 37.9375 93.7324 37.9485V38.6914C93.7324 38.7025 93.7279 38.7131 93.72 38.721C93.7121 38.7288 93.7013 38.7332 93.6901 38.7332L91.8098 38.7318C91.8043 38.7318 91.7988 38.7329 91.7937 38.735C91.7885 38.7371 91.7839 38.7402 91.78 38.7441C91.776 38.748 91.7729 38.7526 91.7708 38.7576C91.7687 38.7627 91.7676 38.7682 91.7676 38.7736Z" fill="#4C4C4C"/>
<path d="M95.4775 40.5799L96.9846 37.9583C97.0043 37.9239 97.0343 37.9067 97.0747 37.9067H98.0268C98.0747 37.9067 98.0987 37.9304 98.0987 37.9778V42.2956C98.0987 42.3042 98.0969 42.3128 98.0936 42.3207C98.0903 42.3287 98.0854 42.3359 98.0793 42.342C98.0731 42.348 98.0658 42.3529 98.0578 42.3562C98.0498 42.3595 98.0412 42.3611 98.0325 42.3611L97.0761 42.3598C97.068 42.3598 97.0599 42.3582 97.0524 42.3551C97.0449 42.352 97.0381 42.3475 97.0323 42.3418C97.0266 42.3361 97.022 42.3293 97.0189 42.3219C97.0158 42.3145 97.0142 42.3065 97.0142 42.2984V39.6782C97.0142 39.589 96.9921 39.5834 96.948 39.6615L95.4451 42.2733C95.4113 42.3319 95.3606 42.3607 95.293 42.3598H94.4226C94.3494 42.3598 94.3127 42.3235 94.3127 42.251V37.9513C94.3127 37.9395 94.3175 37.9282 94.3259 37.9198C94.3344 37.9114 94.3459 37.9067 94.3578 37.9067H95.3536C95.3641 37.9067 95.3741 37.9108 95.3815 37.9182C95.3889 37.9255 95.393 37.9354 95.393 37.9458L95.3916 40.5576C95.3916 40.671 95.4203 40.6784 95.4775 40.5799Z" fill="#4C4C4C"/>
<path d="M101.621 39.6782C101.621 39.5899 101.599 39.5843 101.555 39.6615L100.042 42.2887C100.014 42.337 99.9719 42.3611 99.9156 42.3611L99.0128 42.3598C98.9872 42.3594 98.9629 42.3491 98.945 42.3311C98.927 42.3131 98.917 42.2888 98.917 42.2636V37.9388C98.917 37.9174 98.9278 37.9067 98.9494 37.9067H99.9635C99.9736 37.9067 99.9832 37.9107 99.9904 37.9178C99.9975 37.9248 100.002 37.9344 100.002 37.9444V40.5242C100.002 40.6571 100.035 40.6659 100.101 40.5507L101.6 37.9416C101.606 37.9311 101.615 37.9223 101.625 37.9162C101.636 37.9101 101.648 37.9068 101.661 37.9067H102.638C102.685 37.9067 102.709 37.93 102.709 37.9764V42.297C102.709 42.3137 102.702 42.3296 102.69 42.3414C102.677 42.3531 102.661 42.3598 102.644 42.3598H101.686C101.643 42.3598 101.621 42.3384 101.621 42.2956V39.6782Z" fill="#4C4C4C"/>
<path d="M106.396 39.4454C107.105 39.4064 108.011 39.4552 108.455 40.1019C109.089 41.0273 108.42 42.2092 107.305 42.3096C106.636 42.3709 105.971 42.3834 105.311 42.3472C105.279 42.3454 105.263 42.3286 105.263 42.297V37.9862C105.263 37.9332 105.29 37.9067 105.345 37.9067H108.273C108.297 37.9067 108.308 37.9188 108.308 37.943L108.305 38.6858C108.305 38.7128 108.292 38.7263 108.265 38.7263L106.38 38.7207C106.359 38.7207 106.349 38.7314 106.349 38.7527V39.4022C106.349 39.4081 106.35 39.414 106.353 39.4194C106.355 39.4249 106.359 39.4298 106.363 39.4338C106.367 39.4379 106.372 39.441 106.378 39.443C106.384 39.445 106.39 39.4458 106.396 39.4454ZM106.349 40.2942V41.4956C106.349 41.5052 106.353 41.5145 106.36 41.5213C106.367 41.5281 106.376 41.5319 106.386 41.5319H106.921C107.107 41.5319 107.285 41.4678 107.417 41.3539C107.548 41.2399 107.622 41.0854 107.622 40.9242V40.8657C107.622 40.7045 107.548 40.5499 107.417 40.436C107.285 40.322 107.107 40.258 106.921 40.258H106.386C106.376 40.258 106.367 40.2618 106.36 40.2686C106.353 40.2754 106.349 40.2846 106.349 40.2942Z" fill="#4C4C4C"/>
<path d="M110.994 39.7524C111.023 39.8128 111.049 39.8118 111.073 39.7496L111.769 37.9405C111.773 37.9312 111.78 37.9252 111.79 37.9224C111.875 37.9029 112.242 37.8991 112.892 37.9112C112.895 37.9112 112.898 37.912 112.9 37.9134C112.903 37.9148 112.905 37.9168 112.907 37.9193C112.909 37.9218 112.91 37.9246 112.91 37.9276C112.91 37.9306 112.91 37.9336 112.909 37.9363C112.346 39.2641 111.827 40.4646 111.351 41.5377C111.056 42.2021 110.536 42.4906 109.792 42.4033C109.77 42.4005 109.759 42.3879 109.758 42.3656L109.748 41.6144C109.748 41.594 109.758 41.5856 109.778 41.5893C110.221 41.6571 110.483 41.4899 110.565 41.0876C110.574 41.0411 110.568 40.997 110.545 40.9552L108.975 37.9266C108.969 37.9145 108.973 37.9084 108.986 37.9084L110.089 37.907C110.106 37.907 110.118 37.9149 110.125 37.9307L110.994 39.7524Z" fill="#4C4C4C"/>
<path d="M113.866 42.4378V43.419C113.866 43.4404 113.855 43.4511 113.834 43.4511L112.893 43.4497C112.872 43.4497 112.861 43.4399 112.86 43.4204L112.787 41.6071C112.784 41.5523 112.811 41.5277 112.867 41.5333C113.091 41.5574 113.261 41.4543 113.377 41.2239C113.528 40.9256 113.622 40.6231 113.659 40.3165C113.756 39.5119 113.818 38.7397 113.846 38.0001C113.849 37.9379 113.882 37.9067 113.945 37.9067H116.843C116.9 37.9067 116.928 37.9346 116.928 37.9904V41.4496C116.928 41.5045 116.955 41.5319 117.01 41.5319L117.328 41.5333C117.379 41.5333 117.403 41.5584 117.4 41.6085L117.291 43.4148C117.291 43.4247 117.286 43.4339 117.279 43.4406C117.272 43.4473 117.263 43.4511 117.253 43.4511H116.363C116.334 43.4511 116.319 43.4371 116.319 43.4092V42.442C116.319 42.3872 116.291 42.3598 116.235 42.3598H113.945C113.892 42.3598 113.866 42.3858 113.866 42.4378ZM114.334 41.4775C114.33 41.4831 114.329 41.4894 114.329 41.4958C114.329 41.5022 114.33 41.5085 114.334 41.514C114.337 41.5196 114.342 41.5241 114.347 41.5273C114.353 41.5304 114.359 41.532 114.366 41.5319L115.774 41.5333C115.821 41.5333 115.845 41.51 115.845 41.4636V38.7918C115.845 38.7527 115.825 38.7332 115.786 38.7332L114.931 38.7318C114.89 38.7318 114.87 38.7518 114.869 38.7918C114.85 39.6601 114.773 40.7569 114.334 41.4775Z" fill="#4C4C4C"/>
<path d="M119.596 39.7716C119.599 39.7775 119.604 39.7824 119.609 39.7857C119.615 39.789 119.622 39.7906 119.628 39.7904C119.635 39.7901 119.641 39.7879 119.646 39.784C119.652 39.7802 119.656 39.7749 119.658 39.7688L120.358 37.9472C120.369 37.9203 120.389 37.9068 120.419 37.9068L121.481 37.9082C121.484 37.9081 121.487 37.9089 121.49 37.9104C121.493 37.9119 121.495 37.9141 121.497 37.9168C121.499 37.9196 121.5 37.9228 121.5 37.9261C121.501 37.9295 121.5 37.9329 121.499 37.9361C121.021 39.0743 120.51 40.2604 119.967 41.4943C119.66 42.1912 119.133 42.4945 118.386 42.4044C118.363 42.4016 118.351 42.3886 118.351 42.3654L118.34 41.6141C118.34 41.5946 118.35 41.5863 118.369 41.5891C118.816 41.6569 119.079 41.4887 119.157 41.0845C119.165 41.039 119.159 40.9953 119.137 40.9535L117.572 37.9361C117.563 37.9184 117.569 37.9091 117.589 37.9082L118.662 37.9068C118.692 37.9059 118.712 37.9189 118.724 37.9458L119.596 39.7716Z" fill="#4C4C4C"/>
<path d="M124.259 41.4901L124.258 37.9499C124.258 37.9385 124.263 37.9275 124.271 37.9194C124.279 37.9113 124.29 37.9067 124.302 37.9067L125.299 37.9081C125.31 37.9081 125.322 37.9127 125.33 37.9208C125.338 37.9289 125.343 37.9399 125.343 37.9513L125.341 41.4901C125.341 41.5015 125.346 41.5125 125.354 41.5206C125.362 41.5287 125.373 41.5333 125.385 41.5333L126.403 41.5319C126.415 41.5319 126.426 41.5273 126.434 41.5192C126.442 41.5111 126.447 41.5001 126.447 41.4887V37.9499C126.447 37.9443 126.448 37.9386 126.45 37.9334C126.452 37.9282 126.455 37.9234 126.46 37.9194C126.464 37.9154 126.468 37.9122 126.474 37.91C126.479 37.9079 126.485 37.9067 126.49 37.9067H127.485C127.496 37.9067 127.507 37.9113 127.516 37.9194C127.524 37.9275 127.528 37.9385 127.528 37.9499V41.5249C127.528 41.5364 127.533 41.5473 127.541 41.5555C127.549 41.5636 127.561 41.5681 127.572 41.5681H128.148C128.154 41.5681 128.16 41.5693 128.165 41.5715C128.171 41.5738 128.175 41.5771 128.18 41.5812C128.184 41.5854 128.187 41.5903 128.189 41.5957C128.191 41.6011 128.192 41.6069 128.192 41.6127L128.133 43.3842C128.132 43.3954 128.128 43.406 128.119 43.4138C128.111 43.4216 128.1 43.426 128.089 43.426L127.192 43.4232C127.18 43.4232 127.169 43.4186 127.161 43.4105C127.153 43.4024 127.148 43.3914 127.148 43.38L127.151 42.403C127.151 42.3915 127.146 42.3805 127.138 42.3724C127.13 42.3643 127.119 42.3598 127.107 42.3598H122.093C122.082 42.3598 122.071 42.3552 122.062 42.3471C122.054 42.339 122.05 42.328 122.05 42.3165V37.9513C122.05 37.9399 122.054 37.9289 122.062 37.9208C122.071 37.9127 122.082 37.9081 122.093 37.9081L123.092 37.9067C123.103 37.9067 123.114 37.9113 123.123 37.9194C123.131 37.9275 123.135 37.9385 123.135 37.9499L123.134 41.4887C123.134 41.5001 123.139 41.5111 123.147 41.5192C123.155 41.5273 123.166 41.5319 123.178 41.5319L124.216 41.5333C124.227 41.5333 124.238 41.5287 124.247 41.5206C124.255 41.5125 124.259 41.5015 124.259 41.4901Z" fill="#4C4C4C"/>
<path d="M129.941 41.5333L131.855 41.5319C131.868 41.5319 131.881 41.537 131.89 41.5462C131.899 41.5553 131.905 41.5677 131.905 41.5806L131.91 42.311C131.91 42.3239 131.905 42.3363 131.896 42.3455C131.887 42.3546 131.874 42.3598 131.861 42.3598H128.858C128.852 42.3598 128.845 42.3585 128.839 42.356C128.833 42.3536 128.828 42.35 128.823 42.3455C128.819 42.3409 128.815 42.3356 128.813 42.3296C128.81 42.3237 128.809 42.3174 128.809 42.311V37.9555C128.809 37.9426 128.814 37.9302 128.823 37.921C128.833 37.9119 128.845 37.9067 128.858 37.9067H131.865C131.878 37.9067 131.891 37.9119 131.9 37.921C131.909 37.9302 131.914 37.9426 131.914 37.9555V38.6858C131.914 38.6922 131.913 38.6986 131.911 38.7045C131.908 38.7104 131.905 38.7158 131.9 38.7203C131.895 38.7249 131.89 38.7285 131.884 38.7309C131.878 38.7334 131.872 38.7346 131.865 38.7346L129.943 38.729C129.93 38.729 129.917 38.7342 129.908 38.7433C129.899 38.7525 129.893 38.7649 129.893 38.7778L129.896 39.6252C129.896 39.6382 129.901 39.6506 129.911 39.6597C129.92 39.6689 129.932 39.674 129.945 39.674L131.548 39.6768C131.561 39.6768 131.574 39.6819 131.583 39.6911C131.592 39.7002 131.598 39.7126 131.598 39.7256L131.599 40.4113C131.599 40.4242 131.594 40.4366 131.585 40.4458C131.575 40.4549 131.563 40.4601 131.55 40.4601H129.945C129.932 40.4601 129.92 40.4652 129.911 40.4744C129.901 40.4835 129.896 40.4959 129.896 40.5089L129.892 41.4845C129.892 41.4909 129.893 41.4972 129.896 41.5031C129.898 41.5091 129.902 41.5144 129.906 41.519C129.911 41.5235 129.916 41.5271 129.922 41.5295C129.928 41.532 129.935 41.5333 129.941 41.5333Z" fill="#4C4C4C"/>
<path d="M133.667 38.7764V42.3138C133.667 42.3263 133.662 42.3384 133.653 42.3473C133.644 42.3562 133.632 42.3611 133.62 42.3611L132.635 42.3584C132.622 42.3584 132.61 42.3534 132.601 42.3445C132.592 42.3356 132.587 42.3235 132.587 42.311L132.589 37.9541C132.589 37.9416 132.594 37.9295 132.603 37.9206C132.612 37.9117 132.624 37.9067 132.636 37.9067H135.586C135.598 37.9067 135.611 37.9117 135.62 37.9206C135.629 37.9295 135.634 37.9416 135.634 37.9541L135.631 38.6872C135.631 38.6998 135.626 38.7119 135.617 38.7207C135.608 38.7296 135.596 38.7346 135.583 38.7346L133.715 38.729C133.703 38.729 133.69 38.734 133.681 38.7429C133.672 38.7518 133.667 38.7639 133.667 38.7764Z" fill="#4C4C4C"/>
</g>
<defs>
<clipPath id="clip0_1_169">
<rect width="140" height="43.4848" fill="white"/>
</clipPath>
</defs>
</svg>
