<svg width="140" height="21" viewBox="0 0 140 21" fill="none" xmlns="http://www.w3.org/2000/svg">
<path d="M9.56415 4.15853L9.56719 7.91925C9.56719 7.9328 9.57265 7.9458 9.58235 7.95538C9.59206 7.96497 9.60522 7.97035 9.61895 7.97035L13.4588 7.96734C13.4725 7.96734 13.4857 7.97273 13.4954 7.98231C13.5051 7.9919 13.5106 8.0049 13.5106 8.01845L13.5096 12.0257C13.5096 12.0392 13.5041 12.0522 13.4944 12.0618C13.4847 12.0714 13.4715 12.0768 13.4578 12.0768L9.61793 12.0708C9.60421 12.0708 9.59104 12.0761 9.58134 12.0857C9.57163 12.0953 9.56618 12.1083 9.56618 12.1219V16.2533C9.56618 16.2669 9.57163 16.2799 9.58134 16.2895C9.59104 16.2991 9.60421 16.3044 9.61793 16.3044H11.9793C11.993 16.3044 12.0062 16.3098 12.0159 16.3194C12.0256 16.329 12.031 16.342 12.031 16.3556L12.0331 20.3538C12.0331 20.3605 12.0317 20.3671 12.0291 20.3733C12.0265 20.3795 12.0227 20.3851 12.0179 20.3899C12.0131 20.3946 12.0074 20.3984 12.0011 20.401C11.9948 20.4035 11.9881 20.4049 11.9813 20.4049H0.0527678C0.039042 20.4049 0.0258785 20.3995 0.0161729 20.3899C0.00646735 20.3803 0.00101479 20.3673 0.00101479 20.3538L0 16.3505C0 16.337 0.00545257 16.324 0.0151581 16.3144C0.0248637 16.3048 0.0380272 16.2994 0.051753 16.2994L2.06403 16.3054C2.07776 16.3054 2.09092 16.3001 2.10062 16.2905C2.11033 16.2809 2.11578 16.2679 2.11578 16.2543V4.15653C2.11578 4.14297 2.11033 4.12997 2.10062 4.12039C2.09092 4.11081 2.07776 4.10542 2.06403 4.10542H0.0527678C0.039042 4.10542 0.0258785 4.10004 0.0161729 4.09045C0.00646735 4.08087 0.00101479 4.06787 0.00101479 4.05432V0.0511043C0.00101479 0.0375504 0.00646735 0.0245515 0.0161729 0.0149675C0.0258785 0.00538352 0.039042 0 0.0527678 0L18.7894 0.00100151C18.8031 0.00100151 18.8163 0.00638655 18.826 0.0159706C18.8357 0.0255546 18.8411 0.0385535 18.8411 0.0521073L18.8381 6.12156C18.8381 6.12827 18.8367 6.13491 18.8341 6.14111C18.8315 6.14732 18.8277 6.15295 18.8229 6.15769C18.8181 6.16244 18.8124 6.1662 18.8061 6.16877C18.7999 6.17134 18.7931 6.17266 18.7863 6.17266L14.8196 6.17066C14.8128 6.17066 14.8061 6.16934 14.7998 6.16677C14.7935 6.1642 14.7878 6.16044 14.783 6.15569C14.7782 6.15094 14.7744 6.14531 14.7718 6.13911C14.7692 6.13291 14.7679 6.12627 14.7679 6.11955V4.15552C14.7679 4.14197 14.7624 4.12897 14.7527 4.11939C14.743 4.1098 14.7298 4.10442 14.7161 4.10442L9.6159 4.10743C9.60218 4.10743 9.58901 4.11281 9.57931 4.12239C9.5696 4.13198 9.56415 4.14498 9.56415 4.15853Z" fill="#4C4C4C"/>
<path d="M30.6134 11.9495V16.2318C30.6134 16.2509 30.621 16.2693 30.6346 16.2828C30.6482 16.2963 30.6666 16.3039 30.6858 16.3039L32.5692 16.3029C32.5831 16.3029 32.5964 16.3084 32.6062 16.3182C32.616 16.3279 32.6215 16.3412 32.6215 16.355L32.6225 20.3477C32.6225 20.3629 32.6165 20.3774 32.6057 20.3881C32.595 20.3988 32.5804 20.4049 32.5652 20.4049L21.2747 20.4029C21.2651 20.4029 21.2555 20.401 21.2466 20.3974C21.2377 20.3937 21.2296 20.3884 21.2228 20.3817C21.216 20.375 21.2106 20.3671 21.2069 20.3583C21.2032 20.3496 21.2013 20.3402 21.2013 20.3307L21.1963 16.348C21.1963 16.3353 21.2013 16.323 21.2104 16.314C21.2195 16.305 21.2317 16.2999 21.2445 16.2999L23.143 16.3049C23.1614 16.3049 23.1791 16.2975 23.1921 16.2844C23.2051 16.2712 23.2124 16.2534 23.2124 16.2348L23.2134 4.16743C23.2134 4.15941 23.2118 4.15146 23.2088 4.14404C23.2057 4.13663 23.2012 4.12989 23.1955 4.12422C23.1898 4.11854 23.183 4.11404 23.1756 4.11097C23.1681 4.1079 23.1601 4.10632 23.1521 4.10632L21.2677 4.10932C21.2221 4.10932 21.1993 4.08694 21.1993 4.04219L21.1983 0.0715061C21.1983 0.0260849 21.2211 0.003375 21.2667 0.003375C26.5285 -0.00196868 31.4702 -0.000966858 36.0917 0.00638069C39.3618 0.0123923 43.2846 1.5133 43.541 5.2846C43.6968 7.57503 42.4027 9.36148 40.3594 10.2382C40.3498 10.2422 40.3412 10.2481 40.3339 10.2555C40.3267 10.2629 40.321 10.2716 40.3172 10.2812C40.3133 10.2908 40.3114 10.3011 40.3116 10.3114C40.3118 10.3217 40.314 10.3319 40.3181 10.3414L42.9014 16.2288C42.9117 16.2523 42.9286 16.2723 42.9503 16.2864C42.9719 16.3005 42.9972 16.308 43.0231 16.3079L44.6914 16.3039C44.7289 16.3039 44.7477 16.3226 44.7477 16.36L44.7467 20.3447C44.7467 20.3607 44.7402 20.376 44.7287 20.3872C44.7172 20.3985 44.7016 20.4049 44.6853 20.4049L37.3346 20.4029C37.2937 20.4029 37.2659 20.3838 37.2512 20.3457L34.0223 11.9234C34.017 11.9093 34.0074 11.8971 33.9948 11.8885C33.9822 11.8799 33.9672 11.8753 33.9519 11.8754H30.6868C30.6379 11.8754 30.6134 11.9001 30.6134 11.9495ZM30.6838 4.2035L30.6758 8.6962C30.6758 8.7039 30.6788 8.71129 30.6843 8.71674C30.6898 8.72219 30.6972 8.72526 30.7049 8.72526L32.6336 8.72826C33.0315 8.72898 33.4257 8.67518 33.7935 8.56993C34.1613 8.46467 34.4957 8.31003 34.7774 8.11483C35.0591 7.91963 35.2827 7.68769 35.4354 7.43227C35.5881 7.17685 35.667 6.90294 35.6674 6.62619V6.28954C35.6683 5.73079 35.35 5.1944 34.7826 4.79832C34.2152 4.40224 33.4451 4.17891 32.6416 4.17745L30.713 4.17445C30.7052 4.17445 30.6978 4.17751 30.6923 4.18296C30.6869 4.18841 30.6838 4.1958 30.6838 4.2035Z" fill="#4C4C4C"/>
<path d="M55.3969 16.3531L55.3948 20.3528C55.3948 20.3666 55.3893 20.3798 55.3794 20.3896C55.3696 20.3994 55.3562 20.4049 55.3422 20.4049L47.1564 20.3998C47.1495 20.3998 47.1427 20.3985 47.1363 20.3959C47.1299 20.3933 47.1241 20.3894 47.1192 20.3846C47.1143 20.3798 47.1105 20.374 47.1078 20.3677C47.1052 20.3614 47.1038 20.3546 47.1038 20.3477L47.1028 16.3461C47.1028 16.3323 47.1083 16.3191 47.1182 16.3093C47.1281 16.2995 47.1415 16.294 47.1554 16.294L48.7432 16.305C48.7544 16.3052 48.7654 16.3017 48.7745 16.2952C48.7836 16.2887 48.7904 16.2795 48.7938 16.269L52.8204 4.17195C52.8229 4.16417 52.8236 4.1559 52.8223 4.14783C52.821 4.13975 52.8179 4.13209 52.813 4.12545C52.8082 4.11882 52.8019 4.11341 52.7945 4.10965C52.7872 4.10589 52.7791 4.10389 52.7708 4.10382L50.1731 4.10582C50.1592 4.10582 50.1458 4.10033 50.1359 4.09056C50.126 4.08079 50.1205 4.06754 50.1205 4.05372L50.1195 0.053101C50.1195 0.0392834 50.125 0.0260322 50.1349 0.0162617C50.1448 0.00649124 50.1581 0.00100136 50.1721 0.00100136L66.2603 0C66.2743 0 66.2877 0.00548836 66.2975 0.0152589C66.3074 0.0250294 66.3129 0.0382821 66.3129 0.0520996L66.3119 4.05372C66.3119 4.06754 66.3064 4.08079 66.2965 4.09056C66.2866 4.10033 66.2733 4.10582 66.2593 4.10582L63.8053 4.10682C63.7971 4.10679 63.7889 4.10867 63.7816 4.1123C63.7742 4.11594 63.7678 4.12123 63.7629 4.12776C63.758 4.13429 63.7547 4.14187 63.7533 4.14989C63.7518 4.15791 63.7523 4.16615 63.7547 4.17395L67.5728 16.267C67.5762 16.2774 67.5829 16.2865 67.5918 16.2929C67.6006 16.2994 67.6114 16.3029 67.6224 16.303H69.2932C69.3071 16.303 69.3205 16.3085 69.3304 16.3183C69.3402 16.3281 69.3458 16.3413 69.3458 16.3551V20.3488C69.3458 20.3626 69.3402 20.3758 69.3304 20.3856C69.3205 20.3954 69.3071 20.4009 69.2932 20.4009L58.788 20.4019C58.774 20.4019 58.7606 20.3964 58.7508 20.3866C58.7409 20.3768 58.7353 20.3636 58.7353 20.3498L58.7333 16.3501C58.7333 16.3363 58.7389 16.3231 58.7487 16.3133C58.7586 16.3035 58.772 16.298 58.7859 16.298L60.6297 16.305C60.638 16.3051 60.6461 16.3032 60.6535 16.2996C60.6608 16.2959 60.6672 16.2906 60.6721 16.2841C60.6771 16.2776 60.6804 16.27 60.6818 16.262C60.6832 16.254 60.6827 16.2457 60.6803 16.2379L59.9416 13.7883C59.9383 13.7775 59.9316 13.7681 59.9225 13.7614C59.9134 13.7547 59.9024 13.7511 59.891 13.7512L54.2989 13.7502C54.2877 13.7501 54.2767 13.7535 54.2676 13.76C54.2585 13.7665 54.2517 13.7757 54.2483 13.7863L53.4488 16.2379C53.4463 16.2458 53.4456 16.2541 53.447 16.2623C53.4483 16.2704 53.4516 16.2782 53.4565 16.2848C53.4615 16.2915 53.4679 16.2969 53.4754 16.3006C53.4829 16.3043 53.4911 16.3061 53.4994 16.3061L55.3442 16.301C55.3582 16.301 55.3716 16.3065 55.3815 16.3163C55.3913 16.3261 55.3969 16.3393 55.3969 16.3531ZM55.1995 10.4108C55.1976 10.417 55.1972 10.4234 55.1983 10.4297C55.1994 10.4361 55.202 10.442 55.2058 10.4472C55.2096 10.4524 55.2146 10.4566 55.2204 10.4595C55.2262 10.4624 55.2325 10.4639 55.239 10.4639L59.1644 10.4609C59.171 10.4609 59.1775 10.4594 59.1834 10.4564C59.1892 10.4535 59.1943 10.4492 59.1982 10.4439C59.202 10.4386 59.2046 10.4325 59.2055 10.426C59.2065 10.4196 59.206 10.413 59.2039 10.4068L57.1729 4.17094C57.1701 4.16272 57.1647 4.15559 57.1575 4.15058C57.1504 4.14556 57.1418 4.14292 57.133 4.14303C57.1243 4.14314 57.1158 4.146 57.1087 4.15119C57.1017 4.15639 57.0965 4.16365 57.0939 4.17195L55.1995 10.4108Z" fill="#4C4C4C"/>
<path d="M86.7316 4.10402L85.1568 4.10702C85.1462 4.10702 85.136 4.1028 85.1284 4.09528C85.1209 4.08777 85.1167 4.07757 85.1167 4.06694L85.1147 0.042082C85.1147 0.0314526 85.1189 0.0212591 85.1264 0.013743C85.1339 0.00622683 85.1442 0.00200434 85.1548 0.00200434L92.5954 0C92.606 0 92.6162 0.00422249 92.6238 0.0117386C92.6313 0.0192548 92.6355 0.0294483 92.6355 0.0400777V4.06193C92.6355 4.0672 92.6345 4.07241 92.6325 4.07727C92.6305 4.08213 92.6275 4.08655 92.6238 4.09027C92.62 4.094 92.6156 4.09695 92.6107 4.09896C92.6059 4.10098 92.6007 4.10201 92.5954 4.10201L91.0748 4.10803C91.0641 4.10803 91.0539 4.11225 91.0464 4.11976C91.0389 4.12728 91.0347 4.13747 91.0347 4.1481V20.3648C91.0347 20.3754 91.0304 20.3856 91.0229 20.3931C91.0154 20.4006 91.0052 20.4049 90.9945 20.4049L85.3424 20.4029C85.3358 20.4028 85.3293 20.4011 85.3236 20.398C85.3178 20.3948 85.3129 20.3903 85.3093 20.3848L77.9158 9.51058C77.911 9.50356 77.9041 9.49825 77.896 9.49542C77.888 9.49259 77.8793 9.49239 77.8711 9.49485C77.863 9.4973 77.8558 9.50229 77.8507 9.50908C77.8456 9.51587 77.8427 9.52411 77.8426 9.53262L77.8436 16.2638C77.8436 16.2744 77.8478 16.2846 77.8554 16.2921C77.8629 16.2996 77.8731 16.3039 77.8837 16.3039L79.5869 16.3018C79.5975 16.3018 79.6077 16.3061 79.6153 16.3136C79.6228 16.3211 79.627 16.3313 79.627 16.3419V20.3638C79.627 20.3744 79.6228 20.3846 79.6153 20.3921C79.6077 20.3996 79.5975 20.4039 79.5869 20.4039L71.7411 20.4009C71.7358 20.4009 71.7306 20.3998 71.7257 20.3978C71.7208 20.3958 71.7164 20.3928 71.7127 20.3891C71.709 20.3854 71.706 20.381 71.704 20.3761C71.702 20.3712 71.7009 20.366 71.7009 20.3608L71.7019 16.3429C71.7019 16.3323 71.7062 16.3221 71.7137 16.3146C71.7212 16.3071 71.7314 16.3028 71.7421 16.3028L73.3249 16.2988C73.3355 16.2988 73.3457 16.2946 73.3532 16.2871C73.3608 16.2796 73.365 16.2694 73.365 16.2588L73.367 4.1441C73.367 4.13347 73.3628 4.12327 73.3553 4.11576C73.3477 4.10824 73.3375 4.10402 73.3269 4.10402L71.8123 4.10502C71.8016 4.10502 71.7914 4.1008 71.7839 4.09328C71.7764 4.08576 71.7722 4.07557 71.7722 4.06494L71.7732 0.042082C71.7732 0.0314526 71.7774 0.0212591 71.7849 0.013743C71.7924 0.00622683 71.8026 0.00200434 71.8133 0.00200434L79.1445 0C79.1508 0 79.1569 0.00144936 79.1625 0.0042319C79.1681 0.00701444 79.1729 0.0110541 79.1766 0.0160317L86.7015 10.2701C86.7065 10.2767 86.7135 10.2817 86.7214 10.2842C86.7293 10.2867 86.7379 10.2867 86.7458 10.2842C86.7538 10.2817 86.7607 10.2767 86.7657 10.2701C86.7707 10.2634 86.7735 10.2553 86.7737 10.247L86.7717 4.1441C86.7717 4.13347 86.7675 4.12327 86.76 4.11576C86.7524 4.10824 86.7422 4.10402 86.7316 4.10402Z" fill="#4C4C4C"/>
<path d="M110.007 4.10482L108.699 4.10782C108.65 4.10849 108.626 4.08478 108.626 4.03669L108.624 0.0480912C108.624 0.016698 108.64 0.00100136 108.671 0.00100136L117.86 0C117.877 0 117.886 0.00834923 117.886 0.0250477V4.03168C117.886 4.05134 117.878 4.0702 117.864 4.0841C117.85 4.09801 117.831 4.10582 117.811 4.10582L116.578 4.10482C116.464 4.10479 116.353 4.14569 116.267 4.22004L110.468 9.23659C110.46 9.24383 110.453 9.25273 110.448 9.26273C110.444 9.27274 110.441 9.28363 110.441 9.29473C110.44 9.30582 110.442 9.31689 110.447 9.32723C110.451 9.33757 110.457 9.34696 110.465 9.35482L117.515 16.2129C117.575 16.2713 117.656 16.304 117.74 16.304L119.029 16.302C119.053 16.302 119.065 16.3141 119.065 16.3381L119.062 20.3367C119.062 20.3486 119.058 20.36 119.051 20.369C119.043 20.378 119.033 20.3839 119.021 20.3858C118.945 20.3985 118.861 20.4049 118.769 20.4049C115.454 20.4009 112.025 20.3995 108.483 20.4009C108.443 20.4009 108.423 20.3808 108.423 20.3407L108.425 16.3602C108.425 16.3187 108.446 16.298 108.489 16.298L110.006 16.304C110.115 16.304 110.13 16.2656 110.053 16.1888L104.16 10.3407C104.08 10.2619 104.04 10.2782 104.04 10.3898L104.041 16.2139C104.041 16.274 104.072 16.304 104.133 16.304L105.775 16.301C105.818 16.301 105.84 16.3224 105.84 16.3652V20.3457C105.84 20.3832 105.821 20.4019 105.784 20.4019H95.0321C95.0216 20.4019 95.0116 20.3976 95.0042 20.3901C94.9968 20.3826 94.9927 20.3724 94.9927 20.3618V16.3572C94.9927 16.3401 94.9996 16.3238 95.0119 16.3118C95.0242 16.2998 95.0409 16.293 95.0583 16.293L97.1097 16.302C97.1234 16.302 97.1364 16.2967 97.1461 16.2871C97.1558 16.2775 97.1612 16.2645 97.1612 16.2509L97.1673 4.15892C97.1673 4.1512 97.1657 4.14356 97.1627 4.13645C97.1597 4.12933 97.1553 4.12288 97.1497 4.11747C97.1442 4.11206 97.1376 4.1078 97.1304 4.10494C97.1232 4.10208 97.1154 4.10068 97.1077 4.10081L95.0785 4.10782C95.057 4.10782 95.0364 4.0993 95.021 4.08411C95.0057 4.06892 94.997 4.04828 94.9967 4.02667L94.9907 0.0260491C94.9907 0.019406 94.9934 0.0130354 94.9984 0.00833802C95.0033 0.00364067 95.01 0.00100136 95.0169 0.00100136L105.896 0C105.915 0 105.924 0.00968444 105.924 0.0290547V4.03969C105.924 4.08244 105.903 4.10382 105.859 4.10382L104.108 4.10682C104.09 4.10682 104.073 4.11379 104.061 4.12619C104.048 4.13859 104.041 4.15541 104.041 4.17295V9.65539C104.041 9.66153 104.043 9.66754 104.046 9.67281C104.049 9.67809 104.053 9.68245 104.059 9.68545C104.078 9.69814 104.096 9.69713 104.112 9.68244C106.105 7.83559 108.082 6.00777 110.044 4.199C110.113 4.13554 110.1 4.10415 110.007 4.10482Z" fill="#4C4C4C"/>
<path d="M134.701 8.2359L134.7 11.8944C134.7 11.9088 134.694 11.9225 134.684 11.9327C134.674 11.9428 134.66 11.9485 134.646 11.9485L130.715 11.9435C130.701 11.9435 130.687 11.9492 130.677 11.9594C130.666 11.9695 130.661 11.9833 130.661 11.9976L130.663 16.2513C130.663 16.2657 130.668 16.2795 130.679 16.2896C130.689 16.2997 130.703 16.3054 130.717 16.3054L135.539 16.3034C135.554 16.3034 135.568 16.2977 135.578 16.2876C135.588 16.2774 135.594 16.2637 135.594 16.2493L135.587 13.642C135.587 13.6276 135.592 13.6139 135.603 13.6037C135.613 13.5936 135.627 13.5879 135.641 13.5879L139.946 13.5849C139.953 13.5849 139.96 13.5863 139.967 13.589C139.973 13.5917 139.979 13.5957 139.984 13.6007C139.989 13.6057 139.993 13.6117 139.996 13.6183C139.999 13.6248 140 13.6319 140 13.639L139.996 20.3507C139.996 20.3651 139.99 20.3789 139.98 20.389C139.97 20.3992 139.956 20.4049 139.942 20.4049L121.742 20.4039C121.727 20.4039 121.713 20.3982 121.703 20.388C121.693 20.3779 121.687 20.3641 121.687 20.3497L121.684 16.3566C121.684 16.3422 121.69 16.3284 121.7 16.3183C121.71 16.3081 121.724 16.3024 121.739 16.3024L123.793 16.3065C123.807 16.3065 123.821 16.3007 123.831 16.2906C123.841 16.2805 123.847 16.2667 123.847 16.2523V4.15753C123.847 4.14318 123.841 4.12942 123.831 4.11927C123.821 4.10912 123.807 4.10342 123.793 4.10342L121.744 4.10642C121.729 4.10642 121.715 4.10072 121.705 4.09058C121.695 4.08043 121.689 4.06666 121.689 4.05231L121.682 0.0541103C121.682 0.0397592 121.688 0.025996 121.698 0.0158482C121.708 0.00570046 121.722 0 121.737 0L139.943 0.00100151C139.95 0.00100151 139.957 0.00240134 139.964 0.00512067C139.97 0.00784001 139.976 0.0118266 139.981 0.0168513C139.986 0.021876 139.99 0.0278409 139.993 0.0344059C139.996 0.040971 139.997 0.0480074 139.997 0.0551134L139.999 6.20373C139.999 6.21808 139.993 6.23184 139.983 6.24199C139.973 6.25214 139.959 6.25784 139.945 6.25784L135.646 6.25684C135.632 6.25684 135.618 6.25113 135.608 6.24099C135.597 6.23084 135.592 6.21707 135.592 6.20272L135.591 4.16053C135.591 4.15343 135.589 4.14639 135.587 4.13983C135.584 4.13326 135.58 4.1273 135.575 4.12227C135.57 4.11725 135.564 4.11326 135.557 4.11054C135.551 4.10782 135.544 4.10642 135.536 4.10642L130.715 4.10542C130.701 4.10542 130.687 4.11112 130.677 4.12127C130.666 4.13142 130.661 4.14518 130.661 4.15953L130.664 8.13168C130.664 8.14603 130.669 8.1598 130.68 8.16994C130.69 8.18009 130.704 8.18579 130.718 8.18579L134.647 8.18178C134.661 8.18178 134.675 8.18748 134.685 8.19763C134.695 8.20778 134.701 8.22154 134.701 8.2359Z" fill="#4C4C4C"/>
</svg>
