<svg width="140" height="67" viewBox="0 0 140 67" fill="none" xmlns="http://www.w3.org/2000/svg">
<path fill-rule="evenodd" clip-rule="evenodd" d="M15.9583 51.4471C9.95911 45.6199 6.95932 42.7065 6.95932 42.7065L1.09197 48.5336C0.488397 49.3328 0.644351 50.4721 1.4403 51.0781C1.75474 51.3175 2.13854 51.4471 2.53316 51.4471C2.54301 51.4471 2.55285 51.4471 2.5627 51.4471C7.0279 51.4471 11.4931 51.4471 15.9583 51.4471Z" fill="#4C4C4C"/>
<path fill-rule="evenodd" clip-rule="evenodd" d="M21.7617 28.1387L8.70466 15.0278L1.41472 22.6529C0.506928 23.6024 0 24.8676 0 26.1839L0 48.5334C0 50.1425 1.29907 51.447 2.90155 51.447C1.90876 51.447 1.10395 50.6388 1.10395 49.642C1.10395 49.162 1.29428 48.7019 1.63287 48.3632" fill="#4C4C4C"/>
<path fill-rule="evenodd" clip-rule="evenodd" d="M114.809 32.6357H111.669L107.919 36.4444V32.6357H105.263V43.1306H107.919V38.7931L111.733 43.1306H114.936L110.005 37.5023L114.809 32.6357Z" fill="#4C4C4C"/>
<path fill-rule="evenodd" clip-rule="evenodd" d="M30.5546 35.3603H26.7193V30.7054H30.5546C32.4931 30.7054 33.3783 31.6363 33.3783 33.0328C33.3783 34.4293 32.4931 35.3603 30.5546 35.3603ZM30.6388 28.2085H23.938V43.0199H26.7193V37.857H30.6388C33.9683 37.857 36.1598 36.1432 36.1598 33.0328C36.1598 29.9223 33.9683 28.2085 30.6388 28.2085Z" fill="#4C4C4C"/>
<path fill-rule="evenodd" clip-rule="evenodd" d="M42.4382 40.93C40.879 40.93 39.4249 39.8085 39.4249 37.8829C39.4249 35.9576 40.879 34.8362 42.4382 34.8362C43.9975 34.8362 45.4515 35.9576 45.4515 37.8829C45.4515 39.8085 43.9975 40.93 42.4382 40.93ZM42.4382 32.3394C39.5724 32.3394 36.7275 34.2015 36.7275 37.8829C36.7275 41.5649 39.5724 43.4267 42.4382 43.4267C45.3041 43.4267 48.1488 41.5649 48.1488 37.8829C48.1488 34.2015 45.3041 32.3394 42.4382 32.3394Z" fill="#4C4C4C"/>
<path fill-rule="evenodd" clip-rule="evenodd" d="M54.9276 40.93C53.3261 40.93 52.1461 39.7662 52.1461 37.8829C52.1461 36.021 53.3682 34.8362 54.9276 34.8362C55.8759 34.8362 56.6977 35.2805 57.3509 36.275L59.6266 34.9631C58.8681 33.3337 57.2244 32.3394 54.9486 32.3394C51.9774 32.3394 49.4487 34.5399 49.4487 37.8829C49.4487 41.2261 51.8511 43.4267 54.9486 43.4267C57.1823 43.4267 58.6783 42.4112 59.732 40.6127L57.5405 39.4066C56.9084 40.2952 56.234 40.93 54.9276 40.93Z" fill="#4C4C4C"/>
<path fill-rule="evenodd" clip-rule="evenodd" d="M83.1974 38.5815C83.0711 40.1894 82.7546 40.5493 82.2066 40.5493C81.8324 40.5493 81.6564 40.5076 81.4001 40.4402L81.4135 43.1563C81.4135 43.1563 81.7435 43.2574 82.3546 43.2574C84.6092 43.2574 85.4521 41.7975 85.663 38.6872L85.9158 35.0267H88.9078V43.1095H91.5631V32.6357H83.6399L83.1974 38.5815Z" fill="#4C4C4C"/>
<path fill-rule="evenodd" clip-rule="evenodd" d="M72.7586 36.4866C73.1379 35.3017 74.1915 34.3706 75.5823 34.3706C77.0574 34.3706 78.0478 35.1747 78.3006 36.4866H72.7586ZM75.6667 32.3394C72.6323 32.3394 70.1667 34.561 70.1667 37.8829C70.1667 41.205 72.6323 43.4267 75.5402 43.4267C77.8371 43.4267 79.291 42.5592 80.3446 40.7607L78.2373 39.7028C77.5841 40.528 76.9941 41.1414 75.5823 41.1414C74.0231 41.1414 72.8851 40.1259 72.7165 38.5178H80.766V37.5868C80.766 34.5188 78.6589 32.3394 75.6667 32.3394Z" fill="#4C4C4C"/>
<path fill-rule="evenodd" clip-rule="evenodd" d="M95.6412 36.4866C96.0205 35.3017 97.0741 34.3706 98.4648 34.3706C99.9398 34.3706 100.93 35.1747 101.183 36.4866H95.6412ZM98.5492 32.3394C95.5147 32.3394 93.0493 34.561 93.0493 37.8829C93.0493 41.205 95.5147 43.4267 98.4227 43.4267C100.719 43.4267 102.173 42.5592 103.227 40.7607L101.12 39.7028C100.467 40.528 99.8767 41.1414 98.4648 41.1414C96.9055 41.1414 95.7675 40.1259 95.5991 38.5178H103.649V37.5868C103.649 34.5188 101.541 32.3394 98.5492 32.3394Z" fill="#4C4C4C"/>
<path fill-rule="evenodd" clip-rule="evenodd" d="M60.5574 34.9631H63.6761V43.1306H66.331V34.9631H69.4499V32.6357H60.5574V34.9631Z" fill="#4C4C4C"/>
<path fill-rule="evenodd" clip-rule="evenodd" d="M120.207 40.93C118.648 40.93 117.194 39.8085 117.194 37.8829C117.194 35.9576 118.648 34.8362 120.207 34.8362C121.766 34.8362 123.22 35.9576 123.22 37.8829C123.22 39.8085 121.766 40.93 120.207 40.93ZM120.207 32.3394C117.341 32.3394 114.496 34.2013 114.496 37.8829C114.496 41.5647 117.341 43.4267 120.207 43.4267C123.073 43.4267 125.918 41.5647 125.918 37.8829C125.918 34.2013 123.073 32.3394 120.207 32.3394Z" fill="#4C4C4C"/>
<path fill-rule="evenodd" clip-rule="evenodd" d="M136.482 32.6343L133.601 39.9843L130.719 32.6343H127.249V43.1102H129.773V36.4782L132.57 43.1102H134.632L137.429 36.4782V43.1102H139.953V32.6343H136.482Z" fill="#4C4C4C"/>
</svg>
