<svg width="140" height="42" viewBox="0 0 140 42" fill="none" xmlns="http://www.w3.org/2000/svg">
<path d="M54.8486 14.8306H58.4861V23.5016C58.4861 24.299 58.948 24.6211 59.7269 24.6211H65.9228C66.7009 24.6211 67.1637 24.299 67.1637 23.5016V14.8306H70.7993V24.0708C70.7993 26.0319 69.105 27.5177 67.1628 27.5177H58.4851C56.5514 27.5177 54.8477 26.0234 54.8477 24.0708V14.8306H54.8486Z" fill="#4C4C4C"/>
<path d="M37.6041 23.6039H41.2235C41.2832 24.3262 41.711 24.622 42.4303 24.622H49.0806C49.6967 24.622 50.0384 24.097 50.0384 23.5269C50.0384 22.7633 49.4743 22.3632 48.7464 22.3632H41.4971C39.109 22.3632 37.4829 21.2079 37.4829 18.7114C37.4829 17.4125 37.9969 16.0365 39.1611 15.3396C39.888 14.8972 40.7777 14.8296 41.6173 14.8296H50.1577C52.0072 14.8296 53.4951 16.1286 53.4781 17.9967V18.6673H49.7393C49.7053 18.0897 49.3626 17.7168 48.7474 17.7168H42.4398C41.7981 17.7168 41.2586 18.039 41.2586 18.7443C41.2586 19.4412 41.8066 19.7042 42.4313 19.7042H50.1596C52.6584 19.7042 53.9513 21.361 53.9513 23.773C53.9513 26.0826 52.8723 27.5168 50.4587 27.5168H41.2245C39.1185 27.5168 37.6296 26.6771 37.6126 24.452L37.6041 23.6039Z" fill="#4C4C4C"/>
<path d="M123.689 14.8306H127.335V23.5016C127.335 24.299 127.798 24.6211 128.576 24.6211H134.771C135.549 24.6211 136.012 24.299 136.012 23.5016V14.8306H139.649V24.0708C139.649 26.0225 137.946 27.5177 136.012 27.5177H127.333C125.391 27.5177 123.688 26.0319 123.688 24.0708L123.689 14.8306Z" fill="#4C4C4C"/>
<path d="M93.0081 25.0128L91.5788 27.5168H87.54L94.4808 14.8306H99.2304L106.172 27.5168H102.132L100.702 25.0128H93.0081ZM96.8509 18.0409L94.5575 22.2702H99.1538L96.8509 18.0409Z" fill="#4C4C4C"/>
<path d="M72.1875 14.8306H83.399C85.8031 14.8306 87.5835 15.6627 87.5835 18.3377C87.5835 19.4929 87.1226 20.5035 86.0956 21.0727C87.2238 21.6673 87.8665 22.7699 87.8665 24.0435C87.8665 25.8356 86.7099 27.5168 84.7686 27.5168H72.1875V14.8306ZM75.9101 24.6211H82.8254C83.5002 24.6211 84.1259 24.2567 84.1259 23.526C84.1259 22.8037 83.4927 22.4309 82.8254 22.4309H75.9101V24.6211ZM75.9101 19.8076H82.8254C83.4491 19.8076 83.8438 19.3746 83.8438 18.7716C83.8438 18.1686 83.4586 17.7197 82.8254 17.7197H75.9101V19.8076Z" fill="#4C4C4C"/>
<path d="M106.864 14.8306H119.051C121.482 14.8306 122.655 16.8011 122.655 19.0008C122.655 20.4265 122.133 21.7602 120.815 22.4412C122.099 23.0601 122.689 24.0369 122.689 25.4646V27.5187H119.051V25.4655C119.051 24.2595 118.376 23.8266 117.202 23.8266H110.614V27.5187H106.865L106.864 14.8306ZM110.613 20.9365H117.434C118.314 20.9365 118.906 20.1551 118.906 19.3314C118.906 18.2785 118.118 17.7178 117.1 17.7178H110.613V20.9365Z" fill="#4C4C4C"/>
<path d="M16.4569 11.6548C20.4882 11.6548 24.8099 12.47 28.2496 14.6359C30.4834 16.0542 32.5628 18.2031 32.5628 21.0039C32.5628 24.2743 29.7479 26.6525 27.0513 28.0444C23.8426 29.6928 20.0509 30.3455 16.456 30.3455C12.4257 30.3455 8.11247 29.5397 4.67189 27.3654C2.43811 25.9471 0.350098 23.7981 0.350098 21.0039C0.350098 17.7185 3.15746 15.3488 5.86166 13.9559C9.07981 12.3085 12.863 11.6548 16.4569 11.6548ZM16.4229 12.6485C12.6747 12.6485 8.63494 13.3445 5.38272 15.2887C3.3373 16.5031 1.31744 18.4145 1.31744 20.9532C1.31744 23.9353 4.0557 26.0223 6.50339 27.2207C9.53319 28.6887 13.076 29.2598 16.4229 29.2598C20.1786 29.2598 24.2193 28.5619 27.4715 26.6177C29.5084 25.3948 31.5368 23.4929 31.5368 20.9541C31.5368 17.9655 28.8061 15.8757 26.3509 14.6876C23.3201 13.2167 19.7773 12.6485 16.4229 12.6485ZM2.27626 18.8897L8.44659 17.8453L10.3037 13.8451L12.1531 17.8453L18.3225 18.8897L12.1531 19.9435L10.3037 23.9522L8.44659 19.9435L2.27626 18.8897ZM15.8408 21.9375L18.562 21.4632L19.3751 19.6542L20.1881 21.4632L22.9103 21.9375L20.1881 22.4043L19.3751 24.2142L18.562 22.4043L15.8408 21.9375ZM21.4725 17.1146L24.1938 16.6478L25.0068 14.8313L25.8199 16.6478L28.5411 17.1146L25.8199 17.5898L25.0068 19.3997L24.1928 17.5898L21.4725 17.1146ZM18.562 25.6757L21.2747 25.2089L22.0878 23.3915L22.9093 25.2089L25.6306 25.6757L22.9093 26.1509L22.0878 27.9608L21.2747 26.1509L18.562 25.6757ZM10.2014 26.3294L12.9227 25.8626L13.7442 24.0433L14.5563 25.8626L17.2785 26.3294L14.5563 26.8046L13.7442 28.6145L12.9227 26.8046L10.2014 26.3294ZM23.8861 21.8633L26.5989 21.3871L27.4119 19.5782L28.2335 21.3871L30.9547 21.8633L28.2335 22.3301L27.411 24.1372L26.5979 22.3292L23.8861 21.8633Z" fill="#4C4C4C"/>
</svg>
