<svg width="132" height="32" viewBox="0 0 132 32" fill="none" xmlns="http://www.w3.org/2000/svg">
<g clip-path="url(#clip0_1_1587)">
<path d="M3.48191 0.359863H15.7098C17.204 0.58925 18.2303 1.26996 18.7887 2.402C19.0782 2.99483 19.2229 3.56532 19.2229 4.11346C19.2142 8.20072 19.2259 12.1316 19.258 15.906C19.28 18.6095 18.3282 20.5667 15.3195 20.6561C13.2786 20.7127 11.1675 20.7157 8.98622 20.6651C8.80786 20.6621 8.71868 20.7514 8.71868 20.9332L8.6836 31.6399H3.46875L3.48191 0.359863ZM13.9686 3.76938C13.9686 3.73738 13.9561 3.7067 13.9339 3.68407C13.9117 3.66144 13.8816 3.64873 13.8502 3.64873H8.82395C8.79254 3.64873 8.76242 3.66144 8.74021 3.68407C8.718 3.7067 8.70553 3.73738 8.70553 3.76938V17.1125C8.70553 17.1445 8.718 17.1752 8.74021 17.1979C8.76242 17.2205 8.79254 17.2332 8.82395 17.2332H13.8502C13.8816 17.2332 13.9117 17.2205 13.9339 17.1979C13.9561 17.1752 13.9686 17.1445 13.9686 17.1125V3.76938Z" fill="#4C4C4C"/>
<path d="M21.8589 0.359863H34.6087L34.5956 3.36721C34.5926 3.52212 34.5166 3.59958 34.3675 3.59958H27.4816C27.2769 3.59958 27.1746 3.70235 27.1746 3.90791L27.1834 13.7388C27.1834 13.9056 27.2652 13.989 27.429 13.989H33.2666C33.4128 13.989 33.4859 14.0635 33.4859 14.2124V17.1215C33.4859 17.196 33.4479 17.2332 33.3719 17.2332L27.4246 17.2377C27.2609 17.2377 27.179 17.3196 27.179 17.4834V28.1454C27.179 28.3152 27.2609 28.4002 27.4246 28.4002H34.3675C34.5137 28.4002 34.5868 28.4761 34.5868 28.628L34.5912 31.6399H21.8545L21.8589 0.359863Z" fill="#4C4C4C"/>
<path d="M40.4724 0.359863H49.7968C52.2003 0.884176 53.3889 2.37221 53.3626 4.82397C53.348 6.30753 53.3333 7.79855 53.3187 9.29701C53.3158 9.44596 53.2427 9.52044 53.0994 9.52044H48.2837C48.1375 9.52044 48.0644 9.44447 48.0644 9.29254V3.81854C48.0644 3.67256 47.9913 3.59958 47.8451 3.59958H42.3715C42.1522 3.59958 42.0425 3.7098 42.0425 3.93025V28.0114C42.0425 28.0849 42.0712 28.1553 42.1222 28.2073C42.1732 28.2592 42.2423 28.2884 42.3145 28.2884H47.8451C47.9913 28.2884 48.0644 28.2154 48.0644 28.0695V23.8377C48.0644 23.6977 48.1331 23.6277 48.2705 23.6277L53.0994 23.6322C53.2368 23.6322 53.3099 23.7022 53.3187 23.8422C53.4035 25.6237 53.405 27.0328 53.3231 28.0695C53.1564 30.1816 51.9664 31.3717 49.753 31.6399H40.3101C38.9768 31.3717 38.006 30.7447 37.3979 29.7586C36.9885 29.0943 36.7868 28.284 36.7926 27.3277C36.8248 19.5732 36.8248 12.0199 36.7926 4.66757C36.7838 2.38413 38.24 0.824595 40.4724 0.359863Z" fill="#4C4C4C"/>
<path d="M62.174 0.359863H67.0643L74.0642 31.6399H68.5949L67.1739 24.0388C67.1476 23.8929 67.0613 23.8199 66.9151 23.8199H60.3494C60.2003 23.8199 60.1097 23.8943 60.0775 24.0433L58.3495 31.6399H54.5425L62.174 0.359863ZM60.7354 20.3612C60.7301 20.3829 60.7297 20.4056 60.7342 20.4275C60.7388 20.4494 60.7482 20.47 60.7617 20.4877C60.7752 20.5053 60.7925 20.5196 60.8123 20.5294C60.832 20.5393 60.8537 20.5444 60.8757 20.5444L66.2616 20.6025C66.2831 20.6023 66.3044 20.5973 66.3237 20.5877C66.3431 20.5781 66.3601 20.5643 66.3736 20.5472C66.387 20.53 66.3965 20.5101 66.4014 20.4887C66.4064 20.4674 66.4065 20.4452 66.402 20.4237L63.8406 7.88941C63.8352 7.85515 63.8182 7.82391 63.7925 7.8012C63.7667 7.77848 63.734 7.76573 63.6999 7.7652C63.6659 7.76466 63.6327 7.77638 63.6063 7.79828C63.5799 7.82018 63.5619 7.85086 63.5555 7.88494L60.7354 20.3612Z" fill="#4C4C4C"/>
<path d="M76.3491 0.359863H81.6341V13.8058C81.6341 13.8544 81.6531 13.901 81.6868 13.9353C81.7205 13.9697 81.7663 13.989 81.814 13.989H87.4148C87.5668 13.989 87.6428 13.913 87.6428 13.7611L87.6823 0.359863H92.8972V31.6399H87.6691L87.6428 17.4253C87.6399 17.2704 87.5624 17.193 87.4104 17.193L81.9236 17.1974C81.7277 17.1974 81.6297 17.2972 81.6297 17.4968L81.6254 31.6399H76.3447L76.3491 0.359863Z" fill="#4C4C4C"/>
<path d="M95.2788 0.359863H110.704L110.66 3.42083C110.657 3.57277 110.583 3.64873 110.437 3.64873H105.853C105.71 3.64873 105.638 3.72321 105.638 3.87216L105.634 31.6399H100.323L100.327 3.90344C100.327 3.73363 100.244 3.64873 100.077 3.64873H95.4893C95.3168 3.64873 95.232 3.56234 95.2349 3.38955L95.2788 0.359863Z" fill="#4C4C4C"/>
<path d="M116.498 0.359863H121.441L128.445 31.6399H122.927L121.563 24.0433C121.537 23.8943 121.449 23.8199 121.3 23.8199H114.726C114.521 23.8199 114.397 23.9212 114.353 24.1237L112.664 31.6399H108.871L116.498 0.359863ZM115.011 20.6248C115.006 20.6469 115.007 20.6696 115.012 20.6915C115.017 20.7134 115.027 20.7339 115.041 20.7514C115.054 20.7689 115.072 20.7831 115.092 20.7929C115.112 20.8027 115.134 20.8079 115.156 20.808L120.634 20.8661C120.656 20.8665 120.677 20.8619 120.697 20.8526C120.718 20.8434 120.735 20.8297 120.75 20.8126C120.764 20.7955 120.774 20.7754 120.78 20.7538C120.786 20.7321 120.787 20.7095 120.783 20.6874L118.173 7.91175C118.168 7.87637 118.15 7.8441 118.124 7.82063C118.097 7.79716 118.063 7.784 118.028 7.78346C117.993 7.78293 117.959 7.79506 117.931 7.81771C117.904 7.84037 117.886 7.87209 117.879 7.90728L115.011 20.6248Z" fill="#4C4C4C"/>
</g>
<defs>
<clipPath id="clip0_1_1587">
<rect width="131.577" height="31.28" fill="white" transform="translate(0.37207 0.359863)"/>
</clipPath>
</defs>
</svg>
