<svg width="18" height="18" viewBox="0 0 18 18" fill="none" xmlns="http://www.w3.org/2000/svg">
<path d="M13.5 7.5C13.5 9.98175 11.4818 12 9 12C6.51825 12 4.5 9.98175 4.5 7.5C4.5 5.01825 6.51825 3 9 3C11.4818 3 13.5 5.01825 13.5 7.5ZM9.75 5.25H9.129C8.8245 6.0705 7.8285 6.10575 7.5 6.10575V6.75H9V9.75H9.75V5.25ZM16.5 8.80275L15.0787 9.67875L15.594 11.25L13.9537 11.595L13.8945 13.245L12.2347 13.017L11.6047 14.547L10.122 13.7738L9 15L7.87725 13.7745L6.3945 14.5477L5.7645 13.0177L4.10475 13.2457L4.0455 11.5958L2.406 11.25L2.92125 9.67875L1.5 8.80275L2.5305 7.5L1.5 6.19725L2.92125 5.32125L2.406 3.75L4.04625 3.405L4.1055 1.755L5.76525 1.983L6.39525 0.453L7.878 1.22625L9 0L10.1227 1.2255L11.6055 0.45225L12.2355 1.98225L13.8953 1.75425L13.9545 3.40425L15.594 3.75L15.0787 5.32125L16.5 6.19725L15.4695 7.5L16.5 8.80275ZM14.25 7.5C14.25 4.6005 11.8995 2.25 9 2.25C6.1005 2.25 3.75 4.6005 3.75 7.5C3.75 10.3995 6.1005 12.75 9 12.75C11.8995 12.75 14.25 10.3995 14.25 7.5ZM12.8558 15.207L14.6565 18L15.516 16.5H17.25L15.2587 13.4227C14.571 14.1495 13.7595 14.754 12.8558 15.207ZM2.74125 13.4227L0.75 16.5H2.484L3.3435 18L5.14425 15.207C4.2405 14.754 3.429 14.1495 2.74125 13.4227Z" fill="#E7CE4F"/>
</svg>
