<svg width="18" height="18" viewBox="0 0 18 18" fill="none" xmlns="http://www.w3.org/2000/svg">
<g clip-path="url(#clip0_103_4809)">
<path d="M15.8663 6.48C15.1845 7.61925 14.121 8.78025 12.7935 8.733C12.4838 9.2625 12.1545 9.99075 11.7892 10.8353L10.8053 11.25C11.5072 9.49275 12.4785 7.52925 13.5787 6.0045C13.0763 6.40125 12.2692 7.23225 11.5822 8.09175C10.7587 6.72075 11.3573 5.3235 12.312 4.2075C12.3278 4.68825 12.5813 5.1045 12.7628 5.31375C12.6975 4.91625 12.6772 4.197 12.909 3.5505C13.4475 3.0015 13.932 2.59725 14.4938 2.2305C14.4315 2.589 14.5538 3 14.6903 3.25125C14.7083 2.88375 14.8582 2.17875 15.081 1.87125C15.774 1.326 16.83 0.841501 18 0.750001C17.9393 1.47975 17.673 2.68125 17.232 3.453C16.8458 3.756 16.3162 3.963 15.8888 4.07775C16.2585 4.1445 16.662 4.1355 17.0093 4.077C16.8075 4.63425 16.5952 5.148 16.2607 5.784C15.7515 6.135 15.0773 6.333 14.6085 6.40275C14.9535 6.543 15.5625 6.5865 15.8663 6.48ZM5.4855 9.33375L5.96925 9.9195L9.549 7.82625L9.048 7.25025L5.4855 9.33375ZM10.7055 9.15525L10.2045 8.58L6.60075 10.686L7.0845 11.2718L10.7055 9.15525ZM14.2147 9.1605C13.899 9.31275 13.5765 9.41625 13.2502 9.459C13.1602 9.63225 13.0658 9.8295 12.9675 10.0388L13.191 10.2953C13.6582 10.8143 13.5352 11.5733 12.909 11.9745C12.3293 12.3472 8.90325 14.5065 8.1195 15.0007C8.064 14.46 7.851 13.9575 7.5 13.5397C7.14825 13.122 2.91375 8.00775 1.85775 6.65625C1.506 6.20625 1.4265 5.7225 1.6365 5.29425C1.8375 4.8825 2.268 4.60575 2.709 4.60575C3.39825 4.60575 3.765 5.097 3.87075 5.517C3.99075 5.99775 3.8445 6.44025 3.4035 6.78075L4.40025 7.99875L10.2472 4.66425C11.3138 3.876 11.6138 2.421 10.9447 1.2795C10.4813 0.489751 9.6255 6.00689e-07 8.71125 6.00689e-07C7.82025 6.00689e-07 8.1165 -0.0119995 1.5375 3.35625C0.612 3.7995 0 4.6965 0 5.75775C0 6.41025 0.231 7.07475 0.66675 7.623C1.737 8.9685 6.3375 14.5117 6.37875 14.5658C6.657 14.9355 6.699 15.405 6.49125 15.8205C6.2835 16.2367 5.88225 16.485 5.4195 16.485C4.73025 16.485 4.3635 15.9937 4.25775 15.573C4.14075 15.1012 4.26675 14.667 4.71075 14.3325L3.753 13.1737C3.1365 13.6725 2.79525 14.2957 2.72025 15.0052C2.54625 16.659 3.864 18 5.43 18C5.877 18 6.41325 17.8673 6.81075 17.6175L13.881 13.158C14.5987 12.66 15 11.8223 15 10.9853C15 10.4265 14.82 9.89475 14.484 9.483L14.2147 9.1605ZM8.265 1.614C8.406 1.54875 8.5635 1.5135 8.72175 1.5135C9.12075 1.5135 9.4695 1.72425 9.654 2.0775C9.888 2.5245 9.8235 3.17925 9.243 3.5115L5.42025 5.6775C5.382 4.86075 4.986 4.11675 4.329 3.6285L8.265 1.614ZM9.83775 11.6513L10.1085 10.9725L10.2952 10.5158L7.7085 12.0285L8.19225 12.6143L9.83775 11.6513Z" fill="#A2BFBA"/>
</g>
<defs>
<clipPath id="clip0_103_4809">
<rect width="18" height="18" fill="white"/>
</clipPath>
</defs>
</svg>
