<svg width="18" height="18" viewBox="0 0 18 18" fill="none" xmlns="http://www.w3.org/2000/svg">
<path d="M5.25 11.25H9V12H5.25V11.25ZM5.25 14.25H9V13.5H5.25V14.25ZM5.25 9.75H12.75V9H5.25V9.75ZM16.5 1.5V10.7895C16.5 12.5827 11.514 18 9.14175 18H1.5V1.5H3.75V2.25C3.75 3.07725 4.42275 3.75 5.25 3.75C6.07725 3.75 6.75 3.07725 6.75 2.25V1.5H11.25V2.25C11.25 3.07725 11.9227 3.75 12.75 3.75C13.5773 3.75 14.25 3.07725 14.25 2.25V1.5H16.5ZM15 6.75H3V16.5H8.5215C11.6385 16.5 10.5 12 10.5 12C10.5 12 15 13.2375 15 10.1573V6.75ZM6 0.75C6 0.336 5.66475 0 5.25 0C4.83525 0 4.5 0.336 4.5 0.75V2.25C4.5 2.664 4.83525 3 5.25 3C5.66475 3 6 2.664 6 2.25V0.75ZM13.5 0.75C13.5 0.336 13.1648 0 12.75 0C12.3352 0 12 0.336 12 0.75V2.25C12 2.664 12.3352 3 12.75 3C13.1648 3 13.5 2.664 13.5 2.25V0.75Z" fill="#95B4BE"/>
</svg>
