<svg width="18" height="18" viewBox="0 0 18 18" fill="none" xmlns="http://www.w3.org/2000/svg">
<path fill-rule="evenodd" clip-rule="evenodd" d="M6.21872 0C6.67622 5.39171 2 7.24795 2 11.9969C2 15.2226 4.30173 17.9759 8.74995 17.9999C13.1982 18.0239 15.4999 14.6894 15.4999 11.2829C15.4999 8.17719 13.9534 5.24846 11.0359 3.42748C11.7289 5.38271 10.8064 7.16845 9.91019 7.78344C9.96269 5.28071 9.06645 1.56674 6.21872 0ZM9.75194 9.74993C12.5682 12.7417 10.8387 16.4999 8.5767 16.4999C7.20046 16.4999 6.49247 15.5511 6.49997 14.5671C6.51422 12.7424 8.5527 12.7409 9.75194 9.74993V9.74993Z" fill="#BB8D8D"/>
</svg>
