<svg width="18" height="18" viewBox="0 0 18 18" fill="none" xmlns="http://www.w3.org/2000/svg">
<g clip-path="url(#clip0_103_4247)">
<path d="M18 9.98475C18 8.445 17.4345 7.71525 16.9373 7.368C17.2305 6.225 17.7098 3.5085 16.215 1.81125C15.5115 1.0125 14.367 0.65625 13.125 0.85575C12.1493 0.438 10.6755 0 9 0C7.3245 0 5.85075 0.438 4.875 0.85575C3.633 0.65625 2.4885 1.01175 1.785 1.81125C0.29025 3.5085 0.77025 6.225 1.06275 7.368C0.5655 7.71525 0 8.44425 0 9.98475C0 10.7317 0.2445 11.583 0.7395 12.3113C0.37575 13.377 1.13175 14.598 2.45175 14.4517C2.21325 15.6682 3.4755 16.6477 4.76325 16.0477C4.6125 16.92 5.829 17.9827 7.3455 17.2245C7.84875 17.6535 8.2365 18 8.9985 18C9.86475 18 10.383 17.5177 10.7062 17.2238C12.2227 17.9827 13.3868 16.9193 13.2367 16.047C14.5253 16.647 15.7868 15.6675 15.5483 14.451C16.8682 14.5972 17.6243 13.3762 17.2605 12.3105C17.7547 11.583 18 10.731 18 9.98475ZM9 14.9122C7.7085 14.9122 7.2 13.5 7.2 13.5H10.8C10.8 13.5 10.341 14.9122 9 14.9122ZM11.6835 12.6683C10.8945 12.282 9.84225 11.8238 9 12.4268C8.157 11.8238 7.1055 12.282 6.3165 12.6683C3.12825 14.2283 0.2985 9.651 1.935 8.58525C2.088 8.48625 2.301 8.484 2.439 8.5455C2.93475 8.7645 3.4935 8.40225 3.4935 7.86C3.4935 6.1995 4.0125 4.5345 5.109 3.369L5.12025 3.3615C7.07325 1.4145 10.926 1.4145 12.879 3.3615L12.891 3.36975C13.9875 4.53525 14.5065 6.20025 14.5065 7.86C14.5065 8.4045 15.0675 8.76375 15.561 8.5455C15.6667 8.49825 15.888 8.4705 16.0643 8.58525C17.6768 9.62925 14.9288 14.256 11.6835 12.6683ZM11.8125 7.125C10.9695 7.125 10.242 7.59675 9.85725 8.2845C9.5775 8.1975 9.29925 8.154 9 8.154C8.70075 8.154 8.4225 8.1975 8.14275 8.2845C7.758 7.59675 7.0305 7.125 6.1875 7.125C4.947 7.125 3.9375 8.1345 3.9375 9.375C3.9375 10.6155 4.947 11.625 6.1875 11.625C7.11075 11.625 7.90125 11.064 8.24775 10.2668C8.43225 9.84225 8.54325 9.291 9 9.291C9.45675 9.291 9.5685 9.84225 9.75225 10.2668C10.0988 11.064 10.8892 11.625 11.8125 11.625C13.053 11.625 14.0625 10.6155 14.0625 9.375C14.0625 8.1345 13.053 7.125 11.8125 7.125ZM6.1875 10.5C5.5665 10.5 5.0625 9.996 5.0625 9.375C5.0625 8.754 5.5665 8.25 6.1875 8.25C6.8085 8.25 7.3125 8.754 7.3125 9.375C7.3125 9.996 6.8085 10.5 6.1875 10.5ZM11.8125 10.5C11.1915 10.5 10.6875 9.996 10.6875 9.375C10.6875 8.754 11.1915 8.25 11.8125 8.25C12.4335 8.25 12.9375 8.754 12.9375 9.375C12.9375 9.996 12.4335 10.5 11.8125 10.5Z" fill="#A19DB2"/>
</g>
<defs>
<clipPath id="clip0_103_4247">
<rect width="18" height="18" fill="white"/>
</clipPath>
</defs>
</svg>
