<svg width="19" height="18" viewBox="0 0 19 18" fill="none" xmlns="http://www.w3.org/2000/svg">
<path d="M18.5 2.5C18.221 5.57875 16.394 8.56825 13.3453 9.5785C13.568 9.1645 13.7923 8.71975 14.0068 8.24125C16.193 7.1005 17.0345 5.05375 17.3547 3.553H15.3387C15.383 3.2155 15.416 2.8615 15.443 2.49925H18.5V2.5ZM0.5 2.5C0.779 5.57875 2.606 8.56825 5.65475 9.5785C5.432 9.1645 5.20775 8.71975 4.99325 8.24125C2.807 7.1005 1.9655 5.05375 1.64525 3.553H3.66125C3.61775 3.21625 3.58475 2.8615 3.55775 2.5H0.5ZM14.75 1C14.75 8.35225 10.9295 10.7898 10.556 13.75H8.45225C8.07875 10.7898 4.25 8.35225 4.25 1H14.75ZM9.27125 10.7898C7.85675 8.34475 7.295 5.21575 7.28675 2.5H6.0125C6.16625 5.986 7.505 8.74975 9.27125 10.7898ZM10.5785 14.5H8.429C8.2775 15.3903 7.9565 16.4642 6.50075 16.4642V17.5H12.5007V16.4642C11.0015 16.4642 10.7225 15.3903 10.5785 14.5Z" fill="#BB8D8D"/>
</svg>
