<svg style="display: none;" aria-hidden="true" xmlns="http://www.w3.org/2000/svg" xmlns:xlink="http://www.w3.org/1999/xlink"><symbol viewBox="0 0 18 18" id="svg-angleDown"><path d="M6.48526 6.65683L5.07104 8.07104L9.14211 12.1421L13.2132 8.07104L11.799 6.65683L9.14211 9.31369L6.48526 6.65683Z"/></symbol><symbol viewBox="0 0 28 16" id="svg-arrowLeft"><path d="M7.37361 2L8.54832 3.2L4.73914 7.09116H26.5V8.78822H4.62104L8.5483 12.8L7.37358 14L1.5 8.00001L7.37361 2Z"/></symbol><symbol viewBox="0 0 28 16" id="svg-arrowRight"><path d="M20.6264 2L19.4517 3.2L23.2609 7.09116H1.5V8.78822H23.379L19.4517 12.8L20.6264 14L26.5 8.00001L20.6264 2Z"/></symbol><symbol viewBox="0 0 24 24" id="svg-linkedin"><path d="M9.075 8.25163C9.075 8.82704 8.6125 9.29329 8.04167 9.29329C7.47083 9.29329 7.00833 8.82704 7.00833 8.25163C7.00833 7.67663 7.47083 7.20996 8.04167 7.20996C8.6125 7.20996 9.075 7.67663 9.075 8.25163ZM9.08333 10.1266H7V16.7933H9.08333V10.1266ZM12.4092 10.1266H10.3392V16.7933H12.4096V13.2937C12.4096 11.3479 14.9217 11.1887 14.9217 13.2937V16.7933H17V12.572C17 9.28871 13.2825 9.40829 12.4092 11.0245V10.1266Z"/></symbol><symbol viewBox="0 0 20 20" id="svg-menu"><path d="M0 0H4V4H0V0zM8 0H12V4H8V0zM20 0H16V4H20V0zM0 8H4V12H0V8zM12 8H8V12H12V8zM16 8H20V12H16V8zM4 16H0V20H4V16zM8 16H12V20H8V16zM20 16H16V20H20V16z"/></symbol><symbol viewBox="0 0 44 24" id="svg-mouseScroll"><path d="M28.5 10.875C29.0977 10.875 29.625 11.3672 29.625 12 29.625 12.5977 29.0977 13.125 28.5 13.125L27.375 13.125C26.7422 13.125 26.25 12.5977 26.25 12 26.25 11.3672 26.7422 10.875 27.375 10.875L28.5 10.875zM34.125 10.875C34.7227 10.875 35.25 11.3672 35.25 12 35.25 12.5977 34.7227 13.125 34.125 13.125L33 13.125C32.3672 13.125 31.875 12.5977 31.875 12 31.875 11.3672 32.3672 10.875 33 10.875L34.125 10.875zM39.75 10.875C40.3477 10.875 40.875 11.3672 40.875 12 40.875 12.5977 40.3477 13.125 39.75 13.125L38.625 13.125C37.9922 13.125 37.5 12.5977 37.5 12 37.5 11.3672 37.9922 10.875 38.625 10.875L39.75 10.875zM23 13.125L23 10.875C23 7.74609 20.4688 5.25 17.375 5.25L10.625 5.25C7.49609 5.25 5 7.74609 5 10.875L5 13.125C5 16.2187 7.49609 18.75 10.625 18.75L17.375 18.75C20.4688 18.75 23 16.2187 23 13.125zM10.625 17.0625C8.44531 17.0273 6.6875 15.2695 6.6875 13.125L6.6875 10.875C6.6875 8.69531 8.44531 6.9375 10.625 6.9375L17.375 6.9375C19.5195 6.9375 21.2773 8.69531 21.3125 10.875L21.3125 13.125C21.2773 15.2695 19.5195 17.0273 17.375 17.0625L10.625 17.0625zM19.625 12C19.625 11.3672 19.0977 10.875 18.5 10.875L17.375 10.875C16.7422 10.875 16.25 11.3672 16.25 12 16.25 12.5977 16.7422 13.125 17.375 13.125L18.5 13.125C19.0977 13.125 19.625 12.5977 19.625 12z"/></symbol><symbol viewBox="0 0 52 11" id="svg-ruso"><path d="M13.4243 6.35301V.251953H15.6153V6.27665C15.6153 7.69226 16.4376 8.66538 18.005 8.66538 19.5724 8.66538 20.3781 7.69129 20.3781 6.27665V.251953H22.5847V6.33832C22.5847 8.86411 21.0927 10.5832 18.005 10.5832 14.9153 10.5832 13.4243 8.84845 13.4243 6.35301zM27.791 8.96925L28.9619 7.3265C29.6775 8.07249 30.7877 8.69513 32.1877 8.69513 33.3752 8.69513 33.9528 8.14788 33.9528 7.56929 33.9528 5.77383 28.1102 7.00637 28.1102 3.18734 28.1102 1.49859 29.5708.0986328 31.9595.0986328 33.5729.0986328 34.9112.58519 35.9156 1.51425L34.7134 3.0963C33.893 2.33562 32.7966 1.98612 31.7618 1.98612 30.8337 1.98612 30.3168 2.39632 30.3168 3.00525 30.3168 4.61764 36.1437 3.53782 36.1437 7.3265 36.1437 9.18267 34.8202 10.5826 32.0819 10.5826 30.1347 10.5826 28.7348 9.92768 27.791 8.96925zM41.2124 5.29241C41.2124 2.2086 43.467 0 46.5508 0 49.6493 0 51.9039 2.2086 51.9039 5.29241 51.9039 8.37525 49.6493 10.5838 46.5508 10.5838 43.467 10.5838 41.2124 8.37525 41.2124 5.29241zM49.664 5.29241C49.664 3.37555 48.4373 1.9335 46.5508 1.9335 44.6643 1.9335 43.4523 3.37555 43.4523 5.29241 43.4523 7.19459 44.6643 8.65132 46.5508 8.65132 48.4373 8.65132 49.664 7.19459 49.664 5.29241zM5.93463 6.5351C7.03012 6.27665 8.15693 5.31822 8.15693 3.52275 8.15693 1.63624 6.86369.251953 4.74809.251953H0V2.15315H2.16063 2.32118 4.42894C5.29633 2.15315 5.95029 2.67005 5.95029 3.52275 5.95029 4.37447 5.29535 4.89236 4.42894 4.89236H2.32118 2.16063.000978824V10.4001H2.16161V6.79453H3.74463L5.73687 10.4011H8.21763L5.93463 6.5351z"/></symbol><symbol viewBox="0 0 24 24" id="svg-youtube"><path d="M15.8075 7.59206C14.0055 7.46906 9.992 7.46956 8.1925 7.59206C6.244 7.72506 6.0145 8.90206 6 12.0001C6.0145 15.0926 6.242 16.2746 8.1925 16.4081C9.9925 16.5306 14.0055 16.5311 15.8075 16.4081C17.756 16.2751 17.9855 15.0981 18 12.0001C17.9855 8.90756 17.758 7.72556 15.8075 7.59206ZM10.5 14.0001V10.0001L14.5 11.9966L10.5 14.0001Z"/></symbol></svg>