<svg width="18" height="18" viewBox="0 0 18 18" fill="none" xmlns="http://www.w3.org/2000/svg">
<path d="M11.25 0C7.52344 0 4.5 1.26562 4.5 2.8125V4.67578C1.86328 5.0625 0 6.11719 0 7.3125V15.1875C0 16.7695 3.02344 18 6.75 18C10.4766 18 13.5 16.7695 13.5 15.1875V13.3594C16.1016 12.9727 18 11.918 18 10.6875V2.8125C18 1.26562 14.9766 0 11.25 0ZM11.8125 15.082C11.4609 15.4688 9.66797 16.3125 6.75 16.3125C3.79688 16.3125 2.03906 15.4688 1.6875 15.082V13.6758C2.91797 14.2734 4.71094 14.625 6.75 14.625C8.75391 14.625 10.5469 14.2734 11.8125 13.6758V15.082ZM11.8125 11.707C11.4609 12.0938 9.66797 12.9375 6.75 12.9375C3.79688 12.9375 2.03906 12.0938 1.6875 11.707V10.125C2.91797 10.8281 4.71094 11.25 6.75 11.25C8.75391 11.25 10.5469 10.8281 11.8125 10.125V11.707ZM6.75 9.5625C3.9375 9.5625 1.6875 8.82422 1.6875 7.875C1.6875 6.96094 3.9375 6.1875 6.75 6.1875C9.52734 6.1875 11.8125 6.96094 11.8125 7.875C11.8125 8.82422 9.52734 9.5625 6.75 9.5625ZM16.3125 10.582C16.0312 10.8633 15.082 11.3555 13.5 11.6367V9.94922C14.5898 9.80859 15.5391 9.52734 16.3125 9.17578V10.582ZM16.3125 7.20703C16.0312 7.48828 15.082 7.98047 13.5 8.26172V7.3125C13.5 7.06641 13.3945 6.82031 13.2539 6.60938C14.4492 6.39844 15.5039 6.08203 16.3125 5.625V7.20703ZM11.25 5.0625C11.0742 5.0625 10.8984 5.0625 10.7227 5.0625C9.80859 4.78125 8.71875 4.60547 7.52344 4.53516C6.71484 4.21875 6.1875 3.83203 6.1875 3.375C6.1875 2.46094 8.4375 1.6875 11.25 1.6875C14.0273 1.6875 16.3125 2.46094 16.3125 3.375C16.3125 4.32422 14.0273 5.0625 11.25 5.0625Z" fill="#9DB2A1"/>
</svg>
