<svg width="18" height="18" viewBox="0 0 18 18" fill="none" xmlns="http://www.w3.org/2000/svg">
<path fill-rule="evenodd" clip-rule="evenodd" d="M12 5.25H18V18H0V0H12V5.25ZM5.25 14.25H3.75V17.25H5.25V14.25ZM8.25 14.25H6.75V17.25H8.25V14.25ZM13.5 14.25H12V17.25H13.5V14.25ZM16.5 6.75H12V12.75H15V16.5H16.5V6.75ZM10.5 1.5H1.5V16.5H2.25V12.75H9.75V16.5H10.5V1.5ZM4.5 11.25H3V9.75H4.5V11.25ZM6.75 11.25H5.25V9.75H6.75V11.25ZM9 11.25H7.5V9.75H9V11.25ZM15 9.75V11.25H13.5V9.75H15ZM4.5 9H3V7.5H4.5V9ZM6.75 9H5.25V7.5H6.75V9ZM9 9H7.5V7.5H9V9ZM13.5 7.5H15V9H13.5V7.5ZM4.5 6.75H3V5.25H4.5V6.75ZM6.75 6.75H5.25V5.25H6.75V6.75ZM9 6.75H7.5V5.25H9V6.75ZM4.5 4.5H3V3H4.5V4.5ZM6.75 4.5H5.25V3H6.75V4.5ZM9 4.5H7.5V3H9V4.5Z" fill="#B6B188"/>
</svg>
