<svg width="18" height="18" viewBox="0 0 18 18" fill="none" xmlns="http://www.w3.org/2000/svg">
<path d="M4.5 11C5.99063 11 7.2 9.79062 7.2 8.3C7.2 6.80937 5.99063 5.6 4.5 5.6C3.00938 5.6 1.8 6.80937 1.8 8.3C1.8 9.79062 3.00938 11 4.5 11ZM4.5 6.95C5.23125 6.95 5.85 7.56875 5.85 8.3C5.85 9.05937 5.23125 9.65 4.5 9.65C3.74063 9.65 3.15 9.05937 3.15 8.3C3.15 7.56875 3.74063 6.95 4.5 6.95ZM11.7281 9.22812L13.7531 7.20312L14.4281 7.90625C14.7375 8.21562 15.3 7.99062 15.3 7.54062V5.0375C15.3 4.86875 15.1313 4.7 14.9625 4.7H12.4594C12.0094 4.7 11.7844 5.2625 12.0938 5.57187L12.7969 6.24687L11.25 7.79375L9.70313 6.24687C9.42188 5.99375 9 5.99375 8.74688 6.24687L7.875 7.11875C8.01562 7.48437 8.1 7.90625 8.1 8.3C8.1 8.49687 8.07188 8.69375 8.04375 8.8625L9.225 7.68125L10.7719 9.22812C11.025 9.50937 11.4469 9.50937 11.7281 9.22812ZM16.65 2H5.85C5.09063 2 4.5 2.64687 4.5 3.40625V4.7C4.66875 4.7 4.80938 4.72812 4.92188 4.75625C5.09063 4.78437 5.23125 4.8125 5.37188 4.84062C5.48438 4.86875 5.59688 4.89687 5.70938 4.95312C5.76563 4.95312 5.79375 4.95312 5.85 4.98125V3.35H16.65V12.35H9.9V13.7H16.65C17.3813 13.7 18 13.0812 18 12.3219V3.40625C18 2.64687 17.3813 2 16.65 2ZM6.35625 11.6187C6.075 11.6187 5.79375 11.675 5.54063 11.7594C5.20313 11.8437 4.86563 11.9 4.5 11.9C4.13438 11.9 3.76875 11.8437 3.43125 11.7594C3.17813 11.675 2.89688 11.6187 2.61563 11.6187C1.77188 11.6187 0.928125 12.0125 0.45 12.7437C0.16875 13.1656 0 13.6719 0 14.2344V15.275C0 15.9219 0.478125 16.4 1.125 16.4H7.875C8.49375 16.4 9 15.9219 9 15.275V14.2344C9 13.6719 8.83125 13.1656 8.52188 12.7437C8.04375 12.0125 7.22813 11.6187 6.35625 11.6187ZM7.65 15.05H1.35V14.2344C1.35 13.9812 1.40625 13.7 1.575 13.475C1.77188 13.1656 2.16563 12.9969 2.61563 12.9969C2.75625 12.9969 2.89688 12.9969 3.0375 13.0531C3.51563 13.1937 3.99375 13.2781 4.5 13.2781C4.97813 13.2781 5.45625 13.1937 5.93438 13.0531C6.075 12.9969 6.21563 12.9969 6.35625 12.9969C6.80625 12.9969 7.2 13.1656 7.39688 13.475C7.56563 13.7 7.65 13.9812 7.65 14.2344V15.05Z" fill="#BF7FA9"/>
</svg>
