<svg width="18" height="18" viewBox="0 0 18 18" fill="none" xmlns="http://www.w3.org/2000/svg">
<path fill-rule="evenodd" clip-rule="evenodd" d="M8.77425 0L7.17075 1.9725L4.86975 0.89175L4.2795 3.3645L1.73775 3.3885L2.27925 5.8725L0 6.9975L1.566 9.00075L0 11.0032L2.27925 12.1275L1.73775 14.6115L4.2795 14.6362L4.86975 17.1083L7.17075 16.0275L8.77425 18L10.3785 16.0275L12.6795 17.1083L13.269 14.6362L15.8115 14.6115L15.27 12.1275L17.5485 11.0032L15.9833 9.00075L17.5485 6.9975L15.27 5.8725L15.8115 3.3885L13.269 3.3645L12.6795 0.89175L10.3785 1.9725L8.77425 0V0ZM8.77425 11.625C9.29175 11.625 9.71175 12.045 9.71175 12.5625C9.71175 13.08 9.29175 13.5 8.77425 13.5C8.25675 13.5 7.83675 13.08 7.83675 12.5625C7.83675 12.045 8.25675 11.625 8.77425 11.625ZM9.52425 10.8465V5.25H8.02425V10.8465H9.52425Z" fill="#A19DB2"/>
</svg>
