<svg width="18" height="18" viewBox="0 0 18 18" fill="none" xmlns="http://www.w3.org/2000/svg">
<path d="M15.75 6.75C14.508 6.75 13.5 7.75725 13.5 9C13.5 10.2428 14.508 11.25 15.75 11.25C16.992 11.25 18 10.2428 18 9C18 7.75725 16.992 6.75 15.75 6.75ZM4.5 13.5C3.25725 13.5 2.25 14.5072 2.25 15.75C2.25 16.9928 3.25725 18 4.5 18C5.742 18 6.75 16.9928 6.75 15.75C6.75 14.5072 5.742 13.5 4.5 13.5ZM6.75 2.25C6.75 3.49275 5.742 4.5 4.5 4.5C3.258 4.5 2.25 3.49275 2.25 2.25C2.25 1.00725 3.258 0 4.5 0C5.742 0 6.75 1.00725 6.75 2.25ZM7.941 0.76575L8.25 0.75C11.4608 0.75 14.2357 2.5875 15.6 5.26575C15.0622 5.2875 14.5575 5.42325 14.1015 5.649C12.9353 3.62175 10.752 2.25 8.25 2.25C8.25 1.72275 8.13825 1.221 7.941 0.76575ZM15.6 12.7343C14.2357 15.4125 11.4608 17.25 8.25 17.25L7.941 17.2342C8.13825 16.779 8.25 16.2773 8.25 15.75C10.752 15.75 12.9353 14.3783 14.1015 12.351C14.5575 12.5775 15.0622 12.7133 15.6 12.7343ZM1.4175 13.6238C0.52275 12.3045 0 10.7137 0 9C0 7.28625 0.52275 5.6955 1.4175 4.37625C1.7115 4.80075 2.09325 5.1555 2.53275 5.4285C1.8825 6.46575 1.5 7.6875 1.5 9C1.5 10.3125 1.8825 11.5342 2.53275 12.5715C2.09325 12.8445 1.71075 13.1993 1.4175 13.6238Z" fill="#BF7FA9"/>
</svg>
