<svg width="18" height="18" viewBox="0 0 18 18" fill="none" xmlns="http://www.w3.org/2000/svg">
<g clip-path="url(#clip0_453_215)">
<path fill-rule="evenodd" clip-rule="evenodd" d="M18 18H0V16.5H18V18ZM17.25 15.75H0.75V15H17.25V15.75ZM4.5 14.2507H1.5V9.75C1.086 9.75 0.75 9.414 0.75 9C0.75 8.586 1.086 8.25 1.5 8.25H4.5C4.914 8.25 5.25 8.586 5.25 9C5.25 9.414 4.914 9.75 4.5 9.75V14.2507ZM10.5 14.2507H7.5V9.75C7.086 9.75 6.75 9.414 6.75 9C6.75 8.586 7.086 8.25 7.5 8.25H10.5C10.914 8.25 11.25 8.586 11.25 9C11.25 9.414 10.914 9.75 10.5 9.75V14.2507ZM16.5 14.2507H13.5V9.75C13.086 9.75 12.75 9.414 12.75 9C12.75 8.586 13.086 8.25 13.5 8.25H16.5C16.914 8.25 17.25 8.586 17.25 9C17.25 9.414 16.914 9.75 16.5 9.75V14.2507ZM18.0007 7.5H0L9 0L18.0007 7.5ZM4.143 6H13.8577L9 1.95225L4.143 6ZM8.99625 3C9.72075 3 10.3088 3.588 10.3088 4.3125C10.3088 5.037 9.72075 5.625 8.99625 5.625C8.27175 5.625 7.68375 5.037 7.68375 4.3125C7.68375 3.588 8.27175 3 8.99625 3Z" fill="#BB8D8D"/>
</g>
<defs>
<clipPath id="clip0_453_215">
<rect width="18" height="18" fill="white"/>
</clipPath>
</defs>
</svg>
