<svg width="54" height="51" viewBox="0 0 54 51" fill="none" xmlns="http://www.w3.org/2000/svg">
<rect width="54" height="44" fill="#BB8D8D"/>
<path d="M38.2497 33.9523C35.5245 25.9469 32.8205 17.9628 30.1166 10H23.1331C23.0906 10.1277 23.0267 10.2768 22.9841 10.4045C21.1318 15.855 19.2795 21.3055 17.4272 26.756C16.6607 29.0341 15.8942 31.2909 15.1065 33.5691C15.0639 33.6968 15.0426 33.8246 15 33.9523C15.5536 34.0375 21.1531 33.9949 21.4086 33.931C20.855 32.7387 20.5356 31.5039 20.5782 30.1412C22.6434 31.0354 24.7513 31.4613 26.9016 31.7593C29.0733 32.0574 31.245 32.0361 33.4379 31.7806C33.4805 32.5684 33.3102 33.271 33.0121 33.9736H38.2497V33.9523ZM30.2017 29.6515C28.541 29.1831 26.8378 28.9702 25.1132 29.0554C24.368 29.098 23.6228 29.1831 22.9202 29.609C22.8776 29.4812 22.8351 29.3748 22.8138 29.247C22.5796 27.9483 22.6222 26.6282 22.8989 25.3295C23.5377 22.2849 25.2409 19.9855 27.881 18.3673C28.0301 18.2822 28.1791 18.197 28.3281 18.1331C28.3707 18.1118 28.4133 18.1118 28.4985 18.0693C28.4985 18.197 28.5197 18.3248 28.5197 18.4312C28.541 20.0493 28.7114 21.6674 28.9669 23.2643C29.2436 25.0101 29.7972 26.6921 30.4572 28.3315C30.6063 28.736 30.7766 29.1193 30.9469 29.5238C30.9895 29.609 31.0108 29.7154 31.0747 29.8644C30.7553 29.8006 30.4785 29.7367 30.2017 29.6515Z" fill="#FAF9F7"/>
<path d="M38.2497 33.9523C35.5245 25.9469 32.8205 17.9628 30.1166 10H23.1331C23.0906 10.1277 23.0267 10.2768 22.9841 10.4045C21.1318 15.855 19.2795 21.3055 17.4272 26.756C16.6607 29.0341 15.8942 31.2909 15.1065 33.5691C15.0639 33.6968 15.0426 33.8246 15 33.9523C15.5536 34.0375 21.1531 33.9949 21.4086 33.931C20.855 32.7387 20.5356 31.5039 20.5782 30.1412C22.6434 31.0354 24.7513 31.4613 26.9016 31.7593C29.0733 32.0574 31.245 32.0361 33.4379 31.7806C33.4805 32.5684 33.3102 33.271 33.0121 33.9736H38.2497V33.9523ZM30.2017 29.6515C28.541 29.1831 26.8378 28.9702 25.1132 29.0554C24.368 29.098 23.6228 29.1831 22.9202 29.609C22.8776 29.4812 22.8351 29.3748 22.8138 29.247C22.5796 27.9483 22.6222 26.6282 22.8989 25.3295C23.5377 22.2849 25.2409 19.9855 27.881 18.3673C28.0301 18.2822 28.1791 18.197 28.3281 18.1331C28.3707 18.1118 28.4133 18.1118 28.4985 18.0693C28.4985 18.197 28.5197 18.3248 28.5197 18.4312C28.541 20.0493 28.7114 21.6674 28.9669 23.2643C29.2436 25.0101 29.7972 26.6921 30.4572 28.3315C30.6063 28.736 30.7766 29.1193 30.9469 29.5238C30.9895 29.609 31.0108 29.7154 31.0747 29.8644C30.7553 29.8006 30.4785 29.7367 30.2017 29.6515Z" fill="#FAF9F7"/>
<path d="M9 51L4 44H14L9 51Z" fill="#BB8D8D"/>
</svg>
