<svg width="80" height="80" viewBox="0 0 80 80" fill="none" xmlns="http://www.w3.org/2000/svg">
<path fill-rule="evenodd" clip-rule="evenodd" d="M37.6345 8.11939C31.4224 8.60425 25.7309 10.7591 20.6364 14.5553C18.9103 15.8415 15.761 19.0135 14.4054 20.8314C9.14706 27.8824 7.01813 36.5586 8.42126 45.2184C9.42258 51.3986 12.3867 57.4154 16.6088 61.8382C17.7152 62.9972 17.7525 63.0221 18.3797 63.0221C18.9309 63.0221 19.0761 62.9599 19.4188 62.5766C20.0452 61.8761 19.9121 61.0037 19.0603 60.2254C18.855 60.0378 18.2238 59.3318 17.6576 58.6565C14.175 54.5027 11.859 49.2178 11.153 43.8131C10.9121 41.9688 10.8772 38.454 11.0828 36.7564C11.8646 30.3018 14.6128 24.4838 19.0603 19.8672C23.7957 14.9519 30.0337 11.8923 36.9441 11.0954C38.6976 10.8932 43.0973 11.017 44.7341 11.3145C49.4292 12.1681 53.2582 13.7493 56.9173 16.3456C57.4605 16.7311 57.906 17.0924 57.9072 17.1487C57.9084 17.2049 56.8188 17.2529 55.486 17.2553C52.9358 17.2598 52.8577 17.277 52.4077 17.9294C51.9678 18.5671 52.25 19.5267 52.9898 19.909C53.5945 20.2214 61.9627 20.2155 62.5689 19.9023C63.3238 19.5122 63.3706 19.1975 63.3706 14.5133C63.3706 9.77465 63.3329 9.54559 62.4862 9.14409C61.9256 8.87833 61.814 8.87738 61.2738 9.13359C60.4936 9.50344 60.4418 9.70112 60.3669 12.5816L60.2987 15.211L59.0016 14.2567C54.067 10.6258 48.4823 8.58269 42.2083 8.1127C40.1826 7.961 39.6542 7.96168 37.6345 8.11939ZM65.2001 23.1719C64.8671 23.5046 64.7359 23.7581 64.7359 24.069C64.7359 24.5437 66.1918 27.412 66.637 27.8146C66.7812 27.9451 67.148 28.0852 67.4521 28.126C67.9491 28.1925 68.0538 28.1513 68.4867 27.7187C69.1982 27.0078 69.1534 26.5233 68.2184 24.8227C67.3258 23.199 66.8464 22.708 66.1537 22.708C65.7792 22.708 65.5554 22.8169 65.2001 23.1719ZM48.0923 30.5149C47.3711 30.8975 47.3097 31.1219 45.6215 39.5535C44.7205 44.0538 43.9832 47.9628 43.9832 48.2403C43.9832 48.8557 44.4971 49.5254 45.065 49.65C45.6539 49.7793 46.399 49.413 46.6408 48.8754C46.7522 48.6273 47.5861 44.692 48.4938 40.1301C49.9562 32.7796 50.1262 31.7816 49.9869 31.3598C49.7331 30.5915 48.7634 30.159 48.0923 30.5149ZM68.5483 31.156C68.0527 31.6512 68.0479 31.9043 68.4946 33.969C68.9075 35.8769 68.9864 36.0422 69.6079 36.3017C70.2009 36.5493 70.7488 36.4444 71.1959 35.9976C71.6635 35.5304 71.7058 35.1227 71.427 33.7718C70.883 31.1351 70.6511 30.7572 69.5785 30.7572C69.063 30.7572 68.8743 30.8302 68.5483 31.156ZM36.862 31.3209C36.6241 31.408 35.1748 33.1003 32.6555 36.233C30.5415 38.8616 28.7465 41.1559 28.6663 41.3314C28.4591 41.7861 28.6371 42.5274 29.0459 42.9115C29.3927 43.2374 29.4248 43.2407 32.6619 43.2813L35.9279 43.3222V45.5049C35.9279 47.9392 36.0292 48.3264 36.7659 48.7071C37.3473 49.0074 38.0051 48.8642 38.4455 48.3411C38.7904 47.9316 38.795 47.8954 38.795 45.6172V43.3085H39.5528C40.5106 43.3085 41.0799 43.0191 41.3383 42.401C41.4949 42.0265 41.5064 41.8218 41.3908 41.4715C41.1521 40.749 40.7915 40.5202 39.771 40.4435L38.8633 40.3753L38.795 36.2009C38.7204 31.6302 38.735 31.708 37.8778 31.35C37.3774 31.141 37.3552 31.1403 36.862 31.3209ZM21.5239 32.0804C19.6617 32.3278 17.6218 33.7782 16.9262 35.3497C16.6047 36.0759 16.6736 36.5242 17.1901 37.0669C17.4745 37.3656 17.6701 37.4421 18.1498 37.4421C18.7882 37.4421 18.9892 37.287 20.0196 35.9993C20.5473 35.3398 21.3254 34.9924 22.2748 34.9924C23.7654 34.9924 24.7308 35.7859 24.7318 37.0122C24.7329 38.2465 24.0135 39.0514 21.1757 40.9913C18.2348 43.0015 17.1363 44.2461 16.7924 45.9577C16.6703 46.5646 16.6841 46.7612 16.8772 47.1677C17.2958 48.0489 17.4962 48.0834 22.2065 48.0834C26.8838 48.0834 27.1196 48.0442 27.5207 47.1996C27.7883 46.6359 27.7883 46.5295 27.5207 45.9658C27.1406 45.1656 26.7604 45.082 23.5003 45.082C20.9827 45.082 20.6245 45.0561 20.7675 44.8839C20.858 44.7749 21.7713 44.1149 22.7969 43.4173C25.3096 41.7082 26.5004 40.5668 27.1578 39.2374C27.6297 38.2835 27.6672 38.1192 27.6607 37.0398C27.6548 36.0811 27.5901 35.7353 27.2974 35.099C26.5894 33.5597 25.2974 32.5575 23.5418 32.1857C22.624 31.9915 22.3147 31.9752 21.5239 32.0804ZM54.0182 32.1152C53.0292 32.5239 52.776 33.7396 53.5241 34.4877L53.9546 34.9182L56.7935 34.9864L59.6324 35.0547L57.2588 40.7532C54.6957 46.9066 54.7012 46.8868 55.4021 47.5874C55.5907 47.7756 55.9218 47.9685 56.138 48.016C56.5902 48.1152 57.3518 47.8059 57.5887 47.4268C57.828 47.0438 63.3706 33.6875 63.3706 33.4938C63.3706 33.3995 63.2737 33.1184 63.1553 32.8688C62.7575 32.0312 62.4889 31.9841 58.1618 31.9937C56.033 31.9984 54.1684 32.0531 54.0182 32.1152ZM35.8816 40.3988C35.8516 40.4289 35.2055 40.4359 34.446 40.4143L33.0651 40.3753L34.4624 38.6221L35.8596 36.8689L35.898 38.6065C35.919 39.5622 35.9116 40.3687 35.8816 40.3988ZM69.8209 39.5556C69.275 39.9496 69.1421 40.4308 69.0392 42.3843L68.9408 44.2569L69.3537 44.6695C70.0615 45.3767 71.3225 45.1716 71.6881 44.2899C71.8997 43.7791 72.0939 40.8791 71.9509 40.3619C71.8866 40.1292 71.714 39.8301 71.5673 39.6975C71.1889 39.3554 70.2088 39.2758 69.8209 39.5556ZM68.261 48.2286C68.0411 48.3928 67.8023 48.7853 67.6621 49.2134C67.534 49.6048 67.2488 50.383 67.0284 50.9426C66.5467 52.1653 66.591 52.6718 67.226 53.2058C67.592 53.5136 67.7515 53.5593 68.2606 53.5019C68.6026 53.4634 68.9786 53.318 69.1315 53.1653C69.4701 52.8268 70.6068 49.8384 70.6068 49.2864C70.6068 49 70.4653 48.7333 70.1426 48.4108C69.588 47.8567 68.8548 47.7857 68.261 48.2286ZM64.6326 55.9272C64.4631 56.0494 63.8335 56.802 63.2331 57.5997C62.0715 59.1436 61.9593 59.4769 62.348 60.2281C62.6044 60.7233 62.937 60.9075 63.5754 60.9075C64.2791 60.9075 64.4529 60.7799 65.3775 59.5847C66.5028 58.1304 66.7828 57.6401 66.7833 57.1238C66.7846 56.1416 65.4023 55.3725 64.6326 55.9272ZM59.0082 62.2287C58.6267 62.3907 56.1449 64.3255 55.9358 64.6236C55.5075 65.2347 55.7959 66.303 56.472 66.6108C57.2846 66.9808 57.695 66.8189 59.5827 65.383C60.6704 64.5556 60.9131 64.2109 60.9131 63.4929C60.9131 62.6902 59.7454 61.9153 59.0082 62.2287ZM23.0805 65.1512C22.5418 65.7273 22.5338 66.4677 23.0598 67.0455C23.6337 67.6756 26.0572 68.9567 26.6757 68.9567C27.3443 68.9567 27.9909 68.3947 28.0887 67.7288C28.2077 66.9166 27.8207 66.505 26.053 65.5644C24.1767 64.5661 23.6906 64.4984 23.0805 65.1512ZM51.0716 66.9655C50.6523 67.1396 49.9005 67.4181 49.4006 67.5842C48.8369 67.7717 48.3876 68.0189 48.2172 68.2354C47.9171 68.6167 47.8483 69.4806 48.0832 69.9192C48.2577 70.2451 48.9125 70.5938 49.3501 70.5938C49.7256 70.5938 52.4891 69.5962 52.9504 69.2943C53.7749 68.7544 53.5958 67.2269 52.6622 66.8372C52.0497 66.5815 51.9834 66.5868 51.0716 66.9655ZM31.2458 68.4132C31.0535 68.5643 30.8271 68.8968 30.7428 69.1518C30.5435 69.7553 30.8341 70.4964 31.3774 70.7703C31.769 70.9679 33.1155 71.3154 34.3559 71.5392C35.5553 71.7556 36.3375 71.192 36.3375 70.1115C36.3375 69.201 35.9052 68.9043 33.9714 68.4868C32.0232 68.0662 31.6983 68.0575 31.2458 68.4132ZM41.4574 69.0826C40.2965 69.1675 39.8937 69.3205 39.5529 69.8066C39.277 70.2003 39.2823 70.9949 39.5638 71.3964C39.9721 71.9789 40.4744 72.0815 42.2637 71.9478C44.2156 71.8021 44.2869 71.7822 44.7281 71.2582C45.296 70.5838 45.1196 69.5368 44.373 69.1511C43.9894 68.9529 43.4176 68.9395 41.4574 69.0826Z" fill="#EA5B21"/>
</svg>
