<svg width="80" height="80" viewBox="0 0 80 80" fill="none" xmlns="http://www.w3.org/2000/svg">
<path fill-rule="evenodd" clip-rule="evenodd" d="M16.227 5.21734C15.1532 5.60094 14.1962 6.60391 13.9056 7.64984C13.8071 8.00437 13.7521 19.6548 13.7524 40.0781L13.7532 71.9531L14.1199 72.7408C14.3217 73.1739 14.7162 73.7216 14.9967 73.9575C16.1195 74.9022 14.4729 74.8438 39.946 74.8438C65.7193 74.8438 63.8656 74.9167 64.9801 73.8592C66.0693 72.8259 66.0867 72.7164 66.0904 66.8359C66.0923 63.9356 66.1476 61.5625 66.2134 61.5625C66.2792 61.5625 67.2107 62.4489 68.2837 63.5322C70.4731 65.743 71.0303 66.0869 72.422 66.0869C73.9681 66.0869 75.2817 65.2386 75.8515 63.8722C76.184 63.075 76.1565 61.633 75.7942 60.8594C75.6135 60.4736 74.336 59.0758 72.4571 57.2078L69.4128 54.1813L69.927 53.0672C70.8529 51.0608 71.0131 50.2113 71.0064 47.3438C71.0006 44.9439 70.9698 44.6738 70.5601 43.4375C69.7735 41.0642 68.7385 39.3577 67.079 37.6981L66.0814 36.7005L66.1009 28.7508C66.1117 24.3784 66.0618 20.6977 65.9899 20.5713C65.9182 20.4447 61.544 16.8895 56.2696 12.6706L46.6799 5L31.7384 5.00687C19.8699 5.01234 16.6798 5.05562 16.227 5.21734ZM45.0001 13.5631V19.6261L45.3984 20.4253C45.6174 20.8648 46.0465 21.4152 46.3518 21.648C47.4389 22.4772 47.6962 22.5 55.9624 22.5H63.5938V28.8114V35.1228L62.461 34.6841C58.5198 33.1578 54.0151 33.513 50.4415 35.6317L49.3985 36.25H35.6482H21.8978L21.574 36.6617C21.0692 37.3034 21.1609 38.1281 21.7763 38.4809C22.0278 38.625 25.1237 38.6911 34.399 38.75L46.6885 38.8281L45.9167 40C45.4921 40.6445 44.9243 41.7519 44.6549 42.4609L44.1651 43.75H33.0693H21.9734L21.6117 44.0897C20.9538 44.7078 21.2051 45.7498 22.0934 46.0877C22.3737 46.1942 26.1692 46.25 33.1353 46.25H43.7501V47.635C43.7501 48.8736 43.9109 50.2041 44.1539 50.9766C44.2353 51.2352 43.6384 51.25 33.1067 51.25H21.9734L21.6117 51.5897C21.1124 52.0588 21.1306 52.802 21.6532 53.2931L22.0563 53.6719L33.6454 53.7177L45.2345 53.7634L45.7454 54.6056C47.5865 57.6402 50.7854 59.9606 54.2604 60.7827C56.9657 61.4227 60.8576 61.077 62.9462 60.0116L63.5938 59.6811V65.7C63.5938 71.5105 63.5831 71.7295 63.2813 72.0312C62.9717 72.3409 62.7606 72.3438 39.9334 72.3438H16.8978L16.574 71.932L16.2501 71.5203V39.8938V8.26703L16.6337 7.88359L17.0171 7.5H31.0087H45.0001V13.5631ZM61.0882 19.7864C61.282 19.9673 60.3179 20 54.7921 20H48.2671L47.8837 19.6164L47.5001 19.233V14.0677V8.9025L54.1798 14.2377C57.8535 17.1719 60.9624 19.6689 61.0882 19.7864ZM21.6337 21.6336C21.1681 22.0991 21.1329 22.7894 21.5487 23.303L21.8473 23.6719L30.3982 23.7148C39.7576 23.7619 39.5038 23.785 39.8579 22.8538C40.044 22.3642 39.7948 21.6308 39.364 21.4003C39.194 21.3094 35.714 21.25 30.5501 21.25H22.0171L21.6337 21.6336ZM21.6337 29.1336C20.9417 29.8255 21.2632 30.9384 22.2228 31.1725C22.4182 31.2203 29.4142 31.2397 37.7692 31.2156C52.7251 31.1725 52.9649 31.167 53.2648 30.8594C53.7618 30.3492 53.756 29.5383 53.2518 29.0686C52.9126 28.7525 52.7923 28.75 37.4635 28.75H22.0171L21.6337 29.1336ZM59.8912 36.4984C61.3515 36.8211 63.2749 37.7517 64.4495 38.7038C69.2589 42.6025 70.0199 49.677 66.1431 54.4478C62.6959 58.6902 57.0337 59.8427 52.1184 57.3027C50.6399 56.5386 48.4054 54.4255 47.866 53.2812C46.7585 50.9319 46.5696 50.4672 46.4179 49.7189C46.171 48.5012 46.2123 46.0347 46.4993 44.8537C47.9404 38.923 53.9354 35.1827 59.8912 36.4984ZM73.5938 62.3916C73.5938 63.1544 73.1549 63.5938 72.3928 63.5938C71.8553 63.5938 71.6303 63.4084 69.0328 60.8255L66.249 58.057L67.1471 57.1494L68.0454 56.2417L70.8196 59.028C73.411 61.6306 73.5938 61.8523 73.5938 62.3916ZM21.5898 59.1116C21.1213 59.6103 21.1481 60.3184 21.6532 60.7931L22.0563 61.1719L30.3176 61.2162C37.342 61.2539 38.662 61.2258 39.1342 61.0284C39.7503 60.7711 40.0565 60.2009 39.9043 59.5948C39.6882 58.7334 39.8726 58.75 30.5395 58.75H21.9296L21.5898 59.1116Z" fill="#EA5B21"/>
</svg>
