<svg width="100" height="100" viewBox="0 0 100 100" fill="none" xmlns="http://www.w3.org/2000/svg">
<path fill-rule="evenodd" clip-rule="evenodd" d="M41.8926 0.264011C41.4628 0.399959 40.8035 0.668338 40.4274 0.86054C40.0514 1.05255 37.0184 3.91956 33.6876 7.23133L27.6315 13.2529L20.6962 13.3119C13.8804 13.3697 13.745 13.3785 12.8336 13.8273C12.3236 14.0785 11.5962 14.646 11.2174 15.0884C9.87688 16.6543 9.95151 14.82 9.95151 46.2069V74.5774L5.01988 82.7464L0.0884445 90.9156L0.0235854 93.8343C-0.054558 97.3602 0.0253437 97.8512 0.825141 98.7619C1.99886 100.099 -1.99095 99.9983 50 99.9983C101.991 99.9983 98.0012 100.099 99.1749 98.7619C99.9747 97.8512 100.055 97.3602 99.9764 93.8343L99.9116 90.9156L94.9801 82.7464L90.0485 74.5774V46.2069C90.0485 14.82 90.1231 16.6543 88.7826 15.0884C88.4038 14.646 87.6765 14.0785 87.1664 13.8273C86.2853 13.3935 86.0036 13.3675 81.5215 13.3068L76.8038 13.2429L76.728 8.52127C76.653 3.85041 76.6465 3.78889 76.1288 2.79389C75.8409 2.24072 75.2776 1.51801 74.877 1.18791C73.3813 -0.0448015 73.8836 -0.0106193 57.5354 0.00383491C46.1245 0.0137966 42.4926 0.0741527 41.8926 0.264011ZM72.7681 3.79084L73.2477 4.27017V34.9817V65.6932L72.823 66.1453L72.398 66.5973H50.0274H27.6567L27.2044 66.1727L26.7523 65.7479V42.8414V19.935L32.7596 19.8756L38.7669 19.8165L39.7515 19.2967C40.9494 18.6646 42.2689 17.2731 42.838 16.042C43.2361 15.1806 43.2636 14.7921 43.3219 9.21996L43.3836 3.31131H57.836H72.2887L72.7681 3.79084ZM40.0014 10.2316C39.9322 15.0997 39.9123 15.1767 38.4758 16.1541C37.8532 16.5777 37.6719 16.5936 33.4158 16.5936H29.0017L34.3713 11.2221C37.3246 8.26774 39.8136 5.85056 39.9023 5.85056C39.991 5.85056 40.0355 7.822 40.0014 10.2316ZM24.408 16.6545C24.408 16.6881 24.2348 17.0741 24.023 17.5122C23.8112 17.9505 23.5821 18.6595 23.5135 19.0879L23.3889 19.8667L21.1985 19.9505C18.6963 20.0462 17.9301 20.364 17.1407 21.633L16.6914 22.3557L16.6351 44.5254C16.5953 60.3142 16.6414 66.9198 16.7957 67.4763C17.0567 68.4182 17.4847 68.9709 18.3709 69.5112L19.0357 69.9165H50H80.9643L81.6291 69.5112C82.5153 68.9709 82.9433 68.4182 83.2043 67.4763C83.3586 66.9198 83.4047 60.3142 83.3649 44.5254L83.3086 22.3557L82.8593 21.633C82.0794 20.3792 81.3029 20.0509 78.8814 19.9512L76.7641 19.8639V18.2288V16.5936H80.9551C83.7884 16.5936 85.312 16.6692 85.6584 16.827C86.7868 17.3411 86.7274 15.7361 86.7274 45.6876V73.2385H50H13.2726V45.71C13.2726 28.7167 13.3439 17.9941 13.459 17.6915C13.8374 16.6961 14.3213 16.61 19.5729 16.6014C22.2323 16.5971 24.408 16.6209 24.408 16.6545ZM45.9725 20.1915C45.5888 20.3603 45.285 20.6853 45.1506 21.071C44.9076 21.768 45.0049 22.1674 45.5699 22.7952L45.9657 23.2347H55.8608H65.7559L66.1808 22.7827C66.786 22.1383 66.75 21.0947 66.1014 20.4853L65.5974 20.0118L56.0893 19.9678C48.3887 19.9321 46.4656 19.9747 45.9725 20.1915ZM23.2476 43.9882C23.2539 55.4027 23.3279 65.1591 23.4119 65.6695L23.5647 66.5973H21.7396H19.9148V45.0463C19.9148 33.1931 19.9734 23.4365 20.0451 23.365C20.1166 23.2933 20.8638 23.2347 21.7056 23.2347H23.2359L23.2476 43.9882ZM80.0372 44.9648L80.087 66.5973H78.2611H76.4353L76.5881 65.6695C76.6721 65.1591 76.7461 55.399 76.7524 43.9804L76.7641 23.2189L78.3758 23.2757L79.9875 23.3324L80.0372 44.9648ZM34.2736 28.5388C33.2634 29.0912 33.071 30.3514 33.8741 31.1542L34.3535 31.6338H50H65.6465L66.1259 31.1542C66.5979 30.6825 66.745 29.8805 66.4842 29.201C66.1425 28.3109 66.1794 28.3128 49.9609 28.3191C39.2666 28.3234 34.5468 28.3894 34.2736 28.5388ZM33.8741 37.1918C33.0679 37.9977 33.2777 39.256 34.3096 39.8057C34.9205 40.1309 65.0795 40.1309 65.6904 39.8057C66.7223 39.256 66.9321 37.9977 66.1259 37.1918L65.6465 36.7123H50H34.3535L33.8741 37.1918ZM34.5667 45.0522C33.3857 45.4911 32.9901 47.0074 33.8466 47.8119L34.2988 48.2366H50.0274H65.7559L66.1808 47.7846C66.786 47.1402 66.75 46.0966 66.1014 45.4871L65.5972 45.0137L50.2286 44.9785C41.7756 44.9592 34.7279 44.9922 34.5667 45.0522ZM34.2736 53.5407C33.2634 54.0931 33.071 55.3533 33.8741 56.1561L34.3535 56.6356H50H65.6465L66.1259 56.1561C66.5979 55.6844 66.745 54.8824 66.4842 54.2028C66.1425 53.3127 66.1794 53.3147 49.9609 53.3209C39.2666 53.3252 34.5468 53.3913 34.2736 53.5407ZM91.3406 83.2271C93.4772 86.7871 95.255 89.7764 95.2911 89.8696C95.3279 89.9649 89.6816 90.0175 82.4094 89.9891L69.4622 89.9389L68.1326 86.6287C66.6961 83.0529 66.0979 82.177 64.8558 81.8321C63.9211 81.5723 36.0789 81.5723 35.1442 81.8321C33.9021 82.177 33.3039 83.0529 31.8674 86.6287L30.5378 89.9389L17.5906 89.9891C10.3184 90.0175 4.67214 89.9649 4.70887 89.8696C4.74501 89.7764 6.52277 86.7871 8.65941 83.2271L12.5443 76.7543H50H87.4557L91.3406 83.2271ZM64.7664 87.1909C65.2385 88.3654 65.6756 89.486 65.7377 89.6813C65.8459 90.0227 65.2346 90.0366 50.0131 90.0366C41.3026 90.0366 34.176 89.9944 34.176 89.9428C34.176 89.8913 34.537 88.9465 34.9781 87.8431C35.4192 86.7399 35.8568 85.6386 35.9506 85.3962L36.121 84.9556L50.0143 85.0056L63.9078 85.0558L64.7664 87.1909ZM96.6907 95.0174V96.6777H50H3.30932V95.0174V93.3572H50H96.6907V95.0174Z" fill="#EA5B21"/>
</svg>
