<svg width="80" height="80" viewBox="0 0 80 80" fill="none" xmlns="http://www.w3.org/2000/svg">
<path fill-rule="evenodd" clip-rule="evenodd" d="M10.0272 0.176108C9.40778 0.514552 9.32331 0.787683 9.32331 2.45381V4.07088L10.6137 4.02541L11.9042 3.98009L11.9522 3.31602L12.0004 2.65194H31.3029H50.6057L50.6504 8.29081L50.6951 13.9295L51.134 14.3066L51.5729 14.6834H57.1138H62.6546L62.6969 18.0038L62.7391 21.3242L64.0295 21.3695L65.3199 21.415V17.0772V12.7395L59.1807 6.59093C55.8041 3.2093 52.8513 0.341892 52.619 0.219077C52.2587 0.0284481 49.1208 -0.00374004 31.2684 0.000322542C16.4216 0.00376011 10.2491 0.0548549 10.0272 0.176108ZM57.0678 8.23675C59.0256 10.1912 60.6275 11.8435 60.6275 11.9087C60.6275 11.9739 58.9734 12.0271 56.9517 12.0271H53.276V8.35519C53.276 6.33561 53.3282 4.68323 53.392 4.68323C53.4559 4.68323 55.1099 6.28233 57.0678 8.23675ZM14.3286 5.39841C14.1135 5.43684 13.5152 5.54138 12.9991 5.63075C11.6287 5.8681 10.2052 6.35749 8.69765 7.10938C4.57298 9.16661 1.61908 12.8992 0.380744 17.6185C-0.119472 19.5246 -0.128075 23.0475 0.362443 24.9962C1.15015 28.124 2.63922 30.6694 4.98717 32.9013C6.78172 34.607 8.50307 35.65 10.8093 36.4289C15.0933 37.876 19.2544 37.5732 23.2443 35.5242C27.9212 33.1224 31.3453 28.2756 31.7806 23.4407C31.9139 21.9609 31.8896 21.9911 32.6616 22.3411C33.0308 22.5085 33.5613 22.6471 33.84 22.6489C34.1722 22.6511 34.5878 22.836 35.0453 23.1849C36.4146 24.229 38.0939 24.2315 39.5429 23.1916C40.0248 22.8458 40.4764 22.6511 40.8022 22.6489C42.3853 22.6383 44.0475 20.8312 44.0475 19.1214C44.0475 18.9742 44.227 18.6185 44.4465 18.331C45.5896 16.8338 45.585 15.1555 44.4337 13.6476C44.2213 13.3694 44.0475 12.987 44.0475 12.7979C44.0475 11.1867 42.56 9.58224 40.8189 9.31552C40.4626 9.26099 39.815 8.97692 39.3797 8.68426C37.9881 7.74877 36.4881 7.78096 35.1168 8.77598C34.6992 9.07895 34.1866 9.29865 33.8146 9.33365C32.7125 9.43787 31.49 10.2738 30.9696 11.279C30.8471 11.5156 30.7034 12.0445 30.6504 12.4542C30.5972 12.8639 30.4495 13.3189 30.3224 13.4653C30.1106 13.7092 30.0247 13.6301 29.3057 12.5278C28.3731 11.0981 26.3746 9.06364 24.9834 8.12784C22.4824 6.4453 19.5317 5.49075 16.5184 5.38934C15.5291 5.35606 14.5437 5.36012 14.3286 5.39841ZM64.0686 6.6364V7.96455H66.0238H67.979V13.9803V19.9961H69.3085H70.6381L70.6331 13.0819C70.6293 7.89315 70.5805 6.10576 70.4375 5.91967C70.0244 5.38231 69.586 5.30825 66.8162 5.30825H64.0686V6.6364ZM19.2652 8.43066C21.9011 9.09317 24.509 10.759 26.2933 12.9198C27.3409 14.1886 28.4402 16.3544 28.8935 18.0429C29.3676 19.8084 29.3674 22.8408 28.8934 24.6055C27.6289 29.3113 24.28 32.7301 19.5368 34.1576C18.3522 34.514 17.8669 34.5729 16.0492 34.5806C13.5953 34.5911 12.4663 34.3573 10.4426 33.4199C2.72259 29.8439 0.23997 20.4548 5.17862 13.5115C7.19732 10.6735 10.4858 8.68754 14.094 8.12737C15.4137 7.92252 17.8007 8.06253 19.2652 8.43066ZM37.7023 10.8009C37.9198 10.8998 38.1384 11.1088 38.1882 11.2656C38.2379 11.4221 38.4627 11.6948 38.6874 11.8715C39.0353 12.1448 39.23 12.1776 39.9921 12.0915C40.8319 11.9967 40.904 12.0151 41.1486 12.3879C41.3589 12.7084 41.3787 12.8965 41.2514 13.3572C41.049 14.0897 41.225 14.5477 41.886 15.0091C42.8758 15.7 42.9046 16.1664 42.0014 16.881C41.2136 17.5043 41.0418 17.9157 41.2655 18.6437C41.4064 19.1024 41.3891 19.2687 41.1648 19.6107C40.906 20.0051 40.8514 20.0189 39.9583 19.9153L39.0226 19.8068L38.3677 20.5136C38.0074 20.9022 37.6071 21.2398 37.478 21.2637C37.0784 21.338 36.5602 21.0883 36.4601 20.7734C36.4075 20.6081 36.1757 20.3245 35.9449 20.1431C35.5881 19.8628 35.3999 19.8289 34.6903 19.9175C34.0149 20.0018 33.7976 19.9695 33.5533 19.7487C33.2935 19.5139 33.2652 19.3418 33.3499 18.5154C33.4472 17.566 33.4424 17.5502 32.9215 17.1326C32.6317 16.9002 32.3066 16.638 32.199 16.5499C31.9851 16.3747 31.9411 15.791 32.1232 15.5419C32.1864 15.4555 32.5108 15.1816 32.8439 14.9333L33.4497 14.4819L33.3506 13.5147C33.2645 12.6751 33.2922 12.5106 33.5598 12.2686C33.814 12.0389 34.0213 12.0087 34.7355 12.0978C35.6672 12.2142 35.6464 12.2264 36.7576 10.9168C37.0502 10.572 37.1677 10.5576 37.7023 10.8009ZM16.8319 19.9173L10.6564 26.0879L9.12889 24.5677L7.60134 23.0475L6.66081 23.9871L5.72029 24.9266L7.98502 27.1697C10.1653 29.3291 10.2688 29.4089 10.7641 29.3113C11.1782 29.2295 12.6046 27.8854 18.0816 22.416L24.8849 15.6224L23.9461 14.6845L23.0073 13.7467L16.8319 19.9173ZM69.053 22.7991C66.9797 23.203 64.6624 24.5718 63.4295 26.1207C62.2638 27.5854 61.4152 29.761 61.4114 31.2947L61.4096 32.0463L59.0435 34.5436C57.7421 35.917 56.1995 37.5475 55.6153 38.1671L54.5534 39.2933L52.2216 36.9886C50.1381 34.9295 49.833 34.6839 49.3584 34.6839C48.8677 34.6839 48.345 35.1642 42.514 40.9731C39.0419 44.432 36.1368 47.4238 36.0584 47.6213C35.9613 47.8659 35.9854 48.1398 36.1335 48.4807C36.2579 48.7665 40.4344 53.0519 45.8724 58.4734C55.2233 67.7961 55.4046 67.9658 56.0071 67.9658C56.6051 67.9658 56.765 67.8222 62.2999 62.3065L67.979 56.6472V66.9941V77.341H41.9359H15.8927V78.6704V80L42.9663 79.9595L70.0401 79.9192L70.339 79.5503C70.6292 79.1925 70.6381 78.6984 70.6381 62.9484V46.7154H69.3085H67.979V49.7212V52.7271L65.711 50.4655C64.4636 49.2215 63.4436 48.1678 63.4444 48.1237C63.445 48.0796 65.0262 46.5479 66.9581 44.72L70.4704 41.3965L71.6882 41.2425C73.1936 41.052 73.708 40.8909 75.0959 40.1752C75.7996 39.8124 76.5826 39.219 77.2873 38.5146C80.1849 35.6176 80.8254 31.2785 78.898 27.6034C78.1493 26.1757 76.3234 24.406 74.8613 23.6908C73.034 22.7972 70.8131 22.4561 69.053 22.7991ZM72.2749 25.5482C73.5773 25.887 74.5846 26.4795 75.4971 27.4434C77.9866 30.073 77.9362 34.1282 75.3825 36.6825C74.2017 37.8638 72.9145 38.4288 71.0396 38.5893C70.2275 38.6588 69.4707 38.7726 69.3577 38.8419C69.2446 38.9115 66.5331 41.4498 63.3321 44.4825C60.131 47.5154 57.4554 49.9967 57.3863 49.9967C57.3171 49.9967 56.2131 48.9486 54.9327 47.6673L52.6048 45.338L52.9014 44.9636C53.0644 44.7577 55.5557 42.1073 58.4377 39.0738C61.3196 36.0401 63.7433 33.4432 63.8235 33.3024C63.9039 33.1618 64.019 32.3919 64.0797 31.5918C64.1698 30.4005 64.2829 29.948 64.7032 29.095C66.0983 26.2642 69.2866 24.7707 72.2749 25.5482ZM33.2877 28.004L33.333 29.2931H39.9807H46.6283L46.6737 28.004L46.7192 26.715H39.9807H33.2422L33.2877 28.004ZM29.3445 34.6057V35.9339H37.3216H45.2988V34.6057V33.2776H37.3216H29.3445V34.6057ZM51.0855 39.6051L52.7215 41.2451L51.7001 42.3004C49.6877 44.3799 49.3656 44.7996 49.3656 45.3435C49.3656 45.8008 49.7491 46.2371 53.0792 49.5658C57.6825 54.1673 57.1795 54.0118 59.6887 51.6099L61.4313 49.9417L63.8048 52.3125L66.178 54.6834L63.1301 57.7312L60.0821 60.7791L51.6741 52.3811L43.2663 43.983L46.2753 40.974C47.9303 39.3191 49.3215 37.9652 49.3669 37.9652C49.4122 37.9652 50.1857 38.7032 51.0855 39.6051ZM17.3005 39.9965V41.4028H19.9595H22.6186V39.9965V38.5902H19.9595H17.3005V39.9965ZM25.3437 38.8002C25.2992 38.9157 25.2839 39.5309 25.3094 40.1674L25.3559 41.3246L31.9644 41.3654L38.573 41.4062V39.9982V38.5902H31.9987C26.6393 38.5902 25.4094 38.629 25.3437 38.8002ZM9.32832 56.9109C9.33348 74.8149 9.30407 74.1028 10.056 74.503C10.312 74.6391 17.1713 74.6847 37.4016 74.6847H64.4055L64.8627 74.228L65.3199 73.7713V68.9154V64.0595H63.9904H62.6609V68.044V72.0284H37.3216H11.9824V56.0125V39.9965H10.6528H9.32331L9.32832 56.9109ZM17.3005 45.3872V46.7154H25.2777H33.2548V45.3872V44.0591H25.2777H17.3005V45.3872ZM57.1499 63.7056C56.6158 64.244 56.1065 64.6845 56.0183 64.6845C55.93 64.6845 52.1104 60.9413 47.5299 56.3662L39.2021 48.0481L40.2538 46.9893L41.3055 45.9305L49.7133 54.3285L58.1213 62.7267L57.1499 63.7056ZM17.3005 50.6998V52.028H21.2891H25.2777V50.6998V49.3717H21.2891H17.3005V50.6998ZM27.9367 50.6998V52.028H30.5958H33.2548V50.6998V49.3717H30.5958H27.9367V50.6998ZM17.3005 56.0125V57.3406H22.6186H27.9367V56.0125V54.6843H22.6186H17.3005V56.0125ZM31.1129 55.0613L30.674 55.4385V61.299V67.1594L31.0531 67.5625L31.4324 67.9658H40.3989H49.3656V66.6377V65.3095H41.3102H33.2548V61.3251V57.3406H36.6178H39.9807V56.0125V54.6843H35.7662H31.5518L31.1129 55.0613ZM17.3005 61.3251V62.6532H22.6186H27.9367V61.3251V59.9969H22.6186H17.3005V61.3251ZM35.9139 61.3251V62.6532H39.9807H44.0475V61.3251V59.9969H39.9807H35.9139V61.3251ZM17.3005 66.6377V67.9658H22.6186H27.9367V66.6377V65.3095H22.6186H17.3005V66.6377Z" fill="#EA5B21"/>
</svg>
