<svg width="100" height="100" viewBox="0 0 100 100" fill="none" xmlns="http://www.w3.org/2000/svg">
<path fill-rule="evenodd" clip-rule="evenodd" d="M29.8613 0.313026C25.5052 1.48446 22.5806 5.38247 22.5806 10.017C22.5806 11.2997 22.5343 11.4869 22.2165 11.4869C21.4861 11.4869 19.3357 12.3462 18.1528 13.1107C15.9238 14.5513 14.5516 16.2756 13.5272 18.9228L13.0109 20.2575L12.945 28.6753L12.879 37.0932H14.504H16.129V40.3192V43.5451H17.7419H19.3548V46.7711V49.9971H20.9677H22.5806V53.2231V56.4491H17.7419H12.9032V67.7401V79.0311H24.1935H35.4839V67.7401V56.4491H30.6452H25.8065V53.2231V49.9971H27.4194H29.0323V46.7711V43.5451H30.6452H32.2581V40.3192V37.0932H33.8671H35.4762L35.5304 32.5738L35.5847 28.0543L37.1472 28.9937L38.7097 29.9331L38.7131 32.5554C38.7151 34.075 38.8407 35.7639 39.0119 36.5714C39.3145 37.9995 40.197 40.0996 40.9228 41.1192C41.1472 41.4341 41.3306 41.7461 41.3306 41.812C41.3306 41.8781 40.7409 41.9322 40.0202 41.9322H38.7097V63.7076V85.483H24.1935H9.67742V63.7076V41.9322H8.06452H6.45161V63.7076V85.483H4.83871H3.22581V63.7076V41.9322H1.6129H0V65.3206V88.709H24.1935H48.3871V67.5169C48.3871 47.4161 48.4052 46.3318 48.7399 46.4618C48.9341 46.5375 49.8639 46.6467 50.8065 46.7052C53.8528 46.8937 57.0097 45.8787 59.4992 43.9109C60.502 43.1183 60.5782 43.0921 61.073 43.3724C61.5282 43.6304 61.5802 43.7659 61.4919 44.4629C61.3071 45.9227 61.4117 48.8783 61.6772 49.6947C61.8216 50.1383 62.1679 51.021 62.447 51.6561L62.9542 52.811L59.0514 68.4317L55.1486 84.0525L54.3726 84.4025C53.3829 84.8489 52.1556 86.2381 51.85 87.2588C51.6913 87.788 51.6129 90.0287 51.6129 94.0251V100H75.8064H100V97.2511C100 93.9811 99.8069 93.2204 98.649 91.9326C97.4198 90.5654 96.5831 90.322 93.1093 90.322H90.3226V89.1861C90.3226 87.436 89.9601 86.5182 88.8173 85.3754C87.8559 84.4138 86.7573 83.8719 85.7629 83.8688C85.4192 83.8678 85.3821 83.6904 85.3714 82.0038C85.3522 78.9296 84.2972 76.4753 82.0234 74.2147C81.2653 73.4612 80.6452 72.7503 80.6452 72.6349C80.6452 72.5144 81.4786 72.3635 82.6109 72.2797C88.8296 71.8183 93.8321 68.9135 97.1431 63.8413C101.286 57.4943 100.809 48.915 95.98 42.9403C95.3079 42.1086 93.7611 40.5661 92.5427 39.5127C90.4079 37.6666 90.3274 37.5678 90.325 36.7827C90.3238 36.3347 90.1873 35.4485 90.0218 34.8134C88.4613 28.8215 81.7841 25.6822 76.4202 28.4187L75.6351 28.8193L69.1179 26.5877C65.5335 25.3602 59.4254 23.2662 55.5444 21.9342C51.6633 20.6023 47.0137 19.0123 45.2117 18.401L41.9355 17.2892V12.9182C41.9355 9.69421 41.8567 8.24413 41.6347 7.39247C40.2736 2.16656 34.926 -1.04915 29.8613 0.313026ZM35.2927 4.04872C36.6534 4.77397 37.2673 5.41211 38.0621 6.92873C38.5869 7.92979 38.6038 8.07234 38.6738 12.0413C38.7133 14.287 38.6988 16.1242 38.6417 16.1242C38.1671 16.1242 30.5522 13.3039 29.8435 12.8656C28.8585 12.2565 26.797 11.4869 26.1502 11.4869C25.7744 11.4869 25.7567 11.3814 25.8526 9.72264C25.9736 7.6332 26.4927 6.35491 27.7169 5.13145C29.7296 3.12024 32.7429 2.68937 35.2927 4.04872ZM27.5058 15.2814C29.3244 16.1325 30.502 17.2906 31.4042 19.1155L32.1573 20.6384L32.2202 27.2529L32.2831 33.8672H24.1935H16.104L16.1669 27.264L16.2298 20.6608L16.8679 19.3139C17.678 17.6037 18.8315 16.3519 20.3359 15.55C21.924 14.7036 22.7929 14.512 24.647 14.6003C25.8571 14.658 26.5016 14.8114 27.5058 15.2814ZM22.5806 18.0007C21.5911 18.3126 19.9034 20.0603 19.6 21.0874C19.0415 22.9778 19.4353 24.485 20.8601 25.9099C22.8998 27.9497 25.4873 27.9497 27.527 25.9099C29.4972 23.9396 29.556 21.4332 27.6812 19.3478C26.3764 17.8965 24.4913 17.3985 22.5806 18.0007ZM55.0028 25.1772C64.6849 28.4923 72.6474 31.2454 72.6974 31.2955C72.7472 31.3455 72.5476 31.8167 72.2536 32.3427C71.9597 32.8687 71.5627 33.8047 71.3716 34.4226C71.0252 35.5421 71.0196 35.5475 69.9373 35.8165C67.5677 36.4056 65.2423 37.9275 63.5843 39.9748L62.9649 40.7393L49.252 32.5147L35.5391 24.29L35.4278 22.2738C35.3663 21.1648 35.1726 19.8605 34.9968 19.3752C34.8212 18.8901 34.6774 18.4191 34.6774 18.329C34.6774 18.2387 35.2897 18.3864 36.0383 18.6572C36.7869 18.928 45.3208 21.862 55.0028 25.1772ZM25.3115 21.4582C26.3117 22.4583 25.603 24.1892 24.1935 24.1892C23.8008 24.1892 23.3875 24.0063 23.0756 23.6942C22.7635 23.3823 22.5806 22.969 22.5806 22.5762C22.5806 22.1834 22.7635 21.7701 23.0756 21.4582C23.3875 21.1461 23.8008 20.9632 24.1935 20.9632C24.5863 20.9632 24.9996 21.1461 25.3115 21.4582ZM83.6716 31.4652C85.0429 32.1961 85.6579 32.8359 86.4446 34.3497C86.9006 35.2275 86.9796 35.6322 86.98 37.0932C86.9804 38.8751 86.7018 39.7078 85.6121 41.1819C85.2161 41.7174 83.5758 42.9403 83.2534 42.9403C83.1736 42.9403 83.056 42.732 82.9921 42.4775C82.82 41.7912 81.4087 39.6848 80.5377 38.8136C79.3831 37.6591 77.5294 36.5454 75.9313 36.0461C75.1417 35.7995 74.4639 35.5771 74.4248 35.5519C74.3857 35.5267 74.578 35.016 74.8522 34.4172C75.4369 33.1399 76.4847 32.0278 77.6768 31.4186C79.0206 30.7321 79.4413 30.6446 80.9899 30.7301C82.1452 30.794 82.6954 30.9448 83.6716 31.4652ZM57.3589 41.3593C57.3589 41.7108 55.1044 42.8772 53.7379 43.2326C48.6518 44.5555 43.2423 41.1414 42.1577 35.9239C42.0355 35.3362 41.9355 34.1837 41.9355 33.3627V31.8699L49.6472 36.4976C53.8887 39.0427 57.3589 41.2305 57.3589 41.3593ZM29.0323 38.7062V40.3192H24.1935H19.3548V38.7062V37.0932H24.1935H29.0323V38.7062ZM75.8929 39.4764C77.7121 40.3278 78.8891 41.4856 79.7913 43.3113C80.5028 44.7509 80.5444 44.9414 80.5444 46.7711C80.5444 48.6009 80.5028 48.7914 79.7913 50.231C78.8845 52.0662 77.7171 53.2092 75.8427 54.0972C74.6248 54.6742 74.3127 54.7353 72.5806 54.7353C70.8526 54.7353 70.5371 54.674 69.3548 54.1083C67.4349 53.1895 66.2756 52.064 65.3774 50.2465C64.6583 48.7912 64.6169 48.6027 64.6169 46.7816C64.6169 45.0376 64.6772 44.7285 65.255 43.5089C66.0651 41.7987 67.2186 40.5468 68.723 39.7449C70.3111 38.8985 71.18 38.707 73.0341 38.7953C74.2442 38.8529 74.8887 39.0064 75.8929 39.4764ZM91.3952 42.8076C93.8125 44.9702 95.2597 47.1994 96.1974 50.2038C96.8718 52.3646 96.8722 56.0926 96.1984 58.2637C94.5883 63.4519 90.6813 67.2431 85.6068 68.5409C84.7774 68.753 83.3216 68.9898 82.3718 69.0668L80.6452 69.2069V67.5939V65.9811L82.2077 65.841C85.647 65.5327 87.8444 64.5726 90.0159 62.4289C93.6502 58.841 94.5393 53.6383 92.305 49.032C91.8121 48.016 91.1597 47.1901 89.6885 45.7205L87.7288 43.7625L88.572 42.4745C89.0359 41.766 89.5061 41.2337 89.6169 41.2918C89.7278 41.3497 90.528 42.0318 91.3952 42.8076ZM70.9677 42.1957C69.9782 42.5076 68.2905 44.2553 67.9871 45.2823C67.4286 47.1728 67.8224 48.6799 69.2472 50.1048C70.2913 51.149 71.3125 51.6101 72.5806 51.6101C73.8488 51.6101 74.87 51.149 75.9141 50.1048C77.8843 48.1345 77.9431 45.6281 76.0684 43.5427C74.7635 42.0914 72.8784 41.5934 70.9677 42.1957ZM44.5061 44.6573L45.1613 45.0434V65.2633V85.483H43.5484H41.9355V63.9824V42.4818L42.8931 43.3764C43.42 43.8686 44.1458 44.4448 44.5061 44.6573ZM25.8065 45.1581V46.7711H24.1935H22.5806V45.1581V43.5451H24.1935H25.8065V45.1581ZM73.6986 45.6531C74.6988 46.6532 73.9901 48.3841 72.5806 48.3841C71.7518 48.3841 70.9677 47.6 70.9677 46.7711C70.9677 45.9423 71.7518 45.1581 72.5806 45.1581C72.9734 45.1581 73.3867 45.341 73.6986 45.6531ZM86.5407 47.1244C89.055 49.3162 90.0204 50.976 90.2575 53.5145C90.6593 57.8183 87.4692 61.7994 83.0645 62.4908C82.3438 62.6039 81.5044 62.6971 81.1996 62.6979L80.6452 62.6995V58.6948V54.6899L81.2698 53.9062C82.7696 52.0239 83.6101 49.9483 83.8048 47.6464C83.9064 46.4455 83.9986 46.1683 84.3526 45.9965C84.5867 45.8832 84.8236 45.7844 84.879 45.7769C84.9345 45.7697 85.6823 46.376 86.5407 47.1244ZM66.9135 56.482C68.6155 57.5548 70.2242 57.9617 72.6814 57.9405C74.4129 57.9256 75.1603 57.8264 76.0901 57.4877C76.745 57.2492 77.3121 57.054 77.3502 57.054C77.3881 57.054 77.4194 60.2854 77.4194 64.2352V71.4163L76.9657 71.2913C75.8972 70.9965 73.5694 70.9278 72.2621 71.1522C66.8165 72.0873 62.5974 77.3346 62.9345 82.7526L63.004 83.8706L60.7609 83.8702L58.5175 83.87L62.0454 69.7596C64.4748 60.0413 65.6438 55.6918 65.8006 55.7864C65.9258 55.862 66.4266 56.1749 66.9135 56.482ZM32.2581 61.2881V62.9011H24.1935H16.129V61.2881V59.6751H24.1935H32.2581V61.2881ZM32.2581 70.9661V75.8051H24.1935H16.129V70.9661V66.1271H24.1935H32.2581V70.9661ZM77.5058 74.9623C79.325 75.8137 80.502 76.9715 81.4042 78.7972C82.1157 80.2368 82.1573 80.4273 82.1573 82.257C82.1573 84.0868 82.1157 84.2773 81.4042 85.7169C80.4974 87.5521 79.33 88.6951 77.4556 89.5831C76.2377 90.1601 75.9256 90.2212 74.1936 90.2212C72.4655 90.2212 72.15 90.1599 70.9677 89.5942C69.0478 88.6754 67.8885 87.5499 66.9903 85.7325C66.2712 84.2771 66.2298 84.0886 66.2298 82.2675C66.2298 80.5235 66.2901 80.2144 66.8679 78.9948C67.678 77.2846 68.8315 76.0327 70.3359 75.2308C71.924 74.3844 72.7929 74.1929 74.647 74.2812C75.8571 74.3389 76.5016 74.4923 77.5058 74.9623ZM72.5806 77.6816C71.5911 77.9935 69.9034 79.7412 69.6 80.7682C69.0415 82.6587 69.4353 84.1658 70.8601 85.5907C71.9042 86.6349 72.9254 87.096 74.1936 87.096C75.4617 87.096 76.4829 86.6349 77.527 85.5907C79.4972 83.6204 79.5561 81.114 77.6813 79.0286C76.3764 77.5773 74.4913 77.0793 72.5806 77.6816ZM75.3115 81.139C75.6236 81.451 75.8064 81.8643 75.8064 82.257C75.8064 82.6498 75.6236 83.0631 75.3115 83.3751C74.9996 83.6872 74.5863 83.87 74.1936 83.87C73.8008 83.87 73.3875 83.6872 73.0756 83.3751C72.7635 83.0631 72.5806 82.6498 72.5806 82.257C72.5806 81.8643 72.7635 81.451 73.0756 81.139C73.3875 80.8269 73.8008 80.6441 74.1936 80.6441C74.5863 80.6441 74.9996 80.8269 75.3115 81.139ZM64.6169 88.1318C67.7546 93.4635 75.1393 95.1382 80.3353 91.6965C81.6204 90.8452 83.0325 89.3786 83.7702 88.1288C84.347 87.1515 84.4151 87.1039 85.2409 87.1001C86.5312 87.094 87.0968 87.7354 87.0968 89.204V90.322H85.9609C84.2109 90.322 83.2931 90.6845 82.1504 91.8274C81.0077 92.9702 80.6452 93.888 80.6452 95.6381V96.774H67.7419H54.8387V92.43C54.8387 86.6472 54.4121 87.0946 59.9204 87.1001L64.0121 87.1041L64.6169 88.1318ZM96.2792 94.043C96.6857 94.4493 96.7742 94.7376 96.7742 95.656V96.774H90.3226H83.871V95.656C83.871 94.7376 83.9595 94.4493 84.3659 94.043L84.8607 93.548H90.3226H95.7845L96.2792 94.043Z" fill="#1D4687"/>
</svg>
