<svg width="80" height="80" viewBox="0 0 80 80" fill="none" xmlns="http://www.w3.org/2000/svg">
<path fill-rule="evenodd" clip-rule="evenodd" d="M23.889 0.250421C20.4042 1.18757 18.0645 4.30598 18.0645 8.01361C18.0645 9.0398 18.0274 9.18948 17.7732 9.18948C17.1889 9.18948 15.4685 9.87694 14.5223 10.4886C12.739 11.6411 11.6413 13.0205 10.8218 15.1382L10.4087 16.206L10.356 22.9403L10.3032 29.6745H11.6032H12.9032V32.2553V34.8361H14.1935H15.4839V37.4169V39.9977H16.7742H18.0645V42.5785V45.1593H14.1935H10.3226V54.1921V63.2248H19.3548H28.3871V54.1921V45.1593H24.5161H20.6452V42.5785V39.9977H21.9355H23.2258V37.4169V34.8361H24.5161H25.8064V32.2553V29.6745H27.0937H28.381L28.4244 26.059L28.4677 22.4435L29.7177 23.195L30.9677 23.9465L30.9705 26.0443C30.9721 27.26 31.0726 28.6111 31.2095 29.2571C31.4516 30.3996 32.1576 32.0797 32.7382 32.8954C32.9177 33.1473 33.0645 33.3968 33.0645 33.4496C33.0645 33.5025 32.5927 33.5457 32.0161 33.5457H30.9677V50.9661V68.3864H19.3548H7.74194V50.9661V33.5457H6.45161H5.16129V50.9661V68.3864H3.87097H2.58065V50.9661V33.5457H1.29032H0V52.2565V70.9672H19.3548H38.7097V54.0135C38.7097 37.9329 38.7242 37.0654 38.9919 37.1695C39.1473 37.23 39.8911 37.3174 40.6452 37.3642C43.0823 37.515 45.6077 36.703 47.5994 35.1287C48.4016 34.4946 48.4626 34.4737 48.8584 34.6979C49.2226 34.9044 49.2642 35.0127 49.1935 35.5704C49.0456 36.7382 49.1294 39.1027 49.3418 39.7558C49.4573 40.1106 49.7344 40.8168 49.9576 41.3249L50.3634 42.2488L47.2411 54.7453L44.1189 67.242L43.4981 67.522C42.7063 67.8791 41.7245 68.9905 41.48 69.807C41.3531 70.2304 41.2903 72.0229 41.2903 75.22V80H60.6452H80V77.8008C80 75.1849 79.8455 74.5763 78.9192 73.5461C77.9358 72.4523 77.2664 72.2576 74.4874 72.2576H72.2581V71.3489C72.2581 69.9488 71.9681 69.2145 71.0539 68.3003C70.2847 67.5311 69.4058 67.0975 68.6103 67.0951C68.3353 67.0943 68.3056 66.9523 68.2971 65.603C68.2818 63.1437 67.4377 61.1802 65.6187 59.3717C65.0123 58.7689 64.5161 58.2002 64.5161 58.1079C64.5161 58.0115 65.1829 57.8908 66.0887 57.8237C71.0637 57.4547 75.0656 55.1308 77.7145 51.073C81.029 45.9955 80.6471 39.132 76.784 34.3522C76.2463 33.6869 75.0089 32.4529 74.0342 31.6101C72.3263 30.1333 72.2619 30.0542 72.26 29.4261C72.259 29.0677 72.1498 28.3588 72.0174 27.8507C70.769 23.0572 65.4273 20.5458 61.1361 22.7349L60.5081 23.0554L55.2944 21.2702C52.4268 20.2882 47.5403 18.6129 44.4355 17.5474C41.3306 16.4818 37.611 15.2098 36.1694 14.7208L33.5484 13.8314V10.3345C33.5484 7.75537 33.4853 6.5953 33.3077 5.91397C32.2189 1.73325 27.9408 -0.839319 23.889 0.250421ZM28.2342 3.23898C29.3227 3.81917 29.8139 4.32969 30.4497 5.54298C30.8695 6.34384 30.8831 6.45787 30.939 9.63306C30.9706 11.4296 30.959 12.8994 30.9134 12.8994C30.5337 12.8994 24.4418 10.6431 23.8748 10.2924C23.0868 9.80516 21.4376 9.18948 20.9202 9.18948C20.6195 9.18948 20.6053 9.10512 20.6821 7.77811C20.7789 6.10656 21.1942 5.08392 22.1735 4.10516C23.7837 2.49619 26.1944 2.1515 28.2342 3.23898ZM22.0047 12.2251C23.4595 12.906 24.4016 13.8325 25.1234 15.2924L25.7258 16.5107L25.7761 21.8023L25.8265 27.0937H19.3548H12.8832L12.9335 21.8112L12.9839 16.5286L13.4944 15.4511C14.1424 14.083 15.0652 13.0815 16.2687 12.44C17.5392 11.7629 18.2344 11.6096 19.7176 11.6803C20.6856 11.7264 21.2013 11.8492 22.0047 12.2251ZM18.0645 14.4006C17.2729 14.6501 15.9227 16.0483 15.68 16.8699C15.2332 18.3823 15.5482 19.588 16.6881 20.7279C18.3198 22.3598 20.3898 22.3598 22.0216 20.7279C23.5977 19.1517 23.6448 17.1466 22.145 15.4782C21.1011 14.3172 19.5931 13.9188 18.0645 14.4006ZM44.0023 20.1417C51.7479 22.7938 58.1179 24.9964 58.1579 25.0364C58.1977 25.0764 58.0381 25.4533 57.8029 25.8742C57.5677 26.295 57.2502 27.0437 57.0973 27.5381C56.8202 28.4337 56.8156 28.438 55.9498 28.6532C54.0542 29.1245 52.1939 30.342 50.8674 31.9798L50.3719 32.5915L39.4016 26.0117L28.4313 19.432L28.3423 17.819C28.2931 16.9319 28.1381 15.8884 27.9974 15.5002C27.8569 15.1121 27.7419 14.7353 27.7419 14.6632C27.7419 14.5909 28.2318 14.7092 28.8306 14.9258C29.4295 15.1424 36.2566 17.4896 44.0023 20.1417ZM20.2492 17.1666C21.0494 17.9666 20.4824 19.3514 19.3548 19.3514C19.0406 19.3514 18.71 19.2051 18.4605 18.9554C18.2108 18.7058 18.0645 18.3752 18.0645 18.061C18.0645 17.7467 18.2108 17.4161 18.4605 17.1666C18.71 16.9169 19.0406 16.7706 19.3548 16.7706C19.669 16.7706 19.9997 16.9169 20.2492 17.1666ZM66.9373 25.1722C68.0343 25.7569 68.5263 26.2687 69.1556 27.4797C69.5205 28.182 69.5837 28.5058 69.584 29.6745C69.5844 31.1001 69.3615 31.7663 68.4897 32.9455C68.1729 33.3739 66.8606 34.3522 66.6027 34.3522C66.5389 34.3522 66.4448 34.1856 66.3937 33.982C66.256 33.433 65.1269 31.7479 64.4302 31.0509C63.5065 30.1273 62.0235 29.2363 60.745 28.8369C60.1134 28.6396 59.5711 28.4617 59.5398 28.4416C59.5085 28.4214 59.6624 28.0128 59.8818 27.5338C60.3495 26.5119 61.1877 25.6222 62.1415 25.1349C63.2164 24.5857 63.5531 24.5157 64.7919 24.5841C65.7161 24.6352 66.1563 24.7559 66.9373 25.1722ZM45.8871 33.0875C45.8871 33.3686 44.0835 34.3017 42.9903 34.5861C38.9215 35.6444 34.5939 32.9131 33.7261 28.7392C33.6284 28.269 33.5484 27.347 33.5484 26.6902V25.4959L39.7177 29.1981C43.111 31.2341 45.8871 32.9844 45.8871 33.0875ZM23.2258 30.9649V32.2553H19.3548H15.4839V30.9649V29.6745H19.3548H23.2258V30.9649ZM60.7144 31.5811C62.1697 32.2623 63.1113 33.1884 63.8331 34.649C64.4023 35.8007 64.4355 35.9531 64.4355 37.4169C64.4355 38.8807 64.4023 39.0331 63.8331 40.1848C63.1076 41.653 62.1737 42.5674 60.6742 43.2777C59.6998 43.7394 59.4502 43.7882 58.0645 43.7882C56.6821 43.7882 56.4297 43.7392 55.4839 43.2866C53.9479 42.5516 53.0205 41.6512 52.3019 40.1972C51.7266 39.033 51.6935 38.8822 51.6935 37.4253C51.6935 36.0301 51.7418 35.7828 52.204 34.8071C52.8521 33.4389 53.7748 32.4374 54.9784 31.7959C56.2489 31.1188 56.944 30.9656 58.4273 31.0362C59.3953 31.0824 59.911 31.2051 60.7144 31.5811ZM73.1161 34.2461C75.05 35.9762 76.2077 37.7595 76.9579 40.163C77.4974 41.8917 77.4977 44.8741 76.9587 46.611C75.6706 50.7615 72.545 53.7945 68.4855 54.8327C67.8219 55.0024 66.6573 55.1918 65.8974 55.2534L64.5161 55.3655V54.0751V52.7849L65.7661 52.6728C68.5176 52.4262 70.2755 51.6581 72.0127 49.9431C74.9202 47.0728 75.6314 42.9106 73.844 39.2256C73.4497 38.4128 72.9277 37.7521 71.7508 36.5764L70.1831 35.01L70.8576 33.9796C71.2287 33.4128 71.6048 32.987 71.6935 33.0334C71.7823 33.0797 72.4224 33.6254 73.1161 34.2461ZM56.7742 33.7565C55.9826 34.0061 54.6324 35.4042 54.3897 36.2259C53.9429 37.7382 54.2579 38.9439 55.3977 40.0838C56.2331 40.9192 57.05 41.2881 58.0645 41.2881C59.079 41.2881 59.896 40.9192 60.7313 40.0838C62.3074 38.5076 62.3545 36.5025 60.8547 34.8342C59.8108 33.6731 58.3027 33.2747 56.7742 33.7565ZM35.6048 35.7258L36.129 36.0347V52.2107V68.3864H34.8387H33.5484V51.1859V33.9854L34.3145 34.7011C34.736 35.0948 35.3166 35.5558 35.6048 35.7258ZM20.6452 36.1265V37.4169H19.3548H18.0645V36.1265V34.8361H19.3548H20.6452V36.1265ZM58.9589 36.5225C59.759 37.3226 59.1921 38.7073 58.0645 38.7073C57.4015 38.7073 56.7742 38.08 56.7742 37.4169C56.7742 36.7538 57.4015 36.1265 58.0645 36.1265C58.3787 36.1265 58.7094 36.2728 58.9589 36.5225ZM69.2326 37.6995C71.244 39.453 72.0163 40.7808 72.206 42.8116C72.5274 46.2547 69.9753 49.4395 66.4516 49.9926C65.875 50.0831 65.2035 50.1576 64.9597 50.1583L64.5161 50.1596V46.9558V43.752L65.0158 43.125C66.2156 41.6191 66.8881 39.9587 67.0439 38.1171C67.1252 37.1564 67.1989 36.9346 67.4821 36.7972C67.6694 36.7066 67.8589 36.6275 67.9032 36.6215C67.9476 36.6157 68.5458 37.1008 69.2326 37.6995ZM53.5308 45.1856C54.8924 46.0439 56.1794 46.3694 58.1452 46.3524C59.5303 46.3405 60.1282 46.2611 60.8721 45.9901C61.396 45.7993 61.8497 45.6432 61.8802 45.6432C61.9105 45.6432 61.9355 48.2283 61.9355 51.3882V57.133L61.5726 57.033C60.7177 56.7972 58.8555 56.7422 57.8097 56.9217C53.4532 57.6698 50.0779 61.8677 50.3476 66.2021L50.4032 67.0965L48.6087 67.0962L46.814 67.096L49.6363 55.8076C51.5798 48.033 52.515 44.5535 52.6405 44.6291C52.7406 44.6896 53.1413 44.9399 53.5308 45.1856ZM25.8064 49.0305V50.3209H19.3548H12.9032V49.0305V47.7401H19.3548H25.8064V49.0305ZM25.8064 56.7729V60.6441H19.3548H12.9032V56.7729V52.9017H19.3548H25.8064V56.7729ZM62.0047 59.9698C63.46 60.651 64.4016 61.5772 65.1234 63.0377C65.6926 64.1894 65.7258 64.3418 65.7258 65.8056C65.7258 67.2694 65.6926 67.4219 65.1234 68.5735C64.3979 70.0417 63.464 70.9561 61.9645 71.6665C60.9902 72.1281 60.7405 72.177 59.3548 72.177C57.9724 72.177 57.72 72.1279 56.7742 71.6753C55.2382 70.9403 54.3108 70.0399 53.5923 68.586C53.0169 67.4217 52.9839 67.2709 52.9839 65.814C52.9839 64.4188 53.0321 64.1715 53.4944 63.1958C54.1424 61.8277 55.0652 60.8262 56.2687 60.1847C57.5392 59.5075 58.2344 59.3543 59.7176 59.4249C60.6856 59.4711 61.2013 59.5938 62.0047 59.9698ZM58.0645 62.1453C57.2729 62.3948 55.9227 63.7929 55.68 64.6146C55.2332 66.1269 55.5482 67.3327 56.6881 68.4726C57.5234 69.3079 58.3403 69.6768 59.3548 69.6768C60.3694 69.6768 61.1863 69.3079 62.0216 68.4726C63.5977 66.8963 63.6448 64.8912 62.145 63.2229C61.1011 62.0619 59.5931 61.6635 58.0645 62.1453ZM60.2492 64.9112C60.4989 65.1608 60.6452 65.4914 60.6452 65.8056C60.6452 66.1199 60.4989 66.4505 60.2492 66.7001C59.9997 66.9497 59.669 67.096 59.3548 67.096C59.0406 67.096 58.71 66.9497 58.4605 66.7001C58.2108 66.4505 58.0645 66.1199 58.0645 65.8056C58.0645 65.4914 58.2108 65.1608 58.4605 64.9112C58.71 64.6615 59.0406 64.5152 59.3548 64.5152C59.669 64.5152 59.9997 64.6615 60.2492 64.9112ZM51.6935 70.5054C54.2037 74.7708 60.1115 76.1106 64.2682 73.3572C65.2963 72.6762 66.426 71.5029 67.0161 70.503C67.4776 69.7212 67.5321 69.6831 68.1927 69.6801C69.225 69.6752 69.6774 70.1883 69.6774 71.3632V72.2576H68.7687C67.3687 72.2576 66.6345 72.5476 65.7203 73.4619C64.8061 74.3761 64.5161 75.1104 64.5161 76.5104V77.4192H54.1935H43.871V73.944C43.871 69.3178 43.5297 69.6757 47.9363 69.6801L51.2097 69.6833L51.6935 70.5054ZM77.0234 75.2344C77.3485 75.5594 77.4193 75.7901 77.4193 76.5248V77.4192H72.2581H67.0968V76.5248C67.0968 75.7901 67.1676 75.5594 67.4927 75.2344L67.8885 74.8384H72.2581H76.6276L77.0234 75.2344Z" fill="#EA5B21"/>
</svg>
