<svg width="80" height="80" viewBox="0 0 80 80" fill="none" xmlns="http://www.w3.org/2000/svg">
<path fill-rule="evenodd" clip-rule="evenodd" d="M52.0625 0.376596L51.6242 0.753347L51.5753 3.57867L51.5264 6.40415H49.8677H48.2092L46.9288 5.15456L45.6486 3.90497H42.601C39.8334 3.90497 39.5195 3.93246 39.1846 4.20347L38.8158 4.50196L38.7377 11.2715L38.6596 18.041L33.9736 18.1355C30.4456 18.2065 29.0178 18.2932 28.1962 18.4865C22.1989 19.8966 17.2745 23.8509 14.7594 29.2767C13.8511 31.2357 13.354 32.9925 13.0437 35.34L12.9454 36.0819H10.9167C8.81235 36.0819 8.11648 36.2461 7.90702 36.7919C7.85375 36.9309 7.81002 37.8318 7.81002 38.794V40.5434L8.74722 41.4708C9.26268 41.9809 9.68442 42.4692 9.68442 42.5561C9.68442 42.6429 7.50543 44.8969 4.84221 47.5651L0 52.4161V60.504C0 66.0984 0.0532643 68.6971 0.172601 68.9331C0.418305 69.4187 10.457 79.4798 10.9653 79.7498C11.5924 80.0829 29.6421 80.0836 30.2716 79.7506C30.5036 79.6279 33.0657 77.1477 35.9651 74.2393L41.2369 68.9512V60.6103V52.2695L36.3947 47.4114L31.5526 42.5534L32.417 41.6996C33.4676 40.6623 33.6334 40.1695 33.5606 38.3001C33.4794 36.2146 33.4258 36.1747 30.6114 36.1091L28.4285 36.0584V35.5538C28.4285 34.2707 29.5286 32.1614 30.6934 31.2112C32.2055 29.9775 33.3267 29.6778 36.4275 29.6778H38.7377V31.7737C38.7377 32.9264 38.7814 33.9834 38.8347 34.1224C39.0598 34.7091 39.7077 34.8324 42.5646 34.8324C44.6435 34.8324 45.4165 34.778 45.7355 34.6096C45.9674 34.4872 46.6474 33.8897 47.2464 33.2819L48.3356 32.177H62.5204H76.7051L78.1206 30.8126C78.899 30.0622 79.6345 29.2573 79.7553 29.0241C80.0839 28.3885 80.0805 10.3376 79.7515 9.71557C79.4247 9.09749 77.0015 6.76013 76.489 6.56848C76.2105 6.46445 73.9343 6.40415 70.28 6.40415H64.5107V3.65865V0.913139L64.0542 0.456569L63.5976 0H58.0492H52.5008L52.0625 0.376596ZM61.8519 8.86429C61.8481 15.6608 61.8499 15.6464 60.8805 16.7947C59.5583 18.3606 56.8508 18.4013 55.3277 16.8782C54.249 15.7995 54.2845 16.054 54.234 9.02049L54.1884 2.65538H58.0219H61.8553L61.8519 8.86429ZM43.8923 19.2906V32.177H42.5646H41.2369V19.2906V6.40415H42.5646H43.8923V19.2906ZM46.9027 8.70809C47.1527 8.93458 47.5732 8.99003 49.3574 9.03204L51.5107 9.0825L51.5892 12.2341C51.677 15.7602 51.7956 16.3292 52.7378 17.7486C53.4557 18.8301 54.5452 19.7081 55.7242 20.1553C59.5083 21.5906 63.5982 19.2959 64.3533 15.3137C64.44 14.8573 64.5107 13.2633 64.5107 11.7718V9.05954H68.3376H72.1646V19.3687V29.6778H59.7677C47.6074 29.6778 47.3632 29.6837 46.9737 29.9902C46.7553 30.162 46.5349 30.3026 46.484 30.3026C46.4332 30.3026 46.3915 25.3823 46.3915 19.3687C46.3915 13.355 46.4387 8.43474 46.4963 8.43474C46.5539 8.43474 46.7369 8.55783 46.9027 8.70809ZM76.4165 9.95284L77.3192 10.846V19.3687V27.8913L76.4165 28.7845C75.8629 29.3323 75.3796 29.6778 75.1669 29.6778H74.82V19.3687V9.05954H75.1669C75.3796 9.05954 75.8629 9.40505 76.4165 9.95284ZM5.15461 12.8864V14.2268L6.44326 14.1813L7.73192 14.136V12.8864V11.6368L6.44326 11.5915L5.15461 11.5461V12.8864ZM56.7007 14.2141V15.4637H58.0284H59.3561V14.2141V12.9645H58.0284H56.7007V14.2141ZM12.9646 16.7914V18.1191H14.2142H15.4638V16.7914V15.4637H14.2142H12.9646V16.7914ZM2.65541 18.041V19.3687H3.90501H5.15461V18.041V16.7133H3.90501H2.65541V18.041ZM7.81002 21.9459V23.2736H9.05962H10.3092V21.9459V20.6183H9.05962H7.81002V21.9459ZM38.7377 23.7977V26.9771L36.0432 27.0629C33.7244 27.1366 33.1746 27.2045 32.0992 27.5505C29.7582 28.3037 27.8415 29.9418 26.7771 32.0989C26.2766 33.1131 25.7821 34.9067 25.7757 35.7305L25.7731 36.0819H20.6965H15.62V35.6235C15.62 34.2957 16.4488 31.5737 17.4304 29.6778C19.9143 24.8806 24.7676 21.47 30.0686 20.7966C30.6699 20.7203 32.8664 20.6489 34.9498 20.6379L38.7377 20.6183V23.7977ZM2.65541 27.1005V28.4282H3.90501H5.15461V27.1005V25.7728H3.90501H2.65541V27.1005ZM7.81002 32.2551V33.5828H9.05962H10.3092V32.2551V30.9274H9.05962H7.81002V32.2551ZM62.6363 35.0262C62.3521 35.1693 61.7996 36.1016 60.6057 38.453C59.7037 40.2296 58.9136 41.7343 58.85 41.7968C58.7865 41.8591 58.1512 41.5222 57.4383 41.0478C55.8849 40.0139 55.5705 39.8996 54.9674 40.1494C54.5737 40.3124 54.2338 40.8827 52.6325 44.0686L50.7582 47.7969H48.9654C46.3437 47.7969 46.3384 47.8059 46.4196 52.072L46.4696 54.6974L46.9079 55.074C47.2545 55.3719 47.5233 55.4506 48.1936 55.4506C48.9943 55.4506 49.0453 55.4742 49.1216 55.8802C49.8754 59.8938 51.5383 62.9257 54.1636 65.072C54.657 65.4754 55.0423 65.8675 55.02 65.9433C54.9978 66.019 53.1946 68.6291 51.013 71.7434C48.8313 74.8575 46.8962 77.6605 46.7123 77.972C46.312 78.6504 46.3995 79.2099 46.9768 79.6639C47.3479 79.9557 47.6186 79.9738 51.628 79.9738C55.4524 79.9738 55.9188 79.946 56.2157 79.7005C56.4008 79.5476 57.632 76.9854 59.0119 73.8821L61.4773 68.337L63.1905 68.3109L64.9037 68.2847L67.3236 73.7471C68.6546 76.7514 69.9112 79.3815 70.1161 79.5916L70.489 79.9738H74.6777C77.4149 79.9738 78.9983 79.9137 79.2471 79.8005C79.6467 79.6183 79.9746 79.0663 79.9746 78.5755C79.9746 78.4161 78.0186 75.4892 75.628 72.0714L71.2814 65.8574L72.1525 65.1298C74.7739 62.9405 76.4507 60.1188 77.1028 56.8L77.3681 55.4506L78.2417 55.4456C79.8549 55.4364 79.9746 55.1618 79.9746 51.4707C79.9746 48.5925 79.9708 48.5599 79.5911 48.1803C79.2295 47.8186 79.1081 47.7969 77.4433 47.7964L75.6791 47.7959L73.8378 44.1254C72.6214 41.7006 71.8654 40.3691 71.6102 40.2018C71.0563 39.8388 70.4782 40.0066 69.1163 40.9257C68.4728 41.3599 67.8408 41.7557 67.7119 41.8052C67.534 41.8735 67.1085 41.1317 65.9397 38.7151C65.0937 36.9662 64.2678 35.4178 64.1046 35.2741C63.6782 34.8989 63.0871 34.7991 62.6363 35.0262ZM30.9277 39.0842C30.9277 39.297 30.5822 39.7803 30.0344 40.3338L29.1412 41.2365H20.6278H12.1146L11.2119 40.3432C10.6372 39.7746 10.3092 39.3204 10.3092 39.0936V38.7373H20.6184H30.9277V39.0842ZM64.6605 41.8485C66.0434 44.6109 66.4373 45.1415 67.1057 45.1415C67.2919 45.1415 68.0866 44.7197 68.8717 44.2043C69.6566 43.6888 70.3509 43.2671 70.4143 43.2671C70.541 43.2671 72.6332 47.3923 72.6332 47.6421C72.6332 47.7427 69.3189 47.7969 63.183 47.7969C57.9855 47.7969 53.7329 47.7608 53.7329 47.7167C53.7329 47.5171 55.9347 43.2671 56.038 43.2674C56.1018 43.2676 56.7866 43.6891 57.5598 44.2043C59.7991 45.696 59.8602 45.6626 61.7452 41.9116C62.5361 40.3382 63.2002 39.0505 63.2213 39.0502C63.2422 39.05 63.89 40.3092 64.6605 41.8485ZM32.9583 47.7188L36.7828 51.5456H20.6184H4.45405L8.27862 47.7188L12.1032 43.8919H20.6184H29.1337L32.9583 47.7188ZM77.3192 51.6237V52.9514H63.183H49.0469V51.6237V50.296H63.183H77.3192V51.6237ZM38.7377 55.4506V56.7002H20.6965H2.65541V55.4506V54.201H20.6965H38.7377V55.4506ZM74.6638 55.8052C74.6638 56.472 74.0182 58.4904 73.4732 59.5274C72.0079 62.3159 69.541 64.3304 66.3851 65.3158C64.6962 65.8431 61.6699 65.8431 59.9809 65.3158C56.7501 64.3071 54.2301 62.1715 52.7935 59.2253C52.3529 58.3217 51.7023 56.1958 51.7023 55.6599C51.7023 55.4868 53.6912 55.4506 63.183 55.4506H74.6638V55.8052ZM38.7377 60.6052V61.8548H20.6965H2.65541V60.6052V59.3556H20.6965H38.7377V60.6052ZM38.7377 65.7597V67.0093H20.6965H2.65541V65.7597V64.5101H20.6965H38.7377V65.7597ZM58.2046 67.4162C58.5373 67.5541 58.8304 67.6864 58.856 67.7102C58.8816 67.7339 57.9544 69.8879 56.7955 72.4969L54.6884 77.2403L52.4822 77.2838C50.6431 77.3199 50.2973 77.2914 50.4035 77.1121C50.8554 76.3488 57.3947 67.1655 57.4864 67.1655C57.5487 67.1655 57.8719 67.2783 58.2046 67.4162ZM72.4427 72.0188C74.2775 74.6329 75.8465 76.8948 75.9295 77.0451C76.0702 77.2996 75.9307 77.3185 73.9128 77.3185H71.745L69.6508 72.612C68.499 70.0237 67.5356 67.8517 67.5098 67.7855C67.4582 67.6533 68.7158 67.1693 68.9567 67.2286C69.0393 67.2491 70.6082 69.4046 72.4427 72.0188ZM32.9583 73.4916L29.1337 77.3185H20.6184H12.1032L8.27862 73.4916L4.45405 69.6647H20.6184H36.7828L32.9583 73.4916Z" fill="#EA5B21"/>
</svg>
