<svg width="80" height="80" viewBox="0 0 80 80" fill="none" xmlns="http://www.w3.org/2000/svg">
<path fill-rule="evenodd" clip-rule="evenodd" d="M64.5022 1.33701C64.442 2.48443 64.3509 2.83614 63.8605 3.81598C63.5291 4.47832 62.8188 5.48268 62.1694 6.20733C59.95 8.68411 59.2759 10.1326 59.4134 12.1296C59.5048 13.457 59.9172 14.6728 60.6808 15.8658L61.2461 16.7491H60.3106H59.375L59.3773 17.9595C59.3847 21.8364 61.7502 25.2488 65.3516 26.578L65.7812 26.7365V35.3301V43.9236H63.2573H60.7333L59.8983 43.1343C58.9308 42.2197 57.7653 41.6395 56.4192 41.4026L55.4688 41.2352L55.4672 38.9483C55.4658 36.8763 55.4311 36.5873 55.0978 35.8718C54.6731 34.9602 53.6284 33.9962 52.8227 33.7725C51.9987 33.5437 38.2505 33.5659 37.4778 33.7974C36.6206 34.054 35.6448 34.9484 35.2147 35.8718C34.8814 36.5873 34.8467 36.8763 34.8453 38.9483L34.8438 41.2352L33.8933 41.4026C31.7645 41.7774 29.9377 43.1276 29.0183 45.0053L28.5156 46.0319L28.4711 53.9578L28.4266 61.8837H24.5258H20.625V50.0147V38.1457L24.5312 35.5434L28.4375 32.941V29.3742V25.8073H27.1094H25.7812V23.2304V20.6535H27.1094H28.4375V19.4041V18.1547H14.2188H0V19.3979V20.6409L1.28906 20.6863L2.57812 20.7316L2.62109 23.2694L2.66406 25.8073H1.33203H0V29.399V32.9907L3.90625 35.5931L7.8125 38.1954V50.0396V61.8837H3.90625H0V70.9419V80H40H80V61.9618V43.9236H76.7969H73.5938V35.3301V26.7365L74.0234 26.5747C76.0089 25.8271 77.95 24.1639 78.8719 22.4205C79.5431 21.1509 80 19.3185 80 17.8955V16.7491H79.0739H78.1478L78.6831 15.8605C79.637 14.2772 79.8989 13.4006 79.9109 11.7487C79.9211 10.3785 79.8827 10.1834 79.4202 9.24993C79.1442 8.69317 78.3423 7.56996 77.6384 6.75394C75.3383 4.08741 74.8438 3.06353 74.8438 0.967816V0.038419H73.9903C72.695 0.038419 71.4786 0.558013 70.4981 1.53005L69.668 2.35293L69.0588 1.69231C68.1283 0.683422 67.038 0.158205 65.6952 0.0719967L64.5725 0L64.5022 1.33701ZM67.8023 4.42225C68.0739 5.0532 68.4111 6.78127 68.4327 7.65195C68.4361 7.7911 68.79 7.84717 69.6659 7.84717H70.8944L70.9963 6.85296C71.1352 5.49861 71.5128 4.28247 71.9916 3.64918L72.3906 3.12131L72.7473 4.06976C73.218 5.32104 73.9409 6.42863 75.2722 7.93681C77.0109 9.90712 77.3438 10.5214 77.3438 11.7611C77.3438 12.6447 77.2584 12.9731 76.7819 13.9253C76.4658 14.5568 75.8566 15.4201 75.3892 15.8986C74.6562 16.6489 74.4845 16.7491 73.9323 16.7491H73.3064L73.4631 16.1819C73.9617 14.377 72.2663 11.0694 70.5528 10.5042C68.2706 9.75125 65.9058 12.2966 65.875 15.5388L65.8634 16.7491H65.3203C64.8633 16.7491 64.6456 16.61 63.9466 15.8711C62.9052 14.7704 62.4267 13.9597 62.117 12.7709C61.7059 11.1932 62.0073 10.3577 63.6966 8.39144C65.6419 6.12737 66.4817 4.81597 66.7817 3.57391C66.8844 3.14911 66.9042 3.14005 67.1805 3.38978C67.3403 3.5344 67.6202 3.99902 67.8023 4.42225ZM70.2048 13.5085C71.3411 15.0382 71.0764 16.7491 69.7034 16.7491C68.8061 16.7491 68.3744 16.2106 68.4705 15.211C68.5519 14.3642 69.2536 13.0009 69.608 13.0009C69.7289 13.0009 69.9975 13.2294 70.2048 13.5085ZM77.1875 19.6915C77.1875 20.2401 76.212 21.926 75.4592 22.6785C74.6605 23.4767 73.4677 24.1292 72.3262 24.3922C71.2428 24.6419 67.8648 24.5951 66.7906 24.3155C64.6042 23.7464 62.7992 22.0043 62.1875 19.873L62.0531 19.4041H69.6203C76.8644 19.4041 77.1875 19.4165 77.1875 19.6915ZM7.77734 23.2694L7.82031 25.8073H6.48828H5.15625V23.2242V20.6409L6.44531 20.6863L7.73438 20.7316L7.77734 23.2694ZM12.9688 23.2304V25.8073H11.6406H10.3125V23.2304V20.6535H11.6406H12.9688V23.2304ZM18.125 23.2304V25.8073H16.7969H15.4688V23.2304V20.6535H16.7969H18.125V23.2304ZM23.2812 23.2304V25.8073H21.9531H20.625V23.2304V20.6535H21.9531H23.2812V23.2304ZM70.9375 35.4901V43.9236H69.6875H68.4375V35.4901V27.0567H69.6875H70.9375V35.4901ZM25.7812 29.7117V30.9611H14.2188H2.65625V29.7117V28.4623H14.2188H25.7812V29.7117ZM20.9309 34.859L19.1406 36.102L14.2527 36.1084L9.36453 36.1148L7.69016 35.0012C6.76906 34.3886 5.94875 33.8264 5.86719 33.7518C5.78297 33.6748 9.39875 33.616 14.22 33.616H22.7213L20.9309 34.859ZM52.5348 36.5484C52.8645 36.8779 52.8945 37.0622 52.9441 39.0567L52.9973 41.2094L51.9381 41.4045C49.1623 41.9156 47.1494 43.848 46.5806 46.5472C46.4592 47.1231 46.4062 51.9305 46.4062 62.3599V77.345H45.1562H43.9062V62.344C43.9062 45.4261 43.9394 45.9598 42.7805 44.225C41.7278 42.6497 40.0798 41.6378 38.0859 41.343L37.3438 41.2332V39.3717C37.3438 37.3164 37.5523 36.5228 38.1572 36.276C38.3653 36.1911 41.3795 36.143 45.3473 36.1614L52.1791 36.1929L52.5348 36.5484ZM18.125 40.0192V41.2686H14.2188H10.3125V40.0192V38.7698H14.2188H18.125V40.0192ZM18.125 45.173V46.4224H14.2188H10.3125V45.173V43.9236H14.2188H18.125V45.173ZM38.657 44.0946C39.4752 44.3217 40.8517 45.6976 41.0789 46.5153C41.172 46.8508 41.2486 47.5645 41.2491 48.1013L41.25 49.0774H36.0938H30.9375V48.2468C30.9375 46.4088 31.7641 44.96 33.192 44.2954C33.8966 43.9675 34.2095 43.9266 36.0156 43.9259C37.1328 43.9256 38.3214 44.0015 38.657 44.0946ZM57.1975 44.3531C58.6528 45.0908 59.3723 46.3555 59.3741 48.1794L59.375 49.0774H54.2188H49.0625V48.1194C49.0625 47.5924 49.148 46.8722 49.2525 46.5186C49.4877 45.723 50.7956 44.3693 51.5625 44.1277C51.8633 44.0331 53.0636 43.9483 54.2298 43.9395C56.2492 43.9244 56.3906 43.944 57.1975 44.3531ZM77.3438 61.8837V77.345H76.0938H74.8438V73.5187V69.6925H69.6875H64.5312V73.5187V77.345H63.2031H61.875V61.8837V46.4224H69.6094H77.3438V61.8837ZM18.125 50.3268V51.5762H14.2188H10.3125V50.3268V49.0774H14.2188H18.125V50.3268ZM64.5312 52.9036V56.7299H69.6875H74.8438V52.9036V49.0774H69.6875H64.5312V52.9036ZM41.25 52.9036V54.2311H36.0938H30.9375V52.9036V51.5762H36.0938H41.25V52.9036ZM59.375 52.9036V54.2311H54.2188H49.0625V52.9036V51.5762H54.2188H59.375V52.9036ZM72.1875 52.9076V54.2389L69.6484 54.196L67.1094 54.153L67.0627 53.0753C67.0369 52.4826 67.0523 51.9027 67.0967 51.7868C67.16 51.6222 67.7245 51.5762 69.6827 51.5762H72.1875V52.9076ZM18.125 55.4805V56.7299H14.2188H10.3125V55.4805V54.2311H14.2188H18.125V55.4805ZM41.25 67.0375V77.345H40.0014H38.753L38.7123 69.6534L38.6719 61.9618L34.8047 61.9201L30.9375 61.8782V59.3042V56.7299H36.0938H41.25V67.0375ZM59.375 67.0375V77.345H54.2188H49.0625V67.0375V56.7299H54.2188H59.375V67.0375ZM18.125 60.6343V61.8837H14.2188H10.3125V60.6343V59.3849H14.2188H18.125V60.6343ZM64.5312 63.2112V67.0375H69.6875H74.8438V63.2112V59.3849H69.6875H64.5312V63.2112ZM72.1875 63.2112V64.5387H69.6094H67.0312V63.3154C67.0312 62.6424 67.0781 62.045 67.1355 61.9879C67.1927 61.9306 68.3528 61.8837 69.7136 61.8837H72.1875V63.2112ZM36.0938 70.9419V77.345H19.375H2.65625V70.9419V64.5387H19.375H36.0938V70.9419ZM5.15625 70.9392V74.8462H9.06516H12.9742L12.9323 70.9809L12.8906 67.1156L9.02344 67.0739L5.15625 67.032V70.9392ZM15.4688 70.9392V74.8462H19.3777H23.2867L23.2448 70.9809L23.2031 67.1156L19.3359 67.0739L15.4688 67.032V70.9392ZM25.8881 67.1388C25.8294 67.1977 25.7812 68.9558 25.7812 71.046V74.8462H29.6902H33.5992L33.5573 70.9809L33.5156 67.1156L29.7553 67.0739C27.6872 67.0509 25.9469 67.0801 25.8881 67.1388ZM10.3125 70.9419V72.1913H9.0625H7.8125V70.9419V69.6925H9.0625H10.3125V70.9419ZM20.625 70.9419V72.1913H19.375H18.125V70.9419V69.6925H19.375H20.625V70.9419ZM30.9375 70.9419V72.1913H29.6875H28.4375V70.9419V69.6925H29.6875H30.9375V70.9419ZM72.1875 74.7681V77.345H69.6094H67.0312V74.8723C67.0312 73.5122 67.0781 72.3526 67.1355 72.2954C67.1927 72.2381 68.3528 72.1913 69.7136 72.1913H72.1875V74.7681Z" fill="#EA5B21"/>
</svg>
