<svg width="80" height="80" viewBox="0 0 80 80" fill="none" xmlns="http://www.w3.org/2000/svg">
<path fill-rule="evenodd" clip-rule="evenodd" d="M34.2476 5.22983C33.2917 5.70331 32.8209 6.74002 33.0365 7.89661C33.1314 8.40637 33.7118 9.05618 37.2297 12.5916L41.3129 16.695L37.2297 20.7983C33.7118 24.3338 33.1314 24.9836 33.0365 25.4933C32.8184 26.6634 33.2997 27.7031 34.2731 28.1651C34.7533 28.3929 36.1486 28.4188 47.9541 28.4188H61.1003V40.1427V51.8666H31.4625C-1.36227 51.8666 1.1754 51.7851 0.406628 52.8628L0.0580386 53.3516L0.0166143 63.4341C-0.0229342 73.0274 -0.0107414 73.5432 0.267349 74.0637C0.428044 74.3647 0.833533 74.768 1.16852 74.9601L1.77754 75.3091L35.2765 75.3118C65.6491 75.314 68.8221 75.291 69.2757 75.0646C69.9662 74.72 79.3396 65.3684 79.7128 64.6518C80.0957 63.9163 80.0957 63.2645 79.7128 62.529C79.3396 61.8125 69.9662 52.4609 69.2757 52.1162C68.9223 51.9399 68.3369 51.8666 67.2827 51.8666H65.7898V29.3413C65.7898 4.40587 65.8628 6.1607 64.7936 5.39787L64.3048 5.04928L49.5327 5.01254C36.1621 4.97925 34.7121 4.99973 34.2476 5.22983ZM61.1003 16.695V23.7293H51.0584H41.0167L43.7743 20.9547C46.5921 18.1194 47.0316 17.5446 47.0316 16.695C47.0316 15.8454 46.5921 15.2706 43.7743 12.4353L41.0167 9.66067H51.0584H61.1003V16.695ZM23.7402 60.0733L27.2547 63.5904L23.7402 67.1076L20.2257 70.6247H12.4475H4.66942V63.5904V56.5561H12.4475H20.2257L23.7402 60.0733ZM47.188 60.0733L50.7025 63.5904L47.188 67.1076L43.6735 70.6247H35.3108H26.948L29.7057 67.8501C32.5234 65.0148 32.963 64.44 32.963 63.5904C32.963 62.7408 32.5234 62.1661 29.7057 59.3308L26.948 56.5561H35.3108H43.6735L47.188 60.0733ZM61.1003 60.3493C61.1003 63.7428 61.1308 64.1997 61.3901 64.6871C61.7357 65.3365 62.6977 65.9291 63.4122 65.9327C64.2155 65.9366 65.1152 65.3942 65.4752 64.6887C65.7647 64.1211 65.7898 63.7718 65.7898 60.314V56.5561H66.5336H67.2775L70.792 60.0733L74.3065 63.5904L70.792 67.1076L67.2775 70.6247H58.8366H50.3958L53.1534 67.8501C55.9712 65.0148 56.4107 64.44 56.4107 63.5904C56.4107 62.7408 55.9712 62.1661 53.1534 59.3308L50.3958 56.5561H55.7479H61.1003V60.3493Z" fill="#EA5B21"/>
</svg>
