<svg width="80" height="80" viewBox="0 0 80 80" fill="none" xmlns="http://www.w3.org/2000/svg">
<path fill-rule="evenodd" clip-rule="evenodd" d="M69.8874 5.1781C70.4953 5.515 70.6222 5.94908 70.6277 7.71017L70.6328 9.35162H72.2306C74.0007 9.35162 74.4864 9.49344 74.8011 10.1023C75.1916 10.8577 74.9209 11.7718 74.2108 12.0954C73.9886 12.1967 73.1586 12.2698 72.2306 12.2698H70.6328V16.647H72.2306C74.0007 16.647 74.4864 16.7888 74.8011 17.3977C75.0547 17.8882 75.064 18.2636 74.8347 18.7667C74.5437 19.4056 74.0263 19.5651 72.2447 19.5651H70.6328V23.9423H72.2447C74.0263 23.9423 74.5437 24.1018 74.8347 24.7407C75.0551 25.2245 75.0551 25.5782 74.8347 26.062C74.5437 26.701 74.0263 26.8604 72.2447 26.8604H70.6328V31.2376H72.2306C74.0007 31.2376 74.4864 31.3795 74.8011 31.9883C75.0643 32.4973 75.0643 32.8962 74.8011 33.4051C74.4864 34.014 74.0007 34.1558 72.2306 34.1558H70.6328V38.533H72.2306C74.0007 38.533 74.4864 38.6748 74.8011 39.2837C75.0643 39.7926 75.0643 40.1915 74.8011 40.7004C74.4864 41.3093 74.0007 41.4511 72.2306 41.4511H70.6328V45.8283H72.2306C74.0007 45.8283 74.4864 45.9701 74.8011 46.579C75.1916 47.3344 74.9209 48.2485 74.2108 48.5721C73.9886 48.6734 73.1586 48.7465 72.2306 48.7465H70.6328V53.1237H72.2306C74.0007 53.1237 74.4864 53.2655 74.8011 53.8743C75.0643 54.3833 75.0643 54.7822 74.8011 55.2911C74.4864 55.9 74.0007 56.0418 72.2306 56.0418H70.6328V60.419H72.2447C74.0263 60.419 74.5437 60.5785 74.8347 61.2174C75.0551 61.7012 75.0551 62.0549 74.8347 62.5387C74.5437 63.1777 74.0263 63.3371 72.2447 63.3371H70.6328V66.3943C70.6328 68.4538 70.576 69.5764 70.4585 69.8341C70.1289 70.5578 69.7502 70.6325 66.4098 70.6325H63.3392V72.2306C63.3392 74.0012 63.1974 74.4869 62.5887 74.8018C61.8335 75.1924 60.9196 74.9216 60.5961 74.2113C60.4949 73.9891 60.4218 73.1589 60.4218 72.2306V70.6325H56.0456V72.2306C56.0456 74.0012 55.9038 74.4869 55.2951 74.8018C54.7863 75.065 54.3875 75.065 53.8787 74.8018C53.27 74.4869 53.1282 74.0012 53.1282 72.2306V70.6325H48.752V72.2306C48.752 74.0012 48.6102 74.4869 48.0015 74.8018C47.4927 75.065 47.0939 75.065 46.5851 74.8018C45.9763 74.4869 45.8346 74.0012 45.8346 72.2306V70.6325H41.4584V72.2306C41.4584 74.0012 41.3166 74.4869 40.7079 74.8018C40.1991 75.065 39.8003 75.065 39.2915 74.8018C38.6827 74.4869 38.5409 74.0012 38.5409 72.2306V70.6325H34.1648V72.2306C34.1648 74.0012 34.023 74.4869 33.4143 74.8018C32.9055 75.065 32.5066 75.065 31.9978 74.8018C31.3891 74.4869 31.2473 74.0012 31.2473 72.2306V70.6325H26.8712V72.2306C26.8712 74.0012 26.7294 74.4869 26.1207 74.8018C25.6119 75.065 25.213 75.065 24.7042 74.8018C24.0955 74.4869 23.9537 74.0012 23.9537 72.2306V70.6325H19.5776V72.2306C19.5776 74.0012 19.4358 74.4869 18.827 74.8018C18.3182 75.065 17.9194 75.065 17.4106 74.8018C16.8019 74.4869 16.6601 74.0012 16.6601 72.2306V70.6325H12.2839V72.2447C12.2839 74.0267 12.1245 74.5442 11.4857 74.8353C10.9828 75.0647 10.6074 75.0554 10.117 74.8018C9.50828 74.4869 9.3665 74.0012 9.3665 72.2306V70.6325H7.75461C5.97307 70.6325 5.45566 70.473 5.16465 69.8341C4.93534 69.331 4.94467 68.9556 5.19819 68.465C5.51299 67.8562 5.9986 67.7143 7.76876 67.7143H9.3665V47.8637C9.3665 26.2851 9.32302 27.4184 10.1647 27.0348C10.4242 26.9165 11.5791 26.8604 13.7568 26.8604C17.2468 26.8604 17.6127 26.9302 17.9445 27.6588C18.077 27.9495 18.1188 32.8093 18.1188 47.8779V67.7143H21.0363V50.7819C21.0363 32.3817 20.9975 33.2525 21.8345 32.8711C22.3653 32.6292 28.4596 32.6292 28.9904 32.8711C29.8274 33.2525 29.7886 32.3817 29.7886 50.7819V67.7143H32.7061V53.7C32.7061 38.4774 32.6737 39.0858 33.5043 38.7073C33.7638 38.589 34.9186 38.533 37.0964 38.533C40.5864 38.533 40.9522 38.6027 41.2841 39.3314C41.4154 39.6195 41.4584 43.1705 41.4584 53.7141V67.7143H44.3758V56.6181C44.3758 44.5716 44.3529 44.9177 45.174 44.5436C45.7049 44.3017 51.7991 44.3017 52.33 44.5436C53.1511 44.9177 53.1282 44.5716 53.1282 56.6181V67.7143H56.0456V59.5363C56.0456 50.6634 56.0383 50.747 56.8438 50.3799C57.3747 50.138 63.4689 50.138 63.9997 50.3799C64.8052 50.747 64.798 50.6634 64.798 59.5363V67.7143H67.7154V36.9349C67.7154 13.3822 67.7564 6.06551 67.8897 5.77282C68.209 5.07159 69.1762 4.78372 69.8874 5.1781ZM64.0525 8.09624C65.0302 8.63814 64.9981 10.1814 63.9997 10.6363C63.3966 10.9114 52.9579 10.881 52.42 10.6028C51.4492 10.1006 51.4492 8.60268 52.42 8.10047C52.9886 7.80632 63.5229 7.80253 64.0525 8.09624ZM64.0525 13.9325C65.0302 14.4744 64.9981 16.0177 63.9997 16.4726C63.4497 16.7234 41.348 16.7234 40.7979 16.4726C40.3798 16.282 39.9997 15.6703 39.9997 15.1879C39.9997 14.7055 40.3798 14.0937 40.7979 13.9032C41.384 13.636 63.5684 13.664 64.0525 13.9325ZM64.0525 19.7688C64.7428 20.1514 64.9729 20.9921 64.5901 21.7325C64.2349 22.4196 63.8807 22.4832 60.4076 22.4832C56.9176 22.4832 56.5518 22.4135 56.2199 21.6848C55.8789 20.9362 56.1248 20.1203 56.7961 19.773C57.3554 19.4838 63.5319 19.48 64.0525 19.7688ZM64.0525 25.6051C65.0302 26.147 64.9981 27.6902 63.9997 28.1451C63.4533 28.3942 48.6379 28.3942 48.0915 28.1451C47.6734 27.9546 47.2933 27.3428 47.2933 26.8604C47.2933 26.3781 47.6734 25.7663 48.0915 25.5757C48.6732 25.3106 63.5707 25.3379 64.0525 25.6051ZM12.2839 67.7143H15.2014V29.7786H12.2839V67.7143ZM23.9537 67.7143H26.8712V35.6148H23.9537V67.7143ZM35.6235 67.7143H38.5409V41.4511H35.6235V67.7143ZM47.2933 67.7143H50.2107V47.2874H47.2933V67.7143ZM58.9631 67.7143H61.8805V53.1237H58.9631V67.7143Z" fill="#EA5B21"/>
<path fill-rule="evenodd" clip-rule="evenodd" d="M55.9158 43.4768C54.7697 42.8416 54.991 41.3056 56.2978 40.8245C56.6806 40.6836 57.04 40.5297 57.0963 40.4824C57.1528 40.4353 47.3163 35.1447 35.2374 28.7255C12.3595 16.5675 12.8674 16.8575 12.8674 15.9582C12.8674 15.4452 13.2667 14.8423 13.7346 14.6484C14.5291 14.3193 11.4951 12.7782 42.4066 29.2123C51.1516 33.8616 58.3252 37.6489 58.3478 37.6286C58.3704 37.6083 58.3098 37.2956 58.2131 36.9339C58.0722 36.4072 58.0754 36.1838 58.2289 35.8131C58.4299 35.3279 59.0267 34.9261 59.5465 34.9261C59.978 34.9261 60.6585 35.3044 60.7833 35.6138C61.2746 36.8324 62.464 40.5708 62.464 40.8963C62.464 41.7354 62.0576 41.9933 59.3591 42.8658C56.6637 43.7374 56.4532 43.7748 55.9158 43.4768Z" fill="#EA5B21"/>
</svg>
