<svg width="80" height="80" viewBox="0 0 80 80" fill="none" xmlns="http://www.w3.org/2000/svg">
<path fill-rule="evenodd" clip-rule="evenodd" d="M0.796027 0.231111C-0.0395981 0.694236 0.00915174 -1.74498 0.00305799 39.9817C-0.00287951 82.3988 -0.0686608 79.441 0.888683 79.8375C1.21525 79.9727 7.78337 80.008 26.8726 79.9767L52.4195 79.9349L53.6727 79.5097C55.9187 78.7477 57.8777 77.3385 59.116 75.5941C60.0499 74.2781 71.4618 54.4844 72.2242 52.8577C74.4056 48.2035 74.2015 42.3869 71.6913 37.6692C69.4499 33.4567 65.1651 30.1585 60.5835 29.1188L59.3726 28.8439V20.0456C59.3726 12.7044 59.3354 11.1777 59.1485 10.8255C58.8784 10.317 48.9702 0.431424 48.4845 0.185642C47.9399 -0.0898264 1.29493 -0.0454514 0.796027 0.231111ZM46.2476 7.50564C46.2476 10.5591 46.3037 11.9966 46.4343 12.283C46.802 13.0899 47.1074 13.138 51.8648 13.138H56.2476V20.8395V28.5411L54.4113 28.7914C52.3424 29.0735 50.6535 29.59 48.8429 30.4945C45.6621 32.0838 43.6241 34.0888 41.1935 38.0208L40.9279 38.4505H26.7049C11.4238 38.4505 11.8331 38.4299 11.4085 39.2231C11.0254 39.9388 11.3856 41.062 12.1026 41.3888C12.4099 41.5289 15.8306 41.5755 25.7992 41.5755C34.2707 41.5755 39.0673 41.6302 39.034 41.7263C39.0054 41.8092 38.1382 43.3539 37.107 45.1589L35.232 48.4406L23.8545 48.4455C15.7917 48.4491 12.3776 48.5013 12.1357 48.625C11.6192 48.8892 11.2549 49.4156 11.251 49.9036C11.2462 50.5174 11.6196 51.1688 12.1026 51.3888C12.4071 51.5275 15.1782 51.5755 22.8956 51.5755C28.6063 51.5755 33.2788 51.618 33.2788 51.6697C33.2788 51.7216 32.4174 53.2664 31.3648 55.1025L29.4507 58.441L20.9638 58.4458C15.0298 58.4491 12.3745 58.503 12.1357 58.625C11.3224 59.041 11.0457 59.8677 11.4343 60.7205C11.8227 61.5731 11.8459 61.5755 19.9898 61.5755C24.1192 61.5755 27.4976 61.6017 27.4976 61.6339C27.4976 61.6661 27.3921 61.9914 27.2632 62.3567C26.954 63.233 26.9659 64.6158 27.2907 65.5711C27.6856 66.7322 29.0527 68.0363 30.236 68.3802C32.1012 68.9225 34.1171 68.353 35.2256 66.9706C35.5031 66.6244 38.8066 60.9974 42.5666 54.4661C46.3266 47.9349 49.7115 42.1191 50.0884 41.542C51.7343 39.023 54.8517 37.6367 57.7631 38.1294C60.6073 38.6108 62.8485 40.466 63.9082 43.2161C64.4123 44.5244 64.4337 47.0264 63.9518 48.3236C63.7702 48.8125 60.8979 53.9311 57.5688 59.6983C51.0737 70.9503 51.1913 70.7794 50.0782 70.5706C49.5079 70.4636 49.1609 70.1421 48.9134 69.4913C48.7784 69.136 48.8026 68.9195 49.0359 68.3978C49.1959 68.04 51.7038 63.6341 54.6091 58.6067C57.5143 53.5794 60.0552 49.1145 60.2554 48.6849C60.8274 47.4575 60.7738 45.9575 60.1124 44.6799C59.0124 42.5547 56.7079 41.6592 54.3527 42.4414C52.8151 42.9522 52.5723 43.3061 46.3545 54.0989C43.2032 59.5689 40.4848 64.3711 40.3135 64.7705C39.7151 66.1669 39.4795 67.3828 39.4795 69.0755C39.4795 71.6964 40.2581 73.9306 41.8618 75.9114L42.6526 76.888H22.8876H3.12259V40.013V3.13799H24.6851H46.2476V7.50564ZM51.7163 7.74736L53.9779 10.013H51.6752H49.3726V7.74736C49.3726 6.50127 49.391 5.48174 49.4137 5.48174C49.4363 5.48174 50.4724 6.50127 51.7163 7.74736ZM12.046 18.6686C10.3332 19.618 11.6957 22.2189 13.4801 21.406C13.9104 21.2099 14.3726 20.5002 14.3726 20.0353C14.3726 18.8553 13.0796 18.0956 12.046 18.6686ZM19.0249 18.6941C18.7907 18.8211 18.5271 19.0599 18.439 19.2244C18.0567 19.9388 18.4174 21.0624 19.1338 21.3888C19.6912 21.6427 46.6741 21.6592 47.2301 21.406C47.6604 21.2099 48.1226 20.5002 48.1226 20.0353C48.1226 19.5003 47.7732 18.9081 47.3187 18.6731C46.6613 18.3331 19.6532 18.3531 19.0249 18.6941ZM11.9937 28.6941C11.7595 28.8211 11.4959 29.0599 11.4077 29.2244C11.0167 29.9552 11.3992 31.0939 12.1387 31.3997C12.4617 31.5333 16.4454 31.5697 27.394 31.5389L42.2123 31.4974L42.5893 31.0589C43.1426 30.4156 43.109 29.5066 42.5096 28.9072L42.0529 28.4505L27.2362 28.4567C14.4649 28.4622 12.3607 28.4949 11.9937 28.6941ZM58.3848 31.8989C64.0685 32.676 68.6834 36.7667 70.1821 42.3567C70.4771 43.4564 70.5362 44.0611 70.5259 45.8724C70.5123 48.2628 70.2424 49.627 69.421 51.4575C69.1862 51.9806 66.2752 57.1255 62.9523 62.8905C55.8717 75.1745 55.7137 75.3891 53.0337 76.3619C47.9499 78.207 42.6588 74.5442 42.621 69.1536C42.6157 68.402 42.7232 67.5106 42.8906 66.9181C43.0915 66.2066 44.7624 63.1711 48.9038 55.9949C52.0581 50.5291 54.7973 45.8924 54.9909 45.6913C55.2531 45.4189 55.5146 45.3255 56.0157 45.3255C57.2323 45.3255 57.8504 46.5331 57.2393 47.7161C57.0973 47.9911 54.5245 52.4692 51.522 57.6677C45.387 68.2897 45.3849 68.2942 45.8234 70.0714C46.2748 71.9002 47.5312 73.2025 49.2398 73.6124C50.8129 73.9897 52.6045 73.4749 53.7035 72.3294C53.9799 72.0413 56.9877 66.99 60.3874 61.1045C65.1292 52.8958 66.6627 50.1125 66.9721 49.1536C68.6238 44.0356 66.2256 38.4152 61.3788 36.0458C57.0431 33.9261 52.3073 34.7188 48.9038 38.1336L47.5757 39.4661L40.3373 52.0442C36.356 58.9622 32.8921 64.8158 32.6395 65.052C32.1234 65.5349 31.6049 65.5938 30.932 65.2458C30.1299 64.8309 29.9337 64.0216 30.4096 63.0911C31.1101 61.722 44.7962 38.12 45.2417 37.513C45.9481 36.5505 47.7148 34.8545 48.712 34.1819C51.542 32.2725 55.0546 31.4435 58.3848 31.8989Z" fill="#EA5B21"/>
</svg>
