<svg width="80" height="80" viewBox="0 0 80 80" fill="none" xmlns="http://www.w3.org/2000/svg">
<path fill-rule="evenodd" clip-rule="evenodd" d="M40.6369 0.307537C39.995 0.381862 39.2296 0.521767 38.9363 0.618421C38.2233 0.853575 37.307 1.70222 36.9808 2.4297C36.8352 2.75479 36.5244 4.45286 36.2903 6.20325L35.8648 9.38579L34.3018 10.0522C33.4421 10.4188 32.6764 10.6804 32.6001 10.6337C32.5238 10.587 31.3633 9.70588 30.0211 8.67548C28.6789 7.64524 27.337 6.69947 27.0393 6.57393C26.6879 6.42591 26.156 6.36751 25.5244 6.40764C24.7143 6.45917 24.4118 6.56566 23.7213 7.04284C21.7389 8.41285 18.9135 11.2355 17.5399 13.2182C17.062 13.9082 16.9554 14.21 16.9038 15.0195C16.8636 15.6505 16.9221 16.1818 17.0702 16.5328C17.1959 16.8303 18.1641 18.198 19.2216 19.572C20.2793 20.9461 21.1449 22.1456 21.1454 22.2376C21.1463 22.4307 20.0097 25.142 19.8634 25.2961C19.8096 25.3527 18.3407 25.5799 16.5993 25.801C14.4068 26.0794 13.2486 26.297 12.8332 26.5086C12.0931 26.8858 11.3351 27.7278 11.1127 28.4198C10.4744 30.406 10.4744 36.5318 11.1127 38.518C11.3326 39.2024 12.0907 40.0507 12.8102 40.4173C13.1914 40.6117 14.4279 40.8467 16.458 41.1108C18.1472 41.3306 19.6213 41.5104 19.7337 41.5104C19.8462 41.5104 20.0683 41.8793 20.2274 42.3301C20.3864 42.7809 20.6841 43.4862 20.8891 43.8973C21.094 44.3086 21.2139 44.7222 21.1554 44.8167C21.0969 44.9112 20.2054 46.0854 19.1739 47.4262C18.1426 48.767 17.2054 50.0847 17.0913 50.3545C16.9625 50.6592 16.709 50.9059 16.4224 51.0058C15.9705 51.1631 15.9516 51.1482 15.541 50.3096C15.0324 49.2711 14.0145 48.4683 12.8882 48.2175C12.3786 48.1042 10.5019 48.0616 7.4957 48.095C3.11873 48.1438 2.85301 48.1637 2.25953 48.4841C1.42862 48.9328 0.707274 49.7065 0.318078 50.5667C0.00859671 51.2502 0 51.5462 0 61.4188C0 71.2914 0.00859671 71.5874 0.318078 72.2708C0.707274 73.131 1.42862 73.9047 2.25953 74.3535C2.85301 74.6739 3.11873 74.6937 7.4957 74.7426C12.6578 74.8001 13.2883 74.7248 14.3914 73.9185C15.1443 73.3681 15.9361 72.0675 15.9361 71.3814C15.9361 71.1552 16.0293 71.0217 16.187 71.0217C16.325 71.0217 22.7433 73.0417 30.4497 75.5108L44.4615 80L45.9464 79.9891C47.0965 79.9806 47.6334 79.8991 48.3277 79.6274C49.0425 79.3478 52.2097 76.889 63.9581 67.493C74.1502 59.3418 78.8472 55.4911 79.1956 55.0011C81.1968 52.1867 79.2402 48.3807 75.7923 48.3807C74.8554 48.3807 74.1831 48.6287 72.4399 49.6175L71.0332 50.4153L70.7987 50.0686C70.6697 49.878 69.7004 48.5985 68.6444 47.2256C67.5884 45.8526 66.7584 44.6549 66.8 44.5641C66.8414 44.4734 67.142 43.7601 67.4677 42.979L68.0601 41.5592L71.3226 41.1386C75.253 40.632 75.7237 40.4408 76.659 38.9705C77.2547 38.0343 77.5482 33.3334 77.1976 30.346C76.9871 28.5519 76.8166 28.0257 76.2285 27.3566C75.4089 26.4241 74.8417 26.2435 71.2917 25.7843L68.0232 25.3614L67.7459 24.5746C67.5935 24.1419 67.3036 23.4564 67.1018 23.0514C66.8999 22.6464 66.7348 22.2883 66.7348 22.2557C66.7348 22.2231 67.6403 21.019 68.7467 19.58C71.116 16.4993 71.4419 15.6932 70.9347 14.1693C70.3814 12.5073 65.3249 7.35356 63.4965 6.5883C62.7525 6.27695 61.4713 6.32441 60.7274 6.69089C60.3779 6.86296 59.0168 7.83824 57.7026 8.85786L55.3135 10.7119L53.7058 10.0674L52.0981 9.42264L51.6765 6.17077C51.3892 3.95461 51.1593 2.73153 50.9545 2.33055C50.5825 1.60198 49.7374 0.844518 49.0469 0.620607C47.6692 0.173721 43.2241 0.00836398 40.6369 0.307537ZM47.6392 3.08629C48.0115 3.15858 48.3812 3.28256 48.4606 3.36188C48.54 3.4412 48.8182 5.15349 49.0789 7.16697C49.4323 9.89638 49.625 10.9272 49.8363 11.2183C50.0222 11.4744 50.5711 11.7715 51.4327 12.0822C52.1548 12.3427 53.3211 12.826 54.0245 13.1559C54.8929 13.5633 55.4195 13.7247 55.6657 13.659C55.865 13.6058 57.3535 12.5429 58.9734 11.2972C60.5935 10.0514 62.0487 9.03227 62.2075 9.03227C63.0932 9.03227 68.4541 14.3815 68.4541 15.2653C68.4541 15.4233 67.433 16.8785 66.1849 18.4992C64.9368 20.1198 63.8729 21.6086 63.8207 21.8077C63.7574 22.0494 63.9127 22.5686 64.2882 23.3692C64.5975 24.0289 65.0811 25.1936 65.3629 25.9573C65.7038 26.8813 66.0058 27.4386 66.2659 27.623C66.5513 27.8255 67.6468 28.0287 70.3284 28.3766C73.1472 28.7423 74.0433 28.912 74.186 29.107C74.7751 29.9119 74.7763 37.0296 74.1875 37.8263C74.0475 38.0157 73.1159 38.1904 70.3298 38.5499C67.5799 38.9045 66.5585 39.095 66.2659 39.3078C66.0089 39.4945 65.6998 40.0674 65.3629 40.9806C65.0811 41.7443 64.5975 42.9089 64.2882 43.5687C63.9127 44.3692 63.7574 44.8884 63.8207 45.1301C63.8729 45.3292 64.9368 46.818 66.1849 48.4386C67.433 50.0593 68.4537 51.4997 68.453 51.6396C68.4524 51.8081 67.2786 52.5534 64.979 53.8458C63.0689 54.9193 61.4341 55.8166 61.3461 55.8399C61.2581 55.8632 61.0142 55.5574 60.8042 55.1605C60.3925 54.382 59.3549 53.4923 58.5564 53.2324C58.2833 53.1437 51.2725 51.9666 42.9766 50.6167C28.6472 48.2852 27.7878 48.1629 25.7832 48.1727C24.1553 48.1807 23.4331 48.2539 22.6226 48.4938C22.0154 48.6735 21.6157 48.7317 21.6756 48.6318C21.7325 48.5365 22.3283 47.7366 22.9996 46.8541C23.6709 45.9714 24.2202 45.1179 24.2202 44.9574C24.2202 44.797 23.9607 44.12 23.6437 43.4531C23.3268 42.7862 22.8519 41.644 22.5887 40.9151C22.2736 40.0424 21.9766 39.4931 21.7193 39.3067C21.428 39.0956 20.3956 38.9031 17.6614 38.5497C15.4805 38.2679 13.9127 37.9946 13.7933 37.8753C13.6724 37.7545 13.5192 36.8496 13.4077 35.5967C13.1958 33.2164 13.4202 29.4354 13.7957 29.0603C13.9238 28.9323 15.4065 28.6707 17.6661 28.3778C20.3431 28.0307 21.4338 27.8283 21.7193 27.6255C21.9782 27.4417 22.2702 26.9054 22.5842 26.0364C22.8449 25.315 23.3286 24.1499 23.6589 23.4472C24.0667 22.5797 24.2283 22.0536 24.1625 21.8077C24.1092 21.6086 23.0453 20.1217 21.7983 18.5034C20.5513 16.8849 19.5311 15.4312 19.5311 15.2726C19.5311 14.3877 24.8857 9.03227 25.7704 9.03227C25.9286 9.03227 27.3853 10.0524 29.0076 11.2992C30.6299 12.546 32.1203 13.6089 32.3195 13.661C32.5637 13.7249 33.0995 13.56 33.9607 13.1559C34.6641 12.826 35.8304 12.3427 36.5526 12.0822C37.4213 11.7689 37.9598 11.4766 38.144 11.2183C38.3458 10.9354 38.5343 9.94744 38.8294 7.62697C39.359 3.46384 39.3657 3.43059 39.723 3.23946C40.4928 2.82787 45.7796 2.72559 47.6392 3.08629ZM42.6334 12.3931C41.156 12.8663 40.8478 13.298 33.1108 25.7397C28.957 32.4193 25.7498 37.7382 25.5788 38.2313C24.8054 40.4611 26.0138 43.0198 28.2317 43.8488C29.0834 44.167 29.2697 44.1703 44.2801 44.1287L59.4667 44.0867L60.3038 43.6236C61.8977 42.7416 62.758 41.1525 62.6318 39.3231C62.5932 38.7642 62.4383 38.0616 62.2873 37.7616C61.6215 36.4385 47.5349 13.9493 47.0709 13.4687C45.9708 12.3291 44.185 11.8963 42.6334 12.3931ZM45.1649 15.392C45.3798 15.6324 48.7911 21.0278 52.7456 27.3816C59.5852 38.3709 59.9356 38.97 59.9356 39.6727C59.9356 40.2987 59.8577 40.4892 59.4246 40.9218L58.9137 41.4323L44.185 41.4721C29.6303 41.5114 29.4503 41.5082 28.939 41.1954C28.3108 40.8111 27.9126 39.948 28.0581 39.2861C28.1154 39.0253 31.4219 33.5695 35.4059 27.1621C40.6316 18.7574 42.793 15.4109 43.1647 15.1483C43.8296 14.6785 44.6124 14.7739 45.1649 15.392ZM43.0478 19.2527L42.664 19.6359V25.3525C42.664 31.1886 42.6925 31.4941 43.2757 31.9415C43.703 32.2692 44.5159 32.1796 44.9375 31.7583L45.3212 31.3752V25.5055V19.6359L44.9375 19.2527C44.6727 18.9881 44.3801 18.8694 43.9926 18.8694C43.6051 18.8694 43.3125 18.9881 43.0478 19.2527ZM43.1209 35.2525C42.7011 35.672 42.664 35.7995 42.664 36.826C42.664 37.8525 42.7011 37.9801 43.1209 38.3995C43.6875 38.9655 44.21 38.9814 44.8402 38.4516C45.3013 38.0641 45.321 37.9979 45.3162 36.8512C45.311 35.6123 45.1887 35.2967 44.5891 34.9777C44.0386 34.685 43.6086 34.7654 43.1209 35.2525ZM12.8758 51.1795L13.2789 51.5581V61.4321V71.3062L12.79 71.7172L12.3011 72.1283L7.8527 72.0824L3.40429 72.0366L3.02729 71.5985L2.65029 71.1603L2.65263 61.5272C2.65435 54.1139 2.70015 51.8047 2.85098 51.5067C3.23174 50.7551 3.50167 50.7169 8.14764 50.7605L12.4727 50.801L12.8758 51.1795ZM42.4685 53.2813C50.7427 54.6162 57.6498 55.7817 57.8174 55.8713C58.6836 56.3344 58.8821 57.5881 58.1975 58.272L57.788 58.6811L44.5073 58.7228L31.2267 58.7643L30.8495 59.2025C30.3676 59.7623 30.3675 60.4207 30.8492 60.9806L31.2262 61.4188L34.0644 61.4678L36.9027 61.5168L40.8951 63.998C45.3199 66.7475 45.9303 67.0016 47.3008 66.6626C47.7214 66.5586 49.9976 65.3836 52.433 64.0133C55.8121 62.1121 57.0201 61.509 57.7333 61.3679C58.8802 61.1409 59.8384 60.5919 60.463 59.8041C60.845 59.3222 62.385 58.386 68.0881 55.1685C72.0185 52.9511 75.3975 51.1056 75.5968 51.0675C76.146 50.9626 76.8805 51.3359 77.1503 51.8568C77.4821 52.4979 77.3147 53.215 76.6976 53.796C75.6677 54.7658 47.8846 76.8894 47.4644 77.0743C47.2248 77.1799 46.6621 77.3076 46.214 77.3585C45.4573 77.4442 44.4042 77.1322 31.4102 72.973C23.7161 70.5103 17.1045 68.4481 16.7176 68.3903L16.0143 68.2853V61.2033V54.1212L19.2185 52.7292C23.2966 50.9574 24.1968 50.7109 26.2521 50.8022C26.8969 50.8308 34.1942 51.9464 42.4685 53.2813ZM6.14477 53.5322C5.29432 53.875 5.05127 55.0092 5.69117 55.6485C6.05708 56.0142 6.16384 56.0318 8.00838 56.0318C9.8276 56.0318 9.96217 56.0104 10.282 55.6705C10.8042 55.1149 10.7424 54.2872 10.1408 53.7816C9.69036 53.4028 9.55969 53.378 8.0698 53.3872C7.19528 53.3926 6.32905 53.4579 6.14477 53.5322ZM51.1044 61.6586C49.8956 62.4682 46.8573 63.9952 46.4555 63.9952C46.1187 63.9952 45.357 63.6118 43.9732 62.746L41.9771 61.4969L46.6579 61.4992C49.8478 61.5009 51.2642 61.5517 51.1044 61.6586ZM5.78886 67.079C5.6049 67.2292 5.41249 67.6126 5.36153 67.9306C5.2815 68.4306 5.3334 68.5733 5.7451 68.9846C6.21604 69.4551 6.23917 69.4602 7.88474 69.4602C9.54406 69.4602 10.0444 69.3397 10.4214 68.8492C10.716 68.4658 10.656 67.6721 10.2978 67.2172C9.97921 66.8125 9.94232 66.8058 8.0487 66.8058C6.4469 66.8058 6.0674 66.8517 5.78886 67.079Z" fill="#EA5B21"/>
</svg>
