<svg style="display: none;" aria-hidden="true" xmlns="http://www.w3.org/2000/svg" xmlns:xlink="http://www.w3.org/1999/xlink"><symbol viewBox="0 0 17 8" id="svg-arrow-left"><path fill-rule="evenodd" clip-rule="evenodd" d="M3.32843 0.464806L0.146446 3.64679C-0.0488167 3.84205 -0.0488167 4.15863 0.146446 4.35389L3.32843 7.53587C3.52369 7.73114 3.84027 7.73114 4.03553 7.53587C4.2308 7.34061 4.2308 7.02403 4.03553 6.82877L1.70711 4.50034H16.5C16.7761 4.50034 17 4.27648 17 4.00034C17 3.7242 16.7761 3.50034 16.5 3.50034H1.70711L4.03553 1.17191C4.2308 0.976651 4.2308 0.660068 4.03553 0.464806C3.84027 0.269544 3.52369 0.269544 3.32843 0.464806Z"/></symbol><symbol viewBox="0 0 18 8" id="svg-arrow-right"><path d="M17.3536 4.35355C17.5488 4.15829 17.5488 3.84171 17.3536 3.64645L14.1716 0.464466C13.9763 0.269204 13.6597 0.269204 13.4645 0.464466C13.2692 0.659728 13.2692 0.976311 13.4645 1.17157L16.2929 4L13.4645 6.82843C13.2692 7.02369 13.2692 7.34027 13.4645 7.53553C13.6597 7.7308 13.9763 7.7308 14.1716 7.53553L17.3536 4.35355ZM1 3.5C0.723858 3.5 0.5 3.72386 0.5 4C0.5 4.27614 0.723858 4.5 1 4.5V3.5ZM17 3.5H1V4.5H17V3.5Z"/></symbol><symbol viewBox="0 0 24 24" id="svg-close"><path transform="rotate(45 4.93 2.1)" d="M4.929 2.101H28.929000000000002V6.101H4.929z"/><path transform="rotate(-45 2.1 19.071)" d="M2.101 19.071H26.101V23.071H2.101z"/></symbol><symbol viewBox="0 0 48 48" id="svg-demo"><path fill-rule="evenodd" clip-rule="evenodd" d="M9.94912 4.08822C9.10881 4.35539 8.56728 4.82087 8.21151 5.58142L7.99217 6.05042L7.97119 18.342L7.95022 30.6336H8.61699H9.28376L9.2872 18.5765C9.29088 5.76949 9.27945 6.1747 9.64814 5.76065C9.72759 5.67139 9.93346 5.53382 10.1057 5.45487C10.4057 5.3173 10.9868 5.31128 24 5.31128C37.0131 5.31128 37.5943 5.3173 37.8943 5.45487C38.0665 5.53382 38.2724 5.67139 38.3519 5.76065C38.7205 6.1747 38.7091 5.76949 38.7128 18.5765L38.7162 30.6336H39.383H40.0498L40.0288 18.342L40.0078 6.05042L39.7865 5.57227C39.5111 4.97696 39.0524 4.52141 38.4423 4.23704L37.9726 4.0181L24.1174 4.00333C13.0775 3.9916 10.1986 4.0088 9.94912 4.08822ZM10.6145 7.30107V7.96548H11.2798H11.9452V7.30107V6.63666H11.2798H10.6145V7.30107ZM13.331 6.68591C13.3007 6.71616 13.2759 7.01639 13.2759 7.35321V7.96548H13.9836H14.6913L14.6685 7.32061L14.6458 6.67574L14.016 6.65331C13.6695 6.64096 13.3613 6.65558 13.331 6.68591ZM16.0157 7.30107V7.96548H16.681H17.3464V7.30107V6.63666H16.681H16.0157V7.30107ZM6.07217 9.40053C5.23061 9.58156 4.59225 10.1048 4.2036 10.9322L4 11.3657V23.3267V35.2878L4.2573 35.8096C4.56477 36.4334 5.04658 36.886 5.67147 37.1384L6.1135 37.3168L12.9299 37.3559L19.7463 37.395L18.9573 40.0135L18.1683 42.6321L17.4051 42.6544L16.6419 42.6768V43.3384V44H24H31.3581V43.3384V42.6768L30.5949 42.6544L29.8317 42.6321L29.0427 40.0135L28.2537 37.395L35.0701 37.3559L41.8865 37.3168L42.3285 37.1384C42.9534 36.886 43.4352 36.4334 43.7427 35.8096L44 35.2878V23.3267V11.3657L43.7937 10.9264C43.4181 10.1264 42.7045 9.53529 41.9648 9.41132C41.7926 9.3824 41.5886 9.34152 41.5115 9.32033C41.3834 9.28508 41.3734 9.34058 41.3941 9.96895L41.4168 10.6562L41.6812 10.71C42.0568 10.7864 42.329 11.0092 42.5323 11.4063L42.7084 11.7506V21.8565V31.9624H24H5.29159V21.8565V11.7506L5.46771 11.4063C5.671 11.0092 5.94317 10.7864 6.31883 10.71L6.58317 10.6562L6.60579 9.97521C6.61824 9.60071 6.60063 9.29727 6.56665 9.30087C6.53268 9.30447 6.31022 9.34933 6.07217 9.40053ZM10.6669 9.34621C10.638 9.37497 10.6145 9.67403 10.6145 10.0109V10.6231H24.0031H37.3919L37.3691 9.97826L37.3464 9.33339L24.0329 9.31361C16.7104 9.30275 10.6957 9.31744 10.6669 9.34621ZM11.6415 12.0398C11.2573 12.1534 11.0321 12.3213 10.8312 12.644C10.6568 12.924 10.6536 12.9712 10.6536 15.3131C10.6536 17.8679 10.664 17.9428 11.0709 18.3105C11.4363 18.6408 11.6963 18.6672 14.6067 18.6704C16.393 18.6723 17.496 18.6427 17.695 18.5875C18.1 18.4753 18.4842 18.0831 18.5962 17.6676C18.6567 17.4436 18.6781 16.6151 18.662 15.132C18.6386 12.9899 18.633 12.921 18.4579 12.6398C18.3588 12.4808 18.1475 12.2698 17.9883 12.1708C17.7009 11.9924 17.6762 11.991 14.8023 11.9763C13.0532 11.9674 11.8013 11.9926 11.6415 12.0398ZM21.0351 12.0303C20.7244 12.1035 20.4332 12.3067 20.2084 12.6072C20.0553 12.8119 20.0457 12.9421 20.0225 15.1428C20.0067 16.6403 20.0279 17.564 20.0822 17.7485C20.1847 18.0967 20.6044 18.4806 21.0038 18.5914C21.4009 18.7015 26.5991 18.7015 26.9962 18.5914C27.3956 18.4806 27.8153 18.0967 27.9178 17.7485C27.9721 17.564 27.9933 16.6403 27.9775 15.1428C27.9543 12.9421 27.9447 12.8119 27.7916 12.6072C27.5584 12.2956 27.2798 12.108 26.9294 12.0268C26.5548 11.9401 21.4049 11.9431 21.0351 12.0303ZM30.378 12.0228C30.0281 12.1092 29.7393 12.3232 29.5396 12.644C29.3677 12.9199 29.3613 12.9994 29.338 15.132C29.3219 16.6151 29.3433 17.4436 29.4038 17.6676C29.5158 18.0831 29.9 18.4753 30.305 18.5875C30.504 18.6427 31.607 18.6723 33.3933 18.6704C36.3037 18.6672 36.5637 18.6408 36.9291 18.3105C37.336 17.9427 37.3464 17.8684 37.3464 15.3074V12.9176L37.1381 12.6033C36.7372 11.9984 36.7043 11.9928 33.4716 11.9777C31.9002 11.9704 30.5081 11.9906 30.378 12.0228ZM17.3072 15.3131V17.3063H14.6458H11.9843L11.9634 15.3927C11.9518 14.3402 11.9597 13.4341 11.9808 13.3789C12.0114 13.2995 12.5699 13.283 14.6633 13.2993L17.3072 13.3199V15.3131ZM26.6614 15.3131V17.3454H24H21.3386V15.3131V13.2808H24H26.6614V15.3131ZM36.0157 15.3131V17.3063H33.3542H30.6928L30.6718 15.3927C30.6602 14.3402 30.6681 13.4341 30.6892 13.3789C30.7198 13.2995 31.2784 13.283 33.3717 13.2993L36.0157 13.3199V15.3131ZM11.4325 20.113C11.12 20.249 10.7973 20.6386 10.6962 21.0021C10.5899 21.3843 10.5899 25.2659 10.6962 25.6481C10.7998 26.0207 11.124 26.4046 11.4498 26.5405C11.8218 26.6958 17.4697 26.6958 17.8418 26.5405C18.1676 26.4046 18.4917 26.0207 18.5954 25.6481C18.7017 25.2659 18.7017 21.3843 18.5954 21.0021C18.4917 20.6295 18.1676 20.2456 17.8418 20.1097C17.4758 19.9569 11.7845 19.9599 11.4325 20.113ZM20.6748 20.1818C20.5001 20.2806 20.2858 20.4946 20.1868 20.669C20.0146 20.9727 20.0104 21.0362 20.0104 23.3251C20.0104 25.6079 20.015 25.6784 20.1856 25.9827C20.301 26.1888 20.4798 26.3554 20.7097 26.4713C21.0531 26.6443 21.1053 26.6472 24 26.6472C26.8947 26.6472 26.9469 26.6443 27.2903 26.4713C27.5202 26.3554 27.699 26.1888 27.8144 25.9827C27.985 25.6784 27.9896 25.6079 27.9896 23.3251C27.9896 21.0362 27.9854 20.9727 27.8132 20.669C27.7142 20.4946 27.4999 20.2806 27.3252 20.1818C27.0169 20.0074 26.9825 20.0056 24 20.0056C21.0175 20.0056 20.9831 20.0074 20.6748 20.1818ZM30.1409 20.113C29.8284 20.249 29.5058 20.6386 29.4046 21.0021C29.2983 21.3843 29.2983 25.2659 29.4046 25.6481C29.5083 26.0207 29.8324 26.4046 30.1582 26.5405C30.5303 26.6958 36.1782 26.6958 36.5502 26.5405C36.876 26.4046 37.2002 26.0207 37.3038 25.6481C37.4101 25.2659 37.4101 21.3843 37.3038 21.0021C37.2002 20.6295 36.876 20.2456 36.5502 20.1097C36.1842 19.9569 30.4929 19.9599 30.1409 20.113ZM17.3464 23.3251V25.3183H14.6458H11.9452V23.3251V21.3319H14.6458H17.3464V23.3251ZM26.6614 23.3251V25.3183H24H21.3386V23.3251V21.3319H24H26.6614V23.3251ZM36.0548 23.3251V25.3183H33.3542H30.6536V23.3251V21.3319H33.3542H36.0548V23.3251ZM11.3988 28.1518C10.7891 28.4629 10.6196 28.861 10.6164 29.9887L10.6145 30.6336H11.2767H11.9389L11.9616 29.9887L11.9843 29.3439H14.6458H17.3072L17.3299 29.9887L17.3527 30.6336H18.0149H18.6771L18.6737 29.9106C18.6686 28.8317 18.474 28.4067 17.8552 28.123C17.5695 27.992 17.2882 27.9793 14.6428 27.9777C11.7888 27.976 11.7382 27.9787 11.3988 28.1518ZM20.9162 28.0571C20.6227 28.1448 20.2521 28.495 20.1156 28.8138C20.048 28.9716 20.0078 29.3575 20.0078 29.8495V30.6336H20.6732H21.3386V29.9692V29.3048H24H26.6614V29.9692V30.6336H27.3268H27.9922V29.857C27.9922 29.4299 27.9548 28.9814 27.9091 28.8604C27.7855 28.5331 27.371 28.1411 27.0563 28.0538C26.7141 27.9589 21.2351 27.9618 20.9162 28.0571ZM30.1448 28.123C29.526 28.4067 29.3314 28.8317 29.3263 29.9106L29.3229 30.6336H29.9851H30.6473L30.6701 29.9887L30.6928 29.3439H33.3542H36.0157L36.0384 29.9887L36.0611 30.6336H36.7233H37.3855L37.3836 29.9887C37.3804 28.861 37.2109 28.4629 36.6012 28.1518C36.2618 27.9787 36.2112 27.976 33.3572 27.9777C30.7118 27.9793 30.4305 27.992 30.1448 28.123ZM42.6909 34.112C42.7098 34.797 42.6905 34.9366 42.5343 35.2408C42.3247 35.6493 42.0686 35.8542 41.6456 35.9523C41.2368 36.0469 6.76321 36.0469 6.35436 35.9523C5.93198 35.8544 5.67515 35.6492 5.46771 35.2438C5.32117 34.9574 5.29159 34.7734 5.29159 34.1476C5.29159 33.7339 5.31515 33.3719 5.34395 33.3432C5.37276 33.3145 13.7827 33.2998 24.0328 33.3106L42.6693 33.3303L42.6909 34.112ZM27.645 39.9947L28.433 42.6321L26.2164 42.6528C24.9974 42.6642 23.0026 42.6642 21.7836 42.6528L19.567 42.6321L20.355 39.9947L21.1429 37.3574H24H26.8571L27.645 39.9947Z"/></symbol><symbol viewBox="0 0 16 16" fill="none" id="svg-email"><g clip-path="url(#eclip0_2040_14466)" stroke="#000" stroke-linecap="round" stroke-linejoin="round"><path d="M7.99967 10.6666C9.47243 10.6666 10.6663 9.47268 10.6663 7.99992C10.6663 6.52716 9.47243 5.33325 7.99967 5.33325C6.52692 5.33325 5.33301 6.52716 5.33301 7.99992C5.33301 9.47268 6.52692 10.6666 7.99967 10.6666Z"/><path d="M10.6663 5.33333V8.66666C10.6663 9.19709 10.8771 9.7058 11.2521 10.0809C11.6272 10.4559 12.1359 10.6667 12.6663 10.6667C13.1968 10.6667 13.7055 10.4559 14.0806 10.0809C14.4556 9.7058 14.6663 9.19709 14.6663 8.66666V7.99999C14.6663 6.49535 14.1572 5.03498 13.2219 3.85635C12.2866 2.67772 10.98 1.85014 9.51477 1.50819C8.0495 1.16624 6.51164 1.33002 5.15125 1.9729C3.79086 2.61579 2.68795 3.69996 2.02185 5.04914C1.35576 6.39832 1.16566 7.93315 1.48246 9.40407C1.79926 10.875 2.60433 12.1955 3.76677 13.1508C4.9292 14.1062 6.38064 14.6402 7.88506 14.6661C9.38948 14.692 10.8584 14.2082 12.053 13.2933"/></g><defs><clipPath id="eclip0_2040_14466"><path fill="#fff" d="M0 0H16V16H0z"/></clipPath></defs></symbol><symbol viewBox="0 0 24 24" fill="none" id="svg-email-2"><path fill-rule="evenodd" clip-rule="evenodd" d="M12 9C10.3431 9 9 10.3431 9 12C9 13.6569 10.3431 15 12 15C13.6569 15 15 13.6569 15 12C15 10.3431 13.6569 9 12 9ZM7 12C7 9.23858 9.23858 7 12 7C14.7614 7 17 9.23858 17 12C17 14.7614 14.7614 17 12 17C9.23858 17 7 14.7614 7 12Z" fill="#fff"/><path fill-rule="evenodd" clip-rule="evenodd" d="M7.30009 2.05462C9.54474 0.993863 12.0822 0.723624 14.4999 1.28784C16.9176 1.85207 19.0734 3.21756 20.6166 5.1623C22.1599 7.10704 22.9999 9.51665 23 11.9993V12.9994C23 14.0602 22.5786 15.0777 21.8284 15.8278C21.0783 16.578 20.0609 16.9994 19 16.9994C17.9391 16.9994 16.9217 16.578 16.1716 15.8278C15.4214 15.0777 15 14.0602 15 12.9994V7.99938C15 7.4471 15.4477 6.99938 16 6.99938C16.5523 6.99938 17 7.4471 17 7.99938V12.9994C17 13.5298 17.2107 14.0385 17.5858 14.4136C17.9609 14.7887 18.4696 14.9994 19 14.9994C19.5304 14.9994 20.0392 14.7887 20.4142 14.4136C20.7893 14.0385 21 13.5298 21 12.9994V11.9994C21 11.9994 21 11.9995 21 11.9994C20.9999 9.96819 20.3126 7.99666 19.05 6.40552C17.7873 4.81437 16.0235 3.69715 14.0454 3.23551C12.0673 2.77388 9.99115 2.99498 8.15462 3.86287C6.3181 4.73077 4.82917 6.1944 3.92994 8.01579C3.03072 9.83718 2.77408 11.9092 3.20176 13.8949C3.62944 15.8807 4.71629 17.6634 6.28558 18.9531C7.85487 20.2428 9.8143 20.9638 11.8453 20.9987C13.8762 21.0336 15.8593 20.3805 17.472 19.1454C17.9105 18.8097 18.5382 18.8929 18.874 19.3314C19.2097 19.7699 19.1265 20.3975 18.688 20.7333C16.7169 22.2428 14.2932 23.0411 11.8109 22.9984C9.32859 22.9557 6.93372 22.0745 5.0157 20.4982C3.09768 18.9219 1.76932 16.7431 1.24659 14.316C0.723873 11.889 1.03754 9.35656 2.13659 7.13041C3.23565 4.90427 5.05545 3.11538 7.30009 2.05462Z" fill="#fff"/></symbol><symbol viewBox="0 0 40 40" id="svg-insta"><path d="M25.8429 7.27246H14.3506C10.4478 7.27246 7.27271 10.4237 7.27271 14.2969V25.7023C7.27271 29.5757 10.4478 32.7268 14.3506 32.7268H25.8429C29.7459 32.7268 32.9211 29.5755 32.9211 25.7023V14.2969C32.9212 10.4237 29.7459 7.27246 25.8429 7.27246ZM30.6456 25.7023C30.6456 28.3304 28.4911 30.4683 25.843 30.4683H14.3506C11.7026 30.4685 9.54835 28.3304 9.54835 25.7023V14.2969C9.54835 11.669 11.7026 9.53089 14.3506 9.53089H25.8429C28.491 9.53089 30.6454 11.669 30.6454 14.2969V25.7023H30.6456Z"/><path d="M20.0968 13.4409C16.4526 13.4409 13.4879 16.3832 13.4879 19.9998 13.4879 23.6163 16.4526 26.5585 20.0968 26.5585 23.7411 26.5585 26.7058 23.6163 26.7058 19.9998 26.7058 16.3832 23.7411 13.4409 20.0968 13.4409zM20.0968 24.2999C17.7076 24.2999 15.7636 22.3709 15.7636 19.9997 15.7636 17.6283 17.7074 15.6992 20.0968 15.6992 22.4863 15.6992 24.4301 17.6283 24.4301 19.9997 24.4301 22.3709 22.4861 24.2999 20.0968 24.2999zM26.983 11.5259C26.5446 11.5259 26.1139 11.702 25.8042 12.0107 25.4931 12.3178 25.3142 12.7454 25.3142 13.1821 25.3142 13.6173 25.4932 14.0448 25.8042 14.3534 26.1137 14.6606 26.5446 14.8382 26.983 14.8382 27.423 14.8382 27.8523 14.6606 28.1633 14.3534 28.4743 14.0448 28.6518 13.6172 28.6518 13.1821 28.6518 12.7454 28.4743 12.3178 28.1633 12.0107 27.8538 11.702 27.423 11.5259 26.983 11.5259z"/></symbol><symbol viewBox="0 0 24 24" id="svg-mail"><path fill-rule="evenodd" clip-rule="evenodd" d="M2.8125 6.18621V8.47106H1.40625H0V9.19381V9.91657H2.10938H4.21875V8.10982V6.30307L7.07812 9.14718L9.9375 11.9913L7.08984 14.8243L4.24219 17.6574L4.22991 15.862L4.21767 14.0666H2.10881H0V14.7894V15.5121H1.40625H2.8125V17.797V20.0818H13.4062H24V11.9916V3.90137H13.4062H2.8125V6.18621ZM18.0233 8.84587C13.9333 12.9167 14.2043 12.691 13.4062 12.691C12.6082 12.691 12.8792 12.9167 8.78916 8.84587L5.2268 5.30025H13.4062H21.5857L18.0233 8.84587ZM22.5938 12.0031V17.6801L19.7344 14.836L16.875 11.9919L19.7225 9.15898C21.2887 7.6009 22.5754 6.3261 22.5819 6.3261C22.5884 6.3261 22.5938 8.88074 22.5938 12.0031ZM0 11.9916V12.7143H2.8125H5.625V11.9916V11.2688H2.8125H0V11.9916ZM11.4864 13.4737C11.7782 13.7048 12.3349 13.96 12.7279 14.0428C13.8065 14.27 14.839 13.9605 15.7042 13.1505L15.8693 12.9959L18.7275 15.8394L21.5857 18.6829H13.4062H5.22684L8.08505 15.8394L10.9432 12.9959L11.1083 13.1505C11.1991 13.2355 11.3693 13.381 11.4864 13.4737Z"/></symbol><symbol viewBox="0 0 24 24" fill="none" id="svg-map-pin"><path d="M21 10C21 17 12 23 12 23C12 23 3 17 3 10C3 7.61305 3.94821 5.32387 5.63604 3.63604C7.32387 1.94821 9.61305 1 12 1C14.3869 1 16.6761 1.94821 18.364 3.63604C20.0518 5.32387 21 7.61305 21 10Z" fill="red"/><path d="M12 13C13.6569 13 15 11.6569 15 10C15 8.34315 13.6569 7 12 7C10.3431 7 9 8.34315 9 10C9 11.6569 10.3431 13 12 13Z" fill="#fff"/></symbol><symbol viewBox="0 0 16 16" fill="none" id="svg-map-pin-2"><path d="M14 6.6665C14 11.3332 8 15.3332 8 15.3332C8 15.3332 2 11.3332 2 6.6665C2 5.07521 2.63214 3.54908 3.75736 2.42386C4.88258 1.29864 6.4087 0.666504 8 0.666504C9.5913 0.666504 11.1174 1.29864 12.2426 2.42386C13.3679 3.54908 14 5.07521 14 6.6665Z" stroke="#000" stroke-linecap="round" stroke-linejoin="round"/><path d="M8 8.6665C9.10457 8.6665 10 7.77107 10 6.6665C10 5.56193 9.10457 4.6665 8 4.6665C6.89543 4.6665 6 5.56193 6 6.6665C6 7.77107 6.89543 8.6665 8 8.6665Z" stroke="#000" stroke-linecap="round" stroke-linejoin="round"/></symbol><symbol viewBox="0 0 16 16" fill="none" id="svg-phone"><g clip-path="url(#kclip0_2040_14464)"><path d="M14.6669 11.28V13.28C14.6677 13.4657 14.6297 13.6494 14.5553 13.8195C14.4809 13.9897 14.3718 14.1424 14.235 14.2679C14.0982 14.3934 13.9367 14.489 13.7608 14.5485C13.5849 14.6079 13.3985 14.63 13.2136 14.6133C11.1622 14.3904 9.19161 13.6894 7.46028 12.5667C5.8495 11.5431 4.48384 10.1774 3.46028 8.56665C2.3336 6.82745 1.63244 4.84731 1.41361 2.78665C1.39695 2.60229 1.41886 2.41649 1.47795 2.24107C1.53703 2.06564 1.63199 1.90444 1.75679 1.76773C1.88159 1.63102 2.03348 1.52179 2.20281 1.447C2.37213 1.37221 2.55517 1.33349 2.74028 1.33332H4.74028C5.06382 1.33013 5.37748 1.4447 5.62279 1.65567C5.8681 1.86664 6.02833 2.15961 6.07361 2.47998C6.15803 3.12003 6.31458 3.74847 6.54028 4.35332C6.62998 4.59193 6.64939 4.85126 6.59622 5.10057C6.54305 5.34988 6.41952 5.57872 6.24028 5.75998L5.39361 6.60665C6.34265 8.27568 7.72458 9.65761 9.39361 10.6067L10.2403 9.75998C10.4215 9.58074 10.6504 9.45722 10.8997 9.40405C11.149 9.35088 11.4083 9.37029 11.6469 9.45998C12.2518 9.68568 12.8802 9.84224 13.5203 9.92665C13.8441 9.97234 14.1399 10.1355 14.3513 10.385C14.5627 10.6345 14.6751 10.953 14.6669 11.28Z" stroke="#000" stroke-linecap="round" stroke-linejoin="round"/></g><defs><clipPath id="kclip0_2040_14464"><path fill="#fff" d="M0 0H16V16H0z"/></clipPath></defs></symbol><symbol viewBox="0 0 24 24" fill="none" id="svg-phone-3"><path d="M22.0004 16.9201V19.9201C22.0016 20.1986 21.9445 20.4743 21.8329 20.7294C21.7214 20.9846 21.5577 21.2137 21.3525 21.402C21.1473 21.5902 20.905 21.7336 20.6412 21.8228C20.3773 21.912 20.0978 21.9452 19.8204 21.9201C16.7433 21.5857 13.7874 20.5342 11.1904 18.8501C8.77425 17.3148 6.72576 15.2663 5.19042 12.8501C3.5004 10.2413 2.44866 7.27109 2.12042 4.1801C2.09543 3.90356 2.1283 3.62486 2.21692 3.36172C2.30555 3.09859 2.44799 2.85679 2.63519 2.65172C2.82238 2.44665 3.05023 2.28281 3.30421 2.17062C3.5582 2.05843 3.83276 2.00036 4.11042 2.0001H7.11042C7.59573 1.99532 8.06621 2.16718 8.43418 2.48363C8.80215 2.80008 9.0425 3.23954 9.11042 3.7201C9.23704 4.68016 9.47187 5.62282 9.81042 6.5301C9.94497 6.88802 9.97408 7.27701 9.89433 7.65098C9.81457 8.02494 9.62928 8.36821 9.36042 8.6401L8.09042 9.9101C9.51398 12.4136 11.5869 14.4865 14.0904 15.9101L15.3604 14.6401C15.6323 14.3712 15.9756 14.1859 16.3495 14.1062C16.7235 14.0264 17.1125 14.0556 17.4704 14.1901C18.3777 14.5286 19.3204 14.7635 20.2804 14.8901C20.7662 14.9586 21.2098 15.2033 21.527 15.5776C21.8441 15.9519 22.0126 16.4297 22.0004 16.9201Z" stroke="#fff" stroke-width="2" stroke-linecap="round" stroke-linejoin="round"/></symbol><symbol viewBox="0 0 24 24" id="svg-phone2"><path fill-rule="evenodd" clip-rule="evenodd" d="M7.99799 21.9597C8.45122 21.8521 8.94694 21.5601 9.23752 21.2295C9.59677 20.8207 9.74954 20.4489 9.84764 19.7444C9.93123 19.1444 10.0092 18.766 10.1907 18.0804C10.4235 17.2007 10.3917 16.6845 10.0656 16.0563C9.96886 15.8699 9.73812 15.6053 9.16368 15.0217L8.39179 14.2376L8.51135 14.0201C8.70708 13.6641 9.31866 12.7433 9.61215 12.3627C10.7465 10.8919 12.1429 9.64199 13.7102 8.69452L14.2136 8.39014L14.969 9.14004C15.3845 9.55247 15.8065 9.94094 15.9068 10.0033C16.2328 10.2061 16.6114 10.3235 17.0163 10.3475C17.3663 10.3682 17.4483 10.3555 18.2456 10.157C18.7154 10.0401 19.3547 9.90717 19.6663 9.86168C20.3039 9.76853 20.5851 9.677 20.9406 9.44683C21.423 9.13461 21.8079 8.55788 21.9334 7.95969C22.0222 7.53579 22.0222 4.29355 21.9334 3.86965C21.7537 3.01258 21.1171 2.32524 20.2667 2.06999C19.321 1.7862 16.2478 2.39716 13.9326 3.32927C12.7737 3.79578 11.1947 4.6597 10.1221 5.41393C6.83977 7.72218 4.29254 11.094 2.99576 14.8471C2.40273 16.5635 1.95255 18.8079 2.00401 19.7916C2.05818 20.8267 2.75398 21.6755 3.76443 21.9391C3.97096 21.993 4.32517 22.0029 5.92991 21.9994C6.98512 21.997 7.91578 21.9792 7.99799 21.9597ZM4.10573 20.4146C3.89345 20.3556 3.63529 20.0915 3.57662 19.8733C3.46011 19.4399 3.87007 17.198 4.32804 15.7641C4.82548 14.2067 5.74051 12.365 6.67104 11.0481C9.59223 6.91423 13.9512 4.27398 18.9314 3.62187C19.564 3.53907 19.7997 3.53961 19.9666 3.62429C20.156 3.72032 20.2433 3.80563 20.3336 3.98275C20.4074 4.12753 20.4125 4.25324 20.4125 5.91509C20.4125 7.47106 20.4041 7.7092 20.345 7.82614C20.1862 8.14023 20.0023 8.24061 19.4541 8.31248C18.9421 8.37959 18.4249 8.48563 17.7244 8.66702C17.1504 8.81563 17.0077 8.82185 16.7871 8.70771C16.7298 8.67807 16.1969 8.16569 15.6028 7.56909L14.5228 6.48435L14.1027 6.69516C10.8848 8.30968 8.4045 10.7715 6.76151 13.9818L6.47756 14.5366L7.56782 15.6303C8.28686 16.3517 8.67987 16.7769 8.72208 16.8792C8.81076 17.0941 8.80263 17.2548 8.68204 17.6714C8.53752 18.1707 8.38658 18.8907 8.30932 19.4496C8.27349 19.7091 8.21606 19.9757 8.18177 20.0422C8.10822 20.1846 7.88115 20.3672 7.71575 20.4169C7.53948 20.4699 4.29708 20.4679 4.10573 20.4146Z"/></symbol><symbol viewBox="0 0 24 24" id="svg-search"><path d="M17.1023 15.1739C18.1759 13.7077 18.8181 11.9068 18.8181 9.95449C18.8181 5.06723 14.8417 1.09082 9.95452 1.09082C5.06729 1.09082 1.09094 5.06723 1.09094 9.95449C1.09094 14.8418 5.06733 18.8182 9.95456 18.8182C11.9069 18.8182 13.708 18.1759 15.1741 17.1022L20.9809 22.909L22.9091 20.9807C22.9091 20.9807 17.1023 15.1739 17.1023 15.1739ZM9.95456 16.0909C6.57077 16.0909 3.81823 13.3383 3.81823 9.95449C3.81823 6.57068 6.57077 3.81812 9.95456 3.81812C13.3383 3.81812 16.0909 6.57068 16.0909 9.95449C16.0909 13.3383 13.3383 16.0909 9.95456 16.0909Z"/></symbol><symbol viewBox="0 0 80 80" fill="none" id="svg-service"><path fill-rule="evenodd" clip-rule="evenodd" d="M51.9972 0.314155C51.2449 0.711531 51.1621 0.871544 50.2335 3.72099L49.451 6.12181L48.046 6.62623C47.2732 6.90375 46.2227 7.34363 45.7117 7.60381L44.7827 8.07666L42.548 6.91297C40.2003 5.69037 39.4236 5.49958 38.5689 5.93571C38.058 6.19651 35.65 8.57654 35.3795 9.08799C34.8904 10.0131 35.0714 10.8034 36.3153 13.1755L37.4741 15.3854L36.993 16.323C36.7284 16.8386 36.2858 17.8901 36.0095 18.6597L35.5072 20.059L33.5004 20.7302L31.4937 21.4015H16.6293H1.76501L1.23407 21.7543C0.942035 21.9484 0.544846 22.4203 0.351564 22.8032C0.0460939 23.4079 0 23.7411 0 25.3462C0 26.5527 0.0739065 27.3701 0.213126 27.7034C0.486252 28.3572 1.25141 28.9995 2.03829 29.2353L2.65626 29.4204V53.6061C2.65626 70.3145 2.70767 77.928 2.82251 78.2319C3.04861 78.8305 3.72283 79.5246 4.33095 79.7848C4.74986 79.9641 8.47738 80 26.6807 80H48.5277L49.2243 79.6484C49.6832 79.4167 50.04 79.0837 50.2704 78.6718L50.62 78.0467L50.6304 63.2799L50.6408 48.5131L50.9641 49.1797C51.5461 50.3802 51.9358 50.537 54.4838 50.595C56.9865 50.6518 57.6155 50.4856 58.136 49.6299C58.2934 49.371 58.7523 48.1237 59.1557 46.8582L59.889 44.5576L60.9212 44.2191C61.4888 44.033 62.541 43.6056 63.2592 43.2692L64.5651 42.6577L66.8596 43.8275C70.0501 45.4539 70.3892 45.4219 72.5164 43.2944C74.6581 41.1526 74.6931 40.7728 73.042 37.5901L71.865 35.3215L72.3981 34.2603C72.6912 33.6769 73.1239 32.6285 73.3597 31.9306L73.7881 30.6621L76.1003 29.9312C79.8041 28.7607 79.9997 28.5344 80 25.4203C80.0005 22.2455 79.8484 22.0573 76.3341 20.8832L73.8669 20.0589L73.5903 19.1647C73.4381 18.673 73.0123 17.6367 72.644 16.8616L71.9745 15.4527L73.1975 13.0678C74.3528 10.8145 74.4144 10.6436 74.3131 9.96775C74.199 9.20738 73.3679 8.11448 71.8657 6.74983C70.3978 5.41629 69.8567 5.43816 66.9434 6.94969L64.6798 8.12416L63.3946 7.50708C62.6879 7.16752 61.6404 6.74015 61.0668 6.55716C60.1605 6.26823 60.0007 6.15932 59.846 5.72647C59.7482 5.45254 59.3537 4.3162 58.9696 3.20142C57.9288 0.181644 57.6654 -0.010246 54.5755 0.000379866C52.9008 0.00616159 52.4844 0.056947 51.9972 0.314155ZM56.7971 5.1808C57.2268 6.57044 57.719 7.87133 57.8909 8.07182C58.093 8.30777 58.6171 8.54779 59.3752 8.75203C60.0198 8.92564 61.4096 9.49146 62.4638 10.0095C63.8673 10.6992 64.4738 10.9222 64.7295 10.8425C64.9213 10.7828 66.1265 10.21 67.4075 9.56959L69.7364 8.40528L70.6706 9.33958L71.6047 10.2737L70.3337 12.6984C69.6346 14.0318 69.0628 15.314 69.0628 15.5474C69.0628 15.7809 69.3348 16.4728 69.6673 17.085C70.3048 18.2589 70.9709 19.9273 71.257 21.0679C71.3512 21.4431 71.5823 21.9001 71.7706 22.0836C71.9868 22.2944 73.0753 22.7049 74.7269 23.1985L77.3408 23.9798L77.3423 25.3202L77.3441 26.6607L74.7683 27.4809C73.3517 27.932 72.0565 28.4188 71.8903 28.5625C71.7239 28.7063 71.4064 29.432 71.1847 30.1752C70.9628 30.9182 70.3907 32.3097 69.9134 33.2673C69.2843 34.5293 69.0751 35.1035 69.1532 35.3539C69.2123 35.544 69.7823 36.7431 70.4198 38.0183L71.5787 40.3371L71.1756 40.8656C70.9539 41.1562 70.5289 41.58 70.2309 41.8072L69.6893 42.2204L67.204 40.9523C65.8371 40.2549 64.6207 39.6842 64.501 39.6842C64.3813 39.6842 63.4759 40.0938 62.4888 40.5945C61.502 41.0951 60.134 41.6559 59.4488 41.8408C58.6394 42.0591 58.094 42.3029 57.8909 42.537C57.719 42.7351 57.2277 44.0377 56.7993 45.4316L56.0201 47.9661H54.6766H53.333L52.5985 45.6613C51.484 42.1638 51.6841 42.4398 49.8514 41.8742C48.9889 41.608 47.5066 40.9956 46.5575 40.5134L44.8319 39.6364L42.1777 40.9439L39.5234 42.2513L38.6291 41.3545L37.7345 40.4579L39.0237 37.9224C39.7327 36.5279 40.3128 35.294 40.3128 35.1804C40.3127 35.0668 39.9259 34.1982 39.4534 33.25C38.9808 32.3019 38.4103 30.9182 38.1858 30.1752C37.9612 29.432 37.6803 28.7133 37.5616 28.5782C37.4428 28.443 36.1498 27.9561 34.6884 27.496L32.0314 26.6596L32.0322 25.3198L32.0329 23.9798L34.7275 23.1173C37.7831 22.1392 37.6125 22.2855 38.2789 20.0733C38.4602 19.4716 39.0053 18.1801 39.4903 17.2033L40.372 15.4271L39.0705 12.8728C37.5892 9.96556 37.5933 10.1104 38.9625 8.9883L39.6577 8.41856L42.0684 9.67523C43.3944 10.3664 44.6594 10.9319 44.8794 10.9319C45.0994 10.9319 45.9467 10.5848 46.7622 10.1607C47.5777 9.73664 48.9575 9.16831 49.8285 8.89766C51.1404 8.49013 51.4475 8.33434 51.6204 7.989C51.735 7.75976 52.1668 6.46481 52.5799 5.11111L53.3308 2.64997L54.6733 2.65216L56.0158 2.65419L56.7971 5.1808ZM53.2033 10.7162C50.4882 11.1244 48.5744 11.8192 46.6225 13.1052C43.5906 15.1027 41.417 18.1337 40.4488 21.7142C39.9473 23.5687 39.9441 27.1318 40.442 28.9574C40.8386 30.411 41.9217 32.7298 42.7155 33.8244C44.7164 36.5841 47.733 38.646 51.0939 39.5511C52.9746 40.0575 56.1977 40.0638 58.1723 39.565C63.5902 38.1961 67.7784 33.8783 69.009 28.3932C69.4181 26.5697 69.35 23.5595 68.8571 21.6815C67.2034 15.3794 61.7774 10.9992 55.2729 10.7156C54.3924 10.6772 53.4611 10.6775 53.2033 10.7162ZM57.5002 13.6959C58.8916 14.0173 60.8712 14.99 62.0585 15.9356C63.8912 17.3952 65.186 19.2363 65.984 21.517C66.3945 22.6905 66.4726 23.1668 66.5306 24.8524C66.6115 27.2081 66.2987 28.7238 65.3242 30.6991C64.3138 32.7468 62.9812 34.2008 60.8987 35.5275L60.0002 36.0997V34.6054V33.111L61.1363 31.9833C63.0409 30.0924 63.9131 28.0177 63.9181 25.3663C63.9221 23.1427 63.3534 21.4063 62.056 19.6826C60.4045 17.4882 58.6754 16.8394 57.1746 17.8509C56.1826 18.5194 56.024 19.0154 55.9638 21.6359L55.9099 23.9798L55.266 24.6443L54.6221 25.3087L53.9518 24.6508L53.2815 23.993V21.666C53.2815 19.0482 53.1452 18.5458 52.2497 17.8626C51.0674 16.9608 49.6211 17.2704 48.1636 18.7374C44.3611 22.5647 44.4921 28.6536 48.4539 32.2392L49.3752 33.0731V34.5035C49.3752 35.4025 49.3139 35.9339 49.2104 35.9339C48.8958 35.9339 47.1053 34.6199 46.2983 33.797C44.848 32.3178 43.8444 30.5672 43.2502 28.48C42.7606 26.7607 42.7606 24.0117 43.2502 22.2923C43.852 20.1784 44.8731 18.4102 46.3374 16.9458C49.2908 13.992 53.4902 12.7694 57.5002 13.6959ZM50.6261 22.1437C50.6272 24.7438 50.7482 25.1362 51.9299 26.3749C53.8769 28.4158 55.2396 28.4819 57.1816 26.6294C58.518 25.3545 58.594 25.129 58.594 22.4327C58.594 20.8135 58.6463 20.1514 58.7743 20.1514C58.8734 20.1514 59.2132 20.4317 59.5295 20.7743C60.889 22.247 61.5521 24.3686 61.2537 26.2916C60.9545 28.2211 60.2504 29.2924 57.9888 31.2601L57.344 31.8212V34.4215V37.0218L56.9143 37.142C56.3568 37.2979 53.0186 37.2979 52.4611 37.142L52.0315 37.0218V34.4215V31.8212L51.3866 31.2601C49.1203 29.2882 48.4564 28.2916 48.1191 26.3544C47.8888 25.0316 48.1128 23.599 48.7443 22.3575C49.2061 21.4496 50.2282 20.1514 50.4811 20.1514C50.5614 20.1514 50.6255 21.0326 50.6261 22.1437ZM29.3423 25.3471L29.297 26.6363L15.9766 26.6763L2.65626 26.7161V25.3871V24.058H16.0219H29.3878L29.3423 25.3471ZM33.6418 29.9594L35.4867 30.5429L35.8765 31.7022C36.0911 32.3399 36.5239 33.3895 36.8386 34.0349L37.4106 35.2081L36.2853 37.4072C35.6664 38.6165 35.1187 39.79 35.0684 40.0149C34.8792 40.8595 35.263 41.6277 36.5251 42.9311C38.8302 45.3112 39.2405 45.3634 42.4927 43.6889L44.7302 42.537L46.1724 43.2201C46.9655 43.5959 47.6942 43.9033 47.7917 43.9033C47.9227 43.9033 47.9689 48.2612 47.9689 60.6234V77.3435H41.3283H34.6876V70.7024V64.0612H35.3176C36.1258 64.0612 36.9556 63.7134 37.1894 63.2766C37.2939 63.0814 37.3301 62.7086 37.2739 62.4084C37.0773 61.3607 37.5445 61.4047 26.6332 61.4047H16.7733L16.4568 61.7563C16.0048 62.2586 15.9271 62.5781 16.1216 63.136C16.3223 63.712 17.0179 64.0612 17.9638 64.0612H18.5938V70.7024V77.3435H11.9532H5.31252V53.3572V29.3709L18.5548 29.3734L31.797 29.376L33.6418 29.9594ZM9.79441 33.4981C9.01269 33.7844 8.61316 34.1549 8.26269 34.9182C8.01456 35.4586 7.97566 35.9669 7.97566 38.6685C7.97566 41.3701 8.01456 41.8785 8.26269 42.4188C8.90972 43.8282 9.55785 44.0438 13.173 44.0527C16.8698 44.0618 17.5087 43.8844 18.2685 42.6381C18.5704 42.1429 18.5927 41.8717 18.5932 38.6921C18.594 34.8032 18.5188 34.4802 17.4485 33.7714C16.8255 33.3587 16.7965 33.3553 13.6057 33.3176C11.1635 33.2889 10.2474 33.3321 9.79441 33.4981ZM23.2487 33.4318C22.5767 33.6345 21.9348 34.1644 21.6599 34.7434C21.4499 35.186 21.4065 35.8649 21.407 38.6921C21.4074 41.8717 21.4298 42.1429 21.7316 42.6381C22.4846 43.8732 23.1384 44.0608 26.6709 44.0558C30.3598 44.0507 30.9837 43.856 31.6798 42.4938C32.0103 41.8471 32.0312 41.6172 32.0279 38.6745C32.025 35.9717 31.9853 35.4578 31.7375 34.9182C31.0803 33.4867 30.4593 33.2893 26.6407 33.2978C25.0079 33.3014 23.4815 33.3617 23.2487 33.4318ZM15.9376 38.6723V41.4106L13.3204 41.3678L10.7032 41.325L10.66 38.831C10.6361 37.4594 10.6516 36.2464 10.6941 36.1355C10.753 35.9822 11.3894 35.9339 13.3546 35.9339H15.9376V38.6723ZM29.297 38.6685V41.325L26.6798 41.3678L24.0626 41.4106V38.6685V35.9264L26.6798 35.9692L29.297 36.0121V38.6685ZM9.59707 48.2579C8.85347 48.601 8.34863 49.1869 8.11378 49.9796C8.01097 50.3267 7.96581 51.7541 7.99675 53.6818C8.04628 56.7784 8.05222 56.8272 8.46269 57.4468C9.17191 58.5175 9.49285 58.592 13.399 58.592C16.7077 58.592 16.8474 58.5795 17.356 58.2367C17.646 58.0413 18.0432 57.6441 18.2385 57.3541C18.5813 56.8455 18.5938 56.7058 18.5938 53.3967C18.5938 49.4903 18.5193 49.1694 17.4485 48.4601C16.8246 48.0468 16.8015 48.044 13.5277 48.0041C10.5811 47.9682 10.1674 47.9949 9.59707 48.2579ZM22.8501 48.2959C22.484 48.4771 22.027 48.8462 21.8345 49.1161C21.5001 49.585 21.4824 49.7672 21.4376 53.2053C21.3915 56.7498 21.3962 56.8119 21.7538 57.3425C21.9535 57.639 22.3541 58.0413 22.6441 58.2367C23.1527 58.5795 23.2924 58.592 26.6012 58.592C30.5073 58.592 30.8282 58.5175 31.5375 57.4466C31.9478 56.8272 31.9539 56.7772 32.005 53.6816C32.0593 50.3777 31.9743 49.7396 31.3797 48.9834C30.6857 48.1012 30.0884 47.9733 26.6407 47.9697C23.7729 47.9666 23.4609 47.9935 22.8501 48.2959ZM36.4639 48.1362C35.8289 48.3202 34.8883 49.3674 34.765 50.0273C34.7119 50.3118 34.6903 51.9916 34.717 53.7605L34.7658 56.9766L35.2036 57.5501C35.9692 58.5531 36.1484 58.592 40.0002 58.592C43.8519 58.592 44.0311 58.5531 44.7967 57.5501L45.2346 56.9766L45.2833 53.7605C45.31 51.9916 45.2885 50.3118 45.2353 50.0273C45.1042 49.3256 44.1683 48.3227 43.4614 48.1263C42.7617 47.9321 37.1409 47.9399 36.4639 48.1362ZM15.9376 53.2791V55.9355H13.2813H10.625V53.2791V50.6226H13.2813H15.9376V53.2791ZM29.3751 53.2791V55.9355H26.7189H24.0626V53.2791V50.6226H26.7189H29.3751V53.2791ZM42.6564 53.2791V55.9355H40.0002H37.3439V53.2791V50.6226H40.0002H42.6564V53.2791ZM32.0314 70.7024V77.3435H26.7189H21.4063V70.7024V64.0612H26.7189H32.0314V70.7024Z" fill="#EA5B21"/></symbol><symbol viewBox="0 0 62 16" id="svg-slider-left"><path fill-rule="evenodd" clip-rule="evenodd" d="M0.292893 8.70712C-0.0976311 8.31659 -0.0976311 7.68343 0.292893 7.2929L6.65685 0.928941C7.04738 0.538416 7.68054 0.538416 8.07107 0.928941C8.46159 1.31947 8.46159 1.95263 8.07107 2.34315L3.41421 7.00001H61C61.5523 7.00001 62 7.44772 62 8.00001C62 8.55229 61.5523 9.00001 61 9.00001H3.41421L8.07107 13.6569C8.46159 14.0474 8.46159 14.6806 8.07107 15.0711C7.68054 15.4616 7.04738 15.4616 6.65685 15.0711L0.292893 8.70712Z"/></symbol><symbol viewBox="0 0 62 16" id="svg-slider-right"><path fill-rule="evenodd" clip-rule="evenodd" d="M55.3431 0.928941L61.7071 7.2929C62.0976 7.68343 62.0976 8.31659 61.7071 8.70712L55.3431 15.0711C54.9526 15.4616 54.3195 15.4616 53.9289 15.0711C53.5384 14.6806 53.5384 14.0474 53.9289 13.6569L58.5858 9.00001H1C0.447715 9.00001 0 8.55229 0 8.00001C0 7.44772 0.447715 7.00001 1 7.00001H58.5858L53.9289 2.34315C53.5384 1.95263 53.5384 1.31947 53.9289 0.928941C54.3195 0.538416 54.9526 0.538416 55.3431 0.928941Z"/></symbol><symbol viewBox="0 0 16 16" id="svg-star"><path d="M8 1L10.4721 5.93769L16 6.72949L12 10.5729L12.9443 16L8 13.4377L3.05573 16L4 10.5729L0 6.72949L5.52786 5.93769L8 1Z"/></symbol><symbol viewBox="0 0 40 40" id="svg-tg"><path d="M5.96842 19.4778L12.6716 21.9921L15.2661 30.3776C15.4321 30.9146 16.0856 31.1131 16.5193 30.7568L20.2558 27.6956C20.6474 27.3749 21.2053 27.3589 21.6146 27.6575L28.3538 32.5746C28.8178 32.9136 29.4752 32.6581 29.5915 32.0946L34.5284 8.22939C34.6554 7.61388 34.0536 7.10041 33.4704 7.32708L5.96057 17.9924C5.28168 18.2555 5.2876 19.2214 5.96842 19.4778ZM14.8479 20.6537L27.9484 12.545C28.1838 12.3997 28.4261 12.7196 28.2239 12.9081L17.4122 23.008C17.0322 23.3635 16.7871 23.8393 16.7176 24.3557L16.3493 27.0986C16.3006 27.4648 15.7887 27.5012 15.6881 27.1467L14.2717 22.145C14.1094 21.5745 14.3458 20.9651 14.8479 20.6537Z"/></symbol><symbol viewBox="0 0 24 24" fill="none" id="svg-tg2"><path fill-rule="evenodd" clip-rule="evenodd" d="M5.78754 14.0196C5.83131 14.0344 5.87549 14.0448 5.91963 14.0512C5.96777 14.1644 6.02996 14.3107 6.10252 14.4818C6.27959 14.8994 6.51818 15.4643 6.76446 16.0535C7.2667 17.2552 7.77332 18.4939 7.88521 18.8485C8.02372 19.2868 8.17013 19.5848 8.32996 19.7883C8.4126 19.8935 8.50819 19.9853 8.62003 20.0549C8.67633 20.0899 8.7358 20.1186 8.79788 20.14C8.80062 20.141 8.80335 20.1419 8.80608 20.1428C9.1261 20.2636 9.41786 20.2133 9.60053 20.1518C9.69827 20.1188 9.77735 20.0791 9.8334 20.0469C9.86198 20.0304 9.88612 20.0151 9.90538 20.0021L9.90992 19.9991L12.7361 18.2366L16.0007 20.7394C16.0488 20.7763 16.1014 20.8073 16.157 20.8316C16.5492 21.0027 16.929 21.0624 17.2862 21.0136C17.6429 20.9649 17.926 20.8151 18.1368 20.6464C18.3432 20.4813 18.4832 20.2963 18.5703 20.1589C18.6148 20.0887 18.6482 20.0266 18.6718 19.9791C18.6836 19.9552 18.6931 19.9346 18.7005 19.9181L18.7099 19.8963L18.7135 19.8877L18.715 19.8841L18.7156 19.8824L18.7163 19.8808C18.7334 19.8379 18.7466 19.7935 18.7556 19.7482L21.7358 4.72274C21.7453 4.67469 21.7501 4.62581 21.7501 4.57682C21.7501 4.13681 21.5843 3.71841 21.1945 3.46452C20.8613 3.24752 20.4901 3.23818 20.2556 3.25598C20.0025 3.27519 19.7688 3.33766 19.612 3.38757C19.5304 3.41355 19.4619 3.43861 19.4126 3.45773C19.3878 3.46734 19.3675 3.47559 19.3523 3.48188L19.341 3.48666L2.62725 10.0432L2.62509 10.044C2.61444 10.0479 2.60076 10.053 2.58451 10.0593C2.55215 10.0719 2.50878 10.0896 2.45813 10.1126C2.35935 10.1574 2.22077 10.2273 2.07856 10.3247C1.85137 10.4803 1.32888 10.9064 1.41686 11.6097C1.48705 12.1708 1.87143 12.5154 2.10562 12.6811C2.23421 12.7721 2.35638 12.8371 2.44535 12.8795C2.48662 12.8991 2.57232 12.9339 2.6095 12.9491L2.61889 12.9529L5.78754 14.0196ZM19.9259 4.86786L19.9236 4.86888C19.9152 4.8725 19.9069 4.87596 19.8984 4.87928L3.1644 11.4438C3.15566 11.4472 3.14686 11.4505 3.138 11.4536L3.12869 11.4571C3.11798 11.4613 3.09996 11.4686 3.07734 11.4788C3.06451 11.4846 3.05112 11.491 3.03747 11.4978C3.05622 11.5084 3.07417 11.5175 3.09012 11.5251C3.10543 11.5324 3.11711 11.5374 3.1235 11.54L6.26613 12.598C6.32365 12.6174 6.37727 12.643 6.42649 12.674L16.8033 6.59948L16.813 6.59374C16.8205 6.58927 16.8305 6.58353 16.8424 6.5768C16.866 6.56345 16.8984 6.54568 16.937 6.52603C17.009 6.48938 17.1243 6.43497 17.2541 6.39485C17.3444 6.36692 17.6109 6.28823 17.899 6.38064C18.0768 6.43767 18.2609 6.56028 18.3807 6.76798C18.4401 6.87117 18.4718 6.97483 18.4872 7.06972C18.528 7.2192 18.5215 7.36681 18.4896 7.49424C18.4208 7.76875 18.228 7.98287 18.0525 8.14665C17.9021 8.28706 15.9567 10.1629 14.0376 12.0147C13.0805 12.9381 12.1333 13.8525 11.4252 14.5359L10.9602 14.9849L16.8321 19.4867C16.9668 19.5349 17.0464 19.5325 17.0832 19.5274C17.1271 19.5214 17.163 19.5045 17.1997 19.4752C17.2407 19.4424 17.2766 19.398 17.3034 19.3557L17.3045 19.354L20.195 4.78102C20.1521 4.79133 20.1087 4.80361 20.0669 4.81691C20.0196 4.83198 19.9805 4.84634 19.9547 4.85637C19.9418 4.86134 19.9326 4.86511 19.9276 4.86719L19.9259 4.86786ZM11.4646 17.2618L10.2931 16.3636L10.0093 18.1693L11.4646 17.2618ZM9.21846 14.5814L10.3834 13.4567C11.0915 12.7732 12.0389 11.8588 12.9961 10.9352L13.9686 9.997L7.44853 13.8138L7.48351 13.8963C7.66121 14.3154 7.90087 14.8827 8.14845 15.4751C8.33358 15.918 8.52717 16.3844 8.70349 16.8162L8.98653 15.0158C9.01381 14.8422 9.09861 14.692 9.21846 14.5814Z" fill="#000"/></symbol><symbol viewBox="0 0 47 48" id="svg-touch"><path fill-rule="evenodd" clip-rule="evenodd" d="M22.6462 0.121677C21.6471 0.391114 20.6731 1.26336 20.2981 2.22458C20.009 2.96586 20.0096 4.05411 20.2997 4.79792C20.5814 5.52027 21.2887 6.28133 22.0165 6.64499C22.3314 6.8023 22.6463 6.93102 22.7164 6.93102C22.8208 6.93102 22.8392 7.32336 22.8186 9.10602L22.7934 11.2811L22.038 11.389C20.5751 11.5979 18.8488 12.3185 17.6841 13.2064L17.0747 13.6709L15.5529 12.1525L14.0311 10.6341L14.2791 10.1185C14.4498 9.76367 14.5404 9.39598 14.57 8.93923C14.6678 7.42639 13.9117 6.14886 12.5278 5.48924C11.9893 5.23246 11.8258 5.19936 11.1216 5.20452C10.0071 5.21277 9.38091 5.46767 8.62894 6.21964C7.87697 6.97161 7.62207 7.59777 7.61382 8.71227C7.60866 9.41511 7.64213 9.58105 7.89704 10.1185C8.26425 10.8924 8.84654 11.475 9.62157 11.844C10.1702 12.1053 10.3197 12.1341 11.1218 12.1341C11.9037 12.1341 12.0756 12.1028 12.528 11.8781L13.0434 11.6222L14.5618 13.1437L16.0802 14.6654L15.6157 15.2748C14.7278 16.4395 14.0072 18.1658 13.7983 19.6287L13.6904 20.3841L11.5153 20.4093C9.73266 20.4299 9.34032 20.4115 9.34032 20.3071C9.34032 20.0074 8.739 19.0141 8.32069 18.6229C7.764 18.1022 7.30622 17.8626 6.58219 17.7131C4.02713 17.1858 1.75482 19.7453 2.58779 22.2123C3.09488 23.7139 4.37373 24.6498 5.91844 24.6498C7.41957 24.6498 8.77557 23.695 9.21638 22.3278L9.37566 21.8339L11.5376 21.859L13.6997 21.8841L13.7227 22.1654C13.7566 22.581 14.0353 23.9478 14.1112 24.0705C14.158 24.1463 14.3581 24.1176 14.8122 23.97C15.4061 23.7769 15.4444 23.7478 15.3963 23.5268C14.9967 21.6926 14.9815 20.4786 15.3406 19.0659C15.5468 18.2545 16.1031 17.0156 16.5584 16.3538C17.6667 14.7429 19.5323 13.4414 21.4809 12.9196C22.459 12.6577 24.4429 12.6302 25.3938 12.8653C27.5966 13.4101 29.4148 14.6604 30.6164 16.4569L31.0641 17.1264L31.683 16.7998L32.3017 16.4731L31.9649 15.9442C31.7796 15.6534 31.5006 15.2536 31.3449 15.0558L31.0617 14.696L32.5878 13.1679L34.1139 11.6397L34.6412 11.8869C35.0949 12.0997 35.2925 12.1341 36.0591 12.1341C36.8249 12.1341 37.022 12.0998 37.4653 11.8895C38.2301 11.5265 38.8155 10.9585 39.1728 10.2327C39.459 9.65136 39.4809 9.53999 39.4809 8.66736C39.4809 7.82755 39.453 7.67099 39.2177 7.19183C38.8549 6.45299 38.2426 5.85327 37.4864 5.49636C36.927 5.23227 36.7661 5.19936 36.0591 5.20452C34.9678 5.21258 34.3156 5.47114 33.6171 6.17286C33.0194 6.77314 32.7276 7.31774 32.5823 8.10317C32.4597 8.76627 32.5296 9.31995 32.8311 10.0716L33.0565 10.6341L31.5471 12.1458L30.0379 13.6575L29.4156 13.1848C28.2452 12.2958 26.302 11.5119 24.8794 11.355L24.2934 11.2904L24.2683 9.12833L24.2432 6.96636L24.7371 6.80708C26.1043 6.36627 27.0591 5.01027 27.0591 3.50914C27.0591 1.20749 24.8652 -0.476636 22.6462 0.121677ZM24.1829 1.50027C24.6405 1.62739 25.2583 2.18314 25.4779 2.66539C25.819 3.41427 25.631 4.40164 25.0334 4.99911C23.7153 6.31724 21.4894 5.38142 21.4894 3.50914C21.4894 2.07439 22.7812 1.11102 24.1829 1.50027ZM11.6974 6.66486C11.8971 6.72467 12.2347 6.92267 12.4475 7.10492C13.8575 8.31177 13.1098 10.602 11.2556 10.7557C10.5566 10.8138 10.005 10.5915 9.54197 10.0655C8.13629 8.46861 9.66535 6.05605 11.6974 6.66486ZM36.7266 6.70067C37.2292 6.87795 37.7119 7.32261 37.9434 7.82164C38.362 8.72389 38.0015 9.92305 37.1565 10.4389C35.7011 11.327 33.952 10.3465 33.9604 8.64711C33.9674 7.20139 35.3629 6.21945 36.7266 6.70067ZM22.3234 14.4673C20.9515 14.73 19.7827 15.3544 18.7732 16.3639C16.9044 18.2327 16.2923 20.8497 17.1327 23.378C17.5735 24.7041 18.6739 26.0934 19.8971 26.8684L20.5903 27.3075V28.1818C20.5903 28.7163 20.553 29.056 20.4942 29.056C20.3021 29.056 19.1231 28.4098 18.5661 27.9992C18.2519 27.7676 17.7528 27.3306 17.4568 27.028C16.9606 26.5207 16.1751 25.4485 16.0382 25.0917C15.9879 24.9608 15.9004 24.9802 15.379 25.2373C15.0484 25.4003 14.7779 25.5774 14.7781 25.6309C14.7784 25.7742 15.4064 26.7949 15.7654 27.2356L16.0771 27.6183L14.5602 29.1327L13.0434 30.6472L12.4809 30.4218C11.7293 30.1203 11.1756 30.0504 10.5125 30.173C9.72704 30.3183 9.18244 30.6101 8.58216 31.2078C7.88044 31.9063 7.62188 32.5585 7.61382 33.6498C7.60866 34.3568 7.64157 34.5177 7.90566 35.0771C8.26257 35.8333 8.86229 36.4456 9.60113 36.8084C10.0803 37.0437 10.2368 37.0716 11.0767 37.0716C11.9493 37.0716 12.0607 37.0497 12.642 36.7635C13.3678 36.4062 13.9358 35.8208 14.2988 35.056C14.5091 34.6127 14.5434 34.4156 14.5434 33.6498C14.5434 32.8832 14.509 32.6856 14.2962 32.2319L14.049 31.7046L15.5698 30.1858L17.0907 28.667L17.8281 29.1961C18.5598 29.7211 19.8376 30.3933 20.3325 30.5136L20.5903 30.5763V31.5036V32.431H18.5747H16.5591V36.2423V40.0536L17.6525 41.797C18.2538 42.7559 18.7757 43.575 18.8122 43.6172C18.8615 43.6744 19.6968 43.2257 20.0109 42.9732C20.0274 42.96 19.574 42.2036 19.0031 41.2925L17.9653 39.636V36.7366V33.8373H19.9809H21.9966V27.3746C21.9966 23.0455 22.0294 20.8249 22.096 20.648C22.4776 19.6361 23.7959 19.2911 24.5962 19.9938C25.2054 20.5287 25.1841 20.2707 25.1841 27.0843V33.2748H25.8872H26.5903V30.7435V28.2123H27.7622H28.9341V30.7435V33.2748H29.6372H30.3403V31.3998V29.5248H31.4653H32.5903V31.3998V33.2748H33.2934H33.9966V32.1966V31.1185H35.1216H36.2466V32.5248V33.931H36.9497H37.6528V31.8216V29.7123H35.8247H33.9966V28.9154V28.1185H32.3026H30.6087L31.0698 27.5794C32.276 26.1692 33.0765 24.4249 33.35 22.6107L33.4665 21.8373H35.594H37.7214L37.9266 22.3999C38.2089 23.1743 38.9546 23.9703 39.7357 24.3309C40.2548 24.5706 40.4303 24.6029 41.2153 24.6029C41.9838 24.6029 42.1789 24.5687 42.638 24.3535C43.349 24.0201 43.9332 23.4635 44.3194 22.7515C44.6232 22.1911 44.6372 22.1222 44.6372 21.181C44.6372 20.2831 44.6132 20.1477 44.3635 19.6392C43.6285 18.1424 41.9489 17.3477 40.3732 17.7514C39.1178 18.0729 38.1957 18.9754 37.8024 20.2669C37.7567 20.4169 37.5685 20.431 35.602 20.431H33.4517L33.3874 19.9388C33.2888 19.1842 32.9529 17.8998 32.8542 17.8998C32.8057 17.8998 32.494 17.9946 32.1616 18.1107C31.708 18.2689 31.5708 18.3568 31.6119 18.4623C31.8928 19.1812 31.9797 19.8232 31.9801 21.181C31.9804 22.4195 31.9486 22.7443 31.7647 23.3799C31.4947 24.3135 30.9322 25.4571 30.3677 26.2201L29.9341 26.806H28.6627H27.3913L27.7642 26.5057C28.6366 25.8034 29.2223 25.0491 29.7366 23.9662C30.2032 22.9837 30.3666 22.1034 30.3143 20.8529C30.2389 19.0443 29.6493 17.691 28.3716 16.3934C27.4642 15.472 26.4309 14.876 25.1372 14.5275C24.5183 14.3609 23.0438 14.3293 22.3234 14.4673ZM24.6684 15.8839C27.1465 16.4019 28.9277 18.616 28.9326 21.1848C28.9356 22.653 28.4224 23.8652 27.3468 24.931L26.6372 25.6341L26.5903 23.0091L26.5434 20.3841L26.287 19.8979C25.7188 18.8202 24.7692 18.2345 23.5903 18.2345C22.4114 18.2345 21.4618 18.8202 20.8936 19.8979L20.6372 20.3841L20.6083 22.9857C20.5904 24.5962 20.5446 25.5873 20.4879 25.5873C20.4375 25.5873 20.1084 25.2994 19.7566 24.9475C17.6375 22.8284 17.6492 19.5083 19.7832 17.3737C21.1217 16.035 22.8579 15.5055 24.6684 15.8839ZM6.88735 19.2981C7.84725 19.7878 8.29088 21.0205 7.85166 21.9779C7.19944 23.3998 5.40122 23.6759 4.35441 22.5148C2.81494 20.8073 4.82991 18.2485 6.88735 19.2981ZM41.8327 19.1626C42.3368 19.3123 42.8606 19.7805 43.1366 20.3281C43.3843 20.8196 43.302 21.7905 42.97 22.2921C42.5828 22.8772 42.0594 23.1817 41.365 23.226C38.9121 23.3822 38.2192 19.9851 40.5354 19.1585C40.9954 18.9944 41.2693 18.9952 41.8327 19.1626ZM12.0448 31.7674C13.1459 32.3292 13.5068 33.6679 12.8482 34.7472C12.4948 35.3261 11.7845 35.7133 11.0813 35.7102C9.06629 35.7015 8.22657 33.0872 9.86832 31.9333C10.5426 31.4594 11.3243 31.3998 12.0448 31.7674ZM33.3403 36.6498V38.056H34.0434H34.7466V36.6498V35.2435H34.0434H33.3403V36.6498ZM36.2466 37.5708V39.8043L35.0278 42.7256L33.8091 45.6469V46.8202V47.9935H34.5122H35.2153V46.9608V45.9282L36.4341 43.0068L37.6528 40.0855V37.7114V35.3373H36.9497H36.2466V37.5708ZM20.0893 39.0513C19.6953 39.2977 19.563 39.431 19.6046 39.5395C19.6627 39.6909 21.1274 42.0697 21.2496 42.211C21.2992 42.2685 22.1544 41.8081 22.4515 41.5638C22.4944 41.5287 20.747 38.7157 20.6812 38.7138C20.6538 38.7129 20.3874 38.8648 20.0893 39.0513ZM22.6294 43.1023C22.3329 43.2914 22.0903 43.4771 22.0903 43.5149C22.0903 43.6151 22.7423 44.6185 22.8075 44.6185C22.8379 44.6185 23.1104 44.468 23.4131 44.2841L23.9636 43.9497L23.7535 43.5797C23.638 43.3762 23.4591 43.1082 23.3559 42.9841L23.1684 42.7584L22.6294 43.1023ZM20.1919 44.5127C19.8954 44.6995 19.6528 44.8862 19.6528 44.9275C19.6528 44.9687 19.8005 45.2333 19.9809 45.5154C20.3024 46.018 20.3091 46.0482 20.3091 47.0109V47.9935H21.0122H21.7153V46.8109V45.6284L21.2832 44.9352C21.0457 44.5539 20.8241 44.2264 20.791 44.2075C20.758 44.1885 20.4883 44.3258 20.1919 44.5127Z"/></symbol><symbol viewBox="0 0 16 16" fill="none" id="svg-user"><path d="M14 15.5001C12.5 15.5001 8 15.5001 8 15.5001 8 15.5001 3.5 15.5001 2 15.5001 3 8.388 13 8.388 14 15.5001zM8 8C9.65685 8 11 6.65685 11 5 11 3.34315 9.65685 2 8 2 6.34315 2 5 3.34315 5 5 5 6.65685 6.34315 8 8 8z" stroke="#000" stroke-linecap="round" stroke-linejoin="round"/></symbol><symbol viewBox="0 0 40 40" id="svg-vk"><path d="M34.3913 25.8987C34.3561 25.8228 34.3232 25.7598 34.2927 25.7094C33.788 24.8003 32.8235 23.6846 31.3998 22.3618L31.3697 22.3315L31.3546 22.3166L31.3394 22.3014H31.3241C30.678 21.6854 30.2688 21.2712 30.0974 21.0592C29.7839 20.6553 29.7136 20.2464 29.885 19.8321C30.0061 19.5191 30.4608 18.8581 31.2482 17.8482C31.6624 17.3129 31.9904 16.884 32.2326 16.5608C33.9796 14.2382 34.737 12.7541 34.5047 12.1077L34.4144 11.9567C34.3538 11.8658 34.1973 11.7826 33.9452 11.7067C33.6924 11.631 33.3694 11.6185 32.9755 11.669L28.6134 11.6991C28.5428 11.674 28.4419 11.6764 28.3104 11.7067C28.1791 11.7371 28.1134 11.7523 28.1134 11.7523L28.0375 11.7902L27.9772 11.8358C27.9267 11.8659 27.8712 11.9189 27.8105 11.9947C27.7502 12.0702 27.6998 12.1588 27.6595 12.2597C27.1845 13.4815 26.6446 14.6175 26.0386 15.6676C25.665 16.2938 25.3218 16.8364 25.0084 17.2959C24.6955 17.7552 24.4329 18.0936 24.2211 18.3106C24.0089 18.5277 23.8173 18.7017 23.6454 18.8331C23.4736 18.9645 23.3425 19.0201 23.2518 18.9998C23.1608 18.9794 23.0751 18.9593 22.994 18.9391C22.8527 18.8482 22.7391 18.7245 22.6534 18.568C22.5674 18.4115 22.5094 18.2145 22.4791 17.9772C22.449 17.7398 22.4312 17.5355 22.4261 17.3638C22.4214 17.1923 22.4235 16.9497 22.4338 16.6367C22.4443 16.3235 22.449 16.1117 22.449 16.0006C22.449 15.6168 22.4565 15.2003 22.4715 14.751C22.4868 14.3016 22.4991 13.9456 22.5095 13.6833C22.5198 13.4208 22.5245 13.143 22.5245 12.8501C22.5245 12.5573 22.5067 12.3276 22.4715 12.161C22.4367 11.9945 22.3833 11.8329 22.3129 11.6762C22.242 11.5197 22.1384 11.3987 22.0024 11.3127C21.8661 11.2269 21.6966 11.1588 21.495 11.1082C20.9598 10.987 20.2782 10.9215 19.45 10.9113C17.572 10.8912 16.3652 11.0124 15.83 11.275C15.618 11.3859 15.4261 11.5375 15.2545 11.7292C15.0727 11.9515 15.0474 12.0727 15.1786 12.0927C15.7846 12.1834 16.2135 12.4006 16.466 12.7439L16.557 12.9258C16.6278 13.057 16.6984 13.2894 16.7691 13.6226C16.8398 13.9557 16.8853 14.3243 16.9054 14.728C16.9558 15.4652 16.9558 16.0963 16.9054 16.6213C16.8548 17.1465 16.8071 17.5554 16.7615 17.8482C16.7159 18.1411 16.6478 18.3784 16.557 18.5601C16.466 18.7418 16.4055 18.8529 16.3751 18.8932C16.3448 18.9335 16.3196 18.959 16.2995 18.9689C16.1683 19.0192 16.0318 19.0448 15.8905 19.0448C15.749 19.0448 15.5775 18.9741 15.3756 18.8326C15.1737 18.6912 14.9642 18.4969 14.7471 18.2495C14.5299 18.002 14.285 17.6562 14.0123 17.2119C13.7398 16.7677 13.457 16.2426 13.1642 15.6368L12.9219 15.1974C12.7704 14.9148 12.5635 14.5032 12.301 13.9631C12.0383 13.4228 11.8061 12.9001 11.6042 12.3952C11.5235 12.1832 11.4023 12.0217 11.2408 11.9107L11.1649 11.8651C11.1145 11.8248 11.0336 11.782 10.9227 11.7363C10.8115 11.6908 10.6956 11.6581 10.5743 11.638L6.42415 11.6681C6.00006 11.6681 5.71231 11.7642 5.5608 11.9561L5.50016 12.0468C5.46987 12.0974 5.45459 12.1781 5.45459 12.2893C5.45459 12.4004 5.48488 12.5367 5.54552 12.6981C6.15136 14.122 6.8102 15.4953 7.52204 16.818C8.23388 18.1408 8.85245 19.2063 9.37739 20.0137C9.90244 20.8216 10.4376 21.5841 10.9829 22.3008C11.5282 23.0178 11.8892 23.4773 12.0658 23.6791C12.2426 23.8813 12.3815 24.0325 12.4825 24.1335L12.8612 24.497C13.1035 24.7393 13.4594 25.0296 13.929 25.3678C14.3986 25.7062 14.9186 26.0394 15.4891 26.3678C16.0597 26.6958 16.7235 26.9633 17.4809 27.1703C18.2382 27.3775 18.9753 27.4606 19.6923 27.4205H21.4342C21.7875 27.39 22.0551 27.2789 22.237 27.0872L22.2973 27.0112C22.3378 26.951 22.3757 26.8573 22.4107 26.7314C22.4462 26.6051 22.4638 26.4661 22.4638 26.3148C22.4535 25.8807 22.4865 25.4895 22.562 25.1411C22.6375 24.7929 22.7236 24.5304 22.8198 24.3536C22.916 24.1769 23.0246 24.0278 23.1453 23.907C23.2664 23.7859 23.3527 23.7125 23.4033 23.6872C23.4536 23.6618 23.4937 23.6446 23.524 23.6342C23.7664 23.5535 24.0516 23.6317 24.3801 23.8692C24.7083 24.1065 25.0161 24.3995 25.3041 24.7477C25.5919 25.0963 25.9377 25.4873 26.3415 25.9214C26.7456 26.3557 27.0989 26.6785 27.4017 26.8909L27.7045 27.0726C27.9068 27.1939 28.1693 27.305 28.4925 27.4059C28.8151 27.5069 29.0978 27.5321 29.3405 27.4817L33.2178 27.4212C33.6013 27.4212 33.8997 27.3577 34.1114 27.2317C34.3235 27.1055 34.4495 26.9664 34.4901 26.8152C34.5307 26.6638 34.5329 26.492 34.4978 26.2999C34.4619 26.1084 34.4265 25.9744 34.3913 25.8987Z"/></symbol><symbol viewBox="0 0 24 24" fill="none" id="svg-vk2"><path fill-rule="evenodd" clip-rule="evenodd" d="M23.405 16.865C22.8611 15.7695 22.1444 14.7688 21.2825 13.9013C20.9892 13.5603 20.6453 13.2238 20.3768 12.9612L20.3393 12.9245C20.2008 12.7889 20.0864 12.6764 19.9928 12.5795C21.1713 10.9407 22.18 9.18595 23.003 7.34222L23.0362 7.26783L23.0595 7.18976C23.1676 6.82687 23.2922 6.1368 22.8515 5.51317C22.396 4.86859 21.6666 4.75234 21.1782 4.75234H18.9311C18.4627 4.73087 17.9988 4.85751 17.6058 5.11498C17.2098 5.37439 16.9069 5.75278 16.7402 6.1951C16.2563 7.34779 15.6508 8.4442 14.9347 9.46598V6.83269C14.9347 6.4923 14.9027 5.92289 14.5382 5.44229C14.1018 4.86685 13.4707 4.75234 13.0326 4.75234H9.46708C9.00771 4.74172 8.56094 4.90597 8.2176 5.21259C7.866 5.52659 7.65052 5.96521 7.61687 6.43543L7.61369 6.47997V6.52463C7.61369 7.01011 7.80606 7.36822 7.95975 7.59344C8.02856 7.69427 8.10216 7.78606 8.14865 7.84403L8.15938 7.85741C8.20895 7.91923 8.24204 7.96049 8.27525 8.00566C8.3626 8.12448 8.48824 8.30768 8.52379 8.78174V10.2547C7.9091 9.24423 7.26066 7.89957 6.77276 6.46344L6.76527 6.4414L6.75697 6.41965C6.63532 6.10103 6.4402 5.63743 6.04941 5.28266C5.59288 4.86821 5.0529 4.75234 4.56182 4.75234H2.28187C1.78506 4.75234 1.18613 4.86857 0.739237 5.33999C0.299773 5.80358 0.25 6.35907 0.25 6.65442V6.78755L0.278039 6.91769C0.909544 9.84881 2.21076 12.5937 4.07946 14.9377C4.92668 16.2737 6.07468 17.3936 7.43213 18.2075C8.81124 19.0345 10.3671 19.5219 11.9715 19.6297L12.0133 19.6325H12.0553C12.7811 19.6325 13.5378 19.5699 14.1068 19.1907C14.8744 18.6792 14.9347 17.8936 14.9347 17.5021V16.3642C15.1317 16.5234 15.3761 16.7378 15.6753 17.0259C16.037 17.3879 16.325 17.7016 16.572 17.9754L16.7038 18.122L16.7046 18.1228C16.8964 18.3364 17.0852 18.5467 17.2571 18.7195C17.4732 18.9367 17.7396 19.1761 18.0745 19.3529C18.4371 19.5444 18.8177 19.631 19.222 19.631H21.5035C21.9841 19.631 22.6735 19.5173 23.1582 18.9554C23.6864 18.343 23.6461 17.5924 23.48 17.053L23.4501 16.956L23.405 16.865ZM17.6857 16.9706C17.4289 16.6859 17.1192 16.3484 16.7278 15.9571L16.7246 15.9539C15.3685 14.6464 14.7348 14.4186 14.2868 14.4186C14.0485 14.4186 13.7848 14.4454 13.6137 14.6585C13.5329 14.7591 13.4905 14.8805 13.4667 15.007C13.4429 15.1333 13.4347 15.2816 13.4347 15.4505V17.5021C13.4347 17.7569 13.3928 17.8639 13.275 17.9425C13.118 18.0471 12.7825 18.1319 12.0637 18.1325C10.6993 18.0395 9.37641 17.6244 8.20349 16.9211C7.02817 16.2164 6.03709 15.2425 5.31187 14.0797L5.30398 14.0671L5.29464 14.0554C3.55337 11.8881 2.34003 9.34571 1.7503 6.6291C1.7535 6.49814 1.78187 6.42045 1.82784 6.37195C1.87521 6.32198 1.98999 6.25234 2.28187 6.25234H4.56182C4.81544 6.25234 4.9467 6.30751 5.04117 6.39327C5.14827 6.4905 5.24116 6.65561 5.35401 6.95042C5.91362 8.5964 6.67038 10.1357 7.387 11.2675C7.74518 11.8332 8.09769 12.3041 8.41529 12.6368C8.57383 12.803 8.72932 12.9406 8.8777 13.0385C9.02132 13.1332 9.18414 13.2079 9.35158 13.2079C9.43994 13.2079 9.54328 13.1988 9.64279 13.1547C9.74983 13.1074 9.83291 13.0284 9.89158 12.9225C9.99536 12.7353 10.0238 12.458 10.0238 12.0947V8.73099L10.0233 8.7231C9.97146 7.90476 9.72439 7.44443 9.48381 7.11718C9.43108 7.04546 9.37909 6.98068 9.33359 6.92399L9.32113 6.90846C9.27117 6.84616 9.23142 6.79582 9.19876 6.74795C9.13891 6.66024 9.11571 6.59909 9.11381 6.53356C9.12162 6.45578 9.15828 6.38361 9.21675 6.33139C9.27744 6.27719 9.35686 6.24897 9.43816 6.25234H13.0326C13.2387 6.25234 13.3081 6.30262 13.343 6.34868C13.3923 6.4137 13.4347 6.54893 13.4347 6.83269V11.3613C13.4347 11.8992 13.6827 12.2634 14.0428 12.2634C14.4572 12.2634 14.7559 12.012 15.2783 11.4896L15.287 11.4809L15.2948 11.4713C16.4656 10.0436 17.4225 8.45298 18.1347 6.74943L18.1392 6.73666C18.1928 6.58613 18.2941 6.45726 18.4278 6.3697C18.5614 6.28215 18.72 6.24072 18.8794 6.25175L18.8881 6.25234H21.1782C21.4905 6.25234 21.5933 6.33183 21.6265 6.37884C21.6618 6.42885 21.6864 6.53604 21.6264 6.74625C20.8053 8.58266 19.7899 10.3258 18.598 11.9464L18.5905 11.9578C18.4748 12.1348 18.3479 12.3306 18.3295 12.5554C18.3098 12.7968 18.4143 13.0163 18.597 13.2515C18.7302 13.4484 19.0049 13.7173 19.2836 13.9901L19.3099 14.0158C19.6021 14.3018 19.9186 14.6116 20.1727 14.9116L20.1795 14.9195L20.1869 14.9269C20.9444 15.6825 21.5743 16.556 22.052 17.5132C22.1283 17.7738 22.0816 17.907 22.0223 17.9757C21.953 18.0561 21.7976 18.131 21.5035 18.131H19.222C19.0438 18.131 18.9063 18.0959 18.7749 18.0265C18.638 17.9542 18.4972 17.8392 18.3206 17.6617C18.1784 17.5187 18.023 17.3457 17.8334 17.1348C17.7864 17.0825 17.7373 17.0277 17.6857 16.9706Z" fill="#000"/></symbol><symbol viewBox="0 0 40 40" id="svg-youtube"><path d="M34.5281 17.4431C34.5169 16.8295 34.4677 16.0538 34.3817 15.1165C34.2953 14.1787 34.1716 13.3406 34.0108 12.6021C33.8268 11.7727 33.4271 11.0738 32.8121 10.5056C32.197 9.93728 31.4811 9.60784 30.6644 9.5168C28.1115 9.23291 24.2536 9.09082 19.0908 9.09082C13.928 9.09082 10.0701 9.23291 7.51731 9.5168C6.70076 9.60778 5.9877 9.93728 5.37843 10.5056C4.76892 11.0736 4.37219 11.7725 4.18817 12.6021C4.01587 13.3408 3.88634 14.1789 3.80013 15.1165C3.71404 16.0538 3.66511 16.8292 3.65369 17.4431C3.64203 18.0567 3.63635 18.9089 3.63635 19.9999C3.63635 21.0908 3.64203 21.9432 3.65375 22.5567C3.66517 23.1707 3.7141 23.946 3.80019 24.8833C3.8864 25.821 4.01007 26.6591 4.17107 27.3977C4.35509 28.2274 4.75461 28.9262 5.3698 29.4941C5.98511 30.0623 6.70107 30.3918 7.51737 30.4828C10.0701 30.767 13.9278 30.909 19.0909 30.909C24.2542 30.909 28.1115 30.767 30.6645 30.4828C31.4811 30.3919 32.1939 30.0623 32.8034 29.4941C33.4129 28.9261 33.8094 28.2269 33.9934 27.3977C34.1659 26.6591 34.2953 25.821 34.3817 24.8833C34.4677 23.9461 34.5165 23.1703 34.5281 22.5567C34.5396 21.9432 34.5454 21.0908 34.5454 19.9999C34.5454 18.9089 34.5397 18.0567 34.5281 17.4431ZM25.1969 20.9204L16.3658 26.3747C16.2048 26.4883 16.0091 26.5451 15.7792 26.5451C15.6069 26.5451 15.4286 26.4995 15.2447 26.4086C14.8653 26.2043 14.6756 25.886 14.6756 25.4543V14.5456C14.6756 14.114 14.8653 13.7957 15.2447 13.5912C15.6357 13.3863 16.0093 13.3978 16.3658 13.6253L25.1969 19.0797C25.5418 19.2725 25.7142 19.5795 25.7142 20C25.7142 20.4203 25.5417 20.7274 25.1969 20.9204Z"/></symbol><symbol viewBox="0 0 24 24" fill="none" id="svg-youtube2"><path fill-rule="evenodd" clip-rule="evenodd" d="M10.386 8.3574C10.1543 8.21838 9.86573 8.21474 9.6306 8.34787C9.39547 8.481 9.25012 8.73031 9.25012 9.00052V15.0005C9.25012 15.2707 9.39547 15.52 9.6306 15.6532C9.86573 15.7863 10.1543 15.7827 10.386 15.6436L15.386 12.6436C15.6119 12.5081 15.7501 12.264 15.7501 12.0005C15.7501 11.7371 15.6119 11.4929 15.386 11.3574L10.386 8.3574ZM13.5424 12.0005L10.7501 13.6759V10.3252L13.5424 12.0005Z" fill="#000"/><path fill-rule="evenodd" clip-rule="evenodd" d="M17.0308 4.6418C13.6821 4.37982 10.3182 4.37982 6.96951 4.6418L4.72881 4.8171C3.36624 4.9237 2.25155 5.94491 2.02632 7.29295C1.50555 10.4097 1.50555 13.5913 2.02632 16.7081C2.25155 18.0561 3.36624 19.0773 4.72881 19.1839L6.96951 19.3592C10.3182 19.6212 13.6821 19.6212 17.0308 19.3592L19.2715 19.1839C20.6341 19.0773 21.7488 18.0561 21.974 16.7081C22.4948 13.5913 22.4948 10.4097 21.974 7.29295C21.7488 5.94491 20.6341 4.9237 19.2715 4.8171L17.0308 4.6418ZM7.0865 6.13723C10.3573 5.88134 13.643 5.88134 16.9138 6.13723L19.1545 6.31253C19.8301 6.36539 20.3828 6.87174 20.4945 7.54015C20.9879 10.4933 20.9879 13.5078 20.4945 16.4609C20.3828 17.1293 19.8301 17.6356 19.1545 17.6885L16.9138 17.8638C13.643 18.1197 10.3573 18.1197 7.0865 17.8638L4.8458 17.6885C4.17019 17.6356 3.61749 17.1293 3.50581 16.4609C3.01239 13.5078 3.01239 10.4933 3.50581 7.54015C3.61749 6.87174 4.17019 6.36539 4.8458 6.31253L7.0865 6.13723Z" fill="#000"/></symbol></svg>