<svg width="80" height="80" viewBox="0 0 80 80" fill="none" xmlns="http://www.w3.org/2000/svg">
<path fill-rule="evenodd" clip-rule="evenodd" d="M31.1709 3.10844C30.9131 3.27094 29.8947 4.21985 28.9078 5.21719L27.1136 7.03063L21.3297 7.03157C17.8753 7.03203 15.3145 7.09672 14.9714 7.19203C13.8737 7.49688 12.9381 8.27766 12.3837 9.35188L11.8711 10.3448L11.9117 42.2425L11.9522 74.14L12.2906 74.772C12.4767 75.1197 12.9459 75.6963 13.3333 76.0533C14.6586 77.2748 12.7109 77.1958 40.3191 77.1497L64.9209 77.1088L65.6241 76.7814C66.4522 76.3958 67.2373 75.6361 67.7081 74.765L68.0459 74.14L68.0866 42.4434C68.1138 21.1988 68.0744 10.5513 67.9672 10.1533C67.6973 9.15094 66.8802 8.11969 65.9366 7.59063L65.0772 7.10875L58.9834 7.06422L52.8897 7.01985L50.9366 5.08907C49.8623 4.02703 48.8298 3.08032 48.6422 2.985C48.405 2.86469 45.7578 2.81203 39.9703 2.8125C32.0705 2.81297 31.6155 2.82828 31.1709 3.10844ZM49.4888 6.75469L51.2491 8.50985V10.3953C51.2491 11.6533 51.1867 12.343 51.0616 12.4681C50.7903 12.7394 29.2078 12.7394 28.9366 12.4681C28.8116 12.3431 28.7491 11.6544 28.7491 10.4003V8.51985L30.5044 6.75969L32.2595 4.99938H39.9941H47.7286L49.4888 6.75469ZM36.5077 8.09766C36.3655 8.25485 36.2502 8.58875 36.2514 8.83985C36.2569 9.885 36.6264 9.99938 39.9991 9.99938C43.3912 9.99938 43.7414 9.88844 43.7467 8.81266C43.7514 7.86891 43.5363 7.81188 39.9719 7.81188C37.0647 7.81188 36.7422 7.83844 36.5077 8.09766ZM26.5616 10.9369V12.6556H22.4139H18.2661L17.8827 13.0392L17.4991 13.4227V42.0844C17.4991 70.0716 17.5061 70.7547 17.7978 71.1149L18.0964 71.4838H39.9991H61.9017L62.2003 71.1149C62.492 70.7547 62.4991 70.0716 62.4991 42.0844V13.4227L62.1155 13.0392L61.732 12.6556H57.5842H53.4366V10.9369V9.21813H58.8322C64.8128 9.21813 65.0511 9.25204 65.62 10.1853C65.9336 10.6995 65.9355 10.8841 65.9359 42.0331C65.9366 72.0786 65.9248 73.3855 65.6511 73.8959C65.4941 74.1888 65.1259 74.5569 64.8331 74.7139C64.3241 74.9869 63.2367 74.9994 39.9991 74.9994C16.7614 74.9994 15.6741 74.9869 15.165 74.7139C14.8722 74.5569 14.5041 74.1888 14.347 73.8959C14.0733 73.3855 14.0616 72.0786 14.0622 42.0331C14.0627 10.8953 14.0647 10.6994 14.3777 10.1858C14.9434 9.25782 15.1322 9.23094 21.1319 9.22422L26.5616 9.21813V10.9369ZM60.3116 42.1088V69.3744H39.9991H19.6866V42.1088V14.8431H39.9991H60.3116V42.1088ZM34.1397 20.3102C33.9678 20.3825 32.7734 21.5025 31.4855 22.7988C30.1973 24.095 29.0741 25.1556 28.9891 25.1556C28.9041 25.1556 28.3302 24.6547 27.7137 24.0423C26.4919 22.8286 26.0164 22.6625 25.4331 23.2459C24.8027 23.8763 24.992 24.2825 26.7373 26.0447C28.5506 27.8755 28.8737 28.0745 29.5 27.7467C29.7316 27.6255 31.2042 26.2292 32.7725 24.6439C35.78 21.6039 35.9472 21.3452 35.3506 20.6553C35.0147 20.2669 34.5539 20.1355 34.1397 20.3102ZM39.2889 23.3517C38.8075 23.833 38.7994 24.3766 39.2669 24.8159C39.6275 25.1547 39.6492 25.1556 46.9059 25.1556C53.7341 25.1556 54.205 25.138 54.5375 24.8688C55.0066 24.4889 54.9986 23.6284 54.5223 23.2428C54.2097 22.9895 53.6172 22.9681 46.9278 22.9681H39.6723L39.2889 23.3517ZM34.2178 32.2963C34.0889 32.3411 32.8766 33.4761 31.5237 34.8184L29.0639 37.2589L28.0081 36.2248C27.4273 35.6561 26.7877 35.1066 26.5864 35.0039C25.8464 34.6256 24.9716 35.3759 25.1342 36.2494C25.1581 36.3783 25.9273 37.2397 26.8436 38.1634C29.1239 40.4628 28.9097 40.4863 31.8331 37.6166C34.9008 34.6052 35.6766 33.6705 35.547 33.1416C35.3867 32.4867 34.7797 32.1006 34.2178 32.2963ZM39.245 35.3609C38.7791 35.8569 38.8081 36.4628 39.317 36.863C39.72 37.18 39.8811 37.1869 46.9384 37.1869C55.0711 37.1869 54.8428 37.2184 54.8428 36.0931C54.8428 34.967 55.0791 34.9994 46.8666 34.9994H39.5848L39.245 35.3609ZM31.6147 46.7477L29.0681 49.2773L27.932 48.1764C26.6859 46.9691 26.2855 46.7617 25.7472 47.0453C25.2723 47.2955 25.1606 47.4858 25.1577 48.0489C25.1558 48.4416 25.4363 48.8003 26.8375 50.1973C28.2314 51.5869 28.6006 51.8744 28.9911 51.8744C29.3959 51.8744 29.8978 51.437 32.5433 48.7795C34.2377 47.0773 35.6241 45.6041 35.6241 45.5056C35.6241 44.9122 34.9309 44.2181 34.3383 44.2181C34.2409 44.2181 33.0152 45.3564 31.6147 46.7477ZM39.245 47.3922C38.8 47.8661 38.815 48.3608 39.2889 48.8345L39.6723 49.2181H46.9452C54.0095 49.2181 54.2267 49.2092 54.5303 48.9056C55.0123 48.4236 55.0009 47.7273 54.5042 47.3041C54.2084 47.0522 53.6092 47.0306 46.8841 47.0306H39.5848L39.245 47.3922ZM33.8272 56.5461C33.5694 56.7088 32.377 57.8314 31.1775 59.0411L28.9966 61.2403L27.797 60.073C26.507 58.8177 26.1086 58.6678 25.4591 59.1938C25.22 59.3873 25.1033 59.6497 25.1033 59.9933C25.1033 60.4369 25.3309 60.7299 26.8227 62.2052C28.2272 63.5941 28.6264 63.9056 29.0023 63.9056C29.3927 63.9056 29.9331 63.4328 32.5628 60.7911C35.4447 57.8961 35.6558 57.6456 35.5589 57.2364C35.4416 56.7417 34.9388 56.2491 34.552 56.25C34.4113 56.2503 34.085 56.3836 33.8272 56.5461ZM39.2178 59.3744C38.7955 59.7967 38.8244 60.4013 39.2889 60.8658L39.6723 61.2494H46.7814C51.8817 61.2494 54.0041 61.1977 54.2923 61.0664C54.9217 60.7795 55.0647 59.8884 54.5702 59.3353C54.3437 59.0822 53.7761 59.0619 46.928 59.0619C39.7386 59.0619 39.5216 59.0706 39.2178 59.3744Z" fill="#EA5B21"/>
</svg>
