<svg width="24" height="24" viewBox="0 0 24 24" fill="none" xmlns="http://www.w3.org/2000/svg">
<path fill-rule="evenodd" clip-rule="evenodd" d="M2.8125 6.18621V8.47106H1.40625H0V9.19381V9.91657H2.10938H4.21875V8.10982V6.30307L7.07812 9.14719L9.9375 11.9913L7.08984 14.8243L4.24219 17.6574L4.22991 15.862L4.21767 14.0666H2.10881H0V14.7894V15.5121H1.40625H2.8125V17.797V20.0818H13.4062H24V11.9916V3.90137H13.4062H2.8125V6.18621ZM18.0233 8.84587C13.9333 12.9167 14.2043 12.691 13.4062 12.691C12.6082 12.691 12.8792 12.9167 8.78916 8.84587L5.2268 5.30025H13.4062H21.5857L18.0233 8.84587ZM22.5938 12.0031V17.6801L19.7344 14.836L16.875 11.9919L19.7225 9.15898C21.2887 7.6009 22.5754 6.3261 22.5819 6.3261C22.5884 6.3261 22.5938 8.88074 22.5938 12.0031ZM0 11.9916V12.7143H2.8125H5.625V11.9916V11.2688H2.8125H0V11.9916ZM11.4864 13.4737C11.7782 13.7048 12.3349 13.96 12.7279 14.0428C13.8065 14.27 14.839 13.9605 15.7042 13.1505L15.8693 12.9959L18.7275 15.8394L21.5857 18.6829H13.4062H5.22684L8.08505 15.8394L10.9432 12.9959L11.1083 13.1505C11.1991 13.2355 11.3693 13.381 11.4864 13.4737Z" fill="#F8F8F8"/>
</svg>
