<svg width="81" height="80" viewBox="0 0 81 80" fill="none" xmlns="http://www.w3.org/2000/svg">
<path fill-rule="evenodd" clip-rule="evenodd" d="M27.6319 10.045C26.8689 10.4646 26.7781 10.7647 26.7743 12.877L26.7709 14.8731H22.3795C17.6661 14.8731 17.3368 14.9221 16.9412 15.6817C16.818 15.9184 16.7371 17.0132 16.712 18.787L16.673 21.5267L8.92352 21.5643C3.17573 21.5921 1.07961 21.6513 0.808455 21.7936C-0.0464964 22.2418 -0.000782076 20.6068 0.0067326 50.4425C0.0104899 65.623 0.0726426 78.3497 0.144971 78.724C0.2173 79.0984 0.392956 79.521 0.535108 79.6634C0.774012 79.9023 3.40321 79.922 34.9921 79.922H69.1903L69.5751 79.5306C69.8597 79.2411 70.6192 77.1812 72.4897 71.6245C77.5452 56.6068 80.0313 48.9235 80.0548 48.2459C80.0748 47.663 80.0063 47.5035 79.5668 47.1109L79.0555 46.6539H74.5988H70.1422L70.1003 33.7571L70.0586 20.8602L65.9712 16.6534C63.7232 14.3395 61.2421 11.8653 60.4578 11.1549L59.0319 9.86328L43.4884 9.86798C32.4878 9.87142 27.8535 9.92309 27.6319 10.045ZM56.8296 17.8044C56.9066 22.3056 56.9137 22.3852 57.2642 22.7359C57.6149 23.0865 57.6946 23.0935 62.1957 23.1705L66.7709 23.2488V34.9122V46.5756L48.4147 46.6154L30.0586 46.6551V29.9023V13.1492L43.4049 13.1892L56.7513 13.2292L56.8296 17.8044ZM64.3443 19.8415C64.3443 19.8642 63.3932 19.8829 62.2308 19.8829H60.1173V17.7324V15.582L62.2308 17.6911C63.3932 18.8511 64.3443 19.8188 64.3443 19.8415ZM26.6926 32.4073V46.5756L23.3658 46.6179L20.039 46.6602V32.4073V18.1545L23.3658 18.1967L26.6926 18.239V32.4073ZM16.7133 35.7341L16.673 46.5756L14.7944 46.5293C12.3862 46.4699 10.816 46.6836 10.4623 47.1189C10.3184 47.2959 8.6746 52.0192 6.80939 57.6148C4.94403 63.2106 3.38865 67.7889 3.3528 67.7889C3.31695 67.7889 3.28752 58.1373 3.28752 46.3408V24.8926H10.0205H16.7535L16.7133 35.7341ZM33.9959 27.0104C33.4057 27.5071 33.2576 28.1346 33.5599 28.8582C34.0074 29.9292 33.7537 29.9024 43.4466 29.9024C49.551 29.9024 52.2557 29.8501 52.4955 29.7275C53.0856 29.4257 53.3782 28.9239 53.3819 28.2074C53.3847 27.6648 53.2942 27.439 52.9277 27.0724L52.4701 26.6147H43.4682H34.4661L33.9959 27.0104ZM34.3358 33.4426C33.8791 33.6679 33.3462 34.4593 33.3462 34.9122C33.3462 35.3808 33.8823 36.1604 34.3604 36.3874C35.1366 36.7556 45.0196 36.7556 45.7959 36.3874C46.274 36.1604 46.81 35.3808 46.81 34.9122C46.81 34.4436 46.274 33.664 45.7959 33.437C45.0228 33.0702 35.0812 33.075 34.3358 33.4426ZM76.0739 50.1373C76.0672 50.245 74.077 56.2508 71.6512 63.4836L67.2405 76.6343L35.6554 76.6738C18.2835 76.6955 4.07029 76.6608 4.07029 76.5966C4.07029 76.5324 6.06027 70.5088 8.49237 63.2108L12.9143 49.9416H44.5002C69.6709 49.9416 76.0834 49.9813 76.0739 50.1373Z" fill="#EA5B21"/>
</svg>
