<svg width="80" height="80" viewBox="0 0 80 80" fill="none" xmlns="http://www.w3.org/2000/svg">
<path fill-rule="evenodd" clip-rule="evenodd" d="M1.89092 10.331C1.10077 10.7224 0.346111 11.5829 0.123481 12.3464C0.0167001 12.7127 -0.0206656 22.4404 0.010759 41.7542L0.0575051 70.6145L0.427252 71.7095C1.77319 75.6958 4.51448 78.4129 8.42176 79.6336L9.59432 80H37.9703H66.3462L67.1239 79.6171C68.1157 79.1289 69.0714 78.1726 69.5593 77.1803L69.9421 76.4022L69.9885 53.0168C70.0213 36.452 69.9851 29.4594 69.8642 29.042C69.6491 28.2998 68.898 27.4351 68.1262 27.041C67.5713 26.7579 67.1681 26.7374 62.1372 26.7374H56.7431L56.6981 19.5685L56.6531 12.3996L56.1817 11.6368C55.8385 11.0818 55.4825 10.7552 54.8739 10.4371L54.0378 10L28.2984 10.0002L2.55897 10.0003L1.89092 10.331ZM53.3319 41.8715C53.3752 68.8701 53.3933 70.5102 53.6591 71.3966C54.1011 72.8708 54.925 74.4608 55.879 75.6808L56.7561 76.8022L33.4878 76.7586L10.2197 76.7151L9.19221 76.3655C6.62744 75.4926 4.56373 73.4249 3.68681 70.8492L3.34067 69.8324L3.29783 41.7594C3.27438 26.3193 3.28971 13.596 3.33207 13.4856C3.3943 13.3234 8.19647 13.2849 28.3475 13.2849H53.2859L53.3319 41.8715ZM10.6273 18.5244C10.2496 18.6429 9.66609 19.008 9.33073 19.3357C8.29513 20.3475 8.24354 20.7346 8.297 27.0897L8.34359 32.6285L8.81496 33.3911C9.15813 33.9461 9.51412 34.2727 10.1228 34.5909L10.9589 35.0279H28.2999C43.6237 35.0279 45.7087 34.9996 46.2223 34.785C46.9552 34.4787 47.6067 33.8646 47.9905 33.118C48.2682 32.5775 48.2888 32.1378 48.2888 26.7387C48.2888 21.8584 48.2505 20.8479 48.0468 20.3603C47.7372 19.6189 47.2759 19.1282 46.4909 18.7055L45.8655 18.3687L28.5898 18.3387C14.2828 18.3138 11.196 18.3457 10.6273 18.5244ZM45.0056 26.7374V31.743H28.3553H11.7049V26.7374V21.7318H28.3553H45.0056V26.7374ZM66.7 52.85L66.6589 75.6778L66.1997 76.1573C65.7856 76.5898 65.6469 76.6369 64.7864 76.6369C61.1135 76.6369 57.6635 73.7757 56.9027 70.0985C56.7836 69.5227 56.7312 63.2768 56.7312 49.646V30.0223H61.7362H66.7411L66.7 52.85ZM60.9546 38.5805C60.6549 38.7344 60.3218 39.0363 60.2144 39.2514C59.9478 39.7851 59.9234 66.9376 60.189 67.4572C60.4905 68.0468 60.9915 68.3392 61.7071 68.3429C62.249 68.3457 62.4744 68.2553 62.8406 67.8891L63.2976 67.4319V53.4224V39.4128L62.8676 38.9406C62.3192 38.3383 61.6657 38.2154 60.9546 38.5805ZM9.20347 40.2326C8.66769 40.4992 8.21195 41.4675 8.3425 42.0622C8.39878 42.3183 8.65596 42.7057 8.91424 42.9232L9.38373 43.3184L16.6808 43.315C23.3585 43.3117 24.006 43.2886 24.3112 43.0413C25.1681 42.3467 25.23 41.3334 24.4624 40.5654L23.9308 40.0335L16.7626 40.0359C11.3668 40.0376 9.49771 40.0862 9.20347 40.2326ZM29.2152 40.2326C28.6794 40.4992 28.2236 41.4675 28.3542 42.0622C28.4105 42.3183 28.6676 42.7057 28.9259 42.9232L29.3954 43.3184H38.3852H47.3748L47.8318 42.8612C48.6196 42.073 48.3995 40.7196 47.4002 40.2082C46.8863 39.9453 29.7464 39.9683 29.2152 40.2326ZM8.91424 47.1551C8.32483 47.6514 8.17693 48.2783 8.47883 49.0013C8.91862 50.0547 8.83873 50.0447 16.7938 50.0447H23.9308L24.4624 49.5129C25.23 48.7448 25.1681 47.7315 24.3112 47.037C24.006 46.7897 23.3585 46.7665 16.6808 46.7632L9.38373 46.7598L8.91424 47.1551ZM28.9259 47.1551C28.3365 47.6514 28.1886 48.2783 28.4905 49.0013C28.9373 50.0714 28.6841 50.0447 38.3636 50.0447C44.4597 50.0447 47.1606 49.9924 47.4002 49.87C47.9894 49.5684 48.2816 49.067 48.2854 48.3511C48.2882 47.8089 48.1978 47.5834 47.8318 47.217L47.3748 46.7598H38.3852H29.3954L28.9259 47.1551ZM10.6273 53.5611C10.2496 53.6809 9.66702 54.0463 9.33277 54.3728C8.30607 55.3758 8.26542 55.688 8.26542 62.5587C8.26542 69.548 8.29794 69.7811 9.4175 70.8135C10.4483 71.7642 10.9037 71.8198 17.1895 71.7605L22.596 71.7095L23.3581 71.2379C23.9127 70.8945 24.2391 70.5383 24.5571 69.9294L24.9939 69.0928V62.5587V56.0245L24.5571 55.1879C24.2391 54.579 23.9127 54.2228 23.358 53.8794L22.5958 53.4078L16.955 53.3754C12.4943 53.3499 11.1704 53.3887 10.6273 53.5611ZM29.2653 53.5799C28.6534 53.8843 28.2175 54.7357 28.3543 55.3591C28.4863 55.9599 29.1357 56.5862 29.7408 56.6959C30.0106 56.7448 34.0891 56.7641 38.804 56.7389L47.3765 56.6927L47.8328 56.1819C48.4636 55.4753 48.4636 54.6253 47.8326 53.9187L47.3765 53.4078L38.5694 53.3703C30.8044 53.3371 29.7036 53.3618 29.2653 53.5799ZM21.7108 62.5587V68.3464H16.7079H11.7049V62.5587V56.7709H16.7079H21.7108V62.5587ZM29.2152 60.255C28.6794 60.5215 28.2236 61.4898 28.3542 62.0845C28.4105 62.3406 28.6676 62.7281 28.9259 62.9455L29.3954 63.3408H38.3852H47.3748L47.8318 62.8836C48.6196 62.0953 48.3995 60.7419 47.4002 60.2306C46.8863 59.9676 29.7464 59.9906 29.2152 60.255ZM28.9259 67.1774C28.3365 67.6737 28.1886 68.3007 28.4905 69.0237C28.9373 70.0938 28.6841 70.067 38.3636 70.067C44.4597 70.067 47.1606 70.0148 47.4002 69.8923C47.9894 69.5907 48.2816 69.0894 48.2854 68.3734C48.2882 67.8313 48.1978 67.6057 47.8318 67.2394L47.3748 66.7821H38.3852H29.3954L28.9259 67.1774Z" fill="#EA5B21"/>
</svg>
