<svg width="24" height="24" viewBox="0 0 24 24" fill="none" xmlns="http://www.w3.org/2000/svg">
<path fill-rule="evenodd" clip-rule="evenodd" d="M7.99799 21.9597C8.45122 21.8521 8.94694 21.5601 9.23752 21.2295C9.59677 20.8207 9.74954 20.4489 9.84764 19.7444C9.93123 19.1444 10.0092 18.766 10.1907 18.0804C10.4235 17.2007 10.3917 16.6845 10.0656 16.0563C9.96886 15.8699 9.73812 15.6053 9.16368 15.0217L8.39179 14.2376L8.51135 14.0201C8.70708 13.6641 9.31866 12.7433 9.61215 12.3627C10.7465 10.8919 12.1429 9.64199 13.7102 8.69452L14.2136 8.39014L14.969 9.14004C15.3845 9.55247 15.8065 9.94094 15.9068 10.0033C16.2328 10.2061 16.6114 10.3235 17.0163 10.3475C17.3663 10.3682 17.4483 10.3555 18.2456 10.157C18.7154 10.0401 19.3547 9.90717 19.6663 9.86168C20.3039 9.76853 20.5851 9.677 20.9406 9.44683C21.423 9.13461 21.8079 8.55788 21.9334 7.95969C22.0222 7.53579 22.0222 4.29356 21.9334 3.86965C21.7537 3.01258 21.1171 2.32525 20.2667 2.06999C19.321 1.7862 16.2478 2.39716 13.9326 3.32927C12.7737 3.79578 11.1947 4.6597 10.1221 5.41393C6.83977 7.72218 4.29254 11.094 2.99576 14.8471C2.40273 16.5635 1.95255 18.8079 2.00401 19.7916C2.05818 20.8267 2.75398 21.6755 3.76443 21.9391C3.97096 21.993 4.32517 22.0029 5.92991 21.9994C6.98512 21.997 7.91578 21.9792 7.99799 21.9597ZM4.10573 20.4146C3.89345 20.3556 3.63529 20.0915 3.57662 19.8733C3.46011 19.4399 3.87007 17.198 4.32804 15.7641C4.82548 14.2067 5.74051 12.365 6.67104 11.0481C9.59223 6.91423 13.9512 4.27398 18.9314 3.62187C19.564 3.53907 19.7997 3.53961 19.9666 3.62429C20.156 3.72032 20.2433 3.80563 20.3336 3.98275C20.4074 4.12753 20.4125 4.25324 20.4125 5.91509C20.4125 7.47106 20.4041 7.70919 20.345 7.82614C20.1862 8.14023 20.0023 8.24061 19.4541 8.31248C18.9421 8.37959 18.4249 8.48563 17.7244 8.66702C17.1504 8.81563 17.0077 8.82185 16.7871 8.70771C16.7298 8.67808 16.1969 8.16569 15.6028 7.56909L14.5228 6.48435L14.1027 6.69516C10.8848 8.30968 8.4045 10.7715 6.76151 13.9818L6.47756 14.5366L7.56782 15.6303C8.28686 16.3517 8.67987 16.7769 8.72208 16.8792C8.81076 17.0941 8.80263 17.2548 8.68204 17.6714C8.53752 18.1707 8.38658 18.8907 8.30932 19.4496C8.27349 19.7091 8.21606 19.9757 8.18177 20.0422C8.10822 20.1846 7.88115 20.3672 7.71575 20.4169C7.53948 20.4699 4.29708 20.4679 4.10573 20.4146Z" fill="white"/>
</svg>
