<svg width="81" height="80" viewBox="0 0 81 80" fill="none" xmlns="http://www.w3.org/2000/svg">
<path fill-rule="evenodd" clip-rule="evenodd" d="M36.7914 0.0505478C30.8017 0.743515 26.4683 1.96936 22.025 4.22756C10.3353 10.1686 2.45993 21.0673 0.390231 34.168C0.204321 35.3441 0.0976481 37.3436 0.0414878 40.7039C-0.0369431 45.3847 -0.0288741 45.5588 0.286463 45.9487C0.515301 46.232 1.49423 46.6914 3.57072 47.4899L6.52882 48.6278L7.26778 50.8302C7.6743 52.0415 8.50282 54.0465 9.10897 55.2857L10.2112 57.5388L8.88045 60.5454C7.98883 62.5601 7.57957 63.6698 7.64024 63.9088C7.77161 64.4268 15.833 72.4154 16.2226 72.4137C16.3961 72.4129 17.8438 71.8319 19.4399 71.1226C21.0359 70.4134 22.399 69.833 22.469 69.833C22.539 69.833 23.588 70.3214 24.8 70.9182C26.0121 71.5149 27.9826 72.3318 29.1787 72.7337L31.3538 73.4641L32.4693 76.3689C33.2034 78.281 33.7221 79.3979 33.9867 79.6369C34.3873 79.9989 34.4068 80 40.019 80C45.6311 80 45.6507 79.9989 46.0512 79.6369C46.3157 79.398 46.8339 78.2824 47.5659 76.3767L48.6786 73.4796L50.8874 72.7292C52.1023 72.3165 54.1049 71.4854 55.3375 70.8825L57.5788 69.7861L60.5932 71.1147C62.5724 71.9871 63.7275 72.4129 63.9572 72.3546C64.4704 72.2244 72.4567 64.1602 72.455 63.774C72.4542 63.6005 71.8732 62.1528 71.1639 60.5567C70.4547 58.9607 69.8743 57.5946 69.8743 57.5208C69.8743 57.4471 70.3538 56.4246 70.9396 55.2486C71.5256 54.0726 72.3426 52.1064 72.7551 50.8792L73.5054 48.6481L76.4102 47.5311C78.4123 46.7611 79.4335 46.2822 79.6964 45.9897L80.0778 45.5655L79.9966 40.714C79.9107 35.5804 79.755 34.0713 78.9634 30.6983C77.6832 25.244 74.9168 19.5527 71.3587 15.0541C70.1729 13.5547 66.3858 9.76613 64.9259 8.61872C59.4137 4.28646 52.815 1.43132 45.8287 0.355718C44.2194 0.107999 38.0856 -0.0992132 36.7914 0.0505478ZM38.7279 9.37236V16.2075L37.5297 16.3087C35.3409 16.4938 32.5228 17.2493 30.2672 18.256C29.7411 18.4908 29.2584 18.6267 29.1947 18.5581C29.1308 18.4895 27.7197 16.0732 26.0591 13.1885C24.3983 10.3038 22.9033 7.71902 22.7364 7.44435L22.4333 6.94504L23.843 6.25336C27.74 4.34117 32.7242 3.00429 37.2755 2.65022C37.6749 2.61924 38.165 2.58115 38.3648 2.56566L38.7279 2.53742V9.37236ZM45.3364 2.9625C48.8305 3.41743 52.9604 4.66457 56.1128 6.21673L57.6017 6.94988L57.2999 7.44677C57.134 7.72015 55.6396 10.3038 53.9788 13.1885C52.3182 16.0732 50.9075 18.4892 50.8439 18.5575C50.7804 18.6257 50.2614 18.4708 49.6906 18.2131C47.4734 17.2121 43.6784 16.2547 41.9271 16.2547H41.31V9.39157V2.52838L42.3993 2.62521C42.9984 2.67847 44.3202 2.83016 45.3364 2.9625ZM23.6151 14.1738C25.4645 17.3784 26.9163 20.0512 26.8414 20.113C26.7664 20.175 26.2723 20.5486 25.7431 20.9433C23.8816 22.332 21.4722 24.8347 20.3215 26.5747L20.0706 26.9543L14.2698 23.6063C11.0794 21.7648 8.43876 20.2287 8.40164 20.1928C8.28044 20.0754 8.74005 19.357 10.0672 17.5894C11.5502 15.6144 14.1833 12.8253 15.9723 11.3344C17.4376 10.1133 19.865 8.35389 20.0899 8.35002C20.1795 8.3484 21.7659 10.9691 23.6151 14.1738ZM61.0205 9.00764C62.8567 10.2546 65.1155 12.1818 66.8902 14.0154C69.0485 16.2456 71.8914 19.9458 71.6363 20.1928C71.5992 20.2287 68.9585 21.7648 65.7682 23.6063L59.9674 26.9543L59.7164 26.5747C58.5658 24.8347 56.1564 22.332 54.2948 20.9433C53.7657 20.5486 53.2715 20.175 53.1966 20.1132C53.0482 19.9905 59.6957 8.34711 59.9141 8.34711C59.9877 8.34711 60.4855 8.64438 61.0205 9.00764ZM44.7873 19.2973C51.2202 20.9119 56.3342 25.0324 59.1374 30.8597C61.4236 35.6125 61.8171 41.4191 60.1952 46.4736C57.9729 53.3997 52.2798 58.6991 45.0355 60.585C42.9538 61.1269 38.9206 61.275 36.6048 60.8947C27.701 59.4321 20.5525 52.3104 19.1196 43.4751C18.6091 40.3279 18.8902 36.4525 19.8453 33.471C22.2048 26.1051 28.7298 20.4245 36.3777 19.0781C38.2994 18.7398 43.0603 18.8639 44.7873 19.2973ZM13.2298 26.0134C16.1145 27.6732 18.5315 29.0856 18.601 29.1519C18.6706 29.2183 18.5115 29.7539 18.2476 30.3421C17.2329 32.6037 16.296 36.3134 16.296 38.0695V38.6866H9.43286H2.56967L2.6665 37.5973C3.1358 32.3127 4.31097 27.8443 6.29465 23.8017L6.98633 22.392L7.48564 22.6938C7.76031 22.8599 10.3451 24.3538 13.2298 26.0134ZM75.2596 27.3971C76.3027 30.3011 77.0517 33.9162 77.373 37.5973L77.4682 38.6866H70.6288H63.7892L63.688 37.4884C63.503 35.301 62.7473 32.4814 61.7422 30.2296C61.5084 29.7056 61.3596 29.2336 61.4117 29.1807C61.4637 29.1277 64.0971 27.5837 67.2638 25.7491L73.0212 22.4138L73.8614 24.1287C74.3236 25.0719 74.9528 26.5427 75.2596 27.3971ZM45.1933 32.9465L42.359 35.7595L41.8748 35.489C41.5282 35.2954 41.001 35.2182 40.019 35.2178C38.8013 35.2171 38.5507 35.2704 37.7888 35.6924C36.8291 36.2241 36.1629 36.9111 35.6242 37.9246C35.1041 38.9032 35.1041 41.0521 35.6242 42.0307C36.1629 43.0442 36.8291 43.7312 37.7888 44.263C38.5502 44.6846 38.8022 44.7384 40.019 44.7384C41.2358 44.7384 41.4877 44.6846 42.2491 44.263C43.2088 43.7312 43.875 43.0442 44.4137 42.0307C44.8814 41.1509 44.9357 38.8882 44.5076 38.1218L44.2371 37.6376L47.0501 34.8033C49.6214 32.2125 49.8632 31.9203 49.8632 31.4021C49.8632 30.667 49.3201 30.1335 48.572 30.1335C48.083 30.1335 47.7392 30.4198 45.1933 32.9465ZM41.296 38.1618C42.6664 39.1653 42.4981 41.1628 40.9758 41.963C39.4859 42.7461 37.6139 41.433 37.82 39.7496C38.0248 38.0774 39.9684 37.1895 41.296 38.1618ZM16.296 41.8931C16.296 42.9112 16.7532 45.27 17.2848 46.9953C19.9061 55.5012 27.2501 61.9396 36.0651 63.46C38.1437 63.8184 41.9696 63.8215 43.9728 63.4659C52.8703 61.8875 60.1507 55.5042 62.7555 46.9977C63.286 45.265 63.7419 42.9061 63.7419 41.8931V41.2687H70.6005H77.4592V42.7899V44.3111L75.7244 44.9816C74.7703 45.3503 73.4334 45.8669 72.7535 46.1293C72.0738 46.3917 71.4454 46.6945 71.3569 46.802C71.2685 46.9096 70.9648 47.7965 70.6819 48.7729C70.0207 51.0548 69.3021 52.7948 67.9742 55.328L66.907 57.3643L68.2113 60.3292L69.5156 63.2941L68.2539 64.6674C67.5601 65.4227 66.2007 66.826 65.233 67.7858L63.4737 69.5311L60.5377 68.2296C58.9231 67.5138 57.5289 66.9282 57.4398 66.9282C57.3506 66.9282 56.3174 67.4328 55.1438 68.0496C52.7532 69.306 50.8395 70.0838 48.5721 70.7209C47.7289 70.9579 46.9511 71.2246 46.8436 71.3137C46.7363 71.4029 46.3491 72.25 45.9833 73.1962C45.6176 74.1424 45.1012 75.4794 44.8355 76.1672L44.3528 77.4179H40.0191H35.6856L35.015 75.6831C34.6463 74.7288 34.1297 73.3921 33.8673 72.7122C33.6049 72.0325 33.3021 71.4041 33.1947 71.3156C33.087 71.2272 32.2001 70.9235 31.2237 70.6406C28.9407 69.9791 27.2018 69.2608 24.6643 67.9307L22.6233 66.8609L19.8228 68.0987C18.2825 68.7794 16.9391 69.3573 16.8375 69.3829C16.736 69.4086 15.2629 68.0735 13.564 66.4161L10.4754 63.4025L11.6681 60.6871C12.3243 59.1935 12.9114 57.8116 12.9732 57.6161C13.0562 57.3528 12.8143 56.7461 12.0398 55.276C10.7417 52.8121 10.019 51.0608 9.35604 48.7729C9.07314 47.7965 8.76942 46.9096 8.68099 46.802C8.59255 46.6945 7.96413 46.3917 7.2844 46.1293C6.60451 45.8669 5.26779 45.3503 4.31355 44.9816L2.57871 44.3111V42.7899V41.2687H9.43738H16.296V41.8931Z" fill="#EA5B21"/>
</svg>
