<svg width="80" height="80" viewBox="0 0 80 80" fill="none" xmlns="http://www.w3.org/2000/svg">
<path fill-rule="evenodd" clip-rule="evenodd" d="M11.9429 0.305863C9.12227 1.20818 7.0819 3.58577 6.6165 6.51227C6.43031 7.68299 6.40291 7.73687 5.99151 7.73687C5.18742 7.73687 3.51508 8.37465 2.71002 8.98808C-1.52161 12.2135 -0.467817 18.7067 4.54808 20.3129C5.59027 20.6466 5.7979 20.6515 17.0534 20.6063L28.499 20.5603L29.3008 20.1655C30.3235 19.6621 31.3089 18.676 31.8121 17.6527C32.134 16.9982 32.2067 16.6054 32.2067 15.5197V14.1889H44.4604H56.7142L56.9072 15.0019C57.0134 15.4492 57.2531 16.0299 57.44 16.2923C57.7762 16.7651 57.7766 16.7741 57.4709 17.2133C56.9333 17.986 56.7905 18.7026 56.7914 20.6247C56.7926 23.0617 56.9484 23.5865 57.9769 24.6155C59.0285 25.6678 59.514 25.8006 62.3117 25.8017L64.5283 25.8027V38.681V51.5593L63.3638 51.7675C58.3332 52.6671 54.1193 56.2875 52.421 61.1695C52.1668 61.9007 51.9577 62.662 51.9564 62.8617L51.9543 63.2246H35.6726H19.3909V62.7701C19.3909 62.0349 18.9161 60.6219 18.3911 59.7944C17.844 58.9324 16.6994 57.8605 15.9907 57.5467L15.522 57.3391V49.3133V41.2876H21.3253H27.1287V47.9889V54.6903L27.5245 55.0862L27.9201 55.4822H40.0251H52.1302L52.5258 55.0862L52.9215 54.6903V39.9972V25.3041L52.5258 24.9082L52.1302 24.5122H40.0251H27.9201L27.5245 24.9082L27.1287 25.3041V32.0055V38.7068H20.4315H13.734L13.3384 39.1028L12.9427 39.4986V48.1131V56.7276L12.1149 56.8258C11.0097 56.9568 9.42663 57.7183 8.5184 58.5559C8.058 58.9806 7.55214 59.6973 7.17717 60.4567C6.60828 61.6084 6.57523 61.7605 6.57668 63.2162C6.57813 64.5612 6.63552 64.8801 7.0279 65.7248C7.27502 66.2571 7.69448 66.9644 7.95999 67.2965L8.44247 67.9004L7.56116 68.2905C3.49299 70.0906 0.530687 74.2803 0.108491 78.8306L0 80H1.27997H2.55994L2.74452 78.7322C3.1082 76.236 3.98322 74.4614 5.69538 72.7484C8.55193 69.8901 12.6011 68.9692 16.4154 70.3106C17.8283 70.8076 19.0188 71.5763 20.19 72.7484C21.9021 74.4614 22.7772 76.236 23.1408 78.7322L23.3254 80H24.5643H25.8031L25.9152 79.4027C26.2766 77.475 27.7721 76.2202 29.708 76.2202C31.6439 76.2202 33.1394 77.475 33.5008 79.4027L33.6129 80H34.907H36.2012L36.1017 79.1532C35.9129 77.5458 34.4861 75.2924 33.2016 74.5732C32.9408 74.4272 32.9413 74.3864 33.2107 73.8622C33.5866 73.1302 33.5919 71.2478 33.22 70.554C32.8899 69.9383 32.0377 69.0879 31.4007 68.7386C30.7367 68.3743 28.679 68.3758 28.0055 68.7408C27.3862 69.0765 26.5371 69.9307 26.1937 70.5639C25.8254 71.2429 25.8304 73.1323 26.2024 73.8563C26.358 74.1591 26.4668 74.414 26.4442 74.4227C26.4217 74.4314 26.1041 74.6696 25.7385 74.9524L25.0735 75.4663L24.4979 74.3009C23.1602 71.5926 20.6191 69.1336 18.1272 68.1359L17.4779 67.8759L18.1523 66.852L18.8267 65.828L35.207 65.8167L51.5874 65.8055L51.6977 67.0228C52.1426 71.9356 55.2314 76.3356 59.7392 78.4775C61.6584 79.3895 62.9301 79.6968 65.1849 79.7929C68.2778 79.925 70.6771 79.3138 73.3457 77.7145C74.5399 76.9988 76.4731 75.1824 77.3348 73.9665C82.4329 66.7728 79.9049 56.7724 72.0243 52.9597C70.5769 52.2595 68.4329 51.6109 67.5654 51.6109H67.1076V38.7068V25.8027H71.7532C76.9953 25.8027 77.6423 25.7041 78.7047 24.7437C79.0435 24.4376 79.481 23.8136 79.6772 23.3575C79.9988 22.6095 80.0283 22.3127 79.9785 20.3342C79.9277 18.3116 79.8905 18.0847 79.5028 17.4282L79.0822 16.716L79.5566 15.8155C80.0262 14.924 80.0304 14.8917 79.9772 12.6562C79.9273 10.5622 79.8928 10.3459 79.5028 9.68571L79.0822 8.97357L79.5566 8.07302C80.0267 7.18054 80.0306 7.15183 79.9742 4.91409C79.9118 2.44537 79.8167 2.12422 78.859 1.15221C77.7395 0.0161649 78.312 0.07504 68.3972 0.07504C58.4947 0.07504 59.0475 0.0190683 57.9313 1.13592C57.0131 2.05453 56.8862 2.46585 56.8185 4.74117C56.7531 6.94326 56.894 7.78074 57.4645 8.5837C57.7783 9.02551 57.7783 9.02922 57.44 9.50473C57.2531 9.76717 57.0134 10.3479 56.9072 10.7951L56.7142 11.6081H43.5429C34.7723 11.6081 30.338 11.5533 30.2703 11.4437C30.0714 11.1216 28.5418 10.4593 27.7918 10.3704C27.0602 10.2838 27.0138 10.2469 26.6575 9.46973C25.9385 7.90156 24.3133 6.69825 22.6475 6.50097C21.8675 6.40839 21.833 6.3829 21.7298 5.82077C21.4171 4.11581 19.686 1.84742 17.9955 0.927197C16.2687 -0.0128694 13.7479 -0.271759 11.9429 0.305863ZM2.94602 1.68999L2.06858 2.57893L2.99197 3.50286L3.91519 4.42664L4.83841 3.50286L5.76179 2.57893L4.88435 1.68999C4.40171 1.20093 3.96565 0.800897 3.91519 0.800897C3.86473 0.800897 3.42867 1.20093 2.94602 1.68999ZM23.5803 1.68999L22.7028 2.57893L23.6262 3.50286L24.5494 4.42664L25.4727 3.50286L26.396 2.57893L25.5186 1.68999C25.036 1.20093 24.5999 0.800897 24.5494 0.800897C24.499 0.800897 24.0629 1.20093 23.5803 1.68999ZM16.3644 3.0988C18.1012 3.89434 19.1431 5.45171 19.3719 7.59395C19.5274 9.05083 19.8993 9.4515 20.9199 9.26181C22.1526 9.0326 22.8373 9.09535 23.388 9.48764C24.0426 9.95396 24.5478 10.9221 24.5546 11.7226C24.5639 12.8411 25.3023 13.3682 26.4204 13.055C27.6788 12.7025 28.7951 13.1923 29.3893 14.3573C29.9753 15.5068 29.6758 16.7314 28.6097 17.545L28.0405 17.9795H16.7436C6.03036 17.9795 5.41746 17.964 4.88242 17.6789C4.08897 17.2559 3.45882 16.6349 3.06 15.8826C2.61168 15.0367 2.58783 13.3876 3.01212 12.5759C3.89181 10.8929 5.72649 10.0115 7.40737 10.4643C8.29755 10.7042 8.86048 10.4817 9.15629 9.77314C9.3241 9.3715 9.34345 9.08309 9.22915 8.68451C9.01201 7.92704 9.03506 7.28087 9.31201 6.34742C10.2185 3.29317 13.4945 1.78419 16.3644 3.0988ZM76.674 2.75426C77.2561 3.01976 77.4247 3.55916 77.4247 5.15604C77.4247 6.75293 77.2561 7.29232 76.674 7.55782C76.1239 7.80849 60.6705 7.80849 60.1205 7.55782C59.5384 7.29232 59.3697 6.75293 59.3697 5.15604C59.3697 3.59803 59.5388 3.02283 60.0732 2.76394C60.5691 2.5236 76.1483 2.51473 76.674 2.75426ZM72.6619 4.26162C71.8622 5.06168 72.4288 6.44645 73.5558 6.44645C74.2185 6.44645 74.8454 5.81915 74.8454 5.15604C74.8454 4.49293 74.2185 3.86563 73.5558 3.86563C73.2418 3.86563 72.9113 4.01193 72.6619 4.26162ZM76.674 10.4967C77.2561 10.7622 77.4247 11.3016 77.4247 12.8985C77.4247 14.4954 77.2561 15.0348 76.674 15.3003C76.1239 15.551 60.6705 15.551 60.1205 15.3003C59.5384 15.0348 59.3697 14.4954 59.3697 12.8985C59.3697 11.3405 59.5388 10.7653 60.0732 10.5064C60.5691 10.2661 76.1483 10.2572 76.674 10.4967ZM72.6619 12.0041C71.8622 12.8042 72.4288 14.1889 73.5558 14.1889C74.2185 14.1889 74.8454 13.5616 74.8454 12.8985C74.8454 12.2354 74.2185 11.6081 73.5558 11.6081C73.2418 11.6081 72.9113 11.7544 72.6619 12.0041ZM76.674 18.2392C77.2561 18.5047 77.4247 19.0441 77.4247 20.641C77.4247 22.2379 77.2561 22.7773 76.674 23.0428C76.4032 23.1662 73.8318 23.2218 68.3972 23.2218C62.9627 23.2218 60.3913 23.1662 60.1205 23.0428C59.5384 22.7773 59.3697 22.2379 59.3697 20.641C59.3697 19.083 59.5388 18.5078 60.0732 18.2489C60.5691 18.0086 76.1483 17.9997 76.674 18.2392ZM72.6619 19.7466C71.8622 20.5466 72.4288 21.9314 73.5558 21.9314C74.2185 21.9314 74.8454 21.3041 74.8454 20.641C74.8454 19.9779 74.2185 19.3506 73.5558 19.3506C73.2418 19.3506 72.9113 19.4969 72.6619 19.7466ZM8.10459 23.627L7.22715 24.5159L8.15053 25.4399L9.07375 26.3637L9.99697 25.4399L10.9204 24.5159L10.0429 23.627C9.56027 23.1379 9.12421 22.7379 9.07375 22.7379C9.02329 22.7379 8.58723 23.1379 8.10459 23.627ZM18.4217 23.627L17.5443 24.5159L18.4677 25.4399L19.3909 26.3637L20.3141 25.4399L21.2375 24.5159L20.36 23.627C19.8774 23.1379 19.4413 22.7379 19.3909 22.7379C19.3404 22.7379 18.9044 23.1379 18.4217 23.627ZM50.3423 39.9972V52.9013H40.0251H29.708V39.9972V27.0931H40.0251H50.3423V39.9972ZM32.2873 32.2547V33.5451H40.0251H47.763V32.2547V30.9643H40.0251H32.2873V32.2547ZM32.2873 37.4164V38.7068H37.4459H42.6044V37.4164V36.126H37.4459H32.2873V37.4164ZM45.1837 37.4164V38.7068H46.4733H47.763V37.4164V36.126H46.4733H45.1837V37.4164ZM32.2873 42.578V43.8684H40.0251H47.763V42.578V41.2876H40.0251H32.2873V42.578ZM32.2873 47.7397V49.0301H37.4459H42.6044V47.7397V46.4493H37.4459H32.2873V47.7397ZM45.1837 47.7397V49.0301H46.4733H47.763V47.7397V46.4493H46.4733H45.1837V47.7397ZM67.9729 54.4245C73.8904 55.5575 78.0513 61.1937 77.3098 67.072C76.9545 69.8885 75.994 71.8877 74.0394 73.8788C69.47 78.5334 62.2685 78.571 57.6643 73.9639C54.457 70.7548 53.424 66.2239 54.9187 61.9229C55.5032 60.2415 56.2296 59.1203 57.6771 57.6655C59.1092 56.2261 60.2388 55.491 61.9145 54.9079C63.9854 54.1872 65.9251 54.0325 67.9729 54.4245ZM14.655 59.8087C16.0041 60.5028 16.7202 61.6873 16.7202 63.2246C16.7202 65.4422 15.1594 67.0033 12.9427 67.0033C10.7259 67.0033 9.16515 65.4422 9.16515 63.2246C9.16515 61.4181 10.168 60.0865 11.9745 59.4947C12.5953 59.2913 13.96 59.4511 14.655 59.8087ZM70.4929 59.9305C70.166 60.0709 68.5945 61.5042 66.7553 63.34L63.582 66.5073L62.5323 65.5246C61.2891 64.361 60.2902 64.0189 59.0846 64.3437C57.8225 64.6838 56.642 66.1164 56.6328 67.3191C56.6238 68.5094 56.9668 69.0604 59.0399 71.1841C61.5218 73.7267 62.1217 74.1146 63.5611 74.107C64.2447 74.1035 64.8049 74.0007 65.1731 73.8112C65.8397 73.4679 74.2417 65.0582 74.574 64.4016C74.9607 63.6377 75.0244 62.859 74.7703 62.0031C74.2349 60.1989 72.1841 59.2053 70.4929 59.9305ZM72.2662 62.5794C72.3803 62.7928 72.3856 62.9977 72.2819 63.1843C72.1957 63.3395 70.3252 65.259 68.1253 67.4498C65.5046 70.0595 63.9705 71.4704 63.6763 71.5415C63.2678 71.6404 63.0602 71.4854 61.3659 69.8165C60.3421 68.8081 59.4381 67.8612 59.357 67.7124C59.1611 67.3527 59.3233 66.971 59.727 66.8429C59.9867 66.7604 60.3416 67.0236 61.4449 68.1174C62.947 69.6064 63.4237 69.8428 64.1482 69.4586C64.4016 69.3243 66.1679 67.649 68.0734 65.7356C69.9788 63.8223 71.6629 62.2568 71.8157 62.2568C71.9686 62.2568 72.1712 62.402 72.2662 62.5794ZM30.2537 71.1494C31.1879 71.5752 31.1398 72.9937 30.1778 73.3924C29.1641 73.8125 28.1525 72.8053 28.5715 71.7931C28.8673 71.0786 29.5366 70.8224 30.2537 71.1494Z" fill="#EA5B21"/>
</svg>
