<svg width="30" height="30" viewBox="0 0 30 30" fill="none" xmlns="http://www.w3.org/2000/svg">
<path d="M20.1448 18.2005C21.2274 16.7221 21.8749 14.9061 21.8749 12.9375C21.8749 8.00955 17.8654 4 12.9374 4C8.00948 4 4 8.00955 4 12.9375C4 17.8655 8.00952 21.8751 12.9375 21.8751C14.9061 21.8751 16.7222 21.2274 18.2005 20.1448L24.0557 26L26 24.0557C26 24.0556 20.1448 18.2005 20.1448 18.2005ZM12.9375 19.125C9.5255 19.125 6.75001 16.3495 6.75001 12.9375C6.75001 9.52553 9.5255 6.75003 12.9375 6.75003C16.3495 6.75003 19.125 9.52553 19.125 12.9375C19.125 16.3495 16.3494 19.125 12.9375 19.125Z" fill="#1D4687"/>
</svg>
