<svg width="80" height="80" viewBox="0 0 80 80" fill="none" xmlns="http://www.w3.org/2000/svg">
<path fill-rule="evenodd" clip-rule="evenodd" d="M51.9972 0.314155C51.2449 0.711531 51.1621 0.871544 50.2335 3.72099L49.451 6.12181L48.046 6.62623C47.2732 6.90375 46.2227 7.34363 45.7117 7.60381L44.7827 8.07666L42.548 6.91297C40.2003 5.69037 39.4236 5.49958 38.5689 5.93571C38.058 6.19651 35.65 8.57654 35.3795 9.08799C34.8904 10.0131 35.0714 10.8034 36.3153 13.1755L37.4741 15.3854L36.993 16.323C36.7284 16.8386 36.2858 17.8901 36.0095 18.6597L35.5072 20.059L33.5004 20.7302L31.4937 21.4015H16.6293H1.76501L1.23407 21.7543C0.942035 21.9484 0.544846 22.4203 0.351564 22.8032C0.0460939 23.4079 0 23.7411 0 25.3462C0 26.5527 0.0739065 27.3701 0.213126 27.7034C0.486252 28.3572 1.25141 28.9995 2.03829 29.2353L2.65626 29.4204V53.6061C2.65626 70.3145 2.70767 77.928 2.82251 78.2319C3.04861 78.8305 3.72283 79.5246 4.33095 79.7848C4.74986 79.9641 8.47738 80 26.6807 80H48.5277L49.2243 79.6484C49.6832 79.4167 50.04 79.0837 50.2704 78.6718L50.62 78.0467L50.6304 63.2799L50.6408 48.5131L50.9641 49.1797C51.5461 50.3802 51.9358 50.537 54.4838 50.595C56.9865 50.6518 57.6155 50.4856 58.136 49.6299C58.2934 49.371 58.7523 48.1237 59.1557 46.8582L59.889 44.5576L60.9212 44.2191C61.4888 44.033 62.541 43.6056 63.2592 43.2692L64.5651 42.6577L66.8596 43.8275C70.0501 45.4539 70.3892 45.4219 72.5164 43.2944C74.6581 41.1526 74.6931 40.7728 73.042 37.5901L71.865 35.3215L72.3981 34.2603C72.6912 33.6769 73.1239 32.6285 73.3597 31.9306L73.7881 30.6621L76.1003 29.9312C79.8041 28.7607 79.9997 28.5344 80 25.4203C80.0005 22.2455 79.8484 22.0573 76.3341 20.8832L73.8669 20.0589L73.5903 19.1647C73.4381 18.673 73.0123 17.6367 72.644 16.8616L71.9745 15.4527L73.1975 13.0678C74.3528 10.8145 74.4144 10.6436 74.3131 9.96775C74.199 9.20738 73.3679 8.11448 71.8657 6.74983C70.3978 5.41629 69.8567 5.43816 66.9434 6.94969L64.6798 8.12416L63.3946 7.50708C62.6879 7.16752 61.6404 6.74015 61.0668 6.55716C60.1605 6.26823 60.0007 6.15932 59.846 5.72647C59.7482 5.45254 59.3537 4.3162 58.9696 3.20142C57.9288 0.181644 57.6654 -0.010246 54.5755 0.000379866C52.9008 0.00616159 52.4844 0.056947 51.9972 0.314155ZM56.7971 5.1808C57.2268 6.57044 57.719 7.87133 57.8909 8.07182C58.093 8.30777 58.6171 8.54779 59.3752 8.75203C60.0198 8.92564 61.4096 9.49146 62.4638 10.0095C63.8673 10.6992 64.4738 10.9222 64.7295 10.8425C64.9213 10.7828 66.1265 10.21 67.4075 9.56959L69.7364 8.40528L70.6706 9.33958L71.6047 10.2737L70.3337 12.6984C69.6346 14.0318 69.0628 15.314 69.0628 15.5474C69.0628 15.7809 69.3348 16.4728 69.6673 17.085C70.3048 18.2589 70.9709 19.9273 71.257 21.0679C71.3512 21.4431 71.5823 21.9001 71.7706 22.0836C71.9868 22.2944 73.0753 22.7049 74.7269 23.1985L77.3408 23.9798L77.3423 25.3202L77.3441 26.6607L74.7683 27.4809C73.3517 27.932 72.0565 28.4188 71.8903 28.5625C71.7239 28.7063 71.4064 29.432 71.1847 30.1752C70.9628 30.9182 70.3907 32.3097 69.9134 33.2673C69.2843 34.5293 69.0751 35.1035 69.1532 35.3539C69.2123 35.544 69.7823 36.7431 70.4198 38.0183L71.5787 40.3371L71.1756 40.8656C70.9539 41.1562 70.5289 41.58 70.2309 41.8072L69.6893 42.2204L67.204 40.9523C65.8371 40.2549 64.6207 39.6842 64.501 39.6842C64.3813 39.6842 63.4759 40.0938 62.4888 40.5945C61.502 41.0951 60.134 41.6559 59.4488 41.8408C58.6394 42.0591 58.094 42.3029 57.8909 42.537C57.719 42.7351 57.2277 44.0377 56.7993 45.4316L56.0201 47.9661H54.6766H53.333L52.5985 45.6613C51.484 42.1638 51.6841 42.4398 49.8514 41.8742C48.9889 41.608 47.5066 40.9956 46.5575 40.5134L44.8319 39.6364L42.1777 40.9439L39.5234 42.2513L38.6291 41.3545L37.7345 40.4579L39.0237 37.9224C39.7327 36.5279 40.3128 35.294 40.3128 35.1804C40.3127 35.0668 39.9259 34.1982 39.4534 33.25C38.9808 32.3019 38.4103 30.9182 38.1858 30.1752C37.9612 29.432 37.6803 28.7133 37.5616 28.5782C37.4428 28.443 36.1498 27.9561 34.6884 27.496L32.0314 26.6596L32.0322 25.3198L32.0329 23.9798L34.7275 23.1173C37.7831 22.1392 37.6125 22.2855 38.2789 20.0733C38.4602 19.4716 39.0053 18.1801 39.4903 17.2033L40.372 15.4271L39.0705 12.8728C37.5892 9.96556 37.5933 10.1104 38.9625 8.9883L39.6577 8.41856L42.0684 9.67523C43.3944 10.3664 44.6594 10.9319 44.8794 10.9319C45.0994 10.9319 45.9467 10.5848 46.7622 10.1607C47.5777 9.73664 48.9575 9.16831 49.8285 8.89766C51.1404 8.49013 51.4475 8.33434 51.6204 7.989C51.735 7.75976 52.1668 6.46481 52.5799 5.11111L53.3308 2.64997L54.6733 2.65216L56.0158 2.65419L56.7971 5.1808ZM53.2033 10.7162C50.4882 11.1244 48.5744 11.8192 46.6225 13.1052C43.5906 15.1027 41.417 18.1337 40.4488 21.7142C39.9473 23.5687 39.9441 27.1318 40.442 28.9574C40.8386 30.411 41.9217 32.7298 42.7155 33.8244C44.7164 36.5841 47.733 38.646 51.0939 39.5511C52.9746 40.0575 56.1977 40.0638 58.1723 39.565C63.5902 38.1961 67.7784 33.8783 69.009 28.3932C69.4181 26.5697 69.35 23.5595 68.8571 21.6815C67.2034 15.3794 61.7774 10.9992 55.2729 10.7156C54.3924 10.6772 53.4611 10.6775 53.2033 10.7162ZM57.5002 13.6959C58.8916 14.0173 60.8712 14.99 62.0585 15.9356C63.8912 17.3952 65.186 19.2363 65.984 21.517C66.3945 22.6905 66.4726 23.1668 66.5306 24.8524C66.6115 27.2081 66.2987 28.7238 65.3242 30.6991C64.3138 32.7468 62.9812 34.2008 60.8987 35.5275L60.0002 36.0997V34.6054V33.111L61.1363 31.9833C63.0409 30.0924 63.9131 28.0177 63.9181 25.3663C63.9221 23.1427 63.3534 21.4063 62.056 19.6826C60.4045 17.4882 58.6754 16.8394 57.1746 17.8509C56.1826 18.5194 56.024 19.0154 55.9638 21.6359L55.9099 23.9798L55.266 24.6443L54.6221 25.3087L53.9518 24.6508L53.2815 23.993V21.666C53.2815 19.0482 53.1452 18.5458 52.2497 17.8626C51.0674 16.9608 49.6211 17.2704 48.1636 18.7374C44.3611 22.5647 44.4921 28.6536 48.4539 32.2392L49.3752 33.0731V34.5035C49.3752 35.4025 49.3139 35.9339 49.2104 35.9339C48.8958 35.9339 47.1053 34.6199 46.2983 33.797C44.848 32.3178 43.8444 30.5672 43.2502 28.48C42.7606 26.7607 42.7606 24.0117 43.2502 22.2923C43.852 20.1784 44.8731 18.4102 46.3374 16.9458C49.2908 13.992 53.4902 12.7694 57.5002 13.6959ZM50.6261 22.1437C50.6272 24.7438 50.7482 25.1362 51.9299 26.3749C53.8769 28.4158 55.2396 28.4819 57.1816 26.6294C58.518 25.3545 58.594 25.129 58.594 22.4327C58.594 20.8135 58.6463 20.1514 58.7743 20.1514C58.8734 20.1514 59.2132 20.4317 59.5295 20.7743C60.889 22.247 61.5521 24.3686 61.2537 26.2916C60.9545 28.2211 60.2504 29.2924 57.9888 31.2601L57.344 31.8212V34.4215V37.0218L56.9143 37.142C56.3568 37.2979 53.0186 37.2979 52.4611 37.142L52.0315 37.0218V34.4215V31.8212L51.3866 31.2601C49.1203 29.2882 48.4564 28.2916 48.1191 26.3544C47.8888 25.0316 48.1128 23.599 48.7443 22.3575C49.2061 21.4496 50.2282 20.1514 50.4811 20.1514C50.5614 20.1514 50.6255 21.0326 50.6261 22.1437ZM29.3423 25.3471L29.297 26.6363L15.9766 26.6763L2.65626 26.7161V25.3871V24.058H16.0219H29.3878L29.3423 25.3471ZM33.6418 29.9594L35.4867 30.5429L35.8765 31.7022C36.0911 32.3399 36.5239 33.3895 36.8386 34.0349L37.4106 35.2081L36.2853 37.4072C35.6664 38.6165 35.1187 39.79 35.0684 40.0149C34.8792 40.8595 35.263 41.6277 36.5251 42.9311C38.8302 45.3112 39.2405 45.3634 42.4927 43.6889L44.7302 42.537L46.1724 43.2201C46.9655 43.5959 47.6942 43.9033 47.7917 43.9033C47.9227 43.9033 47.9689 48.2612 47.9689 60.6234V77.3435H41.3283H34.6876V70.7024V64.0612H35.3176C36.1258 64.0612 36.9556 63.7134 37.1894 63.2766C37.2939 63.0814 37.3301 62.7086 37.2739 62.4084C37.0773 61.3607 37.5445 61.4047 26.6332 61.4047H16.7733L16.4568 61.7563C16.0048 62.2586 15.9271 62.5781 16.1216 63.136C16.3223 63.712 17.0179 64.0612 17.9638 64.0612H18.5938V70.7024V77.3435H11.9532H5.31252V53.3572V29.3709L18.5548 29.3734L31.797 29.376L33.6418 29.9594ZM9.79441 33.4981C9.01269 33.7844 8.61316 34.1549 8.26269 34.9182C8.01456 35.4586 7.97566 35.9669 7.97566 38.6685C7.97566 41.3701 8.01456 41.8785 8.26269 42.4188C8.90972 43.8282 9.55785 44.0438 13.173 44.0527C16.8698 44.0618 17.5087 43.8844 18.2685 42.6381C18.5704 42.1429 18.5927 41.8717 18.5932 38.6921C18.594 34.8032 18.5188 34.4802 17.4485 33.7714C16.8255 33.3587 16.7965 33.3553 13.6057 33.3176C11.1635 33.2889 10.2474 33.3321 9.79441 33.4981ZM23.2487 33.4318C22.5767 33.6345 21.9348 34.1644 21.6599 34.7434C21.4499 35.186 21.4065 35.8649 21.407 38.6921C21.4074 41.8717 21.4298 42.1429 21.7316 42.6381C22.4846 43.8732 23.1384 44.0608 26.6709 44.0558C30.3598 44.0507 30.9837 43.856 31.6798 42.4938C32.0103 41.8471 32.0312 41.6172 32.0279 38.6745C32.025 35.9717 31.9853 35.4578 31.7375 34.9182C31.0803 33.4867 30.4593 33.2893 26.6407 33.2978C25.0079 33.3014 23.4815 33.3617 23.2487 33.4318ZM15.9376 38.6723V41.4106L13.3204 41.3678L10.7032 41.325L10.66 38.831C10.6361 37.4594 10.6516 36.2464 10.6941 36.1355C10.753 35.9822 11.3894 35.9339 13.3546 35.9339H15.9376V38.6723ZM29.297 38.6685V41.325L26.6798 41.3678L24.0626 41.4106V38.6685V35.9264L26.6798 35.9692L29.297 36.0121V38.6685ZM9.59707 48.2579C8.85347 48.601 8.34863 49.1869 8.11378 49.9796C8.01097 50.3267 7.96581 51.7541 7.99675 53.6818C8.04628 56.7784 8.05222 56.8272 8.46269 57.4468C9.17191 58.5175 9.49285 58.592 13.399 58.592C16.7077 58.592 16.8474 58.5795 17.356 58.2367C17.646 58.0413 18.0432 57.6441 18.2385 57.3541C18.5813 56.8455 18.5938 56.7058 18.5938 53.3967C18.5938 49.4903 18.5193 49.1694 17.4485 48.4601C16.8246 48.0468 16.8015 48.044 13.5277 48.0041C10.5811 47.9682 10.1674 47.9949 9.59707 48.2579ZM22.8501 48.2959C22.484 48.4771 22.027 48.8462 21.8345 49.1161C21.5001 49.585 21.4824 49.7672 21.4376 53.2053C21.3915 56.7498 21.3962 56.8119 21.7538 57.3425C21.9535 57.639 22.3541 58.0413 22.6441 58.2367C23.1527 58.5795 23.2924 58.592 26.6012 58.592C30.5073 58.592 30.8282 58.5175 31.5375 57.4466C31.9478 56.8272 31.9539 56.7772 32.005 53.6816C32.0593 50.3777 31.9743 49.7396 31.3797 48.9834C30.6857 48.1012 30.0884 47.9733 26.6407 47.9697C23.7729 47.9666 23.4609 47.9935 22.8501 48.2959ZM36.4639 48.1362C35.8289 48.3202 34.8883 49.3674 34.765 50.0273C34.7119 50.3118 34.6903 51.9916 34.717 53.7605L34.7658 56.9766L35.2036 57.5501C35.9692 58.5531 36.1484 58.592 40.0002 58.592C43.8519 58.592 44.0311 58.5531 44.7967 57.5501L45.2346 56.9766L45.2833 53.7605C45.31 51.9916 45.2885 50.3118 45.2353 50.0273C45.1042 49.3256 44.1683 48.3227 43.4614 48.1263C42.7617 47.9321 37.1409 47.9399 36.4639 48.1362ZM15.9376 53.2791V55.9355H13.2813H10.625V53.2791V50.6226H13.2813H15.9376V53.2791ZM29.3751 53.2791V55.9355H26.7189H24.0626V53.2791V50.6226H26.7189H29.3751V53.2791ZM42.6564 53.2791V55.9355H40.0002H37.3439V53.2791V50.6226H40.0002H42.6564V53.2791ZM32.0314 70.7024V77.3435H26.7189H21.4063V70.7024V64.0612H26.7189H32.0314V70.7024Z" fill="#EA5B21"/>
</svg>
