<svg width="80" height="80" viewBox="0 0 80 80" fill="none" xmlns="http://www.w3.org/2000/svg">
<path fill-rule="evenodd" clip-rule="evenodd" d="M56.7437 0.220418C55.8451 0.54147 55.3376 1.03829 53.8443 3.05909C52.3722 5.05087 51.6429 6.1698 51.1902 7.13069L50.9054 7.73539L27.1103 7.73636C10.251 7.737 3.12723 7.78909 2.67025 7.91518C1.80304 8.15464 0.428849 9.52883 0.18939 10.396C-0.06313 11.311 -0.06313 76.4005 0.18939 77.3155C0.428849 78.1827 1.80304 79.5569 2.67025 79.7963C3.58599 80.049 76.414 80.049 77.3298 79.7963C78.197 79.5569 79.5712 78.1827 79.8106 77.3155C80.0631 76.4005 80.0631 11.311 79.8106 10.396C79.5712 9.52883 78.197 8.15464 77.3298 7.91518C76.9171 7.80134 74.6219 7.73523 70.9603 7.73152L65.2359 7.72588L64.5102 6.40232C63.6426 4.81964 61.2568 1.57203 60.432 0.850751C59.4865 0.0236908 58.0037 -0.229636 56.7437 0.220418ZM58.6529 2.78255C59.3792 3.18777 61.8354 6.74837 63.0274 9.1236C66.6767 16.3956 66.6501 25.087 62.9563 32.4472L62.4099 33.5356H58.0602H53.7104L53.1641 32.4472C51.0391 28.2129 50.0281 23.0499 50.4483 18.5783C50.9669 13.0623 52.6386 8.92414 56.3271 4.0266C57.1088 2.98862 57.5924 2.58679 58.0602 2.58679C58.1932 2.58679 58.4599 2.67483 58.6529 2.78255ZM49.6751 10.4012C49.6751 10.4484 49.5624 10.7568 49.4247 11.0864C49.0167 12.0629 48.2514 15.1272 48.0365 16.6445L47.8367 18.0555H25.2132H2.58962V14.7574C2.58962 11.305 2.67234 10.8047 3.29332 10.5041C3.64969 10.3315 49.6751 10.2295 49.6751 10.4012ZM56.5115 10.5344C55.484 10.8711 54.3919 11.7099 53.7894 12.6255C52.0341 15.2928 53.0188 18.7805 55.8997 20.0994L56.7702 20.498V23.1467V25.7956H58.0602H59.3502V23.163V20.5304L60.4325 19.9783C63.5626 18.3815 64.1665 14.317 61.6479 11.7983C61.2615 11.4119 60.6046 10.9448 60.1881 10.7601C59.2488 10.3436 57.434 10.2322 56.5115 10.5344ZM76.6594 10.4944C77.3312 10.8005 77.4104 11.2502 77.4104 14.7574V18.0555H72.847H68.2837L68.0839 16.6445C67.869 15.1272 67.1037 12.0629 66.6957 11.0864C66.558 10.7568 66.4453 10.4484 66.4453 10.4012C66.4453 10.2235 76.2613 10.313 76.6594 10.4944ZM5.16965 14.1855V15.4755H6.45966H7.74967V14.1855V12.8954H6.45966H5.16965V14.1855ZM10.3297 14.1855V15.4755H11.6197H12.9097V14.1855V12.8954H11.6197H10.3297V14.1855ZM15.4898 14.1855V15.4755H16.7798H18.0698V14.1855V12.8954H16.7798H15.4898V14.1855ZM59.1333 13.1601C60.3751 13.7493 60.9629 15.3112 60.394 16.5099C59.5498 18.2888 57.2022 18.5394 56.0112 16.9778C54.4552 14.938 56.8106 12.0577 59.1333 13.1601ZM47.7401 21.1143C47.7401 21.5374 47.5153 21.7628 45.8084 23.0517C43.8197 24.5534 42.9688 25.4929 42.1935 27.0422C41.4964 28.4354 41.295 29.6498 41.2924 32.4769C41.2903 34.7686 41.3269 35.1227 41.632 35.7529C42.3278 37.1904 44.1008 37.7911 45.5608 37.0843C46.1634 36.7926 46.488 36.4522 47.265 35.2965C47.793 34.5114 48.3651 33.794 48.5363 33.7022C48.7076 33.6106 49.2863 33.5356 49.8225 33.5356C50.795 33.5356 50.7981 33.5371 51.1214 34.171L51.4455 34.8063L50.8829 35.9805C50.0286 37.7632 50.1979 39.2238 51.3882 40.34C52.3469 41.239 52.6089 41.2757 58.0602 41.2757C63.5115 41.2757 63.7735 41.239 64.7321 40.34C65.9225 39.2238 66.0918 37.7632 65.2375 35.9805L64.6749 34.8063L64.999 34.171C65.3223 33.5371 65.3254 33.5356 66.2979 33.5356C66.834 33.5356 67.4128 33.6106 67.584 33.7022C67.7553 33.794 68.3274 34.5114 68.8553 35.2965C69.6324 36.4522 69.957 36.7926 70.5596 37.0843C72.0196 37.7911 73.7925 37.1904 74.4883 35.7529C74.7917 35.1262 74.8304 34.7642 74.8304 32.551C74.8304 30.846 74.7526 29.7516 74.5849 29.0948C73.9619 26.6542 72.5622 24.8358 69.9354 23.0543C68.3925 22.0078 68.39 22.005 68.3851 21.3208L68.3803 20.6355H72.8953H77.4104V48.4438C77.4104 68.4805 77.3604 76.362 77.2314 76.6451C77.1329 76.8612 76.8755 77.1186 76.6594 77.2171C76.0994 77.4722 3.9006 77.4722 3.34057 77.2171C3.12449 77.1186 2.86713 76.8612 2.76861 76.6451C2.63961 76.362 2.58962 68.4805 2.58962 48.4438V20.6355H25.1648H47.7401V21.1143ZM5.16965 29.6656V36.1157H11.6197H18.0698V29.6656V23.2155H11.6197H5.16965V29.6656ZM20.6498 24.5056V25.7956H25.8099H30.9699V24.5056V23.2155H25.8099H20.6498V24.5056ZM33.5499 24.5056V25.7956H34.8399H36.13V24.5056V23.2155H34.8399H33.5499V24.5056ZM48.3093 26.1987C48.4652 26.9969 48.8276 28.3938 49.1149 29.3028L49.637 30.9556L48.9707 30.9592C48.2306 30.963 47.0444 31.441 46.4952 31.9567C46.2985 32.1415 45.7631 32.8626 45.3058 33.5592C44.8485 34.2558 44.4531 34.8257 44.4273 34.8257C44.4014 34.8257 44.2654 34.7816 44.1251 34.7278C43.9108 34.6455 43.87 34.2987 43.87 32.5588C43.87 29.6442 44.1838 28.4085 45.2941 26.9503C45.6707 26.4556 47.8938 24.5992 47.986 24.7026C48.0081 24.7273 48.1535 25.4005 48.3093 26.1987ZM69.7174 26.0979C70.5898 26.7532 71.4652 27.9434 71.8674 29.0206C72.2376 30.0125 72.3948 34.4738 72.0668 34.6815C71.946 34.7581 71.8019 34.8218 71.7466 34.8232C71.6913 34.8245 71.2719 34.2558 70.8145 33.5592C70.3572 32.8626 69.8219 32.1415 69.6252 31.9567C69.0759 31.441 67.8898 30.963 67.1496 30.9592L66.4833 30.9556L67.0108 29.2934C67.3009 28.3791 67.6218 27.2001 67.7238 26.6731C68.091 24.776 68.0109 24.9226 68.5078 25.2393C68.7481 25.3923 69.2923 25.7786 69.7174 26.0979ZM15.4898 29.6656V33.5356H11.6197H7.74967V29.6656V25.7956H11.6197H15.4898V29.6656ZM20.6498 29.6656V30.9556H28.3899H36.13V29.6656V28.3756H28.3899H20.6498V29.6656ZM56.7702 29.6656V30.9556H58.0602H59.3502V29.6656V28.3756H58.0602H56.7702V29.6656ZM20.6498 34.8257V36.1157H28.3899H36.13V34.8257V33.5356H28.3899H20.6498V34.8257ZM62.8144 36.9166C63.2928 37.8606 63.3068 38.0102 62.9534 38.4008C62.7066 38.6733 62.3382 38.6957 58.0882 38.6957C54.0357 38.6957 53.4548 38.6641 53.1951 38.4288C52.8069 38.0776 52.8221 37.8715 53.306 36.9166L53.7119 36.1157H58.0602H62.4085L62.8144 36.9166ZM20.1104 38.9427C13.511 40.1895 8.1907 44.8078 6.07249 51.128C5.08693 54.0685 4.91181 57.972 5.6347 60.8822C7.28914 67.5425 12.132 72.4457 18.876 74.2886C20.2364 74.6603 20.7148 74.708 23.1492 74.7154C25.4388 74.7225 26.1182 74.6667 27.2721 74.3768C34.1212 72.6564 39.137 67.6512 40.8404 60.8367C41.3526 58.7878 41.3526 54.724 40.8404 52.6751C39.1492 45.9098 34.1082 40.8441 27.4003 39.169C25.5991 38.7192 21.901 38.6044 20.1104 38.9427ZM26.9315 41.7574C32.4518 43.1161 36.8598 47.5492 38.2574 53.1476C38.7617 55.1684 38.7617 58.3434 38.2574 60.3642C37.1113 64.9552 34.0616 68.6872 29.81 70.7012C27.5404 71.7763 25.8745 72.1407 23.2298 72.1407C20.6503 72.1407 18.9525 71.7834 16.8493 70.7978C13.3432 69.1548 10.8986 66.7435 9.28447 63.3361C8.2094 61.0665 7.84497 59.4006 7.84497 56.7559C7.84497 54.1112 8.2094 52.4453 9.28447 50.1757C11.5605 45.371 15.8437 42.2547 21.3754 41.3788C22.4242 41.2127 25.5972 41.4289 26.9315 41.7574ZM48.7714 44.0844C47.7565 44.4021 46.6565 45.2433 46.0494 46.1658C44.3074 48.8128 45.2749 52.287 48.1474 53.7005C48.8076 54.0254 49.1918 54.0952 50.3201 54.0952C51.4484 54.0952 51.8326 54.0254 52.4928 53.7005C53.5158 53.1972 54.5015 52.2115 55.0048 51.1885C55.3774 50.4313 55.4024 50.2041 55.4518 47.1211L55.5039 43.8558H54.2021H52.9001V46.6936C52.9001 49.859 52.7871 50.3292 51.8549 51.0402C49.744 52.6503 46.8485 50.2668 48.0513 47.9091C48.4128 47.2006 49.1191 46.6515 49.8767 46.49C50.3149 46.3966 50.3201 46.3805 50.3201 45.1256V43.8558L49.8767 43.8666C49.6329 43.8725 49.1354 43.9706 48.7714 44.0844ZM60.6402 51.4312C60.6402 58.6846 60.6546 59.0503 60.9779 60.0351C62.0834 63.403 65.7288 65.2584 69.0795 64.1583C71.0014 63.5273 72.5717 61.9571 73.2027 60.0351C74.5774 55.8479 71.4146 51.5958 66.9256 51.5958H65.8003V52.8646V54.1334L66.9693 54.2097C69.397 54.3684 70.8694 55.8169 70.8682 58.0459C70.8671 60.2639 69.3068 61.8245 67.0903 61.8245C65.5515 61.8245 64.3966 61.1247 63.6488 59.739C63.3084 59.1081 63.2999 58.9289 63.2546 51.4749L63.2083 43.8558H61.9243H60.6402V51.4312ZM21.1457 45.321C18.7027 45.8004 16.9255 46.7634 15.0815 48.6075C13.4796 50.2094 12.7328 51.4336 12.078 53.5309C11.5359 55.2672 11.5359 58.2446 12.078 59.9809C12.7328 62.0782 13.4796 63.3024 15.0815 64.9043C16.6833 66.5061 17.9076 67.2529 20.0048 67.9077C21.002 68.2191 21.5678 68.2854 23.2298 68.2854C24.8918 68.2854 25.4577 68.2191 26.4549 67.9077C28.5521 67.2529 29.7763 66.5061 31.3782 64.9043C32.9801 63.3024 33.7268 62.0782 34.3817 59.9809C34.8774 58.3937 34.918 55.2748 34.4626 53.7727C34.1009 52.58 33.3748 50.9242 33.2403 50.9858C32.1822 51.471 31.1297 52.201 31.1982 52.4021C31.2437 52.5351 31.4798 53.1882 31.7228 53.8534C32.0922 54.8644 32.1654 55.327 32.1696 56.6753C32.1796 59.9504 30.7667 62.5514 27.9935 64.3631C25.2227 66.1731 21.2369 66.1731 18.4661 64.3631C15.7263 62.5732 14.2804 59.9453 14.2804 56.7559C14.2804 53.5687 15.7266 50.9384 18.4613 49.1517C20.1596 48.0422 22.9533 47.4628 24.6767 47.8629C25.0734 47.9548 25.4198 48.0083 25.4466 47.9815C25.5441 47.8841 26.1432 45.5866 26.0861 45.5294C25.7494 45.1929 22.4982 45.0558 21.1457 45.321ZM27.1805 49.338L24.4392 53.0108L23.633 52.9307C22.3546 52.8033 21.4962 53.1206 20.5466 54.0715C18.9202 55.6998 18.9202 57.8129 20.5466 59.4391C21.4048 60.2973 22.1448 60.6242 23.2298 60.6242C24.3149 60.6242 25.0549 60.2973 25.9131 59.4391C27.1165 58.2359 27.4027 56.9112 26.8012 55.3285L26.5028 54.5427L29.216 50.9326C30.7084 48.9471 31.9311 47.2838 31.9334 47.2361C31.9369 47.16 30.5323 46.0422 30.0888 45.7682C29.9958 45.7108 28.7064 47.2933 27.1805 49.338ZM23.7757 55.6481C24.7101 56.0738 24.6621 57.4918 23.6997 57.8905C22.6858 58.3104 21.6739 57.3035 22.093 56.2916C22.3889 55.5773 23.0584 55.3212 23.7757 55.6481Z" fill="#EA5B21"/>
</svg>
