<svg width="80" height="80" viewBox="0 0 80 80" fill="none" xmlns="http://www.w3.org/2000/svg">
<g clip-path="url(#clip0_2701_15421)">
<path fill-rule="evenodd" clip-rule="evenodd" d="M36.7619 0.0471665C31.8017 0.576314 28.1156 1.50584 24.0128 3.26226C19.4643 5.20956 15.3538 8.01833 11.6759 11.6923C5.30939 18.0521 1.49849 25.795 0.206292 34.9959C-0.0687641 36.9539 -0.0687641 43.0514 0.206292 45.0094C1.4938 54.1773 5.31737 61.9519 11.6649 68.3095C17.9596 74.6141 25.8637 78.501 34.9626 79.7665C37.162 80.0723 43.1863 80.0315 45.4454 79.6954C51.5942 78.7806 56.9784 76.757 61.902 73.5103C75.507 64.539 82.2777 48.6086 79.3118 32.5475C78.5112 28.212 76.9532 24.0304 74.5268 19.7056L74.1558 19.0442L76.3104 16.884C78.6767 14.5114 78.9254 14.088 78.6195 12.9518C78.442 12.2933 77.6045 11.4318 77.0084 11.2948C76.8163 11.2505 75.0511 11.0788 73.0856 10.9133C71.1202 10.7478 69.4763 10.5763 69.4325 10.5325C69.3886 10.4887 69.2189 8.84632 69.0551 6.8829C68.8914 4.91933 68.7214 3.15571 68.6772 2.96358C68.5405 2.36872 67.6787 1.52994 67.0227 1.35314C65.8778 1.04491 65.4474 1.29572 63.1276 3.62196C61.9671 4.78571 60.9545 5.73793 60.8775 5.73793C60.8004 5.73793 60.1306 5.39215 59.389 4.96971C55.4936 2.75048 50.4517 1.0604 45.5237 0.32191C44.0171 0.0961385 38.0554 -0.0908311 36.7619 0.0471665ZM45.9148 5.17092C48.2595 5.57396 50.9628 6.3234 53.0204 7.14075C54.5281 7.73968 57.3364 9.14594 57.3364 9.30193C57.3364 9.36733 56.6656 10.0885 55.8459 10.9042C54.0841 12.6578 54.0029 12.8595 54.2095 14.9691C54.2896 15.7866 54.3571 16.6851 54.3594 16.966L54.3636 17.4763L53.7652 17.0985C51.7002 15.795 47.9746 14.3243 45.4454 13.8141C38.4093 12.3951 31.3899 13.7183 25.4186 17.5895C13.0277 25.6224 9.513 42.1466 17.5561 54.5534C25.9483 67.4985 43.5261 70.6569 55.9282 61.4485C63.476 55.8442 67.62 46.3602 66.5608 37.1146C66.1238 33.2998 64.7091 29.1146 62.8735 26.2068L62.4957 25.6083L63.006 25.6126C63.2869 25.6149 64.1854 25.6823 65.0029 25.7625C67.1125 25.9691 67.3141 25.8879 69.0677 24.126C69.8835 23.3063 70.6047 22.6356 70.6702 22.6356C70.8569 22.6356 72.4135 25.8393 73.035 27.5026C73.8532 29.6929 74.4692 32 74.8721 34.3839C75.3438 37.1751 75.389 42.2843 74.9661 45.0094C73.805 52.4919 70.6513 58.9914 65.5826 64.3472C60.0527 70.1902 52.7771 73.8812 44.4284 75.0791C42.3349 75.3795 37.1635 75.3344 34.9626 74.9965C27.5256 73.8548 21.082 70.7344 15.6755 65.6566C7.88081 58.3358 3.76106 47.427 4.77164 36.7833C5.58085 28.2613 9.48984 20.1956 15.6248 14.3894C21.2426 9.07271 28.296 5.78596 36.0578 4.86817C38.7538 4.5493 43.0696 4.68182 45.9148 5.17092ZM64.8283 12.4942C65.076 14.6508 65.5904 15.0093 68.8362 15.2867C70.0409 15.3898 71.0416 15.4869 71.0601 15.5027C71.0784 15.5184 69.8425 16.7809 68.3136 18.3079L65.5336 21.0846L62.4911 20.8257C60.8178 20.6833 59.4389 20.557 59.427 20.545C59.415 20.5331 59.2887 19.1542 59.1463 17.4809L58.8874 14.4384L61.6713 11.6498L64.4553 8.86118L64.5728 10.0767C64.6374 10.7453 64.7524 11.8331 64.8283 12.4942ZM44.3813 18.4082C47.3567 19.0337 50.4681 20.3881 52.7039 22.0309L53.7822 22.823L50.465 26.1431L47.1477 29.463L45.6236 28.703C41.3762 26.5851 36.4189 26.9756 32.5625 29.732C30.2355 31.3952 28.4687 33.9738 27.6694 36.8735C27.2782 38.2927 27.2782 41.7126 27.6694 43.1319C28.9161 47.6543 32.3177 51.0559 36.8401 52.3026C38.4096 52.7352 41.6916 52.7002 43.3243 52.2333C46.8224 51.2332 49.7373 48.7971 51.3127 45.557C52.1926 43.7472 52.4738 42.6582 52.5852 40.6285C52.7099 38.3565 52.3056 36.4272 51.269 34.3483L50.5089 32.8243L53.8289 29.507L57.1489 26.1897L57.9411 27.2681C59.5928 29.5161 60.9253 32.5855 61.5887 35.6706C62.0795 37.9526 62.0795 42.0527 61.5887 44.3347C59.6908 53.1603 53.127 59.7241 44.3014 61.622C42.0194 62.1128 37.9192 62.1128 35.6373 61.622C26.8039 59.7224 20.2496 53.1681 18.35 44.3347C17.8592 42.0527 17.8592 37.9526 18.35 35.6706C20.3857 26.2045 27.683 19.4423 37.3095 18.1009C38.8988 17.8794 42.6396 18.0419 44.3813 18.4082ZM42.5337 32.4697C43.0406 32.6498 43.495 32.8369 43.5433 32.8853C43.5918 32.9338 42.392 34.2205 40.8771 35.7448C39.3621 37.2691 38.0101 38.7416 37.8726 39.017C36.9182 40.9275 39.0445 43.0538 40.955 42.0994C41.2304 41.9618 42.7028 40.6099 44.2272 39.0949C45.7515 37.58 47.0382 36.3801 47.0867 36.4286C47.3176 36.6596 47.8172 38.4212 47.8984 39.2915C48.1162 41.6245 47.292 43.8175 45.5381 45.5714C42.6376 48.472 38.4055 48.7678 35.1432 46.2983C29.8188 42.2676 31.6117 33.9365 38.17 32.2332C39.2649 31.9487 41.392 32.064 42.5337 32.4697Z" fill="#EA5B21"/>
</g>
<defs>
<clipPath id="clip0_2701_15421">
<rect width="80" height="80" fill="white"/>
</clipPath>
</defs>
</svg>
