<svg width="80" height="80" viewBox="0 0 80 80" fill="none" xmlns="http://www.w3.org/2000/svg">
<path fill-rule="evenodd" clip-rule="evenodd" d="M39.4031 8.08846C37.7349 8.43367 36.5909 9.80755 36.5035 11.5705C36.3891 13.8827 38.0154 15.561 40.3701 15.561H41.2458L41.2102 16.8529L41.1745 18.1448L40.1109 18.357C37.7814 18.8218 35.3366 19.666 34.8729 20.1657C34.2721 20.8132 34.3236 21.7599 34.9907 22.328C35.5 22.7619 36.042 22.7515 37.379 22.2825C46.2835 19.1592 55.9417 21.4628 62.2997 28.2264C67.8941 34.1778 70.1842 42.3288 68.4405 50.0822C67.0728 56.1641 63.5223 61.4508 58.5168 64.859C55.5339 66.8898 52.1649 68.2089 48.6791 68.7104C47.1289 68.9335 43.9154 68.9695 42.4861 68.7797C32.2942 67.4271 24.2775 60.0063 22.1503 49.9555C21.988 49.189 21.793 47.6783 21.7168 46.5984C21.5655 44.4539 21.4045 43.917 20.8211 43.6116C20.0669 43.2167 19.1286 43.5182 18.777 44.2683C18.5398 44.7741 18.5391 45.6821 18.7738 47.8652C19.6814 56.3047 24.5304 63.9508 31.6741 68.2071C40.6079 73.5298 51.5673 73.2313 60.1417 67.4317C69.4973 61.1038 73.9376 49.4292 71.2009 38.3541C70.0822 33.8262 67.8368 29.6513 64.7948 26.4427C63.7049 25.2932 63.6179 25.1656 63.7881 24.9651C63.8906 24.8443 64.4691 24.1469 65.0736 23.4154C65.6781 22.6838 66.1888 22.0662 66.2083 22.0429C66.2279 22.0196 66.7767 22.4299 67.4279 22.9547C69.1749 24.3627 69.4879 24.5555 70.0265 24.5555C70.583 24.5555 71.154 24.1315 71.3968 23.538C71.6049 23.0295 71.406 22.3236 70.9286 21.8762C70.3891 21.3703 62.9743 15.4912 62.664 15.323C61.6572 14.7776 60.4665 15.5345 60.4665 16.7199C60.4665 17.2589 60.7992 17.6457 62.3307 18.8878C63.0834 19.4982 63.7154 20.0462 63.7353 20.1056C63.7647 20.1939 62.0291 22.4058 61.4564 23.0098C61.3295 23.1436 61.0688 23.0172 60.0596 22.3322C58.5497 21.3073 55.7626 19.9077 54.049 19.3139C53.3527 19.0725 52.1139 18.7238 51.296 18.5389C50.4781 18.3541 49.7646 18.1591 49.7101 18.1057C49.6558 18.0523 49.6277 17.4721 49.6476 16.8164L49.6839 15.6243L50.702 15.5477C52.3766 15.4215 53.4635 14.7069 54.0909 13.3192C54.9417 11.4378 54.0903 9.20011 52.1866 8.31447C51.5647 8.02512 51.5257 8.02322 45.742 8.00206C42.5416 7.99041 39.6891 8.0293 39.4031 8.08846ZM51.095 11.1976C51.2732 11.324 51.3732 11.5263 51.3732 11.7605C51.3732 12.5206 51.3733 12.5206 45.4292 12.5206C40.7553 12.5206 40.0046 12.4945 39.7633 12.3234C39.3222 12.0107 39.4538 11.2808 39.9857 11.0883C40.089 11.0509 42.5682 11.0159 45.4951 11.0104C50.1201 11.0017 50.8534 11.0262 51.095 11.1976ZM46.618 16.7011V17.8413H45.4292H44.2404V16.7011V15.561H45.4292H46.618V16.7011ZM20.9107 25.3088C20.2168 25.7719 20.0116 26.6397 20.4275 27.3527C20.8756 28.1205 20.6578 28.1026 29.5788 28.1026C34.6456 28.1026 37.8399 28.0552 38.0427 27.9772C38.2219 27.9083 38.5071 27.7004 38.6765 27.5153C39.0477 27.1099 39.0976 26.2414 38.7784 25.7481C38.3229 25.0444 38.5625 25.0621 29.5743 25.0631C21.584 25.0639 21.2642 25.073 20.9107 25.3088ZM14.6921 31.7364C13.9902 32.1774 13.7573 33.1051 14.1707 33.8135C14.6274 34.5962 14.0926 34.5635 26.4625 34.5635C38.6579 34.5635 38.3225 34.5818 38.7714 33.8885C39.0423 33.4697 39.0458 32.6223 38.7784 32.2089C38.3155 31.4937 38.8405 31.5228 26.4459 31.5265C16.1054 31.5295 14.9897 31.5494 14.6921 31.7364ZM61.259 36.8904C60.8117 37.0541 57.7937 38.2507 54.5527 39.5496C51.3115 40.8483 48.6013 41.9111 48.5301 41.9111C48.4589 41.9111 48.3241 41.8179 48.2306 41.7038C47.7476 41.1146 46.2737 40.5162 45.3126 40.5191C43.5618 40.5243 41.8524 41.7359 41.2303 43.4127C40.8661 44.3945 40.9261 45.7468 41.3772 46.7251C41.7862 47.6116 42.6098 48.4466 43.4896 48.8668C44.0713 49.1446 44.3521 49.1954 45.3041 49.1954C46.256 49.1954 46.5368 49.1446 47.1185 48.8668C48.4349 48.2382 49.3756 46.9446 49.5872 45.4724L49.6839 44.8007L56.3154 42.1455C59.9626 40.6851 63.074 39.3693 63.2293 39.2216C63.5425 38.9237 63.7831 38.2079 63.6803 37.8794C63.3159 36.7148 62.5706 36.4104 61.259 36.8904ZM9.20359 37.9506C7.93044 38.1913 7.55978 39.9106 8.61657 40.6738L9.01425 40.961L23.0296 40.9987C30.7381 41.0195 37.295 41.0001 37.6006 40.9558C38.4223 40.8362 38.9846 40.2296 38.9846 39.4632C38.9846 38.7528 38.5544 38.1775 37.8817 37.9883C37.424 37.8596 9.87632 37.8234 9.20359 37.9506Z" fill="#EA5B21"/>
</svg>
