<svg width="63" height="12" viewBox="0 0 63 12" fill="none" xmlns="http://www.w3.org/2000/svg">
<g clip-path="url(#clip0_2808_100267)">
<path d="M7.79297 2.14502H9.21065V9.40787H7.79297V2.14502Z" fill="black"/>
<path d="M10.8633 1.68604H12.281V8.94889H10.8633V1.68604Z" fill="black"/>
<path d="M1.65625 3.06299H3.07393V10.3258H1.65625V3.06299Z" fill="black"/>
<path d="M4.72266 2.604H6.14033V9.86685H4.72266V2.604Z" fill="black"/>
<path d="M49.8658 5.59366L47.5818 3.05127H46.2461V8.93697H47.64V5.18207L49.7258 7.40687H49.9832L52.0336 5.18207V8.93697H53.4275V3.05127H52.0923L49.8658 5.59366Z" fill="black"/>
<path d="M60.0691 3.05127L56.6132 6.87681V3.05127H55.2188V8.93697H56.4958L59.9517 5.11143V8.93697H61.3461V3.05127H60.0691Z" fill="black"/>
<path d="M38.7341 5.20543C38.7341 6.14262 39.2428 6.88014 40.0316 7.18939L38.5586 8.93697H40.2691L41.6087 7.34791H43.0569V8.93697H44.4507V3.05127H40.9013C39.5794 3.05127 38.7341 3.95787 38.7341 5.20543ZM43.0569 4.3461V6.08812H41.1592C40.5265 6.08812 40.1866 5.73493 40.1866 5.21711C40.1866 4.68761 40.5381 4.3461 41.1592 4.3461H43.0569Z" fill="black"/>
<path d="M32.2575 4.22707C32.175 6.2522 31.7416 7.55871 30.9101 7.55871H30.6992V8.9709L30.9206 8.98313C32.5957 9.07713 33.5224 7.60543 33.6735 4.39227H35.8761V8.93586H37.2706V3.05127H32.304L32.2575 4.22707Z" fill="black"/>
<path d="M27.0067 2.96875C25.1207 2.96875 23.7617 4.27526 23.7617 5.99392C23.7617 7.77376 25.2381 9.03077 27.0067 9.03077C28.8462 9.03077 30.2727 7.70089 30.2727 5.99392C30.2755 4.29862 28.8462 2.96875 27.0067 2.96875ZM27.0067 7.61858C25.9405 7.61858 25.2143 6.92388 25.2143 5.99392C25.2143 5.04059 25.9405 4.36926 27.0067 4.36926C28.0612 4.36926 28.823 5.07563 28.823 5.99392C28.823 6.9122 28.0612 7.61969 27.0067 7.61969V7.61858Z" fill="black"/>
<path d="M22.284 3.06299H17.364L17.3169 4.24046C17.2466 5.9352 16.8015 7.54818 15.9695 7.57154L15.582 7.58322V10.3258H16.9875V8.93534H21.8733V10.3258H23.2904V7.57154H22.2829L22.284 3.06299ZM20.8902 7.57154H17.9142C18.4179 6.80621 18.6892 5.69993 18.7346 4.4051H20.8902V7.57154Z" fill="black"/>
</g>
<defs>
<clipPath id="clip0_2808_100267">
<rect width="63" height="12" fill="white"/>
</clipPath>
</defs>
</svg>
