<svg width="157" height="32" viewBox="0 0 157 32" fill="none" xmlns="http://www.w3.org/2000/svg">
<g clip-path="url(#clip0_1_22935)">
<path d="M6.22143 25.7141C9.33369 25.7141 11.532 23.8917 12.1928 22.0354C12.5386 24.5188 14.8326 25.9334 18.9792 25.2107V21.8469C17.1267 21.8469 16.5925 20.874 16.5925 18.9867V14.4925C16.5925 10.5018 13.5451 8.36432 8.70691 8.36432C3.51982 8.36123 0.376682 10.5605 0.376682 14.0817H6.03309C6.03309 12.6979 6.91304 11.7249 8.57724 11.7249C10.084 11.7249 10.933 12.4786 10.933 13.5164C10.933 14.3968 10.2106 14.9311 8.35802 15.3697L5.97134 15.8732C1.69816 16.8184 0 18.3257 0 20.9049C0 23.9535 2.45152 25.7141 6.22143 25.7141ZM7.63553 22.3504C6.34802 22.3504 5.62553 21.7543 5.62553 20.6516C5.62553 19.7404 6.34802 19.0794 7.85783 18.6717L9.08359 18.3257C10.0253 18.0415 10.6552 17.7296 10.9361 17.3836V18.2639C10.9361 20.3705 9.5529 22.3504 7.63553 22.3504ZM29.27 21.8469C26.8834 21.8161 26.1269 21.0624 26.1269 18.9867V0.376675H20.4396V18.0415C20.4396 24.4539 21.7271 25.8068 29.27 25.2076V21.8439V21.8469ZM39.4497 25.7141C44.9795 25.7141 48.5611 22.2578 48.5611 17.0068C48.5611 11.7558 44.9795 8.36123 39.4497 8.36123C33.9199 8.36123 30.3692 11.7867 30.3692 17.0068C30.3692 22.2269 33.9508 25.7141 39.4497 25.7141ZM39.4497 22.3504C37.4088 22.3504 36.0874 20.213 36.0874 17.0068C36.0874 13.8006 37.4088 11.7249 39.4497 11.7249C41.4906 11.7249 42.8738 13.8315 42.8738 17.0068C42.8738 20.1821 41.5215 22.3504 39.4497 22.3504ZM56.7524 25.2107V16.3458C56.7524 13.5473 57.8516 11.8825 59.7381 11.8825C61.3096 11.8825 62.1587 13.3589 62.1587 15.7496V25.2107H67.8151V15.9998C67.8151 10.406 65.7094 8.36123 62.3162 8.36123C60.1487 8.36123 58.1047 9.1149 56.7555 11.0948V0.376675H51.0682V25.2107H56.7555H56.7524ZM76.7351 25.7141C79.8442 25.7141 82.0457 23.8917 82.7064 22.0354C83.0522 24.5188 85.3463 25.9334 89.4929 25.2107V21.8469C87.6403 21.8469 87.1031 20.874 87.1031 18.9867V14.4925C87.1031 10.5018 84.0557 8.36432 79.2175 8.36432C74.0335 8.36432 70.8903 10.5635 70.8903 14.0848H76.5467C76.5467 12.701 77.4267 11.728 79.0909 11.728C80.6007 11.728 81.4467 12.4817 81.4467 13.5195C81.4467 14.3998 80.7242 14.9342 78.8686 15.3728L76.4819 15.8763C72.2087 16.8184 70.5106 18.3288 70.5106 20.9049C70.5106 23.9535 72.9621 25.7141 76.732 25.7141H76.7351ZM78.1492 22.3504C76.8617 22.3504 76.1392 21.7543 76.1392 20.6516C76.1392 19.7404 76.8617 19.0794 78.3715 18.6717L79.5972 18.3257C80.5389 18.0415 81.1688 17.7296 81.4498 17.3836V18.2639C81.4498 20.3705 80.0665 22.3504 78.1523 22.3504H78.1492ZM96.1404 20.528C96.1404 20.3087 96.2021 20.0554 96.3287 19.8361C97.0821 19.9937 97.8694 20.0554 98.7494 20.0554C103.683 20.0554 106.95 17.572 106.95 14.1774C106.95 12.4168 106.039 10.8755 104.468 9.84077C105.221 9.21065 106.132 8.89868 107.765 9.17976V4.65158C105.252 4.30563 102.989 5.87783 102.235 8.83382C101.198 8.51876 100.037 8.36123 98.7463 8.36123C93.7815 8.36123 90.5457 10.8137 90.5457 14.1774C90.5457 15.9998 91.4874 17.572 93.1238 18.6099C92.1512 19.3944 91.333 20.3705 91.333 21.3126C91.333 22.9157 92.4013 23.7002 93.8772 24.1419C91.1447 24.772 89.7306 26.0601 89.7306 27.694C89.7306 30.3659 92.9664 31.9998 98.9377 31.9998C104.594 31.9998 108.333 29.8933 108.333 26.9404C108.333 19.8052 96.1404 22.9496 96.1404 20.528ZM98.7494 11.2863C100.448 11.2863 101.482 12.5126 101.482 14.1774C101.482 15.8423 100.444 17.1334 98.7494 17.1334C97.0543 17.1334 96.0786 15.8763 96.0786 14.1774C96.0786 12.4786 97.0512 11.2863 98.7494 11.2863ZM98.9377 29.5504C96.6745 29.5504 95.4488 28.4817 95.4488 27.067C95.4488 26.1249 95.8254 25.2446 96.7363 24.6794C99.6262 25.0562 102.612 25.2137 102.612 27.3512C102.612 28.6083 101.293 29.5504 98.9346 29.5504H98.9377ZM114.786 25.7141C117.898 25.7141 120.097 23.8917 120.757 22.0354C121.103 24.5188 123.397 25.9334 127.544 25.2107V21.8469C125.691 21.8469 125.157 20.874 125.157 18.9867V14.4925C125.157 10.5018 122.11 8.36432 117.272 8.36432C112.088 8.36432 108.944 10.5635 108.944 14.0848H114.601C114.601 12.701 115.481 11.728 117.145 11.728C118.652 11.728 119.501 12.4817 119.501 13.5195C119.501 14.3998 118.778 14.9342 116.923 15.3728L114.533 15.8763C110.26 16.8184 108.562 18.3288 108.562 20.9049C108.562 23.9535 111.013 25.7141 114.783 25.7141H114.786ZM116.2 22.3504C114.913 22.3504 114.19 21.7543 114.19 20.6516C114.19 19.7404 114.913 19.0794 116.423 18.6717L117.648 18.3257C118.59 18.0415 119.22 17.7296 119.504 17.3836V18.2639C119.504 20.3705 118.121 22.3504 116.203 22.3504H116.2ZM132.231 6.162C134.083 6.162 135.436 4.84308 135.436 3.08247C135.436 1.32185 134.083 0.00292969 132.231 0.00292969C130.378 0.00292969 129.026 1.32185 129.026 3.08247C129.026 4.84308 130.409 6.162 132.231 6.162ZM135.09 25.2107V8.86471H129.403V25.2107H135.09ZM144.211 25.7141C147.323 25.7141 149.521 23.8917 150.182 22.0354C150.528 24.5188 152.822 25.9334 156.968 25.2107V21.8469C155.116 21.8469 154.582 20.874 154.582 18.9867V14.4925C154.582 10.5018 151.534 8.36432 146.696 8.36432C141.512 8.36432 138.369 10.5635 138.369 14.0848H144.025C144.025 12.701 144.905 11.728 146.569 11.728C148.079 11.728 148.925 12.4817 148.925 13.5195C148.925 14.3998 148.203 14.9342 146.347 15.3728L143.96 15.8763C139.687 16.8184 137.989 18.3288 137.989 20.9049C137.989 23.9535 140.441 25.7141 144.211 25.7141ZM145.625 22.3504C144.337 22.3504 143.615 21.7543 143.615 20.6516C143.615 19.7404 144.337 19.0794 145.847 18.6717L147.073 18.3257C148.014 18.0415 148.644 17.7296 148.928 17.3836V18.2639C148.928 20.3705 147.545 22.3504 145.628 22.3504H145.625Z" fill="#111111"/>
</g>
<defs>
<clipPath id="clip0_1_22935">
<rect width="157" height="32" fill="white"/>
</clipPath>
</defs>
</svg>
