<svg width="45" height="24" viewBox="0 0 45 24" fill="none" xmlns="http://www.w3.org/2000/svg">
<path d="M0 0H33C39.6274 0 45 5.37258 45 12C45 18.6274 39.6274 24 33 24H14.1781C6.34774 24 0 17.6523 0 9.82192V0Z" fill="#FF9900"/>
<path d="M13.49 8.99L14.74 10.89L15.98 8.99H18.28L15.98 12.34L18.48 16H16.15L14.74 13.93L13.34 16H11.06L13.55 12.43L11.22 8.99H13.49ZM19.084 9H21.034V13.11L23.924 9H25.784V16H23.834V11.9L20.954 16H19.084V9ZM32.9271 10.57H30.7871V16H28.8371V10.57H26.6871V9H32.9271V10.57Z" fill="white"/>
</svg>
