<svg width="78" height="24" viewBox="0 0 78 24" fill="none" xmlns="http://www.w3.org/2000/svg">
<path d="M0 0H66C72.6274 0 78 5.37258 78 12C78 18.6274 72.6274 24 66 24H13C5.8203 24 0 18.1797 0 11V0Z" fill="#367731"/>
<path d="M18.41 9V16H16.43V13.27H13.73V16H11.75V9H13.73V11.63H16.43V9H18.41ZM23.3541 16.14C22.6141 16.14 21.9474 15.9833 21.3541 15.67C20.7674 15.3567 20.3041 14.9233 19.9641 14.37C19.6307 13.8167 19.4641 13.1933 19.4641 12.5C19.4641 11.8067 19.6307 11.1833 19.9641 10.63C20.3041 10.0767 20.7674 9.64333 21.3541 9.33C21.9474 9.01667 22.6141 8.86 23.3541 8.86C24.0941 8.86 24.7574 9.01667 25.3441 9.33C25.9374 9.64333 26.4007 10.0767 26.7341 10.63C27.0741 11.1833 27.2441 11.8067 27.2441 12.5C27.2441 13.1933 27.0741 13.8167 26.7341 14.37C26.4007 14.9233 25.9374 15.3567 25.3441 15.67C24.7574 15.9833 24.0941 16.14 23.3541 16.14ZM23.3541 14.5C23.7074 14.5 24.0274 14.4167 24.3141 14.25C24.6007 14.0833 24.8274 13.85 24.9941 13.55C25.1607 13.2433 25.2441 12.8933 25.2441 12.5C25.2441 12.1067 25.1607 11.76 24.9941 11.46C24.8274 11.1533 24.6007 10.9167 24.3141 10.75C24.0274 10.5833 23.7074 10.5 23.3541 10.5C23.0007 10.5 22.6807 10.5833 22.3941 10.75C22.1074 10.9167 21.8807 11.1533 21.7141 11.46C21.5474 11.76 21.4641 12.1067 21.4641 12.5C21.4641 12.8933 21.5474 13.2433 21.7141 13.55C21.8807 13.85 22.1074 14.0833 22.3941 14.25C22.6807 14.4167 23.0007 14.5 23.3541 14.5ZM33.4027 12.34C33.8161 12.4733 34.1294 12.68 34.3427 12.96C34.5627 13.24 34.6727 13.5867 34.6727 14C34.6727 14.62 34.4294 15.11 33.9427 15.47C33.4627 15.8233 32.7794 16 31.8927 16H28.3027V9H31.7027C32.5427 9 33.1927 9.16 33.6527 9.48C34.1194 9.79333 34.3527 10.24 34.3527 10.82C34.3527 11.16 34.2694 11.46 34.1027 11.72C33.9427 11.98 33.7094 12.1867 33.4027 12.34ZM30.2527 11.8H31.5127C32.0727 11.8 32.3527 11.57 32.3527 11.11C32.3527 10.65 32.0727 10.42 31.5127 10.42H30.2527V11.8ZM31.8127 14.58C32.3861 14.58 32.6727 14.3367 32.6727 13.85C32.6727 13.3767 32.3861 13.14 31.8127 13.14H30.2527V14.58H31.8127ZM35.7441 9H37.6941V13.11L40.5841 9H42.4441V16H40.4941V11.9L37.6141 16H35.7441V9ZM50.6073 9V16H48.6273V13.27H45.9273V16H43.9473V9H45.9273V11.63H48.6273V9H50.6073ZM54.9413 13.32H54.0413V16H52.0713V9H54.0413V11.72H54.9913L56.6613 9H58.7413L56.5513 12.38L58.7613 16H56.5313L54.9413 13.32ZM64.0605 14.64H61.1005L60.5505 16H58.5305L61.6205 9H63.5705L66.6705 16H64.6105L64.0605 14.64ZM63.4805 13.18L62.5805 10.94L61.6805 13.18H63.4805Z" fill="white"/>
</svg>
