<svg width="62" height="24" viewBox="0 0 62 24" fill="none" xmlns="http://www.w3.org/2000/svg">
<path d="M0 0H50C56.6274 0 62 5.37258 62 12C62 18.6274 56.6274 24 50 24H15.0303C6.7293 24 0 17.2707 0 8.9697V0Z" fill="#FF0000"/>
<path d="M11.05 16L14.14 9H16.09L19.19 16H17.13L14.71 9.97H15.49L13.07 16H11.05ZM12.74 14.64L13.25 13.18H16.67L17.18 14.64H12.74ZM24.4122 16L22.4422 12.67L24.0322 11.73L26.6422 16H24.4122ZM19.9522 16V9H21.9222V16H19.9522ZM21.3522 13.32V11.72H23.8922V13.32H21.3522ZM24.2222 12.71L22.3922 12.51L24.5422 9H26.6222L24.2222 12.71ZM27.2773 16V9H29.2273V14.43H31.9173V9H33.8673V16H27.2773ZM33.0173 17.43V15.56L33.4273 16H31.9173V14.43H34.8273V17.43H33.0173ZM35.7637 16V9H37.7137V13.11L40.6037 9H42.4637V16H40.5137V11.9L37.6337 16H35.7637ZM47.8768 16V13.83L48.3468 14.24H46.5768C45.9501 14.24 45.4101 14.1367 44.9568 13.93C44.5035 13.7233 44.1535 13.4267 43.9068 13.04C43.6668 12.6533 43.5468 12.1933 43.5468 11.66C43.5468 11.1067 43.6735 10.6333 43.9268 10.24C44.1868 9.84 44.5501 9.53333 45.0168 9.32C45.4901 9.10667 46.0435 9 46.6768 9H49.8268V16H47.8768ZM43.5668 16L45.3168 13.47H47.3068L45.6468 16H43.5668ZM47.8768 13.2V10.07L48.3468 10.56H46.7168C46.3301 10.56 46.0368 10.65 45.8368 10.83C45.6435 11.0033 45.5468 11.27 45.5468 11.63C45.5468 11.9833 45.6435 12.2533 45.8368 12.44C46.0368 12.62 46.3235 12.71 46.6968 12.71H48.3468L47.8768 13.2Z" fill="white"/>
</svg>
