<svg width="41" height="40" fill="none" xmlns="http://www.w3.org/2000/svg"><g clip-path="url(#clip0)" fill="#070707"><path d="M34.32 0H5.96C2.72 0 .085 2.628.085 5.86v28.28C.085 37.372 2.72 40 5.96 40h28.36c3.24 0 5.876-2.629 5.876-5.86V5.86C40.196 2.627 37.56 0 34.32 0zm3.526 34.14a3.525 3.525 0 01-3.526 3.516H5.96a3.525 3.525 0 01-3.525-3.515V5.859A3.525 3.525 0 015.96 2.344h28.36a3.525 3.525 0 013.526 3.515v28.282z"/><path fill-rule="evenodd" clip-rule="evenodd" d="M-.165 5.86c0-3.37 2.748-6.11 6.125-6.11h28.36c3.377 0 6.126 2.74 6.126 6.11v28.28c0 3.37-2.749 6.11-6.126 6.11H5.96c-3.377 0-6.125-2.74-6.125-6.11V5.86zM5.96.25C2.858.25.335 2.767.335 5.86v28.28c0 3.093 2.523 5.61 5.625 5.61h28.36c3.103 0 5.626-2.517 5.626-5.61V5.86c0-3.093-2.523-5.61-5.626-5.61H5.96zm0 2.344a3.275 3.275 0 00-3.275 3.265v28.282c0 1.8 1.469 3.265 3.275 3.265h28.36a3.274 3.274 0 003.276-3.265V5.859c0-1.8-1.47-3.265-3.276-3.265H5.96zM2.185 5.859A3.775 3.775 0 015.96 2.094h28.36a3.775 3.775 0 013.776 3.765v28.282a3.775 3.775 0 01-3.776 3.765H5.96a3.775 3.775 0 01-3.775-3.765V5.859z"/><path d="M18.965 16.484c0-2.585-2.108-4.687-4.7-4.687H7.214v16.406h7.05c2.593 0 4.701-2.102 4.701-4.687A4.67 4.67 0 0017.37 20a4.67 4.67 0 001.596-3.516zm-2.35 7.032a2.35 2.35 0 01-2.35 2.343h-4.7v-4.687h4.7a2.35 2.35 0 012.35 2.344zm-7.05-4.688v-4.687h4.7a2.35 2.35 0 012.35 2.343 2.35 2.35 0 01-2.35 2.344h-4.7z"/><path fill-rule="evenodd" clip-rule="evenodd" d="M6.964 11.547h7.3c2.73 0 4.951 2.214 4.951 4.937 0 1.376-.567 2.62-1.48 3.516a4.915 4.915 0 011.48 3.516c0 2.723-2.22 4.937-4.95 4.937H6.964V11.547zm.5.5v15.906h6.8c2.455 0 4.451-1.991 4.451-4.437a4.42 4.42 0 00-1.511-3.328L16.99 20l.214-.188a4.42 4.42 0 001.511-3.328c0-2.446-1.996-4.437-4.45-4.437H7.464zm1.85 1.844h4.95a2.6 2.6 0 012.6 2.593 2.6 2.6 0 01-2.6 2.594h-4.95v-5.187zm.5.5v4.187h4.45a2.1 2.1 0 002.1-2.094 2.1 2.1 0 00-2.1-2.093h-4.45zm-.5 6.53h4.95a2.6 2.6 0 012.6 2.595 2.6 2.6 0 01-2.6 2.593h-4.95v-5.187zm.5.5v4.188h4.45a2.1 2.1 0 002.1-2.093 2.1 2.1 0 00-2.1-2.094h-4.45z"/><path d="M27.191 16.484c-3.24 0-5.876 2.629-5.876 5.86 0 3.23 2.636 5.86 5.876 5.86a5.9 5.9 0 005.089-2.93l-2.035-1.173a3.53 3.53 0 01-6.378-.585h9.2v-1.172c0-3.231-2.636-5.86-5.876-5.86zm-3.324 4.688a3.53 3.53 0 016.648 0h-6.648z"/><path fill-rule="evenodd" clip-rule="evenodd" d="M21.065 22.344c0-3.37 2.749-6.11 6.126-6.11 3.377 0 6.126 2.74 6.126 6.11v1.422h-3.152l2.457 1.417-.126.217a6.15 6.15 0 01-5.305 3.053c-3.377 0-6.126-2.74-6.126-6.11zm9.086 1.422h-5.908a3.28 3.28 0 005.786.21l.122-.21zm-2.96-7.032c-3.102 0-5.626 2.518-5.626 5.61 0 3.092 2.524 5.61 5.626 5.61a5.652 5.652 0 004.742-2.591l-1.604-.925a3.78 3.78 0 01-6.698-.838l-.118-.334h9.304v-.922c0-3.092-2.523-5.61-5.626-5.61zm-2.948 4.188h5.896a3.28 3.28 0 00-5.896 0zm-.611.166a3.78 3.78 0 017.119 0l.118.334h-7.356l.118-.334z"/><path d="M22.49 11.797h9.402v2.344H22.49v-2.344z"/><path fill-rule="evenodd" clip-rule="evenodd" d="M22.24 11.547h9.902v2.844H22.24v-2.844zm.5.5v1.844h8.902v-1.844H22.74z"/></g><defs><clipPath id="clip0"><path fill="#fff" transform="translate(.085)" d="M0 0h40.111v40H0z"/></clipPath></defs></svg>