<svg width="40" height="41" fill="none" xmlns="http://www.w3.org/2000/svg"><path d="M19.922.783C9.148.783.368 9.763.368 20.783c0 11.018 8.78 19.998 19.554 19.998 10.773 0 19.554-8.98 19.554-19.999 0-11.018-8.78-19.999-19.554-19.999zm0 3.077c3.93 0 7.52 1.394 10.35 3.73-1.438 1.808-4.08 4.318-8.508 5.962-2.406-4.452-4.418-7.298-5.819-9.182a16.4 16.4 0 013.977-.51zm-6.957 1.586c1.175 1.548 3.3 4.462 5.829 9.02-6.496 1.74-12.363 1.855-14.807 1.778 1.307-4.807 4.616-8.74 8.978-10.798zm19.47 4.28a17.12 17.12 0 013.93 12.921c-.546-.076-.95-.144-1.646-.201a38.901 38.901 0 00-8.752.326 73.372 73.372 0 00-2.82-6.47c4.644-1.817 7.586-4.5 9.288-6.577zm-12.212 7.528a73.96 73.96 0 012.726 6.134c-3.958 1.202-7.559 3.942-10.322 6.49a50.25 50.25 0 00-3.592 3.644 17.024 17.024 0 01-5.668-12.73c0-.51.037-.99.075-1.48 2.143.086 8.997.153 16.78-2.058zm9.955 8.172c2.313-.086 4.137.077 5.585.24a16.82 16.82 0 01-6.525 9.116c-.498-3.164-1.269-6.202-2.2-9.067a37.677 37.677 0 013.14-.289zm-6.148.846c1.072 3.164 1.918 6.538 2.397 10.077a16.347 16.347 0 01-6.515 1.356c-3.092 0-5.96-.875-8.432-2.366.836-.913 1.87-2.019 3.149-3.182 2.66-2.442 6.13-4.933 9.401-5.885z" fill="#070707"/><path fill-rule="evenodd" clip-rule="evenodd" d="M31.666 7.445l-.611.768c-1.532 1.925-4.316 4.558-8.942 6.276l-.815.303-.413-.765c-2.378-4.399-4.362-7.204-5.742-9.06l-.895-1.204 1.455-.364a17.4 17.4 0 014.219-.539c4.172 0 7.986 1.482 10.987 3.96l.757.625zM13.271 4.196l.49.646c1.196 1.574 3.35 4.528 5.907 9.138l.621 1.12-1.237.331c-6.619 1.773-12.589 1.891-15.096 1.813l-1.266-.04.332-1.222c1.383-5.087 4.886-9.256 9.516-11.44l.733-.346zM32.424 8.16l.776.921a18.12 18.12 0 014.158 13.673l-.11 1.028-1.023-.144-.28-.04c-.419-.06-.764-.11-1.306-.156a37.903 37.903 0 00-8.521.32l-.801.121-.286-.758a72.373 72.373 0 00-2.782-6.382l-.48-.976 1.013-.397c4.46-1.745 7.269-4.313 8.879-6.279l.763-.931zm2.295 14.286c.249.02.46.042.654.065.255.03.48.063.72.098l.271.038c.036-.331.063-.663.08-.998a17.109 17.109 0 00-4.01-11.924c-.202.248-.423.504-.662.767-1.629 1.788-4.113 3.86-7.7 5.427-.3.131-.61.259-.926.383a71.805 71.805 0 012.82 6.47c3.338-.51 6.422-.51 8.753-.326zm-13.972-6.381l.37.742a74.969 74.969 0 012.764 6.217l.392 1.007-1.034.314c-3.74 1.136-7.206 3.753-9.935 6.268l-.004.004a49.24 49.24 0 00-3.519 3.571l-.667.746-.746-.667a18.024 18.024 0 01-6.001-13.475c0-.54.038-1.045.075-1.518l.076-1 .964.038c2.089.084 8.825.15 16.467-2.02l.798-.227zm9.394 8.362c2.383-.09 4.261.08 5.734.246l1.178.133-.33 1.14a17.821 17.821 0 01-6.913 9.656l-1.311.913-.249-1.578c-.489-3.104-1.246-6.091-2.163-8.913l-.37-1.142 1.19-.159a38.662 38.662 0 013.223-.296h.01zm-5.471.618l.307.906c1.09 3.217 1.952 6.654 2.441 10.264l.102.75-.696.302a17.345 17.345 0 01-6.912 1.438c-3.285 0-6.33-.93-8.948-2.51l-1.047-.63.825-.901c.842-.92 1.9-2.051 3.212-3.245 2.7-2.479 6.305-5.091 9.797-6.107l.919-.267zm-12.496 9.544a43.474 43.474 0 012.455-2.432c2.66-2.442 6.13-4.933 9.401-5.885 1.072 3.164 1.918 6.538 2.397 10.077a16.347 16.347 0 01-6.515 1.356c-2.726 0-5.277-.68-7.537-1.862a16.903 16.903 0 01-.895-.504c.218-.238.449-.489.694-.75zm7.748-32.806c-10.2 0-18.554 8.511-18.554 19 0 10.487 8.354 18.998 18.554 18.998s18.554-8.511 18.554-18.999S30.122 1.783 19.922 1.783zm9.704 6.57c-1.534 1.704-4.029 3.776-7.862 5.199-2.06-3.811-3.83-6.446-5.177-8.307-.226-.313-.44-.604-.642-.875.352-.088.71-.167 1.071-.234a15.868 15.868 0 012.906-.276 16.147 16.147 0 019.88 3.356c.159.122.316.247.47.375a16.245 16.245 0 01-.646.763zM12.965 5.447c-4.058 1.915-7.205 5.451-8.676 9.806-.11.326-.21.657-.302.992.296.01.642.016 1.034.017a54.652 54.652 0 0012.771-1.539 46.18 46.18 0 001.002-.257c-.171-.307-.34-.607-.507-.9-2.305-4.044-4.226-6.675-5.322-8.119zM8.31 32.833a17.025 17.025 0 01-4.943-12.041c0-.5.036-.973.073-1.454l.002-.027c2.143.087 8.997.154 16.78-2.057a74.53 74.53 0 012.727 6.134c-.319.097-.635.203-.949.32-3.583 1.322-6.832 3.827-9.373 6.17a50.118 50.118 0 00-3.592 3.644v-.001c-.249-.222-.49-.452-.725-.688zm19.74-7.24c.73-.078 1.445-.134 2.128-.167 1.804-.067 3.31.017 4.573.135.356.034.693.07 1.012.106a16.83 16.83 0 01-6.524 9.115 59.294 59.294 0 00-2.2-9.067c.339-.046.677-.086 1.011-.122zM.368 20.783c0-11.02 8.78-20 19.554-20 10.773 0 19.554 8.98 19.554 20 0 11.018-8.78 19.998-19.554 19.998S.368 31.801.368 20.782z" fill="#070707"/></svg>