<svg width="40" height="41" fill="none" xmlns="http://www.w3.org/2000/svg"><path d="M12.166.793C5.915.793.81 6.013.81 12.405v16.783c0 6.383 5.105 11.593 11.356 11.593H28.58c6.243 0 11.338-5.22 11.338-11.612V12.395c0-6.392-5.095-11.612-11.347-11.612H12.166v.01zm0 3.076h16.405c4.625 0 8.339 3.797 8.339 8.536v16.774c0 4.739-3.714 8.536-8.33 8.536H12.166c-4.634 0-8.348-3.797-8.348-8.517V12.414c.01-4.748 3.723-8.545 8.348-8.545zm20.24 3.076c-.836 0-1.503.682-1.503 1.538 0 .855.667 1.538 1.504 1.538.836 0 1.504-.683 1.504-1.538 0-.856-.668-1.538-1.504-1.538zM20.374 10.02c-5.79 0-10.529 4.845-10.529 10.766s4.738 10.766 10.53 10.766c5.79 0 10.529-4.845 10.529-10.766S26.165 10.02 20.374 10.02zm0 3.076c4.174 0 7.521 3.422 7.521 7.69 0 4.268-3.347 7.69-7.52 7.69-4.175 0-7.521-3.422-7.521-7.69 0-4.268 3.346-7.69 7.52-7.69z" fill="#070707"/><path fill-rule="evenodd" clip-rule="evenodd" d="M13.166 1.793h-1c-5.678 0-10.356 4.75-10.356 10.612v16.783c0 5.85 4.676 10.593 10.356 10.593H28.58c5.668 0 10.338-4.749 10.338-10.612V12.395c0-5.862-4.67-10.612-10.347-10.612H13.166v.01zm-1-1C5.915.793.81 6.013.81 12.405v16.783c0 6.383 5.105 11.593 11.356 11.593H28.58c6.243 0 11.338-5.22 11.338-11.612V12.395c0-6.392-5.095-11.612-11.347-11.612H12.166v.01zm-9.348 11.62c.01-5.277 4.148-9.544 9.348-9.544h16.405c5.2 0 9.339 4.266 9.339 9.536v16.774c0 5.268-4.14 9.536-9.33 9.536H12.166c-5.206 0-9.348-4.265-9.348-9.517V12.412zm29.589-4.468c-.264 0-.504.214-.504.538 0 .324.24.538.504.538.263 0 .504-.214.504-.538 0-.324-.24-.538-.504-.538zM20.373 11.02c-5.218 0-9.529 4.376-9.529 9.766s4.312 9.766 9.53 9.766c5.217 0 9.529-4.376 9.529-9.766s-4.312-9.766-9.53-9.766zm0 1.076c4.748 0 8.521 3.89 8.521 8.69 0 4.8-3.773 8.69-8.52 8.69-4.748 0-8.521-3.89-8.521-8.69 0-4.8 3.773-8.69 8.52-8.69zm8.198-8.228H12.166c-4.625 0-8.338 3.797-8.348 8.545v16.784c0 4.72 3.714 8.517 8.348 8.517H28.58c4.616 0 8.33-3.797 8.33-8.536V12.405c0-4.74-3.714-8.536-8.339-8.536zm2.331 4.614c0-.856.668-1.538 1.505-1.538.836 0 1.504.682 1.504 1.538 0 .855-.668 1.538-1.504 1.538-.837 0-1.504-.683-1.504-1.538zM9.845 20.787c0-5.921 4.738-10.766 10.53-10.766 5.79 0 10.529 4.845 10.529 10.766s-4.739 10.766-10.53 10.766c-5.79 0-10.529-4.845-10.529-10.766zm18.05 0c0-4.268-3.347-7.69-7.52-7.69-4.175 0-7.521 3.422-7.521 7.69 0 4.268 3.346 7.69 7.52 7.69 4.174 0 7.521-3.422 7.521-7.69z" fill="#070707"/></svg>