<svg width="41" height="41" fill="none" xmlns="http://www.w3.org/2000/svg"><path d="M34.575.643h-28.4C2.932.643.293 3.275.293 6.51v28.323c0 3.235 2.64 5.868 5.884 5.868h28.399c3.244 0 5.884-2.633 5.884-5.868V6.51c0-3.236-2.64-5.868-5.884-5.868zm3.53 34.19a3.53 3.53 0 01-3.53 3.521h-28.4a3.53 3.53 0 01-3.53-3.52V6.51a3.53 3.53 0 013.53-3.521h28.4a3.53 3.53 0 013.53 3.52v28.324z" fill="#070707"/><path fill-rule="evenodd" clip-rule="evenodd" d="M.042 6.51C.042 3.137 2.794.394 6.176.394h28.399c3.382 0 6.134 2.743 6.134 6.118v28.323c0 3.374-2.752 6.118-6.134 6.118h-28.4c-3.381 0-6.133-2.744-6.133-6.118V6.51zM6.176.894C3.069.893.542 3.413.542 6.51v28.323c0 3.097 2.527 5.618 5.634 5.618h28.399c3.107 0 5.634-2.521 5.634-5.618V6.51c0-3.097-2.527-5.618-5.634-5.618h-28.4zm0 2.347a3.28 3.28 0 00-3.28 3.27v28.324a3.28 3.28 0 003.28 3.27h28.399a3.28 3.28 0 003.28-3.27V6.51a3.28 3.28 0 00-3.28-3.271h-28.4zm-3.78 3.27a3.78 3.78 0 013.78-3.77h28.399a3.78 3.78 0 013.78 3.77v28.324a3.78 3.78 0 01-3.78 3.77h-28.4a3.78 3.78 0 01-3.78-3.77V6.51z" fill="#070707"/><path d="M31.42 29.679h-4.312v-7.202c0-.497-.036-.988-.161-1.472-.515-1.999-2.741-1.882-3.627-.935-.445.476-.736 1.014-.748 1.679-.002.158-.012.317-.012.475v7.453h-4.304V16.313h4.302v1.793l.034.015c.03-.041.062-.082.092-.125.432-.598.927-1.13 1.585-1.488.736-.402 1.53-.536 2.356-.512.895.026 1.744.227 2.51.709.98.617 1.579 1.52 1.929 2.604.273.845.362 1.716.363 2.598.002 2.539 0 5.077 0 7.616 0 .05-.004.1-.007.157zm-15.794.007h-4.28V16.309h4.28v13.377z" fill="#070707"/><path fill-rule="evenodd" clip-rule="evenodd" d="M15.596 29.655V16.34h-4.22v13.316h4.22zm.03.031V16.309h-4.28v13.377h4.28z" fill="#070707"/><path d="M13.67 9.656c1.347-.002 2.3.957 2.305 2.318.005 1.346-.964 2.3-2.338 2.3-1.34 0-2.297-.958-2.3-2.305-.002-1.349.968-2.31 2.332-2.313z" fill="#070707"/><path fill-rule="evenodd" clip-rule="evenodd" d="M15.304 10.326c-.401-.404-.968-.64-1.635-.64-1.347.003-2.303.951-2.3 2.283.002 1.33.944 2.275 2.268 2.274.68 0 1.258-.236 1.665-.636.407-.4.645-.967.643-1.633-.003-.673-.24-1.245-.64-1.648zm.671 1.648c-.004-1.361-.958-2.32-2.306-2.318-1.364.002-2.334.964-2.331 2.313.002 1.347.959 2.306 2.3 2.305 1.373 0 2.341-.954 2.337-2.3z" fill="#070707"/></svg>