<svg width="30" height="30" viewBox="0 0 30 30" fill="none" xmlns="http://www.w3.org/2000/svg">
<g id="Viber">
<g id="Viber_2">
<rect id="Rectangle" width="30" height="30" rx="15" fill="#675DA9"/>
<g id="Group">
<path id="Vector" d="M22.3458 7.61534C21.8496 7.15917 19.8408 5.69864 15.3632 5.67863C15.3632 5.67863 10.0853 5.35851 7.51233 7.71938C6.07981 9.1519 5.57562 11.2447 5.5236 13.8456C5.47158 16.4426 5.40356 21.3123 10.0973 22.6328H10.1013L10.0973 24.6456C10.0973 24.6456 10.0693 25.4619 10.6055 25.6259C11.2537 25.826 11.6378 25.2058 12.2581 24.5375C12.5982 24.1694 13.0664 23.6332 13.4225 23.221C16.6317 23.4891 19.1006 22.8729 19.3807 22.7809C20.0289 22.5688 23.6982 22.1006 24.2945 17.2309C24.9107 12.221 23.9944 9.04786 22.3458 7.61534ZM22.89 16.8787C22.3858 20.9442 19.4127 21.2003 18.8645 21.3764C18.6324 21.4524 16.4636 21.9926 13.7346 21.8125C13.7346 21.8125 11.7019 24.2654 11.0696 24.9017C10.9696 25.0017 10.8536 25.0417 10.7775 25.0217C10.6695 24.9937 10.6375 24.8657 10.6415 24.6776C10.6415 24.4055 10.6575 21.3284 10.6575 21.3284C10.6535 21.3284 10.6535 21.3284 10.6575 21.3284C6.68403 20.228 6.91611 16.0824 6.96013 13.9136C7.00414 11.7449 7.41229 9.9642 8.62474 8.76776C10.7975 6.79904 15.2832 7.09115 15.2832 7.09115C19.0686 7.10715 20.8812 8.24757 21.3014 8.62771C22.6979 9.82815 23.4101 12.6892 22.89 16.8787Z" fill="white"/>
<path id="Vector_2" d="M17.2079 13.9897C17.0759 13.9897 16.9638 13.8856 16.9558 13.7496C16.9118 12.8893 16.5077 12.4691 15.6834 12.4251C15.5433 12.4171 15.4353 12.2971 15.4433 12.157C15.4513 12.017 15.5713 11.9089 15.7114 11.9169C16.7998 11.9769 17.408 12.6012 17.464 13.7216C17.472 13.8616 17.364 13.9817 17.2239 13.9857C17.2159 13.9897 17.2119 13.9897 17.2079 13.9897Z" fill="white"/>
<path id="Vector_3" d="M18.5043 14.4219H18.5003C18.3603 14.4179 18.2482 14.3019 18.2522 14.1618C18.2722 13.2975 18.0241 12.5973 17.4959 12.021C16.9717 11.4448 16.2475 11.1327 15.2911 11.0647C15.1511 11.0527 15.047 10.9326 15.059 10.7926C15.0711 10.6525 15.1911 10.5485 15.3311 10.5605C16.4115 10.6405 17.2639 11.0167 17.8721 11.6809C18.4843 12.3492 18.7804 13.1855 18.7604 14.1738C18.7564 14.3139 18.6404 14.4219 18.5043 14.4219Z" fill="white"/>
<path id="Vector_4" d="M19.8327 14.9418C19.6927 14.9418 19.5807 14.8298 19.5807 14.6897C19.5687 13.1412 19.1245 11.9607 18.2202 11.0764C17.3278 10.2041 16.1954 9.75994 14.8629 9.74793C14.7229 9.74793 14.6108 9.63189 14.6108 9.49184C14.6108 9.35179 14.7269 9.23975 14.8629 9.23975C16.3315 9.25175 17.5799 9.74393 18.5683 10.7123C19.5607 11.6806 20.0688 13.0171 20.0848 14.6817C20.0888 14.8258 19.9768 14.9418 19.8327 14.9418C19.8368 14.9418 19.8368 14.9418 19.8327 14.9418Z" fill="white"/>
<path id="Vector_5" d="M15.7432 17.1229C15.7432 17.1229 16.0993 17.1549 16.2914 16.9189L16.6635 16.4507C16.8436 16.2186 17.2797 16.0705 17.7039 16.3066C17.94 16.4387 18.3681 16.7028 18.6322 16.8988C18.9163 17.1069 19.4925 17.5871 19.4966 17.5911C19.7727 17.8232 19.8367 18.1633 19.6486 18.5274C19.6486 18.5274 19.6486 18.5314 19.6486 18.5354C19.4565 18.8756 19.1964 19.1957 18.8723 19.4918C18.8683 19.4918 18.8683 19.4958 18.8643 19.4958C18.5962 19.7199 18.3321 19.8479 18.076 19.8759C18.044 19.8839 18.008 19.8839 17.96 19.8839C17.8479 19.8839 17.7359 19.8679 17.6239 19.8319L17.6159 19.8199C17.2157 19.7079 16.5515 19.4278 15.4471 18.8155C14.7268 18.4194 14.1306 18.0153 13.6224 17.6111C13.3543 17.399 13.0822 17.1629 12.8021 16.8828C12.7941 16.8748 12.7821 16.8628 12.7741 16.8548C12.7661 16.8468 12.7541 16.8348 12.7461 16.8268C12.7381 16.8188 12.7261 16.8068 12.7181 16.7988C12.7101 16.7908 12.6981 16.7788 12.6901 16.7708C12.414 16.4907 12.1739 16.2186 11.9618 15.9505C11.5576 15.4463 11.1535 14.8461 10.7574 14.1258C10.1451 13.0174 9.86503 12.3532 9.75299 11.957L9.74098 11.949C9.70497 11.837 9.68896 11.725 9.68896 11.6129C9.68896 11.5649 9.68897 11.5289 9.69697 11.4969C9.72898 11.2368 9.85703 10.9767 10.0771 10.7086C10.0771 10.7046 10.0811 10.7046 10.0811 10.7006C10.3772 10.3725 10.6973 10.1164 11.0375 9.9243C11.0375 9.9243 11.0415 9.9243 11.0455 9.9243C11.4056 9.73623 11.7457 9.80025 11.9818 10.0764C11.9818 10.0764 12.466 10.6566 12.6741 10.9407C12.8701 11.2088 13.1342 11.6329 13.2663 11.869C13.5024 12.2932 13.3543 12.7293 13.1222 12.9094L12.654 13.2815C12.418 13.4736 12.45 13.8297 12.45 13.8297C12.45 13.8297 13.1422 16.4627 15.7432 17.1229Z" fill="white"/>
</g>
</g>
</g>
</svg>
