<svg width="30" height="30" viewBox="0 0 30 30" fill="none" xmlns="http://www.w3.org/2000/svg">
<rect width="30" height="30" rx="15" fill="#0DC143"/>
<path d="M21.719 8.25718C20.1109 6.60177 17.8879 5.70312 15.6177 5.70312C10.7934 5.70312 6.91497 9.6288 6.96227 14.4058C6.96227 15.9193 7.38795 17.3856 8.09741 18.7099L6.86768 23.2031L11.4555 22.0207C12.7325 22.7302 14.1515 23.0612 15.5704 23.0612C20.3474 23.0612 24.2258 19.1356 24.2258 14.3585C24.2258 12.041 23.3271 9.86529 21.719 8.25718ZM15.6177 21.595C14.3406 21.595 13.0636 21.2639 11.9758 20.6018L11.692 20.4599L8.94876 21.1693L9.65822 18.4734L9.46903 18.1896C7.38795 14.8315 8.38119 10.3856 11.7866 8.30448C15.192 6.2234 19.5906 7.21664 21.6717 10.622C23.7528 14.0274 22.7596 18.4261 19.3542 20.5072C18.2663 21.2166 16.942 21.595 15.6177 21.595ZM19.7798 16.345L19.2596 16.1085C19.2596 16.1085 18.5028 15.7774 18.0298 15.541C17.9825 15.541 17.9352 15.4937 17.8879 15.4937C17.7461 15.4937 17.6515 15.541 17.5569 15.5883C17.5569 15.5883 17.5096 15.6356 16.8474 16.3923C16.8001 16.4869 16.7055 16.5342 16.6109 16.5342H16.5636C16.5163 16.5342 16.4217 16.4869 16.3744 16.4396L16.1379 16.345C15.6177 16.1085 15.1447 15.8247 14.7663 15.4464C14.6717 15.3518 14.5298 15.2572 14.4352 15.1626C14.1042 14.8315 13.7731 14.4531 13.5366 14.0274L13.4893 13.9329C13.442 13.8856 13.442 13.8383 13.3947 13.7437C13.3947 13.6491 13.3947 13.5545 13.442 13.5072C13.442 13.5072 13.6312 13.2707 13.7731 13.1288C13.8677 13.0342 13.915 12.8923 14.0096 12.7977C14.1042 12.6558 14.1515 12.4666 14.1042 12.3247C14.0569 12.0883 13.4893 10.8112 13.3474 10.5274C13.2528 10.3856 13.1582 10.3383 13.0163 10.291H12.8744C12.7798 10.291 12.6379 10.291 12.4961 10.291C12.4015 10.291 12.3069 10.3383 12.2123 10.3383L12.165 10.3856C12.0704 10.4329 11.9758 10.5274 11.8812 10.5747C11.7866 10.6693 11.7393 10.7639 11.6447 10.8585C11.3136 11.2842 11.1244 11.8045 11.1244 12.3247C11.1244 12.7031 11.219 13.0815 11.3609 13.4126L11.4082 13.5545C11.8339 14.4531 12.4015 15.2572 13.1582 15.9666L13.3474 16.1558C13.4893 16.2977 13.6312 16.3923 13.7258 16.5342C14.719 17.3856 15.8542 18.0004 17.1312 18.3315C17.2731 18.3788 17.4623 18.3788 17.6042 18.4261C17.7461 18.4261 17.9352 18.4261 18.0771 18.4261C18.3136 18.4261 18.5974 18.3315 18.7866 18.2369C18.9285 18.1423 19.0231 18.1423 19.1177 18.0477L19.2123 17.9531C19.3069 17.8585 19.4015 17.8112 19.4961 17.7166C19.5906 17.622 19.6852 17.5274 19.7325 17.4329C19.8271 17.2437 19.8744 17.0072 19.9217 16.7707C19.9217 16.6761 19.9217 16.5342 19.9217 16.4396C19.9217 16.4396 19.8744 16.3923 19.7798 16.345Z" fill="white"/>
</svg>
