<svg width="15" height="28" viewBox="0 0 15 28" fill="none" xmlns="http://www.w3.org/2000/svg">
<path fill-rule="evenodd" clip-rule="evenodd" d="M4.27646 2.52751C5.27695 1.16881 6.92908 0.225586 9.39731 0.225586H9.40121L13.1337 0.240162C13.7946 0.242741 14.329 0.779242 14.329 1.44015V5.42137C14.329 6.07681 13.8001 6.62137 13.1301 6.62137H10.4742C10.438 6.62137 10.406 6.62622 10.3835 6.6328C10.3811 6.63353 10.3789 6.63423 10.3769 6.63488C10.3684 6.65665 10.3486 6.72087 10.3486 6.85009V8.50333H13.1725C13.8837 8.50333 14.4388 9.11832 14.3663 9.82578L13.9443 13.9396C13.8815 14.5517 13.3659 15.0171 12.7505 15.0171H10.3486V26.592C10.3486 27.2702 9.79571 27.7896 9.14863 27.7896H4.2395C3.5934 27.7896 3.0395 27.2714 3.0395 26.5921V15.0171H1.71538C1.05264 15.0171 0.515381 14.4799 0.515381 13.8171V9.70333C0.515381 9.04059 1.05264 8.50333 1.71538 8.50333H3.0395V6.58339C3.0395 5.408 3.31426 3.8342 4.27646 2.52751ZM5.88693 3.71341C5.26137 4.56294 5.0395 5.66804 5.0395 6.58339V10.5033H2.51538V13.0171H5.0395V25.7896H8.34863V13.0171H12.0284L12.2863 10.5033H8.34863V6.85009C8.34863 6.11142 8.60594 5.49534 9.10378 5.08807C9.56358 4.71192 10.0987 4.62137 10.4742 4.62137H12.329V2.23704L9.39731 2.22559C9.39668 2.22559 9.39605 2.22559 9.39542 2.22559C7.5003 2.22604 6.474 2.91616 5.88693 3.71341Z" fill="#17C1BC"/>
</svg>
