<svg width="180" height="45" viewBox="0 0 180 45" fill="none" xmlns="http://www.w3.org/2000/svg">
<path d="M13.8721 9.11755C13.8721 4.72388 17.4338 1.16211 21.8275 1.16211V19.7851H13.8721V9.11755Z" fill="#FF492F"/>
<path d="M13.9287 25.5337H21.8841V36.2012C21.8841 40.5949 18.3224 44.1566 13.9287 44.1566V44.1566V25.5337Z" fill="#FF9F1C"/>
<path d="M27.1055 11.791C31.4991 11.791 35.0609 15.3528 35.0609 19.7465V30.414H27.1055V11.791Z" fill="#078E14"/>
<path d="M0.751953 19.7465C0.751953 15.3528 4.31372 11.791 8.70739 11.791V30.414H0.751953V19.7465Z" fill="#1064AE"/>
<path d="M57.7049 33.6592V33.3392L59.0169 33.0192C59.8916 32.8272 60.3289 32.2938 60.3289 31.4192V13.1792H57.6089C56.8196 13.1792 56.2542 13.3925 55.9129 13.8192C55.5716 14.2245 55.2089 14.7898 54.8249 15.5152L53.6729 17.7552H53.3529L53.5129 12.5392H71.9769L72.1049 17.7552H71.7849L70.6329 15.5152C70.2702 14.7898 69.9182 14.2245 69.5769 13.8192C69.2356 13.3925 68.6702 13.1792 67.8809 13.1792H65.1609V31.4192C65.1609 32.2938 65.5982 32.8272 66.4729 33.0192L67.7849 33.3392V33.6592H57.7049ZM79.0739 34.1392C77.4526 34.1392 76.0446 33.8085 74.8499 33.1472C73.6552 32.4645 72.7272 31.5045 72.0659 30.2672C71.4259 29.0298 71.1059 27.5792 71.1059 25.9152C71.1059 24.2512 71.4472 22.8112 72.1299 21.5952C72.8339 20.3792 73.7832 19.4405 74.9779 18.7792C76.1939 18.1178 77.5592 17.7872 79.0739 17.7872C80.5886 17.7872 81.9432 18.1178 83.1379 18.7792C84.3326 19.4192 85.2712 20.3472 85.9539 21.5632C86.6579 22.7792 87.0099 24.2298 87.0099 25.9152C87.0099 27.6005 86.6792 29.0618 86.0179 30.2992C85.3779 31.5152 84.4606 32.4645 83.2659 33.1472C82.0926 33.8085 80.6952 34.1392 79.0739 34.1392ZM79.0739 33.4992C79.8206 33.4992 80.4179 33.2858 80.8659 32.8592C81.3139 32.4325 81.6339 31.6752 81.8259 30.5872C82.0392 29.4992 82.1459 27.9632 82.1459 25.9792C82.1459 23.9738 82.0392 22.4272 81.8259 21.3392C81.6339 20.2512 81.3139 19.4938 80.8659 19.0672C80.4179 18.6405 79.8206 18.4272 79.0739 18.4272C78.3272 18.4272 77.7192 18.6405 77.2499 19.0672C76.8019 19.4938 76.4712 20.2512 76.2579 21.3392C76.0659 22.4272 75.9699 23.9738 75.9699 25.9792C75.9699 27.9632 76.0659 29.4992 76.2579 30.5872C76.4712 31.6752 76.8019 32.4325 77.2499 32.8592C77.7192 33.2858 78.3272 33.4992 79.0739 33.4992ZM94.0824 34.1392C93.2504 34.1392 92.4824 33.9792 91.7784 33.6592C91.0957 33.3392 90.5517 32.8272 90.1464 32.1232C89.7624 31.3978 89.5811 30.4485 89.6024 29.2752L89.6984 21.0512C89.6984 20.5605 89.6131 20.2085 89.4424 19.9952C89.2717 19.7818 89.0051 19.6325 88.6424 19.5472L88.2584 19.4192V19.0992L93.9864 17.9792L94.3064 18.2992L94.1464 22.8432V30.5552C94.1464 31.2378 94.3384 31.7392 94.7224 32.0592C95.1277 32.3792 95.6291 32.5392 96.2264 32.5392C96.8237 32.5392 97.3571 32.4538 97.8264 32.2832C98.2957 32.1125 98.7651 31.8565 99.2344 31.5152L99.3624 21.0832C99.3624 20.5925 99.2877 20.2512 99.1384 20.0592C98.9891 19.8458 98.7117 19.6965 98.3064 19.6112L97.9864 19.5152V19.1952L103.586 17.9792L103.906 18.2992L103.81 22.8432V31.5152C103.81 31.9845 103.874 32.3472 104.002 32.6032C104.13 32.8592 104.408 33.0725 104.834 33.2432L105.154 33.3392V33.6592L99.5544 33.9792L99.2664 32.0912C98.5624 32.6672 97.7944 33.1578 96.9624 33.5632C96.1517 33.9472 95.1917 34.1392 94.0824 34.1392ZM106.447 33.6592V33.3392L106.927 33.2112C107.353 33.0832 107.641 32.8912 107.791 32.6352C107.961 32.3792 108.047 32.0485 108.047 31.6432V21.6272C108.047 21.1578 107.961 20.8165 107.791 20.6032C107.641 20.3685 107.353 20.2085 106.927 20.1232L106.447 19.9952V19.6752L111.951 17.8192L112.271 18.1392L112.559 20.8912V21.1472C112.857 20.5498 113.241 20.0058 113.711 19.5152C114.201 19.0032 114.735 18.5872 115.311 18.2672C115.908 17.9472 116.495 17.7872 117.071 17.7872C117.881 17.7872 118.5 18.0112 118.927 18.4592C119.353 18.9072 119.567 19.4725 119.567 20.1552C119.567 20.8805 119.353 21.4458 118.927 21.8512C118.521 22.2352 118.031 22.4272 117.455 22.4272C116.559 22.4272 115.769 21.9792 115.087 21.0832L115.023 21.0192C114.809 20.7205 114.564 20.5605 114.287 20.5392C114.009 20.4965 113.753 20.6245 113.519 20.9232C113.305 21.1152 113.124 21.3498 112.975 21.6272C112.847 21.8832 112.719 22.1818 112.591 22.5232V31.4512C112.591 32.3045 112.964 32.8378 113.711 33.0512L114.735 33.3392V33.6592H106.447Z" fill="white"/>
<path d="M120.572 41.0192V40.6992L120.956 40.5712C121.745 40.3578 122.14 39.8458 122.14 39.0352V21.6272C122.14 21.1578 122.054 20.8058 121.884 20.5712C121.734 20.3365 121.446 20.1765 121.02 20.0912L120.572 19.9952V19.6752L126.012 17.8192L126.332 18.1392L126.62 19.1312C127.324 18.7045 128.102 18.3738 128.956 18.1392C129.83 17.9045 130.726 17.7872 131.644 17.7872C133.478 17.7872 134.929 18.4912 135.996 19.8992C137.084 21.2858 137.628 23.2805 137.628 25.8832C137.628 28.4432 137.03 30.4592 135.836 31.9312C134.662 33.4032 132.998 34.1392 130.844 34.1392C129.158 34.1392 127.74 33.8938 126.588 33.4032V38.9392C126.588 39.7925 126.972 40.3258 127.74 40.5392L128.348 40.6992V41.0192H120.572ZM129.308 33.2112C130.374 33.2112 131.217 32.6565 131.836 31.5472C132.476 30.4378 132.796 28.5925 132.796 26.0112C132.796 23.4298 132.497 21.6272 131.9 20.6032C131.302 19.5578 130.438 19.0352 129.308 19.0352C128.518 19.0352 127.644 19.2912 126.684 19.8032V32.6992C127.494 33.0405 128.369 33.2112 129.308 33.2112ZM139.043 33.6592V33.3392L139.427 33.2112C140.195 32.9552 140.579 32.4218 140.579 31.6112V14.4912C140.579 14.0645 140.493 13.7445 140.323 13.5312C140.152 13.2965 139.853 13.1258 139.427 13.0192L139.011 12.9232V12.6032L144.867 11.2272L145.251 11.5152L145.123 15.9952V26.9392C145.123 27.7285 145.123 28.5178 145.123 29.3072C145.144 30.0752 145.155 30.8432 145.155 31.6112C145.155 32.0378 145.24 32.3898 145.411 32.6672C145.581 32.9232 145.869 33.1152 146.275 33.2432L146.691 33.3392V33.6592H139.043ZM153.77 34.1392C152.938 34.1392 152.17 33.9792 151.466 33.6592C150.783 33.3392 150.239 32.8272 149.834 32.1232C149.45 31.3978 149.269 30.4485 149.29 29.2752L149.386 21.0512C149.386 20.5605 149.301 20.2085 149.13 19.9952C148.959 19.7818 148.693 19.6325 148.33 19.5472L147.946 19.4192V19.0992L153.674 17.9792L153.994 18.2992L153.834 22.8432V30.5552C153.834 31.2378 154.026 31.7392 154.41 32.0592C154.815 32.3792 155.317 32.5392 155.914 32.5392C156.511 32.5392 157.045 32.4538 157.514 32.2832C157.983 32.1125 158.453 31.8565 158.922 31.5152L159.05 21.0832C159.05 20.5925 158.975 20.2512 158.826 20.0592C158.677 19.8458 158.399 19.6965 157.994 19.6112L157.674 19.5152V19.1952L163.274 17.9792L163.594 18.2992L163.498 22.8432V31.5152C163.498 31.9845 163.562 32.3472 163.69 32.6032C163.818 32.8592 164.095 33.0725 164.522 33.2432L164.842 33.3392V33.6592L159.242 33.9792L158.954 32.0912C158.25 32.6672 157.482 33.1578 156.65 33.5632C155.839 33.9472 154.879 34.1392 153.77 34.1392ZM171.858 34.1392C170.812 34.1392 169.874 34.0112 169.042 33.7552C168.21 33.5205 167.442 33.2218 166.738 32.8592L166.77 29.0512H167.09L168.178 30.9712C168.647 31.8245 169.159 32.4645 169.714 32.8912C170.29 33.2965 171.015 33.4992 171.89 33.4992C172.914 33.4992 173.735 33.2752 174.354 32.8272C174.994 32.3578 175.314 31.7392 175.314 30.9712C175.314 30.2672 175.09 29.6912 174.642 29.2432C174.194 28.7952 173.362 28.3898 172.146 28.0272L170.802 27.6112C169.5 27.2272 168.476 26.6298 167.73 25.8192C166.983 25.0085 166.61 24.0165 166.61 22.8432C166.61 21.4352 167.164 20.2405 168.274 19.2592C169.383 18.2778 170.972 17.7872 173.042 17.7872C173.874 17.7872 174.652 17.8832 175.378 18.0752C176.124 18.2458 176.839 18.5125 177.522 18.8752L177.33 22.3312H177.01L175.89 20.3472C175.484 19.6432 175.079 19.1525 174.674 18.8752C174.29 18.5765 173.703 18.4272 172.914 18.4272C172.188 18.4272 171.506 18.6298 170.866 19.0352C170.226 19.4405 169.906 20.0165 169.906 20.7632C169.906 21.4885 170.172 22.0645 170.706 22.4912C171.26 22.9178 172.071 23.3125 173.138 23.6752L174.578 24.0912C176.114 24.5605 177.212 25.2112 177.874 26.0432C178.535 26.8538 178.866 27.8352 178.866 28.9872C178.866 30.5445 178.247 31.7925 177.01 32.7312C175.794 33.6698 174.076 34.1392 171.858 34.1392Z" fill="#FF492F"/>
</svg>
