<svg width="25" height="25" viewBox="0 0 25 25" fill="none" xmlns="http://www.w3.org/2000/svg">
<path fill-rule="evenodd" clip-rule="evenodd" d="M13.2545 23.2779C15.6765 21.6549 21.7812 17.0074 21.7812 11.396C21.7812 6.14929 17.528 1.896 12.2812 1.896C7.03454 1.896 2.78125 6.14929 2.78125 11.396C2.78125 17.0074 8.88602 21.6549 11.308 23.2779C11.903 23.6766 12.6595 23.6766 13.2545 23.2779ZM12.2812 14.396C13.9381 14.396 15.2812 13.0529 15.2812 11.396C15.2812 9.73914 13.9381 8.396 12.2812 8.396C10.6244 8.396 9.28125 9.73914 9.28125 11.396C9.28125 13.0529 10.6244 14.396 12.2812 14.396Z" fill="#FF492F"/>
</svg>
