<svg width="370" height="176" viewBox="0 0 370 176" fill="none" xmlns="http://www.w3.org/2000/svg">
<path fill-rule="evenodd" clip-rule="evenodd" d="M21.4182 0.539289C12.451 2.08525 5.84363 6.90961 1.5717 15.0295C0.267499 17.5086 0.0103525 18.9755 0.000462265 23.9745C-0.0100874 29.4835 0.14552 30.2071 1.97588 33.1685C4.4801 37.2199 7.28498 38.9049 11.5279 38.9049C17.0572 38.9049 21.3628 35.3609 21.5395 30.6651C21.6087 28.8245 21.0344 27.3273 19.27 24.7455C15.8915 19.8018 15.7583 17.5804 18.7478 16.0351C24.0088 13.3162 34.1265 16.0852 36.7435 20.9603C38.3516 23.9567 38.0173 29.6937 35.918 35.1237C34.0889 39.8525 28.9262 45.3167 23.2241 48.5596C16.8647 52.1754 13.1591 55.4953 11.2826 59.2587C8.35247 65.1361 9.13248 69.463 13.8726 73.6224L16.2845 75.7391L14.8827 79.1091C14.1119 80.9628 13.1677 84.5028 12.7833 86.9759C11.9123 92.5884 12.5961 94.9285 16.1117 98.3591C18.2322 100.429 19.2852 100.938 21.972 101.197C26.1226 101.595 29.8829 99.6507 31.9005 96.0625C33.959 92.4013 39.9347 87.2382 44.9933 84.7492C48.7213 82.9153 50.1375 82.5746 54.0422 82.5746C59.4693 82.5746 62.5749 83.9565 71.368 90.2846C78.6064 95.4938 83.3965 97.4062 89.1533 97.3851C95.557 97.3621 103.731 94.3288 108.134 90.3413C112.335 86.537 120.379 80.572 122.735 79.5137C124.243 78.8362 127.062 78.1845 128.999 78.0652C133.466 77.7904 142.302 79.6909 146.541 81.8379L149.806 83.4913L150.274 89.9519C150.842 97.8042 153.308 111.439 155.613 119.477C156.548 122.739 158.902 128.67 160.844 132.657C168.373 148.116 177.917 154.522 188.309 151.09C191.078 150.175 192.886 148.886 196.513 145.241C203.318 138.4 208.462 127.735 211.906 113.325C212.606 110.395 213.37 107.69 213.603 107.313C214.752 105.454 215.079 107.254 214.772 113.741C214.496 119.548 214.635 121.242 215.527 122.967C217.336 126.462 218.742 125.821 226.435 117.984C235.722 108.524 242.367 105.023 254.029 103.446L258.174 102.885L257.665 105.909C257.385 107.573 257.18 109.972 257.211 111.24C257.716 132.019 257.548 133.582 254.048 140.609C252.924 142.866 249.078 148.221 245.502 152.508C238.872 160.456 236.56 164.648 237.263 167.447C237.9 169.982 240.111 172.305 243.407 173.9C246.2 175.251 247.683 175.416 259.393 175.683C266.492 175.845 273.679 175.987 275.363 176C278.867 176.025 282.015 174.456 284.1 171.641C285.392 169.899 285.477 169.051 285.321 159.45C285.229 153.774 285.377 148.814 285.651 148.426C285.924 148.039 288.225 147.225 290.763 146.619C296.626 145.217 303.745 141.682 314.141 135.012C326.621 127.003 331.267 126.626 337.178 133.139C343.931 140.578 344.922 141.438 347.549 142.145C351.23 143.136 355.378 141.814 361.643 137.655C369.138 132.679 370.698 131.264 369.752 130.299C369.125 129.66 368.692 129.684 367.692 130.414C361.945 134.611 357.693 137.312 354.628 138.715C349.122 141.233 347.584 140.681 341.492 133.993C335.743 127.681 333.38 126.302 328.309 126.302C324.049 126.302 320.033 127.985 312.852 132.776C304.114 138.605 298.803 141.448 293.232 143.274C290.238 144.256 287.597 144.868 287.363 144.635C287.13 144.401 289.376 140.532 292.356 136.035C298.941 126.1 300.946 121.511 300.967 116.326C300.985 111.967 299.954 109.098 297.387 106.367L295.594 104.459L298.124 104.895C299.515 105.135 304.511 105.518 309.226 105.744C320.144 106.269 324.097 105.307 328.309 101.098C331.667 97.7423 333.061 94.0177 333.978 85.9558C335.358 73.8102 332.145 65.6534 324.409 61.6712C320.805 59.8162 320.427 59.7167 297.229 54.5424C271.54 48.8126 267.356 48.6294 267.356 53.235C267.356 55.0999 267.89 56.0007 273.032 62.8053C279.461 71.3153 279.898 74.9476 275.321 81.8379L272.772 85.6725L273.123 81.3054C273.45 77.2376 273.303 76.5898 270.976 71.8491C269.111 68.0488 267.208 65.5051 263.467 61.8096C257.788 56.2017 253.958 53.9981 239.993 48.3045C234.916 46.2347 229.717 44.0087 228.441 43.3576C224.557 41.3787 219.273 37.1026 217.157 34.2262C213.783 29.6417 211.742 31.1428 214.941 35.8552C220.515 44.0627 222.098 65.9579 218.63 86.858C215.871 103.483 216.064 102.826 213.39 104.696C211.145 106.266 210.856 106.865 209.418 112.933C206.223 126.407 199.791 139.537 193.815 144.78C186.618 151.096 179.275 151.062 171.982 144.679C165.97 139.419 159.666 126.341 156.339 112.229C154.967 106.407 152.665 90.3248 152.636 86.344C152.632 85.8748 154.754 86.9113 157.409 88.6748C163.111 92.4612 165.249 93.4477 167.757 93.4477C169.291 93.4477 170.025 94.056 171.767 96.7683C177.721 106.041 188.891 110.028 197.795 106.059C201.57 104.376 206.677 99.6467 209.014 95.6718C210.939 92.3953 212.794 85.772 214.552 75.8965C215.663 69.6527 215.762 67.5895 215.214 62.058C212.296 32.5807 202.95 11.133 190.077 4.37387C185.734 2.09381 179.744 2.26712 175.134 4.80682C165.327 10.2104 157.102 25.618 152.972 46.3263C151.119 55.6146 149.992 66.2808 149.992 74.5226C149.992 79.8847 149.889 80.3637 148.838 79.8979C142.325 77.0102 136.786 75.6824 131.2 75.6699C126.01 75.658 124.77 75.8932 121.31 77.546C119.134 78.5852 114.09 82.0764 110.101 85.3034C100.508 93.0642 97.4823 94.3887 89.3314 94.3953C82.246 94.4013 80.8231 93.8635 72.8166 88.1535C65.9758 83.2758 61.5753 80.9924 57.5948 80.257C50.8193 79.0056 43.2328 81.5216 36.8299 87.144L33.45 90.112L32.3206 87.1558C30.9814 83.6514 25.7903 77.7595 22.4639 75.969C21.1637 75.2692 20.0995 74.456 20.0995 74.1615C20.0995 72.7236 22.932 68.4488 25.4844 66.033C27.0556 64.5463 31.5735 61.1361 35.5243 58.4548C47.1995 50.5306 53.998 42.9095 56.733 34.6802C58.3597 29.7853 57.819 21.819 55.5192 16.8028C51.9949 9.11784 43.4273 3.04406 33.1039 0.912927C27.6959 -0.20338 26.0363 -0.256755 21.4182 0.539289ZM32.3252 3.22857C38.0984 4.29545 44.0128 7.24964 48.0909 11.1047C52.2462 15.0322 54.1754 18.584 55.0411 23.9C56.8979 35.3023 50.096 45.5204 32.7999 57.3108C24.2006 63.173 21.3311 65.9888 17.7219 72.1061C17.0421 73.2593 16.833 73.1816 14.5899 70.9397C12.5888 68.9397 12.1873 68.0758 12.1873 65.7714C12.1873 60.095 14.7033 57.117 25.6749 49.8064C33.5239 44.5767 36.0419 41.6798 38.5824 34.9563C42.6249 24.2572 39.8279 16.6183 30.686 13.3953C27.386 12.2315 21.6588 12.0852 18.9885 13.0967C13.4262 15.2028 12.7596 19.0051 16.8027 25.5731C18.2526 27.929 19.4395 30.3356 19.4395 30.9207C19.4401 32.8331 16.7882 35.411 14.0664 36.1431C6.66321 38.1359 0.552999 30.4153 2.25479 21.2173C3.11392 16.5709 5.27329 12.8055 9.09819 9.28127C15.4431 3.43615 22.9123 1.48953 32.3252 3.22857ZM187.984 6.12411C199.943 11.1178 209.663 32.7599 212.648 61.0393C214.045 74.2781 210.064 90.9871 203.747 98.3953C198.709 104.302 192.253 106.379 185.252 104.345C182.113 103.433 180.659 102.473 177.243 99.0589C174.947 96.765 173.069 94.6253 173.069 94.3044C173.069 93.9835 174.355 93.3772 175.926 92.9574C179.539 91.9914 183.182 88.9891 187.169 83.6936C190.91 78.7229 192.19 75.3872 192.19 70.6036C192.19 63.5585 187.844 58.8798 181.334 58.918C171.758 58.974 166.481 67.3872 167.384 81.1598C167.619 84.7499 167.989 88.3907 168.204 89.25C168.473 90.3202 168.314 90.8098 167.701 90.8052C166.042 90.7934 159.58 87.4464 155.999 84.7446L152.445 82.0639L152.824 70.4574C153.242 57.6726 154.313 50.0633 157.249 39.0024C163.777 14.414 176.148 1.18113 187.984 6.12411ZM228.241 45.9026C230.48 47.0274 236.117 49.4591 240.769 51.3068C254.016 56.5688 260.244 60.6676 265.249 67.4182C271.001 75.1756 272.181 81.1282 268.92 85.9314C266.859 88.9667 266.021 89.6744 261.968 91.8016C257.743 94.0184 254.848 94.6121 242.631 95.766C231.904 96.7795 223.767 98.5317 220.817 100.464C219.918 101.052 219.075 101.419 218.943 101.28C218.812 101.14 219.239 98.0606 219.893 94.4362C220.546 90.8118 221.479 85.6224 221.965 82.9041C223.273 75.6007 223.079 53.6871 221.652 47.3194C220.232 40.9879 220.22 41.071 222.356 42.578C223.352 43.2818 226.001 44.7777 228.241 45.9026ZM295.379 56.634C305.17 58.7763 315.056 61.0162 317.346 61.6119C328.967 64.634 333.265 72.1443 331.477 86.3044C330.39 94.91 328.191 99.0978 323.491 101.514C320.349 103.129 319.244 103.332 313.601 103.331C310.106 103.33 301.676 102.737 294.868 102.014C288.059 101.292 278.207 100.505 272.975 100.267C264.512 99.8833 263.53 99.7192 264.08 98.7835C264.419 98.2049 267.356 94.9317 270.606 91.5097C282.714 78.7611 283.697 72.8534 275.515 62.0112C270.476 55.3332 269.775 54.1114 270.261 52.8449C270.783 51.4867 274.228 52.006 295.379 56.634ZM185.396 62.4468C188.56 64.375 189.842 66.7671 189.791 70.6485C189.767 72.4962 189.36 74.8975 188.887 75.9848L188.028 77.9618L187.585 75.5473C186.684 70.6419 184.155 68.5496 180.1 69.3542C176.004 70.1667 173.728 73.2079 173.728 77.8682C173.728 81.8076 176.082 84.715 179.746 85.3001C182.285 85.7061 182.318 85.7456 181.168 87.0161C179.628 88.7189 175.861 90.6161 173.44 90.9087C171.626 91.1275 171.461 90.9463 170.65 87.8464C169.251 82.4982 169.435 73.971 171.04 69.6811C173.793 62.3289 180.038 59.1816 185.396 62.4468ZM183.901 72.7368C184.853 73.6883 185.32 76.6689 185.029 79.9387C184.876 81.6626 183.153 82.9041 180.914 82.9041C178.269 82.9041 175.463 79.3713 175.977 76.6886C176.735 72.7315 181.512 70.3493 183.901 72.7368ZM22.2476 78.916C25.1013 80.7255 28.6658 85.7647 27.7433 86.6866C27.5455 86.8843 27.1987 86.5654 26.9726 85.9769C26.3831 84.4415 22.5582 82.2451 20.4727 82.2451C19.4942 82.2451 18.1201 82.5522 17.4185 82.9272C16.717 83.3028 16.1434 83.3799 16.1434 83.0992C16.1434 82.2207 18.432 76.9786 18.8164 76.9759C19.0175 76.9746 20.5617 77.8478 22.2476 78.916ZM24.8798 88.6589C26.3923 90.021 26.3541 92.5706 24.8092 93.3976C23.1767 94.2708 19.3518 93.1934 17.7317 91.4049C16.5014 90.0461 16.51 90.0072 18.3852 88.3947C20.4562 86.6148 22.7118 86.7064 24.8798 88.6589ZM264.658 94.1278C264.087 94.4474 262.797 95.8945 261.793 97.3429C260.229 99.5973 259.524 100.037 256.903 100.395C250.197 101.308 242.383 103.504 237.685 105.797C233.679 107.751 231.381 109.572 225.582 115.388C220.273 120.711 218.231 122.373 217.681 121.823C216.831 120.974 216.76 115.624 217.511 109.03L218.024 104.513L222.363 102.548C227.382 100.273 233.142 99.1644 245.598 98.0751C254.103 97.3317 262.499 95.2711 264.281 93.4899C264.655 93.1163 265.126 92.9766 265.329 93.1789C265.531 93.3812 265.229 93.8082 264.658 94.1278ZM20.5577 96.6194C19.2964 96.8678 16.8027 95.6283 16.8027 94.7532C16.8027 94.4092 17.8834 94.6425 19.2047 95.2705C20.7232 95.9927 21.221 96.4889 20.5577 96.6194ZM28.7554 95.2672C27.5693 97.4826 23.3962 100.189 23.3962 98.7433C23.3962 98.4164 23.9428 97.9762 24.6108 97.764C25.2787 97.5525 26.5169 96.6424 27.3629 95.7429C29.1754 93.8148 29.6133 93.6652 28.7554 95.2672ZM272.015 104.988C266.618 107.894 264.442 109.998 262.296 114.382C260.789 117.46 260.624 118.438 260.955 122.31C261.413 127.656 262.633 130.723 266.416 136.04C270.59 141.906 275.669 145.707 280.754 146.771L282.614 147.16L282.908 157.547C283.378 174.136 283.655 173.93 261.752 173.254C245.583 172.755 243.53 172.337 240.832 168.994C238.304 165.861 239.317 163.732 248.643 152.586C258.497 140.808 260.242 135.49 259.983 118.038C259.863 110.002 260.058 105.726 260.599 104.486L261.389 102.673L268.823 102.689L276.258 102.703L272.015 104.988ZM289.121 104.713C295.445 106.068 299.73 112.221 298.61 118.334C297.876 122.339 295.542 126.929 290.246 134.782C287.503 138.851 285.059 142.807 284.815 143.575C284.433 144.778 284.044 144.909 281.994 144.525C278.05 143.785 275.03 141.855 270.979 137.481C264.319 130.292 261.729 121.785 264.315 115.598C266.326 110.789 273.155 106.043 280 104.696C284.062 103.898 285.326 103.9 289.121 104.713Z" fill="black"/>
</svg>
