<svg width="254" height="86" viewBox="0 0 254 86" fill="none" xmlns="http://www.w3.org/2000/svg">
<path d="M7.29289 0.292893C7.68342 -0.0976311 8.31658 -0.0976311 8.70711 0.292893L15.0711 6.65685C15.4616 7.04738 15.4616 7.68054 15.0711 8.07107C14.6805 8.46159 14.0474 8.46159 13.6569 8.07107L8 2.41421L2.34315 8.07107C1.95262 8.46159 1.31946 8.46159 0.928932 8.07107C0.538408 7.68054 0.538408 7.04738 0.928932 6.65685L7.29289 0.292893ZM253 84C253.552 84 254 84.4477 254 85C254 85.5523 253.552 86 253 86L253 84ZM28 85L28 84L28 85ZM9 1L9 2.06667L7 2.06667L7 1L9 1ZM9 4.2L9 6.33333L7 6.33333L7 4.2L9 4.2ZM9 8.46667L9 10.6L7 10.6L7 8.46667L9 8.46667ZM9 12.7333L9 14.8667L7 14.8667L7 12.7333L9 12.7333ZM9 17L9 19.1333L7 19.1333L7 17L9 17ZM9 21.2667L9 23.4L7 23.4L7 21.2667L9 21.2667ZM9 25.5333L9 27.6667L7 27.6667L7 25.5333L9 25.5333ZM9 29.8L9 31.9333L7 31.9333L7 29.8L9 29.8ZM9 34.0667L9 36.2L7 36.2L7 34.0667L9 34.0667ZM9 38.3333L9 40.4667L7 40.4667L7 38.3333L9 38.3333ZM9 42.6L9 44.7333L7 44.7333L7 42.6L9 42.6ZM9 46.8667L9 49L7 49L7 46.8667L9 46.8667ZM9 51.1333L9 53.2667L7 53.2667L7 51.1333L9 51.1333ZM9 55.4L9 57.5334L7 57.5334L7 55.4L9 55.4ZM9 59.6667L9 61.8L7 61.8L7 59.6667L9 59.6667ZM9 63.9334L9 65L7 65L7 63.9334L9 63.9334ZM9 65C9 65.3581 9.0099 65.7138 9.02942 66.0668L7.03247 66.1772C7.01091 65.7875 7 65.395 7 65L9 65ZM9.26569 68.1854C9.3849 68.8919 9.54309 69.585 9.73796 70.2625L7.81588 70.8154C7.60032 70.0659 7.42537 69.2993 7.29357 68.5182L9.26569 68.1854ZM10.4413 72.2727C10.7146 72.9318 11.024 73.5722 11.367 74.1915L9.61743 75.1605C9.23825 74.4759 8.89615 73.7677 8.59388 73.0388L10.4413 72.2727ZM12.5024 75.9949C12.9148 76.575 13.359 77.131 13.8324 77.6604L12.3415 78.9936C11.8186 78.4088 11.3279 77.7946 10.8723 77.1536L12.5024 75.9949ZM15.3396 79.1676C15.869 79.641 16.425 80.0852 17.0051 80.4976L15.8464 82.1277C15.2054 81.6721 14.5912 81.1814 14.0064 80.6585L15.3396 79.1676ZM18.8085 81.633C19.4278 81.976 20.0682 82.2854 20.7273 82.5587L19.9612 84.4061C19.2323 84.1038 18.5241 83.7617 17.8395 83.3826L18.8085 81.633ZM22.7375 83.262C23.415 83.4569 24.1081 83.6151 24.8146 83.7343L24.4818 85.7064C23.7007 85.5746 22.9341 85.3997 22.1846 85.1841L22.7375 83.262ZM26.9332 83.9706C27.2862 83.9901 27.6419 84 28 84L28 86C27.605 86 27.2125 85.9891 26.8228 85.9675L26.9332 83.9706ZM28 84L29.1029 84L29.1029 86L28 86L28 84ZM31.3088 84L33.5147 84L33.5147 86L31.3088 86L31.3088 84ZM35.7206 84L37.9265 84L37.9265 86L35.7206 86L35.7206 84ZM40.1324 84L42.3382 84L42.3382 86L40.1324 86L40.1324 84ZM44.5441 84L46.75 84L46.75 86L44.5441 86L44.5441 84ZM48.9559 84L51.1618 84L51.1618 86L48.9559 86L48.9559 84ZM53.3676 84L55.5735 84L55.5735 86L53.3676 86L53.3676 84ZM57.7794 84L59.9853 84L59.9853 86L57.7794 86L57.7794 84ZM62.1912 84L64.3971 84L64.3971 86L62.1912 86L62.1912 84ZM66.6029 84L68.8088 84L68.8088 86L66.6029 86L66.6029 84ZM71.0147 84L73.2206 84L73.2206 86L71.0147 86L71.0147 84ZM75.4265 84L77.6324 84L77.6324 86L75.4265 86L75.4265 84ZM79.8382 84L82.0441 84L82.0441 86L79.8382 86L79.8382 84ZM84.25 84L86.4559 84L86.4559 86L84.25 86L84.25 84ZM88.6618 84L90.8677 84L90.8677 86L88.6618 86L88.6618 84ZM93.0735 84L95.2794 84L95.2794 86L93.0735 86L93.0735 84ZM97.4853 84L99.6912 84L99.6912 86L97.4853 86L97.4853 84ZM101.897 84L104.103 84L104.103 86L101.897 86L101.897 84ZM106.309 84L108.515 84L108.515 86L106.309 86L106.309 84ZM110.721 84L112.926 84L112.926 86L110.721 86L110.721 84ZM115.132 84L117.338 84L117.338 86L115.132 86L115.132 84ZM119.544 84L121.75 84L121.75 86L119.544 86L119.544 84ZM123.956 84L126.162 84L126.162 86L123.956 86L123.956 84ZM128.368 84L130.573 84L130.573 86L128.368 86L128.368 84ZM132.779 84L134.985 84L134.985 86L132.779 86L132.779 84ZM137.191 84L139.397 84L139.397 86L137.191 86L137.191 84ZM141.603 84L143.809 84L143.809 86L141.603 86L141.603 84ZM146.015 84L148.221 84L148.221 86L146.015 86L146.015 84ZM150.426 84L152.632 84L152.632 86L150.426 86L150.426 84ZM154.838 84L157.044 84L157.044 86L154.838 86L154.838 84ZM159.25 84L161.456 84L161.456 86L159.25 86L159.25 84ZM163.662 84L165.868 84L165.868 86L163.662 86L163.662 84ZM168.073 84L170.279 84L170.279 86L168.073 86L168.073 84ZM172.485 84L174.691 84L174.691 86L172.485 86L172.485 84ZM176.897 84L179.103 84L179.103 86L176.897 86L176.897 84ZM181.309 84L183.515 84L183.515 86L181.309 86L181.309 84ZM185.721 84L187.926 84L187.926 86L185.721 86L185.721 84ZM190.132 84L192.338 84L192.338 86L190.132 86L190.132 84ZM194.544 84L196.75 84L196.75 86L194.544 86L194.544 84ZM198.956 84L201.162 84L201.162 86L198.956 86L198.956 84ZM203.368 84L205.574 84L205.574 86L203.368 86L203.368 84ZM207.779 84L209.985 84L209.985 86L207.779 86L207.779 84ZM212.191 84L214.397 84L214.397 86L212.191 86L212.191 84ZM216.603 84L218.809 84L218.809 86L216.603 86L216.603 84ZM221.015 84L223.221 84L223.221 86L221.015 86L221.015 84ZM225.427 84L227.632 84L227.632 86L225.427 86L225.427 84ZM229.838 84L232.044 84L232.044 86L229.838 86L229.838 84ZM234.25 84L236.456 84L236.456 86L234.25 86L234.25 84ZM238.662 84L240.868 84L240.868 86L238.662 86L238.662 84ZM243.074 84L245.28 84L245.28 86L243.074 86L243.074 84ZM247.485 84L249.691 84L249.691 86L247.485 86L247.485 84ZM251.897 84L253 84L253 86L251.897 86L251.897 84Z" fill="#E0E0E0"/>
</svg>
