<svg width="208" height="48" viewBox="0 0 208 48" fill="none" xmlns="http://www.w3.org/2000/svg">
<path fill-rule="evenodd" clip-rule="evenodd" d="M18.6194 13.2488C18.6194 13.2488 19.7886 14.5541 20.4047 14.8926C21.016 15.2361 21.244 15.3244 21.5156 15.295C21.7825 15.2656 22.093 15.0006 22.1269 14.6816C22.1609 14.3627 22.1754 14.186 22.3549 14.0388C22.5344 13.8916 22.5975 13.9505 22.5878 13.7542C22.5781 13.4402 22.8546 13.8867 22.8061 13.3077C22.7867 13.0378 22.7915 13.0231 22.908 12.9985C23.0244 12.9789 23.364 12.92 23.3349 12.552C23.3349 12.552 22.8546 12.238 22.8546 11.8209C22.8546 11.8209 23.33 11.605 23.3834 11.3449C23.3834 11.3449 23.0099 11.5559 22.8207 11.443C22.8207 11.443 22.8401 11.0063 23.0196 10.6972C23.1991 10.388 23.5484 9.25452 22.549 8.17499C21.5496 7.09546 20.5696 6.55078 18.9784 6.55078C17.3872 6.55078 15.9172 7.54199 15.1216 8.91104C14.3211 10.2752 14.1222 12.5029 13.9961 13.0427C13.87 13.5874 13.574 14.927 12.9434 15.452C12.3175 15.9771 12.041 15.717 12.041 15.717C12.041 15.717 12.1769 16.2666 13.0889 16.1684C14.0009 16.0703 15.0537 15.0938 15.0537 15.0938C15.0537 15.0938 15.2865 15.3244 15.1992 16.0703C15.1992 16.0703 15.5873 15.6434 15.2768 14.2155C15.2768 14.2155 14.816 15.3931 13.5934 15.5207C13.5934 15.5207 14.4909 14.8436 14.6219 13.6855C14.7529 12.5275 14.8984 10.4028 15.4127 9.3772C15.9318 8.35164 16.6934 7.05129 19.1288 6.93843C21.5593 6.82557 22.418 8.50866 22.418 8.50866C22.418 8.50866 22.777 9.58329 21.8407 10.4469C20.9044 11.3105 20.3174 10.9572 19.1482 11.7522C17.979 12.5471 17.5958 13.8425 17.62 14.4019C17.6394 14.9613 17.6006 16.5119 18.6243 17.5571C18.6243 17.5571 18.0033 16.3794 18.0372 15.2165C18.0712 14.0535 18.2701 13.5874 18.8232 12.5962C19.3762 11.605 21.113 11.551 21.6757 11.0554C22.2385 10.5598 22.6557 10.3635 22.6945 8.84724C22.6945 8.84724 23.0826 9.69124 22.5684 10.5892C22.059 11.4872 22.3258 11.8503 22.3743 12.0662C22.4228 12.2821 22.5102 12.7581 22.1997 13.3715C21.8892 13.9848 21.7776 14.1222 21.7437 14.2842C21.7097 14.4461 21.6806 14.7798 21.4332 14.8337C21.1858 14.8877 20.429 14.7651 19.0366 13.4794C19.0366 13.4794 18.8086 13.239 18.7358 13.1556C18.6679 13.0672 18.6194 13.2488 18.6194 13.2488ZM17.1592 20.5111C17.1592 20.5111 16.2374 22.1648 17.0621 23.0971C17.8869 24.0294 19.1967 23.4896 19.1967 23.4896C19.1967 23.4896 19.2258 23.5191 19.1336 23.6369C19.0415 23.7546 17.9984 24.9568 16.6061 23.8577C15.2138 22.7585 17.0476 20.4277 17.0476 20.4277C17.0476 20.4277 17.2125 20.4326 17.1592 20.5111ZM21.7194 20.1235C21.7194 20.1235 22.5005 21.4974 22.6751 22.3267C22.8546 23.156 22.1706 23.632 21.5059 23.6859C21.5059 23.6859 21.1566 23.5731 21.1615 23.8724C21.1664 24.1717 21.1761 24.9961 21.1469 25.3788C21.1178 25.7616 20.9674 25.9971 20.7977 26.213C20.6279 26.4289 20.2931 27.1453 20.3853 27.9354C20.4726 28.7254 20.6424 29.0296 20.7249 29.113C20.8074 29.1965 20.8607 29.0296 20.8268 28.8922C20.7928 28.7548 20.6764 27.7783 20.7782 27.3662C20.8801 26.954 21.2197 26.2768 21.3167 26.0118C21.4138 25.7469 21.5787 24.9372 21.5448 24.368C21.5448 24.368 22.2336 24.2306 22.4811 24.049C22.7285 23.8675 23.039 23.5633 23.1069 23.2688C23.1748 22.9744 23.1069 21.6397 22.3016 20.7221C22.2967 20.7221 21.8261 19.9174 21.7194 20.1235ZM15.956 17.6602C15.956 17.6602 16.4363 17.616 16.9894 17.8466C17.5424 18.0773 17.9257 18.3128 18.2507 18.5974C18.5757 18.882 18.5612 18.6808 18.6243 18.5434C18.6873 18.406 18.0372 17.8614 17.5764 17.6945C17.1155 17.5277 16.3975 17.4492 16.024 17.4492C16.024 17.4492 15.7959 17.5375 15.956 17.6602ZM14.8257 23.6957C15.5146 25.4377 15.6504 27.6409 15.4321 29.3535C15.2138 31.066 14.0543 32.2093 13.3654 33.5784C12.6765 34.9425 13.0355 36.3508 13.021 36.7434C13.0064 37.1359 13.346 37.2586 13.836 37.4255C14.326 37.5923 14.3939 37.1948 14.6413 36.7679C14.8887 36.341 15.6261 35.9583 16.0482 36.1742C16.4703 36.3901 16.5527 36.8415 16.7662 37.3028C16.9797 37.764 17.62 37.5187 17.8189 37.6021C18.0178 37.6855 17.8335 37.8131 17.392 37.8474C16.9506 37.8818 16.6401 37.8425 16.3732 37.1997C16.1064 36.5569 15.6989 36.4588 15.4272 36.552C15.1604 36.6403 14.3599 37.6119 14.1368 37.7444C13.9185 37.8769 13.346 37.975 13.1326 38.0388C12.9191 38.1026 12.6135 38.4755 12.3127 38.5884C12.0071 38.7013 11.8081 38.8877 11.7887 39.138C11.7693 39.3882 11.9052 39.2852 11.9052 39.2852C11.9052 39.2852 12.1526 39.1184 12.5941 38.981C13.0355 38.8436 14.1513 38.8534 14.9373 38.9662C15.7232 39.0791 16.1937 39.0497 16.8099 38.9221C17.4308 38.7945 19.2792 38.6865 20.6667 38.6178C22.059 38.5491 24.1693 38.7307 26.2069 39.1625C28.2444 39.5943 30.0782 40.0261 30.7962 39.4569C31.5142 38.8877 31.4026 38.7994 31.456 37.6021C31.5094 36.4048 29.3214 36.0122 29.3214 36.0122C25.712 34.8984 19.2889 37.3764 19.0269 37.4598C18.7649 37.5432 18.4351 37.5579 18.5466 37.4451C19.2307 36.7532 21.6757 36.3803 22.4325 35.8945C22.6751 35.7375 22.9322 35.5265 23.1797 35.232C24.179 34.0593 24.9989 32.2928 25.3627 31.2868C25.7266 30.2809 26.0516 28.7794 26.3815 28.0433C26.7114 27.3122 27.0898 27.9648 27.0898 27.9648C27.0898 27.9648 27.4294 29.2259 28.6665 31.012C29.9084 32.7982 32.8095 34.0593 33.5663 34.3488C34.3231 34.6383 34.9587 35.0897 35.1867 35.3547C35.4147 35.6197 35.3371 36.184 35.3031 36.3999C35.2691 36.6158 34.8616 37.0427 34.9732 37.342C35.0848 37.6414 35.633 37.6463 36.026 37.7051C36.4189 37.7591 36.8264 38.0241 37.0108 38.2302C37.1951 38.4314 37.3067 38.5295 37.5396 38.5344C37.7724 38.5393 37.8355 38.6031 38.1799 38.7307C38.5244 38.8583 38.9125 38.8828 39.0823 38.8583C39.2569 38.8288 39.2763 38.6964 39.5529 38.608C39.8294 38.5197 39.5529 38.3872 39.5529 38.3872C38.0926 37.6414 37.6366 36.552 37.2145 35.9681C36.7925 35.3841 35.4729 34.3291 35.4729 34.3291C31.6015 30.8992 31.063 28.9364 30.0976 27.6655C29.1322 26.3946 28.8072 24.7802 28.225 24.0687C27.638 23.3572 26.6241 23.8479 26.6241 23.8479L18.5952 32.0818C18.5952 32.0818 16.8535 33.966 16.5624 34.1721C16.2714 34.3831 16.3053 34.2212 16.3053 34.2212L17.6152 32.6853C17.6152 32.6853 20.429 29.746 21.7097 28.323C22.9904 26.9 26.2214 23.843 26.4252 23.5338C26.6241 23.2296 27.1141 23.2198 27.2402 23.2885C27.3663 23.3572 27.6041 23.3179 27.6041 23.3179C27.6041 23.3179 27.5361 22.9401 27.5264 22.6702C27.5216 22.4003 27.7739 22.4052 27.7739 22.4052C27.7739 22.4052 27.7884 22.9352 27.8757 23.1167C27.9631 23.2983 28.225 23.4798 28.356 23.578C28.487 23.6761 28.7005 23.8135 28.7829 23.9264C28.8654 24.0392 29.205 24.476 29.4087 24.6575C29.6174 24.8391 29.7969 24.7017 29.7969 24.7017C29.7969 24.7017 29.3893 24.1668 29.3214 24.0441C29.2535 23.9264 29.0158 23.7448 29.0643 23.5583C29.1128 23.3719 29.4573 23.524 29.6659 23.6467C29.8745 23.7743 30.4857 24.1128 30.5973 24.2061C30.7089 24.2944 30.7283 24.5201 31.0776 24.9568C31.4269 25.3936 31.4172 25.3101 31.4851 25.32C31.553 25.3249 31.5191 25.1924 31.325 25.0059C31.131 24.8194 30.903 24.3484 30.7332 24.1472C30.5585 23.946 30.607 23.9018 30.4906 23.7154C30.3742 23.5289 29.8696 23.205 29.3602 22.7193C28.8508 22.2335 28.7247 22.0912 27.9873 22.0912C27.2499 22.0912 25.9934 23.2836 25.7703 23.5044C25.5422 23.7252 24.3731 25.0599 24.2178 25.1433C24.0674 25.2267 23.8249 25.2758 23.7084 25.1384C23.592 25.001 23.4271 24.3631 23.4077 23.9558C23.3883 23.5436 23.0196 20.9527 22.9662 20.462C22.9128 19.9763 22.6072 18.146 22.3889 17.6454C22.1706 17.1449 21.7631 17.0811 21.4914 17.0811C21.2246 17.0811 20.0845 17.2578 19.6576 17.1597C19.2307 17.0615 19.0803 16.3991 19.0366 16.2322C18.993 16.0654 18.9202 15.2705 19.1967 14.8534C19.4732 14.4363 19.7934 14.4314 19.7158 14.5246C19.6333 14.6178 19.4878 14.9368 19.4053 15.1527C19.3228 15.3686 19.352 16.3009 19.3374 16.5414C19.3228 16.7769 19.5848 17.0272 19.8905 17.037C20.1912 17.0419 20.5017 17.0566 20.9723 16.983C21.4429 16.9045 21.9038 16.8554 22.3646 17.1695C22.8255 17.4835 23.0632 18.4158 23.2136 19.1224C23.364 19.834 23.6211 23.4651 23.6696 23.6957C23.7181 23.9264 23.7036 24.5446 23.854 24.6624C24.0044 24.7802 24.1596 24.6771 24.2275 24.5986C24.2955 24.5201 25.6587 23.2541 26.0128 22.8616C26.3621 22.469 27.1723 21.9832 27.7205 21.9292C28.2735 21.8753 28.7587 21.9341 29.0449 22.1255C29.3263 22.312 30.4566 23.3572 30.7138 23.632C30.9709 23.9018 30.9272 24.1472 31.0291 24.314C31.131 24.4809 31.49 24.9568 31.5336 25.0059C31.5773 25.055 31.9411 25.4328 31.815 25.5309C31.6889 25.6291 31.5821 25.5947 31.422 25.4868C31.262 25.3837 30.641 24.6526 30.6167 24.5741C30.5876 24.4956 30.4178 24.4465 30.4518 24.5692C30.4857 24.687 31.097 25.5359 31.1601 25.6095C31.2231 25.6831 31.2911 25.8548 31.1649 25.9137C31.0388 25.9775 30.9563 25.8499 30.8593 25.7812C30.7623 25.7125 30.3839 25.1139 30.3354 25.104C30.2868 25.0991 30.3984 25.8205 30.3354 25.8646C30.2723 25.9088 30.1995 25.8646 30.0928 25.7518C29.9909 25.6389 29.9764 24.9912 29.9424 24.9078C29.9084 24.8243 29.8648 24.9765 29.6125 24.9863C29.3554 24.9912 29.1759 24.8391 28.9188 24.3778C28.6568 23.9166 28.356 23.9607 28.356 23.9607C28.356 23.9607 29.7192 26.4829 31.4706 29.0198C33.2219 31.5567 35.764 33.9464 36.3704 34.5941C36.9768 35.2418 38.1605 36.3803 38.3691 36.7336C38.5777 37.0869 39.5674 38.2204 39.9264 38.3038C40.2854 38.3872 40.3727 38.5541 40.2757 38.6473C40.1787 38.7356 40.1884 38.7454 39.8439 38.7454C39.4995 38.7454 39.4219 38.9957 39.1502 39.0595C38.8737 39.1233 38.3594 39.03 38.1945 38.9908C38.0296 38.9466 38.015 38.7552 37.753 38.7945C37.4911 38.8387 37.166 38.7945 36.9865 38.5295C36.807 38.2645 36.1278 37.872 35.5166 37.8425C34.9053 37.8131 34.7452 37.5972 34.6482 37.4156C34.5512 37.2341 34.6142 36.8808 34.7743 36.5815C34.9344 36.2821 34.9926 35.9043 34.9926 35.9043C34.9926 35.0308 33.7216 34.5843 33.4742 34.5254C33.2267 34.4715 32.2322 34.231 30.0006 32.8129C27.769 31.3899 26.9249 29.4369 26.8715 29.1768C26.8181 28.9119 26.6775 29.0394 26.6775 29.0394C26.6775 29.0394 26.2069 30.433 25.9061 31.6058C25.6005 32.7785 24.0335 35.4823 24.0335 35.4823C26.8472 34.8836 28.2493 35.2173 29.7095 35.6491C31.1698 36.0809 31.7762 37.185 31.7907 38.1566C31.8053 39.1331 31.2668 39.8004 30.3014 40.0654C29.336 40.3304 27.2257 39.8299 26.5513 39.6728C25.877 39.5207 23.8346 39.1576 21.6175 39.1429C19.4005 39.1282 17.5376 39.3637 16.8487 39.3637C16.1598 39.3637 13.0355 39.3146 12.5698 39.3441C12.0992 39.3735 11.7208 39.7464 11.7208 39.7464C11.7208 39.7464 11.4249 40.1145 11.3909 39.4324C11.357 38.7503 12.0944 38.4559 12.2787 38.3185C12.4631 38.1811 12.7881 37.9161 13.0113 37.8376C13.2296 37.7591 13.6517 37.6168 13.5837 37.5579C13.5158 37.4991 13.3848 37.4696 13.1714 37.293C12.9579 37.1163 12.6959 36.6502 12.6959 36.6502C12.6959 36.6502 12.5844 36.6551 12.5941 36.8023C12.5989 36.9495 12.497 37.3518 12.3466 37.5923C12.1963 37.8278 11.7063 37.8916 11.4297 37.872C11.1532 37.8524 10.8282 37.926 10.6875 37.9898C10.542 38.0535 10.0471 38.2351 9.83366 38.24C9.6202 38.2449 9.40189 38.186 9.37279 38.0928C9.34368 38.0045 9.27091 37.9799 9.15933 38.0486C9.04775 38.1173 8.78578 38.6669 8.6839 38.7111C8.58202 38.7552 8.50925 38.6816 8.54806 38.5786C8.58687 38.4755 8.74696 38.1026 8.82944 38.0634C8.91191 38.0192 8.87795 37.8965 8.82944 37.8965C8.78092 37.8965 8.1551 38.1958 7.9659 38.2891C7.78155 38.3774 7.68453 38.2204 7.74759 38.186C7.81066 38.1517 8.37341 37.8327 8.5141 37.7199C8.64994 37.607 8.67905 37.5579 8.67905 37.5579C8.67905 37.5579 8.48014 37.5874 8.28609 37.6757C8.09204 37.764 7.69908 37.8082 7.54869 37.7101C7.3983 37.6119 7.4177 37.4451 7.56809 37.3617C7.71848 37.2782 8.16966 37.082 8.48014 36.9249C8.79063 36.763 8.90706 36.5765 9.15448 36.4882C9.40189 36.3999 10.8233 36.1545 11.1241 36.076C11.4249 35.9975 11.4783 35.8503 11.4783 35.8503C11.4783 35.8503 11.8906 33.6176 12.1963 32.3516C12.497 31.0807 13.215 28.2936 13.4091 27.5723C13.6031 26.846 13.5207 25.8303 13.4916 24.6722C13.4625 23.5142 13.443 17.5228 13.4867 17.0419C13.5304 16.561 14.1465 16.0507 14.5637 16.0997C14.9761 16.1488 15.5194 16.1145 15.5194 16.1145C15.7814 15.8838 15.7474 15.1674 15.8105 14.77C15.8736 14.3725 15.9851 14.4559 15.9851 14.4559C15.9851 14.4559 15.9366 14.6522 16.1113 15.5943C16.2859 16.5365 17.0767 16.7524 17.0767 16.7524C17.0767 16.7524 17.1883 16.9143 16.8729 16.8211C16.5576 16.7327 16.2617 16.561 16.0676 16.1537C15.8736 15.7415 15.9851 15.4618 15.9172 15.5747C15.8493 15.6876 15.7571 16.1341 15.6116 16.2715C15.466 16.4089 14.7966 16.3206 14.6898 16.35C14.5783 16.3794 14.1853 16.6788 14.0301 17.091C13.87 17.5031 13.8117 18.0184 13.7972 18.6268C13.7826 19.2353 13.8117 21.5318 13.9233 22.9155C14.0349 24.2944 14.1853 26.0805 14.0883 26.846C13.9912 27.6115 12.7396 31.7235 12.7396 31.7235C12.7396 31.7235 12.0459 34.3242 11.9052 34.8787C11.7693 35.4381 11.7596 35.8699 11.6287 36.0515C11.4977 36.2331 11.2357 36.2723 10.9883 36.3165C10.7409 36.3606 9.431 36.5962 9.20299 36.7336C8.97498 36.871 8.30549 37.2341 8.1551 37.3126C8.00471 37.3911 7.62631 37.4304 7.66027 37.5236C7.69423 37.6119 7.72334 37.7101 7.99016 37.6512C8.25698 37.5874 8.60143 37.4156 8.8731 37.3028C9.13992 37.1899 9.21754 37.1016 9.61535 37.1408C10.0132 37.185 10.6196 37.1752 10.7166 37.1948C10.8136 37.2145 10.6487 37.3322 10.5565 37.396C10.4692 37.4598 9.75119 37.764 9.63961 37.8474C9.52803 37.9309 9.46496 38.029 9.58624 38.0634C9.70268 38.0977 10.1587 38.029 10.4546 37.9309C10.7506 37.8327 10.8767 37.661 11.2939 37.661C11.716 37.661 12.0798 37.5825 12.2157 37.3813C12.3515 37.1801 12.3952 36.7826 12.4922 36.606C12.5892 36.4293 12.6232 36.3214 12.6086 36.1251C12.5941 35.9288 12.4631 34.9474 12.7687 34.0691C13.0695 33.1907 14.5734 30.2073 14.7529 29.4271C14.9324 28.6469 15.044 27.1699 14.9858 26.2572C14.9324 25.3445 14.9324 24.8293 14.8596 24.5839C14.7917 24.3386 14.7286 24.0343 14.7092 23.8724C14.6656 23.7006 14.7092 23.6614 14.8257 23.6957Z" fill="#7E71B1"/>
<path fill-rule="evenodd" clip-rule="evenodd" d="M47.1937 19.8193C47.4217 21.1638 47.543 22.5426 47.543 23.9558C47.543 37.2341 36.8992 48 23.7715 48C10.6438 48 0 37.2341 0 23.9558C0.00485132 11.3645 9.57166 1.04028 21.7485 0C10.2072 1.30035 1.23224 11.1977 1.23224 23.2198C1.23224 36.1251 11.5753 46.5868 24.3342 46.5868C37.0932 46.5868 47.4362 36.1251 47.4362 23.2198C47.4362 22.0667 47.3538 20.9282 47.1937 19.8193Z" fill="#7E71B1"/>
<path fill-rule="evenodd" clip-rule="evenodd" d="M46.2865 7.98865C46.2865 7.98865 43.6571 11.6836 43.3515 12.9054C43.0458 14.1273 41.7699 16.4924 43.2059 18.6564C44.6468 20.8204 46.5339 20.9872 46.9123 21.1148C47.2907 21.2424 47.5042 22.425 47.5042 22.425L47.6497 20.948C47.6497 20.948 49.0712 19.8537 49.5563 18.3276C50.0414 16.7967 50.0608 15.3982 49.304 14.2156C48.5472 13.033 47.1258 11.7376 46.7328 11.1929C46.3399 10.6482 45.5443 9.39204 46.2865 7.98865Z" fill="url(#paint0_radial_3789_8892)"/>
<mask id="mask0_3789_8892" style="mask-type:alpha" maskUnits="userSpaceOnUse" x="42" y="15" width="8" height="8">
<path d="M49.9253 15.4912H42.5804V22.4346H49.9253V15.4912Z" fill="url(#paint1_linear_3789_8892)"/>
</mask>
<g mask="url(#mask0_3789_8892)">
<path fill-rule="evenodd" clip-rule="evenodd" d="M42.5948 17.1161C42.5948 17.1161 44.5839 20.7227 47.1405 20.708C47.1405 20.708 49.3091 19.9081 49.8282 15.5115C49.8282 15.5115 50.2308 17.1455 49.3236 18.9169C48.4164 20.6883 47.6548 20.9533 47.6548 20.9533L47.5092 22.4303C47.5092 22.4303 47.3249 21.2183 46.9174 21.1201C46.5099 21.022 44.9332 20.7325 43.8125 19.4371C42.6919 18.1367 42.5948 17.1161 42.5948 17.1161Z" fill="url(#paint2_linear_3789_8892)"/>
<path fill-rule="evenodd" clip-rule="evenodd" d="M46.2864 7.98865C46.2864 7.98865 45.2385 9.96125 45.1852 11.7425C45.1318 13.5237 45.3889 14.5885 46.757 16.8457C46.757 16.8457 47.3974 17.3561 47.1402 20.7026C47.1402 20.7026 48.7266 19.942 49.2215 18.0823C49.2215 18.0823 49.7745 16.674 49.7794 15.3C49.7794 15.3 49.6581 14.2647 48.2463 12.8564C48.2463 12.8564 46.6988 11.3205 46.495 10.8298C46.2913 10.344 45.6218 9.56869 46.2864 7.98865Z" fill="url(#paint3_radial_3789_8892)"/>
</g>
<path fill-rule="evenodd" clip-rule="evenodd" d="M45.2191 11.6443C45.2191 11.6443 45.0833 13.136 45.4811 14.0291C45.8789 14.9221 46.1942 15.0743 46.1942 15.0743C46.1942 15.0743 46.6066 14.3824 46.6988 13.7641C46.6988 13.7641 46.7813 14.667 46.2476 15.457C46.2476 15.457 46.4708 15.9673 46.7618 16.4777C47.0481 16.988 47.1402 17.4443 47.1597 17.7878C47.1791 18.1313 47.1791 18.1509 47.1791 18.1509C47.1791 18.1509 47.8097 17.9792 48.0523 17.4149C48.2949 16.8506 48.6005 15.668 48.6005 15.668C48.6005 15.668 48.6733 17.67 47.3246 18.5631C47.3246 18.5631 47.15 20.2266 47.15 20.7075C47.15 20.7075 47.2421 18.5926 46.9316 17.881C46.9316 17.881 45.1027 17.7878 44.5205 16.8604C44.5205 16.8604 45.5733 17.6259 46.529 17.459C46.529 17.459 46.8007 17.6063 46.5581 16.8653C46.3155 16.1293 45.8013 15.0252 45.3356 14.4462C44.8698 13.8622 44.3459 13.3715 44.3459 13.3715C44.3459 13.3715 44.8068 13.7445 45.0493 13.7886L45.1852 13.7543C45.1658 13.7543 44.9377 12.4049 45.2191 11.6443Z" fill="#256215"/>
<path fill-rule="evenodd" clip-rule="evenodd" d="M34.3085 19.5353C34.3085 19.5353 35.0362 24.0252 35.6718 25.1096C36.3073 26.1891 37.0592 28.78 39.5916 29.2805C42.124 29.781 43.5746 28.5445 43.9336 28.3678C44.2877 28.1863 45.2677 28.8683 45.2677 28.8683L44.3362 27.725C44.3362 27.725 44.5788 25.934 43.8511 24.506C43.1234 23.0781 42.158 22.0722 40.7948 21.7778C39.4315 21.4833 37.525 21.5864 36.8603 21.4833C36.2054 21.3754 34.7646 21.0564 34.3085 19.5353Z" fill="url(#paint4_radial_3789_8892)"/>
<mask id="mask1_3789_8892" style="mask-type:alpha" maskUnits="userSpaceOnUse" x="38" y="22" width="8" height="8">
<path d="M45.2775 22.3075H38.0636V29.4226H45.2775V22.3075Z" fill="url(#paint5_linear_3789_8892)"/>
</mask>
<g mask="url(#mask1_3789_8892)">
<path fill-rule="evenodd" clip-rule="evenodd" d="M38.0779 28.6277C38.0779 28.6277 42.0075 29.7563 43.8025 27.9162C43.8025 27.9162 44.7776 25.8013 42.0706 22.3223C42.0706 22.3223 43.4969 23.1908 44.0936 25.0898C44.6951 26.9888 44.3361 27.7248 44.3361 27.7248L45.2676 28.8682C45.2676 28.8682 44.2876 28.1468 43.9335 28.3677C43.5745 28.5885 42.2598 29.511 40.5618 29.3981C38.8639 29.2804 38.0779 28.6277 38.0779 28.6277Z" fill="url(#paint6_linear_3789_8892)"/>
<path fill-rule="evenodd" clip-rule="evenodd" d="M34.3085 19.5353C34.3085 19.5353 34.9489 21.6796 36.1569 22.9751C37.3649 24.2754 38.2915 24.8446 40.8384 25.4629C40.8384 25.4629 41.6486 25.3648 43.8026 27.9164C43.8026 27.9164 44.3896 26.2431 43.4436 24.5747C43.4436 24.5747 42.8517 23.1861 41.896 22.2096C41.896 22.2096 41.0858 21.5668 39.1016 21.5766C39.1016 21.5766 36.9331 21.6011 36.448 21.395C35.9628 21.1987 34.9441 21.1251 34.3085 19.5353Z" fill="url(#paint7_radial_3789_8892)"/>
</g>
<path fill-rule="evenodd" clip-rule="evenodd" d="M36.1084 22.8811C36.1084 22.8811 37.0544 24.0342 37.9616 24.3826C38.864 24.731 39.1938 24.6133 39.1938 24.6133C39.1938 24.6133 39.0046 23.8281 38.6359 23.3276C38.6359 23.3276 39.3248 23.9067 39.4995 24.8488C39.4995 24.8488 40.0137 25.05 40.5765 25.2021C41.1344 25.3542 41.5176 25.6143 41.7747 25.8449C42.027 26.0755 42.0416 26.0903 42.0416 26.0903C42.0416 26.0903 42.3666 25.5161 42.1434 24.9469C41.9203 24.3728 41.309 23.3178 41.309 23.3178C41.309 23.3178 42.7596 24.682 42.4297 26.2767C42.4297 26.2767 43.4679 27.5771 43.8026 27.9157C43.8026 27.9157 42.3909 26.3503 41.6729 26.0755C41.6729 26.0755 40.3193 27.317 39.2569 27.0815C39.2569 27.0815 40.5377 26.8705 41.0956 26.0706C41.0956 26.0706 41.3866 25.9823 40.7026 25.6339C40.0137 25.2855 38.8834 24.8733 38.146 24.7948C37.4086 24.7163 36.6954 24.7458 36.6954 24.7458C36.6954 24.7458 37.2824 24.682 37.4862 24.5397L37.5541 24.417C37.5444 24.4121 36.4431 23.6221 36.1084 22.8811Z" fill="#256215"/>
<path fill-rule="evenodd" clip-rule="evenodd" d="M57.178 21.2129C57.178 21.2129 52.7584 22.0667 51.7057 22.739C50.653 23.4112 48.1157 24.2405 47.6888 26.8117C47.2619 29.3879 48.5232 30.8207 48.7076 31.174C48.8968 31.5273 48.2467 32.5382 48.2467 32.5382L49.3528 31.5666C49.3528 31.5666 51.1284 31.7629 52.5207 30.9925C53.913 30.2221 54.8785 29.2162 55.1356 27.8324C55.3927 26.4486 55.2375 24.5202 55.3248 23.8479C55.4121 23.1806 55.6935 21.7183 57.178 21.2129Z" fill="url(#paint8_radial_3789_8892)"/>
<mask id="mask2_3789_8892" style="mask-type:alpha" maskUnits="userSpaceOnUse" x="47" y="25" width="8" height="8">
<path d="M54.6501 25.2566H47.5865V32.5582H54.6501V25.2566Z" fill="url(#paint9_linear_3789_8892)"/>
</mask>
<g mask="url(#mask2_3789_8892)">
<path fill-rule="evenodd" clip-rule="evenodd" d="M48.295 25.2712C48.295 25.2712 47.2859 29.2753 49.1537 31.0418C49.1537 31.0418 51.2688 31.9693 54.6356 29.1379C54.6356 29.1379 53.8158 30.6051 51.9529 31.2577C50.09 31.9153 49.3574 31.5718 49.3574 31.5718L48.2513 32.5434C48.2513 32.5434 48.9402 31.5374 48.7122 31.1792C48.4842 30.821 47.5382 29.5158 47.6061 27.7983C47.674 26.0809 48.295 25.2712 48.295 25.2712Z" fill="url(#paint10_linear_3789_8892)"/>
<path fill-rule="evenodd" clip-rule="evenodd" d="M57.1778 21.2129C57.1778 21.2129 55.0772 21.9146 53.8255 23.1757C52.5739 24.4319 52.0354 25.3838 51.4969 27.9747C51.4969 27.9747 51.6133 28.7893 49.1537 31.0366C49.1537 31.0366 50.8225 31.5862 52.4477 30.5852C52.4477 30.5852 53.8061 29.9473 54.7424 28.9561C54.7424 28.9561 55.3585 28.1219 55.2906 26.115C55.2906 26.115 55.2081 23.9215 55.3973 23.4259C55.5817 22.9303 55.6254 21.8999 57.1778 21.2129Z" fill="url(#paint11_radial_3789_8892)"/>
</g>
<path fill-rule="evenodd" clip-rule="evenodd" d="M53.9225 23.1216C53.9225 23.1216 52.8116 24.1128 52.4914 25.0353C52.1712 25.9578 52.2973 26.2915 52.2973 26.2915C52.2973 26.2915 53.0687 26.0756 53.5538 25.6928C53.5538 25.6928 53.0008 26.4043 52.0742 26.6104C52.0742 26.6104 51.8898 27.1355 51.754 27.7096C51.6181 28.2788 51.3707 28.6714 51.1524 28.9363C50.9292 29.2013 50.9195 29.2111 50.9195 29.2111C50.9195 29.2111 51.492 29.5252 52.0547 29.2847C52.6127 29.0443 53.6411 28.3966 53.6411 28.3966C53.6411 28.3966 52.3313 29.8981 50.7449 29.6086C50.7449 29.6086 49.4884 30.693 49.1585 31.0414C49.1585 31.0414 50.6673 29.5693 50.9195 28.8382C50.9195 28.8382 49.6533 27.5035 49.8619 26.4191C49.8619 26.4191 50.1045 27.7047 50.9098 28.2494C50.9098 28.2494 51.0069 28.5438 51.3319 27.8372C51.6569 27.1306 52.0353 25.9774 52.0887 25.2267C52.1469 24.4759 52.0984 23.7595 52.0984 23.7595C52.0984 23.7595 52.176 24.3483 52.3216 24.5495L52.4429 24.6182C52.4477 24.6182 53.1997 23.4847 53.9225 23.1216Z" fill="#256215"/>
<path d="M68.5605 9.1623H64.8052V24.1502H66.5482V18.6923H68.5605C69.5099 18.6923 70.3035 18.5065 70.9553 18.135C71.6072 17.7635 72.1173 17.2349 72.4574 16.5205C72.7975 15.8061 72.9676 14.9346 72.9676 13.8915C72.9676 12.8771 72.7975 12.0199 72.4574 11.3198C72.1173 10.6197 71.6213 10.0767 70.9553 9.71952C70.3035 9.34804 69.5099 9.17658 68.5605 9.1623ZM68.5605 17.0206H66.5482V10.834H68.5605C69.4532 10.834 70.1192 11.0912 70.5585 11.6055C70.9978 12.1199 71.2104 12.8771 71.2104 13.9058C71.2104 14.9774 70.9978 15.7633 70.5585 16.2776C70.1192 16.7777 69.4532 17.0206 68.5605 17.0206ZM79.3727 12.6342C78.6925 12.6342 78.1115 12.7771 77.6297 13.0629C77.1479 13.3486 76.7653 13.7487 76.4819 14.2487L76.2552 12.8771H74.994V24.1359H76.6519V17.2349C76.6519 16.5919 76.7653 16.0633 76.9637 15.6061C77.1621 15.1632 77.4455 14.8203 77.8139 14.5916C78.1824 14.363 78.6075 14.2345 79.1176 14.2345C79.3869 14.2345 79.6419 14.263 79.8687 14.2916C80.0954 14.3345 80.308 14.3916 80.5064 14.4631V12.7485C80.3363 12.6914 80.1663 12.6628 79.9679 12.6342C79.7978 12.6485 79.5994 12.6342 79.3727 12.6342ZM85.707 24.4074C86.4864 24.4074 87.1666 24.2502 87.7334 23.9216C88.3002 23.6072 88.7395 23.1357 89.0513 22.5071C89.363 21.8927 89.5189 21.1212 89.5189 20.221V16.7777C89.5189 15.8776 89.363 15.1203 89.0513 14.4916C88.7395 13.8773 88.3002 13.4058 87.7334 13.0771C87.1666 12.7628 86.4864 12.5914 85.707 12.5914C84.9276 12.5914 84.2474 12.7628 83.6664 13.0771C83.0996 13.3915 82.6461 13.863 82.3344 14.4916C82.0226 15.106 81.8667 15.8633 81.8526 16.7777V20.221C81.8526 21.1212 82.0226 21.8784 82.3344 22.5071C82.6461 23.1215 83.0854 23.593 83.6664 23.9216C84.2333 24.2502 84.9134 24.4074 85.707 24.4074ZM85.707 22.7785C85.0268 22.7785 84.5025 22.5785 84.1341 22.1642C83.7656 21.7498 83.5672 21.1069 83.5672 20.2353V16.792C83.5814 15.9204 83.7656 15.2775 84.1341 14.8631C84.5025 14.4631 85.0268 14.263 85.707 14.263C86.3872 14.263 86.9115 14.4631 87.2799 14.8631C87.6484 15.2775 87.8468 15.9061 87.8468 16.792V20.2353C87.8468 21.1069 87.6484 21.7498 87.2799 22.1642C86.8973 22.5785 86.373 22.7928 85.707 22.7785ZM96.0658 9.89098H96.7035V8.3479H96.0658C95.2864 8.3479 94.6204 8.50506 94.0961 8.8051C93.5717 9.10515 93.175 9.54807 92.9199 10.1053C92.6506 10.6625 92.5231 11.334 92.5231 12.0913V12.8771H90.851V14.3916H92.5231V24.1359H94.1811V14.3916H96.4767V12.8771H94.1811V12.0913C94.1811 11.3197 94.337 10.7625 94.6629 10.4053C94.9746 10.0624 95.4423 9.89098 96.0658 9.89098ZM104.497 16.4205C104.837 16.2633 105.135 16.0347 105.39 15.7204C105.645 15.4203 105.829 15.0489 105.971 14.6059C106.113 14.1773 106.184 13.6772 106.184 13.1343C106.184 12.2913 106.028 11.5769 105.702 10.9911C105.39 10.3911 104.937 9.94813 104.341 9.6338C103.76 9.31947 103.052 9.1623 102.23 9.1623H98.4465V24.1502H102.499C103.378 24.1502 104.129 23.9787 104.767 23.6644C105.404 23.3358 105.886 22.8643 106.226 22.2356C106.566 21.6069 106.736 20.8497 106.75 19.9638C106.75 19.3638 106.665 18.8208 106.481 18.3493C106.297 17.8778 106.042 17.4778 105.716 17.1492C105.362 16.8063 104.965 16.5777 104.497 16.4205ZM102.088 10.8197C102.868 10.8197 103.435 11.0054 103.817 11.3912C104.2 11.777 104.384 12.3771 104.384 13.1915C104.384 14.0059 104.2 14.6202 103.831 15.0489C103.463 15.4632 102.896 15.6775 102.145 15.6775H100.189V10.8197H102.088ZM102.343 22.5071H100.175V17.3206H102.202C102.769 17.3206 103.25 17.4206 103.675 17.6207C104.086 17.8207 104.412 18.1064 104.639 18.5065C104.866 18.8923 104.979 19.378 104.979 19.9638C104.979 20.8354 104.767 21.4784 104.327 21.8927C103.888 22.307 103.236 22.5071 102.343 22.5071ZM114.573 20.664C114.516 21.1354 114.388 21.5355 114.218 21.8356C114.048 22.1356 113.793 22.3642 113.482 22.5071C113.17 22.6642 112.773 22.7214 112.305 22.7214C111.654 22.7214 111.143 22.5214 110.789 22.1213C110.435 21.7213 110.251 21.0926 110.251 20.2353V19.2066H116.089V16.7205C116.089 15.849 115.933 15.106 115.621 14.4916C115.31 13.8773 114.87 13.4201 114.303 13.0914C113.737 12.7771 113.071 12.6056 112.291 12.6056C111.526 12.6056 110.874 12.7771 110.307 13.0914C109.755 13.4058 109.315 13.8773 109.018 14.4916C108.72 15.106 108.564 15.849 108.55 16.7205V20.2496C108.55 21.1354 108.706 21.8784 109.004 22.4928C109.301 23.1072 109.726 23.5787 110.279 23.893C110.832 24.2073 111.498 24.3788 112.249 24.3788C113.042 24.3788 113.722 24.2359 114.303 23.9359C114.87 23.6501 115.324 23.2215 115.65 22.6785C115.976 22.1213 116.16 21.4498 116.231 20.6497L114.573 20.664ZM112.305 14.2202C112.971 14.2202 113.496 14.4202 113.864 14.8203C114.233 15.2203 114.417 15.849 114.417 16.692V17.8207H110.236V16.692C110.236 15.849 110.421 15.2203 110.775 14.8203C111.143 14.4202 111.654 14.2202 112.305 14.2202ZM121.842 12.6056C121.12 12.6056 120.482 12.7485 119.943 13.02C119.405 13.2915 118.98 13.6772 118.682 14.1773C118.37 14.6774 118.2 15.2775 118.172 15.9633H119.844C119.873 15.5918 119.972 15.2632 120.142 15.006C120.312 14.7488 120.539 14.5488 120.822 14.4202C121.105 14.2916 121.431 14.2202 121.786 14.2202C122.423 14.2202 122.891 14.4202 123.203 14.806C123.514 15.1917 123.67 15.7633 123.67 16.5062V17.4921H121.757C120.935 17.4921 120.241 17.6207 119.646 17.8778C119.065 18.135 118.611 18.5208 118.285 19.0351C117.974 19.5352 117.804 20.1639 117.804 20.9069C117.804 21.6355 117.959 22.2499 118.257 22.7785C118.555 23.2929 118.966 23.693 119.476 23.9787C120 24.2502 120.595 24.3931 121.29 24.4074C121.701 24.4074 122.069 24.3502 122.395 24.2359C122.721 24.1216 123.004 23.9644 123.231 23.7644C123.472 23.5644 123.67 23.3358 123.826 23.0786L123.954 24.1502H125.328V16.5062C125.328 15.6918 125.187 14.9917 124.917 14.4059C124.648 13.8201 124.251 13.3772 123.727 13.0771C123.231 12.7771 122.593 12.6199 121.842 12.6056ZM123.684 20.8783C123.684 21.2783 123.599 21.6212 123.429 21.9213C123.259 22.2213 123.033 22.4499 122.721 22.6214C122.409 22.7928 122.055 22.8643 121.616 22.8786C121.19 22.8786 120.822 22.8071 120.51 22.6642C120.198 22.5214 119.958 22.307 119.788 22.0213C119.617 21.7355 119.532 21.3926 119.532 20.9783C119.532 20.3496 119.731 19.8638 120.099 19.5352C120.482 19.2066 121.035 19.0351 121.757 19.0351H123.684V20.8783ZM133.604 12.8914V19.7924C133.604 20.4354 133.505 20.9783 133.321 21.4355C133.136 21.8927 132.881 22.2356 132.541 22.4642C132.215 22.7071 131.818 22.8214 131.365 22.8214C130.727 22.8214 130.274 22.5928 129.976 22.1213C129.679 21.6498 129.537 20.9068 129.537 19.8924V12.8914H127.879V20.021C127.879 21.0497 128.007 21.8784 128.262 22.5356C128.502 23.1929 128.857 23.6644 129.31 23.9787C129.764 24.2788 130.302 24.4359 130.94 24.4359C131.592 24.4216 132.159 24.293 132.64 24.0073C133.108 23.7215 133.491 23.3358 133.788 22.8357L134.001 24.1645H135.248V12.9057L133.604 12.8914ZM141.95 22.6928C141.355 22.6928 140.902 22.5214 140.633 22.1785C140.349 21.8355 140.207 21.3355 140.222 20.6497V14.4345H142.39V12.8914H140.222V10.2625H138.564V12.8914H136.906V14.4345H138.564V20.664C138.564 21.4212 138.691 22.0642 138.96 22.6071C139.216 23.15 139.598 23.5644 140.094 23.8501C140.59 24.1359 141.199 24.2788 141.922 24.293H142.617V22.7071H141.95V22.6928ZM149.787 12.8914L147.534 20.5354L144.983 12.8914H143.226L146.811 22.9929L146.216 24.9789C146.131 25.2932 146.032 25.5647 145.918 25.8076C145.805 26.0504 145.649 26.2362 145.465 26.3791C145.281 26.5219 145.04 26.5791 144.742 26.5934H144.104V28.2222H145.011C145.55 28.2222 145.989 28.0936 146.358 27.8507C146.712 27.6078 147.024 27.2649 147.25 26.822C147.491 26.3791 147.69 25.8647 147.86 25.2646L151.516 12.8914H149.787ZM162.512 9.1623L159.947 15.4346C159.862 15.6632 159.763 15.9204 159.65 16.1919C159.536 16.4634 159.437 16.7634 159.338 17.0492C159.225 17.3349 159.14 17.6207 159.04 17.8778C158.955 18.135 158.87 18.3636 158.799 18.5637H158.714C158.658 18.3636 158.587 18.135 158.488 17.8778C158.403 17.6064 158.303 17.3349 158.204 17.0492C158.091 16.7634 157.992 16.4634 157.893 16.1919C157.793 15.9061 157.694 15.6632 157.595 15.4346L155.03 9.1623H153.202V24.1502H154.917V17.2778C154.917 16.4634 154.902 15.6918 154.874 14.9488C154.846 14.2059 154.817 13.4629 154.775 12.7485L154.874 12.72C155.073 13.2915 155.299 13.9201 155.554 14.5916C155.809 15.2632 156.079 15.949 156.334 16.6634L157.907 20.7068H159.621L161.166 16.6634C161.435 15.949 161.704 15.2632 161.959 14.5916C162.215 13.9201 162.441 13.2915 162.654 12.72L162.739 12.7485C162.696 13.4772 162.668 14.2059 162.64 14.9488C162.611 15.6918 162.597 16.4776 162.597 17.2778V24.1502H164.312V9.1623H162.512ZM170.618 12.6056C169.895 12.6056 169.257 12.7485 168.719 13.02C168.18 13.2915 167.755 13.6772 167.458 14.1773C167.146 14.6774 166.976 15.2775 166.948 15.9633H168.62C168.648 15.5918 168.747 15.2632 168.917 15.006C169.087 14.7488 169.314 14.5488 169.597 14.4202C169.881 14.2916 170.207 14.2202 170.561 14.2202C171.199 14.2202 171.666 14.4202 171.978 14.806C172.29 15.1917 172.446 15.7633 172.446 16.5062V17.4921H170.533C169.711 17.4921 169.016 17.6207 168.421 17.8778C167.84 18.135 167.387 18.5208 167.061 19.0351C166.749 19.5352 166.579 20.1639 166.579 20.9069C166.579 21.6355 166.735 22.2499 167.033 22.7785C167.33 23.2929 167.741 23.693 168.251 23.9787C168.776 24.2502 169.371 24.3931 170.065 24.4074C170.476 24.4074 170.845 24.3502 171.17 24.2359C171.496 24.1216 171.78 23.9644 172.007 23.7644C172.247 23.5644 172.446 23.3358 172.602 23.0786L172.729 24.1502H174.104V16.5062C174.104 15.6918 173.962 14.9917 173.693 14.4059C173.424 13.8201 173.027 13.3772 172.502 13.0771C172.007 12.7771 171.369 12.6199 170.618 12.6056ZM172.46 20.8783C172.46 21.2783 172.375 21.6212 172.205 21.9213C172.035 22.2213 171.808 22.4499 171.496 22.6214C171.185 22.7928 170.83 22.8643 170.391 22.8786C169.966 22.8786 169.597 22.8071 169.286 22.6642C168.974 22.5214 168.733 22.307 168.563 22.0213C168.393 21.7355 168.308 21.3926 168.308 20.9783C168.308 20.3496 168.506 19.8638 168.875 19.5352C169.257 19.2066 169.81 19.0351 170.533 19.0351H172.46V20.8783ZM181.147 12.6342C180.466 12.6342 179.885 12.7771 179.404 13.0629C178.922 13.3486 178.539 13.7487 178.256 14.2487L178.029 12.8771H176.782V24.1359H178.44V17.2349C178.44 16.5919 178.553 16.0633 178.752 15.6061C178.95 15.1632 179.234 14.8203 179.602 14.5916C179.97 14.363 180.396 14.2345 180.906 14.2345C181.175 14.2345 181.43 14.263 181.657 14.2916C181.883 14.3345 182.096 14.3916 182.294 14.4631V12.7485C182.124 12.6914 181.954 12.6628 181.756 12.6342C181.572 12.6485 181.373 12.6342 181.147 12.6342ZM189.876 24.1502H191.831L187.651 17.4349L191.279 12.8914H189.266L185.568 17.6207V8.64794H183.91V24.1502H185.568V19.7781L186.517 18.7065L189.876 24.1502ZM198.86 20.664C198.803 21.1354 198.676 21.5355 198.506 21.8356C198.336 22.1356 198.081 22.3642 197.769 22.5071C197.457 22.65 197.06 22.7214 196.593 22.7214C195.941 22.7214 195.431 22.5214 195.076 22.1213C194.722 21.7213 194.538 21.0926 194.538 20.2353V19.2066H200.376V16.7205C200.376 15.849 200.22 15.106 199.909 14.4916C199.597 13.8773 199.158 13.4201 198.591 13.0914C198.024 12.7771 197.358 12.6056 196.578 12.6056C195.813 12.6056 195.161 12.7771 194.595 13.0914C194.042 13.4058 193.603 13.8773 193.305 14.4916C193.007 15.106 192.852 15.849 192.837 16.7205V20.2496C192.837 21.1354 192.993 21.8784 193.291 22.4928C193.588 23.1072 194.014 23.5787 194.566 23.893C195.119 24.2073 195.785 24.3788 196.536 24.3788C197.33 24.3788 198.01 24.2359 198.591 23.9359C199.158 23.6501 199.611 23.2215 199.937 22.6785C200.263 22.1213 200.447 21.4498 200.518 20.6497L198.86 20.664ZM196.593 14.2202C197.259 14.2202 197.783 14.4202 198.151 14.8203C198.52 15.2203 198.704 15.849 198.704 16.692V17.8207H194.524V16.692C194.524 15.849 194.708 15.2203 195.062 14.8203C195.431 14.4202 195.941 14.2202 196.593 14.2202ZM206.753 22.6928C206.158 22.6928 205.704 22.5214 205.435 22.1785C205.152 21.8355 205.01 21.3355 205.024 20.6497V14.4345H207.192V12.8914H205.024V10.2625H203.366V12.8914H201.708V14.4345H203.366V20.664C203.366 21.4212 203.494 22.0642 203.763 22.6071C204.018 23.15 204.401 23.5644 204.897 23.8501C205.393 24.1359 206.002 24.2788 206.725 24.293H207.419V22.7071H206.753V22.6928Z" fill="#7E71B1"/>
<path d="M64.5359 37.7374H65.5562V33.1225H67.0867V37.7374H68.107V32.1795H64.5359C64.5359 32.1938 64.5359 37.7374 64.5359 37.7374ZM71.7347 32.0652C71.2387 32.0652 70.7569 32.3367 70.4876 32.6939L70.4168 32.1938H69.6799V39.652H70.6719V37.4374C70.9411 37.7232 71.3237 37.8803 71.7347 37.8803C72.7975 37.8803 73.4918 37.0945 73.4918 35.7514V34.2227C73.4918 32.851 72.7833 32.0652 71.7347 32.0652ZM72.4574 35.7372C72.4574 36.5516 72.1598 36.9088 71.5646 36.9088C71.012 36.9088 70.6719 36.4658 70.6719 35.7372V34.1941C70.6719 33.4083 71.0403 33.0082 71.5646 33.0082C72.1314 33.0082 72.4574 33.3797 72.4574 34.1941V35.7372ZM76.7511 37.866C77.9556 37.866 78.6925 37.1231 78.6925 35.7514V34.1512C78.6925 32.7939 77.9556 32.0366 76.7511 32.0366C75.5607 32.0366 74.8239 32.7796 74.8239 34.1512V35.7514C74.8239 37.1231 75.5607 37.866 76.7511 37.866ZM76.7511 36.8802C76.1843 36.8802 75.8442 36.5373 75.8442 35.7657V34.1655C75.8442 33.3797 76.1843 33.0511 76.7511 33.0511C77.3321 33.0511 77.6722 33.394 77.6722 34.1655V35.7657C77.6722 36.5373 77.3321 36.8802 76.7511 36.8802ZM83.5105 32.1081H83.2979V30.1364H82.3202V32.1081H82.1076C80.8889 32.1081 80.0387 32.8939 80.0387 34.2798V35.6229C80.0387 37.0231 80.8889 37.8232 82.1076 37.8232H82.3202V39.652H83.2979V37.8232H83.5105C84.7292 37.8232 85.5794 37.0231 85.5794 35.6229V34.2798C85.5794 32.8796 84.7434 32.1081 83.5105 32.1081ZM82.1076 36.8087C81.4983 36.8087 81.059 36.423 81.059 35.6086V34.2655C81.059 33.4511 81.4983 33.0796 82.1076 33.0796H82.3202V36.7945L82.1076 36.8087ZM84.5591 35.6086C84.5591 36.4372 84.1198 36.8087 83.5105 36.8087H83.2979V33.0939H83.5105C84.1198 33.0939 84.5591 33.4654 84.5591 34.2798V35.6086ZM89.7456 36.0086C89.6606 36.6087 89.4055 36.8802 88.8103 36.8802C88.2577 36.8802 87.9318 36.5373 87.9318 35.78V35.3514H90.7376V34.1226C90.7376 32.8082 90.0007 32.0509 88.8103 32.0509C87.6483 32.0509 86.9115 32.7939 86.9115 34.1226V35.78C86.9115 37.1088 87.6342 37.866 88.782 37.866C89.9582 37.866 90.6525 37.1945 90.7517 36.0086H89.7456ZM88.8245 33.0082C89.4055 33.0082 89.7456 33.3511 89.7456 34.1083V34.5798H87.9318V34.1083C87.9318 33.3511 88.2719 33.0082 88.8245 33.0082ZM93.8976 37.8517C95.0738 37.8517 95.7965 37.1088 95.8248 35.8229H94.8045C94.7762 36.523 94.4644 36.8802 93.8976 36.8802C93.3591 36.8802 93.0474 36.5373 93.0474 35.8229V34.0798C93.0474 33.3797 93.3591 33.0368 93.8976 33.0368C94.4644 33.0368 94.762 33.3797 94.7904 34.0798H95.8107C95.7823 32.7939 95.088 32.0509 93.8834 32.0509C92.7356 32.0509 92.0271 32.7939 92.0271 34.0798V35.8229C92.0413 37.1231 92.7498 37.8517 93.8976 37.8517ZM98.8432 37.8517C100.019 37.8517 100.742 37.1088 100.77 35.8229H99.7501C99.7218 36.523 99.41 36.8802 98.8432 36.8802C98.3047 36.8802 97.9929 36.5373 97.9929 35.8229V34.0798C97.9929 33.3797 98.3047 33.0368 98.8432 33.0368C99.41 33.0368 99.7076 33.3797 99.7359 34.0798H100.756C100.728 32.7939 100.034 32.0509 98.829 32.0509C97.6812 32.0509 96.9727 32.7939 96.9727 34.0798V35.8229C96.9868 37.1231 97.6954 37.8517 98.8432 37.8517ZM102.046 37.7374H103.08L104.143 35.5086C104.356 35.0371 104.71 34.0369 104.767 33.794L104.795 33.8083C104.767 34.3655 104.738 35.0656 104.738 35.5943V37.7232H105.716V32.1652H104.682L103.619 34.4941C103.434 34.9513 103.123 35.78 103.038 36.0658L103.009 36.0515C103.024 35.4514 103.024 34.9513 103.024 34.5084V32.1652H102.046V37.7374ZM109.117 37.866C110.321 37.866 111.058 37.1231 111.058 35.7514V34.1512C111.058 32.7939 110.321 32.0366 109.117 32.0366C107.927 32.0366 107.19 32.7796 107.19 34.1512V35.7514C107.176 37.1231 107.927 37.866 109.117 37.866ZM109.117 36.8802C108.55 36.8802 108.21 36.5373 108.21 35.7657V34.1655C108.21 33.3797 108.55 33.0511 109.117 33.0511C109.698 33.0511 110.038 33.394 110.038 34.1655V35.7657C110.038 36.5373 109.698 36.8802 109.117 36.8802ZM114.998 32.1938V34.4227H113.467V32.1938H112.447V37.7517H113.467V35.38H114.998V37.7517H116.018V32.1938H114.998ZM119.348 32.0509C118.243 32.0509 117.534 32.7082 117.478 33.7655H118.498C118.555 33.2654 118.881 33.0225 119.334 33.0225C119.887 33.0225 120.128 33.394 120.128 34.0512V34.4513H119.32C118.101 34.4513 117.322 35.0371 117.322 36.1658C117.322 37.2088 118.002 37.8803 119.022 37.8803C119.617 37.8803 120.014 37.6089 120.241 37.2231L120.312 37.7517H121.134V34.0655C121.134 32.7796 120.524 32.0509 119.348 32.0509ZM120.128 36.0372C120.128 36.623 119.787 36.9802 119.235 36.9802C118.682 36.9802 118.356 36.6801 118.356 36.1658C118.356 35.6086 118.71 35.3085 119.334 35.3085H120.142L120.128 36.0372ZM122.111 37.8232C123.203 37.8232 123.727 37.0802 123.854 35.5228C123.911 34.8799 123.982 33.7797 123.996 33.1368H125.229V37.7517H126.235V32.1938H123.033C123.018 33.2654 122.933 34.5513 122.877 35.3514C122.792 36.2372 122.678 36.8373 122.126 36.8373L122.111 37.8232ZM129.707 34.0655H128.843V32.1938H127.822V37.7517H129.707C130.756 37.7517 131.521 37.0088 131.521 35.8943C131.521 34.8084 130.756 34.0655 129.707 34.0655ZM129.594 36.8087H128.843V34.9799H129.608C130.146 34.9799 130.501 35.3228 130.501 35.88C130.501 36.4515 130.132 36.8087 129.594 36.8087ZM135.177 32.1938V34.4227H133.646V32.1938H132.626V37.7517H133.646V35.38H135.177V37.7517H136.197V32.1938H135.177ZM139.527 32.0509C138.422 32.0509 137.713 32.7082 137.657 33.7655H138.677C138.734 33.2654 139.06 33.0225 139.513 33.0225C140.066 33.0225 140.307 33.394 140.307 34.0512V34.4513H139.499C138.28 34.4513 137.501 35.0371 137.501 36.1658C137.501 37.2088 138.181 37.8803 139.201 37.8803C139.796 37.8803 140.193 37.6089 140.42 37.2231L140.491 37.7517H141.313V34.0655C141.313 32.7796 140.703 32.0509 139.527 32.0509ZM140.307 36.0372C140.307 36.623 139.967 36.9802 139.414 36.9802C138.861 36.9802 138.535 36.6801 138.535 36.1658C138.535 35.6086 138.89 35.3085 139.513 35.3085H140.321V36.0372H140.307ZM144.416 32.1938C143.325 32.1938 142.56 32.8796 142.56 34.0083C142.56 34.9085 142.985 35.4943 143.552 35.7229L142.376 37.7517H143.523L144.515 35.88H145.11V37.7517H146.088V32.1938H144.416ZM145.125 34.9942H144.43C143.849 34.9942 143.552 34.6513 143.552 34.0369C143.552 33.4511 143.863 33.1225 144.444 33.1225H145.11L145.125 34.9942ZM152.763 37.7374H153.925L151.927 34.5513L153.655 32.1795H152.451L151.544 33.5225L150.892 34.5513V32.1938H149.886V37.7517H150.892V35.7657L151.261 35.3657L152.763 37.7374ZM156.433 37.866C157.637 37.866 158.374 37.1231 158.374 35.7514V34.1512C158.374 32.7939 157.637 32.0366 156.433 32.0366C155.243 32.0366 154.506 32.7796 154.506 34.1512V35.7514C154.506 37.1231 155.243 37.866 156.433 37.866ZM156.433 36.8802C155.866 36.8802 155.526 36.5373 155.526 35.7657V34.1655C155.526 33.3797 155.866 33.0511 156.433 33.0511C157.014 33.0511 157.354 33.394 157.354 34.1655V35.7657C157.354 36.5373 157.014 36.8802 156.433 36.8802ZM161.577 37.8517C162.753 37.8517 163.476 37.1088 163.504 35.8229H162.484C162.455 36.523 162.144 36.8802 161.577 36.8802C161.038 36.8802 160.727 36.5373 160.727 35.8229V34.0798C160.727 33.3797 161.038 33.0368 161.577 33.0368C162.144 33.0368 162.441 33.3797 162.47 34.0798H163.49C163.462 32.7939 162.767 32.0509 161.563 32.0509C160.415 32.0509 159.706 32.7939 159.706 34.0798V35.8229C159.72 37.1231 160.429 37.8517 161.577 37.8517ZM168.365 32.1938L167.514 34.1941C167.373 34.5799 167.217 34.9513 167.089 35.3514H167.061C166.948 34.9513 166.806 34.5799 166.636 34.1941L165.786 32.1938H164.765V37.7517H165.7V35.5514C165.7 34.9656 165.658 34.4084 165.644 33.9226L165.7 33.9083C165.856 34.3941 165.998 34.8942 166.154 35.2942L166.607 36.3658H167.543L167.996 35.2942C168.138 34.8799 168.294 34.3941 168.45 33.9083L168.506 33.9226C168.492 34.4084 168.45 34.9799 168.45 35.5514V37.7517H169.385V32.1938H168.365ZM173.664 36.0086C173.579 36.6087 173.324 36.8802 172.729 36.8802C172.176 36.8802 171.851 36.5373 171.851 35.78V35.3514H174.656V34.1226C174.656 32.8082 173.919 32.0509 172.729 32.0509C171.567 32.0509 170.83 32.7939 170.83 34.1226V35.78C170.83 37.1088 171.553 37.866 172.701 37.866C173.877 37.866 174.571 37.1945 174.671 36.0086H173.664ZM172.743 33.0082C173.324 33.0082 173.664 33.3511 173.664 34.1083V34.5798H171.851V34.1083C171.865 33.3511 172.191 33.0082 172.743 33.0082ZM179.12 32.1938H175.592V33.1511H176.853V37.7517H177.859V33.1511H179.12V32.1938ZM181.827 37.866C183.031 37.866 183.768 37.1231 183.768 35.7514V34.1512C183.768 32.7939 183.031 32.0366 181.827 32.0366C180.636 32.0366 179.9 32.7796 179.9 34.1512V35.7514C179.9 37.1231 180.636 37.866 181.827 37.866ZM181.827 36.8802C181.26 36.8802 180.92 36.5373 180.92 35.7657V34.1655C180.92 33.3797 181.26 33.0511 181.827 33.0511C182.408 33.0511 182.748 33.394 182.748 34.1655V35.7657C182.748 36.5373 182.408 36.8802 181.827 36.8802ZM184.647 37.8232C185.738 37.8232 186.262 37.0802 186.39 35.5228C186.446 34.8799 186.517 33.7797 186.531 33.1368H187.764V37.7517H188.77V32.1938H185.568C185.554 33.2654 185.469 34.5513 185.412 35.3514C185.327 36.2372 185.214 36.8373 184.661 36.8373L184.647 37.8232ZM192.157 37.866C193.362 37.866 194.099 37.1231 194.099 35.7514V34.1512C194.099 32.7939 193.362 32.0366 192.157 32.0366C190.967 32.0366 190.23 32.7796 190.23 34.1512V35.7514C190.216 37.1231 190.967 37.866 192.157 37.866ZM192.157 36.8802C191.59 36.8802 191.25 36.5373 191.25 35.7657V34.1655C191.25 33.3797 191.59 33.0511 192.157 33.0511C192.738 33.0511 193.078 33.394 193.078 34.1655V35.7657C193.078 36.5373 192.724 36.8802 192.157 36.8802ZM198.421 32.1938H195.558V37.7517H196.578V33.1796H198.421V32.1938ZM199.554 37.7374H200.589L201.652 35.5086C201.864 35.0371 202.218 34.0369 202.275 33.794L202.303 33.8083C202.275 34.3655 202.247 35.0656 202.247 35.5943V37.7232H203.224V32.1652H202.19L201.127 34.4941C200.943 34.9513 200.631 35.78 200.546 36.0658L200.518 36.0515C200.532 35.4514 200.532 34.9513 200.532 34.5084V32.1652H199.554V37.7374ZM206.328 32.1938C205.237 32.1938 204.471 32.8796 204.471 34.0083C204.471 34.9085 204.897 35.4943 205.463 35.7229L204.287 37.7517H205.435L206.427 35.88H207.022V37.7517H208V32.1938H206.328ZM207.036 34.9942H206.342C205.761 34.9942 205.463 34.6513 205.463 34.0369C205.463 33.4511 205.775 33.1225 206.356 33.1225H207.022L207.036 34.9942Z" fill="#462A1B"/>
<defs>
<radialGradient id="paint0_radial_3789_8892" cx="0" cy="0" r="1" gradientUnits="userSpaceOnUse" gradientTransform="translate(44.967 15.2059) rotate(49.3785) scale(8.8294 8.81656)">
<stop stop-color="#E3EF71"/>
<stop offset="1" stop-color="#5EA837"/>
</radialGradient>
<linearGradient id="paint1_linear_3789_8892" x1="47.1006" y1="21.7756" x2="45.633" y2="17.0109" gradientUnits="userSpaceOnUse">
<stop stop-color="white"/>
<stop offset="1" stop-color="white" stop-opacity="0"/>
</linearGradient>
<linearGradient id="paint2_linear_3789_8892" x1="47.0422" y1="19.3044" x2="46.4867" y2="17.3754" gradientUnits="userSpaceOnUse">
<stop stop-color="#256215"/>
<stop offset="1" stop-color="#FEFEFE"/>
</linearGradient>
<radialGradient id="paint3_radial_3789_8892" cx="0" cy="0" r="1" gradientUnits="userSpaceOnUse" gradientTransform="translate(48.308 16.5081) rotate(176.592) scale(2.26942 2.29525)">
<stop stop-color="#E3EF71"/>
<stop offset="1" stop-color="#5EA837"/>
</radialGradient>
<radialGradient id="paint4_radial_3789_8892" cx="0" cy="0" r="1" gradientUnits="userSpaceOnUse" gradientTransform="translate(38.4713 25.5532) rotate(9.06519) scale(6.88005 6.95507)">
<stop stop-color="#E3EF71"/>
<stop offset="1" stop-color="#5EA837"/>
</radialGradient>
<linearGradient id="paint5_linear_3789_8892" x1="45.0572" y1="27.6886" x2="40.6816" y2="25.3823" gradientUnits="userSpaceOnUse">
<stop stop-color="white"/>
<stop offset="1" stop-color="white" stop-opacity="0"/>
</linearGradient>
<linearGradient id="paint6_linear_3789_8892" x1="42.7537" y1="26.9955" x2="41.0092" y2="26.0352" gradientUnits="userSpaceOnUse">
<stop stop-color="#256215"/>
<stop offset="1" stop-color="#FEFEFE"/>
</linearGradient>
<radialGradient id="paint7_radial_3789_8892" cx="0" cy="0" r="1" gradientUnits="userSpaceOnUse" gradientTransform="translate(41.6599 24.1455) rotate(131.303) scale(8.71444 8.70221)">
<stop stop-color="#E3EF71"/>
<stop offset="1" stop-color="#5EA837"/>
</radialGradient>
<radialGradient id="paint8_radial_3789_8892" cx="0" cy="0" r="1" gradientUnits="userSpaceOnUse" gradientTransform="translate(51.3383 25.5182) rotate(97.3322) scale(6.94876 6.87254)">
<stop stop-color="#E3EF71"/>
<stop offset="1" stop-color="#5EA837"/>
</radialGradient>
<linearGradient id="paint9_linear_3789_8892" x1="49.437" y1="32.3138" x2="51.6807" y2="27.869" gradientUnits="userSpaceOnUse">
<stop stop-color="white"/>
<stop offset="1" stop-color="white" stop-opacity="0"/>
</linearGradient>
<linearGradient id="paint10_linear_3789_8892" x1="50.0347" y1="29.9536" x2="50.9705" y2="28.1814" gradientUnits="userSpaceOnUse">
<stop stop-color="#256215"/>
<stop offset="1" stop-color="#FEFEFE"/>
</linearGradient>
<radialGradient id="paint11_radial_3789_8892" cx="0" cy="0" r="1" gradientUnits="userSpaceOnUse" gradientTransform="translate(52.8456 28.7931) rotate(-139.588) scale(8.70016 8.71652)">
<stop stop-color="#E3EF71"/>
<stop offset="1" stop-color="#5EA837"/>
</radialGradient>
</defs>
</svg>
