<svg width="120" height="32" viewBox="0 0 120 32" fill="none" xmlns="http://www.w3.org/2000/svg">
<path d="M52.0659 9.43963C52.0659 9.36908 52.0483 9.31617 52.0483 9.26327C51.7308 9.21036 42.3661 9.21036 42.1544 9.2809V13.1785H42.5071C44.0415 13.1785 45.5582 13.1785 47.0925 13.1785C47.1983 13.1785 47.3041 13.1961 47.4452 13.1961C47.3923 13.3372 47.3394 13.443 47.3041 13.5488C46.7751 14.6775 45.9109 15.4712 44.7293 15.8768C42.9657 16.4764 41.2021 16.4235 39.4914 15.7181C37.8512 15.0479 36.8107 13.8134 36.3345 12.1203C36.0523 11.1327 36.0347 10.1098 36.2463 9.12218C36.7049 6.93531 37.9747 5.43624 40.1086 4.7308C41.3079 4.3428 42.5424 4.36044 43.7593 4.67789C44.9938 5.01298 46.0344 5.63024 46.7751 6.6884C46.7927 6.70604 46.8103 6.72367 46.8456 6.74131C48.1154 6.01823 49.3676 5.29515 50.655 4.55444C50.5668 4.43098 50.5139 4.32517 50.4434 4.21935C49.7379 3.19646 48.8561 2.34993 47.798 1.69739C45.5935 0.304145 43.1773 -0.2073 40.5848 0.127785C38.151 0.445234 36.0523 1.46812 34.3769 3.28464C32.049 5.78896 31.1848 8.76945 31.7315 12.1379C32.2782 15.4535 34.0947 17.9226 37.0752 19.4569C39.8265 20.8678 42.7188 21.0794 45.664 20.18C47.9038 19.5098 49.6321 18.1518 50.7961 16.1061C51.6426 14.6246 52.013 13.0021 52.0659 11.2914C52.0835 10.6565 52.0659 10.0393 52.0659 9.43963ZM13.9014 17.7815C13.4429 16.9702 12.9667 16.1766 12.5082 15.3653C12.0497 14.5717 11.5735 13.7781 11.115 12.9668C11.2384 12.8963 11.3266 12.8434 11.4148 12.7905C13.6898 11.4854 15.1536 8.91054 14.6774 6.0535C14.166 3.03773 11.6088 0.480506 8.15209 0.409962C5.52432 0.357053 2.87891 0.392326 0.251137 0.392326C0.180593 0.392326 0.110049 0.409962 0.0395048 0.409962C-0.0310395 0.815591 0.00423269 20.0213 0.0571409 20.1976C0.427498 20.2682 4.30743 20.2329 4.5367 20.1623V13.7428C4.66015 13.7428 4.74833 13.7252 4.83651 13.7252C5.38323 13.7252 5.92995 13.7252 6.45903 13.7252C6.63539 13.7252 6.74121 13.7781 6.82939 13.9368C7.11157 14.4306 7.39374 14.9244 7.67592 15.4183C8.55772 16.9526 9.42189 18.4693 10.3037 20.0036C10.3919 20.1447 10.4624 20.2505 10.6564 20.2505C12.1202 20.2505 13.6016 20.2505 15.0654 20.2505C15.1183 20.2505 15.1889 20.2329 15.2771 20.2153C14.8362 19.3864 14.3776 18.5927 13.9014 17.7815ZM9.7217 8.87527C9.26316 9.45726 8.68118 9.77471 7.92283 9.77471C6.89993 9.77471 5.85941 9.77471 4.83651 9.77471C4.76597 9.77471 4.69542 9.77471 4.57197 9.75707V4.66025C4.67779 4.66025 4.78361 4.64262 4.87179 4.64262C5.87704 4.64262 6.89993 4.64262 7.90519 4.64262C8.68117 4.64262 9.29844 4.9777 9.75697 5.59496C10.4448 6.54731 10.4271 7.95819 9.7217 8.87527ZM113.263 0.409962H107.478C105.239 7.00585 102.999 13.6017 100.759 20.1976C101.041 20.2682 105.468 20.2682 105.697 20.1976C106.015 19.1747 106.35 18.1518 106.667 17.1466H114.057C114.092 17.2524 114.127 17.3406 114.145 17.4288C114.409 18.2753 114.674 19.1042 114.938 19.9507C115.027 20.2505 115.044 20.2505 115.344 20.2505C116.79 20.2505 118.236 20.2505 119.665 20.2505C119.753 20.2505 119.841 20.2329 119.965 20.2329C117.743 13.6017 115.503 7.00585 113.263 0.409962ZM108.113 12.8787C108.096 12.861 108.096 12.861 108.078 12.8434C108.078 12.8434 108.078 12.8257 108.078 12.8081C108.096 12.7199 108.113 12.6494 108.131 12.5612C108.872 10.2685 109.595 7.9582 110.335 5.66551C110.371 5.66551 110.388 5.66551 110.424 5.66551C111.182 8.06401 111.94 10.4449 112.716 12.861H108.113V12.8787ZM71.5361 20.2505C69.2787 13.6194 67.0389 7.00585 64.7991 0.409962H59.0145C58.9792 0.515778 58.9263 0.639231 58.891 0.745047C57.3567 5.25988 55.8224 9.77471 54.288 14.2895C53.6531 16.1766 53.0182 18.046 52.3657 19.9331C52.3304 20.0389 52.3128 20.1447 52.2775 20.2505C52.7361 20.3211 57.3743 20.2858 57.586 20.2329C57.1274 19.2453 56.8629 18.2224 56.8982 17.0937C58.6089 17.8344 60.3548 18.1871 62.1361 18.434C63.935 18.6809 65.7338 18.6633 67.5503 18.4517C67.5856 19.1042 67.4445 19.6862 67.1976 20.2682H71.5361V20.2505ZM64.8697 16.688C63.4941 16.3001 62.0832 16.1237 60.6546 16.1942C60.0374 16.2295 59.4201 16.3001 58.8381 16.6528C58.8029 16.547 58.7676 16.4588 58.75 16.353C58.556 15.2772 58.5912 14.1837 58.8205 13.1079C59.3496 10.586 60.7605 8.68127 62.9473 7.34093C63.0708 7.27039 63.1942 7.19985 63.3177 7.14694C63.353 7.1293 63.3882 7.1293 63.4588 7.09403C63.4588 7.19985 63.4764 7.30566 63.4764 7.39384C63.4941 8.73418 63.6351 10.0745 63.8468 11.3972C64.076 12.8434 64.5346 14.2366 65.0813 15.5946C65.2048 15.9297 65.3458 16.2471 65.4869 16.5822C65.5222 16.6528 65.5398 16.741 65.5927 16.8644C65.3282 16.8115 65.0989 16.7586 64.8697 16.688ZM22.0317 15.9121V12.3496H29.1037V10.2156C29.1037 9.86289 29.1037 9.51017 29.1037 9.13981C29.1037 8.78709 29.1214 8.43437 29.0861 8.06401H28.6805C26.5818 8.06401 24.4831 8.06401 22.3844 8.06401C22.2609 8.06401 22.1551 8.04638 22.0317 8.04638C21.9611 7.60547 21.9964 4.96007 22.0669 4.74843H29.7915V0.445233C29.4917 0.392325 17.7108 0.392325 17.5168 0.445233C17.4639 0.850863 17.4816 20.0213 17.5345 20.2329C17.5698 20.2329 17.605 20.2505 17.6403 20.2505C21.6613 20.2505 25.7 20.2505 29.721 20.2505C29.7739 20.2505 29.8268 20.2329 29.8797 20.2329C29.8797 20.2329 29.8974 20.2329 29.8974 20.2153C29.8974 20.2153 29.915 20.1976 29.915 20.18V15.8944H22.0317V15.9121ZM101.835 0.427597C101.8 0.427597 101.764 0.409962 101.729 0.409962C96.9144 0.409962 92.0997 0.409962 87.2851 0.409962C87.2498 0.409962 87.2322 0.409961 87.1969 0.427597L87.1616 0.462869C87.1087 0.903771 87.1264 4.55444 87.1969 4.76607H92.2408V20.1976C92.5407 20.2858 96.544 20.2682 96.7733 20.18V9.17509C96.7733 8.43437 96.7733 7.69366 96.7733 6.95294C96.7733 6.22986 96.7557 5.50678 96.7909 4.74843H101.87C101.923 4.27226 101.888 0.621594 101.835 0.427597ZM70.3898 0.427597C70.3898 1.87375 70.3898 3.30228 70.3898 4.76607C71.2716 4.76607 72.1181 4.76607 72.947 4.76607C73.7935 4.76607 74.6224 4.76607 75.4866 4.76607V16.3882C75.4866 17.0231 75.4866 17.658 75.4866 18.2929C75.4866 18.9278 75.4866 19.5804 75.4866 20.2329H80.0014V9.17509C80.0014 8.43437 80.0014 7.69366 80.0014 6.95294C80.0014 6.22986 80.0014 5.50678 80.0014 4.7308H85.1159V0.392326H70.3898V0.427597ZM29.9855 27.7988C29.9855 27.6577 29.9855 27.5342 29.9855 27.3931H0.0571409V28.2397C0.480406 28.2926 29.7739 28.2749 29.9855 28.222C29.9855 28.0809 29.9855 27.9399 29.9855 27.7988ZM120 27.7988C120 27.6577 120 27.5342 120 27.3931H93.5106V28.2397C93.9163 28.2926 119.788 28.2749 120 28.222C120 28.0809 120 27.9399 120 27.7988ZM58.2385 24.5714H57.4272C57.4272 24.7125 57.4096 24.8183 57.4096 24.9417C57.4096 26.335 57.4096 27.7106 57.4096 29.1038C57.4096 29.192 57.4449 29.2978 57.3567 29.4036C57.3038 29.3155 57.2685 29.2449 57.2156 29.1744C56.1751 27.7282 55.1346 26.2997 54.0764 24.8535C54.0059 24.7477 53.8824 24.6595 53.7766 24.6243C53.4591 24.5008 53.1241 24.5714 52.789 24.5714V31.0967H53.6531V25.753C53.7766 25.9293 53.8471 26.0352 53.9353 26.141C54.7818 27.305 55.6284 28.4513 56.4749 29.6153C56.81 30.0562 57.1274 30.5147 57.4625 30.9556C57.5154 31.0438 57.5683 31.132 57.6918 31.132C57.8858 31.132 58.0621 31.132 58.2561 31.132C58.3267 30.7616 58.3091 24.783 58.2385 24.5714ZM45.3995 24.4832C43.5477 24.4832 42.0662 25.9822 42.0662 27.834C42.0662 29.6858 43.5653 31.2025 45.4171 31.1849C47.2512 31.1849 48.7503 29.6858 48.7503 27.834C48.7503 25.9822 47.2512 24.4655 45.3995 24.4832ZM45.3995 30.3031C43.8828 30.2854 42.9304 28.998 42.9304 27.834C42.9304 26.7053 43.8298 25.3826 45.3995 25.365C46.7398 25.3474 47.8685 26.4937 47.8685 27.834C47.8685 29.192 46.7574 30.3031 45.3995 30.3031ZM75.4689 24.8359C75.4689 24.7477 75.4513 24.6772 75.4513 24.589H74.5871V24.9241C74.5871 26.141 74.5871 27.3579 74.5871 28.5748C74.5871 29.2802 74.2344 29.8093 73.5995 30.1267C72.9823 30.4442 72.365 30.3736 71.8006 29.968C71.3068 29.6153 71.0952 29.1038 71.0952 28.5042C71.0952 27.305 71.0952 26.1057 71.0952 24.9064V24.589H70.231C70.231 24.6419 70.2134 24.6772 70.2134 24.7125C70.2134 26.0352 70.1958 27.3755 70.2134 28.6982C70.2487 30.0209 71.395 31.1496 72.7177 31.1849C74.2521 31.2202 75.4513 30.0738 75.4689 28.5395C75.4689 27.305 75.4689 26.0704 75.4689 24.8359ZM37.569 29.8975C37.4985 29.9327 37.4456 29.9856 37.375 30.0033C36.4227 30.4618 35.5056 30.4089 34.6944 29.7387C33.8831 29.0862 33.5833 28.2044 33.8478 27.1815C34.2535 25.6295 36.07 24.8359 37.5338 25.753C37.9747 26.0352 38.2921 25.9646 38.6272 25.5413C38.0276 24.7654 36.5814 24.1834 35.1882 24.6243C33.8126 25.0652 32.8602 26.3702 32.8602 27.7988C32.8602 29.2449 33.7949 30.55 35.1705 31.0085C36.6343 31.5023 38.0981 30.8322 38.6272 30.1091C38.3274 29.7035 37.9923 29.6329 37.569 29.8975ZM65.3635 27.5342C65.1695 27.446 64.9578 27.3579 64.7462 27.2697C64.3935 27.1286 64.0408 27.0051 63.7057 26.8464C63.4235 26.723 63.2648 26.4761 63.2648 26.1586C63.2824 25.8412 63.4588 25.6472 63.7233 25.5061C64.1466 25.2944 64.5522 25.3297 64.9402 25.5766C65.3811 25.8588 65.7162 25.7883 66.0513 25.3826C65.7867 25.0652 65.4693 24.8183 65.0813 24.6419C64.3053 24.3068 63.5999 24.4303 62.9473 24.9417C62.1537 25.559 62.1537 26.8817 63.0355 27.4637C63.1942 27.5695 63.3706 27.6753 63.547 27.7459C63.8997 27.9046 64.27 28.028 64.6404 28.1868C64.8168 28.2573 64.9931 28.3455 65.1518 28.4689C65.4693 28.6982 65.5751 29.0333 65.4517 29.4213C65.3811 29.6858 65.2224 29.8622 65.0108 30.0209C64.4817 30.3736 63.7586 30.4265 63.2119 29.9504C63.1061 29.8622 62.9826 29.7916 62.8592 29.7387C62.5946 29.6506 62.3654 29.774 62.1361 29.9327C62.1714 29.9856 62.189 30.0385 62.2066 30.0738C63.0532 31.5729 65.0813 31.4142 65.9455 30.3736C66.6333 29.58 66.6156 28.1339 65.3635 27.5342ZM85.6097 24.6066C85.6097 24.8006 85.6097 25.0123 85.6097 25.2063C85.6097 25.2768 85.6273 25.3297 85.6273 25.4355H87.6555V31.0967H88.5549V25.4355H90.5831V24.6066C90.3009 24.5361 85.8566 24.5361 85.6097 24.6066ZM83.0701 30.2325C82.3646 30.2325 81.6416 30.2325 80.9361 30.2325C80.8303 30.2325 80.7245 30.2149 80.601 30.2149C80.601 28.3278 80.601 26.4584 80.601 24.589H79.7545C79.7016 24.8535 79.7016 30.8851 79.7545 31.1143H83.4228V30.2325H83.0701Z" fill="#262522"/>
<path d="M50.6549 4.5368C49.3675 5.27752 48.0977 6.00059 46.8456 6.72367C46.8103 6.70604 46.7927 6.6884 46.775 6.67076C46.0343 5.6126 44.9761 4.9777 43.7592 4.66025C42.5424 4.32517 41.3078 4.30753 40.1086 4.71316C37.9746 5.41861 36.7048 6.91767 36.2463 9.10454C36.0347 10.1098 36.0699 11.1151 36.3345 12.1027C36.8106 13.8134 37.8688 15.0303 39.4913 15.7004C41.202 16.4059 42.9656 16.4764 44.7292 15.8592C45.9108 15.4535 46.775 14.6599 47.3041 13.5312C47.357 13.4254 47.3923 13.3196 47.4452 13.1785C47.3041 13.1785 47.1983 13.1608 47.0925 13.1608C45.5581 13.1608 44.0414 13.1608 42.5071 13.1608C42.4013 13.1608 42.2955 13.1608 42.1544 13.1608C42.1544 11.8381 42.1544 10.5507 42.1544 9.26327C42.366 9.21036 51.7307 9.19272 52.0482 9.24563C52.0482 9.29854 52.0658 9.36908 52.0658 9.42199C52.0658 10.0393 52.0835 10.6389 52.0658 11.2561C52.0129 12.9668 51.6426 14.5717 50.796 16.0708C49.6321 18.1166 47.9037 19.4745 45.6639 20.1447C42.7187 21.0265 39.8088 20.8325 37.0752 19.4216C34.0947 17.8873 32.2782 15.4183 31.7315 12.1027C31.1847 8.75182 32.0489 5.75369 34.3769 3.24937C36.0523 1.45049 38.151 0.409963 40.5848 0.0925143C43.1596 -0.224935 45.5758 0.268875 47.7979 1.66212C48.8561 2.33229 49.7379 3.17883 50.4433 4.18408C50.4962 4.30753 50.5668 4.41335 50.6549 4.5368Z" fill="#262522"/>
<path d="M13.9014 17.7815C13.4429 16.9702 12.9667 16.1766 12.5082 15.3653C12.0497 14.5717 11.5735 13.7781 11.115 12.9668C11.2384 12.8963 11.3266 12.8434 11.4148 12.7905C13.6898 11.4854 15.1536 8.91054 14.6774 6.0535C14.166 3.03773 11.6088 0.480506 8.15209 0.409962C5.52432 0.357053 2.87891 0.392326 0.251137 0.392326C0.180593 0.392326 0.110049 0.409962 0.0395048 0.409962C-0.0310395 0.815591 0.00423269 20.0213 0.0571409 20.1976C0.427498 20.2682 4.30743 20.2329 4.5367 20.1623V13.7428C4.66015 13.7428 4.74833 13.7252 4.83651 13.7252C5.38323 13.7252 5.92995 13.7252 6.45903 13.7252C6.63539 13.7252 6.74121 13.7781 6.82939 13.9368C7.11157 14.4306 7.39374 14.9244 7.67592 15.4183C8.55772 16.9526 9.42189 18.4693 10.3037 20.0036C10.3919 20.1447 10.4624 20.2505 10.6564 20.2505C12.1202 20.2505 13.6016 20.2505 15.0654 20.2505C15.1183 20.2505 15.1889 20.2329 15.2771 20.2153C14.8362 19.3864 14.3776 18.5927 13.9014 17.7815ZM9.7217 8.87527C9.26316 9.45726 8.68118 9.77471 7.92283 9.77471C6.89993 9.77471 5.85941 9.77471 4.83651 9.77471C4.76597 9.77471 4.69542 9.77471 4.57197 9.75707V4.66025C4.67779 4.66025 4.78361 4.64262 4.87179 4.64262C5.87704 4.64262 6.89993 4.64262 7.90519 4.64262C8.68117 4.64262 9.29844 4.9777 9.75697 5.59496C10.4448 6.54731 10.4271 7.95819 9.7217 8.87527Z" fill="#262522"/>
<path d="M113.263 0.409962H107.478C105.239 7.00585 102.999 13.6017 100.759 20.1976C101.041 20.2682 105.468 20.2682 105.697 20.1976C106.015 19.1747 106.35 18.1518 106.667 17.1466H114.057C114.092 17.2524 114.127 17.3406 114.145 17.4288C114.409 18.2753 114.674 19.1042 114.938 19.9507C115.027 20.2505 115.044 20.2505 115.344 20.2505C116.79 20.2505 118.236 20.2505 119.665 20.2505C119.753 20.2505 119.841 20.2329 119.965 20.2329C117.743 13.6017 115.503 7.00585 113.263 0.409962ZM108.113 12.8787C108.096 12.861 108.096 12.861 108.078 12.8434C108.078 12.8434 108.078 12.8257 108.078 12.8081C108.096 12.7199 108.113 12.6494 108.131 12.5612C108.872 10.2685 109.595 7.9582 110.335 5.66551C110.371 5.66551 110.388 5.66551 110.424 5.66551C111.182 8.06401 111.94 10.4449 112.716 12.861H108.113V12.8787Z" fill="#262522"/>
<path d="M71.5361 20.2505C69.2787 13.6194 67.0389 7.00585 64.7991 0.409962H59.0145C58.9792 0.515778 58.9263 0.639231 58.891 0.745047C57.3567 5.25988 55.8224 9.77471 54.288 14.2895C53.6531 16.1766 53.0182 18.046 52.3657 19.9331C52.3304 20.0389 52.3128 20.1447 52.2775 20.2505C52.7361 20.3211 57.3743 20.2858 57.586 20.2329C57.1274 19.2453 56.8629 18.2224 56.8982 17.0937C58.6089 17.8344 60.3548 18.1871 62.1361 18.434C63.935 18.6809 65.7338 18.6633 67.5503 18.4517C67.5856 19.1042 67.4445 19.6862 67.1976 20.2682H71.5361V20.2505ZM64.8697 16.688C63.4941 16.3001 62.0832 16.1237 60.6546 16.1942C60.0374 16.2295 59.4201 16.3001 58.8381 16.6528C58.8029 16.547 58.7676 16.4588 58.75 16.353C58.556 15.2772 58.5912 14.1837 58.8205 13.1079C59.3496 10.586 60.7605 8.68127 62.9473 7.34093C63.0708 7.27039 63.1942 7.19985 63.3177 7.14694C63.353 7.1293 63.3882 7.1293 63.4588 7.09403C63.4588 7.19985 63.4764 7.30566 63.4764 7.39384C63.4941 8.73418 63.6351 10.0745 63.8468 11.3972C64.076 12.8434 64.5346 14.2366 65.0813 15.5946C65.2048 15.9297 65.3458 16.2471 65.4869 16.5822C65.5222 16.6528 65.5398 16.741 65.5927 16.8644C65.3282 16.8115 65.0989 16.7586 64.8697 16.688Z" fill="#262522"/>
<path d="M22.0317 12.3496C22.0317 13.5665 22.0317 14.7128 22.0317 15.9121C24.6771 15.9121 27.3047 15.9121 29.9502 15.9121C29.9502 17.3582 29.9502 18.7867 29.9502 20.1976C29.9325 20.2153 29.9325 20.2153 29.9325 20.2329L29.9149 20.2505C29.862 20.2505 29.8091 20.2682 29.7562 20.2682C25.7351 20.2682 21.6965 20.2682 17.6755 20.2682C17.6402 20.2682 17.6049 20.2505 17.5696 20.2505C17.5167 20.0389 17.4815 0.868503 17.552 0.462874C17.746 0.409966 29.5269 0.392329 29.8267 0.462874C29.8267 1.89139 29.8267 3.31992 29.8267 4.76607C27.2342 4.76607 24.6593 4.76607 22.1021 4.76607C22.0316 4.97771 21.9963 7.62311 22.0668 8.06402C22.1727 8.06402 22.2961 8.08165 22.4196 8.08165C24.5183 8.08165 26.6169 8.08165 28.7156 8.08165C28.8391 8.08165 28.9625 8.08165 29.1213 8.08165C29.1565 8.45201 29.1389 8.80473 29.1389 9.15745C29.1389 9.51017 29.1389 9.8629 29.1389 10.2333C29.1389 10.586 29.1389 10.9211 29.1389 11.2738C29.1389 11.6265 29.1389 11.9792 29.1389 12.3672C26.7404 12.3496 24.3949 12.3496 22.0317 12.3496Z" fill="#262522"/>
<path d="M101.853 4.74844C100.159 4.74844 98.4841 4.74844 96.7734 4.74844C96.7557 5.50679 96.7734 6.22986 96.7557 6.95294C96.7557 7.69366 96.7557 8.43437 96.7557 9.17509C96.7557 9.89817 96.7557 10.6389 96.7557 11.362C96.7557 12.1027 96.7557 12.8434 96.7557 13.5841C96.7557 14.3072 96.7557 15.0479 96.7557 15.771C96.7557 16.5117 96.7557 17.2524 96.7557 17.9931C96.7557 18.7162 96.7557 19.4569 96.7557 20.18C96.5265 20.2682 92.5407 20.2682 92.2233 20.1976C92.2233 15.0655 92.2233 9.93344 92.2233 4.76607C90.5126 4.76607 88.8371 4.76607 87.1793 4.76607C87.1088 4.55444 87.0735 0.903773 87.1441 0.462871L87.1793 0.4276C87.2146 0.4276 87.2322 0.409964 87.2675 0.409964C92.0822 0.409964 96.8968 0.409964 101.711 0.409964C101.747 0.409964 101.782 0.4276 101.817 0.4276C101.888 0.621596 101.923 4.27226 101.853 4.74844Z" fill="#262522"/>
<path d="M80.0191 20.2329C78.5024 20.2329 77.0209 20.2329 75.5042 20.2329C75.4866 19.5804 75.5042 18.9278 75.5042 18.2929C75.5042 17.658 75.5042 17.0231 75.5042 16.3882C75.5042 15.7357 75.5042 15.1008 75.5042 14.4483C75.5042 13.7957 75.5042 13.1608 75.5042 12.5083C75.5042 11.8734 75.5042 11.2385 75.5042 10.6036C75.5042 9.95108 75.5042 9.31618 75.5042 8.66364C75.5042 8.02875 75.5042 7.39385 75.5042 6.75895C75.5042 6.10641 75.5042 5.47152 75.5042 4.78371C74.6401 4.76607 73.8112 4.78371 72.9647 4.78371C72.1181 4.78371 71.2892 4.78371 70.4074 4.78371C70.4074 3.31992 70.4074 1.8914 70.4074 0.445239C75.3279 0.445239 80.2131 0.445239 85.1159 0.445239C85.1159 1.8914 85.1159 3.31992 85.1159 4.78371C83.4228 4.78371 81.7474 4.78371 80.0367 4.78371C80.0191 5.54206 80.0367 6.26514 80.0367 7.00586C80.0367 7.74657 80.0367 8.48728 80.0367 9.228C80.0367 9.95108 80.0367 10.6918 80.0367 11.4149C80.0367 12.1556 80.0367 12.8963 80.0367 13.637C80.0367 14.3601 80.0367 15.1008 80.0367 15.8239C80.0367 16.5646 80.0367 17.3053 80.0367 18.046C80.0191 18.7515 80.0191 19.4746 80.0191 20.2329Z" fill="#262522"/>
<path d="M0.0571409 28.2397C0.0571409 27.9751 0.0571409 27.6929 0.0571409 27.3931C10.0215 27.3931 19.9859 27.3931 29.9679 27.3931C29.9679 27.5166 29.9679 27.6577 29.9679 27.7988C29.9679 27.9399 29.9679 28.081 29.9679 28.222C29.7739 28.2926 0.480406 28.3102 0.0571409 28.2397Z" fill="#262522"/>
<path d="M93.5106 28.2397C93.5106 27.9751 93.5106 27.6929 93.5106 27.3931C102.329 27.3931 111.147 27.3931 120 27.3931C120 27.5342 120 27.6577 120 27.7988C120 27.9399 120 28.081 120 28.2044C119.788 28.275 93.8986 28.3102 93.5106 28.2397Z" fill="#262522"/>
<path d="M58.256 31.1143C58.062 31.1143 57.868 31.1143 57.6917 31.1143C57.5682 31.1143 57.5153 31.0262 57.4624 30.938C57.1273 30.4971 56.8099 30.0386 56.4748 29.5976C55.6283 28.4337 54.7817 27.2873 53.9352 26.1233C53.847 26.0175 53.7765 25.8941 53.653 25.7354C53.653 27.5519 53.653 29.3155 53.653 31.0791C53.3532 31.0791 53.071 31.0791 52.7889 31.0791C52.7889 28.9098 52.7889 26.7406 52.7889 24.5537C53.124 24.5537 53.459 24.5008 53.7765 24.6066C53.8999 24.6419 54.0058 24.7477 54.0763 24.8359C55.1345 26.2644 56.175 27.7106 57.2155 29.1567C57.2684 29.2273 57.3037 29.2978 57.3566 29.386C57.4448 29.2802 57.4095 29.192 57.4095 29.0862C57.4095 27.693 57.4095 26.3173 57.4095 24.9241C57.4095 24.8006 57.4272 24.6948 57.4272 24.5537C57.727 24.5537 57.9915 24.5537 58.256 24.5537C58.309 24.783 58.3266 30.7616 58.256 31.1143Z" fill="#262522"/>
<path d="M45.3995 24.4832C43.5477 24.4832 42.0662 25.9822 42.0662 27.834C42.0662 29.6858 43.5653 31.2025 45.4171 31.1849C47.2512 31.1849 48.7503 29.6858 48.7503 27.834C48.7503 25.9822 47.2512 24.4655 45.3995 24.4832ZM45.3995 30.3031C43.8828 30.2854 42.9304 28.998 42.9304 27.834C42.9304 26.7053 43.8298 25.3826 45.3995 25.365C46.7398 25.3474 47.8685 26.4937 47.8685 27.834C47.8685 29.192 46.7574 30.3031 45.3995 30.3031Z" fill="#262522"/>
<path d="M70.2134 24.5714C70.5132 24.5714 70.7777 24.5714 71.0776 24.5714C71.0776 24.6948 71.0776 24.783 71.0776 24.8888C71.0776 26.0881 71.0776 27.2873 71.0776 28.4866C71.0776 29.0862 71.3068 29.58 71.783 29.9504C72.3474 30.356 72.9646 30.4265 73.5819 30.1267C74.2168 29.8093 74.5519 29.2802 74.5695 28.5748C74.5871 27.3579 74.5695 26.141 74.5695 24.9241C74.5695 24.8183 74.5695 24.7125 74.5695 24.589C74.8693 24.589 75.1338 24.589 75.4337 24.589C75.4337 24.6772 75.4513 24.7477 75.4513 24.8359C75.4513 26.0704 75.4513 27.305 75.4513 28.5395C75.4337 30.0738 74.2344 31.2378 72.7001 31.1849C71.3774 31.1496 70.2134 30.0209 70.1958 28.6982C70.1605 27.3755 70.1958 26.0352 70.1958 24.7125C70.1958 24.6772 70.2134 24.6419 70.2134 24.5714Z" fill="#262522"/>
<path d="M38.6272 30.1267C38.0982 30.8498 36.6344 31.52 35.1706 31.0262C33.795 30.5676 32.8603 29.2802 32.8603 27.8164C32.8603 26.3702 33.8302 25.0828 35.1882 24.6419C36.5815 24.201 38.0276 24.783 38.6272 25.559C38.2922 25.9823 37.9923 26.0352 37.5338 25.7706C36.07 24.8535 34.2535 25.6472 33.8479 27.1991C33.5833 28.222 33.8655 29.1038 34.6944 29.7564C35.5233 30.4265 36.4404 30.4794 37.3751 30.0209C37.4456 29.9856 37.4985 29.9504 37.5691 29.9151C37.9923 29.6329 38.3274 29.7035 38.6272 30.1267Z" fill="#262522"/>
<path d="M62.1536 29.9327C62.4005 29.774 62.6122 29.6506 62.8767 29.7387C63.0001 29.7917 63.1236 29.8622 63.2294 29.9504C63.7761 30.4265 64.4992 30.3736 65.0283 30.0209C65.2399 29.8798 65.3987 29.6858 65.4692 29.4213C65.575 29.0333 65.4868 28.7158 65.1694 28.4689C65.0107 28.3455 64.8343 28.2749 64.6579 28.1868C64.3052 28.028 63.9349 27.9046 63.5645 27.7459C63.3881 27.6753 63.2118 27.5695 63.0531 27.4637C62.1713 26.8817 62.1713 25.559 62.9649 24.9417C63.6174 24.4479 64.3229 24.3068 65.0988 24.6419C65.4868 24.8183 65.8043 25.0652 66.0688 25.3826C65.7337 25.7883 65.3987 25.8412 64.9578 25.5766C64.5521 25.3297 64.1641 25.2945 63.7409 25.5061C63.4763 25.6472 63.2823 25.8412 63.2823 26.1586C63.2647 26.4761 63.4234 26.723 63.7232 26.8464C64.0583 27.0051 64.411 27.1286 64.7638 27.2697C64.9754 27.3579 65.187 27.4284 65.381 27.5342C66.6332 28.1339 66.6508 29.58 65.9806 30.3913C65.1165 31.4318 63.0707 31.5905 62.2418 30.0915C62.1889 30.0386 62.1713 30.0033 62.1536 29.9327Z" fill="#262522"/>
<path d="M85.6273 25.4355C85.6097 25.3297 85.6097 25.2768 85.6097 25.2063C85.6097 24.9946 85.6097 24.8006 85.6097 24.6066C85.8566 24.5361 90.3008 24.5361 90.5829 24.589C90.5829 24.8535 90.5829 25.1181 90.5829 25.4179C89.9128 25.4179 89.2602 25.4179 88.5548 25.4179C88.5548 27.3226 88.5548 29.192 88.5548 31.0791C88.2374 31.0791 87.9728 31.0791 87.6554 31.0791C87.6554 29.192 87.6554 27.3226 87.6554 25.4179C86.9676 25.4355 86.2975 25.4355 85.6273 25.4355Z" fill="#262522"/>
<path d="M79.7545 24.5714C80.019 24.5714 80.2835 24.5714 80.5833 24.5714C80.5833 26.4408 80.5833 28.3102 80.5833 30.1973C80.7068 30.2149 80.8126 30.2149 80.9184 30.2149C81.6239 30.2149 82.347 30.2149 83.0524 30.2149C83.1582 30.2149 83.2817 30.2149 83.4051 30.2149C83.4051 30.5147 83.4051 30.7969 83.4051 31.0967C82.1706 31.0967 80.9537 31.0967 79.7368 31.0967C79.7015 30.8674 79.6839 24.8359 79.7545 24.5714Z" fill="#262522"/>
</svg>
