<svg width="20" height="32" viewBox="0 0 20 32" fill="none" xmlns="http://www.w3.org/2000/svg">
<path d="M19.5361 20.2505C17.2787 13.6193 15.0389 7.0058 12.7991 0.409912H7.01448C6.97921 0.515728 6.9263 0.639181 6.89103 0.744998C5.35669 5.25983 3.82236 9.77466 2.28802 14.2895C1.65312 16.1766 1.01822 18.046 0.365688 19.933C0.330416 20.0388 0.31278 20.1447 0.277508 20.2505C0.736045 20.321 5.37433 20.2858 5.58596 20.2328C5.12742 19.2452 4.86288 18.2223 4.89816 17.0936C6.60885 17.8343 8.35483 18.1871 10.1361 18.434C11.9349 18.6809 13.7338 18.6632 15.5503 18.4516C15.5856 19.1041 15.4445 19.6861 15.1976 20.2681H19.5361V20.2505ZM12.8697 16.688C11.494 16.3 10.0832 16.1236 8.65464 16.1942C8.03737 16.2295 7.42011 16.3 6.83812 16.6527C6.80285 16.5469 6.76758 16.4587 6.74994 16.3529C6.55595 15.2771 6.59122 14.1837 6.82049 13.1079C7.34957 10.5859 8.76045 8.68122 10.9473 7.34088C11.0708 7.27034 11.1942 7.1998 11.3177 7.14689C11.353 7.12925 11.3882 7.12925 11.4588 7.09398C11.4588 7.1998 11.4764 7.30561 11.4764 7.39379C11.494 8.73413 11.6351 10.0745 11.8468 11.3972C12.076 12.8433 12.5346 14.2366 13.0813 15.5946C13.2047 15.9296 13.3458 16.2471 13.4869 16.5822C13.5222 16.6527 13.5398 16.7409 13.5927 16.8644C13.3282 16.8114 13.0989 16.7585 12.8697 16.688ZM19.9855 27.7987C19.9855 27.6576 19.9855 27.5342 19.9855 27.3931H0.0571289V28.2396C0.480394 28.2925 19.7739 28.2749 19.9855 28.222C19.9855 28.0809 19.9855 27.9398 19.9855 27.7987Z" fill="#262522"/>
<path d="M19.5361 20.2505C17.2787 13.6193 15.0389 7.0058 12.7991 0.409912H7.01448C6.97921 0.515728 6.9263 0.639181 6.89103 0.744998C5.35669 5.25983 3.82236 9.77466 2.28802 14.2895C1.65312 16.1766 1.01822 18.046 0.365688 19.933C0.330416 20.0388 0.31278 20.1447 0.277508 20.2505C0.736045 20.321 5.37433 20.2858 5.58596 20.2328C5.12742 19.2452 4.86288 18.2223 4.89816 17.0936C6.60885 17.8343 8.35483 18.1871 10.1361 18.434C11.9349 18.6809 13.7338 18.6632 15.5503 18.4516C15.5856 19.1041 15.4445 19.6861 15.1976 20.2681H19.5361V20.2505ZM12.8697 16.688C11.494 16.3 10.0832 16.1236 8.65464 16.1942C8.03737 16.2295 7.42011 16.3 6.83812 16.6527C6.80285 16.5469 6.76758 16.4587 6.74994 16.3529C6.55595 15.2771 6.59122 14.1837 6.82049 13.1079C7.34957 10.5859 8.76045 8.68122 10.9473 7.34088C11.0708 7.27034 11.1942 7.1998 11.3177 7.14689C11.353 7.12925 11.3882 7.12925 11.4588 7.09398C11.4588 7.1998 11.4764 7.30561 11.4764 7.39379C11.494 8.73413 11.6351 10.0745 11.8468 11.3972C12.076 12.8433 12.5346 14.2366 13.0813 15.5946C13.2047 15.9296 13.3458 16.2471 13.4869 16.5822C13.5222 16.6527 13.5398 16.7409 13.5927 16.8644C13.3282 16.8114 13.0989 16.7585 12.8697 16.688Z" fill="#262522"/>
<path d="M0.0571289 28.2396C0.0571289 27.9751 0.0571289 27.6929 0.0571289 27.3931C10.0215 27.3931 9.98587 27.3931 19.9679 27.3931C19.9679 27.5166 19.9679 27.6576 19.9679 27.7987C19.9679 27.9398 19.9679 28.0809 19.9679 28.222C19.7739 28.2925 0.480394 28.3102 0.0571289 28.2396Z" fill="#262522"/>
</svg>
