<svg width="32" height="32" viewBox="0 0 32 32" fill="none" xmlns="http://www.w3.org/2000/svg">
<path d="M26.4546 16.3727H25.228V11.8794C25.228 6.79935 21.0813 2.66602 16.0013 2.66602C10.9213 2.66602 6.77462 6.79935 6.77462 11.8794V16.3727H5.54797C3.96131 16.3727 2.66797 17.6527 2.66797 19.2393V22.346C2.66797 23.9327 3.96131 25.2127 5.54797 25.2127H6.77462V25.6793C6.77462 27.6927 8.41464 29.3327 10.428 29.3327H21.5746C23.588 29.3327 25.228 27.6927 25.228 25.6793V25.2127H26.4546C28.0413 25.2127 29.3346 23.9327 29.3346 22.346V19.2393C29.3346 17.6527 28.0413 16.3727 26.4546 16.3727ZM6.77462 23.2127H5.54797C5.05464 23.2127 4.66797 22.826 4.66797 22.346V19.2393C4.66797 18.7593 5.05464 18.3727 5.54797 18.3727H6.77462V23.2127ZM12.5746 9.34602H19.428C19.9746 9.34602 20.428 9.78602 20.428 10.346C20.428 10.786 20.1346 11.146 19.748 11.2793V11.7193C19.748 12.266 19.2946 12.7193 18.748 12.7193C18.188 12.7193 17.748 12.266 17.748 11.7193V11.346H12.5746C12.028 11.346 11.5746 10.8927 11.5746 10.346C11.5746 9.78602 12.028 9.34602 12.5746 9.34602ZM21.108 23.1594C21.108 24.2927 20.188 25.2127 19.0546 25.2127H12.948C11.8146 25.2127 10.8947 24.2927 10.8947 23.1594V19.7993C10.8947 18.666 11.8146 17.7327 12.948 17.7327H19.0546C20.188 17.7327 21.108 18.666 21.108 19.7993V23.1594ZM27.3346 22.346C27.3346 22.826 26.948 23.2127 26.4546 23.2127H25.228V18.3727H26.4546C26.948 18.3727 27.3346 18.7593 27.3346 19.2393V22.346Z" fill="#E71313"/>
</svg>
