<svg width="32" height="32" viewBox="0 0 32 32" fill="none" xmlns="http://www.w3.org/2000/svg">
<g clip-path="url(#clip0_5324_120592)">
<path d="M18.1363 32.0008H13.8687C13.4453 31.9994 13.0397 31.8302 12.7407 31.5304C12.4417 31.2306 12.2737 30.8246 12.2734 30.4012V29.334H19.7404V30.4012C19.7402 30.6116 19.6986 30.8199 19.6179 31.0142C19.5372 31.2085 19.4189 31.385 19.27 31.5335C19.121 31.6821 18.9442 31.7999 18.7496 31.88C18.5551 31.9602 18.3467 32.0013 18.1363 32.0008Z" fill="#E71313"/>
<path d="M16.0012 6.40039C14.2637 6.40104 12.5588 6.87314 11.0684 7.76637C9.57804 8.65961 8.35794 9.94051 7.53819 11.4725C6.71843 13.0046 6.32973 14.7303 6.41352 16.4659C6.49731 18.2014 7.05044 19.8817 8.01398 21.3277L12.2727 27.2005H19.7397L23.994 21.3277C24.9575 19.8817 25.5107 18.2014 25.5945 16.4659C25.6783 14.7303 25.2896 13.0046 24.4698 11.4725C23.65 9.94051 22.43 8.65961 20.9396 7.76637C19.4492 6.87314 17.7443 6.40104 16.0068 6.40039H16.0012ZM11.9965 12.4452C11.1309 13.4243 10.6569 14.6882 10.6653 15.9951C10.6564 16.272 10.5401 16.5346 10.341 16.7273C10.142 16.9201 9.87575 17.0278 9.59867 17.0278C9.32159 17.0278 9.05538 16.9201 8.85632 16.7273C8.65726 16.5346 8.54097 16.272 8.53204 15.9951C8.521 14.1616 9.18745 12.3886 10.4035 11.0163C10.5943 10.8134 10.8569 10.6931 11.1351 10.6812C11.4134 10.6692 11.6853 10.7665 11.8928 10.9523C12.1004 11.1381 12.227 11.3976 12.2458 11.6755C12.2645 11.9534 12.1739 12.2277 11.9932 12.4396L11.9965 12.4452Z" fill="#E71313"/>
<path d="M15.9997 4.26643C15.7168 4.26613 15.4457 4.15357 15.2458 3.95346C15.0459 3.75336 14.9336 3.48209 14.9336 3.19924V1.06598C14.9425 0.789051 15.0588 0.526448 15.2579 0.333708C15.4569 0.140968 15.7231 0.0332031 16.0002 0.0332031C16.2773 0.0332031 16.5435 0.140968 16.7426 0.333708C16.9416 0.526448 17.0579 0.789051 17.0669 1.06598V3.19924C17.0669 3.48228 16.9544 3.75372 16.7543 3.95386C16.5541 4.15399 16.2827 4.26643 15.9997 4.26643Z" fill="#E71313"/>
<path d="M8.00003 6.39965C7.99971 6.61042 7.93699 6.81636 7.81977 6.99153C7.70256 7.16669 7.5361 7.30323 7.34139 7.38391C7.14668 7.4646 6.93243 7.48581 6.72568 7.4449C6.51892 7.40398 6.32891 7.30276 6.17961 7.154L4.57883 5.55434C4.47544 5.45626 4.39273 5.33846 4.3356 5.2079C4.27847 5.07734 4.24807 4.93665 4.24619 4.79415C4.24431 4.65165 4.27099 4.51022 4.32465 4.37819C4.37832 4.24617 4.45789 4.12623 4.55866 4.02546C4.65943 3.92469 4.77937 3.84512 4.91139 3.79145C5.04342 3.73778 5.18485 3.7111 5.32735 3.71298C5.46985 3.71486 5.61054 3.74527 5.7411 3.8024C5.87166 3.85953 5.98946 3.94223 6.08753 4.04563L7.6872 5.64863C7.78611 5.74713 7.86465 5.86416 7.91833 5.99302C7.97201 6.12188 7.99977 6.26006 8.00003 6.39965Z" fill="#E71313"/>
<path d="M4.26763 15.4656C4.26763 15.1826 4.15519 14.9111 3.95506 14.711C3.75492 14.5109 3.48348 14.3984 3.20045 14.3984H1.06718C0.784149 14.3984 0.512706 14.5109 0.31257 14.711C0.112435 14.9111 0 15.1826 0 15.4656C0 15.7487 0.112435 16.0201 0.31257 16.2202C0.512706 16.4204 0.784149 16.5328 1.06718 16.5328H3.20045C3.48348 16.5328 3.75492 16.4204 3.95506 16.2202C4.15519 16.0201 4.26763 15.7487 4.26763 15.4656Z" fill="#E71313"/>
<path d="M24.3149 5.64788L25.9179 4.04488C26.1197 3.85345 26.3883 3.74838 26.6664 3.75205C26.9445 3.75572 27.2102 3.86783 27.4069 4.06452C27.6036 4.26121 27.7157 4.52692 27.7194 4.80506C27.7231 5.08319 27.618 5.35178 27.4266 5.55358L25.8258 7.15325C25.7269 7.25246 25.6095 7.33123 25.4802 7.38506C25.351 7.43889 25.2123 7.46673 25.0723 7.46699C24.9322 7.46724 24.7935 7.43992 24.664 7.38656C24.5346 7.33321 24.4169 7.25486 24.3176 7.15602C24.2184 7.05718 24.1397 6.93976 24.0858 6.81047C24.032 6.68119 24.0042 6.54257 24.0039 6.40252C24.0037 6.26248 24.031 6.12376 24.0843 5.99427C24.1377 5.86479 24.216 5.74708 24.3149 5.64788Z" fill="#E71313"/>
<path d="M32.002 15.4656C32.002 15.3255 31.9744 15.1867 31.9208 15.0572C31.8671 14.9278 31.7885 14.8101 31.6894 14.711C31.5903 14.6119 31.4727 14.5333 31.3432 14.4797C31.2137 14.426 31.075 14.3984 30.9348 14.3984H28.8016C28.5185 14.3984 28.2471 14.5109 28.0469 14.711C27.8468 14.9111 27.7344 15.1826 27.7344 15.4656C27.7344 15.7487 27.8468 16.0201 28.0469 16.2202C28.2471 16.4204 28.5185 16.5328 28.8016 16.5328H30.9348C31.075 16.5328 31.2137 16.5052 31.3432 16.4516C31.4727 16.3979 31.5903 16.3193 31.6894 16.2202C31.7885 16.1211 31.8671 16.0035 31.9208 15.874C31.9744 15.7445 32.002 15.6058 32.002 15.4656Z" fill="#E71313"/>
</g>
<defs>
<clipPath id="clip0_5324_120592">
<rect width="32" height="32" fill="white"/>
</clipPath>
</defs>
</svg>
