<svg width="32" height="32" viewBox="0 0 32 32" fill="none" xmlns="http://www.w3.org/2000/svg">
<path d="M24.8015 9.38724L23.5615 7.49393C23.2015 6.88059 22.5215 6.4939 21.6948 6.46723C20.9482 6.46723 20.2415 6.82724 19.8549 7.38724L19.3615 8.09394L17.0815 3.77395C16.3748 2.57395 14.4948 2.29392 13.4282 3.40058L7.49483 10.0539C5.37483 12.3606 4.21484 15.2806 4.21484 18.2806C4.21484 18.8006 4.29483 19.4273 4.49483 20.3473C4.53483 20.5073 4.57484 20.6806 4.62817 20.8673L4.69482 21.1739C5.92149 25.7206 10.2949 29.0006 15.6415 29.3339H15.7215C21.2015 29.3339 26.0815 25.9206 27.2948 21.2272C27.3615 21.0406 27.4015 20.8539 27.4548 20.6673C27.4815 20.5606 27.5082 20.4539 27.5615 20.2539C27.7215 19.4539 27.7882 18.854 27.7882 18.374V18.2006C27.7882 15.1073 26.2548 11.6139 24.8015 9.38724ZM19.5615 23.8939C19.5349 23.9872 19.5082 24.0806 19.4815 24.1873L19.4548 24.3072C19.1882 25.3072 18.4148 26.1473 17.3348 26.614C16.8282 26.8406 16.2948 26.9606 15.7348 27.0006H15.6815C15.2682 27.0006 14.8015 26.854 14.2548 26.614C13.1882 26.1473 12.4148 25.3073 12.1082 24.1873C12.0815 24.0806 12.0682 23.9739 12.0549 23.9606C12.0015 23.6806 11.9615 23.4806 11.9615 23.3473C11.9615 22.3206 12.3748 21.3206 13.1082 20.5206L15.8015 17.5073L18.4948 20.534C19.2282 21.3206 19.6282 22.3206 19.6282 23.3473C19.6282 23.4806 19.6015 23.6939 19.5615 23.8939Z" fill="#E71313"/>
</svg>
