<svg width="32" height="32" viewBox="0 0 32 32" fill="none" xmlns="http://www.w3.org/2000/svg">
<path d="M13.3337 27.0395C10.6464 26.5073 8.22218 25.0717 6.46367 22.9712C4.70517 20.8707 3.71829 18.2318 3.66699 15.4928C3.73351 12.2876 5.07 9.23995 7.3827 7.01975C9.69541 4.79955 12.7951 3.58851 16.0003 3.65283C19.2056 3.58851 22.3052 4.79955 24.6179 7.01975C26.9307 9.23995 28.2671 12.2876 28.3337 15.4928C28.2854 18.2341 27.2999 20.8761 25.5411 22.9794C23.7824 25.0826 21.3564 26.5201 18.667 27.0528" stroke="#E71313" stroke-width="2" stroke-linecap="round" stroke-linejoin="round"/>
<path d="M13.3203 27.0664L12.0137 23.373" stroke="#E71313" stroke-width="2" stroke-linecap="round" stroke-linejoin="round"/>
<path d="M13.3201 27.0664L9.4668 28.3197" stroke="#E71313" stroke-width="2" stroke-linecap="round" stroke-linejoin="round"/>
<path d="M16.04 10.5195V15.9995" stroke="#E71313" stroke-width="2" stroke-linecap="round" stroke-linejoin="round"/>
<path d="M16.0006 18.7461C15.7236 18.7566 15.4558 18.8483 15.2305 19.0098C15.0052 19.1713 14.8324 19.3955 14.7335 19.6545C14.6347 19.9135 14.6142 20.1958 14.6746 20.4664C14.735 20.737 14.8736 20.9838 15.0733 21.1761C15.2729 21.3685 15.5247 21.4979 15.7973 21.5482C16.0699 21.5986 16.3513 21.5677 16.6064 21.4593C16.8616 21.3509 17.0792 21.1699 17.2323 20.9388C17.3854 20.7077 17.4671 20.4366 17.4673 20.1594C17.4535 19.7798 17.2929 19.4203 17.0193 19.1566C16.7457 18.893 16.3805 18.7458 16.0006 18.7461Z" fill="#E71313"/>
</svg>
