<svg width="32" height="32" viewBox="0 0 32 32" fill="none" xmlns="http://www.w3.org/2000/svg">
<path d="M15.9732 2.66699C10.0265 2.66699 5.18652 7.507 5.18652 13.467C5.18652 15.587 5.79983 17.5736 6.8665 19.2403C7.25316 19.8536 7.69316 20.4137 8.19983 20.9337L8.61316 21.347C8.74649 21.4537 8.8665 21.5736 8.99984 21.6936C9.59984 22.2003 10.2665 22.6403 10.9732 23.0137C11.1465 23.107 11.3198 23.187 11.4932 23.267C11.6665 23.347 11.8398 23.427 12.0265 23.4937C12.6532 23.747 13.3198 23.947 13.9998 24.067C14.6398 24.187 15.2932 24.2537 15.9732 24.2537C16.6665 24.2537 17.3332 24.187 17.9865 24.0537C18.6798 23.9337 19.3332 23.747 19.9598 23.4937V23.4803C20.1332 23.4136 20.3198 23.3337 20.4932 23.2537C20.6665 23.1737 20.8399 23.0803 21.0132 23.0003C21.0532 22.9737 21.0798 22.9603 21.1198 22.947C21.5865 22.6803 22.0265 22.4003 22.4398 22.107C22.6132 21.9603 22.7732 21.8403 22.9332 21.707C23.0799 21.5737 23.2265 21.4536 23.3732 21.3203C23.5065 21.187 23.6532 21.0403 23.7865 20.907C24.2798 20.387 24.7198 19.827 25.1198 19.2137C26.1598 17.547 26.7732 15.5737 26.7732 13.467C26.7732 7.507 21.9332 2.66699 15.9732 2.66699ZM21.0932 12.6536L18.9732 14.7336C18.8799 14.8136 18.8398 14.947 18.8665 15.0803L19.3732 18.0003C19.4265 18.3203 19.0932 18.5603 18.7998 18.4137L16.1732 17.027C16.0532 16.9736 15.9198 16.9736 15.7998 17.027L13.1732 18.4137C12.8798 18.5603 12.5465 18.3203 12.5999 18.0003L13.1065 15.0803C13.1198 14.947 13.0798 14.827 12.9998 14.7336L10.8665 12.6536C10.6398 12.427 10.7598 12.0403 11.0798 11.987L14.0265 11.5603C14.1465 11.547 14.2532 11.467 14.3198 11.347L15.6265 8.68034C15.7732 8.38701 16.1865 8.38701 16.3332 8.68034L17.6399 11.347C17.7065 11.467 17.8132 11.547 17.9332 11.5603L20.8798 11.987C21.1998 12.0403 21.3198 12.427 21.0932 12.6536Z" fill="#E71313"/>
<path d="M7.50653 22.1202C6.99987 21.6268 6.5332 21.0935 6.1332 20.5068L3.81317 24.5335C3.62651 24.8535 3.62652 25.2402 3.82652 25.5602C4.01319 25.8668 4.33318 26.0535 4.73318 26.0268L8.01321 25.8535L9.50653 28.7868C9.66653 29.1068 9.99986 29.3202 10.3732 29.3335C10.3732 29.3335 10.3865 29.3335 10.3998 29.3335C10.7465 29.3335 11.0799 29.1468 11.2665 28.8268L13.3065 25.2802C12.6399 25.1335 11.9865 24.9335 11.3598 24.6668C9.90651 24.0668 8.59987 23.2002 7.50653 22.1202Z" fill="#E71313"/>
<path d="M28.2 24.5338L25.8534 20.4805C25.4401 21.0671 24.9867 21.6138 24.4667 22.0938C23.3734 23.1872 22.0667 24.0538 20.6267 24.6538C20 24.9205 19.36 25.1205 18.6934 25.2672L20.7467 28.8271C20.92 29.1471 21.2534 29.3338 21.6134 29.3338C21.6134 29.3338 21.6267 29.3338 21.6401 29.3338C22.0001 29.3205 22.3334 29.1071 22.4934 28.7871L23.9867 25.8538L27.28 26.0271C27.6667 26.0538 27.9867 25.8672 28.1867 25.5605C28.3734 25.2405 28.3734 24.8538 28.2 24.5338Z" fill="#E71313"/>
</svg>
