<svg width="32" height="32" viewBox="0 0 32 32" fill="none" xmlns="http://www.w3.org/2000/svg">
<path d="M24.3603 8.57341H23.8403C23.4003 6.02675 21.3203 4.08008 18.827 4.08008H5.72033C4.04033 4.08008 2.66699 5.54675 2.66699 7.33341C2.66699 7.45341 2.69366 7.56008 2.70699 7.68008C2.69366 7.73342 2.66699 7.78675 2.66699 7.85341V22.9201C2.66699 25.6667 4.90699 27.9067 7.64033 27.9067H24.3603C27.0937 27.9067 29.3337 25.6667 29.3337 22.9201V13.5468C29.3337 10.8001 27.0937 8.57341 24.3603 8.57341ZM23.6137 19.9201C22.6937 19.9201 21.9337 19.1734 21.9337 18.2401C21.9337 17.3067 22.6937 16.5468 23.6137 16.5468C24.547 16.5468 25.307 17.3067 25.307 18.2401C25.307 19.1734 24.547 19.9201 23.6137 19.9201ZM5.72033 6.08008H18.827C20.227 6.08008 21.4003 7.13341 21.787 8.57341H5.72033C5.13366 8.57341 4.66699 8.01341 4.66699 7.33341C4.66699 6.64008 5.13366 6.08008 5.72033 6.08008Z" fill="#E71313"/>
</svg>
