<svg style="display: none;" aria-hidden="true" xmlns="http://www.w3.org/2000/svg" xmlns:xlink="http://www.w3.org/1999/xlink"><symbol viewBox="0 0 20 20" id="svg-angle-down"><path fill-rule="evenodd" clip-rule="evenodd" d="M4.05072 7.11419C4.37616 6.78876 4.90379 6.78876 5.22923 7.11419L9.9997 11.8847L14.7702 7.11419C15.0956 6.78876 15.6232 6.78876 15.9487 7.11419C16.2741 7.43963 16.2741 7.96727 15.9487 8.29271L10.589 13.6524C10.2635 13.9779 9.73588 13.9779 9.41045 13.6524L4.05072 8.29271C3.72528 7.96727 3.72528 7.43963 4.05072 7.11419Z"/></symbol><symbol viewBox="0 0 24 24" id="svg-angle-right"><path fill-rule="evenodd" clip-rule="evenodd" d="M9.79289 7.79289C9.40237 8.18342 9.40237 8.81658 9.79289 9.20711L12.5858 12L9.79289 14.7929C9.40237 15.1834 9.40237 15.8166 9.79289 16.2071C10.1834 16.5976 10.8166 16.5976 11.2071 16.2071L14.7071 12.7071C15.0976 12.3166 15.0976 11.6834 14.7071 11.2929L11.2071 7.79289C10.8166 7.40237 10.1834 7.40237 9.79289 7.79289Z"/></symbol><symbol viewBox="0 0 24 24" id="svg-arrow-left"><path fill-rule="evenodd" clip-rule="evenodd" d="M9.90906 7.26521C9.50324 6.8906 8.87058 6.9159 8.49597 7.32172L5.2652 10.8217C4.9116 11.2047 4.9116 11.7952 5.26519 12.1782L8.49597 15.6783C8.87057 16.0841 9.50323 16.1094 9.90905 15.7348C10.3149 15.3602 10.3402 14.7276 9.96558 14.3217L8.28397 12.5L18 12.5C18.5523 12.5 19 12.0523 19 11.5C19 10.9477 18.5523 10.5 18 10.5L8.284 10.5L9.96557 8.67829C10.3402 8.27247 10.3149 7.63981 9.90906 7.26521Z"/></symbol><symbol viewBox="0 0 24 24" id="svg-arrow-right"><path fill-rule="evenodd" clip-rule="evenodd" d="M14.0909 7.26521C14.4968 6.8906 15.1294 6.9159 15.504 7.32172L18.7348 10.8217C19.0884 11.2047 19.0884 11.7952 18.7348 12.1782L15.504 15.6783C15.1294 16.0841 14.4968 16.1094 14.091 15.7348C13.6851 15.3602 13.6598 14.7276 14.0344 14.3217L15.716 12.5L6 12.5C5.44771 12.5 5 12.0523 5 11.5C5 10.9477 5.44771 10.5 6 10.5L15.716 10.5L14.0344 8.67829C13.6598 8.27247 13.6851 7.63981 14.0909 7.26521Z"/></symbol><symbol viewBox="0 0 48 48" id="svg-bank"><path d="M43.919 39.6802L42.919 35.4602C42.539 33.8602 41.0991 32.7402 39.4391 32.7402H37.3391V21.1602H38.7591C41.6591 21.1602 43.9991 18.8002 43.9991 15.9002C43.9991 13.8202 42.7791 11.9202 40.8991 11.0802L26.1391 4.44023C24.7791 3.84023 23.219 3.84023 21.859 4.44023L7.09906 11.0802C5.21906 11.9202 3.99906 13.8202 3.99906 15.9002C3.99906 18.8002 6.33905 21.1602 9.23905 21.1602H9.67905V32.7402H8.55905C6.89905 32.7402 5.45904 33.8602 5.07904 35.4602L4.07904 39.6802C3.81904 40.7202 4.05905 41.8002 4.73905 42.6602C5.41905 43.5202 6.43905 44.0202 7.55905 44.0202H40.4391C41.5591 44.0202 42.5791 43.5202 43.2591 42.6602C43.9391 41.8002 44.179 40.7202 43.919 39.6802ZM22.9791 11.9402H25.019C25.859 11.9402 26.519 12.6002 26.519 13.4402C26.519 14.2602 25.859 14.9402 25.019 14.9402H22.9791C22.1391 14.9402 21.4791 14.2602 21.4791 13.4402C21.4791 12.6002 22.1391 11.9402 22.9791 11.9402ZM17.9191 32.7402H12.679V21.1602H17.9191V32.7402ZM26.0991 32.7402H20.9191V21.1602H26.0991V32.7402ZM34.3391 32.7402H29.0991V21.1602H34.3391V32.7402Z"/></symbol><symbol viewBox="0 0 24 24" id="svg-bank-card"><path d="M3.5 9.7207H2V17.4307C2 19.2607 3.49 20.7507 5.31 20.7507H18.69C20.51 20.7507 22 19.2607 22 17.4307V9.7207H20.5 3.5zM5.70999 11.8507H9.29001C9.71001 11.8507 10.04 12.1907 10.04 12.6007 10.04 13.0207 9.71001 13.3507 9.29001 13.3507H5.70999C5.28999 13.3507 4.95999 13.0207 4.95999 12.6007 4.95999 12.1907 5.28999 11.8507 5.70999 11.8507zM18.69 3.25H5.31C3.49 3.25 2 4.73 2 6.56V8.22H3.5 20.5 22V6.56C22 4.73 20.51 3.25 18.69 3.25z"/></symbol><symbol viewBox="0 0 24 24" id="svg-bank-vault"><path d="M11.9999 14.3302C10.7099 14.3302 9.66992 13.2802 9.66992 12.0002C9.66992 10.7102 10.7099 9.66016 11.9999 9.66016C13.2899 9.66016 14.3299 10.7102 14.3299 12.0002C14.3299 13.2802 13.2899 14.3302 11.9999 14.3302Z"/><path d="M18.17 2H5.75C3.68 2 2 3.68 2 5.75V18.25C2 20.31 3.68 22 5.75 22H18.17C20.28 22 22 20.28 22 18.16V5.83C22 3.72 20.28 2 18.17 2ZM16.11 12.75H15.76C15.46 14.26 14.26 15.45 12.75 15.75V16.11C12.75 16.52 12.41 16.86 12 16.86C11.59 16.86 11.25 16.52 11.25 16.11V15.75C9.74 15.45 8.53999 14.26 8.23999 12.75H7.89001C7.47001 12.75 7.14001 12.41 7.14001 12C7.14001 11.58 7.47001 11.25 7.89001 11.25H8.23999C8.53999 9.73 9.74 8.54001 11.25 8.24001V7.88C11.25 7.47001 11.59 7.13 12 7.13C12.41 7.13 12.75 7.47001 12.75 7.88V8.24001C14.26 8.54001 15.46 9.73 15.76 11.25H16.11C16.53 11.25 16.86 11.58 16.86 12C16.86 12.41 16.53 12.75 16.11 12.75ZM3.5 6H4.23001C4.52001 6 4.75 6.22999 4.75 6.50999V8.39C4.75 8.68 4.52001 8.91 4.23001 8.91H3.5V6ZM3.5 15.08H4.23001C4.52001 15.08 4.75 15.31 4.75 15.6V17.48C4.75 17.76 4.52001 18 4.23001 18H3.5V15.08Z"/></symbol><symbol viewBox="0 0 32 32" id="svg-building"><path d="M7.97543 29H24.0246C24.5578 29 25 28.558 25 28.025C25 27.479 24.5578 27.05 24.0246 27.05H22.9971V9.318C22.9971 8.772 22.5549 8.343 22.0086 8.343H19.9798V5.301C19.9798 4.768 19.5506 4.326 19.0043 4.326H16.9754V3.975C16.9754 3.429 16.5332 3 16 3C15.4668 3 15.0246 3.429 15.0246 3.975V4.326H12.9957C12.4494 4.326 12.0202 4.768 12.0202 5.301V8.343H9.99133C9.44509 8.343 9.00288 8.772 9.00288 9.318V27.05H7.97543C7.4422 27.05 7 27.479 7 28.025C7 28.558 7.4422 29 7.97543 29ZM18.9783 13.322V24.008C18.9783 24.554 18.5491 24.983 18.0029 24.983C17.4696 24.983 17.0274 24.554 17.0274 24.008V13.322C17.0274 12.789 17.4696 12.347 18.0029 12.347C18.5491 12.347 18.9783 12.789 18.9783 13.322ZM13.0217 13.322C13.0217 12.789 13.4509 12.347 13.9971 12.347C14.5303 12.347 14.9725 12.789 14.9725 13.322V24.008C14.9725 24.554 14.5303 24.983 13.9971 24.983C13.4509 24.983 13.0217 24.554 13.0217 24.008V13.322ZM13.9711 6.276H18.0289V8.343H13.9711V6.276Z"/></symbol><symbol viewBox="0 0 48 48" id="svg-cash"><path d="M36.5 8.5H11.5C7.36 8.5 4 11.86 4 16V32C4 36.12 7.36 39.5 11.5 39.5H36.5C40.64 39.5 44 36.12 44 32V16C44 11.86 40.64 8.5 36.5 8.5ZM11.68 26.04C10.54 26.04 9.62 25.12 9.62 24C9.62 22.86 10.54 21.94 11.68 21.94C12.82 21.94 13.74 22.86 13.74 24C13.74 25.12 12.82 26.04 11.68 26.04ZM24 30.64C20.34 30.64 17.36 27.66 17.36 24C17.36 20.34 20.34 17.36 24 17.36C27.66 17.36 30.64 20.34 30.64 24C30.64 27.66 27.66 30.64 24 30.64ZM36.28 26.04C35.16 26.04 34.24 25.12 34.24 24C34.24 22.86 35.16 21.94 36.28 21.94C37.42 21.94 38.34 22.86 38.34 24C38.34 25.12 37.42 26.04 36.28 26.04Z"/><path d="M23.9994 27.6394C26.0097 27.6394 27.6394 26.0097 27.6394 23.9994C27.6394 21.9891 26.0097 20.3594 23.9994 20.3594C21.9891 20.3594 20.3594 21.9891 20.3594 23.9994C20.3594 26.0097 21.9891 27.6394 23.9994 27.6394Z"/></symbol><symbol viewBox="0 0 24 24" id="svg-credit-card"><path fill-rule="evenodd" clip-rule="evenodd" d="M3 4.75006C2.30964 4.75006 1.75 5.30971 1.75 6.00006V9.25006H22.25V6.00006C22.25 5.3097 21.6904 4.75006 21 4.75006H3ZM23.75 6.00006C23.75 4.48128 22.5188 3.25006 21 3.25006H3C1.48122 3.25006 0.25 4.48128 0.25 6.00006V18.0001C0.25 19.5188 1.48122 20.7501 3 20.7501H21C22.5188 20.7501 23.75 19.5188 23.75 18.0001V6.00006ZM22.25 10.7501H1.75V18.0001C1.75 18.6904 2.30964 19.2501 3 19.2501H21C21.6904 19.2501 22.25 18.6904 22.25 18.0001V10.7501Z"/></symbol><symbol viewBox="0 0 48 48" id="svg-diamond"><path fill-rule="evenodd" clip-rule="evenodd" d="M36.5 4H11.5C9.51088 4 7.60322 4.79018 6.1967 6.1967C4.79018 7.60322 4 9.51088 4 11.5L4 36.5C4 38.4891 4.79018 40.3968 6.1967 41.8033C7.60322 43.2098 9.51088 44 11.5 44H36.5C38.4891 44 40.3968 43.2098 41.8033 41.8033C43.2098 40.3968 44 38.4891 44 36.5V11.5C44 9.51088 43.2098 7.60322 41.8033 6.1967C40.3968 4.79018 38.4891 4 36.5 4V4ZM15.22 13.36C15.3597 13.1801 15.5386 13.0343 15.7431 12.9338C15.9475 12.8333 16.1722 12.7807 16.4 12.78H31.64C31.8678 12.7807 32.0925 12.8333 32.2969 12.9338C32.5014 13.0343 32.6803 13.1801 32.82 13.36L36.82 18.44C37.0179 18.6983 37.1251 19.0146 37.1251 19.34C37.1251 19.6654 37.0179 19.9817 36.82 20.24L25.44 35.76L25.3 35.94C25.1625 36.0829 24.998 36.1972 24.8161 36.2762C24.6341 36.3551 24.4383 36.3972 24.24 36.4C24.0749 36.4319 23.9051 36.4319 23.74 36.4C23.5234 36.3146 23.331 36.1772 23.18 36L23.02 35.82L11.22 20.28C11.0112 20.019 10.8982 19.6943 10.9 19.36C10.8984 19.0197 11.0111 18.6887 11.22 18.42L15.22 13.36ZM25.62 15.78H22.4L21.66 17.78H26.34L25.62 15.78ZM29.52 17.78L28.8 15.78H30.92L32.54 17.78H29.52ZM17.12 15.78H19.22L18.48 17.78H15.5L17.12 15.78ZM27.8 27.5L32.68 20.86H29.6L27.8 27.5ZM26.5 20.86L24.16 29.46L21.56 20.86H26.5ZM20.4 27.38L18.4 20.86H15.42L20.4 27.38Z"/></symbol><symbol viewBox="0 0 24 24" id="svg-download"><path d="M4.72727 21C4.32561 21 4 20.5523 4 20 4 19.4477 4.32561 19 4.72727 19L19.2727 19C19.6744 19 20 19.4477 20 20 20 20.5523 19.6744 21 19.2727 21L4.72727 21zM13 4C13 3.44772 12.5523 3 12 3 11.4477 3 11 3.44772 11 4V13.5858L9.70711 12.2929C9.31658 11.9024 8.68342 11.9024 8.29289 12.2929 7.90237 12.6834 7.90237 13.3166 8.29289 13.7071L11.2929 16.7071C11.6834 17.0976 12.3166 17.0976 12.7071 16.7071L15.7071 13.7071C16.0976 13.3166 16.0976 12.6834 15.7071 12.2929 15.3166 11.9024 14.6834 11.9024 14.2929 12.2929L13 13.5858V4z"/></symbol><symbol viewBox="0 0 20 20" id="svg-facebook"><path fill-rule="evenodd" clip-rule="evenodd" d="M9.99935 16.667C13.6813 16.667 16.666 13.6822 16.666 10.0003C16.666 6.31843 13.6813 3.33366 9.99935 3.33366C6.31745 3.33366 3.33268 6.31843 3.33268 10.0003C3.33268 13.6822 6.31745 16.667 9.99935 16.667ZM9.99935 18.3337C14.6017 18.3337 18.3327 14.6027 18.3327 10.0003C18.3327 5.39795 14.6017 1.66699 9.99935 1.66699C5.39697 1.66699 1.66602 5.39795 1.66602 10.0003C1.66602 14.6027 5.39697 18.3337 9.99935 18.3337Z"/><path d="M9.99935 8.33301C9.99935 7.87277 10.3724 7.49967 10.8327 7.49967H11.666C12.1263 7.49967 12.4993 7.12658 12.4993 6.66634C12.4993 6.20611 12.1263 5.83301 11.666 5.83301H10.8327C9.45193 5.83301 8.33268 6.9523 8.33268 8.33301V9.99967H7.49935C7.03912 9.99967 6.66602 10.3728 6.66602 10.833C6.66602 11.2933 7.03911 11.6663 7.49935 11.6663H8.33268V16.6663C8.33268 17.1266 8.70577 17.4997 9.16602 17.4997C9.62627 17.4997 9.99935 17.1266 9.99935 16.6663V11.6663H11.666C12.1263 11.6663 12.4993 11.2933 12.4993 10.833C12.4993 10.3728 12.1263 9.99967 11.666 9.99967H9.99935V8.33301Z"/></symbol><symbol viewBox="0 0 20 20" id="svg-filter"><path fill-rule="evenodd" clip-rule="evenodd" d="M4 6.5C4.82843 6.5 5.5 5.82843 5.5 5 5.5 4.17157 4.82843 3.5 4 3.5 3.17157 3.5 2.5 4.17157 2.5 5 2.5 5.82843 3.17157 6.5 4 6.5zM4 8C5.65685 8 7 6.65685 7 5 7 3.34315 5.65685 2 4 2 2.34315 2 1 3.34315 1 5 1 6.65685 2.34315 8 4 8zM9 5C9 4.44772 9.44772 4 10 4L18 4C18.5523 4 19 4.44772 19 5 19 5.55228 18.5523 6 18 6L10 6C9.44772 6 9 5.55228 9 5zM16 16.5C15.1716 16.5 14.5 15.8284 14.5 15 14.5 14.1716 15.1716 13.5 16 13.5 16.8284 13.5 17.5 14.1716 17.5 15 17.5 15.8284 16.8284 16.5 16 16.5zM16 18C14.3431 18 13 16.6569 13 15 13 13.3431 14.3431 12 16 12 17.6569 12 19 13.3431 19 15 19 16.6569 17.6569 18 16 18zM11 15C11 15.5523 10.5523 16 10 16H2C1.44771 16 1 15.5523 1 15 1 14.4477 1.44771 14 2 14L10 14C10.5523 14 11 14.4477 11 15z"/></symbol><symbol viewBox="0 0 48 48" id="svg-fire"><path d="M37.2003 14.0799L35.3403 11.2399C34.8003 10.3199 33.7803 9.73987 32.5403 9.69987C31.4203 9.69987 30.3603 10.2399 29.7803 11.0799L29.0403 12.1399L25.6203 5.65996C24.5603 3.85996 21.7403 3.4399 20.1403 5.0999L11.2403 15.0799C8.0603 18.5399 6.32031 22.92 6.32031 27.42C6.32031 28.2 6.4403 29.1399 6.7403 30.5199C6.8003 30.7599 6.86031 31.02 6.94031 31.3L7.04028 31.7599C8.88028 38.5799 15.4403 43.4999 23.4603 43.9999H23.5803C31.8003 43.9999 39.1203 38.8799 40.9403 31.8399C41.0403 31.5599 41.1003 31.2799 41.1803 30.9999C41.2203 30.8399 41.2603 30.6799 41.3403 30.3799C41.5803 29.1799 41.6803 28.28 41.6803 27.56V27.3C41.6803 22.66 39.3803 17.4199 37.2003 14.0799ZM29.3403 35.8399C29.3003 35.9799 29.2603 36.1199 29.2203 36.2799L29.1803 36.4599C28.7803 37.9599 27.6203 39.22 26.0003 39.92C25.2403 40.26 24.4403 40.4399 23.6003 40.4999H23.5203C22.9003 40.4999 22.2003 40.28 21.3803 39.92C19.7803 39.22 18.6203 37.9599 18.1603 36.2799C18.1203 36.1199 18.1003 35.9599 18.0803 35.9399C18.0003 35.5199 17.9403 35.2199 17.9403 35.0199C17.9403 33.4799 18.5603 31.98 19.6603 30.78L23.7003 26.2599L27.7403 30.8C28.8403 31.98 29.4403 33.4799 29.4403 35.0199C29.4403 35.2199 29.4003 35.5399 29.3403 35.8399Z"/></symbol><symbol viewBox="0 0 48 48" id="svg-grid"><path d="M17.3603 5.78003H10.6403C7.96029 5.78003 5.78027 7.96001 5.78027 10.64V17.36C5.78027 20.04 7.96029 22.22 10.6403 22.22H17.3603C20.0403 22.22 22.2203 20.04 22.2203 17.36V10.64C22.2203 7.96001 20.0403 5.78003 17.3603 5.78003zM37.3603 5.78003H30.6403C27.9603 5.78003 25.7803 7.96001 25.7803 10.64V17.36C25.7803 20.04 27.9603 22.22 30.6403 22.22H37.3603C40.0403 22.22 42.2203 20.04 42.2203 17.36V10.64C42.2203 7.96001 40.0403 5.78003 37.3603 5.78003zM17.3603 25.78H10.6403C7.96029 25.78 5.78027 27.96 5.78027 30.64V37.36C5.78027 40.04 7.96029 42.22 10.6403 42.22H17.3603C20.0403 42.22 22.2203 40.04 22.2203 37.36V30.64C22.2203 27.96 20.0403 25.78 17.3603 25.78zM37.3603 25.78H30.6403C27.9603 25.78 25.7803 27.96 25.7803 30.64V37.36C25.7803 40.04 27.9603 42.22 30.6403 42.22H37.3603C40.0403 42.22 42.2203 40.04 42.2203 37.36V30.64C42.2203 27.96 40.0403 25.78 37.3603 25.78z"/></symbol><symbol viewBox="0 0 24 24" id="svg-hotel-1"><path d="M21.25 20.5H19.94V8.91C19.94 7.44 19.1 6.18 17.89 5.54V4.8C17.89 3.25 16.63 2 15.08 2H8.92C7.37 2 6.11 3.25 6.11 4.8V5.54C4.9 6.18 4.06 7.44 4.06 8.91V20.5H2.75C2.34 20.5 2 20.83 2 21.25C2 21.66 2.34 22 2.75 22H21.25C21.66 22 22 21.66 22 21.25C22 20.83 21.66 20.5 21.25 20.5ZM9.94 15.32H8.92C8.5 15.32 8.17 14.98 8.17 14.57V13.54C8.17 13.12 8.5 12.79 8.92 12.79H9.94C10.36 12.79 10.69 13.12 10.69 13.54V14.57C10.69 14.98 10.36 15.32 9.94 15.32ZM8.17 9.94V8.91C8.17 8.5 8.5 8.16 8.92 8.16H9.94C10.36 8.16 10.69 8.5 10.69 8.91V9.94C10.69 10.35 10.36 10.69 9.94 10.69H8.92C8.5 10.69 8.17 10.35 8.17 9.94ZM13.31 20.5H10.69V19.19C10.69 18.47 11.28 17.88 12 17.88C12.72 17.88 13.31 18.47 13.31 19.19V20.5ZM15.83 14.57C15.83 14.98 15.5 15.32 15.08 15.32H14.06C13.64 15.32 13.31 14.98 13.31 14.57V13.54C13.31 13.12 13.64 12.79 14.06 12.79H15.08C15.5 12.79 15.83 13.12 15.83 13.54V14.57ZM15.83 9.94C15.83 10.35 15.5 10.69 15.08 10.69H14.06C13.64 10.69 13.31 10.35 13.31 9.94V8.91C13.31 8.5 13.64 8.16 14.06 8.16H15.08C15.5 8.16 15.83 8.5 15.83 8.91V9.94ZM16.39 5.08H7.61V4.8C7.61 4.08 8.2 3.5 8.92 3.5H15.08C15.8 3.5 16.39 4.08 16.39 4.8V5.08Z"/></symbol><symbol viewBox="0 0 48 48" id="svg-house-key"><path d="M24.0001 29.2405C22.3801 29.2405 21.0801 30.5605 21.0801 32.1805C21.0801 33.8005 22.3801 35.1005 24.0001 35.1005C25.6201 35.1005 26.9201 33.8005 26.9201 32.1805C26.9201 30.5605 25.6201 29.2405 24.0001 29.2405Z"/><path d="M28.84 5.82023C26.04 3.38023 21.96 3.38023 19.16 5.82023L6.66 16.8002C4.98 18.2802 4 20.4602 4 22.7802V36.1802C4 40.4802 7.36 44.0002 11.5 44.0002H36.5C40.64 44.0002 44 40.4802 44 36.1802V22.7802C44 20.4602 43.02 18.2802 41.34 16.8002L28.84 5.82023ZM24 38.1002C20.74 38.1002 18.08 35.4402 18.08 32.1802C18.08 29.4202 19.96 27.1202 22.5 26.4602V14.8802C22.5 14.0402 23.18 13.3802 24 13.3802C24.82 13.3802 25.5 14.0402 25.5 14.8802V15.3602H27.36C28.18 15.3602 28.86 16.0402 28.86 16.8602C28.86 17.6802 28.18 18.3602 27.36 18.3602H25.5V19.0602H27.36C28.18 19.0602 28.86 19.7202 28.86 20.5602C28.86 21.3802 28.18 22.0602 27.36 22.0602H25.5V26.4602C28.04 27.1202 29.92 29.4202 29.92 32.1802C29.92 35.4402 27.26 38.1002 24 38.1002Z"/></symbol><symbol viewBox="0 0 20 20" id="svg-instagram"><path fill-rule="evenodd" clip-rule="evenodd" d="M13.3327 3.33366H6.66602C4.82507 3.33366 3.33268 4.82604 3.33268 6.66699V13.3337C3.33268 15.1746 4.82507 16.667 6.66602 16.667H13.3327C15.1736 16.667 16.666 15.1746 16.666 13.3337V6.66699C16.666 4.82604 15.1736 3.33366 13.3327 3.33366ZM6.66602 1.66699C3.90459 1.66699 1.66602 3.90557 1.66602 6.66699V13.3337C1.66602 16.0951 3.90459 18.3337 6.66602 18.3337H13.3327C16.0941 18.3337 18.3327 16.0951 18.3327 13.3337V6.66699C18.3327 3.90557 16.0941 1.66699 13.3327 1.66699H6.66602Z"/><path d="M14.1673 6.66667C14.6276 6.66667 15.0007 6.29357 15.0007 5.83333C15.0007 5.3731 14.6276 5 14.1673 5C13.7071 5 13.334 5.3731 13.334 5.83333C13.334 6.29357 13.7071 6.66667 14.1673 6.66667Z"/><path fill-rule="evenodd" clip-rule="evenodd" d="M14.1673 9.99967C14.1673 12.3008 12.3018 14.1663 10.0007 14.1663C7.69947 14.1663 5.83398 12.3008 5.83398 9.99967C5.83398 7.69849 7.69947 5.83301 10.0007 5.83301C12.3018 5.83301 14.1673 7.69849 14.1673 9.99967ZM12.5007 9.99967C12.5007 11.3804 11.3814 12.4997 10.0007 12.4997C8.6199 12.4997 7.50065 11.3804 7.50065 9.99967C7.50065 8.61892 8.6199 7.49967 10.0007 7.49967C11.3814 7.49967 12.5007 8.61892 12.5007 9.99967Z"/></symbol><symbol viewBox="0 0 48 48" id="svg-investments"><path d="M13.64 24.98H11.0399V19.72C11.0399 18.9 10.3599 18.22 9.53992 18.22 8.71992 18.22 8.03992 18.9 8.03992 19.72V24.98H5.43994C4.61994 24.98 3.93994 25.66 3.93994 26.48V38.32C3.93994 39.14 4.61994 39.82 5.43994 39.82H8.03992V42.56C8.03992 43.38 8.71992 44.06 9.53992 44.06 10.3599 44.06 11.0399 43.38 11.0399 42.56V39.82H13.64C14.46 39.82 15.14 39.14 15.14 38.32V26.48C15.14 25.66 14.46 24.98 13.64 24.98zM27.98 13.4801H25.48V7.32007C25.48 6.50007 24.8 5.82007 23.98 5.82007 23.16 5.82007 22.48 6.50007 22.48 7.32007V13.4801H20C19.18 13.4801 18.5 14.1601 18.5 14.9801V34.2201C18.5 35.0401 19.18 35.7201 20 35.7201H22.5V38.4601C22.5 39.2801 23.18 39.9601 24 39.9601 24.82 39.9601 25.5 39.2801 25.5 38.4601V35.7201H27.98C28.8 35.7201 29.48 35.0401 29.48 34.2201V14.9801C29.48 14.1601 28.8 13.4801 27.98 13.4801zM42.44 8.08006H39.84V5.56006C39.84 4.74006 39.16 4.06006 38.34 4.06006 37.52 4.06006 36.84 4.74006 36.84 5.56006V8.08006H34.24C33.42 8.08006 32.74 8.76006 32.74 9.58006V28.4601C32.74 29.2801 33.42 29.9601 34.24 29.9601H36.84V34.2201C36.84 35.0401 37.52 35.7201 38.34 35.7201 39.16 35.7201 39.84 35.0401 39.84 34.2201V29.9601H42.44C43.26 29.9601 43.94 29.2801 43.94 28.4601V9.58006C43.94 8.76006 43.26 8.08006 42.44 8.08006z"/></symbol><symbol viewBox="0 0 20 20" id="svg-list"><path d="M4 4C4 4.55228 3.55228 5 3 5C2.44772 5 2 4.55228 2 4C2 3.44772 2.44772 3 3 3C3.55228 3 4 3.44772 4 4Z"/><path fill-rule="evenodd" clip-rule="evenodd" d="M3 5C3.55228 5 4 4.55228 4 4 4 3.44772 3.55228 3 3 3 2.44772 3 2 3.44772 2 4 2 4.55228 2.44772 5 3 5zM5.50781 4C5.50781 3.44772 5.95553 3 6.50781 3L16.5078 3C17.0601 3 17.5078 3.44772 17.5078 4 17.5078 4.55228 17.0601 5 16.5078 5L6.50781 5C5.95553 5 5.50781 4.55228 5.50781 4z"/><path d="M4 10C4 10.5523 3.55228 11 3 11C2.44772 11 2 10.5523 2 10C2 9.44772 2.44772 9 3 9C3.55228 9 4 9.44772 4 10Z"/><path fill-rule="evenodd" clip-rule="evenodd" d="M3 11C3.55228 11 4 10.5523 4 10 4 9.44772 3.55228 9 3 9 2.44772 9 2 9.44772 2 10 2 10.5523 2.44772 11 3 11zM5.50781 10C5.50781 9.44772 5.95553 9 6.50781 9L16.5078 9C17.0601 9 17.5078 9.44772 17.5078 10 17.5078 10.5523 17.0601 11 16.5078 11L6.50781 11C5.95553 11 5.50781 10.5523 5.50781 10z"/><path d="M4 16C4 16.5523 3.55228 17 3 17C2.44772 17 2 16.5523 2 16C2 15.4477 2.44772 15 3 15C3.55228 15 4 15.4477 4 16Z"/><path fill-rule="evenodd" clip-rule="evenodd" d="M3 17C3.55228 17 4 16.5523 4 16 4 15.4477 3.55228 15 3 15 2.44772 15 2 15.4477 2 16 2 16.5523 2.44772 17 3 17zM5.50781 16C5.50781 15.4477 5.95553 15 6.50781 15L16.5078 15C17.0601 15 17.5078 15.4477 17.5078 16 17.5078 16.5523 17.0601 17 16.5078 17L6.50781 17C5.95553 17 5.50781 16.5523 5.50781 16z"/></symbol><symbol viewBox="0 0 24 24" id="svg-math-plus"><path fill-rule="evenodd" clip-rule="evenodd" d="M12 4C12.5523 4 13 4.44772 13 5V11H19C19.5523 11 20 11.4477 20 12C20 12.5523 19.5523 13 19 13H13V19C13 19.5523 12.5523 20 12 20C11.4477 20 11 19.5523 11 19V13H5C4.44772 13 4 12.5523 4 12C4 11.4477 4.44772 11 5 11H11V5C11 4.44772 11.4477 4 12 4Z"/></symbol><symbol viewBox="0 0 24 24" id="svg-monitor"><path d="M19.1998 2H4.80977C3.25977 2 2.00977 3.26 2.00977 4.81V15.1C2.00977 15.97 2.39978 16.74 3.01978 17.26C3.50978 17.67 4.12977 17.91 4.80977 17.91H9.25977L8.82977 20.5H7.82977C7.41977 20.5 7.07977 20.84 7.07977 21.25C7.07977 21.66 7.41977 22 7.82977 22H16.0498C16.4698 22 16.7998 21.66 16.7998 21.25C16.7998 20.84 16.4698 20.5 16.0498 20.5H15.0598L14.6298 17.91H19.1998C19.8898 17.91 20.5098 17.67 20.9998 17.26C21.6198 16.74 22.0098 15.97 22.0098 15.1V4.81C22.0098 3.26 20.7498 2 19.1998 2ZM3.50977 14.75C3.56977 14.77 3.63977 14.79 3.71977 14.79H20.5098V15.1C20.5098 15.82 19.9198 16.41 19.1998 16.41H4.80977C4.08977 16.41 3.50977 15.82 3.50977 15.1V14.75Z"/></symbol><symbol viewBox="0 0 24 24" id="svg-percent"><path d="M12 2C6.49 2 2 6.48 2 12C2 17.51 6.49 22 12 22C17.51 22 22 17.51 22 12C22 6.48 17.51 2 12 2ZM15.08 16.34C14.38 16.34 13.81 15.77 13.81 15.07C13.81 14.38 14.38 13.81 15.08 13.81C15.78 13.81 16.34 14.38 16.34 15.07C16.34 15.77 15.78 16.34 15.08 16.34ZM8.92001 7.65C9.62001 7.65 10.19 8.22 10.19 8.92C10.19 9.62 9.62001 10.18 8.92001 10.18C8.22001 10.18 7.66 9.62 7.66 8.92C7.66 8.22 8.22001 7.65 8.92001 7.65ZM9.51999 15.19C9.32999 15.19 9.13999 15.12 8.98999 14.97C8.69999 14.68 8.69999 14.2 8.98999 13.91L13.86 9.04C14.15 8.75 14.63 8.75 14.92 9.04C15.21 9.33 15.21 9.81 14.92 10.1L10.05 14.97C9.89999 15.12 9.70999 15.19 9.51999 15.19Z"/></symbol><symbol viewBox="0 0 20 20" id="svg-pointer"><path fill-rule="evenodd" clip-rule="evenodd" d="M16.8448 2.28622C16.5845 2.22634 16.3125 2.24093 16.0601 2.32831C16.0601 2.32831 16.0601 2.32831 16.0601 2.32831L1.80707 7.26205C1.52339 7.36025 1.27801 7.54562 1.10602 7.79165C0.934027 8.03769 0.844219 8.33181 0.849434 8.63196C0.854649 8.9321 0.954618 9.22292 1.13506 9.46284C1.31549 9.70276 1.56716 9.87949 1.85408 9.96777L8.2603 11.9389L10.2315 18.3451C10.3197 18.6321 10.4965 18.8837 10.7364 19.0642C10.9763 19.2446 11.2671 19.3446 11.5673 19.3498C11.8674 19.355 12.1615 19.2652 12.4076 19.0932C12.6536 18.9212 12.839 18.6758 12.9372 18.3921L17.8709 4.13913C17.8709 4.13913 17.8709 4.13913 17.8709 4.13913C17.9583 3.88669 17.9729 3.61475 17.913 3.35441C17.8531 3.09407 17.7212 2.85583 17.5323 2.66693C17.3434 2.47803 17.1052 2.3461 16.8448 2.28622ZM16.4019 3.79732L2.51897 8.60295L8.74015 10.5172C8.96206 10.5854 9.1639 10.707 9.32808 10.8711C9.49225 11.0353 9.61378 11.2372 9.68206 11.4591L11.5963 17.6803L16.4019 3.79732ZM16.4534 3.64846L16.5257 3.67349L16.4534 3.64846C16.4534 3.64846 16.4534 3.64846 16.4534 3.64846Z"/></symbol><symbol viewBox="0 0 20 20" id="svg-search"><path fill-rule="evenodd" clip-rule="evenodd" d="M9.23317 1.54297C5.06689 1.54297 1.68945 4.92041 1.68945 9.08669C1.68945 13.253 5.06689 16.6304 9.23317 16.6304C10.9411 16.6304 12.5166 16.0628 13.781 15.1059L16.8868 18.2116C17.2122 18.5371 17.7398 18.5371 18.0653 18.2116C18.3907 17.8862 18.3907 17.3586 18.0653 17.0331L14.9919 13.9598C16.1054 12.6452 16.7769 10.9444 16.7769 9.08669C16.7769 4.92041 13.3994 1.54297 9.23317 1.54297ZM3.35612 9.08669C3.35612 5.84088 5.98736 3.20964 9.23317 3.20964C12.479 3.20964 15.1102 5.84088 15.1102 9.08669C15.1102 12.3325 12.479 14.9637 9.23317 14.9637C5.98736 14.9637 3.35612 12.3325 3.35612 9.08669Z"/></symbol><symbol viewBox="0 0 20 20" id="svg-tg"><path fill-rule="evenodd" clip-rule="evenodd" d="M10 17.75C14.2802 17.75 17.75 14.2802 17.75 10C17.75 5.71979 14.2802 2.25 10 2.25C5.71979 2.25 2.25 5.71979 2.25 10C2.25 14.2802 5.71979 17.75 10 17.75ZM19 10C19 14.9706 14.9706 19 10 19C5.02944 19 1 14.9706 1 10C1 5.02944 5.02944 1 10 1C14.9706 1 19 5.02944 19 10Z"/><path fill-rule="evenodd" clip-rule="evenodd" d="M5.07384 9.90498C7.69788 8.76198 9.44742 8.00838 10.3225 7.64418C12.8218 6.60469 13.3412 6.42397 13.6796 6.41803C13.7542 6.41677 13.9207 6.43603 14.0285 6.52279C14.1194 6.59659 14.1446 6.69648 14.1565 6.7665C14.1748 6.88364 14.1798 7.00247 14.1716 7.12074C14.036 8.54382 13.4501 11.998 13.1519 13.5914C13.0259 14.2657 12.7773 14.4914 12.5368 14.5141C12.0148 14.5621 11.6174 14.1686 11.111 13.8367C10.319 13.3176 9.87156 12.9943 9.1026 12.4876C8.21394 11.9021 8.79012 11.5802 9.29646 11.0543C9.42894 10.9166 11.7319 8.82228 11.7763 8.63202C11.7819 8.60826 11.7871 8.5197 11.7344 8.4729C11.6816 8.4261 11.6042 8.44212 11.5481 8.4549C11.4686 8.4729 10.2032 9.3093 7.75188 10.9641C7.3926 11.2107 7.06728 11.3307 6.77592 11.3241C6.45444 11.3171 5.83632 11.1423 5.37678 10.9929C4.8132 10.8097 4.36518 10.7128 4.40478 10.4018C4.42482 10.24 4.64784 10.0744 5.07384 9.90498Z"/></symbol><symbol viewBox="0 0 24 24" id="svg-transfer"><path d="M18.25 2H5.75C3.68 2 2 3.68 2 5.75V18.25C2 20.31 3.68 22 5.75 22H18.25C20.32 22 22 20.31 22 18.25V5.75C22 3.68 20.32 2 18.25 2ZM13.57 7.15C13.28 6.85 13.28 6.38 13.57 6.09C13.86 5.79 14.34 5.79 14.63 6.09L18.02 9.48C18.24 9.69 18.3 10.02 18.18 10.3C18.07 10.58 17.79 10.76 17.49 10.76H6.50999C6.08999 10.76 5.75999 10.42 5.75999 10.01C5.75999 9.6 6.08999 9.26 6.50999 9.26H15.68L13.57 7.15ZM17.49 14.73H8.32001L10.43 16.85C10.73 17.14 10.73 17.61 10.43 17.91C10.29 18.05 10.09 18.13 9.89999 18.13C9.70999 18.13 9.52 18.05 9.37 17.91L5.98 14.51C5.77 14.3 5.70001 13.98 5.82001 13.7C5.94001 13.42 6.20999 13.23 6.50999 13.23H17.49C17.9 13.23 18.24 13.57 18.24 13.98C18.24 14.4 17.9 14.73 17.49 14.73Z"/></symbol><symbol viewBox="0 0 48 48" id="svg-user"><path d="M16.1206 4.08008H11.8006C7.5806 4.08008 4.14062 7.52008 4.14062 11.7401V15.8801C4.14062 16.7001 4.82063 17.3801 5.64062 17.3801 6.46062 17.3801 7.14062 16.7001 7.14062 15.8801V11.7401C7.14062 9.16008 9.2406 7.08008 11.8006 7.08008H16.1206C16.9406 7.08008 17.6206 6.40008 17.6206 5.58008 17.6206 4.76008 16.9606 4.08008 16.1206 4.08008zM36.1794 4.08008H31.8594C31.0394 4.08008 30.3594 4.76008 30.3594 5.58008 30.3594 6.40008 31.0394 7.08008 31.8594 7.08008H36.1794C38.7594 7.08008 40.8394 9.18008 40.8394 11.7401V15.8801C40.8394 16.7001 41.5194 17.3801 42.3394 17.3801 43.1594 17.3801 43.8394 16.7001 43.8394 15.8801V11.7401C43.8594 7.52008 40.4194 4.08008 36.1794 4.08008zM16.1206 40.9211H11.8006C9.2206 40.9211 7.14062 38.8211 7.14062 36.2611V32.1211C7.14062 31.3011 6.46062 30.6211 5.64062 30.6211 4.82063 30.6211 4.14062 31.3011 4.14062 32.1211V36.2611C4.14062 40.4811 7.5806 43.9211 11.8006 43.9211H16.1206C16.9406 43.9211 17.6206 43.2611 17.6206 42.4211 17.6206 41.6011 16.9606 40.9211 16.1206 40.9211zM42.3628 30.6211C41.5428 30.6211 40.8628 31.3011 40.8628 32.1211V36.2611C40.8628 38.8411 38.7628 40.9211 36.2028 40.9211H31.8828C31.0628 40.9211 30.3828 41.6011 30.3828 42.4211 30.3828 43.2411 31.0628 43.9211 31.8828 43.9211H36.2028C40.4228 43.9211 43.8628 40.4811 43.8628 36.2611V32.1211C43.8628 31.2811 43.1828 30.6211 42.3628 30.6211zM23.7369 22.9796C27.2769 22.9796 30.1769 20.0996 30.1769 16.5396 30.1769 12.9796 27.2969 10.0996 23.7369 10.0996 20.1769 10.0996 17.2969 12.9796 17.2969 16.5396 17.2969 20.0996 20.1969 22.9796 23.7369 22.9796zM28.5769 24.9199H19.7169C15.6169 24.9199 12.2969 28.2599 12.2969 32.3399V33.1599C12.2969 35.0799 13.8769 36.6599 15.7969 36.6599H32.5169C34.4369 36.6599 36.0169 35.0799 36.0169 33.1599V32.3399C35.9969 28.2399 32.6769 24.9199 28.5769 24.9199z"/></symbol><symbol viewBox="0 0 20 20" id="svg-viber"><path fill-rule="evenodd" clip-rule="evenodd" d="M16.581 2.78551C16.1356 2.37449 14.3355 1.06773 10.3259 1.04998C10.3259 1.04998 5.59758 0.764845 3.29259 2.87912C2.0095 4.16248 1.55813 6.04031 1.51052 8.36843C1.46291 10.6966 1.40131 15.0596 5.607 16.2426H5.61103L5.60834 18.0478C5.60834 18.0478 5.58144 18.7787 6.06267 18.9277C6.54846 19.0786 6.86677 18.7166 7.28182 18.2447L7.28188 18.2446L7.28204 18.2445C7.36425 18.151 7.45026 18.0532 7.54212 17.9542C7.84716 17.6255 8.2684 17.1427 8.58581 16.7736C11.4621 17.0157 13.6743 16.4624 13.9256 16.3806C13.9774 16.3638 14.0508 16.3451 14.1419 16.322C15.0712 16.0857 17.8403 15.3816 18.3271 11.4086C18.8788 6.91184 18.0602 4.06752 16.581 2.78551ZM17.0685 11.085C16.6623 14.3659 14.4608 14.8782 13.6676 15.0628C13.5799 15.0832 13.5094 15.0996 13.4605 15.1153C13.2515 15.1825 11.3085 15.6659 8.86529 15.5064C8.86529 15.5064 7.04476 17.7027 6.47611 18.2738C6.38734 18.3631 6.28297 18.3991 6.2133 18.3814C6.11539 18.3574 6.08849 18.2415 6.08957 18.072C6.09118 17.8299 6.10517 15.0722 6.10517 15.0722C2.66505 14.1171 2.74528 10.6135 2.79082 8.62494L2.79523 8.42653C2.83558 6.48199 3.20087 4.88902 4.28598 3.81763C6.23563 2.0517 10.2519 2.31558 10.2519 2.31558C13.6437 2.33038 15.2689 3.35174 15.6458 3.69389C16.8971 4.76529 17.5346 7.32905 17.0685 11.085ZM10.6332 6.63916C10.5731 6.63603 10.5142 6.65688 10.4695 6.69713C10.4249 6.73739 10.398 6.79375 10.3948 6.85382C10.3917 6.91389 10.4126 6.97275 10.4528 7.01744C10.4931 7.06214 10.5494 7.08901 10.6095 7.09215C11.3495 7.13061 11.7124 7.50747 11.75 8.27814C11.7529 8.33618 11.778 8.39089 11.8201 8.43094C11.8622 8.471 11.9181 8.49333 11.9763 8.49333H11.9878C12.0176 8.49185 12.0467 8.48452 12.0736 8.47177C12.1006 8.45902 12.1247 8.44109 12.1447 8.41901C12.1647 8.39693 12.1801 8.37113 12.1901 8.34308C12.2001 8.31503 12.2045 8.28529 12.203 8.25554C12.1522 7.24924 11.6102 6.69027 10.6332 6.63916ZM13.1397 8.88362H13.1349C13.105 8.88299 13.0756 8.87647 13.0483 8.86444C13.0209 8.85241 12.9963 8.8351 12.9756 8.81351C12.955 8.79191 12.9389 8.76646 12.9281 8.73861C12.9174 8.71076 12.9122 8.68106 12.913 8.65121C12.9299 7.87597 12.7077 7.24734 12.2362 6.73249C11.7646 6.21764 11.1183 5.93681 10.2604 5.87414C10.2005 5.86972 10.1447 5.84164 10.1054 5.79609C10.0661 5.75054 10.0465 5.69124 10.0509 5.63124C10.0553 5.57124 10.0834 5.51546 10.129 5.47616C10.1515 5.4567 10.1777 5.44188 10.206 5.43253C10.2342 5.42319 10.2641 5.41951 10.2938 5.4217C11.2587 5.49325 12.0237 5.82949 12.5708 6.42719C13.1179 7.02489 13.3856 7.77672 13.3665 8.6617C13.3652 8.721 13.3408 8.77744 13.2984 8.81892C13.256 8.86041 13.199 8.88363 13.1397 8.88362ZM9.87908 4.24561H9.87747C9.84769 4.2455 9.81818 4.25126 9.79063 4.26256C9.76308 4.27386 9.73802 4.29047 9.71689 4.31145C9.67421 4.35383 9.65012 4.41142 9.6499 4.47156C9.64969 4.5317 9.67338 4.58946 9.71575 4.63214C9.75812 4.67482 9.81572 4.69891 9.87586 4.69913C11.071 4.70746 12.0829 5.10745 12.884 5.88834C13.685 6.66922 14.0944 7.75621 14.1041 9.1243C14.1047 9.18407 14.1288 9.24119 14.1713 9.28325C14.2138 9.32532 14.2711 9.34891 14.3309 9.34891H14.3325C14.3926 9.34841 14.4501 9.32409 14.4923 9.28127C14.5345 9.23846 14.558 9.18065 14.5576 9.12053C14.5461 7.62736 14.0888 6.43035 13.2011 5.5634C12.3134 4.69644 11.1953 4.25475 9.87908 4.24561ZM13.9733 11.6741C14.0074 11.7022 14.0275 11.7188 14.0278 11.7188C14.2747 11.9273 14.3307 12.2334 14.1626 12.5562C14.1626 12.5571 14.1623 12.5583 14.162 12.5594C14.1616 12.5608 14.1612 12.562 14.1612 12.5629C13.9761 12.8839 13.741 13.1734 13.4648 13.4204C13.4639 13.4209 13.4632 13.4214 13.4627 13.4218C13.4613 13.423 13.4607 13.4241 13.4586 13.4253C13.2189 13.6258 12.9831 13.7397 12.7514 13.7672C12.7173 13.7731 12.6827 13.7752 12.6481 13.7736C12.5461 13.7747 12.4445 13.7591 12.3474 13.7274L12.3399 13.7163C11.9829 13.6157 11.3877 13.364 10.3959 12.8168C9.82193 12.504 9.27554 12.1431 8.76257 11.7379C8.50575 11.535 8.26083 11.3175 8.02903 11.0864L8.00428 11.0617L7.97953 11.0369L7.95478 11.0122L7.93004 10.9874C7.69894 10.7553 7.48141 10.51 7.27854 10.2528C6.87345 9.73988 6.51252 9.19358 6.19961 8.61975C5.65248 7.62771 5.40071 7.0327 5.30011 6.67548L5.28908 6.66795C5.25758 6.57085 5.24205 6.46929 5.24308 6.36721C5.24124 6.33266 5.24332 6.29801 5.24927 6.26392C5.27814 6.03295 5.39255 5.79704 5.5925 5.5562C5.59327 5.55479 5.59404 5.55405 5.59482 5.55331C5.59566 5.55251 5.5965 5.5517 5.59734 5.55002C5.84431 5.2738 6.13381 5.03879 6.45489 4.85387C6.45566 4.85387 6.45681 4.85349 6.458 4.85311C6.45929 4.85269 6.46063 4.85225 6.46161 4.85225C6.7844 4.68413 7.09051 4.74116 7.29871 4.98675C7.30033 4.98836 7.73206 5.50671 7.91739 5.75983C8.10838 6.02775 8.28538 6.30517 8.44838 6.59209C8.66089 6.97325 8.52774 7.36302 8.319 7.52442L7.89803 7.85904C7.6866 8.03066 7.7135 8.34941 7.7135 8.34941C7.7135 8.34941 8.33621 10.7093 10.6662 11.304C10.6662 11.304 10.985 11.3309 11.1566 11.1195L11.4909 10.6985C11.6523 10.4898 12.0418 10.3566 12.4233 10.5691C12.7091 10.7322 12.9866 10.9094 13.2547 11.1001C13.4583 11.2498 13.8333 11.5588 13.9733 11.6741Z"/></symbol><symbol viewBox="0 0 20 20" id="svg-vk"><path fill-rule="evenodd" clip-rule="evenodd" d="M10.7321 14L10.4224 13.992C10.0123 13.992 9.61544 13.9751 9.23205 13.9418C5.0422 13.5772 2.46429 11.2461 1.85124 7.5C1.77311 7.0226 1.7269 6.52222 1.71333 6H4.4499C4.51261 8.55337 5.5133 10.0723 6.65527 10.8714C7.15036 11.2178 7.672 11.429 8.15527 11.5305V6.00799H10.7321V9.16484C11.2367 9.12138 11.7496 8.94469 12.2321 8.67266C13.2582 8.09411 14.1469 7.08433 14.5273 6.00799H17.1041C16.9729 6.52947 16.7572 7.03362 16.4637 7.50799C16.294 7.78217 16.0984 8.0464 15.8781 8.29828C15.6463 8.56322 15.3891 8.81228 15.1093 9.04339C14.6629 9.41213 14.1589 9.73516 13.6085 10.004C14.1771 10.2297 14.7081 10.5089 15.1905 10.8347C15.5549 11.0808 15.8917 11.3535 16.1961 11.6499C16.4709 11.9174 16.717 12.2018 16.9323 12.5C17.2714 12.9697 17.5344 13.4738 17.7133 14H14.8669C14.6057 13.2513 14.0739 12.5811 13.3383 12.0734C13.0017 11.8412 12.6293 11.6477 12.2321 11.4969C11.761 11.3181 11.2549 11.1993 10.7321 11.1469V14ZM12.2321 13.1487C12.3204 13.1989 12.4053 13.2521 12.4864 13.308C12.9949 13.6589 13.3074 14.0834 13.4506 14.494L13.8015 15.5H19.8077L19.1335 13.5171C18.7583 12.4137 18.1046 11.4144 17.2425 10.5751C16.9882 10.3276 16.7171 10.0952 16.4313 9.87869C16.6339 9.69039 16.8262 9.49266 17.0071 9.2859C17.7525 8.43372 18.2894 7.44433 18.5587 6.37401L19.0283 4.50799H13.4665L13.113 5.50813C12.9574 5.94848 12.6467 6.41705 12.2321 6.81388V4.50799H6.65527V8.72016C6.26696 8.09649 5.98007 7.20996 5.94945 5.96318L5.91352 4.5H0.173828L0.213832 6.03898C0.286783 8.84551 1.21061 11.2616 3.04678 12.9679C4.87002 14.6622 7.41145 15.4884 10.4026 15.492L12.2321 15.5392V13.1487Z"/></symbol><symbol viewBox="0 0 20 20" id="svg-wtsp"><path d="M1.5 18.4994L2.70035 14.1337C1.9594 12.8532 1.57041 11.4009 1.57253 9.92304C1.57253 5.27747 5.37148 1.5 10.0368 1.5C11.1486 1.50029 12.2494 1.71859 13.2764 2.14242C14.3034 2.56625 15.2364 3.18731 16.0223 3.97014C16.8082 4.75298 17.4315 5.68225 17.8566 6.7049C18.2818 7.72755 18.5004 8.82355 18.5 9.93032C18.5 14.5759 14.7005 18.3539 10.0351 18.3539H10.0318C8.61868 18.3538 7.22814 18.0013 5.98712 17.3285L1.5 18.4994ZM6.19458 15.8033L6.45208 15.955C7.53595 16.5942 8.77257 16.9313 10.0323 16.9311V16.9311C11.8983 16.9315 13.688 16.1939 15.0077 14.8806C16.3274 13.5674 17.069 11.786 17.0694 9.92836C17.0698 8.07073 16.3289 6.28904 15.0097 4.97524C13.6905 3.66144 11.9011 2.92315 10.0351 2.92278C6.15579 2.92278 2.99889 6.0633 2.99721 9.9236C2.99514 11.2419 3.36803 12.5339 4.07274 13.6501L4.24141 13.9149L3.53188 16.4996L6.19458 15.8033Z"/><path fill-rule="evenodd" clip-rule="evenodd" d="M7.92058 6.40207C7.76203 6.05113 7.59505 6.04441 7.44437 6.03826C7.32124 6.03266 7.18012 6.03322 7.039 6.03322C6.93211 6.03625 6.82699 6.06122 6.73024 6.10659C6.6335 6.15195 6.5472 6.21672 6.47678 6.29684C6.28281 6.50729 5.73633 7.01662 5.73633 8.05264C5.73633 9.08866 6.49421 10.0894 6.59991 10.2299C6.7056 10.3704 8.06169 12.5644 10.2128 13.4079C11.9995 14.1098 12.3633 13.9676 12.7507 13.9352C13.138 13.9027 14.0022 13.4258 14.1787 12.9339C14.3552 12.4419 14.3547 12.021 14.3018 11.9331C14.249 11.8452 14.1079 11.7926 13.8965 11.6874C13.6851 11.5822 12.645 11.0717 12.451 11.0023C12.257 10.9329 12.1137 10.8971 11.9753 11.1081C11.837 11.3191 11.4294 11.7926 11.3057 11.9331C11.182 12.0736 11.0589 12.0915 10.8475 11.9863C10.6361 11.881 9.95471 11.6583 9.14679 10.9413C8.51822 10.3816 8.09374 9.69371 7.97005 9.48326C7.84636 9.27281 7.95712 9.15863 8.06282 9.0534C8.15783 8.95937 8.27478 8.80769 8.38048 8.68455C8.46719 8.57807 8.53836 8.45992 8.59187 8.33362C8.61986 8.27548 8.63286 8.21132 8.62972 8.14693C8.62658 8.08254 8.60739 8.01994 8.57388 7.96477C8.51935 7.85955 8.10836 6.81681 7.92058 6.40207Z"/></symbol></svg>