<svg width="20" height="20" viewBox="0 0 20 20" fill="none" xmlns="http://www.w3.org/2000/svg">
<path fill-rule="evenodd" clip-rule="evenodd" d="M9.23122 1.54297C5.06494 1.54297 1.6875 4.92041 1.6875 9.08669C1.6875 13.253 5.06494 16.6304 9.23122 16.6304C10.9392 16.6304 12.5146 16.0628 13.7791 15.1059L16.8848 18.2116C17.2102 18.5371 17.7379 18.5371 18.0633 18.2116C18.3888 17.8862 18.3888 17.3586 18.0633 17.0331L14.99 13.9598C16.1035 12.6452 16.7749 10.9444 16.7749 9.08669C16.7749 4.92041 13.3975 1.54297 9.23122 1.54297ZM3.35417 9.08669C3.35417 5.84088 5.98541 3.20964 9.23122 3.20964C12.477 3.20964 15.1083 5.84088 15.1083 9.08669C15.1083 12.3325 12.477 14.9637 9.23122 14.9637C5.98541 14.9637 3.35417 12.3325 3.35417 9.08669Z" fill="#23262F"/>
</svg>
