<svg width="120" height="28" viewBox="0 0 120 28" fill="none" xmlns="http://www.w3.org/2000/svg">
<g clip-path="url(#clip0_338_2818)">
<mask id="mask0_338_2818" style="mask-type:luminance" maskUnits="userSpaceOnUse" x="0" y="0" width="120" height="28">
<path d="M120 0H0V27.331H120V0Z" fill="white"/>
</mask>
<g mask="url(#mask0_338_2818)">
<path d="M31.4255 11.4087V15.1698H22.9355V11.4087H31.4255Z" fill="#F84525"/>
<path d="M41.4362 1.00293C48.5323 1.00293 51.8269 5.14018 51.8269 10.9073C51.8269 16.6744 48.5323 20.8116 41.4362 20.8116H33.4531V1.00293H41.4362ZM41.4362 5.5163H38.7752V16.2982H41.4362C44.6041 16.2982 46.5049 14.6684 46.5049 10.9073C46.5049 7.14613 44.6041 5.5163 41.4362 5.5163Z" fill="#F84525"/>
<path d="M56.2624 5.2656C54.8685 5.2656 53.4746 4.51337 53.4746 2.6328C53.4746 0.752228 54.7418 0 56.2624 0C57.783 0 59.0501 0.752228 59.0501 2.6328C59.0501 4.51337 57.783 5.2656 56.2624 5.2656ZM53.8548 20.6863V7.14617H58.67V20.6863H53.8548Z" fill="#F84525"/>
<path d="M67.2865 6.77002C69.6941 6.77002 71.2147 7.89836 71.975 9.0267V7.14613H76.2833V20.1848C76.2833 25.5757 72.3551 27.3309 68.1735 27.3309C66.0193 27.3309 63.8652 26.8294 62.2179 26.0772V21.94C63.7384 22.8176 65.6392 23.319 67.4132 23.319C69.5674 23.319 71.3414 22.6922 71.3414 20.3101V19.4325C70.4544 20.3101 69.1872 20.937 67.2865 20.937C62.7247 20.937 60.6973 17.3012 60.6973 13.7908C60.6973 10.2804 62.7247 6.77002 67.2865 6.77002ZM68.5537 10.7819C66.5262 10.7819 65.6392 12.4117 65.6392 14.0416C65.6392 15.6714 66.5262 17.3012 68.5537 17.3012C69.9475 17.3012 70.8345 16.4236 71.3414 15.546V12.4117C70.9613 11.5341 69.9475 10.7819 68.5537 10.7819Z" fill="#F84525"/>
<path d="M80.5915 5.2656C79.1976 5.2656 77.8037 4.51337 77.8037 2.6328C77.8037 0.752228 79.0709 0 80.5915 0C82.112 0 83.3792 0.752228 83.3792 2.6328C83.3792 4.51337 82.112 5.2656 80.5915 5.2656ZM78.1839 20.6863V7.14617H82.9991V20.6863H78.1839Z" fill="#F84525"/>
<path d="M91.9955 2.25659V7.14608H95.6703V11.158H91.9955V15.546C91.9955 16.6743 92.6291 17.1758 93.7695 17.1758C94.5298 17.1758 95.1634 17.0504 95.9237 16.7997V20.5608C94.7833 20.9369 93.6428 21.1877 92.2489 21.1877C89.5879 21.1877 87.0536 20.0593 87.0536 16.5489V11.158H84.8994V7.14608H87.0536V3.38493L91.9955 2.25659Z" fill="#F84525"/>
<path d="M112.651 17.6773C112.778 17.6773 113.031 17.6773 113.158 17.552V20.5609C112.524 20.8116 111.637 20.937 110.75 20.937C109.23 20.937 108.089 20.4355 107.456 19.4325C106.188 20.4355 104.668 21.0624 102.64 21.0624C99.9794 21.0624 97.8252 19.5579 97.8252 16.9251C97.8252 13.5401 101.12 12.4117 103.781 12.4117C104.795 12.4117 105.808 12.5371 106.695 12.6625V12.4117C106.695 11.4088 105.808 10.6565 103.781 10.6565C102.007 10.6565 100.36 11.158 98.9656 11.6595V7.64762C100.106 7.2715 102.26 6.77002 104.288 6.77002C108.596 6.77002 111.384 8.27448 111.384 13.0386V16.7997C111.764 17.552 112.144 17.6773 112.651 17.6773ZM104.668 17.9281C105.428 17.9281 106.188 17.8027 106.949 17.1758V15.2953C106.569 15.1699 105.808 15.0445 105.175 15.0445C104.034 15.0445 103.021 15.4206 103.021 16.549C103.021 17.3012 103.654 17.9281 104.668 17.9281Z" fill="#F84525"/>
<path d="M120 0.125488V20.6864H115.185V0.125488H120Z" fill="#F84525"/>
<path d="M15.3331 13.0388H9.63086L15.9667 21.188H21.5422L15.3331 13.0388Z" fill="#F84525"/>
<path d="M10.3907 0.626953C4.68849 0.626953 0 5.14032 0 10.9074C0 16.6745 4.68849 21.1879 10.3907 21.1879C16.0929 21.1879 20.7814 16.5491 20.7814 10.9074C20.7814 5.26569 16.2196 0.626953 10.3907 0.626953ZM10.3907 16.173C7.47624 16.173 5.06864 13.7909 5.06864 10.9074C5.06864 8.02386 7.47624 5.64181 10.3907 5.64181C13.3052 5.64181 15.7128 8.02386 15.7128 10.9074C15.7128 13.7909 13.4319 16.173 10.3907 16.173Z" fill="#F84525"/>
</g>
</g>
<defs>
<clipPath id="clip0_338_2818">
<rect width="120" height="28" fill="white"/>
</clipPath>
</defs>
</svg>
