<svg width="294" height="68" viewBox="0 0 294 68" fill="none" xmlns="http://www.w3.org/2000/svg">
<mask id="mask0_338_2411" style="mask-type:luminance" maskUnits="userSpaceOnUse" x="0" y="0" width="294" height="67">
<path d="M294 0H0V66.3753H294V0Z" fill="white"/>
</mask>
<g mask="url(#mask0_338_2411)">
<path d="M76.9929 27.707V36.8411H56.1924V27.707H76.9929Z" fill="white"/>
<path d="M101.519 2.43555C118.904 2.43555 126.976 12.4832 126.976 26.489C126.976 40.4948 118.904 50.5423 101.519 50.5423H81.96V2.43555H101.519ZM101.519 13.3966H94.9991V39.5812H101.519C109.28 39.5812 113.937 35.6231 113.937 26.489C113.937 17.3547 109.28 13.3966 101.519 13.3966Z" fill="white"/>
<path d="M137.843 12.7879C134.428 12.7879 131.013 10.961 131.013 6.39394C131.013 1.82684 134.117 0 137.843 0C141.568 0 144.673 1.82684 144.673 6.39394C144.673 10.961 141.568 12.7879 137.843 12.7879ZM131.944 50.2382V17.355H143.741V50.2382H131.944Z" fill="white"/>
<path d="M164.852 16.4414C170.75 16.4414 174.476 19.1817 176.338 21.9219V17.3548H186.894V49.0202C186.894 62.1123 177.27 66.375 167.025 66.375C161.747 66.375 156.469 65.157 152.433 63.3303V53.2828C156.159 55.4141 160.816 56.6318 165.162 56.6318C170.44 56.6318 174.786 55.1096 174.786 49.3245V47.1931C172.613 49.3245 169.508 50.8469 164.852 50.8469C153.675 50.8469 148.708 42.0171 148.708 33.4919C148.708 24.9666 153.675 16.4414 164.852 16.4414ZM167.956 26.1845C162.989 26.1845 160.816 30.1426 160.816 34.101C160.816 38.059 162.989 42.0171 167.956 42.0171C171.371 42.0171 173.544 39.8858 174.786 37.7545V30.1426C173.855 28.0113 171.371 26.1845 167.956 26.1845Z" fill="white"/>
<path d="M197.449 12.7879C194.034 12.7879 190.619 10.961 190.619 6.39394C190.619 1.82684 193.724 0 197.449 0C201.174 0 204.279 1.82684 204.279 6.39394C204.279 10.961 201.174 12.7879 197.449 12.7879ZM191.551 50.2382V17.355H203.348V50.2382H191.551Z" fill="white"/>
<path d="M225.389 5.48047V17.3549H234.393V27.0982H225.389V37.7547C225.389 40.4949 226.942 41.7128 229.736 41.7128C231.598 41.7128 233.151 41.4083 235.013 40.7994V49.9336C232.219 50.8469 229.425 51.456 226.01 51.456C219.491 51.456 213.282 48.7156 213.282 40.1904V27.0982H208.004V17.3549H213.282V8.22072L225.389 5.48047Z" fill="white"/>
<path d="M275.995 42.9305C276.306 42.9305 276.926 42.9305 277.237 42.6262V49.9335C275.684 50.5424 273.511 50.8469 271.338 50.8469C267.614 50.8469 264.818 49.629 263.267 47.1931C260.161 49.629 256.437 51.1515 251.468 51.1515C244.95 51.1515 239.672 47.4977 239.672 41.1037C239.672 32.883 247.744 30.1426 254.264 30.1426C256.748 30.1426 259.23 30.4472 261.403 30.7517V30.1426C261.403 27.707 259.23 25.88 254.264 25.88C249.917 25.88 245.882 27.0979 242.466 28.3159V18.5727C245.26 17.6593 250.537 16.4414 255.506 16.4414C266.06 16.4414 272.891 20.0951 272.891 31.6651V40.7992C273.822 42.6262 274.753 42.9305 275.995 42.9305ZM256.437 43.5396C258.299 43.5396 260.161 43.2351 262.025 41.7126V37.1457C261.094 36.8411 259.23 36.5366 257.679 36.5366C254.883 36.5366 252.402 37.45 252.402 40.1904C252.402 42.0171 253.952 43.5396 256.437 43.5396Z" fill="white"/>
<path d="M293.999 0.304688V50.2383H282.202V0.304688H293.999Z" fill="white"/>
<path d="M37.5662 31.666H23.5957L39.1185 51.4569H52.7785L37.5662 31.666Z" fill="white"/>
<path d="M25.4572 1.52246C11.4868 1.52246 0 12.4835 0 26.4893C0 40.4951 11.4868 51.4562 25.4572 51.4562C39.4276 51.4562 50.9144 40.1905 50.9144 26.4893C50.9144 12.788 39.738 1.52246 25.4572 1.52246ZM25.4572 39.2771C18.3168 39.2771 12.4182 33.492 12.4182 26.4893C12.4182 19.4864 18.3168 13.7014 25.4572 13.7014C32.5977 13.7014 38.4964 19.4864 38.4964 26.4893C38.4964 33.492 32.9082 39.2771 25.4572 39.2771Z" fill="white"/>
</g>
</svg>
