<svg width="32" height="24" viewBox="0 0 32 24" fill="none" xmlns="http://www.w3.org/2000/svg">
<path d="M6.19683 11.7949C4.43598 11.6581 3.01376 11.0769 1.93016 10.0513C0.846565 9.02564 0.304767 7.65812 0.304767 5.94871C0.304767 4.03418 0.880426 2.5641 2.03175 1.53846C3.18307 0.512819 4.6053 -2.39492e-06 6.29842 -2.2469e-06C8.60106 0.136747 10.2603 0.991449 11.2762 2.5641C12.2921 4.13675 12.8 5.91452 12.8 7.89743C12.8 9.81196 12.5291 11.5897 11.9873 13.2308C11.3778 14.8718 10.5989 16.4103 9.6508 17.8462C8.70265 19.2821 7.61905 20.547 6.4 21.641C5.11323 22.735 3.79259 23.5214 2.4381 24L2.95893e-07 20.6154C1.3545 19.6581 2.64127 18.359 3.86032 16.7179C5.01164 15.0769 5.79048 13.4359 6.19683 11.7949ZM25.3968 11.7949C23.636 11.6581 22.2138 11.0769 21.1302 10.0513C20.0466 9.02564 19.5048 7.65812 19.5048 5.94871C19.5048 4.03418 20.1143 2.5641 21.3333 1.53846C22.4847 0.51282 23.8392 -7.13444e-07 25.3968 -5.77268e-07C27.7672 0.0683743 29.4603 0.888887 30.4762 2.46154C31.4921 4.10256 32 5.91453 32 7.89743C32 9.81196 31.7291 11.5897 31.1873 13.2308C30.5778 14.8718 29.7989 16.4103 28.8508 17.8462C27.9026 19.2821 26.819 20.547 25.6 21.641C24.3132 22.735 22.9926 23.5214 21.6381 24L19.2 20.6154C20.5545 19.6581 21.8413 18.359 23.0603 16.7179C24.2116 15.0769 24.9905 13.4359 25.3968 11.7949Z" fill="#EAEAEA"/>
</svg>
