<svg width="32" height="24" viewBox="0 0 32 24" fill="none" xmlns="http://www.w3.org/2000/svg">
<path d="M25.8032 12.2051C27.564 12.3419 28.9862 12.9231 30.0698 13.9487C31.1534 14.9744 31.6952 16.3419 31.6952 18.0513C31.6952 19.9658 31.1196 21.4359 29.9683 22.4615C28.8169 23.4872 27.3947 24 25.7016 24C23.3989 23.8633 21.7397 23.0085 20.7238 21.4359C19.7079 19.8632 19.2 18.0855 19.2 16.1026C19.2 14.188 19.4709 12.4103 20.0127 10.7692C20.6222 9.12821 21.4011 7.58974 22.3492 6.15384C23.2974 4.71795 24.381 3.45299 25.6 2.35897C26.8868 1.26496 28.2074 0.478634 29.5619 0L32 3.38462C30.6455 4.34188 29.3587 5.64103 28.1397 7.28205C26.9884 8.92308 26.2095 10.5641 25.8032 12.2051ZM6.60317 12.2051C8.36402 12.3419 9.78624 12.9231 10.8698 13.9487C11.9534 14.9744 12.4952 16.3419 12.4952 18.0513C12.4952 19.9658 11.8857 21.4359 10.6667 22.4615C9.51534 23.4872 8.16085 24 6.60317 24C4.2328 23.9316 2.53968 23.1111 1.52381 21.5385C0.507937 19.8974 0 18.0855 0 16.1026C0 14.188 0.2709 12.4103 0.812699 10.7692C1.42222 9.12821 2.20106 7.58974 3.14921 6.15384C4.09735 4.71795 5.18095 3.45299 6.4 2.35897C7.68677 1.26496 9.00741 0.478634 10.3619 0L12.8 3.38462C11.4455 4.34188 10.1587 5.64103 8.93968 7.28205C7.78836 8.92308 7.00952 10.5641 6.60317 12.2051Z" fill="#EAEAEA"/>
</svg>
