<svg width="23" height="16" viewBox="0 0 23 16" fill="none" xmlns="http://www.w3.org/2000/svg">
<path d="M15.8123 9.41669C14.3748 9.41669 13.2248 9.80002 12.3623 10.2792C13.704 11.4292 14.279 12.7709 14.3748 12.8667L14.4706 13.0584V15.1667H22.1373V13.25C22.0415 13.25 20.5081 9.41669 15.8123 9.41669Z" fill="#FF492F"/>
<path d="M15.8122 7.50001C17.6646 7.50001 19.1663 5.99829 19.1663 4.14584C19.1663 2.29338 17.6646 0.791672 15.8122 0.791672C13.9597 0.791672 12.458 2.29338 12.458 4.14584C12.458 5.99829 13.9597 7.50001 15.8122 7.50001Z" fill="#FF492F"/>
<path d="M3.8335 4.14584C3.8335 2.325 5.36683 0.791672 7.18766 0.791672C9.0085 0.791672 10.5418 2.325 10.5418 4.14584C10.5418 5.96667 9.0085 7.5 7.18766 7.5C5.36683 7.5 3.8335 5.96667 3.8335 4.14584ZM7.18766 9.41667C2.49183 9.41667 0.958496 13.25 0.958496 13.25V15.1667H13.4168V13.25C13.4168 13.25 11.8835 9.41667 7.18766 9.41667Z" fill="#FF492F"/>
</svg>
