<svg width="310" height="232" viewBox="0 0 310 232" fill="none" xmlns="http://www.w3.org/2000/svg">
<path opacity="0.4" d="M93 124L92.5179 123.867L93 124ZM309.354 33.0135C309.549 32.8182 309.549 32.5016 309.354 32.3063L306.172 29.1244C305.976 28.9291 305.66 28.9291 305.464 29.1244C305.269 29.3196 305.269 29.6362 305.464 29.8315L308.293 32.6599L305.464 35.4883C305.269 35.6836 305.269 36.0002 305.464 36.1954C305.66 36.3907 305.976 36.3907 306.172 36.1954L309.354 33.0135ZM0.506695 1.08155C5.60205 31.9043 24.0178 79.4878 43.471 110.984C48.3365 118.862 53.2746 125.746 58.0944 131.115C62.9073 136.476 67.6339 140.363 72.0836 142.196C76.5636 144.041 80.7915 143.81 84.479 140.892C88.1224 138.008 91.167 132.554 93.4821 124.133L92.5179 123.867C90.2222 132.218 87.2514 137.422 83.8584 140.108C80.5094 142.758 76.6798 143.008 72.4645 141.271C68.219 139.522 63.6127 135.765 58.8385 130.447C54.0713 125.136 49.1681 118.305 44.3218 110.459C24.9274 79.0575 6.56462 31.5957 1.4933 0.918453L0.506695 1.08155ZM93.4821 124.133C95.6152 116.373 95.9243 110.738 94.8881 106.997C94.3675 105.118 93.5006 103.694 92.3332 102.734C91.163 101.772 89.7288 101.307 88.1335 101.28C84.969 101.225 81.1397 102.89 77.2287 105.863C73.303 108.847 69.2356 113.193 65.5853 118.61C50.9776 140.29 42.9512 179.299 77.6298 217.496L78.3702 216.824C44.0487 179.02 52.0224 140.529 66.4146 119.169C70.0144 113.826 74.0094 109.566 77.8338 106.659C81.6728 103.741 85.281 102.231 88.1164 102.279C89.5211 102.303 90.7276 102.709 91.698 103.507C92.6712 104.307 93.445 105.534 93.9244 107.264C94.8882 110.743 94.6348 116.167 92.5179 123.867L93.4821 124.133ZM77.6298 217.496C86.3181 227.066 95.0962 231.399 103.995 231.552C112.878 231.706 121.776 227.692 130.712 220.79C148.569 206.997 166.8 181.486 185.664 153.691C204.55 125.861 224.089 95.7103 244.593 72.5066C265.115 49.2837 286.485 33.1599 309 33.1599V32.1599C286.015 32.1599 264.385 48.5986 243.844 71.8444C223.286 95.1095 203.7 125.334 184.836 153.129C165.95 180.959 147.806 206.322 130.101 219.999C121.255 226.831 112.575 230.7 104.012 230.553C95.4662 230.405 86.9318 226.254 78.3702 216.824L77.6298 217.496Z" fill="white"/>
</svg>
