<svg width="146" height="45" viewBox="0 0 146 45" fill="none" xmlns="http://www.w3.org/2000/svg">
<path d="M29 17.8H25L30.68 1H35.48L41.84 17.8H37.16L36.08 14.8H30.08L29 17.8ZM31.16 11.68H35L33.08 6.04L31.16 11.68Z" fill="white"/>
<path d="M58.6391 8.44L55.2791 14.44H51.9191L48.5591 8.44V17.8H44.2391V1H48.7991L53.5991 9.88L58.3991 1H62.9591V17.8H58.6391V8.44Z" fill="white"/>
<path d="M70.0484 17.8H65.3684L71.7284 1H76.5284L82.8884 17.8H78.2084L77.1284 14.8H71.1284L70.0484 17.8ZM72.2084 11.68H76.0484L74.1284 6.04L72.2084 11.68Z" fill="white"/>
<path d="M98.0075 4.36L89.6075 14.44H98.0075V17.8H84.3275V14.44L92.7275 4.36H84.3275V1H98.0075V4.36Z" fill="white"/>
<path d="M109.056 17.8H100.416V14.44H102.576V4.36H100.416V1H109.056V4.36H106.896V14.44H109.056V17.8Z" fill="white"/>
<path d="M127.054 17.8H122.494L116.734 7.72V17.8H112.414V1H116.974L122.734 11.08V1H127.054V17.8Z" fill="white"/>
<path d="M145.545 17.44C141.801 17.84 138.361 18.04 135.225 18.04C133.657 18.04 132.505 17.672 131.769 16.936C131.033 16.2 130.665 15.048 130.665 13.48V5.8C130.665 4.12 131.041 2.904 131.793 2.152C132.561 1.384 133.785 1 135.465 1H144.105V4.36H136.425C135.465 4.36 134.985 4.84 134.985 5.8V13.48C134.985 13.848 135.089 14.144 135.297 14.368C135.521 14.576 135.817 14.68 136.185 14.68C138.025 14.68 139.705 14.64 141.225 14.56V11.08H138.105V8.2H145.545V17.44Z" fill="white"/>
<path d="M26 27H36.08C37.76 27 38.976 27.384 39.728 28.152C40.496 28.904 40.88 30.12 40.88 31.8V33.96C40.88 35.288 40.656 36.32 40.208 37.056C39.776 37.792 39.08 38.28 38.12 38.52L41.12 43.8H36.44L33.68 38.76H30.32V43.8H26V27ZM36.56 31.8C36.56 30.84 36.08 30.36 35.12 30.36H30.32V35.4H35.12C36.08 35.4 36.56 34.92 36.56 33.96V31.8Z" fill="white"/>
<path d="M57.7934 43.8H44.4734V27H57.7934V30.36H48.7934V33.6H55.8734V36.96H48.7934V40.44H57.7934V43.8Z" fill="white"/>
<path d="M65.2278 40.44H73.9878V43.8H60.9078V27H65.2278V40.44Z" fill="white"/>
<path d="M79.8734 43.8H75.1934L81.5534 27H86.3534L92.7134 43.8H88.0334L86.9534 40.8H80.9534L79.8734 43.8ZM82.0334 37.68H85.8734L83.9534 32.04L82.0334 37.68Z" fill="white"/>
<path d="M91.2706 27H95.8306L99.7906 35.16L103.751 27H108.311L101.951 39.36V43.8H97.6306V39.36L91.2706 27Z" fill="white"/>
<path d="M21 2C20.4865 3.91583 14.3243 61.3908 2 36.9639" stroke="#EE7937" stroke-width="3" stroke-linecap="round"/>
</svg>
