<svg width="146" height="45" viewBox="0 0 146 45" fill="none" xmlns="http://www.w3.org/2000/svg">
<path d="M29.1995 17.8H28.5195L30.8795 1H35.6795L42.0395 17.8H37.3595L36.2795 14.8H30.2795L29.1995 17.8ZM31.3595 11.68H35.1995L33.2795 6.04L31.3595 11.68Z" fill="white"/>
<path d="M58.8385 8.44L55.4785 14.44H52.1185L48.7585 8.44V17.8H44.4385V1H48.9985L53.7985 9.88L58.5985 1H63.1585V17.8H58.8385V8.44Z" fill="white"/>
<path d="M70.2479 17.8H65.5679L71.9279 1H76.7279L83.0879 17.8H78.4079L77.3279 14.8H71.3279L70.2479 17.8ZM72.4079 11.68H76.2479L74.3279 6.04L72.4079 11.68Z" fill="white"/>
<path d="M98.207 4.36L89.807 14.44H98.207V17.8H84.527V14.44L92.927 4.36H84.527V1H98.207V4.36Z" fill="white"/>
<path d="M109.255 17.8H100.615V14.44H102.775V4.36H100.615V1H109.255V4.36H107.095V14.44H109.255V17.8Z" fill="white"/>
<path d="M127.254 17.8H122.694L116.934 7.72V17.8H112.614V1H117.174L122.934 11.08V1H127.254V17.8Z" fill="white"/>
<path d="M145.745 17.44C142.001 17.84 138.561 18.04 135.425 18.04C133.857 18.04 132.705 17.672 131.969 16.936C131.233 16.2 130.865 15.048 130.865 13.48V5.8C130.865 4.12 131.241 2.904 131.993 2.152C132.761 1.384 133.985 1 135.665 1H144.305V4.36H136.625C135.665 4.36 135.185 4.84 135.185 5.8V13.48C135.185 13.848 135.289 14.144 135.497 14.368C135.721 14.576 136.017 14.68 136.385 14.68C138.225 14.68 139.905 14.64 141.425 14.56V11.08H138.305V8.2H145.745V17.44Z" fill="white"/>
<path d="M26.1995 27H36.2795C37.9595 27 39.1755 27.384 39.9275 28.152C40.6955 28.904 41.0795 30.12 41.0795 31.8V33.96C41.0795 35.288 40.8555 36.32 40.4075 37.056C39.9755 37.792 39.2795 38.28 38.3195 38.52L41.3195 43.8H36.6395L33.8795 38.76H30.5195V43.8H26.1995V27ZM36.7595 31.8C36.7595 30.84 36.2795 30.36 35.3195 30.36H30.5195V35.4H35.3195C36.2795 35.4 36.7595 34.92 36.7595 33.96V31.8Z" fill="white"/>
<path d="M57.9929 43.8H44.6729V27H57.9929V30.36H48.9929V33.6H56.0729V36.96H48.9929V40.44H57.9929V43.8Z" fill="white"/>
<path d="M65.4273 40.44H74.1873V43.8H61.1073V27H65.4273V40.44Z" fill="white"/>
<path d="M80.0729 43.8H75.3929L81.7529 27H86.5529L92.9129 43.8H88.2329L87.1529 40.8H81.1529L80.0729 43.8ZM82.2329 37.68H86.0729L84.1529 32.04L82.2329 37.68Z" fill="white"/>
<path d="M91.4701 27H96.0301L99.9901 35.16L103.95 27H108.51L102.15 39.36V43.8H97.8301V39.36L91.4701 27Z" fill="white"/>
<path d="M21 2C20.4865 3.91583 14.3243 61.3908 2 36.9639" stroke="#EE7937" stroke-width="3" stroke-linecap="round"/>
</svg>
