<svg width="60" height="60" viewBox="0 0 60 60" fill="none" xmlns="http://www.w3.org/2000/svg">
<path d="M38.9749 32.525C30.8749 32.525 24.2749 25.925 24.2749 17.825C24.2749 9.72501 30.8749 3.125 38.9749 3.125C47.0749 3.125 53.6749 9.72501 53.6749 17.825C53.6749 25.925 47.0749 32.525 38.9749 32.525ZM38.9749 6.875C32.9499 6.875 28.0249 11.775 28.0249 17.825C28.0249 23.875 32.9249 28.775 38.9749 28.775C45.0249 28.775 49.9249 23.875 49.9249 17.825C49.9249 11.775 44.9999 6.875 38.9749 6.875Z" fill="#F84525"/>
<path d="M15.9007 50.4752C10.6257 50.4752 6.32568 46.1752 6.32568 40.9002C6.32568 35.6252 10.6257 31.3252 15.9007 31.3252C21.1756 31.3252 25.4757 35.6252 25.4757 40.9002C25.4757 46.1752 21.1756 50.4752 15.9007 50.4752ZM15.9007 35.0752C12.7007 35.0752 10.0757 37.6752 10.0757 40.9002C10.0757 44.1002 12.6757 46.7252 15.9007 46.7252C19.1006 46.7252 21.7257 44.1252 21.7257 40.9002C21.7257 37.7002 19.1006 35.0752 15.9007 35.0752Z" fill="#DADADA"/>
<path d="M41.5501 56.8749C36.9751 56.8749 33.2751 53.1499 33.2751 48.5999C33.2751 44.0249 37.0001 40.325 41.5501 40.325C46.1001 40.325 49.8251 44.0499 49.8251 48.5999C49.8251 53.1499 46.1001 56.8749 41.5501 56.8749ZM41.5501 44.0499C39.0501 44.0499 37.0251 46.0749 37.0251 48.5749C37.0251 51.0749 39.0501 53.1 41.5501 53.1C44.0501 53.1 46.0751 51.0749 46.0751 48.5749C46.0751 46.0999 44.0501 44.0499 41.5501 44.0499Z" fill="#DADADA"/>
</svg>
