<svg width="60" height="60" viewBox="0 0 60 60" fill="none" xmlns="http://www.w3.org/2000/svg">
<path d="M20 14.375C18.975 14.375 18.125 13.525 18.125 12.5V5C18.125 3.975 18.975 3.125 20 3.125C21.025 3.125 21.875 3.975 21.875 5V12.5C21.875 13.525 21.025 14.375 20 14.375Z" fill="#DADADA"/>
<path d="M40 14.375C38.975 14.375 38.125 13.525 38.125 12.5V5C38.125 3.975 38.975 3.125 40 3.125C41.025 3.125 41.875 3.975 41.875 5V12.5C41.875 13.525 41.025 14.375 40 14.375Z" fill="#DADADA"/>
<path d="M21.25 36.25C20.925 36.25 20.6 36.1751 20.3 36.0501C19.975 35.9251 19.725 35.75 19.475 35.525C19.025 35.05 18.75 34.425 18.75 33.75C18.75 33.425 18.825 33.1 18.95 32.8C19.075 32.5 19.25 32.2251 19.475 31.9751C19.725 31.7501 19.975 31.575 20.3 31.45C21.2 31.075 22.325 31.2751 23.025 31.9751C23.475 32.4501 23.75 33.1 23.75 33.75C23.75 33.9 23.725 34.0751 23.7 34.2501C23.675 34.4001 23.625 34.5501 23.55 34.7001C23.5 34.8501 23.425 35 23.325 35.15C23.25 35.275 23.125 35.4 23.025 35.525C22.55 35.975 21.9 36.25 21.25 36.25Z" fill="#F84525"/>
<path d="M30 36.25C29.675 36.25 29.35 36.175 29.05 36.05C28.725 35.925 28.475 35.75 28.225 35.525C27.775 35.05 27.5 34.425 27.5 33.75C27.5 33.425 27.575 33.1 27.7 32.8C27.825 32.5 28 32.225 28.225 31.975C28.475 31.75 28.725 31.575 29.05 31.45C29.95 31.05 31.075 31.275 31.775 31.975C32.225 32.45 32.5 33.1 32.5 33.75C32.5 33.9 32.475 34.075 32.45 34.25C32.425 34.4 32.375 34.55 32.3 34.7C32.25 34.85 32.175 35 32.075 35.15C32 35.275 31.875 35.4 31.775 35.525C31.3 35.975 30.65 36.25 30 36.25Z" fill="#F84525"/>
<path d="M38.75 36.25C38.425 36.25 38.1 36.175 37.8 36.05C37.475 35.925 37.225 35.75 36.975 35.525C36.875 35.4 36.775 35.275 36.675 35.15C36.575 35 36.5 34.85 36.45 34.7C36.375 34.55 36.325 34.4 36.3 34.25C36.275 34.075 36.25 33.9 36.25 33.75C36.25 33.1 36.525 32.45 36.975 31.975C37.225 31.75 37.475 31.575 37.8 31.45C38.725 31.05 39.825 31.275 40.525 31.975C40.975 32.45 41.25 33.1 41.25 33.75C41.25 33.9 41.225 34.075 41.2 34.25C41.175 34.4 41.125 34.55 41.05 34.7C41 34.85 40.925 35 40.825 35.15C40.75 35.275 40.625 35.4 40.525 35.525C40.05 35.975 39.4 36.25 38.75 36.25Z" fill="#F84525"/>
<path d="M21.25 45C20.925 45 20.6 44.925 20.3 44.8C20 44.675 19.725 44.5 19.475 44.275C19.025 43.8 18.75 43.15 18.75 42.5C18.75 42.175 18.825 41.85 18.95 41.55C19.075 41.225 19.25 40.95 19.475 40.725C20.4 39.8 22.1 39.8 23.025 40.725C23.475 41.2 23.75 41.85 23.75 42.5C23.75 43.15 23.475 43.8 23.025 44.275C22.55 44.725 21.9 45 21.25 45Z" fill="#F84525"/>
<path d="M30 45C29.35 45 28.7 44.725 28.225 44.275C27.775 43.8 27.5 43.15 27.5 42.5C27.5 42.175 27.575 41.85 27.7 41.55C27.825 41.225 28 40.95 28.225 40.725C29.15 39.8 30.85 39.8 31.775 40.725C32 40.95 32.175 41.225 32.3 41.55C32.425 41.85 32.5 42.175 32.5 42.5C32.5 43.15 32.225 43.8 31.775 44.275C31.3 44.725 30.65 45 30 45Z" fill="#F84525"/>
<path d="M38.75 45.0001C38.1 45.0001 37.45 44.7251 36.975 44.2751C36.75 44.0501 36.575 43.7751 36.45 43.4501C36.325 43.1501 36.25 42.8251 36.25 42.5001C36.25 42.1751 36.325 41.8501 36.45 41.5501C36.575 41.2251 36.75 40.9501 36.975 40.7251C37.55 40.1501 38.425 39.8751 39.225 40.0501C39.4 40.0751 39.55 40.1251 39.7 40.2001C39.85 40.2501 40 40.3251 40.15 40.4251C40.275 40.5001 40.4 40.6251 40.525 40.7251C40.975 41.2001 41.25 41.8501 41.25 42.5001C41.25 43.1501 40.975 43.8001 40.525 44.2751C40.05 44.7251 39.4 45.0001 38.75 45.0001Z" fill="#F84525"/>
<path d="M51.25 24.5999H8.75C7.725 24.5999 6.875 23.7499 6.875 22.7249C6.875 21.6999 7.725 20.8499 8.75 20.8499H51.25C52.275 20.8499 53.125 21.6999 53.125 22.7249C53.125 23.7499 52.275 24.5999 51.25 24.5999Z" fill="#DADADA"/>
<path d="M40 56.875H20C10.875 56.875 5.625 51.625 5.625 42.5V21.25C5.625 12.125 10.875 6.875 20 6.875H40C49.125 6.875 54.375 12.125 54.375 21.25V42.5C54.375 51.625 49.125 56.875 40 56.875ZM20 10.625C12.85 10.625 9.375 14.1 9.375 21.25V42.5C9.375 49.65 12.85 53.125 20 53.125H40C47.15 53.125 50.625 49.65 50.625 42.5V21.25C50.625 14.1 47.15 10.625 40 10.625H20Z" fill="#DADADA"/>
</svg>
