<svg width="60" height="60" viewBox="0 0 60 60" fill="none" xmlns="http://www.w3.org/2000/svg">
<path d="M52.5 56.875H7.5C6.475 56.875 5.625 56.025 5.625 55C5.625 53.975 6.475 53.125 7.5 53.125H52.5C53.525 53.125 54.375 53.975 54.375 55C54.375 56.025 53.525 56.875 52.5 56.875Z" fill="#DADADA"/>
<path d="M13.9999 49.3749H10C7.6 49.3749 5.625 47.3999 5.625 44.9999V23.45C5.625 21.05 7.6 19.075 10 19.075H13.9999C16.3999 19.075 18.3749 21.05 18.3749 23.45V44.9999C18.3749 47.3999 16.3999 49.3749 13.9999 49.3749ZM10 22.7999C9.65 22.7999 9.375 23.0749 9.375 23.4249V44.9999C9.375 45.3499 9.65 45.6249 10 45.6249H13.9999C14.3499 45.6249 14.6249 45.3499 14.6249 44.9999V23.45C14.6249 23.1 14.3499 22.825 13.9999 22.825H10V22.7999Z" fill="#DADADA"/>
<path d="M32.0004 49.3751H28.0005C25.6005 49.3751 23.6255 47.4001 23.6255 45.0001V15.4751C23.6255 13.0751 25.6005 11.1001 28.0005 11.1001H32.0004C34.4004 11.1001 36.3754 13.0751 36.3754 15.4751V45.0001C36.3754 47.4001 34.4004 49.3751 32.0004 49.3751ZM28.0005 14.8501C27.6505 14.8501 27.3755 15.1251 27.3755 15.4751V45.0001C27.3755 45.3501 27.6505 45.6251 28.0005 45.6251H32.0004C32.3504 45.6251 32.6254 45.3501 32.6254 45.0001V15.4751C32.6254 15.1251 32.3504 14.8501 32.0004 14.8501H28.0005Z" fill="#DADADA"/>
<path d="M49.9997 49.375H45.9998C43.5998 49.375 41.6248 47.4 41.6248 45V7.5C41.6248 5.1 43.5998 3.125 45.9998 3.125H49.9997C52.3997 3.125 54.3747 5.1 54.3747 7.5V45C54.3747 47.4 52.3997 49.375 49.9997 49.375ZM45.9998 6.875C45.6498 6.875 45.3748 7.15 45.3748 7.5V45C45.3748 45.35 45.6498 45.625 45.9998 45.625H49.9997C50.3497 45.625 50.6247 45.35 50.6247 45V7.5C50.6247 7.15 50.3497 6.875 49.9997 6.875H45.9998Z" fill="#F84525"/>
</svg>
