<svg width="60" height="60" viewBox="0 0 60 60" fill="none" xmlns="http://www.w3.org/2000/svg">
<path d="M22.4999 44.375C22.2249 44.375 21.9249 44.3 21.6749 44.175C19.7499 43.2 18.0999 41.75 16.8999 39.95C15.8999 38.45 15.8999 36.525 16.8999 35.025C18.0999 33.225 19.7499 31.775 21.6749 30.825C22.5999 30.35 23.7249 30.75 24.1999 31.675C24.6749 32.6 24.2999 33.725 23.3499 34.2C21.9999 34.875 20.8499 35.9 20.0249 37.15C19.8749 37.375 19.8749 37.675 20.0249 37.925C20.8499 39.175 21.9999 40.2 23.3499 40.875C24.2749 41.35 24.6499 42.475 24.1999 43.4C23.8499 44 23.1749 44.375 22.4999 44.375Z" fill="#F84525"/>
<path d="M38.0251 44.375C37.3251 44.375 36.6751 44 36.3501 43.35C35.8751 42.425 36.2501 41.3 37.2001 40.825C38.5501 40.15 39.7001 39.125 40.5251 37.875C40.6751 37.65 40.6751 37.35 40.5251 37.1C39.7001 35.85 38.5501 34.825 37.2001 34.15C36.2751 33.675 35.9001 32.55 36.3501 31.625C36.8251 30.7 37.9501 30.325 38.8751 30.775C40.8001 31.75 42.4501 33.2 43.6501 35C44.6501 36.5 44.6501 38.425 43.6501 39.925C42.4501 41.725 40.8001 43.175 38.8751 44.125C38.5751 44.3 38.3001 44.375 38.0251 44.375Z" fill="#F84525"/>
<path d="M37.5 56.875H22.5C8.925 56.875 3.125 51.075 3.125 37.5V22.5C3.125 8.925 8.925 3.125 22.5 3.125H37.5C51.075 3.125 56.875 8.925 56.875 22.5V37.5C56.875 51.075 51.075 56.875 37.5 56.875ZM22.5 6.875C10.975 6.875 6.875 10.975 6.875 22.5V37.5C6.875 49.025 10.975 53.125 22.5 53.125H37.5C49.025 53.125 53.125 49.025 53.125 37.5V22.5C53.125 10.975 49.025 6.875 37.5 6.875H22.5Z" fill="#DADADA"/>
<path d="M5.57495 21.9C4.54995 21.9 3.69995 21.05 3.69995 20.025C3.69995 19 4.52495 18.15 5.57495 18.15L53.625 18.125C54.65 18.125 55.5 18.975 55.5 20C55.5 21.025 54.675 21.875 53.625 21.875L5.57495 21.9Z" fill="#DADADA"/>
</svg>
