<svg width="60" height="60" viewBox="0 0 60 60" fill="none" xmlns="http://www.w3.org/2000/svg">
<path d="M17.5 21.875H10C6.2 21.875 3.125 18.8 3.125 15V10C3.125 6.2 6.2 3.125 10 3.125H17.5C21.3 3.125 24.375 6.2 24.375 10V15C24.375 18.8 21.3 21.875 17.5 21.875ZM10 6.875C8.275 6.875 6.875 8.275 6.875 10V15C6.875 16.725 8.275 18.125 10 18.125H17.5C19.225 18.125 20.625 16.725 20.625 15V10C20.625 8.275 19.225 6.875 17.5 6.875H10Z" fill="#DADADA"/>
<path d="M40 14.375H22.5C21.475 14.375 20.625 13.525 20.625 12.5C20.625 11.475 21.475 10.625 22.5 10.625H40C41.025 10.625 41.875 11.475 41.875 12.5C41.875 13.525 41.025 14.375 40 14.375Z" fill="#DADADA"/>
<path d="M40 51.875H36.25C32.45 51.875 29.375 48.8 29.375 45V12.5C29.375 11.475 30.225 10.625 31.25 10.625C32.275 10.625 33.125 11.475 33.125 12.5V45C33.125 46.725 34.525 48.125 36.25 48.125H40C41.025 48.125 41.875 48.975 41.875 50C41.875 51.025 41.025 51.875 40 51.875Z" fill="#DADADA"/>
<path d="M40 33.125H31.25C30.225 33.125 29.375 32.275 29.375 31.25C29.375 30.225 30.225 29.375 31.25 29.375H40C41.025 29.375 41.875 30.225 41.875 31.25C41.875 32.275 41.025 33.125 40 33.125Z" fill="#DADADA"/>
<path d="M52 19.375H43C40.3 19.375 38.125 17.175 38.125 14.5V10.5C38.125 7.80003 40.325 5.625 43 5.625H52C54.7 5.625 56.875 7.82503 56.875 10.5V14.5C56.875 17.2 54.7 19.375 52 19.375ZM43 9.375C42.4 9.375 41.875 9.90003 41.875 10.5V14.5C41.875 15.1 42.4 15.625 43 15.625H52C52.6 15.625 53.125 15.1 53.125 14.5V10.5C53.125 9.90003 52.6 9.375 52 9.375H43Z" fill="#F84525"/>
<path d="M52 38.125H43C40.3 38.125 38.125 35.925 38.125 33.25V29.25C38.125 26.55 40.325 24.375 43 24.375H52C54.7 24.375 56.875 26.575 56.875 29.25V33.25C56.875 35.95 54.7 38.125 52 38.125ZM43 28.125C42.4 28.125 41.875 28.65 41.875 29.25V33.25C41.875 33.85 42.4 34.375 43 34.375H52C52.6 34.375 53.125 33.85 53.125 33.25V29.25C53.125 28.65 52.6 28.125 52 28.125H43Z" fill="#F84525"/>
<path d="M52 56.875H43C40.3 56.875 38.125 54.675 38.125 52V48C38.125 45.3 40.325 43.125 43 43.125H52C54.7 43.125 56.875 45.325 56.875 48V52C56.875 54.7 54.7 56.875 52 56.875ZM43 46.875C42.4 46.875 41.875 47.4 41.875 48V52C41.875 52.6 42.4 53.125 43 53.125H52C52.6 53.125 53.125 52.6 53.125 52V48C53.125 47.4 52.6 46.875 52 46.875H43Z" fill="#F84525"/>
</svg>
