<svg width="60" height="60" viewBox="0 0 60 60" fill="none" xmlns="http://www.w3.org/2000/svg">
<path d="M52.5 13.125H35C33.975 13.125 33.125 12.275 33.125 11.25C33.125 10.225 33.975 9.375 35 9.375H52.5C53.525 9.375 54.375 10.225 54.375 11.25C54.375 12.275 53.525 13.125 52.5 13.125Z" fill="#DADADA"/>
<path d="M52.5 25.625H35C33.975 25.625 33.125 24.775 33.125 23.75C33.125 22.725 33.975 21.875 35 21.875H52.5C53.525 21.875 54.375 22.725 54.375 23.75C54.375 24.775 53.525 25.625 52.5 25.625Z" fill="#DADADA"/>
<path d="M52.5 38.125H7.5C6.475 38.125 5.625 37.275 5.625 36.25C5.625 35.225 6.475 34.375 7.5 34.375H52.5C53.525 34.375 54.375 35.225 54.375 36.25C54.375 37.275 53.525 38.125 52.5 38.125Z" fill="#DADADA"/>
<path d="M52.5 50.625H7.5C6.475 50.625 5.625 49.775 5.625 48.75C5.625 47.725 6.475 46.875 7.5 46.875H52.5C53.525 46.875 54.375 47.725 54.375 48.75C54.375 49.775 53.525 50.625 52.5 50.625Z" fill="#DADADA"/>
<path d="M19.8 26.875H12.7C8.85 26.875 6.875 24.925 6.875 21.05V13.95C6.875 10.1 8.825 8.125 12.7 8.125H19.825C23.675 8.125 25.65 10.075 25.65 13.95V21.075C25.625 24.925 23.675 26.875 19.8 26.875ZM12.7 11.875C10.925 11.875 10.625 12.175 10.625 13.95V21.075C10.625 22.85 10.925 23.15 12.7 23.15H19.825C21.6 23.15 21.9 22.85 21.9 21.075V13.95C21.9 12.175 21.6 11.875 19.825 11.875H12.7Z" fill="#F84525"/>
</svg>
