<svg width="60" height="60" viewBox="0 0 60 60" fill="none" xmlns="http://www.w3.org/2000/svg">
<path d="M45.575 33.8H43.45C42.425 33.8 41.575 32.95 41.575 31.925V25.975C41.575 20.25 39.75 18.425 34.025 18.425H28.075C27.05 18.425 26.2 17.575 26.2 16.55V14.425C26.2 6.59997 29.675 3.125 37.5 3.125H45.575C53.4 3.125 56.875 6.59997 56.875 14.425V22.5C56.875 30.325 53.4 33.8 45.575 33.8ZM45.325 30.05H45.575C51.3 30.05 53.125 28.225 53.125 22.5V14.425C53.125 8.69997 51.3 6.875 45.575 6.875H37.5C31.775 6.875 29.95 8.69997 29.95 14.425V14.675H34.025C41.85 14.675 45.325 18.15 45.325 25.975V30.05Z" fill="#DADADA"/>
<path d="M22.5 56.8749H14.425C6.6 56.8749 3.125 53.4 3.125 45.575V37.4999C3.125 29.6749 6.6 26.2 14.425 26.2H16.55C17.575 26.2 18.425 27.05 18.425 28.075V34.0249C18.425 39.7499 20.25 41.5749 25.975 41.5749H31.925C32.95 41.5749 33.8 42.4249 33.8 43.4499V45.575C33.8 53.4 30.325 56.8749 22.5 56.8749ZM14.425 29.95C8.7 29.95 6.875 31.7749 6.875 37.4999V45.575C6.875 51.3 8.7 53.1249 14.425 53.1249H22.5C28.225 53.1249 30.05 51.3 30.05 45.575V45.3249H25.975C18.15 45.3249 14.675 41.8499 14.675 34.0249V29.95H14.425Z" fill="#DADADA"/>
<path d="M34.0503 45.325H25.9753C18.1503 45.325 14.6753 41.8499 14.6753 34.0249V25.95C14.6753 18.125 18.1503 14.6499 25.9753 14.6499H34.0503C41.8753 14.6499 45.3503 18.125 45.3503 25.95V34.0249C45.3253 41.8499 41.8503 45.325 34.0503 45.325ZM25.9503 18.4249C20.2253 18.4249 18.4003 20.25 18.4003 25.975V34.0499C18.4003 39.7749 20.2253 41.6 25.9503 41.6H34.0253C39.7503 41.6 41.5753 39.7749 41.5753 34.0499V25.975C41.5753 20.25 39.7503 18.4249 34.0253 18.4249H25.9503Z" fill="#F84525"/>
</svg>
