<svg style="display: none;" aria-hidden="true" xmlns="http://www.w3.org/2000/svg" xmlns:xlink="http://www.w3.org/1999/xlink"><symbol viewBox="0 0 9 16" id="svg-angle-left"><path fill-rule="evenodd" clip-rule="evenodd" d="M6.65666 15.0711L0.292702 8.70716C-0.0978224 8.31664 -0.0978224 7.68347 0.292702 7.29295L6.65666 0.928985C7.04719 0.53846 7.68035 0.53846 8.07088 0.928985C8.4614 1.31951 8.4614 1.95267 8.07088 2.3432L2.41402 8.00005L8.07088 13.6569C8.4614 14.0474 8.4614 14.6806 8.07088 15.0711C7.68035 15.4616 7.04719 15.4616 6.65666 15.0711Z"/></symbol><symbol viewBox="0 0 9 16" id="svg-angle-right"><path fill-rule="evenodd" clip-rule="evenodd" d="M2.34334 15.0711L8.7073 8.70716C9.09782 8.31664 9.09782 7.68347 8.7073 7.29295L2.34334 0.928985C1.95281 0.53846 1.31965 0.53846 0.929124 0.928985C0.538599 1.31951 0.538599 1.95267 0.929124 2.3432L6.58598 8.00005L0.929124 13.6569C0.538599 14.0474 0.538599 14.6806 0.929124 15.0711C1.31965 15.4616 1.95281 15.4616 2.34334 15.0711Z"/></symbol><symbol viewBox="0 0 12 12" id="svg-close"><path d="M12 1.20857L10.7914 0L6 4.79143L1.20857 0L0 1.20857L4.79143 6L0 10.7914L1.20857 12L6 7.20857L10.7914 12L12 10.7914L7.20857 6L12 1.20857Z"/></symbol><symbol viewBox="0 0 18 18" id="svg-lin"><path d="M17 9.58336V15H13.5706V9.94607C13.5706 8.67658 13.0744 7.8102 11.8334 7.8102C10.8858 7.8102 10.3219 8.39412 10.0737 8.95904C9.98319 9.16099 9.95984 9.44213 9.95984 9.72459V15H6.52927C6.52927 15 6.5754 6.4404 6.52927 5.55368H9.95926V6.8926C9.95234 6.90263 9.94341 6.91345 9.93678 6.92322H9.95926V6.8926C10.415 6.2498 11.2289 5.33167 13.0505 5.33167C15.3081 5.33167 17 6.68194 17 9.58336ZM2.94101 1C1.76741 1 1 1.70483 1 2.63193C1 3.53871 1.7455 4.26492 2.89575 4.26492H2.91852C4.1149 4.26492 4.85867 3.53871 4.85867 2.63193C4.83618 1.70483 4.1149 1 2.94101 1ZM1.20382 15H4.63294V5.55368H1.20382V15Z"/></symbol><symbol viewBox="0 0 17 18" id="svg-tg"><path d="M14.5873 3.02261L2.18972 8.10804C1.93996 8.21243 1.9365 8.62978 2.18016 8.74949L5.35582 10.151L6.53851 14.1647C6.60888 14.3809 6.85925 14.4536 7.02094 14.3046L8.83738 12.4857L12.2907 14.9502C12.4698 15.0708 12.706 14.9618 12.7479 14.739L14.9932 3.39115C15.0412 3.1386 14.8104 2.92938 14.5873 3.02261ZM7.12182 10.9111L6.92006 12.9744L5.9613 9.79822L12.7229 5.02028L7.12182 10.9111Z"/></symbol><symbol viewBox="0 0 18 18" id="svg-vk"><path d="M16.9158 13.0307C16.8963 12.9851 16.8783 12.9469 16.8615 12.9165C16.5837 12.369 16.0534 11.6966 15.2704 10.8997L15.2536 10.8816L15.2453 10.8722L15.237 10.8634H15.2287C14.8733 10.4922 14.6483 10.2428 14.5541 10.1148C14.3819 9.87184 14.343 9.62541 14.4375 9.37604C14.5044 9.18749 14.7542 8.78903 15.1874 8.18042C15.415 7.85824 15.5954 7.59981 15.7288 7.40458C16.6896 6.00546 17.1059 5.11148 16.9783 4.72182L16.9282 4.63061C16.8948 4.57567 16.8086 4.52553 16.6699 4.47993C16.5311 4.43432 16.3533 4.42712 16.1369 4.45726L13.7377 4.47593C13.6822 4.46979 13.6267 4.47139 13.5709 4.48019C13.5154 4.48953 13.4794 4.49859 13.4626 4.50766C13.4458 4.517 13.4322 4.52447 13.421 4.53033L13.3876 4.5578C13.3599 4.57594 13.3294 4.60794 13.2961 4.65382C13.2627 4.69942 13.2347 4.7525 13.2128 4.81357C12.9518 5.54967 12.6548 6.23403 12.3214 6.86691C12.116 7.24403 11.927 7.57127 11.7551 7.84784C11.583 8.12495 11.4386 8.32871 11.322 8.45912C11.2054 8.58981 11.0997 8.69515 11.0055 8.77383C10.911 8.85331 10.8387 8.88638 10.789 8.87438C10.7389 8.86238 10.6916 8.85011 10.6473 8.83757C10.5697 8.7829 10.5068 8.70849 10.4599 8.61408C10.4126 8.51993 10.3807 8.40125 10.3639 8.2583C10.3474 8.11534 10.3374 7.99213 10.335 7.88865C10.332 7.78517 10.3335 7.63928 10.3391 7.45072C10.3447 7.26216 10.3474 7.13468 10.3474 7.06747C10.3474 6.83651 10.3515 6.58554 10.36 6.31457C10.3683 6.04387 10.3754 5.82944 10.3807 5.67128C10.3863 5.5134 10.389 5.34591 10.389 5.16935C10.389 4.99333 10.3793 4.85464 10.3598 4.7541C10.3403 4.65382 10.3111 4.55674 10.2724 4.46206C10.2334 4.36791 10.1765 4.29483 10.1015 4.24336C10.0265 4.19162 9.93347 4.15055 9.82245 4.12014C9.52785 4.04707 9.15314 4.00786 8.69785 4.00146C7.6648 3.98973 7.00109 4.0628 6.70674 4.22069C6.59011 4.2879 6.48445 4.37885 6.39022 4.49459C6.29016 4.62848 6.27628 4.70182 6.34859 4.71329C6.6819 4.76823 6.91783 4.89918 7.05661 5.10588L7.10676 5.21522C7.14547 5.2947 7.18443 5.43445 7.22339 5.63501C7.26234 5.83584 7.28717 6.05774 7.29837 6.30124C7.32613 6.74529 7.32613 7.12535 7.29837 7.44192C7.27062 7.7585 7.24432 8.00466 7.21925 8.18069C7.19417 8.35724 7.15667 8.49993 7.10676 8.60954C7.05661 8.71942 7.02349 8.78637 7.00669 8.81064C6.9899 8.83491 6.97626 8.85011 6.96506 8.85624C6.89275 8.88638 6.818 8.90185 6.74009 8.90185C6.66218 8.90185 6.56796 8.85918 6.45669 8.77383C6.34567 8.68902 6.23026 8.57167 6.11096 8.42258C5.99142 8.27376 5.85702 8.0652 5.7068 7.79743C5.55682 7.52993 5.40124 7.21362 5.24031 6.84851L5.10713 6.58367C5.02386 6.41352 4.90991 6.16548 4.76554 5.84011C4.62116 5.51473 4.49333 5.20002 4.38231 4.89545C4.33776 4.76796 4.27129 4.67062 4.18242 4.60341L4.14079 4.57594C4.11303 4.55167 4.06848 4.5258 4.00736 4.49859C3.94601 4.47112 3.88246 4.45139 3.81575 4.43912L1.5332 4.45726C1.29996 4.45726 1.1417 4.5154 1.05843 4.63088L1.02508 4.68555C1.00828 4.71622 1 4.76503 1 4.83171C1 4.89891 1.0168 4.98079 1.05016 5.07787C1.38347 5.93585 1.74575 6.76316 2.13726 7.5598C2.529 8.35698 2.86889 8.99893 3.15789 9.48539C3.44665 9.97239 3.74101 10.4314 4.04096 10.8634C4.34092 11.2955 4.53935 11.5721 4.6365 11.6937C4.73364 11.8156 4.80985 11.9068 4.8656 11.9676L5.07377 12.1868C5.20695 12.3327 5.40295 12.5077 5.66103 12.7114C5.91935 12.9154 6.20519 13.116 6.51902 13.3134C6.83261 13.5113 7.19806 13.6721 7.6144 13.7972C8.03098 13.922 8.43636 13.9721 8.83054 13.9476H9.7886C9.98314 13.9295 10.1302 13.8628 10.23 13.7468L10.2634 13.7012C10.2855 13.6649 10.3065 13.6083 10.3259 13.5326C10.3452 13.4566 10.3552 13.3728 10.3552 13.2816C10.3493 13.02 10.3676 12.784 10.4092 12.5743C10.4508 12.3644 10.4981 12.2063 10.5509 12.0996C10.6037 11.9935 10.6632 11.9036 10.7301 11.8305C10.7968 11.7574 10.8438 11.7137 10.8718 11.6982C10.8996 11.6833 10.922 11.6726 10.9385 11.6662C11.0717 11.6177 11.2285 11.6649 11.4092 11.8076C11.5896 11.9508 11.759 12.1268 11.9173 12.337C12.0755 12.5469 12.2657 12.7824 12.488 13.0443C12.71 13.3059 12.9043 13.5003 13.0711 13.6281L13.2379 13.738C13.3489 13.8108 13.4933 13.8777 13.671 13.9388C13.8487 13.9993 14.0043 14.0148 14.1375 13.9844L16.2701 13.9476C16.4812 13.9476 16.645 13.9097 16.7616 13.8334C16.8783 13.758 16.9477 13.6737 16.9698 13.5825C16.992 13.4913 16.9934 13.3883 16.9739 13.2723C16.9545 13.1568 16.935 13.0763 16.9158 13.0307Z"/></symbol></svg>