<svg width="60" height="60" viewBox="0 0 60 60" fill="none" xmlns="http://www.w3.org/2000/svg">
<path d="M47.5 41.875C46.475 41.875 45.625 41.025 45.625 40V16.25C45.625 14.525 44.225 13.125 42.5 13.125H31.25C30.225 13.125 29.375 12.275 29.375 11.25C29.375 10.225 30.225 9.375 31.25 9.375H42.5C46.3 9.375 49.375 12.45 49.375 16.25V40C49.375 41.025 48.525 41.875 47.5 41.875Z" fill="#DADADA"/>
<path d="M37.5 19.375C37.075 19.375 36.65 19.225 36.3 18.95L28.8 12.7C28.375 12.35 28.125 11.825 28.125 11.25C28.125 10.675 28.375 10.175 28.8 9.79997L36.3 3.54997C37.1 2.87497 38.275 2.99999 38.95 3.79999C39.625 4.59999 39.5 5.77498 38.7 6.44998L32.925 11.25L38.7 16.05C39.5 16.725 39.6 17.9 38.95 18.7C38.575 19.15 38.025 19.375 37.5 19.375Z" fill="#DADADA"/>
<path d="M12.5 41.875C11.475 41.875 10.625 41.025 10.625 40V22.5C10.625 21.475 11.475 20.625 12.5 20.625C13.525 20.625 14.375 21.475 14.375 22.5V40C14.375 41.025 13.525 41.875 12.5 41.875Z" fill="#DADADA"/>
<path d="M12.5 56.875C7.325 56.875 3.125 52.675 3.125 47.5C3.125 42.325 7.325 38.125 12.5 38.125C17.675 38.125 21.875 42.325 21.875 47.5C21.875 52.675 17.675 56.875 12.5 56.875ZM12.5 41.875C9.4 41.875 6.875 44.4 6.875 47.5C6.875 50.6 9.4 53.125 12.5 53.125C15.6 53.125 18.125 50.6 18.125 47.5C18.125 44.4 15.6 41.875 12.5 41.875Z" fill="#DADADA"/>
<path d="M47.5 56.875C42.325 56.875 38.125 52.675 38.125 47.5C38.125 42.325 42.325 38.125 47.5 38.125C52.675 38.125 56.875 42.325 56.875 47.5C56.875 52.675 52.675 56.875 47.5 56.875ZM47.5 41.875C44.4 41.875 41.875 44.4 41.875 47.5C41.875 50.6 44.4 53.125 47.5 53.125C50.6 53.125 53.125 50.6 53.125 47.5C53.125 44.4 50.6 41.875 47.5 41.875Z" fill="#F84525"/>
<path d="M13.125 23.125C7.6 23.125 3.125 18.65 3.125 13.125C3.125 7.6 7.6 3.125 13.125 3.125C18.65 3.125 23.125 7.6 23.125 13.125C23.125 18.65 18.65 23.125 13.125 23.125ZM13.125 6.875C9.675 6.875 6.875 9.675 6.875 13.125C6.875 16.575 9.675 19.375 13.125 19.375C16.575 19.375 19.375 16.575 19.375 13.125C19.375 9.675 16.575 6.875 13.125 6.875Z" fill="#F84525"/>
</svg>
