<svg width="60" height="60" viewBox="0 0 60 60" fill="none" xmlns="http://www.w3.org/2000/svg">
<path d="M30 56.9C27.275 56.9 24.575 56.1 22.45 54.525L11.7 46.5C8.85 44.375 6.625 39.925 6.625 36.4V17.8C6.625 13.95 9.45 9.85001 13.075 8.50001L25.55 3.82501C28.025 2.90001 31.925 2.90001 34.4 3.82501L46.875 8.50001C50.5 9.85001 53.325 13.95 53.325 17.8V36.375C53.325 39.925 51.1 44.35 48.25 46.475L37.5 54.5C35.425 56.1 32.725 56.9 30 56.9ZM26.875 7.35001L14.4 12.025C12.275 12.825 10.4 15.525 10.4 17.825V36.4C10.4 38.775 12.075 42.1 13.95 43.5L24.7 51.525C27.575 53.675 32.425 53.675 35.325 51.525L46.075 43.5C47.975 42.075 49.625 38.775 49.625 36.4V17.8C49.625 15.525 47.75 12.825 45.625 12L33.15 7.32501C31.45 6.72501 28.55 6.72501 26.875 7.35001Z" fill="#DADADA"/>
<path d="M26.6501 35.575C26.1751 35.575 25.7001 35.4 25.3251 35.025L21.3001 31C20.5751 30.275 20.5751 29.075 21.3001 28.35C22.0251 27.625 23.2251 27.625 23.9501 28.35L26.6501 31.05L36.0751 21.625C36.8001 20.9 38.0001 20.9 38.7251 21.625C39.4501 22.35 39.4501 23.55 38.7251 24.275L27.9751 35.025C27.6001 35.4 27.1251 35.575 26.6501 35.575Z" fill="#F84525"/>
</svg>
