<svg width="60" height="60" viewBox="0 0 60 60" fill="none" xmlns="http://www.w3.org/2000/svg">
<path d="M29.9999 48.4252C25.5249 48.4252 21.0499 46.7252 17.6249 43.3002C10.7999 36.4752 10.7999 25.3751 17.6249 18.5501C24.4499 11.7251 35.5499 11.7251 42.3749 18.5501C49.1999 25.3751 49.1999 36.4752 42.3749 43.3002C38.9499 46.7252 34.4749 48.4252 29.9999 48.4252ZM29.9999 17.1752C26.4749 17.1752 22.9498 18.5251 20.2748 21.2001C14.9248 26.5751 14.9248 35.2752 20.2748 40.6502C25.6498 46.0252 34.3749 46.0002 39.7249 40.6502C45.0749 35.2752 45.0749 26.5751 39.7249 21.2001C37.0499 18.5251 33.5249 17.1752 29.9999 17.1752Z" fill="#DADADA"/>
<path d="M20.6251 55.9749C20.4001 55.9749 20.1501 55.925 19.9251 55.85C14.3001 53.6 9.75007 49.6249 6.70007 44.3749C3.75007 39.2499 2.57508 33.45 3.35008 27.55C3.47508 26.525 4.42507 25.7999 5.45007 25.9249C6.47507 26.0499 7.20005 27 7.07505 28.025C6.42505 33.075 7.42512 38.0749 9.95012 42.4749C12.5501 46.9749 16.4751 50.3999 21.3001 52.3249C22.2501 52.7249 22.7251 53.7998 22.3501 54.7748C22.0751 55.5248 21.3501 55.9749 20.6251 55.9749Z" fill="#F84525"/>
<path d="M14.6252 13.0749C14.0752 13.0749 13.5253 12.8249 13.1503 12.3499C12.5003 11.5249 12.6503 10.35 13.4753 9.72498C18.2503 5.99998 23.9502 4.0249 30.0002 4.0249C35.9002 4.0249 41.5252 5.92493 46.2502 9.52493C47.0752 10.1499 47.2253 11.3249 46.6003 12.1499C45.9753 12.9749 44.8002 13.1249 43.9752 12.4999C39.9252 9.39994 35.1002 7.7749 30.0002 7.7749C24.8002 7.7749 19.8752 9.47496 15.7752 12.675C15.4252 12.95 15.0252 13.0749 14.6252 13.0749Z" fill="#F84525"/>
<path d="M39.3755 55.9751C38.6255 55.9751 37.9255 55.525 37.6255 54.8C37.2505 53.85 37.7005 52.75 38.6755 52.35C43.5005 50.4 47.4255 47 50.0255 42.5C52.5755 38.1 53.5755 33.1 52.9005 28.05C52.7755 27.025 53.5005 26.075 54.5255 25.95C55.5255 25.825 56.5005 26.5501 56.6255 27.5751C57.3755 33.4501 56.2255 39.2751 53.2755 44.4001C50.2505 49.6501 45.6755 53.6 40.0505 55.875C39.8505 55.925 39.6255 55.9751 39.3755 55.9751Z" fill="#F84525"/>
</svg>
