<svg style="display: none;" aria-hidden="true" xmlns="http://www.w3.org/2000/svg" xmlns:xlink="http://www.w3.org/1999/xlink"><symbol viewBox="0 0 24 24" id="svg-architecture"><path fill-rule="evenodd" clip-rule="evenodd" d="M5 16C4.73478 16 4.48043 16.1054 4.29289 16.2929 4.10536 16.4804 4 16.7348 4 17V19C4 19.2652 4.10536 19.5196 4.29289 19.7071 4.48043 19.8946 4.73478 20 5 20H7C7.26522 20 7.51957 19.8946 7.70711 19.7071 7.89464 19.5196 8 19.2652 8 19V17C8 16.7348 7.89464 16.4804 7.70711 16.2929 7.51957 16.1054 7.26522 16 7 16H5zM2.87868 14.8787C3.44129 14.3161 4.20435 14 5 14H7C7.79565 14 8.55871 14.3161 9.12132 14.8787 9.68393 15.4413 10 16.2043 10 17V19C10 19.7957 9.68393 20.5587 9.12132 21.1213 8.55871 21.6839 7.79565 22 7 22H5C4.20435 22 3.44129 21.6839 2.87868 21.1213 2.31607 20.5587 2 19.7956 2 19V17C2 16.2044 2.31607 15.4413 2.87868 14.8787zM17 16C16.7348 16 16.4804 16.1054 16.2929 16.2929 16.1054 16.4804 16 16.7348 16 17V19C16 19.2652 16.1054 19.5196 16.2929 19.7071 16.4804 19.8946 16.7348 20 17 20H19C19.2652 20 19.5196 19.8946 19.7071 19.7071 19.8946 19.5196 20 19.2652 20 19V17C20 16.7348 19.8946 16.4804 19.7071 16.2929 19.5196 16.1054 19.2652 16 19 16H17zM14.8787 14.8787C15.4413 14.3161 16.2043 14 17 14H19C19.7957 14 20.5587 14.3161 21.1213 14.8787 21.6839 15.4413 22 16.2043 22 17V19C22 19.7957 21.6839 20.5587 21.1213 21.1213 20.5587 21.6839 19.7957 22 19 22H17C16.2043 22 15.4413 21.6839 14.8787 21.1213 14.3161 20.5587 14 19.7957 14 19V17C14 16.2043 14.3161 15.4413 14.8787 14.8787zM11 4C10.7348 4 10.4804 4.10536 10.2929 4.29289 10.1054 4.48043 10 4.73478 10 5V7C10 7.26522 10.1054 7.51957 10.2929 7.70711 10.4804 7.89464 10.7348 8 11 8H13C13.2652 8 13.5196 7.89464 13.7071 7.70711 13.8946 7.51957 14 7.26522 14 7V5C14 4.73478 13.8946 4.48043 13.7071 4.29289 13.5196 4.10536 13.2652 4 13 4H11zM8.87868 2.87868C9.44129 2.31607 10.2044 2 11 2H13C13.7956 2 14.5587 2.31607 15.1213 2.87868 15.6839 3.44129 16 4.20435 16 5V7C16 7.79565 15.6839 8.55871 15.1213 9.12132 14.5587 9.68393 13.7957 10 13 10H11C10.2043 10 9.44129 9.68393 8.87868 9.12132 8.31607 8.55871 8 7.79565 8 7V5C8 4.20435 8.31607 3.44129 8.87868 2.87868z"/><path fill-rule="evenodd" clip-rule="evenodd" d="M8 13C7.73478 13 7.48043 13.1054 7.29289 13.2929C7.10536 13.4804 7 13.7348 7 14V15C7 15.5523 6.55228 16 6 16C5.44772 16 5 15.5523 5 15V14C5 13.2044 5.31607 12.4413 5.87868 11.8787C6.44129 11.3161 7.20435 11 8 11H16C16.7957 11 17.5587 11.3161 18.1213 11.8787C18.6839 12.4413 19 13.2043 19 14V15C19 15.5523 18.5523 16 18 16C17.4477 16 17 15.5523 17 15V14C17 13.7348 16.8946 13.4804 16.7071 13.2929C16.5196 13.1054 16.2652 13 16 13H8Z"/><path fill-rule="evenodd" clip-rule="evenodd" d="M12 8C12.5523 8 13 8.44772 13 9V12C13 12.5523 12.5523 13 12 13C11.4477 13 11 12.5523 11 12V9C11 8.44772 11.4477 8 12 8Z"/></symbol><symbol viewBox="0 0 24 24" id="svg-arrow-left"><path fill-rule="evenodd" clip-rule="evenodd" d="M20 12C20 12.5523 19.5523 13 19 13L5 13C4.44771 13 4 12.5523 4 12C4 11.4477 4.44771 11 5 11L19 11C19.5523 11 20 11.4477 20 12Z"/><path fill-rule="evenodd" clip-rule="evenodd" d="M4.29289 12.7071C3.90237 12.3166 3.90237 11.6834 4.29289 11.2929L10.2929 5.29289C10.6834 4.90237 11.3166 4.90237 11.7071 5.29289C12.0976 5.68342 12.0976 6.31658 11.7071 6.70711L5.70711 12.7071C5.31658 13.0976 4.68342 13.0976 4.29289 12.7071Z"/><path fill-rule="evenodd" clip-rule="evenodd" d="M11.7071 18.7071C11.3166 19.0976 10.6834 19.0976 10.2929 18.7071L4.29289 12.7071C3.90237 12.3166 3.90237 11.6834 4.29289 11.2929C4.68342 10.9024 5.31658 10.9024 5.70711 11.2929L11.7071 17.2929C12.0976 17.6834 12.0976 18.3166 11.7071 18.7071Z"/></symbol><symbol viewBox="0 0 24 24" id="svg-arrow-right"><path fill-rule="evenodd" clip-rule="evenodd" d="M4 12C4 11.4477 4.44772 11 5 11H19C19.5523 11 20 11.4477 20 12C20 12.5523 19.5523 13 19 13H5C4.44772 13 4 12.5523 4 12Z"/><path fill-rule="evenodd" clip-rule="evenodd" d="M19.7071 11.2929C20.0976 11.6834 20.0976 12.3166 19.7071 12.7071L13.7071 18.7071C13.3166 19.0976 12.6834 19.0976 12.2929 18.7071C11.9024 18.3166 11.9024 17.6834 12.2929 17.2929L18.2929 11.2929C18.6834 10.9024 19.3166 10.9024 19.7071 11.2929Z"/><path fill-rule="evenodd" clip-rule="evenodd" d="M12.2929 5.29289C12.6834 4.90237 13.3166 4.90237 13.7071 5.29289L19.7071 11.2929C20.0976 11.6834 20.0976 12.3166 19.7071 12.7071C19.3166 13.0976 18.6834 13.0976 18.2929 12.7071L12.2929 6.70711C11.9024 6.31658 11.9024 5.68342 12.2929 5.29289Z"/></symbol><symbol viewBox="0 0 40 40" id="svg-burger"><rect width="40" height="40" rx="6" fill="#F2F2F2"/><rect x="10" y="14" width="20" height="2" rx="1"/><rect x="10" y="19" width="20" height="2" rx="1"/><rect x="10" y="24" width="20" height="2" rx="1"/></symbol><symbol viewBox="0 0 24 24" id="svg-case"><path fill-rule="evenodd" clip-rule="evenodd" d="M5 8C4.73478 8 4.48043 8.10536 4.29289 8.29289C4.10536 8.48043 4 8.73478 4 9V18C4 18.2652 4.10536 18.5196 4.29289 18.7071C4.48043 18.8946 4.73478 19 5 19H19C19.2652 19 19.5196 18.8946 19.7071 18.7071C19.8946 18.5196 20 18.2652 20 18V9C20 8.73478 19.8946 8.48043 19.7071 8.29289C19.5196 8.10536 19.2652 8 19 8H5ZM2.87868 6.87868C3.44129 6.31607 4.20435 6 5 6H19C19.7957 6 20.5587 6.31607 21.1213 6.87868C21.6839 7.44129 22 8.20435 22 9V18C22 18.7957 21.6839 19.5587 21.1213 20.1213C20.5587 20.6839 19.7957 21 19 21H5C4.20435 21 3.44129 20.6839 2.87868 20.1213C2.31607 19.5587 2 18.7956 2 18V9C2 8.20435 2.31607 7.44129 2.87868 6.87868Z"/><path fill-rule="evenodd" clip-rule="evenodd" d="M10 4C9.73478 4 9.48043 4.10536 9.29289 4.29289C9.10536 4.48043 9 4.73478 9 5V7C9 7.55228 8.55228 8 8 8C7.44772 8 7 7.55228 7 7V5C7 4.20435 7.31607 3.44129 7.87868 2.87868C8.44129 2.31607 9.20435 2 10 2H14C14.7956 2 15.5587 2.31607 16.1213 2.87868C16.6839 3.44129 17 4.20435 17 5V7C17 7.55228 16.5523 8 16 8C15.4477 8 15 7.55228 15 7V5C15 4.73478 14.8946 4.48043 14.7071 4.29289C14.5196 4.10536 14.2652 4 14 4H10Z"/></symbol><symbol viewBox="0 0 24 24" id="svg-chat"><path fill-rule="evenodd" clip-rule="evenodd" d="M7 9C7 8.44772 7.44772 8 8 8H16C16.5523 8 17 8.44772 17 9 17 9.55228 16.5523 10 16 10H8C7.44772 10 7 9.55228 7 9zM7 13C7 12.4477 7.44772 12 8 12H14C14.5523 12 15 12.4477 15 13 15 13.5523 14.5523 14 14 14H8C7.44772 14 7 13.5523 7 13z"/><path fill-rule="evenodd" clip-rule="evenodd" d="M6 5C5.46957 5 4.96086 5.21071 4.58579 5.58579C4.21071 5.96086 4 6.46957 4 7V15C4 15.5304 4.21071 16.0391 4.58579 16.4142C4.96086 16.7893 5.46957 17 6 17H8C8.55228 17 9 17.4477 9 18V19.2338L12.4855 17.1425C12.6409 17.0493 12.8188 17 13 17H18C18.5304 17 19.0391 16.7893 19.4142 16.4142C19.7893 16.0391 20 15.5304 20 15V7C20 6.46957 19.7893 5.96086 19.4142 5.58579C19.0391 5.21071 18.5304 5 18 5H6ZM3.17157 4.17157C3.92172 3.42143 4.93913 3 6 3H18C19.0609 3 20.0783 3.42143 20.8284 4.17157C21.5786 4.92172 22 5.93913 22 7V15C22 16.0609 21.5786 17.0783 20.8284 17.8284C20.0783 18.5786 19.0609 19 18 19H13.277L8.5145 21.8575C8.20556 22.0429 7.82081 22.0477 7.5073 21.8702C7.19379 21.6927 7 21.3603 7 21V19H6C4.93913 19 3.92172 18.5786 3.17157 17.8284C2.42143 17.0783 2 16.0609 2 15V7C2 5.93913 2.42143 4.92172 3.17157 4.17157Z"/></symbol><symbol viewBox="0 0 24 24" id="svg-check-list"><path fill-rule="evenodd" clip-rule="evenodd" d="M12 5C12 4.44772 12.4477 4 13 4H21C21.5523 4 22 4.44772 22 5 22 5.55228 21.5523 6 21 6H13C12.4477 6 12 5.55228 12 5zM12 9C12 8.44772 12.4477 8 13 8H18C18.5523 8 19 8.44772 19 9 19 9.55228 18.5523 10 18 10H13C12.4477 10 12 9.55228 12 9zM12 15C12 14.4477 12.4477 14 13 14H21C21.5523 14 22 14.4477 22 15 22 15.5523 21.5523 16 21 16H13C12.4477 16 12 15.5523 12 15zM12 19C12 18.4477 12.4477 18 13 18H18C18.5523 18 19 18.4477 19 19 19 19.5523 18.5523 20 18 20H13C12.4477 20 12 19.5523 12 19zM2.58579 3.58579C2.96086 3.21071 3.46957 3 4 3H8C8.53043 3 9.03914 3.21071 9.41421 3.58579 9.78929 3.96086 10 4.46957 10 5V9C10 9.53043 9.78929 10.0391 9.41421 10.4142 9.03914 10.7893 8.53043 11 8 11H4C3.46957 11 2.96086 10.7893 2.58579 10.4142 2.21071 10.0391 2 9.53043 2 9V5C2 4.46957 2.21071 3.96086 2.58579 3.58579zM8 5L4 5V9H8V5zM2.58579 13.5858C2.96086 13.2107 3.46957 13 4 13H8C8.53043 13 9.03914 13.2107 9.41421 13.5858 9.78929 13.9609 10 14.4696 10 15V19C10 19.5304 9.78929 20.0391 9.41421 20.4142 9.03914 20.7893 8.53043 21 8 21H4C3.46957 21 2.96086 20.7893 2.58579 20.4142 2.21071 20.0391 2 19.5304 2 19V15C2 14.4696 2.21071 13.9609 2.58579 13.5858zM8 15L4 15V19L8 19V15z"/></symbol><symbol viewBox="0 0 32 32" id="svg-close"><path fill-rule="evenodd" clip-rule="evenodd" d="M9.27742 9.30872C9.65921 8.90965 10.2922 8.89563 10.6913 9.27742L15.9991 14.3554L21.3088 9.27731C21.708 8.89559 22.341 8.9097 22.7227 9.30883C23.1044 9.70797 23.0903 10.341 22.6912 10.7227L17.1741 15.9991L22.6913 21.2774C23.0904 21.6592 23.1044 22.2922 22.7226 22.6913C22.3408 23.0904 21.7078 23.1044 21.3087 22.7226L16.0009 17.6446L10.6912 22.7227C10.292 23.1044 9.65903 23.0903 9.27731 22.6912C8.89559 22.292 8.9097 21.659 9.30883 21.2773L14.826 16.0009L9.30872 10.7226C8.90965 10.3408 8.89563 9.70779 9.27742 9.30872Z"/></symbol><symbol viewBox="0 0 24 24" id="svg-code"><path fill-rule="evenodd" clip-rule="evenodd" d="M7.70711 7.29289C8.09763 7.68342 8.09763 8.31658 7.70711 8.70711L4.41421 12 7.70711 15.2929C8.09763 15.6834 8.09763 16.3166 7.70711 16.7071 7.31658 17.0976 6.68342 17.0976 6.29289 16.7071L2.29289 12.7071C1.90237 12.3166 1.90237 11.6834 2.29289 11.2929L6.29289 7.29289C6.68342 6.90237 7.31658 6.90237 7.70711 7.29289zM16.2929 7.29289C16.6834 6.90237 17.3166 6.90237 17.7071 7.29289L21.7071 11.2929C22.0976 11.6834 22.0976 12.3166 21.7071 12.7071L17.7071 16.7071C17.3166 17.0976 16.6834 17.0976 16.2929 16.7071 15.9024 16.3166 15.9024 15.6834 16.2929 15.2929L19.5858 12 16.2929 8.70711C15.9024 8.31658 15.9024 7.68342 16.2929 7.29289zM14.2428 3.02985C14.7786 3.1638 15.1043 3.70673 14.9704 4.24253L10.9704 20.2425C10.8364 20.7783 10.2935 21.1041 9.7577 20.9701 9.22191 20.8362 8.89615 20.2933 9.03009 19.7575L13.0301 3.75746C13.164 3.22166 13.707 2.8959 14.2428 3.02985z"/></symbol><symbol viewBox="0 0 24 24" id="svg-devices"><path fill-rule="evenodd" clip-rule="evenodd" d="M12.5858 7.58579C12.9609 7.21071 13.4696 7 14 7H20C20.5304 7 21.0391 7.21071 21.4142 7.58579C21.7893 7.96086 22 8.46957 22 9V19C22 19.5304 21.7893 20.0391 21.4142 20.4142C21.0391 20.7893 20.5304 21 20 21H14C13.4696 21 12.9609 20.7893 12.5858 20.4142C12.2107 20.0391 12 19.5304 12 19V9C12 8.46957 12.2107 7.96086 12.5858 7.58579ZM20 9H14L14 19H20L20 9Z"/><path fill-rule="evenodd" clip-rule="evenodd" d="M2.58579 3.58579C2.96086 3.21071 3.46957 3 4 3H17C17.5304 3 18.0391 3.21071 18.4142 3.58579C18.7893 3.96086 19 4.46957 19 5V8C19 8.55228 18.5523 9 18 9C17.4477 9 17 8.55228 17 8L17 5H4V17H13C13.5523 17 14 17.4477 14 18C14 18.5523 13.5523 19 13 19H4C3.46957 19 2.96086 18.7893 2.58579 18.4142C2.21071 18.0391 2 17.5304 2 17V5C2 4.46957 2.21071 3.96086 2.58579 3.58579Z"/><path fill-rule="evenodd" clip-rule="evenodd" d="M15 9C15 8.44772 15.4477 8 16 8H18C18.5523 8 19 8.44772 19 9C19 9.55228 18.5523 10 18 10H16C15.4477 10 15 9.55228 15 9Z"/></symbol><symbol viewBox="0 0 32 32" id="svg-in"><path d="M8 9C9.10457 9 10 8.10457 10 7 10 5.89543 9.10457 5 8 5 6.89543 5 6 5.89543 6 7 6 8.10457 6.89543 9 8 9zM17.9023 10.6234C17.902 10.6273 17.9028 10.6313 17.9046 10.6346 17.9065 10.638 17.9093 10.6407 17.9126 10.6422 17.9159 10.6438 17.9196 10.6442 17.9232 10.6433 17.9267 10.6424 17.9299 10.6403 17.9323 10.6374 18.8172 9.6309 19.9019 9.09167 21.1862 9.01969 21.4378 9.00542 21.7071 8.99891 21.9941 9.00015 23.7392 9.00573 25.2036 9.79502 26.1741 11.3717 26.7247 12.2659 27 13.3226 27 14.5419 26.9994 17.8759 26.9991 21.0917 26.9991 24.1893 26.9991 24.6044 26.6602 24.9962 26.2734 24.9953 25.2914 24.9928 24.1825 24.9941 22.9467 24.999 22.4768 25.0018 22.0977 24.7021 22.0985 24.1595 22.0997 21.2301 22.0994 18.4992 22.0977 15.9669 22.0971 15.1106 21.7776 14.496 21.1391 14.1231 20.0394 13.4808 18.7633 14.0858 18.3636 15.3331 18.2797 15.5937 18.2389 15.9731 18.2412 16.4714 18.2515 19.1197 18.2526 21.7224 18.2447 24.2795 18.2429 24.7998 17.827 25.0027 17.3948 24.999 16.2086 24.9903 15.0244 24.9906 13.8422 24.9999 13.4459 25.0037 13.0026 24.8017 13.0034 24.2972 13.0108 19.2891 13.0097 14.5577 13 10.1031 12.9991 9.62469 13.4373 9.37711 13.8199 9.37897 14.8583 9.38269 15.9461 9.383 17.0833 9.3799 17.5343 9.37804 17.8766 9.69636 17.9023 10.1925 17.9097 10.3358 17.9097 10.4794 17.9023 10.6234zM9.12539 11H6.87461C6.39157 11 6 11.4678 6 12.045V23.955C6 24.5322 6.39157 25 6.87461 25H9.12539C9.60842 25 10 24.5322 10 23.955V12.045C10 11.4678 9.60842 11 9.12539 11z"/></symbol><symbol viewBox="0 0 24 24" id="svg-pc"><path fill-rule="evenodd" clip-rule="evenodd" d="M2.58579 2.58579C2.96086 2.21071 3.46957 2 4 2H20C20.5304 2 21.0391 2.21071 21.4142 2.58579C21.7893 2.96086 22 3.46957 22 4V16C22 16.5304 21.7893 17.0391 21.4142 17.4142C21.0391 17.7893 20.5304 18 20 18H4C3.46957 18 2.96086 17.7893 2.58579 17.4142C2.21071 17.0391 2 16.5304 2 16V4C2 3.46957 2.21071 2.96086 2.58579 2.58579ZM20 4H4V16H20V4Z"/><path fill-rule="evenodd" clip-rule="evenodd" d="M2 13C2 12.4477 2.44772 12 3 12H21C21.5523 12 22 12.4477 22 13 22 13.5523 21.5523 14 21 14H3C2.44772 14 2 13.5523 2 13zM7 21C7 20.4477 7.44772 20 8 20H16C16.5523 20 17 20.4477 17 21 17 21.5523 16.5523 22 16 22H8C7.44772 22 7 21.5523 7 21z"/><path fill-rule="evenodd" clip-rule="evenodd" d="M10.1241 16.0078C10.6722 16.0763 11.0609 16.5761 10.9924 17.1241L10.4924 21.1241C10.4239 21.6722 9.92409 22.0609 9.37607 21.9924 8.82805 21.9239 8.43932 21.4241 8.50783 20.8761L9.00783 16.8761C9.07633 16.3281 9.57612 15.9393 10.1241 16.0078zM13.8761 16.0078C14.4241 15.9393 14.9239 16.3281 14.9924 16.8761L15.4924 20.8761C15.5609 21.4241 15.1722 21.9239 14.6241 21.9924 14.0761 22.0609 13.5763 21.6722 13.5078 21.1241L13.0078 17.1241C12.9393 16.5761 13.3281 16.0763 13.8761 16.0078z"/></symbol><symbol viewBox="0 0 512 512" id="svg-phone"><path d="M164.9 24.6c-7.7-18.6-28-28.5-47.4-23.2l-88 24C12.1 30.2 0 46 0 64C0 311.4 200.6 512 448 512c18 0 33.8-12.1 38.6-29.5l24-88c5.3-19.4-4.6-39.7-23.2-47.4l-96-40c-16.3-6.8-35.2-2.1-46.3 11.6L304.7 368C234.3 334.7 177.3 277.7 144 207.3L193.3 167c13.7-11.2 18.4-30 11.6-46.3l-40-96z"/></symbol><symbol viewBox="0 0 24 24" id="svg-plus-programming"><path fill-rule="evenodd" clip-rule="evenodd" d="M8 12C8 11.4477 8.44772 11 9 11H15C15.5523 11 16 11.4477 16 12C16 12.5523 15.5523 13 15 13H9C8.44772 13 8 12.5523 8 12Z"/><path fill-rule="evenodd" clip-rule="evenodd" d="M12 8C12.5523 8 13 8.44772 13 9V15C13 15.5523 12.5523 16 12 16 11.4477 16 11 15.5523 11 15V9C11 8.44772 11.4477 8 12 8zM6 6C5.73478 6 5.48043 6.10536 5.29289 6.29289 5.10536 6.48043 5 6.73478 5 7V11C5 11.2652 4.89464 11.5196 4.70711 11.7071L4.41421 12 4.70711 12.2929C4.89464 12.4804 5 12.7348 5 13V17C5 17.2652 5.10536 17.5196 5.29289 17.7071 5.48043 17.8946 5.73478 18 6 18 6.55228 18 7 18.4477 7 19 7 19.5523 6.55228 20 6 20 5.20435 20 4.44129 19.6839 3.87868 19.1213 3.31607 18.5587 3 17.7956 3 17V13.4142L2.29289 12.7071C1.90237 12.3166 1.90237 11.6834 2.29289 11.2929L3 10.5858V7C3 6.20435 3.31607 5.44129 3.87868 4.87868 4.44129 4.31607 5.20435 4 6 4 6.55228 4 7 4.44772 7 5 7 5.55228 6.55228 6 6 6zM17 5C17 4.44772 17.4477 4 18 4 18.7956 4 19.5587 4.31607 20.1213 4.87868 20.6839 5.44129 21 6.20435 21 7V10.5858L21.7071 11.2929C22.0976 11.6834 22.0976 12.3166 21.7071 12.7071L21 13.4142V17C21 17.7957 20.6839 18.5587 20.1213 19.1213 19.5587 19.6839 18.7957 20 18 20 17.4477 20 17 19.5523 17 19 17 18.4477 17.4477 18 18 18 18.2652 18 18.5196 17.8946 18.7071 17.7071 18.8946 17.5196 19 17.2652 19 17V13C19 12.7348 19.1054 12.4804 19.2929 12.2929L19.5858 12 19.2929 11.7071C19.1054 11.5196 19 11.2652 19 11V7C19 6.73478 18.8946 6.48043 18.7071 6.29289 18.5196 6.10536 18.2652 6 18 6 17.4477 6 17 5.55228 17 5z"/></symbol><symbol viewBox="0 0 24 24" id="svg-task-check"><path fill-rule="evenodd" clip-rule="evenodd" d="M5 4C4.73478 4 4.48043 4.10536 4.29289 4.29289C4.10536 4.48043 4 4.73478 4 5V19C4 19.2652 4.10536 19.5196 4.29289 19.7071C4.48043 19.8946 4.73478 20 5 20H19C19.2652 20 19.5196 19.8946 19.7071 19.7071C19.8946 19.5196 20 19.2652 20 19V5C20 4.73478 19.8946 4.48043 19.7071 4.29289C19.5196 4.10536 19.2652 4 19 4H5ZM2.87868 2.87868C3.44129 2.31607 4.20435 2 5 2H19C19.7957 2 20.5587 2.31607 21.1213 2.87868C21.6839 3.44129 22 4.20435 22 5V19C22 19.7957 21.6839 20.5587 21.1213 21.1213C20.5587 21.6839 19.7957 22 19 22H5C4.20435 22 3.44129 21.6839 2.87868 21.1213C2.31607 20.5587 2 19.7957 2 19V5C2 4.20435 2.31607 3.44129 2.87868 2.87868Z"/><path fill-rule="evenodd" clip-rule="evenodd" d="M15.7071 9.29289C16.0976 9.68342 16.0976 10.3166 15.7071 10.7071L11.7071 14.7071C11.3166 15.0976 10.6834 15.0976 10.2929 14.7071L8.29289 12.7071C7.90237 12.3166 7.90237 11.6834 8.29289 11.2929C8.68342 10.9024 9.31658 10.9024 9.70711 11.2929L11 12.5858L14.2929 9.29289C14.6834 8.90237 15.3166 8.90237 15.7071 9.29289Z"/></symbol><symbol viewBox="0 0 32 32" id="svg-tg"><path fill-rule="evenodd" clip-rule="evenodd" d="M6.44364 14.7489C12.0808 12.2087 15.8397 10.534 17.7206 9.72489C23.0907 7.4147 24.2065 7.01339 24.9338 7.00014C25.0938 6.99723 25.4514 7.03823 25.6831 7.23267C25.8787 7.39685 25.9326 7.61863 25.9583 7.77429C25.9841 7.92995 26.0162 8.28455 25.9907 8.56163C25.6997 11.7241 24.4405 19.3986 23.7999 22.9406C23.5288 24.4394 22.9951 24.9419 22.4784 24.9911C21.3554 25.098 20.5027 24.2235 19.4151 23.4861C17.7132 22.3323 16.7517 21.614 15.0997 20.488C13.1906 19.1868 14.4282 18.4716 15.5162 17.3027C15.801 16.9969 20.7486 12.3423 20.8444 11.92C20.8564 11.8672 20.8675 11.6704 20.7544 11.5664C20.6414 11.4625 20.4745 11.498 20.3541 11.5263C20.1834 11.5664 17.4646 13.425 12.1976 17.1022C11.4259 17.6503 10.7269 17.9174 10.1006 17.9034C9.41015 17.888 8.08204 17.4996 7.09473 17.1677C5.88374 16.7606 4.92128 16.5453 5.00509 15.8539C5.04874 15.4937 5.52826 15.1254 6.44364 14.7489Z"/></symbol><symbol viewBox="0 0 32 32" id="svg-vk"><path d="M17.1912 24C8.08022 24 2.88352 17.994 2.66699 8L7.23079 8C7.38069 15.3353 10.7452 18.4424 13.4102 19.0831L13.4102 8L17.7076 8V14.3263C20.3393 14.054 23.1039 11.1712 24.0367 8L28.3341 8C27.6179 11.9079 24.6198 14.7908 22.4878 15.976C24.6198 16.9369 28.0345 19.4514 29.3337 24H24.6031C23.5871 20.957 21.0555 18.6026 17.7076 18.2823V24H17.1912Z"/></symbol></svg>